<svg viewBox="0 0 1024 1024" version="1.1" xmlns="http://www.w3.org/2000/svg"><path d="M224 0h576c123.6 0 224 100.4 224 224v576c0 123.6-100.4 224-224 224H224c-123.6 0-224-100.4-224-224V224C0 100.4 100.4 0 224 0z" fill="#FFFFFF"></path><path d="M442 483.2l97.6-42.8 42.8 98-97.6 42.8-42.8-98z m32.8 368.8l-129.2-135.2s132 45.2 222 0 105.2-136 95.2-174.8c-10-38.8-30-64-58.4-80.4-28.4-16.4-49.2-22.8-49.2-22.8s95.6 13.2 133.6 96.4 22.4 161.2-19.2 214.4c-48.8 57.2-103.2 90-194.8 102.4z m377.2-303.6l-134.8 129.6s44.8-132 0-222.4c-44.8-90-135.6-105.6-174.4-95.6-38.8 10-64 30-80.4 58.8-16.4 28.8-22.8 49.2-22.8 49.2s13.2-95.6 96-133.6 160.8-22.4 214 19.2c57.6 48.8 90 103.2 102.4 194.8zM172 470.4l134.8-129.6s-44.8 132 0 222.4c44.8 90 135.6 105.6 174.4 95.6 38.8-10 64-30 80.4-58.8 16.4-28.8 22.8-49.2 22.8-49.2s-13.2 95.6-96 133.6-160.8 22.4-214-19.2c-57.6-48.8-90-103.2-102.4-194.8zM554 172l129.2 135.2s-132-45.2-222 0C371.2 352 356 443.2 366 481.6c10 38.8 30 64 58.4 80.4 28.4 16.4 49.2 22.8 49.2 22.8s-95.6-13.2-133.6-96.4-22.4-161.2 19.2-214.4C408 217.2 462.4 184.4 554 172z" fill="#E30016"></path></svg>