<svg viewBox="0 0 1024 1024" version="1.1" xmlns="http://www.w3.org/2000/svg"><path d="M83.8 502.7l30.3-13.3 13.3 30.4L97.2 533l-13.4-30.3z m10.3 114.5l-40.2-42s41 14 68.9 0c28-14 32.7-42.2 29.6-54.3-3.1-12-9.3-19.9-18.2-25-8.9-5.1-15.2-7.1-15.2-7.1s29.6 4.1 41.5 29.9c11.8 25.8 6.9 50.1-5.9 66.6-15.2 17.9-32.1 28.1-60.5 31.9z m117.1-94.3l-41.9 40.3s14-41 0-69.1c-14-28-42.2-32.8-54.2-29.7-12 3.1-19.9 9.3-24.9 18.2-5.1 8.9-7 15.3-7 15.3s4.1-29.7 29.9-41.5c25.8-11.8 50-6.9 66.4 5.9 17.8 15.3 27.9 32.2 31.7 60.6zM0 498.7l41.9-40.3s-14 41 0 69.1c14 28 42.2 32.8 54.2 29.7 12-3.1 19.9-9.3 24.9-18.2 5.1-8.9 7-15.3 7-15.3s-4.1 29.7-29.9 41.5c-25.8 11.8-50 6.9-66.4-5.9C14 544.1 3.8 527.1 0 498.7zM118.6 406l40.2 42s-41-14-68.9 0c-28 14-32.7 42.2-29.6 54.3 3.1 12 9.3 19.9 18.2 25 8.9 5.1 15.2 7.1 15.2 7.1s-29.7-4.2-41.5-30-6.9-50.1 5.9-66.6c15.3-17.8 32.2-28 60.5-31.8z" fill="#E30016"></path><path d="M237.6 539.7h329.3v-7.5H237.6z" fill="#C5C7C8"></path><path d="M566.9 539.7H1024v-7.5H566.9z" fill="#E30016"></path><path d="M303.2 444.7c2.1 0.6 4 2 5.7 4.3 1.5 2 2.9 3 4.4 3 3.5-0.6 8.2-0.3 14.1 0.9l0.6 0.2c2.6 0.7 4.3 0.8 5.1 0.3h2.2c1.5 0.6 3.2 0.4 5.3-0.4 1.2-0.3 1.6 0.1 1.3 1.3-1.2 2.3-2.6 4.2-4.4 5.6-3.2 3.2-7 3.5-11.4 0.9-7.9-4-14.9-5.5-21.1-4.3-1.2 0.6-3.1 0.7-5.7 0.4-3.2-0.3-6.2 0-8.8 0.9-2.8 1.4-5.3 2.1-7.6 2.2h-0.4c-1.8 0-3.5 0.6-5.3 1.7-3.2 0.9-5-1.2-5.3-6.1 0.3-1.7 1.3-2.3 3.1-1.7 0.9 0.9 2.9 0.7 6.2-0.4 2.9-1.2 5-1.3 6.2-0.4 6.4-0.3 10.1-2.2 11-5.6-0.1-2.8 1.5-3.7 4.8-2.8z m-57.6 6.4c1.8-2.3 3.7-2.8 5.8-1.7 0.9 0.8 2.7 1.4 5.3 1.7 4.1 0.8 6.5 2.1 7.1 3.8 0 0.8 1.5 2.3 4.4 4.2 2.1 1.4 2.1 2.7 0 3.8-3.5 1.1-7.2 1.7-11.1 1.7h-0.9c-5.1-0.1-8.4-0.8-9.8-2.1-1.7-3.6-2-7.4-0.8-11.4z m74 12.8c2.3 0.9 4 0.9 4.8 0 1.8-0.9 3.5-0.3 5.3 1.8 1.5 2 1.2 3.4-0.9 3.9-3.2 3.2-5.7 7.7-7.5 13.6 0.3 1.8-0.9 2.8-3.5 3.1-3.5-0.6-6.6-0.9-9.2-0.9-2.3 0.3-4 1.9-4.8 4.8-0.6 3.5-0.1 7 1.3 10.5 1.2 7.6 0.7 13.3-1.3 17.1-2.9 1.8-5.1 1.6-6.6-0.4-0.3-9.3 0.4-17.9 2.2-25.8 0.3-5-3.1-6.7-10.1-5.3l-0.5 0.2c-1.6 0.6-4.4 1.6-8.3 2.9-0.9 0.3-1.6 0.6-2.2 0.9-2.6 0-2.9-1.9-0.9-5.7 3.8-6.4 3.7-11.1-0.4-14-2.1-2-2.2-3.4-0.4-3.9 1.9-0.8 4-1.3 6.1-1.3h0.5c3.2 0 7-0.7 11.4-2.2 2-0.6 5.9-0.7 11.8-0.5l1.9 0.1c5.9 0.1 9.7 0.6 11.3 1.1z m-2.5 7c-8.6-0.8-16.4-0.7-23.3 0.4-2.9 1.1-5 2.2-6.5 3.4 0 0.3-0.1 0.7-0.4 1.3l-0.4 1c-0.4 0.9-0.7 1.5-0.9 1.9 0 0.8 1 1.4 3 1.7 0.3 0 0.7-0.1 1.3-0.4l1.7-0.3c2.7-0.4 4.3-0.8 4.8-1 2.6-0.8 5.3-1.1 8.2-0.8h0.1c1.1 0.3 4.6 0.4 10.7 0.4 1.2 0 1.9-0.4 2.2-1.3 0-0.6 0.3-1.3 0.9-2.1l0.4-0.8c1-1.7 0.5-2.9-1.8-3.4z m-50.5 8.1c-0.6 1.8-0.7 3.2-0.4 4.4-0.6 2.1-1.7 4.2-3.5 6.6-1.2 0.3-2.2 1-3 2.2-1.2 2.3-4.8 5.1-10.8 8.4-2.3 0.9-3.9 0-4.8-2.6 0-0.3-0.1-0.7-0.4-1.3v-0.9c-2-4.7-1.2-8.4 2.6-11 1.4 0.3 2.6 0 3.5-0.9 1.7-1.5 4.2-2.3 7.4-2.6 3.2-0.6 5.6-1.6 7.4-3.1 0.9-0.9 1.7-1.2 2.6-0.9 0.5 0.2 0.3 0.8-0.6 1.7z m21 15.1c0.9-1.2 1.7-1.5 2.6-0.9s1.2 1.6 0.9 3.1c-2.9 5.7-7.6 11-14.3 16.1-2.9 2.1-5.5 2.5-7.8 1.3-0.3 0-0.6-0.3-0.9-0.9l-0.7-0.5c-3.3-2.4-5.4-4.2-6.2-5.3-0.6-0.9-0.7-1.5-0.4-1.8 0.3-0.3 0.9-0.4 1.7-0.4l0.8-0.1c3.3-0.6 5.6-1.3 6.9-2.1 3.7-1.8 6.9-3.1 9.5-4 3-0.9 5.6-2.4 7.9-4.5z m24.2 4c-0.6-1.7-0.4-2.9 0.4-3.4 1.5-0.9 2.8-0.7 4 0.4 2.3 2.6 5 4 7.9 4.3 1.8 0 6.8 2.1 15 6.4 0.9 0.9 0.7 1.9-0.4 3-1.8 2-4.1 4-7 6-3.8 1.4-7.2 1-10.1-1.3-4.2-4-7.4-9.2-9.8-15.4z m97-56c3.5 1.5 5.6 4.4 6.2 8.8-0.3 5.5-1.2 10.2-2.6 14l-0.2 1.9c-0.3 3-0.7 7.3-1.1 12.9l-0.1 1.2c-0.2 5-0.2 8.8 0.1 11.5 0.3 2.3 2.9 3.6 7.9 3.9l1.4 0.1c9.6 0.7 14.7 0.1 15.3-1.9 1.1-6.2 1.7-11.4 1.8-15.7v-0.5c0-6.4 2.1-11.4 6.2-14.9 3.5-1.2 5.6-0.1 6.2 3.1l-0.3 1.6c-2.9 17.3-2.7 30.4 0.7 39.1 0.6 6.7-0.9 9.9-4.4 9.6-3.5-1.5-6-2.9-7.5-4.4-0.6-1.2-1.9-1.8-4-1.8l-1.7-0.3c-9.9-1.8-16.4-2.3-19.5-1.4l-0.4 0.1c-3.7 0.8-10.9 0.9-21.6 0.3-3.2 0.3-7.3 1.2-12.3 2.6-0.3 0-1.3 0.3-3.1 0.9l-3.2 1.2c-5.5 1.9-9.3 3.2-11.3 3.7-6.5-0.3-7.5-4.1-3.1-11.4 5-4.4 7.8-10.8 8.4-19.3-0.3-2.6-0.3-4.8 0-6.6 0.9-3.5 0.7-6.1-0.4-7.9-1.5-3.2-0.9-5.8 1.8-7.9 3.5-1.5 6.2-0.7 7.9 2.2 2.1 8.8 2.5 17.9 1.3 27.6-0.6 2.3-0.4 3.9 0.4 4.8 0.6 0.9 2.1 1 4.4 0.4l0.9-0.2c10.2-2 15.1-4 14.5-6 1.5-3.5 2.3-10.9 2.6-22.3v-0.5c0-1.4-0.2-3.5-0.4-6.1v-4.4c-0.5-11.3 2.6-17.4 9.2-18z m150.7-1.1c2.4 0.3 3.7 1.8 4 4.4 1.5 7.3 1 11.3-1.3 11.9-0.6 0.6-1 3.5-1.3 8.8l-0.1 1.4c-0.2 6.1-0.2 11 0.1 14.9 0.3 1.8 0 4.4-0.9 7.9-0.6 0.9-0.4 4 0.4 9.2v1.3c1.2 7.3 1.2 13.4 0 18.1-0.3 1.2-0.7 1.9-1.3 2.2-0.6 0.3-1.2 0-1.8-0.9-2.1-2.3-3.3-6-3.6-11 0-0.7-0.1-2.3-0.3-4.8l-0.3-2.8c-0.3-2.7-0.5-4.4-0.8-5.2-0.3-1.2-0.4-3.4-0.4-6.6-0.3-1.8-1.6-2.3-4-1.8-0.3 0-1 0.3-2.2 0.9l-1.4 0.5c-3.7 1.4-6.4 2.5-8 3.3l-0.4 0.2c-1.8 0.9-2.4-0.3-1.8-3.5 1.5-5.3 2.4-9.8 2.7-13.7 0-2.6 0.1-5.1 0.4-7.5 0.6-2.3 0.7-5 0.4-7.9-0.6-5.6 0-9.2 1.8-11 2.7-0.9 4.6-0.1 5.8 2.2 1.8 3.8 1.6 8.4-0.4 13.7-2.4 5-3.1 8.7-2.2 11 1.2 2.1 4.2 1.8 8.9-0.9 1.5-2.9 2.1-7.9 1.8-15-0.3-4.1-0.1-8.7 0.4-13.7 0.9-2.9 2.8-4.8 5.8-5.6z m-62.4 2.3c3.5-0.3 5.6 1.2 6.2 4.4 0.3 3.9-0.1 7.4-1.2 10.5l-0.2 0.5c-1.2 3.2-1.6 7.9-1.3 14.1 0.9 5.3 0.6 10.1-0.9 14.5 0 0.6-0.1 1.5-0.4 2.6l-0.2 0.7c-0.7 2.5-1.1 4.3-1.1 5.4-0.9 8.8-5.2 14.5-12.8 17.2-4.4 1.8-9.4 2.5-15 2.2-2.4-0.6-3.7-1.6-4-3.1 0-1.8 1.3-2.9 4-3.5 4.4-0.9 9.3-3.1 14.6-6.6 4.4-3.2 7.4-7.5 8.8-12.8 0-1.8-0.9-2.6-2.7-2.6-1.8 0.3-3.5 1.3-5.3 3.1-3.2 2.9-7.4 5.6-12.4 7.9-3.5 1.8-5.8 1.9-6.6 0.4-0.6-4.4 0.7-7.8 4-10.1 4.1-4.1 6.6-7.8 7.5-11 0-1.8 0.3-3.5 0.9-5.3 0.3-3.5-0.3-6.8-1.8-9.7-1.5-3.2-2.1-6.6-1.8-10.1 0.9-3.2 1.9-5.3 3.1-6.2 2.7-1.5 4.1-0.7 4.4 2.2 0 0.3 0.1 1 0.4 2.2 0.3 0.9 0.4 1.6 0.4 2.2 1.5 10 1.5 18.1 0 24.2-0.6 1.5-0.9 3.1-0.9 4.8 0.6 1.2 1.8 1.5 3.5 0.9 2.4-1.8 4.6-4.3 6.6-7.5 1.8-5.3 1.9-10.7 0.4-16.3-0.9-2.6-1.2-5.6-0.9-8.8 1.5-3.9 2.9-6.1 4.7-6.4z m29.3 2.2c1.5-1.8 3.1-1.5 4.8 0.9 0.6 4.4 0.4 7.9-0.4 10.6-1.5 4.1-2 9.3-1.8 15.4 0 1.8-0.1 3.8-0.4 6.2-1.5 7.4-2 14.9-1.8 22.5 0 3.5-0.7 7.5-2.2 11.9-0.6 1.2-1 1.6-1.3 1.3-0.3 0-0.7-0.4-1.3-1.3-2-3.8-2.6-9.1-1.8-15.9 0.9-2.6 1.3-5.1 1.3-7.5-0.3-2.4-1.6-3.1-4-2.2-0.3 0.3-1.2 0.9-2.6 1.8-3.2 2.1-5.3 3.5-6.1 4.4-1.8 1.5-2.8 1.3-3.1-0.4-0.3-2.1-0.1-4.3 0.4-6.6 1.2-2.9 2.2-7.8 3.1-14.6 0.6-6.2 0.4-10.3-0.4-12.4-0.9-2.6-0.1-6 2.2-10.2 0.9-1.5 1.9-2.1 3.1-1.8 0.9 0.6 1.5 1.8 1.8 3.5v0.6c0.2 4.5-0.2 11.5-1.4 21l-0.1 0.6c-0.7 4-0.1 6 1.9 6 3.7-0.6 5.6-3.3 5.7-8.1v-1.3c0-2.5 0.2-4.5 0.4-6 0-0.6 0.1-1.6 0.4-3.1v-2.6c0.4-5.2 1.6-9.5 3.6-12.7z m111.9 0.1c1.2 1.8 3.2 2.6 6.1 2.6 6.1-0.6 12.7 0 19.7 1.8 1.5 0.3 3.7 0.4 6.6 0.4 0.3-0.3 1.5-0.3 3.5 0h1.8c0.9 0.3 2.3-0.1 4.4-1.3 0.3-0.6 0.7-0.6 1.3 0 0.3 0.3 0.1 0.7-0.4 1.3-0.6 0.3-1.2 1.2-1.8 2.6-2.3 5.3-5 8-7.9 8.3-4.4 0.3-9.1-0.7-14-3.1-2-1.2-4.8-2-8.3-2.6-3.2 0.3-4.5 2.2-3.9 5.7 2.9 1.8 8.5 2.8 16.6 3.1 4.1-0.6 5.5 1.2 4.4 5.3-1.8 2-2.3 5.1-1.8 9.2 0.6 3.8 0.6 7.3 0 10.5v6.6l0.3 2.9c0.6 6.3 0.8 9.7 0.6 10.2-0.6 0.9-0.7 1.9-0.4 3.1 0.3 0.3 0.4 0.6 0.4 0.9 0.3 2.6-0.6 4.8-2.6 6.6l-0.5 0.1c-3.4 0.7-5 0.2-4.7-1.4 0.3-0.6 0.4-2.5 0.4-5.7-0.3-0.9-0.3-2.2 0-3.9v-11.9l0.2-3c0.2-3.7 0.3-6.5 0.3-8.4 0-1.2-0.3-1.8-0.9-1.8-0.6-0.3-1.2-0.1-1.8 0.4l-0.4 0.4c-2 1.5-4.4 2.3-7 2.6-1.8 0.3-2.3 1.5-1.8 3.5v0.4c0.3 2 0.3 3.8 0 5.3 0 0.3 0.1 0.9 0.4 1.8v1.8c0.6 1.8 0.3 3.8-0.9 6.1-2 0.3-5.1 0.3-9.2 0-1.5-0.6-3.9-0.6-7.4 0h-0.2c-0.6 0-1.7-0.2-3.3-0.4h-2.6c-3.2 0.3-6.6 1.3-10.1 3.1-2 0.3-2.6-1.3-1.8-4.8l0.3-0.9c2.1-6.8 3-11.3 2.8-13.5-0.8-2.3-2.5-3.4-5-3.5h-0.8c-1.7 0-2.7-0.2-3-0.4-0.9-0.3-1.5-0.1-1.8 0.4-0.3 0.9-0.4 4.1-0.4 9.6-0.6 7-2.6 13-6.1 18-3.2 4.1-7.2 5.1-11.8 3.1-0.9-1.2-2-1.8-3.5-1.8-0.6-0.3-0.9-0.6-0.9-0.9 0-0.3 0.3-0.6 0.9-0.9 5-2.9 9.1-8.2 12.3-15.8 3.2-7.9 4.4-15.3 3.5-22.3-0.3-1.8-0.3-3.2 0-4.4 0.3-0.9 0-2.3-0.9-4.4-0.6-0.9-0.4-1.6 0.4-2.2 0.6-0.6 1.6-0.6 3.1 0 7 1.2 11.8 0.1 14.5-3.1 0-1.2-0.9-2.6-2.6-4.4-2.6-0.6-4.7-0.4-6.1 0.4-3.2 1.8-7.4 3.1-12.7 3.9-2.6 0.3-4.8 0.9-6.6 1.8-2.9 0.9-4.4-2.2-4.4-9.2 0.6-1.8 1.6-2.2 3.1-1.3 0.6 0.6 2 0.4 4.4-0.4 2-0.6 5.4-0.9 10.1-0.9 0.6 0 1.5-0.1 2.6-0.4h2.2l1.1-0.2c5-0.8 8.9-1.1 11.6-1.1 4.8-1.4 7.5-3.5 7.9-6.4v-0.2c0.3-2.6 2.2-3.4 5.7-2.2 4.1 1.8 6.5 3.6 6.8 5.3z m-15.3 9.1c-1.7 2.8-1.3 5 1.3 6.6 4.6 0 8-0.4 10.3-1.2l0.5-0.4c2.2-2.2 3.1-3.8 2.6-4.5-3.5-0.7-8.4-0.8-14.7-0.5z m6.4 14.5c-2 0.9-3.5 2.9-4.4 5.9l-0.1 0.3c-0.3 0.6-0.7 1.6-1.2 2.9l-0.4 1.8c-0.3 0.6-0.3 1.1 0 1.4s0.6 0.3 0.9 0l1.6-0.1c6.1-0.5 10.4-0.6 12.8-0.3 0.6-0.3 0.4-0.9-0.4-1.8-1.7-1.2-2.5-4.1-2.2-8.6 0.3-0.6 0.3-1.1 0-1.4h-6.6z m11.6 1.1c-1.2 0.6-1.4 1.5-0.5 2.9 0.9 0.3 2 0.7 3.2 1.3l0.9 0.3c1.9 0.6 3.1 1 3.6 1 2.4 0.3 4.5 1.1 6.3 2.5 2.4 1.4 3.8 1.4 4.1 0 0.9-2.5 0.8-4.5-0.5-5.9l-1.5-0.2c-6.2-1-11.4-1.6-15.6-1.9z m-22.7 2.2c0.6-0.9 0.2-1.6-1.4-2.2-2 0.8-3.7 1.2-5.1 1.3h-0.3c-1.2 0-3.2 0.4-5.9 1.3-0.3 0.3-0.6 0.4-0.9 0.4-2.1 1.1-2.6 3.4-1.4 6.9 1.2 1.7 2.9 1.9 5 0.4l1.2-0.8c4.8-3.3 7.7-5.7 8.8-7.3z m9.2 15.9c-3.2 0.6-5.2 1.5-6 2.7-1.1 3.2-0.9 5.7 0.9 7.5 4.6-0.6 10.2-0.7 16.8-0.4 0.6 0 0.9-0.7 0.9-2.2v-0.9c-0.3-1.8-0.3-2.8 0-3.1 0-1.8-0.7-2.8-2.2-3.1h-1c-4.2 0-7.3-0.2-9.4-0.5z m130-44c3.8 0.3 4.5 3.8 2.2 10.5l-0.4 1c-2.9 7.1-4.6 12.3-4.8 15.6 0 4.1-0.6 9.1-1.8 14.9-0.6 2-0.7 5.1-0.4 9.2-0.3 1.8 0.3 2.5 1.8 2.2 2.3 0.3 5.7 1.3 10.1 3.1 3.8 1.5 8.1 2 12.8 1.8 2.6-0.6 5.6-0.6 8.8 0 1.8 0.3 3.5 0 5.3-0.9 0.9-0.9 1.6-1 2.2-0.4 0.6 0.6 0.6 1.5 0 2.6-3.8 7-9.1 12-15.8 14.9-2.1 0.6-6.2-0.6-12.3-3.5-6.2-3.5-13.8-5.1-22.9-4.8-3.5 0-6.7-0.3-9.7-0.9-1.8-0.3-3.7 0-5.7 0.9l-5.5 1.3c-9.4 2.1-15.2 3.3-17.4 3.6-2.1 0.3-4.3 0.7-6.6 1.3-2.9 1.2-4.5 0.4-4.8-2.2-0.3-3.5-0.4-6.6-0.4-9.2 0.6-3.5 2.9-4.7 7-3.5 3.2 0.9 11.3 0.1 24.2-2.2 2.3-0.6 4-2.6 4.8-6.1 0.6-4.4 0.7-8 0.4-10.9-0.3-2.3-0.3-4.1 0-5.3 0-5-1-9.8-3.1-14.5-1.8-4.7-2.2-9.3-1.3-14 3.2-3.5 6.5-3.8 9.7-0.9 1.8 4.7 2.3 9.9 1.8 15.8l-0.1 0.7c-0.5 2.8-0.6 4.6-0.3 5.4 1.2 3.5 1.3 6.9 0.4 10.1l-0.1 1c-0.2 2.2-0.3 4-0.3 5.5 0.6 2.3 0.6 4.1 0 5.3v3.5c2.1 2.6 4.5 3.1 7.5 1.3l0.3-0.6c1.9-5 3.6-12.7 5-23 0-4.1 0.4-7.4 1.3-10.1 1.7-4.6 1.2-7.7-1.6-9.5l-0.2-0.1c-1.5-0.9-1.6-1.8-0.4-2.6 3.8-4 7.3-6.1 10.3-6.3z m19.6 11.4c3.6-0.6 4.7 1.5 3.6 6.2-0.9 3-3 6.5-6.2 10.7l-6.2 12c-2.1 4.7-6.4 6.7-12.9 5.8-0.9-0.3-1.3-0.7-1.3-1.3 0-0.6 0.4-1 1.3-1.3 3.8-1.5 6.4-3.7 7.6-6.7 0.3-0.9 0.9-2.1 1.8-3.6l0.8-1.9c0.4-1 0.8-1.7 1-2.1 0.9-1.5 1.2-2.8 0.9-4 0.3-3.6 1-6.5 2.2-8.9 2-2.7 4.5-4.4 7.4-4.9z m-64.4 4.9c0 3.2 1 5.3 3.1 6.5 3.8 4.3 5.1 12.5 3.9 24.7-0.3 1.2-0.6 1.9-0.9 2.2-0.6 0.3-1.2 0-1.8-0.9l-0.6-0.9c-2.8-3.9-4.7-7.2-5.5-9.9-0.6-2.6-2.6-5.3-6.1-8.2-2.9-7.2-1.9-12.8 3.1-16.9 2.9-1.2 4.5-0.1 4.8 3.4z m105.2-18.9c2-1.8 3.8-0.9 5.3 2.6-0.3 2 0.1 3.4 1.3 3.9h1.2c2.6 0 4.4-0.2 5.4-0.4 2.9-0.6 5.7-0.6 8.3 0h1.3c1.5 0.3 2.8 0.4 3.9 0.4 1.2 0.6 1.2 1.3 0 2.2-0.3 0.3-0.9 1.2-1.8 2.6 0 0.6-0.1 1-0.4 1.3-0.6 1.8-3.1 2.8-7.5 3.1h-0.5c-2.3 0-5.8 0.3-10.4 0.9l-0.7 0.1c-1.4 0.2-2.5 0.3-3.3 0.3-1.2 0.6-3.4 2.5-6.6 5.7 0.6 0.9 2 0.9 4.4 0 7.9-2.6 15.9-2.9 24.1-0.9 1.2 0.9 0.7 2.9-1.3 6.1-2.3 2.3-6.9 3.6-13.6 3.9-1.5 2.9-1.2 4.4 0.9 4.4 5.6-1.2 9.8-1.5 12.7-0.9 1.5 0.3 1.8 1.3 0.9 3.1-2.9 4.1-5.8 6.3-8.8 6.6-0.3 0.3-1.5 0.6-3.5 0.9l-0.4 0.1c-0.6 0.2-1.1 0.3-1.3 0.3-0.9 0.3-1.9 2.3-3.1 6.1-0.6 3.2-0.1 4.8 1.3 4.8 2-1.8 4.4-3.5 7-5.3 3.2-1.2 5.3-2.3 6.1-3.5 0.9-0.6 1.5-0.6 1.8 0s0.3 1.3 0 2.2c0 0.3-0.3 0.9-0.9 1.8l-0.6 1c-0.5 0.9-0.9 1.6-1.2 2.1-0.3 0.6-1.6 2-3.9 4.4l-1 0.7c-5.9 4.1-9.9 7.5-12.2 10.3-1.8 2.3-4.5 4.7-8.3 7-1.8 0.6-2.9 0.3-3.5-0.9s-0.4-2.6 0.4-4.4c4.7-7.3 7.6-14.6 8.8-21.9 0-0.9-0.1-1.5-0.4-1.8-0.2 0-0.7 0.1-1.5 0.3l-0.6 0.2c-7 1.8-10.7 0.7-11-3.1 0.3-3.5 1.8-5.5 4.4-6.1 2.3 0 3.8-0.3 4.4-0.9l0.9-0.4c2.4-1.2 3.9-1.8 4.4-1.8 0.9-0.6 1.3-1.6 1.3-3.1-0.3-0.9-1-1.2-2.2-0.9-5.3 1.8-8 0.9-8.3-2.6v-6.1c-5 0-8-1.8-9.2-5.3 1.9-1.6 3.6-3.5 5.3-5.6l0.3-0.3 0.4-0.4c1.8-1.8 3.2-3.1 4.4-3.9l0.8-0.9c2.8-3.2 4.9-5.8 6.3-8z m70.4 3c1.8-0.9 3.4-0.6 4.8 0.9 1.2 0.9 1.3 2.2 0.4 4l-0.4 0.9c-0.6 1.2-1 2.4-1.3 3.5-0.3 1.5-1.3 3.5-3.1 6.2-1.5 2.4-3.2 10-5.3 22.9-0.3 1.8-1.2 3.1-2.6 4-1.2 0.3-1 1.6 0.4 4 3.8 5.9 7.9 10.4 12.3 13.7l0.9 0.9c1.5 0.9 3.1 2.2 4.8 4 2 1.5 4.2 2.1 6.6 1.8 0.9 0 1.5 0.3 1.8 0.9 0 0.9-0.4 1.5-1.3 1.8-2.9 1.5-5.3 3.1-7 4.9-2 1.8-4.8 2.5-8.3 2.2-4.1-1.2-6.6-3.1-7.4-5.7-1.5-2.6-2.8-5.9-3.9-9.7-0.6-1.2-1.3-1.3-2.2-0.4-1.7 3.1-4.8 4.8-9.3 4.8h-0.4c-8.2 0-14.4 1.3-18.8 4-2.2 1.1-4.7 1.7-7.4 1.8h-0.5c-2.3 0-5.1 0.6-8.3 1.8 0.3 0 0.1 0.1-0.4 0.4-0.9 0.3-1.6 0.3-2.2 0-0.3 0-0.4-0.6-0.4-1.8 0.6-4.1 2.2-6.3 4.8-6.6 6.1-2.1 9.9-5.3 11.4-9.7 0.8-2.8 1.3-5.9 1.3-9.5V489c0-3.1 0.2-5 0.4-5.9v-0.1c1.5-4.4 1.8-8.1 0.9-11-0.3-2.1-0.3-4.4 0-7.1 0.6-2.6 0.6-5.1 0-7.5-0.9-2.6-1-6.5-0.4-11.5 1.5-1.2 3.4-1.3 5.7-0.4 2 0.6 3.9 0.7 5.7 0.4 7.6-1.5 15-1.8 22.3-0.9 3.1 0.7 5.3 0.7 6.4-0.2zM856.5 457c-2.1 0.9-2.5 2.5-1.3 4.7 0.6 1.6 1.6 2.2 3.1 1.9 6.5-1.9 13.4-2.3 20.5-1.4 2.7-0.6 3.4-2.5 2.2-5.6-4.7-1.4-12.9-1.2-24.5 0.4z m0.4 17.3c-1.7 3.1-1.6 5.1 0.4 6.2 5.5-1.7 12.5-2.4 20.9-2.1 1.2-1.9 1.5-3.7 0.9-5.4-7.3-0.8-14.7-0.4-22.2 1.3z m6.9 14.1c-0.9 0-1.9 0.3-3.1 0.8l-1.1 0.2c-1.1 0.2-1.9 0.2-2.4 0.2-1.7 0.8-2.8 2.4-3.1 4.6 0.3 1.1 0 3.4-0.9 6.8v1c0.3 1.4 1.7 1.5 4.4 0.4 2.3-0.8 4.9-4.9 7.8-12.3 0.8-1.1 0.2-1.7-1.6-1.7z m8 6.4l-0.2 0.4c-0.6 1.2-1.8 3-3.4 5.4-0.3 0.9 0.3 1.3 1.8 1.3 0.9-0.3 2.1-0.4 3.6-0.4l0.9-0.1c1.3-0.2 2.2-0.3 2.7-0.3l-0.2-0.5c-0.6-1.4-1.4-3.3-2.5-5.6-1.2-1.2-2.1-1.2-2.7-0.2z m72.4-47.5c1.5 3.2 0.4 6.3-3.1 9.5-0.6 0.6-1.6 1.3-3.1 2.1l-0.8 0.6c-1.9 1.4-3.1 2.3-3.6 2.8-6.8 4.9-11.9 4.6-15.4-0.9-1.5-2-1.9-3.9-1.3-5.6 0-1.7 1.2-2 3.5-0.9 3.8 0.9 9.5-1 17.2-5.6 2-2.7 4.2-3.4 6.6-2z m23.5 0.8c0.3 0 0.7 0.1 1.3 0.4 3.9 0.6 7.5 0.7 10.8 0.5l0.7-0.1c7.3-0.6 13.7-0.6 19 0l0.6 0.1c2.3 0.5 3.7 0.6 4.2 0.3 1.5 0.6 2.4 1.9 2.6 4-0.3 2.4-2.9 3.8-7.9 4.4h-0.4c-1.2 0-2.8 0.2-4.9 0.4-1.2 0.3-2.9 0.3-5.3 0h-5.6c-6.6 0-11.1 0.2-13.6 0.4l-1 0.1c-8.8 1-12.8-0.7-12-5 1.2-4.8 5-6.7 11.5-5.5z m-27.9 16c0.9-2 2.5-2.2 4.8-0.4 2 2.9 1.8 5.8-0.9 8.7l-0.3 0.3c-0.7 0.7-1 1.2-1 1.4v0.4c-0.3 1.2-0.9 2.5-1.8 3.9-0.9 1.2-1.2 2.3-0.9 3.5 0.6 3.8 0.7 7.3 0.4 10.5-0.3 2.6-0.3 6.1 0 10.5 0.3 1.7 0.4 3.2 0.4 4.4 0.6 4.7-0.6 7.7-3.5 9.2-0.9 0-1.9 0.3-3.1 0.9-3.8 0.9-7.3 0.6-10.5-0.9-1.2-1.5-1.2-2.8 0-3.9 1.5 0.3 2.8 0 3.9-0.9l0.2-0.3c0.6-0.9 1.4-2.4 2.4-4.5 0.9-0.9 1.3-2.5 1.3-4.8-0.3-3.5-0.3-7.7 0-12.7v-1.7c0.3-2 0.3-3.5 0-4.4 0-1.2-0.3-1.7-0.9-1.7-0.6 0-1.5 0.6-2.6 1.7-3.5 2.9-8 5.7-13.6 8.3-1.8 0.6-2.5-2-2.2-7.9l0.2-0.6c1.4-4.2 2.9-6.2 4.6-5.9 2 0.9 5.1 0.1 9.2-2.2 1.8-1.7 5-3.9 9.7-6.5 2.6-1.5 3.9-3 4.2-4.4z m78.4 4.3c0 2.3-0.7 5.1-2.2 8.3-1.5 4.1-2.9 6.1-4.4 6.1-0.9 0.3-1.9 0.6-3.1 0.9-2 0.9-4.5 0.7-7.4-0.4-4.1-1.5-6.4-0.9-7 1.7l-0.2 1.5c-0.5 4.2-0.7 7.3-0.7 9.3v0.3c-0.2 1.9-0.2 5.7 0 11.5 0.6 7.3-0.9 12-4.4 14.4-0.3 0.3-0.7 0.4-1.3 0.4h-0.9c-1.5 0-2.8-1.6-3.9-4.8v-2.2c-0.3-3.2-0.3-5.8 0-7.8 0.6-5.5 0.6-13.3 0-23.5 0-2-1.5-3.2-4.4-3.5-5.2-0.3-12.2 0.6-20.9 2.6l-0.7 0.1c-3.6 0.7-5.9 0.7-6.7-0.1-1.2-0.9-1.2-3.2 0-7 1.5-3.5 2.9-5.4 4.4-5.7 2-0.6 4.5-0.6 7.4 0 1.7 0.6 5.4 0.6 10.9 0 9.6-1.2 21.5-1.2 35.7 0l0.9-0.2c3.3-0.8 5.7-1.6 7-2.4 0.6-0.9 1-1.2 1.3-0.9l0.6 1.4z"></path><path d="M267.2 572.5l-0.2 7.9h-21.2v-1.6c1.5 0 2.4-0.2 2.8-0.6s0.6-1.1 0.6-2.2v-14.9c0-0.7-0.1-1.2-0.2-1.6-0.1-0.4-0.5-0.7-1-0.9-0.5-0.2-1.3-0.3-2.3-0.3v-1.6h11.9v1.6c-1 0-1.7 0.1-2.3 0.3s-0.8 0.5-1 0.9c-0.2 0.4-0.2 0.9-0.2 1.6v13.6c0 1.1 0.1 1.8 0.2 2.3s0.4 0.8 0.9 1.1c0.5 0.2 1.2 0.4 2.3 0.4 1.3 0 2.5-0.1 3.5-0.3 1-0.2 1.9-0.7 2.8-1.6 0.9-0.9 1.4-2.2 1.6-4h1.8z m11.6-13.8c0 0.7-0.2 1.3-0.7 1.8-0.5 0.5-1.1 0.7-1.8 0.7s-1.3-0.3-1.8-0.8-0.8-1.1-0.8-1.8 0.3-1.3 0.8-1.8 1.1-0.8 1.8-0.8 1.3 0.2 1.8 0.7c0.5 0.7 0.7 1.3 0.7 2z m2 21.7h-9.5v-1.6h0.5c0.7 0 1.2-0.1 1.5-0.3 0.3-0.2 0.5-0.4 0.6-0.8 0.1-0.3 0.1-0.7 0.1-1.2v-5.4c0-0.7 0-1.2-0.1-1.5s-0.3-0.5-0.7-0.7c-0.4-0.1-1-0.2-1.8-0.2v-1.6l7.2-1.5v10.7c0 1 0.1 1.6 0.4 2s0.9 0.5 2 0.5v1.6z m20.3-3.6c0 0.9-0.2 1.6-0.5 2.3-0.4 0.6-0.8 1.1-1.5 1.4-0.6 0.3-1.3 0.4-2.1 0.4-1 0-1.8-0.2-2.5-0.7s-1-1-1.2-1.7c-1.9 1.6-3.9 2.3-5.9 2.3-1.3 0-2.3-0.3-3.1-0.9s-1.2-1.4-1.2-2.4c0-0.8 0.2-1.6 0.6-2.2 0.4-0.7 1.1-1.3 1.9-1.8 0.8-0.5 1.8-1 3-1.4s2.6-0.8 4.3-1.3v-1c0-0.8-0.2-1.5-0.6-1.9-0.4-0.5-1.1-0.7-2.2-0.7-0.9 0-1.5 0.2-1.9 0.6-0.4 0.3-0.6 0.8-0.7 1.4v0.2c-0.1 0.5-0.3 1-0.5 1.3s-0.8 0.5-1.6 0.5c-0.5 0-0.9-0.1-1.3-0.4-0.4-0.3-0.6-0.7-0.6-1.2 0-1.1 0.6-2 1.8-2.8 1.2-0.8 3-1.2 5.4-1.2 2.6 0 4.3 0.4 5.3 1.3s1.4 2 1.4 3.5v5.5c0 0.7 0 1.2 0.1 1.5 0 0.3 0.1 0.6 0.3 0.7s0.4 0.3 0.7 0.3c0.3 0 0.6-0.2 0.8-0.5 0.2-0.3 0.3-0.7 0.3-1.1h1.5z m-8 0.1v-4.3c-2.2 0.7-3.6 1.4-4.2 2.1s-0.9 1.3-0.9 2c0 0.5 0.2 1 0.5 1.3s0.8 0.5 1.4 0.5c0.6 0 1.2-0.1 1.7-0.4s0.9-0.8 1.5-1.2z m30.3 3.5h-9.1v-1.6c0.7 0 1.2-0.1 1.5-0.3 0.3-0.2 0.5-0.4 0.6-0.8 0.1-0.3 0.1-0.8 0.1-1.5V571c0-1-0.1-1.8-0.4-2.4s-0.9-0.9-1.8-0.9c-1.2 0-2.1 0.5-2.7 1.4-0.6 0.9-0.9 2-0.9 3.2v3.9c0 0.9 0.1 1.5 0.4 1.9s0.8 0.5 1.7 0.5v1.6h-9.2v-1.6c0.8 0 1.3-0.1 1.7-0.2s0.6-0.4 0.7-0.7c0.1-0.3 0.2-0.9 0.2-1.6v-5.6c0-0.8-0.2-1.3-0.5-1.6s-1-0.4-2.1-0.4v-1.6l6.8-1.5c0.1 0.7 0.2 1.3 0.2 1.9V568.1c0.7-0.8 1.5-1.4 2.3-1.9 0.8-0.5 1.8-0.7 3-0.7 1 0 1.9 0.2 2.7 0.5s1.4 0.9 1.9 1.6c0.5 0.7 0.7 1.6 0.7 2.7v5.9c0 1 0.1 1.6 0.4 2s0.9 0.5 2 0.5v1.7z m22.8-13.3c0 0.4-0.1 0.8-0.3 1-0.2 0.3-0.5 0.4-0.8 0.4-0.4 0-0.7-0.2-1.1-0.5l-0.1-0.1-0.2-0.1c-0.1-0.1-0.3-0.2-0.4-0.3-0.1-0.1-0.2-0.1-0.3-0.1-0.3 0-0.6 0.1-0.9 0.3 0.4 0.5 0.7 1 0.9 1.4 0.2 0.4 0.3 1 0.3 1.7 0 0.9-0.2 1.7-0.6 2.4-0.4 0.6-1 1.1-1.7 1.4-0.7 0.3-1.4 0.6-2.1 0.7-0.6 0.1-1.4 0.3-2.3 0.4l-1 0.1c-2.4 0.3-3.5 0.9-3.5 1.6 0 0.3 0.2 0.6 0.6 0.7 0.4 0.1 1 0.2 1.8 0.2h2.7c0.9 0 1.7 0 2.5 0.1s1.6 0.3 2.4 0.6c0.8 0.3 1.5 0.8 2.1 1.5 0.6 0.7 0.9 1.6 0.9 2.8 0 0.9-0.3 1.7-0.8 2.6-0.5 0.9-1.4 1.6-2.8 2.2-1.3 0.6-3.1 0.9-5.4 0.9-1.8 0-3.5-0.2-5.2-0.7-1.7-0.5-2.6-1.5-2.6-3.1 0-0.6 0.2-1.1 0.5-1.5s0.8-0.7 1.5-0.7c0.5 0 1 0.1 1.3 0.3-0.3 0.4-0.4 0.8-0.4 1.3 0 0.8 0.4 1.4 1.3 2 0.9 0.6 2.2 0.8 4 0.8 1.8 0 3.2-0.3 4.3-0.8 1-0.5 1.6-1.2 1.6-2.1 0-0.6-0.2-1.1-0.7-1.4s-1.1-0.5-1.9-0.6h-0.4c-0.6-0.1-1.4-0.1-2.4-0.1h-1.1c-2.1 0-3.8-0.3-5-0.7-1.2-0.4-1.8-1.4-1.8-2.8 0-1.2 0.5-2.1 1.4-2.6 0.9-0.5 2-1 3.4-1.3-3.1-0.6-4.7-2.1-4.7-4.4 0-0.8 0.2-1.5 0.6-2.3 0.4-0.8 1.2-1.5 2.2-2.1s2.5-0.9 4.3-0.9c2.3 0 4.1 0.5 5.3 1.6 0.7-1 1.7-1.6 2.8-1.6 0.6 0 1.1 0.1 1.4 0.4 0.3 0.6 0.4 1 0.4 1.4z m-7.1 3.6c0-1-0.2-1.9-0.7-2.6-0.4-0.7-1.1-1.1-2.1-1.1s-1.8 0.3-2.2 1c-0.4 0.7-0.6 1.5-0.6 2.5s0.2 1.8 0.6 2.6c0.4 0.8 1.1 1.2 2.2 1.2 0.8 0 1.5-0.3 2-0.9 0.5-0.6 0.8-1.5 0.8-2.7z m23 5.6c0 1-0.3 1.9-0.9 2.6-0.6 0.7-1.4 1.2-2.5 1.6-1 0.4-2.3 0.6-3.6 0.6-0.9 0-1.9-0.1-2.8-0.3-0.9-0.2-1.8-0.5-2.5-0.8l-0.7 1h-1.4l-0.2-4.5h1.5c0.3 0.8 0.8 1.5 1.8 2.1 0.9 0.6 2.3 0.9 4 0.9 0.4 0 0.9 0 1.4-0.1s1-0.2 1.5-0.5 0.7-0.7 0.7-1.3c0-0.5-0.2-0.9-0.7-1.1-0.4-0.2-1.3-0.5-2.4-0.8l-0.3-0.1c-1.6-0.4-2.9-0.8-4-1.2-1-0.4-1.9-0.9-2.6-1.6s-1.1-1.6-1.1-2.7c0-1.4 0.6-2.5 1.9-3.3s2.9-1.2 5-1.2c1.3 0 2.3 0.1 3.1 0.3 0.8 0.2 1.4 0.4 1.9 0.7l0.4-0.9h1.4v4.1h-1.4c-0.1-0.5-0.4-0.9-0.9-1.3s-1.1-0.7-1.8-0.9c-0.8-0.2-1.6-0.3-2.6-0.3-0.8 0-1.6 0.1-2.4 0.3-0.8 0.2-1.2 0.6-1.2 1.2 0 0.3 0.1 0.5 0.2 0.7s0.4 0.3 0.8 0.5l0.3 0.1c0.4 0.1 0.8 0.3 1.5 0.4l2 0.5c1.9 0.5 3.5 1.1 4.7 1.8 1.3 0.5 1.9 1.7 1.9 3.5z m23.3 4.1h-9v-1.6c0.8 0 1.4-0.1 1.7-0.4s0.5-0.7 0.5-1.2v-5.9c0-0.6 0-1.1-0.1-1.6s-0.3-0.9-0.6-1.3-0.8-0.6-1.5-0.6c-0.5 0-1.1 0.1-1.7 0.4-0.6 0.3-1 0.7-1.3 1.2-0.3 0.5-0.5 1.1-0.6 1.5s-0.1 1.1-0.1 1.8v3c0 0.8 0 1.4 0.1 1.8s0.2 0.7 0.5 0.9 0.8 0.3 1.5 0.3v1.6h-9.2v-1.6c0.8 0 1.4-0.1 1.7-0.2 0.4-0.2 0.6-0.4 0.7-0.7s0.1-0.8 0.1-1.6v-14.7c0-0.9-0.1-1.5-0.4-1.8-0.3-0.3-1-0.5-2.1-0.5v-1.6l7.1-1.5v11.8c0.7-0.7 1.4-1.3 2.1-1.8s1.8-0.7 3.1-0.7c0.6 0 1.2 0.1 1.8 0.3 0.6 0.2 1.2 0.4 1.6 0.8 0.5 0.3 0.8 0.7 1.1 1.2 0.5 0.9 0.7 2 0.7 3.3v5.2c0 1 0.1 1.6 0.4 2s0.9 0.5 2 0.5v1.7z m20.6-3.6c0 0.9-0.2 1.6-0.5 2.3-0.4 0.6-0.8 1.1-1.5 1.4-0.6 0.3-1.3 0.4-2.1 0.4-1 0-1.8-0.2-2.5-0.7-0.7-0.5-1-1-1.2-1.7-1.9 1.6-3.9 2.3-5.9 2.3-1.3 0-2.3-0.3-3.1-0.9-0.8-0.6-1.2-1.4-1.2-2.4 0-0.8 0.2-1.6 0.6-2.2 0.4-0.7 1.1-1.3 1.9-1.8 0.8-0.5 1.8-1 3-1.4 1.2-0.4 2.6-0.8 4.3-1.3v-1c0-0.8-0.2-1.5-0.6-1.9-0.4-0.5-1.1-0.7-2.2-0.7-0.9 0-1.5 0.2-1.9 0.6-0.4 0.3-0.6 0.8-0.7 1.4v0.2c-0.1 0.5-0.3 1-0.5 1.3-0.3 0.3-0.8 0.5-1.6 0.5-0.5 0-0.9-0.1-1.3-0.4-0.4-0.3-0.6-0.7-0.6-1.2 0-1.1 0.6-2 1.8-2.8s3-1.2 5.4-1.2c2.6 0 4.3 0.4 5.3 1.3s1.4 2 1.4 3.5v5.5c0 0.7 0 1.2 0.1 1.5s0.1 0.6 0.3 0.7 0.4 0.3 0.7 0.3c0.3 0 0.6-0.2 0.8-0.5 0.2-0.3 0.3-0.7 0.3-1.1h1.5z m-8.1 0.1v-4.3c-2.2 0.7-3.6 1.4-4.2 2.1s-0.9 1.3-0.9 2c0 0.5 0.2 1 0.5 1.3 0.3 0.3 0.8 0.5 1.4 0.5 0.6 0 1.2-0.1 1.7-0.4s1-0.8 1.5-1.2z m31.5 3.5h-9.1v-1.6c0.7 0 1.2-0.1 1.5-0.3 0.3-0.2 0.5-0.4 0.6-0.8 0.1-0.3 0.1-0.8 0.1-1.5V571c0-1-0.1-1.8-0.4-2.4s-0.9-0.9-1.8-0.9c-1.2 0-2.1 0.5-2.7 1.4-0.6 0.9-0.9 2-0.9 3.2v3.9c0 0.9 0.1 1.5 0.4 1.9s0.8 0.5 1.7 0.5v1.6h-9.2v-1.6c0.8 0 1.3-0.1 1.7-0.2s0.6-0.4 0.7-0.7c0.1-0.3 0.2-0.9 0.2-1.6v-5.6c0-0.8-0.2-1.3-0.5-1.6-0.3-0.3-1-0.4-2.1-0.4v-1.6l6.8-1.5c0.1 0.7 0.2 1.3 0.2 1.9V568.1c0.7-0.8 1.5-1.4 2.3-1.9 0.8-0.5 1.8-0.7 3-0.7 1 0 1.9 0.2 2.7 0.5s1.4 0.9 1.9 1.6c0.5 0.7 0.7 1.6 0.7 2.7v5.9c0 1 0.1 1.6 0.4 2s0.9 0.5 2 0.5v1.7z m45.3-17.3c0 1.9-0.6 3.4-1.8 4.4-1.2 1-2.6 1.7-4.2 1.9s-3.3 0.4-5.1 0.4H462v6.2c0 0.7 0.1 1.2 0.2 1.6s0.5 0.7 1 0.9c0.5 0.2 1.3 0.3 2.3 0.3v1.6h-11.9v-1.6c1 0 1.8-0.1 2.3-0.3 0.5-0.2 0.8-0.5 0.9-0.9 0.1-0.4 0.2-0.9 0.2-1.6v-15c0-0.7-0.1-1.2-0.2-1.6-0.1-0.4-0.5-0.7-0.9-0.9s-1.2-0.3-2.3-0.3v-1.6l7.5-0.2h3.7c1.4 0.1 2.7 0.2 4 0.4 1.3 0.2 2.6 0.8 3.9 1.8 1.4 1 2 2.5 2 4.5z m-5.3 0c0-1.9-0.6-3.1-1.7-3.8-1.1-0.6-2.6-1-4.4-1h-1.4v9.5h1.6c1.7 0 3.1-0.3 4.2-0.9 1.1-0.5 1.7-1.8 1.7-3.8z m24.5 5.2c0 0.7-0.2 1.2-0.6 1.6-0.4 0.4-0.9 0.6-1.5 0.6s-1.1-0.3-1.6-0.8l-0.1-0.2c-0.2-0.3-0.4-0.5-0.6-0.6s-0.4-0.2-0.6-0.2c-0.9 0-1.6 0.5-2.1 1.5s-0.8 2-0.8 3.1v3c0 1 0.1 1.6 0.4 2 0.3 0.4 0.9 0.5 2 0.5h0.9v1.6h-10.9v-1.6h0.9c1 0 1.6-0.2 1.8-0.6 0.2-0.4 0.3-1 0.3-2v-5.1c0-0.8-0.1-1.3-0.2-1.7s-0.4-0.6-0.8-0.7c-0.4-0.1-1.1-0.2-2-0.2v-1.6l6.8-1.5c0.2 0.6 0.3 1.9 0.5 3.8 0.3-0.7 0.8-1.3 1.3-1.9 0.5-0.6 1.1-1 1.8-1.4 0.7-0.3 1.3-0.5 2-0.5 1 0 1.7 0.3 2.3 0.8s0.8 1.4 0.8 2.1z m18.1 4.5h-10.8l0.1 1.4c0.1 0.7 0.2 1.5 0.5 2.2 0.3 0.8 0.7 1.4 1.4 1.9s1.6 0.8 2.7 0.8c0.6 0 1.4-0.2 2.2-0.5 0.9-0.3 1.6-0.9 2.3-1.8l1.4 0.9c-1.4 2.2-3.6 3.3-6.6 3.3-1.3 0-2.6-0.2-3.7-0.6-1.1-0.4-2-0.9-2.8-1.6-0.8-0.7-1.4-1.5-1.8-2.4s-0.6-1.9-0.6-3c0-1.4 0.3-2.7 1-3.9 0.7-1.2 1.7-2.2 2.9-2.9s2.7-1.1 4.4-1.1c1.6 0 3 0.3 4.1 1 1.1 0.7 1.9 1.6 2.4 2.7 0.7 1.2 0.9 2.3 0.9 3.6z m-4.3-1.7c0-2.7-1.1-4-3.2-4-1 0-1.8 0.4-2.3 1.1-0.5 0.7-0.8 1.7-0.9 2.9h6.4z m23.3-11.3c0 0.6-0.2 1.1-0.7 1.5s-1 0.6-1.5 0.6c-0.7 0-1.2-0.2-1.6-0.7-0.3-0.5-0.6-1.1-0.8-1.9-0.3-1-0.8-1.4-1.7-1.4-0.8 0-1.3 0.3-1.5 0.9s-0.3 1.5-0.3 2.7v4.6h3.6v1.6h-3.6v9c0 0.5 0 0.8 0.1 1 0.1 0.3 0.3 0.6 0.6 0.8 0.3 0.2 0.8 0.3 1.5 0.3h0.6v1.6h-10.3v-1.6h0.8c0.6 0 1.1-0.1 1.4-0.3 0.3-0.2 0.5-0.4 0.6-0.8 0.1-0.3 0.1-0.9 0.1-1.5v-8.5h-2.9v-1.6h2.9v-2c0-0.7 0-1.4 0.1-2.1 0.1-0.7 0.3-1.4 0.6-2.1 0.4-0.9 1-1.6 1.7-2.1s1.5-0.9 2.3-1.1c0.8-0.2 1.7-0.3 2.5-0.3 1.3 0 2.4 0.2 3.2 0.6s1.3 0.9 1.6 1.4c0.6 0.5 0.7 1 0.7 1.4z m16 13h-10.8l0.1 1.4c0.1 0.7 0.2 1.5 0.5 2.2 0.3 0.8 0.7 1.4 1.4 1.9s1.6 0.8 2.7 0.8c0.6 0 1.4-0.2 2.2-0.5 0.9-0.3 1.6-0.9 2.3-1.8l1.4 0.9c-1.4 2.2-3.6 3.3-6.6 3.3-1.3 0-2.6-0.2-3.7-0.6s-2-0.9-2.8-1.6c-0.8-0.7-1.4-1.5-1.8-2.4-0.4-0.9-0.6-1.9-0.6-3 0-1.4 0.3-2.7 1-3.9 0.7-1.2 1.7-2.2 2.9-2.9 1.3-0.7 2.7-1.1 4.4-1.1 1.6 0 3 0.3 4.1 1 1.1 0.7 1.9 1.6 2.4 2.7 0.6 1.2 0.9 2.3 0.9 3.6z m-4.3-1.7c0-2.7-1.1-4-3.2-4-1 0-1.8 0.4-2.3 1.1-0.5 0.7-0.8 1.7-0.9 2.9h6.4z m23.2 5.8c-1.4 2.7-3.7 4.1-6.8 4.1-1.5 0-2.8-0.3-4.1-0.9-1.3-0.6-2.3-1.5-3.1-2.6s-1.2-2.5-1.2-4c0-1 0.2-2.1 0.6-3s1-1.8 1.8-2.6 1.8-1.4 2.9-1.8c1.1-0.4 2.3-0.6 3.5-0.6 1.6 0 3 0.3 4.3 1 1.2 0.6 1.8 1.5 1.8 2.6 0 0.5-0.2 0.9-0.6 1.3-0.4 0.4-0.8 0.5-1.3 0.5s-0.8-0.1-1.1-0.3c-0.3-0.2-0.4-0.4-0.5-0.7l-0.4-1.2c-0.2-0.6-0.4-1-0.8-1.2-0.4-0.2-0.8-0.4-1.5-0.4-1.1 0-2 0.4-2.8 1.2s-1.2 2.3-1.2 4.4c0 1.2 0.2 2.2 0.5 3.2s0.9 1.7 1.6 2.3c0.7 0.6 1.6 0.8 2.6 0.8 1.2 0 2-0.3 2.6-0.9 0.6-0.6 1.1-1.2 1.6-2l1.6 0.8z m16.2 0.4c-0.6 1.3-1.4 2.3-2.2 2.8s-1.8 0.9-3 0.9c-1.4 0-2.4-0.3-3-0.8-0.7-0.6-1.1-1.2-1.2-1.9s-0.2-1.5-0.2-2.3v-8.2h-2.6v-1.6c1.1 0 2.1-0.2 2.9-0.6 0.8-0.4 1.5-1 1.9-1.7s0.8-1.5 0.9-2.3h1.4v4.6h5v1.6h-5v8.3c0 1 0.1 1.7 0.2 2.2 0.1 0.4 0.5 0.7 1 0.7 0.6 0 1-0.2 1.4-0.7s0.7-1 1.1-1.6l1.4 0.6z m22.4 1.4v1.6l-1.8 0.1c-0.7 0-1.5 0.1-2.3 0.2h-0.5c-1 0.1-1.9 0.2-2.5 0.3v-2.6c-1.5 1.7-3.3 2.6-5.4 2.6-1.5 0-2.7-0.3-3.4-1-0.7-0.7-1.2-1.4-1.4-2.2-0.2-0.8-0.3-1.6-0.3-2.5V570c0-0.7 0-1.2-0.1-1.5s-0.3-0.6-0.6-0.7c-0.4-0.2-0.9-0.3-1.7-0.3v-1.6h7v9.6c0 2 0.8 3 2.3 3 0.9 0 1.6-0.3 2.2-0.9 0.6-0.6 1.1-1.2 1.4-1.8v-6.3c0-0.5-0.1-0.9-0.1-1.1-0.1-0.3-0.3-0.6-0.7-0.7-0.4-0.2-1-0.2-1.8-0.2v-1.6h7.1v10.5c0 0.5 0.1 1 0.2 1.2 0.1 0.3 0.3 0.5 0.7 0.6 0.4 0.4 0.9 0.5 1.7 0.5z m18-10.4c0 0.7-0.2 1.2-0.6 1.6-0.4 0.4-0.9 0.6-1.5 0.6s-1.1-0.3-1.6-0.8l-0.1-0.2c-0.2-0.3-0.4-0.5-0.6-0.6-0.2-0.1-0.4-0.2-0.6-0.2-0.9 0-1.6 0.5-2.1 1.5s-0.8 2-0.8 3.1v3c0 1 0.1 1.6 0.4 2s0.9 0.5 2 0.5h0.9v1.6H607v-1.6h0.9c1 0 1.6-0.2 1.8-0.6 0.2-0.4 0.3-1 0.3-2v-5.1c0-0.8-0.1-1.3-0.2-1.7s-0.4-0.6-0.8-0.7c-0.4-0.1-1.1-0.2-2-0.2v-1.6l6.8-1.5c0.2 0.6 0.3 1.9 0.5 3.8 0.3-0.7 0.8-1.3 1.3-1.9 0.5-0.6 1.1-1 1.8-1.4 0.7-0.3 1.3-0.5 2-0.5 1 0 1.7 0.3 2.3 0.8 0.6 0.7 0.8 1.4 0.8 2.1z m20.5 8.5c0 0.9-0.2 1.6-0.5 2.3-0.4 0.6-0.8 1.1-1.5 1.4-0.6 0.3-1.3 0.4-2.1 0.4-1 0-1.8-0.2-2.5-0.7-0.7-0.5-1-1-1.2-1.7-1.9 1.6-3.9 2.3-5.9 2.3-1.3 0-2.3-0.3-3.1-0.9s-1.2-1.4-1.2-2.4c0-0.8 0.2-1.6 0.6-2.2s1.1-1.3 1.9-1.8c0.8-0.5 1.8-1 3-1.4s2.6-0.8 4.3-1.3v-1c0-0.8-0.2-1.5-0.6-1.9-0.4-0.5-1.1-0.7-2.2-0.7-0.9 0-1.5 0.2-1.9 0.6-0.4 0.3-0.6 0.8-0.7 1.4v0.2c-0.1 0.5-0.3 1-0.5 1.3s-0.8 0.5-1.6 0.5c-0.5 0-0.9-0.1-1.3-0.4-0.4-0.3-0.6-0.7-0.6-1.2 0-1.1 0.6-2 1.8-2.8 1.2-0.8 3-1.2 5.4-1.2 2.6 0 4.3 0.4 5.3 1.3s1.4 2 1.4 3.5v5.5c0 0.7 0 1.2 0.1 1.5 0 0.3 0.1 0.6 0.3 0.7s0.4 0.3 0.7 0.3c0.3 0 0.6-0.2 0.8-0.5 0.2-0.3 0.3-0.7 0.3-1.1h1.5z m-8.1 0.1v-4.3c-2.2 0.7-3.6 1.4-4.2 2.1s-0.9 1.3-0.9 2c0 0.5 0.2 1 0.5 1.3 0.3 0.3 0.8 0.5 1.4 0.5 0.6 0 1.2-0.1 1.7-0.4s1-0.8 1.5-1.2z m19.4 3.5h-10.1v-1.6h0.8c0.7 0 1.2-0.1 1.5-0.3 0.3-0.2 0.5-0.4 0.6-0.8 0.1-0.3 0.1-0.8 0.1-1.5v-14.9c0-0.8-0.2-1.4-0.6-1.6-0.4-0.2-1.2-0.3-2.3-0.3v-1.6l7.4-1.5v20.5c0 0.4 0 0.8 0.1 1 0.1 0.3 0.3 0.6 0.6 0.8 0.3 0.2 0.8 0.3 1.5 0.3h0.5v1.5z m48.6-0.2h-1.6c-0.2-1-0.6-1.9-1.2-2.7-0.9 0.9-1.9 1.7-3 2.4s-2.7 1-4.6 1c-2.1 0-4.1-0.5-5.9-1.6-1.8-1-3.3-2.5-4.4-4.3-1.1-1.9-1.6-4-1.6-6.3 0-1.7 0.3-3.2 0.9-4.7 0.6-1.5 1.4-2.8 2.5-4s2.4-2 3.9-2.7c1.5-0.7 3.2-1 5-1 3 0 5.4 1 7.4 2.9 0.3-0.5 0.5-1.2 0.8-2.2h1.6l0.3 8.7h-1.7c-0.3-1.5-0.9-2.8-1.6-3.9-0.8-1.2-1.7-2-2.8-2.6s-2.2-0.9-3.4-0.9c-1.3 0-2.5 0.4-3.6 1.1-1.1 0.7-1.9 1.8-2.5 3.3s-0.9 3.3-0.9 5.6c0 2.2 0.3 4 0.8 5.4 0.5 1.4 1.1 2.5 1.9 3.3 0.7 0.7 1.5 1.2 2.2 1.5 0.7 0.3 1.4 0.4 2.1 0.4 1.4 0 2.7-0.4 3.9-1.2s2.1-1.7 2.8-2.9c0.7-1.2 1.2-2.3 1.5-3.5h1.7v8.9z m24.1-7c0 1.6-0.4 3-1.2 4.1-0.8 1.2-1.8 2.1-3.1 2.7-1.3 0.6-2.8 0.9-4.3 0.9s-2.9-0.3-4.2-0.9-2.4-1.4-3.2-2.6c-0.8-1.2-1.3-2.6-1.3-4.3 0-2.5 0.9-4.4 2.6-5.8 1.7-1.3 3.8-2 6.2-2 1.8 0 3.3 0.3 4.6 1 1.3 0.7 2.3 1.6 2.9 2.8 0.6 1.5 1 2.8 1 4.1z m-4.9-0.1c0-2-0.3-3.5-0.8-4.5s-1.5-1.5-3.1-1.5c-1 0-1.7 0.2-2.3 0.7-0.5 0.4-0.9 1.1-1.1 2s-0.3 2.1-0.3 3.6c0 1.8 0.2 3.2 0.7 4.4s1.5 1.7 3.1 1.7c1.1 0 1.9-0.3 2.4-0.9s0.9-1.4 1.1-2.3c0.2-1 0.3-2 0.3-3.2z m42.7 7.3H755v-1.6c0.8 0 1.4-0.1 1.7-0.3 0.3-0.2 0.5-0.4 0.6-0.8s0.1-0.8 0.1-1.5V571c0-0.8-0.2-1.5-0.5-2.1s-1.1-1-2.4-1c-0.9 0-1.6 0.2-2.3 0.7-0.6 0.4-1.1 1-1.5 1.8-0.3 0.8-0.5 1.6-0.5 2.6v3.4c0 0.7 0 1.2 0.1 1.6 0.1 0.3 0.3 0.6 0.7 0.7 0.4 0.2 1 0.3 1.8 0.3v1.6h-9.5V579c0.8 0 1.3-0.1 1.7-0.3 0.3-0.2 0.6-0.4 0.6-0.8 0.1-0.3 0.1-0.7 0.1-1.3v-5.8c0-1.2-0.3-2-1-2.4-0.6-0.4-1.2-0.5-1.8-0.5-0.7 0-1.5 0.2-2.2 0.5-0.7 0.4-1.2 0.8-1.6 1.4-0.3 0.4-0.4 0.8-0.5 1.2-0.1 0.4-0.1 0.9-0.1 1.5v3.7c0 0.7 0 1.2 0.1 1.6 0.1 0.3 0.3 0.6 0.7 0.7 0.4 0.2 1 0.3 1.8 0.3v1.6h-9.6v-1.6c0.8 0 1.4-0.1 1.7-0.3 0.3-0.2 0.6-0.4 0.6-0.7 0.1-0.3 0.1-0.8 0.1-1.6v-6c0-1.1-0.7-1.6-2.1-1.6h-0.9V567l7.4-1.5c0.1 0.6 0.1 1.5 0.1 2.7 0.8-0.8 1.7-1.5 2.6-1.9 0.9-0.5 2-0.7 3.2-0.7 1.1 0 2.2 0.2 3.3 0.7s1.8 1.3 2.3 2.4c1.1-1.3 2.1-2.1 3.1-2.5 1-0.4 2-0.6 3-0.6 1.8 0 3.3 0.4 4.3 1.3s1.5 2.2 1.5 4v5.9c0 0.4 0 0.8 0.1 1 0.1 0.3 0.3 0.6 0.6 0.8 0.3 0.2 0.8 0.3 1.5 0.3h0.6v1.5z m36.1 0h-9.7v-1.6c0.8 0 1.4-0.1 1.7-0.3 0.3-0.2 0.5-0.4 0.6-0.8 0.1-0.3 0.1-0.7 0.1-1.3v-5.5c0-0.8-0.2-1.5-0.5-2.1s-1.1-1-2.4-1c-0.9 0-1.6 0.2-2.3 0.7-0.6 0.4-1.1 1-1.5 1.8-0.3 0.8-0.5 1.6-0.5 2.6v3.4c0 0.7 0 1.2 0.1 1.6 0.1 0.3 0.3 0.6 0.7 0.7 0.4 0.2 1 0.3 1.8 0.3v1.6h-9.5v-1.6c0.8 0 1.3-0.1 1.7-0.3s0.6-0.4 0.6-0.8c0.1-0.3 0.1-0.8 0.1-1.5v-5.5c0-1.2-0.3-2-1-2.4-0.6-0.4-1.2-0.5-1.8-0.5-0.7 0-1.5 0.2-2.2 0.5s-1.2 0.8-1.6 1.4c-0.3 0.4-0.4 0.8-0.5 1.2-0.1 0.4-0.1 0.9-0.1 1.5v3.7c0 0.7 0 1.2 0.1 1.6 0.1 0.3 0.3 0.6 0.7 0.7 0.4 0.2 1 0.3 1.8 0.3v1.6h-9.6v-1.6c0.8 0 1.4-0.1 1.7-0.3 0.3-0.2 0.6-0.4 0.6-0.7 0.1-0.3 0.1-0.8 0.1-1.6v-6c0-1.1-0.7-1.6-2.1-1.6h-0.9V567l7.4-1.5c0.1 0.6 0.1 1.5 0.1 2.7 0.8-0.8 1.7-1.5 2.6-1.9 0.9-0.5 2-0.7 3.2-0.7 1.1 0 2.2 0.2 3.3 0.7 1 0.4 1.8 1.3 2.3 2.4 1.1-1.3 2.1-2.1 3.1-2.5 1-0.4 2-0.6 3-0.6 1.8 0 3.3 0.4 4.3 1.3s1.5 2.2 1.5 4v5.4c0 0.7 0 1.1 0.1 1.5 0.1 0.3 0.3 0.6 0.6 0.8 0.3 0.2 0.8 0.3 1.5 0.3h0.6v1.5z m19.2-7.6h-10.8l0.1 1.4c0.1 0.7 0.2 1.5 0.5 2.2 0.3 0.8 0.7 1.4 1.4 1.9s1.6 0.8 2.7 0.8c0.6 0 1.4-0.2 2.2-0.5 0.9-0.3 1.6-0.9 2.3-1.8l1.4 0.9c-1.4 2.2-3.6 3.3-6.6 3.3-1.3 0-2.6-0.2-3.7-0.6s-2-0.9-2.8-1.6-1.4-1.5-1.8-2.4-0.6-1.9-0.6-3c0-1.4 0.3-2.7 1-3.9s1.7-2.2 2.9-2.9c1.3-0.7 2.7-1.1 4.4-1.1 1.6 0 3 0.3 4.1 1 1.1 0.7 1.9 1.6 2.4 2.7 0.6 1.2 0.9 2.3 0.9 3.6z m-4.3-1.7c0-2.7-1.1-4-3.2-4-1 0-1.8 0.4-2.3 1.1-0.5 0.7-0.8 1.7-0.9 2.9h6.4z m22.5-2.8c0 0.7-0.2 1.2-0.6 1.6-0.4 0.4-0.9 0.6-1.5 0.6s-1.1-0.3-1.6-0.8l-0.1-0.2c-0.2-0.3-0.4-0.5-0.6-0.6-0.2-0.1-0.4-0.2-0.6-0.2-0.9 0-1.6 0.5-2.1 1.5s-0.8 2-0.8 3.1v3c0 1 0.1 1.6 0.4 2s0.9 0.5 2 0.5h0.9v1.6h-10.9v-1.6h0.9c1 0 1.6-0.2 1.8-0.6 0.2-0.4 0.3-1 0.3-2v-5.1c0-0.8-0.1-1.3-0.2-1.7s-0.4-0.6-0.8-0.7c-0.4-0.1-1.1-0.2-2-0.2v-1.6l6.8-1.5c0.2 0.6 0.3 1.9 0.5 3.8 0.3-0.7 0.8-1.3 1.3-1.9 0.5-0.6 1.1-1 1.8-1.4s1.3-0.5 2-0.5c1 0 1.7 0.3 2.3 0.8 0.5 0.7 0.8 1.4 0.8 2.1z m19.8 8.6c-1.4 2.7-3.7 4.1-6.8 4.1-1.5 0-2.8-0.3-4.1-0.9-1.3-0.6-2.3-1.5-3.1-2.6s-1.2-2.5-1.2-4c0-1 0.2-2.1 0.6-3s1-1.8 1.8-2.6 1.8-1.4 2.9-1.8 2.3-0.6 3.5-0.6c1.6 0 3 0.3 4.3 1 1.2 0.6 1.8 1.5 1.8 2.6 0 0.5-0.2 0.9-0.6 1.3-0.4 0.4-0.8 0.5-1.3 0.5s-0.8-0.1-1.1-0.3c-0.3-0.2-0.4-0.4-0.5-0.7l-0.1-0.2c-0.1-0.2-0.2-0.6-0.3-1-0.2-0.6-0.4-1-0.8-1.2-0.4-0.2-0.8-0.4-1.5-0.4-1.1 0-2 0.4-2.8 1.2s-1.2 2.3-1.2 4.4c0 1.2 0.2 2.2 0.5 3.2s0.9 1.7 1.6 2.3c0.7 0.6 1.6 0.8 2.6 0.8 1.2 0 2-0.3 2.6-0.9 0.6-0.6 1.1-1.2 1.6-2l1.6 0.8z m9.3-18.2c0 0.7-0.2 1.3-0.7 1.8-0.5 0.5-1.1 0.7-1.8 0.7s-1.3-0.3-1.8-0.8-0.8-1.1-0.8-1.8 0.3-1.3 0.8-1.8 1.1-0.8 1.8-0.8 1.3 0.2 1.8 0.7c0.5 0.7 0.7 1.3 0.7 2z m2 21.7h-9.5v-1.6h0.5c0.7 0 1.2-0.1 1.5-0.3 0.3-0.2 0.5-0.4 0.6-0.8 0.1-0.3 0.1-0.8 0.1-1.5v-5.7c0-0.5-0.1-0.9-0.1-1.1-0.1-0.3-0.3-0.5-0.7-0.7-0.4-0.1-1-0.2-1.8-0.2v-1.6l7.2-1.5v10.7c0 1 0.1 1.6 0.4 2 0.2 0.4 0.9 0.5 2 0.5v1.8z m21.4-3.6c0 0.9-0.2 1.6-0.5 2.3-0.4 0.6-0.8 1.1-1.5 1.4-0.6 0.3-1.3 0.4-2.1 0.4-1 0-1.8-0.2-2.5-0.7-0.7-0.5-1-1-1.2-1.7-1.9 1.6-3.9 2.3-5.9 2.3-1.3 0-2.3-0.3-3.1-0.9s-1.2-1.4-1.2-2.4c0-0.8 0.2-1.6 0.6-2.2 0.4-0.7 1.1-1.3 1.9-1.8 0.8-0.5 1.8-1 3-1.4s2.6-0.8 4.3-1.3v-1c0-0.8-0.2-1.5-0.6-1.9s-1.1-0.7-2.2-0.7c-0.9 0-1.5 0.2-1.9 0.6-0.4 0.3-0.6 0.8-0.7 1.4v0.2c-0.1 0.5-0.3 1-0.5 1.3s-0.8 0.5-1.6 0.5c-0.5 0-0.9-0.1-1.3-0.4-0.4-0.3-0.6-0.7-0.6-1.2 0-1.1 0.6-2 1.8-2.8 1.2-0.8 3-1.2 5.4-1.2 2.6 0 4.3 0.4 5.3 1.3s1.4 2 1.4 3.5v5.5c0 0.7 0 1.2 0.1 1.5s0.1 0.6 0.3 0.7 0.4 0.3 0.7 0.3c0.3 0 0.6-0.2 0.8-0.5 0.2-0.3 0.3-0.7 0.3-1.1h1.5z m-8 0.1v-4.3c-2.2 0.7-3.6 1.4-4.2 2.1s-0.9 1.3-0.9 2c0 0.5 0.2 1 0.5 1.3 0.3 0.3 0.8 0.5 1.4 0.5 0.6 0 1.2-0.1 1.7-0.4 0.4-0.4 0.9-0.8 1.5-1.2z m19.7 3.5h-10.1v-1.6h0.8c0.7 0 1.2-0.1 1.5-0.3 0.3-0.2 0.5-0.4 0.6-0.8 0.1-0.3 0.1-0.7 0.1-1.2v-15.1c0-0.8-0.2-1.4-0.6-1.6s-1.2-0.3-2.3-0.3v-1.6l7.4-1.5v20c0 0.7 0 1.1 0.1 1.5 0.1 0.3 0.3 0.6 0.6 0.8s0.8 0.3 1.5 0.3h0.5v1.4z m47.6-6.2c0 1.3-0.3 2.4-1 3.3-0.7 0.8-1.5 1.5-2.6 1.9-1 0.4-2.1 0.7-3 0.9-1 0.1-1.9 0.2-2.9 0.2h-11.9v-1.6c1 0 1.8-0.1 2.3-0.3 0.5-0.2 0.8-0.5 0.9-0.9 0.1-0.4 0.2-0.9 0.2-1.6v-15c0-1-0.2-1.8-0.6-2.2-0.4-0.4-1.4-0.6-2.8-0.6v-1.6l9.4-0.2h1.9c1.2 0 2.5 0.1 3.8 0.4s2.5 0.8 3.6 1.7 1.6 2.2 1.6 3.8c0 1.2-0.4 2.3-1.3 3.2s-2.3 1.6-4.4 2.2c1.4 0.2 2.6 0.7 3.6 1.2s1.8 1.3 2.3 2.2 0.9 1.9 0.9 3z m-6.1-11.7c0-0.8-0.2-1.5-0.6-2.1s-1-1.1-1.7-1.4c-0.8-0.3-1.7-0.5-2.8-0.5h-1.8v8.5h1.4c1.9 0 3.3-0.4 4.2-1.2 0.9-0.9 1.3-2 1.3-3.3z m0.7 11.4c0-1.6-0.4-2.9-1.3-3.7-0.8-0.9-2-1.3-3.5-1.3h-2.8v6.2c0 0.9 0.1 1.5 0.2 2s0.4 0.9 0.8 1.1c0.4 0.3 1.1 0.4 2 0.4 1.2 0 2.3-0.4 3.2-1.1 0.9-0.8 1.4-2 1.4-3.6z m28.9 2.9c0 0.9-0.2 1.6-0.5 2.3-0.4 0.6-0.8 1.1-1.5 1.4-0.6 0.3-1.3 0.4-2.1 0.4-1 0-1.8-0.2-2.5-0.7-0.7-0.5-1-1-1.2-1.7-1.9 1.6-3.9 2.3-5.9 2.3-1.3 0-2.3-0.3-3.1-0.9s-1.2-1.4-1.2-2.4c0-0.8 0.2-1.6 0.6-2.2 0.4-0.7 1.1-1.3 1.9-1.8 0.8-0.5 1.8-1 3-1.4s2.6-0.8 4.3-1.3v-1c0-0.8-0.2-1.5-0.6-1.9s-1.1-0.7-2.2-0.7c-0.9 0-1.5 0.2-1.9 0.6-0.4 0.3-0.6 0.8-0.7 1.4v0.2c-0.1 0.5-0.3 1-0.5 1.3s-0.8 0.5-1.6 0.5c-0.5 0-0.9-0.1-1.3-0.4-0.4-0.3-0.6-0.7-0.6-1.2 0-1.1 0.6-2 1.8-2.8s3-1.2 5.4-1.2c2.6 0 4.3 0.4 5.3 1.3s1.4 2 1.4 3.5v5.5c0 0.7 0 1.2 0.1 1.5 0 0.3 0.1 0.6 0.3 0.7s0.4 0.3 0.7 0.3c0.3 0 0.6-0.2 0.8-0.5 0.2-0.3 0.3-0.7 0.3-1.1h1.5z m-8 0.1v-4.3l-0.7 0.2c-1.8 0.6-3 1.2-3.6 1.8-0.6 0.7-0.9 1.3-0.9 2 0 0.5 0.2 1 0.5 1.3s0.8 0.5 1.4 0.5c0.6 0 1.2-0.1 1.7-0.4s1-0.7 1.6-1.1z m30.4 3.5h-9.1v-1.6c0.7 0 1.2-0.1 1.5-0.3 0.3-0.2 0.5-0.4 0.6-0.8 0.1-0.3 0.1-0.8 0.1-1.5V571c0-1-0.1-1.8-0.4-2.4-0.3-0.6-0.9-0.9-1.8-0.9-1.2 0-2.1 0.5-2.7 1.4-0.6 0.9-0.9 2-0.9 3.2v3.9c0 0.9 0.1 1.5 0.4 1.9s0.8 0.5 1.7 0.5v1.6H976v-1.6c0.8 0 1.3-0.1 1.7-0.2s0.6-0.4 0.7-0.7c0.1-0.3 0.2-0.9 0.2-1.6v-5.6c0-0.8-0.2-1.3-0.5-1.6s-1-0.4-2.1-0.4v-1.6l6.8-1.5c0.1 0.7 0.2 1.3 0.2 1.9V568.1c0.7-0.8 1.5-1.4 2.3-1.9s1.8-0.7 3-0.7c1 0 1.9 0.2 2.7 0.5 0.8 0.4 1.4 0.9 1.9 1.6 0.5 0.7 0.7 1.6 0.7 2.7v5.9c0 1 0.1 1.6 0.4 2 0.3 0.4 0.9 0.5 2 0.5v1.7z m22.2 0h-8.7v-1.6c1 0 1.5-0.2 1.5-0.6 0-0.2-0.1-0.5-0.3-0.8l-3.3-4.3-1.8 1.3v2.2c0 0.7 0.1 1.2 0.2 1.5 0.1 0.3 0.3 0.5 0.6 0.6 0.3 0.1 0.7 0.1 1.2 0.1v1.6h-9.1v-1.6c0.7 0 1.2-0.1 1.6-0.2s0.6-0.4 0.8-0.7c0.1-0.3 0.2-0.9 0.2-1.6v-14.9c0-0.6-0.1-1-0.2-1.2-0.2-0.3-0.4-0.4-0.7-0.5-0.3-0.1-0.9-0.1-1.6-0.2v-1.6l7.1-1.5v16.1l4.9-3.4 0.4-0.3c0.1-0.1 0.2-0.2 0.3-0.2 0.1-0.1 0.1-0.2 0.1-0.3 0-0.3-0.3-0.5-0.8-0.5h-1v-1.6h7.4v1.6c-1.2 0.1-2.5 0.7-4 1.6l-1.8 1.3 4.7 6.3c0.5 0.6 0.9 1.1 1.2 1.4 0.3 0.3 0.7 0.5 1.1 0.5v1.5z" fill="#1B1918"></path></svg>