<svg viewBox="0 0 1024 1024" version="1.1" xmlns="http://www.w3.org/2000/svg"><path d="M0 512.127v144.215l58.773-24.977v-144.56L0 512.128zM193.253 367l-59.884 24.977v144.56l59.903-24.978V367h-0.019zM66.684 483.364v144.722l59.903-88.126V395.256l-59.903 88.108z" fill="#B9D445"></path><path d="M317.348 528.247c-27.72-24.503-33.502-42.858-33.502-61.225 0-30.613 21.95-51.422 55.453-51.422 9.244 0 17.334 1.215 24.258 2.442 4.629 1.227 6.937 1.227 9.257 1.227 2.308 0 4.616 1.214 4.616 4.895l-1.154 1.227v26.944c0 3.669 0 8.564-4.628 8.564-3.462 0-3.462-3.668-3.462-4.895 0-3.669-2.309-11.018-3.474-13.472-2.297-3.681-9.233-13.472-30.03-13.472-18.488 0-30.04 12.245-30.04 30.612 0 13.472 5.77 22.036 30.04 44.072l8.079 6.135c32.36 26.944 38.13 45.3 38.13 66.12 0 14.687-5.77 34.282-23.104 47.754-10.398 7.35-24.27 12.245-40.439 12.245-13.86 0-25.412-2.454-34.656-8.564-5.783-2.454-5.783-4.908-5.783-12.245 0-11.03 1.166-19.595 1.166-25.717 0.762-6.536 2.3-9.804 4.617-9.804 3.462 0 3.462 3.669 3.462 4.908 0 2.442 0 6.11 1.154 9.791 4.628 24.49 26.578 26.932 35.822 26.932 23.105 0 35.811-17.14 35.811-34.281 0-18.368-6.936-28.159-28.886-48.98l-12.707-9.791z m214.33 62.657c1.168 0 69.43-168.053 69.43-168.053 1.144-2.446 2.312-6.12 5.78-6.12 3.479 0 4.634 4.891 4.634 8.578l16.193 170.5c1.168 8.59 2.312 23.303 11.582 26.977 6.935 2.459 12.713 2.459 15.037 2.459 3.467 0 3.467 2.458 3.467 3.687 0 1.217 0 3.675-6.946 3.675h-40.488c-4.636 0-8.115-1.23-8.115-4.904 0-1.23 0-2.458 2.324-3.687 1.155 0 1.155-2.446 1.155-4.904-1.155-1.217-1.155-2.446-1.155-3.675l-10.414-136.158-59.017 141.062c-3.467 9.808-4.623 12.266-8.09 12.266-2.324 0-3.468-2.458-8.103-12.266l-59.004-138.617-8.09 121.434c-1.18 4.917-1.18 9.82-1.18 13.508 0 3.675 2.323 6.12 5.79 7.35 3.48 1.229 5.791 1.229 8.103 1.229 2.312 0 3.48 1.229 3.48 3.687 0 3.675-3.48 3.675-5.792 3.675h-42.811c-4.623 0-5.78-2.458-5.78-3.675 0-2.458 2.3-3.687 4.624-3.687 2.312 0 3.467 0 6.935-1.23 5.79-1.229 6.958-9.807 6.958-19.615l18.493-181.549c0-1.229 0-6.12 3.479-6.12 3.48 0 4.635 2.445 5.79 4.891l71.73 169.282z m195.088 7.243c1.17 12.278 1.17 14.726 8.126 18.417 6.945 3.678 19.689 4.908 22.015 4.908 3.473 0 34.76-1.23 34.76-38.063 0-9.817-2.328-36.846-24.33-52.789-9.284-6.151-15.071-7.369-20.858-8.586h-19.713v76.113z m-2.302-178.026h18.542c42.861 0 54.447 27.016 54.447 42.96 0 22.107-10.428 40.536-23.172 49.11 17.385 6.139 42.885 25.798 42.885 58.94 0 31.925-23.185 62.606-68.372 62.606-3.485 0-15.071 0-24.33-1.217h-35.929c-1.145 0-5.787 0-5.787-3.679 0-2.46 1.158-3.69 4.642-3.69 1.145 0 4.618 0 6.944-1.23 3.473-1.231 4.63-4.91 5.788-13.496 1.169-11.06 1.169-33.155 1.169-58.94V442.217c-1.17-8.6-2.327-12.279-9.283-13.509h-9.26c-2.315 0-3.472-2.448-3.472-3.678 0-4.909 4.63-4.909 5.787-4.909 9.271 0 20.858 0 25.487 1.218h3.485l10.429-1.218z m2.302 14.739V509.743c2.327 0 5.812 1.23 15.071 1.23 15.07 0 17.385-1.23 22.027-7.356 5.787-6.151 9.26-15.969 9.26-25.786 0-22.107-8.115-45.445-33.602-45.445-2.315 0-8.114 0-11.586 1.23-1.17 0-1.17 0-1.17 1.244z m127.698 90.68c1.16 34.328 11.61 62.525 32.513 82.147 20.902 19.622 46.455 29.426 81.288 28.21 15.103-1.241 33.661-2.47 44.124-8.588 5.812-2.47 5.812-3.687 8.12-8.589 1.171-9.804 3.491-34.34 3.491-36.786 0-4.902-2.32-4.902-3.492-4.902-3.48 0-3.48 2.445-3.48 4.902-1.16 6.131-3.479 17.152-8.13 23.295-9.28 11.046-23.222 13.491-40.633 13.491-23.234 1.229-45.284-8.588-62.706-28.197-15.103-17.164-24.382-42.917-25.542-67.454 0-24.51 1.16-50.263 19.73-71.114 11.611-13.478 29.034-20.837 53.416-22.066 22.061 0 40.656 7.36 47.615 14.72 5.8 4.902 9.291 14.706 10.451 25.74 0 3.685 0 7.359 3.48 7.359 4.64 0 4.64-3.674 4.64-7.36V429.89l1.16-3.674c-1.16-2.457-2.308-4.914-5.8-4.914-6.96 0-16.25-2.458-24.382-3.674-13.93-2.445-30.193-2.445-35.993-1.229-32.525 0-56.906 11.046-74.317 31.884-19.742 23.295-25.553 55.179-25.553 77.258z" fill="#12561B"></path></svg>