<svg viewBox="0 0 1024 1024" version="1.1" xmlns="http://www.w3.org/2000/svg"><path d="M110.822 479.973c24.718-7.838 59-8.159 73.866 6.743 11.27 19.229-18.195 79.347-45.68 80.614-19.622-2.184-37.324-37.708-45.582-60.418-1.455 25.608-13.322 57.229-32.598 65.586-22.125 3.509-68.344-45.292-59.783-71.143 9.284-17.83 51.056-21.14 75.163-20.371-18.497-17.92-34.833-47.975-28.461-68.104 11.834-18.913 78.787-21.44 92.63 2.02 6.726 17.144-13.54 46.71-29.555 65.073z m-16.37 1.321c6.886-9.206 15.804-33.51 13.988-42.4-0.823-4.005-3.232-7.634-16.768-7.634-12.927 0-16.433 6.495-15.796 10.543-0.111 14.812 18.576 39.491 18.576 39.491z m-13.621 11.473c-11.432 0.934-35.559 10.342-41.072 17.609-2.485 3.267-3.646 7.49 5.19 17.675 8.44 9.727 15.614 8.067 18.246 4.897 11.233-9.742 17.636-40.18 17.636-40.18z m21.77 4.217c4.993 10.34 22.498 29.546 31.284 32.11 3.962 1.155 8.326 0.743 14.67-11.112 6.055-11.333 1.915-17.448-2.003-18.779-13.172-7.033-43.951-2.22-43.951-2.22z" fill="#1A6B37"></path><path d="M358.818 520.755v-32.902c-2.81-1.619-8.79-2.73-14.081-1.398-5.372 1.346-10.97 4.245-14.498 7.99-4.106 4.377-6.917 7.777-6.917 15.583 0 6.768 1.596 12.014 4.794 15.722 3.184 3.716 7.553 5.57 13.1 5.57 4.304 0 7.517-0.294 11.945-3.679 4.486-3.436 5.657-5.665 5.657-6.886z m0.124 19.6c0-2.634 0.293-3.26 0.198-9.844-5.606 6.96-9.668 8.814-14.293 10.977-4.004 1.868-8.292 2.67-13.247 2.67-7.202 0-12.932-2.486-17.184-7.475-4.26-4.98-6.382-11.654-6.382-20.026 0 0 0.322-5.283 0.636-6.77 3.17-14.971 13.598-22.498 13.598-22.498 9.12-7.276 17.207-9.66 23.925-10.925 6.55-1.237 9.324-0.913 15.026-0.825 0 0 9.016 0.596 10.904 3.73 1.413 11.14 0.864 43.07 0.864 43.07 0 5.077 0.073 16.702 0.073 17.68l-14.118 0.236z m262.78-19.6v-32.902c-2.81-1.619-8.782-2.73-14.08-1.398-5.365 1.346-10.97 4.245-14.49 7.99-4.106 4.377-6.924 7.777-6.924 15.583 0 6.768 1.596 12.014 4.8 15.722 3.177 3.716 7.546 5.57 13.093 5.57 4.31 0 7.523-0.294 11.943-3.679 4.494-3.436 5.657-5.665 5.657-6.886z m0.131 19.6c0-2.634 0.293-3.26 0.198-9.844-5.613 6.96-9.675 8.814-14.3 10.977-3.996 1.868-8.284 2.67-13.246 2.67-7.194 0-12.924-2.486-17.183-7.475-4.252-4.98-6.382-11.654-6.382-20.026 0 0 0.33-5.283 0.644-6.77 3.17-14.971 13.598-22.498 13.598-22.498 9.118-7.276 17.205-9.66 23.916-10.925 6.557-1.237 9.33-0.913 15.031-0.825 0 0 9.016 0.596 10.897 3.73 1.412 11.14 0.87 43.07 0.87 43.07 0 5.077 0.074 16.702 0.074 17.68l-14.117 0.236z m200.39-19.6v-32.902c-2.81-1.619-8.781-2.73-14.08-1.398-5.364 1.346-10.97 4.245-14.497 7.99-4.105 4.377-6.916 7.777-6.916 15.583 0 6.768 1.596 12.014 4.801 15.722 3.176 3.716 7.545 5.57 13.092 5.57 4.31 0 7.523-0.294 11.944-3.679 4.493-3.436 5.657-5.665 5.657-6.886z m0.132 19.6c0-2.634 0.293-3.26 0.198-9.844-5.613 6.96-9.667 8.814-14.3 10.977-3.996 1.868-8.284 2.67-13.246 2.67-7.194 0-12.924-2.486-17.176-7.475-4.259-4.98-6.388-11.654-6.388-20.026 0 0 0.322-5.283 0.644-6.77 3.168-14.971 13.597-22.498 13.597-22.498 9.118-7.276 17.198-9.66 23.916-10.925 6.557-1.237 9.33-0.913 15.031-0.825 0 0 9.016 0.596 10.897 3.73 1.413 11.14 0.871 43.07 0.871 43.07 0 5.077 0.066 16.702 0.066 17.68l-14.11 0.236zM279.41 517.422c0-2.45-0.587-4.423-1.776-5.937-1.183-1.507-2.798-2.739-4.839-3.703-2.034-0.958-4.332-1.737-6.865-2.33a319.393 319.393 0 0 0-8.003-1.774c-3.7-0.81-7.24-1.781-10.602-2.91-3.37-1.128-6.336-2.686-8.899-4.675-2.555-1.989-4.596-4.512-6.116-7.584-1.52-3.073-2.276-6.91-2.276-11.51 0-5.077 0.881-9.507 2.636-13.27 1.755-3.762 4.134-6.88 7.144-9.343 3.017-2.471 6.55-4.32 10.602-5.544 4.06-1.224 8.627-1.825 13.7-1.825 5.074 0 10.177 0.504 15.294 1.506 5.125 1.01 9.538 2.3 13.238 3.881v15.103c-4.934-1.967-9.662-3.392-14.2-4.275-4.53-0.89-8.78-1.328-12.768-1.328-5.741 0-10.161 1.046-13.274 3.161-3.106 2.108-4.655 5.269-4.655 9.492 0 2.441 0.506 4.46 1.527 6.04 1.02 1.581 2.408 2.887 4.163 3.919 1.755 1.032 3.774 1.855 6.05 2.479 2.276 0.623 4.692 1.202 7.254 1.729 4.031 0.868 7.893 1.855 11.564 2.99 3.679 1.121 6.938 2.687 9.787 4.706 2.842 2.01 5.096 4.638 6.755 7.874 1.66 3.235 2.49 7.376 2.49 12.408 0 5.18-0.948 9.662-2.842 13.447a25.135 25.135 0 0 1-8.077 9.38c-3.487 2.48-7.716 4.312-12.702 5.507-4.985 1.195-10.433 1.796-16.366 1.796a75.454 75.454 0 0 1-15.264-1.544c-5-1.031-9.163-2.486-12.482-4.356v-14.88c4.692 2.056 9.273 3.555 13.73 4.498a67.584 67.584 0 0 0 13.803 1.402c2.754 0 5.456-0.23 8.114-0.69 2.658-0.452 5.036-1.232 7.15-2.337 2.108-1.099 3.804-2.598 5.09-4.498 1.277-1.885 1.915-4.222 1.915-7.005z m122.13-34.785h0.295c1.027-1.452 2.32-2.882 3.88-4.283 1.56-1.408 3.348-2.647 5.35-3.71 2.003-1.071 4.213-1.937 6.63-2.582 2.416-0.66 4.995-0.983 7.722-0.983 2.593 0 5.091 0.286 7.515 0.873 2.417 0.587 4.626 1.496 6.629 2.728 2.003 1.232 3.769 2.831 5.306 4.797 1.537 1.958 2.749 4.297 3.628 7.01 0.488 1.504 0.82 3.14 0.99 4.907 0.17 1.768 0.252 3.821 0.252 6.146v45.727h-17.36v-43.035c0-1.893-0.073-3.52-0.22-4.877-0.141-1.35-0.415-2.538-0.806-3.557-0.872-2.23-2.202-3.829-3.99-4.797-1.782-0.968-3.947-1.46-6.482-1.46-3.37 0-6.6 0.785-9.71 2.37-3.097 1.576-5.838 3.865-8.24 6.864v48.492h-17.36v-70.442h15.941l0.03 9.812z m466.993-1.782h0.296c1.027-1.452 2.32-2.882 3.88-4.283 1.56-1.408 3.347-2.648 5.35-3.71 2.003-1.064 4.205-1.93 6.629-2.582 2.416-0.66 4.996-0.983 7.722-0.983 2.594 0 5.092 0.293 7.516 0.873 2.417 0.579 4.626 1.488 6.629 2.728 2.003 1.232 3.769 2.83 5.306 4.796 1.537 1.958 2.749 4.298 3.628 7.011 0.488 1.504 0.82 3.147 0.99 4.914 0.17 1.768 0.252 3.814 0.252 6.139v45.727h-17.36v-43.036c0-1.892-0.073-3.513-0.22-4.87-0.141-1.356-0.415-2.544-0.806-3.564-0.88-2.23-2.203-3.828-3.99-4.796-1.782-0.968-3.947-1.46-6.482-1.46-3.37 0-6.607 0.792-9.71 2.37-3.097 1.576-5.838 3.864-8.24 6.871v48.485h-17.36v-70.443h15.94l0.03 9.813zM515.097 490.6a251.072 251.072 0 0 1-4.697 19.9l-8.336 30.095h-16.597l-24.145-68.624h17.802l8.909 28.75a388.45 388.45 0 0 1 5.41 19.338h0.286a411.642 411.642 0 0 1 4.778-19.337l7.901-28.75h17.81l7.762 28.75a435.039 435.039 0 0 1 4.778 19.337h0.28a409.09 409.09 0 0 1 5.416-19.337l8.902-28.75h17.802l-24.138 68.623h-16.605l-8.328-30.095a236.98 236.98 0 0 1-4.704-19.9h-0.286z m188.478 11.188v26.867h11.539c3.072 0 5.713-0.081 7.923-0.243 2.217-0.17 4.106-0.441 5.698-0.824 2.448-0.515 4.494-1.22 6.13-2.096 1.63-0.882 2.954-1.883 3.966-3 1.004-1.111 1.726-2.347 2.165-3.7 0.424-1.36 0.647-2.795 0.647-4.317 0-2.662-0.744-4.986-2.24-6.987-1.487-1.993-3.816-3.486-6.992-4.486-1.392-0.434-3.028-0.736-4.903-0.927-1.875-0.191-4.278-0.287-7.209-0.287h-16.724z m15.936-14.606c4.805 0 8.384-0.478 10.735-1.427 2.648-1.095 4.53-2.603 5.661-4.523 1.13-1.927 1.696-4.104 1.696-6.523 0-2.515-0.647-4.766-1.949-6.737-1.294-1.971-3.504-3.435-6.636-4.383-1.294-0.383-2.805-0.655-4.538-0.824-1.726-0.162-3.861-0.243-6.413-0.243h-14.492v24.66h15.936z m36.26-13.9c0 4.133-0.938 7.92-2.813 11.37-1.874 3.442-4.97 6.303-9.299 8.583v0.287c2.403 0.809 4.605 1.838 6.599 3.103 1.986 1.258 3.697 2.751 5.118 4.487a20.104 20.104 0 0 1 3.318 5.883c0.789 2.177 1.183 4.626 1.183 7.34 0 2.324-0.365 4.818-1.116 7.487-0.744 2.655-2.053 5.237-3.928 7.73-1.875 2.493-4.374 4.788-7.499 6.876-3.125 2.09-7.06 3.751-11.829 4.987-1.19 0.287-2.5 0.551-3.92 0.787-1.421 0.235-2.99 0.441-4.724 0.603-1.734 0.169-3.653 0.287-5.766 0.353-2.12 0.08-4.493 0.11-7.142 0.11h-28.046v-95.36h33.53c7.163 0 12.929 0.714 17.303 2.134 3.266 1.051 6.1 2.412 8.504 4.103 2.403 1.685 4.389 3.56 5.951 5.627 1.555 2.066 2.716 4.258 3.46 6.56a22.48 22.48 0 0 1 1.115 6.95z m179.926-27.156h17l-0.258 54.314h0.363l26.467-28.014h21.02l-30.486 32.427 30.7 36.633h-20.59l-27.185-32.14h-0.29v32.14h-16.993l0.252-95.36z" fill="#231916"></path><path d="M233.66 608.226c-5.456 0.11-9.265 2.39-9.265 5.63 0 4.158 4.497 5.976 9.039 5.976 3.984 0 7.28-1.422 7.28-5.462 0-1.305 0-3.644-0.11-5.294-2.278-0.682-4.783-0.85-6.943-0.85z m28.09 11.606c-4.893-3.864-11.09-7.566-17.059-9.502 0.11 2.214-0.278 5.125-0.732 6.599-0.462 4.729-4.834 6.547-10.071 6.547-7.332 0-13.126-3.585-13.191-9.333-0.11-5.749 5.918-9.275 13.088-9.334 1.985 0 4.541 0.11 6.643 0.513 0-1.54-0.285-2.844-0.344-4.15-0.505-7.463-0.96-19.414-1.018-27.604l5.91 0.345c0 0.564-0.505 1.078-1.479 1.188-0.058 1.547 0 9.047 0 10.755 3.7 0 11.998-0.623 18.875-1.818l0.403 4.04c-6.482 1.026-14.898 1.598-19.22 1.65 0 3.248 0.118 4.553 0.968 16.335 7.331 2.163 14.275 6.034 19.841 10.133l-2.614 3.636z m24.722-48.046c7.674 0.694 16.533 2.374 22.526 4.516l-1.17 4.054c-5.95-2.083-15.032-3.994-22.31-4.628l0.954-3.942z m-7.848 20.052c8.404-2.382 19.002-4.763 23.204-4.763 8.404 0 13.335 4.636 13.335 13.214v0.47c-0.108 10.541-8.122 18.253-24.208 22.717-0.505-0.985-1.682-2.553-2.527-3.539 14.346-3.53 22.483-10.488 22.483-19.297 0-5.562-2.592-9.556-9.256-9.556-4.484 0-13.386 2.075-20.28 4.569 0.05 0.463-0.506 1.045-1.07 1.328l-1.681-5.143z m67.12-2.024c2.964-2.276 7.006-5.065 10.08-6.607v-0.059c-4.328 0.521-14.239 0.742-20.562 0.69 0-1.086 0-2.965-0.052-3.993 1.255 0.059 23.115 0.396 32.454-1.82l0.454 4.213c-6.77 0.8-15.493 6.724-19.131 9.631l-3.243-2.055z m25.566 28.776c-5.01 0.917-11.613 1.321-17.313 1.321-4.783 0-8.935-0.286-11.158-0.749-6.895-1.534-9.852-5.865-9.852-10.886 0-4.382 2.45-8.772 5.803-12.193l3.309 1.71c-3.192 3.311-5.018 6.96-5.018 10.145 0 3.304 2.23 6.32 7.13 7.407 1.988 0.455 5.348 0.683 9.28 0.683 5.524 0 12.126-0.455 17.532-1.542l0.287 4.104z m14.96-42.632c10.558 0 23.836-1.077 27.755-2.39l1.36 3.593c-0.621 0.161-1.477 0.902-2.661 1.928-5.733 4.788-14.017 10.756-20.78 15.419 7.89-1.642 24.011-4.098 34.62-3.923v4.04c-0.796-0.051-1.703-0.051-2.551-0.051-3.064 0-6.303 0.22-8.68 0.85-4.89 1.364-16.684 8.366-16.684 16.16 0 3.526 2.15 4.722 2.946 5.117 2.552 1.423 8.745 2.45 14.075 2.787l-1.243 3.988c-13.738-1.085-20.041-4.274-20.041-11.548 0-7.346 7.948-13.549 13.505-16.504-9.703 1.02-19.296 3.014-28.713 5.455l-0.739-3.863c3.29-0.682 5.623-1.482 7.436-2.56 4.256-2.5 16.802-11.723 21.511-16.217-3.517 0.572-10.61 1.136-13.848 1.305-1.645 0.117-3.92 0.168-5.396 0.286-0.227 0.286-0.9 0.689-1.47 0.689l-0.402-4.56z m320.134 24.404v-3.68h39.214v3.68h-39.214z m163.983-0.892v-3.678H909.6v3.678h-39.213z m-66.533 24.006a80.225 80.225 0 0 0-3.135-6.33c-12.335 1.31-32.608 2.569-41.676 3.043-0.183 0.607-0.594 1.08-1.123 1.2l-1.608-5.376c1.777-0.067 3.914-0.126 6.234-0.252 3.899-11.47 9.537-29.344 12.798-41.301l5.749 1.554c-0.235 0.54-0.83 0.837-1.719 0.837-3.26 10.996-8.362 27.018-12.445 38.74 9.839-0.423 23.885-1.437 31.712-2.155-3.084-5.139-6.997-10.58-10.551-14.587l3.554-2.028c6.226 6.87 13.34 18.229 16.358 24.745l-4.148 1.91z m49.26-50.799c2.715 2.417 5.772 5.952 7.48 8.61l-2.24 1.767c-1.708-2.592-4.882-6.368-7.363-8.551l2.123-1.826z m-6.953 5.192c2.707 2.352 5.72 6.01 7.42 8.603l-2.232 1.767c-1.715-2.592-4.83-6.426-7.362-8.602l2.174-1.768z m-39.05 24.472c4.473-4.725 13.776-15.095 17.14-18.695 1.531-1.534 3.064-2.242 4.589-2.242 1.597 0 3.18 0.825 4.779 2.242 7.595 6.952 19.853 20.579 28.747 32.132l-3.539 3.242c-8.361-11.611-20.677-25.589-27.273-31.723-1-0.942-1.766-1.468-2.532-1.468s-1.474 0.592-2.415 1.468c-2.765 3.009-11.368 12.919-15.315 17.161 0.058 0.117 0.058 0.293 0.058 0.41 0 0.481-0.233 0.949-0.59 1.24l-3.649-3.767z m134.88-24.317c1.362 4.874 2.841 12.172 3.134 16.696l-4.204 0.656c-0.344-4.655-1.655-11.714-3.069-16.645l4.138-0.707z m25.538 4.058c-0.176 0.524-0.762 0.765-1.53 0.765-6.212 20.76-15.908 33.457-34.416 41.52-0.593-0.823-1.948-2.41-2.834-3.241 18.09-7.583 27.377-19.406 33.228-40.807l5.552 1.763z m-44.288-0.714c2.256 4.356 4.856 11.414 5.684 15.647l-3.963 1.296c-0.827-4.115-3.31-11.116-5.558-15.705l3.837-1.238z m45.179 21.82c4.485-4.867 13.155-14.91 16.514-18.616 1.943-2.003 3.477-2.983 5.245-2.983 2.008 0 3.367 1.1 5.668 3.232 6.953 6.501 18.632 19.82 27.828 31.745l-3.535 3.345c-8.728-11.857-20.524-25.786-26.419-31.384-1.41-1.461-2.242-2.373-3.36-2.373-0.767 0-1.775 0.912-3.075 2.193-2.76 3.096-10.722 12.648-14.673 17.025 0.058 0.128 0.058 0.309 0.058 0.43 0 0.489-0.234 0.971-0.592 1.272l-3.659-3.887z m-504.284-6.407c3.014 0 5.592-0.133 7.74-0.423v3.23c-2.874-0.29-5.444-0.431-7.74-0.431h-15.894c-2.296 0-4.873 0.14-7.74 0.43v-3.229c3.015 0.29 5.593 0.423 7.74 0.423h15.894z m-20.404-15.067c-2.288 0-4.873 0.148-7.732 0.423v-3.221c3.436 0.29 6.014 0.423 7.732 0.423h24.063c3.007 0 5.591-0.134 7.732-0.423v3.22c-2.866-0.274-5.444-0.422-7.732-0.422h-24.063z m-4.088 35.1c-2.43 0-5.007 0.142-7.732 0.424v-3.23c3.436 0.29 6.014 0.431 7.732 0.431h32.661c3.007 0 5.584-0.14 7.732-0.43v3.229c-2.866-0.282-5.443-0.423-7.732-0.423h-32.661z m77.213-3.433h12.734v-28.795h-12.734v28.795z m-3.013 2.578c0-0.43 0.067-1.148 0.216-2.148 0.141-1.43 0.216-2.792 0.216-4.08v-21.486c0-2.296-0.149-4.37-0.432-6.229 1.726 0.141 3.883 0.215 6.472 0.215h5.824c3.161 0 5.318-0.074 6.478-0.215a95.067 95.067 0 0 0-0.223 6.229v21.27c0 2.289 0.082 4.444 0.223 6.444-2.305-0.289-4.396-0.43-6.263-0.43h-6.04c-1.152 0-3.31 0.141-6.47 0.43z m-26.547-36.957c9.358-0.289 16.402-1.496 21.155-3.651 0.134 0.14 0.424 0.43 0.855 0.866 0.722 0.422 1.153 0.778 1.294 1.074 0.29 0.289 0.432 0.496 0.432 0.637-0.142 0.148-0.432 0.215-0.856 0.215-0.29 0-0.937 0.14-1.948 0.43-0.424 0.14-0.796 0.222-1.079 0.222a65.96 65.96 0 0 1-6.471 1.28v10.747h6.471c2.157 0 3.741-0.066 4.746-0.222v2.585c-0.573 0-1.577-0.067-3.02-0.222h-8.197v2.8c2.447 1.866 6.047 4.798 10.785 8.805l-2.365 2.148c-2.016-2.43-4.828-5.08-8.42-7.947v18.264c0 3.147 0.074 5.303 0.215 6.443h-3.235c0.149-1.289 0.223-3.436 0.223-6.443v-19.345c-3.325 6.599-6.694 11.894-10.146 15.908-0.58-0.43-1.666-0.792-3.243-1.074 5.616-5.732 9.856-12.25 12.734-19.56h-7.981a34.703 34.703 0 0 1-3.674 0.223V590.6c0.721 0 1.867 0.082 3.458 0.222h8.852v-10.317c-2.313 0.437-5.259 0.793-8.852 1.074-0.297-0.859-0.87-1.718-1.733-2.577z m82.257 17.644h14.114v-7.556h-14.114v7.556z m0-9.938h14.114v-7.77h-14.114v7.77z m6.843 12.312a72.452 72.452 0 0 0 2.78 8.419c3.85-2.441 6.711-4.675 8.562-6.692 0.288 0.149 0.715 0.506 1.283 1.08 0.708 0.431 1.143 0.796 1.283 1.079 0.428 0.58 0.288 0.938-0.42 1.08-0.575 0-1.504 0.43-2.787 1.294l-0.222 0.216a114.992 114.992 0 0 1-6.408 4.318c2.854 4.756 5.988 7.927 9.417 9.505a11.114 11.114 0 0 0-2.146 2.375c-7.419-5.33-12.057-12.885-13.908-22.674h-4.277v19.004a43.808 43.808 0 0 1 2.138-1.295c2.854-1.578 4.705-2.74 5.568-3.454 0.14 1.154 0.428 2.159 0.848 3.022-3.85 1.585-7.411 3.38-10.693 5.397-0.288-0.715-0.93-1.586-1.932-2.59 1.003-0.291 1.423-1.006 1.29-2.16v-35.409c0-0.44-0.073-1.303-0.213-2.598v-2.374c0.567 0 1.57 0.082 2.994 0.223h11.991c0.553 0 1.415-0.082 2.559-0.223h2.352a107.726 107.726 0 0 0-0.42 4.972v12.736c0 1.295 0.132 2.955 0.42 4.965-1.003-0.134-2.64-0.216-4.911-0.216h-5.148z m-17.323 12.528c-0.567-0.432-1.497-0.864-2.78-1.303a32.684 32.684 0 0 0 4.92-7.555c1.282 0.44 2.211 0.938 2.78 1.511 0.42 0.298 0.353 0.648-0.207 1.08-0.583 0.148-1.15 0.796-1.718 1.942-0.148 0.29-0.436 0.648-0.856 1.087-0.855 1.437-1.57 2.516-2.139 3.238z m-9.852 1.511c-0.7-1.734-1.99-4.027-3.842-6.915-0.428-0.573-0.715-1.005-0.855-1.295l2.352-1.288c1.711 2.449 3.348 5.173 4.919 8.203l-2.574 1.295z m3.437-22.242c-0.863 0-2.434 0.075-4.713 0.209v-2.8c1.143 0.142 2.78 0.217 4.927 0.217h4.056c2.278 0 3.93-0.075 4.918-0.216v2.799c-1.135-0.134-2.773-0.209-4.918-0.209h-1.07v6.908h1.497c1.29 0 2.928-0.141 4.926-0.44v2.815c-1.143-0.15-2.787-0.216-4.926-0.216h-1.497v14.91c1.718-0.298 3.857-0.73 6.423-1.303-0.567 0.149 0 0 1.711-0.432-0.287 1.154-0.427 2.159-0.427 3.022-7.272 1.154-13.688 2.3-19.255 3.461-0.148-0.297-0.28-0.73-0.428-1.302a9.864 9.864 0 0 0-0.428-1.08c0.576-0.141 1.276-0.29 2.139-0.431 3.43-0.573 5.988-1.08 7.699-1.511v-15.334h-3.85c-0.855 0-2.426 0.067-4.712 0.216v-2.814c2.286 0.298 3.857 0.439 4.712 0.439h3.85v-6.908h-0.634z m-11.128-1.727c6.275-4.607 10.759-10.078 13.48-16.413 0.14 0 0.354 0.075 0.634 0.216 0.576 0.29 1.284 0.715 2.146 1.295 0.28 0.29 0.347 0.499 0.207 0.648 0 0.141-0.14 0.216-0.42 0.216-0.288 0-0.568 0.29-0.863 0.863-0.42 0.432-0.716 0.871-0.856 1.295a78.073 78.073 0 0 1 9.845 7.987l-1.71 2.159c-3.998-3.737-7.206-6.327-9.624-7.771-3.997 5.18-7.353 8.858-10.06 11.016-0.427-0.282-1.356-0.789-2.78-1.51z m80.892-9.309c-2.857 0-5.006 0.074-6.43 0.214v-2.789c1.144 0.14 3.285 0.222 6.43 0.222h11.569c2.99 0 5.138-0.082 6.423-0.222v2.79c-1.285-0.14-3.433-0.215-6.423-0.215h-11.57z m12.853 15.622v21.841c1.285 3.564-2.576 4.981-11.569 4.273 0-0.997-0.361-2.066-1.07-3.21 7.28 1.144 10.631 0.642 10.063-1.498v-21.406h-14.773c-1.573 0-3.714 0.147-6.423 0.428v-2.782c0.56 0 1.705 0.074 3.425 0.214h23.773c2.141 0 4.208-0.067 6.209-0.214v2.782c-2-0.28-4.068-0.428-6.209-0.428h-3.426z m-36.847-7.276c-0.569-0.716-1.425-1.284-2.57-1.72 5.995-4.132 10.425-8.411 13.29-12.839 0.28 0.288 0.708 0.576 1.277 0.856 0.576 0.428 0.997 0.79 1.292 1.07 0.28 0.288 0.347 0.51 0.207 0.65 0 0.14-0.207 0.287-0.635 0.42-0.436 0-1.07 0.576-1.935 1.712-4.001 4.147-7.64 7.43-10.926 9.851zM607 615.104v2.568c0.14 1.993 0.214 3.276 0.214 3.845h-3.211c0.28-1.993 0.42-4.14 0.42-6.413v-16.912c-2.428 2.428-4.71 4.494-6.843 6.198-0.724-0.848-1.58-1.424-2.577-1.704 6.57-4.716 11.421-10.205 14.566-16.485 1.285 0.428 2.282 0.989 3.005 1.712 0.28 0.14 0.347 0.362 0.207 0.642 0 0.14-0.148 0.214-0.428 0.214-0.569 0.14-1.211 0.642-1.927 1.49 0.14 0 0.074 0.148-0.207 0.436-0.435 0.568-1.152 1.572-2.148 3.003-0.428 0.701-0.783 1.21-1.07 1.49v19.916z" fill="#910000"></path><path d="M677.41 598.036c4.284 4.8 9.215 11.734 12.386 17.244l-3.753 2.187c-2.88-5.452-8.05-13.032-11.978-17.53l3.345-1.9z m-10.517-7.47v28.2c0 6.633-5.163 6.582-13.913 6.464-0.233-1.07-0.705-2.73-1.287-3.918 1.345 0.066 7.927 0 8.575 0 1.643 0 2.407-1.064 2.407-2.488v-28.258h-19.964v-3.962h19.964V574.46l5.579 0.293c-0.066 0.587-0.473 1.064-1.36 1.123v10.728h19.848v3.962h-19.849z m-12.502 9.246c-2.698 6.934-6.575 13.15-11.091 17.589l-3.411-2.245c4.225-4.088 8.276-9.782 10.626-16.76l3.876 1.416z" fill="#910000"></path></svg>