<svg viewBox="0 0 1024 1024" version="1.1" xmlns="http://www.w3.org/2000/svg"><path d="M224 0h576c123.6 0 224 100.4 224 224v576c0 123.6-100.4 224-224 224H224c-123.6 0-224-100.4-224-224V224C0 100.4 100.4 0 224 0z" fill="#FFFFFF"></path><path d="M573.6 492.4c90.8-29.2 218.4-30.8 273.2 24 41.2 70.4-66.8 291.2-167.6 295.6-72.4-8-137.6-139.2-167.6-222.4-4.8 94-48.8 210.8-120 241.6-81.2 12.8-251.2-165.6-219.6-260.4 34-65.2 186.4-77.2 275.2-74.4-68.8-65.6-129.6-176-106-250C384.8 177.2 632 168 683.2 254c24.8 62.8-50.4 171.2-109.6 238.4z m-60 4.4c25.6-33.6 58.4-122.4 51.6-155.2-3.2-14.8-12-28-62-28-47.6 0-60.8 23.6-58.4 38.4 0 54.4 68.8 144.8 68.8 144.8z m-48.4 42.8c-42 3.6-130.8 38-150.8 64.4-9.2 12-13.6 27.6 19.2 64.8 31.2 35.6 57.2 29.6 67.2 18 40.8-36 64.4-147.2 64.4-147.2z m80.4 14.4c18.4 38 82.8 108.4 114.8 117.6 14.4 4.4 30.4 2.8 54-40.8 22.4-41.6 7.2-64-7.2-68.8-48.8-25.6-161.6-8-161.6-8z" fill="#1A6B37"></path></svg>