<svg viewBox="0 0 1024 1024" version="1.1" xmlns="http://www.w3.org/2000/svg"><path d="M224 0h576c123.6 0 224 100.4 224 224v576c0 123.6-100.4 224-224 224H224c-123.6 0-224-100.4-224-224V224C0 100.4 100.4 0 224 0z" fill="#FFFFFF"></path><path d="M620 510c0 58.4-47.6 106-106 106S408 568.4 408 510s47.6-106 106-106 106 47.6 106 106z m-108 221.6c122 0 221.2-98.4 221.2-219.6 0-121.2-98.8-219.6-221.2-219.6S290.8 390.8 290.8 512c0 121.2 99.2 219.6 221.2 219.6zM618 260c140 0 254 112.8 254 252s-113.6 252-254 252c-38 0-74-8.4-106-23.2-32.4 14.8-68.4 23.2-106 23.2-140 0-254-112.8-254-252s113.6-252 254-252c38 0 74 8.4 106 23.2 32.4-14.8 68.4-23.2 106-23.2z" fill="#E50113"></path></svg>