<svg viewBox="0 0 1024 1024" version="1.1" xmlns="http://www.w3.org/2000/svg"><path d="M225.966 510.141c0 28.426-23.05 51.48-51.482 51.48-28.438 0-51.49-23.054-51.49-51.48 0-28.433 23.052-51.493 51.49-51.493 28.431 0 51.482 23.06 51.482 51.493zM174.48 618.306c59.167 0 107.124-47.573 107.124-106.265 0-58.685-47.957-106.265-107.124-106.265-59.166 0-107.13 47.58-107.13 106.265 0 58.692 47.964 106.265 107.13 106.265zM225.933 390c67.947 0 123.028 54.64 123.028 122.041s-55.081 122.04-123.028 122.04a123.46 123.46 0 0 1-51.453-11.187 123.46 123.46 0 0 1-51.452 11.188C55.08 634.082 0 579.442 0 512.04S55.081 390 123.028 390a123.46 123.46 0 0 1 51.452 11.188A123.46 123.46 0 0 1 225.933 390z" fill="#E50113"></path><path d="M401 593.9h30.381V490.837l46.371 66.22 45.915-66.22V593.9h30.838V431.814h-30.838l-45.915 67.704-46.37-67.704H401v162.085z m250.032 1.906c41.49 0 65.558-21.967 65.558-75.471v-88.521h-32.55v91.348c0 33.495-12.836 44.805-33.008 44.805-19.943 0-32.092-11.31-32.092-44.805v-91.348h-33.925v88.521c0 53.504 24.756 75.471 66.017 75.471z m95.115 0h33.538v-62.434h66.87v-31.529h-66.87v-36.697h89.457v-33.332H746.147v163.992z m214.985 0c-47.461 0-83.41-29.278-83.41-83.247 0-53.314 37.124-84.559 83.41-84.559 25.14 0 47.386 15.546 58.664 26.252l-23.42 20.432-1.112-0.987c-8.216-7.162-17.9-12.56-32.957-12.56-28.9 0-49.106 15.588-49.106 50.33 0 35.177 17.387 56.372 51.455 56.372 8.459 0 22.995-2.185 27.93-6.118v-27.857h-36.858v-30.482h67.872v72.978c-11.748 10.706-38.268 19.446-62.468 19.446z" fill="#5A5A5A"></path></svg>