<svg viewBox="0 0 1024 1024" version="1.1" xmlns="http://www.w3.org/2000/svg"><path d="M197.6 744.4c-4.8 1.9-15.4 4.2-28.5 4.2-28.9 0.1-50.6-15-50.6-41.4 0-23.6 20.2-43.4 53.5-43.4 13.4 0 22.2 2.8 25.5 4.3l-2.9 8.9c-5.3-2.3-13-3.7-21.7-3.7-26 0-41.4 13.2-41.4 33.4 0 18.3 14 33 40.4 33 8.2 0 16.9-1.9 22.6-4.2l3.1 8.9z m32.9 4.6v-83.7h12V749h-12z m71.6-74.5h-31.6v-9.2h76v9.2h-32V749h-12.4v-74.5z m72.5 74.5v-83.7h12V749h-12z m123.5-0.4c-4.8 1.9-15 4.4-28.6 4.4-29.1 0-50.9-15.5-50.9-42.8 0-24.3 20.4-44.8 54.3-44.8 13.6 0 21.8 3 25.7 4.4l-3.4 9.3c-5.4-2.4-13.1-3.9-21.8-3.9-26.2 0-41.7 13.6-41.7 34.6 0 19 14.1 34.1 40.7 34.1 8.7 0 17.4-1.9 23.2-4.4l2.5 9.1z m-375.6 52.2H135v40.4h0.5c2.4-3.3 39.9-40.3 39.9-40.3h15.9l-37 35.6 40.3 48h-14.9l-34.6-41.4-10.1 9.6v31.7h-12.4v-83.6zM266 857.6h-36.3l-10.4 26.9h-12.7l34.4-83.6h14.6l34.9 83.6h-13.2L266 857.6z m-33.5-8.7h31.2s-14.2-34.7-15.6-38.9h-0.5c-1.5 4.3-15.1 38.9-15.1 38.9z m150.9 35.6l-24.8-83.6h13.1s17.4 63.9 19.3 71.1c1.9-7.2 21.5-71.1 21.5-71.1h13.1s17.3 63.5 18.7 71.2h0.5c1.9-8.2 21.1-71.1 21.1-71.1h12.7l-28.1 83.6h-13.1s-17.3-63.4-18.7-71.6c-1.9 7.7-22.1 71.6-22.1 71.6l-13.2-0.1zM562 857.6h-36.3l-10.4 26.9h-12.7l34.4-83.6h14.6l34.9 83.6h-13.2L562 857.6z m-33.5-8.7h31.2l-10.4-25c-2.3-5.3-3.8-9.6-5.2-13.9h-0.5c-1.4 4.4-2.8 8.6-4.7 13.9l-10.4 25z m98.6-48.1v34.6h51v-34.6h12.5v83.6h-12.5V845h-51v39.4h-12.5v-83.6h12.5z m-492 181.5v32.2c2.9 0.5 6.8 0.5 11.7 0.5 13.1 0 26.2-3.5 26.2-16.9 0-11.4-11.7-15.9-25.7-15.9l-12.2 0.1z m-12.6 40.6v-84.7c5.8-1 15-1.9 24.3-1.9 13.6 0 21.3 1.9 27.7 6.5 4.8 3 8.2 8.4 8.2 15.4 0 7.9-6.3 15.4-16.5 18.8v0.5c8.2 1.5 20.4 7.9 20.4 21.3 0 7.4-3.4 12.9-8.7 17.3-6.8 5.4-18 7.9-34.9 7.9-8.8-0.1-16.1-0.5-20.5-1.1z m12.6-77.2v27.8h13.1c14.1 0 21.3-6 21.3-14.4 0-10.9-9.3-13.8-21.8-13.8-6.7-0.1-10.2 0.4-12.6 0.4z m131 47.8H230l-10.3 26.4h-13.1l34.3-83.6h15l34.8 83.6h-13.6l-11-26.4z m-33.3-8.7h30.5s-13.6-34.7-15-38.9h-0.5c-1.3 4.3-15 38.9-15 38.9z m81.8 35.2v-83.6h14.1s46.3 61.6 51 70.2l0.5-0.5c-1.4-10.1-1.4-69.7-1.4-69.7h11.8v83.6h-12.7s-46.7-62-51.9-70.7h-0.5c0.5 10.6 0.9 70.7 0.9 70.7h-11.8z m115.9-83.7H443v40.9h0.5c2.4-3.3 39.9-40.8 39.9-40.8h15.9l-37 35.6 40.3 48h-14.9l-34.6-40.9-10.1 9.1v31.7h-12.5v-83.6zM560.2 554.8h16.9v-8.6h-16.9v8.6z m27.8 0h17.9v-8.6H588v8.6z m0 17.5h17.9v-9.5H588v9.5z m-20.7-33.2h30.1V532h-12.2v-8.1h12.2v-8.1h10.3v8.1h25.4v8.1h-25.4v7.2h20.2v7.2h-11.7v8.6h18.3v8.1h-18.3v9.5h12.7v7.6h-41v7.6H626v7.6h-38v12.8h-10.8v-12.8h-37.6v-7.6h37.6V580h-40v-7.6h12.7v-9.5h-19.3v-8.1h19.3v-8.6h-11.7V539H557v-7h-25.4v-8.1H557v-8.1h10.3v8.1H580v8.1h-12.7v7.1z m-7.1 33.2h16.9v-9.5h-16.9v9.5z m-262.5 27.5h44c1.4 0 2.8-1.4 2.8-2.9v-15.2h-46.9l0.1 18.1z m-9.9-25.6h66.5v24.6c0 4.7-3.7 9-8.5 9h-58.1v-33.6h0.1z m1.9-23.7v-8h62.8v8.1l-62.8-0.1z m36.5-23.3h32.3v8.6h-74.9v-8.6H316c-1.9-4.3-3.3-7.5-5.1-10.4l10.3-0.9c1.7 2.8 3.6 6.6 5 11.3z m-49.7-11.3l9.4 2.8c-2.8 7.6-5.1 14.2-7.5 19v70.2h-10.3v-54.5c-1.4 2.9-4.7 6.6-9.3 11.9l-4.2-10c10.3-11 17.3-24.3 21.9-39.4z m13.2 50.3v-8.1h62.8v8.1h-62.8z m-78.3 2.8v-28h-33.3v30.9h30.5c1.4 0 2.8-1.5 2.8-2.9z m-77.8 2.9H166V541h-32.3v30.9z m44.5-39.9h44.5v39.9c0 5.2-3.9 9-8.2 9h-36.2V608H166v-27.1h-43.5v-48.8H166V516h12l0.1 16z m284.2 30.8h-30.1c0.5 0.9 0.9 1.9 1.4 2.4 0.9 0.9 1.4 1.9 1.9 2.9h23.1c2.3-2.4 3.7-4.3 3.7-5.3z m16.1-7.1c1.4 0 2.8-0.9 2.8-2.9v-1.9h-66.9v4.7l64.1 0.1z m-9 12.4h29.2v7.6h-72.5v1.4c0 1.4-0.5 2.9-0.9 4.7H446v16.1c0 4.7-3.8 9-8 9h-16.5v-7.6h11.7c1.9 0 2.8-1.4 2.8-2.8v-7.1h-12.7c-4.2 8.6-11.3 14.7-21.6 18.5l-6.6-6.6c8.5-2.9 14.1-6.6 17.9-11.8h-16.5v-7.6h19.3c0-1.4 0.5-3.3 0.5-6.1h-21.6v-7.6h29.7c-0.5-0.9-1.4-2.9-3.3-5.2h-16.9v-18.5h87.1v9.5c0 4.7-3.8 9-8.5 9h-9.4c-1.2 1.2-2.1 3.2-4 5.1z m-8.9 32.2h21.1c1.4 0 2.8-1.4 2.8-2.9v-10h-23.9v12.9z m-10-20.4h43.8v19c0 4.7-3.7 9-8.5 9h-35.3v-28z m1-59.3h47v7.1h-47v5.2h41v7.2h-89.9v-7.2h38.1v-5.2h-46.1v-7.1h46.1v-4.7h10.8v4.7z m391.3 26.1h67.8v9h-16.5v42.2c0 5.2-3.8 9-8.5 9h-25v-10H880c1.4 0 2.8-0.9 2.8-2.8v-38.5h-40v-8.9z m-36.2 20c11.7-9.5 20.2-19 26.4-27.5l8 5.2c-3.8 5.2-6.6 9.5-8.5 12.8V608h-10.8v-41.3c-1.9 2.4-4.7 5.2-9.4 9l-5.7-9z m41.9-37.1v-9H905v9h-56.5z m-34.9 13.8l-6.6-8.6c9.9-5.2 17.9-11.9 24-19l8.9 5.2c-8.8 9.1-17.3 16.2-26.3 22.4z m-55.8 12.3c1.4 0 2.8-1.4 2.8-2.9v-8.2h-30v11h27.2zM730.5 537h30v-10h-30v10z m44 64.2l-7.5 6.7c-14.5-9.6-22.9-23.9-25.3-44.1h-11.3v32.1c2.3-0.5 5.1-0.9 8.4-1.9 2.8-0.5 6.1-1.5 9.9-2.9l0.5 8.2c-8.9 2.4-18.7 5.3-28.6 7.7v-87.8h49.7v35.4c0 5.3-3.7 9.1-8.4 9.1h-11.3c0.9 5.8 2.3 10 4.2 13.9 4.7-1.9 8.5-4.8 12.2-8.6l7 5.8c-4.7 3.8-9.3 7.7-15.5 10.6 4.8 6.7 10 12 16 15.8z m-70.2-15.8c2.3-6.2 3.7-11.5 3.7-16.3l8.9 0.9c-0.9 6.7-2.3 12-3.7 16.8l-8.9-1.4z m-12.6-69.5h9.4c5.1 4.4 10.7 10 17.3 16.8l-7.5 6.7c-4.2-4.8-8.5-10-14.1-15.8-3.3 5.8-7 11-12.2 16.3h27.7v8.2h-12.2v8.2H716v8h-15.9V593c2.3-0.9 5.1-1.4 8-1.9 2.3-0.5 5.1-1.4 8.4-2.4v8.6c-10.7 3.3-24.8 6.2-43.1 8.6l-0.9-9.1c6.1-0.5 12.2-0.9 18.3-2.4v-30.2H673V556h17.8v-8.2h-10.3V544l-5.1 4.4-4.7-8.6c8.8-6.2 15.8-14.4 21-23.9z m-5.2 73.3l-9.8 1.4c-0.5-7.7-1.4-14.4-2.8-19.7l8.9-1.5c1.3 4.9 2.3 11.2 3.7 19.8z" fill="#ABA29A"></path><path d="M602.5 381.6c-0.1-0.2 0.1 0.5-0.9 0.5-0.1 0.4 0 0.6-1.4 2.4h-0.5v0.5c-1.1 1.2-0.4 1-3.3 3.3h-0.5c0.1 0.2 0.6 1.8-1.9 1.4 0 0.5-0.5 0.5-0.5 0.5 0 0.2 0 0.7-1.4 1-0.5 1-1.6 1.8-3.7 2.8v0.5-0.5c-0.6 0.1 0.2 0-0.9 0.9v-0.5c-0.1 0.3 0.1 0.8-2.8 0.9l0.5 0.5h-3.1c0.5-0.8 3.2-1.4 4.7-3.3 0.5 0 0.5 0 0.5-0.5 2.6-0.8 7.5-4.9 12.2-9 0.3-0.1 1.2 0.2 1.4-1.9h0.5c-0.2-0.5 0.4 0.1 1.1 0.5z m-24.3 13.9c0.2 0.1-0.7 0-0.9 1.4 0-1.3-5 3.8-5.2 0.5 0.1 0 0.8 1 0.9 0 0.8-0.3 1.8-1 3.3-2.4h0.5v-0.5c0.5 0.5 1.4 0 1.9 0v0.5c0.3-0.1 0.4 0.6-0.5 0.5z m-12.8 11.2c-11.6 7.1-25.2 13-42 17.7-0.1 0.2 0.1 0.9-0.9 0-0.5 0-1.9 0.5-1.9 0h-0.5c6.4-2.3 19.3-7.2 28.5-10.4-0.5-0.5 0-0.5 0.5-0.5 0.2-1.2 7.4-3.1 11.7-5.7 0.9 0 1.4-0.9 2.4-0.9 0.2-0.4 0.3-0.4 2.4-0.9v-0.5c0.2 0.1 0.4-0.3 0.9 0.5-0.1-0.3-0.6 0.2-1.1 0.7z m-79.4 9.1l-1.9 0.5c0.3 0.4 0.2 0.4-0.5 0.5-0.2-0.8 0.4-0.5-2.3 0 0 0.5 0 0-0.5 0.5 0-0.5-0.5 0-0.5-0.5h-2v-0.9c0.5 0 1.4 0 1.4-0.5 0.5 0 0.5-0.5 0.5-0.5 0.4 0.1 2.7-0.5 5.8 0.9z m-178.3-64c-0.5-0.2-0.2 0.3-2.9-0.9-0.2-1.2-2-0.4-2.3-2.8 0.3 0.3 1.1-0.7 2.3 0.5v0.5c0.1 0.5 2.9-0.5 2.9 2.7z m-5.7-7.7v-0.5c0.1 0.3-0.5-0.6-1.4 0.5 0.2-0.7-0.4 0.2-0.5-1.9-0.4-0.2-1.2-0.2-1.9-1.9-0.1 0.3 8.1 3.1 5.6 5.1h0.5c-0.4-0.2-1.2-0.1-2.3-1.3z m-1 3.9c0 0.2-0.2-0.4-1.4-0.5 0.6-2.9-5.3 0.5-5.6-7.2 0.4 0.2 4.5 3 7.1 6.2 0.5 0 0.5 0 0.5 0.5-0.1 0-0.1 0.4-0.6 1z m-8.5-7.7c-1.5 1.2-0.4-1-2.8-0.9-0.1-1.1-1-3.1-2.9-3.3 0.5-0.8-0.6-0.9 1.9-2.8-1 1 1.7 1.7 4.2 7.2h-0.4v-0.2z m-5.8-0.5c-0.2-0.2-0.3 0.3-1.4 0.5-0.6-1-0.8-1.1-2.8-2.9v-0.5c-0.5 0 0-0.3-1.9-1.9-0.5 0.2 0.1-0.4-1.4-0.5l0.5-0.5c-0.1 0.1 0.4-1.5 1.4-0.5v-0.5 0.5c0.5 0 0.5 0 0.5 0.5 0.5 0 0.5 0 0.5 0.5 1.3 0.4 0.6 0.1 4.2 3.8 0.7 0.2-0.1 0.4 1.4 0.9l-1 0.6z m-9.9-8.7c-10.1-8.9-20.8-22.3-27-38.9-0.7-10.6 8.9 12.8 15.9 23.5 0.3-0.3 1.1-0.3 1.4 0.9 2.1-0.6 1.6 3.3 4.2 4.8 0.1 1.1 1.5 2.5 4.2 5.2 0.4 0.8 0.3 0.7 3.3 4.8h0.5c-0.5 0 0 0.5 0 0.5-0.9 0.6-0.3 0.7-2.5-0.8z m-10.1-19.7c0.1-0.1 1.6-1.4 2.3 0 0.8-0.6 1.4 0.9 3.7 5.8-0.5 0.1-0.4-0.4-0.9 1-0.3-0.6-0.2 0-1.9-3-0.4-0.3-1.6 0.4-2.8-3.3h-0.5l0.1-0.5z m10.5 13.5c-0.1 0 0.7-0.4 2.3 1-0.4-0.1 1.5 3 3.3 1.4v0.5c0.5 0 0.5 0 0.5 0.5h0.9c-0.6 1.1-0.4 1.1 2.3 4.7-1.2 0.4-0.6-0.8-4.1-0.9v-0.5c-0.5 0-0.5-0.5-0.5-0.5-0.5 0.1-0.9-0.6-2.3-2.3-1-0.3-0.3-0.2-2.4-3.3v0.5c-0.2-0.4-0.4-0.7 0-1.1z m19.1-4.8c-0.1 0.3-0.3 0.5-1.9 0.5-0.1-0.6 0.2-0.3-0.9-1.4-0.2-0.1 0.5 0.1 0.5-0.9h0.5v-0.5c0 0.4 1.2 0.5 1.8 2.3z m148.3-4.9c0.4-1.1 0.6-1.7 3.7 0.9 0.9-0.1 0.1 0.4 3.8 2.9h0.5c-0.4 0-1.1 1.8-2.3 0-0.3 0-0.4-0.2-1.9-1.4-0.5 0-0.5-0.5-0.5-0.5-1.2-0.2-0.1-0.9-3.3-1.9z m204-29.8c2.8-5.1 5.7-2.4 0.5 7.8-2-1.4 0.9-4.4 0-7.7v1.5c-0.4-0.3-1.5 0-0.5-1.6z m13.3-55.3c0.9-0.5 1.4 0.5 1.9-0.5 1.7 1 1.1 2-0.5 6.8-0.8-0.6-2.6-0.4-1.4-3.3-0.4 0.1-0.8-2.1 0-3z m10 48.1c-1-2.6 4.5-8 4.4-2.9-0.9 0.2-0.5-0.1-1.4 1.5 1.5 1.8-5 6.1-3 1.4z m4.3-13c0.5-1.4 5.9-11.7 4.7-2.9 0.4 0 0.3 0.1 0.5 1.4-1 0.2-0.7 1.4-1.9 4.3-0.6 3.3-5 7.9-3.3-2.8z m1.4-31.3c3.8-4.3 4.1 6.3 1.6 9.3-2.2-1.8-1.9-3-1.6-9.3z m1-9.6c0.1-0.3 0.1-0.9 1.4-0.9v-1.5c-0.5 0.1-0.5 1.2-1.9 0.9-1.5-6.4 4.9-14.8 2.3-1 5.5 1.8-5.3 16.9-1.8 2.5z m3.8 20.7c0-5 5.6-1.7 1.5 4.7-0.3 4.9-5.1 2.7-1.5-4.7z m-437.5 39.9c0 0.2 0.1 1-0.5 1.9-2.7-1.5-3.6-7.7-4.7-11.5l0.5 0.9-1.4 0.5c0.8-1-3.8-1.1-1.9-2.8v-0.9l-0.9-0.9h0.5c-1.3-1.5-0.8-0.5-2.3-4.8h0.5c0.2-0.1-0.5 0.1-0.5-0.9h-0.6c-0.1 0.1 0.5-0.9-0.9-0.9 1.7-0.7-2-7.2-0.5-9.3-0.4 0.2 0.6-2-1.4-0.9 0.2-0.7 1.8-2 0.5-4.8h0.5c-6-30.8 3.5-58.2 0-58.2 0-0.5 1.4-1.9 1.9-1.9-1-3 1.9-4.8 1.4-10.6H118.4V464h373.3v-27.4c8.7 1.2 11.1-5.6 0-1.9v-1.9c41.2 0.2 84.6-23.5 118.6-50.4 0.1-0.3-0.2-0.6 1.9-1.9 1-1.6 3.9-4.8 8-7.2 9.4-10.1 20.8-22.7 32.3-36.1 2.1-2.8 9.3-9.2 13.3-17.9 7.2-8.5 15.5-28.5 17.5-39.4-4.1 8.6-8.7 17-15.2 25.4-3.6 5.6-7 13.7-14.6 21.1-0.6 4.9-16.5 14.6-3.8-0.4l0.5 0.5c3.9-9.9 15.2-20.8 20.8-34.2h-0.5c0.1 0.4-0.2-1 0.9-1v1c3-5.1 3.3-7.4 8.9-17.8h-0.5c0.3 0.1-0.6-0.5 0.5-1.4l0.5 0.5c2.1-5.2 2.8-8.4 4.7-16.2 0.7-4.7 2.4-8.3 3.3-17.7v0.5h-0.9V239h0.9l-0.5-0.5c0.5-0.5 0-1.5 0.9-1.5-1 0.1 2.9-14.1-1.9-6.7h-0.5c0.5 1 0.9 0 0.5 2.4-3.5 16.9-4.7 2.3-4.2-9.6-2.2-2.4 0.9-15.3-2.3-21.9-0.1 1.7 0.7 3.3-0.5 12.4-4.9 0.7-2-30.3-13.2-52.8 1.1 0.1 1.2 0.1-1.4-0.9v1c1.1 0.5 0.6 1.4 1.9 8.2 0.3-0.1 0.1-0.7 1.4-0.5-0.5 0.5-0.5 1-0.5 1h-0.9c-0.4 0.1 1.1 0.1 0 1.9h0.5c0 2.6-0.1 5.5 0 9.6 0-0.5 0.5 0 0.9 0-0.4 0.7 0.9 0.6 0 2.4-0.5 0.7 0.5 1.6-0.5 2.9 0.5 1 0.7 0.9 0.5 3.3v-0.5c0.2-1 1.3 2.6-1.9 1.4 0 1.9 2.6 2.4 1.4 12-0.9 0 0 1.5-0.5 1.9 0.4 1.8 1.2 3.2 0.5 7.3-0.5-0.5-0.9 0.5-1.4 0.5-0.5 2.3 1.9 3.8 0 9.6 4 1.5-5.5 12.8-3.6 3.3-0.5-0.7 0.2-0.6 0-8.2 1-2.3-0.5-3.4 1.4-9.6h-0.5c0-0.9 0-1.5-0.5-1.9 0.4-0.6 0.4-0.4 0.9-2.4h-0.5c0.5-0.9-1.1-0.2 0-3.3 0-0.9 0.5-1.4 0.5-2.4-0.9 0-0.5-0.9-1.4-0.9 0.2-0.1-0.4-0.9 0.9-1.5 0-0.5 0-0.5 0.5-0.9-0.4-0.4-1.4-2.4-1.4-6.7-1.3-0.1-1.4-7-3.3-7.7-2 9.5 2 9.9-1.4 24.5-1 0.1-0.7-1.4-1.9-5.8-0.8 3-3.5 18.1 1.9 9.2 0 0.5 0 0.5 0.5 0.5 1.7 16.3 0.1 61.3-8.5 71.1 2.8-18.8 6.9-42.4 6.1-65-0.6 1.9 1.4 2.9-1.9 8.7 1.6 14.3-5.2 35.1-4.7 51-0.6 5.4-3.6 13.2-5.2 21.1-1.1 3.8-1.7 3.7-1.9 11.5 0.3-2.1 1.2-3.4 1.9-6.2 0 0 0.5 0.5 0.9 0.5 0 0.5-0.5 0.9 0 0.9 0-0.5 0.9 0 1.5 0-1.1 1-1.6 5.2-2.3 8.6 1-1.8-3.4 10.1-4.7 5.7 0.1-1.4 1.4-3.9 1.4-6.3-3.4 6.1-7.7 14.8-13.7 21.6h0.5c-0.2 0.3 0.1 1.7-1.9 2.4-0.2 0.7 0.2 0.8-1.4 0.5l0.5-0.5c-1.8 3.1-4.4 5.2-9.5 9.6-0.8-0.1-0.7 0.8-1.9 0.9 0 0.5-0.5 0.5-0.5 0.5v0.5c1.3 0.3 2.1-1.1 4.3-1.9 0.2-0.7 0.5 0.2 2.8-2.4 1.2-0.8 4.2-1.6 0.5 1.9 0 0 0.5 0 0.5 0.5 2.7-2 5.2-4.9 11.4-9.1-5.4 11.7-16.3 23.2-31.4 27.4 2.8-5.9 28.9-20.1 5.8-8.2-2.7 0.4-4.8 2.1-12.9 9.6-0.4 0.3-0.5-0.4-1.4 1.4h-1.4c-1.6 0.7-0.9 2.7-5.7 4.8-1.2 4.3-3.6 1.9-13.4 12.9-0.5 0-0.5 0-0.5 0.5-0.6 0.5-0.8 0.5-4.2 2.8-0.1 0.4 0 0.2-1.9 1.4 0 0.5-0.5 0.5-0.9 0.5v0.5s-0.5 0-0.5 0.5c-1.5 0.6-0.1 0.8-3.7 0.9v0.5c-0.5 0-0.9 0.5-1.4 0.5 4.1-3 5-3.3 15-11.4 0-0.5 0.5-0.5 0.9-0.5 0-0.5 0.5-0.5 0.5-0.9-6.9 3.8-17.9 12.8-28.5 16.9 0.5 0.5 0.9 0 1.9 0v0.9h-0.9c0.2 0.2-0.3 0.3-0.5 1.4-2.8 0.8-8.7 2.3-0.9-1.9-2.5 0.8-8.7 4.3-13.8 6.3-0.5 1.4-2.3 1.4-3.3 2.4 0.9 0 2.1-1.3 6.6-1.4v-0.5c0.2 0.1 0.4-0.3 0.9 0.5-10.6 5.2-22.4 7.4-37.7 10.3 0.2-0.1-1.8 0.9-3.7 0.9 0.5 0 0.9-0.5 1.4-0.5-1.9-0.2-3.1 0.6-6.1 0.5h4.3c-1.9 0.2-4.2 0.9-7.5-0.5 5.3-0.8 17.2-2.9 26.5-5.1 1.2 0 0.6 0.1 4.7-0.9-0.5-0.5 0.5-0.5 0.5-0.9 2.1-0.5 3.8 0.3 9.9-2.8-0.6-0.1-0.5-0.1-1.4-0.5v0.5c-3.7 0.1-8 2.9-16 3.7 0 0.5-0.9 0.5-0.5 0.9-0.8-0.1-1.4 1-3.3 0.9 0.4 0.1-1 0.9-1.9 0-0.5 0.4 0 0.6-1.9 0.5 0 0.5-0.9 0-0.9 0.5-1.4-0.5-1.9 0-2.9 0 0.8 0.5-3.3 0.6-15.2 2.8-6.7 1.4-17.1 1-28.7 2.3 0 0 0.5 0 0.5 0.5h0.9c-0.5 0-0.5 0-0.5 0.5-35.4-2.1-79.2-12.8-111.3-34.9h0.9c-1.4-1-4.4-4.1-9.6-6.8 0.2-0.1 0.4 0.3 0.9-0.5-0.5-0.5-0.9-0.5-1.4-0.5v0.5c-1.1-1.1 0.2 0.2-4.3-4.8-0.6-0.4-1 0.6-3.3-3.9-5.5-2.8-4.8-5.7-13.1-12.9 0-0.5 0-0.9-0.5-0.9-0.2-0.7 0.6 0.2 0.5-1.9-0.2 0.3-1.6-1-3.3-2.9-2.8-6.8-8-14-12-24.3-0.1-0.7 0.6-3.4-1.9-4.8l-0.5-5.8c-0.5 0-0.5-0.9-0.5-1.9-2.2-2.7-1.7-15.1-2.3-19.7 0.4-4 1.5-7.8 0.5-16.3 2.3-3.1 1.3-2.2 2.8-10 0.5-0.1-0.2 0.1 0.9-2.4 0.8 0.3 0.2-2.3 1.9-4.8 0.8-2.3 4-4.7 4.7-10.9 1.5-1.1 2.8-1.4 6.1-6.5 0.4-1.5 4.5-3.6 7.6-7.2 1.9-0.7 4.1-5.7 9.4-9.1 1.1 0 2.2 0.2 6.1-3.3 1.1 0.6-0.3-0.5 3.7-2.8 0-0.5 0.5-0.5 0.9-0.5 6.8-7.6 18.9 19.5 25.9 26.1 1.6 1.8 3.5 3.6 6.1 7.2 0.1 1.7-0.1-0.6 3.8 4.7 0 0.5 0 0.5 0.5 0.5 2.6 1.5 7.1 10 11.4 12.5 1-0.8-1 2 1.4 1v1.9c3.3-0.1 4.9 6.9 15.7 14.5 0.4 0.1 0.4 1.9 2.3 1.9 0 0.5-0.5 1.5 0.5 1.9 12.1 9.7 32.7 31.4 48.7 40.3-0.5 0.5 0 0.5 0 0.5-0.1 0.4 5.5 3 4.7 0-0.6 0 0.1-0.2-3.3-0.5v-0.9c-1.1-0.3-0.3 0.2-1.9-1.9-2.7 1.1-2-1-4.7-5.8 0.5 0.5 0.5 0.9 0.9 0.9 0 0.5 0.5 0.5 0.5 0 0.9 2.1 4.1 3.3 7.9 6.1 0.3-0.2 1.3 0.8 3.7 1.4 0.1-0.8-0.6-0.1-4.2-2.8 0 0 0-0.5-0.5-0.5-2-1.2-12.5-8.6-3.8-6.1 0.7 1.6-0.4 0.3 4.3 2.4 0 0.5 0.5 0.9 0 1.4 0.4 0.4 1.3-0.4 4.3 2.9 0.5 0 0.5 1 1.4 1.4l0.5-0.9 0.9 0.5c0.6 0.1-1.6 0.3 0.5 1.9v-0.3c1.7 0 7.1 2.1 8.9 4.7 1.6-0.8 3.9 0.1 5.2 2.9 2.4-2.1 2.5 1.1 12 2.9l-0.5 0.5c1.2 4.5 16.9 0.7 6.2-1-2.4-0.6-5.6-1-5.8-4.8-2.9 4.2-6.8-1.9-10.9-2.9-2.8 0-5.8-2.4-15.2-6.7l0.9-0.9c0.4 0.5 3.8 2.2 6.1 1.9 0.5-0.2 0.7 1 1.9 0.5 0.3 0.3 2.2 2.9 4.7 2.3 0.5-0.2-0.7 1 1.9 1.4 0.1 0.6-0.3 0.7 2.3 0.9 0-0.4 0.2 1.1 1.9 0.9 2 0.3 8.2 2.1 1.4-0.5-2.2-1.2-1.6-1.3-7.1-3.7v-0.5h-0.5s0-0.5 0.5-0.5c0-0.5-0.7-0.7-3.3-1.9 1.1 0.8 1.7 0.2 4.7 1.4-0.7 0.1-0.8-0.1 0.9 0.9v-0.9c2.6 0.4 0.1 0.5 5.8 3.9 0.2-2.5 5.2-1.7 4.7 2.4 0.6-1.3 9-1.7 8.6 2.9 1.6-2 5.7 3.7 8.6 1.9 0.5-0.9 0.9-0.5 0.9 0 1.7-0.7 6.4-0.2 0.5-2-1 2.8-6.6-4.5-24.3-8.6V179.6h-208c-0.4 11.1-0.8 27.1 1.9 40.8h-0.5c-0.2 1.4 0.4 4-0.5 6.8 1.4 2.8-0.4 8.2 2.3 14.4-0.8 0-0.4 1.1-1.4 2.4 0.1 5.3 4.7 13.2 3.7 22.1-1-1.5-1.3 0.4-1.9-5.3h-0.9c-0.5 7.3 1.7 14.5 2.8 24.1-1.4-0.8-1.8-1.7-5.1-7.7 1.6 12.2 7.7 27.1 10.8 40.4-2 0.1-1.7-2.5-6.1-5.4 0 0.5 0.9 2.9 0.5 2.9 0.8 0.2 0.7 3.3 2.8 4.4 0.1 0.7 0.2 0.5 1.4 3.4 2.9 3.4 4.2 7.5 8.9 12.4-0.8 0-1.2-1.3-3.3-1.9-0.2-0.2-0.6-1.8-1.9-1.9v-0.5c-0.7 0-0.6-0.2-1.9-1.4v0.5c-0.2-0.3 0.4-0.9-1.4-2.3 0.3-0.6-0.7 0.1-0.9-1.4-1.2 0.8-1-3-5.1-7.2h0.5c-3.3-2.9-5.7-8.2-6.1-8.2 0.6 2.5 0.8 1.2 2.8 7.2h-0.5c0 0.4 0 2.3 2.3 1.9 0.6 1 2.4 6.7 4.3 8.2 0.7 3.2 3.4 4.8 6.6 10.1-16.3-8.3-45-65.7-31.4-31.4-8.4-8.2-24.5-56.6-18.1-19.8l-1.4-2.3z" fill="#006AB6"></path><path d="M457 97.6c-1.5 0.9-1.8 0.3-5.8-1.9-0.3-0.8 3.3-4.7 5.8 1.9z m-7.6-3.8c-2.6 0.2-1.5 1.2-10.5-4.3 0.5 0 0-0.9 0.5-0.9h-0.5v-0.5h0.9v0.5c0.7-0.2 0.1-0.7 5.2 1.9 0.9 0.5 0.2-0.9 2.8 1.4 0.1 0.6-0.1 0.3 1.4 1.9h0.2z m-10.5-9.1c-3.2-0.6-0.3-3.8 2.8 0.1 0.8 1 0.1 1.4-2.8-0.1z m-2.5 3.8c-1.4 0.3-4.4-1.1-2.3-3.3 0.2 0.6 2-1 2.3 3.3z m-5.6-6.6c-1.5 0.1-3.3-1-5.7-0.9-0.5-3.7-12.3 0.1-8.6-6.2 0 0.7 0.8-1.5 2.8 0.9 0.9-0.5 1.9 0.5 3.3 0.5 0.3 0.7 0.6 0.6 9.1 3.7 0 0 0.5-0.5 0.5 0 0.9 0 1.9 1.4 3.3 1.4v1.9c-1.1 0 0.2 0-4.7-1.3z m-15.7-5.8c-0.5 0.5-1.4 0.5-2.4 0.5-0.6 3.7-2.4-4.2 0.5-1.9 0.9-0.9 2.4-0.5 3.3-0.5-0.6-0.5 1.4 1.3-1.4 1.9z m-4.8-1.9c0.1 0.3-0.5-0.6-1.4 0.5-0.8 1.9-0.2 0.9-6.3-0.5 0.6 0.7-1.9-3.2 3.3-1.9 0.4 0.3 0.9-1.6 4.2 1.9h0.2z m-8.6-5.8c-2.5-0.5-1.3-2.9 5.7-1.9 0.2 2.1 5.2-0.3 6.8 2.8 0.5 0 1.4 0 1.4 0.5 2.5 0 2-0.7 8.6 3.4 1.7 0.7-0.2 3.4-7.6-1.5-0.9 0.1-0.6-0.3-2.3-1.4-3.6 2.7-5.4-0.1-12.6-1.9z m-1.9 0c-0.5 0-0.9-0.5-0.9 0-0.3 1.2-6.7-2.2-2.3-2.9V65c1 0.1 0-0.2 3.3 0.9 0 0.5-0.5 0.9 0 0.9-0.1 0.7 0.4 1.6-0.1 1.6z m-6.2-1.4c-0.5 0-0.9 0.5-0.9 0.9-7.3 3.2-5.7-6.5 0.9-0.9z m33.4 7.6c-0.5 1.5-0.5 1.9 0 0 1.3-0.6 5.7 2.2 0 0z m-41-6.7c-2.4-0.7-6.2 0.9-10 0v1.4c-0.5 0-0.9 0.5-0.9 0-0.7-0.3 0.4 0.8-2.3 0.9v-0.5c-1.2 0.2-2.2 1.7-6.7 0.9 2.4-1.4 0-2.6 7.5-4.2 0 0.9 0.5 1.5 1.4 1.5v-0.5h0.9c-0.7-1.6 9.8-5 10.1 0.5zM275.1 170.6c0.2 3.1-0.4 3.6 0.5 7.2v-1.4h0.5v1.4h-0.5c-0.6 1.4 1.7 1.7-2.3 3 0-0.5 0-1-0.5-1-0.1-1.4-0.2-0.5 1.4-9.6 0.4-0.1 0.9-0.1 0.9 0.4z m-2.9 61.8h0.5c-0.5 0.4 1 1.5-1.9 2.4-3.5 0.8-0.5-10.3 0.9-3.3 0.5-0.1 1 0.4 0.5 0.9z m-13.3 19.2c-3.9 4.7-3.5-3-3.3-6.2h-0.5c-5.8-3.8 4.7-17.3 0.9-0.1 1.3-0.8 2.9-1.8 2.9 6.3z m-5.8-17.3c0-1.3-2-9.1 0.1-10.2 2.5 1.3 4.9 9.6-0.1 10.2z m-1.4-30.2h-0.5c1.6 2.8-3.6 9.9-3.3 1.4-0.3 0.4-0.3 0-0.5-0.9 0.6-4.7 4.7-15.6 4.3-0.5z m-1.8 18.7c-0.6 6.3-5.2 0.5-2.3-4.3-0.7-5.2 4.7-2.8 2.3 4.3z m0.9-30.2c0-0.5 0-0.5 0.5-0.5 2.2-16.2 5.7 6-0.5 0.5z m32.3 90.7c-0.2-6-3.3-15.8-2.8-23.9h0.9c0.4 0.6-1.2 0.1 1.9 5.2-0.5-2.7 1.1-8.2-1.9-12.9-0.8 0.5-0.3 2-0.5 4.3-9.8-14-6.6-40.3-7.5-60.4h-0.5c0.7 0.8-0.9-16.2 1.4-12 4 17.6-0.6 44.1 6.1 65.1-0.4-2.3-0.4-1.5-0.9-6.2 1.4 0.2 0.3-1.5 1.4-2.4-1.8-2.1-1.2-8.7-2.3-14.4 0.8-1.4 0.3-3.2 0.5-6.8h0.5c-2.3-6.3-0.8-20.7-2.8-29.8 0-0.5 0.9-1.4 0-1.4 0-6.3 3-21.5 1.9-32.2-0.9 2.3-0.3 0.8-0.9 6.2 0.1-0.2-1.3 0.5-1.4-0.9 0 0.5-0.9 0-1.4 0 1.4-2.2-0.1-0.5 1.4-7.2 0.5-0.2-1.8 0.3-0.5-1.4 0.6-1.3-1.7-3 3.3-7.7 0 0.5 0 0.9 0.5 0.9-0.2 1.8-0.8 3.8-0.5 6.8 2.8-5.6 7-23.8 11.7-26.4-0.1-2.5 4.7-6.4 7.6-11.5 0.9 0 0.2-0.1 2.3-1.9h-0.2v-0.4c-1.9 1.7-1.5 0.1-6.2 5.8-5.2-1.8 0-2-11 9.2 2.2-11.6 12.6-26.4 26.1-32.5 0.2 4-10.4 10.8-14.3 16.3 1.5 0.2 2-1.3 4.7-3.8l1.4 0.5c0.8-0.9 2.1-3 5.2-4.3 0-0.9 0.9-0.9 0.9-1.4 1.1 0.3-0.3 0.2 2.8-1.4 0-0.5 0.9 0 0.9-0.9h0.5c0.2-0.5-0.1-1.8 1.5-0.5 0.7-2 5.7-4.7 26.7-18 0.4 0 2.7-2.5 4.3-1.9 0 0 0-0.9 0.5-0.5 0-1.2 1.5 0.2 3.3-0.9 0-0.8 0.8 1 1.9-0.5 0-0.5 0.5-0.5 0.5-0.9h0.9c0.3-1.4 0.1 1.1 8.1-2.8 0.9 0.5 0.9-0.9 1.9 0-0.2 0.5 1.7-2.1 2.9 1 0.7-0.1 0.5 0 1.4-0.9 4-0.5 7.7-3.1 14.8-2.4-0.3-0.2 2.5-1 5.7-0.5 22.8-2.9 15.5 4.2-3.8 5.2 0 0 0.5 0 0.5 0.5 0.5 0 1.4-0.5 1.9 0v-0.5c2 0.1 9.3 4.9 1.9 4.7 0-1.2-1-0.2-3.3-1.2-0.6-0.4-1.4 2.1-4.7 0-0.3-0.3 0.5 1.2-1.4 0.9v-0.9c-0.7 0.4-0.5 0.2-4.5 1.4-0.5 0-1.4-0.5-1.4 0-0.5-0.5-1.4 0-1.4-0.5 0 0-0.5 0.5-0.5 0.9-0.9 0-2.9 0-3.3-0.9-0.8 1.7-3.3 1.3-8.1 2.9v-0.5c-2-1.3-9.8 5.3-3.3 3.3 0.7-0.5 5.2-2.9 4.8 0.5 0 0 0.5-0.5 0.5 0 0-0.9 0.5-1.5 0.5-2.4h2.4c1.9 0.3 2 0.2 6.6 0-0.2-1.1 1.4-2.5 4.3-1 3.3-0.9 6.1-0.2 12.4-1.4v-0.5c0.7 0 2.2-0.2 2.3 1.5 0.7-1.8 2.1 0.7 5.1-1.5 1.6 0.6 3.3 1.7 7.7 1.9 6-0.6 4.6 6.4-4.8 1.9H394v0.9c-8.4-0.6-19.2 2.5-30.9 1.4V89c-1.6 0-1.5 1-3.8-0.9 0 0.5-0.9 0.5-0.5 0.9-0.8 1-3 1.7-5.3 1.5 0-0.5 0-0.5-0.5-1v0.5c-1.2 0 0.3 0.4-5.3 1.4 0.8 1.5-3.2 0.4-2.4 2.8 0.8-0.4 0.1-0.7 1.9-0.9 6.9-2.2 19.7-4.7 32.5-4.2 1-0.9-0.1 0 3.3-0.5 2.3 0.5 0.9 0.5 5.7 0.5h-0.5v-0.9h0.9v0.8c6.5-0.5 15.9 1.2 25.8 2.8v-0.5c0.9 0 1.9 0.5 2.9 0.5l-0.5 1-0.9-0.5c1.2 0.5 0.1 0.5 6.7 0.9 6.1 1.6 5.3 1.4 16.8 4.2-1.1-1.3 2.8-0.7 0.3 0.5 1.8-0.1 9.7 2.7 23.9 8.6 3.5 3.2 16.9 6.4 21 12 6.7 3.7 18.6 10.7 23.4 19.2h0.9c0 0.5 0.9 0.5 0.9 0.9 3-0.2 1.8 1.7 5.2 6.8h1.4c7.7 10 16.3 19.9 24.7 32.2 0.5 0 0.5 0 0.5 0.5 1.1 0.9-0.3 1 3.3 4.8 2.4 1.7 2.7 3.3 7.6 12 0.5 0.1 1.6-0.4 0.9 1.4 2.1 1.9 4.9 6.4 7.5 12 1.8-1.2 0 7.5 10 12 3.6-0.8 7-5.3 14.1-7 0.5-0.9 0.9-0.9 1.4-0.5l0.9-1.4c0.9-1 3.1-0.3 8-6.2 0.1-0.7 7.1-4 9-8.1 0.5 0.4 0-1.8 1.4-0.9 0.4-1.1 0.9-2 4.7-3.7-1.6-1 2.5-5.7 5.1-10 0.9 0 0.5-0.9 0.5-0.9 1.2-0.4 1.3-1.6 2.8-4.8 0-0.5 0-1.5 0.5-1.5-0.8-3.1 1.9-2.1 5.1-23.1 0.1-5.9 1.6-18.4-0.9-24.5v-6.2h0.2c-0.4 0-1.3-0.2-0.5-3.4-0.5-0.5-0.5-0.9-0.5-1.4-1-0.6-1.1-3.5-1.9-5.8v-2.1c-0.5 0-0.5-0.5-0.9-0.5 0.2-4.1-3.2-5.3-5.1-14.4 0 0.5 0 0 0.5 0-0.8-0.3-2.2-1-1.4-2.9-1.1 0.3-2.4-0.2-1.9-1.9-0.9 0-0.9-1.5-1.4-0.9 0.3 0-0.8-0.9 0.5-1.9-0.9 0-0.5-0.9-0.5-1.5h-0.9c-3-2.8 0-3.2-4.7-8.2 0.6-0.5-3.4-2.6-2.8-4.7-4.3-4.8-8-8.9-14.7-16.6-1.3-0.4-1.9-3.8-5.2-4.1 0-0.9-0.9-0.9-0.5-1.9-4.6-4.9-11-11.4-20.5-15.9 0.5-0.9-0.5-1.4-0.9-1.4 0-0.9-0.8-0.6-4.7-2.3-0.1-1.6 0.8 1-9.1-7.2v0.5H546v-0.9h0.9c-3 0.2-4.7-2.8-9.2-4.3v0.9c-0.5-0.2-1.4 0.4-1.4-1.5h0.9c-18-8.7-40.8-13.5-64.7-16.2-10.7-0.8-26.9-0.7-41 0-2.3 0.6-5 1.1-11.9 1.4-1.2 1.5-2.7-0.3-8.6 1.9h0.5v0.9h-0.9v-1c-0.5 0.2-0.2-0.5-3.4 1.4-41.4 6.6-83.1 34.9-111.9 69 0 0.5-0.5 0.9-0.5 1.4-0.5 0-0.5 0.5-0.9 0.5-12.5 18-32 49.8-40.3 70.8-5.5 10.4-8.1 16.3-13.6 35.1-0.3 3.6-1.7 8.8-1.4 12.9h0.5c0 0.5 0 1.5-0.5 1.5 2.1 1.2-0.3-0.9 3.8-4.8 3.2-15.7 11.9-36.7 22.1-53.8 2.4-10.8 15.9-17.2 1.6 2.4 0.1 4.6-3.2 10-7 17.7-0.9 1.1-0.9 5-6.1 13.1-0.3 0.7 1.1 0.4 0 3.3h0.5v1h-0.9v-0.5c-2.2 6.2-1.8 8.9-5.6 18.2l0.9 0.5c-0.1 0.3-0.7 0.1-0.5 1.4l-0.9-0.5c1.1 3.1-1.3 4.6-1.9 10.6h0.9v1.5h-0.5v4.7c-0.4 4.5-1.1 7.6-0.5 18.2v-1c-0.3 0.3 1.2-0.5 0.9 1.4h-0.9 0.5c0 0.9 0.5 1.5-0.5 1.9 0.9-0.8-0.4 14.3 2.8 6.1h0.5c0-0.5-0.5 0-0.5 0-0.5-0.5 0-1.4-0.5-2.4 2.3-1.8-0.6-2.4 0.9-9.6 2.6 0.9 3.7 12.5 5.1 18.3 1.9 1.2 0.1 8.4 5.6 20.7 0.4-2.8-2.1-6.9-1.4-12 6.5 0.5 1.4 14.4 17.6 41.7-0.9 1.4 3 1.2 1.4 3.3 0.7 0.4 1.1 1.1 2.8 3.3v0.9s-0.5 0-0.5 0.5h1.4c0 0.5 0.5 0 0.9 0.5 0-1.1-1.2-1.1-3.7-8.6v0.5h-0.9c0.1-0.2-0.3-0.7 0.9-0.9 0.4-0.6-1.1 0.1 0-1.9h-0.5c0.2-0.4-0.5-0.3-0.5-2.4 0.1-1.4-1-3.9-0.9-6.8h-1.4c-0.5-1.3 1.1-1.9-1.4-7.2 0-0.5 0.9-0.9 0.5-1.5v0.5c-0.9 0.1-1.3-2.1 1.4-1.4-1.8-3.6-4.2-10.2-3.7-17.6-1.6 0.2-2.6-1.2 0-3.9-1.8-3.9-3.3-8.3-2.3-15.4 3.5-6.3 5.6 6.9 5.7 19.7h0.5c-0.5 0.3 1 0.4 0 2.4 0.3 0.5-0.5 0.8 0.9 1.9-0.5 0.4 1 0.2 0 2.9 0.5 0.9 0 1.9 0.5 2.9 0.5-0.5 0.5 0.5 0.9 0.5 1 1.4-2.1 2.2 1.4 5.3-0.5 0.9 0.5 1.9 0 2.9 0.5 0 0.5 0.5 0.5 0.9 1-1.2 0.8 3.3 4.6 7.1z" fill="#DB215D"></path></svg>