<svg viewBox="0 0 1024 1024" version="1.1" xmlns="http://www.w3.org/2000/svg"><path d="M224 0h576c123.6 0 224 100.4 224 224v576c0 123.6-100.4 224-224 224H224c-123.6 0-224-100.4-224-224V224C0 100.4 100.4 0 224 0z" fill="#FFFFFF"></path><path d="M756.4 696c0-0.4 0 0.8-1.2 0.8 0 0.4 0 0.8-1.6 2.8h-0.8v0.8c-1.2 1.6-0.4 1.2-4 4h-0.8c0 0.4 0.8 2.4-2.4 1.6 0 0.8-0.8 0.8-0.8 0.8 0 0.4 0 0.8-1.6 1.2-0.8 1.2-2 2.4-4.4 3.6v0.8-0.8c-0.8 0 0.4 0-1.2 1.2v-0.8c0 0.4 0 0.8-3.6 1.2l0.8 0.8h-4c0.8-0.8 4-1.6 5.6-4 0.8 0 0.8 0 0.8-0.8 3.2-0.8 9.2-6 15.2-11.2 0.4 0 1.6 0.4 1.6-2.4h0.8c0-0.8 0.8 0 1.6 0.4z m-30 17.2c0.4 0-0.8 0-1.2 1.6 0-1.6-6 4.8-6.4 0.8 0 0 0.8 1.2 1.2 0 0.8-0.4 2.4-1.2 4-2.8h0.8v-0.8c0.8 0.8 1.6 0 2.4 0v0.8c0.4-0.4 0.4 0.4-0.8 0.4z m-15.6 13.6c-14.4 8.8-31.2 16-51.6 22 0 0.4 0 1.2-1.2 0-0.8 0-2.4 0.8-2.4 0h-0.8c8-2.8 23.6-8.8 35.2-12.8-0.8-0.8 0-0.8 0.8-0.8 0.4-1.6 9.2-4 14.4-7.2 1.2 0 1.6-1.2 2.8-1.2 0.4-0.4 0.4-0.4 2.8-1.2v-0.8c0.4 0 0.4-0.4 1.2 0.8l-1.2 1.2z m-98 11.6l-2.4 0.8c0.4 0.4 0.4 0.4-0.8 0.8-0.4-0.8 0.4-0.8-2.8 0 0 0.8 0 0-0.8 0.8 0-0.8-0.8 0-0.8-0.8h-2.4v-1.2c0.8 0 1.6 0 1.6-0.8 0.8 0 0.8-0.8 0.8-0.8 1.2 0 4-0.8 7.6 1.2z m-219.6-79.2c-0.8-0.4-0.4 0.4-3.6-1.2-0.4-1.6-2.4-0.4-2.8-3.6 0.4 0.4 1.2-0.8 2.8 0.8v0.8c0 0.8 3.6-0.4 3.6 3.2z m-6.8-9.2v-0.8c0 0.4-0.8-0.8-1.6 0.8 0.4-0.8-0.4 0.4-0.8-2.4-0.4-0.4-1.6-0.4-2.4-2.4 0 0.4 10 4 6.8 6.4h0.8c-0.8-0.4-1.6-0.4-2.8-1.6z m-1.6 4.8c0 0.4-0.4-0.4-1.6-0.8 0.8-3.6-6.4 0.8-6.8-8.8 0.4 0.4 5.6 3.6 8.8 7.6 0.8 0 0.8 0 0.8 0.8-0.4 0-0.4 0.4-1.2 1.2z m-10.4-9.6c-2 1.6-0.4-1.2-3.6-1.2 0-1.2-1.2-4-3.6-4 0.8-0.8-0.8-1.2 2.4-3.6-1.2 1.2 2 2 5.2 8.8h-0.4z m-7.2-0.8c-0.4-0.4-0.4 0.4-1.6 0.8-0.8-1.2-0.8-1.2-3.6-3.6v-0.8c-0.8 0 0-0.4-2.4-2.4-0.8 0.4 0-0.4-1.6-0.8l0.8-0.8s0.4-2 1.6-0.8v0.8c0.8 0 0.8 0 0.8 0.8 0.8 0 0.8 0 0.8 0.8 1.6 0.4 0.8 0 5.2 4.8 0.8 0.4 0 0.4 1.6 1.2h-1.6z m-12-10.4c-12.4-10.8-25.6-27.6-33.2-48-0.8-13.2 10.8 15.6 19.6 28.8 0.4-0.4 1.2-0.4 1.6 1.2 2.4-0.8 2 4 5.2 6 0 1.2 2 3.2 5.2 6.4 0.4 0.8 0.4 0.8 4 6h0.8c-0.8 0 0 0.8 0 0.8-1.2 0.4-0.4 0.4-3.2-1.2z m-12.4-24.4s2-1.6 2.8 0c0.8-0.8 1.6 1.2 4.4 7.2-0.8 0-0.4-0.4-1.2 1.2-0.4-0.8-0.4 0-2.4-3.6-0.4-0.4-2 0.4-3.6-4h-0.8l0.8-0.8z m12.8 16.4s0.8-0.4 2.8 1.2c-0.4 0 2 3.6 4 1.6v0.8c0.8 0 0.8 0 0.8 0.8h1.2c-0.8 1.2-0.4 1.2 2.8 5.6-1.6 0.4-0.8-0.8-5.2-1.2v-0.8c-0.8 0-0.8-0.8-0.8-0.8-0.8 0-1.2-0.8-2.8-2.8-1.2-0.4-0.4-0.4-2.8-4v0.8s-0.4-0.4 0-1.2z m23.6-5.6c0 0.4-0.4 0.8-2.4 0.8 0-0.8 0.4-0.4-1.2-1.6-0.4 0 0.8 0 0.8-1.2h0.8v-0.8c-0.4 0.4 1.2 0.4 2 2.8z m182.8-6c0.4-1.2 0.8-2 4.4 1.2 1.2 0 0 0.4 4.8 3.6h0.8c-0.4 0-1.2 2.4-2.8 0-0.4 0-0.4-0.4-2.4-1.6-0.8 0-0.8-0.8-0.8-0.8-1.6-0.4 0-1.2-4-2.4z m251.2-36.8c3.6-6.4 7.2-2.8 0.8 9.6-2.4-1.6 1.2-5.6 0-9.6v2c-0.4-0.4-2 0-0.8-2z m16.4-68.4c1.2-0.8 1.6 0.8 2.4-0.8 2 1.2 1.2 2.4-0.8 8.4-0.8-0.8-3.2-0.4-1.6-4-0.4 0.4-0.8-2.4 0-3.6z m12.4 59.6c-1.2-3.2 5.6-10 5.6-3.6-1.2 0.4-0.8 0-1.6 2 1.6 2-6.4 7.2-4 1.6z m5.2-16c0.8-1.6 7.2-14.4 5.6-3.6 0.4 0 0.4 0 0.8 1.6-1.2 0.4-0.8 1.6-2.4 5.2-0.4 4-6 10-4-3.2z m2-38.8c4.8-5.2 5.2 7.6 2 11.6-2.8-2.4-2.4-3.6-2-11.6z m1.2-11.6c0-0.4 0-1.2 1.6-1.2v-2c-0.8 0-0.8 1.6-2.4 1.2-2-8 6-18.4 2.8-1.2 6.8 2-6.4 20.8-2 3.2z m4.4 25.2c0-6 6.8-2 2 5.6-0.4 6.4-6.4 3.6-2-5.6zM316 576.8c0 0.4 0 1.2-0.8 2.4-3.2-2-4.4-9.6-5.6-14l0.8 1.2-1.6 0.8c0.8-1.2-4.8-1.2-2.4-3.6v-1.2l-1.2-1.2h0.8c-1.6-2-0.8-0.8-2.8-6h0.8c0.4 0-0.8 0-0.8-1.2h-0.8s0.8-1.2-1.2-1.2c2-0.8-2.4-8.8-0.8-11.6-0.4 0.4 0.8-2.4-1.6-1.2 0.4-0.8 2.4-2.4 0.8-6h0.8c-7.2-38 4.4-71.6 0-71.6 0-0.8 1.6-2.4 2.4-2.4-1.2-3.6 2.4-6 1.6-13.2H160v350h460V764c10.8 1.6 13.6-6.8 0-2.4v-2.4c50.8 0.4 104.4-28.8 146-62 0-0.4-0.4-0.8 2.4-2.4 1.2-2 4.8-6 10-8.8 11.6-12.4 25.6-28 39.6-44.4 2.4-3.6 11.6-11.2 16.4-22 8.8-10.4 19.2-35.2 21.6-48.4-5.2 10.4-10.8 20.8-18.8 31.2-4.4 6.8-8.8 16.8-18 26-0.8 6-20.4 18-4.8-0.4l0.8 0.8c4.8-12 18.8-25.6 25.6-42h-0.8c0 0.4-0.4-1.2 1.2-1.2v1.2c3.6-6.4 4-9.2 10.8-22h-0.8c0.4 0-0.8-0.8 0.8-1.6l0.8 0.8c2.4-6.4 3.6-10.4 5.6-20 0.8-5.6 2.8-10.4 4-22v0.8h-1.2v-1.6h1.2l-0.8-0.8c0.8-0.8 0-2 1.2-2-1.2 0 3.6-17.2-2.4-8.4h-0.8c0.8 1.2 1.2 0 0.8 2.8-4.4 20.8-5.6 2.8-5.2-12-2.8-2.8 1.2-18.8-2.8-26.8 0 2 0.8 4-0.8 15.2-6 0.8-2.4-37.2-16.4-65.2 1.2 0 1.6 0-1.6-1.2v1.2c1.2 0.8 0.8 1.6 2.4 10 0.4 0 0-0.8 1.6-0.8-0.8 0.8-0.8 1.2-0.8 1.2h-1.2c-0.4 0 1.2 0 0 2.4h0.8v12c0-0.8 0.8 0 1.2 0-0.4 0.8 1.2 0.8 0 2.8-0.8 0.8 0.8 2-0.8 3.6 0.8 1.2 0.8 1.2 0.8 4v-0.8c0.4-1.2 1.6 3.2-2.4 1.6 0 2.4 3.2 2.8 1.6 14.8-1.2 0 0 2-0.8 2.4 0.4 2.4 1.6 4 0.8 8.8-0.8-0.8-1.2 0.8-1.6 0.8-0.8 2.8 2.4 4.8 0 12 4.8 2-6.8 15.6-4.4 4-0.8-0.8 0.4-0.8 0-10 1.2-2.8-0.8-4 1.6-12h-0.8c0-1.2 0-2-0.8-2.4 0.4-0.8 0.4-0.4 1.2-2.8h-0.8c0.8-1.2-1.2-0.4 0-4 0-1.2 0.8-1.6 0.8-2.8-1.2 0-0.8-1.2-1.6-1.2 0.4 0-0.4-1.2 1.2-2 0-0.8 0-0.8 0.8-1.2-0.4-0.4-1.6-2.8-1.6-8.4-1.6 0-1.6-8.8-4-9.6-2.4 11.6 2.4 12-1.6 30-1.2 0-0.8-1.6-2.4-7.2-0.8 3.6-4.4 22.4 2.4 11.2 0 0.8 0 0.8 0.8 0.8 2 20 0 75.6-10.4 87.6 3.6-23.2 8.4-52.4 7.6-80-0.8 2.4 1.6 3.6-2.4 10.8 2 17.6-6.4 43.2-5.6 62.8-0.8 6.8-4.4 16.4-6.4 26-1.2 4.8-2 4.4-2.4 14 0.4-2.4 1.6-4 2.4-7.6 0 0 0.8 0.8 1.2 0.8 0 0.8-0.8 1.2 0 1.2 0-0.8 1.2 0 2 0-1.2 1.2-2 6.4-2.8 10.4 1.2-2.4-4 12.4-5.6 7.2 0-1.6 1.6-4.8 1.6-7.6-4 7.6-9.6 18.4-16.8 26.8h0.8c-0.4 0.4 0 2-2.4 2.8-0.4 0.8 0.4 0.8-1.6 0.8l0.8-0.8c-2.4 4-5.6 6.4-11.6 12-0.8 0-0.8 0.8-2.4 1.2 0 0.8-0.8 0.8-0.8 0.8v0.8c1.6 0.4 2.4-1.2 5.2-2.4 0.4-0.8 0.8 0.4 3.6-2.8 1.6-0.8 5.2-2 0.8 2.4 0 0 0.8 0 0.8 0.8 3.2-2.4 6.4-6 14-11.2-6.8 14.4-20 28.4-38.8 33.6 3.6-7.2 35.6-24.8 7.2-10-3.2 0.4-6 2.4-16 12-0.4 0.4-0.8-0.4-1.6 1.6h-1.6c-2 0.8-1.2 3.2-7.2 6-1.6 5.2-4.4 2.4-16.4 16-0.8 0-0.8 0-0.8 0.8-0.8 0.8-0.8 0.8-5.2 3.6 0 0.4 0 0.4-2.4 1.6 0 0.8-0.8 0.8-1.2 0.8v0.8s-0.8 0-0.8 0.8c-2 0.8 0 0.8-4.4 1.2v0.8c-0.8 0-1.2 0.8-1.6 0.8 5.2-3.6 6-4 18.4-14 0-0.8 0.8-0.8 1.2-0.8 0-0.8 0.8-0.8 0.8-1.2-8.4 4.8-22 15.6-35.2 20.8 0.8 0.8 1.2 0 2.4 0v1.2h-1.2c0.4 0.4-0.4 0.4-0.8 1.6-3.6 0.8-10.8 2.8-1.2-2.4-3.2 0.8-10.8 5.2-17.2 7.6-0.8 1.6-2.8 1.6-4 2.8 1.2 0 2.4-1.6 8-1.6v-0.8c0.4 0 0.4-0.4 1.2 0.8-13.2 6.4-27.6 9.2-46.4 12.8 0.4 0-2.4 1.2-4.4 1.2 0.8 0 1.2-0.8 1.6-0.8-2.4-0.4-4 0.8-7.6 0.8h5.2c-2.4 0.4-5.2 1.2-9.2-0.8 6.4-0.8 21.2-3.6 32.8-6.4 1.6 0 0.8 0 5.6-1.2-0.8-0.8 0.8-0.8 0.8-1.2 2.4-0.8 4.8 0.4 12-3.6-0.8 0-0.8 0-1.6-0.8v0.8c-4.4 0-10 3.6-19.6 4.4 0 0.8-1.2 0.8-0.8 1.2-0.8 0-1.6 1.2-4 1.2 0.4 0-1.2 1.2-2.4 0-0.8 0.4 0 0.8-2.4 0.8 0 0.8-1.2 0-1.2 0.8-1.6-0.8-2.4 0-3.6 0 0.8 0.8-4 0.8-18.8 3.6-8.4 1.6-21.2 1.2-35.2 2.8 0 0 0.8 0 0.8 0.8h1.2c-0.8 0-0.8 0-0.8 0.8-43.6-2.4-97.6-15.6-137.2-43.2h1.2c-1.6-1.2-5.6-5.2-12-8.4 0.4 0 0.4 0.4 1.2-0.8-0.8-0.8-1.2-0.8-1.6-0.8v0.8c-1.2-1.2 0.4 0.4-5.2-6-0.8-0.4-1.2 0.8-4-4.8-6.8-3.6-6-7.2-16-16 0-0.8 0-1.2-0.8-1.2-0.4-0.8 0.8 0.4 0.8-2.4-0.4 0.4-2-1.2-4-3.6-3.6-8.4-10-17.2-14.8-30 0-0.8 0.8-4-2.4-6l-0.8-7.2c-0.8 0-0.8-1.2-0.8-2.4-2.8-3.2-2-18.8-2.8-24.4 0.4-4.8 2-9.6 0.8-20 2.8-4 1.6-2.8 3.6-12.4 0.8 0-0.4 0 1.2-2.8 0.8 0.4 0.4-2.8 2.4-6 0.8-2.8 4.8-5.6 5.6-13.6 2-1.2 3.6-1.6 7.6-8 0.4-2 5.6-4.4 9.2-8.8 2.4-0.8 5.2-7.2 11.6-11.2 1.2 0 2.8 0.4 7.6-4 1.2 0.8-0.4-0.8 4.4-3.6 0-0.8 0.8-0.8 1.2-0.8 8.4-9.2 23.2 24 32 32 2 2.4 4.4 4.4 7.6 8.8 0 2 0-0.8 4.8 5.6 0 0.8 0 0.8 0.8 0.8 3.2 2 8.8 12.4 14 15.6 1.2-0.8-1.2 2.4 1.6 1.2v2.4c4 0 6 8.4 19.2 18 0.4 0 0.4 2.4 2.8 2.4 0 0.8-0.8 2 0.8 2.4 14.8 12 40.4 38.8 60 49.6-0.8 0.8 0 0.8 0 0.8 0 0.4 6.8 3.6 5.6 0-0.8 0 0-0.4-4-0.8v-1.2c-1.2-0.4-0.4 0.4-2.4-2.4-3.2 1.2-2.4-1.2-5.6-7.2 0.8 0.8 0.8 1.2 1.2 1.2 0 0.8 0.8 0.8 0.8 0 1.2 2.4 5.2 4 9.6 7.6 0.4-0.4 1.6 0.8 4.4 1.6 0-0.8-0.8 0-5.2-3.6 0 0 0-0.8-0.8-0.8-2.4-1.6-15.6-10.4-4.8-7.6 0.8 2-0.4 0.4 5.2 2.8 0 0.8 0.8 1.2 0 1.6 0.4 0.4 1.6-0.4 5.2 3.6 0.8 0 0.8 1.2 1.6 1.6l0.8-1.2 1.2 0.8c0.8 0-2 0.4 0.8 2.4v-0.4c2 0 8.8 2.4 10.8 5.6 2-0.8 4.8 0 6.4 3.6 2.8-2.4 3.2 1.2 14.8 3.6l-0.8 0.8c1.6 5.6 20.8 0.8 7.6-1.2-2.8-0.8-6.8-1.2-7.2-6-3.6 5.2-8.4-2.4-13.6-3.6-3.6 0-7.2-2.8-18.8-8.4l1.2-1.2c0.4 0.8 4.8 2.8 7.6 2.4 0.8-0.4 0.8 1.2 2.4 0.8 0.4 0.4 2.8 3.6 5.6 2.8 0.8-0.4-0.8 1.2 2.4 1.6 0 0.8-0.4 0.8 2.8 1.2 0-0.4 0.4 1.2 2.4 1.2 2.4 0.4 10 2.4 1.6-0.8-2.8-1.6-2-1.6-8.8-4.4v-0.8h-0.8s0-0.8 0.8-0.8c0-0.8-0.8-0.8-4-2.4 1.2 0.8 2 0.4 5.6 1.6-0.8 0-0.8 0 1.2 1.2v-1.2c3.2 0.4 0 0.8 7.2 4.8 0.4-3.2 6.4-2 5.6 2.8 0.8-1.6 11.2-2 10.4 3.6 2-2.4 7.2 4.4 10.4 2.4 0.8-1.2 1.2-0.8 1.2 0 2-0.8 8-0.4 0.8-2.4-1.2 3.6-8-5.6-30-10.4v-179.6h-256c-0.4 13.6-0.8 33.2 2.4 50.4h-0.8c-0.4 1.6 0.4 4.8-0.8 8.4 1.6 3.6-0.4 10 2.8 17.6-0.8 0-0.4 1.2-1.6 2.8 0 6.4 5.6 16.4 4.4 27.2-1.2-2-1.6 0.4-2.4-6.4H364c-0.8 8.8 2 18 3.6 29.6-1.6-0.8-2.4-2-6.4-9.6 2 15.2 9.6 33.2 13.2 49.6-2.4 0-2-3.2-7.6-6.8 0 0.8 1.2 3.6 0.8 3.6 0.8 0.4 0.8 4 3.6 5.6 0 0.8 0.4 0.8 1.6 4 3.6 4 5.2 9.2 10.8 15.2-0.8 0-1.6-1.6-4-2.4-0.4-0.4-0.8-2.4-2.4-2.4v-0.8c-0.8 0-0.8-0.4-2.4-1.6v0.8c-0.4-0.4 0.4-1.2-1.6-2.8 0.4-0.8-0.8 0-1.2-1.6-1.6 0.8-1.2-3.6-6.4-8.8h0.8c-4-3.6-7.2-10-7.6-10 0.8 3.2 0.8 1.6 3.6 8.8h-0.8c0 0.4 0 2.8 2.8 2.4 0.8 1.2 2.8 8.4 5.2 10 0.8 4 4 6 8 12.4-20-10.4-55.6-80.8-38.8-38.8-10.4-10-30-69.6-22.4-24.4l-0.4-1.6z" fill="#006AB6"></path><path d="M577.2 346c-2 1.2-2.4 0.4-7.2-2.4-0.4-0.8 4-5.6 7.2 2.4z m-9.2-4.4c-3.2 0.4-2 1.6-12.8-5.2 0.8 0 0-1.2 0.8-1.2h-0.8v-0.8h1.2v0.8c0.8-0.4 0-0.8 6.4 2.4 1.2 0.8 0.4-1.2 3.6 1.6-0.4 0.8-0.8 0.4 1.6 2.4z m-13.2-11.2c-4-0.8-0.4-4.8 3.6 0 0.8 1.2 0 1.6-3.6 0z m-2.8 4.4c-1.6 0.4-5.6-1.2-2.8-4 0 0.8 2.4-1.2 2.8 4z m-7.2-8c-2 0-4-1.2-7.2-1.2-0.8-4.4-15.2 0-10.4-7.6 0 0.8 0.8-2 3.6 1.2 1.2-0.8 2.4 0.8 4 0.8 0.4 0.8 0.8 0.8 11.2 4.4 0 0 0.8-0.8 0.8 0 1.2 0 2.4 1.6 4 1.6v2.4c-1.6 0 0 0-6-1.6z m-19.2-7.2c-0.8 0.8-1.6 0.8-2.8 0.8-0.8 4.4-2.8-5.2 0.8-2.4 1.2-1.2 2.8-0.8 4-0.8-1.2-0.4 1.6 1.6-2 2.4z m-6-2.4c0 0.4-0.8-0.8-1.6 0.8-0.8 2.4-0.4 1.2-7.6-0.8 0.8 0.8-2.4-4 4-2.4 0.4 0.4 0.8-2 5.2 2.4z m-10.4-7.2c-3.2-0.8-1.6-3.6 7.2-2.4 0.4 2.4 6.4-0.4 8.4 3.6 0.8 0 1.6 0 1.6 0.8 3.2 0 2.4-0.8 10.4 4 2 0.8-0.4 4-9.2-2-1.2 0-0.8-0.4-2.8-1.6-4.8 3.6-6.8 0-15.6-2.4z m-2.4 0c-0.8 0-1.2-0.8-1.2 0-0.4 1.6-8.4-2.8-2.8-3.6v-0.8c1.2 0 0-0.4 4 1.2 0 0.8-0.8 1.2 0 1.2 0 1.2 0.4 2 0 2z m-7.6-1.6c-0.8 0-1.2 0.8-1.2 1.2-9.2 4-7.2-8 1.2-1.2z m41.2 9.2c-0.8 2-0.8 2.4 0 0 1.6-0.4 6.8 2.8 0 0z m-50.8-8c-2.8-0.8-7.6 1.2-12.4 0v1.6c-0.8 0-1.2 0.8-1.2 0-0.8-0.4 0.4 0.8-2.8 1.2v-0.8c-1.6 0.4-2.8 2-8.4 1.2 2.8-1.6 0-3.2 9.2-5.2 0 1.2 0.8 2 1.6 2v-0.8h1.2c-0.4-2 12.4-6 12.8 0.8zM353.2 436c0.4 4-0.4 4.4 0.8 8.8v-1.6h0.8v1.6h-0.8c-0.8 1.6 2 2-2.8 3.6 0-0.8 0-1.2-0.8-1.2 0-1.6-0.4-0.8 1.6-12 0.4 0.4 1.2 0.4 1.2 0.8z m-3.6 76.4h0.8c-0.8 0.4 1.2 2-2.4 2.8-4.4 0.8-0.8-12.8 1.2-4 0.4-0.4 0.8 0.4 0.4 1.2z m-16.4 23.6c-4.8 5.6-4.4-3.6-4-7.6h-0.8c-7.2-4.8 5.6-21.2 1.2 0 1.6-1.2 3.6-2.4 3.6 7.6z m-7.2-21.6c0-1.6-2.4-11.2 0-12.4 3.2 1.6 6 12 0 12.4z m-1.6-37.2h-0.8c2 3.6-4.4 12-4 1.6-0.4 0.4-0.4 0-0.8-1.2 0.8-5.6 6-18.8 5.6-0.4z m-2.4 23.2c-0.8 7.6-6.4 0.8-2.8-5.2-0.8-6.4 5.6-3.6 2.8 5.2z m1.2-37.2c0-0.8 0-0.8 0.8-0.8 2.4-19.6 6.8 7.6-0.8 0.8z m39.6 111.6c-0.4-7.2-4-19.6-3.6-29.6h1.2c0.4 0.8-1.6 0 2.4 6.4-0.8-3.2 1.2-10-2.4-16-0.8 0.8-0.4 2.4-0.8 5.2-12-17.2-8-49.6-9.2-74.4h-0.8c0.8 0.8-1.2-20 1.6-14.8 4.8 21.6-0.8 54.4 7.6 80.4-0.4-2.8-0.4-2-1.2-7.6 1.6 0.4 0.4-2 1.6-2.8-2.4-2.4-1.6-10.8-2.8-17.6 0.8-1.6 0.4-4 0.8-8.4h0.8c-2.8-7.6-0.8-25.6-3.6-36.8 0-0.8 1.2-1.6 0-1.6 0-7.6 3.6-26.4 2.4-39.6-1.2 2.8-0.4 0.8-1.2 7.6 0-0.4-1.6 0.8-1.6-1.2 0 0.8-1.2 0-1.6 0 1.6-2.8 0-0.8 1.6-8.8 0.8-0.4-2.4 0.4-0.8-1.6 0.8-1.6-2-3.6 4-9.6 0 0.8 0 1.2 0.8 1.2-0.4 2.4-0.8 4.8-0.8 8.4 3.6-6.8 8.8-29.2 14.4-32.4 0-3.2 5.6-8 9.2-14 1.2 0 0.4 0 2.8-2.4h-0.4V364c-2.4 2-2 0-7.6 7.2-6.4-2.4 0-2.4-13.6 11.2 2.8-14.4 15.6-32.4 32-40 0.4 4.8-12.8 13.2-17.6 20 2 0.4 2.4-1.6 5.6-4.8l1.6 0.8c0.8-1.2 2.4-3.6 6.4-5.2 0-1.2 1.2-1.2 1.2-1.6 1.2 0.4-0.4 0.4 3.6-1.6 0-0.8 1.2 0 1.2-1.2h0.8c0.4-0.8 0-2.4 2-0.8 0.8-2.4 7.2-5.6 32.8-22 0.4 0 3.2-3.2 5.2-2.4 0 0 0-1.2 0.8-0.8 0-1.6 2 0.4 4-1.2 0-0.8 0.8 1.2 2.4-0.8 0-0.8 0.8-0.8 0.8-1.2h1.2c0.4-1.6 0 1.2 10-3.6 1.2 0.8 1.2-1.2 2.4 0-0.4 0.8 2-2.4 3.6 1.2 0.8 0 0.8 0 1.6-1.2 4.8-0.8 9.6-4 18.4-2.8-0.4-0.4 3.2-1.2 7.2-0.8 28-3.6 19.2 5.2-4.8 6.4 0 0 0.8 0 0.8 0.8 0.8 0 1.6-0.8 2.4 0v-0.8c2.4 0 11.6 6 2.4 5.6 0-1.6-1.2-0.4-4-1.6-0.8-0.4-1.6 2.4-5.6 0-0.4-0.4 0.8 1.6-1.6 1.2v-1.2c-0.8 0.4-0.8 0.4-5.6 1.6-0.8 0-1.6-0.8-1.6 0-0.8-0.8-1.6 0-1.6-0.8 0 0-0.8 0.8-0.8 1.2-1.2 0-3.6 0-4-1.2-0.8 2-4 1.6-10 3.6v-0.8c-2.4-1.6-12 6.4-4 4 0.8-0.8 6.4-3.6 6 0.8 0 0 0.8-0.8 0.8 0 0-1.2 0.8-2 0.8-2.8h2.8c2.4 0.4 2.4 0.4 8 0-0.4-1.2 1.6-3.2 5.2-1.2 4-1.2 7.6-0.4 15.2-1.6v-0.8c0.8 0 2.8-0.4 2.8 2 0.8-2.4 2.4 0.8 6.4-2 2 0.8 4 2 9.6 2.4 7.2-0.8 5.6 8-6 2.4h-2.8v1.2c-10.4-0.8-23.6 3.2-38 1.6v2c-2 0-2 1.2-4.8-1.2 0 0.8-1.2 0.8-0.8 1.2-0.8 1.2-3.6 2-6.4 2 0-0.8 0-0.8-0.8-1.2v0.8c-1.6 0 0.4 0.4-6.4 1.6 0.8 2-4 0.4-2.8 3.6 0.8-0.4 0-0.8 2.4-1.2 8.4-2.8 24.4-5.6 40-5.2 1.2-1.2 0 0 4-0.8 2.8 0.8 1.2 0.8 7.2 0.8h-0.8v-1.2h1.2v0.8c8-0.8 19.6 1.6 31.6 3.6v-0.8c1.2 0 2.4 0.8 3.6 0.8l-0.8 1.2-1.2-0.8c1.6 0.8 0 0.8 8.4 1.2 7.6 2 6.4 1.6 20.8 5.2-1.2-1.6 3.6-0.8 0.4 0.8 2.4 0 12 3.2 29.6 10.4 4.4 4 20.8 8 26 14.8 8.4 4.4 22.8 13.2 28.8 23.6h1.2c0 0.8 1.2 0.8 1.2 1.2 3.6-0.4 2.4 2 6.4 8.4h1.6c9.6 12.4 20 24.4 30.4 39.6 0.8 0 0.8 0 0.8 0.8 1.2 1.2-0.4 1.2 4 6 2.8 2 3.2 4 9.2 14.8 0.8 0 2-0.4 1.2 1.6 2.4 2.4 6 8 9.2 14.8 2.4-1.6 0 9.2 12.4 14.8 4.4-0.8 8.8-6.4 17.2-8.8 0.8-1.2 1.2-1.2 1.6-0.8l1.2-1.6c1.2-1.2 4-0.4 10-7.6 0-0.8 8.8-4.8 11.2-10 0.8 0.4 0-2.4 1.6-1.2 0.4-1.2 1.2-2.4 5.6-4.4-2-1.2 3.2-7.2 6.4-12.4 1.2 0 0.8-1.2 0.8-1.2 1.6-0.4 1.6-2 3.6-6 0-0.8 0-2 0.8-2-0.8-4 2.4-2.4 6.4-28.4 0-7.2 2-22.8-1.2-30v-7.6h0.4c-0.4 0-1.6-0.4-0.8-4-0.8-0.8-0.8-1.2-0.8-1.6-1.2-0.8-1.2-4.4-2.4-7.2V360c-0.8 0-0.8-0.8-1.2-0.8 0.4-5.2-4-6.4-6.4-17.6 0 0.8 0 0 0.8 0-0.8-0.4-2.8-1.2-1.6-3.6-1.2 0.4-2.8-0.4-2.4-2.4-1.2 0-1.2-2-1.6-1.2 0.4 0-0.8-1.2 0.8-2.4-1.2 0-0.8-1.2-0.8-2h-1.2c-3.6-3.6 0-4-5.6-10 0.8-0.8-4-3.2-3.6-5.6-5.2-6-10-10.8-18-20.4-1.6-0.4-2.4-4.8-6.4-5.2 0-1.2-1.2-1.2-0.8-2.4-5.6-6-13.6-14-25.2-19.6 0.8-1.2-0.8-1.6-1.2-1.6 0-1.2-0.8-0.8-5.6-2.8 0-2 0.8 1.2-11.2-8.8v0.8h-1.2v-1.2h1.2c-3.6 0.4-5.6-3.6-11.2-5.2v1.2c-0.8-0.4-1.6 0.4-1.6-2h1.2c-22-10.8-50.4-16.8-79.6-20-13.2-0.8-33.2-0.8-50.4 0-2.8 0.8-6 1.2-14.8 1.6-1.6 2-3.2-0.4-10.4 2.4h0.8v1.2h-3.2v-1.2c-0.8 0.4-0.4-0.8-4 1.6-51.2 8-102.4 43.2-138 85.2 0 0.8-0.8 1.2-0.8 1.6-0.8 0-0.8 0.8-1.2 0.8-15.6 22-39.6 61.2-49.6 87.2-6.8 12.8-10 20-16.8 43.2-0.4 4.4-2 10.8-1.6 16h0.8c0 0.8 0 2-0.8 2 2.4 1.6-0.4-1.2 4.8-6 4-19.2 14.8-45.2 27.2-66.4 2.8-13.2 19.6-21.2 2 2.8 0 5.6-4 12.4-8.8 22-1.2 1.2-1.2 6-7.6 16-0.4 0.8 1.2 0.4 0 4h0.8v1.2h-1.2v-0.8c-2.8 7.6-2.4 10.8-6.8 22.4l1.2 0.8c0 0.4-0.8 0-0.8 1.6l-1.2-0.8c1.2 4-1.6 5.6-2.4 13.2h1.2v2H316v5.6c-0.4 5.6-1.2 9.2-0.8 22.4v-1.2c-0.4 0.4 1.6-0.8 1.2 1.6h-1.2 0.8c0 1.2 0.8 2-0.8 2.4 1.2-0.8-0.4 17.6 3.6 7.6h0.8c0-0.8-0.8 0-0.8 0-0.8-0.8 0-1.6-0.8-2.8 2.8-2.4-0.8-2.8 1.2-12 3.2 1.2 4.4 15.6 6.4 22.4 2.4 1.6 0 10.4 6.8 25.6 0.4-3.6-2.4-8.4-1.6-14.8 8 0.8 1.6 17.6 21.6 51.2-1.2 1.6 3.6 1.6 1.6 4 0.8 0.4 1.2 1.2 3.6 4v1.2s-0.8 0-0.8 0.8h1.6c0 0.8 0.8 0 1.2 0.8 0-1.2-1.6-1.2-4.4-10.4v0.8h-1.2c0-0.4-0.4-0.8 1.2-1.2 0.4-0.8-1.2 0 0-2.4h-0.8c0.4-0.4-0.8-0.4-0.8-2.8 0-1.6-1.2-4.8-1.2-8.4h-1.6c-0.8-1.6 1.2-2.4-1.6-8.8 0-0.8 1.2-1.2 0.8-2v0.8c-1.2 0-1.6-2.4 1.6-1.6-2.4-4.4-5.2-12.4-4.4-21.6-2 0.4-3.2-1.6 0-4.8-2.4-4.8-4-10.4-2.8-18.8 4.4-7.6 6.8 8.4 7.2 24.4h0.4c-0.8 0.4 1.2 0.4 0 2.8 0.4 0.8-0.8 0.8 1.2 2.4-0.8 0.4 1.2 0.4 0 3.6 0.8 1.2 0 2.4 0.8 3.6 0.8-0.8 0.8 0.8 1.2 0.8 1.2 1.6-2.4 2.8 1.6 6.4-0.8 1.2 0.8 2.4 0 3.6 0.8 0 0.8 0.8 0.8 1.2 0.8-2.4 0.8 3.2 5.2 7.6z" fill="#DB215D"></path></svg>