<svg viewBox="0 0 1024 1024" version="1.1" xmlns="http://www.w3.org/2000/svg"><path d="M224 0h576c123.6 0 224 100.4 224 224v576c0 123.6-100.4 224-224 224H224c-123.6 0-224-100.4-224-224V224C0 100.4 100.4 0 224 0z" fill="#FFFFFF"></path><path d="M177.2 512c0-184.8 150.8-334.8 337.2-334.8 186 0 337.2 150 337.2 334.8s-150.8 334.8-337.2 334.8c-186 0-337.2-150-337.2-334.8" fill="#D51B19"></path><path d="M505.2 719.2v29.6c0 6 5.2 11.2 11.2 11.2h52.4v-124.8h-52.4c-6.4 0-11.2 5.2-11.2 11.2v27.6h30.8c6.4 0 11.2 5.2 11.2 11.2v22.4c0 6-5.2 11.2-11.2 11.2h-30.8z m-10 0v29.6c0 6-5.2 11.2-11.2 11.2h-52.4v-124.8H484c6.4 0 11.2 5.2 11.2 11.2v27.6h-30.8c-6.4 0-11.2 5.2-11.2 11.2v22.4c0 6 5.2 11.2 11.2 11.2h30.8z" fill="#009944"></path><path d="M817.6 483.6c0 181.6-146.8 328.4-327.6 328.4-93.6 0-178-39.2-237.6-102.4 60 74.8 152 122.8 255.6 122.8 181.2 0 327.6-147.2 327.6-328.4 0-87.6-34.4-167.2-90-226.4 44.8 56.4 72 128 72 206" fill="#F54B49"></path><path d="M675.2 436.8h-55.6c0.4 22 10 34 27.6 34 5.6 0 12.4-0.8 22.4-9.2-0.8 1.2-1.2 2.8-1.2 4.4 0 1.2 0.4 2.8 0.8 3.6-2.8 2.4-10 7.6-26 7.6-22 0-37.6-16.8-37.6-40 0-22.8 15.2-38.8 37.2-38.8 16.4 0 32.4 7.6 32.4 38.4z m-12.4-5.6c0-17.6-8.4-28.4-20-28.4-12.4 0-22.4 11.2-22.4 28.4h42.4z m-21.6 49.6c5.2-0.4 9.2 2.8 9.6 6.4 0.4 3.6-3.2 7.2-8.4 7.6-5.2 0.4-9.2-2.8-9.6-6.4-0.4-3.6 3.2-7.2 8.4-7.6z m-198.4-86h-12c-9.2-31.2-15.2-54.4-36.4-115.2h18l29.6 99.2 30-99.2h10.8l32.8 97.6 28.4-97.6h11.6c-14.8 36.4-38.4 115.2-38.4 115.2h-12l-31.6-94.4-30.8 94.4z m134.8-70c-12.4 0-22.4 11.6-22.4 28.4h42.4c-0.4-17.6-8.4-28.4-20-28.4z m-36.8 34.4c0-22.8 15.2-38.8 37.2-38.8 16.4 0 32.4 7.6 32.4 38.4h-55.6c0.4 22 10 34 27.6 34 6 0 13.2-1.2 24.4-10.8-0.4 1.6-0.4 2.8-0.4 8-2.4 2-10 9.2-27.6 9.2-22.4 0-38-16.8-38-40z m2.8 78.4l-17.2 3.6c-10.8 2.4-16 7.6-15.6 16.4 0 8.8 5.6 15.2 14 15.2 5.2 0 11.6-2.8 16.4-7.2 2-1.6 2.8-4 2.8-7.6l-0.4-20.4z m-46 21.2c0-12.4 8.4-18 24.4-21.6 16-3.2 18.4-3.6 22.4-6.4 0-16.8-2.4-24.4-18.4-24.4-8 0-14.8 3.6-20 11.2h-2v-8.4c8-6 16.4-8.8 26.8-8.8 20.8 0 24.8 12.4 24.8 25.2 0 44.4-0.4 48 7.6 48h2l0.4 3.2c-5.2 1.6-9.2 0.8-12 0.8-5.6 0-8.4-2.8-10-9.6-3.6 3.2-10 10.8-24 10.8s-22-7.6-22-20z m102.4-46c-8 0-16.8 2.8-16.8 38 0 7.2 0.4 15.2 1.2 26.8-6.4-0.8-12.4-0.4-12.8-0.4 0.8-18 2.4-43.6 0-76.8 2.4 0.4 4.8 0.8 7.2 0.8 2 0 4 0 6-0.4 0 3.6-0.4 9.6-0.8 18.8 7.2-14.4 12.4-18.4 21.6-18.4 1.6 0 3.2 0 4.8 0.4-0.4 5.2-0.8 7.2-0.8 12.4l-1.2 0.8c-4-1.6-6-2-8.4-2z m-235.6 166.8l0.4-0.4-0.4-1.2c-5.2-56.4-74.4-122.4-121.6-92.8-22.4 14-36.4 58-14.4 82.8 40 43.6 111.6 31.2 136 11.6z m66.4-97.6c-3.2 8.8-7.6 23.6-15.2 40.8-7.6 17.2-18.8 36-34.8 52.4-44.8 46-125.2 42-159.6 8.8-16.4-15.6-33.6-57.2 11.6-95.6 58.4-49.6 133.6 12 136 84.8v3.6l2.4-2.8c12.8-15.2 22.8-35.6 29.6-54 6.8-18 11.2-33.6 13.2-38.8l0.8-1.6h-2c-5.6-0.4-24 0-41.2 0-8.8 0-17.2 0.4-23.6 0.4h-11.2c0.8-2 5.6-8 6.8-10 6.8 0 66.8-0.8 73.6-1.6h0.8l0.4-0.8c2.4-4.8 5.6-16.8 12.4-29.6 6.8-12.8 16.8-26.8 32.8-36.4 3.6-2 10.4-5.6 17.2-8 3.2-1.2 6.4-2 9.2-2.4 2.8-0.4 4 0 4.4 0.8 0.4 0.4 0.4 0.8 0 2.4-0.4 1.6-1.2 3.2-2.4 5.6-2 4-4.4 8.8-6.4 13.2-0.4-0.4-0.4-0.8-0.8-1.6-0.4-1.2-1.2-2.8-2.4-4-2.8-2.8-7.6-4-15.6-0.8-11.6 4.8-19.2 19.6-24 32.8-4.8 13.2-7.2 27.2-7.2 27.2s17.2 0 26-0.4c0.8 0 1.6 0 2.4-0.4 0.8 0 1.2-0.4 1.6-0.4 0.8-0.4 1.2-0.4 2 0 0.4 0 0.8 0.4 0.8 2.4 0 1.6-0.4 4-0.8 6.8-1.2 5.2-2.8 12.4-4 20-0.4 0-0.8-0.4-0.8-0.8-3.6-7.6-8.4-10.8-13.6-12.4-2.8-0.8-5.6-1.2-8.4-1.2-2.8 0-5.6 0-8-0.4h-1.2l-0.8 2z m28.8 101.2c0.4 0.4 1.6 0 1.6 0 2.4-0.8 6-2 8.8-2.8-2.8 2-7.2 5.2-12 8.4-7.6 5.6-12 8.8-14.8 11.2h-1.6c-0.4 0-0.8-0.4-1.2-0.4 0-2.8 4-21.6 8.4-29.2l-2-1.6c-2 2-4.8 5.2-8.4 8.8-3.6 3.6-7.6 7.2-12 10.4-8.8 6.8-18.8 11.2-26.8 8.4-10-3.6-1.6-44.8 47.6-71.2 12.8-6.8 29.2-13.6 49.2-12.4 0.4 3.2-0.4 8-0.4 8l-0.4 1.6-1.2 1.2s-1.2 1.2-2.4 2c-4.8-5.6-31.2-3.2-43.6 3.2-19.2 10.4-47.6 42.8-32.8 54 10.8 8.4 42.4-28.8 45.6-52l4.8-1.2c0.4 4.4-1.6 10.8-4.4 16.4-2.8 6.4-6 11.6-6.4 12l2 2c1.2-0.8 0.8 0 4.4-1.6 1.6-0.8 3.2-1.6 4.8-2 0.8 0 1.2-0.4 1.6-0.4 0 0.8-0.4 2-0.4 3.2-0.4 3.2-1.2 5.2-2.4 8.4-1.6 5.2-2.8 7.6-4.8 12.8-1.2 1.6-1.2 2.4-0.8 2.8z m122.8-0.8l2.4-0.8c3.2-1.2 7.2-1.6 8.4-1.6-1.2 1.2-3.6 2.4-6 4-4.8 3.2-11.2 7.2-16.4 11.6-2.4 2-6 3.6-7.6 3.2-0.4-0.4-0.8-0.8-0.8-1.6 0-1.6 0.4-4 1.6-7.2 2-6.4 5.6-14.8 9.6-23.6s7.6-17.6 10.4-24.8c1.2-3.6 2.4-6.8 2.8-9.6 0.4-2.4 0.8-4.8-0.4-6.4-0.8-1.2-2.4-1.2-3.2-0.8-1.2 0.4-2.4 0.8-3.6 1.6-2.4 1.6-5.6 3.6-8.8 6-6 4.8-12 10-12 10s-4 9.6-8 20c-3.6 9.6-7.6 20-8.8 24.4-6.4 3.2-11.2 6-14.8 8-2 1.2-3.2 2-4.8 2.4-1.2 0.8-2.4 1.2-3.2 1.6-0.8 0.4-1.6 0.4-2 0.4 2.4-4.4 9.2-18 15.6-32 4-8.4 7.6-17.2 10.4-23.6 1.2-3.2 2.4-6.4 2.8-8.4 0.4-1.2 0.4-2 0.4-2.8 0-0.8 0-1.6-0.8-2.4-4-2.8-19.2 6.4-26.4 14.4-5.6 9.6-14.8 26.4-20 44-0.8 2.4-17.6 11.2-20.8 10-1.6-0.4-1.6-2-0.4-3.2 13.6-12 28.4-53.6 32-67.6 0.4-0.8-0.4-1.6-0.8-2-0.4-0.4-0.8-0.8-1.6-0.8-1.2-0.4-2.4-0.8-4-0.8-2.4-0.4-5.2 0-7.2 1.2-0.4-0.8-1.6-2.4-1.6-2.8 0.8 0 6.4-0.8 11.6-2.4 5.6-1.6 12.4-4.8 17.6-10 0.4-0.4 1.6-1.2 2.4-1.6 0.8-0.4 1.6-0.4 1.6-0.4 0 0.8 0 1.6-0.4 2.8-0.4 2-0.8 4.8-1.6 8-1.2 6-3.2 12-4.4 13.6l2 1.6c7.2-7.6 32.4-22 36.4-19.6 2.4 1.2 3.2 4.4 2.8 8 0 2-0.4 3.6-0.8 5.2s-0.8 3.2-1.2 4l-1.2 4 3.2-2.8c6.4-5.2 14.8-10.8 22-14.4 3.6-2 6.8-3.2 9.6-4 2.8-0.8 4.4-0.4 4.8 0 3.2 2.8 0.4 15.2-4.4 30-4.8 14.4-11.2 29.2-13.2 35.6l0.8 2.4z m90-85.2c4-9.6 6.8-16.8 7.6-18.4 1.2-2 0-3.6-1.6-4.4-1.6-0.8-3.2-0.8-5.2-1.2h-6.8v-0.8c2-0.4 6.4-1.2 11.2-2.4 6.4-1.6 13.6-4 18-7.6h8c-3.2 6.8-14 31.2-24.4 54.8-12 27.6-24.4 57.2-22.4 60.8l0.4 1.2c0 0.4 0.4 0.8 0.8 1.2 0.8 0.8 1.6 1.2 2.8 0.8 2.4 0 4.4-1.6 6-3.2 0.8-0.8 1.6-1.6 2.4-2 0.8-0.4 1.2-0.8 1.6-1.2h0.8c-0.4 0.8-0.8 1.2-1.2 1.6-2 3.2-21.6 19.2-29.2 20-4 0.4-5.2-0.4-5.6-1.2-0.4-0.4-0.4-0.8-0.8-1.6s-0.4-1.6-0.4-2c0-0.4 10.8-28 22.8-56.8l15.2-37.6z m48.8 94.8l1.6-3.6-3.6 1.6c-5.6 2.8-13.6 5.2-22.8 7.6-9.2 2.4-19.6 5.2-30 8.4-20.4 6.4-40.8 14.8-50.4 28.8-12.4 18.4-6 41.2 21.6 36.4 25.6-3.6 68.4-46 83.6-79.2z m74.4-165.6c14.8 5.6 39.2 32.8 39.6 54.4 0.4 46.8-43.6 86.8-103.2 104.8h-0.8l-0.4 0.8c-29.6 71.2-86.8 110.8-119.2 103.2-24-5.6-20.8-42-1.6-60.8 13.6-13.2 30.4-20 50-26s42-11.6 65.6-22.4l0.4-0.4v-0.4c1.2-2.8 6-14.8 9.6-26.8 2-6 3.6-12 4-16.4 0.4-2.4 0.4-4.4 0-6.4-0.4-1.6-0.8-3.2-2.4-4-8-4.4-42 37.2-58.4 64.8-0.4-0.8-0.8-1.2-0.8-1.6 7.2-16 18-56.4 10.4-63.6-0.8-0.8-2-0.8-2.4-0.8-0.8 0-1.6 0.4-2.4 1.2-1.2 0.8-2 1.6-2.8 2l-1.2-0.8c5.2-4 20.8-16 24.8-13.2 0.8 0.8 1.6 2.4 1.6 5.2 0 2.8-0.4 6.4-0.8 10-1.2 7.2-3.2 14.8-4 17.2l2.4 1.2c11.6-20 38.4-40.4 43.6-40.4 2.4 0 6.8 5.6 7.6 8 1.6 6-2.4 18.8-7.6 31.2-5.2 12.4-10.8 24-12 27.2l-1.2 2.8 2.8-0.8c29.6-8.4 93.6-46.4 93.2-94 0.8-25.6-19.6-46.4-34.4-55.2z m-187.2 101.2c-0.8 0-2.4-0.8-2-2 1.6-0.8 6-2.4 10-3.6l6.4-2c2-0.8 3.6-1.2 4-1.6 1.6-0.8 4.4-2.4 7.6-4 3.2-1.6 6.4-2 8.4-1.2 0 0 0 0.4 0.4 0.4v2.4c-0.4 2-1.2 4.8-2.4 8-2.4 6.8-6.4 15.2-10.4 24s-8 17.6-10.4 24.4c-1.2 3.6-2 6.4-2.4 8.8 0 1.2-0.4 2.4 0 3.2 0 0.8 0.8 2 1.6 2.4 4 2 7.6 0.4 10.4-1.2 0.8-0.4 1.2-0.8 1.6-0.8 0.4-0.4 1.2-0.4 1.6-0.8h1.2c-0.8 0.8-1.6 1.2-3.2 2-2.8 1.6-7.2 3.6-11.6 5.2-9.6 3.6-18.8 5.6-20.8 4.8-5.6-2.4 25.6-68 26-69.6l1.2-2.4-17.2 3.6z" fill="#FEFEFE"></path></svg>