<svg viewBox="0 0 1024 1024" version="1.1" xmlns="http://www.w3.org/2000/svg"><path d="M224 0h576c123.6 0 224 100.4 224 224v576c0 123.6-100.4 224-224 224H224c-123.6 0-224-100.4-224-224V224C0 100.4 100.4 0 224 0z" fill="#FFFFFF"></path><path d="M512 165.6V164c0.8 0.4 1.2 0.4 2 0.8 0.8-0.4 1.2-0.4 2-0.8v1.6c61.6 22.8 122.8 41.6 184.4 57.6 13.2 53.6 43.6 78 88.4 78.4 25.6 344-106.8 473.6-272.8 557.6v0.8h-4v-0.8c-166-84-298.4-213.6-272.8-557.6 44.8-0.4 75.2-25.2 88.4-78.4 61.6-16 122.8-34.8 184.4-57.6z m2 37.2c-55.2 20.8-110.4 38-165.6 52.4-11.6 48-38.8 70-78.8 70.4-22.8 310 96 426.4 244.4 502 148.8-75.6 267.6-192 244.4-502-40-0.4-67.2-22.4-78.8-70.4-55.2-14.8-110.4-32-165.6-52.4z m14 184.8V228c48 20.8 96.4 36.4 144.8 50 10.4 48.8 37.2 66.4 73.2 65.2 2 29.6 2.4 58 1.6 85.2-73.2-26-146.4-39.6-219.6-40.8z m0 412.4v-286c68 1.2 135.6 15.6 202 42.8-29.6 111.6-95.6 194-202 243.2zM362.8 273.6c48.4-12.8 96.8-27.6 145.2-45.6v156.8c-73.2 1.2-146.4 14.8-219.6 40.8-0.8-27.2 0-56 2.4-87.2 36.4-0.4 61.2-20.8 72-64.8z m-58.4 279.2c68.8-26.8 136.4-40.8 203.6-42.4V796c-92-48-170.4-114.4-203.6-243.2z m145.2-148.4c2.8-0.4 5.2-0.4 8-0.4 17.2 0 27.2 7.2 29.6 21.6 0.8 10-4.4 17.6-14.8 22.4v0.4c14.4 2 22.4 9.6 24 22.8 0.4 15.6-11.6 25.2-36.4 28.8l-36.4 4-10-96 36-3.6z m-14 17.6l2.4 22.4 16-1.6c9.2-0.8 13.2-5.2 12.4-12.4-0.8-7.6-5.6-10.8-14.8-10l-16 1.6z m4 38.4l2.8 25.2 16-1.6c11.6-0.4 16.8-5.2 15.2-14-0.8-9.2-6.8-13.2-18-11.2l-16 1.6zM304 475.2c1.2-32.8 14.4-49.6 40.4-50.4 26 0.4 39.6 11.6 40.8 33.2h-22c-0.8-11.6-6.8-18-18.8-18.4-11.6 0.8-17.6 12.4-18.4 35.6 0.8 22.4 6.8 34.8 18.4 34.8 12.4 0 22-16.4 22-28h22c-1.2 21.2-18 42.4-44 42.4-26.4-0.4-39.6-17.6-40.4-49.2z m224 21.2l3.6-96.4 41.2 1.6c22 1.2 32.8 10 32.4 26.4-0.8 12.4-7.6 20-20.8 22.8v0.4c10.8 0.8 16.4 8 16.4 22 0.4 1.6 0.4 2.4 0.4 3.2 0.8 11.6 2 19.2 4.4 23.2l-22.4-0.8c-1.6-8.4-2.8-17.2-2.8-26.4-0.4-8.4-3.2-12.8-8.4-12.8l-22-0.8-1.6 38.8-20.4-1.2z m40.4-53.2h1.2c9.2 0 13.6-4.4 14-13.2 0.4-8.4-4.4-12.4-14-12.4l-17.2-0.8-0.8 25.6 16.8 0.8z m68.4 24.8c6-29.2 19.6-43.6 41.2-43.6 2 0 4.4 0 6.8 0.4 25.6 4.8 36.8 18 34.8 39.6l-21.6-3.6c1.2-11.6-4-18.8-15.6-21.2-11.6-1.2-19.6 9.6-24 32-3.2 22.4 1.2 34.8 12.4 37.6 12 1.6 19.2-3.2 21.6-14.8l21.6 3.6c-4.4 20.8-19.6 29.2-45.6 25.2-25.6-5.2-36.4-23.6-31.6-55.2z" fill="#C44416"></path></svg>