<svg viewBox="0 0 1024 1024" version="1.1" xmlns="http://www.w3.org/2000/svg"><path d="M213.474 456.2h23.1v-4.6h10.2v4.6h23.1v41.5c0.3 5.2-1.9 7.6-6.6 7.2h-16.8v4.6h-9.4v-4.4h-23.6v-48.9z m8.9 40.3h13.9v-31.9h-13.9v31.9z m23.7 0H258.974c0.7 0.2 1-0.3 1-1.5v-30.4h-13.9v31.9z m35.2-45.8h56.4v52.9c0 3.4-1.8 5.1-5.4 5.1h-51v-58z m9 8.2v43.3h36.5c1.5 0.2 2.1-0.5 1.8-2.1v-41.2h-38.3z m2.4 10.7v-7.4h33.5v7.4h-13.6v5.9H325.974v7.2h-13.3v8.7h4.6c0.9 0.2 1.2-0.3 1-1.3V486h7.7v7.7c0.3 3.6-1.3 5.3-4.9 5.1h-28.4v-7.5H303.974v-8.7h-11.3v-7.2H303.974v-5.9h-11.3z m82.6-17.2h30.2v26.2c0.2 3.1-1.5 4.6-5 4.6h-16.6v19c0 1 0.4 1.5 1.3 1.5h3.3v5.9h-8.3c-3.2 0-4.8-1.3-4.8-3.9v-53.3z m8.1 11.4h13.1v-4.9h-13.1v4.9z m0 12.2h11.8c1 0.2 1.4-0.4 1.3-1.6v-4.1h-13v5.7z m8.5 28.8l-3.6-19.8h7.6l0.8 4.3h2c1 0 1.4-0.4 1.3-1.3v-2.8h6.3v4c0 3.4-1.5 5.1-4.6 5.3h-4.1l1.5 7.3c0.2 1.2 1.1 1.8 2.8 1.8h3.8v5.8h-9.1c-2.4 0.3-4-1.3-4.7-4.6z m-43.6-37.7V460h1.3c1.2 0 1.9-0.5 2-1.6l2-6.8h8.8l-1 3.4H371.974v7.9h-12.6c-0.8 3-2.4 4.4-4.5 4.2h-6.6z m1.1 8.8v-7.2h23.5v7.2h-9.4v7h9.2v7.2h-9.2v10.4c-0.2 1.7 0.7 2.5 2.5 2.3h4.8v6.7h-11.7c-2.7 0-4.1-2.1-4.1-6.2v-13.1h-5.9V483h5.9v-7h-5.6z m67.6-18h4.9c1.5 0 2.7-0.9 3.3-2.6l1.8-4.6h11.3l-5.1 11.1c-1.2 2.4-3.9 3.6-8.2 3.6h-8v-7.5z m22 1.8v-7.4h36v7.4h-36z m-0.8 6.5H474.974v7.8h-3.3v28.4c0 4.8-3 7.2-8.9 7.2h-17.9v-8.3H459.974c1.2 0.2 1.8-0.7 1.8-2.6V474h-23.5v-7.8z m-1.6 0l-4.8 11.1v32.2H421.974v-28h-4.3v-8.8h3c0.8 0 1.4-0.3 1.8-1-0.2 0-0.2-0.1 0-0.3l2.8-5.2h11.3z m67.7-14.7h8.9v50.1h5.1v-50.1h8.9v50.1h17.3v7.9h-56.4v-7.9h16.3v-50.1z m30.2 32.7l2-30.2h7.9l-2.2 33.1c-0.3 4.8-2.2 7.2-5.7 7h-6v-7.7h2.2c0.9-0.1 1.5-0.8 1.8-2.2z m-44.7 2.3l-1.7-32.5h8.2l1.5 29.7c0 1.9 0.5 2.8 1.5 2.6h1.8v7.7h-6.4c-3.1 0.2-4.7-2.3-4.9-7.5z m65.3-8.8v-27h9v27h-9z m25.3-13.9v-7.3h6.6c1 0.2 1.7-0.3 2-1.5l1.5-4.3h9.1l-1 3h13.7v7.3h-15.4l-0.5 1.3c-0.3 1.2-1.3 1.7-3 1.5h-13z m-10.6 13.9v-27h9v27h-9z m14.5-3.7l-3.1-8.6h9.8l1.3 3.4c0.4 0.7 1 1 2.1 1h18.8v7.8H589.974c-1.9 0-3.2-0.2-3.9-0.5-0.7-0.5-1.3-1.5-1.8-3.1z m26.5 6.1v21h1.5v7.6h-58v-7.6h1.3v-21h55.2z m-45.9 21.3h7.4v-13.1h-7.4v13.1z m14.7 0h7.4v-13.1h-7.4v13.1z m15.5 0h7.4v-13.1h-7.4v13.1z m28.6-39.8h7v-10.9h8.3v2.3h14.1v6H638.974v2.6h14.1v6h-10.6v6c0.2 2.9-1.5 4.3-5 4.1h-4.8v-6h0.5c0.7 0 1-0.4 1-1.3v-2.9h-10.6v-5.9z m31.9-3.9v-6.2h25.1v5.7l-7.8 10.1 2.8 3.4c0.5 0.3 1.6 0.5 3.3 0.5h2v6.5h-6.3c-2 0.2-3.3-0.1-3.8-0.8l-3.3-3.6-2.5 2.6c-1 0.9-2.8 1.3-5.5 1.3h-4v-5.7h2c1.3 0.2 2.4-0.3 3.3-1.3l2.3-2.3-6.3-7.5h9.5l1.3 1.6 3-4.1h-15.1z m-9.6 16.9l-1.8-5.1h6.2l0.8 2.3c0.2 0.3 0.5 0.5 1 0.5h1.8v5.3h-3.9c-2.1 0.2-3.5-0.8-4.1-3z m-21.5 35v-30.3h55.6v25.1c-0.2 3.3-2.3 5-6.4 5.2h-49.2z m9-22.1h37.6V485h-37.6v2.5z m0 8.2h37.6v-2.5h-37.6v2.5z m0 5.7v2.5h36.6c0.7 0 1-0.2 1-0.7v-1.7h-37.6z m-6.8-23.8h-3v-5.4h1c0.5 0.2 0.8-0.1 1-0.7l1-2h6l-1.7 5.2c-0.7 2.3-2.1 3.3-4.3 2.9z m65.7-12.4V459h1.3c0.8 0 1.3-0.5 1.5-1.5l1.3-6.7h24.8v6.2h-5.8l0.3 1c0.5 0.8 1.3 1.2 2.3 1.2h2.8c1.4-0.2 2.3-1 2.8-2.5l0.8-5.7h25.8v6h-4.1l0.5 1c0.3 0.8 0.8 1.2 1.5 1.2h2.3v6.2h-7.9c-2.7-0.2-4.5-1.2-5.3-3.2l-2-5.2h-2l-1 4c-0.7 2.7-2.6 4-5.8 4h-13.2c-3.2 0-5.4-1.9-6.6-5.7l-0.8-2.2h-1l-1.3 4.7c-0.8 2.3-3 3.5-6.3 3.5h-4.9z m2.4 13.3h53.1v8.7c-0.2 3.9-2 6-5.6 6.2h-37.7v2.3h43.3v8c-0.3 4.3-2.3 6.5-5.8 6.7h-47.3v-31.9z m44.1 7.1v-1.4h-34.3v3.3h33.3c0.7-0.2 1-0.8 1-1.9z m-0.8 16.9v-1.1h-33.5v2.5h32.5c0.7-0.1 1-0.5 1-1.4z m-11.4-35.4v1.5h23.7l-0.8 8.3h-9.2l0.3-2.5h-38.4v2.3h-9.9v-8h23.2v-1.5h11.1z m80.1-2.5h4.9v-5.7h-4.9v5.7z m-15.6 0h5.7v-5.7h-5.7v5.7z m0 13.9h5.7v-5.7h-5.7v5.7z m20.5-0.7v-5h-4.9v5.7h4.1c0.5 0 0.8-0.2 0.8-0.7z m-28.5-26.3h35.3V480c0.2 4.1-1.8 6-5.8 5.9h-6.6v4.8H818.974v7.1h-12.9v5.2H818.974v6.6h-37.6V503h14.9v-5.1h-13.9v-7.1h13.9v-5.1h-13.1v-34.2z m-16.1 6.7h-6.4v-7.4h19.9v7.4H774.974v18h5.6v7.4H774.974v17.7h5.6v6.7h-20.4v-7h6.9v-17.7h-6.6v-7.2h6.6v-17.9z m111.2-6.7v-0.8h9.1v3.8c0 2.7-0.3 4.3-1 4.8-0.7 0.7-2.4 1-5.3 1h-17.5v2.5h24v7.4h-24v9.9h-9.4v-9.9h-23.5v-7.4h23.5v-2.5h-23.8v-7.6h46.1c1.4 0.2 2-0.2 1.8-1.2z m-13.5 19.7H874.974l1 0.7c0.7 0.5 1.3 0.7 1.8 0.7h9.9v6.7h-12.2c-2 0.2-3.4-0.2-4.1-1.2l-6.6-6.9z m-22 1l1-1h10.3l-5.7 6.9c-1 1.5-2.7 2.2-4.9 2h-13.1v-6.9h10.1c0.9 0 1.7-0.3 2.3-1z m41.3 7.9v2.3h3.5v6.9h-3.5v6.7l-11.9 4.1 4.8 1.3c1.2 0.3 2.8 0.5 4.8 0.5h5.8v6.9h-17c-1.2 0-2.5-0.4-3.8-1.3l-7.3-2.8-9.4 3.3h-0.1c-1.2 0.5-2.4 0.8-3.8 0.8h-15.4v-7.1h7.3c2 0 3.6-0.2 4.8-0.5l4-1-12.7-4.6v-6.1h-3.8v-6.9h3.8v-2h10.1v2h29.9v-2.3h9.9z m-38.9 9.8v1.5l14.1 5 14.5-5v-1.5h-28.6z m54.7-38.4h55.6V466c0.2 3-1.4 4.5-4.6 4.3h-51v-18.8z m46.6 11.5v-4.9h-37.6v5.7h36.8c0.4-0.2 0.7-0.5 0.8-0.8z m-46.6 9.8h55.6v22.9h-8.4v-16h-38.7v16H899.974v-22.9z m13 29l10.9-7v-12.2h8.9v11.7l11.7 7.3c0.8 0.3 1.6 0.5 2.3 0.5h9.6v7.3h-12.4c-1.7 0-3.1-0.4-4.3-1.3l-10.7-6.7-11.2 7.3c-0.7 0.7-2.4 1-5.1 1h-12.7v-7.3h10.7c0.9-0.1 1.6-0.3 2.3-0.6z m54.9-38.9h6.4c1 0.2 2-0.4 2.8-1.8l5.3-9.5h29.2l5.1 9.5c0.7 0.9 1.4 1.3 2.3 1.3h6.1v7.7h-10.2c-2.5 0.3-4.3-0.7-5.3-3.1l-4.3-8h-15.8l-5.1 8c-1.2 2.4-3.4 3.5-6.6 3.3h-9.9v-7.4z m0 18.9v-8.2h57.2v8.2h-57.2z m0.2 21.6l8.1-9.7h-8.4v-7.9h57.2v7.9h-37.4l-6.6 8.4h33.1c1.2 0.2 1.7-0.3 1.5-1.5v-3.8h9.2v6.9c0.3 4.2-1.4 6.2-5.3 5.9H967.974v-6.2z m-730.2 54.9h1.8c-0.4 2.6-1.2 5.1-2.4 7.3-0.6-0.1-1.5-0.2-2.4-0.2-0.5 0-1.5 0-2.7 0.2-1.7 0.2-3.2 0.3-4.4 0.3-9.3-0.6-14.3-4.9-15-12.8 0.9-8.1 6.1-12.6 15.8-13.3 2 0 4.3 0.4 6.6 1.3 0.6 0.2 1.1 0.3 1.3 0.3 0.3 0 0.6-0.1 0.8-0.3h1.1l0.3 7.1H236.974c-1.4-4.1-4.1-6.2-8.2-6.3-6.2 0.4-9.6 4-10 10.8 0.5 7.2 4 11 10.5 11.6 3.8-0.2 6.7-2.2 8.5-6z m13.8-5v8.4c-0.1 2.2 0.6 3.1 2.3 2.9h0.3v1.3h-10.5v-1.3h0.6c1.7 0.2 2.5-0.8 2.3-3.1v-18.2c0.1-1-0.3-1.6-1.3-1.8l-1.3-0.5v-1l6.6-1.9h1v13.5c3-2.1 5.5-3.1 7.4-3.1 3 0 4.5 2.4 4.5 7.3v5.5c-0.1 2.4 0.5 3.5 1.9 3.2h0.3v1.3H255.974v-1.3h0.3c1.6 0.2 2.3-0.8 2.1-3.1v-6.3c-0.1-2.3-1-3.5-2.7-3.6-1.1 0.2-2.5 0.7-4.1 1.8z m28.9 11.3v1.3h-10.6v-1.3h0.5c1.7 0.1 2.4-0.9 2.3-2.9v-8c0.1-1-0.4-1.6-1.5-1.8l-1.3-0.5v-1l7.3-2.4h0.7v14c-0.1 1.7 0.8 2.5 2.6 2.6z m-5.7-25.6c2 0.1 3.1 1 3.2 2.8-0.2 1.7-1.3 2.7-3.2 2.9-2-0.1-3.1-1.1-3.3-2.9 0.2-1.7 1.3-2.6 3.3-2.8z m29.6 16.7v6.5c-0.1 1.7 0.6 2.6 2.3 2.4v1.3H296.974v-1.3c1.6 0 2.4-1.6 2.3-4.7v-3.6c0-3.3-0.8-4.8-2.4-4.7-1.3 0-2.8 0.6-4.5 1.8v8.5c0 1.9 0.9 2.8 2.6 2.8h0.3v1.3h-10.5v-1.3h0.3c1.6 0.1 2.4-0.9 2.3-2.9v-8.2c0.1-0.9-0.5-1.5-1.9-2l-0.8-0.2v-1l7.1-2.4h0.6v3.8c3.1-2.2 5.7-3.3 7.7-3.3 2.9-0.1 4.4 2.2 4.3 7.2z m23.7 7.1l0.6 0.9c-1.4 1.4-2.9 2.1-4.6 2.2-1.7-0.1-2.6-0.8-2.9-2.2-1.5 1.6-3.2 2.3-5.1 2.2-3-0.1-4.5-1.4-4.6-4 0-1.4 0.4-2.5 1.3-3.3 0.6-0.6 1.8-1.2 3.5-1.7 2.1-0.6 3.7-1.4 4.8-2.2v-1.6c-0.1-1.7-1-2.6-2.5-2.7-1.6 0.1-2.3 1.2-2.1 3.2l-4.6 1.6c-0.4-1.7-0.1-3 1-4 1.5-1.4 3.7-2.2 6.7-2.4 4.2 0.4 6.5 2.1 6.7 4.9v7.6c0 1.4 0.3 2 0.8 1.9 0.3 0 0.6-0.1 1-0.4z m-6.8-0.1V557c-0.4 0.4-1.1 0.8-2.1 1.3-2 0.7-2.9 1.9-2.8 3.4 0.1 1.7 0.8 2.6 2.1 2.7 0.8-0.1 1.7-0.6 2.8-1.7z m27.8-1.7v-15.4c0-1.6-0.2-2.6-0.6-2.9-0.4-0.4-1.4-0.6-3-0.6h-1v-1.6c0.2 0 0.7 0 1.6-0.2 1.5-0.1 2.6-0.2 3.5-0.2 3.2-0.2 5.4-0.3 6.7-0.3 5.6-0.1 9.3 0.9 11.1 2.9 1.1 1.2 1.6 2.4 1.6 3.7 0 2.6-1.7 4.2-5.1 4.8v0.2c4.1 1 6.3 3.3 6.5 6.9-0.4 4.9-3.9 7.5-10.5 7.7h-15.7v-1.6c3.5 0.1 5.1-1.1 4.9-3.4z m4.9-8v7.7c-0.1 2.6 1.2 3.8 3.8 3.6 4 0 6-1.8 6-5.5-0.2-3.9-2.4-5.8-6.6-5.9-1.7 0-2.7 0-3.2 0.1z m0.8-11.4v8.8h3.1c3.2 0 4.9-1.4 5-4.2-0.1-3.2-2.1-4.8-6.1-4.8-0.6 0-1.3 0.1-2 0.2z m38.6 21.2l0.6 0.9c-1.4 1.4-2.9 2.1-4.6 2.2-1.7-0.1-2.6-0.8-2.9-2.2-1.5 1.6-3.2 2.3-5.1 2.2-3-0.1-4.5-1.4-4.6-4 0-1.4 0.4-2.5 1.3-3.3 0.6-0.6 1.8-1.2 3.5-1.7 2.1-0.6 3.7-1.4 4.8-2.2v-1.6c-0.1-1.7-1-2.6-2.5-2.7-1.6 0.1-2.3 1.2-2.1 3.2l-4.6 1.6c-0.4-1.7-0.1-3 1-4 1.5-1.4 3.7-2.2 6.7-2.4 4.2 0.4 6.5 2.1 6.7 4.9v7.6c0 1.4 0.3 2 0.8 1.9 0.3 0 0.7-0.1 1-0.4z m-7.5-0.1V557c-0.4 0.4-1.1 0.8-2.1 1.3-2 0.7-2.9 1.9-2.8 3.4 0.1 1.7 0.8 2.6 2.1 2.7 0.8-0.1 1.7-0.6 2.8-1.7z m32.1-7v6.5c-0.1 1.7 0.6 2.6 2.3 2.4v1.3h-9.7v-1.3c1.6 0 2.4-1.6 2.3-4.7v-3.6c0-3.3-0.8-4.8-2.4-4.7-1.3 0-2.8 0.6-4.5 1.8v8.5c0 1.9 0.9 2.8 2.6 2.8h0.3v1.3h-10.5v-1.3h0.3c1.6 0.1 2.4-0.9 2.3-2.9v-8.2c0.1-0.9-0.5-1.5-1.9-2l-0.8-0.2v-1l7.1-2.4h0.6v3.8c3.1-2.2 5.7-3.3 7.7-3.3 2.9-0.1 4.4 2.2 4.3 7.2z m18.2-1l5.9 7.6c1.4 1.6 2.4 2.4 3.2 2.3h0.3v1.3h-9.4v-1.3c0.5 0 0.8-0.1 0.9-0.3 0.1-0.3 0-0.7-0.3-1l-5.1-6.8v5.4c-0.1 1.9 0.7 2.9 2.4 2.8v1.3h-9.8v-1.3c1.7 0.2 2.5-0.8 2.4-2.9v-18.4c0.1-1-0.3-1.6-1.3-1.8l-1.1-0.5v-1l6.5-1.9h0.9v18l5.7-4.9c0.2-0.2 0.3-0.4 0.2-0.7-0.2-0.2-0.5-0.3-1-0.3h-1V549h8.4v1.3c-1.8-0.1-3.6 0.7-5.4 2.3l-2.4 2.1z m23.2 9.9v1.3h-10.6v-1.3h0.5c1.7 0.1 2.4-0.9 2.3-2.9v-8c0.1-1-0.4-1.6-1.5-1.8l-1.3-0.5v-1l7.3-2.4h0.7v14c0 1.7 0.9 2.5 2.6 2.6z m-5.6-25.6c2 0.1 3.1 1 3.2 2.8-0.2 1.7-1.3 2.7-3.2 2.9-2-0.1-3.1-1.1-3.3-2.9 0.2-1.7 1.3-2.6 3.3-2.8z m29.5 16.7v6.5c-0.1 1.7 0.6 2.6 2.3 2.4v1.3h-9.7v-1.3c1.6 0 2.4-1.6 2.3-4.7v-3.6c0-3.3-0.8-4.8-2.4-4.7-1.3 0-2.8 0.6-4.5 1.8v8.5c0 1.9 0.9 2.8 2.6 2.8h0.3v1.3h-10.5v-1.3h0.3c1.6 0.1 2.4-0.9 2.3-2.9v-8.2c0.1-0.9-0.5-1.5-1.9-2l-0.8-0.2v-1l7.1-2.4h0.6v3.8c3.1-2.2 5.7-3.3 7.7-3.3 3-0.1 4.4 2.2 4.3 7.2z m27.6-6.7v4.1l-4.1-1c0.6 0.7 0.9 1.7 0.8 2.7-0.3 3.6-3.2 5.5-8.6 5.6-2.3 0.8-3.5 1.5-3.4 1.9 0 1 1.7 1.4 5.1 1.4h3.5c3.9 0.1 6 1.5 6.2 4.3-0.5 4.3-4.4 6.5-11.5 6.9-5.2-0.2-8-1.5-8.5-4 0-1.1 0.7-2 2.2-2.7 1.1-0.4 1.7-0.9 1.9-1.3-2.2-0.6-3.4-1.8-3.5-3.5-0.3-1.4 1.5-2.5 5.4-3.3v-0.1c-3.2-0.5-5-2.2-5.3-4.9 0.4-3.8 3.2-5.9 8.3-6.2 2.2 0 4.1 0.5 5.6 1.6l5.9-1.5z m-6.7 18.9h-3.5c-1.3 0-2.5-0.1-3.6-0.3-1 0.6-1.5 1.4-1.7 2.2 0.3 2.1 2.4 3.3 6.3 3.5 3.8-0.1 5.7-1.2 6-3.3 0-1.4-1.2-2.1-3.5-2.1z m-8-13.7c0.1 2.8 1.3 4.3 3.6 4.4 1.8-0.1 2.8-1.3 2.9-3.5-0.1-3-1.3-4.6-3.4-4.7-1.9 0.1-3 1.4-3.1 3.8z m39.3 0.8v6.2c0 2 1.1 3 3.2 3h1.3v1.6h-14.3v-1.6h0.6c2.5 0.1 3.6-0.9 3.5-3v-16.1c0.2-2.1-0.9-3.1-3.4-3h-0.8v-1.6c0.3 0 0.7 0 1.1-0.2 1.9-0.1 3.3-0.2 4.2-0.2 3-0.2 5.3-0.3 6.8-0.3 5.8-0.1 9.6 0.8 11.4 2.9 1.3 1.3 1.9 2.8 1.9 4.6-0.1 3.3-2.1 5.5-6.1 6.5 1 0.9 2.2 2.3 3.7 4.3 1.4 1.8 2.5 3.1 3.4 4 1.4 1.6 3.2 2.4 5.5 2.6v1.3h-2.6c-2.5 0-4.3-0.1-5.6-0.3-1.3-0.4-2.4-1.1-3.4-2.1-0.5-0.5-1.4-1.7-2.7-3.5-1.9-2.6-3.4-4.3-4.5-5.1h-3.2z m0-13.6v12.3h1.7c5.5 0 8.3-2 8.1-6.1-0.1-4-2.6-6-7.5-6.1h-2.3z m41 18.8l0.9 0.8c-2.3 3.2-5.1 4.8-8.5 4.9-4.7-0.2-7.2-2.9-7.4-8.1 0.4-5.6 3.3-8.6 8.6-9.1 2.1 0 3.8 0.6 5 1.9 0.8 0.8 1.4 2.1 1.7 3.7 0.2 1 0.5 1.5 0.9 1.7v1.1h-11.2c0.5 3.7 2.2 5.7 4.9 6 1.6 0.3 3.2-0.7 5.1-2.9z m-10-4.1h5.7c-0.1-3.2-1.1-4.8-2.9-4.9-1.9 0.5-2.9 2.1-2.8 4.9z m37.6-7.1v4.1l-4.1-1c0.6 0.7 0.9 1.7 0.8 2.7-0.3 3.6-3.2 5.5-8.6 5.6-2.3 0.8-3.5 1.5-3.4 1.9 0 1 1.7 1.4 5.1 1.4h3.5c3.9 0.1 6 1.5 6.2 4.3-0.5 4.3-4.4 6.5-11.5 6.9-5.2-0.2-8-1.5-8.5-4 0-1.1 0.7-2 2.2-2.7 1.1-0.4 1.7-0.9 1.9-1.3-2.2-0.6-3.4-1.8-3.5-3.5-0.3-1.4 1.5-2.5 5.4-3.3v-0.1c-3.2-0.5-5-2.2-5.3-4.9 0.4-3.8 3.2-5.9 8.3-6.2 2.2 0 4.1 0.5 5.6 1.6l5.9-1.5z m-7.6 18.9H592.974c-1.3 0-2.5-0.1-3.6-0.3-1 0.6-1.5 1.4-1.7 2.2 0.3 2.1 2.4 3.3 6.3 3.5 3.8-0.1 5.7-1.2 6-3.3 0-1.4-1.1-2.1-3.5-2.1z m-7.1-13.7c0.1 2.8 1.3 4.3 3.6 4.4 1.8-0.1 2.8-1.3 2.9-3.5-0.1-3-1.3-4.6-3.4-4.7-2 0.1-3 1.4-3.1 3.8z m33.4 11.7v-3c-3.4 2.1-5.8 3.1-7.5 3-2.9-0.1-4.4-1.9-4.5-5.2v-6.8c0.1-1.4-0.2-2.1-0.8-2.2l-1-0.5v-1l6-1.4h0.8v10.3c0.1 2.5 1 3.9 2.8 4 1 0 2.4-0.5 4.2-1.6v-7.3c0.1-1.4-0.4-2.2-1.5-2.4l-1.9-0.6v-1l7.6-1.4h0.8v12.4c-0.1 1.8 0.3 2.6 1.3 2.4 0.3 0 0.7-0.1 1.1-0.2v1.3l-6.7 1.3h-0.7z m18.9-27.7v23.6c0 1.9 0.8 2.9 2.5 2.9v1.3h-10.5v-1.3h0.3c1.8 0.1 2.6-0.9 2.5-2.9v-17.2c0.1-1.5-0.3-2.3-1.2-2.4l-1.8-0.7v-1.1l7.3-2.1h0.9z m23.9 24.6l0.6 0.9c-1.4 1.4-2.9 2.1-4.6 2.2-1.7-0.1-2.7-0.8-2.9-2.2-1.5 1.6-3.2 2.3-5.1 2.2-3-0.1-4.5-1.4-4.6-4 0-1.4 0.4-2.5 1.3-3.3 0.6-0.6 1.8-1.2 3.5-1.7 2.1-0.6 3.7-1.4 4.8-2.2v-1.6c-0.1-1.7-1-2.6-2.5-2.7-1.6 0.1-2.3 1.2-2.1 3.2l-4.6 1.6c-0.4-1.7-0.1-3 1-4 1.5-1.4 3.7-2.2 6.7-2.4 4.2 0.4 6.5 2.1 6.7 4.9v7.6c0 1.4 0.3 2 0.8 1.9 0.3 0 0.7-0.1 1-0.4z m-6.7-0.1V557c-0.4 0.4-1.1 0.8-2.1 1.3-2 0.7-2.9 1.9-2.8 3.4 0.1 1.7 0.8 2.6 2.1 2.7 0.7-0.1 1.7-0.6 2.8-1.7z m19.6-11.4v10c0 1.4 0.7 2.1 2 2.1 1 0 2-0.7 3.1-2.1l0.7 1.3c-1.5 2.2-3.5 3.3-6.1 3.4-3.2 0-4.7-1.6-4.7-4.8v-9.8h-2.3v-1.1c2.8-1.3 4.9-3.4 6.2-6.3h1.1v5.2h5.4l-0.5 2.3h-4.9z m9.8 6.4c0.5-5.5 4-8.5 10.5-8.9 6.2 0.4 9.5 3.2 10 8.4-0.6 5.5-4.1 8.4-10.6 8.7-6.3-0.2-9.6-2.9-9.9-8.2z m5.7-2.5c0.3 5.9 2.1 8.9 5.4 9.2 2.3-0.1 3.5-1.8 3.6-5.1-0.2-5.5-1.9-8.4-5.2-8.8-2.4 0-3.7 1.6-3.8 4.7z m31.2 9.4v1.3h-11.6v-1.3h0.2c1.7 0.1 2.6-0.9 2.5-2.9v-6.9c0.1-1.5-0.4-2.4-1.5-2.8l-1.1-0.5v-1l6.9-2.6h0.8v4.7h0.2c0.9-1.9 1.5-3 2-3.4 0.4-0.5 1-0.8 1.6-0.8 0.3 0 0.6 0.1 0.8 0.2l3.3 1.1c-0.4 1.7-1.1 3.2-2 4.4-1.6-0.6-2.8-1-3.4-1-0.8-0.1-1.6 0.5-2.5 1.8v6.9c-0.1 2 0.8 2.9 2.8 2.8h1z m16 1.3l-5.6-11.3c-1.2-2.7-2.6-3.9-4.1-3.7v-1.3h10.8v1.3c-1.1 0-1.7 0.2-2 0.6-0.3 0.3-0.3 0.9 0.2 1.8l3.4 7.1 3.3-6.3c0.9-2 0.1-3.1-2.3-3.2v-1.3h7.8v1.3c-1.5 0.1-2.7 1.2-3.6 3.2l-9.3 18.6c-1.1 2-2.4 3.1-3.9 3.1-1.6-0.1-2.5-0.9-2.6-2.4 0.1-0.6 0.3-1.2 0.7-1.8 0.4-0.4 1.2-0.7 2.3-0.8 1.7-0.2 3.1-1.3 4.1-3.2l0.8-1.7z m53.2-7.6h1.8c-0.4 2.6-1.2 5.1-2.4 7.3-0.6-0.1-1.5-0.2-2.4-0.2-0.5 0-1.5 0-2.7 0.2-1.7 0.2-3.2 0.3-4.4 0.3-9.3-0.6-14.3-4.9-15-12.8 0.9-8.1 6.1-12.6 15.8-13.3 2 0 4.3 0.4 6.6 1.3 0.6 0.2 1.1 0.3 1.3 0.3 0.3 0 0.6-0.1 0.8-0.3h1.1l0.3 7.1h-1.6c-1.4-4.1-4.1-6.2-8.2-6.3-6.2 0.4-9.6 4-10 10.8 0.5 7.2 4 11 10.5 11.6 3.8-0.2 6.6-2.2 8.5-6z m7.5-0.6c0.5-5.5 4-8.5 10.5-8.9 6.2 0.4 9.5 3.2 10 8.4-0.6 5.5-4.1 8.4-10.6 8.7-6.3-0.2-9.6-2.9-9.9-8.2z m5.7-2.5c0.3 5.9 2.1 8.9 5.4 9.2 2.3-0.1 3.5-1.8 3.6-5.1-0.2-5.5-1.9-8.4-5.2-8.8-2.4 0-3.7 1.6-3.8 4.7z m40.7-1v7.7c0 1.9 0.8 2.8 2.4 2.8v1.3h-9.8v-1.3c1.7 0.1 2.5-0.9 2.4-2.9v-6.1c0-2.7-0.9-4.1-2.6-4.1-1.2-0.1-3.1 0.8-5.8 2.6v7.7c0 1.9 0.8 2.8 2.4 2.8h0.3v1.3h-10.3v-1.3h0.2c1.7 0.1 2.5-0.9 2.4-2.9v-8.2c0.1-0.8-0.5-1.4-1.8-1.8l-1-0.3v-1l7.1-2.4h0.6v4.7c4.3-3.1 7.3-4.5 9-4.3 2.4 0.1 3.8 1.5 4.2 4.3 3.9-2.8 6.9-4.3 9.2-4.3 3-0.1 4.5 2.3 4.4 7.2v6.5c-0.1 1.7 0.6 2.6 2.3 2.4v1.3h-9.7v-1.3c1.7 0 2.5-1.6 2.4-4.7v-3.6c0-3.2-0.9-4.7-2.6-4.7-0.8-0.1-2.8 0.7-5.7 2.6z m40.9 0v7.7c0 1.9 0.8 2.8 2.4 2.8v1.3h-9.8v-1.3c1.7 0.1 2.5-0.9 2.4-2.9v-6.1c0-2.7-0.9-4.1-2.6-4.1-1.2-0.1-3.1 0.8-5.8 2.6v7.7c0 1.9 0.8 2.8 2.4 2.8h0.3v1.3h-10.3v-1.3h0.2c1.7 0.1 2.5-0.9 2.4-2.9v-8.2c0.1-0.8-0.5-1.4-1.8-1.8l-1-0.3v-1l7.1-2.4h0.6v4.7c4.3-3.1 7.3-4.5 9-4.3 2.4 0.1 3.8 1.5 4.2 4.3 3.9-2.8 6.9-4.3 9.2-4.3 3-0.1 4.5 2.3 4.3 7.2v6.5c-0.1 1.7 0.6 2.6 2.3 2.4v1.3H894.974v-1.3c1.7 0 2.5-1.6 2.4-4.7v-3.6c0-3.2-0.9-4.7-2.6-4.7-0.8-0.1-2.7 0.7-5.6 2.6z m29.5 10.4v1.3h-10.6v-1.3h0.5c1.7 0.1 2.4-0.9 2.3-2.9v-8c0.1-1-0.4-1.6-1.5-1.8l-1.3-0.5v-1l7.3-2.4h0.7v14c0 1.7 0.9 2.5 2.6 2.6z m-4.8-25.6c2 0.1 3.1 1 3.2 2.8-0.2 1.7-1.3 2.7-3.2 2.9-2-0.1-3.1-1.1-3.3-2.9 0.2-1.7 1.3-2.6 3.3-2.8z m11 26.8l-0.5-4.8h1.3c0.8 2.1 2.2 3.3 4.4 3.5 1.2-0.1 1.9-0.7 2.1-1.9 0-0.8-1-1.9-3.1-3.2-3.1-1.8-4.7-3.7-4.7-5.6 0.2-3.2 2.4-4.9 6.5-5.1 1.6 0 3.2 0.3 4.7 0.8v4.5h-1.3c-0.8-2.3-2-3.5-3.9-3.5-1.2 0.1-1.8 0.6-1.9 1.4 0 1 1.1 2.1 3.4 3.3 3.2 1.7 4.8 3.6 4.8 5.7-0.2 3.2-2 4.8-5.5 4.9-1.2 0-2.4 0-3.5-0.2-0.4-0.1-0.7-0.2-0.8-0.2-0.2 0-0.5 0-0.8 0.2h-1.2z m18 0l-0.5-4.8h1.3c0.8 2.1 2.2 3.3 4.4 3.5 1.2-0.1 1.9-0.7 2.1-1.9 0-0.8-1-1.9-3.1-3.2-3.1-1.8-4.7-3.7-4.7-5.6 0.2-3.2 2.4-4.9 6.4-5.1 1.6 0 3.2 0.3 4.7 0.8v4.5h-1.3c-0.8-2.3-2-3.5-3.9-3.5-1.2 0.1-1.8 0.6-1.9 1.4 0 1 1.1 2.1 3.4 3.3 3.2 1.7 4.8 3.6 4.8 5.7-0.2 3.2-2 4.8-5.5 4.9-1.2 0-2.4 0-3.5-0.2-0.4-0.1-0.7-0.2-0.8-0.2-0.2 0-0.5 0-0.8 0.2h-1.1z m27.3-1.2v1.3h-10.6v-1.3h0.5c1.7 0.1 2.4-0.9 2.3-2.9v-8c0.1-1-0.4-1.6-1.5-1.8l-1.3-0.5v-1l7.3-2.4h0.7v14c0 1.7 0.9 2.5 2.6 2.6z m-5.6-25.6c2 0.1 3.1 1 3.2 2.8-0.2 1.7-1.3 2.7-3.2 2.9-2-0.1-3.1-1.1-3.3-2.9 0.1-1.7 1.3-2.6 3.3-2.8z m10.5 18.7c0.5-5.5 4-8.5 10.5-8.9 6.2 0.4 9.5 3.2 10 8.4-0.6 5.5-4.1 8.4-10.6 8.7-6.3-0.2-9.5-2.9-9.9-8.2z m5.7-2.5c0.3 5.9 2.1 8.9 5.4 9.2 2.3-0.1 3.5-1.8 3.6-5.1-0.2-5.5-1.9-8.4-5.2-8.8-2.4 0-3.7 1.6-3.8 4.7z m39.5 0.5v6.5c-0.1 1.7 0.6 2.6 2.3 2.4v1.3h-9.7v-1.3c1.6 0 2.4-1.6 2.3-4.7v-3.6c0-3.3-0.8-4.8-2.4-4.7-1.3 0-2.8 0.6-4.5 1.8v8.5c0 1.9 0.9 2.8 2.6 2.8h0.3v1.3h-10.5v-1.3h0.3c1.6 0.1 2.4-0.9 2.3-2.9v-8.2c0.1-0.9-0.5-1.5-1.9-2l-0.8-0.2v-1l7.1-2.4h0.6v3.8c3.1-2.2 5.7-3.3 7.7-3.3 2.9-0.1 4.4 2.2 4.3 7.2z" fill="#005DA9"></path><path d="M83.574 407.5v-0.5c0.2 0.1 0.4 0.2 0.6 0.2 0.2-0.1 0.4-0.2 0.6-0.2v0.5c18.6 6.9 37.2 12.6 55.8 17.5 4 16.2 13.2 23.6 26.8 23.8 7.8 104.1-32.3 143.4-82.6 168.9v0.2H83.574v-0.2C33.274 592.1-6.826 552.8 0.974 448.7c13.6-0.2 22.8-7.6 26.8-23.8 18.6-4.8 37.2-10.6 55.8-17.4z m0.6 11.2C67.474 425 50.674 430.2 33.974 434.6c-3.6 14.6-11.8 21.2-23.9 21.4-7 93.9 29 129.1 74 152 45-22.9 81-58.1 74-152-12.1-0.1-20.3-6.8-23.9-21.4-16.6-4.4-33.3-9.6-50-15.9z m4.2 56v-48.3c14.6 6.3 29.2 11 43.8 15.1 3.2 14.7 11.2 20.1 22.2 19.7 0.6 9 0.8 17.6 0.5 25.9-22.1-7.9-44.3-12.1-66.5-12.4z m0 124.9V513c20.6 0.4 41 4.7 61.1 12.9-8.9 33.9-28.8 58.8-61.1 73.7z m-50-159.4c14.6-3.9 29.3-8.4 43.9-13.8v47.5c-22.1 0.3-44.3 4.4-66.5 12.3-0.2-8.2 0-17 0.7-26.4 11.1-0.1 18.7-6.3 21.9-19.6z m-17.6 84.5c20.8-8.2 41.3-12.4 61.6-12.8v86.4c-27.9-14.5-51.7-34.6-61.6-73.6z m43.8-44.9c0.8-0.1 1.6-0.1 2.4-0.1 5.3 0 8.3 2.2 9 6.5 0.2 3-1.3 5.3-4.5 6.8v0.2c4.3 0.6 6.7 2.9 7.3 6.8 0.2 4.7-3.5 7.7-11 8.8l-11 1.2-3.1-29 10.9-1.2z m-4.2 5.4l0.7 6.7 4.9-0.5c2.7-0.3 4-1.5 3.7-3.7-0.2-2.3-1.7-3.3-4.5-3l-4.8 0.5z m1.2 11.6l0.8 7.7 4.9-0.5c3.5-0.1 5-1.6 4.6-4.3-0.2-2.8-2-4-5.5-3.4l-4.8 0.5z m-41 4.4c0.3-9.9 4.4-15 12.2-15.3 7.8 0.1 11.9 3.5 12.3 10.1h-6.7c-0.2-3.6-2.1-5.4-5.7-5.5-3.5 0.2-5.3 3.8-5.5 10.7 0.2 6.8 2.1 10.5 5.5 10.6 3.7 0.1 6.6-5 6.7-8.5h6.7c-0.3 6.4-5.4 12.8-13.4 12.8-7.8-0.1-11.9-5.2-12.1-14.9z m67.8 6.5l1.1-29.2 12.5 0.5c6.7 0.4 9.9 3 9.9 8-0.2 3.8-2.3 6.1-6.3 6.9v0.2c3.3 0.2 4.9 2.4 5 6.7 0.1 0.4 0.1 0.7 0.1 1 0.2 3.5 0.6 5.8 1.3 7l-6.8-0.3c-0.5-2.6-0.8-5.2-0.8-7.9-0.1-2.5-1-3.8-2.6-3.9l-6.7-0.2-0.4 11.7-6.3-0.5z m12.2-16.2h0.3c2.7 0 4.2-1.3 4.2-3.9 0.1-2.5-1.3-3.8-4.3-3.8l-5.2-0.2-0.3 7.7 5.3 0.2z m20.8 7.5c1.8-8.8 6-13.3 12.5-13.2 0.7 0 1.4 0 2.1 0.1 7.7 1.4 11.2 5.4 10.5 12l-6.6-1.1c0.4-3.6-1.2-5.7-4.7-6.4-3.5-0.4-5.9 2.9-7.3 9.7-0.9 6.8 0.3 10.6 3.7 11.4 3.7 0.5 5.8-1 6.5-4.5l6.6 1.1c-1.4 6.3-6 8.8-13.8 7.6-7.8-1.5-10.9-7.1-9.5-16.7z" fill="#C44416"></path></svg>