<svg viewBox="0 0 1024 1024" version="1.1" xmlns="http://www.w3.org/2000/svg"><path d="M0 1024h1024V0H0z" fill="#007D7D"></path><path d="M384.504 645.089v-18.402h-20.95l-0.112 23.721h16.011c3.867 0 5.051-2.805 5.051-5.32z m-30.126 5.319V626.59h-21.047l0.124 23.818h20.923z m8.9-30.951h29.252v29.039c0 4.852-2.823 8.976-8.76 8.976h-20.368v15.323h-9.024v-15.173H325v-38.165h29.378l0.03-8.975h8.87v8.975z m121.677 1.841v-3.834l-5.328-0.11 1.778 3.944h3.55z m-5.168 44.075c2.373 0 5.126-1.03 5.126-5.882 0-4.865-0.104-36.983-0.104-36.983-1.017 3.38-2.068 5.071-6.22 5.071h-9.943c0.596 4.866 2.23 12.892 3.419 16.286 1.778-3.972 3.722-8.836 5.044-13.262l6.683 1.333c-1.632 5.759-4.317 13.536-8.454 19.447 2.352 3.545 5.479 7.078 9.036 9.73-1.772 1.76-5.785 4.425-8.456 1.635-3.307-3.49-3.999-4.727-4.745-5.758-1.495 2.199-5.632 7.064-7.114 8.383h15.728z m-17.36-8.383a30.215 30.215 0 0 0 5.327-6.5c-3.424-5.018-5.045-17.083-5.785-22.69h-23.76v-6.487h23.47l-0.152-3.959h-25.78l0.124 48.02h25.808l-4.594-3.38s2.229-1.912 3.556-3.684c-5.355 1.457-18.1 2.5-21.67 2.5l-1.183-6.473c4.158-0.288 16.307-1.773 23.276-3.105l1.362 5.758z m5.914-39.663v3.986h5.64l-2.062-3.986h-3.578z m-40.206-6.088l64.853-0.247v53.955c0 5.593-4.754 7.34-8.033 7.34h-56.82V611.24z m17.077 33.066h9.202v-7.503h-9.202v7.503z m-7.197 6.047l-0.082-19.626h23.746v14.033c0 3.531-2.24 5.593-5.783 5.593h-17.88z m100.757-40.556l7.424 1.347c-0.747 3.105-2.235 11.35-4.769 16.505v45.82h-7.235v-32.544l-1.372 1.456-7.113-3.09c5.633-6.942 11.12-16.796 13.065-29.494z m50.597 7.394h-38.392l-0.036-6.652h43.184c0 3.107-1.185 6.652-4.756 6.652z m3.744 13.152c0 3.105-1.188 6.624-4.739 6.624H549.98l-0.029-6.624h43.162zM549.98 646.27l-0.028-6.653h43.16c0 3.12-1.188 6.653-4.738 6.653H549.98z m-4.055-25.66h53.076c0 3.093-1.182 6.654-4.739 6.654h-48.44l0.103-6.653z m12.026 35.623l-0.028 9.29h25.663c1.771 0 1.93-0.44 1.93-1.635v-7.655h-27.565z m-8.053 16.478v-23.556h44.364v16.822c0 3.655-1.931 6.734-6.38 6.734h-37.984z m99.59-54.794h-16.666l-0.02-6.39h21.435c0 3.078-1.19 6.39-4.748 6.39z m3.987 12.328c0 3.105-1.19 6.391-4.738 6.391h-16.932l-0.015-6.391h21.685z m-21.67 15.475l-0.015-6.391h21.685c0 3.092-1.19 6.391-4.739 6.391h-16.931zM628.98 627.8l-0.014-6.377h29.406c0 3.105-1.175 6.377-4.746 6.377H628.98z m9.036 27.459l-0.025 9.784h8.69c1.783 0 1.9-0.948 1.9-2.13v-7.654h-10.565z m-7.665 16.491v-23.57h26.236v16.822c0 3.656-1.921 6.748-6.378 6.748h-19.858z m46.275-10.307c0 1.621 0.747 3.093 2.669 3.093h18.543c0 3.09-0.282 6.912-6.363 6.912h-17.38c-3.103 0-5.468-2.364-5.468-5.87v-24.09h-9.374v-7.091h9.36V620.13h-9.05v-6.872h38.275c0 2.803-1.328 6.775-4.448 6.775h-16.676v14.32h22.612c0 3.506-1.189 7.066-6.088 7.066h-16.612v20.023zM383.494 694.247c3.916 0 8.317 0.51 13.493 1.459 0 0.232 0.636 6.636 0.678 7.174-3.536-0.99-7.958-1.98-14.171-1.98-12.233 0-20.149 8.218-20.149 20.944 0 12.781 7.916 21.04 20.149 21.04 6.269 0 10.987-0.988 14.841-2.047-0.082 0.537-0.81 7.065-0.837 7.34-4.2 0.728-8.787 1.346-14.004 1.346-14.82 0-30.61-7.256-30.61-27.68 0-20.339 15.79-27.596 30.61-27.596z m19.705 10.267h8.69v16.712l0.222 0.247 0.249-0.48c2.187-4.343 6.373-5.842 12.669-5.842 5.889 0 12.904 1.787 12.904 10.445v23.006h-8.69v-20.848c0-3.436-3.017-5.868-7.335-5.868-7.001 0-10.018 4.247-10.018 14.182v12.534h-8.69v-44.088z m41.653 7.45v-7.395h8.884v7.395h-8.884z m0.132 36.638v-32.668h8.711v32.668h-8.71z m24.9-27.61c2.195-4.342 6.395-5.84 12.678-5.84 5.887 0 12.855 1.786 12.855 10.444v23.006h-8.664v-20.848c0-3.436-3.001-5.868-7.299-5.868-7.037 0-10.025 4.247-10.025 14.182v12.534h-8.69v-32.668h8.69v5.292l0.234 0.247 0.221-0.48z m33.587-3.971c5.388-1.292 9.92-1.87 14.211-1.87 8.711 0 13.091 2.914 13.091 8.673v24.779h-8.207v-17.785l-0.691 0.577c-1.08 1.003-3.294 1.635-5.624 2.324-4.222 1.209-9.003 2.637-9.003 6.664 0 2.819 2.298 4.425 6.338 4.425 1.46 0 3.003-0.288 4.76-0.85-0.248 1.002-1.135 4.438-1.252 4.905-0.422 0.042-2.069 0.179-2.069 0.179-1.502 0.178-3.043 0.385-3.832 0.385-7.834 0-12.117-3.409-12.117-9.608 0-7.187 7.425-8.918 14.034-10.444 4.809-1.127 8.973-2.048 8.973-5.14 0-2.995-2.215-4.494-6.628-4.494-3.862 0-7.895 0.88-12.622 2.625 0.125-0.948 0.581-4.906 0.638-5.345z m79.548-1.609c0.074 0.51 0.642 6.02 0.755 6.9-1.178-0.261-2.271-0.427-3.433-0.427-5.584 0-8.656 3.588-8.656 10.13v16.587h-8.711v-26.47h-14.267v14.871c0 2.817 0.498 6.046 4.587 6.046 1.53 0 3.046-0.191 4.526-0.521a817.97 817.97 0 0 0-0.928 5.963c-2.33 0.606-4.65 0.936-7.244 0.936-6.87 0-9.646-2.42-9.646-8.302v-18.992h-6.724v-6.2h6.724v-5.853l8.705-2.02v7.873H571.202v4.083l0.22 0.22 0.263-0.452c1.95-3.383 5.098-4.633 8.793-4.633 0.804 0 1.661 0.054 2.541 0.261z m27.753 0.522h8.703v32.669h-8.703v-5.28l-0.216-0.246-0.296 0.51c-2.174 4.315-6.332 5.84-12.635 5.84-8 0-11.852-3.423-11.852-10.43v-23.063h8.682v21.29c0 2.555 2.582 5.455 6.283 5.455 6.67 0 10.034-3.573 10.034-10.664v-16.08z m56.639 27.116c1.52 0 3.058-0.192 4.538-0.522-0.138 0.906-0.872 5.483-0.956 5.964a27.603 27.603 0 0 1-7.25 0.935c-6.822 0-9.625-2.42-9.625-8.301v-18.993h-0.671c-7.57 0.055-11.5-0.014-13.996-0.014-1.654 0-4.435 0.069-4.435 2.364 0 4.315 13.768 7.89 13.768 16.835 0 6.35-7.376 8.48-13.077 8.48-3.632 0-7.389-0.605-10.904-1.402l-1.065-7.27c3.155 1.277 6.42 2.488 9.741 2.488 2.09 0 5.087-0.866 5.087-3.12 0-5.086-13.763-7.985-13.763-16.547 0-2.24 1.107-8.013 12.592-8.013 3.33 0 6.753-0.013 15.9 0h0.823v-5.855l8.704-2.02v7.875h8.546v6.2h-8.546v14.868c0 2.817 0.521 6.048 4.589 6.048z" fill="#FEFEFE"></path><path d="M360.646 420.084c0-79.875 65.184-144.606 145.61-144.606 80.422 0 145.605 64.731 145.605 144.606 0 79.848-65.183 144.606-145.605 144.606-80.426 0-145.61-64.758-145.61-144.606" fill="#D51B19"></path><path d="M502.187 509.59v12.839c0 2.678 2.183 4.846 4.88 4.846h22.64v-53.962h-22.655a4.87 4.87 0 0 0-4.865 4.86v11.996h13.327c2.69 0 4.88 2.166 4.88 4.844v9.72c0 2.677-2.19 4.858-4.88 4.858h-13.327z m-4.303 0l0.012 12.839c0 2.678-2.189 4.846-4.89 4.846l-22.64 0.014-0.009-53.976h22.648c2.702 0 4.88 2.182 4.88 4.86v11.996h-13.32c-2.696 0-4.88 2.166-4.88 4.844v9.72c0 2.677 2.184 4.858 4.88 4.858h13.32z" fill="#009944"></path><path d="M637.182 407.783c0 78.387-63.402 141.924-141.586 141.924-40.413 0-76.862-16.982-102.656-44.186 25.954 32.301 65.739 52.968 110.342 52.968 78.196 0 141.57-63.523 141.57-141.91 0-37.857-14.8-72.277-38.915-97.709 19.542 24.324 31.245 55.253 31.245 88.913" fill="#F54B49"></path><path d="M575.778 387.671H551.76c0.22 9.428 4.393 14.62 11.905 14.62 2.426 0 5.427-0.415 9.744-3.976-0.319 0.51-0.486 1.145-0.486 1.85 0 0.592 0.14 1.131 0.381 1.587-1.282 1.05-4.316 3.313-11.239 3.313-9.46 0-16.224-7.206-16.293-17.256 0-9.91 6.547-16.772 16.008-16.772 7.033 0 14 3.326 14 16.634z m-5.502-2.43c-0.069-7.55-3.618-12.203-8.622-12.203-5.293 0-9.75 4.915-9.75 12.203h18.372z m-9.246 21.44c2.267-0.139 3.98 1.2 4.096 2.76 0.105 1.545-1.42 3.12-3.679 3.271-2.274 0.166-3.998-1.187-4.104-2.733-0.103-1.56 1.416-3.12 3.687-3.299z m-85.794-37.161h-5.184c-4.034-13.473-6.486-23.454-15.716-49.792h7.795l12.716 42.792 12.891-42.792h4.664l14.104 42.145 12.501-42.145h4.975c-6.353 15.805-16.519 49.792-16.519 49.792h-5.19l-13.593-40.696-13.444 40.696z m58.255-30.19c-5.294 0-9.736 4.928-9.736 12.203h18.37c-0.069-7.565-3.61-12.203-8.634-12.203zM517.63 354.1c0-9.912 6.533-16.786 16.007-16.786 7.026 0 13.993 3.327 13.993 16.648h-24.022c0.21 9.429 4.396 14.618 11.906 14.618 2.58 0 5.782-0.482 10.521-4.637-0.152 0.62-0.152 1.24-0.152 3.395-1.046 0.828-4.312 4.017-11.975 4.017-9.467 0-16.21-7.206-16.278-17.255z m1.155 33.903l-7.51 1.518c-4.666 1.104-6.826 3.202-6.745 7.012 0 3.88 2.42 6.502 6.052 6.502 2.285 0 5.085-1.174 7.095-3.05 0.84-0.76 1.178-1.795 1.178-3.327l-0.07-8.655z m-19.889 9.151c-0.082-5.273 3.55-7.84 10.5-9.289 6.971-1.449 7.935-1.602 9.605-2.707-0.069-7.274-1.046-10.476-8.012-10.476-3.4 0-6.459 1.6-8.613 4.79h-0.632l0.064-3.672c3.41-2.568 7.034-3.81 11.56-3.81 8.98 0 10.713 5.397 10.713 10.807 0.068 19.134-0.222 20.68 3.257 20.68h0.832l0.216 1.313c-2.302 0.633-4.029 0.398-5.205 0.398-2.44 0-3.619-1.172-4.249-4.085-1.532 1.311-4.247 4.652-10.374 4.652-6.112 0-9.662-3.203-9.662-8.6z m44.285-19.933c-3.417 0-7.312 1.188-7.242 16.372 0 3.051 0.144 6.502 0.484 11.637-2.846-0.344-5.286-0.137-5.58-0.137 0.294-7.786 0.957-18.856-0.04-33.103 0.997 0.18 2.038 0.262 3.106 0.262 0.92 0 1.773-0.04 2.549-0.124-0.081 1.546-0.152 4.211-0.318 8.144 3.133-6.17 5.364-8.033 9.326-8.033 0.7 0 1.33 0.07 2.019 0.206-0.201 2.222-0.265 3.19-0.265 5.328l-0.49 0.36c-1.54-0.635-2.511-0.912-3.55-0.912z m-101.804 72.073l0.243-0.207-0.09-0.566c-2.245-24.281-32.205-52.801-52.565-40.157-9.695 6.006-15.71 25.139-6.19 35.698 17.244 19.162 48.165 13.735 58.602 5.232z m28.788-42.157c-1.324 3.726-3.298 10.256-6.652 17.64-3.368 7.372-8.116 15.559-14.97 22.64-19.28 19.919-54.041 18.098-68.893 3.825-7.081-6.793-14.58-24.752 4.956-41.235 25.308-21.341 57.77 5.109 58.684 36.705l0.069 1.492 0.97-1.131c5.6-6.517 9.785-15.462 12.792-23.275 2.994-7.785 4.83-14.523 5.697-16.717l0.299-0.746-0.81-0.055c-2.454-0.138-10.341-0.042-17.84 0.084-3.741 0.055-7.393 0.11-10.228 0.15-2.216 0.014-3.923 0.042-4.768 0 0.346-0.91 2.384-3.533 3.014-4.32 2.98-0.041 28.824-0.4 31.76-0.732l0.334-0.04 0.14-0.291c1.032-2.111 2.424-7.191 5.308-12.797 2.875-5.55 7.206-11.567 14.109-15.653 1.483-0.884 4.547-2.43 7.429-3.466 1.442-0.538 2.813-0.911 3.895-1.035 1.177-0.137 1.718 0.07 1.912 0.346 0.09 0.11 0.153 0.427-0.042 1.118-0.166 0.635-0.526 1.436-0.97 2.375-0.831 1.712-1.94 3.74-2.744 5.742-0.138-0.208-0.201-0.414-0.291-0.65a4.542 4.542 0 0 0-1.108-1.711c-1.206-1.146-3.306-1.74-6.75-0.304-4.977 2.056-8.261 8.517-10.326 14.204-2.067 5.77-3.065 11.72-3.065 11.72s7.458 0.056 11.207-0.123a4.3 4.3 0 0 0 1.032-0.18c0.27-0.068 0.493-0.165 0.723-0.221 0.36-0.124 0.56-0.151 0.852 0 0.117 0.056 0.298 0.249 0.31 0.98 0.015 0.69-0.124 1.657-0.373 2.885-0.443 2.29-1.191 5.288-1.65 8.697a0.945 0.945 0 0 1-0.373-0.263c-1.484-3.285-3.577-4.748-5.947-5.397-1.164-0.317-2.371-0.441-3.576-0.511-1.164-0.054-2.35-0.054-3.52-0.138l-0.444-0.027-0.152 0.415z m12.404 43.745c0.112 0.124 0.666-0.042 0.666-0.042 0.977-0.275 2.633-0.801 3.763-1.173a384.29 384.29 0 0 0-5.128 3.673c-3.238 2.347-5.218 3.782-6.439 4.885-0.276 0.014-0.485 0-0.678-0.055a1.228 1.228 0 0 1-0.47-0.18c-0.016-1.132 1.758-9.359 3.643-12.699l-0.943-0.69c-0.85 0.897-2.106 2.263-3.637 3.768-1.518 1.491-3.292 3.093-5.219 4.514-3.867 2.871-8.074 4.763-11.656 3.548-4.339-1.478-0.63-19.423 20.52-30.741 5.51-2.942 12.536-5.854 21.185-5.427 0.214 1.451-0.09 3.438-0.09 3.466l-0.119 0.759-0.506 0.593c-0.034 0.028-0.518 0.594-1.08 0.842-2.044-2.498-13.493-1.421-18.877 1.464-8.295 4.472-20.478 18.47-14.145 23.397 4.581 3.577 18.337-12.52 19.751-22.486l2.114-0.512c0.131 1.934-0.748 4.625-1.837 7.096-1.206 2.706-2.556 4.942-2.772 5.232l0.818 0.828c0.471-0.317 0.366-0.014 1.816-0.689 0.706-0.332 1.407-0.622 2.002-0.788 0.27-0.069 0.506-0.11 0.673-0.11 0 0.428-0.097 0.814-0.18 1.339-0.25 1.449-0.569 2.237-1.026 3.644-0.693 2.21-1.262 3.341-2.079 5.549-0.174 0.443-0.249 0.802-0.07 0.995z m53.07-0.332l1.109-0.359c1.36-0.456 3.1-0.689 3.696-0.745-0.487 0.482-1.49 1.075-2.668 1.794-2.122 1.325-4.796 3.107-7.03 4.97-0.983 0.815-2.59 1.517-3.29 1.464-0.221-0.18-0.285-0.388-0.285-0.746 0.015-0.718 0.25-1.794 0.68-3.176 0.874-2.733 2.439-6.39 4.089-10.133 1.65-3.768 3.367-7.647 4.533-10.766 0.596-1.602 1.038-3.01 1.26-4.127 0.216-1.064 0.286-2.113-0.188-2.76-0.373-0.512-1.016-0.444-1.405-0.346-0.444 0.124-0.978 0.386-1.524 0.69-1.103 0.635-2.47 1.6-3.786 2.636-2.63 2.015-5.21 4.307-5.21 4.307s-1.747 4.155-3.494 8.558c-1.635 4.114-3.366 8.642-3.768 10.464a150.742 150.742 0 0 0-6.466 3.452c-0.783 0.441-1.45 0.813-2.02 1.117-0.533 0.277-0.967 0.498-1.355 0.635a2.036 2.036 0 0 1-0.88 0.098c0.976-1.89 3.92-7.773 6.714-13.777 1.705-3.645 3.347-7.345 4.434-10.203 0.57-1.462 1-2.705 1.208-3.615 0.11-0.484 0.179-0.91 0.179-1.256 0.015-0.277-0.027-0.76-0.415-1.035-1.787-1.27-8.303 2.787-11.407 6.267-2.453 4.167-6.35 11.457-8.62 19.048-0.335 1.105-7.555 4.776-8.97 4.294-0.637-0.235-0.72-0.814-0.116-1.354 5.82-5.106 12.272-23.093 13.858-29.154 0.113-0.386-0.103-0.689-0.268-0.842-0.166-0.165-0.388-0.29-0.611-0.4a6.118 6.118 0 0 0-1.698-0.386c-0.975-0.11-2.231-0.014-3.167 0.58a40.162 40.162 0 0 0-0.762-1.256c0.327-0.042 2.787-0.346 5.045-1.063 2.398-0.76 5.377-2.07 7.54-4.308 0.167-0.165 0.609-0.51 1.096-0.717 0.374-0.18 0.629-0.208 0.762-0.194 0 0.374-0.028 0.746-0.091 1.201-0.131 0.925-0.373 2.153-0.671 3.41-0.596 2.581-1.388 5.176-1.872 5.935l0.93 0.72c3.145-3.369 13.936-9.443 15.8-8.408 1.039 0.593 1.358 1.85 1.248 3.424a14.28 14.28 0 0 1-0.375 2.264c-0.165 0.716-0.354 1.338-0.484 1.78l-0.528 1.767 1.456-1.132c2.772-2.18 6.36-4.639 9.492-6.294 1.568-0.843 2.994-1.464 4.13-1.768 1.206-0.317 1.83-0.206 2.082 0.028 1.356 1.255 0.24 6.598-1.886 13.018-2.052 6.142-4.767 12.575-5.668 15.295l-0.363 1.104z m38.88-36.871c1.699-4.113 2.966-7.192 3.229-7.98 0.486-0.87 0.027-1.545-0.665-1.876-0.611-0.29-1.462-0.4-2.273-0.442a21.705 21.705 0 0 0-2.952 0.042l-0.082-0.374a50.188 50.188 0 0 0 4.808-1.048c2.709-0.705 5.913-1.795 7.699-3.286l3.527 0.07a1617.644 1617.644 0 0 0-10.505 23.729c-5.13 11.87-10.508 24.779-9.745 26.31l0.209 0.457c0.064 0.137 0.138 0.303 0.265 0.44 0.302 0.374 0.705 0.484 1.182 0.416 0.978-0.014 1.92-0.746 2.607-1.326 0.366-0.304 0.699-0.634 1.019-0.884 0.31-0.248 0.527-0.386 0.65-0.441l0.307-0.042c-0.17 0.318-0.321 0.539-0.452 0.76-0.921 1.408-9.404 8.324-12.682 8.725-1.697 0.178-2.272-0.167-2.487-0.442a1.513 1.513 0 0 1-0.293-0.65c-0.095-0.317-0.137-0.621-0.22-0.896-0.083-0.236 4.705-12.038 9.868-24.475l6.987-16.787z m21.08 41.026l0.707-1.52-1.511 0.76c-2.37 1.188-5.792 2.251-9.77 3.356-3.984 1.117-8.455 2.264-12.878 3.615-8.828 2.707-17.655 6.337-21.786 12.397-5.38 7.91-2.677 17.74 9.37 15.752 10.699-1.754 29.252-19.948 35.869-34.36z m32.116-71.562c6.388 2.403 16.984 14.136 17.07 23.468 0.15 20.237-18.825 37.437-44.64 45.347l-0.263 0.07-0.123 0.262c-12.766 30.701-37.507 47.775-51.48 44.561-10.282-2.375-8.98-18.125-0.691-26.339 5.823-5.757 13.132-8.67 21.595-11.293 8.524-2.636 18.102-4.955 28.302-9.594l0.237-0.097 0.074-0.248c0.438-1.27 2.585-6.432 4.214-11.513 0.824-2.567 1.517-5.108 1.81-7.109 0.138-1.02 0.193-1.947 0.075-2.69-0.096-0.734-0.382-1.437-1.046-1.782-3.457-1.865-18.101 16.012-25.19 28.05a2.97 2.97 0 0 1-0.333-0.663c3.028-6.929 7.836-24.447 4.468-27.429-0.318-0.386-0.802-0.359-1.11-0.275-0.33 0.067-0.677 0.248-0.995 0.441a9.116 9.116 0 0 0-1.254 0.924l-0.548-0.317c2.23-1.739 9.037-6.834 10.714-5.66 0.36 0.262 0.65 0.981 0.72 2.278 0.069 1.23-0.09 2.747-0.338 4.321-0.493 3.133-1.395 6.308-1.713 7.344l1.053 0.47c5.03-8.56 16.659-17.463 18.863-17.366 1.068 0.04 3 2.373 3.27 3.533 0.632 2.596-1.092 8.075-3.27 13.487-2.162 5.328-4.622 10.311-5.237 11.734l-0.494 1.145 1.2-0.345c12.82-3.713 40.444-20.002 40.279-40.598-0.105-11.236-8.761-20.278-15.22-24.117z m-80.89 43.788c-0.396-0.082-1.052-0.332-0.907-0.87 0.768-0.386 2.528-0.98 4.36-1.574l2.75-0.883c0.824-0.277 1.483-0.51 1.794-0.663 0.611-0.29 1.836-1.104 3.225-1.725 1.384-0.62 2.687-0.925 3.566-0.51 0.015 0.027 0.07 0.11 0.1 0.192 0.041 0.207 0.041 0.512-0.022 0.953-0.11 0.87-0.466 2.071-0.993 3.52-1.065 2.898-2.77 6.641-4.49 10.367-1.732 3.768-3.45 7.55-4.56 10.492-0.526 1.477-0.934 2.774-1.087 3.781-0.07 0.511-0.098 0.981-0.02 1.381 0.083 0.401 0.276 0.814 0.705 1.035 1.74 0.912 3.306 0.112 4.407-0.496 0.264-0.138 0.528-0.29 0.776-0.43a4.49 4.49 0 0 1 0.612-0.26c0.201-0.056 0.331-0.07 0.436-0.014-0.277 0.288-0.714 0.593-1.359 0.938-1.254 0.704-3.083 1.492-5.01 2.21-4.068 1.503-8.149 2.483-8.947 2.111-2.357-1.063 11.013-29.348 11.316-29.996l0.508-1.078-7.16 1.52z" fill="#FEFEFE"></path></svg>