<svg viewBox="0 0 1024 1024" version="1.1" xmlns="http://www.w3.org/2000/svg"><path d="M41.41563 549V421h128v128h-128z m77.4-83.1l3.6-34.2h-33.5l3.5 34.2h-17.3l3.9 71.9s11.3-8.5 26.6-7.8 26.5 7.8 26.5 7.8l3.9-71.9h-17.2z" fill="#0089AC"></path><path d="M110.01563 521.1v-82.5l-21.1-6.9 3.5 34.2h-17.3l4 71.9z" fill="#EC660A"></path><path d="M33.57163 593.5l-1.5 6.3c-20 12.3-42.4-9.1-26.9-26.9 7.1-8.3 30.8-9.7 26.9 4.1h-1.3c0.4-7-9.7-10.6-17.4-6.9-21.3 15 5.8 46.7 19 23.5l1.2-0.1z m14.6 4.1c0 3.5-0.1 3.3 3.2 3.7v1h-10v-1c5.4 0.3 2.5-6.2 3.2-13.2-0.7-7.3 2.2-10.7-3.2-11.1v-1h10.1v1c-5.2-0.9-2.6 7.2-3.2 10.2h13.2c-0.7-3.2 2.2-10.7-3.2-10.2v-1h10.1v1c-5.4-0.3-2.5 6.2-3.2 13.2 0.7 7.3-2.2 10.7 3.2 11.1v1H58.17163v-1c5.5 1.2 2.5-9.9 3.2-12.6H48.17163v8.9z m34 0c0 3.5-0.1 3.3 3.2 3.7v1h-9.9v-1c5.4 0.3 2.5-6.2 3.2-13.2-0.7-7.3 2.2-10.7-3.2-11.1v-1h9.9v1c-6-1.7-2.2 18.2-3.2 20.6z m32.6 4.7c-5.9-7.1-11.9-14.5-17.9-21.7 1.1 5-3.3 21.3 4.1 20.7v1h-9v-1c6.2 1 2.5-19.1 3.4-21.8-1-1.4-2.2-2.6-4.3-2.6v-1h6.7c5.5 6.8 11.2 13.7 16.7 20.5h0.1c-1.1-4.8 3.2-20-4.1-19.5v-1h9v1c-6.4-1.1-2.3 22.6-3.4 25.3l-1.3 0.1z m16.1-8.5c-0.4 2.5-3.8 6.7 0.1 7.7v1h-6.7v-1c1 0 2.1-0.6 2.6-1.8 1.6-3.3 5.9-15.3 8.9-23.5h2.1c4.2 9.5 5 21.8 10.5 25.4v1h-8.6v-1c4.1 0.2 1-5.3 0.4-7.6h-9.3v-0.2z m8.9-1.4l-3.9-12h-0.1l-4.4 12h8.4z m27.9-24.9c9.8 0.2 29.9-2.3 33.3 9 6.9 25.4-15.7 27-33.4 25.8V601c7.3 0.3 3.4-7.7 4.3-16.6-0.9-10 2.8-15.5-4.3-15.6v-1.3h0.1z m9.1 27.8c-0.2 6.2 3 5.7 8.2 5.4 19.9-3.5 14.2-36.6-8.1-31.5l-0.1 26.1z m34.2 6.1c5.4 0.3 2.5-6.2 3.2-13.2-0.7-7.3 2.2-10.7-3.2-11.1v-1h16.4v6h-1c0.1-5.3-5-5-8.7-4.8V588c2.5 0 6.3 0.7 6.5-3.3h1v8h-1c0.3-3.2-3.5-3.8-6.5-3.5-2.7 16.4 9.1 14.5 11.5 6.4h1l-1.1 6.8h-18.1v-1z m34.1-24.4c-6.8-0.2 2.8 16.4 3.2 20.8 1.2-5.5 11.5-21 4.4-20.8v-1h8v1c-6.7 3.8-8.3 18.4-12.4 25.4h-1.9c-3.6-7.7-5.8-23.9-11.3-25.4v-1h10v1z m21.9 24.4c5.4 0.3 2.5-6.2 3.2-13.2-0.7-7.3 2.2-10.7-3.2-11.1v-1h16.4v6h-1c0.1-5.3-5-5-8.7-4.8V588c2.5 0 6.3 0.7 6.5-3.3h1v8h-1c0.3-3.2-3.5-3.8-6.5-3.5-2.7 16.4 9.1 14.5 11.5 6.4h1l-1.1 6.8h-18.1v-1z m25.6 0c5.4 0.3 2.5-6.2 3.2-13.2-0.7-7.3 2.2-10.7-3.2-11.1v-1h9.9v1c-6-1.8-2.2 18.8-3.2 21.2 0.7 5.4 11.3 3.2 11.5-2.7h0.9l-1.1 6.8h-18.1v-1h0.1z m24.8-12.1c0.7-18.2 25.1-17.9 26.9-2.5 1.5 19.1-26.3 20.9-26.9 2.5z m22.7-0.1c-0.1-17.6-18.8-15-18.4-1.7 0.5 19.6 19.1 16.1 18.4 1.7z m17.5 8.4c0 3.5-0.1 3.3 3.2 3.7v1h-10.1v-1c5.4 0.3 2.5-6.2 3.2-13.2-0.7-7.3 2.2-10.7-3.2-11.1v-1c28.3-3.1 20.4 16 8.5 15v-0.8c10.2 0 8.8-15.3-1.6-13.1v20.5z m24-15.6c1 4-3 19 3.3 19.2v1h-8.3v-1c6.2 0.8 2.5-18.1 3.4-21-0.7-1.7-2.6-3.2-4.3-3.2v-1h7l10.4 20.8 10.7-20.8h6v1c-5.8-2-5.4 27.2-0.5 24.1v1h-10v-1c5.9 1.7 2.2-17 3.2-19.4h-0.1L392.17163 602.3h-0.6l-10-20.3z m35.2 19.4c5.4 0.3 2.5-6.2 3.2-13.2-0.7-7.3 2.2-10.7-3.2-11.1v-1H433.17163v6h-1c0.1-5.3-5-5-8.7-4.8V588c2.5 0 6.3 0.7 6.5-3.3h1v8h-1c0.3-3.2-3.5-3.8-6.5-3.5-2.7 16.4 9.1 14.5 11.5 6.4h1l-1.1 6.8h-18.1v-1z m47.1 0.9c-5.9-7.1-11.9-14.5-17.9-21.7 1.1 5-3.3 21.3 4.1 20.7v1h-9v-1c6.2 1 2.5-19.1 3.4-21.8-1-1.4-2.2-2.6-4.3-2.6v-1h6.7c5.5 6.8 11.2 13.7 16.7 20.5h0.1c-1.1-4.8 3.2-20-4.1-19.5v-1h9v1c-6.4-1.1-2.3 22.6-3.4 25.3l-1.3 0.1z m22.8-4.7c0 3.5-0.1 3.3 3.2 3.7v1h-10.1v-1c6.2 2.1 2.1-21.9 3.2-24.1-3.6-0.4-7.3 0.2-8.6 4.6h-0.9l1-5.8H495.17163l1 5.8h-0.9c-0.9-3.6-4.6-5.2-8.6-4.6v20.4z m37.2-1.5c0 4.6-0.2 4.4 4.3 4.9v1.3h-13.5V601c7.3 0.3 3.4-7.7 4.3-16.6-0.9-10 2.8-15.5-4.3-15.6v-1.3H528.17163v1.3c-8.1-2.4-2.9 24.1-4.3 27.3z m35.8 6.2c-5.9-7.1-11.9-14.5-17.9-21.7 1.1 5-3.3 21.3 4.1 20.7v1h-9v-1c6.2 1 2.5-19.1 3.4-21.8-1-1.4-2.2-2.6-4.3-2.6v-1h6.7c5.5 6.8 11.2 13.7 16.7 20.5h0.1c-1.1-4.8 3.2-20-4.1-19.5v-1h9v1c-6.4-1.1-2.3 22.6-3.4 25.3l-1.3 0.1z m10.3-26.3c38.1-5.3 33.2 31.6 0 26.3v-1c5.4 0.3 2.5-6.2 3.2-13.2-0.7-7.3 2.3-10.7-3.2-11.1v-1z m6.9 21c8.5 18.1 29.4-22.5 0-19.8V597z m32.6-5.5c-1.2 10.3 11.2 12.1 14.2 4.1 0.6-6 2.9-18.4-2.8-18.6v-1h8.8v1c-8.1-0.6 3.9 37.1-21.8 22.1-5.2-5.7 2.1-23.1-5.1-22.2v-1h10v1c-5.7-1.3-2.4 12-3.3 14.6z m39.4-10.2c-1-8.2-12.6-4.2-7.5 2.2 17.2 10.9 10.1 22.2-5.2 17.6-0.5 0.1-0.3-5.3-0.3-5.9h1c2.1 10.6 14.1 4.6 10-1.7-13.4-9.4-15.1-19.9 2.6-17.5 0.5-0.1 0.2 4.6 0.3 5.3h-0.9z m21.6 16.3c0 3.5-0.1 3.3 3.2 3.7v1h-10.1v-1c6.2 2.1 2.1-21.9 3.2-24.1-3.6-0.4-7.3 0.2-8.6 4.6h-0.9l1-5.8h20.7l1 5.8h-0.9c-0.9-3.6-4.6-5.2-8.6-4.6v20.4z m14.5-21.6c14.1-2.1 25.9 4.4 13.1 14.1l3.6 5.6c1.9 2.7 3.9 5.4 5.2 6.2v0.5c-7.1 0.7-5.4-1.7-11.6-11.7h-3.5c0.7 3.4-2.3 11.2 3.2 10.7v1h-10v-1c5.4 0.3 2.5-6.2 3.2-13.2-0.7-7.3 2.2-10.7-3.2-11.1V576z m6.8 13.5c10.7 2.1 10.3-14.5 0-12.2v12.2z m26.9 8.1c0 3.5-0.1 3.3 3.2 3.7v1h-9.9v-1c5.4 0.3 2.5-6.2 3.2-13.2-0.7-7.3 2.2-10.7-3.2-11.1v-1h9.9v1c-6-1.7-2.2 18.2-3.2 20.6z m16.8-3.8c-0.4 2.5-3.8 6.7 0.1 7.7v1h-6.7v-1c1 0 2.1-0.6 2.6-1.8 1.6-3.3 5.9-15.3 8.9-23.5h2.1c4.2 9.5 4.9 21.8 10.5 25.4v1h-8.6v-1c4.1 0.2 1-5.3 0.4-7.6h-9.3v-0.2z m8.9-1.4l-3.9-12h-0.1l-4.4 12h8.4z m14.4 9c5.4 0.3 2.5-6.2 3.2-13.2-0.7-7.3 2.2-10.7-3.2-11.1v-1h9.9v1c-6-1.8-2.2 18.8-3.2 21.2 0.7 5.4 11.3 3.2 11.5-2.7h0.9l-1.1 6.8h-18.1l0.1-1z m50.5-33.9c14.4-1.2 15 12.5 4.6 16v0.1c10.3 0.2 12.3 12.9 4.8 17.1-5 3.1-16.8 1.3-21.7 1.7V601c7.3 0.3 3.4-7.7 4.3-16.6-0.9-10 2.8-15.5-4.3-15.6v-1.3h12.3z m-3.1 15.8c13.4 2.4 13.7-16.6 0-14.2v14.2z m0 11.8c4.5 18.9 23.8-12.1 0-10.3v10.3z m30.8-1.3c-0.4 2.5-3.8 6.7 0.1 7.7v1h-6.7v-1c5.4-2 7.5-16.6 11.6-25.3h2.1c4.2 9.5 5 21.8 10.5 25.4v1h-8.6v-1c4.1 0.2 1-5.3 0.4-7.6h-9.4v-0.2z m8.9-1.4l-3.9-12h-0.1l-4.4 12h8.4z m38.1 9.9c-5.9-7.1-11.9-14.5-17.9-21.7 1.1 5-3.3 21.3 4.1 20.7v1h-9v-1c6.2 1 2.5-19.1 3.4-21.8-1-1.4-2.2-2.6-4.3-2.6v-1h6.7c5.5 6.8 11.2 13.7 16.7 20.5h0.1c-1.1-4.8 3.2-20-4.1-19.5v-1h9v1c-6.4-1.1-2.3 22.6-3.4 25.3l-1.3 0.1z m13.5-21.6c0-3.5 0.2-3.3-3.2-3.7v-1h10v1c-5.3-1-2.6 8.2-3.2 11.1 1.5 0.1 15.7-12.1 8.4-11.2v-1h6.9v1c-2.2 1.1-9.6 9.3-11.7 11.2 3.9 4.2 9.4 11.4 13 13.6v0.6c-6.6 2.3-11.8-9.5-15.7-13.2h-0.8c0.8 3.4-2.5 12.8 3.2 12.2v1h-10v-1c6 1.8 2.2-18.2 3.2-20.6h-0.1z m47.9 15.4c0 4.6-0.2 4.4 4.3 4.9v1.3H936.17163V601c7.3 0.3 3.4-7.7 4.3-16.6-0.9-10 2.8-15.5-4.3-15.6v-1.3h13.5v1.3c-8.1-2.4-2.9 24.1-4.3 27.3z m35.8 6.2c-5.9-7.1-11.9-14.5-17.9-21.7 1.1 5-3.3 21.3 4.1 20.7v1h-9v-1c6.2 1 2.5-19.1 3.4-21.8-1-1.4-2.2-2.6-4.3-2.6v-1h6.7c5.5 6.8 11.2 13.7 16.7 20.5h0.1c-1.1-4.8 3.2-20-4.1-19.5v-1h9v1c-6.4-1.1-2.3 22.6-3.4 25.3l-1.3 0.1z m35.9-7.1l-1.1 4.7c0 0.8-0.7 1-1.7 1.3-30.2 8.5-28.4-33.4 0.2-24.7 2.1 0 1.4 4.8 1.5 6.3h-1c0.3-5-7.2-7.9-13.1-5-15.9 11.3 4.7 34.7 14.2 17.5h1v-0.1z m5.3 3.6c3.2 0 0.8 6.6-1.8 1.8 0.1-0.6 0.2-1.1 1.8-1.8zM678.97163 537.6c1-0.8 6.1-3.4 8.5-7-4.6-4-6.1-10-11-11.1-0.3 4.9 0.8 11.5 2.5 18.1z m-2.5-20.8c12.9 1 28-11.3 17.4 11.5 5 5.1 19 7 18 11.1-10.7 3.2-13.1 0.4-22.1-6.7-2.8 2.3-6.8 4.4-10.5 5.8-2.7 16.1-10.1-7-14.6-9.4 10.1 7.1 8.6 4 8.1-7-2.7 1.3-2.6 6.8-8.5 3.6-0.3 1.9-7.9 16.7-8.8 13.3 4.1-11.1 9.3-29.7 5.9-42 21.6-9.1 18.3 1.9 15.3 19.3-0.2 0.1-0.2 0.3-0.2 0.5z m-418.9-14.2c0.6-0.3 1.3-0.7 3.5-2.1 2.6-1.9 8.1-22.1 10.1-6.1 0.4 1.1 3.5-0.7 3.4 2.2-2.4 1.7-7.1 0.4-10.1 4.1 0 0.6 2.5 3.4-0.8 4.1 0 1.4 0 1.7-0.3 4.4 6.6 1.6 3.8-14 9.8-1.8 8.5 1.3-1.9 0.6-2.7 7.6 4 0.7 8.6-0.9 13.2 0.8 4 3.8-19.1 1-21 3.1 0 1.2-0.1 2.1 0 4.8 19.4-0.7 16.5 1.5 0.1 3.1 1.9 26.3-5.5 28.4-4.3 0.9-15.2 3.1-17.6 0.2 0-3.2v-5.2c-3-0.9-25.4 8.1-21.9 1.4 4.7 0.2 8-1.3 14.3-2.6l-0.1-0.1c1.5-5.9-5.6-1.3-8.4-4.7-1-3.3 6-0.1 6.6-3.2 0.7-0.8-0.6-5.3 2.9-3.8 0 0 0.1-0.1 0.2-0.1 0.5-0.4 1.4-1.1 2.2-1.7-1.9 0.1-0.9-6.2-4.5-4.3-1.9 3.1-7.7-1.9-2.3-1.2 0.5-0.5 2.4 0 3.3-1.8-7.3-12.8 7.2-4.4 6.8 5.4z m-4.6 4.3c1.2 2.1 1.9 3 6.4 2.3-0.3-1.3 0-0.7-0.8-3.5-1.6 0.3-2.6 0.7-5.6 1.2z m6.4 4c-3 0.6-5.3 3-2.4 6 0.7-0.2 1.4-0.3 2-0.5 0-1.7 0.3-4.4 0.4-5.5z m7.1 4.8c-1.3-3.8 4.1-2.7-3.1-5.9 0 1.6-0.2 2.7-0.3 6.1 0.8 0 1.3 0 3.4-0.2z m101.2-0.6c8.1-1.7 10.1-6.7 7.4 5.3-0.7 1.8-7.4 3.7-6.7 6.2 11.6-4.8 3.3 3 13.8-0.9-0.9-2.7 0.7-9.7-2.1-13.2 2.1 0.1 3.9 1.3 5.3 4.5 1.5 0.3 2.9-2.2 4.6 1.1-0.7 3.5-5.7 0-5.2 6.7 12.4-1.8 6.7-0.9 1.6 6.4 4.4 1.7 13.8 4.5 10 11.1-8.4 5.5-5.6-18.1-21.5-1.4 1.6 8.8-13.4-3.4-12.2-3.2-0.6-0.4-0.5-0.5-2.3-1.7 1.2 0 7 3.3 9.5 2.4 3-17.2 1.3-6.6-8.3-6.4-2.7-3.2 5-5.4 4.7-8.5-1.7 2.2-9.5 1.1-5.5-0.9 7.4-0.6 19.1-7.4 5.4-5.8-4.4 2.5-16.3 16.3-15.6 11.6 3.9-4.3 15.1-12.9 14.5-15.5-8.6-7.7-1-6.3 4.1-3.3 0.1-1.2 6.4-5.3 2.1-7.5-14.5 4.9-9.9-0.2-0.7-7.9 1.6-1.6 7.8 4.7 8.1 9 4.3 0.3 17.2 4.4 13.8-4.4-5 3.6-18.6 6.4-5.6-2.9 1.2-6.5 2.5-1.6 6.1 0.1 10.1 0.9 0.8 7.8-4 10.5 6 8.3 38 21.2 10.7 17.5-17.5-15.1-14.3-27.7-32-8.9z m54.8 11.7c9.9-0.7 19.5-4.2 12.7-12.9-3-0.8-9.7-2-5.4-4.8 5.3 0.5 25.2-8.4 20.5 1.1-2.1 1.4-6.8 0.8-6.5 2.9 2.5 1.4-1.2 9.8 2.1 9.1 8.8 0.9 14.7-4.8 19.3 0.3 4.7 7-8.1 1.6-14.7 3.8-4.8 1.5-41.8 10-28 0.5z m85.9-31.9c-0.8-0.2-2.1-0.9-4-1.1 5.9-4.7 10.5 2.4 4 1.1zM479.17163 506.3c-14.2-1.4 4.7-3.2 8.9-5.4 1.7-1.9 0.5-5.8-0.9-8.1 3.6-4.2 6.9 3.6 5.3 7.7 0.4 0 0.6-0.2 2 0.2 2.1-1 0.9-2.5 1.3-5.9-1.6-11.5 9.5-1.8 6 4.4 3.6 0.3 9.8-1.9 14 0.2 0.5 1.6-0.4 3.1-3.6 1.6-4.5-0.6-10.6 0.9-14.4 3.2-3.3-2.4-13.7 0.5-18.6 2.1z m2-7.6c-4.2-2.5 5.4-4.7 3.5 1.1-0.9 2.2-1.3-1-3.5-1.1z m9.3 7.9c3.8 3.2-4.7 6.2-6.2 1.5 0.8-1.7 2.2-0.4 6.2-1.5z m9.4 0.7c1.5-6.8 12.4-0.3 3.8 0.9-0.1 0.4-5.1 1.1-3.8-0.9z m15 26.3c2.9 0.7 0.5 9.7-2.9 6.4-6.7-8.7-9.1-12.5 2.9-6.4z m-32 2.2c0.4-0.1 0.7 0.1 0.7 0.1l0.2 0.5c-0.1 10.4-14.4-2.5-0.9-0.6z m27.8-10.9c-20.6-1.7-5.4 11.3-14.5 20-5.2 5.3-4.2-1.6-9.5-4.5-2.5-1.4-0.1-0.9 2.8-0.9 5.5 2 3.8-9.9 3.6-11.5-2.1-0.7-8.9 3.7-13.9 1.6-8.5-5.9 11.7-2.2 13.7-5.9 0.9-5-3.8-0.6-7.3-1.3-8.1-1.5 5-3.9 7.1-4.2-0.2-0.6 0.2-0.6-0.8-2.4-0.9 0.6-13.4 2.4-7-2.5 3.4 0.1 25.6-6.2 20.8-0.3-2.1 0.2-14.4 1.4-5.1 3.4 2-0.2 4.1-1.4 4.6 1.6-1.1 1.7-3.8 0.1-6 1.8 0.1 1.1-1.1 4.2 2.3 3 3.6-2.3 19.9-1 9.2 2.1z m213.7-14.4c6.1-4.8 5.9-17.3 11.8-9.6 6.3 8.4-15.8 17-19.5 19.1-1-1 6-6.1 7.7-9.5z m4 8.6c-1.2-20.2 8.6 27.4 0.6 21.8-5.7-6.5-0.7-14.4-0.6-21.8z m40.5-6.5c4.6 0.6 7.5 10.6 0.9 9.2-1.7-5.1-14.1-12.7-0.9-9.2z m-25.4-6c5-4.1 2.7-9 5.6-12.7 9.6 1.7 5.3 9.4 0.8 14.1 0.8 1.2 8.9 0 3.2 6.6-0.9 1.1-3.1 2.6-0.3 2.2 15.3-3.9 7.3 19.5 1.7 24.4-4.7 3.6-14.1-5.7-16.8-9.1 16.9 11.3 21.2 0 17.2-13.3-3.4-2.1-11.3 6.2-12.9 2.9-1.2-0.9 11.7-10.5 7-9.2-11.8 6-12.9 1.9-5.5-5.9z m98.1-7.8c-6.5-2.1 18.6-14.3 10.1 3.2 2.1 26.4-5.3 10-7.8 18.2-2.1 7.9 2.2 24.6-3.3 22.4-2.9-10.8 0.3-60 4.6-28.9 5.6-0.5 2.6-6.4 2.3-11.1-0.2-5.4 0.9-6.3-5.9-3.8z m49.5 36.5c-2.2 3.4-13.1 4.9-16.9-1.1-22.8 22.8-19.7 0.4-17.3-16.3 0.5-3.4-2.2-30.1 5.1-15.5 1.4 0.5 5.8-0.8 8.3-1.9 2.6-13.8-9.3 1.7-11.9-5.4 21.2-5.4 21-2.4 14.3 17.7-2.6 2.6-9.1-1.7-10.1 4 0.7 0.6 2.7 1.8 4.6 3 17.4-13.6 19.6-9.4 2.5 1.4 3.4 3.4 16.6 12 21.4 14.1z m-28.8-13.5c-0.1 0-0.3 0-0.5-0.1-0.1 0.4-0.1 0.8-0.2 1.2 0.3-0.2 0.8-0.5 1.3-0.9-0.3-0.1-0.5-0.2-0.6-0.2z m2.7-17.5c-0.6 0-2.3 1.3-2.8 2-1.9 9.5 8.2 5.9 7.6-2.5-0.8-0.3-3.2 0.5-4.8 0.5z m6.4 28.7c0.4-0.2 0.9-0.4 1.5-0.7 0-0.1-0.1-0.1-0.1-0.2-2.2-2.9-5.2-6.7-7.4-8.4-5.8 0.5-10.7 21.7 6 9.3z m39.2-12.9c5.6-2.8 8.2-14.5 11.4-10.3 4.5 6.2-17.9 15.1-16.5 20.6 1.7 2.3 2.5 0.9 6.7 0.8 29.5-1.7 3-11.3 16.8-9.4 6.6 2.9 9.3 15.4 0.8 13.8-1.3-2.8-2.8-5.4-4.2-4.3-21.1 7.7-34.1 7.1-15-11.2z m3.7-19.8c2.6 7.7-11.4 13.5-11.3 4.3 2.4-3.4 12.1-14.7 11.3-4.3z m16.1 8.4c-2-2.1-10-13.3-0.5-10.1 4.6 3 9.2 9.8 0.5 10.1z m24.7-3c23.3-7.5 1.4 14.9-4.2 0.8 0.3-1.4 2.9-0.6 4.2-0.8z m29.8 25.4c1.5 6.9-3.3 15.3-9.6 13.6-1-2.2-2.9-5.8-6.7-7.7 1.6-0.9 6.5 1.4 8-1.7h-0.2c3.4-69-12.3-22.2-24.6-39.1 44.5-12.7 28.7 7.3 32.9 34.8l0.2 0.1z m-14.9-3.5c5.7 4.3-18 7.3-20 6.4-0.4-4.6-9.3-20.4-0.2-15.6 8.6-0.2 28.6-8.2 20.2 9.2z m-13.5 1c1 0 3.7-0.3 6.3-0.6 11.8-21.3-22.1 0.4-6.3 0.6z m-375.6 4.9c11.3 4.2-6.9 7-12 1.9-5.9 4.5-17.2 15.7-19.4 2 2.9-10.3 1.1-26.7 3.4-37.5 2.9-2.4 2.1 4.8 5 3.8 1.6-0.7 8.5-2 4.6 0.9-10.3 2.3-4.6 12.4 1.5 4.6-0.5-4.1 3.5-11.2-0.2-14-33.6 11.5 21.5-21.6 5.3 16.2-0.8 1.6-1.1 3.7-4.2 2.3-11-2.6-13.8 17.2 2.4 2.5 2.6-1.6 7.4-8.8 5.3 0.5-2.7 0.9-9 4-11.6 5.5 5.2 3.3 13.1 9.4 19.9 11.3z m-19.3 2.3c1.5-0.8 5.3-2.2 5.3-2.2-15.2-21-16.4 10.5-5.3 2.2z m-18-36.4c7.6 1.4 7.2 8.5-1 3-1.4 0-5.7 5.6-6.2 5.9 0.8 0.7 12.9-3 6.2 1.8-1.8 0.9 2.5 3.7 4.1 3.9-4 1.6-5.1 12.2-1.8 15.8-0.2 5.5-17.8 12.5-15.2 3.7 10.2 0.5 10.1-9 8.1-15.9-10.7 3.9-9.1-2.5 0.3-2.6 2.1-9.6-9.9-0.1-12.7-2.6 15.8-16.4 12.8-23.1 18.2-13z m2.5 19.7c1.9-1.6 4.2 2.8-0.3 2.8-2.3 0.6-1.6-0.2 0.3-2.8z m-13.9 4.8c6.4-0.6 2.6 11.1-0.7 0.1 0.1-0.1 0.7-0.1 0.7-0.1z m89.2-28.5c27.9-10.4 12.4 16.5-2.1 3.6-1-1.2-0.2-3 2.1-3.6z m-15.2 0.5c17.2 5.7-18.2 20.4-6.4 7.1 3.8-2.9 1.7-5.2 6.4-7.1z m10.1 15.9c3.6-1.1 39.2-12.1 29.6-3.1-4.3-0.5-10.4-0.1-14.8 2.1 9.9 6.2 5.7 48.2-7.4 24.9-1.5-3.3 4.5 1.5 5.4-0.9 1-6.4 1.5-18-2.1-23.2-3.7-0.9-11.8 6.7-14 0.5 0.6-0.5 1.1-0.9 3.3-0.3z m-9.4-1.5c10.5 2.5-1.8 9-6.1 11.9 10.4 10 2.1 26.6-0.3 12.1 2.3-22-5.4-4-14.7-5.1 6.4-6.4 14.8-11.1 21.1-18.9z m-231.8 18c-1.8 11.5-1.6 13.2 7.4 3.1 10.1-10.2 0-2.2-7.2-3.5 0.2 0.2-0.1 0.5-0.2 0.4z m-146-21.6c0.1 2.5-2.7 16.6-9.1 13.8-1.4-1.1-4-2.7-6.6-1.7-0.8 35.7-6.9 35.9-6.8 0.7-14.7 2.8-8.4 10.6-17-14 2.7-1.7 11.8-0.6 17.4-2.2 1-4.5-4.7-11.4 1.5-13.9 6.4 3.1 5.3 3.3 4.8 13.1 3.8 0.8 8.7-1.3 13.1 0.1 0.1 0.4 2.5 3.5 2.7 4.1z m-23.8 8.6c0.3 0 0.7-0.1 1.2-0.2 0.1-2.2 0.2-5.1 0.3-8.5-8.1-0.3-15.2 11.5-1.5 8.7z m16.9-4.7c2.4-5.5-4.3-5.5-9.2-5.1 0 1.8-0.1 5.3 0.1 8.6 4.8-0.8 8 2.8 9.1-3.5z m89.4-12.1c-2.4 11.7 3.4 15.7-11.8 16.5-1.6 3.5 4.5 40-3.8 20.8 2.9-8.5-0.3-27.1 0.8-34 2.9 1.7 5 5.2 8.5 1 2.2-9.1-5 0.6-8.3-3.6 2.3-1.2 14.1-7.3 14.6-0.7z m-6.3 10.3c1.8-7.4-7.6-0.8-5.5 4.2 1.8-0.2 6-0.2 5.5-4.2z m20.3-14.1c16.3-6.2 10.9 5.8 11.7 16.8 0.9 11.2 6.6 46.9-11.8 26.3 7.2 0.5 8.1-3.9 6.3-13.9-1.7-6 1.3-12.9-1.5-15-8.6 2.4-10.1 5.8-10-5.5-2.1-12 0.7-1.8 8.4-4.2 0.9 0 1.3-0.3 1.6 1.6-0.9 1.1-11.4 3.5-4.9 6 7.9 1 7.5-6.5 4.2-10.8-1.4 0.8-10.4 1.8-4-1.3z m1.2 23.4c3.5-0.6 2 2.2-2.1 1.8l-0.4 0.4c-0.2 2.5 0.8 20.7-4 10.1-1.2-13.5 3-6.9-6.4-8.6-3-1.3-5.4 17.3-8.9 9.2-1.1-1.5 1.5-1.4 1.6-4.1-0.9 1.1-9.3-1.9-4.5-3.6 1.4-0.6 7.1 0.1 6.1-3.8-11.2-2.3 8.9-10.3 3.5 1 0.5 0.1 0.9 0.2 2.1 0.9 1-1.4 8.5 0.1 5.3-4.4-8.1-0.8 1.2-4.4 4.8-3.4 0.7 0.6-3.9 7.5 2.9 4.5z m498-16.7c5.6 6.4-17.3 2.6-21.3 5.2-0.7 1.1-1.5 3.1-3.7 5.2 20.9-7.7 17.9-3.2 17.9 15.4-1.5 8.6 5.6 15.2-2.3 18.5-15.2-18.3 0.6 2.7-2.3-17.3-3.5-0.1-7.7 0.2-12.1 1 0.8 4.3 0.3 18.4-4.3 7.5 0.2-7 2.5-14.1 2.4-22 0.1-0.5-0.3-1.2 0.2-2.5-5.4 4.6-10.3 9.8-14.4 10.9 4.6-5.6 7.4-7.6 10.8-14.6-0.1 0-0.2 0-0.3 0.1-20.3 2.7-8.9-4.5 2.9-5.1 1.6-2.3 2.6-8.7 1.6-11 2.6-4.7 8.5 4.7 5.5 9.4 5.6 0.1 14.9-2.2 19.4-0.7z m-11.8 22.1V519c-3.6-0.2-7.3 1.3-11.5 3.2-0.1 0.9-0.3 1.8-0.4 2.7 2.5-0.1 7.9-0.9 11.9-1.4z m-10.4-8.2c0 0.1-0.1 0.5-0.1 1 3.6-0.2 5.8-0.9 10.6-1.6 1.7-5.8-9.5-5-10.5 0.6z m-132.8-19.4c-7.7 8 7.6 12.1 2.9-0.1-0.2-0.3-1.7-0.6-2.9 0.1z m-2.1 23.6c0.9-0.4 3.7-2.1 5.2-3.1 0.1-1.5 0.3-4-0.2-6.3-4-1.5-6.5-3.7-6.1 2.1 0.2 3.9-3.4 10.2 1.1 7.3z m23.5 5.9c5.3-12.1 2.2-9.2-7.1-6.6 1.8 1.4 4.2 5.3 6.9 7.2 0-0.2 0.1-0.4 0.2-0.6z m9.3-20.1c1.1 3.3-8.9 6.1-10.9 2.4-1.4-3.4 3.4-9.9-3.1-8.6-3.3 23-4.3 15.8-2.8-1.3-2.2-3.9 1.3-4.6 3.5-0.5 7.2-2.8 14.3-7.6 8.1 5.2 0 1.9 3.9 0.1 5.2 2.8z" fill="#0089AC"></path></svg>