<svg viewBox="0 0 1024 1024" version="1.1" xmlns="http://www.w3.org/2000/svg"><path d="M224 0h576c123.6 0 224 100.4 224 224v576c0 123.6-100.4 224-224 224H224c-123.6 0-224-100.4-224-224V224C0 100.4 100.4 0 224 0z" fill="#FFFFFF"></path><path d="M819.2 236h-283.6c-9.2 0-16.8 7.6-16.8 16.8v213.2h-14V252.8c0-9.2-7.6-16.8-16.8-16.8H204.8c-9.2 0-16.8 7.6-16.8 16.8v510.4c0 9.2 7.6 16.8 16.8 16.8h283.6c9.2 0 16.8-7.6 16.8-16.8v-37.2l14-0.4v37.6c0 9.2 7.6 16.8 16.8 16.8h283.6c9.2 0 16.8-7.6 16.8-16.8V252.8c-0.4-9.2-8-16.8-17.2-16.8zM476 468.4h-21.6L434 304l-141.6-2.8L344 639.6h86.4l12 89.2 33.6-0.8v17.6c0 5.6-4.8 10.4-10.4 10.4H222.4c-5.6 0-10.4-4.8-10.4-10.4V274.4c0-5.6 4.8-10.4 10.4-10.4h243.6c5.6 0 10.4 4.8 10.4 10.4l-0.4 194z m336 281.2c0 5.6-4.8 10.4-10.4 10.4h-243.6c-5.6 0-10.4-4.8-10.4-10.4v-18.8l37.2-0.8 12-84.8h83.6l45.6-338.4-133.2 2.8-24.4 163.2H548V278.4c0-5.6 4.8-10.4 10.4-10.4h243.6c5.6 0 10.4 4.8 10.4 10.4v471.2h-0.4z" fill="#E50113"></path></svg>