<svg viewBox="0 0 1024 1024" version="1.1" xmlns="http://www.w3.org/2000/svg"><path d="M257.6 402H141.9c-3.7 0-6.8 3.1-6.8 6.8v86.4h-5.7v-86.4c0-3.7-3.1-6.8-6.8-6.8H6.8c-3.7 0-6.8 3.1-6.8 6.8v206.9c0 3.7 3.1 6.8 6.8 6.8h115.8c3.7 0 6.8-3.1 6.8-6.8v-15.1l5.7-0.1v15.3c0 3.7 3.1 6.8 6.8 6.8h115.8c3.7 0 6.8-3.1 6.8-6.8v-207c-0.1-3.7-3.2-6.8-6.9-6.8z m-138.8 93.3H110l-8.3-66.8-58.1-1.1 21 137.5H100l5 36.2 13.8-0.3v7.2c0 2.3-1.9 4.2-4.2 4.2h-100c-2.3 0-4.2-1.9-4.2-4.2V416.6c0-2.3 1.9-4.2 4.2-4.2h100.1c2.3 0 4.2 1.9 4.2 4.2v78.7z m135.3 112.6c0 2.3-1.9 4.2-4.2 4.2H149.8c-2.3 0-4.2-1.9-4.2-4.2v-7.7l15.3-0.3 5-34.5h34.3L219 427.9l-54.8 1.1-10 66.2h-8.7v-78.6c0-2.3 1.9-4.2 4.2-4.2h100.1c2.3 0 4.2 1.9 4.2 4.2v191.3z" fill="#E50113"></path><path d="M964.1 462.4h56.8V474h-15.5v43c0.8 6.1-5.7 9.1-19.6 9.1-0.5-5.2-2-9.7-4.5-13.2 7.6 0.5 11.2-0.4 10.6-2.9v-36h-27.8v-11.6z m-11.4 11.8v51.1h-13.1v-38.6c-1.9 2.2-4.2 4.7-6.9 7.5l-9-8.3c10.8-8.9 20.2-19.9 28.2-32.9 8.2 4.2 12.3 6.7 12.3 7.5 0 0.3-0.3 0.7-0.8 1.3-3.1 2.7-6.6 6.8-10.7 12.4z m17.4-28.1v-11.2h43.9v11.2h-43.9z m-44.7 9.7c9.9-7.6 18.3-16.8 25.1-27.8 0.8 0.6 2.6 1.4 5.4 2.5 5.8 3.1 8.5 4.8 8.2 5.1 0 0.3-0.4 0.8-1.2 1.7-1.4 0.8-2.7 2-4.1 3.4-8.5 9.5-16.5 17.4-23.9 23.6-2-2.4-5.1-5.2-9.5-8.5zM884 481.4h-11.2c0 0.3 0.1 0.7 0.4 1.3 0.8 4 1.9 7 3.2 9 3.2-3.1 5.8-6.6 7.6-10.3z m-22.3 0h-3.6v25.8c4.7-2.3 7.9-4 9.5-5.2-3.4-7.7-5.3-14.6-5.9-20.6z m-3.5-10.3h18.9v-7.8h-18.9v7.8z m0-18.1h18.9v-7.8h-18.9v7.8z m-13.1 52v-71h45v47.3H886c3 2.5 5.3 5 7 7.5 2.4 2.2 2.4 3.6 0 4.1-0.8 0.3-1.4 0.5-1.6 0.8-3.3 2.2-6.3 4.6-9 7 4.4 4.7 9.5 8.3 15.5 10.8-3.3 2.8-6.7 6.8-10.2 12l-1.2-1.2c-9-6.6-14.9-12.7-17.6-18.3 0.3 1.1 0.4 2.5 0.4 4.1 0 1.9 0.1 3.5 0.4 4.6-7.4 3.6-13.8 7.3-19.2 11.2-1.6 1.4-2.7 2.1-3.3 2.1-1.1-0.8-3.1-5.4-6.1-13.7 0-0.5 0.4-1.2 1.2-2.1 1.8-1.4 2.8-3.3 2.8-5.2z m-19.9-64.4h16.2v10.9h-20.7c-1.6 4.5-2.7 7.4-3.3 8.8H841v10.9h-12.2v8.8h13v10.9h-13v12.2c1.1-0.8 3-2.2 5.7-4.2 3-2.2 4.6-3.3 4.9-3.3 0.8 3.1 1.5 6.4 2 10.1-7.3 5.6-13.8 11.2-19.5 16.8-1.9 2-3.1 2.9-3.6 2.9-1.3-1.4-3.5-5.5-6.5-12.2 0-0.3 0.5-1.1 1.6-2.5 2.2-2.5 3.2-4.3 3.2-5.5v-14.3h-14.2V480h14.2v-8.8h-4c-0.3 0.6-0.7 1.4-1.2 2.5-0.6 1.4-1 2.4-1.2 2.9-1.3-1.4-4.3-3.6-8.9-6.7 0.3 0.3 0 0.1-0.8-0.4 5.4-9.2 9.7-21.3 13-36.1 0.5-2.8 1-4.3 1.2-4.6 2.7 0 7.2 1 13.4 2.9 0.3 0.3 0.1 1.1-0.4 2.5-1.1 2.1-1.9 4.2-2.5 6.4z m-68.7 42.7v5h-38.2v-3.8c-1.6 1.7-4.7 3.8-9 6.3-1.6-3.6-4.2-6.9-7.8-9.7 15.9-7.3 25.9-16.1 30-26.5 4.4 0.6 8.8 1.7 13.1 3.4 0.3 0.3-0.3 1-1.6 2.1 7.9 7.3 17.9 12.6 30 16-3 3.6-5.2 7.8-6.6 12.6-3.9-2.2-7.2-4-9.9-5.4z m-9.7-25.5V451h-18.6v8.9h-12V451h-10.4v-11h10.4v-9.3h8.3c3.3 0 4.8 0.3 4.6 0.8 0 0.3-0.1 0.6-0.4 0.8-0.3 1.1-0.4 2.4-0.4 3.8v4.2h18.2v-9.7h9.1c2.5-0.3 3.7 0 3.7 0.8 0 0.3-0.1 0.7-0.4 1.3-0.3 1.4-0.4 3-0.4 4.7v3h12.9V451h-12.9v6.8h-11.7z m-69.5 43.5l10.8-3.7v-30.2h-9.2v-10.7h9.2v-25.3h7.2c4.8 0 6.9 0.3 6.4 0.8 0 0.3-0.1 0.7-0.4 1.2-0.5 1.7-0.8 3.7-0.8 6.2v17h10.4v10.8h-10.4v26.9c2.7-1.1 5.2-2.2 7.6-3.3 0.3 1.4 0.4 3 0.4 5 0.3 3 0.7 5.2 1.2 6.6-11.5 4.1-20.8 8.3-28 12.4-0.3-0.5-0.5-1.5-0.8-2.9-1.6-5-2.8-8.6-3.6-10.8z m49.1 12h20.7V503h-20.7v10.3z m0.3 8v4.9h-12.3v-32.7H760v32.7h-13.2v-4.9h-20.1z m-0.3-44.2h20.7c-4.7-3.3-8.3-6.5-10.7-9.5-3.4 3.9-6.7 7-10 9.5z m-129.6 32.6h16v-57h-15.6v-11.8h48v11.7h-18.5v57.1h22.2v12.2h-55.8v-6.7c-11.8 1.4-23.2 3.5-34.5 6.3-0.5 0-1.1-0.1-1.6-0.4-0.3-0.8-0.8-3.5-1.6-8-0.8-3.6-1.2-5.5-1.2-5.5s3.6-0.4 10.7-1.3c14.2-1.7 25.1-3.1 32.8-4.2-0.6 3.1-0.9 5.7-0.9 7.6zM574 461.4l8.6-0.4c1.4-1.7 3.4-4.9 6.2-9.6 7.4 3.3 11.6 5.8 12.8 7.5 0 0.6-0.3 1.1-0.8 1.7-1.1 0.8-2.1 1.8-2.9 2.9-9.1 12.2-14.1 19.2-15.2 20.8 1.9-0.3 4.5-0.6 7.8-0.8 3.6-0.3 6.2-0.6 7.8-0.8 0 2.5 0.1 6 0.4 10.4-2.5 0.6-6.6 1.1-12.3 1.7-5.5 0.8-9.5 1.4-11.9 1.7-4.1 0.8-7.9 1.7-11.5 2.5-1.4 0.6-2.1 0.7-2.1 0.4-1.1-5-1.6-9.2-1.6-12.5 0 0 0.4-0.1 1.2-0.4 1.4-0.3 2.6-0.7 3.7-1.2 3.8-0.8 8.1-5.1 12.8-12.9-8.5 0.6-14.3 1.2-17.3 2.1h-0.4c-1.4-3.3-2.5-7.4-3.3-12.1 0-0.3 0.4-0.6 1.2-0.8 1.1-0.3 2.1-0.7 2.9-1.2 3.3-3.1 7.5-12.9 12.7-29.6 1.9 0.3 6.4 1.8 13.6 4.6 1.4 0.6 1.8 1.1 1.2 1.7 0 0.3-1 2-2.9 5-5.8 9.2-9.3 15.7-10.7 19.3z m-106.8 20.9h9.9c2.6-3.9 4.4-7.9 5.6-12.1h-12.5c0.3 0.3 0.7 1 1.3 2.1 2.6 4.4 3.7 6.6 3.5 6.6l-7.8 3.4z m-37-30.9v-10.8h40.2l1.2-11.7c8.5 0.3 12.7 0.6 12.7 0.8 0.5 0.3 0.4 1.4-0.4 3.3 0 1.7-0.3 4.2-0.8 7.5h40.2v10.9h-41.4l-0.8 7.5h34.8v54.3c0 5.3-1.2 8.6-3.7 10-1.9 1.7-7.5 2.6-16.8 2.9-0.6-4.5-1.9-8.9-4.1-13.4h4.1c4.9 0.3 7.1-1.4 6.6-5v-38h-13.5c4.9 2.5 7.2 4 7 4.6 0 0.3-0.4 0.8-1.2 1.7-2.2 2-4 3.9-5.3 5.9h9v9.6h-16v5.8h16.8v10H482v13.4h-12.7v-13.4h-15.2v-10h15.2v-5.8h-14.8v-10h8.2c-1.6-3.6-3.1-6.3-4.5-7.9l8.6-3.8h-16.4v55.1h-12.3v-66h30.3l0.8-7.5h-39z m-91.7 24.8H307v-12h91.3v12.1h-40.5c-3.8 6.9-10.4 17.1-19.7 30.4h4.5c13.1-0.5 22-1.1 26.6-1.7-2.2-3.3-4.9-6.9-8.2-10.8-1.4-2-2.1-3.1-2.1-3.3 1.6-0.8 4.6-2.8 9-5.8 1.9-1.4 2.9-2.1 2.9-2.1 4.6 5.5 12.7 16.8 24.2 33.7 0 0.6-4.8 3.5-14.3 8.7 0 0-0.6-1.1-1.6-3.3-1.4-2.8-2.3-4.7-2.9-5.8-16.1 0.3-30.6 1.7-43.4 4.2-1.4 0.3-4.1 1-8.2 2.1-4.6 1.4-7.2 1.9-7.8 1.6-0.5-1.1-1.2-3.7-2-7.9-0.5-4.4-0.7-7.1-0.4-7.9 4.6-1.4 8.1-3.5 10.2-6.2 5.5-6.8 10.1-15.4 13.9-26z m-17.7-24.9v-12.1h63.7v12.1h-63.7z m669.5 143.4v-31.9h10.7V573l9.3-10.2h12.4l-11.9 12 13.1 19.9h-12.8l-7.7-12.6-2.4 2.6v10h-10.7z m-29.9-31.8l11.5 17.3-0.3-7.3v-10h10.1v31.9h-9.9l-11.5-17.3 0.5 7.3v10h-10.1v-31.9h9.7z m-40 31.8h-10.3l11.5-31.9h10.6l11.5 31.9h-10.4l-1.2-4.2h-10.4l-1.3 4.2z m9.6-11.2l-3.5-11.2-3.4 11.2h6.9z m-40.1 11.2h-16v-31.9h15.6c9-0.1 13.4 2.5 13.3 8-0.1 2.9-1.5 5.2-4.3 6.9 3.5 1 5.4 3.5 5.5 7.3 0.3 6.5-4.5 9.7-14.1 9.7z m-1.6-24.9h-3.9v6h4.7c2.6 0 3.9-1.1 3.9-3.2 0.1-2.1-1.5-3.1-4.7-2.8z m-0.5 12h-3.5v6h4.7c3.3 0.1 4.8-0.9 4.7-3 0.3-2.2-1.7-3.2-5.9-3z m-100 12.9h-10.3l11.5-31.9h10.6l11.5 31.9h-10.4l-1.2-4.2H789l-1.2 4.2z m10.4-11.2l-3.5-11.2-3.4 11.2h6.9z m-55.1-12.3v-8.3h29.3v8.3H763v23.6h-10.6v-23.6h-9.3z m-6.9 6.2v17.7h-6.9l-0.4-3.1c-2.1 2.4-5.4 3.7-9.9 3.7-10.1-0.5-15.3-5.9-15.7-16.3 0.6-11.1 6.2-16.9 16.9-17.3 8.7 0.2 13.8 4.2 15.5 11.9h-10.2c-0.7-2.7-2.5-4-5.5-4-4 0.1-6 3.3-6.2 9.4 0.1 5.8 2.4 8.7 6.9 8.7 2.8-0.3 4.6-1.6 5.5-3.7h-4.8v-7h14.8z m-61.7-14.5l11.5 17.3-0.3-7.3v-10h10.1v31.9h-9.9l-11.5-17.3 0.5 7.3v10h-10.1v-31.9h9.7z m-35.3-0.9c10.6 0.5 16.2 6.1 16.9 16.8-0.5 10.7-6.1 16.3-16.9 16.8-10.8-0.4-16.4-6-16.7-17 0.6-10.5 6.2-16 16.7-16.6z m0 7.8c-4 0.1-6.1 3.1-6.4 8.9 0.2 6 2.4 9.1 6.4 9.2 4.3-0.1 6.4-3.2 6.6-9.2-0.3-6-2.5-8.9-6.6-8.9z m-45 24.9h-10.4v-31.9h10.4v10.7h9.9v-10.7h10.6v31.9h-10.6v-12.3h-9.9v12.3z m-82.5-31.8l11.5 17.3-0.3-7.3v-10H533v31.9h-10l-11.5-17.3 0.5 7.3v10h-10.1v-31.9h9.8z m-40 31.8h-10.3l11.5-31.9h10.6l11.5 31.9h-10.4l-1.2-4.2H473l-1.3 4.2z m10.4-11.2l-3.5-11.2-3.4 11.2h6.9z m-47.9-20.6l11.5 17.3-0.3-7.3v-10h10.1v31.9h-9.9L434 577.4l0.5 7.3v10h-10.1v-31.9h9.8z m-40.5 0l11.5 17.3-0.3-7.3v-10H415v31.9h-10l-11.5-17.3 0.5 7.3v10h-10v-31.9h9.7z m-50.2 18.2v-18.2H354v19.3c-0.1 4.1 1.6 6.1 5.1 5.9 3.4 0 5-2 4.9-5.9v-19.3h10.5v18.2c0.2 9.9-4.9 14.8-15.4 14.5-10.7 0.2-15.8-4.6-15.6-14.5z m-17.9 1.9v11.8h-10.7v-11.6L303 562.9h11.7l5.6 10.7 5.6-10.7h11.5L325.6 583z" fill="#010000"></path></svg>