<svg viewBox="0 0 1024 1024" version="1.1" xmlns="http://www.w3.org/2000/svg"><path d="M282.524098 425.484488h3.896195c0.299707 0 0.699317 0.099902 1.198829 0.199805s0.79922 0.299707 1.098927 0.599414c0.299707 0.199805 0.39961 0.899122 0.39961 1.998049v2.897171c0 1.298732 0.099902 1.998049 0.199804 1.998049 0.199805 0 0.39961-0.199805 0.79922-0.699317 0.099902-0.199805 0.299707-0.39961 0.499512-0.699318l1.098927-1.898146c0.39961-0.699317 0.899122-1.098927 1.298732-1.098927 0.499512 0 0.79922 0.099902 1.098926 0.499512 0.199805 0.299707 0.299707 0.79922 0.199805 1.398635-0.099902 0.499512-0.499512 1.198829-0.999024 1.998048-0.599415 0.79922-0.899122 1.298732-1.098927 1.598439-0.199805 0.299707-0.699317 0.79922-1.498536 1.698342-0.79922 0.899122-1.598439 1.298732-2.297757 1.198829-0.699317-0.099902-1.298732-0.39961-1.498536-1.098927-0.299707-0.699317-0.39961-1.498537-0.39961-2.497561v-3.796292l-0.099902-0.999025c0-0.199805 0-0.299707-0.099903-0.499512 0-0.199805-0.199805-0.199805-0.499512-0.199805H283.223415c-0.299707 0-0.39961 0.099902-0.499513 0.299708 0 0.199805-0.099902 0.299707 0 0.499512v0.499512c0 0.699317-0.099902 1.498537-0.199804 2.497561-0.099902 0.899122-0.699317 2.397659-1.598439 4.395707-0.999024 1.998049-1.998049 2.897171-2.997074 2.797269-0.299707 0-0.599415-0.199805-0.899122-0.39961-0.299707-0.299707-0.39961-0.699317-0.199804-1.298732 0.099902-0.199805 0.299707-0.699317 0.799219-1.398634s0.899122-1.298732 1.098927-1.798244c0.299707-0.499512 0.499512-1.198829 0.799219-2.197854 0.299707-0.999024 0.39961-1.898146 0.39961-2.89717s0.099902-1.798244 0.199805-2.397659c0.199805-0.79922 0.999024-1.198829 2.397659-1.198829z m-6.993171-4.096v17.882536c0 0.39961-0.099902 0.699317-0.39961 0.899122-0.299707 0.299707-0.599415 0.39961-0.999024 0.39961s-0.79922-0.099902-0.999025-0.39961c-0.299707-0.299707-0.39961-0.599415-0.399609-0.899122v-14.286048c-0.79922 0.79922-1.398634 1.298732-1.798244 1.398634-0.39961 0.099902-0.79922 0-1.098927-0.199805s-0.499512-0.499512-0.599415-0.79922v-0.799219c0.099902-0.299707 0.39961-0.699317 0.899122-1.298732 0.499512-0.599415 1.198829-1.398634 1.998049-2.497561 0.79922-0.999024 1.498537-2.097951 2.097951-3.29678 0.599415-1.198829 0.899122-1.798244 1.198829-1.898147 0.199805-0.099902 0.499512-0.199805 0.699317-0.199805 0.099902 0 0.39961 0.099902 0.79922 0.299708 0.39961 0.199805 0.599415 0.499512 0.599415 0.899122s-0.099902 0.79922-0.299708 1.198829c-0.199805 0.699317-0.79922 1.898146-1.698341 3.596488z m8.791414-6.293854v-8.092097c0-0.39961 0.099902-0.79922 0.39961-1.098927 0.299707-0.299707 0.599415-0.499512 0.999025-0.499512s0.699317 0.099902 0.999024 0.399609c0.299707 0.299707 0.39961 0.699317 0.39961 1.098927v8.092098h1.798244c0.499512 0 0.79922-0.099902 0.999024-0.299708 0.199805-0.199805 0.299707-0.599415 0.299707-1.398634v-4.096c0-0.499512 0.099902-0.899122 0.299708-1.198829 0.199805-0.299707 0.499512-0.499512 0.799219-0.599415 0.299707-0.099902 0.599415 0.099902 0.999025 0.39961 0.299707 0.299707 0.499512 0.79922 0.499512 1.398634v4.295805c0 0.899122-0.099902 1.598439-0.299708 2.197854-0.199805 0.599415-0.39961 0.999024-0.599414 1.298731-0.199805 0.299707-0.699317 0.499512-1.198829 0.79922-0.599415 0.199805-1.198829 0.299707-1.798244 0.299707H282.22439c-1.098927 0-1.998049-0.299707-2.697366-0.899122-0.699317-0.599415-1.098927-1.398634-1.098926-2.497561v-5.594536c0-0.39961 0.099902-0.79922 0.399609-1.098927 0.299707-0.299707 0.599415-0.499512 0.899122-0.499512 0.39961 0 0.699317 0.099902 0.999025 0.39961 0.299707 0.299707 0.499512 0.699317 0.499512 1.198829v4.395707c0 0.299707 0 0.599415 0.099902 0.899122 0.099902 0.299707 0.199805 0.39961 0.299708 0.599415 0.199805 0.099902 0.499512 0.199805 0.999024 0.199805h1.698341z m-9.690536-9.690536c0.199805 0 0.39961 0 0.699317 0.199804 0.299707 0.099902 0.499512 0.299707 0.599415 0.599415 0.099902 0.299707 0.099902 0.599415 0.099902 0.899122-0.199805 1.698341-1.098927 3.896195-2.597463 6.693463-1.498537 2.797268-2.497561 3.896195-3.196878 3.196878-0.699317-0.599415-0.999024-1.198829-0.899122-1.698341 0-0.199805 0.099902-0.499512 0.199804-0.599415 0.099902-0.199805 0.299707-0.499512 0.599415-0.899122s0.699317-0.999024 1.298732-1.898146c0.499512-0.899122 0.999024-1.698341 1.298732-2.497561 0.299707-0.79922 0.599415-1.398634 0.699317-1.998049l0.199804-0.799219c0.099902-0.699317 0.39961-1.098927 0.999025-1.198829z m16.983415 15.484878c-0.099902-0.299707-0.199805-0.499512-0.199805-0.599415 0-0.199805 0.099902-0.39961 0.299707-0.79922 0.899122-1.798244 1.598439-3.196878 1.898146-4.195902 0.39961-0.999024 0.699317-2.197854 0.999025-3.69639 0.299707-1.498537 0.39961-2.597463 0.399609-3.396683 0-0.79922 0-1.298732 0.099903-1.598439 0.099902-0.299707 0.199805-0.599415 0.39961-0.79922 0.199805-0.199805 0.499512-0.299707 0.799219-0.299707 0.299707 0 0.699317 0.099902 0.899122 0.299707 0.199805 0.199805 0.39961 0.39961 0.39961 0.499513 0.099902 0.199805 0.099902 0.599415 0.099902 1.198829v2.097951h5.894244c0.39961 0 0.79922 0.099902 1.098927 0.39961 0.299707 0.299707 0.499512 0.599415 0.499512 0.999024s-0.099902 0.699317-0.39961 0.999025c-0.299707 0.299707-0.699317 0.499512-1.198829 0.499512h-0.799219c-0.099902 1.598439-0.199805 3.196878-0.299708 4.895219-0.099902 1.598439-0.299707 3.496585-0.499512 5.694439-0.299707 2.097951-0.699317 4.195902-1.398634 6.193951l-0.499512 1.59844c0.699317 1.198829 1.298732 2.297756 1.898146 3.29678 0.599415 0.999024 1.198829 1.898146 1.798244 2.697366 0.599415 0.79922 0.999024 1.298732 1.098927 1.598439 0.199805 0.299707 0.299707 0.599415 0.299707 0.899122 0 0.299707-0.099902 0.499512-0.199805 0.799219-0.299707 0.39961-0.699317 0.599415-1.198829 0.599415-0.39961 0-0.899122-0.299707-1.598439-0.999024-0.699317-0.699317-1.898146-2.597463-3.596488-5.794342-0.999024 1.398634-1.798244 2.397659-2.297756 2.997073-0.499512 0.599415-1.198829 1.398634-2.197854 2.297756-0.899122 0.899122-1.698341 1.298732-2.397658 1.19883-0.599415-0.099902-0.999024-0.299707-0.999024-0.79922-0.099902-0.39961-0.099902-0.79922 0-0.999024 0.099902-0.299707 0.39961-0.699317 0.799219-1.098927l0.899122-0.699317c0.39961-0.39961 0.999024-0.899122 1.698341-1.698342 0.699317-0.699317 1.198829-1.298732 1.398635-1.698341l1.598439-2.697366c-0.199805-0.599415-0.39961-1.198829-0.699317-1.798244-0.199805-0.599415-0.499512-1.698341-0.79922-3.096975-0.299707-1.398634-0.599415-2.697366-0.699317-3.996098l-0.299707-2.197854c-0.599415 0.899122-0.999024 1.398634-0.999025 1.498537l-0.499512 0.299707c0.199805 0.199805 0.299707 0.39961 0.299707 0.599415 0.099902 0.199805 0.099902 0.299707 0.099903 0.499512 0 0.299707-0.099902 0.499512-0.299707 0.79922-0.199805 0.299707-0.499512 0.39961-0.79922 0.399609H278.228293c-0.39961 0-0.699317-0.099902-0.999025-0.399609-0.299707-0.299707-0.39961-0.599415-0.499512-0.999025 0-0.39961 0.099902-0.699317 0.39961-0.999024 0.299707-0.299707 0.699317-0.499512 0.999024-0.499512h13.48683z m8.591609-8.291903h-2.997073l-0.499512 1.898147c0 0.699317-0.099902 1.298732-0.099903 1.798243s0.099902 1.398634 0.199805 2.597464c0.099902 1.198829 0.299707 2.397659 0.499513 3.69639 0.199805 1.298732 0.39961 2.197854 0.599414 2.697366l0.599415 1.698341c0.199805-0.79922 0.39961-1.598439 0.499512-2.397658 0.199805-0.79922 0.39961-2.097951 0.599415-3.996098 0.199805-1.798244 0.299707-3.596488 0.399609-5.194927l0.199805-2.797268z m103.898537 15.484878h-12.387903c-0.499512 0-0.899122-0.199805-1.198829-0.499512-0.299707-0.299707-0.39961-0.699317-0.39961-1.198829 0-0.39961 0.199805-0.699317 0.499513-0.999025 0.299707-0.299707 0.699317-0.39961 1.098926-0.399609H405.10439c0.099902-0.39961 0.199805-0.699317 0.299708-0.999025 0.099902-0.299707 0.299707-1.198829 0.599414-2.797268-1.798244 0.099902-3.996098 0.299707-6.693463 0.39961-2.697366 0.099902-4.49561 0.099902-5.294829 0-0.499512-0.099902-0.899122-0.199805-1.098927-0.39961-0.199805-0.199805-0.299707-0.499512-0.299708-0.899122s0.099902-0.699317 0.299708-0.899122c0.199805-0.199805 0.39961-0.299707 0.699317-0.39961 0.299707-0.099902 0.899122-0.099902 1.698341-0.099902 0.79922 0 2.997073-0.099902 6.593561-0.299707 3.596488-0.199805 6.293854-0.39961 7.992195-0.599415 1.698341-0.199805 3.596488-0.499512 5.494634-0.79922 1.898146-0.299707 3.29678-0.599415 3.996098-0.699317 0.699317-0.199805 1.198829-0.199805 1.398634-0.199805 0.299707 0 0.699317 0.199805 0.899122 0.39961 0.299707 0.299707 0.39961 0.599415 0.39961 1.098927 0 0.39961-0.099902 0.699317-0.299707 0.899122-0.199805 0.199805-0.79922 0.499512-1.698342 0.799219-0.899122 0.299707-4.695415 0.79922-11.189073 1.498537l-0.599415 3.896195h15.484878c0.299707 0 0.699317 0.099902 0.999025 0.39961 0.299707 0.299707 0.499512 0.699317 0.499512 1.098927 0 0.39961-0.099902 0.79922-0.39961 1.098927-0.299707 0.299707-0.599415 0.39961-0.999024 0.399609h-12.587708c0.599415 0.79922 1.198829 1.498537 1.598439 2.097952 0.499512 0.499512 1.198829 1.198829 2.197854 2.097951 0.999024 0.79922 1.798244 1.498537 2.597464 1.998049s1.798244 1.098927 2.997073 1.698341c1.198829 0.599415 2.197854 1.098927 2.89717 1.298732 0.699317 0.299707 1.198829 0.499512 1.498537 0.699317 0.299707 0.199805 0.499512 0.499512 0.599415 0.899122 0.199805 0.39961 0.099902 0.79922-0.299708 1.198829-0.39961 0.39961-0.79922 0.499512-1.198829 0.499512-0.39961 0-1.098927-0.199805-2.097951-0.599414-0.899122-0.39961-1.798244-0.699317-2.397659-1.098927-0.699317-0.299707-1.798244-0.999024-3.396683-2.097951-1.598439-1.098927-2.997073-2.197854-4.295804-3.496586-1.298732-1.298732-2.197854-2.497561-2.897171-3.496585l-1.198829-1.798244h-0.39961c-0.499512 0.79922-1.098927 1.698341-1.698342 2.597463-0.599415 0.899122-1.598439 1.998049-2.89717 3.296781-1.298732 1.298732-2.697366 2.397659-4.096 3.096975-1.398634 0.79922-2.897171 1.498537-4.595513 2.097952-1.698341 0.599415-2.797268 0.899122-3.29678 0.899122-0.79922-0.099902-1.198829-0.599415-1.198829-1.498537 0-0.499512 0.099902-0.79922 0.299707-0.999024 0.199805-0.199805 0.39961-0.299707 0.499512-0.39961 0.099902-0.099902 1.298732-0.499512 3.296781-1.198829 2.097951-0.699317 3.896195-1.698341 5.394731-2.897171 1.498537-1.198829 2.597463-2.197854 3.196878-2.997073l1.698342-1.698342z m-7.292878-20.08039h8.192c0.39961 0 0.699317 0.099902 0.999024 0.39961 0.299707 0.199805 0.39961 0.499512 0.499512 0.899122 0 0.39961-0.099902 0.699317-0.399609 0.999024-0.299707 0.299707-0.699317 0.39961-1.098927 0.39961h-3.796293c0.099902 0.79922 0.299707 1.498537 0.39961 1.998049 0.099902 0.599415 0.199805 1.198829 0.299707 1.698341 0.099902 0.499512 0 0.999024-0.199805 1.398634-0.199805 0.39961-0.599415 0.599415-1.098927 0.599415-0.599415 0-0.899122-0.199805-1.198829-0.599415-0.199805-0.39961-0.39961-0.79922-0.39961-1.298731-0.099902-0.499512-0.199805-1.198829-0.399609-2.197854l-0.39961-1.698342h-2.897171c-0.699317 0.999024-1.298732 1.798244-1.898146 2.497561-0.599415 0.699317-1.198829 1.198829-1.698342 1.598439-0.599415 0.39961-0.999024 0.39961-1.498536-0.099902-0.39961-0.499512-0.599415-0.899122-0.499512-1.298732 0-0.299707 0.099902-0.499512 0.299707-0.699317 0.199805-0.199805 0.499512-0.599415 1.098927-1.198829 0.499512-0.599415 1.098927-1.298732 1.498536-1.998049 0.499512-0.699317 0.899122-1.498537 1.298732-2.297756 0.39961-0.79922 0.899122-1.498537 1.298732-2.097951 0.499512-0.599415 0.899122-0.599415 1.398634-0.199805 0.499512 0.39961 0.699317 0.79922 0.699317 1.198829 0 0.39961 0 0.599415-0.099902 0.599415l-0.39961 1.398634z m16.483902 0.39961h10.989269c0.39961 0 0.79922 0.199805 1.098926 0.499512 0.299707 0.299707 0.39961 0.599415 0.39961 0.999024s-0.199805 0.699317-0.499512 0.999025c-0.299707 0.299707-0.599415 0.39961-1.098927 0.399609H418.091707c0.099902 0.79922 0.299707 1.598439 0.499513 2.297757 0.199805 0.699317 0.299707 1.198829 0.199804 1.598439 0 0.39961-0.099902 0.699317-0.399609 0.899122-0.199805 0.299707-0.599415 0.39961-1.19883 0.399609s-0.999024-0.39961-1.298731-1.198829l-0.499513-2.297756-0.399609-1.598439h-3.396683c-1.998049 2.697366-3.29678 4.096-3.996098 4.295805-0.699317 0.199805-1.198829 0-1.498536-0.39961-0.39961-0.39961-0.499512-0.899122-0.299708-1.298732 0.099902-0.199805 0.499512-0.699317 1.19883-1.398634 0.79922-0.699317 1.298732-1.398634 1.698341-1.998049 0.39961-0.599415 0.79922-1.298732 1.198829-1.998048 0.39961-0.79922 0.79922-1.398634 0.999025-1.798244 0.299707-0.39961 0.499512-0.699317 0.699317-0.899122 0.199805-0.099902 0.599415-0.199805 0.999024-0.099903 0.299707 0.099902 0.499512 0.199805 0.79922 0.499513 0.299707 0.299707 0.39961 0.499512 0.299707 0.699317l-0.39961 1.398634z m105.996488 1.398634h3.396683c1.698341 0 2.797268 0.499512 3.096976 1.498536 0.299707 0.999024 0.499512 1.698341 0.499512 2.297757v20.679804c0 0.39961-0.099902 0.899122-0.199805 1.398635-0.099902 0.499512-0.39961 1.098927-0.899122 1.598439-0.499512 0.599415-1.398634 0.79922-2.797268 0.799219h-6.493659c-1.198829 0-1.998049-0.199805-2.497561-0.699317-0.499512-0.39961-0.899122-0.899122-0.999024-1.498537-0.199805-0.599415-0.299707-1.098927-0.299708-1.698341v-20.380098c0-0.39961 0.099902-1.198829 0.39961-2.297756 0.199805-1.098927 1.298732-1.698341 3.296781-1.698341h0.799219c0.199805-0.499512 0.299707-0.899122 0.39961-1.098927 0.099902-0.199805 0.199805-0.899122 0.499512-1.998049s0.599415-1.698341 0.79922-1.898146c0.299707-0.199805 0.699317-0.299707 1.198829-0.299707 0.599415 0 0.899122 0.39961 0.799219 1.198829 0 0.79922-0.099902 1.398634-0.299707 1.898146l-0.699317 2.197854z m3.996098 12.188097V414.595122c0-0.599415-0.099902-1.098927-0.299708-1.498537-0.199805-0.39961-0.79922-0.699317-1.698341-0.699317h-4.395707c-0.899122 0-1.498537 0.199805-1.698342 0.699317-0.199805 0.499512-0.299707 0.999024-0.299707 1.498537v7.39278h8.391805z m-8.491708 2.597464v8.691512c0 0.599415 0.099902 1.098927 0.299708 1.498537 0.199805 0.39961 0.79922 0.699317 1.798244 0.699317h4.395707c0.899122 0 1.498537-0.199805 1.698341-0.599415 0.199805-0.39961 0.299707-0.899122 0.299708-1.398634V424.585366h-8.491708z m18.981464-15.085268h7.292878c1.798244 0 2.897171 0.499512 3.096975 1.498536 0.299707 0.999024 0.39961 1.798244 0.39961 2.297756l-0.199805 15.484878c0 1.298732-0.099902 2.897171-0.099902 4.595512-0.099902 1.698341-0.199805 2.897171-0.299708 3.696391-0.099902 0.699317-0.39961 1.398634-0.799219 2.097951-0.499512 0.599415-1.098927 0.999024-1.998049 1.198829-0.79922 0.199805-1.698341 0.199805-2.497561 0.199805-0.899122 0-1.998049-0.099902-3.29678-0.199805-1.298732-0.199805-2.097951-0.499512-2.397659-0.899122-0.299707-0.499512-0.499512-0.899122-0.39961-1.298731 0-0.39961 0.199805-0.699317 0.499513-0.999025 0.299707-0.199805 0.699317-0.39961 1.098926-0.39961 0.299707 0 0.899122 0.199805 1.798244 0.499513s1.898146 0.39961 2.997074 0.399609c0.699317 0 1.298732-0.099902 1.598439-0.399609 0.299707-0.199805 0.499512-0.599415 0.699317-0.999025 0.099902-0.39961 0.199805-0.899122 0.199805-1.498536l0.099902-2.497561c0-0.099902 0-1.198829 0.099902-3.096976l0.199805-14.485854c0-0.599415-0.099902-1.098927-0.199805-1.498536-0.099902-0.39961-0.299707-0.699317-0.599414-0.899122-0.299707-0.199805-0.699317-0.199805-1.19883-0.199805h-7.093073c-0.599415 1.298732-1.298732 2.597463-1.998048 3.896195-0.699317 1.298732-1.198829 1.998049-1.498537 2.097951-0.299707 0.199805-0.599415 0.299707-0.899122 0.299708-0.299707 0-0.599415-0.099902-0.79922-0.299708-0.299707-0.199805-0.39961-0.499512-0.399609-0.799219 0-0.299707 0.099902-0.79922 0.399609-1.398634 0.099902-0.099902 0.499512-0.899122 1.398635-2.497561 0.899122-1.598439 1.698341-3.29678 2.297756-5.194927l0.799219-2.397659c0.199805-0.499512 0.39961-0.899122 0.699317-1.098927 0.299707-0.199805 0.599415-0.299707 0.999025-0.199804 0.699317 0.099902 0.999024 0.699317 0.999024 1.498536 0 0.499512-0.099902 1.098927-0.39961 1.798244l-0.599414 1.698342z m-3.396683 8.991219c0-0.39961 0.099902-0.699317 0.39961-0.899122 0.299707-0.299707 0.499512-0.39961 0.799219-0.39961 0.299707 0 0.699317 0.099902 1.198829 0.499513 0.599415 0.299707 1.498537 1.298732 2.797269 2.89717 1.298732 1.598439 2.197854 2.697366 2.597463 3.296781 0.39961 0.599415 0.599415 1.098927 0.599415 1.398634 0 0.299707-0.099902 0.599415-0.39961 0.899122-0.299707 0.299707-0.599415 0.39961-0.899122 0.39961-0.299707 0-0.79922-0.299707-1.298732-0.899122l-1.998049-2.397659c-0.599415-0.79922-1.398634-1.598439-2.397658-2.497561-0.79922-0.999024-1.298732-1.698341-1.398634-2.297756z m108.394146-10.090146h5.095025c0.299707 0 0.599415 0.099902 0.799219 0.399609 0.199805 0.299707 0.39961 0.599415 0.39961 0.999025s-0.199805 0.699317-0.39961 0.999024c-0.299707 0.199805-0.499512 0.39961-0.799219 0.39961h-5.994147l-1.898146 3.796293h6.693463c0.39961 0 0.699317 0.099902 0.899122 0.399609 0.299707 0.299707 0.39961 0.599415 0.39961 0.999025s-0.199805 0.699317-0.39961 0.999024c-0.299707 0.299707-0.599415 0.39961-0.899122 0.39961h-3.596488v4.49561h4.195903c0.299707 0 0.599415 0.099902 0.899122 0.39961 0.299707 0.299707 0.39961 0.599415 0.39961 0.999024s-0.099902 0.699317-0.39961 0.999024c-0.299707 0.299707-0.599415 0.39961-0.899122 0.39961h-4.195903v9.191024c0.79922-0.599415 1.498537-1.098927 2.097952-1.598439 0.599415-0.499512 1.098927-0.79922 1.598439-1.098926 0.499512-0.299707 0.899122-0.199805 1.198829 0 0.39961 0.299707 0.599415 0.599415 0.599415 0.899122 0.099902 0.299707 0 0.599415-0.199805 0.999024s-0.999024 1.098927-2.197854 1.898146c-1.198829 0.79922-2.397659 1.598439-3.496585 2.297756-1.098927 0.699317-1.898146 0.699317-2.397659 0.199805-0.599415-0.499512-0.79922-0.999024-0.799219-1.298731 0-0.299707 0-0.599415 0.099902-0.79922l0.299707-0.499512c0.099902-0.099902 0.199805-0.39961 0.299708-0.699317 0.099902-0.299707 0.099902-0.699317 0.099902-1.19883v-8.491707h-3.29678c-0.39961 0-0.699317-0.099902-0.999025-0.39961-0.299707-0.199805-0.39961-0.499512-0.499512-0.899122 0-0.39961 0.099902-0.699317 0.39961-0.999024 0.299707-0.299707 0.599415-0.499512 0.999024-0.499512h3.296781V417.592195h-2.197854c-0.999024 1.798244-1.798244 2.397659-2.397658 1.898146-0.599415-0.499512-0.999024-0.999024-0.899122-1.498536 0-0.299707 0.199805-0.699317 0.599414-1.198829 0.39961-0.499512 0.899122-1.398634 1.498537-2.497561 0.699317-1.098927 1.098927-1.998049 1.398634-2.697366 0.299707-0.599415 0.599415-1.598439 1.098927-2.797269 0.499512-1.198829 0.79922-2.097951 0.899122-2.597463 0.099902-0.499512 0.299707-0.899122 0.499512-1.198829 0.199805-0.299707 0.599415-0.499512 0.999024-0.599415 0.499512-0.099902 0.899122 0.199805 1.19883 0.699317 0.199805 0.299707 0.199805 0.899122-0.099903 1.798244v1.498537z m15.684683 16.184195c0.199805 0.699317 0.39961 1.498537 0.699317 2.197854 0.299707 0.79922 0.599415 1.498537 1.098927 2.197853l0.799219 1.198829c1.798244-1.698341 2.897171-2.797268 3.296781-3.396682 0.39961-0.499512 0.79922-0.899122 1.098927-1.098927 0.299707-0.199805 0.599415-0.299707 0.999024-0.199805 0.299707 0.099902 0.599415 0.199805 0.79922 0.599414 0.199805 0.299707 0.299707 0.699317 0.099902 1.19883-0.099902 0.39961-0.499512 0.899122-1.098927 1.498536l-0.799219 0.79922-2.897171 2.597463c0.599415 0.699317 1.198829 1.198829 1.598439 1.698342 0.39961 0.39961 1.098927 0.899122 1.998049 1.498536 0.899122 0.599415 1.598439 1.098927 2.097951 1.298732 0.599415 0.299707 0.999024 0.499512 1.198829 0.799219 0.299707 0.199805 0.39961 0.499512 0.39961 0.899122s-0.099902 0.79922-0.499512 1.19883c-0.39961 0.39961-1.098927 0.39961-2.197854-0.099903s-2.497561-1.398634-4.395707-2.797268c-1.798244-1.398634-3.096976-2.797268-3.896195-3.996098-0.79922-1.298732-1.398634-2.397659-1.898147-3.396683s-0.79922-1.898146-0.999024-2.49756l-0.699317-2.097952h-2.597463v12.68761c0.79922-0.299707 1.398634-0.499512 1.798243-0.799219 0.39961-0.199805 0.899122-0.499512 1.498537-0.79922 0.499512-0.299707 0.999024-0.599415 1.198829-0.699317 0.299707-0.099902 0.599415-0.199805 0.999025-0.199805s0.699317 0.199805 0.899122 0.699317c0.199805 0.39961 0.199805 0.79922 0 1.198829-0.299707 0.599415-1.498537 1.398634-3.596488 2.397659s-3.69639 1.498537-4.695415 1.598439c-0.999024 0.099902-1.498537-0.199805-1.698341-0.699317-0.199805-0.499512-0.199805-0.999024-0.099903-1.298732 0.099902-0.199805 0.199805-0.499512 0.39961-0.699317l0.299707-0.39961c0.099902-0.199805 0.199805-0.39961 0.299708-0.699317 0-0.299707 0.099902-0.79922 0.099902-1.398634v-24.875707c0-0.699317 0.099902-1.298732 0.299707-1.798244 0.199805-0.499512 0.599415-0.899122 0.999025-1.298732 0.499512-0.299707 1.298732-0.499512 2.597463-0.499512h9.191025c1.998049 0 3.096976 0.499512 3.396683 1.398634 0.299707 0.899122 0.499512 1.598439 0.499512 2.197854v9.890341c0 0.699317-0.099902 1.298732-0.199805 1.798244s-0.39961 0.999024-0.79922 1.498537-1.298732 0.699317-2.697365 0.699317h-4.89522z m-5.494634-7.492683v4.695415h9.191024c0.79922 0 1.298732-0.099902 1.498537-0.199805 0.199805-0.099902 0.39961-0.299707 0.499512-0.499513 0.099902-0.199805 0.199805-0.79922 0.199805-1.498536v-2.397659h-11.388878z m11.388878-2.697366v-2.497561c0-0.599415-0.099902-0.999024-0.199805-1.198829-0.099902-0.299707-0.39961-0.39961-0.699317-0.599415-0.299707-0.099902-0.899122-0.199805-1.798244-0.199805h-5.994146c-0.999024 0-1.598439 0.099902-1.798244 0.199805-0.299707 0.099902-0.499512 0.299707-0.599415 0.499512-0.099902 0.199805-0.199805 0.599415-0.199805 1.19883v2.697366h11.288976z m98.004293 7.093073v17.58283c0 0.39961-0.199805 0.79922-0.499513 1.098926-0.299707 0.299707-0.699317 0.39961-1.198829 0.39961-0.39961 0-0.699317-0.199805-0.999024-0.499512-0.299707-0.299707-0.39961-0.599415-0.39961-0.999024v-14.086244c-0.79922 0.999024-1.598439 1.798244-2.297756 2.397658-0.699317 0.599415-1.398634 0.599415-1.798244 0-0.499512-0.599415-0.599415-1.098927-0.499512-1.598439 0.099902-0.199805 0.199805-0.499512 0.39961-0.799219 0.199805-0.299707 0.79922-0.899122 1.898146-1.898147 0.999024-0.999024 1.898146-1.898146 2.497561-2.697366 0.599415-0.79922 1.198829-1.698341 1.698341-2.597463 0.499512-0.899122 0.999024-1.598439 1.598439-1.998049 0.499512-0.39961 0.999024-0.39961 1.398635 0.099903 0.39961 0.499512 0.599415 0.999024 0.599414 1.498536-0.099902 0.499512-0.39961 1.298732-0.999024 2.197854l-1.398634 1.898146z m-6.293854-7.093073l1.298732-1.598439c0.599415-0.79922 1.198829-1.498537 1.598439-2.097951 0.39961-0.699317 0.899122-1.398634 1.298731-2.297756 0.39961-0.899122 0.79922-1.398634 1.098927-1.698342 0.299707-0.299707 0.699317-0.39961 0.999025-0.499512 0.199805 0 0.499512 0.099902 0.799219 0.199805 0.299707 0.199805 0.499512 0.499512 0.499512 0.899122 0 0.499512-0.099902 0.999024-0.399609 1.498536-0.79922 1.498537-1.798244 3.29678-3.196878 5.29483-1.398634 1.998049-2.497561 2.997073-3.496586 2.89717-0.299707 0-0.599415-0.099902-0.899122-0.299707-0.299707-0.199805-0.39961-0.599415-0.39961-0.999024 0.099902-0.199805 0.299707-0.699317 0.79922-1.298732z m28.472195 4.096V434.57561c0 0.899122-0.299707 1.998049-0.799219 3.196878-0.499512 1.298732-2.097951 1.898146-4.795317 1.898146-0.599415 0-1.198829 0-1.798244-0.099902-0.599415-0.099902-1.698341-0.199805-3.096976-0.499512-1.498537-0.299707-2.397659-0.599415-2.797268-0.899122-0.39961-0.299707-0.599415-0.699317-0.599415-1.19883s0.099902-0.899122 0.499512-1.198829c0.299707-0.299707 0.79922-0.39961 1.498537-0.39961 0.39961 0 1.198829 0.199805 2.597463 0.599415 1.398634 0.39961 2.697366 0.599415 3.896195 0.499512 1.098927-0.099902 1.698341-0.39961 1.998049-1.098927 0.299707-0.599415 0.39961-1.198829 0.39961-1.698341v-15.185171h-13.886439c-0.299707 0-0.699317-0.099902-0.899122-0.39961-0.299707-0.299707-0.39961-0.599415-0.39961-1.098927 0-0.39961 0.099902-0.79922 0.39961-1.098926 0.299707-0.299707 0.599415-0.39961 0.899122-0.39961h21.578927c0.39961 0 0.699317 0.199805 0.999024 0.499512 0.299707 0.299707 0.39961 0.699317 0.39961 1.098927 0 0.39961-0.199805 0.79922-0.39961 0.999024-0.299707 0.299707-0.599415 0.39961-0.999024 0.39961h-4.695415z m-15.085268-11.388878h18.082341c0.299707 0 0.599415 0.099902 0.79922 0.39961 0.299707 0.299707 0.39961 0.699317 0.499512 1.198829 0 0.499512-0.099902 0.899122-0.39961 1.298732-0.299707 0.299707-0.599415 0.499512-0.899122 0.499512h-18.082341c-0.39961 0-0.79922-0.199805-0.999025-0.499512-0.299707-0.299707-0.39961-0.699317-0.399609-1.19883s0.099902-0.899122 0.399609-1.198829c0.299707-0.299707 0.599415-0.499512 0.999025-0.499512z" fill="#D7B269"></path><path d="M455.954732 510.001951v-10.389853c3.496585-2.397659 6.393756-5.794341 8.691512-10.389854 1.798244-3.596488 3.496585-8.691512 4.995122-15.185171h8.991219c-1.198829 5.994146-2.997073 12.088195-5.294829 18.082342v59.741658h-8.59161v-47.553561c-2.997073 2.497561-5.894244 4.395707-8.791414 5.694439z m24.276292-7.093073v-8.491707H498.013659V482.52878h-16.384v-8.491707h44.056975c3.396683 0 6.193951 1.098927 8.391805 3.296781 2.297756 2.297756 3.396683 5.294829 3.396683 8.991219v7.992195h2.997073v8.491708h-2.997073v7.79239c0 4.595512-1.298732 8.092098-3.996098 10.389854-1.498537 1.298732-3.196878 2.097951-5.294829 2.397658-1.298732 0.199805-2.997073 0.299707-5.294829 0.299707h-16.184195v1.698342c-0.099902 2.897171-0.79922 5.894244-1.898147 8.991219-2.197854 6.193951-6.493659 11.089171-12.887414 14.585756-2.597463 1.398634-6.094049 2.297756-10.190049 2.697366v-8.591609c3.096976-0.099902 6.094049-1.198829 8.991219-3.296781 4.795317-3.596488 7.292878-8.391805 7.392781-14.286049v-1.898146h-16.583805v-8.691512H498.013659v-11.988293h-17.782635z m26.773854 12.188098h17.18322c3.596488 0 5.394732-1.898146 5.394731-5.694439V502.509268H507.004878v12.587708z m0-20.87961h22.577951v-6.493659c0-1.498537-0.39961-2.697366-1.298731-3.69639s-1.998049-1.498537-3.396683-1.498537H507.004878v11.688586z m45.155902 57.74361V543.469268c2.897171-0.199805 5.095024-1.098927 6.593561-2.89717 2.797268-3.396683 4.295805-8.99122 4.295805-16.78361v-49.651512h8.391805v47.95317c0 6.593561-0.39961 11.388878-1.298731 14.385952-1.798244 6.393756-4.695415 10.789463-8.791415 13.187122-2.397659 1.398634-5.494634 2.197854-9.191025 2.297756z m44.356683 0h8.391805v-77.824h-8.391805v77.824z m31.868878 0h8.391805v-77.824h-8.391805v77.824z m20.87961-26.873756V516.49561c4.795317-0.699317 8.891317-1.798244 12.288-3.396683 5.494634-2.597463 10.289951-6.393756 14.385951-11.288976 2.697366-3.196878 5.095024-7.39278 7.492683-12.587707h-21.079414c-1.498537 0-2.497561 0.299707-2.997073 0.799219-0.39961 0.39961-0.499512 1.398634-0.499513 2.797269v6.793366h-8.591609v-10.589659c0-2.497561 0.79922-4.595512 2.297756-6.094049 1.398634-1.398634 3.596488-2.197854 6.593561-2.197853h27.173463c0.39961-2.597463 0.79922-5.095024 1.098927-7.492683h8.59161c-0.199805 2.397659-0.39961 4.995122-0.79922 7.492683H724.792195c2.697366 0 4.795317 0.699317 6.193951 2.197853 0.79922 0.79922 1.398634 1.498537 1.598439 2.197854 0.39961 1.198829 0.599415 2.997073 0.599415 5.494634v8.99122h-8.491707v-5.994147c0-1.998049-0.299707-3.196878-0.999025-3.796292-0.499512-0.39961-1.398634-0.599415-2.697366-0.599415h-28.27239c-2.897171 7.692488-6.693463 14.286049-11.388878 19.580878-4.49561 4.995122-9.990244 9.091122-16.483902 12.387902v16.883513c0 1.698341 0.499512 2.997073 1.398634 3.896195 0.899122 0.999024 3.29678 1.498537 6.993171 1.498536h20.180292v8.491708h-23.976585c-4.195902 0-7.492683-1.098927-9.790439-3.496586-2.197854-2.297756-3.29678-4.995122-3.296781-8.092097v-16.284098c-2.297756 0.499512-4.595512 0.79922-7.093073 0.999025z m43.557464-24.176391h8.791414l4.096 11.788488h28.172488v8.691512h-25.175415c1.698341 4.49561 3.496585 7.892293 5.29483 10.289951 3.29678 4.395707 7.292878 7.492683 11.788488 9.290927 2.197854 0.899122 4.89522 1.398634 8.092097 1.598439v8.491708c-4.295805-0.199805-7.79239-0.899122-10.589658-1.998049-5.894244-2.297756-11.089171-6.094049-15.484879-11.688585-2.897171-3.69639-5.294829-8.092098-6.99317-13.287025l-7.992195-23.177366z m53.547707-12.587707v-8.691512h37.663219v-5.494634h8.391805v5.494634h37.66322v8.691512h-83.718244z m0.899122 63.637854v-42.958049c0-3.69639 1.198829-6.493659 3.496585-8.59161 0.699317-0.599415 1.598439-1.098927 2.597464-1.598439 1.098927-0.499512 1.898146-0.79922 2.397658-0.699317h0.699317v-7.292878h8.391805v7.292878h45.655415v-7.292878h8.59161v7.292878c2.697366 0.099902 4.89522 0.899122 6.593561 2.397659 2.397659 2.197854 3.596488 5.095024 3.596487 8.691512v29.071609c0 3.69639-0.599415 6.393756-1.698341 8.192-1.398634 2.097951-3.196878 3.596488-5.294829 4.49561-1.398634 0.599415-3.496585 0.899122-6.193952 0.899122h-0.999024V546.466341c-1.298732 0.599415-2.497561 0.999024-3.396683 0.999025h-46.154927c-3.796293 0-5.694439-1.898146-5.694439-5.694439v-12.787512c0-2.097951 0.499512-3.596488 1.498537-4.595513 0.999024-0.999024 2.597463-1.498537 4.895219-1.498536h45.355708c1.698341 0 2.997073 0.499512 4.096 1.598439 0.899122 0.79922 1.398634 2.297756 1.398634 4.295805v14.585756c2.397659-0.79922 3.596488-2.497561 3.596488-4.995122V515.496585c0-4.195902-0.199805-6.693463-0.599415-7.292878-0.699317-1.098927-1.898146-1.598439-3.596488-1.598439h-8.491707c0.099902 0.39961 0.299707 0.599415 0.39961 0.79922 0.999024 2.597463 2.197854 4.395707 3.496585 5.294829 0.999024 0.79922 2.497561 1.298732 4.595512 1.598439v7.392781c-4.595512-0.39961-8.291902-1.798244-11.189073-4.395708-1.898146-1.598439-3.396683-3.796293-4.49561-6.493658-0.39961-0.79922-0.899122-2.297756-1.598439-4.295805h-22.378146c-1.498537 5.194927-3.69639 8.99122-6.693464 11.388878-2.297756 1.898146-5.794341 3.096976-10.389853 3.69639v-7.39278c2.097951-0.299707 3.596488-0.79922 4.49561-1.498537 1.698341-1.198829 2.997073-3.29678 3.896195-6.193951h-7.992195c-1.698341 0-2.797268 0.299707-3.296781 0.899122-0.699317 0.699317-0.999024 1.998049-0.999024 3.896195v40.56039h-8.59161z m22.577951-11.688586h36.963903c1.498537 0 2.497561-0.199805 2.797268-0.499512 0.199805-0.199805 0.39961-0.899122 0.39961-1.998049V532.48c0-1.298732-0.199805-2.097951-0.599415-2.497561-0.39961-0.39961-1.298732-0.599415-2.697366-0.599415l-36.46439-0.099902c-1.198829 0-1.998049 0.199805-2.397659 0.499512-0.299707 0.299707-0.499512 0.899122-0.499512 1.798244v6.393756c0 0.899122 0.199805 1.498537 0.499512 1.698342 0.299707 0.39961 0.999024 0.599415 1.998049 0.599414z m72.029659-14.086244v-8.491707h9.191024v-10.889366h-9.191024v-8.491707h30.170536v8.491707H859.660488v10.889366h12.387902v8.491707H859.660488v13.886439c0 1.798244 0.699317 2.697366 2.197853 2.697366h10.190049v8.491708h-12.787512c-2.297756 0-4.295805-0.699317-5.794341-2.197854-1.598439-1.398634-2.297756-3.596488-2.297757-6.393756v-16.384h-9.290926z m0-31.169561v-8.291902c1.098927-0.199805 1.898146-0.599415 2.497561-1.198829 1.198829-0.999024 2.197854-2.997073 2.997073-5.994147 0.499512-1.698341 0.999024-3.496585 1.598439-5.394731h9.091122l-1.398634 4.895219h15.384975v8.291903h-17.782634c-1.498537 2.697366-3.196878 4.595512-5.294829 5.794341-2.097951 1.098927-4.395707 1.698341-7.093073 1.898146z m63.238244 21.578927l3.396682 6.393756h17.383025v8.491708h-12.987317c2.797268 5.494634 5.095024 8.891317 6.893268 10.190048 1.698341 1.298732 3.796293 1.898146 6.293854 1.798244v8.491708c-4.795317-0.299707-8.491707-1.498537-11.089171-3.496586-3.096976-2.397659-5.594537-5.694439-7.79239-9.790439l-11.388878-22.078439h-8.791415v22.078439c0 2.197854 0.299707 3.596488 0.699317 3.996098 0.599415 0.499512 1.298732 0.79922 2.097951 0.799219h9.39083v8.491708h-12.887415c-2.097951 0-3.896195-0.79922-5.494634-2.297756-1.498537-1.498537-2.297756-3.596488-2.297756-6.493659V482.52878c0-2.597463 0.79922-4.695415 2.297756-6.193951 1.498537-1.498537 3.29678-2.297756 5.494634-2.297756h31.469268c2.697366 0 4.795317 0.79922 6.293854 2.297756 1.398634 1.498537 2.197854 3.29678 2.197854 5.594537v24.775805c0 2.997073-0.39961 4.995122-1.098927 6.193951-1.598439 2.397659-3.69639 3.596488-6.393756 3.596488h-13.686634z m-18.082342-8.991219h26.973659c1.598439 0 2.597463-0.199805 3.096975-0.699317 0.599415-0.499512 0.899122-1.498537 0.899122-2.797269v-4.795317h-30.969756v8.291903z m0-17.58283h30.969756v-4.795317c0-2.397659-0.899122-3.596488-2.797268-3.596487H890.630244c-1.398634 0-2.397659 0.299707-2.897171 0.799219s-0.699317 1.398634-0.699317 2.797268v4.795317z m51.949268 28.372293v-9.390829c3.69639-0.899122 6.693463-2.497561 8.791415-4.795317 1.998049-2.197854 3.796293-5.794341 5.394732-10.889366h9.290927c-1.398634 5.594537-3.496585 10.589659-6.393757 14.885463V551.960976h-8.391804v-36.364488c-2.097951 0.999024-4.995122 1.998049-8.691513 2.797268z m0-19.980488v-9.390829c3.796293-0.699317 6.893268-2.497561 9.290927-5.394732 1.498537-1.898146 3.196878-5.294829 5.095025-10.289951h9.091122c-1.198829 3.996098-2.197854 6.993171-2.997074 8.99122-2.097951 4.995122-5.194927 8.891317-9.290926 11.788487-2.697366 1.698341-6.393756 3.196878-11.189074 4.295805z m30.969756 7.592586V497.514146h53.547708v8.491708h-9.490732v32.068683c0 2.097951-0.199805 3.69639-0.499512 4.695414-0.899122 2.597463-2.197854 4.595512-3.996098 5.994147-1.898146 1.498537-3.896195 2.297756-5.794341 2.297756h-20.08039v-8.491708h15.98439c1.598439 0 2.697366-0.099902 3.196878-0.399609 1.798244-1.098927 2.697366-2.797268 2.697366-5.095025v-31.069658h-35.565269z m0.79922-23.576976h52.748488v-8.391805h-52.748488v8.391805z" fill="#1B1918"></path><path d="M32.967805 501.686072l19.68078-28.672H65.436098l-26.074537 36.664195v39.361561H25.674927v-40.660292L0.499512 473.014072h12.787512l19.680781 28.672z m136.466732 47.253854v-75.925854h13.187122v75.925854h-13.187122z m48.053073-75.925854h13.187122v75.925854h-13.187122v-31.968781H188.316098v-13.187122h29.071609v-30.769951z m127.575414 53.747512l-20.08039-0.199804 4.995122-13.48683 9.790439 0.099903-7.79239-20.180293-20.48 55.945366h-13.486829l27.87278-75.925854h13.486829l27.872781 75.925854h-13.486829l-8.691513-22.178342z m31.269464-53.747512h13.586732v0.099903l35.165658 54.546731v-54.646634h13.686634v75.925854H425.084878l-35.065756-54.646634v54.646634h-13.686634v-75.925854z m-216.68839 20.579903h-14.885464c-2.997073-5.194927-15.98439-8.59161-21.978536-8.192-4.995122 0.299707-8.99122 1.898146-11.988293 4.595512-2.997073 2.697366-5.294829 5.894244-6.693464 9.390829-1.498537 3.496585-2.297756 7.492683-2.397658 11.88839-0.099902 4.395707 0.599415 8.391805 2.097951 11.988293 1.598439 3.896195 3.996098 6.993171 7.292878 9.490732 3.29678 2.397659 7.192976 3.796293 11.788488 4.096 4.096 0.299707 7.492683-0.599415 10.389854-1.698342 2.097951-0.79922 11.788488-7.192976 11.88839-7.692488h14.485854c-1.498537 7.39278-15.884488 17.782634-23.277269 19.880586-4.195902 1.098927-8.491707 1.698341-12.887414 1.698341-5.194927 0-9.490732-0.699317-13.08722-1.998048-3.596488-1.298732-6.693463-2.997073-9.390829-4.995122s-5.095024-4.49561-7.392781-7.492683c-2.297756-2.997073-3.996098-6.493659-5.095024-10.489756-1.098927-3.996098-1.698341-7.79239-1.698341-11.189074 0-3.496585 0.199805-6.693463 0.799219-9.590634 0.699317-3.896195 2.097951-7.592585 3.996098-11.189073 1.898146-3.596488 4.595512-6.993171 7.992195-9.990244 3.396683-3.096976 7.192976-5.394732 11.288975-6.893268 4.096-1.498537 8.491707-2.397659 13.08722-2.597464 4.89522-0.199805 8.891317 0.199805 12.188097 1.298732 3.196878 1.098927 6.094049 2.297756 8.59161 3.796293 6.193951 3.496585 13.08722 8.59161 14.885464 15.884488z" fill="#E30016"></path><path d="M59.242146 548.939926v-55.745561h13.48683v55.745561H59.242146z m182.421854-27.872781v-32.168585h13.08722v31.469268c0.499512 10.190049 4.995122 15.484878 13.786536 16.084293 7.992195-0.79922 12.487805-6.094049 13.386927-16.084293v-31.469268h13.087219v32.168585c-1.398634 17.283122-10.190049 26.574049-26.474146 27.872781-16.78361-0.999024-25.674927-10.289951-26.873756-27.872781z m-180.523707 40.160781h15.484878c27.073561 43.057951 72.92878 44.356683 72.92878 44.356683 63.737756 3.896195 88.813268-44.25678 88.813269-44.256781s15.285073-0.299707 14.985365 0c-33.16761 64.836683-104.797659 56.94439-105.097365 57.244098-69.132488-8.092098-87.114927-57.344-87.114927-57.344z" fill="#D7B269"></path></svg>