<svg viewBox="0 0 1024 1024" version="1.1" xmlns="http://www.w3.org/2000/svg"><path d="M225.120623 0h573.758754c123.119066 0 223.128405 100.009339 223.128405 223.128405v573.758755c0 123.119066-100.009339 223.128405-223.128405 223.128404H225.120623c-123.119066 0-223.128405-100.009339-223.128405-223.128404V223.128405C1.992218 100.009339 102.001556 0 225.120623 0z" fill="#FFFFFF"></path><path d="M145.431907 470.163424l38.649027-56.578988H209.182879L157.783658 486.101167v77.696498h-26.69572v-80.087159L81.680934 413.584436h25.101945L145.431907 470.163424z m268.152529 93.634241v-150.213229h25.898832v150.213229h-25.898832z m94.032685-150.213229h25.898832v150.611673h-25.898832v-63.750973h-56.977432V474.14786h56.977432v-60.563424z m250.621011 106.384436l-39.445914-0.398444 9.961089-26.69572h19.125292l-15.539299-39.844358-40.242802 110.767315h-26.297276l54.58677-150.213229h26.297276l54.586771 150.213229H774.972763l-16.734631-43.828793z m61.360312-106.384436h26.695719l68.93074 107.97821v-107.97821h26.69572v150.213229h-26.69572L846.692607 455.819455v107.97821h-26.69572v-150.213229zM394.0607 454.225681h-29.086381c-5.976654-10.359533-31.477043-17.133074-43.031907-16.336187-9.562646 0.796887-17.531518 3.585992-23.508171 9.164202s-10.359533 11.554864-13.148638 18.726849c-2.789105 6.773541-4.382879 14.742412-4.781323 23.508171 0 8.765759 1.195331 16.73463 3.984436 23.508171 3.187549 7.570428 7.968872 13.945525 14.343969 18.726848 6.375097 4.781323 13.945525 7.570428 23.109727 7.968872 7.968872 0.796887 14.742412-1.195331 20.320623-3.187549 3.984436-1.593774 23.109728-14.343969 23.508171-15.140856h28.289494c-2.789105 14.742412-31.078599 35.063035-45.821011 39.445915-8.367315 2.390661-16.73463 3.585992-25.500389 3.187548-9.961089 0-18.726848-1.195331-25.500389-3.984435-7.171984-2.390661-13.148638-5.976654-18.328405-9.96109-5.179767-3.984436-9.961089-8.765759-14.742413-14.742412-4.382879-5.976654-7.968872-12.750195-9.961089-20.719067s-3.187549-15.5393-3.187549-22.31284c0-6.773541 0.398444-13.148638 1.593775-19.125292 1.593774-7.570428 3.984436-15.140856 7.968871-22.31284 3.984436-7.171984 9.164202-13.547082 15.5393-19.922179 6.773541-5.976654 13.945525-10.757977 22.31284-13.547082 7.968872-3.187549 16.73463-4.781323 25.898833-5.179767 9.562646-0.398444 17.531518 0.398444 23.906615 2.390662 6.375097 1.992218 11.953307 4.382879 16.73463 7.570428 12.351751 7.968872 25.500389 17.929961 29.086381 32.27393z" fill="#E30016"></path><path d="M197.229572 566.188327v-109.571985h26.297276v109.571985H197.229572z m357.802335-54.985214v-62.954086h25.500389V510.007782c0.796887 19.922179 9.961089 30.680156 27.094163 31.477043 15.5393-1.593774 24.305058-11.953307 26.297276-31.477043v-61.758755h25.50039v62.954086c-2.789105 33.867704-19.922179 52.196109-51.797666 54.58677-32.672374-1.593774-50.203891-19.922179-52.594552-54.58677z m-354.216343 79.290272h30.281712C284.090272 674.963424 374.138521 677.354086 374.138521 677.354086c124.71284 7.570428 174.119844-86.8607 174.119845-86.860701s29.883268-0.398444 29.484825 0c-64.946304 127.103502-205.596887 111.962646-205.995331 112.36109-135.470817-15.937743-170.932296-112.361089-170.932296-112.36109z" fill="#D7B269"></path></svg>