<svg viewBox="0 0 1024 1024" version="1.1" xmlns="http://www.w3.org/2000/svg"><path d="M224 0h576c123.6 0 224 100.4 224 224v576c0 123.6-100.4 224-224 224H224c-123.6 0-224-100.4-224-224V224C0 100.4 100.4 0 224 0z" fill="#FFFFFF"></path><path d="M511.2 268c-0.8 5.6-1.6 9.2-1.6 12.4-0.8 37.6-15.6 70.4-36.4 100.8-13.6 19.6-28 38.8-42 58-2.8 3.6-4.8 8-7.2 12 3.2 0.8 4.4 0.4 5.2-0.4 22.8-16.4 46-32.4 68.8-49.2 20.4-14.8 41.6-28.8 56.8-49.6 8.8-12 12.4-25.2 6.4-38.4-10-20.8-27.6-34-50-45.6M368 604c4-2.4 5.6-3.2 7.2-4.4 25.6-23.2 50.4-47.6 76.8-70 27.6-23.6 58.8-42.4 91.2-58.8 30.4-15.2 61.2-29.6 91.2-45.2 22-11.2 41.6-26.4 57.6-45.2 7.6-9.2 12.8-19.2 14.8-31.2 4.4-27.2-8.4-46.8-25.2-65.2-10-10.8-11.6-10.4-17.6 2.8-17.6 39.2-45.6 70-78.8 96-36.8 28.4-74.8 56-111.6 84.4-43.2 33.6-76 75.6-100.4 124.4-2 2.8-2.8 6.4-5.2 12.4m397.2-236c-2 3.6-3.6 6-4.8 8.8-14.4 30-36.4 53.6-66.8 67.6-34.4 16-70 28.8-104.4 44-34.8 15.6-70 30.4-103.2 48.8-34 18.8-63.6 44.4-90 73.2-6.8 7.6-13.2 15.6-19.6 23.6l2 1.6c2.8-1.6 5.6-2.8 8.4-4.8 26-19.6 55.2-33.2 85.2-45.6 56.8-23.2 116.8-35.2 176-50.8 32.4-8.8 64.4-18 93.6-36 46.4-28.4 46-89.2 23.6-130.4M332.4 760l2.8-1.6c-1.2-4.4-2-9.2-3.6-13.2-27.6-75.6-16.4-148 18-218 19.2-39.2 41.2-77.2 61.6-115.6 12-22 20-45.6 23.2-70.4 2.8-18.8 2-37.6-7.2-57.2-2 3.6-3.6 5.2-4.4 7.6-11.6 22.8-20.8 47.6-35.2 68.4-26 37.2-55.2 72-83.6 108-15.6 19.6-29.2 40.8-38.4 64.4-12 31.6-12 64.4-4.4 97.2 10.4 42.8 28 82 56 116 4.4 5.2 10 9.6 15.2 14.4M820 518l-3.6-2c-2 1.2-4.4 2.4-6.4 3.6-18 8.8-35.2 19.2-53.6 25.6-59.2 20-120.8 31.2-182 43.6-34 6.8-68 14-101.2 23.6-24.4 7.2-48 16.8-70.4 28.8-23.2 12-40.4 30.8-42.4 59.2-2 30.4 17.6 56 51.6 67.6 44.4 15.2 85.6 7.2 125.2-15.6 16-9.2 28.8-21.2 37.2-38 12-23.6 4.4-45.6-20.8-52.4-14.4-4-30.4-2.8-45.6-3.6-2 0-4 1.6-7.2 2.8 2 2.8 3.6 4.8 5.2 6.4 15.6 18.4 14 39.2-4 55.2-18 15.6-39.6 21.2-62.8 20-16.4-0.8-31.6-6.8-42.4-20-18.8-23.2-9.6-52 20.4-67.2 27.6-14.8 58.4-23.2 90-24.4 34.8-1.2 70 0 104.8 0.8 32.8 0.8 65.6 4 98 2.4 45.6-1.6 80.4-22 96-66.8 5.6-16 9.2-33.2 14-49.6m-648-9.2C173.2 324 326.4 167.2 521.2 172c182.8 4.4 335.6 156.4 330.8 350.4-4.4 179.6-156 332-344.8 329.6-186.8-2.8-337.2-157.6-335.2-343.2" fill="#CC291F"></path></svg>