<svg viewBox="0 0 1024 1024" version="1.1" xmlns="http://www.w3.org/2000/svg"><path d="M266.00832 579.8v-2.1l11.5-0.7 6.4-0.3c1.2 0 2-0.1 2.5-0.1 2.3 0 4.5 0.2 6.5 0.7s3.9 1.1 5.4 2.1c1.6 0.9 2.8 2.2 3.7 3.7 0.9 1.5 1.4 3.4 1.4 5.6 0 2.4-0.8 4.6-2.4 6.4s-3.7 3.2-6.4 4.2c1.9 0.4 3.6 1 5.2 1.7s2.9 1.7 4 2.8c1.1 1.2 1.9 2.5 2.5 4.1 0.6 1.6 0.9 3.4 0.9 5.6 0 2.3-0.5 4.4-1.6 6.4-1.1 1.9-2.5 3.6-4.3 5-1.8 1.4-3.9 2.5-6.3 3.3-2.1 0.7-4.3 1-6.7 1.1H266.50832v-2.1l3.9-1c0.9-0.3 1.6-0.7 1.9-1.2 0.4-0.6 0.6-1.6 0.6-3.2V583v-1.1c0-0.3-0.1-0.6-0.4-0.7-0.2-0.2-0.5-0.4-1-0.5-0.4-0.1-0.8-0.2-1.5-0.3l-4-0.6z m13.2 18c0.4 0.1 1 0.2 1.9 0.2h3.7c2.9 0 5.1-0.9 6.8-2.8 1.6-1.9 2.4-4.5 2.4-7.8 0-3-0.9-5.2-2.6-6.8-1.8-1.5-4-2.3-6.8-2.3-1.9 0-3.7 0.2-5.4 0.7v18.8z m0 5.5v18c0 2.1 0.7 3.7 2 4.8s3.3 1.6 5.9 1.6c1.4 0 2.8-0.3 4-0.9 1.3-0.6 2.3-1.4 3.2-2.5s1.6-2.3 2.1-3.7c0.5-1.5 0.8-3 0.8-4.7 0-8.6-4.2-12.8-12.6-12.8-0.8 0-1.7 0-2.6 0.1-0.9-0.1-1.9 0-2.8 0.1z m53.1 4.3l-5.7 16.7c-0.2 0.8-0.3 1.5-0.1 1.9 0.1 0.4 0.9 0.6 2.2 0.8l5 0.4v1.9h-0.4c-0.5 0-1.2-0.1-2.1-0.1H319.00832l-2.2 0.1c-0.6 0-1 0-1.3 0.1v-1.9l4.7-0.4c1.6-0.2 2.8-1.1 3.4-2.9l17-47.3h3l16.3 46.7c0.3 0.9 0.7 1.5 1 1.8 0.3 0.3 0.8 0.6 1.6 0.9l4.1 1.3v1.8l-1.2-0.1c-0.7 0-1.6-0.1-2.6-0.1-1.3 0-2.6-0.1-4.1-0.1h-6.4c-3.3 0-6 0.1-8.2 0.2v-1.8l4.8-0.8c0.7-0.1 1.2-0.2 1.6-0.4 0.4-0.1 0.7-0.3 0.8-0.6 0.1-0.2 0.2-0.5 0.1-0.9 0-0.3-0.1-0.6-0.2-0.9l-5.6-16.3h-13.3z m12.8-3l-5.5-16.4-6 16.4h11.5z m39.7 17.4c0 1.4 0.1 2.3 0.4 2.8 0.3 0.5 0.9 0.8 1.8 0.9l5.9 0.8v2c-2.8-0.2-5.6-0.2-8.4-0.2-2.8 0-6.1 0.1-9.8 0.2v-2l3.9-0.8c1.6-0.3 2.6-0.7 3.1-1.1s0.7-1.3 0.7-2.5v-34.2c0-2.5-0.2-4.4-0.7-5.6-0.5-1.2-1.4-2-2.7-2.3l-4.1-0.7V577h11.5c0.5 0 1 0.1 1.4 0.2 0.4 0.1 0.7 0.3 1.1 0.6 0.3 0.2 0.6 0.5 0.9 0.9l28.6 35.8-0.3-30.9c0-1.5-0.2-2.5-0.6-3-0.4-0.5-1-0.9-1.9-1l-5.6-0.8v-2.1l0.5 0.1c1.4 0.1 3.8 0.2 7 0.2h6.5c0.8 0 1.4-0.1 1.9-0.2v2.1l-3.7 0.3c-0.8 0.1-1.3 0.5-1.5 1.2s-0.3 1.8-0.2 3.3l0.3 45.6H419.00832l-34.2-42.6V622z m75.6 5.2v2.1l-0.9-0.1c-0.8-0.1-1.8-0.1-2.9-0.2l-1.9-0.1h-3.9c-2 0-3.7 0-5.3 0.1l-2 0.1c-1.2 0.1-2.1 0.1-2.8 0.2v-2.1l4-0.7c0.7-0.1 1.2-0.3 1.5-0.7s0.4-1 0.4-2v-42c0-0.9-0.1-1.5-0.3-1.8-0.2-0.2-0.7-0.5-1.5-0.6l-4-0.7v-1.9c0.1 0.1 0.6 0.1 1.2 0.1l2.5 0.1h11.3l2.7-0.1h1c0.4 0 0.8-0.1 1.2-0.1v1.9l-3.9 0.7c-0.7 0.1-1.2 0.3-1.5 0.6-0.2 0.3-0.4 0.9-0.4 1.8v42c0 0.9 0.1 1.5 0.4 1.9 0.3 0.4 0.8 0.6 1.5 0.7l3.6 0.8z m34.6 2.1c-1.1-0.1-2.4-0.2-3.8-0.2h-0.9c-1.5 0-3.3-0.1-5.2-0.1h-8.2c-0.9 0-1.7 0-2.5 0.1l-1.7 0.1c-0.6 0-1.1 0.1-1.5 0.1v-2l5.2-1c0.8-0.2 1.1-0.4 1.1-0.8s-0.5-1-1.3-1.8L461.50832 609c-1.1-1.1-2.2-2-3.2-2.9l-1.2-1c-0.6-0.5-1.1-0.9-1.6-1.3 1.1-0.6 2.4-1.5 3.9-2.7s2.8-2.4 3.9-3.6l12.2-12.6 2.7-2.8c0.5-0.6 0.8-1.1 0.8-1.6s-0.3-0.8-1-0.9l-4.7-0.8v-2.2l0.5 0.1c1.5 0.1 4.3 0.2 8.4 0.2h2.1c3.3 0 5.6-0.1 6.8-0.2v2.2c-1.1 0.1-2.1 0.3-3.1 0.7-0.9 0.3-2 0.8-3 1.3-1.1 0.6-2.2 1.3-3.5 2.2-1.3 0.9-2.7 2.2-4.1 3.7l-12.8 13.4 19.9 19.9 1.6 1.5c0.3 0.3 0.6 0.6 0.9 0.8l1.7 1.6c0.4 0.3 0.7 0.6 0.9 0.8 0.4 0.4 0.9 0.7 1.3 1 0.5 0.3 0.9 0.5 1.4 0.6l3 0.7v2.2z m46.9 0c-3.9 0-7.5-0.7-10.8-2-3.3-1.3-6.2-3.1-8.6-5.5-2.4-2.3-4.3-5.1-5.7-8.4-1.4-3.3-2.1-6.9-2.1-10.8 0-4 0.7-7.7 2.1-11.1 1.4-3.4 3.4-6.3 5.9-8.7s5.4-4.4 8.8-5.7c3.4-1.4 7.1-2 11-2 3.7 0 7.2 0.7 10.4 2s6 3.3 8.4 5.7 4.3 5.4 5.6 8.7 2.1 7 2.1 10.9c0 3.9-0.7 7.5-2 10.8s-3.2 6.1-5.5 8.5c-2.4 2.4-5.2 4.3-8.6 5.6-3.2 1.3-7 2-11 2zM523.00832 602.1c0 3 0.5 6 1.4 8.8s2.2 5.4 3.9 7.6c1.7 2.2 3.6 4 6 5.4 2.3 1.3 4.9 2 7.8 2 6.1 0 10.7-2 14-6.1 3.3-4.1 4.9-10.1 4.9-17.9 0-3.6-0.4-6.9-1.3-10-0.9-3.1-2.1-5.8-3.7-8s-3.6-4-6-5.3c-2.4-1.3-5.1-1.9-8.1-1.9-3.2 0-5.9 0.7-8.2 2.1-2.3 1.4-4.3 3.3-5.9 5.6-1.6 2.3-2.7 5-3.5 8.1-1 3-1.3 6.2-1.3 9.6z m78.7 27.2c-1.7-0.1-3.5-0.2-5.4-0.3-1.9-0.1-3.9-0.1-5.8-0.1h-5.6c-1.8 0.1-3.2 0.1-4.3 0.3v-2.3l4.5-0.6c0.8-0.1 1.4-0.4 1.6-0.8s0.4-1.2 0.4-2.2V583c0-1.2-0.1-2.1-0.3-2.7-0.2-0.6-0.7-0.9-1.5-1l-4.1-0.6v-2l2.6 0.1c1.5 0 3.6 0 6.2 0.1h24.6l2.1-0.1c0.6 0 1.2 0 1.8-0.1v0.7c0 0.6-0.1 1.4-0.1 2.4V587.1c0 1 0 1.9 0.1 2.6h-1.4l-0.4-1.5c-0.4-1.4-0.7-2.6-1-3.5-0.4-1.3-0.8-2.2-1.2-2.9-0.4-0.7-0.9-1.1-1.4-1.3-0.5-0.2-1.2-0.3-1.9-0.3h-14c-0.8 0-1.4 0.3-1.7 0.8-0.3 0.5-0.4 1.4-0.4 2.7v17h8.6c0.9 0 1.4-0.2 1.8-0.5 0.3-0.3 0.6-1 0.8-2l1.2-5.4h1.5l-0.1 1.3v7c0 3.5 0.1 6.9 0.2 10.1h-1.4l-1.5-5.4c-0.3-1.2-0.7-1.8-1.2-2-0.4-0.2-1.2-0.3-2.4-0.3h-7.5v19.8c0 0.8 0 1.3 0.1 1.7s0.3 0.6 0.5 0.8 0.5 0.3 0.8 0.4l0.6 0.1c0.2 0 0.5 0.1 0.7 0.1l4 0.6v2.3z m74.8-6.9l-10-14.7-8.9 12c-0.9 1.2-1.4 2.2-1.5 3-0.2 0.9-0.1 1.6 0.2 2.2 0.3 0.6 0.8 1 1.4 1.3 0.7 0.3 1.4 0.5 2.3 0.5l4.6 0.6v2c-1.2-0.1-2.4-0.2-3.8-0.2h-1.1c-1.5 0-3.2-0.1-5-0.1h-1.1c-1.8 0-3.5 0-5.2 0.1h-1.2c-2 0.1-3.9 0.1-5.7 0.2v-2l4.9-0.8c1.3-0.3 2.5-0.9 3.6-1.8s2.4-2.4 3.8-4.3l11-14.8-14.3-21.6-1.7-2.4c-0.4-0.6-0.8-1.1-1.2-1.4s-0.6-0.6-0.9-0.7-0.6-0.2-1-0.3l-4.2-0.7v-1.9l1.4 0.1c1.2 0.1 2.5 0.1 4 0.2l2.5 0.1h7.8c1.5 0 2.9 0 4.2-0.1h1.2c1.4-0.1 2.4-0.1 3.2-0.2v1.9l-3.6 0.7c-1.8 0.3-2.7 0.9-2.7 2s0.5 2.4 1.6 4l8.8 13.3 9.8-13.8c0.7-1.1 1.1-1.9 1.1-2.7 0-1.2-0.9-2.1-2.7-2.5l-4.3-1.1v-1.9c1.4 0.1 3 0.2 4.7 0.2h8.2c1.2 0 2.2 0 3.1-0.1l1.1-0.1c0.9-0.1 1.5-0.1 2.1-0.2v1.9l-4 0.8c-1.6 0.3-3.6 2-5.9 5.2l-11.5 15.9 14.8 21.1c2.1 3 3.8 4.6 5.3 4.9l4.2 0.7v2c-1.6-0.1-3.4-0.2-5.5-0.2s-4.2-0.1-6.4-0.1-4.5 0-6.7 0.1-4.4 0.1-6.5 0.2v-2l3.1-0.5 1.1-0.2c0.5-0.1 0.9-0.2 1.3-0.3 0.6-0.1 1-0.4 1.3-0.7s0.3-0.7 0.1-1.2c-0.2-0.1-0.6-0.8-1.2-1.6z m34.6 1.5v-42c0-0.9-0.1-1.6-0.4-2-0.3-0.4-0.7-0.6-1.4-0.7l-5.1-0.7v-1.8h0.1c0.9 0.1 5.8 0.2 14.7 0.2h1.6c2 0 3.7-0.1 5-0.2v1.9l-4.3 0.7c-0.9 0.1-1.6 0.3-2 0.5-0.4 0.2-0.6 1-0.6 2.1v42c0 1 0.1 1.6 0.4 1.9 0.2 0.3 0.7 0.4 1.4 0.5l5.1 0.4v2.5l-0.7-0.1c-0.7-0.1-1.7-0.1-2.8-0.2l-1.8-0.1h-12c-1.8 0.1-3.1 0.1-4.1 0.2v-2.5l4.4-0.3c1-0.2 1.7-0.3 2-0.5 0.3 0 0.5-0.7 0.5-1.8z m36.8-1.9c0 1.4 0.1 2.3 0.4 2.8 0.3 0.5 0.9 0.8 1.9 0.9l6.3 0.8v2c-3-0.2-6-0.2-9-0.2s-6.5 0.1-10.4 0.2v-2l4.1-0.8c1.7-0.3 2.8-0.7 3.3-1.1s0.7-1.3 0.7-2.5v-34.2c0-2.5-0.2-4.4-0.7-5.6-0.5-1.2-1.4-2-2.8-2.3l-4.4-0.7V577h12.2c0.6 0 1.1 0.1 1.5 0.2 0.4 0.1 0.8 0.3 1.2 0.6 0.3 0.2 0.6 0.5 1 0.9l30.4 35.8-0.3-30.9c0-1.5-0.2-2.5-0.6-3-0.4-0.5-1.1-0.9-2.1-1l-5.9-0.8v-2.1l0.6 0.1c1.5 0.1 4 0.2 7.5 0.2H789.60832c0.9 0 1.5-0.1 2-0.2v2.1l-3.9 0.3c-0.8 0.1-1.4 0.5-1.6 1.2s-0.3 1.8-0.2 3.3l0.3 45.6h-1.8L748.00832 586.7V622z m84 4.3l4.8 1v2l-2.3-0.1c-1.5 0-2.9-0.1-4.2-0.1l-4.7-0.1H819.10832c-1.6 0-3.2 0.1-4.8 0.2v-1.8l4-0.8c1-0.2 1.8-0.5 2.5-1s1-1.2 1-2v-13.4c0-0.6 0-1.3-0.3-2-0.2-0.7-0.6-1.4-1-2.2L809.00832 584.4c-1.8-3.3-3.3-5.1-4.5-5.2l-3.1-0.5v-1.9l0.5 0.1c1.2 0.1 4 0.2 8.4 0.2h6.9l2.7-0.1h0.9c0.4 0 0.7-0.1 1-0.1v1.9l-3.2 0.7c-1.3 0.3-1.9 0.8-1.9 1.6 0 0.3 0.1 0.6 0.3 0.9l11.3 21.6c1.8-3.2 3.5-6.4 5.2-9.7 1.7-3.2 3.5-6.4 5.3-9.6 0.7-1.2 1-2.1 1-2.9 0-0.9-0.6-1.5-1.8-1.8l-3.8-0.8v-1.9h0.2c0.7 0.1 3 0.2 6.8 0.2h2.2c1.1 0 2.1 0 3-0.1h0.8c0.9-0.1 1.6-0.1 2-0.2v1.9l-2.4 0.7c-0.7 0.2-1.6 0.8-2.6 1.8-1 1.1-2.2 2.7-3.4 4.9l-10.2 18.2c-0.4 0.6-0.6 1.3-0.8 2.2-0.1 0.7-0.2 1.8-0.2 3.3v13.8c-0.1 1.3 0.7 2.3 2.3 2.7z m34.6-18.7l-5.9 16.7c-0.3 0.8-0.3 1.5-0.2 1.9 0.2 0.4 0.9 0.6 2.3 0.8l5.1 0.4v1.9h-0.4c-0.5 0-1.2-0.1-2.2-0.1h-12.5l-2.3 0.1c-0.6 0-1 0-1.3 0.1v-1.9l4.8-0.4c1.7-0.2 2.8-1.1 3.5-2.9l17.5-47.3h3.1l16.9 46.7c0.4 0.9 0.7 1.5 1 1.8 0.3 0.3 0.9 0.6 1.7 0.9l4.2 1.3v1.8l-1.2-0.1c-0.8 0-1.7-0.1-2.7-0.1-1.3 0-2.7-0.1-4.2-0.1h-6.6c-3.4 0-6.2 0.1-8.5 0.2v-1.8l5-0.8c0.7-0.1 1.3-0.2 1.7-0.4 0.4-0.1 0.7-0.3 0.8-0.6 0.1-0.2 0.2-0.5 0.1-0.9 0-0.3-0.1-0.6-0.2-0.9l-5.8-16.3h-13.7z m12.2-3l-5.1-16.7-6.1 16.7h11.2z m40.5 17.4c0 1.4 0.1 2.3 0.4 2.8s0.9 0.8 1.9 0.9l6.3 0.8v2c-3-0.2-6-0.2-9-0.2s-6.5 0.1-10.4 0.2v-2l4.1-0.8c1.7-0.3 2.8-0.7 3.3-1.1s0.7-1.3 0.7-2.5v-34.2c0-2.5-0.2-4.4-0.7-5.6-0.5-1.2-1.4-2-2.8-2.3l-4.4-0.7V577h12.2c0.6 0 1.1 0.1 1.5 0.2 0.4 0.1 0.8 0.3 1.2 0.6 0.3 0.2 0.6 0.5 1 0.9l30.4 35.8-0.3-30.9c0-1.5-0.2-2.5-0.6-3-0.4-0.5-1.1-0.9-2.1-1l-5.9-0.8v-2.1l0.6 0.1c1.5 0.1 4 0.2 7.5 0.2H960.90832c0.9 0 1.5-0.1 2-0.2v2.1l-3.9 0.3c-0.8 0.1-1.4 0.5-1.6 1.2-0.2 0.7-0.3 1.8-0.2 3.3l0.3 45.6h-1.8l-36.4-42.6V622z m104.5-14.2l-3.8 0.6c-0.8 0.2-1.4 0.4-1.7 0.7-0.3 0.3-0.5 0.8-0.5 1.6v7.6c0 1.6 0 2.8-0.1 3.6 0 0.9-0.2 1.6-0.5 2.1s-0.7 1-1.3 1.3l-0.6 0.4c-0.5 0.2-1 0.5-1.7 0.8-0.9 0.4-2 0.8-3.2 1.2-1.2 0.3-2.4 0.6-3.7 0.8-1.3 0.2-2.6 0.4-4 0.5-1.4 0.1-2.7 0.2-4.1 0.2-3.7 0-7.1-0.6-10.2-1.8s-5.9-2.9-8.2-5.2c-2.3-2.3-4.2-5-5.5-8.2s-2-6.9-2-11c0-4.6 0.7-8.7 2.2-12.2 1.5-3.5 3.5-6.4 6-8.8 2.5-2.4 5.5-4.1 8.8-5.3 3.4-1.2 7-1.8 10.8-1.8 2.2 0 10.2 0.9 13.5 4.1 0.8 0.7 1.1-0.2 0.9-2.9h1.9v15.5h-1.4c-0.7-2.1-1.5-3.9-2.5-5.7-0.9-1.7-2-3.2-3.2-4.4s-2.5-2.2-4-2.8-3.1-1-5-1c-3.1 0-5.9 0.6-8.3 1.8-2.4 1.2-4.4 2.8-5.9 5-1.6 2.1-2.8 4.7-3.6 7.7-0.8 3-1.2 6.3-1.2 10 0 3.3 0.4 6.4 1.3 9.4s2.1 5.6 3.7 7.8c1.6 2.3 3.6 4 5.9 5.3s4.9 2 7.8 2c3.6 0 6.1-0.8 7.5-2.4 1.4-1.6 2.1-3.7 2.1-6.2v-7.3c0-0.9-0.2-1.5-0.5-1.8-0.4-0.3-0.9-0.5-1.7-0.6l-5.8-0.6v-2.2c3.7 0.2 7.3 0.3 10.8 0.3s7.1-0.1 10.8-0.3v2.2z" fill="#CC291F"></path><path d="M1016.60832 434.8c0.3 9-3.7 18-8.1 24-4.9 0.9-7.2 2.6-11.6 2.6-5.4 0-11.4-4.7-16.1-1.5-3.3 2.2-3.7 12.9-4 17.4-0.7 10.9 5.6 46.7-10.1 44.4-10.5-1.6-5.1-24-5-36.7 0-8.6 1.1-22.2-1.5-26-1.7-2.5-4.9-3.3-8.1-3.6-16.9-1.3-29.6 7.9-44.3 4.6-0.5-6.2 0.3-17.2 6.5-19.9 4.4-1.9 12.1 0.5 17.6 1 8.8 0.8 20.9-2.4 34.7-2.6 21.3-0.2 39.9 3.9 49.3-4.1 0.6-0.2 0.7 0 0.7 0.4z m-18.1-26.2c7.9 11.6-14.4 13.1-25.4 13.3-12.2 0.2-23.3-0.5-33 0-6.7 0.4-16.8 2.6-19.8-2.6-3.5-6 3-14.9 10.1-14.8 4.1 0 7.9 1.5 12.7 2 18.6 2 44-2.6 55.4 2.1zM901.00832 427.5c5 7.7-1.4 11.5-4.1 16.8-2 4-1.7 8-4.6 10.2 2 5.9 1.4 13 1 21.9-0.6 12.5 4.5 29.5-2.5 35.2-4.5 3.6-24.5 6.8-25-4.1 18.2-1.4 13.6-32 12.7-50.5-5.6 1.3-8.9 5.9-13.2 8.7-4.5 2.8-9.3 5.1-14.8 7.1-4.4-6.6-1.5-19.9 4.1-22.9 5.6 0.8 10.8 0 16.8-4.1 5.5-3.7 12.7-7.9 16.8-11.2 3.9-3 5.9-12.2 12.8-7.1z m-1.9-23.3c1 3 0.6 7.7-1.5 10.7-2.4 3.5-18.5 16.7-26.6 17.5-9.4 1-16.1-7.8-13.8-17.1 11.6 2.3 22.5-2.1 30-7.3 3.3-2.1 6.8-7.7 11.9-3.8zM762.70832 469c-4.5-0.3-10.7-0.5-14.8 1.6-5.5 2.8-5.3 16.8-4.7 22.9 12.7 0.5 17.2-14.5 19.5-24.5z m18.2 21.6c-1.5-3.1-3.2-6.1-4.2-9.8-6.4-2.6-7.8 6.5-10.6 10.3 3.7 2.1 10-0.3 14.8-0.5z m1.4-37.6c1.6-2.5 2.5-6.2 1.5-10-12.2-1.4-25.1-0.1-35.5 2.1-1.3 2.5-3.3 7.4-1 10.5 10.6-0.6 21.9-4.5 35-2.6z m4.7-27.4c0.9-1.9 0.4-4.7 0-6.8-8.6-1.2-52.3-4.4-37.8 10.4 7.7 0.2 18.5-2.5 27.8-2.1 3.8 0.2 7.5 1.6 10-1.5z m41.7 82.7c-1.1 2.6-5.2 4.4-8.6 6.6-7.4 4.8-18.7 8.1-27.4 0.5-3.9-5.8-5.6-13.8-9.1-19.9-4.5 1.1-6.9 7.6-12.2 8.1-7.7 0.7-15.1 0.6-22.3 2-6.3 1.3-11.5 5.1-17.8 6.6-5.2 1.3-10.2 0.4-14.7 1.5-4 1-7 3.8-11.2 2.5-2.1-10.5 6.4-12 13.2-15.3 5.5-2.6 10.9-7.4 12.7-13.2 2.6-8.4 0.5-14.9 1.5-23.9 0.7-6.1 3.4-10.9 3-17.3-0.2-2.6-1.5-5.4-1.5-8.7-0.1-5.7 1.6-11.5 1-17.3-0.7-6.6-3.4-13.2 0-19.9 2.2-2.9 6.9 0.5 10.7 1 5.2 0.7 12.4-1.6 20.3-2 6.7-0.4 14.3-0.5 19.8 0 3.1 0.3 6.1 1.6 8.1 1.5 4.4-0.1 12.1-3.6 13.7 2 0.8 2.8-2.8 9.1-4.1 12.2-2 4.9-4.5 8-5.6 10.7-6.1 14.9-2.8 34.8-13.2 42.8 4.9 11.3 15.1 21.2 25.4 29.5 3.2 2.6 7 6.7 10.2 7.6 2.7 1.2 6.4-0.8 8.1 2.4z m-98.9-102.7c-3.1 3.5-2.7 7.8-6 10.6-6.5 5.6-23.7 2.2-33.7 5-5.6 1.6-7.1 6.2-10.6 9.6 7.1 0.7 14.9-3.4 23.6-4 7.5-0.5 15 0.3 21.6 2.5 2.6 11.8-12 14.7-23.6 15.6-1.3 1.1-2.2 4.6-1 6.6 6.4 1 18.4-4.5 24.1 0.5-2 10.8-11.5 14-22.6 15.6-3.2 3.3-6.8 11.1-4 17.1 3.2 0.1 5.4-3.2 8-5 2.9-2 6-2.9 9.1-4.5 2.3-1.2 4.6-4.6 7.5-3.5-0.1 3.9-1.8 7.6-4 11.1-5.6 8.8-17.5 13.9-25.6 22.2-5.7 5.8-12.6 14.3-21.1 11.1 4.4-15 14.7-24.2 15.6-42.9-5-2.5-14.9 3.6-19.6-1-3.8-3.8-1.6-9.7 1-12.1 2.3-2.2 4.9-1.1 8.5-2 4.4-1.1 12.3-5.4 12.6-6.6 0.6-2.1-1-3.2-1-4.5-4.7 0.2-11.8 2.8-14.6-1-1-3.3-0.3-8.5-0.5-12.6-6.7-0.9-12.9-2.2-14.6-8.1 7.1-8.1 20-21.1 27.7-30.8 3.7-4.7 9.8 2.8 8 9.1 10.4 2.4 25.1-2.4 35.2 2z m-423.4-1.8c4.7-3.2 3.3-6.6 6.4-6.6s8.3 7.7 5.7 11.4c-2.6 3.7-8 15.2-10 16.6-2 1.4-5.3 2.4-5.3 6.6s-1.8 25-1.8 37.2-2.1 28.4-2.1 35.8c0 7.5 3.4 20.1-2.2 17.5-5.6-2.6-8.2-19.9-8.2-30.2s3-21.1 3-28.1 4.5-22.8 0-28.4-4.9-1.5-7.8-1.5-11-3.5-11-7.7 0.6-8.7 0-11.1 0-7 5.5-7 5.3-3.2 12-3.2 11.2 1.8 15.8-1.3z m65.9-7.8c8.9 0 11.5 3.5 12.8 6.9 1.3 3.4 4 6.8 10.3 6.8 6.2 0 13.8 3.4 17.5 3.4s8.1 0 10.4 2.1c2.3 2.1 13.7-5.2 13.7 0s-19.3 17.4-24.1 13.6-22.4-8.4-35.5-8.4-18.4 2.7-29.9 2.7-20.1 7.8-23.8 7.8c-3.7 0-7.9-11.8-6.2-15.6s4.8 0 9.9 0 20.2-5.5 29-5.5 9.7-6.9 9.7-8.6-2.8-5.2 6.2-5.2z m-33.1 41.8c6.3 0 10.9-5.2 17.9-5.2 7 0 15.1-1.8 28.9-1.8 13.7 0 29 8.3 26 12.7s-12.2 4.9-22.8 2.4-34 0-39.2 0c-5.1 0-9.3 5.5-15 2.5-5.7-2.9-2.2-10.6 4.2-10.6z m-12.8 25.1c5.8 0 7.1 0 14.7-3s23.2-4.4 38.3-4.4 37.3 5.9 41.6 7.4c4.3 1.5-2.7 7.2-6.8 9.1-4.1 1.9-14.4 0.7-30.1-2.8s-30.4 1-36.1 1-14.3 7.8-21.6 4.5c-7.4-3.3-5.8-11.8 0-11.8z m7.2 23.7c1.8-5.4 5.5-3 9.6-3s9.9-1.8 19.6-3.4c9.7-1.7 32-2.1 34.8 0 2.8 2.1 7.2 1.7 9.9 1.7s4.9-2 8.1 1.8c3.2 3.8-6.6 12.1-8.1 15.8-1.5 3.6 1.5 9.5 4.9 13.9 3.4 4.4-1.7 9.4-6.2 9.4s-15.3-4.8-20-6.5c-4.7-1.8-16.4 0-23.3 0s-13.1 1.7-21.6 1.7-11.4 11-18.4 4.8c-7.1-6.2 7-14.4 7-19.5 0-5.2 1.9-11.3 3.7-16.7z m13.8 6.2c-4.4 1.2-7.7 9.2-3.7 11.2s9.5-1 13.4-1h19.8c3.7 0 6.4-1 10.1 0 3.6 1 11.6 2.8 11.6-1.3s3.1-7.7-2.4-8.9c-5.5-1.2-9.2-3.4-13.7-3.4-4.4 0-9.9 2-16.1 1s-14.5 1.1-19 2.4z m130.2-90c6.8 0 8.6-1.4 13.1-4.2s15.9-4.7 23.4-3 17.9 0 23 9.7-7.6 15.9-13 22.4c-5.4 6.5-6.2 7.9-6.2 12.6s13.7 11.7 15.6 18.7c1.8 7-7.8 11.3-13.9 16.5-6.1 5.1-29.7 13.8-33.5 17.7-3.8 3.9-2.4 8.4-1.4 13s-1 15.3-7 16.4c-6 1.1-5.5-6.4-5.5-11.6 0-5.2-1.3-32.2 0-37.8 1.3-5.6 1.8-17.5 3.9-29.1 2.1-11.7-2.1-17.3-5.2-20.7s-6.8-5.3-6.8-13.2 6.7-7.4 13.5-7.4z m16.3 18.8c-6.2 3.4-7 10.7-4.4 12.8 2.7 2.1 11.9 2.7 15.1-1.3s6.6-3.8 6.6-6.8c0-2.9-1.7-8.5-5.2-7.2-3.5 1.2-5.9-0.9-12.1 2.5z m-0.3 34.1c-4.2 0-8.8 5.8-8.8 9.9s-1.1 10.8 3.3 10.8 26.1-9 26.1-14.9-2.7-7.2-8-8.6c-5.1-1.3-8.4 2.8-12.6 2.8z m71.6-52.4c9.4 1.7 18.2 0 27.1-4s18.4 1.7 21.3 4c2.9 2.2 7.7-0.2 13.1-2.2s3.8 9.8 3.8 15.2-11.8 19.9-11.8 25.3-1.7 11.3-3.8 23.3 0 32.2 0 36.1c0 3.9 3.8 8.4 3.8 13.9s-6.1 8.4-10.7 9.6c-4.6 1.2-9.5-7.7-15.7-11.5-6.2-3.8-20.5-2.1-30.9 0-10.4 2.1-23.1 7.1-27.9 8.8-4.8 1.7-6.8-8.2-3.6-10.9s11.5-9.9 17.7-21.7 4.4-57.9 4.4-64.1-7-11-4.4-16.2 8.2-7.3 17.6-5.6z m3.7 25.2c-6.6 3.7-5 17.3-2.5 18.6s8.5 2.6 14.5 0.6 20-1.3 24.3-1.3c4.4 0 3.6-9 3.6-16.3s-5.3-6.9-11.9-6.9c-6.7 0.2-21.4 1.7-28 5.3z m-6.7 52.4c0 6.5-2.3 9.1-2.3 12.9 0 3.8 4.3 3.7 8.8 2.4 4.5-1.2 20.4 0 25.9 1.2s8.6-3.2 8.6-10.3v-16.4c0-3.4-4.5-5.9-9.9-3.4-5.3 2.4-16.1 1.1-22.6 1.1s-8.5 5.9-8.5 12.5z" fill="#231916"></path><path d="M129.00832 419.8c-0.3 2.2-0.6 3.5-0.6 4.7-0.3 14.3-5.9 26.8-13.7 38.4-5.1 7.5-10.7 14.8-16 22.2-1 1.4-1.8 3.1-2.7 4.6 1.2 0.3 1.6 0.1 2-0.2 8.7-6.2 17.4-12.4 26-18.8 7.7-5.7 15.8-11 21.5-18.9 3.3-4.6 4.7-9.6 2.4-14.6-3.7-7.9-10.4-13-18.9-17.4M74.60832 546.4c1.6-1 2.2-1.2 2.7-1.7 9.7-8.9 19.2-18 29.2-26.6 10.5-9 22.4-16.1 34.7-22.3 11.5-5.8 23.3-11.2 34.7-17.2 8.4-4.2 15.8-10.1 21.9-17.2 2.9-3.5 4.8-7.3 5.6-11.8 1.7-10.3-3.1-17.8-9.6-24.8-3.8-4.1-4.4-4-6.7 1-6.7 14.8-17.3 26.6-30 36.4-14 10.9-28.4 21.2-42.4 32-16.5 12.7-28.9 28.8-38.1 47.3-0.7 1.2-1.1 2.5-2 4.9M224.20832 457c-0.8 1.4-1.4 2.3-1.9 3.3-5.4 11.4-13.7 20.3-25.1 25.6-12.9 6-26.3 10.9-39.4 16.7-13.1 5.9-26.4 11.5-38.9 18.6-12.8 7.2-23.9 16.9-33.9 27.7-2.6 2.8-4.9 5.9-7.4 9l0.8 0.7c1-0.6 2.2-1.1 3.1-1.8 9.8-7.5 20.8-12.6 32.1-17.3 21.4-8.8 44-13.3 66.2-19.3 12.3-3.3 24.3-6.8 35.3-13.7 17.7-10.9 17.6-33.8 9.1-49.5M60.70832 605.2l1-0.6c-0.5-1.7-0.8-3.4-1.4-5-10.6-28.5-6.2-55.9 6.9-82.3 7.3-14.8 15.6-29.1 23.5-43.6 4.5-8.3 7.5-17.2 8.9-26.5 1-7.1 0.7-14.1-2.8-21.5-0.8 1.3-1.3 2-1.7 2.8-4.4 8.7-7.8 18-13.4 25.8-9.9 14.1-21 27.3-31.8 40.7-6 7.5-11.1 15.4-14.6 24.3-4.6 12-4.6 24.3-1.6 36.7 3.9 16.2 10.7 30.9 21.2 43.8 1.7 2 3.9 3.7 5.8 5.4M244.60832 514l-1.4-0.7c-0.8 0.5-1.6 0.9-2.5 1.4-6.8 3.3-13.2 7.3-20.3 9.8-22.3 7.6-45.5 11.8-68.6 16.5-12.8 2.6-25.6 5.3-38.1 9-9.2 2.8-18.1 6.4-26.6 10.9-8.7 4.6-15.3 11.7-15.9 22.5-0.7 11.5 6.6 21.3 19.4 25.7 16.7 5.8 32.3 2.7 47.2-5.9 6-3.5 10.8-8.1 14-14.3 4.6-8.9 1.6-17.2-7.9-19.8-5.4-1.5-11.4-1.1-17.1-1.4-0.7 0-1.5 0.6-2.7 1.1 0.8 1 1.4 1.8 2 2.4 6 7 5.3 14.9-1.6 20.9-6.8 5.9-14.9 8-23.7 7.5-6.2-0.4-11.9-2.6-15.9-7.6-7.1-8.8-3.6-19.7 7.7-25.5 10.5-5.6 22.1-8.7 33.9-9.2 13.2-0.4 26.4 0 39.5 0.2 12.3 0.2 24.7 1.5 36.9 1 17.2-0.7 30.2-8.4 36.2-25.4 2.4-6.4 3.8-12.8 5.5-19.1M0.00832 510.5c0.5-70 58.4-129.3 132.1-127.5 69.1 1.7 127 59.2 125.1 132.5-1.7 67.9-59 125.7-130.4 124.7C56.20832 639.2-0.79168 580.6 0.00832 510.5" fill="#CC291F"></path></svg>