<svg viewBox="0 0 1024 1024" version="1.1" xmlns="http://www.w3.org/2000/svg"><path d="M0 0m224 0l576 0q224 0 224 224l0 576q0 224-224 224l-576 0q-224 0-224-224l0-576q0-224 224-224Z" fill="#FFFFFF"></path><path d="M200.188 430.824v67.792c3.864-0.16 12.876-0.24 16.08-0.256h0.804c55.16 0 114.252 32.356 114.252 96.812 0 64.524-59.092 96.828-114.252 96.828C188.14 692 152 685.364 152 648.264v-200.808l48.188-16.632z m385.372 0v67.792c3.864-0.16 12.928-0.24 16.08-0.256h0.788c55.18 0 114.28 32.356 114.28 96.812 0 64.524-59.1 96.828-114.28 96.828-28.924 0-65.008-6.636-65.008-43.736v-200.808l48.14-16.632z m-147.28 67.856c27.364 0 47.2 4.504 60.324 9.432l-10.872 27.54c-9.32-3.628-26.968-8.912-50.564-8.912-29.188 0-35.592 11.48-35.592 22.496 0 14.46 8.64 19.5 42.352 29.192 43.8 12.304 64.744 30.288 64.744 57.216 0 30.252-30.72 56.352-95.492 56.352-26.944 0-54.656-5.52-68.516-11.892l10.52-28.368c14.556 6.42 37.468 11.904 61.036 11.904 29.188 0 39.66-10.24 39.66-25.508 0-14.184-6.72-20.86-38.572-29.512-41.904-11.12-68.492-29.104-68.492-56.052 0-30.836 34.428-53.888 89.464-53.888z m-222.24 28.96c-13.46-0.204-35.156 1.78-35.156 1.78l19.304 8.332v105.308c0 18.176 15.772 19.692 27.42 19.692 51.964 0 49.676-67.4 49.676-67.58 0-0.108 2.996-66.264-61.248-67.528z m385.396 0c-13.512-0.204-35.148 1.78-35.148 1.78l19.272 8.332v105.308c0 18.176 15.808 19.692 27.388 19.692 52.032 0 49.78-67.4 49.704-67.58 0.08-0.108 3.02-66.264-61.216-67.528z" fill="#55210F"></path><path d="M780.236 332C830.916 332 872 373.084 872 423.764c0 50.68-41.084 91.764-91.764 91.764-50.68 0-91.764-41.08-91.764-91.76 0-50.68 41.08-91.768 91.76-91.768z m0 42.06c-27.452 0-49.708 22.252-49.708 49.704s22.256 49.708 49.708 49.708c27.452 0 49.704-22.256 49.704-49.708 0-27.452-22.252-49.704-49.704-49.704z" fill="#F97A14"></path></svg>