<svg viewBox="0 0 1024 1024" version="1.1" xmlns="http://www.w3.org/2000/svg"><path d="M26.518 468.518v36.826c2.208-0.09 7.47-0.134 9.036-0.14h0.256c30.353 0 62.87 17.578 62.87 52.593 0 35.052-32.517 52.6-62.87 52.6C19.888 610.398 0.001 606.794 0.001 586.639V477.554l26.517-9.036z m212.064 0v36.826c2.21-0.09 7.52-0.134 9.042-0.14h0.24c30.363 0 62.884 17.578 62.884 52.593 0 35.052-32.521 52.6-62.884 52.6-15.918 0-35.774-3.604-35.774-23.759V477.554l26.492-9.036z m-81.046 36.86c15.058 0 25.974 2.45 33.195 5.126l-5.983 14.96c-5.129-1.97-14.84-4.84-27.825-4.84-16.061 0-19.585 6.237-19.585 12.22 0 7.856 4.753 10.593 23.305 15.858 24.105 6.683 35.627 16.453 35.627 31.08 0 16.435-16.905 30.614-52.546 30.614-14.827 0-30.076-2.999-37.703-6.46l5.786-15.41c8.012 3.486 20.62 6.466 33.588 6.466 16.063 0 21.826-5.565 21.826-13.857 0-7.706-3.699-11.332-21.226-16.031-23.06-6.042-37.689-15.811-37.689-30.45 0-16.751 18.944-29.275 49.23-29.275zM35.239 521.115c-7.405-0.114-19.343 0.964-19.343 0.964l10.622 4.526v57.208c0 9.875 8.679 10.697 15.09 10.697 28.593 0 27.334-36.615 27.334-36.712v-0.013c0.03-0.76 1.295-35.99-33.703-36.67z m212.077 0c-7.434-0.114-19.34 0.964-19.34 0.964l10.606 4.526v57.208c0 9.875 8.697 10.697 15.071 10.697 28.63 0 27.393-36.615 27.35-36.712 0.043-0.058 1.662-35.995-33.687-36.683zM837.493 557.38c2.356 7.963 5.061 14.512 8.077 19.556 6.45-6.307 9.137-10.865 11.782-19.556h14.437c-3.736 12.293-10.914 21.208-21.694 26.677 6.09 8.12 12.768 12.106 20.859 16.465l-4.47 9.876c-25.58-8.415-37.463-26.528-43.889-53.018z m-46.569-30.94v8.32h-12.055v21.832h14.311v8.82h-14.311v29.063c-0.365 4.207 2.408 6.246 8.174 6.246h5.262l-3.976 8.823h-9.46c-12.057 0.33-16.777-5.002-16.33-16.076v-28.056h-14.862v-8.82h14.861v-21.833h-8.716v-8.32h37.102z m63.174-30.12c6.5 0 11.771 5.321 11.771 11.902v27.453c0.345 11.079-5.442 16.634-17.457 16.634h-31.704v41.193c-0.354 4.15 2.473 7.26 8.33 7.26l4.66-0.041-3.983 8.822h-9.989c-12.067 0.331-16.779-5.001-16.381-16.075V504.4c0-5.406 1.678-8.08 7.557-8.08z m-212.853 15.573c1.057 6.251 2.748 11.1 4.914 14.548H674.701c2.532-5.206 4.006-10.037 4.333-14.548h17.887c-0.72 5.195-3.257 10.067-5.818 14.548h15.42c6.484 0 11.693 5.35 11.693 11.947v54.074c0.365 11.092-5.45 17.414-17.44 17.083h-9.826l-4.008-8.82h5.175c5.866 0 8.54-3.116 8.209-7.256v-33.676l-4.354 4.396c-5.687-1.496-10.015-5.031-10.015-5.031v20.283c0.358 10.736-4.922 15.934-15.789 15.589h-31.949a3.008 3.008 0 0 1-3.002-2.997v-32.387s-5.59 3.3-10.368 4.883l-4.044-5.001v50.017h-17.032V534.53c0-5.388 1.685-8.089 7.546-8.089h17.91c-2.174-3.113-3.812-7.948-4.906-14.548zM1024.001 532.16l-3.34 9.353h-17.529v49.792c0 11.85-6.184 18.239-13.786 18.239h-19.43l-4.07-8.887h8.188c6.334 0 9.107-4.203 9.107-10.869v-48.275h-36.768v-9.353H1024.001z m-79.582-8.316c-2.956 8.978-7.786 15.493-13.581 21.392v64.306h-17.398v-52.506c-1.478 0.958-7.191 3.937-13.377 5.66l-3.872-8.574c13.458-5.715 24.745-16.028 29.741-30.278z m-421.14 4.636c5.805 0 7.457 2.653 7.457 8.05v17.46c0.318 11.418-5.223 16.942-16.707 16.585h-29.803v15.034c-0.387 6.258 3.034 10.554 10.22 10.238h41.737c13.655 0 26.37-1.407 34.374-6.676l5.045 11.246s-12.741 6.545-29.274 6.545h-61.113c-12.519 0.376-20.506-9.307-20.138-20.385v-50.613c0.095-5.031 1.843-7.484 7.417-7.484z m148.43 38.491h-30.945l8.777 3.89v13.833c0 1.38 0.586 2.03 1.993 2.03h12.519c5.447 0 8.008-2.426 7.655-7.283v-12.47z m-177.005-75.32c-1.075 3.819-3.947 7.87-5.738 11.002h66.641c6.418 0 11.637 5.35 11.637 11.916v43.643c0 18.034-22.341 22.721-22.341 22.721l-3.95-8.928c6.437-3.577 7.166-6.964 7.166-18.254v-36.03c0-2.754-1.86-5.062-4.369-5.715h-60.218c-6.116 7.965-18.827 19.703-32.448 24.062l-4.625-10.307c12.62-7.32 23.53-19.918 27.5-34.11z m16.738 46.142h-35.993l8.777 3.89v20.081h22.29c5.399 0 7.9-2.438 7.51-7.284v-14.012c0-1.445-1.138-2.675-2.584-2.675z m153.285-2.518h-8.752c-3.965 9.47-10.15 19.207-19.223 23.376h48.127c-8.39-4.133-15.834-13.35-20.152-23.376z m-25.746 0h-18.176v20.809c10.18-4.322 14.702-13.195 18.176-20.81z m61.345 2.317c0-3.285-2.671-2.317-5.897-2.317h-12.3c3.408 7.443 8.524 16.174 18.197 20.586z m149.234-11.152h-32.852v16.503h24.146c6.19 0.317 9.069-2.437 8.706-8.312v-8.191z m94.859-34.79c-5.85 19.373-20.966 35.372-43.852 41.279l-4.114-9.047c14.521-5.206 25.1-17.708 29.48-32.231z m-164.73 0.003c-0.336 4.477-1.446 8.477-3.247 11.92h17.543l-3.06 8.852H771.511c-4.508 5.63-14.876 13.312-23.379 15.17l-3.942-8.643c10.667-5.472 18.272-16.237 19.74-27.3z m63.975 13.485h-26.956v12.494h32.852v-6.538c0-3.277-2.59-5.956-5.896-5.956z m173.813-5.724l-3.355 9.383h-61.74v-9.383h65.095z m-352.035-7.761l2.573 7.76h50.808l-3.541 8.844H600.535v-8.845h51.12l-2.59-7.76h16.377z" fill="#55210F"></path><path d="M344.291 413c27.893 0 50.505 22.612 50.505 50.506 0 27.894-22.612 50.506-50.506 50.506-27.894 0-50.506-22.612-50.506-50.506 0-27.894 22.612-50.506 50.506-50.506z m0 23.149c-15.11 0-27.358 12.248-27.358 27.357 0 15.11 12.248 27.357 27.357 27.357 15.11 0 27.358-12.248 27.358-27.357 0-15.11-12.249-27.357-27.358-27.357z" fill="#F97A14"></path></svg>