<svg viewBox="0 0 1024 1024" version="1.1" xmlns="http://www.w3.org/2000/svg"><path d="M224 0h576c123.6 0 224 100.4 224 224v576c0 123.6-100.4 224-224 224H224c-123.6 0-224-100.4-224-224V224C0 100.4 100.4 0 224 0z" fill="#FFFFFF"></path><path d="M666 297.2l-64.8-63.6c-3.2-3.2-8-3.2-11.2 0l-64.8 63.6h-102.4c0-91.2 75.2-165.2 168.4-165.2S760 206 760 297.2h-94z m-166.8 177.6h94c0 91.2-75.6 165.2-168.8 165.2S256 566 256 474.8h102.4l64.8 63.6c3.2 3.2 8 3.2 11.2 0l64.8-63.6z m102.8 72.4l63.6-64.8c3.2-3.2 3.2-8 0-11.2l-63.6-64.8V304c91.2 0 165.2 75.6 165.2 168.8s-74 168.8-165.2 168.8v-94.4z m-180-173.2V468c-91.2 0-165.2-75.6-165.2-168.8s74-168.4 165.2-168.4v102.4L358.4 298c-3.2 3.2-3.2 8 0 11.2l63.6 64.8z" fill="#63C3D9"></path><path d="M468 336h92c4.4 0 8 3.6 8 8v92c0 4.4-3.6 8-8 8h-92c-4.4 0-8-3.6-8-8V344c0-4.4 3.6-8 8-8z" fill="#F7D400"></path><path d="M257.2 708h36.4c1.2 0 2.4 0.4 3.2 1.6l37.2 48.8c1.2 1.6 4 2 5.6 0.8 0.4 0 0.4-0.4 0.8-0.8l40-48.8c0.8-0.8 2-1.6 3.2-1.6h33.2c2.4 0 4 1.6 4 4 0 0.8-0.4 2-0.8 2.4l-61.6 74c-0.4 0.8-0.8 1.6-0.8 2.4v88c0 2.4-1.6 4-4 4h-35.6c-2.4 0-4-1.6-4-4v-88c0-0.8-0.4-1.6-0.8-2.4l-59.2-74c-1.2-1.6-1.2-4.4 0.8-5.6 0.4-0.4 1.6-0.8 2.4-0.8z m187.6 0h135.6c4.4 0 8 3.6 8 8 0 2-0.8 4-2 5.6l-121.2 132.4h104.4c8 0 14.8 6.4 14.8 14.8 0 8-6.4 14.8-14.8 14.8h-158.4c-6.8 0-12-5.2-12-12 0-3.2 1.2-6 3.2-8.4l121.2-129.2c1.6-1.6 1.6-4 0-5.6-0.8-0.8-1.6-1.2-2.8-1.2h-76c-5.2 0-9.6-4.4-9.6-9.6 0.4-5.2 4.4-9.6 9.6-9.6z m187.6 81.2h76c10.4-6 17.2-17.2 17.2-29.6 0-18.8-15.2-34.4-34.4-34.4h-54.8c-2.4 0-4 1.6-4 4v60zM740 800c12 9.2 20 24 20 40.8 0 28.4-22.8 51.2-51.2 51.2h-102.4c-4.4 0-8-3.6-8-8v-168c0-4.4 3.6-8 8-8h102c28.4 0 51.2 22.8 51.2 51.2 0.4 16.8-7.6 31.6-19.6 40.8z m-32 10.8h-75.6v60.4c0 2.4 1.6 4 4 4h55.2c18.8 0 34.4-15.2 34.4-34.4 0-13.2-7.2-24.4-18-30z" fill="#63C3D9"></path></svg>