<svg viewBox="0 0 1024 1024" version="1.1" xmlns="http://www.w3.org/2000/svg"><path d="M47.1 472.7h21.5c0.7 0 1.3 0.6 1.3 1.3v21.5c0 0.7-0.6 1.3-1.3 1.3H47.1c-0.7 0-1.3-0.6-1.3-1.3V474c0-0.7 0.6-1.3 1.3-1.3z" fill="#F7D400"></path><path d="M91.3 464.7H112c0-20.3-16.6-36.7-37.1-36.7s-37.1 16.4-37.1 36.7h22.5l14.6-14.4c0.5-0.5 1.3-0.5 1.8 0l14.6 14.4zM40.1 518.4c-0.5 0.5-1.3 0.5-1.8 0L23.6 504H1.1c0 20.3 16.6 36.7 37.1 36.7s37.1-16.4 37.1-36.7H54.6l-14.5 14.4zM77.1 520v20.7c20.3 0 36.7-16.6 36.7-37.1s-16.4-37.1-36.7-37.1V489l14.4 14.6c0.5 0.5 0.5 1.3 0 1.8L77.1 520zM37.8 502.2v-20.7L23.4 467c-0.5-0.5-0.5-1.3 0-1.8l14.4-14.6V428c-20.3 0-36.7 16.6-36.7 37.1s16.4 37.1 36.7 37.1zM73.2 555.4H42.4c-1.2 0-2.1 0.9-2.1 2.1s0.9 2.1 2.1 2.1h17.1c0.2 0 0.3 0.1 0.4 0.2 0.3 0.2 0.3 0.7 0 0.9l-28 30.1c-0.3 0.4-0.5 0.8-0.5 1.3 0 1.1 0.9 2 2 2h36.3c1.8 0 3.2-1.5 3.2-3.2s-1.5-3.2-3.2-3.2H46.8l27.3-30.1c0.2-0.2 0.3-0.6 0.3-0.9 0.1-0.7-0.5-1.3-1.2-1.3zM37.3 556.1c0-0.4-0.3-0.7-0.7-0.7h-7.9c-0.2 0-0.4 0.1-0.5 0.2l-9.1 11.1-0.1 0.1c-0.3 0.2-0.7 0.2-0.9-0.1l-8.4-11.1c-0.1-0.2-0.3-0.3-0.5-0.3H0.7c-0.1 0-0.3 0-0.4 0.1-0.3 0.2-0.3 0.6-0.1 0.9l13.3 16.8c0.1 0.1 0.1 0.3 0.1 0.4v19.8c0 0.4 0.3 0.7 0.7 0.7h8.3c0.4 0 0.7-0.3 0.7-0.7v-19.8c0-0.2 0.1-0.3 0.1-0.4l13.9-16.8v-0.2zM111.6 566.8c0-6.3-5.1-11.4-11.4-11.4H77.5c-0.7 0-1.3 0.6-1.3 1.3v38c0 0.7 0.6 1.3 1.3 1.3h22.8c6.3 0 11.4-5.1 11.4-11.4 0-3.7-1.7-6.9-4.4-9 2.6-1.9 4.3-5.1 4.3-8.8z m-15 25.6H84.3c-0.4 0-0.7-0.3-0.7-0.7v-13.6h16.5c2.4 1.3 4 3.8 4 6.7 0 4.2-3.3 7.6-7.5 7.6z m3.7-19H83.6v-13.5c0-0.4 0.3-0.7 0.7-0.7h12.3c4.2 0 7.6 3.4 7.6 7.6-0.1 2.9-1.6 5.3-3.9 6.6z" fill="#63C3D9"></path><path d="M707.1 467.9c-0.1-0.3-0.3-0.5-0.6-0.5H699v-8.1c0-0.4 0.3-0.7 0.7-0.7h9.1c0.4 0 0.7-0.3 0.7-0.7v-5.2c0-0.4-0.3-0.7-0.7-0.7h-9.1c-0.4 0-0.7-0.3-0.7-0.7v-10.4c0-0.4-0.3-0.7-0.7-0.7h-11.6c-0.4 0-0.7 0.3-0.7 0.7v10.4c0 0.4-0.3 0.7-0.7 0.7h-12.9c-0.4 0-0.7 0.3-0.7 0.7v5.2c0 0.4 0.3 0.7 0.7 0.7h9.5c0.3 0.1 0.5 0.5 0.4 0.8l-13.5 41.9v0.2c0 0.4 0.3 0.7 0.7 0.7h9.9c0.3 0 0.5-0.2 0.6-0.5l6-20.6v40.1c0 0.4 0.3 0.7 0.7 0.7h11.6c0.4 0 0.7-0.3 0.7-0.7V472l4.7 15.3c0.1 0.3 0.3 0.5 0.6 0.5H712.6c0.3-0.1 0.5-0.5 0.4-0.8l-5.9-19.1zM666 446.7h-28.3c-0.4 0-0.7-0.3-0.7-0.7v-4.9c0-0.4-0.3-0.7-0.7-0.7h-15.7c-0.4 0-0.7 0.3-0.7 0.7v4.9c0 0.4-0.3 0.7-0.7 0.7H586c-0.4 0-0.7 0.3-0.7 0.7v61.9c0 2.3-1.8 4.1-4.1 4.1H578c-0.4 0-0.7 0.3-0.7 0.7v7.3c0 0.4 0.3 0.7 0.7 0.7h10.9c4.4 0 8.2-2.4 10.1-6v5.3c0 0.4 0.3 0.7 0.7 0.7h65c0.4 0 0.7-0.3 0.7-0.7V514c0-0.4-0.3-0.7-0.7-0.7h-25.8c-0.4 0-0.7-0.3-0.7-0.7V503c0-0.4 0.3-0.7 0.7-0.7h16.6c0.4 0 0.7-0.3 0.7-0.7v-5.9c0-0.4-0.3-0.7-0.7-0.7h-16.6c-0.4 0-0.7-0.3-0.7-0.7v-6.8h8.8c0.3 0 0.5-0.1 0.6-0.4l3-6.4 4.3 6.5c0.1 0.2 0.3 0.3 0.5 0.3h9.9c0.4 0 0.7-0.3 0.7-0.7 0-0.1 0-0.3-0.1-0.4L654.8 472l3.5-7.6c0-0.1 0.1-0.2 0.1-0.3 0-0.4-0.3-0.7-0.7-0.7h-9.4c-0.3 0-0.5 0.1-0.6 0.4l-9.6 20.2v-24.5c0-0.4-0.3-0.7-0.7-0.7H627c-0.4 0-0.7 0.3-0.7 0.7v26.4l-10.5-14 3.5-7.6c0-0.1 0.1-0.2 0.1-0.3 0-0.4-0.3-0.7-0.7-0.7h-9.4c-0.3 0-0.5 0.1-0.6 0.4l-8.6 18.1v-25.1c0-0.4 0.3-0.7 0.7-0.7H666c0.4 0 0.7-0.3 0.7-0.7V447s-0.3-0.3-0.7-0.3z m-57.8 41.1c0.3 0 0.5-0.1 0.6-0.4l3-6.4 4.3 6.5c0.1 0.2 0.3 0.3 0.5 0.3h9.9v6.8c0 0.4-0.3 0.7-0.7 0.7h-17.3c-0.4 0-0.7 0.3-0.7 0.7v5.9c0 0.4 0.3 0.7 0.7 0.7h17.3c0.4 0 0.7 0.3 0.7 0.7v9.7c0 0.4-0.3 0.7-0.7 0.7H600c0.3-1 0.4-2 0.4-3v-22.6h7.8zM278.5 490.4h23.6c0.7 0 1.3-0.6 1.3-1.3v-30.9c0-0.7-0.6-1.3-1.3-1.3h-65c-0.7 0-1.3 0.6-1.3 1.3v30.9c0 0.7 0.6 1.3 1.3 1.3h27.3v20.7c0 1.7-1.4 3.1-3.1 3.1h-2.5c-0.4 0-0.7 0.3-0.7 0.7v6.4c0 0.4 0.3 0.7 0.7 0.7h9.5c5.6 0 10.2-4.6 10.2-10.2v-21.4z m-29.8-8.2c-0.7 0-1.3-0.6-1.3-1.3v-14.5c0-0.7 0.6-1.3 1.3-1.3h42c0.7 0 1.3 0.6 1.3 1.3v14.5c0 0.7-0.6 1.3-1.3 1.3h-42zM178 441.1h-13.8c-0.4 0-0.7 0.3-0.7 0.7V461c0 0.4-0.3 0.7-0.7 0.7h-20.3c-0.4 0-0.7 0.3-0.7 0.7v7.5c0 0.4 0.3 0.7 0.7 0.7h20.3c0.4 0 0.7 0.3 0.7 0.7v38.4c0 1.5-1.2 2.6-2.6 2.6h-18.3c-0.4 0-0.7 0.3-0.7 0.7v8.5c0 0.4 0.3 0.7 0.7 0.7h30.9c2.9 0 5.3-2.4 5.3-5.3V442c-0.1-0.6-0.4-0.9-0.8-0.9zM218.7 461.6h-20.3c-0.4 0-0.7-0.3-0.7-0.7v-19.2c0-0.4-0.3-0.7-0.7-0.7h-13.8c-0.4 0-0.7 0.3-0.7 0.7v74.9c0 2.9 2.4 5.3 5.3 5.3h30.9c0.4 0 0.7-0.3 0.7-0.7v-8.5c0-0.4-0.3-0.7-0.7-0.7h-18.3c-1.5 0-2.6-1.2-2.6-2.6V471c0-0.4 0.3-0.7 0.7-0.7h20.3c0.4 0 0.7-0.3 0.7-0.7v-7.5c-0.1-0.2-0.4-0.5-0.8-0.5zM305.4 455.6c0.4 0 0.7-0.3 0.7-0.7V449c0-0.4-0.3-0.7-0.7-0.7h-25.8c-0.3 0-0.6-0.2-0.6-0.5l-1.2-6.2c-0.1-0.3-0.3-0.5-0.6-0.5h-14.1c-0.3 0-0.6 0.2-0.6 0.5l-1.4 6.2c-0.1 0.3-0.3 0.5-0.6 0.5h-27.7c-0.4 0-0.7 0.3-0.7 0.7v5.9c0 0.4 0.3 0.7 0.7 0.7h72.6z" fill="#072127"></path><path d="M245.2 521.5l12.5-28.9c0-0.1 0.1-0.2 0.1-0.3 0-0.4-0.3-0.7-0.7-0.7h-11.6c-0.3 0-0.5 0.2-0.6 0.4l-12.6 29c0 0.1-0.1 0.2-0.1 0.3 0 0.4 0.3 0.7 0.7 0.7h11.7c0.3-0.1 0.5-0.2 0.6-0.5zM295 491.7h-11.6c-0.4 0-0.7 0.3-0.7 0.7 0 0.1 0 0.2 0.1 0.3l12.5 28.9c0.1 0.2 0.3 0.4 0.6 0.4h11.7c0.4 0 0.7-0.3 0.7-0.7 0-0.1 0-0.2-0.1-0.3l-12.7-28.9c0-0.2-0.2-0.4-0.5-0.4zM328.4 441.1h-8.8c-0.4 0-0.7 0.3-0.7 0.7v69.9c0 1-0.8 1.9-1.9 1.9h-1.2c-0.4 0-0.7 0.3-0.7 0.7v5.1c0 0.4 0.3 0.7 0.7 0.7h6.2c3.8 0 6.9-3.1 6.9-6.9v-71.3c0.2-0.5-0.1-0.8-0.5-0.8zM340.9 518v-72.9c0-0.4-0.3-0.7-0.7-0.7h-8.5c-0.4 0-0.7 0.3-0.7 0.7V518c0 0.4 0.3 0.7 0.7 0.7h8.5c0.4-0.1 0.7-0.4 0.7-0.7zM344.2 520h9.2c0.4 0 0.7-0.3 0.7-0.7v-77.5c0-0.4-0.3-0.7-0.7-0.7h-9.2c-0.4 0-0.7 0.3-0.7 0.7v77.5c0 0.4 0.3 0.7 0.7 0.7zM359.3 498.9h9.7c0.4 0 0.7-0.3 0.7-0.7v-35.4c0-0.4 0.3-0.7 0.7-0.7H387c0.4 0 0.7 0.3 0.7 0.7v35.4c0 0.4 0.3 0.7 0.7 0.7h10.1c0.4 0 0.7-0.3 0.7-0.7v-35.1c0-3.5-2.9-6.4-6.4-6.4H387c-0.4 0-0.7-0.3-0.7-0.7v-6c0-0.4 0.3-0.7 0.7-0.7h13.7c0.4 0 0.7-0.3 0.7-0.7v-6.9c0-0.4-0.3-0.7-0.7-0.7h-41.4c-0.4 0-0.7 0.3-0.7 0.7v6.9c0 0.4 0.3 0.7 0.7 0.7h12c0.4 0 0.7 0.3 0.7 0.7v6.1c0 0.4-0.3 0.7-0.7 0.7h-12c-0.4 0-0.7 0.3-0.7 0.7v40.9c0 0.2 0.3 0.5 0.7 0.5z" fill="#072127"></path><path d="M378.1 508.7c0.3-0.2 0.7-0.1 0.9 0.2l8 12.7c0.1 0.2 0.3 0.3 0.6 0.3h11.9c0.1 0 0.2 0 0.4-0.1 0.3-0.2 0.4-0.6 0.2-0.9L384 496c-0.1-0.1-0.1-0.2-0.1-0.4V468c0-0.4-0.3-0.7-0.7-0.7h-10c-0.4 0-0.7 0.3-0.7 0.7v27.6c0 0.1 0 0.2-0.1 0.3l-15.2 24.9c-0.1 0.1-0.1 0.2-0.1 0.3 0 0.4 0.3 0.7 0.7 0.7h11.8c0.2 0 0.4-0.1 0.6-0.3l7.6-12.7c0.1 0 0.2 0 0.3-0.1zM484.1 446.4h-15.7c-0.2 0-0.4 0.1-0.5 0.2l-20.6 26.1-0.1 0.1c-0.3 0.2-0.7 0.2-0.9-0.1l-21-26.1c-0.1-0.2-0.3-0.2-0.5-0.2h-15.4c-0.1 0-0.3 0-0.4 0.1-0.3 0.2-0.3 0.6-0.1 0.9l28.7 36.8c0.2 0.2 0.2 0.6 0 0.8l-28.7 35.7c-0.1 0.1-0.1 0.3-0.1 0.4 0 0.4 0.3 0.7 0.7 0.7h15.4c0.2 0 0.4-0.1 0.5-0.2l21-25.1 0.1-0.1c0.3-0.2 0.7-0.2 0.9 0.1l18.9 25.1c0.1 0.2 0.3 0.3 0.5 0.3h15.8c0.1 0 0.3 0 0.4-0.1 0.3-0.2 0.3-0.6 0.1-0.9l-26.8-35.8c-0.2-0.2-0.2-0.6 0-0.8l28.4-36.9c0.1-0.1 0.1-0.3 0.1-0.4-0.1-0.3-0.4-0.6-0.7-0.6z" fill="#072127"></path><path d="M440.7 459.5h12.5c0.7 0 1.3-0.6 1.3-1.3v-12.5c0-0.7-0.6-1.3-1.3-1.3h-12.5c-0.7 0-1.3 0.6-1.3 1.3v12.5c0 0.7 0.6 1.3 1.3 1.3zM547.4 515.3h-13.2c-0.4 0-0.7-0.3-0.7-0.7V484h16c11.3 0 20.5-9.2 20.5-20.5s-9.2-20.5-20.5-20.5h-27.2c-0.4 0-0.7 0.3-0.7 0.7v8.2c0 0.4-0.3 0.7-0.7 0.7h-9.6c-0.4 0-0.7-0.3-0.7-0.7 0-0.1 0-0.2 0.1-0.3l5.8-10c0.2-0.3 0.1-0.7-0.2-0.9-0.1-0.1-0.2-0.1-0.3-0.1h-13.6c-0.2 0-0.4 0.1-0.5 0.3l-16 24.3c-0.2 0.3-0.1 0.7 0.2 0.9 0.1 0.1 0.2 0.1 0.4 0.1h15.3c0.2 0 0.4-0.1 0.5-0.2l4.7-5.9c0.1-0.2 0.3-0.2 0.5-0.2H521c0.4 0 0.7 0.3 0.7 0.7V520c0 1.1 0.9 2 2 2h23.7c0.4 0 0.7-0.3 0.7-0.7V516c0-0.4-0.3-0.7-0.7-0.7z m-14.3-37.8v-27.7c0-0.4 0.3-0.7 0.7-0.7h12.1c7 0 12.8 5.7 12.8 12.8v3.5c0 7-5.7 12.8-12.8 12.8h-12.1c-0.4-0.1-0.7-0.4-0.7-0.7z" fill="#072127"></path><path d="M538.6 458.2c0-0.7 0.6-1.3 1.3-1.3h10.5c0.7 0 1.3 0.6 1.3 1.3v10.5c0 0.7-0.6 1.3-1.3 1.3h-10.5c-0.7 0-1.3-0.6-1.3-1.3v-10.5zM516.9 487.1h-4.5c-0.4 0-0.7-0.3-0.7-0.7v-10.9c0-0.4 0.3-0.7 0.7-0.7h2.7c0.4 0 0.7-0.3 0.7-0.7v-5.5c0-0.4-0.3-0.7-0.7-0.7h-21.2c-0.3 0-0.6 0.2-0.6 0.5l-1.3 5.5c-0.1 0.4 0.1 0.7 0.5 0.8h5.1c0.4 0 0.7 0.3 0.7 0.7v10.9c0 0.4-0.3 0.7-0.7 0.7h-5.3c-0.3 0-0.6 0.2-0.6 0.5l-0.9 4.5c-0.1 0.4 0.2 0.7 0.5 0.8h6.3c0.4 0 0.7 0.3 0.7 0.7v25.7c0 1.5 1.2 2.6 2.6 2.6h16c0.4 0 0.7-0.3 0.7-0.7v-4.2c0-0.4-0.3-0.7-0.7-0.7h-4.5c-0.4 0-0.7-0.3-0.7-0.7v-22.2c0-0.4 0.3-0.7 0.7-0.7h4.5c0.4 0 0.7-0.3 0.7-0.7v-4.5s-0.3-0.3-0.7-0.3zM555.3 499.1c-0.1-0.1-0.1-0.3-0.1-0.4 0-0.4 0.3-0.7 0.7-0.7h11.6c0.4 0 0.7-0.3 0.7-0.7v-5c0-0.4-0.3-0.7-0.7-0.7h-30.1c-0.1 0-0.3 0-0.4 0.1-0.3 0.2-0.3 0.6-0.1 0.9l22.2 28.9c0.1 0.2 0.3 0.3 0.5 0.3h13.1c0.2 0 0.3-0.1 0.4-0.1 0.3-0.2 0.3-0.6 0.1-0.9l-17.9-21.7zM722.9 497.6H733c0.3-0.1 0.5-0.5 0.4-0.8l-8.7-25.6c-0.1-0.3-0.3-0.4-0.6-0.4h-10c-0.3 0.1-0.5 0.5-0.4 0.8l8.6 25.6c0 0.2 0.3 0.4 0.6 0.4z" fill="#072127"></path><path d="M754.7 452.1h-4.6c-0.4 0-0.7-0.3-0.7-0.7v-9c0-0.4-0.3-0.7-0.7-0.7H737c-0.4 0-0.7 0.3-0.7 0.7v9c0 0.4-0.3 0.7-0.7 0.7h-18.5c-0.4 0-0.7 0.3-0.7 0.7v5.2c0 0.4 0.3 0.7 0.7 0.7h18.5c0.4 0 0.7 0.3 0.7 0.7v46.9c0 5-4.1 9.1-9.1 9.1h-8.5c-0.4 0-0.7 0.3-0.7 0.7v5.2c0 0.4 0.3 0.7 0.7 0.7h15c8.7 0 15.7-7 15.7-15.7v-46.9c0-0.4 0.3-0.7 0.7-0.7h4.6c0.4 0 0.7-0.3 0.7-0.7v-5.2c0-0.4-0.3-0.7-0.7-0.7zM771.6 464.5l4.4-5.4c0.1-0.2 0.3-0.2 0.5-0.2h13c0.4 0 0.7-0.3 0.7-0.7v-6.5c0-0.4-0.3-0.7-0.7-0.7h-6c-0.1 0-0.3 0-0.4-0.1-0.3-0.2-0.3-0.6-0.1-0.9l6.4-8.4c0.1-0.1 0.1-0.3 0.1-0.4 0-0.4-0.3-0.7-0.7-0.7h-14.4c-0.2 0-0.4 0.1-0.5 0.3l-17.2 23c-0.1 0.1-0.1 0.3-0.1 0.4 0 0.4 0.3 0.7 0.7 0.7h13.8c0.2-0.1 0.4-0.2 0.5-0.4zM787.5 515.1h-2.7c-1.8 0-3.3-1.5-3.3-3.3v-19.1c0-0.4 0.3-0.7 0.7-0.7h5.4c0.4 0 0.7-0.3 0.7-0.7v-4.6c0-0.4-0.3-0.7-0.7-0.7h-5.4c-0.4 0-0.7-0.3-0.7-0.7v-10.2c0-0.4 0.3-0.7 0.7-0.7h5.4c0.4 0 0.7-0.3 0.7-0.7v-7.2c0-0.4-0.3-0.7-0.7-0.7H764c-0.4 0-0.7 0.3-0.7 0.7v7.2c0 0.4 0.3 0.7 0.7 0.7h5.2c0.4 0 0.7 0.3 0.7 0.7v10.2c0 0.4-0.3 0.7-0.7 0.7H764c-0.4 0-0.7 0.3-0.7 0.7v4.6c0 0.4 0.3 0.7 0.7 0.7h5.2c0.4 0 0.7 0.3 0.7 0.7v26.6c0 1.5 1.2 2.6 2.6 2.6h15.2c0.4 0 0.7-0.3 0.7-0.7v-5.5c-0.2-0.3-0.5-0.6-0.9-0.6z" fill="#072127"></path><path d="M844.7 502.3h-7.3c-0.4 0-0.7-0.3-0.7-0.7v-36.5c0-4-3.3-7.3-7.3-7.3h-6.7c-0.4 0-0.7-0.3-0.7-0.7v-4c0-0.4 0.3-0.7 0.7-0.7h17c0.4 0 0.7-0.3 0.7-0.7v-4.6c0-0.4-0.3-0.7-0.7-0.7h-17c-0.4 0-0.7-0.3-0.7-0.7v-4.8c0-0.4-0.3-0.7-0.7-0.7h-10.2c-0.4 0-0.7 0.3-0.7 0.7v4.8c0 0.4-0.3 0.7-0.7 0.7h-16.6c-0.4 0-0.7 0.3-0.7 0.7v4.6c0 0.4 0.3 0.7 0.7 0.7h16.6c0.4 0 0.7 0.3 0.7 0.7v4c0 0.4-0.3 0.7-0.7 0.7h-14.3c-0.4 0-0.7 0.3-0.7 0.7v43.2c0 0.4-0.3 0.7-0.7 0.7h-5.4c-0.4 0-0.7 0.3-0.7 0.7v6c0 0.4 0.3 0.7 0.7 0.7h9.4c0.4 0 0.7 0.3 0.7 0.7 0 0.1 0 0.2-0.1 0.3l-5.7 10.3c-0.2 0.3-0.1 0.7 0.3 0.9 0.1 0.1 0.2 0.1 0.3 0.1h11.3c0.2 0 0.5-0.1 0.6-0.3l6.8-11.6c0.1-0.2 0.3-0.3 0.6-0.3h8.7c0.2 0 0.4 0.1 0.6 0.3l7.3 11.7c0.1 0.2 0.3 0.3 0.6 0.3h11c0.4 0 0.7-0.3 0.7-0.7 0-0.1 0-0.3-0.1-0.4l-6.7-10.2c-0.2-0.3-0.1-0.7 0.2-0.9 0.1-0.1 0.2-0.1 0.4-0.1h9.2c0.4 0 0.7-0.3 0.7-0.7v-6c-0.1-0.6-0.4-0.9-0.7-0.9z m-17.3 0.2c0 0.4-0.3 0.7-0.7 0.7H806c-0.4 0-0.7-0.3-0.7-0.7v-4.7c0-0.4 0.3-0.7 0.7-0.7h20.8c0.4 0 0.7 0.3 0.7 0.7v4.7z m0-9.6c0 0.4-0.3 0.7-0.7 0.7H806c-0.4 0-0.7-0.3-0.7-0.7v-5c0-0.4 0.3-0.7 0.7-0.7h20.8c0.4 0 0.7 0.3 0.7 0.7v5z m0-10.2c0 0.4-0.3 0.7-0.7 0.7H806c-0.4 0-0.7-0.3-0.7-0.7v-5.3c0-0.4 0.3-0.7 0.7-0.7h20.8c0.4 0 0.7 0.3 0.7 0.7v5.3z m0-11.2c0 0.4-0.3 0.7-0.7 0.7H806c-0.4 0-0.7-0.3-0.7-0.7v-5.8c0-0.7 0.6-1.3 1.3-1.3H826c0.7 0 1.3 0.6 1.3 1.3v5.8zM961.5 483.1h-5.6c-0.4 0-0.7-0.3-0.7-0.7 0-0.1 0-0.3 0.1-0.4l16-22c0.2-0.3 0.1-0.7-0.1-0.9-0.1-0.1-0.2-0.1-0.4-0.1h-13c-0.4 0-0.7-0.3-0.7-0.7 0-0.1 0-0.3 0.1-0.4l11.9-16.4c0.2-0.3 0.1-0.7-0.1-0.9-0.1-0.1-0.2-0.1-0.4-0.1h-11.8c-0.2 0-0.4 0.1-0.5 0.3L940.1 463c-0.2 0.3-0.1 0.7 0.1 0.9 0.1 0.1 0.2 0.1 0.4 0.1h12.7c0.4 0 0.7 0.3 0.7 0.7 0 0.1 0 0.3-0.1 0.4l-17.6 22.3c-0.2 0.3-0.2 0.7 0.1 0.9 0.1 0.1 0.3 0.1 0.4 0.1H950c0.4 0 0.7 0.3 0.7 0.7v32.1c0 0.4 0.3 0.7 0.7 0.7h10.3c0.4 0 0.7-0.3 0.7-0.7v-37.6c-0.2-0.2-0.5-0.5-0.9-0.5zM972.8 454.9h47.9c0.4 0 0.7-0.3 0.7-0.7v-7.9c0-0.4-0.3-0.7-0.7-0.7h-47.9c-0.4 0-0.7 0.3-0.7 0.7v7.9c0 0.4 0.3 0.7 0.7 0.7zM1023.3 467.4h-51.9c-0.4 0-0.7 0.3-0.7 0.7v6.4c0 0.4 0.3 0.7 0.7 0.7h24.7c0.4 0 0.7 0.3 0.7 0.7v30.5c0 5-4.1 9.1-9.1 9.1h-8.4c-0.4 0-0.7 0.3-0.7 0.7v5.2c0 0.4 0.3 0.7 0.7 0.7h16.2c9.3 0 16.8-7.5 16.8-16.8V476c0-0.4 0.3-0.7 0.7-0.7h10.4c0.4 0 0.7-0.3 0.7-0.7v-6.4c-0.1-0.5-0.4-0.8-0.8-0.8zM146.5 566.6h3.3V587h-3.3zM158.3 565.9h14.1v16.3c0 1.1-0.4 1.6-1.3 1.6l-3.4-0.1 0.9 3.2h3.3c2.7 0 4.1-1.3 4.1-3.8v-20.5h-17.7v3.3z" fill="#072127"></path><path d="M168.1 567.9h-14.5V583h14.5v-15.1z m-3.2 12.5h-7.2v-3.3h7.2v3.3z m0-5.9h-7.2v-3.3h7.2v3.3zM151.1 560.7l-2.7 1.7c1.9 1.8 3.4 3.5 4.6 4.9l2.7-1.8c-1.1-1.5-2.6-3.1-4.6-4.8z" fill="#072127"></path><path d="M152.2 552.9l-3.5-0.7c-1 2.8-2.6 5.4-4.9 7.9l3 1.9c1.1-1.3 2.2-2.7 3.1-4.2h2.2c1 1.4 1.8 2.8 2.5 4.3l3.2-1.1c-0.5-1-1.1-2-1.9-3.1h5v-3.1h-9.4l0.5-1.2c0.1-0.3 0.1-0.5 0.2-0.7zM168 553.5c0.1-0.2 0.1-0.4 0.2-0.6l-3.4-0.8c-0.7 2.7-2 5.2-3.9 7.5l3 2c0.9-1.1 1.6-2.4 2.3-3.8h2.5c0.9 1.3 1.7 2.7 2.3 4.1l3.1-1.2c-0.5-0.9-1.1-1.9-1.8-2.9h5.6v-3.2h-10.4l0.5-1.1zM202.4 573.8H214v-16.3h-6.8c1-1.4 2-3 2.8-4.8l-3.4-1.3c-0.9 2.1-1.9 4.1-3.1 6h-7.6l2.2-1.1c-1.1-1.7-2.3-3.3-3.6-4.7l-3 1.4c1.2 1.3 2.2 2.8 3.3 4.4h-7.6v16.3h11.6v3h-15v3.4h15v6.8h3.5v-6.8h15v-3.4h-15v-2.9z m-0.1-13.1h7.9v3.3h-7.9v-3.3z m-3.3 9.8h-7.9v-3.3h7.9v3.3z m0-6.5h-7.9v-3.3h7.9v3.3z m3.3 6.5v-3.3h7.9v3.3h-7.9zM255.8 551.5l-3.4 1.3c1 1.4 1.8 2.8 2.5 4.3H239v3.5h10.4l-0.1 1.6c0 0.9-0.1 2-0.1 3.3-0.2 3.6-0.9 6.8-2.2 9.7-1.3 2.9-3.9 6-7.9 9.4l2.6 2.5c3.3-2.7 5.9-5.7 7.8-9 1.4-2.4 2.3-5.1 2.8-8.1h12.3v2.6c-0.1 3.8-0.2 6.2-0.4 7.3-0.5 2.3-1.5 3.4-3.1 3.5H260c-1.1 0-2.5-0.1-4-0.1l1.1 3.3 1.4 0.1c1.1 0.1 2.1 0.1 3 0.1 3-0.1 4.9-1.6 5.7-4.7l0.1-0.5c0.5-2.3 0.8-7.3 0.9-14.9h-15.5l0.3-6h19.6V557h-14c-0.8-2.1-1.8-4-2.8-5.5zM301.8 574.2h9v-15.3H302v-2.7h10.6v-3.4h-23.2v3.4h9.1v2.7h-8.8v15.3h8.7c-0.3 1.6-0.8 3.1-1.5 4.4-1.6-1.1-3-2.3-4.3-3.7l-2.7 1.9c1.5 1.6 3 3 4.7 4.2-1.7 1.1-4.1 2.2-7.4 3l1.8 2.9c3.8-1 6.6-2.3 8.7-4 4.3 2.3 9.2 3.6 14.9 4l0.8-3.3c-5.1-0.2-9.7-1.3-13.5-3.2 1-1.7 1.6-3.8 1.9-6.2z m0.3-12.2h5.3v3.3h-5.3V562z m0 6.6h5.3v3.3h-5.3v-3.3z m-3.2 3.2h-5.3v-3.3h5.3v3.3z m0-6.5h-5.3V562h5.3v3.3zM285.8 551.5c-1.6 5.8-4 11-7.3 15.3l1.2 3.9c1.1-1.3 2.1-2.6 3-4V587h3.5v-26.3c1.2-2.4 2.1-4.9 2.9-7.6l-3.3-1.6zM359.1 573.1h9.7v-3.4h-2.6v-11H358v-5.2h-3.5v5.2H348v3.3h6.5v2.9c0 1.7-0.1 3.3-0.3 4.8h-7.7v3.4h7c-1.5 5-4.6 8.7-9.2 11l2.2 2.9c4.9-2.7 8.3-6.8 10.1-12.3 2.4 4.9 6 9 10.9 12.3l2.5-2.7c-5-2.9-8.6-6.7-10.9-11.2z m-1.4-8.9V562h4.9v7.9h-5.3c0.3-1.8 0.4-3.7 0.4-5.7zM333.7 570.4l2.8 0.8c0.7-3.3 1.1-6.7 1.2-10.3l-2.6-0.2c-0.2 3.4-0.7 6.6-1.4 9.7z" fill="#072127"></path><path d="M348.1 567.9c-0.8-3-1.7-5.6-2.7-7.9l-2.6 0.8c1 2.5 1.8 5.1 2.4 7.7l2.9-0.6z" fill="#072127"></path><path d="M339.6 553.5V587h3.3v-33.5zM406.8 583.1c-1.5 0-2.8-0.1-4-0.2v-3.2h8.1v-3h-8.1v-2.5h7.4V569h2.3v-3h-2.3v-5.2h-7.4v-2.1h9.3v-3h-9.3v-2.3h-3.4v2.3h-8.5v3h8.5v2.1h-6.7v2.9h6.7v2.3h-8.3v2.9h8.3v2.3h-7v2.9h7v8.1c-0.3-0.1-0.5-0.2-0.7-0.3-1.4-0.5-2.5-1.7-3.6-3.5 0.2-0.9 0.4-1.8 0.5-2.8l-3.3-0.5c-0.6 4.1-2 7.4-4.1 9.7l2.8 1.9c1.2-1.3 2.2-3 3.1-5.1 1 1.5 2.1 2.6 3.3 3.2 1.7 0.8 5 1.2 9.7 1.2h5l1.1-3.5-1.2 0.1c-1.5 0.4-3.2 0.5-5.2 0.5z m-3.5-19.1h3.9v2h-3.9v-2z m0 5.2h3.9v2.6h-3.9v-2.6z" fill="#072127"></path><path d="M389.8 568c-1.2 0.6-2.3 1.2-3.5 1.8v-6.1h3.8v-3.3h-3.8v-6.3h-3.6v6.3h-4.4v3.3h4.4v7.6c-1.7 0.6-3.4 1.1-5 1.5l0.9 3.5c0.5-0.2 0.9-0.3 1.4-0.5l2.7-1v7.8c0 0.9-0.5 1.3-1.3 1.3-0.9 0-1.8-0.1-2.9-0.2l0.8 3.3h3.3c2.5 0 3.7-1.2 3.7-3.5v-10.2c1.2-0.5 2.3-1.1 3.5-1.7V568zM907.9 515.3h-13.2c-0.4 0-0.7-0.3-0.7-0.7V484h16c11.3 0 20.5-9.2 20.5-20.5S921.3 443 910 443h-27.2c-0.4 0-0.7 0.3-0.7 0.7v8.2c0 0.4-0.3 0.7-0.7 0.7h-9.6c-0.4 0-0.7-0.3-0.7-0.7 0-0.1 0-0.2 0.1-0.3l5.8-10c0.2-0.3 0.1-0.7-0.2-0.9-0.1-0.1-0.2-0.1-0.3-0.1h-13.6c-0.2 0-0.4 0.1-0.5 0.3l-16 24.3c-0.2 0.3-0.1 0.7 0.2 0.9 0.1 0.1 0.2 0.1 0.4 0.1h15.3c0.2 0 0.4-0.1 0.5-0.2l4.7-5.9c0.1-0.2 0.3-0.2 0.5-0.2h13.5c0.4 0 0.7 0.3 0.7 0.7V520c0 1.1 0.9 2 2 2h23.7c0.4 0 0.7-0.3 0.7-0.7V516c-0.1-0.4-0.4-0.7-0.7-0.7z m-14.4-37.8v-27.7c0-0.4 0.3-0.7 0.7-0.7h12.1c7 0 12.8 5.7 12.8 12.8v3.5c0 7-5.7 12.8-12.8 12.8h-12.1c-0.4-0.1-0.7-0.4-0.7-0.7z" fill="#072127"></path><path d="M899 458.2c0-0.7 0.6-1.3 1.3-1.3h10.5c0.7 0 1.3 0.6 1.3 1.3v10.5c0 0.7-0.6 1.3-1.3 1.3h-10.5c-0.7 0-1.3-0.6-1.3-1.3v-10.5zM877.3 487.1h-4.5c-0.4 0-0.7-0.3-0.7-0.7v-10.9c0-0.4 0.3-0.7 0.7-0.7h2.7c0.4 0 0.7-0.3 0.7-0.7v-5.5c0-0.4-0.3-0.7-0.7-0.7h-21.2c-0.3 0-0.6 0.2-0.6 0.5l-1.3 5.5c-0.1 0.4 0.1 0.7 0.5 0.8h5.1c0.4 0 0.7 0.3 0.7 0.7v10.9c0 0.4-0.3 0.7-0.7 0.7h-5.3c-0.3 0-0.6 0.2-0.6 0.5l-0.9 4.5c-0.1 0.4 0.2 0.7 0.5 0.8h6.3c0.4 0 0.7 0.3 0.7 0.7v25.7c0 1.5 1.2 2.6 2.6 2.6h16c0.4 0 0.7-0.3 0.7-0.7v-4.2c0-0.4-0.3-0.7-0.7-0.7h-4.5c-0.4 0-0.7-0.3-0.7-0.7v-22.2c0-0.4 0.3-0.7 0.7-0.7h4.5c0.4 0 0.7-0.3 0.7-0.7v-4.5s-0.3-0.3-0.7-0.3zM915.7 499.1c-0.1-0.1-0.1-0.3-0.1-0.4 0-0.4 0.3-0.7 0.7-0.7h11.6c0.4 0 0.7-0.3 0.7-0.7v-5c0-0.4-0.3-0.7-0.7-0.7h-30.1c-0.1 0-0.3 0-0.4 0.1-0.3 0.2-0.3 0.6-0.1 0.9l22.2 28.9c0.1 0.2 0.3 0.3 0.5 0.3h13.1c0.2 0 0.3-0.1 0.4-0.1 0.3-0.2 0.3-0.6 0.1-0.9l-17.9-21.7z" fill="#072127"></path></svg>