<svg viewBox="0 0 1024 1024" version="1.1" xmlns="http://www.w3.org/2000/svg"><path d="M224 0h576c123.6 0 224 100.4 224 224v576c0 123.6-100.4 224-224 224H224c-123.6 0-224-100.4-224-224V224C0 100.4 100.4 0 224 0z" fill="#FFFFFF"></path><path d="M164 756h696V268H164z" fill="#5AAB35"></path><path d="M414.8 644v-232h11.2v232h-11.2z m179.2 0v-232h11.2v232h-11.2z m-201.2-158l-33.6 10.4c-4.4-12.4-14-18.8-28.8-18.8-15.6 0-23.2 4.8-23.2 14 0 3.6 1.6 6.8 4.4 9.6 2.8 2.8 9.6 4.8 19.6 6.8 17.2 3.2 29.6 6.4 37.6 9.6 8 3.2 14.8 8.4 20 16 5.6 7.2 8 15.6 8 24.4 0 14-6 26.4-17.6 36.8-11.6 10.4-29.2 15.6-52 15.6-17.2 0-32-3.6-44-10.8-12-7.2-20-18-24-32.4l36.4-7.6c4 14.8 15.6 22 34 22 9.2 0 15.6-1.6 20-4.8 4.4-3.2 6.8-7.2 6.8-11.6 0-4.4-2-8-6-10.8s-11.6-4.8-23.2-7.2c-21.2-4-36.8-9.6-45.6-16.8-9.2-7.2-13.6-17.6-13.6-31.6s5.6-25.6 16.4-35.2c10.8-9.6 25.6-14.4 44.4-14.4 33.6 0 54.8 12.4 64 36.8z m179.6-3.2H492v31.6h63.2v28.8H492v33.6h80.4v30.4h-120.8v-153.6h120.8v29.2z m92.8 58.4v36.8h30c10 0 17.6-1.6 21.6-4.8 4.4-3.2 6.4-8 6.4-14 0-4.8-2-9.2-6-12.8-4-3.6-10.8-5.2-20-5.2h-32z m0-60.8v33.6h29.6c10.8 0 17.6-2 20.4-6 2.8-4 4-7.6 4-11.2 0-4-1.2-7.2-3.6-10-2.4-2.8-4.8-4.4-7.6-5.2-2.8-0.8-8-1.2-16.4-1.2h-26.4z m-38.8-26.8H704c14 0 24.4 1.6 31.2 4.8 6.8 3.2 12.8 7.6 17.2 13.6 4.4 6 6.8 12.8 6.8 21.2 0 16.8-10 28.4-30 34 11.6 2.4 20 7.2 26 14.4 5.6 7.2 8.8 14.8 8.8 23.2 0 11.6-4.8 21.2-14 29.6-9.6 8.4-24.8 12.4-46 12.4h-77.6v-153.2z" fill="#FEFEFE"></path></svg>