<svg viewBox="0 0 1024 1024" version="1.1" xmlns="http://www.w3.org/2000/svg"><path d="M128 889.984h760V128H128z" fill="#5AAB35"></path><path d="M403.28 636.982V381.995h12.179v254.987H403.28z m195.694 0V381.995h12.164v254.987h-12.164zM379.358 463.484l-36.607 11.484c-4.925-13.628-15.347-20.449-31.281-20.449-17.008 0-25.497 5.18-25.497 15.542 0 4.116 1.574 7.598 4.767 10.462 3.178 2.864 10.365 5.353 21.56 7.454 18.726 3.555 32.441 7.124 41.117 10.75 8.704 3.612 16.02 9.426 21.99 17.47 5.955 8.045 8.933 17.024 8.933 26.94 0 15.57-6.4 29.025-19.17 40.38-12.77 11.368-31.71 17.038-56.792 17.038-18.826 0-34.86-4.015-48.075-12.045-13.213-8.044-21.932-19.974-26.141-35.79l39.828-8.461c4.48 16.074 16.922 24.119 37.337 24.119 9.85 0 17.18-1.785 22.018-5.368 4.84-3.583 7.259-7.843 7.259-12.808 0-5.05-2.19-8.965-6.586-11.742-4.395-2.778-12.856-5.383-25.397-7.829-23.379-4.547-40.043-10.764-49.993-18.621-9.935-7.872-14.917-19.37-14.917-34.524 0-15.311 5.941-28.22 17.81-38.74 11.882-10.519 27.988-15.771 48.345-15.771 36.02 0 59.184 13.498 69.492 40.51z m196.118-3.86h-87.984v34.56h69.163v31.715h-69.163v36.782h87.984v33.32H443.5V427.529h131.975v32.096z m101.598 64.545v40.609h32.659c11.136 0 19.018-1.815 23.617-5.432 4.599-3.616 6.905-8.681 6.905-15.182 0-5.432-2.207-10.117-6.636-14.071-4.43-3.94-11.774-5.924-22.033-5.924h-34.512z m0-66.88v36.894h32.192c11.787 0 19.216-2.167 22.272-6.487 3.057-4.305 4.585-8.442 4.585-12.396 0-4.278-1.26-7.965-3.778-11.046-2.533-3.096-5.306-5.024-8.32-5.798-3.014-0.788-8.958-1.167-17.816-1.167h-29.135z m-42.437-29.76h84.59c15.17 0 26.56 1.73 34.202 5.177 7.627 3.462 13.91 8.4 18.877 14.817 4.966 6.403 7.443 14.212 7.443 23.415 0 18.672-10.896 31.125-32.716 37.372 12.594 2.646 22.032 7.866 28.33 15.69 6.296 7.81 9.452 16.336 9.452 25.567 0 12.594-5.151 23.485-15.438 32.66-10.288 9.173-27 13.775-50.15 13.775h-84.59V427.528z" fill="#FEFEFE"></path></svg>