<svg viewBox="0 0 1024 1024" version="1.1" xmlns="http://www.w3.org/2000/svg"><path d="M288.3 527.5c0-0.9 0.2-2 0.5-3.3 0.6-0.9 0.8-1.7 0.5-2.4 0-0.6-3.8-0.9-11.2-0.9h-6.5v9.8h-43.5v13.5h43.5V568h17.3v-23.8h43.5v-13.5h-44v-3.2zM307.5 504.8H300c-2.8 0-4.4-1.9-4.7-5.6v-5.6c3.1-1.6 7.6-4 13.5-7.5 8.4-5 14.6-8.4 18.7-10.3 0-0.3-4.4-4.7-13.1-13.1-0.3 0-0.9 0.5-1.9 1.4-4.4 4.4-10.1 8.7-17.3 13.1v-10.8c0-1.6 0.1-3.1 0.5-4.7 0.3-0.9 0.5-1.7 0.5-2.3 0-1.3-4.2-1.9-12.6-1.9h-4.2v28.1c-4 2.2-8.7 3.9-14 5.1-1.9 0.3-2.8 0.6-2.8 0.9 2.8 4.4 5.1 8.6 7 12.6 3.7-1.6 7.2-3 10.3-4.2v7c-0.3 7.5 3.6 11.1 11.7 10.8h22c8.1 0 13.1-1.2 14.9-3.7 2.2-2.2 3.4-8.4 3.7-18.7-5.6-1.2-10.9-2.6-15.9-4.2 1.3 10-1.6 14.5-8.8 13.6zM445.6 498H470v-12h-33.8c0.9-3.7 1.7-7.2 2.3-10.6 5.9-0.6 12.2-1.2 18.8-1.9 4.7-0.3 6.9-0.9 6.6-1.8-0.3-0.6-1.4-2.2-3.3-4.6-2.2-3.4-3.9-6-5.2-7.9-13.8 3.4-31.5 5.7-53.1 6.9 1.9 5.6 3 9.6 3.3 12 0.3 0 1.6-0.2 3.7-0.5 5.3-0.3 9.4-0.6 12.2-0.9 0 2.2-0.5 5.3-1.4 9.3h-23.5v12h19.3c-4.4 7.7-11.4 14.8-21.1 21.3 3.1 2.8 5.9 6.5 8.5 11.1 2.2-0.9 4.5-2.5 7.1-4.6 0.9-0.9 1.7-1.5 2.3-1.9 1.3 18.2-4.7 29.5-17.8 33.8 2.2 1.9 5 4.5 8.5 7.9l1.9 1.9c16.3-6.2 23.8-20.8 22.5-44 0-0.6 0.2-1.5 0.5-2.8 0.6-2.2 0-3.2-1.9-3.2h-7.1c3.8-4 7.8-10 12.2-18 4.4 8 8.3 13.9 11.7 17.6h-5.6v48.6h14.6v-42.6c2.2 1.5 5.9 3.6 11.3 6 1.3 0.6 2.2 1.1 2.8 1.4 2.5-7.1 5-12.3 7.5-15.7-13.1-2.7-22.5-8.2-28.2-16.8z" fill="#E50113"></path><path d="M400.3 462.8c-5-1.9-10.8-3.1-17.3-3.7-2.2 22.4-9.5 42-22 58.8 4.1 3.1 7.3 6.4 9.8 9.8 3.7-5 6.7-9.3 8.9-13.1v52.7h14.1v-82.5c1.9-5.3 3.9-10.7 6.1-16.3 1.5-3.5 1.6-5.3 0.4-5.7zM246.6 495.2v26.5h14.1v-43.2c0.9-1.5 3-4.2 6.1-7.9 3.2-3.7 4.6-5.7 4.2-6.1-0.3-0.6-6.1-2.9-17.4-7-8.5 16.1-18.4 29.1-29.7 39.1 4.1 3.1 8.2 6.5 12.3 10.2 4.1-4 7.6-7.9 10.4-11.6zM965.7 466.1h51v11.6h-51zM924.7 496.2c7.2-5.6 16.3-14.5 27.2-26.7 1.6-1.6 3.1-2.8 4.7-3.7 0.9-0.9 1.4-1.6 1.4-1.9 0-0.3-2.5-1.6-7.5-3.7-4.1-2.2-6.7-3.6-8-4.2-7.8 12.2-17.4 22.5-28.6 30.9 5 3.4 8.6 6.5 10.8 9.3zM572.5 479.3c1.9-7.4 3.3-12.2 4.2-14.4-2.2-0.3-5.6-1.1-10.3-2.3-12.2-2.5-20.9-4.2-26.2-5.1-1.6 4.6-2.8 9.6-3.7 14.8 11.5 1.8 23.4 4.6 35.5 8.4 0-0.3 0.2-0.7 0.5-1.4zM506.5 501.6v12.5h23.4c-3.2 16.1-13.3 28.8-30.5 38.1 3.5 2.2 7.8 5.4 12.9 9.7 22.2-13 33.7-33.1 34.3-60.3h-40.1zM657.1 483.8v28.6h71.2v-28.6h-71.2z m54.2 17.8h-38.7v-7h38.7v7zM880.8 530.8c0.6-0.3 1.4-0.6 2.4-0.9 1.6-0.9 1.4-2.6-0.5-5.1-2.2-2.8-4.9-5.4-8.1-7.9h4.7v-53.2h-52v79.6c0 2.2-1.1 4.2-3.3 6-0.9 0.9-1.4 1.7-1.4 2.3 3.8 9.6 6.2 14.6 7.1 14.9 0.6 0 1.9-0.6 3.8-1.8 6.3-4.3 13.7-8.5 22.2-12.6 0-0.9-0.2-2.6-0.5-5.1 0-2.2-0.1-3.7-0.5-4.6 3.5 6.8 10.7 14 21.8 21.4 3.5-5.3 7.4-9.6 11.8-13-6.9-3.1-12.9-7.2-18-12.1 3.2-3.1 6.7-5.8 10.5-7.9z m-39.6-54.7h21.7v8.5h-21.7v-8.5z m0 68.8v-28.6h4.4c0.6 6.7 3.1 14.3 7.2 22.9-2 1-5.8 2.9-11.6 5.7z m0-40.2v-8.5h21.7v8.5h-21.7z m21.2 23.2c-1.6-2.9-2.8-6.4-3.8-10.6-0.3-0.3-0.5-0.7-0.5-1h13.1c-3 4.9-6 8.7-8.8 11.6zM959.5 493.7c0-1.2-4.3-3.7-12.9-7.4-0.6-0.6-1.1-0.9-1.4-0.9-8.9 13.8-19.9 26-32.9 36.4l10.5 9.2c3.2-3.1 5.9-5.8 8.1-8.3v42.4h15.2v-56.2c5.1-6.4 9.2-11.2 12.4-14.3 0.7-0.3 1-0.6 1-0.9z" fill="#E50113"></path><path d="M821.3 533.2c-0.3 0-2.2 1.2-5.7 3.7-3.2 2.2-5.4 3.7-6.7 4.7v-13.5h15.3V516h-15.3v-9.8h14.4V494h-27.7c0.6-1.6 1.9-4.8 3.8-9.8h24.4v-12h-19.1c0.6-2.5 1.6-5 2.9-7.5 0.6-1.3 0.8-2 0.5-2.3-4.8-1.8-10-2.9-15.8-3.3-0.3 0.3-0.8 2-1.4 5.1-3.8 16.5-8.9 29.8-15.3 40.1 3.8 1.9 7.6 4.4 11.5 7.5 1-1.9 1.9-3.7 2.9-5.6h4.8v9.8h-16.7v12.1h16.7v15.8c0 0.9-1.1 2.6-3.3 5.1-1.6 1.9-2.4 3.1-2.4 3.7 3.8 7.5 6.4 11.8 7.6 13.1 0.6 0 2.1-1.1 4.3-3.3 7-5.9 14.7-12 22.9-18.2-0.8-4-1.6-7.7-2.6-11.1zM576 519.4c1.9-1.5 4.4-3.7 7.5-6.5 8.2-7.1 14.4-12 18.8-14.8-6.3-5.2-11.9-8.9-16.9-11.1-4.7 6.8-10 13.2-16 19.4-3.2-8-4.7-14.2-4.7-18.5v-8.8H521V492h28.7v56c1.9 3.4-2.5 4.8-13.2 4.2 2.5 4.3 3.9 9.4 4.2 15.2 18.5 0 26.7-3.5 24.5-10.6v-30.5c6.9 14.2 18.5 25.7 34.8 34.6 3.1-6.8 7.2-12.3 12.2-16.6-15-5.2-27.1-13.6-36.2-24.9zM1023.7 508.4v-13H958v12.9h32.2v40.2c1 2.5-3.1 3.6-12.3 3.2 2.8 4 4.6 8.9 5.2 14.8 15.8 0 23.3-3.6 22.7-10.6v-47.5h17.9zM649.4 529.1H701c-4.1 3.1-9.5 5.3-16.4 6.5v14c1.6 3.4-3 4.8-13.6 4.2 3.4 4.3 5.8 9.2 7.1 14.4 16-0.3 23.6-3.9 23-10.7V544c16.3-7.1 29-15.8 38.1-26.1h-89.7v11.2zM702.4 457.5h-19.1c0.6 1 1.4 3 2.3 6.3 0 1 0.2 1.8 0.5 2.4h-45.2v13h106.7v-13h-43.3l-1.9-8.7zM49.8 505.8c1-8.1 4-15.5 8.4-21.9l-41.6-26c-6 9.1-10.6 19.3-13.3 30.2l46.5 17.7z m0.3 4.2L2.8 493.4C1.6 499.5 1 505.8 1 512.3c0 10.7 1.7 21 4.8 30.7h54.7c-6.6-8.5-10.5-19.1-10.5-30.7 0-0.8 0-1.6 0.1-2.3z m56.1 0.5v-16.8l-20.6-21.1c-7 2.6-13.1 6.8-18.1 12.2l38.7 25.7z m0 17V514l-41.1-26c-4.5 5.8-7.7 12.7-9.2 20.2l50.3 19.3zM54.7 512c-0.2 1.8-0.3 3.5-0.3 5.4 0 9.4 2.8 18.2 7.7 25.6h44.1v-13.3L54.7 512z m15.7 40.6l-0.1-0.1H41l-4.3-5.7H6.4c0.8 2.1 1.7 4.2 2.6 6.2 10.4 0.4 13.7 9.1 13.7 9.1h44.6v0.1h8.8l8.4-9.7H70.4zM98.9 413c-18.2 0-35.3 5-49.9 13.7l36.1 37.7c4.4-1.3 9-2 13.8-2 27.3 0 49.3 22.2 49.3 49.6 0 22.5-14.9 41.5-35.3 47.6-3.2 0.9-26.1 6.4-38.2 6.4-26.7-0.2-57.2 1.4-57.5 1.4l136.8 5.8-126.6 1.1 108.9 6.1-106.9 1.9C47.3 600 71.8 611 98.9 611c54.4 0 98.5-44.3 98.5-99s-44.1-99-98.5-99z m-38.3 68.1c4.9-6 11.3-10.9 18.5-14l-35.5-36.3c-9.3 6.3-17.4 14.1-24 23.2l41 27.1z" fill="#E50113"></path></svg>