<svg viewBox="0 0 1024 1024" version="1.1" xmlns="http://www.w3.org/2000/svg"><path d="M224 0h576c123.6 0 224 100.4 224 224v576c0 123.6-100.4 224-224 224H224c-123.6 0-224-100.4-224-224V224C0 100.4 100.4 0 224 0z" fill="#FFFFFF"></path><path d="M342.8 492c3.6-28.4 14-54.4 29.2-76.4L226.4 324c-20.8 32-36.8 68-46.4 106L342.8 492z m0.4 13.6L178.4 448c-4 21.2-6.4 43.2-6.4 65.6 0 37.2 6 73.2 16.8 106.4H380c-23.2-29.2-36.8-66.4-36.8-106.4v-8z m192.8 2.4v-58.4L465.6 376c-23.6 8.8-44.8 23.6-61.6 42.4l132 89.6z m0 56v-46.4L392.4 428c-16 20-27.2 43.6-32.4 69.6l176 66.4z m-178.8-52c-0.8 6-1.2 12.4-1.2 18.8 0 32.8 10 63.6 26.8 89.2H536v-46.4L357.2 512z m53.6 139.2s-0.4 0-0.4-0.4H308.4l-14.8-19.2H188c2.8 7.2 6 14 9.2 20.8 36 1.2 47.6 30.8 47.6 30.8H400v0.4h30.8l29.2-32.8h-49.2z m100-483.2c-63.2 0-122.4 17.2-172.8 47.6l125.2 131.2c15.2-4.4 31.2-6.8 48-6.8 94.4 0 170.8 77.2 170.8 172.4 0 78-51.6 144-122.4 165.2-11.2 3.2-90.4 22.4-132.4 22-92.4-0.8-198 4.4-199.2 4.4l473.6 20-438.4 4 377.2 21.2-370 6.8c61.6 61.6 146.4 100 240.4 100 188.4 0 341.2-154 341.2-344s-152.8-344-341.2-344z m-131.2 236c17.2-21.2 39.2-38 64.4-49.2L320 228c-32.4 22-60.8 49.6-84 81.2L379.6 404z" fill="#E50113"></path></svg>