<svg viewBox="0 0 1024 1024" version="1.1" xmlns="http://www.w3.org/2000/svg"><path d="M142.3 370c7.4 0 14.7 0.6 21.9 1.7-0.2 0.5 16.6 0.6-1.9 20.9-21 23.6-17.7 64.2-0.9 92.4 33.6 54.6 33.8 74.9 33.8 74.9 1.1 3.5 1.1 9.3 7.1 4.7 6.5-7.1 50.2-85.3-33.6-124.2-16.6-20.3 8.9-53.9 19.7-58.6 5.8-2.1 16.6 2.8 18.2 3.5 46.3 23.5 78 71.5 78 127 0 78.6-63.7 142.3-142.3 142.3-9.8 0-19.4-1-28.6-2.9-1.5-1-3.2-2.2-4.2-3.8-3-3.5 5.9-8.1 12.6-18.2 26.4-34.8 18-76.7-6.5-115.4-24.2-38.9-21.4-48.3-21.8-49.9-0.3-5.1-0.3-12.7-6.4-5.6-3.8 4.2-23.9 27.2-22.2 56.8 1.1 20.9 12.8 53.8 50.6 68.3 18.4 9.3-13.9 55.6-19.7 58.6-6.3 2.3-18.4-3.6-18.4-3.6v0.1C31.5 615.4 0 567.5 0 512.3 0 433.7 63.7 370 142.3 370" fill="#106FB8"></path><path d="M486.6 420.7c0 1.4-0.9 4.3-2.6 9-1.7 4.6-4 7.4-6.7 8.2-2.8 0.8-5.2 1.3-7.4 1.3s-4.2-0.3-6-1c-1.8-0.7-4.7-2.1-8.8-4.2-4.1-2.1-9.5-3.7-16.5-4.7-6.9-1.1-11.8-1.6-14.8-1.6-2.9 0-4.7 0.2-5.4 0.7-0.7 0.5-1 1.4-1 2.7l-0.2 8.5c0 1 0.2 1.7 0.7 2 0.4 0.3 1.7 0.5 3.7 0.5h7.3c13.7 0 22.9 0.8 27.4 2.4s8.2 2.4 10.8 2.4c2.6 0 4.6 0.6 5.7 1.7 1.2 1.1 1.8 2.5 1.8 4s-0.4 3-1.2 4.3c-1.6 2.7-2.4 8-2.4 15.8 0 10.6 1.1 21 3.4 31.2 0.7 2.9 1 5.8 1 8.6s-0.9 5.8-2.6 9.1c-1.7 3.2-3.6 4.8-5.5 4.8-2.1 0-3.3-1.1-3.4-3.4-0.3-5.3-0.7-10-1.2-14.1-0.4-4.1-0.8-6.4-1-6.9-0.2-0.6-0.5-0.8-0.8-0.8-0.3 0-0.8 0.2-1.5 0.7-3.8 2.5-6.9 3.7-9.4 3.7-2.4 0-5.3-0.2-8.8-0.6-3.4-0.4-9.9-0.6-19.3-0.6-1.5 0-2.5 0.4-3 1.3-0.6 0.8-0.8 3-0.8 6.4 0 3.4-0.5 7.2-1.6 11.4s-2.2 6.8-3.4 7.7c-1.2 1-2.4 1.4-3.5 1.4s-2.3-0.3-3.2-1c-1-0.7-1.6-1.5-1.9-2.5-0.3-1-0.5-3.6-0.7-7.6-0.2-4.1-0.3-7.4-0.3-10s-0.2-4.2-0.6-4.8c-0.4-0.6-1.2-0.9-2.4-0.9-3 0-9.1 0.6-18.3 1.8s-14.4 2-15.6 2.5c-1.2 0.5-2.1 1.6-2.5 3.4-1.7 7.3-5.6 11-11.6 11-1.6 0-2.3-0.8-2-2.5 3.9-25.6 5.9-43.6 5.9-53.9 0-3.5-0.3-6.4-0.8-8.6-0.5-2.2-0.8-4.2-0.8-5.8 0-1.7 1-2.9 2.9-3.5 1.9-0.6 3.5-0.9 4.6-0.9s2.5-0.2 4-0.5c8.5-2.1 19.4-3.8 32.6-4.9 1.3-0.1 2.3-0.4 2.8-0.8 0.5-0.5 0.8-1.5 0.8-3l0.3-8.3c0-1.7-0.9-2.5-2.6-2.5-1.7 0-5 0.5-9.7 1.6-4.7 1.1-8.9 2.6-12.6 4.5-3.7 1.9-9.1 3.6-16.2 5.1-7.1 1.5-11.8 2.2-14 2.2-2.2 0-3.8-1.3-4.8-3.8s-1.5-4.8-1.5-6.7c0-1.9 0.5-3.4 1.5-4.6 1-1.1 2.1-1.7 3.3-1.7 1.2 0 2.2 0.1 3 0.4 0.8 0.3 1.7 0.4 2.9 0.4 1.1 0 2.9-0.5 5.4-1.6 2.5-1.1 7.7-2.1 15.5-3.1 7.9-1 17.3-1.9 28.3-2.7 1.7-0.2 2.8-0.6 3.4-1.1 0.6-0.5 1.1-1.8 1.6-3.9s1.1-3.9 1.9-5.3c0.7-1.5 1.7-2.2 2.9-2.2s2.2 0.7 3.1 2.1c0.9 1.4 1.5 3.3 1.9 5.7 0.3 2.4 2 3.6 5.1 3.6l16.2-0.3c14.3 0 23.4 0.7 27.4 2.1 4 1.4 7 2.1 9.1 2.1 2.1 0 4.3-0.4 6.6-1.3 2.3-0.8 3.9-1.3 4.9-1.3 0.7-0.7 1.2-0.1 1.2 1.2zM405.5 469c0.1 0 2.1-0.2 6.1-0.6 3.9-0.4 6.2-0.8 6.9-1.2 0.7-0.4 1.3-1.6 1.8-3.5s0.8-3.8 0.8-5.8c0-1.9-0.7-2.9-2-2.9-0.2 0-2.7 0.1-7.4 0.4s-7.5 1.1-8.4 2.5c-0.9 1.4-1.4 3.1-1.4 5s0.3 3.4 0.8 4.4c0.3 1.1 1.3 1.7 2.8 1.7z m52.9 0.8c1 0 1.7-0.3 1.9-1 0.3-0.7 0.4-2.2 0.4-4.7s-0.3-4-0.9-4.7c-0.6-0.7-2-1.3-4.1-1.7-2.1-0.4-5.2-0.9-9.3-1.4-4.1-0.6-6.8-0.8-8.2-0.8-1.4 0-2.3 0.7-2.7 2.2-0.6 2.1-1.7 4.8-3.4 8-0.2 0.6-0.3 1-0.3 1.4 0 0.3 0.9 0.6 2.7 0.7 5.6 0.2 11 0.7 16 1.3 5.2 0.4 7.8 0.7 7.9 0.7z m-70 0.2c0-0.1-0.1-0.5-0.3-1.2-0.2-0.7-0.3-1.8-0.3-3.4l0.3-4.9c0-0.9-0.4-1.4-1.2-1.4-0.8 0-3.9 0.5-9.2 1.6-5.3 1.1-8.4 1.8-9.1 2-0.7 0.3-1.2 0.7-1.4 1.3-0.2 0.6-0.5 2-0.8 4.4-0.3 2.4-0.4 4.2-0.4 5.3 0 1.2 0.5 1.8 1.4 1.8s2.7-0.3 5.5-0.9c2.8-0.6 6-1.2 9.9-1.9 3.7-0.6 5.6-1.5 5.6-2.7z m72.4 19.6c0-5-0.7-7.6-2.1-7.8-1.4-0.2-5.8-0.7-13.2-1.4-7.4-0.7-14.3-1-20.8-1-3.6 0-6 0.1-7.2 0.3-1.2 0.2-1.8 0.9-1.8 2.1 0 1.2 0.2 2.7 0.5 4.5 0.3 1.7 0.8 3 1.3 3.7 0.5 0.7 1.8 1.1 3.8 1.1 7 0 13.8 0.2 20.4 0.5l16.5 0.9c1 0 1.7-0.2 2-0.5 0.4-0.3 0.6-1.1 0.6-2.4z m-93.5 7.1c0.3 0 0.7-0.1 1.2-0.2 9.9-2.3 20.5-3.8 31.7-4.7 1.8-0.2 3-0.8 3.5-1.8 0.6-1 0.8-2.5 0.8-4.6 0-2.1-0.3-3.4-0.8-3.9s-1.5-0.8-2.9-0.8-5 0.4-10.7 1.3c-5.7 0.8-10.9 1.8-15.4 2.7-4.6 1-7.2 1.6-7.9 2-0.7 0.4-1.2 1-1.5 1.8-0.3 0.8-0.4 2.3-0.4 4.7s0.8 3.5 2.4 3.5z m199.3-49.3c0 1.6 0.6 2.9 1.9 3.8 1.3 1 3.7 3.4 7.3 7.5 3.5 4 5.3 6.8 5.3 8.3s-0.5 2.9-1.6 4-4.9 3.7-11.4 7.8-15.2 8.9-26 14.4c-1.5 0.8-2.8 1.9-3.9 3.4s-1.7 2.9-1.9 4.2c-0.1 5-0.6 9.6-1.3 14-0.8 4.3-2.3 6.5-4.6 6.5-1.1 0-2.4-0.8-3.8-2.3-1.4-1.5-2.1-5.5-2.1-12s0.5-15.9 1.6-28.2c1.1-12.3 1.6-20.3 1.6-24.1 0-9.1-1.6-15-4.9-17.6-1.9-1.5-3.2-3-3.9-4.7-0.7-1.7-1-4.2-1-7.4s0.5-5.4 1.4-6.5c1-1.1 2.7-1.7 5.1-1.7l4 0.2c1.4 0 3-0.3 4.9-0.8 9.6-3.4 17.8-5.1 24.8-5.1 4.3 0 9.6 0.8 16.1 2.5 6.5 1.7 9.7 4.5 9.7 8.5 0 3.2-1.7 6.3-5 9.4-3.3 3.1-6.1 5.9-8.3 8.5-2.2 2.5-3.5 4.2-3.8 5 0 0.7-0.2 1.5-0.2 2.4z m-22-1.5c3.7 0 7-1.2 10-3.6 2.9-2.4 4.4-4.4 4.4-5.8 0-1.5-0.7-2.4-2.2-2.8-1.5-0.4-3.7-0.6-6.8-0.6-3.1 0-5.4 0.6-6.8 1.9-1.5 1.3-2.2 3.3-2.2 6 0 1.5 0.2 2.7 0.6 3.6 0.3 0.9 1.4 1.3 3 1.3z m18.4 21.5c0-1-1-2.1-3-3.4-2-1.2-4.1-1.9-6.5-1.9-2.4 0-5.1 0.5-8.4 1.5-3.2 1-5.1 2-5.8 3-0.7 1-1.1 2.5-1.3 4.7l-0.5 6.8c0 2.4 1.1 3.6 3.3 3.6 2.2 0 6.4-1.9 12.7-5.6 6.4-3.8 9.5-6.6 9.5-8.7z m98.8-50.3c3.2 0 4.7 2.2 4.7 6.7s-1.4 8.8-4.1 13.1c-2.7 4.3-4.7 8.6-6 12.9-1.3 4.3-2.4 10.4-3.2 18.4-0.8 8-1.3 14.5-1.3 19.6 0 5.1 0.4 9.7 1.3 13.7 0.8 4.1 1.3 7.7 1.3 11s-0.6 5.8-1.7 7.5c-1.1 1.7-3.2 2.5-6.1 2.5-1.8 0-3.2-0.7-4.2-2-2.1-2.8-5.3-4.8-9.6-5.8-4.3-1.1-9.7-1.6-16.2-1.6-3.7 0-8.8 0.4-15.3 1.3-6.5 0.8-11.3 2.1-14.6 3.6-3.3 1.6-5.6 2.4-6.9 2.4-2.8 0-4.2-2.4-4.2-7.3 0-1.6 0.3-2.7 1-3.4 0.7-0.7 2.1-1.5 4.2-2.4 3.9-1.6 7.1-5 9.4-10.2 2.3-5.2 3.8-13.1 4.4-23.6 0.6-10.6 0.9-18.4 0.9-23.4s-0.3-8.7-1-10.9c-1.7-5.5-2.5-9.3-2.5-11.3s0.5-3.9 1.6-5.8 3-2.9 5.7-2.9 5-0.2 6.9-0.7c9.8-2 19-3.1 27.6-3.1 8.6 0 14.4 0.7 17.5 2.2 1.5 0.7 2.8 1 3.9 1s2.3-0.3 3.4-0.8c1-0.4 2-0.7 3.1-0.7z m-21.3 38.3c1.8 0 2.9-1.2 3.4-3.6l1.4-6.9c0.1-0.8 0.2-1.6 0.2-2.5 0-2.3-0.6-3.8-1.7-4.5-1.1-0.7-4.4-1.1-9.9-1.1s-10.9 0.6-16.4 1.7c-5.5 1.1-8.2 3-8.2 5.6l-0.3 9c0 0.9 0.5 1.8 1.6 2.5 1.1 0.8 2.2 1.1 3.3 1 7.1-0.9 13.6-1.4 19.4-1.4l7.2 0.2z m-4.2 42.5c1.2 0 2.3-0.5 3-1.4 0.8-1 1.3-3.2 1.5-6.7l0.5-12.5c0-1.1-0.2-2-0.7-2.6-0.4-0.6-1-1-1.7-1.2-0.7-0.2-2.9-0.3-6.6-0.3-3.7 0-8.5 0.3-14.3 1-5.8 0.7-9.3 1.6-10.4 2.9-1.1 1.2-1.7 2.3-1.9 3.2-0.4 3.7-1.1 7.4-1.9 10.9-0.8 3.6-1.2 5.6-1.2 6 0 1.5 1.3 2 3.9 1.7 8-0.8 15.2-1.2 21.6-1.2l8.2 0.2z m106.3-82c2.8 0 5.6 0.3 8.4 0.9 2.8 0.6 4.3 1 4.6 1.3 0.3 0.2 0.5 0.7 0.5 1.4s-0.6 2.6-1.9 5.5c-1.3 2.9-3.4 4.7-6.2 5.3-2.9 0.6-7.1 0.8-12.6 0.8s-9.9 0.4-13.2 1.3c-3.3 0.8-6 2.5-8 5-0.7 0.8-1.5 1.6-2.4 2.5s-1.4 1.5-1.4 1.9c0 0.7 0.7 1 2.2 1 0.6 0 1.2-0.2 2-0.5 5.7-2.3 13-3.4 21.9-3.4 3 0 6.2 0.1 9.4 0.4 3.2 0.3 5.3 0.6 6.3 0.8 1 0.3 1.5 0.8 1.5 1.6 0 1.9-1.2 4.3-3.7 7.1s-6.4 4.5-11.6 5.1c-4.2 0.3-6.7 0.8-7.6 1.3-0.9 0.5-1.4 1.7-1.4 3.7s1.1 2.9 3.4 2.6c5.4-0.6 10.7-0.8 16-0.8 2.1 0 3.2 0.7 3.2 2.1s-1.5 3.7-4.6 6.8c-3.1 3.1-6.5 4.9-10.1 5.4-3.7 0.5-6 1-7 1.5s-1.7 1.7-2.1 3.5c-0.4 1.8-1.1 3.8-2 6.1-1 2.3-1.4 3.8-1.4 4.7 0 1.8 0.7 2.7 2.2 2.7 0.8 0 1.6-0.3 2.5-1 5.6-4.2 9.7-6.7 12.2-7.7s4.4-2 5.5-3.1c1.1-1.1 1.9-1.7 2.3-1.7s0.6 0.3 0.6 0.8c0 1.2-1.1 3.9-3.2 8s-5.5 7.5-10 10.3c-2.1 1.2-5.7 4.1-10.8 8.5-5.1 4.4-9.8 8.9-14.3 13.4-1.9 1.9-3.7 2.9-5.4 2.9-1.7 0-2.5-0.9-2.5-2.6 0-1.8 0.7-3.9 2-6.4 4.3-7.7 7.4-14.5 9.4-20.6s3-10 3-11.9-0.7-2.8-2-2.8c-0.3 0-1.5 0.3-3.5 0.8s-3.4 0.9-4.4 1.3c-1 0.3-2.2 0.5-3.6 0.5-1.5 0-2.9-0.5-4.4-1.4-1.5-1-2.2-2.5-2.2-4.5s0.7-4 2.2-5.9c1.5-1.9 3-2.9 4.7-2.9l1.9 0.2c1.5 0 2.8-0.4 4-1.2 1.2-0.8 3-1.6 5.5-2.3 2.5-0.7 3.7-2.1 3.7-4.1s-0.5-3-1.5-3-2.4 0.2-4.1 0.6c-1.7 0.4-3 0.6-3.9 0.6-3.6 0-5.4-2.7-5.4-8.1l0.2-4.7c0-1.6-0.6-2.4-1.9-2.4-2.5 0-4.9-0.6-7.3-1.9-2.4-1.2-3.5-2.5-3.5-3.8s1.8-4 5.4-8c3.6-4.1 6.4-6.9 8.3-8.5 4.8-4 8.1-7.6 9.8-11 1.6-2.9 3.3-4.4 5.1-4.4 2.5 0 3.7 1.3 3.7 3.9l-0.5 5.6c0 1.6 1.4 2.4 4.2 2.4 0.7 0 2.4-0.3 5.1-0.8s5.5-0.7 8.7-0.7zM848 514.7c0 0.8-2.5 3.1-7.5 6.9-5 3.8-9.2 5.7-12.6 5.7-3.4 0-6.6-1.2-9.8-3.5-3.1-2.3-6.6-8.6-10.3-18.9-0.5-1.4-1-2-1.5-2-0.6 0-1.5 0.6-3 1.9-1.4 1.3-3 2.4-4.7 3.3-1.7 0.9-4.8 1.4-9.1 1.5-4.3 0.1-9.3 0.8-14.8 1.9-5.6 1.2-9.7 2.5-12.5 4-2.8 1.5-4.8 2.3-6.1 2.6-1.3 0.3-3.1 0.4-5.4 0.4-2.3 0-4.8 0.3-7.4 0.8-2.6 0.6-4.4 1.2-5.1 1.9-0.8 0.7-1.6 1-2.4 1-0.8 0-1.3-0.7-1.3-2.1 0-1.4 0.5-3.3 1.5-5.7 1-2.4 3.5-4.2 7.4-5.5 3.9-1.3 7.3-3.3 10-6.1 2.8-2.8 4.5-6 5.3-9.7 0.8-3.7 1.8-10.7 3-20.8 1.2-10.2 1.9-18.7 1.9-25.6 0-6.9-0.6-11.9-1.7-15.1-0.3-1.2-0.5-4-0.5-8.3s0.3-7 0.8-8.2c0.6-1.2 1.5-1.8 2.9-1.8s2.6 0.4 3.7 1.1c1.1 0.7 2.4 1.1 3.8 1.1s2.6-0.1 3.5-0.2c8.2-1.2 15.9-1.9 22.9-1.9s12.6 0.5 16.5 1.5c0.9 0.2 1.7 0.3 2.5 0.3s1.8-0.3 3-0.8c1.2-0.6 2.4-0.8 3.8-0.8 1.3 0 2.5 0.4 3.5 1.1 1 0.7 1.5 1.7 1.5 3 0 2.1-0.8 4.2-2.4 6.3-1.6 2-3.2 5.3-4.9 9.8-1.7 4.5-3.5 10.3-5.5 17.5-2 7.1-3.1 11.4-3.4 13-0.3 1.5-0.4 3.6-0.4 6.4s-1.6 4.6-4.7 5.8c-0.9 0.3-1.3 0.8-1.3 1.5 0 1.6 2.5 5.6 7.4 12s10.4 12 16.4 16.8c6 4.7 10.5 7.1 13.7 7.1 2.3 0 3.3 0.2 3.3 0.8z m-40-75.4c2.6 0 3.9-1.8 3.9-5.4 0-1.9-0.8-3.2-2.4-3.8-1.6-0.6-5.6-0.9-11.8-0.9-6.2 0-11.8 0.4-16.8 1.3-4.9 0.8-7.7 1.6-8.4 2.4-0.6 0.7-0.9 2.1-0.9 4 0 2.9 1.4 4.2 4.2 3.9 7.8-1.2 13.9-1.9 18.4-1.9 4.5 0 7.7 0.1 9.5 0.2l4.3 0.2z m-36.6 24.6c0 2.1 1.1 3 3.2 2.5 8.3-1.7 16-2.5 22.9-2.5l5.6 0.2c2 0 3.2-1.1 3.5-3.2 0.3-2.1 0.5-3.6 0.5-4.4 0-0.8-0.3-1.4-0.8-1.8-0.5-0.4-2-0.7-4.5-0.8-2.5-0.2-5.5-0.3-9.2-0.3s-7.7 0.4-12.2 1.2c-4.5 0.8-7.1 1.5-7.9 2.1-0.8 0.6-1.2 1.7-1.2 3.3v3.7z m-0.7 35.9c1.1 0 2.6-0.2 4.5-0.6 1.9-0.4 3.3-1.5 4.3-3.3l4.7-9c2.2-4.2 3.4-6.9 3.4-8.2s-0.6-1.9-1.9-1.9c-1.2 0-3.7 0.4-7.5 1.1-3.8 0.7-6 1.4-6.6 1.9-0.6 0.6-1 1.7-1.3 3.4-0.6 6.2-1 10.1-1.3 11.5-0.3 1.5-0.4 2.7-0.4 3.6 0.1 1 0.8 1.5 2.1 1.5z m31.3-2.4c1.6-0.1 2.4-0.7 2.4-1.7 0-0.5-0.8-2.2-2.4-5.3-1.6-3.1-2.9-4.6-3.8-4.6s-1.7 0.6-2.3 1.9c-0.6 1.2-1.6 2.9-3 4.8s-2.1 3.4-2.1 4.2c0 0.8 0.5 1.2 1.4 1.2l9.8-0.5zM917.3 424c0 1.5-0.6 3.3-1.9 5.5-1.2 2.2-3.9 4.8-7.9 7.7-4 2.9-7.7 5.4-10.9 7.5-3.2 2-6.5 3.1-9.8 3.1s-6.1-1.6-8.4-4.9c-2.2-3.3-3.4-6.2-3.4-8.6s1.3-3.5 3.9-3.1c1.2 0.2 3.1 0.3 5.6 0.3 2.5 0 4.9-0.3 7.3-0.9 2.4-0.6 5.2-1.9 8.5-3.9s5.7-3.8 7.1-5.6c1.4-1.7 2.8-2.6 4.3-2.6s2.8 0.5 3.9 1.6c1.2 1 1.7 2.4 1.7 3.9z m91 5.5c0 1.5-0.6 2.7-1.7 3.8-1.1 1.1-4.3 2-9.5 2.7-5.2 0.7-11.6 1.1-19.3 1.1-7.7 0-14.8 0.1-21.3 0.3l-14.7 0.7c-2.1 0-4-0.7-5.6-2-1.6-1.4-2.4-3-2.4-4.8s1.2-4 3.6-6.4c2.4-2.4 4.7-3.6 6.9-3.6s4.3 0.2 6.3 0.7c3.8 0.9 9.1 1.4 15.7 1.4l13.5-0.3c4.3 0 9 0.1 14.3 0.3 5.2 0.2 8.4 0.4 9.5 0.5 1.1 0.1 2.2 0.7 3.1 1.9 1.1 0.9 1.6 2.2 1.6 3.7z m-94.7 13c1.2 0 2.6 0.6 4.1 1.8s2.3 2.7 2.3 4.7-0.5 3.6-1.4 5.2c-0.9 1.5-2 2.7-3.2 3.4-1.2 0.7-2.4 2.2-3.5 4.5s-1.6 4-1.6 5.1l0.7 21.4c0.3 9.2 0.5 17 0.5 23.6 0 8.5-5.1 12.7-15.4 12.7-3.8 0-6.6-0.5-8.4-1.4-1.8-0.9-2.7-2-2.7-3.4s0.9-2.1 2.6-2.4c1.7-0.2 3.3-1.1 4.8-2.5 1.5-1.5 2.6-3.4 3.5-5.7s1.3-4.6 1.4-6.8c0.1-2.2 0.1-5 0.1-8.4 0-3.4 0.2-6.7 0.5-10s0.5-6.4 0.5-9.2-0.7-4.3-2.2-4.3c-1.1 0-2.9 1.2-5.4 3.7-2.5 2.5-5.7 4.9-9.6 7.2-3.9 2.3-6.8 3.5-8.6 3.5-2.4 0-3.5-1.6-3.5-4.9 0-3.3 0.7-6.7 2-10.4 1.4-3.7 3-5.5 5.1-5.5 0.6 0 1 0.1 1.3 0.3 0.3 0.2 0.8 0.3 1.4 0.3 3.9 0 10.2-2.9 18.6-8.6 8.5-5.7 13-9.4 13.4-11.2 0.5-1.8 1.4-2.7 2.7-2.7z m110.4 9.8c0 3.2-0.8 7-2.3 11.4-1.5 4.4-3.4 7.3-5.7 8.8-2.3 1.5-4.7 2.2-7.4 2.2s-5.6-0.3-8.7-0.9c-3.1-0.6-5.5-0.9-7.1-0.9-1.6 0-2.7 0.7-3.3 1.9-0.6 1.3-1 3.9-1.3 7.9-0.3 4-0.4 8.7-0.4 14.2l0.2 18.5c0 4.2-0.4 7.3-1.1 9.3-0.7 2-1.9 3.8-3.5 5.3s-3.3 2.2-5 2.2c-1.7 0-3.1-1-4.3-2.9-1.2-1.9-1.8-4.1-1.8-6.5 0-2.4 0.1-8 0.4-16.7 0.3-8.7 0.4-15.9 0.4-21.5s-0.2-9.2-0.6-10.7c-0.4-1.5-1.2-2.6-2.5-3.4-1.3-0.8-3.1-1.2-5.5-1.2-6.2 0-14.3 1.2-24.3 3.6-4.5 1.1-8 1.7-10.6 1.7-4.4 0-6.6-1.7-6.6-5.1 0-1.9 0.9-5 2.6-9.2 1.7-4.2 4.8-6.3 9-6.3 2 0 4.3 0.3 6.8 0.8s5.1 0.8 7.8 0.8 5.5-0.3 8.3-0.9c2.8-0.6 11.7-0.9 26.7-0.9 6.8 0 11.5 0.1 14.2 0.3 2.7 0.2 5.2 0.3 7.6 0.3 6.5 0 11.2-0.8 14-2.5 1.4-0.9 2.4-1.4 3-1.4 0.7 0 1 0.6 1 1.8zM353.6 614.2v-46.4h14c2.4 0 4.3 0.2 5.7 0.6 1.4 0.4 2.7 1 3.8 1.9 1.1 0.8 2.1 2 3 3.5 0.8 1.5 1.3 3.1 1.4 5 0.1 1.8 0 3.3-0.4 4.6-0.6 2.2-1.5 3.6-2.6 4.3l-2.1 1.5c1.3 0.8 2.5 1.7 3.5 2.6 1.1 0.9 1.9 2.3 2.6 4 0.6 1.8 1 3.7 1 5.6 0 2.1-0.4 4-1.1 5.6-0.7 1.6-1.5 2.9-2.5 3.8-0.9 0.9-2.1 1.6-3.4 2.2s-2.6 0.9-3.9 1.1c-1.3 0.2-3 0.2-4.9 0.2h-14.1z m6-21.1V608h6.9c2.6 0 4.2 0 5-0.1 0.8-0.1 1.6-0.4 2.6-0.9s1.8-1.3 2.3-2.4c0.6-1 0.9-2.1 0.9-3.3 0-1.2-0.1-2.3-0.4-3.4-0.5-1.4-1.2-2.4-2.1-3.2-0.9-0.8-1.8-1.2-2.7-1.3-0.9-0.1-2.1-0.2-3.6-0.2h-8.9z m0-6.1h7.8c1.4 0 2.6-0.1 3.6-0.3 1-0.2 1.8-0.6 2.5-1.3 0.7-0.6 1.2-1.5 1.5-2.5 0.3-1 0.4-2.2 0.4-3.4-0.1-1-0.3-1.8-0.6-2.6s-0.8-1.4-1.4-1.9c-0.6-0.5-1.4-0.9-2.2-1.1-0.8-0.2-2-0.3-3.6-0.4h-7.9V587z m52.9-19.2h5.3l18.9 46.4h-6.9l-5.1-12.2h-18.3l-4.6 12.2h-6.4l17.1-46.4z m10.1 28.4l-7.3-19-7.1 19h14.4z m31.7-17.1V614h-6.1v-46.2l6.1 0.1 21.1 33.7v-33.8h6.2V614h-5.9l-21.4-34.9z m39.1-11.2h6.1v17.3l15.4-16h8.2l-20.3 20.5 23.4 24.7h-8.6l-18.1-19.9v19.9h-6.1v-46.5z m90.6-0.3c3.1 0 6.2 1 9.2 2.9 3 1.9 5.4 4.8 7.2 8.6 1.8 3.8 2.7 7.8 2.7 11.9 0 4.2-0.9 8.1-2.6 11.7-1.7 3.6-4 6.5-7 8.5-2.9 2.1-6.1 3.1-9.5 3-3.4 0-6.5-1-9.5-3.1-2.9-2-5.3-4.9-7-8.5-1.7-3.6-2.6-7.5-2.6-11.6s0.8-8 2.6-11.8c1.8-3.9 4.2-6.7 7.2-8.7 3.1-1.9 6.2-2.9 9.3-2.9z m0 6.2c-2 0-4.1 0.8-6.2 2.2-2.1 1.4-3.7 3.5-4.9 6.3-1.2 2.8-1.8 5.7-1.8 8.8 0 3.1 0.6 5.9 1.7 8.5 1.1 2.7 2.7 4.8 4.7 6.3s4.2 2.3 6.4 2.3c2.3 0 4.4-0.7 6.4-2.2 2-1.5 3.6-3.6 4.8-6.3 1.1-2.6 1.7-5.5 1.7-8.6 0-3-0.6-5.9-1.8-8.7-1.2-2.8-2.8-5-4.9-6.4-2.1-1.5-4.1-2.2-6.1-2.2z m37.3 19.3v21h-6.1v-46.4h25.3v6.3h-19.2v13.1H639v6.1h-17.7z m64.8-14V614H680v-46.2l6.1 0.1 21.1 33.7v-33.8h6.2V614h-5.9l-21.4-34.9z m56.3-11.3h5.3l18.9 46.4h-6.9l-5.1-12.2h-18.3l-4.6 12.2h-6.4l17.1-46.4z m10.1 28.4l-7.3-19-7.1 19h14.4z m31.7-17.1V614H778v-46.2l6.1 0.1 21.1 33.7v-33.8h6.2V614h-5.9l-21.3-34.9z m60.6 35.1h-6.3v-21.4l-16-25h6.9l12.2 18.8 11.1-18.8h7.1l-15 25.3v21.1z m43.3-46.4h5.3l18.9 46.4h-6.9l-5.1-12.2H882l-4.6 12.2H871l17.1-46.4z m10.1 28.4l-7.3-19-7.1 19h14.4z m31.6-17.1V614h-6.1v-46.2l6.1 0.1 21.1 33.7v-33.8h6.2V614h-5.9l-21.4-34.9z m74.2 2.2l-6.5-0.1c-0.4-1-0.8-2-1.2-3.1-0.4-1.1-1.3-2-2.6-2.9s-3.1-1.4-5.5-1.5c-1.3 0-2.6 0.2-3.8 0.5-1.3 0.3-2.5 1-3.6 2-1.2 1-2.2 2.3-3.1 3.9-0.9 1.6-1.6 3.2-2 4.9-0.4 1.6-0.6 3.3-0.6 5.2 0 1.8 0 3.2 0.1 4.3 0.1 1.9 0.6 3.7 1.2 5.6 0.7 1.9 1.7 3.5 3.1 4.7 1.4 1.2 2.8 2 4.3 2.4 1.5 0.4 2.8 0.7 3.9 0.7s2.3 0.1 3.5 0.1h5.9v-11h-7.7v-6.5h13.9v23.6h-9.4c-2.5 0-4.9-0.1-7.1-0.3-2.3-0.2-4.6-0.8-6.9-1.8-2.3-1-4.2-2.3-5.8-3.9-1.5-1.7-2.6-3.4-3.3-5.3-0.7-1.9-1.2-3.8-1.4-5.7-0.2-1.9-0.3-4-0.3-6.3 0-2.6 0.4-5.2 1-7.9s1.6-4.9 2.9-6.7c1.3-1.8 2.6-3.3 3.9-4.4 1.3-1.1 2.9-2 4.8-2.7 1.9-0.7 4.2-1.1 6.8-1 2.6 0.1 4.9 0.5 6.7 1.4 1.8 0.8 3.3 1.7 4.3 2.8 1 1 1.9 2.2 2.6 3.5 0.7 1.3 1.2 2.5 1.4 3.6l0.5 1.9z" fill="#003A81"></path></svg>