<svg viewBox="0 0 1024 1024" version="1.1" xmlns="http://www.w3.org/2000/svg"><path d="M316.7 490.2c-1.5-2.2-2.7-4.5-3.7-6.8-1-2.4-1.9-4.7-2.7-7.2H329c0.8 2.4 1.8 4.8 3.1 7.1 1.2 2.3 2.5 4.6 3.9 6.9h-19.3z m29.9 30.3v16.7h-17.9v-16.7h-19.3V511h19.3v-6.9h-17.9V494h26.7c1.4-2 2.8-4.7 4.2-8 1.4-3.3 2.7-6.6 3.8-9.9h18.4c-0.7 3.2-1.7 6.2-3.1 9.2-1.3 3-2.7 5.9-4.1 8.7h7.8v10.1h-17.9v6.9h18.7v9.5h-18.7z m0-67.1v8.9h29.9c1.4 0 2.8 0.4 4.1 1.2 1.4 0.8 2.6 1.7 3.7 2.9 1 1.1 1.8 2.4 2.4 3.7 0.6 1.3 0.9 2.7 0.9 3.9v54.6c0 1.3-0.3 2.5-0.9 3.7-0.6 1.2-1.4 2.2-2.3 3.2-1.1 1.1-2.4 2.1-3.8 2.9-1.4 0.8-2.8 1.2-4.2 1.2h-21.1l-2.9-10.6h13.9c0.9 0 1.7-0.4 2.3-1.1 0.6-0.7 1-1.7 1-2.8V477c0-1.1-0.4-2.1-1.1-3-0.7-0.9-1.7-1.3-2.9-1.3h-55.9c-1.4 0-2.5 0.3-3.2 1-0.8 0.7-1.2 1.7-1.2 3.1v62.7h-18.1v-64.8c0-2.3 0.3-4.3 1-5.9 0.7-1.6 1.6-2.9 2.9-3.8 1.4-1 3-1.7 4.8-2.1 1.8-0.4 3.8-0.6 6-0.6h25.7v-8.9H283v-10.8h44.7V432h18.9v10.6h44.7v10.8h-44.7zM489 495.7h9.5v-7.1H489v7.1z m9.5-22.3c0-0.7-0.3-1.2-0.9-1.6-0.6-0.4-1.1-0.6-1.7-0.6H489v7.2h9.5v-5zM461 495.7h10.7v-7.1H461v7.1z m10.7-24.5h-8.4c-0.6 0-1.1 0.2-1.6 0.5-0.5 0.4-0.7 0.9-0.7 1.5v5.1h10.7v-7.1zM421.4 458c-2.6-4.1-4.9-8.4-6.8-12.8-1.9-4.4-3.6-8.8-4.9-13.2h18.5c1.7 4.5 3.5 8.9 5.5 13.2 2 4.4 4.3 8.6 6.9 12.7h-19.2z m93.3 81.5h-57.6c-5.3 0-10.2-0.9-14.7-2.7-3.7-1.5-7.1-3.5-10.1-6.2-1.3 3.1-2.8 6.1-4.6 8.9h-19.5c2.3-2.8 4.1-5.9 5.5-9 1.4-3.2 2.5-6.5 3.3-9.9 0.6-3.1 1.1-6.3 1.4-9.5 0.3-3.3 0.4-6.6 0.4-10v-23.6c0-0.8-0.2-1.5-0.6-2.1-0.4-0.6-1.1-0.9-1.9-0.9h-6.1v-11.4h17c1.5 0 2.8 0.3 4 0.9 1.2 0.6 2.2 1.4 3 2.5 0.7 0.9 1.3 1.9 1.8 3.1 0.4 1.2 0.7 2.4 0.7 3.7v31.8c0 2.4-0.1 4.7-0.3 6.9-0.2 2.2-0.5 4.5-0.9 6.9 1.2 1.1 2.5 2.1 3.8 3.1 1.3 1 2.7 1.8 4.1 2.4v-54.5c0-1.1 0.3-2.3 0.9-3.4 0.6-1.1 1.4-2.2 2.3-3.1 0.9-0.9 1.9-1.6 3.1-2.3 1.2-0.6 2.3-0.9 3.5-0.9h12.2c-2.1-1.9-4.2-3.9-6.2-6-2-2.2-3.8-4.3-5.4-6.4h19c0.9 1.4 2.1 2.9 3.7 4.5s3 2.9 4.3 4.1c1.4-1.6 3-3.4 4.8-5.3 1.8-1.9 3.3-3.9 4.6-6 0.2-0.2 0.2-0.5 0.1-0.7-0.1-0.2-0.2-0.3-0.5-0.3h-44.1v-10.6h59.7c1.2 0 2.4 0.3 3.4 0.9 1.1 0.6 1.9 1.4 2.6 2.4 0.7 1.1 1.2 2.2 1.3 3.5 0.2 1.3-0.2 2.5-1 3.7-2.4 3.3-5 6.2-7.5 8.8-2.6 2.6-5.5 5.1-8.6 7.5h10.1c1.5 0 2.9 0.3 4.2 0.9 1.3 0.6 2.3 1.4 3.2 2.5 2.1 2.4 3.2 5.1 3.2 8.2v43.2c0 2.8-0.9 5.2-2.8 7.1-1.6 1.6-3.8 2.4-6.5 2.4h-13l-3.4-11.1h5.7c0.6 0 1.2-0.2 1.6-0.6 0.4-0.4 0.6-0.9 0.6-1.5v-5.7H489v16.7h-17.3v-16.7H461V525h-16.7c2.8 1.4 5.9 2.3 9.1 2.7 3.2 0.4 6.5 0.7 9.8 0.7h54.7l-3.2 11.1z m108.2 0c-8.4-10.2-15.6-20.8-21.7-31.8s-11.5-22.3-16.2-34c-2.1 3.6-4.4 7.2-6.9 10.6-2.5 3.4-5.1 6.9-7.9 10.3v30.3c0 0.7 0.3 1.3 0.9 1.8 0.6 0.6 1.2 0.9 1.9 0.9h19.4l-3.7 11.4H562c-2.5 0-4.8-0.9-6.7-2.7-1.1-1-1.9-2.1-2.5-3.5-0.6-1.3-0.9-2.7-0.9-4.2v-22.8h-15.6c2.9-2.8 6.2-6.3 9.7-10.3 3.5-4 7-8.2 10.4-12.6 3.4-4.4 6.5-8.8 9.4-13.2 2.9-4.4 5.3-8.4 7.1-12.1h-13c-0.7 0-1.3 0.3-2 0.9-0.7 0.6-1 1.3-1 2v11.6H539v-15.7c0-2.8 0.9-5.1 2.7-6.9 1.9-2.1 4.8-3.2 8.5-3.2h27.7c1.1-2.4 2.2-4.7 3.1-7.1l2.7-7.2h19.5c-0.7 2.4-1.5 4.8-2.3 7.2-0.8 2.4-1.7 4.8-2.7 7.1h33.2c3.1 0 5.6 1.2 7.6 3.5 1.9 2.1 2.8 4.5 2.8 7.3v14.7h-18.2v-11.4c0-0.7-0.3-1.4-0.9-1.9-0.6-0.6-1.2-0.9-1.9-0.9h-27.3c-1.1 2.4-2.3 4.8-3.5 7.2-1.2 2.4-2.5 4.7-3.9 6.9h17.7c1.6 3.6 3.3 7.3 5.1 11 1.7 3.7 3.6 7.4 5.5 11 1.6-2.8 3.1-5.5 4.4-8.3 1.3-2.8 2.6-5.6 3.8-8.6H642c-1.9 4.4-3.9 8.7-6.2 13-2.2 4.3-4.7 8.5-7.4 12.6h-8.9c3.8 6.2 7.9 12.4 12.2 18.6 4.3 6.2 9 12.3 14.1 18.4h-22.9zM730.5 495c-2.3-2-4.3-4.5-6-7.6-1.7-3.1-3.3-6.5-4.8-10.3h16.8c1.4 3.2 3.2 6.4 5.5 9.5 2.3 3.2 4.9 5.9 7.8 8.3h-19.3z m-4.4 14.5c0-0.3-0.1-0.6-0.2-0.9-0.2-0.3-0.4-0.4-0.9-0.4h-14.2c-0.4 0-0.8 0.1-1.1 0.4-0.3 0.2-0.5 0.6-0.5 1V521c0 0.5 0.2 1 0.5 1.4 0.3 0.4 0.8 0.7 1.3 0.7h13.6c1 0 1.5-0.6 1.5-1.8v-11.8z m-24.3-58.2c0.8 1.9 1.6 3.8 2.5 5.7 0.9 1.9 1.7 3.8 2.6 5.7h20.9c0.7-1.3 1.4-3 2.4-5.2 0.9-2.2 1.8-4.2 2.6-6.2h-31z m38.4 79.4c-0.4 0.5-0.9 1-1.5 1.4-0.4 0.3-0.8 0.5-1.3 0.7-1.1 0.5-2.4 0.7-3.8 0.7h-31.7c-2.5 0-4.6-0.9-6.2-2.7-0.8-0.9-1.5-1.9-2-3.1-0.5-1.2-0.8-2.4-0.8-3.7v-18.3c0-1.4 0.3-2.6 1-3.6 0.6-1 1.5-1.9 2.6-2.5 2-1.1 4.3-1.7 6.9-1.7h29.5c3.1 0 5.5 0.9 7.2 2.7 1.5 1.7 2.3 3.9 2.3 6.6V524c0 1.3-0.2 2.5-0.5 3.7-0.3 1.1-0.9 2.1-1.7 3zM704.6 495h-19.1c3.2-2.7 5.8-5.5 8-8.3 2.1-2.9 3.9-6 5.3-9.5h16.9c-1.4 3.7-3 7.2-5 10.5-2 3.1-4 5.6-6.1 7.3z m47.6-43.7c-0.7 1.6-1.4 3.5-2.1 5.5-0.8 2-1.6 4-2.5 5.9h9.1c1.9 0 3.5 0.4 4.9 1.2 1.4 0.8 2.6 1.8 3.5 3.1 1 1.3 1.7 2.8 2.2 4.4 0.5 1.6 0.7 3.3 0.7 4.9v52.3c0 3.3-1.1 6-3.3 7.9-2.2 2-5.1 2.9-8.8 2.9h-15l-2.3-7.4c0.7-0.5 1.3-1.1 1.8-1.7 0.5-0.7 0.9-1.3 1.1-1.9l6.7 0.1c1.2 0 1.8-0.7 1.8-2v-50c0-0.9-0.3-1.6-1-2.1s-1.3-0.8-2.1-0.8h-59.2c-0.6 0-1.2 0.3-1.8 0.9-0.6 0.6-0.9 1.1-0.9 1.7v63.3h-17.5v-66.3c0-3 1.2-5.5 3.5-7.5 1.1-0.9 2.4-1.6 3.7-2.2 1.3-0.6 2.7-0.9 4.2-0.9h8.1c-0.9-1.9-1.7-3.8-2.5-5.7l-2.4-5.7h-18.8v-10.6H708c-0.5-1.4-1-2.8-1.5-4.3s-1-2.9-1.4-4.3h19.7c0.5 1.3 1 2.7 1.6 4.2 0.6 1.5 1.1 2.9 1.6 4.4h43.2v10.8h-19z m126.3 88.2c-4.9-7.1-9-14.5-12.5-22.1-3.4-7.6-6.4-15.4-8.9-23.4h18.3c1.1 3.3 2.5 6.8 4 10.4 0.8-1.6 1.5-3.4 2.1-5.2 0.6-1.8 1.1-3.8 1.6-5.8h15.3c-0.8 3.6-1.8 7.1-3.1 10.7-1.2 3.5-2.5 7-3.9 10.4h-7.2c0.9 2.1 1.9 4.3 3.1 6.5 1.2 2.2 2.5 4.4 3.8 6.6 1.4 2.2 2.8 4.3 4.3 6.3s2.9 3.8 4.3 5.5h-21.2z m-1.3-73.4h-23.7v11.1h22c0.4 0 0.8-0.2 1.2-0.5 0.4-0.3 0.6-0.7 0.6-1.1v-9.5z m0-19.2c0-0.4-0.2-0.9-0.7-1.3-0.4-0.5-0.9-0.7-1.3-0.7h-19.8c-0.4 0-0.8 0.2-1.3 0.6-0.4 0.4-0.7 0.9-0.7 1.3v8.4h23.7v-8.3z m8.2 41.5h-31.9v37.4c0 0.7 0.2 1.2 0.7 1.6 0.4 0.4 1 0.6 1.7 0.6h10.3l-3.2 11.2h-15.6c-3.5 0-6.3-1.1-8.3-3.3-2-2.2-3.1-5-3.1-8.4v-84.3c0-2.9 0.8-5.3 2.4-7.1 1.7-1.7 4.1-2.6 7.2-2.6h39.1c3.3 0 5.8 0.9 7.7 2.8 1.9 1.7 2.8 4.1 2.8 7.1V479c0 2.8-0.8 5-2.4 6.6-1.8 1.9-4.3 2.8-7.4 2.8z m-65.8 15.1v21.9c0 0.6 0.2 1.2 0.6 1.8 0.4 0.5 0.9 0.8 1.6 0.8h8.6l-2.7 11h-14.3c-3.9 0-6.8-1.2-8.8-3.5-1.9-2-2.8-4.7-2.8-8v-24h-11v-11.1h11v-12.5h-8.2V469h36.8v10.8h-10.7v12.6H833v11.1h-13.4z m-9-48.6c-0.6 1.9-1.2 3.7-1.8 5.4-0.6 1.7-1.4 3.4-2.3 5.1h-17.8c2-5.3 3.7-10.7 5.2-16.4 1.5-5.6 2.8-11.3 3.8-17h18.1c-0.1 0.7-0.2 1.6-0.5 2.7-0.2 1.1-0.5 2.2-0.7 3.3-0.2 1.1-0.5 2.2-0.7 3.3-0.2 1.1-0.4 2-0.6 2.7h19.4v11h-22.1z m145.6-9.4v-11.2h63.9v11.2h-63.9z m52.3 33.8v48.6c0 1.9-0.3 3.5-0.9 4.9-0.6 1.4-1.4 2.6-2.5 3.6-2.3 2-5.2 3-8.8 3h-30.1l-3.7-11.1h24.2c1 0 1.8-0.3 2.4-1 0.7-0.6 1-1.4 1-2.3v-45.7h-37.7v-11.6h72v11.6h-15.9z m-69.2 13h2.8v46.9h-18.4v-42h-7.1c3.2-5.6 6-11.3 8.5-17 2.5-5.7 4.7-11.6 6.8-17.7h19.4c-1.6 5-3.5 10-5.6 15-2.1 5-4.2 9.9-6.4 14.8z m-0.8-33.7h-22.4c3.3-4.2 6.4-8.5 9.2-13 2.8-4.4 5.3-9 7.7-13.6h20.5c-2.2 4.5-4.5 9-7 13.5-2.5 4.4-5.1 8.8-8 13.1zM298.6 590.7l-10.5-17.6v17.6H283v-25.8h5.8l10.4 17.5v-17.5h5.1v25.8h-5.7z m21.6-17.4l-2.8 7.2h5.6l-2.8-7.2z m7 17.4l-2.8-7H316l-2.8 7h-5.9l10.6-25.8h4.6l10.6 25.8h-5.9z m25.2 0l-10.5-17.6v17.6h-5.1v-25.8h5.8l10.4 17.5v-17.5h5.1v25.8h-5.7z m22.4-22.5v22.5h-5.6v-22.5H361V565h22.1v3.2h-8.3z m31.1 9.3c0-1.2-0.2-2.3-0.4-3.4s-0.5-2.1-1-3.1c-0.2-0.5-0.5-1-0.9-1.3-0.4-0.4-0.8-0.7-1.3-0.9-0.5-0.2-1-0.4-1.5-0.5-0.5-0.1-1-0.1-1.6-0.1-1 0-2 0.3-2.9 0.7-0.9 0.4-1.6 1.1-2.1 2-0.7 1.1-1.1 2.3-1.3 3.6-0.2 1.4-0.3 2.6-0.3 3.9 0 0.5 0 1.1 0.1 1.8s0.2 1.3 0.3 2c0.1 0.7 0.3 1.3 0.5 2 0.2 0.6 0.5 1.2 0.8 1.7 0.3 0.5 0.7 0.9 1.1 1.2 0.4 0.3 0.9 0.6 1.4 0.8 0.5 0.2 1 0.3 1.6 0.4 0.6 0.1 1.1 0.1 1.6 0 0.6-0.1 1.1-0.2 1.6-0.4s1-0.5 1.5-0.8c0.5-0.4 0.9-0.8 1.2-1.3 0.3-0.5 0.6-1.1 0.8-1.7 0.3-1 0.4-2 0.6-3.1 0.2-1.3 0.3-2.4 0.2-3.5z m5.9 1.1c0 1.6-0.2 3.2-0.7 4.8-0.5 1.6-1.2 2.9-2.2 4.1-1.1 1.3-2.3 2.2-3.7 2.9-1.4 0.6-2.9 1-4.5 1.1-1.2 0-2.4 0-3.5-0.1s-2.2-0.4-3.3-0.8c-1-0.4-1.9-0.9-2.7-1.6-0.8-0.6-1.6-1.4-2.2-2.4-0.8-1.2-1.4-2.6-1.7-4.2-0.4-1.5-0.5-3.1-0.4-4.8 0.1-1.6 0.3-3 0.8-4.5 0.5-1.4 1.1-2.7 2-3.8 0.6-0.8 1.3-1.5 2.2-2.1s1.7-1 2.7-1.3c0.8-0.3 1.7-0.5 2.5-0.7 0.9-0.1 1.7-0.2 2.6-0.2 1.1 0 2.1 0.1 3.2 0.3 1 0.2 2 0.6 3 1.1 0.8 0.5 1.6 1 2.3 1.7 0.7 0.7 1.3 1.5 1.8 2.4 0.6 1.2 1.1 2.4 1.4 3.8 0.3 1.4 0.4 2.8 0.4 4.3z m19.3 12.1l-10.5-17.6v17.6h-5.1v-25.8h5.8l10.4 17.5v-17.5h5.1v25.8h-5.7z m27.4-16.9c0-0.5-0.1-0.9-0.2-1.4-0.1-0.5-0.2-0.9-0.3-1.3-0.4-1.1-1.1-2-2.1-2.4-0.7-0.3-1.4-0.5-2.3-0.5-0.8 0-1.6 0.2-2.2 0.6-0.8 0.4-1.5 1-2.1 1.7-0.6 0.7-1 1.4-1.3 2.1-0.4 0.9-0.7 1.8-0.8 2.8-0.1 1-0.2 1.9-0.2 2.9 0 1.2 0.1 2.4 0.3 3.5 0.2 1.1 0.5 2.2 1.1 3.2 0.4 0.8 0.9 1.4 1.6 1.9s1.4 0.9 2.2 1.1c0.7 0.2 1.5 0.2 2.2 0.2 0.7-0.1 1.5-0.3 2.1-0.5 0.4-0.2 0.9-0.5 1.4-0.9 0.5-0.4 1-0.9 1.5-1.5v-3.4c0-0.1-0.1-0.3-0.2-0.4-0.1-0.2-0.3-0.2-0.4-0.2h-5.1V578h8.6c0.4 0 0.8 0.1 1.2 0.4 0.3 0.2 0.6 0.5 0.9 0.9 0.3 0.5 0.5 1.1 0.5 1.6V591h-5.4v-2.1c-0.9 0.9-1.9 1.6-3 2-1.1 0.4-2.3 0.6-3.6 0.6-1.1 0-2.2-0.1-3.3-0.4-1.1-0.3-2.1-0.7-3-1.3-0.9-0.5-1.7-1.2-2.4-2s-1.2-1.6-1.6-2.6c-0.5-1.3-0.9-2.8-1.1-4.4-0.2-1.6-0.2-3.1 0-4.7 0.2-1.3 0.5-2.6 0.9-3.8 0.5-1.2 1.1-2.3 2-3.3 0.9-1.1 1.9-1.9 3-2.5 1.2-0.6 2.4-1.1 3.7-1.3 1.3-0.3 2.6-0.3 4-0.2 1.3 0.1 2.6 0.4 3.9 0.9 0.7 0.3 1.4 0.6 2 1.1 0.7 0.5 1.2 1 1.8 1.7 0.5 0.6 1 1.4 1.4 2.4 0.4 1 0.7 1.9 0.8 2.8h-6.5z m52.2-3.4c0-0.5-0.3-1-0.7-1.5-0.5-0.5-1-0.7-1.5-0.7h-5.7c-0.2 0-0.3 0.1-0.5 0.2-0.1 0.1-0.2 0.3-0.2 0.5v7.1h6.4c0.5 0 0.9-0.2 1.4-0.7 0.5-0.4 0.7-1 0.8-1.6 0.1-0.5 0.1-1 0.1-1.6-0.1-0.5-0.1-1.1-0.1-1.7z m2.1 20.3c-0.8-1.4-1.5-2.9-2-4.4-0.5-1.5-1-3.1-1.5-4.7-0.2-0.5-0.4-1-0.8-1.5-0.4-0.4-0.9-0.7-1.5-0.7h-5v11.2h-5.5v-22c0-1.3 0.4-2.3 1.2-2.9 0.3-0.3 0.7-0.5 1.1-0.6 0.4-0.2 1-0.2 1.6-0.2h10.1c0.7 0 1.4 0.1 2.1 0.3 0.7 0.2 1.4 0.5 1.9 0.9 0.6 0.4 1 0.9 1.3 1.4 0.3 0.6 0.5 1.2 0.7 1.9 0.2 0.8 0.2 1.6 0.2 2.5 0 0.9-0.1 1.7-0.2 2.5-0.1 0.9-0.6 1.6-1.3 2.3-0.4 0.4-0.9 0.7-1.4 1-0.5 0.3-1 0.4-1.5 0.6 0.8 0.4 1.5 0.9 2 1.7 0.6 0.8 1 1.7 1.3 2.7 0.4 1.4 0.9 2.8 1.6 4.1 0.7 1.4 1.4 2.7 2.2 3.9h-6.6z m30.4-4.9c-0.3 0.8-0.6 1.6-1.1 2.2-1.2 1.6-2.9 2.6-5.2 3.1-1.3 0.3-2.6 0.4-4 0.4-1.4-0.1-2.7-0.2-4-0.4-1-0.2-1.9-0.5-2.7-0.9-0.8-0.5-1.5-1-2.1-1.7-0.6-0.7-1.1-1.6-1.4-2.5-0.3-0.9-0.5-1.9-0.5-3v-17.2h5.7v18.1c0 0.7 0.1 1.3 0.4 1.9 0.3 0.5 0.6 1 1 1.4 0.5 0.4 1.1 0.8 1.7 1 0.6 0.2 1.3 0.3 2 0.3s1.4-0.1 2-0.3c0.7-0.2 1.2-0.6 1.7-1 0.4-0.4 0.7-0.8 0.9-1.4 0.2-0.5 0.3-1.1 0.3-1.8v-18.1h5.7v17.4c0 0.8-0.1 1.7-0.4 2.5z m19-15.4c0-0.5-0.3-1-0.7-1.5-0.5-0.5-1-0.7-1.5-0.7h-5.7c-0.2 0-0.3 0.1-0.5 0.2-0.1 0.1-0.2 0.3-0.2 0.5v7.1h6.4c0.5 0 0.9-0.2 1.4-0.7 0.5-0.4 0.7-1 0.8-1.6 0.1-0.5 0.1-1 0.1-1.6-0.1-0.5-0.1-1.1-0.1-1.7z m2.1 20.3c-0.8-1.4-1.5-2.9-2-4.4-0.5-1.5-1-3.1-1.5-4.7-0.2-0.5-0.4-1-0.8-1.5s-0.9-0.7-1.5-0.7h-5v11.2H548v-22c0-1.3 0.4-2.3 1.2-2.9 0.3-0.3 0.7-0.5 1.1-0.6 0.4-0.2 1-0.2 1.6-0.2H562c0.7 0 1.4 0.1 2.1 0.3 0.7 0.2 1.4 0.5 1.9 0.9 0.6 0.4 1 0.9 1.3 1.4 0.3 0.6 0.5 1.2 0.7 1.9 0.2 0.8 0.2 1.6 0.2 2.5 0 0.9-0.1 1.7-0.2 2.5-0.1 0.9-0.6 1.6-1.3 2.3-0.4 0.4-0.9 0.7-1.4 1-0.5 0.3-1 0.4-1.5 0.6 0.8 0.4 1.5 0.9 2 1.7 0.6 0.8 1 1.7 1.3 2.7 0.4 1.4 0.9 2.8 1.6 4.1 0.7 1.4 1.4 2.7 2.2 3.9h-6.6z m21.6-17.4l-2.8 7.2h5.6l-2.8-7.2z m7 17.4l-2.8-7h-8.3l-2.8 7h-6l10.6-25.8h4.6l10.6 25.8h-5.9z m13.2 0c-0.6 0-1.1-0.1-1.6-0.3-0.5-0.2-0.9-0.6-1.2-1-0.5-0.7-0.7-1.6-0.7-2.7V565h5.4v21.5c0 0.3 0.1 0.6 0.4 0.8 0.3 0.2 0.5 0.3 0.8 0.3h10.3v3.1h-13.4z m66-5.2c-0.5 1-1.1 1.9-1.8 2.7-1 1.1-2.2 1.9-3.5 2.3-1.3 0.5-2.7 0.8-4.2 0.9-1.5 0.1-3.1 0-4.6-0.4-1.5-0.4-2.9-1-4.1-1.9-1.2-0.9-2.1-2-2.7-3.3-0.6-1.3-1.1-2.6-1.3-4-0.1-0.7-0.2-1.5-0.2-2.4 0-0.9 0-1.8 0.1-2.7 0.1-0.9 0.2-1.8 0.4-2.6s0.4-1.6 0.7-2.3c0.3-0.7 0.6-1.3 1.1-2 0.4-0.6 0.9-1.2 1.4-1.7 0.5-0.5 1.1-1 1.7-1.4 0.6-0.4 1.3-0.7 2-1 1.1-0.4 2.2-0.6 3.4-0.8 1.2-0.1 2.4-0.1 3.6 0.1 1.1 0.2 2.1 0.4 3 0.8 1 0.4 1.8 1 2.6 1.7 0.9 0.8 1.6 1.7 2.1 2.7 0.5 0.9 0.8 2 1 3.1h-6.1c0-0.6-0.2-1.2-0.4-1.9-0.2-0.6-0.4-1.2-0.7-1.5-0.2-0.4-0.6-0.7-1-1s-0.9-0.5-1.3-0.6c-0.7-0.1-1.3-0.2-2-0.1-0.6 0.1-1.2 0.3-1.8 0.6-0.8 0.4-1.4 0.9-1.9 1.6-0.5 0.7-1 1.4-1.3 2.2-0.4 1-0.7 2.1-0.8 3.2-0.1 1.1-0.2 2.3-0.1 3.4 0 1.1 0.2 2.3 0.4 3.4s0.7 2.1 1.3 3c0.5 0.7 1.2 1.2 1.9 1.6 0.8 0.4 1.6 0.6 2.4 0.7 0.8 0 1.5-0.1 2.2-0.4 0.7-0.3 1.3-0.8 1.8-1.5 0.4-0.5 0.8-1.1 1-1.7 0.2-0.6 0.4-1.3 0.5-1.9h6.1c-0.1 1.1-0.5 2.1-0.9 3.1z m23.9-8c0-1.2-0.2-2.3-0.4-3.4s-0.5-2.1-1-3.1c-0.2-0.5-0.5-1-0.9-1.3-0.4-0.4-0.8-0.7-1.3-0.9-0.5-0.2-1-0.4-1.5-0.5-0.5-0.1-1-0.1-1.6-0.1-1 0-2 0.3-2.9 0.7-0.9 0.4-1.6 1.1-2.1 2-0.7 1.1-1.1 2.3-1.3 3.6-0.2 1.4-0.3 2.6-0.3 3.9 0 0.5 0 1.1 0.1 1.8s0.2 1.3 0.3 2c0.1 0.7 0.3 1.3 0.5 2 0.2 0.6 0.5 1.2 0.8 1.7 0.3 0.5 0.7 0.9 1.1 1.2 0.4 0.3 0.9 0.6 1.4 0.8 0.5 0.2 1 0.3 1.6 0.4 0.6 0.1 1.1 0.1 1.6 0 0.6-0.1 1.1-0.2 1.6-0.4s1-0.5 1.5-0.8c0.5-0.4 0.9-0.8 1.2-1.3 0.3-0.5 0.6-1.1 0.8-1.7 0.3-1 0.4-2 0.6-3.1 0.2-1.3 0.2-2.4 0.2-3.5z m5.9 1.1c0 1.6-0.2 3.2-0.7 4.8-0.5 1.6-1.2 2.9-2.2 4.1-1.1 1.3-2.3 2.2-3.7 2.9-1.4 0.6-2.9 1-4.5 1.1-1.2 0-2.4 0-3.5-0.1s-2.2-0.4-3.3-0.8c-1-0.4-1.9-0.9-2.7-1.6-0.8-0.6-1.6-1.4-2.2-2.4-0.8-1.2-1.4-2.6-1.7-4.2-0.4-1.5-0.5-3.1-0.4-4.8 0.1-1.6 0.3-3 0.8-4.5 0.5-1.4 1.1-2.7 2-3.8 0.6-0.8 1.3-1.5 2.2-2.1 0.8-0.6 1.7-1 2.7-1.3 0.8-0.3 1.7-0.5 2.5-0.7 0.9-0.1 1.7-0.2 2.6-0.2 1.1 0 2.2 0.1 3.2 0.3 1 0.2 2 0.6 3 1.1 0.8 0.5 1.6 1 2.3 1.7 0.7 0.7 1.3 1.5 1.8 2.4 0.6 1.2 1.1 2.4 1.4 3.8 0.2 1.4 0.4 2.8 0.4 4.3z m24.4 12.1v-16.5l-6.6 16.5h-2.8l-6.3-16.5v16.5h-5v-25.8h5.5l7.5 16.4 7.2-16.4h5.6v25.8h-5.1z m30.9 0v-16.5l-6.6 16.5h-2.8l-6.3-16.5v16.5h-5v-25.8h5.5l7.5 16.4 7.2-16.4h5.6v25.8h-5.1z m13.6 0c-0.6 0-1.1-0.1-1.5-0.3-0.4-0.2-0.8-0.5-1.1-0.9-0.5-0.6-0.7-1.4-0.7-2.3v-19.5c0-0.4 0.1-0.7 0.3-1.1 0.2-0.3 0.4-0.6 0.8-0.9 0.3-0.2 0.6-0.4 1-0.6 0.4-0.1 0.8-0.2 1.2-0.2h15.4v3.2h-12.3c-0.3 0-0.5 0.1-0.7 0.3-0.2 0.2-0.3 0.4-0.3 0.7v6.9H785v3.1h-12.3v7.2c0 0.4 0.1 0.7 0.3 0.9 0.2 0.2 0.5 0.3 0.8 0.3h12.6v3.2h-15.6z m33.6-20.3c0-0.5-0.3-1-0.7-1.5-0.5-0.5-1-0.7-1.5-0.7h-5.7c-0.2 0-0.3 0.1-0.5 0.2-0.1 0.1-0.2 0.3-0.2 0.5v7.1h6.4c0.5 0 0.9-0.2 1.4-0.7 0.5-0.4 0.7-1 0.8-1.6 0.1-0.5 0.1-1 0.1-1.6-0.1-0.5-0.1-1.1-0.1-1.7z m2.1 20.3c-0.8-1.4-1.5-2.9-2-4.4-0.5-1.5-1-3.1-1.5-4.7-0.2-0.5-0.4-1-0.8-1.5-0.4-0.4-0.9-0.7-1.5-0.7h-5v11.2h-5.5v-22c0-1.3 0.4-2.3 1.2-2.9 0.3-0.3 0.7-0.5 1.1-0.6 0.4-0.2 1-0.2 1.6-0.2h10.1c0.7 0 1.4 0.1 2.1 0.3 0.7 0.2 1.4 0.5 1.9 0.9 0.6 0.4 1 0.9 1.3 1.4 0.3 0.6 0.5 1.2 0.7 1.9 0.2 0.8 0.2 1.6 0.2 2.5 0 0.9-0.1 1.7-0.2 2.5-0.1 0.9-0.6 1.6-1.3 2.3-0.4 0.4-0.9 0.7-1.4 1-0.5 0.3-1 0.4-1.5 0.6 0.8 0.4 1.5 0.9 2 1.7 0.6 0.8 1 1.7 1.3 2.7 0.4 1.4 0.9 2.8 1.6 4.1 0.7 1.4 1.4 2.7 2.2 3.9h-6.6z m31.9-5.2c-0.5 1-1.1 1.9-1.8 2.7-1 1.1-2.2 1.9-3.5 2.3-1.3 0.5-2.7 0.8-4.2 0.9-1.5 0.1-3.1 0-4.6-0.4-1.5-0.4-2.9-1-4.1-1.9-1.2-0.9-2.1-2-2.7-3.3-0.6-1.3-1.1-2.6-1.3-4-0.1-0.7-0.2-1.5-0.2-2.4 0-0.9 0-1.8 0.1-2.7 0.1-0.9 0.2-1.8 0.4-2.6s0.4-1.6 0.7-2.3c0.3-0.7 0.6-1.3 1.1-2 0.4-0.6 0.9-1.2 1.4-1.7 0.5-0.5 1.1-1 1.7-1.4 0.6-0.4 1.3-0.7 2-1 1.1-0.4 2.2-0.6 3.4-0.8 1.2-0.1 2.4-0.1 3.6 0.1 1.1 0.2 2.1 0.4 3 0.8 1 0.4 1.8 1 2.6 1.7 0.9 0.8 1.6 1.7 2.1 2.7 0.5 0.9 0.8 2 1 3.1H833c0-0.6-0.2-1.2-0.4-1.9-0.2-0.6-0.4-1.2-0.7-1.5-0.2-0.4-0.6-0.7-1-1s-0.9-0.5-1.3-0.6c-0.7-0.1-1.3-0.2-2-0.1-0.6 0.1-1.2 0.3-1.8 0.6-0.8 0.4-1.4 0.9-1.9 1.6-0.5 0.7-1 1.4-1.3 2.2-0.4 1-0.7 2.1-0.8 3.2s-0.2 2.3-0.1 3.4c0 1.1 0.2 2.3 0.4 3.4s0.7 2.1 1.3 3c0.5 0.7 1.2 1.2 1.9 1.6 0.8 0.4 1.6 0.6 2.4 0.7 0.8 0 1.5-0.1 2.2-0.4 0.7-0.3 1.3-0.8 1.8-1.5 0.4-0.5 0.8-1.1 1-1.7 0.2-0.6 0.4-1.3 0.5-1.9h6.1c0 1.1-0.4 2.1-0.9 3.1z m4.8 5.2v-25.8h5.9v25.8h-5.9z m22.5-17.4l-2.8 7.2h5.6l-2.8-7.2z m7 17.4l-2.8-7h-8.3l-2.8 7h-5.9l10.6-25.8h4.6l10.6 25.8h-6z m13.1 0c-0.6 0-1.1-0.1-1.6-0.3-0.5-0.2-0.9-0.6-1.2-1-0.5-0.7-0.7-1.6-0.7-2.7V565h5.4v21.5c0 0.3 0.1 0.6 0.4 0.8 0.3 0.2 0.5 0.3 0.8 0.3h10.3v3.1h-13.4zM939 585c0.1-0.4 0.2-0.9 0.2-1.4 0-0.5 0-1-0.1-1.5s-0.3-1-0.5-1.4c-0.2-0.4-0.5-0.8-0.9-1-0.4-0.2-0.8-0.4-1.2-0.5-0.4-0.1-0.9-0.1-1.3-0.1h-5.5v7.8c0 0.1 0.1 0.3 0.3 0.5 0.2 0.2 0.4 0.3 0.5 0.3h5.4c0.8 0 1.5-0.2 2-0.7 0.5-0.7 0.9-1.3 1.1-2z m-1.1-12c0-0.3 0.1-0.8 0.1-1.3 0-0.6-0.1-1.1-0.2-1.5-0.1-0.6-0.4-1-0.8-1.3-0.5-0.4-1.1-0.6-1.8-0.6h-4.7c-0.2 0-0.4 0.1-0.6 0.2-0.1 0.2-0.2 0.3-0.2 0.5v6.8h4.9c1.1 0 1.9-0.2 2.5-0.7 0.4-0.6 0.7-1.2 0.8-2.1z m6.5 13.4c-0.6 1.6-1.5 2.7-2.7 3.3-1.3 0.7-2.7 1-4.3 1h-10.1c-0.8 0-1.5-0.3-2.1-0.8-0.7-0.6-1-1.5-1-2.5v-19.3c0-0.5 0.1-1 0.3-1.4 0.2-0.4 0.5-0.7 0.9-1 0.7-0.5 1.6-0.8 2.7-0.8h9.3c1.1 0 2.1 0.2 2.9 0.6 0.8 0.4 1.5 0.9 2 1.6 0.9 1.2 1.3 2.7 1.4 4.4 0 1.6-0.3 2.9-1.1 3.9s-2 1.7-3.5 1.9c0.6 0 1.2 0.2 1.8 0.3 0.6 0.2 1.1 0.4 1.6 0.7 0.6 0.4 1 0.9 1.4 1.5 0.3 0.6 0.6 1.3 0.7 2.1 0.2 0.7 0.2 1.5 0.2 2.3 0 0.8-0.2 1.5-0.4 2.2z m16.2-13.1l-2.8 7.2h5.6l-2.8-7.2z m7 17.4l-2.8-7h-8.3l-2.8 7h-5.9l10.6-25.8h4.6l10.6 25.8h-6z m25.2 0l-10.5-17.6v17.6h-5.1v-25.8h5.8l10.4 17.5v-17.5h5.1v25.8h-5.7z m24.9 0l-6.3-10-3 3.6v6.5h-5.5V565h5.5v11.1l8.9-11.1h6.8l-9.1 11.2 9.2 14.6h-6.5z" fill="#231916"></path><path d="M160.8 543.7s-11.4 15.8-9.8 21.2c1.6 5.4 12.5 1.6 23.3-7.1 10.9-8.7 55.4-42.5 55.4-42.5s9.2-8.2 2.7-25c-6.5-16.9-16.3-14.7-23.3-6.5l-48.3 59.9z m-21.3 9.2c4.9 2.7 11.9-5.5 11.9-5.5l54.3-78c13-15.3-15.2-36-27.1-39.2-11.9-3.3-15.7 12-15.7 12s-24.4 80.7-25.5 90.5c-1.1 9.8-2.8 17.5 2.1 20.2z m-28.2-19.3c2.2 10.9 5.4 12.5 10.3 12.5s7.6-8.7 7.6-8.7l22.3-104.1c2.2-15.3-25.5-16.4-45.6-14.7-20.1 1.6-13.6 26.7-13.6 26.7s16.8 77.4 19 88.3zM93 547.4s7.1 8.2 11.9 5.5c4.9-2.7 3.3-10.4 2.2-20.2-1.1-9.8-25.5-90.5-25.5-90.5s-3.8-15.2-15.8-12c-11.9 3.3-40.2 24-27.1 39.2l54.3 78z m-79.9-32s44.5 33.7 55.4 42.5c10.9 8.7 21.7 12.5 23.3 7.1 1.6-5.4-9.8-21.2-9.8-21.2l-48.2-60c-7.1-8.2-16.8-10.3-23.3 6.5-6.6 16.9 2.6 25.1 2.6 25.1z m225.8 8.8c-5.4 1.1 6-9.8-34.3 22.3-40.3 32-59.4 33.7-59.4 33.7-4.9-16.3-20.2-21.2-30-19-9.8 2.2-19.6 17.9-19.6 17.9-19.1-1.1-55-29.9-65.9-37.5C18.8 534 4 518.2 0.8 528.5s4.9 22.8 4.9 22.8 68.7 59.7 117.2 54.8c48.5-4.9 73.6-21.7 99.7-40.7 26.1-18.9 16.3-41.2 16.3-41.2z" fill="#F5AB00"></path></svg>