<svg viewBox="0 0 1024 1024" version="1.1" xmlns="http://www.w3.org/2000/svg"><path d="M224 0h576c123.6 0 224 100.4 224 224v576c0 123.6-100.4 224-224 224H224c-123.6 0-224-100.4-224-224V224C0 100.4 100.4 0 224 0z" fill="#FFFFFF"></path><path d="M512 172c17.6 0 35.2 1.2 52.4 4-0.4 1.2 39.6 1.6-4.8 50-50 56.4-42.4 153.2-2.4 220.8 80.4 130.4 80.8 178.8 80.8 178.8 2.8 8.4 2.8 22.4 17.2 11.2 15.6-16.8 120-203.6-80-296.8-39.6-48.4 21.2-128.8 47.2-140 14-5.2 39.6 6.8 43.6 8.4 110.4 56 186.4 170.8 186.4 303.2 0 187.6-152.4 340-340 340-23.6 0-46.4-2.4-68.4-6.8-3.6-2.4-7.6-5.2-10-9.2-7.2-8.4 14.4-19.6 30-43.6 63.2-83.2 42.8-183.2-15.6-275.6C390.4 424 396.8 401.6 396 397.6c-0.8-12.4-0.8-30.4-15.2-13.2-9.2 10-57.2 65.2-53.2 135.6 2.8 50 30.4 128.4 120.8 163.2 44 22.4-33.2 132.8-47.2 140-15.2 5.6-44-8.8-44-8.8C247.2 758.4 172 644 172 512c0-187.6 152.4-340 340-340" fill="#106FB8"></path></svg>