<svg viewBox="0 0 1024 1024" version="1.1" xmlns="http://www.w3.org/2000/svg"><path d="M224 0h576c123.6 0 224 100.4 224 224v576c0 123.6-100.4 224-224 224H224c-123.6 0-224-100.4-224-224V224C0 100.4 100.4 0 224 0z" fill="#FFFFFF"></path><path d="M628.4 600.4s-32.8 44.8-28 60.4c4.8 15.6 35.6 4.8 66.8-20 31.2-24.8 158.4-121.2 158.4-121.2s26.4-23.2 7.6-71.2c-18.8-48-46.4-42-66.8-18.8l-138 170.8z m-58.8 26c14 7.6 34-15.6 34-15.6l154.8-222c37.2-43.6-43.2-102.4-77.6-111.6-34-9.2-44.8 34-44.8 34s-69.6 229.6-72.8 257.6c-2.8 28-7.6 50 6.4 57.6z m-80.4-54c6 30.8 15.6 35.6 29.6 35.6 14 0 21.6-24.8 21.6-24.8l63.6-296c6-43.2-72.8-46.4-130-42-57.2 4.8-38.8 76-38.8 76s47.6 220.4 54 251.2z m-52.8 38.4s20 23.2 34 15.6 9.2-29.6 6-57.2c-3.2-28-72.8-257.6-72.8-257.6S393.2 268 359.2 277.2c-34 9.2-114.4 68.4-77.6 111.6l154.8 222z m-226-91.2s127.2 96 158.4 121.2c31.2 24.8 62 35.6 66.8 20 4.8-15.6-28-60.4-28-60.4l-138-170.8c-20-23.2-48-29.6-66.8 18.8-18.8 48 7.6 71.2 7.6 71.2z m640.4 27.2c-15.6 3.2 17.2-27.6-97.6 63.2-114.4 90.8-168.8 95.6-168.8 95.6-14-46.4-57.2-60-85.2-54s-55.6 50.8-55.6 50.8c-54-3.2-156.4-84.8-187.2-106.4-30.8-21.6-72.8-66.4-82-36.8s14 64.8 14 64.8 195.2 169.6 332.8 155.6c138-14 209.2-61.6 283.2-115.6 74.4-54.4 46.4-117.2 46.4-117.2z" fill="#F5AB00"></path></svg>