<svg viewBox="0 0 1024 1024" version="1.1" xmlns="http://www.w3.org/2000/svg"><path d="M83.2 429c46.3 0 83.8 37.4 83.8 83.4 0 6.2-0.8 12.1-1.9 17.7-26.4-0.8-91.5-4.2-86.3-10.8 4.2-5.4 22-4.6 36.3-14.4 4.4-2.9-7-9.4-22.8-11.6-24.9-3.1-78-11.6-34.5-17.5 57.9-8.1-3.7-17.9-36.9-19.1C36.1 439.8 58.3 429 83.2 429" fill="#0A6BAF"></path><path d="M155.2 555c-14.6 24.4-41.2 41-71.7 41C37.3 596 0 558.7 0 512.7c0-20.4 7.3-39.3 19.6-53.7 47.9 5 47.5 8.3 19 13.5-38 7.5-16.5 14.2 8.1 19.8 12.5 2.7 25.4 4.4 33.1 10 7.1 5-34.4 6.2-39 17.3-3.7 8.3 43.5 26.2 114.4 35.4" fill="#17A252"></path><path d="M536.5 564.2c0.3-0.4 0.5-0.6 0.8-0.8 2.5-2.4 5.5-3.8 9.5-3.8 2.5 0 4.4 0.4 6.1 0.9v5.3c-1.7-0.9-3.6-1.5-5.7-1.5-2.3 0-4.2 0.8-5.5 2.3-1.5 1.5-2.3 3.4-2.3 5.8 0 2.5 0.8 4.3 2.1 5.7 1.3 1.5 3.2 2.3 5.5 2.3 2.1 0 4.2-0.6 5.9-1.7v5.1c-1.7 0.9-4.2 1.3-7 1.3-3.8 0-7.2-1.3-9.3-3.6v0.3c-2-2.3-3.3-5.2-3.3-8.8 0-3.4 1.2-6.5 3.2-8.8z m-314.4 20.9v-20.7H215v-4.8h19.6v4.8h-7v20.7h-5.5z m17.7 0h-5.2l9.8-25.4h6l9 25.4h-5.7l-1.9-6.3H242l-2.2 6.3z m3.9-9.8h7.2c-2.1-5.9-3.3-9.2-3.5-9.8l-3.7 9.8z m234.1 9.8h-5.2l9.8-25.4h6l9 25.4h-5.7l-1.9-6.3H480l-2.2 6.3z m3.3-9.8h7.2c-2.1-5.9-3.3-9.2-3.5-9.8l-3.7 9.8z m206.8 9.8h-5.2l9.8-25.4h6l9 25.4h-5.7l-1.9-6.3H690l-2.1 6.3z m3.9-9.8h7.2c-2.1-5.9-3.3-9.2-3.5-9.8l-3.7 9.8z m138.9 9.8h-5.2l9.8-25.4h6l9 25.4h-5.7l-1.9-6.3H833l-2.3 6.3z m3.9-9.8h7.2c-2.1-5.9-3.3-9.2-3.5-9.8l-3.7 9.8z m-562.9 9.8H262v-4.4h2.1v-16H262v-4.4h9.8v4.4h-2.3v16.2h2.3v4.2z m442.9 0v-20.7h-7.1v-4.8H727v4.8h-7v20.7h-5.4z m24.8 0h-9.8v-4.4h2.1v-16h-2.1v-4.4h9.8v4.4h-2.3v16.2h2.3v4.2z m-444.6-4.6v4.6h-19.2v-3l12.4-18h-11.6v-4.4h18.7v2.8l-13.1 18h12.8z m11.1 4.6h-6.1v-25.4h6.1v10.5h9.9v-10.5h6.1v25.4h-6.1v-10.8h-9.9v10.8z m117.2-25.4h4.8V574c0 1.2 0.1 2.1 0.2 2.9 0.1 0.8 0.2 1.4 0.4 1.7 0.2 0.4 0.5 0.8 0.8 1.1 0.3 0.3 0.6 0.6 0.9 0.7 0.5 0.2 0.9 0.4 1.5 0.5 0.5 0.1 1 0.2 1.5 0.2 0.9 0 1.8-0.2 2.7-0.6 0.6-0.3 1.2-0.9 1.6-1.9 0.4-0.8 0.6-2.7 0.6-5.7v-13.1h4.5v15.9c0 2.9-0.4 4.9-1.1 6.2-0.3 0.5-0.7 1-1.3 1.5-0.6 0.5-1.2 0.9-1.9 1.3-0.6 0.3-1.4 0.6-2.3 0.8-0.9 0.2-1.8 0.3-2.9 0.3-1 0-1.9-0.1-2.7-0.2s-1.7-0.3-2.4-0.6c-1.8-0.7-2.9-2-3.6-3.1-0.8-1.3-1.3-2.8-1.3-5.5v-16.7z m-65.3 0h4.8V574c0 1.2 0.1 2.1 0.2 2.9 0.1 0.8 0.2 1.4 0.4 1.7 0.2 0.4 0.5 0.8 0.8 1.1 0.3 0.3 0.6 0.6 0.9 0.7 0.5 0.2 0.9 0.4 1.5 0.5 0.5 0.1 1 0.2 1.5 0.2 0.9 0 1.8-0.2 2.7-0.6 0.6-0.3 1.2-0.9 1.6-1.9 0.4-0.8 0.6-2.7 0.6-5.7v-13.1h4.5v15.9c0 2.9-0.4 4.9-1.1 6.2-0.3 0.5-0.7 1-1.3 1.5-0.6 0.5-1.2 0.9-1.9 1.3-0.6 0.3-1.4 0.6-2.3 0.8-0.9 0.2-1.8 0.3-2.9 0.3-1 0-1.9-0.1-2.7-0.2s-1.7-0.3-2.4-0.6c-1.8-0.7-2.9-2-3.6-3.1-0.8-1.3-1.3-2.8-1.3-5.5v-16.7z m145.5 25.4v-25.4h4.7v21.1h9v4.4h-13.7z m94.9 0.7c-3.7 0-6.6-1.2-8.7-3.5-2.2-2.4-3.3-5.7-3.3-9.9 0-2.1 0.3-3.9 0.9-5.6 0.6-1.7 1.4-3.1 2.5-4.3 0.5-0.5 1.1-1 1.7-1.5s1.3-0.8 2.1-1.1c0.7-0.3 1.5-0.5 2.3-0.7 0.8-0.2 1.7-0.2 2.6-0.2 1.8 0 3.4 0.3 4.9 0.9 1.5 0.6 2.7 1.5 3.8 2.6 1.1 1.2 1.9 2.7 2.5 4.3 0.6 1.7 0.9 3.5 0.9 5.5 0 2.1-0.3 3.9-0.9 5.6-0.6 1.7-1.4 3.1-2.5 4.3-1.1 1.1-2.3 2-3.8 2.6s-3.2 1-5 1z m0-5.3c2 0 3.6-0.7 4.9-2.2 1.3-1.4 1.9-3.4 1.9-5.9 0-2.5-0.6-4.5-1.9-5.9-1.3-1.5-3-2.2-4.9-2.2-2 0-3.6 0.7-4.9 2.2-1.3 1.4-1.9 3.4-1.9 5.9 0 2.5 0.6 4.5 1.9 5.9 1.3 1.5 2.9 2.2 4.9 2.2z m-28.7 5.3c-3.7 0-6.6-1.2-8.7-3.5-2.2-2.4-3.3-5.7-3.3-9.9 0-2.1 0.3-3.9 0.9-5.6 0.6-1.7 1.4-3.1 2.5-4.3 0.5-0.5 1.1-1 1.7-1.5 0.6-0.4 1.3-0.8 2.1-1.1 0.7-0.3 1.5-0.5 2.3-0.7 0.8-0.2 1.7-0.2 2.6-0.2 1.8 0 3.4 0.3 4.9 0.9 1.5 0.6 2.7 1.5 3.8 2.6 1.1 1.2 1.9 2.7 2.5 4.3 0.6 1.7 0.9 3.5 0.9 5.5 0 2.1-0.3 3.9-0.9 5.6-0.6 1.7-1.4 3.1-2.5 4.3-1.1 1.1-2.3 2-3.8 2.6s-3.2 1-5 1z m0-5.3c2 0 3.6-0.7 4.9-2.2 1.3-1.4 1.9-3.4 1.9-5.9 0-2.5-0.6-4.5-1.9-5.9-1.3-1.5-3-2.2-4.9-2.2-2 0-3.6 0.7-4.9 2.2-1.3 1.4-1.9 3.4-1.9 5.9 0 2.5 0.6 4.5 1.9 5.9 1.3 1.5 2.9 2.2 4.9 2.2z m-229.6 5.3c-3.7 0-6.6-1.2-8.7-3.5-2.2-2.4-3.3-5.7-3.3-9.9 0-2.1 0.3-3.9 0.9-5.6 0.6-1.7 1.4-3.1 2.5-4.3 0.5-0.5 1.1-1 1.7-1.5s1.3-0.8 2.1-1.1 1.5-0.5 2.3-0.7c0.8-0.2 1.7-0.2 2.6-0.2 1.8 0 3.4 0.3 4.9 0.9s2.7 1.5 3.8 2.6c1.1 1.2 1.9 2.7 2.5 4.3 0.6 1.7 0.9 3.5 0.9 5.5 0 2.1-0.3 3.9-0.9 5.6-0.6 1.7-1.4 3.1-2.5 4.3-1.1 1.1-2.3 2-3.8 2.6-1.6 0.6-3.2 1-5 1z m0-5.3c2 0 3.6-0.7 4.9-2.2 1.3-1.4 1.9-3.4 1.9-5.9 0-2.5-0.6-4.5-1.9-5.9-1.3-1.5-3-2.2-4.9-2.2-2 0-3.6 0.7-4.9 2.2-1.3 1.4-1.9 3.4-1.9 5.9 0 2.5 0.6 4.5 1.9 5.9 1.3 1.5 2.9 2.2 4.9 2.2z m281.1 4.6h-4.8v-25.4h7.8c1.4 0 2.6 0.1 3.7 0.2s1.8 0.3 2.4 0.6c0.7 0.3 1.2 0.7 1.7 1.1 0.5 0.4 0.9 0.9 1.1 1.3 0.3 0.6 0.5 1.2 0.7 1.8s0.2 1.3 0.2 1.9c0 1.1-0.2 2.2-0.7 3.2-0.5 1-1.1 2-2 2.8-0.8 0.8-1.9 1.4-3.2 1.8s-2.8 0.6-4.6 0.6H621v10.1z m-0.3-13.7h1.4c2.5 0 4.3-0.4 5.2-1.2 0.8-0.7 1.2-1.6 1.2-2.8 0-1-0.3-1.8-0.9-2.3-0.7-0.6-2-0.9-3.8-0.9h-3v7.2z m19.6 13.7v-25.4h13.5v4.4H645v6.3h8.1v4.1H645v6.3h9.6v4.4h-14.3z m25.2 0h-5.1v-25.4h9c1.1 0 2.1 0.1 2.9 0.2 0.8 0.1 1.5 0.4 2 0.6 0.6 0.3 1.1 0.7 1.6 1.1 0.5 0.4 0.8 0.9 1.1 1.3 0.3 0.6 0.6 1.2 0.7 1.8 0.2 0.6 0.3 1.1 0.3 1.7 0 0.9-0.2 1.8-0.7 2.8s-1.1 1.8-1.8 2.6c-0.3 0.3-0.7 0.6-1.3 0.9-0.6 0.3-1.2 0.6-2 0.9l0.3 0.2c0.2 0.1 0.4 0.2 0.5 0.3 0.2 0.1 0.3 0.2 0.4 0.3 0.5 0.4 0.9 0.9 1.2 1.3l0.6 0.9c0.2 0.3 0.3 0.6 0.5 0.8l4.3 7.6h-5.4l-3.7-6.7c-0.5-0.9-1-1.6-1.5-2.3s-1.1-1.3-1.7-1.8h-2.1v10.9z m0.2-14.3h2.5c1.1 0 2-0.2 2.7-0.5 0.5-0.2 0.9-0.7 1.4-1.4 0.4-0.5 0.6-1.2 0.6-2 0-0.7-0.1-1.2-0.4-1.7s-0.7-0.8-1.2-1.1c-0.6-0.3-1.5-0.5-2.8-0.5h-2.7v7.2z m-262.4 14.3h-5.1v-25.4h9c1.1 0 2.1 0.1 2.9 0.2 0.8 0.1 1.5 0.4 2 0.6 0.6 0.3 1.1 0.7 1.6 1.1 0.5 0.4 0.8 0.9 1.1 1.3 0.3 0.6 0.6 1.2 0.7 1.8 0.2 0.6 0.3 1.1 0.3 1.7 0 0.9-0.2 1.8-0.7 2.8s-1.1 1.8-1.8 2.6c-0.3 0.3-0.7 0.6-1.3 0.9-0.6 0.3-1.2 0.6-2 0.9l0.3 0.2c0.2 0.1 0.4 0.2 0.5 0.3 0.2 0.1 0.3 0.2 0.4 0.3 0.5 0.4 0.9 0.9 1.2 1.3l0.6 0.9c0.2 0.3 0.3 0.6 0.5 0.8l4.3 7.6h-5.4l-3.7-6.7c-0.5-0.9-1-1.6-1.5-2.3-0.5-0.7-1.1-1.3-1.7-1.8h-2.1v10.9z m0.2-14.3h2.5c1.1 0 2-0.2 2.7-0.5 0.5-0.2 0.9-0.7 1.4-1.4 0.4-0.5 0.6-1.2 0.6-2 0-0.7-0.1-1.2-0.4-1.7s-0.7-0.8-1.2-1.1c-0.6-0.3-1.5-0.5-2.8-0.5h-2.7v7.2z m52.7 14.3h-5.1v-25.4h9c1.1 0 2.1 0.1 2.9 0.2s1.5 0.4 2 0.6c0.6 0.3 1.1 0.7 1.6 1.1 0.5 0.4 0.8 0.9 1.1 1.3 0.3 0.6 0.6 1.2 0.7 1.8 0.2 0.6 0.3 1.1 0.3 1.7 0 0.9-0.2 1.8-0.7 2.8s-1.1 1.8-1.8 2.6c-0.3 0.3-0.7 0.6-1.3 0.9-0.6 0.3-1.2 0.6-2 0.9l0.3 0.2c0.2 0.1 0.4 0.2 0.5 0.3 0.2 0.1 0.3 0.2 0.4 0.3 0.5 0.4 0.9 0.9 1.2 1.3l0.6 0.9c0.2 0.3 0.3 0.6 0.5 0.8l4.3 7.6h-5.4l-3.7-6.7c-0.5-0.9-1-1.6-1.5-2.3s-1.1-1.3-1.7-1.8h-2.1v10.9z m0.1-14.3h2.5c1.1 0 2-0.2 2.7-0.5 0.5-0.2 0.9-0.7 1.4-1.4 0.4-0.5 0.6-1.2 0.6-2 0-0.7-0.1-1.2-0.4-1.7s-0.7-0.8-1.2-1.1c-0.6-0.3-1.5-0.5-2.8-0.5h-2.7v7.2z m305.8-11.1h4.7l-10.7 25.4h-4.8l-10-25.4h5.2L754 579l8.1-19.3z m8.6 25.4v-25.4h14.1v4.4h-9.4v6.3h8.1v4.1h-8.1v6.3h9.6v4.4h-14.3z m50-16.4c-0.6 1-1.9 2-3.8 3 2.1 0.6 3.6 1.3 4.4 2.4 1 1.3 1.5 2.6 1.5 4 0 0.6-0.1 1.1-0.3 1.7-0.2 0.6-0.4 1.2-0.8 1.8-0.3 0.5-0.7 0.9-1.2 1.3s-1.1 0.9-1.8 1.2c-0.6 0.3-1.4 0.6-2.5 0.7s-2.4 0.2-3.9 0.2H804v-25.4h7.6c3.2 0 5.4 0.2 6.6 0.7 0.7 0.3 1.2 0.6 1.7 0.9 0.5 0.3 0.8 0.7 1.1 1.1 0.6 1 0.9 1.9 0.9 2.9-0.1 1.1-0.4 2.2-1.2 3.5z m-11.5 2.1h2c1.1 0 2-0.2 2.7-0.5 0.2-0.1 0.4-0.3 0.7-0.6 0.2-0.3 0.5-0.6 0.7-0.9 0.1-0.1 0.1-0.3 0.2-0.4 0.1-0.2 0.1-0.3 0.2-0.5s0.1-0.3 0.1-0.5v-0.5c0-0.8-0.2-1.4-0.7-1.8-0.6-0.5-1.6-0.8-2.9-0.8h-2.9v6.5z m0 9.7h3.4c1.6 0 2.8-0.3 3.5-0.9 0.3-0.2 0.5-0.5 0.7-0.9 0.1-0.3 0.2-0.7 0.2-1.2 0-0.7-0.2-1.3-0.6-1.8-0.4-0.5-1-1-1.8-1.2-0.4-0.2-1-0.3-1.7-0.4-0.7-0.1-1.4-0.1-2.3-0.1h-1.5v6.5z m46.3 4.6v-25.4h5.3l11 17.2v-17.2h5.2v25.4h-5.9l-10.4-16.7v16.7h-5.2z m35.4 0h-5.4v-25.4h5.4v10.5l8.3-10.5h5.6l-9 11.9 9.2 13.5h-6l-8.2-11.7v11.7zM242.2 505v0.2c-1.1 0.9-2.2 0.9-3.5 0.2l-3.7-1.9c1.1-0.6 2.2-1.1 3.7-1.7 1.5-1.1 1.5-1.5 0-1.3-0.6 0.7-1.1 0.9-2 0.9-2.6 1.5-5.2 3.4-7.8 5.4-0.9 0.7-0.9 1.5-0.2 1.9 0.7 0.4 1.5 0.4 2.4 0.2 2.8 1.7 5.8 3.4 8.8 5.2 0.8-0.2 1.7-0.4 2.4-0.7V524c-0.2 0.4-0.6 0.6-0.7 0.9-0.4 1.3-1.1 2.4-2.4 3-0.4-0.7-0.9-0.6-1.7 0.6-0.9-0.9-1.7-1.5-2.4-2.1-1.1-2.1-2.8-3.9-4.9-5.6-0.2-1.1-0.9-1.9-2.1-2.1-1.3-0.4-2.2-0.9-2.8-2.1 0.4-0.7 0.2-1.5-0.7-2.1-0.7-0.6-1.1-1.3-1.1-2.2 1.1-1.3 1.9-2.4 1.7-3.6 0.2-1.1 0.9-1.9 2.1-2.2 4.9-4.1 9.9-7.9 15.1-11.6V505z m-1.7-51.6l0.6 0.2c0.4 0.4 0.7 0.7 1.1 0.9v16.6c-1.7 1.3-3.4 2.4-5.2 3.6 0 0.6-0.7 1.3-2.2 2.2-0.9 0.9-1.7 1.7-2.8 2.2-0.4 0-0.9 0.4-1.3 1.1-1.7 0.7-2.4 1.7-2.1 2.4 4.5-2.1 9-4.1 13.6-5.8v9c-4.1 2.1-8.4 4.3-12.5 6.7-1.5 0.4-3.2 0.6-5 0.7-1.9 1.1-3.5 2.1-5.4 3-1.5 0.4-2 0-2.2-1.1 0-1.1-0.4-1.9-0.7-2.6 0.2-1.5 0-2.6-0.2-3.7-0.2-1.3-0.2-2.4-0.4-3.4 0.6-0.7 1.3-0.9 2.2-0.6 2.4-1.5 3.9-3.7 4.9-6.5 4.1-5.4 8.6-10.8 13.1-16.3-2.2-1.1-4.7-2.1-7.3-3 1.5-1.3 3.2-2.2 5-3.2 2.1-0.9 4.4-1.7 6.8-2.4z m1.7 17.7v-16.6c1.5 0.9 2.8 1.7 4.5 2.2 0.2 0.2 0.4 0.2 0.6 0.4v9.7c-0.6 0.6-1.1 0.9-1.9 1.3-1 1.2-2.1 2.1-3.2 3z m0 52.9v-10.6c1.7-0.6 3.4-1.3 5-2.2v11.4c-2-0.1-3.7 0.5-5 1.4z m5-32.5v12.9c-1.7 0.2-3.4 0.4-5 0.6v-9.9c1.7-1.3 3.3-2.5 5-3.6z m-5-5.6v-9c1.7-0.6 3.4-1.1 5-1.7v8.4c-1.7 0.8-3.3 1.6-5 2.3z m97.1-18.5c-0.9 1.9-1.5 3.9-1.5 6.2-0.2 4.5 0.2 8.6 1.3 12.7 0.2 0.2 0.2 0.4 0.2 0.6v6.1c-0.4 0.9-0.9 1.7-1.9 2.2-2.8 2.1-6 2.1-9.5 0.4-4.9-2.4-7.7-0.6-8.6 5-0.6 3.5-2.1 5-4.5 4.7-2.2-0.4-3.4-2.2-3-5.6 1.5-5.6 3.5-11.4 6.4-17.8 2.8-6.4 3.5-12.7 2.4-19.4-3.7 2.2-6.2 5.8-7.1 10.8-0.9 5-1.3 9.7-1.3 13.8-1.5 3.7-3.7 4.9-6.5 3.2-2.8-1.7-4.7-4.3-5.6-7.7-1.3-3.2-0.7-5 1.1-5 1.9-0.2 3.9 0.7 5.8 3 1.9-3 3.7-6.5 5.2-10.8 1.7-4.1 4.3-7.3 8-9.3 3.6-1.5 5.8-0.4 6.4 3.5 0.7 3.7 0.7 7.3-0.2 10.5 0.2 3-0.4 6-1.7 9.2-1.1 3.2 0.2 4.9 3.9 4.7 3.5-3.2 5.6-7.5 6.4-12.9 0.6-4.3 2.1-7.8 4.3-11v2.9z m-92.1-0.6v-9.7c1.7 0.7 2.8 2.2 2.8 4.3 0.6 0.7 0.6 1.5 0.4 2.4-0.2 0.7-0.6 0.9-1.1 0-0.6 1.2-1.3 2.1-2.1 3z m0 16.9v-8.4h0.4c1.9-0.4 3.2-1.5 4.3-3.4 0-0.9 0.6-1.3 1.1-0.9 0.7 0.4 1.5 0.4 2.4 0.2 1.1 0.2 1.3 0.7 0.6 1.5-0.6 0.9-0.6 1.7 0.4 2.4 1.1 1.1 2.2 1.9 3.4 2.2 0-2.2-0.9-4.1-2.2-5.4-1.7-1.3-2.8-2.6-3.5-3.9 2.8-0.4 5.2-0.4 7.5 0.2 2.1 1.3 4.5 2.2 6.9 2.8 2.8 1.9 3.5 3.9 2.2 6.4-0.2 1.5-0.2 3 0 4.7-0.2 2.8-1.1 5.4-3.2 7.7-1.9 0.9-3.7 1.1-5.6 0.6-2.4 0.2-4.9 0.7-7.1 1.7-1.9 1.1-3.2 2.2-3.9 3.6 2.1-0.4 4.3-0.7 6.4-1.3 2.2-1.5 4.3-0.9 6.4 1.3 1.9 0.7 3.4 1.9 4.7 3.7 1.3 1.9 1.3 3.7 0.2 5.6-0.4 1.7-1.1 3-2.2 3.9-1.7 1.7-3.5 2.8-5.8 3.4-0.2 1.1 0.2 2.1 1.1 2.8 1.1 0.6 1.9 1.3 2.4 2.2 0.9 0.4 1.1 0.9 0.4 1.5-0.6 0.6-0.6 1.1 0.2 1.7 1.1 0 1.1 0.2 0 0.4-1.1 0-1.7 0.4-1.7 1.1-1.3 0.2-2.8 0.4-4.1 0.4-3.9-0.4-7.7-0.2-11.4 0.4v-11.7c3.9-0.9 6.7-3.4 8.6-7.1 1.1-1.5 0.7-1.9-1.1-1.5-1.9-0.4-3.5 0.2-5.2 1.5-0.7 0.2-1.5 0.2-2.2 0.4v-12.9c0.9-0.6 1.9-1.3 2.8-1.9 1.3 0.4 2.2-0.2 3-1.9 2.8-1.1 5-3.2 6.4-5.8 0.4-0.6 0.4-1.1-0.2-1.7-0.4-0.6-0.7-0.4-0.7 0.6-3.2 0.4-6.2 0.9-9 1.9-1.2 0.4-1.9 0.6-2.7 1z m92.1-16.3v-3c0.7-0.9 1.5-1.7 2.2-2.6 6.2-1.5 9.7 0.4 10.6 5.4 0.7 5.2 0.6 10.3-0.4 15.1 2.8 0.7 6 0.7 9.5 0.4 3.5-0.4 6.7 0.6 9.2 2.8 0.7-6.2 1.1-12.7 1.1-20 0.2-7.3-0.2-14.2-1.1-20.4-0.6-1.7-1.5-2.4-2.6-2.6-0.9 0-0.6-0.7 1.3-1.9 3.7 0.2 6.2 2.2 7.5 6 1.3 14.8 2.4 30.1 3 45.8 0.7 15.9-0.7 31-4.3 45.6-0.9 0-2.4-0.4-4.5-0.9-1.1-6.9-1.5-14.2-0.7-22.1 0.7-7.7 0.9-15.5 0.7-23.2l-13.1-3.6c-3.9-2.1-6-1.5-5.8 1.9 0 3.2 0 6.2-0.4 8.8-0.8 1.9-1.9 3-3.4 3-1.5 0.2-2.8 0.4-3.6 0.4-2.4-5.8-3.2-12.1-2-19.1 0.9-6.9 1.1-13.5 0.4-19.8-1.4 1.2-2.7 2.5-3.6 4z m0 19.4c0.9 2.6 0.9 4.5 0 6.2v-6.2z m66.6-13.6v12.9h-0.6c-2-1.7-2.4-3.9-1.5-6.9-0.4-0.9-0.4-2.1-0.6-3.4-0.4-1.7 0.4-2.4 2.4-2.2l0.3-0.4z m30.9 3.6l-0.6 1.3h0.6v6.4c-1.1 0.2-2.1 0-3.2-0.2-1.3 1.7-2.4 3.6-3.2 5.4 2.6 1.3 3.5 3.5 3.2 6.7 0.4 0.6 0.4 1.3 0.2 2.2-0.2 0.9 0.2 1.3 0.9 1.1 0.7-0.4 1.3-0.7 2.1-1.1v2.2h-0.2c-1.3 0.4-2.2 1.1-2.8 2.2 0.9 0.6 1.9 0.9 3 1.1v3H434c-0.4 0-0.6 0.4-0.4 0.9 0 2.2-0.2 4.5-0.9 6.7 0 2.1 0 4.3 0.4 6.4 1.3-1.3 2.6-3 3.7-4.5v16.8c-0.9 0.9-1.9 1.9-3.2 2.6-3.9 0.9-6.5-0.6-7.8-5-2.1-1.1-3.2-3-3.5-5.4-0.2-2.4 0-5 0.2-7.8 0-1.9 0.2-3.4 0.9-4.5-0.4-0.6-0.4-1.3-0.2-1.7 0-1.7 0.2-3.7 0.6-6.2 0.2-1.3 0-2.4-0.6-3.2-1.7 3-3.5 5.2-5.6 6.7-1.3 2.2-2.8 3.2-4.7 2.6 0-0.9-0.4-1.1-1.3-0.4-2.1 0.7-3.4 0-3.7-2.2 0.4-0.9 0.6-2.1 0.6-3 0-0.7 0.4-1.1 1.3-1.3 0-1.5 0.6-2.8 1.7-4.1 1.1-1.5 1.1-3.2 0.2-5.2 0.2-0.2 0.7 0.4 1.5 1.9 0.7 1.5 1.7 1.7 2.4 0.4 3.9-6.7 8-13.5 11.8-20.4 1.3-2.2 2.2-4.5 2.6-6.7-2.2 0.6-4.1 1.7-5.8 3-3.4 2.1-6.5 4.3-9.5 6.7-0.2 1.9-1.3 2.8-3 2.8-1.5 1.7-3.4 2.6-5.6 3v-12.8c1.7-2.4 3.4-5.2 4.9-8 0.9-1.5 1.7-2.8 2.4-3.7 1.1 3.2 2.1 6.2 2.6 9.5 2.2-1.1 4.5-1.9 6.4-2.4 2.8-1.3 5.6-2.6 8.2-3.9 1.9-0.6 3-1.7 3.4-3.4 0.4-1.9 0.7-3.7 0.9-5.4 0.2-3-0.7-5-3-6.4-2.1-1.3-4.1-2.8-5.8-4.7 1.9-0.8 3.5-1.5 5.4-2.2 2.1 0.2 3.9 0.7 5.4 1.7v32.5z m6.5 34.7c-0.4 0.9-0.4 1.9-0.4 3-0.6 3.9-1.7 8-3.2 12-0.7 1.5-1.1 2.8-1.3 3.9-0.4 1.1-0.9 2.2-1.7 3.2v-16.9c0.4-0.7 0.7-1.5 1.3-2.2 1.7-2.1 2.6-4.5 2.6-6.7-1.3-0.4-2.6-0.6-3.9-0.6v-3c1.3 0.2 2.8 0.2 4.3-0.2 0.9 0 1.7-0.4 2.2-0.7v8.2z m0-14.4c-0.4 0-0.6 0-0.9 0.2-0.7 0.6-1.7 1.1-2.6 1.3-0.7 1.1-1.7 1.9-3 2.2v-2.2c2.1-1.3 4.3-2.6 6.5-4.1v2.6z m0-24.5v8.6c-1.1 0.6-2.1 1.1-3 1.9-1.1 0.7-2.4 1.1-3.5 1.3V478c1.3-0.2 2.4-0.9 3.5-2.2 0.9-1.1 2.1-2 3-3.2z m0-6.5c-1.1 0.6-2.2 0.9-3.2 1.5l-3.4 9.2v-32.6c1.9 1.3 3.4 3.2 4.3 5.8 0.7 1.9 0.7 3.9 0 6.2v3.7c0.7 0 1.5-0.2 2.2-0.4v6.6z m16.2 13.3v3.9c-0.7 0.6-1.1 1.1-0.9 1.9 0.2-0.2 0.6-0.4 0.9-0.7v9.7c-2.8 1.7-5.8 3.2-9 4.3-2.1 0-3.4 1.1-3.9 3.2-1.3 1.7-0.9 2.4 1.3 2.4 3.9-0.7 7.8-0.6 11.6 0.2v10.1c-4.7-2.4-9.5-4.3-14.8-5.6-0.7 0.7-1.3 1.9-1.5 2.8v-8.2c0.9-0.6 1.7-1.7 1.9-3.2 0.6-2.2-0.2-3.2-1.9-3v-2.6c0.6-0.4 1.1-0.7 1.7-1.1 3.5-0.7 6-3 7.7-6.4 1.3-3.6 3.6-6.2 6.9-7.7z m0-9.2c-1.9 1.9-3.9 3.7-6 5.6-1.9 1.7-3.7 2.8-5.8 3.4-1.7 0.6-3.2 1.3-4.5 2.1v-8.6c1.7-1.9 3.5-3.9 5-5.8 0.7-0.4 1.3-0.9 1.7-1.9 0.6-0.9 0.2-1.3-0.9-0.7h-0.4c-1.9 0.6-3.7 1.1-5.4 1.9v-6.5c3.4-0.7 6.5-1.9 9.5-3.7 1.7-0.2 3.2-0.7 4.5-1.1 0.6 0.9 1.3 1.7 2.2 2.4v12.9z m0-13.1c0.7 0.4 1.5 0.7 2.4 1.1 2.1 0.6 3.5 2.1 4.1 4.1 0.4 2.4-0.9 4.1-3.5 4.9-0.9 1.1-1.9 2.1-3 3v-13.1z m0 27.3l0.6-0.6c0.7-0.9 0.7-1.1 0-0.7-0.2 0-0.4 0.2-0.6 0.2v-3.9c0.9-0.4 1.9-0.7 3-0.9 0.4-1.5 1.3-2.4 2.6-2.8 3.2 0.6 5.8 1.7 8.4 3.2 1.3 0.9 1.5 2.2 0.4 3.7-1.1 2.1-2.8 3.7-4.9 5-3 2.6-6.2 4.7-9.5 6.5v-9.7z m0 19.8c2.6 0.6 5.2 1.3 7.7 2.6 0.6 0.7 1.5 1.3 2.4 1.3 1.1 0 1.9 0.4 1.9 1.3 2.6 2.1 5 4.1 7.5 6.4 0.7 1.3 0.6 2.4-0.6 3.6 0.4 0.9 0 1.5-0.9 1.7-0.7 0-1.3 0.4-1.3 1.1-1.9-0.9-2.4-0.6-1.9 0.7-3-0.4-5.4-1.7-7.1-3.9-1.9-0.9-3.6-2.1-5-3.2-0.7-0.4-1.7-0.9-2.6-1.5v-10.1zM515 528c-1.7 0-3.2-0.2-4.3-0.6-0.6 0-0.9-0.4-1.1-1.1-0.2-0.7-0.6-0.9-1.1-0.6-0.7 0.7-1.1 0.6-1.3-0.7s-0.7-1.5-1.9-0.6c0.2-1.1 0.2-2.2-0.2-3.6-0.4-1.3 0.2-2.2 1.3-3 3-3.7 5.8-7.1 8.6-10.5V528z m0-44.3c0 0.2-0.2 0.2-0.4 0.4l0.4 0.4v6.7c-2.8 1.1-5.2 2.4-7.8 4.1-1.3 0.4-2.4 0.4-3.2 0 0.6-0.2 0.4-0.4-0.4-0.7-0.7-0.4-0.7-0.7-0.4-1.1 0.6-1.5 1.3-3 2.2-4.5-0.7-0.4-0.9-1.1-0.2-2.1 0.6-1.1 1.3-1.5 2.2-1.1 2.6-1.3 5-2.8 7.5-4.5v2.4z m7.1 29.1l-1.5 1.5c-0.8 0.9-0.6 1.3 0 0.9s1.1-0.7 1.5-1.3V524c-1.9 1.3-3.9 2.6-6 3.7-0.4 0-0.8 0-1.1 0.2v-20.5c2.1-2.6 4.1-5 6-7.3 0.6-0.2 0.9-0.4 1.1-0.9v13.6z m0-24.5c-0.2 0.2-0.4 0.4-0.7 0.6-2.2 0.6-4.3 1.3-6.4 2.2v-6.7c0.2 0 0.2 0 0.2-0.4 0.2-0.4 0.2-0.4-0.2-0.4v-2.4c1.1-0.7 2.1-1.5 3.2-2.2 1.9-0.9 2.1-0.7 0.6 0.6-1.5 1.7-2.4 3.2-3.2 4.5 2.4-0.9 4.7-2.1 6.5-3v7.2z m0-35.7c-0.6 0.9-0.9 1.7-1.5 2.4-0.4 1.1-0.4 1.3-0.4 0.2 0.2-1.1 0.4-2.1 0.7-2.6 0-1.5 0.4-2.6 1.1-3.4v3.4z m9.1 9.4l-1.3 4.9c-0.4 3.7-0.7 7.3-0.7 10.7 0.7 0 1.5-0.2 2.1-0.4v8c-0.2 0-0.6 0.2-0.9 0.4-1.7 1.5-2.1 3.4-1.1 6.2 0.7-0.7 1.5-1.5 2.1-2.2v12.2c-0.8 0.9-1.5 1.7-2.2 2.4-0.6 2.6-0.2 3.9 0.9 4.1 0.6-0.4 0.9-0.7 1.3-0.9v9.7l-0.9 1.1c-0.2 1.9 0 3.7 0.7 5.4 0 0.4 0.2 0.6 0.2 0.9v7.3c-0.4 0.7-0.8 0.6-1.3-0.6-0.9-1.3-1.9-1.3-2.6-0.2-1.7-1.7-2.4-3.7-2.4-6.2-0.9-0.2-1.3-0.9-1.3-1.9-0.4 0.4-0.9 0.7-1.5 1.1v-10.1c0.2-0.2 0.4-0.2 0.4-0.4 0.7 0.2 1.3-0.4 1.7-1.1 0.4-0.9 0-1.1-0.7-0.7l-1.3 1.1v-13.6c0.2-0.2 0.2-0.4 0.2-0.6 0.2-0.7 0.4-0.9 0.6-0.6 1.9-2.2 2.6-5 2.4-8.4 0.2-1.5-0.4-2.2-1.3-2.1-0.6 0.2-1.3 0.6-1.9 0.7v-7.3c0.7-0.4 1.5-0.7 2.1-1.1 1.7-1.5 2.2-3.4 1.7-6 0-3.4 0.4-6.5 0.9-9.3 1.5-5 1.3-9.9-0.7-14.2-1.3-0.4-2.4 0-3.2 1.3-0.2 0.4-0.6 0.6-0.7 0.9v-3.4c0.7-0.6 1.7-0.7 2.8-0.9 1.1-0.6 2.2-0.6 3.4 0 1.3 1.7 2.4 3.6 3 5.4v8.4z m0 0v-8.2c0.6 1.5 0.9 3 1.1 4.7l-1.1 3.5z m0 69.7v-7.3c0.6 1.5 0.6 3.2 0.2 4.9 0.4 0.7 0.4 1.5 0 2.2l-0.2 0.2z m3-18.1c-0.9 1.1-2.1 2.2-3 3.4v-9.7c1.1-0.7 2.1-1.5 3-2.2v8.5z m0-29.9s-0.2 0-0.2 0.2l-0.4 0.2c0.2 0 0.4 0.2 0.6 0.2v14c-0.9 1.1-1.9 2.2-3 3.4v-12.2c0.7-0.9 1.5-1.9 2.2-2.8 0.7-0.9 0.6-1.5-0.6-1.5-0.6-0.2-1.1-0.2-1.7 0v-8c1.1-0.4 2.1-1.1 3-1.9v8.4z m0 14.5v-14c0.4 0 0.6-0.2 0.6-0.4 0.2-0.6 0-0.6-0.6-0.2v-8.4c0.2-0.2 0.4-0.4 0.6-0.7 1.1 0.6 2.1 0.4 3.2-0.2 0.9-0.6 1.7-0.6 2.4 0 1.1-0.2 2.1 0 3.2 0.2 1.7 0.9 2.2 2.1 2.2 3.4-2.4 1.9-5 3.4-8 4.5-1.5 0.2-1.9 0.9-0.9 1.9 0.9 0.9 1.9 1.3 3 0.9 1.5 0.6 2.2 1.7 1.9 3.4-0.2 1.5-1.1 2.6-2.2 3.2-1.8 2.1-3.7 4.2-5.4 6.4z m36.6-1.3v10.8h-0.6c-2.4-0.6-4.7-0.6-6.7-0.2 0.4 4.3 1.7 8.2 3.9 11.8 1.1 1.1 2.1 2.2 2.8 3.2l0.6 0.6v16.3c-0.7-0.2-1.5-0.2-2.2-0.2-0.4 0.6-0.9 0.6-1.5 0s-0.7-0.6-0.7-0.2c-0.2 0.6-0.4 0.2-0.9-1.1-0.4 0.6-0.6 0.4-0.4-0.4 0-0.6-0.2-0.9-0.6-0.9-0.4 0.4-0.6 0.4-0.6-0.2 0-0.6-0.2-0.8-0.7-0.8 0.7-0.7 0.7-1.5-0.4-2.4v-2.4c-0.2-1.9-0.6-4.1-1.3-6.4-0.9-4.3-1.9-9-2.8-13.5 0-2.1 0.2-4.1 0.4-6.2 0.6-1.1 1.3-2.1 2.4-2.8-0.4-1.3 0-2.2 1.1-2.4 1.1-0.4 1.9-1.1 2.1-2.2 0.9-0.4 2.1-0.6 3.4-0.2 1 0.2 2 0.2 2.7-0.2z m0-10.6c-2.8 1.9-5.6 3.5-8.4 5h-5c-1.9 0.7-3.4 2.1-4.5 4.1-6.7 5.6-12.9 11.6-18.7 18.2V505c4.7-3.6 9.2-7.3 13.4-11.2 0.9-2.4 2.1-4.5 3.4-6.2 6.2-5.6 12.7-10.5 19.8-14.8v13.5z m0-43.9v6c-0.9 0.2-1.7 0.4-2.6 0.4-1.1 0.7-1.5 0.6-1.3-0.6 0-1.1 0.2-2.1 0.6-2.8l3.3-3z m23.6 25.8c0 0.2-0.2 0.4-0.2 0.6l0.2 0.2v0.6c0 0.2-0.2 0.2-0.2 0.2 0 0.4 0.2 0.6 0.2 0.6v1.7c-0.6 0.6-1.5 1.3-2.8 2.4-0.4 1.3-0.7 1.3-1.3 0.2-1.3 1.1-2.4 1.9-3.5 2.6-0.6 0.2-1.3 0.7-2.4 1.3-0.2 1.9-0.4 4.1-0.4 6.4 0.6 10.7 1.1 21.5 1.7 32.3 0.2 2.4 0.2 4.5 0.4 6.2 0.2 3.2 0.2 6.2 0.2 8.6-0.9 1.7-1.5 3.6-1.5 5.6-0.4 2.2-2.2 3-5.4 2.4-0.4-0.4-1.1-0.7-2.1-0.7-1.5 0.2-3 0.2-4.7 0.4-0.6-0.2-1.1-0.2-1.7-0.2v-16.5c1.9 1.7 4.1 2.1 6.3 1.1 0.9-6.5 1.1-13.1 0.7-19.4 0-1.5-0.2-2.4-0.9-2.8 0.2 1.3 0.2 2.4-0.4 3.6-0.2 1.5-0.9 2.2-2.4 2.4-1.1 0-2.2 0-3.4-0.2v-10.9c0.2-0.2 0.4-0.2 0.6-0.4 1.7-0.2 2.8-0.2 3.5-0.2 1.3 1.5 2.2 3.2 2.2 5.2 0.6-1.9 0.6-3.7 0.4-6l-0.4-8.6c0.4-1.9 0.2-3.5-0.4-4.7-1.3 1.9-3.2 3.2-5.6 3.7l-0.4 0.2v-13.3c1.3-0.7 2.6-1.5 4.1-2.2 2.2-0.7 3-2.4 2.1-5 0.2-2.1 0.4-3.7 0.2-5.6 0.4-4.1 0.2-8-0.2-12-0.9-1.1-2.1-1.1-3.5 0-0.8 0.2-1.7 0.4-2.6 0.4v-6l4.1-3.4c1.1 0.9 2.1 0.9 3 0.4 2.2 0.6 4.3 1.3 6 2.2 0.2 1.5 0.4 3 0 4.1 0.7 2.8 0.9 5.6 0.4 8.4-0.7 3.5-1.3 7.1-1.3 11 1.1 0.4 2.4 0.2 3.7-0.6 1.7 0.4 3 0.7 4.3 1.3 0.6-0.4 0.9-0.2 1.1 0.4s0.4 0.4 0.6-0.2c0.8 0.2 0.9 0.7 0.8 1.5 0.6-0.2 0.7-0.2 0.9 0v0.7z m0-0.6c0.2 0.2 0.2 0.4 0 0.6v-0.6z m0 4.3v-1.7s0.2-0.2 0.2-0.4c0.2-0.4 0-0.4-0.2-0.4v-0.6c0.6 0.9 0.7 1.9 0.2 2.8l-0.2 0.3z m27.2 42.4c-0.4 0.7-0.4 1.3 0 1.9v8c-0.7-0.4-1.5-0.7-2.2-1.3-2.4-1.3-2.8-2.1-1.5-2.1 0.4-3.4 1.5-6.4 3.7-9v2.5z m0-23.3c-3 5.6-6.7 10.8-11.2 15.5-2.6 2.8-4.3 2.6-4.9-0.6-0.7-3 0-4.7 2.1-5.2 5-6.7 9.7-13.8 14-21.5V491z m19.3 29.7v8.6h-4.7c-1.9 3.4-3.7 3.9-5.8 2.1-1.9-2.1-3.7-3.7-5.4-5.2-0.9-0.6-2.1-1.1-3.4-1.9v-8c0.2 0.4 0.7 0.6 1.5 0.7 2.8 0.7 5.6 1.5 8.2 2.2 2.8 3.5 6 4.1 9.1 1.9l0.5-0.4z m0-9.6c-0.2 0-0.6 0-0.7 0.2-3 0.2-5.2-0.9-7.1-3.2 2.2-0.9 4.9-1.9 7.8-3v6z m0-24.8v13.3c-0.6 0.2-1.1 0.6-1.7 0.7-6 2.6-11 6.4-15.3 11.2-1.1 1.1-1.9 2.1-2.2 2.8v-2.4c0.9-1.3 2.2-2.6 3.9-3.7 4.5-3.5 8.6-7.5 12.1-11.8-1.5-0.9-3.5-1.5-6-1.7-2.4-0.4-4.5-1.3-6-3.4 1.9-1.5 4.9-2.6 8.8-3.2 2.2-0.3 4.5-1.1 6.4-1.8z m0-23.8c-2.6 2.2-5 5-6.9 8.4 2.2-0.7 4.7-1.1 6.9-1.3v1.5c-2.1 0.2-4.3 0.4-6.5 0.9-4.7 4.9-8.6 10.5-11.8 16.8-0.4 0.7-0.6 1.3-0.9 2.1v-11.7c0.6-0.9 1.1-2.1 1.7-3 4.7-8.8 10.5-17 17.2-24.5-0.4-2.1-0.2-3.2 0.4-3.4v14.2z m0-14.2c0-0.2 0.2-0.2 0.4 0 0.9 0.4 2.2 0 3.9-1.1 1.7 1.3 3.5 2.6 5.4 3.9 2.1 1.1 2.4 3 0.9 5.2-3.9 1.5-7.7 3.4-10.6 6.2v-14.2z m0 38c1.1-0.7 2.2-1.3 3.4-2.2 2.4 0 4.9 0.4 7.3 1.3 2.4 0.9 3.6 2.8 3.6 5.6-4.3 3.4-9 6.2-14.2 8.6v-13.3z m0 43v-8.6c3-2.2 5.4-5.2 6.9-9-2.1-0.6-4.3-0.7-6.9-0.6v-6c1.1-0.4 2.4-0.9 3.5-1.3 4.5-1.7 8.6-2.1 12.3-0.9 3.7 0.6 6.2 2.2 7.3 4.9 1.1 2.4 0.2 5-2.8 7.5-4.9 1.9-4.9 3.7-0.2 5.2 2.4 4.5 1.5 6.9-2.8 7.3-4.3 0.2-8 0.6-11.4 1.5h-5.9z m24.4-55v8.6c-2.1-1.3-4.1-2.8-6-4.5-5.6-4.9-11.8-7.3-18.5-7.3v-1.5c8.2-0.9 16.4 0.7 24.3 4.7h0.2z m25.2 20c-2.2-1.3-4.5-2.6-6.5-3.7-6.7-1.1-12.9-3.7-18.7-7.7v-8.6c6.9 2.4 14.6 4.5 22.8 6 0.7 0.2 1.7 0.4 2.4 0.6v13.4z m41.9-42.8h0.4c1.5 2.2 3.5 3.5 6 3.9 2.1 1.1 3.5 2.4 4.9 3.7 1.5 0.6 2.4 1.9 2.8 3.6 1.1 2.8 0.6 5.6-1.7 8.2-1.3 2.6-2.4 5.2-3.5 8 0.6 2.4 0.9 4.7 1.1 6.7-0.4 3.5-0.6 6.7-0.7 9.7 0 4.7-0.4 9.2-1.5 13.6-0.7 1.3-2 1.3-3.9 0-0.7 0-1.1-0.4-1.1-1.3-0.2-0.7-0.6-1.5-1.3-1.7-0.4-3.6-0.6-7.1-0.4-10.8 0-1.9 0.2-3.4 0.4-4.7l-4.3 4.7c-1.3 0.9-2.6 2.1-3.7 3.4-1.1 1.5-2.6 2.1-4.3 1.9-1.5-0.7-2.1-2.4-1.5-5-0.6-1.9-0.2-3.6 1.1-5.2 1.3-2.1 2.6-4.3 3.9-6.4 3.4-6.9 6.7-14 9.9-20.9-0.7-1.5-1.3-3-2.1-4.5-1.3-1.3-2.1-3-1.7-5-0.3-0.6 0.2-1.3 1.2-1.9z m-41.9 29.4c6.9 2.1 11.2 6.5 13.4 13.6-1.7 4.1-4.5 4.9-8.8 2.4-1.5-0.9-3.2-1.9-4.7-2.6v-13.4z m117.1 20.5l-0.2 0.6c-1.5 1.7-3.4 2.4-5.4 2.1l-7.3 0.7c-4.5 0.7-9 1.5-13.4 2.1-1.3-0.2-1.9 0.2-1.7 1.5 0.2 1.1 0.2 2.2 0 3 0.6 3.5 0.7 7.3 0.6 11.2 0.2 1.5 0.2 2.8 0 3.9-0.9 1.3-1.3 2.6-1.5 4.1 0 1.5-0.7 2.8-1.9 3.7-0.6-0.6-0.9-0.4-1.1 0.2-0.2 0.6-0.4 0.7-0.7 0.6-0.2-0.7-0.7-1.5-1.1-2.2-0.6-2.1-1.1-4.1-1.9-6.4 0.4-1.1 0.6-2.8 0.6-4.7 0.4-0.9 0.2-1.7-0.2-2.4-0.6-0.8-0.4-1.5 0.2-1.9-0.4-4.1-0.4-7.9-0.2-11.6-0.2-3.2-0.2-6.5 0.2-10.3 0.6-7.3 0.9-14.4 1.3-21.1 0-1.9-0.7-3.2-2.2-3.9-1.1-1.7-2.6-1.7-4.9-0.2-1.5-0.4-2.8 0-3.7 0.7-0.9 0.7-2.1 1.3-3.2 1.7-0.9 0.4-1.5 0.2-1.3-0.6 0-0.9-0.2-1.5-0.6-1.9 1.9-5.4 3.9-10.7 6-16.1l-5.4-6c-0.2-0.7-0.8-1.5-1.3-2.1-0.7-0.7-0.7-1.5-0.2-2.2 0.6 0.9 1.3 1.3 2.1 1.3 1.5-0.6 3-0.8 4.5-0.6 0.7 0.6 1.5 0.6 2.2 0 2.8 1.7 5.4 3.7 7.5 6 0.9 1.3 1.3 2.6 0.9 4.3l-7.1 11.4c-1.3 1.5-0.7 1.9 1.1 1.3 2.1-1.3 4.5-2.6 6.9-3.6 1.5-0.9 2.6-1.7 3.5-2.4 4.9-1.7 9.1-4.1 12.7-7.5 1.1-0.4 2.2-0.6 3-0.6 1.7 0.9 3 1.3 3.9 1.3 2.2 0 3.7 0.9 4.7 2.8-0.7 1.9-2.1 2.6-4.3 2.6-4.9 2.2-9.5 4.5-14.2 6.7-2.8 0.4-5 1.3-6.7 2.8 1.1 2.2 1.9 4.7 2.4 7.3 0 1.5 0 3-0.2 4.3-0.2 3.7 0 7.3 0.2 10.8 2.1-3.4 4.5-6.7 7.1-10.1 0.7-0.9 0.2-1.7-1.3-2.1-1.3-0.7-2.8-1.1-4.7-1.1 2.1-1.5 3.9-2.8 6-3.9 0.6 0 0.9-0.6 1.1-1.3 0.2-0.9 0.7-0.9 1.7-0.4 0.6-1.1 1.1-1.3 1.7-0.6 0.7 0.7 1.7 1.1 2.6 0.9 1.1 0.6 2.4 0.7 3.7 0.7 1.3 0 2.4 0.6 3.5 1.7 1.5 1.7 1.5 3.4 0 4.9-2.4 1.1-4.7 2.2-7.3 3.5-3.4 2.8-6.7 5.8-9.9 8.6-0.9 0.6-2.1 1.3-3.4 2.1-1.1 0.6-1.5 1.7-1.1 3 3.7-1.3 7.5-2.4 11.4-3.5 1.9-0.6 3.7-0.9 5.6-1.5 0.6-1.1 1.1-1.5 1.9-0.7 0.7 0.7 1.5 0.9 2.6 0.7 0.9 0 2.1 0.4 3.2 0.6 1.3 0.2 2.2 0.9 3 1.9v5.9z m0-5.6c0.6 0.6 0.9 1.5 1.3 2.6-0.6 0.9-0.9 1.9-1.3 3v-5.6z m25 2.6v14.8c-1.7-0.7-2.6-2.2-3-4.5 0.6-0.4 0.6-0.7 0.2-1.1-0.6-0.4-0.4-0.7 0.2-1.1-0.7-2.2-0.4-4.5 1.1-6.4 0.4-0.6 1-1.1 1.5-1.7z m0-4.6c-0.6 0.9-1.3 1.9-1.9 2.8-3.2 3.5-6.7 7.1-10.6 10.7-1.1-0.9-1.5-2.4-1.5-4.3-0.8-0.7-0.9-1.3-0.2-1.9 0.6-0.6 1.1-1.1 1.3-1.7 1.5 0.2 2.8-0.4 3.9-2.1 3.2-4.5 6.2-9 9-13.5v10z m7.3-3.2v4.5c-1.7 2.2-3.5 4.5-5.4 6.9-0.8 1.3-0.2 1.7 1.9 0.9 1.1-0.6 2.4-1.3 3.5-1.9v9l-2.8 1.5c-1.5 0.4-3 0.9-4.3 1.7h-0.2v-14.8c2.7-2.4 5.1-5 7.3-7.8z m0-8.1c-2.2 3.9-4.7 7.7-7.3 11.2v-9.9c2.6-4.1 5-8 7.3-12.1v10.8z m17-3.7v3.4c-0.7 0.7-1.5 1.3-2.4 1.9 0.4 1.1-0.2 1.9-1.7 2.1-2.6 0-4.7 0.9-6 2.8-1.5 0.4-1.9 1.1-1.1 2.1 1.3 0.7 1.7 0.6 1.3-0.7 1.9 1.3 3.7 1.9 5.8 1.5h1.7c0.9-0.2 1.7-0.2 2.4-0.2v7.1c-0.4 0.4-1.1 0.7-1.7 1.1-1.9 1.1-2.8 2.8-2.8 5-0.4 2.1-0.8 4.3-1.1 6.5-0.2 1.3-0.6 2.4-0.9 3.4-0.7 0.9-0.4 0.9 0.9 0 2.2-2.1 4.1-4.5 5.6-6.7v6c-1.3 2.8-3.2 5.2-5.6 7.5-0.9 2.1-2.1 3.9-3.5 5.8-1.5 0-2.6-0.6-3-2.1-0.4-1.3-0.7-2.6-1.3-3.7-0.7-0.4-1.1-0.9-0.7-1.7 0.4-0.6 0.4-1.3 0.2-1.9-0.7-1.9-0.4-3.5 0.9-5v-5l-3.9 2.2v-9c1.9-1.3 3.7-2.6 5.4-4.1 0.4-1.1 0.4-2.2 0.2-3.7-0.4-1.3-1.1-1.9-2.2-1.5l-2.8 2.6-0.6 0.7v-4.5c1.5-1.9 2.8-3.6 4.3-5.4-1.1-1.1-2.6-2.1-4.3-2.6v-11c1.7-2.8 3.2-5.8 4.7-8.6 1.7-2.8 2.6-5.8 3.2-9-2.1-2.2-2.8-4.7-2.2-7.5l1.7 2.4c0.7 0.6 1.3 0.7 1.9 0.4 1.7 0.9 3.4 1.7 5 2.4 0.7 1.7 0.4 3.2-1.3 4.9-3 7.1-6.2 13.8-9.9 20.6-0.9 1.3-1.5 2.8-1.7 4.3 2.1-0.6 3.9-1.5 5.6-3.2 2.1-0.2 4.3-0.6 6.7-0.9 0.7 0.7 1.7 1.1 2.8 1.3h0.4z m0-6.9c-0.7-0.7-1.7-1.5-2.4-2.4-0.4-0.4-0.9-0.7-2.1-1.1-0.9-0.4-0.9-0.7-0.2-1.1 1.7 0.4 3.2 0.4 4.7-0.2v4.8z m0-4.9c0.6 0 0.9-0.2 1.5-0.6 1.3 0 2.8 0 4.1 0.4 2.1 0.2 3.5 1.1 4.5 3.2 0.2 0.6-0.2 0.9-0.7 1.1-1.3-0.2-1.9 0-2.1 1.1-0.2 1.1-0.9 1.5-2.1 0.9-1.9 0.2-3.5-0.4-5.2-1.3V467z m0 11.8c0.9 0.4 1.3 0.9 1.5 2.1-0.4 0.4-0.9 0.9-1.5 1.3v-3.4z m0 12.7c1.3 0 2.6 0 3.9 0.2 0.2 0.6 0.6 1.1 1.1 1.5 0.6 0.4 0.4 0.7-0.4 1.1-0.6 0.6-1.3 1.1-2.1 1.7-0.7 0.9-1.5 1.9-2.6 2.6v-7.1z m0 16.5c2-3 3.5-6 4.7-9.2 0.6 3.2-0.2 6.4-2.2 9.2-0.6 2.1-1.3 4.1-2.4 6v-6z m27.3-29.8c-1.1-0.6-2.1-0.9-3-1.1-0.2 0.7-0.2 1.3 0 1.9-0.7 3-0.9 5.6-0.9 8 0 2.2 0.2 4.3 0.7 6.4 1.1-0.7 2.1-1.7 3.2-2.6v9.7c-0.4 0-0.7 0-0.9 0.2-0.4-0.6-1.1-0.6-2.1 0-0.2 1.7-0.4 3.4-0.6 5-0.2 0.7 0 1.1 0.6 0.7 0.6-0.4 1.1-0.4 1.5 0 0.6-0.4 0.9-0.6 1.5-0.9v0.9c-0.6 0.2-0.9 0.6-1.5 0.7-0.9 0.4-0.9 0.9 0 1.5 0.6 0.2 0.9 0.2 1.5 0.2v2.8c-1.5-0.2-2.6-0.2-3.9-0.2 0 2.4-0.4 4.7-0.6 7.3-0.4 2.1-0.4 3.7 0.4 5 1.5-0.9 2.8-2.1 4.1-3.2v7.7c-2.1 2.2-4.3 3.7-6.9 4.3-1.5-0.6-2.4-2.1-2.8-4.1 0.2-0.9 0-1.9-0.7-2.8-0.7-0.9-0.9-2.1-0.4-3.2 0.4-5.8 1.1-11.4 1.9-16.8 0-2.1 0.2-3.7 0.4-5.2v-5.8l0.6-7.7c0-2.8-0.2-5.8-0.6-9 0.4-1.5-0.2-2.8-1.1-4.1-0.6-0.4-1.3-0.6-2.4-0.6-0.9 0.2-1.3 0.2-1.1 0.2 0.9-0.6 1.9-0.9 3.2-0.7 1.3 0.2 1.3-0.2 0.2-1.3-1.7 0.4-2.2 0-1.7-1.1 0 0.6 0.6 0.6 1.7 0.2 0.7 0.6 1.7 0.8 2.6 0.4 0.9-0.4 1.7 0 2.4 0.7 1.5-0.6 3.2-0.7 4.9-0.9v7.5z m0-19.6c-0.7 0.4-1.5 0.6-2.2 0.9h-4c-0.8-0.6-1.5-0.7-2.4-0.9 2.4-1.9 5-3.7 7.7-5.4 0.2-0.4 0.6-0.6 0.9-0.7v6.1z m3.3 65.1c-0.7 1.1-1.5 2.1-2.2 3.2-0.4 0.6-0.7 0.9-1.1 1.5v-7.7c1.3-1.1 2.4-2.4 3.4-3.9v6.9z m0-11.6c-0.7 0-1.5-0.2-2.2-0.2-0.4 0-0.7-0.2-1.1-0.2v-2.8c1.1 0 2.2-0.2 3.4-0.2v3.4z m0-6.2c-0.6-0.7-1.3-0.7-2.2-0.2-0.4 0.2-0.7 0.6-1.1 0.7v-0.9c0.9-0.6 2.2-1.1 3.4-1.5v1.9z m0-12.7c-1.3 0.9-1.3 1.3-0.2 1.1h0.2v5.2c-1.1 0.4-2.2 0.6-3.4 0.9v-9.7c1.1-1.3 2.2-2.6 3.4-3.9v6.4z m0-9.5c-0.2-1.5-0.7-3-1.5-4.5-0.6-0.4-1.3-0.7-1.9-0.9v-7.5c0.6 0 1.3 0 1.9 0.2 0.6 0 1.1-0.2 1.5-0.4v13.1z m0-27.7c-0.4 0.2-0.7 0.4-1.1 0.7-0.6 0.7-1.5 1.5-2.2 1.9v-6.2c1.1-0.9 2.2-1.7 3.4-2.2v5.8z m2.5 64.1c-0.7 1.1-1.5 2.4-2.4 3.6v-6.9c0.9-1.1 1.7-2.6 2.4-3.9v7.2z m0-7.7c-0.7-0.2-1.5-0.4-2.4-0.4v-3.4c0.9-0.2 1.7-0.2 2.4-0.4v4.2z m0-5.2c-0.9 0.2-1.5-0.2-2.2-1.1 0 0 0-0.2-0.2-0.2V504c0.6-0.2 1.1-0.4 1.9-0.4 0.2 0 0.4-0.2 0.6-0.2v3.8z m0-15.1c-0.2 0-0.2 0-0.4 0.2 0.2 0.4 0.2 0.6 0.4 0.6v5.8c-0.7 0.2-1.5 0.6-2.4 0.9v-5.2c0.6 0 0.7-0.2 0.9-0.7 0.2-0.7 0-0.7-0.6-0.6l-0.4 0.2v-6.4l0.4-0.6c0-0.9-0.2-1.7-0.4-2.6v-13.1c1.1-0.6 1.5-1.9 1.1-3.7 0.6-1.7 0.9-3.2 1.3-4.9v30.1z m0-36.3c-0.7-0.2-1.5-0.2-2.4 0.2v-5.8c0.7-0.4 1.7-0.7 2.4-1.1v6.7z m9.7 38.1v1.5l-0.9 1.5c0.2 0.4 0.6 0.4 0.9 0v5.2c-1.3 0.7-2.6 1.5-3.9 2.2-0.7 0.4-1.5 0.7-2.4 1.7-0.7 0.7-0.7 1.3 0 1.9 2.2-0.2 4.3-0.4 6.3-0.6v5.4c-2.2-0.2-4.5-0.4-6.7-0.4-1.3 1.3-1.7 2.6-1.1 3.9-0.6 1.3-1.1 2.4-1.9 3.7v-7.3l0.2-0.4h-0.2v-4.1c0.9-0.2 1.9-0.4 2.8-0.6 0-0.9-0.4-1.1-1.1-0.7-0.6 0.4-1.1 0.4-1.7 0.2v-3.7c4.1-1.1 6.9-3.7 8.2-8 0.5-0.4 0.9-0.8 1.5-1.4z m0-34.5c-0.7 0.7-1.1 1.9-1.5 3.2-0.4 2.1-0.9 3.9-1.9 5.6-0.6 2.1-0.6 3.9-0.4 5.8 0.7 0.6 1.3 1.7 1.7 2.8-0.9 1.5-2.1 3-3 4.5-0.2 2.8-1.3 5.2-3.2 7.5 0 1.1 0.2 1.5 0.9 1.1 0.6-0.4 1.1-0.6 1.9-0.6 2.1-0.2 3.7-0.6 5.4-0.9v3c-3 3.2-6.2 5.6-9.7 7.3v-5.8c0.2 0 0.2-0.2 0.4-0.4 0.2-0.4 0-0.6-0.4-0.4V462c0.4-1.7 0.7-3.5 1.1-5.2-0.4-0.4-0.7-0.7-1.1-0.9v-6.7c0.4-0.2 0.7-0.4 1.1-0.4 2.2-0.2 4.7 0 6.7 0.7 0.4 0.9 1.1 1.7 1.9 2.1v7.8z m52.1-16.3l0.6 1.1c0.4 2.1 1.5 3.7 3.4 4.9 1.9 1.1 3.4 2.4 4.3 4.1 1.3 2.2 0.7 3.9-1.9 4.9-4.5 4.7-8.8 9.3-13.1 14-2.1 3.2-4.3 6-6.5 8.8 1.9 0.4 3.7 0.6 5.6 0.4 1.1-0.4 2-0.7 2.6-1.7 1.1 0.7 2.4 1.1 3.9 1.1 1.1 0.2 2.4 0.4 3.7 0.4 1.3 0 2.1 0.7 1.9 2.1-1.3 2.8-3 5.2-4.7 7.5 0.6 1.9 1.1 3.7 1.5 5.4l-0.7 5.6c-0.4 3.4-0.6 6.7-0.6 10.3-0.6 2.1-1.9 2.8-4.3 2.2-0.9-1.1-1.5-2.4-1.9-3.7-1.1-2.4-1.9-5-2.2-8-1.9 2.6-4.3 4.3-7.3 5.4-1.1-2.6-1.5-5.2-1.3-8 0.4-1.5 0.9-2.4 1.7-2.8 1.3-2.4 3-4.7 4.9-6.7 1.7-1.9 3.2-3.7 4.7-6 0.2-1.3-0.7-1.5-2.8-0.7-2.1 0.6-3.7 0.2-5.4-0.9-0.8 0.7-1.1 0.4-1.3-0.9-0.2-1.5-0.2-2.6 0-3.6-0.2-5 1.3-9.7 4.5-13.8 1.9-1.7 3.7-3.5 5.4-6 1.9-2.1 3.7-4.3 5.4-6.5-0.2-1.5-0.6-3.2-1.3-4.7-0.9-1.9-0.3-3.3 1.2-4.2z m-52.1 8.4c0.2 0.2 0.6 0.4 0.7 0.4 2.2 1.5 2.6 3.6 0.9 6-0.8 0.4-1.3 0.9-1.7 1.5v-7.9z m0 39.8c1.5-1.5 1.5-2.6 0-3v3z m0 5.6c0.2-0.2 0.4-0.4 0.6-0.7 0.6-1.1 0.6-1.5-0.2-1.3l-0.4 0.6V494c1.1-0.9 2.6-1.9 4.1-2.2 1.1 0.2 1.9 0 2.6-0.7 0.4 0.9 1.3 1.3 2.6 1.3 1.1-0.2 1.9 0.4 2.2 1.5 0.6 0.9 0.4 1.7-0.6 2.2-2.8 1.5-5.4 3.2-8.2 5-0.9 0.4-1.9 0.7-2.8 1.1v-5.3z m0 10.5l1.3-0.2c8.4-0.9 15.9 0.7 22.4 4.7 1.1 0.7 1.7 1.7 1.5 2.8 0.6 0.7 0.4 1.1-0.2 0.9-0.6 0-0.9 0-1.3 0.2 0.2 0.6-0.2 0.7-0.9 0.6-1.1-0.4-1.5 0.2-0.9 1.5-3.2-0.9-6.4-1.7-9.7-2.4-3.9-1.1-7.8-2.1-12.1-2.6v-5.5z m90.9-22.1v1.1c-0.4 0-0.6 0-0.9-0.2 0.4-0.3 0.5-0.7 0.9-0.9z m0-3.1c-0.4 0.2-0.6 0.4-0.9 0.4-2.1 0.6-4.3 1.3-6.7 2.1-1.9 0.7-3.7 1.7-5.8 2.6-3.2 0.9-5.8 0.2-7.8-2.4-0.9-1.3-0.9-2.8 0-4.1 1.5-0.4 1.7 0.2 0.4 1.7 1.9 1.7 4.1 1.9 6.9 0.6 4.1-1.7 8.2-3.4 12.3-4.9 0.6-0.2 1.1-0.2 1.7-0.4v4.4z m0-12.2c-2.1 0.6-4.1 1.1-6 1.7 1.9-0.7 3.9-1.3 6-2.1v0.4z m0-6.1c-1.3-0.7-2.6-1.5-3.9-2.4-3-1.1-5.8-2.4-8.8-3.4 2.4-0.2 4.7-0.7 6.9-1.3 1.9-0.9 3.9-1.5 5.8-1.7v8.8z m0 6.1v-0.4c1.1-0.4 2.4-0.7 3.5-1.1 2.1-0.4 2.8-0.9 2.2-2.1-1.9-0.7-3.9-1.7-5.8-2.6V455h1.5l0.7 0.4c3.7-0.4 6.7 0.7 9.2 3.5 1.5 1.3 1.7 2.6 0.9 3.9-0.7 1.3-1.7 2.6-2.8 3.6-1.5 0-2.4 0.7-3.2 2.1-1.9 0.6-4.1 1-6.2 1.5z m0 7.7c2.8-0.7 5.6-2.1 8.2-3.7 0.7-1.1 2.1-1.5 3.9-1.1 3.5 0 5.8-1.3 6.9-3.9 0.9 0.9 2.1 0.6 3-0.9l0.6 0.2c0.4 0.9 0.9 1.3 1.9 1.3 0.7-0.2 1.3 0.2 1.9 0.9 3.7 0 6.2 1.7 7.5 4.9-0.4 1.9-1.3 3.4-2.8 4.7-2.1-0.2-4.1-0.4-6.2-0.9-1.1-0.4-2.2-0.6-3.2-0.6-2.1-0.2-4.1-0.4-5.8-0.6-5.6 0.7-10.8 2.2-15.9 4.3v-4.6z m0 7.6c0.6-0.6 1.1-1.1 1.9-1.5h0.4c2.4 0.2 4.7 0.7 6.7 1.9 1.3 3.5 2.4 7.1 3.2 10.7 0.4 1.1 0.6 2.2 0.4 3.4l-0.4 18.9c-0.2 2.6-0.4 5.2-0.9 7.9-0.4 3-1.5 5.6-3 8-0.9 2.4-2.2 2.6-4.1 0.4-0.7-0.7-1.3-1.9-1.3-3.5 1.3 0 1.9-0.6 1.7-1.9-0.4-1.1-0.4-2.2 0-3-0.6-3.6-0.7-7.1-0.6-11 0.2-4.3 0.6-8.6 0.9-13.1 0.7-5.4 0.4-10.5-0.9-15.3-0.2-1.3-0.7-1.7-1.9-1.1-0.7 0.4-1.5 0.6-2.1 0.6v-1.4z"></path></svg>