<svg viewBox="0 0 1024 1024" version="1.1" xmlns="http://www.w3.org/2000/svg"><path d="M619.347 608.465v6.82c-0.127 0-0.43-0.039-0.911-0.11-1.214-0.365-5.13-0.621-11.74-0.767h-8.665v6.057h9.273c3.875 0 6.595-0.196 8.17-0.583-0.307 1.822-0.46 4.336-0.46 7.545v13.057c0.027 2.897 0.18 5.117 0.46 6.673-0.859-0.281-3.198-0.426-7.012-0.436h-10.736c-1.04 4.62-2.584 8.376-4.634 11.27 7.165 3.135 16.225 5.008 27.167 5.616-1.799 1.53-3.393 4.074-4.786 7.622-11.072-2.288-19.762-5.277-26.068-8.971-4.103 3.159-9.566 6.151-16.378 8.97a29.433 29.433 0 0 0-5.891-5.615c6.234-0.708 11.945-2.906 17.14-6.603-2.814-2.017-5.587-4.388-8.323-7.11l5.852-2.957c2 2.362 4.116 4.377 6.346 6.056 1.545-1.872 2.736-4.633 3.573-8.278h-8.97c-4.002 0-6.677 0.196-8.02 0.582 0.406-1.68 0.61-4.142 0.61-7.402v-12.29c0-3.619-0.204-6.201-0.61-7.729 2.333 0.509 5.26 0.762 8.781 0.762h8.818v-6.236h-7.867c-5.703 0.075-9.085 0.231-10.15 0.476-0.505 0.07-0.834 0.106-0.985 0.106v-6.38c0.128 0 0.457 0.034 0.986 0.108 1.419 0.315 4.8 0.534 10.149 0.656h22.533c7.068-0.142 10.94-0.41 11.628-0.802 0.379-0.075 0.62-0.107 0.72-0.107z m151.065-7.583c-0.077 0.432-0.303 0.916-0.666 1.452-0.76 1.123-1.274 2.55-1.531 4.29-0.417 2.649-0.64 5.966-0.67 9.947 4.451 0 7.277-0.1 8.483-0.303v5.892c-1.648-0.203-4.479-0.303-8.483-0.303v13.394c0.106-0.05 0.446-0.216 1.024-0.5 2.355-1.069 4.463-2.151 6.317-3.252-0.288 2.404-0.182 4.734 0.319 7.004-2.332 0.511-4.885 1.444-7.66 2.798v22.77c-1.253 3.955-5.457 6.34-12.603 7.158-0.39-3.01-1.448-5.705-3.178-8.077 2.33 0.664 4.594 0.763 6.793 0.308 2.04-0.486 3.072-1.338 3.098-2.565v-17.72c-5.181 2.218-8.96 3.98-11.344 5.28 0-2.246-0.472-4.685-1.415-7.31 4.164-0.84 8.415-2.143 12.76-3.904v-15.23h-2.862c-4.003-0.029-6.783 0.074-8.323 0.304v-5.893c1.183 0.196 3.811 0.299 7.881 0.305h3.463c-0.027-7.657-0.186-13.258-0.47-16.804 5.705-0.1 8.729 0.218 9.067 0.959zM308.51 622.71c0.154 0 0.473 0.036 0.957 0.111 0.917 0.254 4.282 0.43 10.095 0.532H338.8c3.902 0 6.655-0.163 8.26-0.492 0.434-0.102 0.689 0.061 0.765 0.492-0.408 1.407-0.613 4.057-0.613 7.953v31.932c0.154 3.016-0.622 4.923-2.331 5.727-1.581 1.032-5.419 1.785-11.511 2.263-0.357-3.02-1.238-5.681-2.64-7.99 3.621 0.903 6.159 1.101 7.61 0.6 1.48-0.427 2.206-1.671 2.18-3.731v-31.554h-20.804c-5.71 0.104-9.138 0.275-10.286 0.528-0.484 0.052-0.792 0.076-0.918 0.076v-6.447z m374.06-21.395c0.026 0.102-0.047 0.317-0.23 0.648-1.102 1.88-1.656 4.599-1.656 8.16v50.356c-0.027 5.64 0.182 9.223 0.634 10.749h-7.832c0.6-1.875 0.811-5.466 0.63-10.749v-49.707c0-5.062-0.214-8.479-0.63-10.259 5.9 0 8.931 0.27 9.085 0.802z m-271.202 2.41c5.7 0.755 8.55 1.645 8.55 2.67-0.076 0.344-0.49 0.747-1.244 1.213-1.458 0.364-4.057 3.243-7.796 8.639h7.043c3.388 0 6.052-0.206 7.986-0.621-0.175 0.732-0.3 1.647-0.375 2.746-0.072 1.052-0.108 2.578-0.113 4.586v16.19c0.023 3.218 0.188 5.502 0.488 6.842-1.281-0.194-4.244-0.29-8.89-0.29h-13.786v6.407h15.294c9.015-0.12 13.975-0.343 14.879-0.66 0.478-0.047 0.777-0.074 0.903-0.074v6.995c-0.099 0-0.4-0.035-0.903-0.107-1.357-0.462-6.153-0.782-14.391-0.952h-15.782v5.201c0.05 4.469 0.174 7.106 0.376 7.912 0.051 0.412 0.075 0.68 0.075 0.806h-7.044c0-0.218 0.048-0.55 0.15-0.99 0.325-0.487 0.54-3.015 0.642-7.58v-5.349h-16.235c-8.288 0.146-12.834 0.414-13.639 0.806-0.401 0.072-0.653 0.109-0.751 0.109v-6.555c0.075 0 0.237 0.011 0.49 0.036 0.249 0.194 4.83 0.328 13.747 0.402h16.388v-6.407H382.74c-3.893 0-6.392 0.197-7.498 0.582 0.403-1.805 0.603-4.771 0.603-8.899V623.54c0-2.859-0.102-5.448-0.304-7.767 2.062 0.317 4.812 0.475 8.253 0.475h6.593c-1.86-3.346-4.358-6.577-7.5-9.701l5.65-2.53c2.615 2 5.262 5.03 7.95 9.085l-5.651 3.146h14.241c2.26-3.346 4.358-7.52 6.292-12.522z m131.198 8.998v7.42c-0.158 0-0.533-0.027-1.128-0.075-1.48-0.177-6.012-0.308-13.588-0.38H503.52c-0.209 3.753-0.428 7.2-0.662 10.347h18.998l10.121-0.611a72.703 72.703 0 0 0-1.09 7.417c-1.582 16.051-2.907 25.26-3.97 27.619-1.195 3.571-6.256 5.525-15.182 5.858-0.416-3.553-1.637-6.571-3.66-9.055 4.592 0.813 7.525 1.125 8.798 0.95 1.53-0.103 2.606-0.776 3.231-2.015 1.194-2.588 2.415-10.579 3.657-23.966h-21.526c-1.662 14.46-9.46 26.12-23.399 34.996-1.556-1.952-4.085-3.703-7.591-5.25 17.491-5.604 25.876-21.035 25.152-46.29h-10.63c-6.358 0.072-10.46 0.237-12.302 0.49-0.83 0.079-1.363 0.116-1.596 0.116v-7.42c0.101 0 0.428 0.039 0.974 0.113 1.504 0.33 5.76 0.56 12.768 0.687h41.62c7.653-0.155 12.403-0.433 14.244-0.836 0.626-0.078 0.987-0.115 1.093-0.115z m22.252-8.998c5.622 1.36 8.363 2.357 8.208 2.99 0 0.148-0.13 0.35-0.381 0.617-0.76 0.779-1.457 1.848-2.09 3.21-0.784 1.604-1.798 3.815-3.04 6.637a232.396 232.396 0 0 1-1.29 2.846v38.108c0.1 7.196 0.277 11.294 0.53 12.292 0.052 0.367 0.079 0.583 0.079 0.657h-7.565c0-0.172 0.039-0.558 0.113-1.167 0.255-1.264 0.42-5.141 0.496-11.633V633.08a89.446 89.446 0 0 1-6.155 10.505l-4.789-5.179c7.346-8.582 12.64-20.144 15.884-34.68z m139.04-3.82c5.9 0.049 8.998 0.353 9.284 0.914 0 0.13-0.155 0.422-0.471 0.88-0.76 1.17-1.14 2.116-1.14 2.855-0.106 2.21-0.21 5.21-0.315 8.995h9.601c2.831 0 5.759-0.214 8.776-0.647a207.398 207.398 0 0 0-1.931 23.105c3.569 0 6.243-0.202 8.028-0.612v6.938c-1.866-0.41-4.698-0.61-8.5-0.61h-12.156c3.013 11.64 10.055 19 21.124 22.073-2.96 1.956-5.307 4.332-7.035 7.127-11.153-7.01-17.711-16.948-19.677-29.806-2.597 13.26-9.419 23.25-20.46 29.96-1.968-2.516-4.523-4.271-7.668-5.263 11.117-3.05 18.254-11.079 21.4-24.092h-4.602c-4.173 0-7.7 0.201-10.585 0.611v-6.938c2.884 0.434 6.412 0.637 10.585 0.612h5.43c0.577-4.883 0.941-10.511 1.097-16.887h-2.551c-4.619 0-7.817 0.202-9.604 0.611v-6.334c2.519 0.41 5.718 0.616 9.604 0.616h2.55c0.134-6.105-0.13-10.803-0.784-14.109z m90.344 0.017c4.478 0.027 7.239 0.297 8.287 0.805 0.052 0.053-0.029 0.23-0.237 0.536-0.552 0.867-0.889 1.622-1.02 2.255-0.368 1.815-0.54 3.202-0.512 4.173h12.446c4.082 0.031 7.12-0.076 9.105-0.307v5.63c-0.757-0.131-1.87-0.219-3.334-0.268-1.274-0.05-3.047-0.076-5.311-0.079H800.72v5.628h10.248c1.466 0 2.602-0.026 3.417-0.078 0.916-0.025 1.742-0.1 2.471-0.227-0.209 1.402-0.31 3.112-0.31 5.13v5.125c4 0 6.5-0.098 7.493-0.305v5.895c-1.097-0.207-3.594-0.304-7.494-0.304v4.971c0 2.377 0.102 4.135 0.311 5.284-0.599-0.129-1.399-0.203-2.393-0.228a95.15 95.15 0 0 0-1.69-0.078H800.72v6.39h9.267c2.535-0.026 5.3-0.24 8.283-0.65v5.932c-1.645-0.2-4.41-0.306-8.283-0.306h-9.267v8.305c2.484 0.384 6.09 0.524 10.794 0.42 4.581-0.127 8.483-0.445 11.7-0.953-1.729 1.684-3.045 4.246-3.965 7.69-12.377 0.23-21.158-0.752-26.343-2.947-4.764-2.093-8.22-5.23-10.363-9.415-1.963 4.11-4.568 8.383-7.812 12.823-1.805-1.53-3.976-2.513-6.517-2.95 5.782-4.974 9.984-12.002 12.603-21.087 4.028 1.148 6.462 2.028 7.3 2.64 0 0.126-0.248 0.385-0.743 0.766-0.397 0.28-0.67 0.498-0.83 0.651a5.51 5.51 0 0 0-1.097 1.875 0.637 0.637 0 0 0-0.04 0.155c1.626 4.288 4.768 7.447 9.426 9.49v-18.83h-7.5c-2.538 0-4.45 0.025-5.733 0.079-1.44 0.025-2.618 0.1-3.53 0.228v-5.742c2.747 0.309 5.886 0.458 9.417 0.458h7.346v-4.97h-9.267c-3.822 0.021-6.795 0.175-8.913 0.455v-5.742c0.892 0.129 2.032 0.21 3.413 0.231 0.684 0.029 1.43 0.054 2.242 0.077h12.525v-5.285h-6.207c-2.512 0-4.45 0.03-5.81 0.08-1.492 0.052-2.75 0.126-3.766 0.23v-5.588c0.996 0.127 2.21 0.202 3.65 0.227 0.708 0.028 1.502 0.052 2.394 0.078h9.739v-5.628h-8.597c-3.984 0.026-7.123 0.19-9.426 0.496v-5.779c1.02 0.128 2.265 0.203 3.733 0.231 0.73 0.026 1.538 0.054 2.433 0.076h11.857c-0.132-4.516-0.34-7.105-0.631-7.769zM288.93 630.248c4.947 0.13 7.634 0.631 8.069 1.513 0 0.2-0.102 0.524-0.306 0.977-0.713 1.562-1.07 3.429-1.07 5.62v20.055c0.101 7.185 0.28 11.02 0.535 11.498 0.05 0.276 0.077 0.45 0.077 0.527h-7.46c0.386-1.788 0.586-5.643 0.615-11.574v-20.81c-0.079-4.146-0.229-6.747-0.46-7.806z m14.914 3.508c1.53 0.404 4.218 0.603 8.07 0.603h12.122c4.309 0 6.91-0.147 7.802-0.45-0.331 2.258-0.497 4.762-0.497 7.499v10.594c0 4.776 0.166 7.63 0.497 8.557a0.674 0.674 0 0 1-0.192-0.037c-2.242-0.378-4.831-0.564-7.76-0.564h-12.585c-3.619 0-6.105 0.2-7.457 0.601 0.381-1.586 0.586-4.032 0.613-7.353v-11.343c0-3.972-0.204-6.675-0.613-8.107z m21.455 15.307h-14.915v6.447H325.3v-6.447z m0-10.104h-15.068v6.144H325.3v-6.144z m267.033-3.8h-11.29v6.822h11.29v-6.822z m16.984 0.149h-11.286v6.673h11.286v-6.673z m-211.886-2.245h-15.635v7.729h15.635v-7.73z m21.884 0h-16.083v7.729h16.083v-7.73z m244.572-16.574c0.313 0.024 1.102 0.098 2.361 0.228 3.38 0.283 5.153 0.456 5.31 0.536 0 0.072-0.05 0.367-0.157 0.873-0.53 1.171-1.43 8.262-2.714 21.273-2-0.4-4.551-0.612-7.672-0.612 1.86-5.183 2.818-12.616 2.872-22.298z m146.727 17.043h-9.893v4.971h9.893v-4.97z m-88.855-14.262h-10.7c-0.026 0.332-0.053 0.814-0.08 1.45-0.365 6.047-0.772 11.148-1.22 15.288h11.214c0.238-3.56 0.423-7.194 0.555-10.899 0.076-2.343 0.153-4.287 0.231-5.839z m-421.012 2.084c1.863 2.488 3.825 5.756 5.89 9.8l-6.041 2.302c-1.354-3.438-3.213-6.71-5.584-9.804l5.735-2.298z m291.586 3.56h-11.29v6.382h11.29v-6.383z m16.984 0h-11.286v6.382h11.286v-6.383z m78.058-9.686c2.412 3.585 4.656 7.88 6.729 12.888l-7.044 2.935c-1.025-4.571-2.888-8.974-5.588-13.188l5.903-2.635z m-289.944 5.639h-15.635v7.871h15.635v-7.871z m21.884 0h-16.083v7.871h16.083v-7.871z m391.456 2.402h-10.05v5.285h10.05v-5.285zM297 600.354c4.716 1.26 7.203 2.227 7.458 2.904 0 0.276-0.32 0.626-0.956 1.057-1.48 1.028-2.819 2.311-4.016 3.842h8.872c5.89-0.103 9.113-0.277 9.674-0.526 0.307-0.052 0.499-0.077 0.575-0.077v6.144c-0.076 0-0.256-0.022-0.536-0.074-0.459-0.277-3.544-0.463-9.253-0.566h-1.07c1.451 3.57 2.332 5.917 2.637 7.052l-6.233 0.487c-0.434-3.012-1.263-5.53-2.486-7.54h-5.277c-0.331 0.453-0.637 0.856-0.918 1.208a54.152 54.152 0 0 1-5.43 6.447c-0.563 0.605-1.29 1.383-2.18 2.34l-6.388-3.093c7.164-5.153 12.341-11.688 15.527-19.605z m30.175-0.449c4.817 1.08 7.405 1.946 7.761 2.6 0 0.228-0.24 0.513-0.726 0.866-1.453 1.08-2.766 2.627-3.94 4.634h11.665c6.094-0.097 9.469-0.275 10.135-0.523 0.356-0.051 0.597-0.08 0.726-0.08v6.145c-0.076 0-0.28-0.025-0.612-0.074-0.739-0.275-4.207-0.466-10.402-0.564h-2.79a73.151 73.151 0 0 1 1.987 4.977c0.406 1.081 0.726 1.873 0.956 2.374l-6.54 0.943c-0.866-4.325-1.695-7.09-2.486-8.294h-4.972c-2.803 4.274-4.982 7.237-6.54 8.9l-6.193-1.85c5.123-3.873 9.113-10.558 11.971-20.054z m181.248 0c1.714 3.576 3.076 7.077 4.089 10.498l-7.592 2.17c-0.858-3.856-2.167-7.355-3.932-10.5l7.435-2.168z m2.522-216.517c2.818 0 5.115 2.22 5.231 4.91l0.005 0.214v102.569c-0.156 45.075-19.604 51.387-38.866 51.51l-0.583 0.001h-15.677v-12.904c18.117 0 24.164-9.338 24.283-38.245l0.002-0.882h0.01v-23.573h-8.226c-2.815 0-5.117-2.143-5.233-4.864l-0.004-0.216 0.002-20.547c0-2.716 2.23-5 5.016-5.115l0.221-0.004h8.223v-47.73c0-2.711 2.224-5.004 5.013-5.12l0.221-0.004h20.362z m400.373-3.82c1.394 0.013 2.52 1.166 2.52 2.582 0 0.407-0.135 0.861-0.376 1.254l-0.11 0.165-24.253 33.172-0.018 0.025 0.018-0.023h24.114c1.4 0.012 2.528 1.165 2.528 2.583 0 0.468-0.138 0.896-0.383 1.272l-0.111 0.158-31.49 43.135h12.092c2.783 0 5.055 2.137 5.17 4.872l0.004 0.217-0.002 68.507c0 2.745-2.198 4.987-4.956 5.1l-0.219 0.005h-17.479c-2.782 0-5.056-2.172-5.17-4.89l-0.005-0.215 0.004-61.475h-22.43a2.523 2.523 0 0 1-2.527-2.531c0-0.472 0.137-0.914 0.372-1.29l0.107-0.157 32.74-44.79h-23.872a2.54 2.54 0 0 1-2.535-2.552c0-0.476 0.133-0.9 0.364-1.258l0.105-0.149 28.122-38.487c2.23-3.015 5.798-5.072 9.849-5.222l0.37-0.009h17.457zM1024 434.332v15.696h-22.42v64.65c-0.023 15.25-12.656 27.631-28.344 27.908l-0.477 0.005h-37.604v-11.654h14.222c11.448-0.025 20.742-8.916 20.93-19.958l0.004-0.342v-60.61h-52.022v-15.695H1024z m-202.444 47.125v13.187h-27.89l36.189 43.844c0.342 0.432 0.553 0.973 0.553 1.563 0 1.355-1.086 2.45-2.453 2.535l-0.165 0.005h-24.094c-4.163-0.003-7.872-1.885-10.274-4.823l-0.214-0.27-39.98-51.98c-0.322-0.43-0.512-0.969-0.512-1.537 0-1.32 1.057-2.41 2.403-2.516l0.17-0.008h66.267z m-106.478-46.58v13.039H703.18v23.825h11.898v13.025H703.18v40.582c0.017 2.896 2.38 5.25 5.334 5.362l0.223 0.005h5.839v11.876h-27.779l-0.293-0.004c-5.843-0.147-10.564-4.674-10.804-10.336l-0.009-0.284v-47.201h-11.897v-13.025h11.897v-23.825h-11.897v-13.04h51.284z m-2.895-55.31a2.582 2.582 0 0 1 2.587 2.584c0 0.358-0.113 0.77-0.316 1.138l-0.108 0.18-13.075 18.901h21.824v-8.548c0.022-5.822 4.821-10.603 10.804-10.758l0.295-0.004h51.01c24.943 0 42.657 11.248 42.657 42.031 0 30.477-17.362 41.804-41.91 42.028l-0.747 0.003-34.88-0.002v58.228c0.018 2.892 2.37 5.242 5.32 5.362l0.223 0.005h23.847v11.876H734.2l-0.295-0.004c-5.89-0.15-10.64-4.752-10.805-10.478l-0.005-0.287V415.469h-30.847l-4.648 6.695c-2.265 3.22-6.039 5.37-10.337 5.495l-0.37 0.006h-19.665c-1.43-0.006-2.581-1.093-2.581-2.517 0-0.461 0.12-0.884 0.333-1.235l0.098-0.145 26.742-38.636a13.107 13.107 0 0 1 10.267-5.558l0.367-0.007h19.729z m-90.789 3.82c2.815 0 5.112 2.22 5.228 4.91l0.005 0.214-0.002 148.94c0 2.733-1.651 4.954-4.403 5.075l-0.232 0.005h-20.66c-2.82 0-5.117-2.157-5.233-4.865l-0.004-0.215v-70.464h-8.827c-2.817 0-5.113-2.143-5.228-4.864l-0.005-0.216V441.36c0-2.716 2.226-5 5.013-5.115l0.22-0.004h8.827v-47.73c0-2.711 2.225-5.004 5.016-5.12l0.221-0.004h20.064zM401.58 461.08c21.605 0.082 39.097 17.456 39.097 38.858 0 21.227-17.217 38.485-38.59 38.828l-0.649 0.005-0.007-0.002h-99.464c-7.686 0-13.948-5.846-14.122-13.107l-0.004-0.303v-50.844c0-7.304 6.157-13.267 13.801-13.432l0.32-0.003h99.618z m164.356-71.852c2.819 0 5.114 2.122 5.23 4.902l0.005 0.221-0.002 137.319c0 2.732-2.222 4.97-5.012 5.082l-0.222 0.005H545.87c-2.814 0-5.111-2.167-5.227-4.873l-0.005-0.214v-64.682h-8.826c-2.814 0-5.116-2.143-5.232-4.864l-0.005-0.216 0.003-20.547c0-2.716 2.227-5 5.015-5.115l0.222-0.004h8.823v-41.89c0-2.815 2.228-5.009 5.012-5.12l0.221-0.004h20.065z m-186.73 85.29h-46.36c-4.657 0.002-8.45 3.522-8.598 7.907l-0.005 0.25v34.494c0 4.438 3.716 8.045 8.347 8.175l0.259 0.003v0.003h46.294c14.17-0.003 25.66-11.383 25.66-25.412 0-14.007-11.456-25.386-25.597-25.42zM755.87 394.96c-2.987 0.003-5.424 2.332-5.542 5.226l-0.004 0.219v54.82l28.93-0.008c14 0 22.872-14.887 22.872-30.126 0-15.087-8.696-29.827-22.453-30.12l-0.418-0.005-23.385-0.006z m-397.1-19.215a2.58 2.58 0 0 1 2.554 2.583c0 0.5-0.14 0.886-0.385 1.26l-0.11 0.16-41.592 54.762h79.88l-27.65-36.603c-0.3-0.354-0.481-0.845-0.481-1.412 0-1.37 1.056-2.452 2.4-2.537l0.169-0.005h30.593a13.026 13.026 0 0 1 10.075 4.757l0.218 0.273 31.86 42.127c0.47 0.636 0.744 1.386 0.744 2.194 0 2.052-1.617 3.661-3.649 3.76l-0.198 0.005H275.133c-2.13 0-3.85-1.647-3.85-3.765 0-0.74 0.24-1.437 0.65-2.04l0.143-0.199 45.788-60.248c2.295-2.94 5.876-4.939 9.872-5.065l0.376-0.007h30.658z m421.402 34.388c3.053 0 5.54 2.4 5.655 5.419l0.004 0.216v15.402c0 3.05-2.421 5.589-5.445 5.705l-0.217 0.005h-15.427c-3.05 0-5.54-2.468-5.653-5.493l-0.004-0.217V415.77c0-3.046 2.418-5.517 5.44-5.63l0.217-0.005h15.43z m240.007-20.378v16.557H918.29v-16.557h101.89z" fill="#231916"></path><path d="M151.212 422.166v34.367c0 4.93 2.068 9.395 5.39 12.635l23.974 23.156a3.856 3.856 0 0 1 0 5.574l-23.934 23.13c-3.352 3.247-5.43 7.725-5.43 12.672v34.362c41.694 0 75.494-32.66 75.494-72.95 0-40.284-33.8-72.946-75.494-72.946z m26.826-5.47c3.352 3.244 7.988 5.251 13.114 5.251h35.554c0-40.29-33.8-72.947-75.494-72.947s-75.488 32.657-75.488 72.947h35.558c5.107 0 9.733-1.992 13.085-5.213l23.964-23.165c1.587-1.533 4.185-1.533 5.772 0l23.935 23.128z m-75.694 83.632L78.37 523.49c-1.578 1.533-4.175 1.533-5.763 0l-23.934-23.123c-3.362-3.243-7.998-5.251-13.124-5.251H0c0 40.287 33.794 72.95 75.488 72.95 41.695 0 75.489-32.663 75.489-72.95h-35.559c-5.106 0-9.722 1.991-13.074 5.213z m-26.856-5.432v-34.364c0-4.932-2.058-9.4-5.39-12.638l-23.974-23.156a3.861 3.861 0 0 1 0-5.577l23.935-23.128c3.361-3.242 5.43-7.726 5.43-12.672V349C33.803 349 0 381.66 0 421.95c0 40.286 33.804 72.946 75.488 72.946z" fill="#4ABDD2"></path><path d="M119.645 481.458c6.35 0 11.54-5.188 11.54-11.538v-17.683c0-6.345-5.19-11.536-11.54-11.536h-17.678c-6.35 0-11.54 5.19-11.54 11.536v17.683c0 6.35 5.19 11.538 11.54 11.538h17.678z" fill="#FBCF00"></path><path d="M71.323 599.905H0v8.24h26.129v62.926c0 2.2 1.878 3.979 4.196 3.979h10.673c2.309 0 4.187-1.78 4.187-3.979v-62.926h26.138v-8.24zM141.16 612.087a7.452 7.452 0 0 0 1.487-4.474c0-4.257-3.567-7.708-7.968-7.708h-52.9v8.24h41.01l-46.494 56.958c-0.777 1.04-1.15 2.315-1.15 3.701 0 3.487 2.828 6.232 6.424 6.246h60.761v-8.243H96.536l44.625-54.72zM202.346 654.693c0 8.205-7.485 13.655-14.651 13.655h-14.99c-2.694-0.077-4.848-2.183-4.877-4.784v-22.998h19.625c7.04 0 14.893 4.796 14.893 14.127m-29.67-48.094h13.087c7.311 0 13.936 4.846 13.936 12.19 0 9.105-7.243 13.382-14.197 13.382h-17.674v-20.836c0.049-2.573 2.183-4.644 4.849-4.736m34.608 28.981c7.076-3.285 10.401-10.215 10.401-17.522 0-7.288-5.983-18.153-23.376-18.153h-38.96c-3.505 0-6.335 2.474-6.335 5.527v63.463c0 3.467 2.83 6.155 6.335 6.155h41.616c17.387 0 23.372-12.341 23.372-20.492 0-9.279-4.14-15.66-13.053-18.978" fill="#4ABDD2"></path></svg>