<svg viewBox="0 0 1024 1024" version="1.1" xmlns="http://www.w3.org/2000/svg"><path d="M0 0m224 0l576 0q224 0 224 224l0 576q0 224-224 224l-576 0q-224 0-224-224l0-576q0-224 224-224Z" fill="#FFFFFF"></path><path d="M592.152 326.964V397.88c0 10.172 4.272 19.384 11.128 26.068l49.492 47.78c3.28 3.16 3.28 8.34 0 11.5l-49.408 47.724c-6.92 6.7-11.212 15.94-11.212 26.148v70.896c86.072 0 155.848-67.388 155.848-150.52 0-83.116-69.776-150.508-155.848-150.508z m55.38-11.284c6.92 6.692 16.488 10.832 27.072 10.832H748C748 243.384 678.224 176 592.152 176c-86.068 0-155.832 67.384-155.832 150.512h73.404a38.888 38.888 0 0 0 27.012-10.756L586.2 267.96c3.28-3.16 8.64-3.16 11.92 0l49.408 47.72z m-156.26 172.56l-49.488 47.788c-3.26 3.16-8.62 3.16-11.9 0L380.48 488.316a38.908 38.908 0 0 0-27.092-10.836H280C280 560.604 349.76 628 435.836 628c86.068 0 155.832-67.396 155.832-150.52h-73.404a38.828 38.828 0 0 0-26.992 10.76z m-55.44-11.212v-70.904c0-10.172-4.248-19.396-11.128-26.076L375.216 332.272a7.96 7.96 0 0 1 0-11.508l49.408-47.72c6.94-6.688 11.212-15.94 11.212-26.144V176C349.784 176 280 243.388 280 326.52c0 83.12 69.784 150.508 155.836 150.508z" fill="#4ABDD2"></path><path d="M528.216 448c13.088 0 23.784-10.692 23.784-23.78v-36.444c0-13.08-10.696-23.776-23.784-23.776h-36.432c-13.088 0-23.784 10.696-23.784 23.776v36.44c0 13.092 10.696 23.784 23.784 23.784h36.432z" fill="#FBCF00"></path><path d="M428 692H280v17.104h54.22v130.64c0 4.56 3.896 8.256 8.708 8.256h22.144c4.792 0 8.688-3.696 8.688-8.26v-130.636H428V692zM572.92 717.288A15.48 15.48 0 0 0 576 708c0-8.836-7.4-16-16.524-16H449.76v17.108h85.056l-96.428 118.24c-1.612 2.16-2.388 4.808-2.388 7.688 0 7.24 5.868 12.936 13.324 12.964h126.02v-17.112h-94.976l92.548-113.6zM698.664 805.74c0 17.032-15.532 28.348-30.4 28.348h-31.104c-5.592-0.16-10.06-4.532-10.12-9.932v-47.744h40.72c14.612 0 30.904 9.956 30.904 29.328m-61.564-99.844h27.156c15.168 0 28.92 10.06 28.92 25.304 0 18.904-15.032 27.784-29.464 27.784h-36.672v-43.256c0.1-5.34 4.528-9.64 10.06-9.832m71.812 60.164c14.684-6.82 21.584-21.204 21.584-36.376 0-15.128-12.416-37.684-48.504-37.684h-80.844c-7.276 0-13.148 5.136-13.148 11.476v131.748c0 7.2 5.872 12.776 13.148 12.776h86.352c36.08 0 48.5-25.62 48.5-42.54 0-19.264-8.588-32.508-27.088-39.4" fill="#4ABDD2"></path></svg>