<svg viewBox="0 0 1024 1024" version="1.1" xmlns="http://www.w3.org/2000/svg"><path d="M60.5 433L1.6 507.2c-1 1.2-1.6 2.8-1.6 4.6 0 1.7 0.6 3.3 1.6 4.6l58.9 74.2h120.9l58.9-74.2c1-1.2 1.6-2.8 1.6-4.6 0-1.8-0.6-3.4-1.6-4.6L181.4 433H60.5z m82.9 7.4l56 71.1-56 71.1V440.4z m-100.9 71l56-71.1v142.2l-56-71.1z" fill="#EA5406"></path><path d="M872.1 467.9v10.4h12.8v4.3c0 0.9-0.8 1.7-1.8 1.7h-11v28.3h12.8v4.3c0 0.9-0.8 1.7-1.8 1.7h-25.6c-3.6 0-6.5-2.7-6.5-6v-21.8h7.5v20.3c0 0.8 0.7 1.5 1.6 1.5h2.9v-28.4h-12v-6h12v-10.3h-9.4v-6h29.6v4.3c0 0.9-0.8 1.7-1.8 1.7h-9.3z m3.6 40.8l1.1-20.3h6.9l-0.8 18.9c-0.1 0.8-0.8 1.4-1.6 1.4h-5.6z m3.3-70.2c1.3 0 2.5 0.9 2.8 2.2l4.4 17.5h-7c-1.3 0-2.5-0.9-2.8-2.2l-2.9-11.5h-7.8c-1 3.5-2.7 8.1-5.7 12.5-0.5 0.7-1.4 1.2-2.5 1.2h-8.8s5-6.1 8.6-17.5c0.4-1.3 1.5-2.2 3.1-2.2H879z m20 71.6c0 0.9 0.8 1.7 1.8 1.7h5.8l-0.4 3.7c-0.2 1.3-1.5 2.4-2.9 2.4H897c-3.9 0-7.1-3-7.1-6.7v-69.9c0.2-0.9 0.9-1.5 1.9-1.5h35.6c1.1 0 1.9 0.8 1.9 1.8v32.6c0 3.3-2.8 6-6.3 6h-24v29.9z m0.1-46.8v10.9h19.4c0.9 0 1.5-0.6 1.5-1.5v-26.8h-20.9v10.9h17.2v4.8c0 0.9-0.8 1.7-1.8 1.7h-15.4z m30.3 21.4l-14.1 14.9 17.6 18.4h-10.4c-1.2 0-2.3-0.5-3.1-1.4l-14.6-15c-0.6-0.6-0.9-1.3-0.9-2s0.3-1.4 0.9-2l11-11.6c0.8-0.8 1.9-1.4 3.1-1.4h10.5z m-127.1 0.1v5.5h37.1v4.3c0 0.9-0.8 1.7-1.8 1.7h-35.3v22.2h-10v-22.2h-13.4c-1.2 10.7-4.1 17.3-5.8 20.3-0.7 1.1-2 1.9-3.5 1.9h-9.1c5-7.1 7.1-17.5 7.9-22.2h-13.3v-6h37.1v-5.5h-30.9v-6h30.9v-5.5h-33.6v-6h16.2l-3.7-8.5h9.7c0.8 0 1.6 0.5 1.9 1.2l3.2 7.3H808c1.3-1.8 3.2-4.5 4.7-8.4h10.5s-0.8 4.6-3.9 8.4h16.4v4.3c0 0.9-0.8 1.7-1.9 1.7h-31.7v5.5H833v4.3c0 0.9-0.8 1.7-1.8 1.7h-28.9z m218-37.5c0 0.9-0.8 1.7-1.8 1.7h-44.9v-6.8h46.8v5.1z m-49.2 15.9h52.3v5.2c0 0.9-0.8 1.7-1.9 1.7h-9.4v40.4c0 4.1-3.6 7.4-8.1 7.4h-15.2c-1.6 0-3.1-1.2-3.3-2.7l-0.5-4.1h14.9c1.1 0 2-0.8 2-1.8v-39.2h-30.8v-6.9z m-418.2-15.1c1.2 0 2.2 0.9 2.2 2v45.7c0 3.7-3.2 6.6-7.2 6.6h-29v16.1h-11.2v-16h-36.3v-52.8c0.2-0.9 1.1-1.7 2.2-1.7h34.1v-9.5h11.2v9.5h34z m-44.6 47.7v-41.3h-25.2v41.2h25.2z m35.7-1.7v-39.6h-25.2v41.2h23.4c1 0.1 1.8-0.7 1.8-1.6z m86.2-45.1h11.6l8.7 59.1h-8.7c-1.8 0-3.4-1.2-3.6-2.8l-8-56.3zM603 509v-70.5h11.2v71.8c0 4.5-4 8.2-8.9 8.2h-9.8c-1.8 0-3.4-1.3-3.6-3l-0.6-4.6h9.4c1.3 0.1 2.3-0.8 2.3-1.9z m225.8-68.6c-1.1 4.7-2.8 7.9-3.7 9.4h14.3v4.2c0 0.9-0.8 1.7-1.8 1.7h-82.5v-5.9h14.7l-4.1-9.4h8c0.8 0 1.6 0.5 1.9 1.2l3.6 8.2h4.3v-11.3h9.6v11.3h8.5v-11.3h9.6v11.3h4.4c2.2-3.2 3.5-8.2 3.5-8.2 0.3-0.7 1.1-1.2 1.9-1.2h7.8z m-263.9 67.7c3.1-8.4 8.8-25.2 9.5-59.1h11.4c0 16-2.8 44.2-7.9 56.8-0.5 1.3-1.9 2.2-3.5 2.2h-9.5z m252.3-8.6h10.5l6.1 18.5h-8c-1.5 0-2.9-1-3.4-2.3l-5.2-16.2z m140.4-38.9c0.8-1 2.3-1.8 3.9-1.8h9.6s-3 4.3-7.5 9.5v49.6h-9.5v-40.1c-0.9 0.8-1.9 1.6-2.8 2.2-0.8 0.6-1.9 1-3 1h-11v-0.6c2.8-2.1 12.8-9.8 20.3-19.8z m-8.8 0.1H938l-0.1-0.6c2.6-2.1 11.5-9.9 17.7-19.8 0.6-1 2-1.8 3.6-1.8h9.5s-7.8 13.7-17 21.2c-0.8 0.6-1.8 1-2.9 1z m-639.6-9.2v-3.9h-33.5v-5.1h33.5v-4.6h11.7v4.5h33.5v3.4c0 0.9-0.8 1.7-1.8 1.7h-31.7v3.9h28.7v3.2c0 0.9-0.8 1.7-1.8 1.7h-67.1v-4.9h28.5z m11.7 57.3v3.4h38.5v4.1c0 0.9-0.8 1.7-1.8 1.7h-86.8v-5.7h38.5v-3.4h-28.7V504h28.7v-3.4h-21.4c-2.2 0-4-1.7-4-3.7 0-0.9 0.3-1.7 0.9-2.3l4.7-5.2h-5.2v-4.6H346v2.9c0 0.9-0.8 1.7-1.8 1.7h-42.5l-6 6.5h37.1c0.9 0 1.6-0.7 1.6-1.5V492H346v2.6c0 3.3-2.9 5.9-6.5 5.9H321v3.5h28.7v3.1c0 0.9-0.8 1.7-1.8 1.7h-27z m26.7-49.3c1.1 0 2 0.8 2 1.8v6.4c0 3.3-2.9 5.9-6.5 5.9h-63v-12.7c0.2-0.8 1-1.5 1.9-1.5h65.6z m-7.9 8.3v-4.1h-49.8v5.5h48.3c0.8 0.1 1.5-0.5 1.5-1.4z m13.2 9.5c3.6 0 6.5 2.6 6.5 5.9v8.2h-9.6v-7.9c0-0.8-0.7-1.4-1.6-1.4h-67.8v9.4h-9.6v-12.4c0-1 0.9-1.8 2-1.8h80.1z m32.9-19.1h-9.5l-6.5-17.8h8.1c0.9 0 1.6 0.5 1.9 1.2l6 16.6z m49.9-11.5c0 0.9-0.9 1.7-2 1.7h-22v-4.8h7.6v-5h8.8v5h7.6v3.1z m-1.9 7.4c0 0.9-0.9 1.6-2 1.6h-18.3v-4.3h20.3v2.7z m-20.3 9.1v-4.3h20.3v2.7c0 0.9-0.9 1.6-2 1.6h-18.3z m0 20.3v-15.3c0.2-0.8 0.9-1.3 1.9-1.3H432c1 0 1.9 0.7 1.9 1.6v9.7c0 3-2.8 5.3-6.2 5.3h-14.2z m6.8-13v9.2h5.2c0.9 0 1.6-0.6 1.6-1.3v-7.9h-6.8z m-32.6-5.4c0-0.6 0.2-1.2 0.6-1.8l6.9-8.8h-3.7c-2.1 0-3.7-1.5-3.7-3.3 0-0.6 0.2-1.2 0.6-1.7l8-10.3c0.4-0.5 1-0.8 1.7-0.8h8l-8.4 10.8h9.6c0.4 0 0.6 0.2 0.6 0.5 0 0.1 0 0.2-0.1 0.3l-11 14h4.7c0.9 0 1.7-0.7 1.7-1.5v-3.2h8v2.9c0 3.3-3.1 6-6.9 6h-1.1v3.5l5.8 2.1c0.7 0.3 1.2 0.9 1.2 1.6v4.1l-7-2.6v6.3h-6.6v-14.8h-5c-2.2 0-3.9-1.5-3.9-3.3z m-7.4 0.5l8.2 23.2c0.3 0.7 0.4 1.5 0.4 2.3 0 0.8-0.1 1.6-0.4 2.3l-8.2 23.2c-0.3 0.7-1 1.2-1.9 1.2h-8l9.4-26.8-9.4-26.8h8c0.9 0.2 1.6 0.7 1.9 1.4z m72.1 38.1c2.1 0 4 1.5 4.2 3.3v0.8l-1.1 6c-0.5 2.7-3.2 4.7-6.4 4.7h-43.7c-1.1 0-2.1-0.8-2.2-1.7l-0.4-3.4h40.6c0.8 0 1.5-0.5 1.6-1.2l0.9-3.8h-51.5c-2-0.1-3.6-1.5-3.6-3.3 0-0.3 0-0.5 0.1-0.8l2.3-7.9c0.2-0.7 1-1.2 1.9-1.2h48.3c0.9 0 1.5-0.6 1.5-1.3v-2.4h-51.4v-4.9h60c1.1 0 1.9 0.7 1.9 1.6v6.1c0 3-2.8 5.5-6.3 5.5h-46.2l-1.2 4h50.7z m-59-22.8c-0.2 0.8-1 1.4-1.9 1.4h-3.8c1-3.3 1.4-6.2 1.6-11.1h5.1c0.1 4.4-0.6 7.9-1 9.7z m58.3-18.2v-3.2h8v2.9c0 3.3-3.1 6-6.9 6h-1.1v3.5l5.8 2.1c0.7 0.3 1.2 0.9 1.2 1.6v4.1l-7-2.6v6.3h-6.6v-15h-5c-2.1 0-3.7-1.5-3.7-3.3 0-0.6 0.2-1.2 0.6-1.8l6.9-8.8H440c-2.1 0-3.7-1.5-3.7-3.3 0-0.6 0.2-1.2 0.6-1.7l8-10.3c0.4-0.5 1-0.8 1.7-0.8h8l-8.4 10.8h9.6c0.4 0 0.7 0.2 0.7 0.5 0 0.1 0 0.2-0.1 0.3l-11 14h4.7c0.8 0.1 1.6-0.5 1.6-1.3z m-9.7 18.2c-0.2 0.8-1 1.4-1.9 1.4h-3.8c1-3.3 1.4-6.2 1.6-11.1h5.1c0.1 4.4-0.5 7.9-1 9.7z m267.9 6.5V512h34.7v4.9c0 0.9-0.8 1.7-1.9 1.7H673c-3.6 0-6.5-2.7-6.5-6v-33.8h10v31.7c0 0.8 0.7 1.5 1.6 1.5h21.5v-56.2H710v25h31.4v4.9c0 0.9-0.8 1.7-1.9 1.7h-29.6z m14.6-47.6c1.7 0 3.3 0.8 4.1 2.1l16 25.6h-9.9c-1.8 0-3.3-0.8-4.1-2.1l-11.2-18.5h-31c-2.9 5.8-7.4 14-12.5 19.4-0.7 0.7-1.7 1.2-2.8 1.2h-12.2s10-10.8 17.3-25.5c0.6-1.3 1.9-2.2 3.6-2.2h42.7z m-419.3 107v6.4h-12.6v34.2h-7.5v-34.2h-12.5v-6.4h32.6z m14.1 9.3c2.3 0 4.3 0.3 5.9 0.9 1.6 0.6 2.8 1.4 3.8 2.5s1.6 2.3 2.1 3.8c0.4 1.5 0.6 3.1 0.6 4.9v18.5c-1.1 0.2-2.7 0.5-4.9 0.9-2.2 0.3-4.7 0.5-7.4 0.5-1.8 0-3.4-0.2-4.9-0.5-1.5-0.3-2.8-0.9-3.9-1.7-1.1-0.8-1.9-1.8-2.5-3-0.6-1.2-0.9-2.8-0.9-4.6 0-1.8 0.4-3.3 1.1-4.5 0.7-1.2 1.6-2.2 2.8-2.9 1.2-0.8 2.5-1.3 4-1.6 1.6-0.3 3.1-0.5 4.8-0.5 0.8 0 1.6 0.1 2.4 0.2 0.9 0.1 1.8 0.3 2.7 0.5v-1.2c0-0.8-0.1-1.6-0.3-2.3-0.2-0.7-0.5-1.4-1-2-0.5-0.6-1.1-1-1.9-1.3-0.8-0.3-1.8-0.5-3-0.5-1.6 0-3.1 0.1-4.5 0.3-1.4 0.2-2.5 0.5-3.3 0.8l-0.9-5.7c0.9-0.3 2.2-0.6 3.9-0.9 1.6-0.5 3.4-0.6 5.3-0.6z m0.6 26.4c2.2 0 3.8-0.1 4.9-0.4v-7.8c-0.4-0.1-0.9-0.2-1.7-0.3-0.7-0.1-1.6-0.2-2.4-0.2-0.8 0-1.6 0.1-2.4 0.2-0.8 0.1-1.5 0.3-2.1 0.6-0.7 0.3-1.2 0.7-1.6 1.3-0.4 0.6-0.6 1.3-0.6 2.1 0 1.7 0.5 2.9 1.5 3.5 1.3 0.6 2.7 1 4.4 1z m27.2-34.4c0 1.3-0.4 2.4-1.3 3.1-0.8 0.8-1.8 1.2-3 1.2s-2.2-0.4-3.1-1.2c-0.9-0.8-1.3-1.8-1.3-3.1 0-1.4 0.4-2.4 1.3-3.2 0.8-0.8 1.9-1.2 3.1-1.2 1.2 0 2.2 0.4 3 1.2 0.9 0.8 1.3 1.9 1.3 3.2z m-0.7 39.4h-7V557h7v30.5z m26.2-19.4c-0.9 3.5-1.9 6.8-2.9 10.1s-2 6.3-3.1 9.3h-5.8c-0.8-1.8-1.6-3.9-2.5-6.2-0.8-2.3-1.7-4.8-2.6-7.4-0.8-2.6-1.7-5.4-2.5-8.3-0.8-2.9-1.7-5.9-2.5-8.9h7.5c0.3 1.7 0.7 3.4 1.2 5.3s0.9 3.8 1.4 5.8c0.5 2 1 3.9 1.6 5.8 0.5 1.9 1.1 3.6 1.6 5.2 0.6-1.8 1.1-3.7 1.7-5.6 0.5-1.9 1.1-3.8 1.6-5.8 0.5-1.9 1-3.8 1.4-5.6 0.4-1.8 0.8-3.5 1.2-5.2h5.4c0.3 1.6 0.7 3.3 1.1 5.2 0.4 1.8 0.9 3.7 1.4 5.6 0.5 1.9 1 3.8 1.6 5.8 0.6 1.9 1.1 3.8 1.7 5.6 0.5-1.6 1-3.3 1.6-5.2 0.5-1.9 1.1-3.8 1.6-5.8s1-3.9 1.5-5.8c0.4-1.9 0.9-3.7 1.2-5.3h7.3c-0.8 3-1.7 6-2.5 8.9-0.8 2.9-1.7 5.7-2.5 8.3-0.9 2.6-1.7 5.1-2.6 7.4-0.9 2.3-1.7 4.4-2.5 6.2h-5.7c-1-2.9-2-6-3.1-9.3-1-3.3-2-6.6-2.8-10.1z m36.6-12c2.3 0 4.3 0.3 5.9 0.9 1.6 0.6 2.9 1.4 3.8 2.5 1 1.1 1.6 2.3 2.1 3.8 0.4 1.5 0.6 3.1 0.6 4.9v18.5c-1.1 0.2-2.7 0.5-4.9 0.9-2.2 0.3-4.7 0.5-7.4 0.5-1.9 0-3.5-0.2-5-0.5s-2.8-0.9-3.9-1.7c-1-0.8-1.9-1.8-2.5-3-0.6-1.2-0.9-2.8-0.9-4.6 0-1.8 0.3-3.3 1-4.5 0.7-1.2 1.6-2.2 2.8-2.9 1.1-0.8 2.5-1.3 4.1-1.6 1.5-0.3 3.1-0.5 4.8-0.5 0.8 0 1.6 0.1 2.4 0.2 0.9 0.1 1.8 0.3 2.7 0.5v-1.2c0-0.8-0.1-1.6-0.3-2.3-0.2-0.7-0.5-1.4-1-2-0.5-0.6-1.1-1-1.9-1.3-0.8-0.3-1.8-0.5-3-0.5-1.7 0-3.1 0.1-4.5 0.3-1.4 0.2-2.5 0.5-3.3 0.8l-0.9-5.7c0.9-0.3 2.2-0.6 3.9-0.9 1.6-0.5 3.5-0.6 5.4-0.6z m0.6 26.4c2.2 0 3.8-0.1 4.9-0.4v-7.8c-0.4-0.1-0.9-0.2-1.6-0.3-0.8-0.1-1.6-0.2-2.5-0.2-0.8 0-1.6 0.1-2.3 0.2-0.8 0.1-1.5 0.3-2.2 0.6-0.6 0.3-1.1 0.7-1.5 1.3-0.4 0.6-0.6 1.3-0.6 2.1 0 1.7 0.5 2.9 1.6 3.5 1 0.6 2.4 1 4.2 1z m19.1-24.8c1.4-0.4 3.2-0.8 5.4-1.1 2.2-0.4 4.7-0.6 7.3-0.6 2.5 0 4.7 0.4 6.3 1 1.7 0.7 3.1 1.6 4.1 2.9 1 1.2 1.7 2.7 2.1 4.5 0.5 1.7 0.7 3.7 0.7 5.7v17.3h-7.2v-16.2c0-1.6-0.1-3-0.3-4.2-0.2-1.1-0.6-2.1-1.1-2.8-0.5-0.7-1.2-1.3-2-1.6-0.8-0.3-1.9-0.5-3.1-0.5-0.9 0-1.9 0-2.9 0.2-1 0.1-1.7 0.2-2.2 0.3v24.8h-7.1v-29.7z m58.4 30.4c-2.1 0-4.2-0.1-6.5-0.2-2.2-0.1-4.1-0.4-5.7-0.8v-39.2c0.8-0.2 1.8-0.3 2.8-0.5 1-0.1 1.9-0.2 3-0.3 1.1-0.1 2-0.1 3-0.2h2.8c2.4 0 4.7 0.2 6.9 0.5 2.1 0.4 3.9 1 5.5 1.8 1.5 0.9 2.7 2 3.6 3.4 0.9 1.4 1.3 3.1 1.3 5.2 0 1.9-0.5 3.5-1.4 4.9-0.9 1.4-2.2 2.4-3.8 3.3 2.4 0.8 4.2 2 5.4 3.6 1.2 1.6 1.8 3.6 1.8 6.1 0 4.2-1.5 7.3-4.6 9.3-3.2 2-7.8 3.1-14.1 3.1z m-5-24.4h5.2c2.8 0 5-0.4 6.6-1.2 1.6-0.8 2.4-2.2 2.4-4.3 0-2-0.8-3.3-2.4-4.2-1.7-0.8-3.8-1.2-6.5-1.2h-3c-0.9 0-1.7 0.1-2.3 0.2v10.7z m0 5.7v12.3c0.8 0.1 1.7 0.1 2.6 0.2 0.9 0 1.7 0.1 2.5 0.1 1.6 0 3-0.1 4.3-0.3 1.3-0.2 2.5-0.5 3.4-1 1-0.5 1.8-1.1 2.3-1.9 0.6-0.8 0.8-1.9 0.8-3.1 0-2.3-0.8-3.9-2.5-4.8-1.7-0.9-4-1.3-7-1.3h-6.4z m54.3 17c-1.4 0.3-3.1 0.7-5.3 1.1-2.2 0.4-4.5 0.6-7.1 0.6-2.4 0-4.5-0.4-6.1-1.1-1.6-0.7-2.9-1.7-3.9-2.9-1-1.3-1.7-2.8-2.1-4.5-0.4-1.7-0.6-3.6-0.6-5.7v-17.2h7v16.1c0 3.3 0.5 5.6 1.4 7 1 1.4 2.6 2.1 4.9 2.1 0.9 0 1.8 0 2.7-0.1 1-0.1 1.7-0.2 2.2-0.3v-24.8h7v29.7z m15.7-4.1c1.9 0 3.3-0.2 4.2-0.7 0.9-0.4 1.3-1.2 1.3-2.3 0-1-0.5-1.8-1.4-2.5-0.9-0.6-2.5-1.4-4.6-2.1-1.2-0.5-2.5-1-3.6-1.5s-2-1.1-2.8-1.9c-0.8-0.7-1.4-1.5-1.8-2.5-0.5-1-0.7-2.2-0.7-3.6 0-2.8 1.1-5 3.1-6.6 2.1-1.6 4.9-2.4 8.6-2.4 1.8 0 3.6 0.2 5.2 0.5 1.7 0.3 2.9 0.6 3.7 1l-1.3 5.7c-0.8-0.4-1.8-0.7-3-1-1.2-0.3-2.7-0.4-4.2-0.4s-2.7 0.2-3.5 0.7c-0.9 0.5-1.4 1.2-1.4 2.2 0 0.5 0.1 1 0.3 1.3 0.2 0.4 0.5 0.8 0.9 1.1 0.5 0.3 1 0.7 1.8 1 0.7 0.3 1.6 0.7 2.6 1 1.7 0.6 3.1 1.2 4.3 1.8 1.2 0.6 2.2 1.3 2.9 2 0.8 0.8 1.3 1.6 1.7 2.6 0.4 1 0.6 2.1 0.6 3.5 0 2.9-1.1 5.1-3.3 6.6-2.2 1.5-5.3 2.2-9.4 2.2-2.7 0-4.9-0.2-6.6-0.7-1.7-0.5-2.8-0.8-3.5-1.1l1.2-5.9c1.1 0.4 2.3 0.8 3.8 1.2 1.3 0.6 3 0.8 4.9 0.8z m25.5-34.2c0 1.3-0.4 2.4-1.3 3.1-0.8 0.8-1.9 1.2-3 1.2-1.2 0-2.2-0.4-3-1.2-0.9-0.8-1.3-1.8-1.3-3.1 0-1.4 0.4-2.4 1.3-3.2 0.9-0.8 1.9-1.2 3-1.2s2.2 0.4 3 1.2c0.9 0.8 1.3 1.9 1.3 3.2z m-0.7 39.4h-7V557h7v30.5z m8.1-29.8c1.4-0.4 3.2-0.8 5.4-1.1 2.2-0.4 4.6-0.6 7.3-0.6 2.5 0 4.6 0.4 6.3 1 1.7 0.7 3 1.6 4 2.9 1 1.2 1.7 2.7 2.1 4.5 0.4 1.7 0.6 3.7 0.6 5.7v17.3h-7.2v-16.2c0-1.6-0.1-3-0.3-4.2-0.2-1.1-0.6-2.1-1.1-2.8-0.5-0.7-1.2-1.3-2-1.6-0.8-0.3-1.9-0.5-3.1-0.5-0.9 0-1.8 0-2.8 0.2-1 0.1-1.7 0.2-2.2 0.3v24.8H585v-29.7z m31.4 14.5c0-2.7 0.4-5 1.2-7.1 0.8-2 1.9-3.7 3.2-5 1.3-1.3 2.8-2.4 4.6-3 1.7-0.7 3.5-1 5.2-1 4.2 0 7.5 1.3 9.9 3.9 2.4 2.6 3.5 6.5 3.5 11.7v1.3c-0.1 0.5-0.1 0.9-0.1 1.3H624c0.2 2.4 1.1 4.4 2.6 5.7 1.5 1.4 3.8 2 6.7 2 1.7 0 3.3-0.2 4.7-0.5 1.4-0.3 2.5-0.6 3.3-1l1 5.8c-0.5 0.2-0.9 0.4-1.7 0.6-0.7 0.2-1.5 0.4-2.3 0.6-0.9 0.2-1.8 0.3-2.9 0.4-1 0.1-2 0.2-3.1 0.2-2.7 0-5-0.4-7-1.2-2-0.8-3.6-1.9-4.9-3.3-1.3-1.4-2.3-3.1-2.9-5-0.6-2-0.9-4.1-0.9-6.4z m20.6-3.1c0-1-0.2-1.9-0.4-2.8-0.2-0.9-0.7-1.6-1.2-2.3-0.5-0.6-1.2-1.1-1.9-1.5-0.7-0.4-1.7-0.6-2.7-0.6-1.1 0-2.1 0.2-2.9 0.6-0.8 0.4-1.5 0.9-2.1 1.6-0.6 0.7-1 1.4-1.3 2.3-0.3 0.9-0.5 1.7-0.7 2.6h13.2z m21.3 13.2c1.8 0 3.2-0.2 4-0.7 0.8-0.4 1.3-1.2 1.3-2.3 0-1-0.5-1.8-1.4-2.5-0.9-0.6-2.4-1.4-4.5-2.1-1.3-0.5-2.4-1-3.5-1.5s-2-1.1-2.7-1.9c-0.8-0.7-1.4-1.5-1.8-2.5-0.4-1-0.7-2.2-0.7-3.6 0-2.8 1-5 3.1-6.6 2.1-1.6 4.8-2.4 8.3-2.4 1.8 0 3.5 0.2 5.1 0.5 1.6 0.3 2.8 0.6 3.6 1l-1.2 5.7c-0.8-0.4-1.7-0.7-3-1-1.2-0.3-2.6-0.4-4.1-0.4-1.4 0-2.6 0.2-3.5 0.7-0.8 0.5-1.3 1.2-1.3 2.2 0 0.5 0.1 1 0.3 1.3 0.1 0.4 0.5 0.8 0.9 1.1 0.4 0.3 1 0.7 1.7 1 0.7 0.3 1.5 0.7 2.5 1 1.6 0.6 3 1.2 4.2 1.8 1.2 0.6 2.1 1.3 2.9 2 0.7 0.8 1.3 1.6 1.6 2.6 0.4 1 0.5 2.1 0.5 3.5 0 2.9-1.1 5.1-3.2 6.6s-5.2 2.2-9.2 2.2c-2.6 0-4.8-0.2-6.4-0.7-1.6-0.5-2.8-0.8-3.4-1.1l1.2-5.9c1 0.4 2.3 0.8 3.7 1.2 1.5 0.6 3.1 0.8 5 0.8z m25.5 0c1.9 0 3.2-0.2 4.1-0.7 0.9-0.4 1.3-1.2 1.3-2.3 0-1-0.5-1.8-1.4-2.5-1-0.6-2.4-1.4-4.6-2.1-1.3-0.5-2.5-1-3.6-1.5s-2-1.1-2.8-1.9c-0.8-0.7-1.4-1.5-1.9-2.5s-0.7-2.2-0.7-3.6c0-2.8 1-5 3.1-6.6 2.1-1.6 4.9-2.4 8.5-2.4 1.8 0 3.5 0.2 5.2 0.5 1.7 0.3 2.9 0.6 3.7 1l-1.3 5.7c-0.8-0.4-1.8-0.7-3-1-1.3-0.3-2.6-0.4-4.3-0.4-1.5 0-2.7 0.2-3.6 0.7-0.9 0.5-1.3 1.2-1.3 2.2 0 0.5 0.1 1 0.2 1.3 0.2 0.4 0.5 0.8 0.9 1.1 0.4 0.3 1 0.7 1.7 1 0.7 0.3 1.5 0.7 2.6 1 1.7 0.6 3.1 1.2 4.3 1.8 1.2 0.6 2.2 1.3 2.9 2 0.7 0.8 1.3 1.6 1.7 2.6 0.3 1 0.5 2.1 0.5 3.5 0 2.9-1.1 5.1-3.3 6.6-2.2 1.5-5.3 2.2-9.4 2.2-2.7 0-4.9-0.2-6.6-0.7-1.7-0.5-2.8-0.8-3.5-1.1l1.2-5.9c1.1 0.4 2.3 0.8 3.8 1.2 2 0.6 3.7 0.8 5.6 0.8z m42.7 5.8c-2.2 0-4.3-0.1-6.5-0.2s-4.1-0.4-5.8-0.8v-39.2c0.9-0.2 1.8-0.3 2.8-0.5l3-0.3c1-0.1 2-0.1 3-0.2h2.9c2.4 0 4.7 0.2 6.8 0.5 2.1 0.4 4 1 5.5 1.8 1.5 0.9 2.7 2 3.6 3.4 0.8 1.4 1.3 3.1 1.3 5.2 0 1.9-0.4 3.5-1.4 4.9-0.9 1.4-2.2 2.4-3.8 3.3 2.4 0.8 4.3 2 5.4 3.6 1.1 1.6 1.7 3.6 1.7 6.1 0 4.2-1.5 7.3-4.5 9.3-3.1 2-7.7 3.1-14 3.1z m-5-24.4h5.2c2.8 0 5-0.4 6.6-1.2 1.6-0.8 2.4-2.2 2.4-4.3 0-2-0.8-3.3-2.5-4.2-1.7-0.8-3.8-1.2-6.5-1.2h-3c-0.9 0-1.6 0.1-2.2 0.2v10.7z m0 5.7v12.3c0.8 0.1 1.7 0.1 2.6 0.2 1 0 1.8 0.1 2.6 0.1 1.5 0 2.9-0.1 4.2-0.3 1.3-0.2 2.4-0.5 3.4-1 0.9-0.5 1.7-1.1 2.3-1.9 0.5-0.8 0.8-1.9 0.8-3.1 0-2.3-0.8-3.9-2.5-4.8-1.6-0.9-4-1.3-6.9-1.3h-6.5z m40.1-13.3c2.3 0 4.3 0.3 5.8 0.9 1.6 0.6 2.9 1.4 3.8 2.5 1 1.1 1.6 2.3 2 3.8 0.4 1.5 0.6 3.1 0.6 4.9v18.5c-1.1 0.2-2.8 0.5-4.9 0.9-2.2 0.3-4.6 0.5-7.4 0.5-1.8 0-3.5-0.2-5-0.5s-2.8-0.9-3.8-1.7c-1.1-0.8-1.9-1.8-2.5-3-0.6-1.2-0.9-2.8-0.9-4.6 0-1.8 0.3-3.3 1-4.5 0.7-1.2 1.6-2.2 2.8-2.9 1.2-0.8 2.5-1.3 4-1.6 1.5-0.3 3.1-0.5 4.8-0.5 0.8 0 1.6 0.1 2.4 0.2 0.8 0.1 1.8 0.3 2.8 0.5v-1.2c0-0.8-0.1-1.6-0.3-2.3-0.2-0.7-0.5-1.4-1.1-2-0.5-0.6-1.1-1-1.9-1.3-0.8-0.3-1.8-0.5-3.1-0.5-1.6 0-3.1 0.1-4.5 0.3-1.4 0.2-2.5 0.5-3.3 0.8l-0.8-5.7c0.9-0.3 2.2-0.6 3.9-0.9 1.9-0.5 3.7-0.6 5.6-0.6z m0.6 26.4c2.2 0 3.8-0.1 5-0.4v-7.8c-0.4-0.1-1-0.2-1.7-0.3-0.7-0.1-1.6-0.2-2.4-0.2-0.8 0-1.6 0.1-2.4 0.2-0.8 0.1-1.5 0.3-2.2 0.6-0.6 0.3-1.1 0.7-1.6 1.3-0.4 0.6-0.6 1.3-0.6 2.1 0 1.7 0.5 2.9 1.6 3.5 1.1 0.6 2.5 1 4.3 1z m19.1-24.8c1.4-0.4 3.2-0.8 5.4-1.1 2.2-0.4 4.7-0.6 7.3-0.6 2.5 0 4.6 0.4 6.3 1 1.7 0.7 3 1.6 4.1 2.9 1 1.2 1.7 2.7 2.1 4.5 0.4 1.7 0.6 3.7 0.6 5.7v17.3h-7.1v-16.2c0-1.6-0.1-3-0.4-4.2-0.2-1.1-0.6-2.1-1-2.8-0.5-0.7-1.2-1.3-2-1.6-0.9-0.3-1.9-0.5-3.1-0.5-0.9 0-1.9 0-2.8 0.2-1 0.1-1.7 0.2-2.2 0.3v24.8h-7.1v-29.7z m40.3 11l10.9-12h8.4l-12.7 13.7 13.4 17h-8.2l-11.8-14.1v14.1h-7.1V543l7.1-1.2v26.9z" fill="#757876"></path></svg>