<svg viewBox="0 0 1024 1024" version="1.1" xmlns="http://www.w3.org/2000/svg"><path d="M644.167 513.975h28.402v6.668h-20.7v8.769h19.264v6.649h-19.264v10.69h21.407v6.663h-29.11v-39.439z m48.36 34.985a4.914 4.914 0 0 1-4.915 4.924c-2.733 0-4.945-2.203-4.945-4.924a4.932 4.932 0 0 1 4.945-4.936 4.914 4.914 0 0 1 4.914 4.936z m20.881-7.513c0.249 1.762 0.74 3.082 1.462 3.951 1.33 1.586 3.613 2.374 6.847 2.374 1.935 0 3.496-0.212 4.705-0.622 2.3-0.81 3.441-2.297 3.441-4.482 0-1.275-0.563-2.266-1.7-2.973-1.128-0.675-2.914-1.275-5.336-1.81l-4.168-0.915c-4.069-0.914-6.888-1.91-8.43-2.973-2.599-1.788-3.902-4.595-3.902-8.397 0-3.464 1.258-6.351 3.802-8.653 2.54-2.288 6.266-3.441 11.182-3.441 4.096 0 7.605 1.09 10.501 3.239 2.9 2.162 4.416 5.301 4.556 9.41h-7.736c-0.149-2.284-1.173-3.906-3.094-4.874-1.277-0.64-2.86-0.955-4.764-0.955-2.124 0-3.807 0.419-5.065 1.247-1.254 0.834-1.886 1.987-1.886 3.482 0 1.374 0.61 2.397 1.85 3.073 0.82 0.441 2.512 0.977 5.101 1.59l6.748 1.612c2.95 0.703 5.16 1.635 6.645 2.807 2.287 1.828 3.432 4.46 3.432 7.9 0 3.546-1.357 6.474-4.095 8.807-2.711 2.347-6.545 3.509-11.516 3.509-5.075 0-9.049-1.153-11.963-3.446-2.913-2.288-4.352-5.446-4.352-9.46h7.735z m36.868-26.533h8.2v23.914c0 2.672 0.31 4.628 0.93 5.865 0.985 2.178 3.102 3.265 6.375 3.265 3.26 0 5.381-1.087 6.348-3.265 0.634-1.237 0.94-3.193 0.94-5.865v-23.914h8.195v23.914c0 4.13-0.634 7.34-1.888 9.65-2.392 4.23-6.91 6.345-13.595 6.345-6.68 0-11.212-2.115-13.599-6.345-1.272-2.31-1.906-5.52-1.906-9.65v-23.914z m46.012 0h8.475l15.427 26.791v-26.79h7.555v38.499h-8.103l-15.817-27.306v27.306h-7.537v-38.5z m79.39 0c4.74 0.072 8.114 1.434 10.083 4.105 1.192 1.635 1.796 3.616 1.796 5.888 0 2.357-0.604 4.256-1.778 5.672-0.667 0.816-1.642 1.55-2.926 2.205 1.969 0.717 3.447 1.837 4.44 3.397 1.017 1.55 1.488 3.423 1.488 5.636 0 2.277-0.549 4.316-1.719 6.126a10.649 10.649 0 0 1-2.766 3.029c-1.23 0.927-2.7 1.573-4.391 1.927-1.692 0.35-3.52 0.515-5.502 0.515h-17.548v-38.5h18.823z m-1.41 21.58h-9.64v10.302h9.526c1.7 0 3.002-0.229 3.968-0.672 1.701-0.852 2.563-2.46 2.563-4.822 0-2.025-0.834-3.396-2.5-4.158-0.92-0.412-2.24-0.632-3.918-0.65z m-1.176-14.961h-8.463v8.585h9.443c1.701 0 3.066-0.318 4.123-0.963 1.052-0.641 1.583-1.788 1.583-3.415 0-1.82-0.699-3.011-2.091-3.598-1.202-0.412-2.735-0.61-4.595-0.61z m24.14 31.881l13.814-38.5h9.152l13.656 38.5h-8.756l-2.538-7.931h-14.236l-2.637 7.931h-8.455z m18.305-29.704l-5.017 15.16h9.894l-4.877-15.16z m27.707-8.796h8.466l15.47 26.791v-26.79h7.522v38.499h-8.09l-15.832-27.306v27.306h-7.536v-38.5z m46.012 0h8.068v15.858l14.932-15.858h10.472l-15.866 15.876 16.668 22.624h-10.395l-11.937-16.785-3.874 3.911v12.874h-8.068v-38.5z m-653.57 22.542h18.048v-52.308h12.953v69.675h-12.953V550.1l-49.662-0.13-0.121 4.468h-13.325v-69.91h13.325v52.927l18.294-0.12v-64.208h13.441v64.328z m222.56-57.582c-6.103 7.848-13.943 16.072-22.312 21.424l-5.858-12.08c6.481-4.103 12.585-10.342 17.59-16.56 3.485 2.361 6.97 4.865 10.58 7.216z m4.226 6.87v-12.208h45.543v12.208h-45.543z m49.299 13.467v11.87h-12.237l-0.251 33.994c-0.493 2.596-2.619 4.944-4.99 6.055-5.606 2.343-12.708 1.485-18.945 1.485l-4.87-12.36 14.967-0.249c0.624-0.244 1.13-0.982 1.377-1.609l0.112-27.196-28.657-0.24c-0.13-2.97 0.117-6.064-0.251-8.78-1.121 2.111-2.61 4.2-4.116 6.184v44.988h-12.475c-0.112-9.772 0.135-19.65-0.112-29.414-2.12 1.6-4.125 3.579-6.12 5.317l-5.596-13.355c8.474-6.176 14.703-14.703 19.819-23.115l8.851 6.314 53.494 0.11z m-151.333 5.696c4.6 0 9.57 0.254 14.04-0.236-0.116-1.25 0.384-2.982-0.5-3.84h-13.67c-0.237 1.12-0.492 3.217 0.13 4.076z m-1.006 32.926c2.865-0.25 5.605-1.25 8.207-2.11-2.602-5.826-4.095-12.003-5.087-18.439 0.241-1.98-2.37-1.486-3.12-0.859v21.408z m0.639-51.476c0.237 1.232-0.64 3.209 0.621 3.703h13.42l0.366-0.245c-0.116-1.362 0.25-2.964-0.367-3.961h-13.419l-0.621 0.503z m-12.677 53.572v-45.41c-1.127 1.74-1.757 3.966-3.116 5.692-0.63 0-1.233-1.121-1.86-0.494-0.116 1.607 0.13 3.218-0.245 4.696-2.74 0-5.476-0.116-8.078 0.129v2.72l11.43 0.253-0.12 11.127h-11.569v17.695c2.986-0.12 5.472-0.859 8.082-1.606l-6.955-1.607-0.255-0.619 2.61-12.622c3.107 0.619 6.218 1.238 9.08 2.235-0.873 4.076-1.369 8.287-2.611 12.368 0.125 0.245 0.254 0.872 0.75 0.748 0.228 1.473 0 3.088 0.126 4.695h2.73z m-18.52-53.328c-1.622 2.101-3.115 4.206-4.353 6.552l9.7-0.13c-0.997-2.46-3.362-4.45-5.347-6.422z m56.797 51.232c1.247 1.722 3.227 2.715 4.966 3.956v0.74c-0.366 0.493-0.366 1.12-0.871 1.12-0.492 1.113-1.118 1.852-1.74 2.72-0.254 0.365-0.254 1.113-0.862 1.113 0 0.61-0.375 0.863-0.63 1.348-0.496 0.254-0.751 1.002-1.238 1.376-0.367 0.988-0.997 1.726-1.493 2.59-0.877 0.249-0.501-0.125-1.373 0-0.733-0.739-1.502-1.246-2.48-1.732 0-0.992-1.248-0.747-1.368-1.74-0.622-0.605-1.493-0.868-1.86-1.842-0.997-0.258-0.997-1.607-2.114-1.87 0-1.232-1.502-0.85-1.502-2.1-0.622 0.249-0.112-0.61-0.488-0.61-0.742-0.374-0.876-1.366-1.609-1.607-0.138-0.872-0.505-1.486-1.256-1.86l-0.621 0.374v7.909c-0.993 1.001-2.977 0.738-4.354 1.112-1.234 0.637-2.847 0.637-4.229 1.002-2.226 0.485-4.327 1.121-6.817 1.362-0.63 0.738-2.49-0.24-2.986 0.738-1.868-0.494-2.355 0.864-4.224 0.619-0.885 0.245-2.61 0.494-3.477 0-0.376-1.851 0.742-4.58-1.248-5.452-10.312 2.225-20.875 4.21-31.576 5.697l-0.604-12.373 10.563-0.868 2.235-0.983 0.116-19.93-12.547-0.245v-10.882h12.431c0.116-0.993 0-2.114 0.116-3.102l-6.33-0.116c-0.124-0.877 0.233-2.1-0.375-2.72l-3.232 1.972c-1.747-4.334-3.24-8.9-4.59-13.236 6.459-5.069 11.792-11.51 15.408-18.185h11.05c2.977 5.19 7.335 11.135 12.932 14.09l0.237-12.612h39.399v42.192h-12.422c-1.502 1.112-0.13 3.346 0.12 4.958 0.367 0.365 0.255 1.362 1.373 0.988 0.733-0.494 1.604-0.748 2.105-1.487 1.623-0.614 2.62-2.354 4.104-2.973 0.25 0 0.12-0.25 0.12-0.374 0.496 0.125 0.63-0.231 0.872-0.485 0.742 0.61 1.627 1.349 1.877 2.59 0.604 0.13 0.604 0.993 1.109 1.367 0.358 0.24 0.5 0.868 0.742 1.241 0.621 0.236 0.492 0.984 0.997 1.487 0.621-0.254 0.13 0.494 0.496 0.494 1.117 0.245 0.621 1.731 1.618 1.967v0.997c-0.134 0-0.375-0.129-0.5 0.125v0.231c-0.121 0.134-0.367 0-0.367 0.134v0.374c-0.246 0-0.496-0.134-0.751 0.129v0.365c-0.13 0-0.496-0.12-0.617 0.129v0.244c-0.134 0.112-0.384-0.12-0.5 0.112v0.374c-0.121 0-0.488-0.12-0.617 0.133v0.25c-0.255 0.124-0.501 0-0.622 0.124-0.13 0.494-0.75 0.494-0.988 0.868-1 0.61-1.743 1.357-2.87 1.86v0.365c-0.867-0.498-0.5 0.614-0.867 0.739-0.12 1.242 0.868 1.242 1.118 2.11 0.612 0.618 1.484 0.854 1.739 1.73 0.88 0 0.375 1.105 1.372 0.869z m-72.897 0.183c-0.124 0.499-0.634 0.252-1.14 0.252l-0.375-0.252-0.908-15.337c1.789-0.37 3.45-0.852 5.22-1.223 1.39-0.119 2.914-0.984 4.178-0.119 0.242 4.66 1.524 9.436 1.391 14.481-0.25 0.724-1.514 0.613-2.28 0.975-2.03 0.362-4.056 0.852-6.086 1.223z m-165.209-51.524l-29.375 0.045-0.25 0.25v17.826l27.642 0.236v12.626h-27.759l-0.12 22.408 33.485 0.125v12.876H170.9v-12.747l33.351-0.13v-22.403l-27.378-0.129V505.73h27.378v-18.326l-29.232-0.249v-12.618h72.554l-0.009 12.956z m-8.396 37.99c1.132 1.71 1.503 4.028 1 6.235-0.629 2.326-2.902 4.766-5.288 5.377-3.264 0.977-6.41-0.123-8.683-2.449-1.381-1.578-1.884-3.548-1.752-5.738 0.24-2.937 2.644-5.865 5.528-6.604 3.404-0.976 7.18 0.123 9.195 3.179z m-121.183-35.434c9.095 23.025 2.655 50.214-15.797 66.456-15.918 14.348-39.55 19.638-60.657 12.59C17.905 561.284 1.349 540.005 0.09 515.091c-1.274-23.532 11.118-44.812 31.837-56.011 18.957-10.822 47.39-9.054 64.703 4.034 9.474 6.419 17.061 16.49 21.356 26.933z m-60.082-10.216c-3.538-1.002-7.211-1.631-10.998-2.009-1.518 0.378-2.408 2.01-3.167 3.012-2.277 3.151-3.29 7.049-5.937 10.19-0.768 1.38-2.657 0.756-3.664 1.768-2.278 0-4.306 0.755-6.204 1.888-0.122 0.251-0.244 0.629-0.624 0.499-0.515 1.011-1.274 1.888-2.024 2.89-1.907 2.517-5.444 3.282-8.101 4.783-3.28 1.888-6.574 3.655-9.231 6.532l0.145 0.135c-1.397 2.018-3.425 3.142-4.812 5.03 1.387-0.369 1.138-2.005 2.778-1.758 0.38 1.003-0.89 1.39-1.012 2.01 0.51-0.252 1.139-0.62 1.65-0.5-0.258 0.756-0.882 1.134-1.528 1.633 0.646-0.252 0.502 0.377 0.76 0.512 0.627 0.112 1.658-1.011 2.534-0.512-0.759 0.755-1.645 1.64-2.146 2.014v0.13c0.501 0 0.88 0 1.13-0.378 0.88-0.126 1.64-1.389 2.408-1.51l-1.392 1.888 1.51-1.133c0.388 0.5-0.886 0.877-0.25 1.385 1.14-0.508 1.388-1.641 2.409-2.14-0.131 1.011-1.27 1.758-1.771 2.643 0.501-0.503 2.02-0.885 1.77-1.888 1.008-1.011 2.27-1.767 3.028-3.02 2.779-3.022 4.803-6.164 8.983-7.04 0.126 0.12-0.253 0.242 0 0.12 2.268-1.887 5.815-1.887 7.96-4.153 0.38-0.499 1.008-1.501 1.898-1.254v-0.247c0.132-0.508 0.638-0.886 1.27-0.765l0.127 0.504c1.762-2.014 4.798-1.259 6.194-3.147v0.256c2.02-0.624 3.412-2.521 4.55-4.023 0.76-1.133 1.256-2.396 2.277-3.151 0.628-1.007 1.008-2.266 2.025-3.142 1.138-0.122 2.647-0.257 3.786 0.13 1.514 2.005 4.17 0.872 6.448 1.002 0.126 1.133 1.256 0 1.396 1.133 1.888 0.877 2.52 3.637 4.166 5.16-1.017 0.626-2.278 1.637-2.535 3.022-1.631 0.247-0.113 2.01-1.771 2.135 0.52-0.634 1.522-0.634 2.028 0l-0.37 0.378c-1.907 0.876-3.796 2.14-5.693 3.263l0.257 0.266c-0.515 0.368-1.016 1.002-1.405 1.245h0.389c0.38 0.135 0.257 0.634 0.257 0.512 0.624 0 1.26-0.89 1.762-0.377 0.127 0.121-0.13 0.251-0.13 0.377 0.645-0.89 1.395 0.122 1.775 0.122a63.62 63.62 0 0 1-3.036 2.396h1.012c-0.38 1.132-1.762 0.737-2.4 1.748 0.76 0 0.25 0.886 0 1.007 0.502-0.121 1.017-0.737 1.64-0.368-0.379 0.872-1.508 1.002-1.64 2.005 0.873-0.495 1.388-2.005 2.526-1.502 0.122 0.369-0.75 0.5-0.38 1.124 0.502-0.117 0.89-0.755 1.519-0.494 0.253 0 0.501 0.247 0.38 0.494 0.51-0.625 1.509 0 2.028-0.494 1.762-2.388 5.17-2.01 7.713-3.152l-0.131-0.62c0.38-1.51 2.652-1.133 3.917-1.636 0.389-1.52 2.409-0.378 3.037-1.763 0.759-0.624 1.391 0.243 2.15 0.243 1.017-0.499 2.4-0.377 3.294-0.867 2.4-0.508 4.419 2.387 5.806 3.767 3.167 3.767 7.844 6.54 11.761 8.42-2.15-1.502-4.419-2.513-6.574-4.145 0.127-0.378 0.515-0.247 0.76-0.247 1.897 1.38 3.786 2.382 5.692 3.645 3.909 3.142 8.72 5.786 13.018 7.552l-0.629-0.512c0.127-0.121-0.13-0.378 0.127-0.499l0.881 0.499c0.122-0.499 0.76-0.499 1.139-0.63-0.637-1.123-2.278-1.5-3.416-2.144-3.285-1.879-7.333-3.888-10.239-6.653l0.127-0.126c3.66 2.257 7.464 4.779 11.63 6.541 0.637 1.259 1.65 0.495 2.657 0.881-0.258-0.135-0.76-0.135-0.76-0.512h2.02c-0.38-1.255-2.268-0.747-3.036-1.88 0.768-0.251 1.776 0.127 2.526 0.504v-0.135c-0.37-0.242-1.26-0.242-1.008-0.998-5.815-2.144-10.993-5.794-15.918-9.44-4.053-2.257-6.203-7.674-10.758-9.184-0.75-1.007-1.007-2.01-1.649-3.142l-0.497 0.256c-0.881-1.011-1.012-2.266-1.64-3.277-0.637-0.877-1.907-1.133-2.788-1.133-1.387 0.764-3.538-0.499-4.423 0.256l0.759 0.369c-0.253 0.387-0.502 0.764-1.139 0.638-2.779-2.018-5.187-5.03-7.333-7.673 1.138-3.152-3.036-3.898-4.555-6.163-2.15-1.641-4.929 0-7.075 0.624z" fill="#009D96"></path></svg>