<svg viewBox="0 0 1024 1024" version="1.1" xmlns="http://www.w3.org/2000/svg"><path d="M305.8 602.3c0 2.8-0.3 4.6-0.9 5.4-0.5 0.6-1.9 0.9-4.3 0.9h-26c-1.7 0-2.6-0.5-2.6-1.4 0-0.4 0.3-0.8 0.8-1.1 0.5-0.3 1.1-0.7 1.8-1.1 0.6-0.4 0.9-1.5 0.9-3.4v-30.7c0-1.4-0.2-2.4-0.6-2.9-0.2-0.3-0.7-0.7-1.8-1.2-0.7-0.4-1.1-0.9-1.1-1.4 0-0.9 0.9-1.4 2.6-1.4h7.4c2 0 3 0.4 3 1.3 0 0.6-0.3 1-0.8 1.4-0.7 0.3-1.4 0.6-2 0.9-0.8 0.5-1.2 1.7-1.2 3.4v29.7c0 2.2 0.4 3.5 1.2 4.1 0.8 0.4 2.9 0.6 6.5 0.6 5.5 0 9.4-0.6 11.9-1.9 0.5-0.2 1.3-0.8 2.5-1.6 0.8-0.6 1.5-0.9 1.9-0.9 0.5-0.1 0.8 0.4 0.8 1.3z m30.3-13.1c-2.1-6.4-4.7-12.9-7.8-19.6-3.1 6.4-5.7 12.9-7.9 19.6h15.7z m12.8 18.3c0 0.8-1.1 1.2-3.2 1.2h-5.4c-1.8 0-2.7-0.5-2.7-1.5 0-0.5 0.2-1 0.7-1.4 0.1 0 0.7-0.3 1.7-1 0.3-0.2 0.5-0.7 0.5-1.4 0-1.2-1-4.7-3.1-10.4h-18.2c-1.8 5.2-2.7 8.7-2.7 10.5 0 0.7 0.4 1.4 1.1 1.9 0.5 0.2 0.9 0.5 1.3 0.8 0.4 0.2 0.6 0.6 0.6 1.2 0 0.9-0.9 1.4-2.6 1.4h-5.1c-1.8 0-2.6-0.5-2.6-1.4 0-0.3 0.2-0.7 0.7-1.1 0.5-0.4 0.8-0.6 0.9-0.8 0.3-0.5 1.1-2.7 2.4-6.8 1.7-5.4 3.4-10.3 5.1-14.8 5.4-14.4 8.9-21.6 10.4-21.6 0.9 0 2.4 2.1 4.6 6.4 2.4 4.8 5 11.1 7.8 19.1 1.1 3.2 2.2 6.9 3.5 11.1 1 3.1 1.6 5 1.8 5.6 0.1 0.2 0.6 0.7 1.4 1.4 0.8 0.4 1.1 0.9 1.1 1.6z m45.6-44.1c0 0.6-0.3 1.1-1 1.5-1.1 0.5-1.7 0.9-1.8 1-0.6 0.6-0.9 1.9-0.9 3.9v35.4c0 1.4 0 2.3-0.1 2.7-0.2 0.5-0.5 0.8-1.1 0.8-0.6 0-1.3-0.6-2.1-1.7l-3-5.1c-7.2-12-15-23.1-23.5-33V599c0 1.9 0.2 3.3 0.5 4.3 0.2 0.6 0.8 1.1 1.7 1.5 0.7 0.2 1.4 0.5 2.1 0.7 0.5 0.2 0.8 0.6 0.8 1.2 0 0.9-1 1.4-2.9 1.4H355c-1.6 0-2.5-0.4-2.5-1.1 0-0.6 0.2-1 0.5-1.2 0.8-0.2 1.8-0.8 3.1-1.7 0.6-0.9 0.9-3.2 0.9-6.9v-26.8c0-1.9-0.1-3.1-0.4-3.5-0.2-0.4-0.9-0.8-2.1-1.2l-1.7-0.7c-0.4-0.3-0.6-0.7-0.6-1.2 0-1 0.9-1.5 2.7-1.5h4.9c1.2 0 2 0.1 2.3 0.2 0.9 0.4 3.6 3.5 8 9.4 5.9 7.7 11.5 15.8 16.8 24.2v-25.4c0-2.7-0.2-4.3-0.5-4.7-0.2-0.2-0.7-0.5-1.6-0.9-0.8-0.3-1.3-0.5-1.3-0.5-0.4-0.2-0.5-0.5-0.5-1 0-0.9 0.8-1.3 2.3-1.3h5.9c2.2-0.1 3.3 0.3 3.3 1.1z m40.2 21.1c0-6.2-1.6-10.9-4.8-14.2-3.1-3.3-7.7-4.9-13.7-4.9-2.8 0-4.5 0.4-5.2 1.2-0.7 0.8-1.1 2.3-1.1 4.5v24.5c0 3.5 0.3 5.7 0.8 6.5 0.6 1.1 2.3 1.7 5 1.7 6.1 0 10.8-1.7 14.1-5 3.3-3.2 4.9-8 4.9-14.3z m6.2 0c0 7-2.1 12.5-6.4 16.5-4.2 3.9-10.3 5.9-18 5.9h-12.7c-1.7 0-2.5-0.5-2.5-1.4 0-0.4 0.3-0.8 0.8-1.1 0.5-0.3 1.1-0.7 1.8-1.1 0.6-0.4 0.9-1.5 0.9-3.4v-30.6c0-1.4-0.2-2.4-0.6-2.9-0.2-0.3-0.7-0.7-1.8-1.2-0.7-0.4-1.1-0.9-1.1-1.4 0-0.9 0.7-1.4 2.1-1.4h1.2c0.9 0 1.8 0.1 2.7 0.1 1.2 0 2.9 0 5.1-0.1 2.2 0 3.8-0.1 4.8-0.1 7.3 0 13.1 2 17.3 6.1 4.3 3.9 6.4 9.3 6.4 16.1z m59.1 11.8c0-2.5-0.9-4.6-2.8-6.4-1.9-1.8-4.5-2.9-7.9-3.5-5.4 1.3-9 2.1-10.9 2.3V600c0 2.4 0.5 3.9 1.5 4.6 0.7 0.4 2.7 0.6 5.9 0.6 9.5 0.1 14.2-2.9 14.2-8.9z m-2.8-22.5c0-2.4-0.9-4.1-2.8-5.1-1.8-1-4.7-1.6-8.6-1.6-3.6 0-5.7 0.3-6.4 0.9-0.7 0.5-1.1 2-1.1 4.5v12.9c12.6-2.1 18.9-6 18.9-11.6z m8.7 22.7c0 4.2-1.6 7.5-4.9 9.7-1.6 1.1-3.4 1.8-5.6 2.1-1.3 0.2-3.6 0.3-6.8 0.3h-16.5c-1.7 0-2.5-0.5-2.5-1.4 0-0.4 0.3-0.8 0.8-1.1 0.5-0.3 1.1-0.7 1.8-1.1 0.6-0.4 0.9-1.5 0.9-3.4v-30.7c0-1.4-0.2-2.4-0.6-2.9-0.2-0.3-0.7-0.7-1.8-1.2-0.7-0.4-1.1-0.9-1.1-1.4 0-0.9 0.8-1.4 2.5-1.4h17.4c9 0 13.4 3.3 13.4 10 0 2.1-0.8 4.1-2.4 5.8-1.7 1.9-4.1 3.5-7.2 4.6 3.9 0.5 6.9 1.8 9.2 4 2.3 2.1 3.4 4.8 3.4 8.1z m31.1-7.3c-2.1-6.4-4.7-12.9-7.8-19.6-3.1 6.4-5.7 12.9-7.9 19.6H537z m12.8 18.3c0 0.8-1.1 1.2-3.2 1.2h-5.4c-1.8 0-2.7-0.5-2.7-1.5 0-0.5 0.2-1 0.7-1.4 0.1 0 0.7-0.3 1.7-1 0.3-0.2 0.5-0.7 0.5-1.4 0-1.2-1-4.7-3.1-10.4h-18.1c-1.8 5.2-2.6 8.7-2.6 10.5 0 0.7 0.4 1.4 1.1 1.9 0.5 0.2 0.9 0.5 1.3 0.8 0.4 0.2 0.6 0.6 0.6 1.2 0 0.9-0.9 1.4-2.6 1.4h-5.1c-1.8 0-2.6-0.5-2.6-1.4 0-0.3 0.2-0.7 0.7-1.1 0.5-0.4 0.8-0.6 0.9-0.8 0.3-0.5 1.1-2.7 2.4-6.8 1.7-5.4 3.4-10.3 5.1-14.8 5.4-14.4 8.8-21.6 10.4-21.6 0.9 0 2.4 2.1 4.6 6.4 2.4 4.8 5 11.1 7.8 19.1 1.1 3.2 2.2 6.9 3.5 11.1 1 3.1 1.6 5 1.8 5.6 0.1 0.2 0.6 0.7 1.4 1.4 0.6 0.4 0.9 0.9 0.9 1.6z m46.4-44.1c0 0.6-0.3 1.1-1 1.5-1.1 0.5-1.7 0.9-1.8 1-0.6 0.6-0.9 1.9-0.9 3.9v35.4c0 1.4 0 2.3-0.1 2.7-0.2 0.5-0.5 0.8-1.1 0.8-0.6 0-1.3-0.6-2.1-1.7l-3-5.1c-7.2-12-15-23.1-23.5-33V599c0 1.9 0.2 3.3 0.5 4.3 0.2 0.6 0.8 1.1 1.7 1.5 0.7 0.2 1.4 0.5 2.1 0.7 0.5 0.2 0.8 0.6 0.8 1.2 0 0.9-1 1.4-2.9 1.4h-8.2c-1.6 0-2.5-0.4-2.5-1.1 0-0.6 0.2-1 0.5-1.2 0.8-0.2 1.8-0.8 3.1-1.7 0.6-0.9 0.9-3.2 0.9-6.9v-26.8c0-1.9-0.1-3.1-0.4-3.5-0.2-0.4-0.9-0.8-2.1-1.2l-1.7-0.7c-0.4-0.3-0.6-0.7-0.6-1.2 0-1 0.9-1.5 2.7-1.5h4.9c1.2 0 2 0.1 2.3 0.2 0.9 0.4 3.6 3.5 8 9.4 5.9 7.7 11.5 15.8 16.8 24.2v-25.4c0-2.7-0.2-4.3-0.5-4.7-0.2-0.2-0.7-0.5-1.6-0.9-0.8-0.3-1.3-0.5-1.3-0.5-0.4-0.2-0.5-0.5-0.5-1 0-0.9 0.8-1.3 2.3-1.3h5.9c2.3-0.1 3.3 0.3 3.3 1.1z m43.1 43.5c0 1.2-1 1.8-2.9 1.8h-5.6c-2.1 0-3.2-0.5-3.2-1.5 0-0.5 0.4-1 1.1-1.6 0.3-0.1 0.6-0.3 0.9-0.4 0.2-0.1 0.4-0.5 0.4-0.9 0-1.3-0.9-3.6-2.6-6.8-2.3-4-5.4-8-9.2-12-1.9 1.9-4.3 4.2-7.2 6.8v9.3c0 1.5 0.2 2.6 0.6 3.1 0.2 0.2 0.7 0.5 1.7 1.1 0.8 0.4 1.2 0.9 1.2 1.4 0 0.9-0.8 1.4-2.5 1.4h-7.3c-1.7 0-2.5-0.5-2.5-1.4 0-0.4 0.3-0.8 0.8-1.1 0.5-0.3 1.1-0.7 1.8-1.1 0.6-0.4 0.9-1.5 0.9-3.4v-30.7c0-1.4-0.2-2.4-0.6-2.9-0.2-0.3-0.7-0.7-1.8-1.2-0.7-0.4-1.1-0.9-1.1-1.4 0-0.9 0.8-1.4 2.5-1.4h7.3c1.7 0 2.5 0.5 2.5 1.4 0 0.4-0.3 0.8-0.9 1.2-0.5 0.3-1.1 0.7-1.7 1.1-0.7 0.4-1 1.5-1 3.3v16.8c11.1-10.5 16.6-16.8 16.6-18.9 0-0.6-0.4-1.2-1.2-1.7-0.4-0.2-0.8-0.5-1.1-0.8-0.4-0.2-0.5-0.6-0.5-1.1 0-0.8 1-1.2 2.9-1.2h6.6c1.9 0 2.9 0.5 2.9 1.4 0 0.5-0.5 1-1.3 1.4-1.3 0.7-2.2 1.4-2.9 2.3-2.5 3.1-6.3 7.4-11.3 12.8 4.6 4.3 9.1 10.9 13.5 19.8 0.3 0.7 0.6 1.3 0.9 1.9 0.3 0.6 0.6 1 0.9 1.2 0.5 0.3 1 0.7 1.5 1 0.6 0.2 0.9 0.5 0.9 1z m65.5-21.1c0-6.3-1.3-11.3-4-14.9-2.7-3.6-6.3-5.4-10.9-5.4-4.6 0-8.2 1.8-10.9 5.4-2.7 3.6-4 8.5-4 14.8 0 6.3 1.4 11.3 4.1 14.8 2.6 3.6 6.3 5.4 10.9 5.4 4.6 0 8.3-1.8 11-5.4 2.5-3.4 3.8-8.4 3.8-14.7z m6.2 0c0 7.5-2.3 13.5-6.8 18.1-3.7 3.7-8.5 5.6-14.3 5.6-5.7 0-10.4-1.9-14.2-5.6-4.6-4.6-6.9-10.6-6.9-18.1 0-7.4 2.3-13.4 6.9-18 3.7-3.8 8.5-5.7 14.2-5.7 5.8 0 10.5 1.9 14.3 5.7 4.6 4.6 6.8 10.6 6.8 18z m38.9-15.7c0 1.1-0.4 1.6-1.1 1.6-0.4 0-0.9-0.4-1.7-1.1-0.8-0.9-1.5-1.5-2.2-1.8-2.4-1.2-6.7-1.8-12.9-1.8-2.1 0-3.5 0.3-4.1 1-0.7 0.6-1 1.9-1 4v12h7.5c2.4 0 4.3-0.1 5.5-0.4 0.6-0.1 1.4-0.4 2.3-0.9 0.8-0.3 1.4-0.5 1.8-0.5 1 0 1.5 0.7 1.5 2.1v2.9c0 1.3-0.5 2-1.5 2-0.3 0-0.8-0.2-1.7-0.7-0.9-0.5-1.7-0.8-2.4-0.9-1.3-0.3-3.1-0.4-5.5-0.4H727v14.4c0 1.6 0.2 2.6 0.6 3.1 0.2 0.2 0.8 0.5 1.9 1 0.9 0.4 1.4 0.9 1.4 1.4 0 1-0.9 1.5-2.7 1.5h-7.8c-1.8 0-2.7-0.5-2.7-1.5 0-0.6 0.4-1 1.3-1.4 1.2-0.5 1.8-0.8 1.9-0.9 0.5-0.5 0.7-1.6 0.7-3.2v-30.7c0-1.4-0.2-2.4-0.6-2.9-0.2-0.3-0.7-0.7-1.8-1.2-0.7-0.4-1.1-0.9-1.1-1.4 0-0.9 0.8-1.4 2.5-1.4h23.9c2.1 0 3.5 0.3 4.1 0.9 0.9 0.7 1.3 2.5 1.3 5.2z m61.6 1c0 0.9-0.3 1.3-0.8 1.3-0.6 0-1.2-0.3-1.7-0.8-0.5-0.6-1.1-1.1-1.7-1.6-2.2-1.9-4.8-2.8-7.9-2.8-1.1 0-1.8 0.2-2.1 0.6-0.3 0.4-0.4 1.3-0.4 2.6v31.1c0 1.7 0.2 2.8 0.6 3.4 0.2 0.2 0.9 0.6 1.9 1.1 0.9 0.3 1.3 0.8 1.3 1.5 0 0.8-0.7 1.2-2.1 1.2H790c-1.4 0-2-0.4-2-1.2 0-0.6 0.3-1.1 0.9-1.3 0.6-0.3 1.2-0.6 1.9-1 0.6-0.3 0.9-1.5 0.9-3.6v-31.1c0-1.3-0.1-2.2-0.4-2.6-0.3-0.4-1-0.6-2.1-0.6-2.6 0-5 0.7-7 2.1-0.4 0.3-1.2 1-2.3 2.1-0.7 0.7-1.4 1.1-2 1.1-0.6 0-0.9-0.4-0.9-1.3 0-3.3 0.4-5.4 1-6.4 0.4-0.5 1.4-0.8 3.1-0.8h25.7c1.9 0 3 0.1 3.5 0.4 0.8 0.5 1.2 2.8 1.2 6.6z m23.5 18.1c-2.1-6.4-4.7-12.9-7.8-19.6-3.1 6.4-5.7 12.9-7.9 19.6H835z m12.8 18.3c0 0.8-1.1 1.2-3.2 1.2h-5.4c-1.8 0-2.7-0.5-2.7-1.5 0-0.5 0.2-1 0.7-1.4 0.1 0 0.7-0.3 1.7-1 0.3-0.2 0.5-0.7 0.5-1.4 0-1.2-1-4.7-3.1-10.4h-18.1c-1.8 5.2-2.7 8.7-2.7 10.5 0 0.7 0.4 1.4 1.1 1.9 0.5 0.2 0.9 0.5 1.3 0.8 0.4 0.2 0.6 0.6 0.6 1.2 0 0.9-0.9 1.4-2.6 1.4h-5.1c-1.8 0-2.6-0.5-2.6-1.4 0-0.3 0.2-0.7 0.7-1.1 0.5-0.4 0.8-0.6 0.9-0.8 0.3-0.5 1.1-2.7 2.4-6.8 1.7-5.4 3.4-10.3 5.1-14.8 5.4-14.4 8.9-21.6 10.4-21.6 0.9 0 2.4 2.1 4.6 6.4 2.4 4.8 5 11.1 7.8 19.1 1.1 3.2 2.2 6.9 3.5 11.1 1 3.1 1.6 5 1.8 5.6 0.1 0.2 0.6 0.7 1.4 1.4 0.7 0.4 1 0.9 1 1.6z m17.7-0.3c0 0.9-0.9 1.4-2.6 1.4h-7.5c-1.7 0-2.6-0.5-2.6-1.4 0-0.5 0.5-1 1.6-1.6 1.1-0.5 1.7-1.3 1.9-2.3 0.1-0.4 0.1-1 0.1-1.8v-30.7c0-1.4-0.2-2.4-0.6-2.9-0.2-0.3-0.8-0.7-1.8-1.2-0.8-0.4-1.2-0.9-1.2-1.4 0-0.9 0.9-1.4 2.6-1.4h7.5c1.7 0 2.6 0.5 2.6 1.4 0 0.5-0.3 0.9-0.8 1.2-0.6 0.3-1.2 0.7-1.7 1-0.7 0.5-1.1 1.6-1.1 3.3v30.7c0 1.5 0.2 2.6 0.7 3.1 0.2 0.2 0.7 0.5 1.7 1.1 0.8 0.5 1.2 1 1.2 1.5z m60-42.6c0 0.5-0.3 1-0.9 1.5-0.8 0.7-1.4 1.3-1.6 1.9-0.2 0.3-0.7 2.8-1.6 7.5-1.6 8.7-3.9 17.3-6.7 25.8-1.1 3.3-1.9 5.3-2.3 6.2-0.7 1.3-1.5 2-2.3 2-0.9 0-1.7-0.6-2.4-1.9-0.4-0.8-1.3-2.8-2.6-6-3.4-8.4-5.8-15.6-7.4-21.8-5.5 19.8-9.6 29.7-12.1 29.7-1.1 0-2.3-1.7-3.6-5.2-1.1-3.1-2.6-8.4-4.5-15.9-1-3.8-1.9-7.8-2.7-11.9-0.6-2.7-1.1-5.3-1.6-8-0.2-1.2-0.5-1.9-0.9-2.2-0.4-0.2-0.7-0.5-1-0.6-0.4-0.3-0.6-0.7-0.6-1.2 0-1 0.8-1.5 2.3-1.5h6.8c1.9 0 2.8 0.4 2.8 1.2 0 0.6-0.3 1.1-0.9 1.4-0.7 0.2-1.3 0.5-2 0.9-0.7 0.3-1 1.2-1 2.7 0 1.8 0.5 5.1 1.6 9.9 1.5 6.7 3.6 13.9 6.4 21.8 3.2-7.7 5.6-14.7 7.4-21 1.4-5.1 2-8.8 2-11.1 0-1-0.2-1.7-0.7-2.1-0.1-0.1-0.6-0.4-1.6-0.9-0.5-0.3-0.8-0.7-0.8-1.2 0-1.1 0.8-1.6 2.4-1.6h6.1c1.9 0 2.9 0.5 2.9 1.6 0 0.5-0.5 1.1-1.6 1.7-0.7 0.4-1.2 0.9-1.5 1.3-0.2 0.4-0.3 1-0.3 1.9 0 2.3 0.7 6 2.1 10.9 1.8 6.4 4.3 13.2 7.6 20.5 2.8-7.6 4.9-14.6 6.4-21.1 1.1-4.9 1.6-8.5 1.6-10.6 0-1.1-0.3-1.9-0.9-2.3-0.6-0.3-1.3-0.7-2-1-0.7-0.3-1-0.8-1-1.4 0-1 0.7-1.4 2.2-1.4h5.8c1.8-0.1 2.7 0.4 2.7 1.5z m25.2 24.6c-2.1-6.4-4.7-12.9-7.8-19.6-3.1 6.4-5.7 12.9-7.9 19.6h15.7z m12.8 18.3c0 0.8-1.1 1.2-3.2 1.2h-5.4c-1.8 0-2.7-0.5-2.7-1.5 0-0.5 0.2-1 0.7-1.4 0.1 0 0.7-0.3 1.7-1 0.3-0.2 0.5-0.7 0.5-1.4 0-1.2-1-4.7-3.1-10.4h-18.1c-1.8 5.2-2.7 8.7-2.7 10.5 0 0.7 0.4 1.4 1.1 1.9 0.5 0.2 0.9 0.5 1.3 0.8 0.4 0.2 0.6 0.6 0.6 1.2 0 0.9-0.9 1.4-2.6 1.4h-5.1c-1.8 0-2.6-0.5-2.6-1.4 0-0.3 0.2-0.7 0.7-1.1 0.5-0.4 0.8-0.6 0.9-0.8 0.3-0.5 1.1-2.7 2.4-6.8 1.7-5.4 3.4-10.3 5.1-14.8 5.4-14.4 8.8-21.6 10.4-21.6 0.9 0 2.4 2.1 4.6 6.4 2.4 4.8 5 11.1 7.8 19.1 1.1 3.2 2.2 6.9 3.5 11.1 1 3.1 1.6 5 1.8 5.6 0.1 0.2 0.6 0.7 1.4 1.4 0.6 0.4 1 0.9 1 1.6z m44.7-44.1c0 0.6-0.3 1.1-1 1.5-1.1 0.5-1.7 0.9-1.8 1-0.6 0.6-0.9 1.9-0.9 3.9v35.4c0 1.4 0 2.3-0.1 2.7-0.2 0.5-0.5 0.8-1.1 0.8-0.6 0-1.3-0.6-2.1-1.7l-3-5.1c-7.2-12-15-23.1-23.5-33V599c0 1.9 0.2 3.3 0.5 4.3 0.2 0.6 0.8 1.1 1.7 1.5 0.7 0.2 1.4 0.5 2.1 0.7 0.6 0.2 0.8 0.6 0.8 1.2 0 0.9-1 1.4-2.9 1.4h-8.2c-1.6 0-2.5-0.4-2.5-1.1 0-0.6 0.2-1 0.5-1.2 0.8-0.2 1.8-0.8 3.1-1.7 0.6-0.9 0.9-3.2 0.9-6.9v-26.8c0-1.9-0.1-3.1-0.4-3.5-0.2-0.4-0.9-0.8-2.1-1.2l-1.7-0.7c-0.4-0.3-0.6-0.7-0.6-1.2 0-1 0.9-1.5 2.7-1.5h4.9c1.2 0 2 0.1 2.3 0.2 0.9 0.4 3.6 3.5 8 9.4 5.9 7.7 11.5 15.8 16.8 24.2v-25.4c0-2.7-0.2-4.3-0.5-4.7-0.2-0.2-0.7-0.5-1.6-0.9-0.8-0.3-1.3-0.5-1.3-0.5-0.4-0.2-0.5-0.5-0.5-1 0-0.9 0.8-1.3 2.3-1.3h5.9c2.2-0.1 3.3 0.3 3.3 1.1zM999.5 453.1c-2 0.4-4.9 2.4-9.4 0.9s-10.6-6.3-12.5-9c-1.8-2.5 0.1-3.1 1.6-4.9 1.5-1.7 4.1 0 5.5 0.1 3.6 0.3 4.5 1.4 6.4 1 3.2-0.6 11.6-4.2 14.8-4.2 3.2 0 8.6-2.4 8.1 5.6-0.2 2.6-2 3.9-3 6.2-0.8 1.7-3.2 2.2-4.7 2.7-1.5 0.2-4.7 1.1-6.8 1.6z m-390.7 44c4.7 2.6 4.6 10.1 0.3 13.9-0.8 0.7-3.4 2.4-4.9 2.8-8.4-0.7-17.1-0.7-20.6-1.1-4.3-0.6-23 2.2-28.1 4.1-5.1 1.9-16.7 8-20.9 7.8-4.2-0.2-15.3-11.6-15.9-15.1-0.6-3.4 6.4-8.2 13.4-7.6 7 0.6 25.8-4.1 29.1-5.3 2.7-1 2.3-5.9 1.9-8.4-0.4-2.5-1.1-3.1-3.3-3.1-2.3 0-5.6 3.5-8.8 3.9-4.3 0.5-10.3-5.8-11.4-8.1-1.1-2.2-1.1-8.6 3.2-10.7 4.4-2.1 7.4 0.3 10.6 0.7 3.2 0.4 9.3-3.1 10.8-4.1 1.1-0.8 0.6-4.8 0.6-7.1 0-1.2-0.5-4.5-1.9-6.9-1.2-2.2-2.8-3-2.8-4.5 0-3.1 7-6.7 10.8-6.7 3.8 0 11.8 7.7 12.4 9.4 0.6 1.7-1.7 3.7-1.7 6.6 0 3-0.7 4.9 1.7 4.9 1.4 0 3.8-0.4 5.9 0.3 3.4 1.2 2.7 3.4 6.5 8.2 0.2 1.6-2.1 3.8-3 4.8-2.2 6.1-10.9 4.9-12.1 7.4-1.5 3.3-1.1 10.9 1.3 12.3 2.5 1.3 10.7-1.3 15.7-1.7 4.9-0.1 8.4 1.7 11.2 3.3z m346.7-16.4s-1.4 2.6 1 3.6c2 1.9 0.8 2.5-0.1 4.1-0.9 1.6-3.5 5.2-3.1 16.5 0.6 15.3-2.2 18.5-5.4 22.2-3.3 3.7-9.7-5.2-10.7-7-1-1.8-2.2-4.8-0.5-6.2 1.7-1.3 3.4-6.1 0.8-11.9-1.8-4-6.8 4.1-11.4 5.7-4.6 1.6-9.5-2.7-10.7-7.7-1.2-5.1 6.5-10.4 9.2-12.5 1.3-1.1 4.1-4.6 7.3-7.9 3.2-3.2 6.9-6.1 7-8.7 0-1.6-3.1-0.8-4.8-2.2-1.7-1.4-3.7-8.1-3.3-10.8 0.4-2.7 6.9-7.8 8.9-9.6 3.1-2.6 6.8-7.5 8.2-9.6 1.3-2.1 1-6.4 4-8.6 3.1-2.1 5.2 0.6 5.2 0.6 1.4 1.7 8.6 11.1 10.1 14.6s-1.5 4.6-5.7 9.1 1.4 7.5 3.1 8.8c1.7 1.4 3.2 4.1 1.1 5.6-3.4 2.1-8.9 9.4-10.2 11.9z m-94.3 28.4c2.4-2.9-2-4.8-3.8-5-1.7-0.2-3.8 0.5-6 2.1-1.6 1.1-3.4 3.5-3.4 6.1 0 4 3.2 6 5.9 3.5 2.8-2.4 6.1-5.3 7.3-6.7z m-9.4-49.7c2-1.2 4.6 0.3 5.6-2.1 0.7-1.7-0.3-5.2-2.4-4.7-2.1 0.6-2.1 1.3-4 1.7-1.9 0.4-5.3-0.4-6.4 0.9 0 0-1.7 3.9 2.1 5.3 1.4 0.6 3.2 0 5.1-1.1z m0 13.1c1-0.7 3.1-2.5 0.8-3.5-1.1-0.4-2.9 2.4-4.7 2.6-1.2 0.1-0.5 1.6-0.3 1.9 0.6 1.4 2 0.9 2.6 0.8 0.8-0.1 1.1-1.4 1.6-1.8z m32.6 33.8c3.8 1.9 13.8 2.1 12.2 5.6-2.3 5.2-14.1 9.9-18.5 8.4-2.9-1-6.5-7.6-7.8-8.5-0.8-0.6-4.1-1.7-6.4-0.7-1.7 0.7-2.6 3.2-3.4 4.9-1.7 4.2-4.6 10.5-8.2 13.9-2.8 2.6-3 7.2-8.5 3.2-5.4-3.9-5.7-10-6.4-14.5-0.8-4.6 0.1-13.4 0.1-15.9s-2.7-4.5-6.6-5.5c-3.8-1-4.6 3.6-0.8 5.6 1.9 1 3.6 5.6-3.2 8.9-2.3 4.6-15.2 10-19 11.7-3.8 1.7-5.8-3-7.1-5.6-1.4-2.7 2.4-3.7 4.7-4.7 2.3-0.9 8.7-4 9.8-6.3 1.2-2.3-0.4-9.6-1.3-11.1-1-1.5-6.3 1.5-7.6 4-1.3 2.5 1.2 6.7-0.4 6.9-4.3 0.7-9.4-0.1-11.1-4-1.7-3.7 2.5-6.9 4.4-8.3 0.6-0.4 0.4-1.5 0.4-1.5-3.3-2.9 0-7.8 2.9-7.7 6.5 0.1 9.5-5.3 10.1-7.6 0.6-2.3-8.2-4.8-10.7-3.5-1.2 0.7-5.5 6.4-9.9 10.1-4.4 3.7-9.3 6.1-10.2 7.9-0.7 4.9-2.1 5.7-7.6 3.9-2-1.1-3-6.9-1.9-10.3 0.6-2 4.1-5.1 5-5.9 2.3-2.1 21.8-22.3 26.9-28.4 3.9-4.7 7-9.1 7.8-14.5 0.3-1.7 2.2-2.1 3.1-2 2.9 0.2 10.6 3.8 12.7 7.4 2.1 3.6 10.1 8.5 10.1 9.5 0 0.9-2.3 1.8-4.2 2.4-1.5 0.5-3.4 1.8-5 1.9-2.2 0-3.9-1-5-0.9-2.7 0.2-6.3 6.2-4.4 6 1.9-0.2 9.4 0.9 9 3.3-0.4 2.5-5.7 6-5.7 9.1 0 2.5 3.7 1.9 4.8 4 1.1 2.1-1.6 5.1-2.6 6.5-1 1.3 0.8 3.5 2.1 3.5 1.4 0 3.1-2.3 4.3-3.2 1.1-1 4.8 0.3 6.2-1.1 1.4-1.3 0.3-18.4 0.3-21.5 0-5.4 1.4-5.1 2.3-7.2 1-2.1-1.2-4.2-0.4-5.6 0.8-1.4 22.7-8.6 24-8.5 9.5 5.1 8.7 6.7 2.9 22.4-2.2 6-3.4 10-5 12.4-2.9 4.3-5.6 4.1-6.8 5.2-1.9 1.7-7.3 3.4-7.6 7-0.4 3.6 4.9 6.2 7.8 4.3 2.9-1.9 6.6-10.2 11.8-12 3.8-1.3 8.4 2.8 8.3 5.3-0.1 3.9-10.6 10.7-10.6 10.7-1.9 4.3 16 8.7 19.9 10.6z m130.7-45c3.4 0 9 1.7 9.2 7.5 0.2 5.8-8.8 6.7-10.3 6.9-1.5 0.2-6.6 1.3-7.5 2.7-0.9 1.3-0.2 6-0.4 9.5s2.7 35 2.3 38.4c-0.1 1.3-0.7 5.7-3.3 9.6-2.6 3.8-5.4 5.8-7.8 4.5-1.2-0.6-8.6-12.2-9.9-14.3-1.3-2.1-1.9-4.6-1.2-5.7 4.3 2 7 3 9.2 3 2.3 0 3.4-0.7 3.8-2.8 0.4-2.1-1-9.6-1.4-12.3-0.4-2.7-1-17.7-1.2-21.4-0.2-3.7-3.1-8.3-6.4-8.1-2.2 0.2-6.1 2.4-9.5 4-3.4 1.5-5.4 1.5-7.6 0.5-2.2-1-5.4-5.4-5.6-7.3-0.2-1.9 3.2-2.7 4.5-2.7 1.7 0 27.9-6.4 31.6-7.7 3.9-1.5 8.1-4.3 11.5-4.3z m-309 14.2c-1.5 1.9-2.7 7.7-0.6 7.3 2.1-0.4 4.6-3.5 4.8-8.6 0 0-2.7-0.7-4.2 1.3z m43.7 34.5c0.8 5-3.7 7.1-8.1 8.1-7.2 1.6-30.5 2.4-46.5-1-14.5-3.1-13.1-22-14.6-24.7-1.5-2.8-10 0.5-12.7 4.2-2.7 3.7-11.3 15.4-17.1 17.3-6.6 2.2-12.8-6.3-10.1-8.3 1.2-0.9 2.7 0.6 5.2-1 2.7-1.8 7.5-4.7 7.9-8.1 0.3-3.2 0.7-11.2-0.8-14.1-1.5-3-7.4 1.6-11.6 2.8-4.2 1.2-8.3-1.5-9.2-5-1-3.5 1-5.5 3.7-5.1 2.7 0.4 5.5 0.4 7.9 0.2 2.3-0.2 8.4-3 9.1-4.5 0.6-1.2 0.4-9.3-0.3-13.2-2.7-3.8 1.3-5.8 6.3-5.6 5 0.2 8.6 1.7 6.8 6.5-1.9 7 4.5 3.1 6.2 2.7 1.7-0.4 1.9 3 1.9 5.6 0 2.5-5.4 6-7 7.2-1.5 1.2-2.1 4.9-2.4 8.8-0.4 3.9-0.4 5.7-0.4 5.7s2.3 0.7 5-1c4.4-2.9 10.9-8.4 11.3-9.9 0.6-2.6 0.7-5.6 2.9-7.4 3 0.1 3.7 5.4 6.4 5.8 1.1 0.2 5.9-2.2 6.5-3.5 1.2-2.1 1.1-19.3 0.7-24.4-0.4-5.1 2.5-9.6 5.2-9.7 2.7-0.2 5 1.7 6.5 4.6 1.5 2.9-3.5 16.9-3.7 20.6-0.2 3.7 4 3.8 7.3 1.6 3.3-2.1 8.9-5.1 12.9 0.7 2.9 4.2-3.9 16-8.3 20.5-5.1 5.2-12.3 13.1-18.1 12.1-5-0.3-1.7-15.5-4.5-15.2-1 0.1-2.8 0.5-3.6 2.2-0.7 1.4-0.7 4-0.9 6.6-0.4 5.7 1.7 9.1 3.7 11.3 2 2.3 4.2 2.6 8.4 3.3 6 1 28.1 0.4 32.5-0.2 6.2-0.9 6.1-18.3 6.1-18.3 0.2-1 2.5-6.9 2.8-3.4 0.7 14.9 6.2 22.3 6.7 25.2z m-422.2-47.1c1.1-0.8-0.5-4-2.5-2.7 0 0-0.9 0.9-2.9 1.1-2 0.2-3.3 2-0.8 3.3 1.5 0.7 5.1-0.9 6.2-1.7z m11.1-40.1c5.6 0.4 5.2 3.6 5.2 3.6 0 2.7-4.1 3.4-6.5 4.6-2.4 1.2-1.8 3.6-1.4 4.5 0.5 0.9 3 4.1 2.6 6.2-0.5 2.9-7 4.5-9 5.4-2 0.9-1.8 2.8-0.8 3 1 0.2 2.6-1.3 7.8 0.5 5.2 1.7 4.4 5.2 3.8 7.3-0.6 2.2-5 9.3-5.8 9.9-0.8 0.6-3.3 0.5-4.1 1-1.5 1.5-6.4 0.9-6.8 1.5-0.5 1.5-6.7 1.1-6.7 1.1l-1.2 0.6c-0.1 1.5-6.3 1.1-8.8 0.6-7.7-6.8-9-12.6-7.3-16.7 1.6-4.1 6.1 0.5 6.9 1.1 0.8 0.6 2.4 0.2 4.2 0.1 1.8-0.1 2.1-3.9 1.8-5.8-0.3-1.9-8.1-2.1-9.4-5.7-1.7-4.5 3.6-5.3 7.9-6.6 4.7-1.5 3.8-4.5 2.8-5.8-1-1.3-6.9-3.1-5.9-5.8 1-2.7 7-2.4 8.3-2.6 1.4-0.3 3.1-2.2 3.1-2.2-0.1-2.7-0.1-4.3 2.3-7.4 1.8-2.3 6.6-0.6 7.5-0.1 0.8 0.4 3.1-0.1 3.8 1.8 0.6 1.3 3.3 5.7 5.7 5.9z m-8.2 78.4c1.4 0 3.1-1.1 1.7-3.2-2-2.9-4-0.3-6.9 0.1-3 0.4-1.3 2.5-1.3 2.5 0.9 0.6 5.1 0.6 6.5 0.6z m31.5-27.4c5 1.4 4.8 6.3 0.7 8.5-3.5 1.9-11 5.7-11.9 5.7-3 0-6.2 0.3-10.8 0.3-2.1 0-0.8 3.8-0.8 3.8 3.5 1.3 5.1 5.8 6 8 2.7 2.9 0.7 5.2-0.2 6-1.7 1.7-8 2.5-7.8 4.2 0.1 0.9-0.3 2.1-0.1 2.8 0.9 5.9-1.1 5.6-3.3 6.7-1.3 0.8-3 8.7 3 8.5 3.5 0.4 13 8.9 10.5 10.8-3.2 2.3-10.9 1-14.1 1.2-3.2 0.2-21.9 2.7-25.7-0.4-5-4.1-5.2-4.2-2.2-6.9 1.1-1 8.8-1.7 10.4-3 2.3-1.8 1.5-4.2 0.3-4.5-1.2-0.2-7.4-0.4-7.4-0.4-4.8-2.8-6.1-7.3-2.8-7.7 2.8-0.3 10.7-1.4 11.1-2.1 0.4-0.7 1.9-3-0.4-4.2-2.3-1.2-6.5 1.2-12.2 2.4-2.5 0.5-4.5 1.1-5.4 0-2.1-2.5-0.2-8.1 0-9.6 0.2-2.2 11.9-7 12.3-7.4 1-1 1.4-5.4 0.4-5.6-1-0.3-3.4-0.4-2.2-2.6 0.9-1.6 18.3-5.7 20.8-6.2 7.2-1.7 6.6 2.5 11 1.1 2.4-0.8 2.8-4.3 0.7-4.7-4-0.7-14.8 0.9-25.9 2.8-11 1.8-31.8 8.1-31.8 8.1 0.5 3.2 0.1 7.3-1 10.1-1.6 4.2-3.5 5.3-5.1 7-2.6 2.9-6.2-1.2-9.1-6-2.9-4.8-2.1-18 2-18.2 2.3-0.1 7.1 2.6 8.2 3.6 0 0 2.4 0.4 4.8-0.8 3.4-1.8 25.5-7.6 44.4-10.3 5.5-1 23.6-4.2 25.1-4.1 1.2 0 4.3 1.9 8.5 3.1z m40.4 4.9c-5.9 3.6-3.4-2-3.4-4 0-2.7-1.6-5.6-3.2-7.1-1.1-1-0.6-3.7 2.7-6.2 2.5-1 2.6 1.9 3.2 3 0.6 1.1 3.1 2.6 3.1 2.6s2.2 1.8 2.7 2.3c1.3 1.3 0.1 6.3-5.1 9.4z m24.7-10.5c0.4 0.7 1.4 1.4 1.8 2 0.7 1.1 1.5 4.5 0.8 4.2-0.7-0.3 1.1 4.1-2.1 4.3-2 0.1-3.6 2.2-4.6 4.1-1 1.9-4.9 11.9-6.2 15.9-0.9 3.1-3.7 10-4 12.3-0.2 1.6-2.3 4.9-3.5 5.5-0.7 0.3-3.2 0.5-3.6 0.3-1.9-1.1-2.4-3-3-5.5-0.5-1.9-2.9-10.3-3.4-12.6-0.4-1.9-1.9-9.7 1.4-6.1 1 1.1 4 6 5.4 5.7 2.7-0.4 10.4-17.3 11.1-18.8 1.7-3.6 2.6-7.8 2.7-8.4 0.3-1.7-1.8-7.2 4.6-8.2 1.2-0.2 1.6 3.6 2.6 5.3z m49.9-17c0.7-0.7-1.7-1.8-2-1.7-0.9 0.4-1.9 2.7-3.3 1.6-0.6-0.4-0.9-1.5-1.5-2-0.7-0.4-2.1-0.3-2.7-0.4-2.1-0.3-3 0.6-3.7 3.2-0.5 1.9 1.6 2 2.6 2.3 1.3 0.3 5.8 0.5 7.3-0.3 1.3-0.5 2.7-2.1 3.3-2.7z m-9.2-16c-0.3 2 1 1.7 1.6 3.1 0.4 0.8 0.2 3.2 1.1 3.4 2.1 0.5 2.2 0 2.5-1.4 0.1-0.3 1.8-1.7 2-1.8 1-0.9 2-2.6 1.9-3.7-0.2-2-2.3-2.2-3.3-1.6-0.6 0.4-1.1 0.9-1.8 0.6-2.1-0.8-3.7-0.5-4 1.4z m-8.1 49.3c1-1.1 0.7-2.7-1.6-2.5-1.1 0.1-2 0.7-1.5 2 0.6 1.1 2.3 1.4 3.1 0.5z m1.6-45.2c0.8-0.6 1.2-2.2 0.7-3-1.1-1.6-6.9-0.1-8.8 0.8-1 0.4-2.3 1.3-4.2 1.4-0.9 0-1.8 0.6-2.7 0.9-1.1 0.4-2 0.6-1.7 2.1 0.3 1.8 1.5 1.1 1.8 1.8 0.4 1.4-0.9 6 1.5 6.1 1.6 2.8 3.7 1.8 5.1 0.4 1.4-1 4.4 0.8 2.1-4.6-0.4-0.8-1.8 0.5-1.6-2.4 0.1-1.4 2.8-2 4-2.4 0.6-0.3 3.2-0.6 3.8-1.1z m-1.3 24.9l0.5-3.4c-0.8 0.1-2.5-0.1-3.2 0.1-1 0.3-2.9 1.5-2.7 2.7 0.2 0.8 1.5 0.7 2.3 0.8 0.3 0.2 2.8-0.2 3.1-0.2z m-12.7-3.4c1.1-0.5 0.4-2.2 0.3-3-0.4-2.4-6.3 0.4-5.8 2.3 0.5 1.5 4.6 1.1 5.5 0.7z m-8.5 2.6s0.4-2.3-1.6-2c-2 0.3-2.3 1.8-1.3 2.3 1.1 0.7 2.6 1 2.9-0.3z m55-1.2c1.6 0.8 3.8 0.8 2.2 4.2-1.8 3.9-5.8 2.9-7.8 1.5-1.6-1.1 0-6-2.1-7-1.6-0.7-4.7-1.2-5 0.9-0.3 2.6 2.6 6.4 0.4 7-0.8 0.2-2.6 0.1-3.6 0.1-1.8-0.1-3.8 1.1-4.3 1.7-0.6 0.7-1.3 3.1 0.1 4.2 4.4 3.5 0.7 3.1 0.4 3.9-0.4 1.1-1.2 2.3-1.6 2.5-1.7 0.9-2.1 1.8-2.1 1.8s-0.9 4 0.1 4.6c1.6 0.9 2.4 1 2.8 3.3 0.3 2.3-1.8 3.7-2.6 4.6-0.5 0.5-0.5 3.4 1.1 3.9s3.2 0.8 4.5 0.9c1.3 0.1 5.7 2.9 5.4 4.8 0 0 0.3 10.4-6 20.6-5.8 9.4-11.1 12.5-12.5 12.4-9.4-0.9-11.9-12.7-9.9-13.1 1.9-0.4 1.9 0.2 3 1 1.3 1 1.9 1.6 3 1.5 1.1-0.1 5.6-1.9 10.5-15.7 0 0 1.9-5.3-1.1-5.8-2.4-0.4-9.6 1.9-14.5 4.8-3.8 2.3-6 4.6-7.9 2.7-2.3-2.4-3.2-6 0.3-8.6 3.4-2.7 6.2-4.4 6.3-4.7 1-4.2 0.5-3.1-2.8-3.4-1.2-0.1-2.2-6.2-0.1-6.8 4.2-1 3.6-3.5 0.8-3.5-1.1 0-7.1 0.4-5.8-3.8 1.9-5.9 4-6.7 6-6.5 2 0.2 6.8 2.4 8.4 0.5 0.8-0.9 1.5-0.5 2.5-1.2 0.9-0.6 1.3-1.4 2.1-1.8 0.7-0.4 3.2 0 3.2-0.9 0-0.5 0.2-3.1-0.1-3.5-0.4-0.5-3.4-0.8-4-0.7-1.2 0.3-3.9 1.7-4.6 2.6-0.9 1.2-2.4 2.9-4 2.5-1.5-0.4-1.5-1.2-2.1-2.5-0.8-1.9-2.2-3-4.4-2.8-2.2 0.2-1.5 2.6-4.4 2.6-2.6 0-1.2-2.8-3.9-2.6-1.7 0.1-1.7 0.6-2.1 3.3-0.3 2.2-2.3 4.9-3.5 3.7-1.2-1.2-3.1-0.9-3.1-4.8 0-3.8 0.4-5.2-0.5-6.2-0.8-1-3.6-5.7-0.8-6.6 2.2-1.6 1.3-4.3 1.3-4.3s-0.8-1.5-3.2-2.3c-1-0.3-2.3-0.2-3.3 0.2-0.9 0.4-2.2 1.5-3.3 1.6-1.7 0.1-3.1-1.3-4.7-1.3-0.4 0-5.6 0.1-5.6-1.8 0-1.9 3.2-1.7 1.3-6.7-1.9-3.3-3.3-6.9-5.5-8.4-1.3-1-2.3-4.3-1-6.1 2.9 0.1 9-1.2 12.2 0.9 3.2 2.1 9.1 10.9 10.1 12.6 1.1 1.7 3.7 0.7 5-2.1 1.9-4.3 4-10.3 8.8-10.2 3.1 0.1 2.8 2.6 5.2 2.9 2.8 0.4 5.7-0.3 6.4-1.2 0.7-1 0.6-6.5 4-8.1 3.3-1.6 6.5-3.5 8.9 0.8 1.7 3.1 2.9 3.4 5.3 3.1 2.4-0.4 5.9-0.3 7-0.1 1.2 0.2 7.2 5.1 7.7 7.2 0.5 2.1-3.4 3.7-3.6 5.2-0.2 1.6 0.3 3 2.7 2.3 2.4-0.7 6.1 2.8 3.6 4.3-2.8 1.7 0.4 5.1 1.7 5.3 2.4 0.3 1.9 7.6 0.3 7.9-0.5 0.6 0.2 0.9 1.2 1.5 0.6 0.2 0.9 0.8 1.6 1.2zM169.4 544.8s-2 5.6-6.5 16.8c-4.5 11.2-8.7 10.9-12.5 10.9-3.9 0-83.6 0.4-83.6 0.4s-1.5-0.2-0.8-3 45.2-123.7 45.2-123.7l42.3 0.2-32.7 88.2 41.6-0.3c12.2-0.1 7 10.5 7 10.5zM42.7 498.5s-8.1 1.3-4.8-11l7.6-20.7s3.4-6.2 13.1-6.2h35.9L80.3 498l-37.6 0.5z m104.2 0.9l13.7-39.4h42.1c-18.5-33.2-52.8-56-93.7-56C49 404 0 450.6 0 512c0 6.9 0.7 15.5 1.9 22h64.3l-13.3 38.8H18c19.4 29.1 50.6 47.3 90.6 47.3 59.9 0 107.6-50.4 107.6-107.5 0-4.6-0.3-7.8-0.3-13.2h-69z" fill="#00633E"></path></svg>