<svg viewBox="0 0 1024 1024" version="1.1" xmlns="http://www.w3.org/2000/svg"><path d="M107 564s1.2-8.4 5.7-18.5h20c4.5 10.1 5.7 18.5 5.7 18.5h26.8c-15.4-50.3-10.9-87.3-10.9-87.3h-13.9l12.4-24.2H92.6l12.4 24.2H91.1s4.5 37-10.9 87.3H107z m-27.8-75.8H48.6c10.3-32.3 40.4-55.8 76.1-55.8 35.6 0 65.8 23.4 76.1 55.8h-30.5v14.2h47.9c-5.1-47.3-44.9-84.1-93.4-84.1-48.5 0-88.3 36.8-93.4 84.1h47.9v-14.2z m91.5 28.9v14.2h32c-8.6 34.9-40.1 60.7-77.5 60.7-37.5 0-68.9-25.8-77.5-60.7h32v-14.2H31.3c2.7 49.6 43.7 89 93.9 89s91.2-39.4 93.9-89h-48.4z m-45 105.6c-61.3 0-111-49.7-111-111s49.7-111 111-111 111 49.7 111 111-49.7 111-111 111z m-0.5-235.7C56 387 0 443 0 512.2c0 69.1 56 125.2 125.2 125.2 69.1 0 125.2-56 125.2-125.2S194.3 387 125.2 387z" fill="#F5AB00"></path><path d="M343.5 604.5v14.6c0 0.7 0.1 1.2 0.2 1.5 0.1 0.3 0.4 0.5 0.8 0.7 0.4 0.2 1 0.2 1.9 0.2h4c1.2 0 2.2-0.1 3.2-0.4 1-0.2 1.8-0.7 2.6-1.4s1.3-1.5 1.5-2.3c0.2-0.8 0.4-1.8 0.5-2.8 0.1-1 0.1-1.9 0.1-2.4 0-1.1-0.3-2.2-0.7-3.2-0.4-1-1-1.8-1.9-2.5s-1.9-1.2-3.2-1.5c-1.2-0.3-2.7-0.5-4.5-0.5h-4.5z m0-2.4h4.3c0.8 0 1.8-0.1 3-0.4 1.2-0.3 2.2-0.7 3.2-1.3 1-0.6 1.8-1.4 2.4-2.4 0.6-1 0.9-2.2 0.9-3.7s-0.1-2.8-0.5-3.8c-0.5-1.3-1.1-2.2-1.9-2.8-0.8-0.6-1.7-1-2.6-1.2-0.9-0.2-1.8-0.3-2.7-0.3h-3.1c-0.4 0-0.9 0.1-1.4 0.2-0.5 0.1-0.9 0.3-1.1 0.5-0.2 0.2-0.4 0.5-0.5 0.9-0.1 0.4-0.2 0.9-0.2 1.5v12.8z m14.6 1.5c1.3 0.2 2.7 0.6 4 1.1 1.4 0.5 2.5 1.1 3.4 1.8 0.9 0.7 1.6 1.6 2.3 2.8 0.6 1.2 1 2.6 1 4.1 0 1.5-0.3 3-1.1 4.5-0.5 0.9-1.2 1.7-2 2.5s-2 1.4-3.4 2c-1.4 0.6-2.9 1-4.3 1.2-1.4 0.2-2.9 0.3-4.3 0.3H329c-0.4 0-0.7 0-0.9-0.2-0.3-0.2-0.3-0.4-0.3-0.8 0-0.2 0.2-0.4 0.4-0.5 0.2-0.1 0.6-0.2 1-0.3 0.5-0.1 0.9-0.2 1.4-0.3 0.5-0.1 1-0.4 1.6-0.8 0.5-0.4 0.9-0.9 1.2-1.4 0.3-0.6 0.4-1.4 0.4-2.4v-26.9c0-0.6-0.1-1.2-0.3-1.7-0.2-0.6-0.4-1-0.8-1.4-0.3-0.4-0.8-0.7-1.3-1-0.5-0.2-1.1-0.4-1.6-0.5-0.5-0.1-0.9-0.2-1.2-0.3-0.3-0.1-0.3-0.4-0.3-0.7 0.1-0.3 0.2-0.6 0.4-0.7 0.2-0.1 0.5-0.2 0.8-0.2h23.2c1.6 0 3.1 0.1 4.5 0.2s2.7 0.4 3.7 0.7c1.1 0.3 2.1 0.8 3 1.4 0.9 0.6 1.7 1.4 2.2 2.2 0.6 0.8 1 1.8 1.3 3 0.3 1.2 0.3 2.4 0 3.7-0.3 1.1-0.7 2-1.3 2.7-0.6 0.7-1.3 1.4-2.1 2-0.8 0.6-2 1.1-3.4 1.7-1.4 0.5-2.6 0.8-3.4 0.9l-4.1 0.6c2.1 0.3 3.7 0.5 5 0.7z m34.1 5.7h12l-6.2-14-5.8 14z m12.8 2.4h-13.8l-2.2 6.4c-0.3 0.9-0.4 1.6-0.2 2.1 0.1 0.6 0.4 1 0.8 1.2 0.4 0.3 0.9 0.5 1.3 0.5 0.4 0.1 0.8 0.1 1.2 0.1h0.7c0.2 0 0.5 0.1 0.7 0.3 0.2 0.2 0.3 0.4 0.3 0.7 0 0.4-0.2 0.6-0.6 0.7-0.3 0.1-0.8 0.1-1.4 0.1h-12.1c-0.8 0-1.4-0.1-1.7-0.2-0.3-0.1-0.4-0.3-0.4-0.7 0-0.4 0.1-0.6 0.4-0.7 0.3-0.1 0.6-0.2 1-0.2l0.7-0.1c0.3 0 0.7-0.2 1.3-0.4 0.6-0.2 1.1-0.5 1.5-0.8 0.4-0.3 0.8-0.7 1.2-1.1 0.4-0.5 0.7-0.9 1-1.3 0.3-0.4 0.5-0.8 0.6-1.2l13-31.7c0.3-0.8 0.6-1.4 0.9-1.8 0.3-0.5 0.7-0.7 1.3-0.7 0.6 0 1 0.1 1.3 0.5 0.3 0.3 0.6 0.9 1.1 1.8l15.3 32c0.1 0.3 0.5 0.8 1 1.6s1 1.4 1.3 1.8c0.3 0.4 0.7 0.7 1.2 1 0.5 0.3 0.9 0.5 1.3 0.5l0.6 0.1c0.3 0.1 0.5 0.1 0.7 0.3 0.2 0.1 0.3 0.3 0.4 0.5 0 0.2-0.1 0.5-0.3 0.7-0.2 0.2-0.5 0.3-0.8 0.3h-18.8c-0.6 0-1.1-0.1-1.3-0.2-0.3-0.1-0.4-0.4-0.3-0.8 0-0.3 0.1-0.5 0.4-0.6 0.2-0.1 0.5-0.2 0.9-0.3l1.1-0.1c0.4 0 0.8-0.1 1.3-0.3 0.5-0.2 0.9-0.5 1.1-0.9 0.3-0.5 0.4-1 0.4-1.5 0-0.6-0.1-1-0.2-1.3l-3.2-6.3z m65.8 9.8c0 1-0.1 1.9-0.4 2.4-0.3 0.6-0.7 0.9-1.2 1-0.5 0.1-0.9-0.1-1.4-0.4-0.3-0.1-0.6-0.4-1.1-0.9-0.4-0.5-0.8-0.9-1-1.1L442 592.7v25.9c0 0.7 0.1 1.3 0.3 1.8 0.3 0.5 0.7 0.9 1.3 1.3 0.6 0.4 1.3 0.6 1.9 0.7 0.6 0.1 1.2 0.2 1.6 0.3l0.9 0.1c0.2 0 0.5 0.1 0.8 0.2 0.3 0.1 0.5 0.3 0.5 0.7 0 0.4-0.1 0.6-0.4 0.8-0.3 0.1-0.6 0.2-1 0.1h-14.5c-0.3 0-0.7-0.1-0.9-0.3-0.3-0.2-0.3-0.5-0.2-0.8 0.1-0.2 0.2-0.3 0.4-0.5 0.2-0.1 0.4-0.2 0.7-0.2l0.8-0.1c0.3 0 0.7-0.1 1.3-0.2 0.6-0.1 1.1-0.3 1.7-0.6 0.5-0.3 1-0.8 1.2-1.4 0.3-0.6 0.4-1.2 0.4-1.8v-26.5c0-0.6-0.1-1.3-0.2-2.1-0.1-0.7-0.3-1.4-0.7-2-0.3-0.6-0.8-1-1.3-1.3-0.5-0.3-1-0.5-1.5-0.6-0.5-0.1-0.9-0.2-1.3-0.3l-0.9-0.1c-0.2 0-0.4-0.1-0.6-0.2-0.2-0.1-0.3-0.4-0.3-0.8s0.2-0.6 0.5-0.7c0.3-0.1 0.7-0.1 1.3-0.2l12.7-0.1 20.8 25.8V590c0-0.5-0.1-1-0.4-1.6-0.2-0.6-0.6-1.1-1.1-1.5-0.5-0.4-1-0.7-1.6-0.8-0.6-0.1-1.1-0.2-1.6-0.3l-1.6-0.1c-0.3 0-0.5-0.1-0.7-0.2-0.2-0.2-0.3-0.4-0.2-0.7 0-0.3 0.2-0.5 0.5-0.6 0.3-0.1 0.6-0.2 1-0.2h14.3c0.3 0 0.6 0.1 0.8 0.2 0.2 0.2 0.3 0.4 0.3 0.7 0 0.2-0.1 0.4-0.2 0.6-0.1 0.1-0.3 0.2-0.6 0.3l-1.2 0.1c-0.4 0-1 0.2-1.7 0.4s-1.2 0.5-1.6 0.9c-0.4 0.4-0.7 0.9-0.9 1.5-0.2 0.6-0.4 1.1-0.4 1.5v31.3z m32-19.5l11.6-11.6c0.3-0.3 0.6-0.7 0.9-1.2 0.3-0.5 0.6-1 0.8-1.5 0.2-0.5 0.3-1 0.1-1.3-0.2-0.4-0.4-0.6-0.8-0.9-0.4-0.2-0.8-0.3-1.1-0.4l-1-0.1c-0.4 0-0.7-0.1-1-0.2-0.2-0.1-0.3-0.4-0.3-0.9s0.1-0.8 0.4-0.9c0.3-0.2 0.6-0.2 1-0.2H530c0.3 0 0.6 0.1 0.8 0.2 0.3 0.1 0.4 0.4 0.4 0.8s-0.1 0.7-0.4 0.9c-0.3 0.2-0.5 0.3-0.8 0.3h-0.5c-0.4 0-1.1 0.1-2.1 0.4-0.9 0.2-1.7 0.5-2.4 0.8-0.6 0.3-1.4 0.7-2.4 1.3-1 0.6-1.7 1.1-2 1.5l-7.1 7.3 11 18.4c0.2 0.3 0.6 0.9 1.4 2l1.1 1.5c0.4 0.6 0.9 1.1 1.2 1.4 0.4 0.4 0.8 0.7 1.2 1.1 0.5 0.4 0.9 0.7 1.4 0.9 0.4 0.3 0.9 0.4 1.3 0.4l0.8 0.1c0.2 0 0.4 0.1 0.7 0.2 0.3 0.1 0.4 0.3 0.5 0.7 0.1 0.4-0.1 0.6-0.4 0.7-0.3 0.1-0.8 0.2-1.5 0.2h-18.6c-0.3 0-0.6-0.1-0.8-0.2-0.2-0.1-0.3-0.4-0.3-0.7 0-0.4 0.2-0.6 0.6-0.8l0.6-0.1 0.5-0.1c0.3 0 0.6-0.1 1-0.3 0.4-0.2 0.6-0.4 0.8-0.8 0.1-0.4 0.1-0.8 0-1.4-0.2-0.5-0.3-0.9-0.4-1.2l-9.3-15.4-3.5 3.3v10.6c0 0.6 0.1 1.2 0.2 1.8 0.2 0.6 0.4 1.2 0.8 1.7s0.8 0.9 1.5 1.2c0.6 0.3 1.1 0.5 1.5 0.5l0.6 0.1c0.2 0 0.5 0.1 0.7 0.3 0.2 0.2 0.3 0.4 0.3 0.6 0 0.4-0.2 0.6-0.4 0.7-0.2 0.1-0.6 0.1-1.1 0.1h-18.3c-0.4 0-0.7-0.1-0.9-0.2-0.2-0.2-0.3-0.4-0.2-0.8 0-0.2 0.2-0.4 0.4-0.5l0.6-0.3 0.8-0.1c0.3 0 0.7-0.1 1.1-0.3 0.4-0.2 0.9-0.5 1.4-1 0.5-0.5 0.9-1 1.1-1.6 0.2-0.6 0.3-1.2 0.3-2v-26.4c0-0.5-0.1-1.1-0.2-1.8s-0.4-1.3-0.8-1.8-0.9-1-1.5-1.3c-0.6-0.3-1.1-0.5-1.5-0.6l-1.1-0.1c-0.2 0-0.5-0.1-0.7-0.3-0.2-0.2-0.3-0.5-0.2-0.9 0.1-0.4 0.2-0.6 0.4-0.8 0.2-0.2 0.5-0.3 0.8-0.3h19c0.3 0 0.6 0.1 0.8 0.3 0.2 0.2 0.3 0.4 0.3 0.8 0 0.5-0.1 0.8-0.3 0.9-0.2 0.1-0.4 0.2-0.7 0.2l-1 0.1c-0.5 0.1-1.1 0.2-1.6 0.5s-0.9 0.7-1.3 1.2-0.6 1.1-0.7 1.7c-0.1 0.6-0.2 1.2-0.2 1.8V602z m87.4 5.5c0 1 0.1 2.1 0.2 3.2 0.1 1.2 0.3 2.4 0.6 3.6 0.3 1.2 0.6 2.2 1 2.8l1.2 1.8c0.4 0.5 1 1.1 1.7 1.6 0.7 0.6 1.7 1 2.9 1.4 1.2 0.3 2.3 0.5 3.3 0.5 0.6 0 1.2 0 1.9-0.1 0.6-0.1 1.4-0.4 2.3-0.7 0.9-0.4 1.7-1 2.4-1.9 0.7-0.8 1.3-1.9 1.7-3.3 0.4-1.3 0.7-2.5 0.9-3.4 0.2-0.9 0.3-2.4 0.4-4.4 0.1-2.1 0.2-3.4 0.2-4.1 0-0.7 0-1.7-0.1-3.1-0.1-1.9-0.2-3.4-0.3-4.6-0.1-1.2-0.3-2.3-0.5-3.5-0.2-1.1-0.6-2.1-1-3-0.5-0.9-1.1-1.6-1.9-2.3s-1.8-1.1-2.9-1.4c-1.1-0.3-2.2-0.5-3.2-0.5-1.1 0-2.1 0.2-3.1 0.5s-1.9 0.8-2.6 1.4c-0.8 0.6-1.5 1.5-2.2 2.7-0.7 1.2-1.2 2.5-1.5 3.9-0.3 1.4-0.6 2.9-0.7 4.5-0.2 1.6-0.3 3.2-0.4 4.8-0.3 1.7-0.3 2.9-0.3 3.6z m-10.1-2.2v-2.2c0-0.9 0.1-1.9 0.3-3 0.2-1.1 0.5-2.3 0.9-3.5 0.4-1.2 1-2.3 1.6-3.5 0.7-1.1 1.4-2.1 2.3-2.9 0.8-0.8 1.7-1.5 2.6-2.2 0.9-0.7 1.9-1.2 2.8-1.7 1-0.5 2.1-0.9 3.4-1.3 1.3-0.4 2.4-0.7 3.4-0.8 1-0.2 2.1-0.2 3.3-0.2 1.6 0 3.1 0.2 4.7 0.5 1.5 0.3 3 0.7 4.3 1.2 1.3 0.5 2.5 1.1 3.6 1.9 1.1 0.7 2.1 1.6 3 2.6 0.9 1 1.7 2.1 2.4 3.4 0.7 1.3 1.2 2.7 1.6 4.2 0.4 1.5 0.6 2.9 0.7 4.1 0.1 1.2 0.1 2.4 0.1 3.4 0 1.4-0.1 2.7-0.3 3.9-0.2 1.2-0.5 2.4-0.9 3.5s-1 2.3-1.7 3.6c-0.7 1.2-1.7 2.4-2.8 3.4-1.1 1-2.1 1.8-3.1 2.4-1 0.5-2.2 1.1-3.6 1.6s-2.4 0.9-3 1c-0.6 0.1-1.5 0.2-2.8 0.3-1.3 0.1-2.1 0.1-2.4 0.1-0.7 0-1.7 0-2.9-0.2-1.2-0.1-2.3-0.3-3.4-0.6-1-0.3-2.3-0.8-3.7-1.4s-2.7-1.4-3.7-2.3c-1.1-0.8-2.1-1.8-3-3.1s-1.6-2.4-2.1-3.5-0.9-2.2-1.1-3.3c-0.3-1.1-0.4-2-0.5-2.8v-2.6z m66.7 11.6c0 0.9 0.1 1.6 0.3 2.2 0.2 0.6 0.5 1.1 0.9 1.6 0.5 0.4 1 0.8 1.6 1 0.6 0.2 1 0.4 1.3 0.4l0.7 0.1c0.2 0 0.4 0.1 0.6 0.3 0.2 0.1 0.3 0.3 0.4 0.6 0 0.3 0 0.5-0.2 0.7-0.2 0.2-0.4 0.3-0.6 0.3h-19.7c-0.3 0-0.6-0.1-0.9-0.2-0.2-0.2-0.3-0.4-0.2-0.8 0-0.1 0.1-0.2 0.3-0.4 0.2-0.2 0.4-0.3 0.5-0.3l1-0.1c0.3 0 0.7-0.1 1.2-0.3 0.5-0.1 1-0.4 1.6-0.8 0.6-0.4 0.9-1 1.2-1.7 0.2-0.7 0.4-1.5 0.4-2.3v-26.1c0-0.4-0.1-0.9-0.2-1.7-0.1-0.8-0.4-1.4-0.9-1.8-0.4-0.4-1-0.8-1.6-1.1-0.6-0.3-1.1-0.4-1.6-0.5l-0.7-0.1c-0.2 0-0.5-0.1-0.7-0.2-0.2-0.1-0.3-0.4-0.2-0.7 0.1-0.3 0.2-0.5 0.5-0.7 0.2-0.1 0.5-0.2 0.8-0.2h36.5v10.8c0 0.4-0.1 0.6-0.2 0.9-0.1 0.2-0.3 0.4-0.6 0.5-0.3 0.1-0.5 0.1-0.8-0.1-0.2-0.1-0.4-0.3-0.5-0.7l-0.4-1.1c-0.2-0.6-0.6-1.3-1-2s-0.9-1.5-1.6-2.3c-0.6-0.8-1.5-1.4-2.4-2-1-0.6-2-1-3-1.3-1-0.2-1.9-0.4-2.5-0.4H649c-0.3 0-0.7 0.1-0.9 0.1-0.3 0.1-0.5 0.2-0.7 0.4-0.2 0.2-0.3 0.4-0.4 0.6v14.7h4.4c0.5 0 1-0.1 1.5-0.3 0.5-0.2 1-0.4 1.4-0.7 0.4-0.3 0.9-0.7 1.4-1.3 0.5-0.6 0.9-1.1 1.1-1.5 0.2-0.4 0.5-0.9 0.7-1.3 0.2-0.5 0.3-0.9 0.5-1.1 0.1-0.3 0.4-0.5 0.7-0.5 0.4-0.1 0.6 0 0.8 0.2 0.2 0.2 0.3 0.5 0.3 1v13.8c0 0.3-0.1 0.5-0.3 0.7-0.2 0.2-0.4 0.3-0.8 0.3s-0.7-0.1-0.9-0.4c-0.1-0.1-0.3-0.5-0.5-1-0.2-0.6-0.5-1.2-1-2-0.5-0.7-1-1.4-1.5-1.9s-1.2-0.9-1.8-1.1c-0.7-0.2-1.2-0.4-1.6-0.4H647v12.2z m68.2-33.1h39.1v12.3c0 0.5-0.1 0.9-0.2 1.2-0.1 0.3-0.4 0.5-0.8 0.5-0.4 0.1-0.7 0-0.9-0.2-0.2-0.2-0.4-0.5-0.5-0.8l-0.3-1.1c-0.2-0.5-0.5-1.3-0.9-2.2-0.4-0.9-1-1.9-1.6-2.8-0.6-0.9-1.4-1.7-2.4-2.5-1-0.7-2-1.2-3-1.6-1-0.3-1.7-0.5-2.3-0.5h-1.6v30.6c0 0.7 0.1 1.4 0.3 2 0.2 0.7 0.6 1.2 1.1 1.7 0.6 0.5 1.3 0.9 2.2 1.2 0.9 0.3 1.7 0.4 2.2 0.4h0.9c0.2 0 0.5 0.1 0.7 0.2 0.3 0.1 0.4 0.4 0.4 0.7 0 0.3-0.1 0.5-0.4 0.7-0.3 0.2-0.5 0.2-0.7 0.2H723c-0.4 0-0.6-0.1-0.9-0.2-0.2-0.1-0.3-0.4-0.3-0.7 0-0.2 0.1-0.4 0.3-0.6 0.2-0.1 0.4-0.2 0.7-0.3l0.9-0.1c0.4 0 0.8-0.1 1.3-0.2s1.1-0.3 1.7-0.5c0.6-0.2 1.2-0.6 1.7-1 0.5-0.5 0.8-1.1 1.1-1.8 0.2-0.8 0.4-1.5 0.4-2V586h-1.5c-0.5 0-1.1 0.1-1.9 0.3-0.7 0.2-1.6 0.5-2.5 1-1 0.5-1.7 1-2.3 1.5-0.6 0.5-1.2 1.3-1.8 2.2-0.6 0.9-1.1 1.7-1.3 2.3l-1.1 2.6-0.3 0.8c-0.2 0.4-0.3 0.7-0.5 0.8-0.1 0.2-0.4 0.2-0.6 0.2-0.4 0-0.7-0.2-0.8-0.5-0.2-0.3-0.3-0.7-0.3-1.2v-12.2z m63.5 25.5h12l-6.2-14-5.8 14z m12.8 2.4h-13.8l-2.2 6.4c-0.3 0.9-0.4 1.6-0.2 2.1 0.1 0.6 0.4 1 0.9 1.2 0.4 0.3 0.8 0.5 1.3 0.5 0.4 0.1 0.8 0.1 1.2 0.1h0.6c0.2 0 0.5 0.1 0.7 0.3 0.2 0.2 0.3 0.4 0.3 0.7 0 0.4-0.2 0.6-0.5 0.7-0.3 0.1-0.8 0.1-1.4 0.1H766c-0.8 0-1.4-0.1-1.7-0.2-0.3-0.1-0.4-0.3-0.4-0.7 0-0.4 0.1-0.6 0.4-0.7 0.3-0.1 0.6-0.2 1-0.2l0.7-0.1c0.3 0 0.7-0.2 1.3-0.4 0.6-0.2 1.1-0.5 1.5-0.8 0.4-0.3 0.8-0.7 1.2-1.1 0.4-0.5 0.7-0.9 1-1.3 0.3-0.4 0.5-0.8 0.6-1.2l13-31.7c0.3-0.8 0.6-1.4 0.9-1.8 0.3-0.5 0.7-0.7 1.3-0.7 0.6 0 1 0.1 1.3 0.5 0.3 0.3 0.6 0.9 1.1 1.8l15.3 32c0.1 0.3 0.5 0.8 1 1.6s1 1.4 1.3 1.8c0.3 0.4 0.7 0.7 1.2 1 0.5 0.3 0.9 0.5 1.3 0.5l0.6 0.1c0.3 0.1 0.5 0.1 0.7 0.3 0.2 0.1 0.3 0.3 0.4 0.5 0 0.2-0.1 0.5-0.3 0.7-0.2 0.2-0.5 0.3-0.8 0.3H791c-0.6 0-1.1-0.1-1.3-0.2-0.3-0.1-0.4-0.4-0.3-0.8 0-0.3 0.1-0.5 0.4-0.6 0.2-0.1 0.5-0.2 0.9-0.3l1.1-0.1c0.4 0 0.8-0.1 1.3-0.3 0.5-0.2 0.9-0.5 1.1-0.9 0.3-0.5 0.4-1 0.4-1.5 0-0.6-0.1-1-0.2-1.3l-3.1-6.3z m43.9 5.4c0 0.8 0.1 1.4 0.2 2 0.1 0.6 0.4 1.1 0.8 1.6s1 0.8 1.6 1c0.6 0.2 1.2 0.3 1.7 0.4l0.9 0.1c0.3 0 0.5 0.1 0.7 0.2 0.1 0.1 0.2 0.3 0.2 0.7 0 0.4-0.1 0.6-0.3 0.7-0.2 0.1-0.5 0.2-0.9 0.2h-19.3c-0.3 0-0.6-0.1-0.8-0.2-0.2-0.1-0.3-0.4-0.2-0.8 0-0.2 0.2-0.4 0.3-0.5 0.2-0.1 0.4-0.2 0.6-0.2l0.7-0.1c0.3 0 0.8-0.2 1.3-0.4 0.6-0.2 1.1-0.5 1.5-0.9 0.4-0.4 0.8-1 1-1.8 0.2-0.8 0.4-1.5 0.4-2.2v-25.7c0-0.5-0.1-1.1-0.2-1.8s-0.4-1.4-0.8-1.9-1-0.9-1.6-1.2c-0.7-0.3-1.2-0.4-1.6-0.5l-0.6-0.1c-0.2 0-0.4-0.1-0.6-0.2-0.2-0.2-0.3-0.4-0.2-0.7 0.1-0.3 0.2-0.5 0.4-0.7 0.2-0.1 0.5-0.2 0.8-0.2H840c0.3 0 0.6 0.1 0.8 0.3 0.2 0.2 0.3 0.4 0.3 0.7 0 0.2-0.2 0.4-0.3 0.6-0.2 0.2-0.4 0.2-0.6 0.3l-0.8 0.1c-0.5 0.1-1.1 0.3-1.6 0.6s-1 0.7-1.4 1.2c-0.4 0.5-0.7 1-0.8 1.6-0.2 0.6-0.3 1.2-0.3 1.8v26z m38-25.6c-0.2-0.9-0.3-1.6-0.4-2.2-0.1-0.6-0.2-1.1-0.3-1.5-0.1-0.4-0.3-0.8-0.5-1-0.2-0.3-0.4-0.5-0.6-0.7-0.2-0.2-0.4-0.3-0.6-0.3l-0.8-0.1c-0.2 0-0.4-0.1-0.6-0.3-0.2-0.2-0.2-0.4-0.2-0.7 0-0.3 0.1-0.5 0.3-0.6 0.2-0.1 0.4-0.2 0.8-0.2H884c0.4 0 0.6 0 0.8 0.1 0.2 0.1 0.3 0.3 0.5 0.5 0.1 0.3 0.1 0.5 0 0.8-0.2 0.2-0.4 0.4-0.6 0.4l-0.8 0.1c-0.4 0.1-0.7 0.2-1 0.4-0.3 0.2-0.5 0.4-0.7 0.7-0.1 0.3-0.2 0.8-0.3 1.4 0 0.6 0 1.2 0.2 1.8l3.7 17.6 4.6-17.4c0-0.2 0.1-0.7 0.2-1.6 0.1-0.9 0.1-1.4 0.1-1.6-0.2-0.5-0.4-0.9-0.8-1-0.4-0.2-0.8-0.3-1.1-0.3l-0.8-0.1c-0.1 0-0.3-0.1-0.5-0.3-0.2-0.2-0.3-0.5-0.2-0.7 0.1-0.3 0.2-0.5 0.5-0.6 0.2-0.1 0.7-0.2 1.4-0.2h7.3c0.5 0 0.9 0.1 1.2 0.1 0.2 0.1 0.4 0.3 0.5 0.5 0.1 0.3 0 0.5-0.2 0.8-0.2 0.2-0.4 0.4-0.5 0.4l-0.7 0.1c-0.4 0.1-0.7 0.2-1 0.4-0.3 0.2-0.5 0.4-0.7 0.7-0.2 0.3-0.4 0.6-0.5 1-0.2 0.4-0.3 0.7-0.3 0.9l-8.8 31.7c-0.1 0.2-0.3 0.8-0.6 1.7-0.3 0.9-0.7 1.6-1 2-0.3 0.4-0.8 0.7-1.5 0.7-0.6 0.1-1.2-0.2-1.7-0.9-0.3-0.3-0.5-0.9-0.8-1.7-0.2-0.8-0.4-1.3-0.4-1.5l-4.9-21.5-6.5 22.5c-0.1 0.3-0.3 0.8-0.6 1.4-0.3 0.6-0.6 1-0.9 1.3-0.3 0.3-0.7 0.4-1.2 0.4-0.6 0-1.1-0.3-1.5-0.8-0.4-0.5-0.7-1.3-1-2.4l-8.5-31.9c-0.1-0.3-0.3-0.8-0.6-1.4-0.3-0.6-0.6-1-0.9-1.3-0.3-0.3-0.7-0.6-1.2-0.9-0.5-0.3-0.8-0.5-1-0.5l-0.7-0.1c-0.3 0-0.5-0.1-0.6-0.3-0.1-0.2-0.2-0.4-0.1-0.7 0-0.2 0.2-0.4 0.5-0.6 0.3-0.2 0.6-0.2 1-0.2h16.1c0.3 0 0.6 0.1 0.8 0.2 0.2 0.1 0.3 0.4 0.3 0.6 0 0.3-0.1 0.5-0.3 0.7-0.2 0.2-0.4 0.3-0.5 0.3l-0.9 0.1c-0.4 0.1-0.8 0.2-1.1 0.4-0.3 0.2-0.5 0.4-0.6 0.7-0.1 0.2-0.2 0.7-0.1 1.5s0.1 1.2 0.2 1.4l4.4 18.4 4.1-16.6z m48.1 17.8h12l-6.2-14-5.8 14z m12.8 2.4h-13.8l-2.2 6.4c-0.3 0.9-0.4 1.6-0.2 2.1 0.1 0.6 0.4 1 0.8 1.2 0.4 0.3 0.9 0.5 1.3 0.5 0.4 0.1 0.8 0.1 1.2 0.1h0.7c0.2 0 0.5 0.1 0.7 0.3 0.2 0.2 0.3 0.4 0.3 0.7 0 0.4-0.2 0.6-0.6 0.7-0.3 0.1-0.8 0.1-1.4 0.1h-12.1c-0.8 0-1.4-0.1-1.7-0.2-0.3-0.1-0.4-0.3-0.4-0.7 0-0.4 0.1-0.6 0.4-0.7 0.2-0.1 0.6-0.2 1-0.2l0.7-0.1c0.3 0 0.7-0.2 1.3-0.4 0.6-0.2 1.1-0.5 1.5-0.8 0.4-0.3 0.8-0.7 1.2-1.1 0.4-0.5 0.7-0.9 1-1.3 0.3-0.4 0.5-0.8 0.6-1.2l13-31.7c0.3-0.8 0.6-1.4 0.9-1.8 0.3-0.5 0.7-0.7 1.3-0.7 0.6 0 1 0.1 1.3 0.5 0.3 0.3 0.6 0.9 1.1 1.8l15.3 32c0.1 0.3 0.5 0.8 1 1.6s1 1.4 1.3 1.8c0.3 0.4 0.7 0.7 1.2 1 0.5 0.3 0.9 0.5 1.3 0.5l0.6 0.1c0.3 0.1 0.5 0.1 0.7 0.3 0.2 0.1 0.3 0.3 0.4 0.5 0 0.2-0.1 0.5-0.3 0.7-0.2 0.2-0.5 0.3-0.8 0.3h-18.8c-0.6 0-1.1-0.1-1.3-0.2-0.3-0.1-0.4-0.4-0.3-0.8 0-0.3 0.1-0.5 0.4-0.6 0.2-0.1 0.5-0.2 0.9-0.3l1.1-0.1c0.4 0 0.8-0.1 1.3-0.3 0.5-0.2 0.9-0.5 1.1-0.9 0.3-0.5 0.4-1 0.4-1.5 0-0.6-0.1-1-0.2-1.3l-3.2-6.3z m66.8 9.8c0 1-0.1 1.9-0.4 2.4-0.3 0.6-0.7 0.9-1.2 1-0.5 0.1-0.9-0.1-1.4-0.4-0.3-0.1-0.6-0.4-1.1-0.9-0.4-0.5-0.8-0.9-1-1.1l-23.7-29.8v25.9c0 0.7 0.1 1.3 0.3 1.8 0.2 0.5 0.7 0.9 1.3 1.3 0.6 0.4 1.3 0.6 1.9 0.7 0.6 0.1 1.2 0.2 1.6 0.3l0.9 0.1c0.2 0 0.5 0.1 0.8 0.2 0.3 0.1 0.5 0.3 0.5 0.7 0 0.4-0.1 0.6-0.4 0.8-0.3 0.1-0.6 0.2-1 0.1h-14.5c-0.3 0-0.7-0.1-0.9-0.3-0.3-0.2-0.3-0.5-0.2-0.8 0.1-0.2 0.2-0.3 0.4-0.5 0.2-0.1 0.4-0.2 0.7-0.2l0.8-0.1c0.3 0 0.7-0.1 1.3-0.2 0.6-0.1 1.1-0.3 1.7-0.6 0.5-0.3 1-0.8 1.2-1.4 0.3-0.6 0.4-1.2 0.4-1.8v-26.5c0-0.6-0.1-1.3-0.2-2.1-0.1-0.7-0.3-1.4-0.7-2-0.3-0.6-0.8-1-1.3-1.3-0.5-0.3-1-0.5-1.5-0.6-0.5-0.1-0.9-0.2-1.3-0.3l-0.9-0.1c-0.2 0-0.4-0.1-0.6-0.2-0.2-0.1-0.3-0.4-0.3-0.8s0.2-0.6 0.4-0.7c0.3-0.1 0.7-0.1 1.3-0.2l12.7-0.1 20.8 25.8V590c0-0.5-0.1-1-0.4-1.6-0.2-0.6-0.6-1.1-1.1-1.5-0.5-0.4-1-0.7-1.6-0.8-0.6-0.1-1.1-0.2-1.6-0.3l-1.6-0.1c-0.3 0-0.5-0.1-0.7-0.2-0.2-0.2-0.3-0.4-0.2-0.7 0-0.3 0.2-0.5 0.5-0.6s0.6-0.2 1-0.2h14.3c0.3 0 0.6 0.1 0.8 0.2 0.2 0.2 0.3 0.4 0.3 0.7 0 0.2-0.1 0.4-0.2 0.6-0.1 0.1-0.3 0.2-0.6 0.3l-1.2 0.1c-0.4 0-1 0.2-1.7 0.4s-1.2 0.5-1.6 0.9-0.7 0.9-0.9 1.5c-0.2 0.6-0.4 1.1-0.4 1.5v31.3z m-385.6-155c2.7 0 1.8 5.8 1.8 8.7 0 2.9-2 2.1-5.5 1.3s-3.1-6.2-3.1-8.2c0-2.1 1.7-2.8 1.7-2.8s2.5 1 5.1 1z m-87.1 33.7c5.2-5.2 5.4 5.4 4.4 8.2-1 2.8-2.7 22.2-3.7 24.5-1 2.4 1 12.8-3.6 12.8-4.5 0-8.3-7.1-9.5-9.9-1.3-2.8-5.7-5.6-1.3-10 1.6-1.6 5-4.1 7.1-8.2 3.6-7 5.8-16.6 6.6-17.4z m77.4-48.9c1.5-1.4 0.9-2.4 0-4.2-0.9-1.8-2-3.1-3.5-3.1s-3 3.3-3 3.3-2 0.7-3.3 0.7c-1.4 0-3.8 0.6-5.3 0.6s-2.1 0.8-4.3 2.1c-2.2 1.2-8.4 2.5-8.4 2.5-1.3 0.3 0.1 0.8 0.1 1.7 0 0.9 1.7 0 3.3 0 1.6 0 3.7 0 5.1-1.4 1.4-1.4 1.2-1.1 5.2-1.1s5.4 2.7 6.3 3.6c0.9 0.9 2.7 1 4.1-0.4 1.3-1.2 2.2-2.8 3.7-4.3z m-18.8 12.4c1.3-4.3-6.4-4.1-6.4-4.1-5.2 1.3-5.2 1.3-5.2 6.2s6.1 3.7 8 2.3c1.9-1.3 1.8 1.3 3.6-4.4z m43.1-17c1.9 3.2 3.2 11.9 0.5 11.9s-8 0.3-8 0.3l-4.3 0.4-2.8 2.4s-6.2 1.1-9 1.1l-5.7-1.2s-2.8-0.3-5.1 2c-1.3 1.4-0.4 4.2-1.5 5.8-2.2 3-6 4.6-6 4.6s-4.5 1.9-11.7 1.2c-6.5-0.6-6.5-5.2-6.5-5.2-0.7-1-4-1.3-4-1.3-3.7-0.7-0.7 6 0.9 11.1s7.1 5.5 14.1 0.5c4.5-3.2 9.6-2 13.1-4.2 2-1.2 0.3-5 1.7-6.4 3.5-3.4 10.8 2.4 13.5 10.6 0.4 1.1-2.3 4.2-2.7 5.4-2.2 6.7-3.6 6.9-4 9.4-0.6 4.1 0.6 8.2-9.7 8.2-3.6 0-5.9 0.4-9.9-0.5-3.8-0.8-5.5-0.6-7.7 4-1.8 3.8-1.1 5.6-0.2 6.6 2.1 2.1 10.4-0.1 13.9-3.6s7-4.1 13.4-3.7c13.2 0.9 5.1 24.3 5.1 24.3s-4.8 21.9-4.8 27.3c0 5.4-7 14.1-12.3 8.9-10.3-10.3-22.1-18.8-16.7-18.8s10.8 0.9 12.2 0.9c1.3 0 3.6-4.4 4.5-8.6 0.9-4.2 5.7-14.9 3.2-17.4-4.9-4.9-10.8-0.5-15.3 3.2s-5.4 3.7-9.6 3.7c-4.2 0-8.1 0.1-8.1-8.5 0-1.6 2.5-6.6 3.8-11.6 1.2-5 1.2-9.9 1.8-11.3 2-4.8 4 1.1 7.7 1.1 5.9 0 8.1-4.9 13.1-6.5 4.9-1.6 4-3.5 4-7.5s-2.4-3.1-6-1.1c-3.2 1.7-6.2 2.4-11.7 6.4-6.2 4.5-11.2 4.5-12-0.6-0.2-1.6 0.6-5.3-0.9-6.6-1.3-1.3-2.8-1.4-3.4-3.4-0.9-2.6 1.2-7.8 1.2-10.2 0-1.4-6-0.9-7.1 0.2-1.2 1.2 1.5 10.4-2.6 9.4-2.1-0.6-5-4.3-5.9-3-0.8 1.2 0.4 7.5-0.2 8.6-0.8 1.6-2.7 1.5-5.7 1.5s0.2-6.3-3.2-9.8c-3.5-3.4 1.6-9 4.5-11.5 3-2.5 6.5-5.3 6.9-9.2 0.4-3.9-1.6-4.8-6.5-5.2-4.9-0.4 0.4-6.1 2.4-12 2.5-7.5 5.5-18.5 10.2-17.8 4.6 0.7 6.4 6.7 4.3 11.7-2.1 5-3.8 5.1-2.4 7.7 1.4 2.6 10 3.8 3.7 12.6-1.9 2.6-4.8 7.1-3.6 8 0.6 0.4 2.6 0.6 3.9-0.3 1.1-0.8 1.4-2.7 2.7-2.9 1.6-0.3 2.2 0.9 3.6 1.3l5.8-0.1s3.3-1 3.3-2.8-0.6-4.9-0.6-4.9-4.6-1.1-4.6-2.5c0 0-1.5-2.4 1.1-3 2.6-0.6 30.9-3.7 35.3-8.1l4.6-2.9 3.6-6.7c3-7.2 3.9-11.4 3.9-11.4 7.2-7.2 6.9 6.6 5.8 10.2-1.1 3.7-4.8 8.4 0.6 7 5.4-1.4 5.5-0.6 5.5 2.4s-5.5 7.6-8.8 10c-3.3 2.4-3 3.7-2.6 5.7 0.4 2.1 7.1-3.1 10-4.7 2.6-1.5 3-2.2 4-0.6z m1.9 20.1c1.8 1.7 4.4 5.5 5 7.3 0.5 1.7-2.7 3.3-3.2 3.8s-2.8 0.6-5.6-0.2c-2.8-0.9-4.2-3.2-4.7-5.8-0.5-2.6 0.1-3.4 1.8-5 1.7-1.8 4.9-1.8 6.7-0.1z m-106.5 8.8c-0.5 2.6 0.2 13.5-10.7 11-4.4-1-8.8-8.7-8.8-10.1l-1-6.5c-0.5-3 3.5-4.2 10.6 0.8 2 1.4 2.9 0.3 5 0.2 2.8 0 5 4.4 4.9 4.6z m-10-34.6c-2-2.2-4.6-3.5-5.1-5.1-1.5-4.3 0.9-6.6 0.9-6.6s9-5.1 15.2-3.6c6.2 1.5 9.5 8.1 7.2 12.6-1.1 2.3-2.9 5.1-4.7 7.4-0.9 1.2 0.3 2.2-0.5 2.9-0.8 0.7-3.6 1-4.2 1.2-4.9 0.9-5.3-4.8-8.8-8.8z m52.8-11.8c-12.4 1.1-8.2-10.6-6.5-9 1.6 1.6 12.5-2.1 12.5-2.1 2.1 0 4.4-0.7 5.8-4.4 1.4-3.7-5.8-8-0.6-8 1.9 0 4.9-1.4 8.3-0.7 3 0.6 3 7 6.2 8.2 3.2 1.2 9.6-2.7 11.9-2.1 1.7 0.5 6.8 7 3.7 10.1-1.4 1.3-5.6 1-10.2 1.5-2.6 0.3-5.4 1.7-7.8 1.7-6.7 0.1-14.7 4.1-23.3 4.8z m21.9 0.5c9.4-1.9 9.6 4.9 7.7 4.4-1.9-0.6-8.1 5.2-13.1 5.2s-9 2.4-12.7 3.6-6.4-4.9-6.4-4.9c-0.4-1 1.9-5.3 3-5.4 5.1-0.5 13.7-1.4 21.5-2.9z m192.1 85.8c1.2-3 0.1-6.5-5.1-7.7-5.2-1.2-8.1 2.9-8.1 5.3l0.8 18.5s1 1.2 2.4-0.5c3.4-4 9.1-13.5 10-15.6z m-10.8-57.1l-0.6 13s5.6-0.7 6.9-1.9c1.3-1.1 3.6-1.4 4.2-5.4 0.6-4 3.4-8.2 0-8.4-3.4-0.2-10.5 1.4-10.5 2.7z m0.5-22.2v9.7s1.5 0.2 4.5-0.8 6.8-0.1 7.7-1c0.9-0.9 3.1-8.5 4.2-9.6 1.1-1.1-1.6-4.6-10.8-2.8-5.7 1.2-5.6 4.5-5.6 4.5z m57 87.8c4 3.1 6.5 4.5 6.5 7.1 0 4.2 0.4 2.8-12.5 4-12.9 1.2-25.4-13.8-29.3-15.8-3.9-2-4.9 1.5-4.9 1.5s-16.8 37.6-23.9 37.6c-7.1 0-6.7-8.9-7.5-11.2l1.5-6.8s2.9-36.9 1.6-41.1c-1.3-4.2-7.5-6.9-7.5-6.9s0.2 2.8-1.2 4.7c-2 2.6-5.9 4.7-7.1 5.8-1.9 1.9-1.4 6.8 2.1 6.1 7.6-1.4 6.6 5.6 2.9 9.3-2.1 2.1-10.3 6.9-16.2 10.4-4.4 2.6-8.7 5.9-11.4 7.5-6.4 3.7-11 1.2-16.6 1-5.5-0.2-2.6-10.1 0-10.1s19.3-4.3 19.3-7.1c0-6.1 1.2-25.6 1.2-28.8 0-1.2-4 2.4-7.3 2.7-2.8 0.2-2.1-0.4-6.7-2.9-4.5-2.4-3.3-9.5 0.9-10.8 4.2-1.3 12.5-2.6 12.5-2.6s0.6-8.5-2.9-8.5c-4.9 0-5.1-3.5-2.1-6.5 4.2-4.2 13.7-11.5 13.7-11.5 7.7-4.5 15.9 6.9 14.6 10s-5.4 1.4-7.5 2.6c-7.6 4.5-7.9 3.4-7.9 5.2 0 1.1-0.3 3.5 6.2 1.9s8.8-0.4 9.6 4.2c0.7 4.6-7.1 7.4-8.6 8.9s-3.8 0.6-5 3.6c-1.2 3 0.5 6.1 0.9 8.1 0.3 2 4.2 3.4 4.5-2.6 0.3-6 2.5-6.7 5.4-7.3 1.4-0.3 4.1 3.9 6.5 4.1 2.4 0.3 4.5-3.3 4.9-6.2 0.9-5.8 4.6-1.7 4.6-1.7s-1.8-29.3-0.9-37.3c0.9-7.9-2-10.2-2-10.2s-0.9-1.9 2.2-4.6c1.1-0.9 5.3 0 6.8-1.5 6.1-6 10.2-4.5 10.2-4.5 15.2 2.4 20.9-8.3 28.1-4.4 7.2 3.9-0.8 11.5-3.5 18.3-1 2.6-3.5 9.5-6.7 16.7-5 11.3-9.5 25.4-11 26.8-2.4 2.2-6.4-2-10.2-2-3.3 0-6.1 1.8-6.1 6.1v5.9c0 1.7 3.1 4.5 6 3.1 4.9-2.2 11.5-10.6 17.5-15.7 9.7-8.2 6.8-8.3 13-5.8 6.2 2.5 5.4 11.1 2.4 11.1-3 0-17.9 12.5-22.2 14.7-4.3 2.3 2 5.2 2 5.2s10.7 4.7 29.2 12.1c7.5 2.9 9.3 6.1 11.9 8.1z m-116.1-64.9c-5.8 6.6-16.7 17.6-21.5 17.1-9.7-0.9-3.6-12.8-3.6-12.8l36-38.9s2.5-9.9 12.9-11.8c4.1-0.7 5.2 1.9 8.5 5.5 2.8 3.1 7.8 5.1 10.2 7.9 1.9 2.2 2 3.9 2 5.9 0 0-2.4 7.1-4.8 7.1s-8.2-3.3-14.4-3.3c-6.3 0-19.4 16.6-25.3 23.3z m-1.9 58.9c-3.5 0-10.4-12-10.4-14.1 0-3.1 0-2.1 6.2-2.1s11.5 9.5 11.5 9.5 2.1 4 0 6.1c-1.5 1.6-3.8 0.6-7.3 0.6z m266.3-74.2c-3.7 1.1-9.3-4-11.3-7.7-3.7-7 18.8-7.8 23.7-8.5 4.9-0.7 5.3-3.6 13.1-1.2 7.8 2.4 6.9 11.4 2 11.9-3.1 0.3-9.9-0.8-13.1 0-3.1 0.8-10.7 4.5-14.4 5.5z m39.1 12.2c8.8 3.9 9.6 14.2 5.6 13.4s-21.3-0.8-27.2 0.8c-0.8 0.2 2 3.9 2.3 9.7 0.3 6.9-0.5 16.6 0 27 1.2 24.3-0.9 47.4-3.8 49-5.2 2.8-7.9 1.2-13.3-1.3s-8.4-5.2-10.3-8.4c-2.7-4.6-16.1-16.7 3.7-7.1 0 0 8.4 1.4 8.3-3-0.1-4.3 0.7-62.7 0.7-62.7s-8.6-3.1-20.9 2.4c-12.3 5.6-16.4-0.4-18.4-2.5-2.1-2 0.7-7.2 0.7-7.2s18.6-2.8 24.7-2.8c6.1 0-0.1-2.2 13.8-2.9 13.8-0.5 30.5-6 34.1-4.4z m-86.6-7.5c0 1.6 5.4 4.2 7.7 10.4s-5.6 9.5-8.9 13.5c-3.3 4-5.9 6.4-5.9 6.4l2.3 17.2 0.6 9.9s-0.1 24.5-0.1 29.5c0 2-2.1 5-3.1 6.4-1.5 2.1-5 4.6-7.9 1.3-4.8-5.5-0.5-32.2-0.5-44.5s-8.4-9.7-8.4-9.7-6.9 15.1-13.1 15.1c-11.5 0-9.7-15.3-7.4-17.5 18.5-18.5 24-24.2 26.2-26.3 2.2-2.1 3.6-9.6-0.5-8.8-6.3 1.1-9.6-6.8-6.7-9.7 2.9-2.9 25.7-28.3 25.7-28.3 8.9-3.9 15.8 14.9 15.3 15.5-0.5 0.6-9.4 6.1-12.2 10.9-2.9 4.7-3.1 2-3.1 8.7z m-554.3 7s-2.4 7 2.1 7.8c4.5 0.8 7.5-0.4 7.5-0.4s4.2-2.6 5.2-5.1c1-2.5-3-3-3-3l-6.4 0.5-5.4 0.2z m6.4 17.3c2.2-0.3 23.5-5.2 42.2-3 11 1.3 21.1 7.4 26.1 12.1 0 0 0 8.1-7.5 6.7s-28.6 1.3-28.6 1.3l-2.6-4.4s4.1 0 4.1-7.3c0 0-14.4-0.6-32.1 2-18.9 2.7-31.4 5.3-31.4 5.3s-10.2 1.4-11.7 2.9-7.7-4.8-6.3 15.3c0.6 7.6-4.9 9.3-4.9 9.3s-2.8 2.1-8.5-3.6c-3.8-3.9-4.6-11.1-4.3-15 0.2-1.9-0.1-3.6-0.1-3.6s-1.7-5.4 6.5-9.1c1.7-0.8 4.2-1.3 7-1.6 1.6-0.2 1.6 3.1 3.4 3 10.2-0.5 22.8-5.2 28.5-7.4 8-3.1 5.9-3.4 5.9-3.4s-2.5-11-6.2-13.2c-3.7-2.2-4.1-6.8-4.1-6.8s4.4-4.4 5.5-4.1c15.2 3.4 33.9-7.1 38.4-7.1s17.6 6.8 12.8 11.7-11.5 12.2-13.2 13.5c-1 0.7-13 2.5-18.3 4.1-3.8 1.2-2.1 2.6-0.6 2.4z m41.5 75.3c2.5 0.4 5.4 5 3.9 8.9-1 2.6-5.7 4.9-7.3 5.4-4.1 1.2-35-6-45.3-2.5-10.7 3.6-15.7 4.4-18.6 4.4s-12.8-7.7-4-12.1c0 0 7.6 0 11.8-0.6 5.7-0.8 5.9-1 9.7-1 2.8 0 6.2-1.9 6.2-4.2 0-4.6-1.3-5.2-3.6-4.4-2.3 0.7-9.3 3.5-13.4 2.6-1.6-0.4-6.2-1-7.7-2.6-1.2-1.3-0.5-3.5-0.5-5.6 0-1.8-0.9-3.4 0.7-4.2 2.4-1.1 3.2-2.7 6.5-2.2 4.4 0.6 9.3 0.2 13-0.6 6.4-1.5 6.3-5.7 5.7-9.4-0.6-3.8-3.3-2.7-3.3-2.7s-8.2-0.1-12.3 4c-4.1 4.1-9.7-3.9-9.4-6.1 0.3-2.2 16.8-9.7 19.8-15.4s-9.8-2.9-12.1-2.4c-2.3 0.5-4.4-7-1.9-8.2 0 0 11.2 0.1 21.6-2.3 9.3-2.1 17.9-6.7 20.8-5.5 6 2.6 5 9.4 1.7 10-3.4 0.7-20.8 9.4-18.6 10.2 2.2 0.7-0.4 2.3-0.4 2.3s-7.6 4.1-3.3 6.7c2.1 1.2 8.5 0.6 14-2.9s5.3-7 9.5-7c1.6 0 5.2 4.2 6.2 7.1 1.5 4.4-0.3 10-1.6 10.4-1.2 0.4-6-2.8-9.7-3.9-3.3-0.9-4.5-0.1-6.1 2.1 0 0-2 5.3-0.3 7.1 1.1 1.1 5.4 2.4 7.6 1.8 0 0 5.8 3.7 5.8 7.1 0 1.7-2.9 2.6-4.8 3.6-3 1.5-7.3 1.2-9.3 1.2-2.1 0-2.1 6.1-1.7 9.5 0.1 0.7 0.5-1.4 0.5 3.2 0 0 5.2 0.7 9.3-0.4 2.9-0.8 4.2-3.5 7.5-3.2 3.5 0.2 12.1 1.6 13.4 1.8z m-55.6-120.8c-8.8 0.9-8.1-13.8-2.3-12.6 3.4 0.7 6.9-0.6 9.9-1 3-0.5 4.5-1.7 4.5-1.7-1.2-8.7 3.7-11.8 3.7-11.8 5.9-3.6 17.1 1.6 19 6.5 1 2.6 2.4 1.2 5.5 2.4 3 1.2 2.3 7.4 0.2 7.9-2.1 0.5-7.1 2.8-9.4 4.1-2.6 1.4-1.7 0-3.4 1.5-1.6 1.5-0.2 4.8-0.2 4.8s2.8 0.1 7.8 2.1 0.5 7.8-1.7 7.7c-2.2-0.1-10.2 2.4-14.7 3.1-4.5 0.7-10 5.8-15.6 5.7s-6.1-6.3-5-9.2c0.6-1.6 3.5-2.8 6.8-3.3 3.3-0.6 4.4-2.2 4.4-2.2s1.6-1.7 2.2-2.3c1.9-2-3.4-2.6-11.7-1.7z" fill="#AE0F68"></path></svg>