<svg viewBox="0 0 1024 1024" version="1.1" xmlns="http://www.w3.org/2000/svg"><path d="M224 0h576c123.6 0 224 100.4 224 224v576c0 123.6-100.4 224-224 224H224c-123.6 0-224-100.4-224-224V224C0 100.4 100.4 0 224 0z" fill="#FFFFFF"></path><path d="M829.2 388.8c50.8 128.8 14.8 280.8-88 371.6-88.8 80.4-220.4 109.6-338 70.4-131.6-43.6-224-162.8-230.8-302-7.2-131.6 62-250.4 177.2-313.2 105.6-60.4 264-50.8 360.4 22.4 53.2 36 95.2 92.4 119.2 150.8z m-332-53.6c-19.6-5.6-40.4-9.2-61.6-11.2-8.4 2-13.6 11.2-17.6 16.8-12.8 17.6-18.4 39.2-33.2 56.4-4.4 7.6-14.8 4-20.4 9.6-12.8 0-24 4-34.8 10.4-0.8 1.2-1.2 3.6-3.6 2.8-2.8 5.6-7.2 10.4-11.2 16-10.8 14-30.4 18-45.2 26.4-18.4 10.4-36.8 20.4-51.6 36l0.8 0.8c-7.6 11.2-19.2 17.2-26.8 28 7.6-2 6.4-11.2 15.6-9.6 2 5.6-4.8 7.6-5.6 11.2 2.8-1.2 6.4-3.6 9.2-2.8-1.6 4-4.8 6.4-8.4 9.2 3.6-1.2 2.8 2 4.4 2.8 3.6 0.8 9.2-5.6 14-2.8-4.4 4-9.2 9.2-12 11.2v0.8c2.8 0 4.8 0 6.4-2 4.8-0.8 9.2-7.6 13.6-8.4l-7.6 10.4 8.4-6.4c2 2.8-4.8 4.8-1.2 7.6 6.4-2.8 7.6-9.2 13.6-12-0.8 5.6-7.2 9.6-10 14.8 2.8-2.8 11.2-4.8 10-10.4 5.6-5.6 12.8-9.6 16.8-16.8 15.6-16.8 26.8-34 50-38.8 0.8 0.8-1.6 1.2 0 0.8 12.8-10.4 32.4-10.4 44.4-22.8 2-2.8 5.6-8.4 10.4-6.8v-1.2c0.8-2.8 3.6-4.8 7.2-4.4l0.8 2.8c10-11.2 26.8-6.8 34.4-17.6v1.6c11.2-3.6 19.2-14 25.6-22.4 4.4-6.4 7.2-13.2 12.8-17.6 3.6-5.6 5.6-12.4 11.2-17.2 6.4-0.8 14.8-1.6 21.2 0.8 8.4 11.2 23.2 4.8 36 5.6 0.8 6.4 7.2 0 7.6 6.4 10.4 4.8 14 20 23.2 28.4-5.6 3.6-12.8 9.2-14 16.8-9.2 1.2-0.8 11.2-10 12 2.8-3.6 8.4-3.6 11.2 0l-2 2c-10.8 4.8-21.2 12-31.6 18l1.6 1.6c-2.8 2-5.6 5.6-8 6.8h2c2 0.8 1.6 3.6 1.6 2.8 3.6 0 7.2-4.8 10-2 0.8 0.8-0.8 1.2-0.8 2 3.6-4.8 7.6 0.8 10 0.8-4.8 4-11.2 9.2-16.8 13.2h5.6c-2 6.4-10 4-13.6 9.6 4.4 0 1.2 4.8 0 5.6 2.8-0.8 5.6-4 9.2-2-2 4.8-8.4 5.6-9.2 11.2 4.8-2.8 7.6-11.2 14-8.4 0.8 2-4 2.8-2 6.4 2.8-0.8 4.8-4 8.4-2.8 1.6 0 2.8 1.2 2 2.8 2.8-3.6 8.4 0 11.2-2.8 10-13.2 28.8-11.2 43.2-17.6l-0.8-3.6c2-8.4 14.8-6.4 22-9.2 2-8.4 13.6-2 16.8-9.6 4.4-3.6 7.6 1.2 12 1.2 5.6-2.8 13.6-2 18.4-4.8 13.6-2.8 24.8 13.2 32.4 20.8 17.6 20.8 44 36 65.6 46.4-12-8.4-24.8-14-36.8-22.8 0.8-2 2.8-1.2 4.4-1.2 10.4 7.6 21.2 13.2 31.6 20 22 17.2 48.8 32 72.8 41.6l-3.6-2.8c0.8-0.8-0.8-2 0.8-2.8l4.8 2.8c0.8-2.8 4.4-2.8 6.4-3.6-3.6-6.4-12.8-8.4-19.2-12-18.4-10.4-40.8-21.6-57.2-36.8l0.8-0.8c20.4 12.4 41.6 26.4 64.8 36 3.6 6.8 9.2 2.8 14.8 4.8-1.6-0.8-4.4-0.8-4.4-2.8h11.2c-2-6.8-12.8-4-16.8-10.4 4.4-1.2 10 0.8 14 2.8v-0.8c-2-1.2-7.2-1.2-5.6-5.6-32.4-12-61.6-32-88.8-52.4-22.8-12.4-34.8-42.4-60-50.8-4-5.6-5.6-11.2-9.2-17.2l-2.8 1.6c-4.8-5.6-5.6-12.4-9.2-18-3.6-4.8-10.8-6.4-15.6-6.4-7.6 4.4-19.6-2.8-24.8 1.6l4.4 2c-1.6 2-2.8 4.4-6.4 3.6-15.6-11.2-28.8-28-40.8-42.4 6.4-17.6-16.8-21.6-25.6-34-12-9.6-27.2-0.4-39.2 3.2z" fill="#009D96"></path></svg>