<svg viewBox="0 0 1024 1024" version="1.1" xmlns="http://www.w3.org/2000/svg"><path d="M224 0h576c123.6 0 224 100.4 224 224v576c0 123.6-100.4 224-224 224H224c-123.6 0-224-100.4-224-224V224C0 100.4 100.4 0 224 0z" fill="#FFFFFF"></path><path d="M461.2 652s3.2-22.8 15.6-50.4h54.8c12 27.6 15.6 50.4 15.6 50.4H620c-42-137.2-29.6-238-29.6-238h-38l34-66h-164.4l34 66h-38s12 100.8-29.6 238h72.8z m-74.8-206.4H303.2c28-87.6 110-151.2 206.8-151.2 96.8 0 178.8 63.6 206.8 151.2h-83.2v38.4H764c-13.6-128-122.4-228-254-228S269.6 356 256 484h130.4v-38.4z m250 82.4v38h87.2c-23.6 94-109.2 163.6-211.2 163.6-102 0-188-69.6-211.2-163.6h87.2V528H256c7.2 133.6 119.2 240 256 240s248.8-106.4 256-240h-131.6z m-122.4 284C347.2 812 212 676.8 212 510S347.2 208 514 208 816 343.2 816 510 680.8 812 514 812zM512 172c-187.6 0-340 152.4-340 340s152.4 340 340 340 340-152.4 340-340-152.4-340-340-340z" fill="#F5AB00"></path></svg>