<svg viewBox="0 0 1024 1024" version="1.1" xmlns="http://www.w3.org/2000/svg"><path d="M224 0h576c123.6 0 224 100.4 224 224v576c0 123.6-100.4 224-224 224H224c-123.6 0-224-100.4-224-224V224C0 100.4 100.4 0 224 0z" fill="#FFFFFF"></path><path d="M704.8 615.6s-6 17.6-20.4 52.8c-14.4 35.6-27.2 34.4-39.2 34.4-12 0-262 1.2-262 1.2s-4.8-0.4-2.8-9.2c2-8.8 141.6-390.8 141.6-390.8l132.4 0.4-102.4 278.8 130.4-1.2c38.4 0 22.4 33.6 22.4 33.6zM305.6 472s-25.6 4-14.8-34.8l24-65.2s10.8-19.6 40.8-19.6H468l-44.8 118-117.6 1.6z m328.8 0l42.8-124h132.4c-58-104-166-176-294.8-176C326 172 172 318.8 172 512c0 21.6 2 48.8 6 69.2h202.4l-41.6 122H228.8C289.6 794.8 388 852 513.6 852c188.4 0 338.4-158.8 338.4-338.4 0-14.4-0.8-24.4-0.8-41.6h-216.8z" fill="#00633E"></path></svg>