<svg viewBox="0 0 1024 1024" version="1.1" xmlns="http://www.w3.org/2000/svg"><path d="M225.120623 0h573.758754c123.119066 0 223.128405 100.009339 223.128405 223.128405v573.758755c0 123.119066-100.009339 223.128405-223.128405 223.128404H225.120623c-123.119066 0-223.128405-100.009339-223.128405-223.128404V223.128405C1.992218 100.009339 102.001556 0 225.120623 0z" fill="#FFFFFF"></path><path d="M850.677043 529.929961c-10.359533 177.307393-158.580545 318.754864-338.677043 318.754864s-328.31751-141.447471-338.677043-318.754864h152.205448c11.15642 0 21.914397 4.781323 29.484825 13.148638l62.555642 68.532296c2.789105 3.187549 7.968872 3.585992 11.15642 0.398444l0.398443-0.398444 77.298055-76.501167c3.187549-3.187549 7.968872-3.187549 11.15642 0l81.28249 76.899611c3.187549 3.187549 7.968872 2.789105 11.156421-0.398444l68.532295-70.12607c7.570428-7.570428 17.929961-11.953307 28.687938-11.953307h143.439689z m0-39.844358H702.456031c-10.757977 0-21.11751-4.382879-28.687938-12.351751L520.765759 318.754864c-4.382879-4.781323-11.953307-4.781323-16.734631-0.398444-0.398444 0-0.398444 0.398444-0.398443 0.796887l-141.845915 157.783658c-7.570428 8.367315-18.328405 13.148638-29.484824 13.148638H173.322957c10.757977-177.307393 158.580545-318.754864 338.677043-318.754864s327.919066 141.447471 338.677043 318.754864z" fill="#EC1D24"></path></svg>