<svg viewBox="0 0 1024 1024" version="1.1" xmlns="http://www.w3.org/2000/svg"><path d="M206.603569 517.394732c-3.096976 54.247024-48.252878 97.50478-103.19922 97.50478S3.302105 571.641756 0.20513 517.394732h48.252878c2.297756 0 4.395707 0.999024 5.994146 2.597463l20.87961 22.977561c0.599415 0.699317 1.598439 0.699317 2.297756 0.099903l24.775805-24.576c0.599415-0.599415 1.598439-0.599415 2.197853 0l25.874732 24.675902c0.599415 0.599415 1.698341 0.599415 2.297756 0l22.577951-23.277268c1.498537-1.598439 3.596488-2.397659 5.794342-2.397659h45.45561z m0-12.088195h-0.999025v-0.099903l-1.798244 0.099903h-44.056975c-2.197854 0-4.295805-0.899122-5.794342-2.497561l-48.75239-50.450732c-0.899122-0.999024-2.497561-0.999024-3.396683-0.099903l-0.099902 0.099903-45.355708 50.350829c-1.498537 1.698341-3.69639 2.697366-5.994146 2.697366H4.800642l-3.996098-0.099902v0.099902H0.20513c3.29678-53.947317 48.35278-96.805463 103.199219-96.805463s99.902439 42.858146 103.19922 96.705561z" fill="#EC1D24"></path><path d="M582.536447 506.705171c0.39961-0.699317 1.498537-0.899122 3.29678-0.599415 1.798244 0.299707 3.69639 1.198829 5.494634 2.797268 1.798244 1.598439 2.897171 3.196878 2.997074 4.89522 0.199805 1.698341 0 3.096976-0.39961 4.395707-0.39961 1.098927-0.999024 1.998049-1.598439 2.797269-0.699317 0.699317-1.498537 1.198829-2.397659 1.398634-0.899122 0.199805-1.698341 0-2.397658-0.699317-0.39961-0.299707-0.699317-1.098927-1.098927-2.397659-0.39961-1.298732-1.198829-3.596488-2.397659-6.993171s-1.698341-5.294829-1.498536-5.594536z m26.174439 39.960975c-0.79922-0.79922-1.598439-1.598439-2.397659-2.197853-0.79922-0.599415-2.097951-0.999024-3.69639-1.098927-0.599415 0-1.798244 0.099902-3.596488 0.39961-1.798244 0.199805-3.69639 0.299707-5.794341 0.299707-3.996098 0-6.993171-0.39961-8.891317-1.198829-1.898146-0.899122-3.596488-1.998049-4.995122-3.396683-1.498537-1.398634-2.397659-2.397659-2.797269-2.997073-0.39961-0.599415-0.599415-1.098927-0.599414-1.498537 0-0.39961 0.39961-0.39961 1.198829 0.199805 1.698341 1.198829 5.194927 1.898146 10.589659 2.297756 2.297756 0.199805 4.595512 0 6.793365-0.499512 2.197854-0.599415 3.996098-1.798244 5.494635-3.796293 1.498537-1.898146 2.597463-3.69639 3.196878-5.294829 0.599415-1.598439 1.198829-3.69639 1.498536-6.293854 0.39961-2.597463 0.599415-4.995122 0.599415-7.292878 0.099902-2.297756-0.099902-4.295805-0.599415-5.894244-0.39961-1.298732-0.899122-2.197854-1.398634-2.697366-0.599415-0.39961-1.398634-0.79922-2.497561-0.999024-1.098927-0.199805-3.096976-0.199805-6.094049-0.099902-2.997073 0.199805-4.795317 0.299707-5.494634 0.299707-3.096976 0.099902-5.194927-0.299707-6.293853-0.999025-1.198829-0.699317-1.998049-1.498537-2.497561-2.197853-0.499512-0.699317-0.899122-1.598439-1.298732-2.697366-0.299707-1.098927-0.599415-2.397659-0.699317-4.096-0.199805-1.698341-0.099902-3.096976 0.099902-4.195903 0.299707-1.098927 0.599415-1.798244 1.098927-2.297756 0.499512-0.39961 1.598439-0.39961 3.296781 0.099903l8.891317 4.295805c0.79922 0.39961 2.497561 0.999024 4.895219 1.698341 2.497561 0.79922 4.195902 1.098927 5.095024 0.899122 0.899122-0.099902 1.598439-0.499512 2.097952-1.298732s0.79922-2.197854 0.899122-4.096c0.099902-1.998049 0-3.996098-0.199805-6.094048-0.199805-1.198829-0.39961-2.297756-0.599415-3.396683-0.299707-1.098927-0.39961-1.898146-0.499512-2.497561-0.099902-0.599415 0-0.999024 0.299707-1.398634 0.299707-0.39961 0.999024-0.599415 2.097951-0.599415 2.297756 0 4.49561 0.39961 6.493659 1.298732 2.097951 0.899122 3.29678 1.698341 3.69639 2.597463 0.39961 0.79922 0.39961 2.597463-0.099902 5.294829l-0.599415 4.49561c-0.299707 2.097951-0.199805 3.396683 0.299708 4.096 0.79922 1.298732 2.397659 1.998049 4.995121 1.998049 1.898146 0.099902 3.496585-0.299707 4.89522-0.999025 1.398634-0.79922 2.297756-1.098927 2.697366-0.999024 0.899122 0.199805 1.498537 0.999024 1.898146 2.397659 0.39961 1.298732 0.599415 2.397659 0.699317 3.196878 0.099902 0.79922-0.099902 1.598439-0.499512 2.397658-0.39961 0.699317-0.79922 1.098927-1.398634 1.498537-0.599415 0.299707-1.298732 0.499512-2.397659 0.599414l-5.194926 0.099903c-1.198829 0-2.197854 0.199805-2.897171 0.499512-0.79922 0.299707-1.498537 0.999024-2.297756 1.998049-0.79922 1.098927-1.098927 2.997073-1.19883 5.894244v6.493658c0 1.798244-0.099902 3.396683-0.199804 4.995122-0.099902 1.498537-0.199805 3.29678-0.39961 5.394732-0.199805 2.097951-0.499512 4.195902-0.899122 6.193951-0.39961 2.097951-0.999024 4.096-1.898146 6.193951s-1.598439 3.396683-2.197854 3.996098c-0.499512 0.599415-0.699317 0.999024-0.699317 0.999024z m-52.149073-46.654439c-2.097951 0.699317-4.49561 0.999024-6.993171 0.999025-1.198829 0-2.597463-0.099902-4.195903-0.499512s-2.797268-0.899122-3.496585-1.59844c-0.699317-0.699317-1.398634-1.598439-1.798244-2.797268-0.499512-1.198829-0.699317-2.497561-0.799219-3.996097-0.099902-1.498537 0-2.797268 0.199805-3.896195 0.099902-0.599415 0.299707-1.798244 0.799219-3.496586s0.899122-2.597463 1.198829-2.697366c0.39961-0.099902 0.899122 0.199805 1.498537 0.699317l2.897171 2.897171c2.297756 2.197854 4.795317 3.496585 7.592585 3.896195 2.797268 0.39961 4.49561 0.39961 4.995122 0s0.599415-1.998049 0.199805-4.695414c-0.099902-0.899122-0.299707-2.597463-0.499512-4.89522-0.199805-2.297756-0.299707-4.395707-0.599415-6.094049-0.199805-1.698341-0.199805-2.897171 0.099902-3.496585 0.699317-1.398634 2.197854-1.898146 4.695415-1.398634 3.196878 0.599415 5.494634 1.498537 6.893268 2.897171 1.398634 1.398634 2.197854 2.597463 2.297756 3.496585 0.099902 0.999024 0 2.197854-0.299707 3.69639-0.899122 3.796293-1.498537 6.393756-1.898146 7.79239-0.39961 1.298732-0.499512 2.397659-0.39961 2.997074 0 0.699317 0.299707 1.298732 0.79922 1.898146 0.499512 0.599415 1.598439 0.999024 3.396682 1.198829 1.798244 0.199805 2.897171 0.499512 3.296781 0.999025 0.39961 0.499512 0.599415 1.498537 0.499512 3.29678 0 0.599415-0.199805 1.398634-0.499512 2.297756-0.299707 0.899122-1.698341 1.098927-4.096 0.599415-2.497561-0.599415-3.796293-0.599415-4.195902-0.199805-0.299707 0.39961-0.099902 1.298732 0.599414 2.497561 0.599415 0.999024 1.498537 1.798244 2.697366 2.397658 1.298732 0.699317 2.597463 0.79922 3.69639 0.299708s1.798244-0.699317 2.097951-0.599415c0.299707 0.099902 0.499512 0.499512 0.599415 1.298732 0.099902 0.79922 0 1.898146-0.39961 3.396683-0.499512 1.798244-0.899122 2.997073-1.198829 3.796292-0.299707 0.699317-0.899122 1.498537-1.798244 2.297756-0.899122 0.79922-1.698341 1.198829-2.497561 1.298732-1.398634 0.099902-3.496585-1.498537-6.193951-4.995122-0.299707 2.597463-0.39961 4.695415-0.499512 6.193951-0.099902 1.498537-0.099902 3.096976-0.099903 4.795318v9.790439l0.699317 9.490731c0.099902 2.597463-0.099902 4.89522-0.799219 6.893269-0.599415 1.998049-1.198829 3.096976-1.798244 3.29678-0.599415 0.199805-1.798244-0.79922-3.496585-2.997073-1.098927-1.298732-1.898146-2.297756-2.297756-2.997073-0.499512-0.699317-0.999024-1.598439-1.698342-2.797269-0.599415-1.198829-0.999024-1.998049-0.999024-2.597463 0-0.499512 0.099902-1.298732 0.399609-2.397659 0.199805-0.699317 0.599415-2.197854 1.398635-4.395707 0.699317-2.297756 1.098927-3.896195 1.398634-4.695414 0.199805-0.899122 0.599415-2.697366 1.198829-5.494635s0.999024-4.795317 1.098927-5.894244l0.299707-3.29678v-3.396683c-0.999024 0.999024-1.698341 1.798244-2.197853 2.397659-0.499512 0.599415-0.999024 1.498537-1.498537 2.697365-0.499512 1.198829-0.899122 2.397659-1.298732 3.796293l-0.899122 3.396683c-0.999024 2.897171-2.297756 4.89522-4.096 5.894244-1.798244 0.999024-3.996098 1.098927-6.593561 0.099902-2.597463-0.999024-4.595512-2.597463-5.794341-4.995122-1.198829-2.397659-1.898146-3.796293-1.898147-4.195902l-0.199804-1.598439c2.797268-0.599415 5.194927-1.398634 7.292878-2.597463 2.097951-1.198829 3.596488-2.197854 4.695414-3.096976 0.999024-0.79922 2.397659-2.297756 4.096-4.295805 1.698341-1.998049 2.797268-3.596488 3.096976-4.995122l1.298732-3.596488z m-56.944391 15.884488c3.096976 1.598439 5.394732 2.597463 6.893269 2.897171 1.498537 0.299707 3.096976 0.499512 4.795317 0.39961 1.798244 0 4.49561-0.39961 7.892292-1.098927 3.496585-0.699317 6.094049-1.398634 7.792391-2.097951 1.798244-0.699317 2.797268-0.79922 2.89717-0.499513 0.199805 0.39961 0.299707 0.899122 0.199805 1.698342-0.199805 1.798244-1.598439 5.494634-4.096 11.288975-2.497561 5.794341-6.393756 8.59161-11.688585 8.491708-1.598439 0-3.29678-0.499512-5.095024-1.398634-1.798244-0.899122-3.496585-2.297756-5.194927-3.996098l-3.296781-3.396683c-3.496585-3.496585-6.094049-6.094049-7.992195-7.592585-1.798244-1.498537-3.596488-2.697366-5.294829-3.596488-1.598439-0.899122-2.697366-1.698341-3.096976-2.397659s-0.499512-1.598439 0.099903-2.797268c0.199805-0.499512 0.699317-1.098927 1.498536-1.798244 0.79922-0.79922 1.698341-1.098927 2.797269-1.098927 0.499512 0 0.899122 0.099902 1.198829 0.199805l2.397658 1.598439c0.79922 0.499512 1.598439 0.699317 2.197854 0.599415 0.599415-0.099902 1.598439-1.098927 2.997073-2.897171 1.398634-1.798244 2.597463-3.69639 3.596488-5.694439 0.999024-1.898146 1.898146-2.897171 2.697366-2.797268 0.299707 0.099902 1.498537 0.899122 3.596488 2.397658s3.096976 3.496585 2.997073 5.894244c0 0.299707-0.199805 1.098927-0.499512 2.397659-0.299707 1.298732-1.598439 2.297756-3.796293 3.096975l-4.395707 1.19883c-1.398634 0.79922-2.097951 0.999024-2.097952 0.999024z m-61.739707 10.489756c5.095024-1.498537 9.690537-3.196878 13.786537-5.194927 4.096-1.998049 7.992195-4.695415 11.688585-8.291902 3.69639-3.496585 6.393756-6.493659 8.192-8.691512 1.798244-2.297756 3.29678-4.49561 4.595512-6.593561 1.298732-2.197854 1.898146-3.396683 1.898147-3.796293 0-0.39961-0.599415-0.79922-1.798244-0.999024-0.899122-0.099902-1.998049 0.199805-3.496586 0.799219-1.498537 0.699317-2.497561 1.198829-3.096975 1.698342-0.499512 0.39961-1.198829 1.698341-2.097952 3.69639-0.79922 1.998049-1.698341 3.896195-2.697365 5.494634-0.999024 1.698341-2.897171 2.497561-5.794342 2.497561-1.498537 0-2.897171-0.39961-4.395707-1.198829-1.498537-0.899122-2.697366-2.097951-3.596488-3.596488-0.79922-1.598439-1.298732-3.29678-1.298732-5.095024l-0.199805-2.997074c0.999024-0.299707 1.898146-0.599415 2.697366-0.899122 0.79922-0.299707 2.097951-1.298732 3.796293-2.89717 1.798244-1.598439 3.196878-3.396683 4.195902-5.494634 1.098927-2.097951 1.998049-4.195902 2.897171-6.393757 0.79922-2.197854 1.698341-3.196878 2.797268-3.29678 0.199805 0 0.499512 0.099902 0.899122 0.199805 0.39961 0.199805 0.699317 0.39961 0.899122 0.599415 0.299707 0.299707 0.499512 0.499512 0.599415 0.799219l1.598439 3.896195c0.299707 0.599415 0.699317 1.198829 1.298732 1.898146 0.599415 0.599415 2.097951 0.999024 4.395707 0.999025 1.598439 0.099902 2.697366-0.099902 3.596488-0.599415 0.899122-0.499512 1.598439-1.198829 2.097951-2.297756 0.599415-1.098927 0.899122-2.097951 0.999024-2.997073 0.099902-0.899122 0.199805-2.197854 0.099903-3.796293 0-1.598439 0.199805-2.697366 0.499512-3.396683 0.599415-1.198829 1.798244-1.798244 3.69639-1.798244 3.396683 0 5.694439 0.999024 6.693464 2.797269 0.999024 1.798244 1.598439 2.997073 1.698341 3.396683 0 0.499512-0.299707 1.498537-0.899122 3.096975-0.599415 1.598439-0.79922 2.797268-0.39961 3.696391 0.39961 0.899122 2.297756 1.098927 5.694439 0.699317 5.294829-0.699317 8.59161-1.398634 10.190049-2.297756l3.396683-1.798244c1.398634 2.597463 2.597463 4.395707 3.69639 5.494634 0.999024 1.098927 3.29678 2.397659 6.693464 4.096-1.298732 0.79922-2.297756 1.498537-2.997073 2.097951-0.699317 0.599415-1.798244 1.898146-3.196878 3.796293-1.398634 1.998049-2.797268 3.496585-4.096 4.595512-1.398634 1.098927-2.997073 1.598439-4.89522 1.598439-0.699317 0-1.398634-0.099902-2.197854-0.299707-0.79922-0.199805-1.298732-0.39961-1.698341-0.599415-0.39961-0.199805-0.599415-0.499512-0.599415-0.79922 0-0.299707 0.599415-0.699317 1.998049-1.398634 0.999024-0.499512 1.798244-1.098927 2.297756-2.097951 0.499512-0.899122 0.699317-2.097951 0.699317-3.69639-0.099902-1.498537-2.297756-2.297756-6.593561-2.297756-5.394732 0.099902-8.99122 0.599415-10.889366 1.498536-1.798244 0.899122-2.997073 1.698341-3.596487 2.397659-0.599415 0.699317-1.198829 1.698341-1.898147 2.997073s-2.097951 3.496585-4.096 6.593561c-1.998049 3.096976-2.797268 5.095024-2.497561 6.193951 0.099902 0.499512 0.39961 0.999024 0.899122 1.498537l2.597464 3.096975c0.099902 0.299707 0.299707 0.699317 0.499512 1.19883s0.299707 0.999024 0.299707 1.598439c0 0.599415-0.39961 2.397659-1.298731 5.294829-0.099902 0.299707-0.499512 1.998049-1.098927 5.194927-0.699317 3.196878-0.999024 4.995122-0.999025 5.394731 0 0.39961 0 0.999024-0.099902 1.59844 0 0.699317 0.099902 1.298732 0.39961 1.798243 0.39961 0.699317 1.098927 1.098927 2.197853 0.999025 0.899122 0 2.397659-0.299707 4.395708-0.79922s3.496585-1.098927 4.495609-1.498536c0.999024-0.499512 2.597463-1.398634 4.795317-2.797269 2.197854-1.398634 3.496585-1.998049 3.996098-1.798243 0.499512 0.199805 0.79922 0.79922 0.79922 1.598439s-0.39961 1.998049-1.298732 3.596487c-2.197854 3.896195-4.195902 6.593561-6.094049 7.892293-1.898146 1.298732-3.596488 2.397659-5.194927 3.096976l-8.891317 3.596487c-2.897171 1.298732-4.89522 2.497561-5.794341 3.596488l-3.196878 3.196878c-0.699317-2.097951-1.298732-3.69639-1.698342-4.995122-0.39961-1.298732-0.899122-2.397659-1.498536-3.396683s-2.097951-2.597463-4.595513-4.795317c2.197854-1.098927 4.195902-2.397659 6.094049-3.996097 1.898146-1.598439 3.096976-4.995122 3.596488-9.990244l0.39961-3.996098c0.199805-1.898146 0.199805-3.29678 0.099902-4.295805s-0.39961-1.498537-0.899122-1.498536c-0.099902 0-0.39961 0.099902-0.699317 0.199805-0.39961 0.199805-1.198829 1.298732-2.397658 3.496585-1.298732 2.197854-2.697366 4.49561-4.295805 6.993171-1.598439 2.497561-3.496585 4.295805-5.794342 5.494634-2.297756 1.198829-4.395707 1.698341-6.393756 1.698341-1.798244 0-3.396683-0.299707-4.795317-0.999024-1.498537-0.699317-3.096976-1.798244-4.795317-3.396683-1.698341-1.598439-2.897171-2.897171-3.396683-3.896195l-1.598439-1.998049z m-5.494634-12.487805c-0.599415 2.397659-1.098927 4.295805-1.498537 5.494634-0.39961 1.198829-0.999024 2.997073-1.898146 5.29483-0.899122 2.297756-1.998049 4.395707-3.396683 6.193951-1.398634 1.898146-3.396683 3.096976-6.094049 3.596488-1.098927 0.199805-3.396683 0.099902-6.793366-0.499512-3.396683-0.499512-5.994146-0.79922-7.892292-0.79922-4.096 0.099902-8.092098 0.599415-12.088195 1.598439s-6.993171 1.898146-8.99122 2.897171c-1.998049 0.899122-4.295805 2.297756-6.793366 4.096-2.597463 1.798244-4.595512 2.497561-6.094049 1.998049s-2.297756-1.598439-2.297756-3.296781c0-1.698341 0.39961-3.396683 1.398635-4.995122 1.798244-3.096976 3.096976-5.394732 3.69639-6.693463 0.699317-1.398634 1.298732-1.998049 1.898146-1.998049 0.099902 0 0.599415 0.299707 1.498537 0.699317 0.899122 0.39961 2.297756 0.499512 4.096 0.199805 1.798244-0.299707 4.595512-1.198829 8.391805-2.797268 3.69639-1.598439 6.193951-3.396683 7.39278-5.494635 1.198829-1.998049 2.197854-4.395707 2.997073-6.99317 0.79922-2.597463 1.098927-4.695415 0.999025-6.193951-0.099902-1.198829-0.499512-2.197854-1.098927-2.897171-0.599415-0.699317-2.097951-1.098927-4.395708-1.298732l-8.192-0.39961c-2.697366-0.199805-4.695415-0.699317-6.094048-1.398634-1.398634-0.79922-2.697366-1.998049-3.996098-3.896195-1.198829-1.798244-2.097951-3.69639-2.497561-5.694439-0.499512-1.998049-0.79922-4.395707-0.999024-7.39278-0.199805-2.897171 0-4.89522 0.499512-5.994147 0.599415-1.098927 0.999024-1.698341 1.398634-1.798244 0.39961-0.099902 1.198829 0.39961 2.497561 1.698342 0.79922 0.79922 2.397659 1.898146 4.695415 3.196878l5.794341 3.396683c1.098927 0.599415 3.29678 1.498537 6.693464 2.797268 3.396683 1.298732 6.293854 2.297756 8.591609 2.897171 2.397659 0.599415 5.194927 0.999024 8.59161 0.899122 3.396683 0 5.494634-0.099902 6.593561-0.299708 2.097951-0.199805 3.396683-0.199805 3.996098 0.199805 0.599415 0.299707 1.198829 0.999024 1.798244 2.097952 0.599415 0.999024 1.098927 2.197854 1.298731 3.596487 0.199805 1.298732 0.299707 2.197854 0.199805 2.497561-0.299707 0.599415-1.898146 1.098927-4.995122 1.398634-3.096976 0.299707-5.294829 1.098927-6.793366 2.297757-1.498537 1.198829-2.397659 2.297756-2.797268 3.196878-0.39961 0.899122-1.198829 3.396683-2.297756 7.39278-1.098927 3.996098-1.298732 6.293854-0.79922 6.693463 0.599415 0.39961 1.298732 0.699317 2.197854 0.699318 0.899122 0.099902 2.897171-0.39961 5.894244-1.398635 2.997073-0.999024 4.89522-1.798244 5.794341-2.197853 0.899122-0.39961 2.197854-1.098927 3.996098-2.197854 1.798244-0.999024 3.29678-2.097951 4.395707-2.997073 1.098927-0.999024 1.698341-1.398634 1.698342-1.198829l-0.199805 3.796292z m-76.725073-34.666146c1.098927 0.699317 2.897171 1.698341 5.294829 2.897171l5.194927 2.497561c1.798244 0.899122 2.597463 1.698341 2.497561 2.397658-0.199805 0.899122-1.498537 1.598439-3.996098 2.097951l-4.49561 1.298732c-1.298732 0.299707-2.797268 0.499512-4.495609 0.599415-3.196878 0.199805-5.694439-0.299707-7.492683-1.398634-1.798244-1.098927-2.797268-2.297756-2.897171-3.696391-0.099902-1.298732 0.299707-2.797268 1.198829-4.395707 1.598439-2.997073 3.196878-4.49561 4.695415-4.49561 0.599415 0 1.298732 0.299707 2.297756 0.899122l2.197854 1.298732z m2.997073 27.672976l4.695415 1.298731 5.294829 1.098927c1.698341 0.499512 2.497561 0.899122 2.397658 1.298732-0.099902 0.299707-1.198829 0.999024-3.396683 2.297756-2.197854 1.298732-5.394732 2.597463-9.590634 4.096-4.195902 1.498537-7.292878 2.097951-9.091122 1.898146-1.898146-0.199805-3.396683-0.999024-4.595512-2.297756-1.198829-1.298732-1.798244-3.096976-1.698341-5.294829 0-1.698341 0.499512-3.096976 1.398634-4.395707 0.899122-1.298732 1.598439-2.097951 2.297756-2.397659 0.699317-0.199805 4.795317 0.599415 12.288 2.397659zM346.866593 531.580878l2.197854 0.499512c0.999024 0.199805 2.097951 0.199805 3.096975 0 1.398634-0.199805 3.29678-0.899122 5.794342-2.197853 2.497561-1.298732 4.195902-2.197854 5.194927-2.897171l5.494634-3.796293c0.499512-0.299707 0.899122-0.39961 1.098927-0.299707 0.199805 0.099902 0 0.699317-0.499513 1.898146-0.999024 2.097951-2.497561 4.695415-4.695414 7.892293-2.097951 3.096976-3.69639 5.394732-4.795317 6.693463-1.098927 1.298732-3.596488 4.096-7.692488 8.391805-4.096 4.295805-6.893268 5.394732-8.391805 3.196878-1.598439-2.097951-2.197854-4.195902-1.998049-6.293853 0.099902-1.598439 0.599415-3.396683 1.298732-5.594537 0.79922-2.097951 1.598439-3.896195 2.397659-5.294829 0.699317-1.398634 1.298732-2.097951 1.498536-2.197854z m-49.751415-6.993171c3.69639 1.298732 6.893268 2.297756 9.39083 2.797269 2.597463 0.599415 5.194927 0.79922 7.79239 0.699317 2.597463 0 6.993171-0.699317 13.187122-2.097952-0.699317 1.698341-1.598439 3.596488-2.697366 5.694439s-2.897171 4.096-5.394732 5.894244c-2.497561 1.798244-4.995122 2.797268-7.492683 2.997074-2.497561 0.099902-4.695415-0.39961-6.593561-1.498537-1.898146-1.098927-3.396683-2.597463-4.495609-4.295805-1.098927-1.698341-1.898146-3.596488-2.397659-5.494634l-1.298732-4.695415z m-10.589658-37.163707c5.994146-0.39961 9.490732-1.298732 10.489756-2.797268 0.999024-1.498537 1.298732-2.797268 0.699317-3.996098-0.499512-1.198829-2.597463-1.698341-6.293854-1.598439-2.697366 0.099902-4.695415 0.199805-5.994146 0.299707-1.298732 0.099902-2.297756 0.39961-2.997073 0.899122-0.699317 0.499512-1.198829 1.298732-1.398634 2.297756-0.199805 0.999024 0 1.998049 0.499512 2.897171 0.299707 0.499512 0.699317 0.999024 1.198829 1.398634 0.79922 0.599415 1.998049 0.699317 3.796293 0.599415z m18.082341-17.283122c0.999024 2.997073 1.798244 4.995122 2.497561 6.094049 0.699317 1.098927 2.297756 2.397659 4.89522 4.096-1.198829 0.599415-2.297756 1.298732-3.296781 1.998049s-2.197854 1.998049-3.596487 4.096c-1.398634 2.097951-2.297756 3.796293-2.697366 5.194926l-0.899122 3.096976c-3.29678-0.699317-5.994146-0.899122-8.092098-0.799219-1.998049 0.099902-4.49561 0.39961-7.492683 0.999024s-5.095024 1.198829-6.393756 1.898146l-3.496585 1.698342c2.997073 0.599415 5.095024 0.79922 6.493658 0.799219 1.198829 0 2.997073-0.099902 5.194927-0.39961 2.197854-0.299707 5.194927-0.899122 8.891317-1.898146 3.69639-0.999024 5.894244-1.498537 6.493659-1.598439 0.599415-0.099902 1.098927-0.199805 1.698341-0.199805 2.397659-0.099902 4.096 0.699317 4.995122 2.197854 0.899122 1.498537 1.298732 2.697366 1.198829 3.496585-0.199805 0.999024-0.79922 1.698341-1.598439 2.097951-0.79922 0.39961-1.998049 0.699317-3.496585 0.899122-1.498537 0.199805-3.69639 0.79922-6.493658 1.798244s-4.595512 1.898146-5.394732 2.697366c-0.79922 0.79922-1.198829 1.698341-1.098927 2.797268 0 1.698341 0.999024 2.597463 2.997073 2.697366 2.697366 0.099902 6.793366-0.599415 12.188098-2.097951 5.394732-1.598439 9.790439-3.196878 13.087219-4.895219 3.29678-1.598439 5.095024-2.297756 5.494634-2.097952 0.39961 0.299707 0.499512 1.198829 0.499513 2.597464-0.099902 1.698341-0.299707 3.29678-0.699317 4.895219-0.39961 1.598439-1.198829 3.196878-2.197854 4.995122-0.999024 1.698341-2.197854 2.997073-3.496585 3.896195-1.298732 0.79922-2.897171 1.298732-4.795318 1.298732-1.098927 0-3.196878-0.199805-6.493658-0.899122-3.29678-0.599415-6.993171-0.899122-11.189073-0.899122-3.896195 0-6.493659 0.299707-7.692488 0.899122-1.198829 0.499512-2.097951 1.098927-2.697366 1.698342-0.599415 0.599415-1.398634 1.698341-2.197854 3.196878-0.79922 1.498537-1.398634 2.897171-1.898146 3.996097l-1.998049 5.194927c-0.999024 2.497561-2.297756 5.394732-3.896195 8.59161-1.598439 3.29678-3.29678 5.894244-5.095024 7.992195-1.798244 2.097951-3.996098 3.69639-6.393756 4.595512-2.497561 0.999024-5.294829 1.398634-8.291903 1.398634-5.894244 0-10.589659-1.698341-14.086244-4.995122 2.797268-1.498537 5.894244-3.396683 9.39083-5.594536 3.496585-2.197854 7.892293-5.694439 13.187122-10.489756 5.294829-4.795317 8.391805-7.892293 9.191024-9.290927l1.698341-2.697366c-2.997073 0.699317-4.995122 1.198829-6.193951 1.598439-1.098927 0.39961-3.196878 1.098927-6.094049 2.297756-2.997073 1.098927-5.494634 2.197854-7.79239 3.196878s-3.796293 1.098927-4.49561 0.299707c-0.79922-0.79922-1.198829-1.798244-1.198829-2.89717-0.099902-1.098927 0.39961-2.597463 1.498537-4.395708 0.699317-1.298732 1.998049-3.096976 3.796292-5.394731 1.798244-2.397659 3.396683-3.396683 4.795317-3.096976 0.099902 0 0.79922 0.499512 1.898147 1.298732 1.098927 0.899122 3.096976 1.198829 5.994146 1.098927 0.999024 0 3.196878-0.39961 6.393756-0.999025s5.194927-1.598439 5.794342-2.897171c0.699317-1.298732 0.999024-2.197854 0.899122-2.797268-0.099902-0.599415-0.299707-0.999024-0.499513-1.198829-0.299707-0.199805-0.999024-0.199805-1.998048-0.099903l-4.195903 0.699318c-3.496585 0.599415-5.594537 0.899122-6.293853 0.899122-3.29678 0-5.394732-0.999024-6.193952-2.997074-0.79922-1.998049-1.198829-3.896195-1.098926-5.694439 0-1.198829 0.299707-2.597463 0.699317-4.195902 0.39961-1.598439 0.899122-2.797268 1.498536-3.69639 0.599415-0.899122 1.198829-1.398634 1.698342-1.498537 0.499512-0.099902 1.498537 0.199805 2.89717 1.098927 1.098927 0.699317 2.997073 1.498537 5.894244 2.297756-0.999024-1.298732-1.798244-2.497561-2.397658-3.596488-0.699317-1.098927-1.898146-4.096-3.596488-8.991219-1.798244-4.89522-2.597463-8.59161-2.497561-10.989269 0-2.497561 0.699317-4.395707 1.998049-5.894244s2.397659-2.297756 3.29678-2.297756c0.599415 0 1.798244 0.599415 3.696391 1.798244 1.798244 1.198829 3.796293 2.197854 5.994146 2.897171 2.197854 0.699317 4.995122 1.098927 8.391805 1.198829 3.29678-0.199805 8.192-0.79922 14.485853-2.097951z m678.437464 19.780683c-3.496585 0-6.193951-0.499512-7.992195-1.598439-1.798244-1.098927-3.196878-2.697366-4.295805-4.795317-1.098927-1.998049-1.598439-4.195902-1.698342-6.293854 0-2.197854 0.199805-3.796293 0.79922-4.795317 0.599415-0.999024 1.098927-1.498537 1.598439-1.698341 0.499512-0.099902 1.298732 0.199805 2.297756 0.899122l3.796293 3.29678c1.698341 1.298732 3.996098 2.497561 6.99317 3.496585s5.994146 1.598439 8.791415 1.698342c2.197854 0.099902 4.49561 0 6.693463-0.499512s3.69639-0.599415 4.49561-0.39961c1.298732 0.39961 2.497561 1.298732 3.396683 2.897171 0.899122 1.498537 1.298732 2.497561 1.098927 2.89717-0.39961 0.999024-2.497561 1.798244-6.493659 2.297757l-9.490731 1.498536c-4.595512 0.699317-7.892293 1.098927-9.990244 1.098927z m18.481951 60.141268c-2.197854-1.998049-4.295805-2.997073-6.094049-3.096975-0.79922 0-2.597463 0.39961-5.294829 1.098926-2.697366 0.699317-5.095024 1.098927-6.893268 1.098927-1.998049 0.099902-4.195902-0.199805-6.693464-0.799219-2.497561-0.599415-4.295805-1.298732-5.594536-1.998049s-2.797268-1.898146-4.49561-3.396683c-1.698341-1.498537-2.797268-2.797268-3.296781-3.896195s-0.599415-1.698341-0.399609-1.798244c0.199805-0.099902 0.599415 0 1.398634 0.39961 2.797268 1.498537 5.694439 2.397659 8.991219 2.797268 3.196878 0.39961 5.494634 0.599415 6.893269 0.499512 4.89522 0 8.092098-1.198829 9.590634-3.396683 1.498537-2.297756 2.397659-4.49561 2.697366-6.693463 0.299707-2.197854 0.39961-5.095024 0.199805-8.59161-0.099902-1.998049-0.299707-4.295805-0.599415-6.993171-0.299707-2.597463-0.599415-4.295805-1.098927-4.995121-0.499512-0.699317-0.899122-1.198829-1.398634-1.498537-0.499512-0.299707-1.498537-0.499512-2.997073-0.499512-2.497561 0.099902-4.89522 0.299707-7.292878 0.699317-2.397659 0.39961-4.995122 1.098927-7.892293 2.097951l-6.094049 2.297756c-1.098927 0.39961-2.297756 0.699317-3.396683 0.899122-1.098927 0.199805-1.898146 0.199805-2.197853-0.199805-0.299707-0.299707-0.099902-1.198829 0.599414-2.597463 0.699317-1.398634 1.598439-2.997073 2.797269-4.695415 1.198829-1.698341 2.397659-3.196878 3.396682-4.595512 0.999024-1.298732 1.898146-2.097951 2.597464-2.397659 0.599415-0.199805 1.998049-0.099902 4.096 0.299708 2.197854 0.39961 5.095024 0.599415 8.691512 0.39961 3.996098-0.099902 8.491707-0.39961 13.386927-1.098927 4.89522-0.599415 9.590634-1.598439 14.086244-2.797269 4.49561-1.298732 7.892293-3.096976 9.990244-5.594536 2.097951-2.497561 3.29678-3.69639 3.596488-3.496586 0.299707 0.099902 0.499512 0.599415 0.799219 1.498537 0.199805 0.79922 0.299707 1.998049 0 3.496585-0.299707 1.698341-0.899122 3.896195-1.898146 6.893269-0.999024 2.897171-2.397659 4.795317-4.395708 5.694439-1.898146 0.899122-3.996098 1.298732-6.193951 1.098927-2.197854-0.099902-3.396683-0.199805-3.69639-0.199805-1.698341 0.199805-3.096976 1.098927-4.195903 2.697366s-1.698341 3.796293-1.998048 6.393756c-0.299707 2.597463-0.299707 5.894244 0 9.890341 0.199805 3.896195 0.499512 7.79239 0.999024 11.488781s0.699317 6.293854 0.699317 7.692487c0 1.598439-0.299707 2.997073-0.599414 4.096-0.699317 1.198829-0.899122 1.698341-0.79922 1.798244z m-46.754341-80.021853c0.79922-0.999024 1.498537-1.398634 1.898146-1.098927 0.499512 0.299707 0.599415 0.899122 0.499512 1.998049-0.099902 1.098927-0.39961 2.397659-0.599415 3.69639-0.199805 1.298732-1.398634 4.295805-3.29678 8.891317-1.998049 4.595512-4.49561 7.79239-7.592585 9.490732-3.096976 1.798244-5.594537 2.397659-7.392781 1.898146-1.498537-0.39961-2.597463-1.198829-3.29678-2.297756-0.699317-1.098927-1.098927-2.997073-1.398635-5.494634-0.199805-2.597463-0.299707-4.195902-0.099902-4.89522l0.499512-2.897171c1.298732 0.199805 2.297756 0.299707 3.096976 0.299708 2.497561-0.099902 5.494634-1.098927 8.991219-3.096976 3.596488-2.097951 6.493659-4.195902 8.691513-6.493658z m-23.377171 40.16078c1.598439 0.499512 3.196878 0.699317 4.795317 0.499512 1.598439-0.199805 3.196878-0.599415 4.595512-1.298731 1.398634-0.699317 3.196878-1.898146 5.194927-3.696391 1.998049-1.798244 3.69639-3.396683 4.995122-4.795317 1.298732-1.398634 2.697366-3.196878 4.195902-5.394731s2.497561-3.29678 2.897171-3.296781c0.499512 0 0.899122 0.39961 1.298732 1.198829 0.39961 0.79922 0.299707 2.397659-0.199805 4.695415l-0.699317 4.395707-1.598439 5.594537c-0.39961 1.498537-0.599415 3.496585-0.699317 5.994146-0.099902 2.497561-0.199805 4.295805-0.199805 5.394732l-0.199805 9.590634-0.39961 9.091122c-0.099902 3.996098-0.199805 6.493659-0.39961 7.592585-0.199805 1.098927-0.699317 2.897171-1.698341 5.494635-0.899122 2.497561-1.798244 3.896195-2.597463 3.996097-0.79922 0.199805-1.798244-0.39961-2.997074-1.698341-1.398634-1.398634-2.497561-3.596488-3.29678-6.593561-0.899122-2.997073-1.198829-4.795317-0.999024-5.594537 0.099902-0.39961 0.39961-0.999024 0.999024-1.998049s1.198829-2.297756 1.898146-3.896195 1.198829-3.896195 1.698342-6.993171c0.39961-3.096976 0.499512-5.394732 0.399609-6.793365l-0.299707-2.597464c-2.997073 3.596488-5.394732 6.193951-7.192975 7.492683-1.798244 1.298732-3.196878 1.998049-4.395708 1.898146-1.698341-0.099902-3.096976-1.098927-3.996097-2.89717-0.999024-1.798244-1.498537-4.295805-1.598439-7.392781-0.099902-2.597463-0.099902-4.195902 0-4.795317l0.499512-3.196878z m-25.674927 9.091122c1.298732 0.999024 2.397659 1.698341 3.496585 2.397659 0.999024 0.599415 2.697366 1.198829 4.89522 1.698341s4.295805 0.699317 6.393756 0.499512c0.899122-0.099902 1.898146-0.199805 2.997073-0.499512s1.798244-0.39961 2.097951-0.199805c0.299707 0.199805 0.099902 0.999024-0.599414 2.497561-1.098927 2.497561-2.197854 4.595512-3.196878 6.393756-0.999024 1.798244-2.597463 3.496585-4.595513 5.095025-1.998049 1.598439-3.896195 2.197854-5.694439 1.898146-1.698341-0.299707-2.997073-1.098927-3.996097-2.497561s-2.097951-3.396683-3.396683-5.994146c-1.298732-2.597463-2.497561-4.395707-3.396683-5.394732-0.999024-0.999024-2.797268-2.297756-5.494634-4.096-2.697366-1.698341-4.395707-2.797268-5.194927-3.196878-0.699317-0.39961-1.098927-0.899122-1.298732-1.498537-0.099902-0.599415 0-1.198829 0.299708-1.898146 0.39961-0.79922 0.999024-1.498537 1.998048-2.097951 0.899122-0.599415 1.798244-0.899122 2.597464-0.899122 0.699317 0.099902 1.698341 0.699317 3.196878 1.898146 1.398634 1.198829 2.497561 1.698341 3.29678 1.598439 0.499512 0 1.598439-0.699317 3.296781-2.097951 1.698341-1.398634 2.897171-2.597463 3.496585-3.896195 0.699317-1.198829 1.198829-1.798244 1.498537-1.898147 0.39961 0 0.899122 0.199805 1.598439 0.79922 0.79922 0.699317 1.398634 1.698341 2.097951 3.096976 0.599415 1.398634 0.899122 2.497561 0.899122 3.29678-0.099902 0.899122-0.39961 1.798244-1.098927 2.797268-0.699317 0.899122-1.898146 1.498537-3.69639 1.798244-1.898146 0-2.697366 0.199805-2.497561 0.39961z m-6.893268-27.672976c1.798244 0 2.997073-0.299707 3.596488-0.799219 0.599415-0.599415 0.79922-1.098927 0.799219-1.698342-0.099902-0.699317-0.39961-1.198829-1.098927-1.498536-0.699317-0.299707-2.397659-0.79922-5.294829-1.398634-2.897171-0.599415-4.695415-0.79922-5.494634-0.699317-0.79922 0.099902-1.398634 0.599415-1.898147 1.398634-0.499512 0.79922-0.699317 1.498537-0.499512 2.197853 0.199805 0.79922 1.298732 1.398634 3.096976 1.898147 1.898146 0.39961 4.195902 0.599415 6.793366 0.599414z m2.097951 6.094049c0-0.299707-0.099902-0.599415-0.499512-1.098927-0.39961-0.499512-1.298732-0.79922-2.597464-0.899122-1.498537-0.099902-3.396683 0-5.694439 0.199805-2.297756 0.199805-3.69639 0.899122-4.195902 2.297756-0.499512 1.298732-0.39961 2.297756 0.39961 2.797269 0.79922 0.599415 1.998049 0.699317 3.69639 0.299707l3.896195-0.599415c1.698341-0.299707 2.997073-0.699317 3.796293-1.398634 0.599415-0.599415 1.098927-1.098927 1.198829-1.598439z m7.093073-19.580878c0.199805 1.498537 0.39961 2.797268 0.599415 3.996098 0.299707 1.198829 0.699317 2.597463 1.498536 4.195902s1.998049 3.196878 3.796293 4.995122c-2.897171 2.797268-4.89522 4.995122-5.794341 6.693464-0.999024 1.698341-1.798244 3.69639-2.497561 6.193951l-0.999025 3.496585c-1.298732-0.299707-2.597463-0.499512-3.796293-0.699317-1.198829-0.099902-3.396683 0.099902-6.59356 0.79922-3.196878 0.699317-5.494634 2.197854-6.793366 4.795317-1.298732 2.497561-1.998049 5.494634-1.998049 8.791414 0 3.29678-0.099902 5.794341-0.199805 7.592586-0.099902 1.698341 0.199805 2.997073 0.899122 3.796292 0.699317 0.79922 1.698341 1.298732 3.096976 1.398634 0.999024 0.099902 2.497561-0.299707 4.395707-1.098926 1.898146-0.79922 3.196878-1.498537 3.896195-2.097952l2.497561-2.397658c0.599415-0.39961 1.098927-0.599415 1.498537-0.499512 0.39961 0.099902 0.299707 0.999024-0.099903 2.89717-0.699317 2.497561-1.598439 4.395707-2.697366 5.794342-1.198829 1.298732-2.197854 2.297756-3.096975 2.897171-0.899122 0.599415-2.697366 1.598439-5.494634 2.89717-2.797268 1.398634-4.995122 2.797268-6.593561 4.195903-1.598439 1.398634-2.697366 2.797268-3.396683 4.096l-1.798244 3.196878c-0.599415-1.098927-1.098927-2.197854-1.598439-3.196878-0.39961-0.999024-0.899122-1.998049-1.498537-2.797269-0.499512-0.79922-2.197854-2.097951-4.995122-3.796292 0.999024-0.899122 1.798244-1.598439 2.397659-2.297756 0.599415-0.699317 1.198829-1.698341 1.898146-3.296781 0.699317-1.498537 1.298732-3.196878 1.698341-4.995122 0.39961-1.798244 0.599415-4.595512 0.699318-8.291902 0-3.796293 0.199805-7.692488 0.299707-11.88839 0.199805-4.096 0.299707-6.693463 0.299707-7.692488l-0.39961-11.788488c-0.099902-2.797268 0-5.194927 0.299708-7.093073 0.299707-2.397659 0.899122-4.395707 1.698341-5.994147l3.69639-5.095024c1.098927-1.498537 1.798244-2.197854 2.397659-2.197854 0.299707 0 0.999024 0.499512 1.998049 1.298732 0.999024 0.899122 2.597463 1.698341 4.695414 2.397659s4.295805 1.198829 6.693464 1.498536c2.297756 0.199805 5.494634 0 9.390829-0.699317z m-76.125658 9.990244c1.598439 0.299707 3.496585 0.39961 5.694439 0.39961s5.794341-1.798244 10.589658-5.294829 7.892293-6.393756 9.091122-8.691513c1.198829-2.297756 1.898146-4.096 2.097951-5.394731 0.199805-1.298732 0.39961-2.097951 0.699317-2.197854 0.299707-0.099902 0.899122 0.099902 1.798244 0.79922 1.498537 1.198829 2.297756 2.697366 2.397659 4.495609 0 0.79922-0.199805 1.698341-0.599415 2.897171-0.39961 1.198829-0.499512 1.998049-0.39961 2.497561 0.099902 0.499512 0.699317 0.999024 1.598439 1.498537 0.999024 0.499512 2.297756 0.599415 3.996098 0.499512 1.198829-0.099902 2.497561-0.499512 3.69639-0.999025 1.198829-0.599415 1.998049-0.79922 2.297756-0.599414 0.299707 0.199805 0.499512 0.999024 0.599415 2.397658 0 1.398634-0.499512 2.997073-1.798244 4.795317-1.198829 1.798244-2.997073 2.697366-5.194927 2.697366-0.599415 0-1.698341-0.199805-3.396683-0.799219-1.598439-0.599415-2.897171-0.79922-3.69639-0.79922-1.098927 0-1.998049 0.299707-2.997073 0.79922-0.899122 0.499512-1.498537 1.198829-1.998049 2.197853-0.39961 0.899122-0.39961 2.097951 0.199805 3.596488 0.499512 1.498537 2.097951 2.497561 4.595512 2.997073 1.398634 0.299707 3.496585 0.199805 6.094049-0.299707 2.597463-0.499512 4.195902-0.499512 4.695415 0s0.599415 1.598439 0.199804 3.196878c-0.39961 1.698341-0.899122 2.997073-1.398634 4.096-0.499512 1.098927-1.298732 1.898146-2.397658 2.497561-1.098927 0.599415-2.497561 0.699317-3.996098 0.199805-1.598439-0.499512-2.497561-0.699317-2.697366-0.699317-0.699317 0.199805-1.198829 0.699317-1.598439 1.498536-0.39961 0.79922-0.899122 2.097951-1.498536 3.896196-0.599415 1.798244-0.899122 2.897171-0.999025 3.496585 0 0.599415 0.099902 0.999024 0.39961 1.398634 0.299707 0.299707 1.098927 0.299707 2.497561-0.099902 3.096976-0.899122 5.594537-2.197854 7.492683-3.696391 1.798244-1.598439 2.997073-2.197854 3.396683-2.097951 0.39961 0.199805 0.699317 0.899122 0.899122 2.097951 0.199805 1.198829 0.099902 2.497561-0.39961 3.796293-1.298732 3.496585-3.69639 5.694439-7.192975 6.493659-3.496585 0.79922-5.494634 1.398634-6.094049 1.598439-0.599415 0.199805-1.098927 0.699317-1.598439 1.398634-0.39961 0.699317-0.599415 1.798244-0.699317 3.496585 0 1.698341 0.299707 3.096976 0.999024 4.096 0.699317 0.999024 1.798244 1.698341 3.296781 1.998049 1.298732 0.299707 2.797268 0.099902 4.595512-0.699317 1.798244-0.79922 3.196878-1.698341 4.295805-2.797268l1.998048-2.197854c0.499512-0.599415 0.899122-0.79922 0.999025-0.699317 0.199805 0.099902 0.199805 0.499512 0.299707 1.198829 0 0.699317-0.099902 1.498537-0.199805 2.297756-0.699317 2.897171-1.598439 5.095024-2.697366 6.593561s-1.998049 2.597463-2.697365 3.196878c-0.699317 0.699317-1.998049 1.898146-4.195903 3.69639-2.097951 1.798244-3.596488 3.29678-4.295805 4.395708-0.79922 1.198829-1.098927 2.097951-0.999024 2.797268l0.199805 3.596488c-3.596488-0.499512-6.193951-1.298732-7.592586-2.597464-1.498537-1.298732-2.597463-2.797268-3.29678-4.495609-0.699317-1.698341-1.198829-4.096-1.298732-7.192976-0.099902-3.096976 0-5.394732 0.199805-6.993171l0.699317-6.99317c-0.999024 0.79922-2.197854 1.598439-3.596488 2.597463-1.298732 0.999024-2.997073 2.297756-5.095024 3.896195-1.998049 1.598439-3.596488 1.598439-4.695415 0.099903-1.098927-1.598439-1.198829-3.496585-0.299707-5.694439 0.79922-2.097951 1.998049-4.195902 3.496585-6.193952s2.497561-3.096976 2.997073-3.29678c0.199805-0.099902 0.899122 0.199805 1.998049 0.799219 1.098927 0.599415 2.297756 0.699317 3.496586 0.299708 1.298732-0.39961 2.197854-0.999024 2.597463-1.698342 0.499512-0.699317 1.398634-2.897171 2.697366-6.593561l2.097951-4.895219c0.499512-1.398634 0.599415-2.497561 0.39961-3.396683-0.099902-0.39961-0.39961-0.79922-0.79922-1.398634-0.39961-0.499512-0.79922-0.899122-1.098926-0.999025-0.39961-0.099902-1.098927 0.599415-2.097952 2.097951-1.298732 1.998049-2.597463 3.29678-3.69639 3.896196-1.098927 0.599415-2.297756 0.899122-3.596488 0.899122-2.997073 0.099902-5.394732-1.098927-6.99317-3.496586-1.598439-2.397659-2.597463-4.595512-2.997074-6.493658-0.39961-1.898146-0.499512-4.395707-0.299707-7.392781l0.79922-2.297756z m-86.215805 10.589659c1.298732 1.698341 2.297756 2.797268 3.196878 3.29678 0.899122 0.499512 1.898146 0.699317 3.096975 0.699317 1.498537 0 3.396683-0.599415 5.894244-1.698341 2.497561-1.198829 3.896195-2.197854 4.295805-3.296781 0.39961-0.999024 0.599415-2.597463 0.39961-4.795317l-0.299707-7.492683c-0.099902-1.598439-0.39961-3.29678-0.699318-5.095024-0.299707-1.798244-0.599415-3.29678-1.098926-4.395707-0.39961-1.098927-0.499512-1.898146-0.39961-2.297757 0.099902-0.39961 0.599415-0.79922 1.298732-1.198829 0.699317-0.39961 1.798244-0.599415 3.196878-0.499512 4.295805 0.199805 7.492683 1.598439 9.290926 4.096 1.898146 2.497561 2.897171 4.295805 2.897171 5.394732 0 1.098927-0.299707 2.497561-0.899122 4.395707-0.699317 2.297756-1.698341 6.593561-2.797268 13.087219l-2.297756 12.088196c-0.699317 3.596488-0.999024 6.593561-0.899122 9.091122 0.099902 2.497561 0.499512 3.996098 1.398634 4.495609 0.79922 0.499512 1.998049 0.79922 3.496585 0.599415 1.898146-0.099902 3.496585-0.599415 4.695415-1.398634 1.198829-0.79922 2.197854-1.798244 2.897171-2.997073 0.699317-1.198829 1.398634-3.496585 1.998049-6.793366 0.599415-3.29678 1.098927-5.994146 1.398634-8.192 0.299707-2.197854 0.499512-4.995122 0.599414-8.391805 0.099902-3.396683 0.099902-5.994146 0-7.692488l-0.499512-6.493658c0-1.798244 0.199805-2.997073 0.79922-3.696391 0.599415-0.699317 1.498537-1.198829 2.697366-1.498536 1.298732-0.299707 2.997073 0.199805 5.294829 1.398634 1.498537 0.79922 2.497561 1.598439 3.096975 2.297756 0.599415 0.699317 0.899122 1.398634 0.999025 1.998049 0.099902 0.599415-0.099902 1.798244-0.599415 3.29678-0.79922 2.297756-1.598439 5.194927-2.497561 8.691512-0.79922 3.496585-1.498537 6.493659-1.798244 9.091122l-0.799219 5.194927c1.998049-1.898146 4.195902-5.594537 6.593561-10.989268l2.397658-5.594537c0.999024-2.297756 1.698341-4.096 1.898147-5.394731 0.299707-1.298732 0.599415-1.998049 0.999024-2.197854 0.39961-0.199805 0.999024-0.099902 1.898146 0.299707 0.699317 0.39961 1.598439 1.198829 2.597464 2.297756 0.999024 1.098927 1.698341 2.097951 2.097951 2.897171 0.39961 0.79922 0.79922 1.598439 0.999024 2.397659 0.299707 0.79922 0.39961 1.598439 0.39961 2.297756-0.099902 0.899122-0.39961 1.898146-0.899122 2.89717s-1.698341 2.397659-3.69639 4.395708c-1.998049 1.898146-4.195902 3.69639-6.893268 5.394732-2.697366 1.698341-4.49561 2.597463-5.494634 2.797268l-3.296781 0.799219c-0.199805 2.297756-0.299707 4.096-0.299707 5.594537 0 1.398634 0.39961 2.697366 1.098927 3.69639 0.699317 1.098927 2.397659 1.498537 5.194926 1.398634 3.496585-0.099902 7.492683-0.999024 12.188098-2.697366 4.695415-1.698341 8.092098-3.096976 10.090146-4.096 2.097951-0.899122 3.196878-1.298732 3.396683-1.098926 0.199805 0.299707 0.099902 0.999024-0.299707 2.197853-0.599415 1.798244-1.998049 4.49561-4.096 8.192-2.097951 3.69639-3.996098 6.193951-5.894244 7.492683-1.798244 1.298732-3.796293 1.998049-5.794341 2.097951-1.398634 0.099902-3.196878 0-5.394732-0.399609l-8.192-1.398634c-2.997073-0.39961-5.694439-0.599415-8.092098-0.499513-3.096976 0.099902-7.39278 0.699317-12.987317 1.998049-5.594537 1.198829-9.890341 2.397659-12.987317 3.596488-3.096976 1.198829-5.594537 2.397659-7.39278 3.396683l-6.094049 3.996097c-1.498537 0.899122-2.697366 1.398634-3.796293 1.498537-1.898146 0.099902-2.897171-0.899122-2.997073-2.897171-0.099902-2.097951 0.39961-4.295805 1.298732-6.593561 1.298732-3.29678 2.497561-5.494634 3.596487-6.693463 0.999024-1.198829 1.798244-1.798244 2.197854-1.798244 0.099902 0 0.599415 0.199805 1.398634 0.599415 0.79922 0.39961 1.698341 0.599415 2.797269 0.599414 3.69639 0.099902 5.894244-0.199805 6.793365-0.999024 0.899122-0.79922 1.498537-1.798244 1.798244-3.196878 0.299707-1.398634 0.499512-2.897171 0.699317-4.595512 0.099902-1.698341 0.299707-3.896195 0.499513-6.793366s0.299707-5.095024 0.399609-6.593561c0.099902-1.498537 0.199805-2.397659 0.199805-2.597464l0.199805-1.998048c-3.196878 5.794341-5.294829 9.290927-6.493658 10.689561-1.198829 1.398634-2.397659 2.497561-3.796293 3.396682-1.398634 0.899122-2.497561 1.398634-3.496585 1.398635s-1.898146-0.299707-2.997074-1.098927c-0.999024-0.699317-1.698341-1.498537-1.998048-2.297756-0.39961-0.79922-0.499512-1.898146-0.599415-3.196878 0-1.298732 0.099902-2.997073 0.39961-4.995122 0.299707-2.297756 0.699317-4.195902 1.198829-5.694439l1.298732-3.196878z m-65.336195-31.569171c3.896195 0.899122 7.592585 1.198829 11.08917 0.999024 3.496585-0.199805 5.294829-0.199805 5.394732 0.199805 0.099902 0.39961-0.39961 0.999024-1.398634 1.998049-2.497561 2.497561-5.494634 4.49561-8.99122 5.994146s-6.293854 2.297756-8.591609 2.297756c-2.197854 0.099902-3.796293-0.199805-4.89522-0.899122-1.098927-0.699317-1.998049-1.498537-2.597463-2.597463-0.699317-0.999024-0.79922-2.897171-0.39961-5.794341 0.199805-1.398634 0.499512-2.397659 0.899122-3.196879 0.39961-0.79922 0.79922-1.298732 1.298732-1.498536 0.499512-0.199805 1.598439 0.099902 3.396682 0.899122 1.898146 0.79922 3.496585 1.298732 4.795318 1.598439z m4.395707 59.941463c-0.199805-0.999024-0.699317-1.598439-1.498537-1.698341-0.79922-0.199805-1.698341 0-2.397658 0.39961-0.599415 0.299707-1.198829 0.79922-1.898147 1.498536s-1.098927 1.598439-1.398634 2.797268c-0.199805 1.198829 0.099902 2.097951 0.899122 2.597464 0.79922 0.599415 1.798244 0.499512 3.096976-0.199805 0.899122-0.499512 1.598439-1.398634 2.297756-2.697366 0.699317-1.398634 0.999024-2.297756 0.899122-2.697366z m-5.095025-22.078439c0.499512 0.79922 0.79922 1.398634 0.899122 1.798244 0.099902 0.499512 0 0.999024-0.299707 1.498537-0.199805 0.39961-0.699317 1.098927-1.498536 1.998049l-2.597464 3.196878-1.898146 2.197853c1.898146 1.098927 4.096 1.798244 6.593561 2.097951 2.497561 0.299707 4.096 0.299707 4.995122-0.099902l2.597463-0.899122c-0.499512-0.299707-0.899122-0.499512-1.198829-0.799219-0.299707-0.299707-0.499512-0.699317-0.699317-1.19883-0.199805-0.599415-0.299707-1.498537-0.199805-2.89717 0.099902-1.398634 0.099902-2.697366 0.099902-3.896196 0-1.198829-0.199805-1.998049-0.699317-2.597463-0.39961-0.499512-2.497561-0.599415-6.094049-0.39961z m-6.493658 0.299708c-3.196878 0.499512-5.294829 1.098927-6.393756 1.998048-1.098927 0.899122-1.798244 1.798244-2.197854 2.897171l-1.498536 3.796293c4.395707-2.497561 6.993171-4.395707 7.79239-5.494634l2.297756-3.196878z m-7.692488-8.391805c-0.599415-1.098927-1.098927-2.197854-1.498536-3.396683-0.39961-1.098927-0.499512-2.397659-0.299708-3.896195l0.39961-2.697366c-2.497561 0.699317-4.395707 1.098927-5.694439 1.398634l-6.193951 1.398634-5.794342 1.498537c-1.498537 0.39961-2.497561 0.39961-2.997073 0-0.39961-0.39961-0.79922-0.999024-0.999024-1.898147-0.199805-0.899122 0.299707-2.297756 1.598439-4.195902 0.699317-0.999024 2.097951-2.697366 4.395707-5.194927 2.297756-2.497561 4.195902-3.69639 5.694439-3.69639 0.199805 0 1.398634 0.599415 3.396683 1.798244 1.998049 1.198829 4.595512 1.798244 7.692488 1.798244 4.695415 0.099902 11.88839-0.199805 21.479024-0.899122 9.590634-0.599415 15.884488-1.298732 18.881561-1.998049 2.997073-0.699317 5.994146-1.598439 9.290927-2.597464 3.196878-0.999024 5.594537-1.798244 6.993171-2.397658 1.398634-0.599415 2.297756-0.79922 2.497561-0.599415 0.299707 0.199805 0.099902 1.198829-0.699317 2.997073-0.999024 2.497561-1.898146 4.49561-2.497561 5.69444-0.699317 1.298732-1.798244 2.797268-3.496586 4.695414-1.698341 1.798244-3.29678 2.797268-4.895219 2.997073-0.79922 0.099902-2.597463-0.39961-5.494634-1.598439-2.897171-1.198829-6.193951-1.798244-9.890342-1.998048-5.994146-0.199805-15.784585 0.499512-29.371317 2.197853 1.098927 0.999024 2.097951 1.598439 2.697366 1.898147 0.699317 0.299707 1.798244 0.599415 3.29678 0.799219 1.498537 0.299707 2.997073 0.199805 4.395708-0.099902 1.398634-0.299707 2.097951-0.39961 2.197853-0.199805 0.099902 0.199805-0.099902 0.79922-0.599414 1.698341-0.79922 1.298732-1.698341 2.597463-2.897171 3.796293-1.198829 1.198829-2.197854 1.998049-3.096976 2.297756l-3.596487 1.698341c2.097951 0.39961 3.996098 0.699317 5.594536 0.899122 1.598439 0.199805 4.49561 0.299707 8.791415 0.299708 1.398634-2.297756 2.697366-4.595512 3.996097-7.093073 1.298732-2.497561 2.297756-4.395707 2.997074-5.894244 0.699317-1.398634 1.298732-2.197854 1.998048-2.197854 0.299707 0 0.999024 0.299707 2.097952 0.799219 1.098927 0.599415 2.097951 1.298732 3.096975 2.197854 0.999024 0.899122 1.598439 1.798244 1.598439 2.697366 0 0.899122-0.39961 1.798244-1.198829 2.797268-0.79922 0.899122-1.898146 1.798244-3.496585 2.797269-1.598439 0.999024-4.195902 2.297756-7.892293 3.996097 2.097951 0.099902 3.396683 0.099902 4.096 0.099903 0.599415 0 2.697366-0.199805 6.193951-0.499513s5.494634-0.599415 6.094049-0.899122l3.096976-1.398634c0.099902 1.498537 0.299707 2.797268 0.599414 3.696391 0.199805 0.999024 0.79922 1.898146 1.498537 2.797268 0.699317 0.899122 2.497561 1.998049 5.394731 3.29678-1.198829 1.798244-2.197854 3.29678-2.89717 4.49561-0.699317 1.198829-1.298732 2.697366-1.898147 4.49561-0.599415 1.798244-0.79922 3.896195-0.799219 6.293853l0.499512 7.592586c0 1.698341-0.099902 3.896195-0.39961 6.693463-0.299707 2.797268-0.699317 4.49561-1.198829 5.095025l-1.698341 2.297756c-0.599415-0.699317-1.198829-1.298732-1.798244-1.598439-0.599415-0.299707-1.698341-0.39961-3.496586-0.199805l-5.095024 0.699317c-1.598439 0.199805-2.897171 0.099902-3.896195-0.299707-0.899122-0.39961-1.698341-0.999024-2.197854-1.798244-0.599415-0.79922-0.79922-1.398634-0.699317-1.698342 0-0.299707 0.899122-0.39961 2.697366-0.39961 1.798244 0 3.396683-0.599415 4.795317-1.698341s2.497561-2.297756 3.096976-3.69639c0.699317-1.398634 1.198829-3.496585 1.598439-6.393756 0.299707-2.797268 0.599415-5.394732 0.699317-7.692488 0.099902-2.297756 0-4.295805-0.39961-6.094049-0.299707-1.398634-0.79922-2.597463-1.298732-3.596488-0.599415-0.899122-2.097951-2.297756-4.695414-3.896195-2.597463-1.698341-3.596488-1.198829-2.997074 1.398634 0.499512 2.597463 1.098927 4.096 1.798244 4.295805 0.499512 0.199805 1.298732 0.199805 2.397659-0.199805 1.198829-0.39961 1.898146-0.499512 2.297756-0.299707 0.199805 0.099902 0.599415 0.499512 0.999024 1.198829 0.499512 0.699317 0.599415 1.398634 0.499513 2.197854-0.299707 1.798244-1.398634 2.897171-3.496586 3.29678-2.097951 0.299707-4.595512 0.499512-7.592585 0.39961 0.099902 0.999024 0.299707 2.097951 0.699317 3.296781 0.39961 1.198829 1.898146 2.397659 4.49561 3.69639-1.398634 0.999024-2.597463 1.898146-3.496586 2.797268-0.899122 0.899122-1.598439 2.197854-2.197853 3.796293-0.599415 1.598439-0.899122 3.196878-1.098927 4.795317l-0.39961 3.096976c-2.797268-0.299707-5.095024-0.199805-6.893268 0.399609-1.798244 0.599415-3.596488 1.398634-5.29483 2.597464-1.798244 1.198829-2.997073 2.197854-3.596487 2.997073l-2.197854 2.497561c-0.79922-0.699317-1.398634-1.398634-1.798244-2.097951-0.39961-0.699317-0.699317-1.598439-0.699317-2.797269 0-1.198829 0.199805-3.196878 0.599415-6.193951 0.499512-2.997073 0.599415-5.894244 0.399609-8.59161-0.199805-2.697366-0.199805-4.295805-0.099902-4.595512l0.999024-3.496585c-1.198829 0.099902-2.397659 0-3.29678-0.199805-0.999024-0.199805-2.297756-1.098927-3.896195-2.797268-0.199805 5.294829-0.299707 9.690537-0.39961 13.187122-0.099902 3.496585-0.199805 6.893268-0.099902 10.289951 0 3.396683-0.099902 5.794341-0.199805 7.39278-0.39961 3.096976-1.698341 6.193951-3.996098 9.191025-2.297756 2.997073-6.094049 2.897171-11.388878-0.199805-2.297756-1.298732-4.295805-3.096976-5.994146-5.394732-1.698341-2.297756-2.697366-4.49561-2.897171-6.593561l-0.699317-4.395707c3.69639 0.79922 6.493659 1.098927 8.192 0.899122 1.398634-0.199805 2.697366-0.699317 3.996098-1.498537 1.298732-0.79922 2.297756-1.898146 2.997073-3.196878 0.699317-1.298732 1.098927-2.697366 0.999024-4.195902 0-1.398634-0.099902-4.195902-0.39961-8.391805-0.199805-4.195902-0.199805-7.992195 0-11.488781 0.099902-2.997073 0.39961-5.594537 0.899122-7.79239s1.198829-4.096 2.197854-5.594537c0.999024-1.498537 1.998049-2.397659 2.997073-2.797268 1.198829-0.39961 3.496585-0.099902 7.292878 0.79922z" fill="#231F20"></path></svg>