<svg viewBox="0 0 1024 1024" version="1.1" xmlns="http://www.w3.org/2000/svg"><path d="M224 0h576c123.6 0 224 100.4 224 224v576c0 123.6-100.4 224-224 224H224c-123.6 0-224-100.4-224-224V224C0 100.4 100.4 0 224 0z" fill="#FFFFFF"></path><path d="M292 512c7.6 15.2 139.6 152.4 202.4 215.2 13.6 13.6 25.2 10 37.6-3.2 44-44.8 155.6-150 164-162.8-18 0-145.6-0.4-192.4 0-20.4 0-36-2.8-34.4-30 0.4-6-10.8-18.4-16.8-18.4-50.8-1.2-101.6-0.8-160.4-0.8z m235.6-215.6c-5.6-5.2-24.4-6.4-31.6 0-38 34.8-152 147.6-172 169.2h166.4c29.6 0 54 2.4 42.8 46.4H732c-2.8-9.2-136.8-150-204.4-215.6zM512 172c189.2 0 340.8 152.8 340 343.6-0.8 184-155.2 336.4-341.2 336.4-186.4-0.4-338.8-152-338.8-337.6 0-192 149.2-342.4 340-342.4z" fill="#CC1C20"></path></svg>