<svg viewBox="0 0 1024 1024" version="1.1" xmlns="http://www.w3.org/2000/svg"><path d="M343.35503 614.837v-27.728c0.343-4.146-1.284-6.047-4.88-5.701h-2.31v-1.296l0.478-0.014c0.334-0.015 0.782-0.043 1.345-0.084l2.028-0.161c1.884-0.136 3.239-0.218 4.065-0.247l1.855-0.03c1.373-0.034 3.252-0.115 5.637-0.241h2.825c6.164 0 10.53 0.95 13.098 2.85 2.74 1.728 4.11 4.146 4.11 7.256-0.343 4.32-2.826 7.083-7.448 8.292 6.335 1.9 9.588 5.615 9.759 11.143-0.685 7.947-5.479 12.093-14.382 12.439H335.65003v-1.296h1.541c4.452 0.346 6.507-1.382 6.164-5.182z m6.326-33.952v17.532h7.144c6.292 0 9.439-2.783 9.439-8.349-0.17-6.122-3.742-9.276-10.715-9.461l-1.107 0.005c-2.29 0.021-3.876 0.112-4.76 0.273z m0.03 18.804v13.733c-0.32 4.443 1.925 6.65 6.737 6.62l0.444-0.008c7.098 0 10.647-3.476 10.647-10.427-0.495-6.273-4.127-9.58-10.895-9.918h-6.933z m57.243 3.34h-13.837l-3.916 10.56c0 0.343-0.174 0.944-0.522 1.802-0.47 1.082-0.729 1.816-0.776 2.202l-0.007 0.116c-0.168 1.484 1.51 2.255 5.032 2.315l1.494 0.003v1.288H379.02003v-1.288c3.307 0.687 5.657-1.46 7.05-6.438l12.27-32.709-0.523-1.545h5.744l13.837 36.571c0.87 3.091 2.96 4.465 6.266 4.121v1.288h-18.275v-1.288h1.566c3.83 0.172 5.57-0.515 5.222-2.06 0-0.515-0.174-1.288-0.522-2.318-0.175-0.172-0.262-0.343-0.262-0.515l-4.438-12.105z m-1.149-2.068l-6.519-16.538-6.236 16.538h12.755z m66.303 20.354h-1.601l-35.488-36.172v29.043c-0.533 4.4 1.78 6.337 6.938 5.809v1.32h-15.743v-1.32h0.267c3.736 0.176 5.514-1.32 5.336-4.489V582.24c-1.6-1.056-3.468-1.584-5.603-1.584v-1.32h10.673l32.286 33.003v-26.667c0.533-3.52-1.69-5.192-6.67-5.016v-1.32h16.008v1.32c-4.802-0.176-6.937 0.968-6.403 3.432v37.228z m160.946-27.563v12.241h-1.074c0-3.627-1.612-5.35-4.834-5.168h-12.89v15.233c-0.537 3.809 1.522 5.532 6.177 5.169v1.36h-16.918v-1.36c3.938 0.363 5.64-1.814 5.102-6.529v-27.474c0.358-4.716-1.343-6.892-5.102-6.53v-1.36h30.613v8.162h-1.074c0.179-3.99-1.7-5.894-5.64-5.713h-13.158v16.594h13.696c2.506 0 3.849-1.542 4.028-4.625h1.074z m26.585 28.835v-1.584l30.114-38.02h-19.901c-4.016-0.352-6.11 2.024-6.285 7.129h-1.048l0.262-9.505h34.567v1.584l-30.377 38.02h23.83c3.666 0.704 6.023-2.552 7.07-9.77h1.31l-1.048 12.146H659.64003z m83.66-20.674h-27.557v13.33c-0.363 4.352 1.546 6.347 5.73 5.984h0.273v1.36h-17.462v-1.36h0.273c3.82 0.181 5.638-1.45 5.457-4.897v-30.739c0.363-3.264-1.274-4.896-4.912-4.896v-1.36h16.644v1.36c-4.548-0.544-6.548 1.632-6.003 6.529v12.24H743.30003v-13.873c0.181-3.445-1.638-5.077-5.457-4.896h-1.637v-1.36h18.007v1.36c-3.82-0.181-5.548 1.723-5.184 5.712v28.835c-0.364 4.353 1.546 6.348 5.73 5.985h0.546v1.36h-19.918v-1.36h2.456c3.82 0.181 5.638-1.541 5.457-5.169v-14.145z m171.449 19.402h-19.793v-1.32c2.815 0 4.222-0.616 4.222-1.848 0-0.94-6.07-6.396-18.21-16.37v12.673c-0.351 4.049 1.496 5.897 5.543 5.545h0.792v1.32h-18.474v-1.32h1.056c3.87 0.176 5.63-1.408 5.278-4.753v-29.835c0.176-3.52-1.584-5.104-5.278-4.752h-1.056v-1.32h18.21v1.32h-0.528c-3.87-0.176-5.718 1.584-5.542 5.28v14.522c9.268-10.088 14.632-15.979 16.09-17.674 0.176-1.585-0.52-2.304-3.687-2.128v-1.32h17.682v1.32c-4.047-0.176-5.914 0.191-7.85 2.128l-0.168 0.183c-0.285 0.325-5.53 6.112-15.733 17.359 12.918 11.604 19.516 17.545 19.792 17.822 1.232 1.232 3.783 1.848 7.654 1.848v1.32z m-386.49 0h-19.793v-1.32c2.815 0 4.222-0.616 4.222-1.848 0-0.94-6.07-6.396-18.21-16.37v12.673c-0.351 4.049 1.496 5.897 5.543 5.545h0.792v1.32h-18.474v-1.32h1.056c3.87 0.176 5.63-1.408 5.278-4.753v-29.835c0.176-3.52-1.584-5.104-5.278-4.752h-1.056v-1.32h18.21v1.32h-0.528c-3.87-0.176-5.718 1.584-5.542 5.28v14.522c9.268-10.088 14.632-15.979 16.09-17.674 0.176-1.585-0.52-2.304-3.687-2.128v-1.32h17.682v1.32c-4.047-0.176-5.914 0.191-7.85 2.128l-0.168 0.183c-0.285 0.325-5.53 6.112-15.733 17.359 12.918 11.604 19.516 17.545 19.792 17.822 1.232 1.232 3.783 1.848 7.654 1.848v1.32z m437.512-21.88c-1.054 13.569-9.045 20.862-23.972 21.88-15.28-0.848-23.445-7.463-24.5-19.845 1.055-13.74 9.309-21.118 24.763-22.135 14.576 1.187 22.48 7.887 23.709 20.1z m-6.378 1.914c-0.706-12.975-7.055-19.889-19.048-20.742-10.23 0.512-15.786 6.658-16.667 18.437 0.881 12.975 7.319 19.975 19.312 20.999 10.23-0.512 15.697-6.743 16.403-18.694z m-149.239-1.915c-1.054 13.57-9.044 20.863-23.972 21.881-15.279-0.848-23.445-7.463-24.499-19.845 1.054-13.74 9.308-21.118 24.763-22.135 14.576 1.187 22.479 7.887 23.708 20.1z m-6.378 1.915c-0.705-12.975-7.054-19.889-19.048-20.742-10.23 0.512-15.785 6.658-16.667 18.437 0.882 12.975 7.32 19.975 19.313 20.999 10.23-0.512 15.697-6.743 16.402-18.694z m-206.638-1.915c-1.054 13.57-9.044 20.863-23.972 21.881-15.279-0.848-23.445-7.463-24.499-19.845 1.054-13.74 9.308-21.118 24.763-22.135 14.576 1.187 22.479 7.887 23.708 20.1z m-6.378 1.915c-0.705-12.975-7.054-19.889-19.048-20.742-10.23 0.512-15.785 6.658-16.667 18.437 0.882 12.975 7.32 19.975 19.313 20.999 10.23-0.512 15.697-6.743 16.402-18.694z m417.725-22.014h15.96v1.303c-4.36-0.173-6.453 1.826-6.279 5.998v18.252c-0.523 10.604-7.065 16.08-19.624 16.427-12.734-0.348-19.275-5.736-19.624-16.166v-19.556c0.35-3.65-1.482-5.302-5.494-4.955v-1.303h17.007v1.303h-0.523c-3.663-0.173-5.408 1.391-5.233 4.694v18.513c0.174 9.56 5.233 14.428 15.175 14.602 10.118-0.174 15.263-5.041 15.438-14.602V588.46c0.698-5.737-1.57-8.344-6.803-7.823v-1.303z m-159.443 0H865.00003v1.303c-4.36-0.173-6.454 1.826-6.28 5.998v18.252c-0.522 10.604-7.064 16.08-19.623 16.427-12.734-0.348-19.275-5.736-19.624-16.166v-19.556c0.35-3.65-1.482-5.302-5.494-4.955v-1.303h17.007v1.303h-0.523c-3.663-0.173-5.408 1.391-5.233 4.694v18.513c0.174 9.56 5.233 14.428 15.175 14.602 10.118-0.174 15.263-5.041 15.438-14.602V588.46c0.697-5.737-1.57-8.344-6.803-7.823v-1.303zM327.22903 537.48c-1.978-2.073 9.252-8.074 17.83-21.537 8.578-13.463 17.22-32.111 17.22-43.167 0-11.056 3.318-34.04 1.208-40.85-2.11-6.812 2.11-8.438 7.643-8.438 5.534 0 26.237-6.67 41.67-10.749 15.43-4.078 30.425-1.103 39.686 1.51 9.261 2.614 10.743 7.466 9.092 9.24-1.651 1.773-4.052 4.298-4.052 8.436v43.837c0 16.117 4.096 34.132 2.773 40.18-1.322 6.05 0 26.937 0 30.708 0 3.77-8.404-0.917-15.813-3.771-7.409-2.854-19.91-5.4-28.18-9.89-8.272-4.492-1.962-8.587 0-6.812 1.961 1.774 14.424 2.352 21.602 2.352 7.178 0 9.726 0.013 9.726-5.267 0-5.279-1.927-16.756-3.148-30.892-1.22-14.137-2.818-47.45-2.818-56.463 0-9.013-3.701-9.595-5.463-12.419-1.762-2.823-7.57-4.429-12.893-4.429-5.322 0-7.445 3.072-8.968 5.796-1.523 2.725 0 11.27 0 12.394 0 1.125 6.84 1.487 8.968 0 2.129-1.486 7.418-0.519 9.58 1.487 2.162 2.006-2.162 8.988-6.164 8.988s-12.384 3.744-13.929 5.31c-1.544 1.567 0.087 6.708 1.545 6.708 1.457 0 11.254-1.644 16.386-1.644 5.131 0 2.694 5.186 0 8.09-2.694 2.905-17.77 4.978-24.403 6.588-6.632 1.61-17.844 5.714-22.921 7.414-5.077 1.699-7.091-1.7-7.091-4.428 0-2.728-5.185-2.575-5.185 2.728 0 5.304-9.86 21.196-9.86 23.99 0 2.793 2.413 4.026 4.327 4.026 1.914 0-1.914 6.274-11.96 16.756-10.046 10.483-24.43 16.29-26.408 14.218z m53.184-77.96c-3.425 0-5.67 8.489-2.835 8.489s9.244 1.82 12.341 0c3.097-1.82 5.677-3.84 8.686-3.84 3.01 0 0.64-7.793-4.023-6.221-4.663 1.572-10.744 1.572-14.17 1.572z m17.018-31.797c-2.608-1.14-9.633 1.035-12.148 3.03-2.515 1.994-7.457 2.101-8.994 5.564-1.538 3.463 0 12.8 1.537 13.289 1.538 0.489 8.54-0.49 11.747-2.929 3.207-2.439 10.372-4.434 10.372-5.907 0-1.472 0.094-11.906-2.514-13.047z m-17.967 64.712c5.51 0 11.695-3.991 22.306-6.691 10.611-2.7 18.81-4.66 23.682-1.433 4.871 3.228 9.331 2.035 9.331 4.133 0 2.097-1.378 7.742-4.52 11.358-3.141 3.616-4.811 10.42-4.811 12.978 0 2.557-17.204 0-21.469 0-4.265 0-9.401 4.9-12.824 4.9-3.422 0-4.548-8.503-7.335-12.623-2.787-4.12-9.869-12.622-4.36-12.622z m18.307 4.01c-5.364 2.809-3.19 6.185-3.19 8.627 0 2.441 5.364 1.312 8.376 0 3.012-1.313 5.499-2.442 9.553-2.442 4.054 0 3.13-9.532 2.055-11.086-1.076-1.553-3.743 0-7.072 0-3.33 0-4.358 2.092-9.722 4.9z m157.833-50.79c8.635 0 9.991-4.64 19.578-4.64s33.422-3.251 42.851-3.251c9.43 0 31.197 15.333 31.197 19.17 0 3.836-8.264 5.54-11.162 11.08-2.898 5.54-5.306 19.724-10.162 25.138-3.237 3.609-4.719 8.844-4.445 15.706-10.653-2.102-18.872-3.153-24.66-3.153-8.68 0-14.484 3.153-23.619 3.153s-9.886 5.678-13.817 5.678c-3.932 0-5.761-6.421-11.748-21.384-5.986-14.963-12.843-30.678-12.843-40.055 0-9.376 10.194-7.441 18.83-7.441z m15.153 10.508c-8.508 3.196-15.97 9.84-14.475 14.131 1.494 4.292 4.196 12.267 4.196 17.608 0 5.341 4.854 6.833 13.341 6.087 8.488-0.746 13.22-3.796 22.288-3.796 9.067 0 18.384 0.802 18.384-5.4 0-6.204 3.811-13.777 3.811-19.409s-1.565-12.858-6.537-12.858c-4.97 0-32.5 0.44-41.008 3.637z m170.73-25.182c3.092 2.458 6.73-1.014 10.944 1.445 4.213 2.458 1.97 5.101 0 10.482-1.97 5.38-9.374 7.531-10.944 5.05-1.57-2.482-7.944-8.33-11.42-5.05-3.478 3.28-13.637 13.799-13.637 17.219 0 3.42 1.988 11.34 9.171 5.67s11.56-10.02 15.886-7.845c4.325 2.175 2.84 12.986-1.764 15.777-4.603 2.792-2.626 6.244-2.626 8.186 0 1.942 7.603-3.417 9.386 0 1.783 3.417-2.355 11.69-9.386 16.29-7.03 4.6-8.585 8.302-8.585 12.426 0 4.125 2.004 10.96 6.608 7.543 4.603-3.418 13.513-16.233 17.31-19.969 3.798-3.736 2.01 4.884-1.969 12.426-3.978 7.543-10.288 18.738-15.341 21.265-5.054 2.527-5.84 7.3-9.519 7.3-3.678 0-4.363-13.37-4.363-17.196 0-3.826 1.541-13.837 0-13.837-1.54 0-4.599-1.656-8.044 2.468-3.445 4.125-9.979 2.47-9.979 0 0-2.468-3.41-12.426 0-12.426 3.411 0 4.816 0.345 9.98-1.695 5.163-2.041 10.43-5.846 10.43-8.811s-10.43-12.494-10.43-13.97c0-1.476-2.17 4.233-6.075 6.21-3.905 1.976-8.084 5.256-13.69 7.76-5.606 2.504-9.181-0.368 2.254-13.97 11.436-13.602 29.329-38.439 34.382-50.085 5.054-11.646 7.893-24.275 9.657-22.472 1.764 1.803 14.716 8.667 10.738 13.087-3.978 4.42-12.066 14.263-8.974 16.722z m20.476 1.139c7.119-5.337 22.866-17.248 34.558-17.248s20.19 5.938 20.19 8.624c0 2.686-7.261 3.169-7.261 6.792 0 3.624-2.61 31.209-9.457 35.51-6.847 4.3-17.72 8.733-17.72 12.783 0 4.05 11.394 3.08 17.72-4.852 6.325-7.932 16.503-21.116 19.935-18.2 3.43 2.916 5.096 4.97 4.14 7.619-0.956 2.65-18.573 20.905-24.075 24.8-5.503 3.895 0.345 8.347 6.711 12.062 6.366 3.715 12.841 8.242 24.517 10.501 11.675 2.26 29.856 8.203 27.59 12.536-2.265 4.333-35.667 8.235-38.883 4.117-3.217-4.117 3.01-8.163-3.217-12.408-6.227-4.245-16.718-11.542-16.718-9.491 0 2.05-3.402 18.383-14.722 29.33-11.32 10.946-15.576 13.274-18.21 12.11-2.635-1.164-7.51-16.528-7.51-36.194 0-19.665 2.412-23.446 2.412-31.93 0-8.483-1.227-42.4 0-46.461z m8.9 62.576c-4.22 2.882-3.816 5.664-3.816 5.664v16.12c0 6.369 3.817 9.887 8.961 8.164 5.145-1.723 11.71-11.648 14.874-14.534 3.163-2.886 2.385-7.034 2.385-9.75s-8.187-2.88-11.876-3.778c-3.69-0.899-6.306-4.767-10.527-1.886z m6.757-50.453c4.987 0 3.633-1.103 7.04-2.996 3.406-1.892 3.738 1.893 3.738 4.721 0 2.829-12.607 14.632-17.392 15.642-4.786 1.01 0.214 10.816 9.188 5.33 8.974-5.484 13.158-13.132 13.158-15.736v-23.327c0-3.292-8.693-2.742-8.693 0 0 2.743-4.465 4.86-7.948 8.554-3.482 3.694-4.078 7.812 0.909 7.812z m145.908-24.789c4.819 0 5.424 2.686 9.885 6.677 4.46 3.99-17.788 18.855-22.445 25.012-4.658 6.158-14.322 10.482-10.743 1.875 3.578-8.607 18.484-33.564 23.303-33.564z m-16.237 65.928c-3.387 0-6.704 5.612-7.844 10.36-1.141 4.748-5.086 11.152-15.615 16.34-10.53 5.188-9.804-3.763-6.204-3.763 3.6 0 21.819-22.937 29.663-33.632 7.845-10.694 12.595-21.602 16.828-21.602 4.234 0 5.783 3.959 8.165 6.534 2.383 2.576-6.183 6.736-8.165 9.539-1.98 2.803-1.363 9.35-4.233 12.338-2.87 2.988-1.735 34.675 0 40.634 1.735 5.959 0 6.1 0 10.643 0 4.542-6.846 1.419-9.462 1.419-2.616 0-1.163-7.755 0-12.062 1.163-4.306 2.616-17.95 2.616-26.388 0-8.438-2.36-10.36-5.749-10.36z m43.029-52.955c0-2.683 11.87-4.385 18.98-4.385 7.108 0 19.69-7.381 24.352-8.588 4.663-1.207 7.04 12.973 3.993 12.973s-13.873 7.037-18.572 9.701c-4.7 2.665-21.517 3.102-26.128 3.102-4.61 0-2.625-10.12-2.625-12.803zM934.00003 466.356c1.302-3.903 24.419-5.176 31.019-6.76 6.6-1.585 16.39-6.51 25.033-6.51 8.642 0 23.861-4.849 25.354-2.822 1.492 2.026 2.861 4.252 6.542 9.332 3.681 5.079-0.481 9.277-4.927 8.017-4.446-1.26-20.162 0-21.883 0s1.322 5.75-1.16 8.8c-2.482 3.052-1.595 50.243 1.16 58.827 2.755 8.583 2.476 10.646 0 12.37-2.476 1.723-14.964-1.922-20.686-4.116-5.723-2.195-12.745-5.462-14.16-8.254-1.417-2.793-14.454-4.267-14.454-8.584 0-4.317 9.366-5.127 19.181 0 9.815 5.127 16.39 2.983 16.39 0v-43.983c0-7.072-6.957-13.8-11.144-13.8s-18.2 3.123-21.731 6.03c-3.532 2.907-8.385 4.562-8.385 1.51 0-3.05-7.45-6.154-6.148-10.057z" fill="#231916"></path><path d="M49.67003 512.46c3.134 6.155 56.773 62.13 82.4 87.766 5.588 5.596 10.202 4.022 15.32-1.224 17.897-18.221 63.29-61.221 66.686-66.432-7.327 0.035-59.281-0.112-78.28 0-8.357 0.035-14.694-1.207-13.928-12.241 0.174-2.448-4.388-7.45-6.895-7.52-20.682-0.629-41.4-0.35-65.286-0.35h-0.017z m95.213-87.171c-2.21-2.116-9.976-2.606-12.813 0-15.408 14.059-61.676 59.437-69.754 68.11h67.508c12.025 0 21.953 0.927 17.427 18.589h80.52c-1.184-3.76-55.537-60.33-82.888-86.7zM138.40703 374c77.037-0.052 138.685 62.27 138.407 139.929-0.244 74.983-63.163 137.008-138.877 136.886C62.03003 650.692 0.05203 588.947 0.00003 513.439-0.05197 435.256 60.70703 374.053 138.40703 374z" fill="#CC1C20"></path></svg>