<svg viewBox="0 0 1024 1024" version="1.1" xmlns="http://www.w3.org/2000/svg"><path d="M538.983 488.712l8.2-3.88v2.155l9.992-0.04c1.632-0.857 3.08-1.835 4.343-2.933 1.264-1.1 2.024-2.38 2.28-3.842 0.102 2.843-0.089 4.93-0.572 6.264-0.483 1.333-1.298 2.805-2.445 4.415v11.088c6.302-6.21 11.222-13.685 14.188-22.954l11.222 3.003c-0.51 1.205-1.003 1.825-1.605 2.844 1.992 2.271 6.3 5.724 8.386 7.439 7.103 5.152 11.227 5.63 11.952 5.763-1.848 0.205-3.464 1.018-4.849 2.44-1.507 1.548-3.268 3.616-5.281 6.202-5.376-4.913-10.167-8.957-13.967-15.445a46.059 46.059 0 0 1-11.604 12.562c9.464 0.083 15.309 0.083 17.532 0 2.223-0.083 3.758-1.38 4.603-3.89 0.615 2.314 0.615 4.001 0 5.062-0.616 1.062-1.447 2.18-2.493 3.353h-20.972v-3.422c-1.622 1.158-2.906 1.51-4.667 2.53h-2.445v29.511l-8.313 2.998-0.07-6.927h-5.215v3.929l-8.2 3.285v-51.51z m8.37 38.881h5.02v-35.199h-5.02v35.2z m16.737-13.612l9.943-3.93V515h16.704c4.264 0 7.087-1.917 8.468-5.751 0.28 1.438 0.28 3.038 0 4.798-0.28 1.761-0.959 3.11-2.034 4.05v21.426l-10.416 4.201-0.07-5.576-12.652-0.018v1.824l-9.943 4.402V513.98z m22.595 19.348v-12.064h-12.652v12.064h12.652z m27.029-50.711l7.27-1.119c0.186 0.867 0.186 2.024 0 2.943h18.734c-1.351-2.306-4.106-4.966-5.45-6.3l5.977-5.702c3.473 1.932 5.546 3.995 6.417 5.703l-5.513 6.29c11.671 0 19.27 0.003 22.795 0.01 3.525 0.006 5.854-1.534 6.986-4.62 0.353 1.85 0.353 3.248 0 4.19-0.352 0.944-1.08 1.751-2.184 2.423v11.76l-10.378 0.185v-10.177h-17.527c1.666 1.012 4.95 4.19 5.82 5.866l-6.416 5.833c-1.949-2.48-3.636-3.763-5.858-5.833l5.33-5.866h-19.546c-0.27 3.804-2.218 7.177-3.829 9.425l-8.735-5.358c3.241-3.956 3.895-5.324 6.107-9.653z m12.59 11.777l8.083 2.894v8.235c6.184-3.95 12.954-10.035 17.603-14.673l9.784 5.734c-5.672 6.015-15.88 12.318-23.505 16.36h11.167c3.717-0.084 6.195-2.88 7.435-8.386-0.325 1.194 1.047 4.007 1.995 5.492 2.216 3.476 3.818 4.243 4.065 4.482 0 5.344-3.49 6.403-7.024 6.403H633.63c-2.882 0-5.904-1.723-6.276-3.652-5.021 1.745-12.805 3.652-16.932 3.652l-1.281-2.614c6.137-2.342 11.955-4.242 17.163-6.997v-16.93z m39.015 1.352c3.971 3.613 6.57 7.853 9.234 11.983l-8.365 6.316c-1.542-5.631-5.127-12.855-7.322-17.078l6.453-1.221z m-47.071 1.22l5.66 2.251c-1.22 4.816-3.857 9.684-7.566 14.687l-8.1-6.175c2.986-2.712 6.748-6.274 10.006-10.762z m39.017 37.455v-7.628l11.48-4.79v18.218l-11.48 3.784v-3.784l-42.855-0.287v-13.14l11.516-4.79v12.153l10.11-0.07v-7.21l10.626-4.873v12.083l10.603 0.334z m72.918-47.818c8.107 0 12.71-1.702 13.81-5.105 0.188 2.31-0.004 4.17-0.578 5.58-0.573 1.412-2.473 3.142-5.7 5.192h-21.039v9.003h13.507c6.105 0 9.72-1.843 10.846-5.527-0.016 2.75-0.245 4.814-0.685 6.192-0.441 1.378-1.317 2.766-2.628 4.164v24.843c0 4.945-3.829 7.418-8.022 7.418h-5.59c0-3.732-0.614-8.072-7.09-8.539v10.484l-11.52 4.046V506.87H693.28v26.589l-11.043 5.105v-35.928l11.043-5.008v3.645h12.214v-9.003H679.49l-2.001-5.667h32.543c-1.957-2.007-4.412-5.105-5.308-6.432l5.93-5.212c1.88 0.738 5.043 4.025 6.022 5.701l-5.39 5.943h18.897z m-13.169 20.625v21.484c3.326 0.37 4.18 0.556 7.137 0.556 0.97 0 1.455-0.672 1.455-2.018V507.23h-8.592z m87.3-22.664c3.85 0 6.62-1.58 8.31-4.742 0.028 2.157-0.145 3.826-0.516 5.01-0.372 1.182-1.803 2.837-4.293 4.965H793.94l6.872 2.73c-1.616 2.292-3.117 4.338-6.339 6.757h11.33c2.102 0 4.376-1.848 6.822-5.545 0.067 2.467-0.105 4.521-0.516 6.163a12.209 12.209 0 0 1-2.148 4.474v30.278c0 4.79-2.421 8.565-7.091 8.565h-5.713c0-4.418-1.03-9.062-3.528-9.132v1.348l-8.375 1.902v-2.494h-9.576v2.494l-10.628 2.884v-20.38s-0.976 0.467-1.63 0.746l-2.122-1.936v19.208l-10.507 4.819v-43.46l10.507-3.353v3.419h5.278c-2.241-2.837-4.229-4.053-6.657-6.053l3.97-3.434h-14.425l-1.261-5.233h31.761c-2.948-3.767-4.93-5.349-6.05-6.093l6.05-6.032c3.456 1.163 5.85 4.631 6.335 5.703l-5.349 6.422h23.365z m-42.722 29.481c1.769-1.64 7.357-7.674 8.219-9.08h-8.22v9.08z m9.498-9.08l7.658 4.282c-3.037 2.732-6.314 6.19-10.005 8.321l6.705-1.596v2.68h12.447c2.939 0 4.85-0.675 5.733-2.024v15.008c0.7 0.046 1.331 0.07 1.892 0.07 1.308 0 3.365-0.664 3.365-2.147v-14.59l-3.126 3.682c-4.392-3.751-9.08-7.295-13.564-9.796l2.904-3.89H771.09z m16.445 0c3.852 1.532 8.507 3.208 11.35 5.028v-5.029h-11.35z m-2.51 24.77v-6.333h-9.577v6.333h9.576z m-10.52-30.637h8.846c2.034-2.673 3.347-5.669 5.02-9.219h-20.084c3.738 1.903 6.343 4.129 8.708 5.986l-2.49 3.233z m77.265-14.666l10.903-4.12v35.66c3.4-7.075 6.383-16.187 8.526-24.742l10.693 5.737c-4.473 11.098-9.784 21.04-15.935 29.826l-3.284-1.526V536.5h11.802c4.917 0 7.824-1.85 8.721-5.553 0.778 2.515 0.627 4.82-0.451 6.914-1.079 2.094-2.859 3.42-5.34 3.98h-59.252l-1.327-5.34h18.45v-12.827l-6.779 5.202c-3.541-12.717-7.432-23.006-11.671-30.867l6.08-4.578 0.253 0.31c2.704 3.383 6.743 10.632 12.117 21.748v-30.923l10.903-3.904V536.5h5.59v-52.066z m43.796 21.58h-2.702l-1.227-2.22c-1.155 1.397-3.323 3.314-4.525 4.525l-1.445-1.642c3.604-6.844 6.527-16.563 9.206-26.853l9.632 0.838c-1.108 3.027-1.917 5.494-3.118 8.102h6.182c2.502 0 4.287-1.125 5.356-3.375 0.457 2.255 0.352 4.076-0.313 5.463-0.666 1.387-1.95 2.46-3.853 3.22h-10.144c-1.155 2.095-1.916 5.028-3.672 6.634h11.702c3.146 0 5.24-1.373 6.28-4.12 0.623 1.975 0.518 3.93-0.313 5.866-0.832 1.936-3.303 2.96-7.414 3.073v8.171h4.1c1.11 0 2.667-1.234 4.67-3.701l1.209 3.143v-29.76l10.048-4.392v4.61h14.837c4.55 0 7.736-1.537 9.555-4.61 0.037 1.895-0.108 3.452-0.435 4.669-0.327 1.217-0.874 2.144-1.639 2.782v28.167l-9.37 1.187v-1.885h-4.169c1.248 3.259 2.155 5.353 3.911 8.1 1.34-1.63 3.167-4.436 4.41-6.032l8.353 5.292c-2.495 2.84-6.097 6.074-8.961 7.61 0 1.324 1.533 3.613 3.876 5.213 0.812 0.555 4.578-0.628 7.276-1.632l-9.004 12.737c-8.454-6.24-13.951-16.668-16.492-31.288h-2.148v20.253c1.986-0.559 4.236-2.467 6.269-3.212 0.96 2.317 0.96 4.448 0 6.392-1.44 2.915-10.358 5.665-16.317 7.434l-1.802-8.379a23.72 23.72 0 0 0 1.802-0.21V513.46c-2.87 3.836-5.01 5.754-6.418 5.754h-3.56v8.835c2.355-1.304 5.932-4.067 7.413-7.112 0.904 4.438 1.159 7.313 0.763 8.624-0.593 1.967-8.731 9.65-14.829 14.446l-4.712-10.37c0.6-0.232 1.178-0.442 1.732-0.628v-13.795h-8.454l-0.485-5.518h8.94v-7.682z m29.216 1.467h13.39v-6.705h-13.39v6.705z m0-11.733h13.39v-6.705h-13.39v6.705z m84.431-12.37c5.76-0.026 9.02-1.661 9.78-4.905 0.322 2.945 0.171 5.065-0.452 6.36s-1.869 2.42-3.736 3.372h-32.692l-1.26-4.827c13.148 0.025 22.601 0.025 28.36 0z m6.67 15.722c4.66 0.08 7.267-1.707 7.822-5.359 0.56 2.561 0.323 4.806-0.714 6.734-1.036 1.929-2.52 3.172-4.45 3.73h-10.567l-0.368 30.095c0 5.921-2.44 9.707-7.956 9.707-5.515 0-5.923-8.23-15.403-12.154 3.476 0.186 8.989-0.28 12.326 0 1.159 0 1.127-0.442 1.127-2.027v-25.621h-17.256l-0.625-2.448c-1.715 1.958-3.868 5.813-5.722 7.492v30.274l-9.455 4.833V514.97c-1.251 0.84-5.528 0.518-6.675 0.03l-2.635-1.24c7.276-6.34 14.037-14.404 19.784-23.495l10.877 4.224c-1.066 1.539-2.814 3.304-3.88 4.61 17.853-0.08 29.11-0.08 33.77 0z m-47.02-20.114l8.619 3.633c-4.767 7.66-10.997 14.962-18.737 19.833l-4.672-4.256c5.38-5.06 10.59-12.022 14.79-19.21z" fill="#000000"></path><path d="M513.708 498.107c-8.719-0.766-15.652-0.066-20.801 2.1-7.724 3.248-15.083 9.724-31.148 24.321-16.066 14.598-45.67 30.912-75.198 30.912-19.686 0-36.052-1.206-49.099-3.617 7.488 1.265 18.511 1.265 33.071 0 21.84-1.897 46.615-12.84 56.47-19.61 9.853-6.769 20.91-15.074 27.518-20.664 6.609-5.59 21.427-16.144 33.663-17.625 8.157-0.987 16.665 0.407 25.524 4.183z" fill="#F2A100"></path><path d="M299.549 543.698c11.643 5.276 24.532 7.034 38.668 5.276 21.204-2.638 47.959-11.031 67.773-25.763 19.814-14.732 39.028-34.93 57.115-39.153 18.087-4.223 38.92 1.078 50.078 9.99 11.16 8.913 10.917 7.496 3.198 0-7.72-7.496-29.693-26.048-53.276-26.048-23.583 0-40.167 7.176-54.699 9.232-14.531 2.056-50.78 0.415-62.347-3.591s-19.66 2.231-23.62 6.324c-3.96 4.093-13.854 7.977-17.3 7.977-3.446 0-0.44 3.934 9.796 3.934h81.26c2.16 0-29.956 29.72-50.136 42.22-13.454 8.333-28.957 11.533-46.51 9.602z" fill="#AE1F33"></path><path d="M0 539.222c1.997-0.116 3.41-0.448 4.238-0.997 1.389-0.925 2.083-2.674 2.083-5.246v-42.967c0-2.514-0.621-4.22-1.863-5.116-0.755-0.52-2.241-0.91-4.458-1.17v-2.255h25.32v2.255c-2.191 0.144-3.714 0.491-4.566 1.04-1.413 0.925-2.12 2.674-2.12 5.246v18.384h17.831v-18.384c0-2.572-0.67-4.306-2.01-5.202-0.828-0.55-2.375-0.91-4.64-1.084v-2.255h25.467v2.255c-2.192 0.202-3.69 0.578-4.494 1.127-1.34 0.896-2.01 2.616-2.01 5.16v42.966c0 2.601 0.743 4.364 2.23 5.29 0.852 0.548 2.277 0.866 4.274 0.953v2.255H29.815v-2.255c2.144-0.087 3.666-0.433 4.567-1.04 1.389-0.925 2.083-2.66 2.083-5.203v-20.465h-17.83v20.465c0 2.63 0.755 4.408 2.265 5.333 0.877 0.52 2.35 0.823 4.42 0.91v2.255H0v-2.255z m60.308 0c2.778-0.029 4.582-0.629 5.413-1.8 0.831-1.17 1.247-2.926 1.247-5.267v-42.143c0-2.428-0.475-4.025-1.425-4.79-0.95-0.766-2.635-1.265-5.057-1.496v-2.255h18.377l14.352 41.102h0.606l12.606-41.102h18.377v2.255c-2.47 0.23-4.155 0.787-5.057 1.669-0.903 0.882-1.354 3.042-1.354 6.482v39.237c0 3.267 0.451 5.406 1.354 6.417 0.902 1.012 2.587 1.575 5.057 1.691v2.255h-24.218v-2.255c2.16-0.087 3.787-0.527 4.88-1.322 1.091-0.795 1.638-2.537 1.638-5.225v-43.4h-0.535l-16.203 52.202h-1.959l-18.056-51.161h-0.32v40.191c0 2.949 0.45 5.102 1.353 6.46 0.902 1.359 2.896 2.11 5.983 2.255v2.255h-17.06v-2.255z m99.921-58.584c3.12 0 6.276 0.682 9.468 2.046l1.893 0.797c2.01 0.833 3.159 1.25 3.445 1.25 0.95 0 1.712-0.432 2.284-1.293 0.573-0.862 0.933-1.766 1.079-2.714h2.084v20.634h-1.901c-1.804-4.48-3.644-8.012-5.52-10.597-3.51-4.767-7.482-7.15-11.918-7.15-5.02 0-8.585 2.548-10.693 7.645-2.108 5.098-3.162 11.94-3.162 20.527 0 6.318 0.621 11.516 1.864 15.594 2.315 7.64 6.617 11.459 12.905 11.459 3.85 0 7.433-1.264 10.748-3.791 1.9-1.465 4.143-3.805 6.726-7.022l2.23 2.154c-2.924 3.848-5.496 6.634-7.713 8.357-3.949 3.073-8.335 4.61-13.161 4.61-7.385 0-13.575-2.585-18.571-7.755-5.532-5.715-8.299-13.411-8.299-23.09 0-9.591 2.645-17.36 7.933-23.304 4.972-5.572 11.065-8.357 18.279-8.357z m55.282 0c3.12 0 6.276 0.682 9.468 2.046l1.893 0.797c2.01 0.833 3.16 1.25 3.445 1.25 0.95 0 1.712-0.432 2.285-1.293 0.572-0.862 0.932-1.766 1.078-2.714h2.084v20.634h-1.901c-1.804-4.48-3.644-8.012-5.52-10.597-3.51-4.767-7.482-7.15-11.918-7.15-5.02 0-8.585 2.548-10.693 7.645-2.108 5.098-3.162 11.94-3.162 20.527 0 6.318 0.621 11.516 1.864 15.594 2.316 7.64 6.617 11.459 12.905 11.459 3.85 0 7.433-1.264 10.748-3.791 1.9-1.465 4.143-3.805 6.726-7.022l2.23 2.154c-2.924 3.848-5.495 6.634-7.713 8.357-3.948 3.073-8.335 4.61-13.16 4.61-7.385 0-13.576-2.585-18.572-7.755-5.532-5.715-8.298-13.411-8.298-23.09 0-9.591 2.644-17.36 7.933-23.304 4.971-5.572 11.064-8.357 18.278-8.357z m28.705 58.868c2.022-0.088 3.471-0.408 4.348-0.961 1.486-0.932 2.229-2.709 2.229-5.33v-43.289c0-2.62-0.694-4.382-2.083-5.285-0.828-0.554-2.326-0.903-4.494-1.049v-2.271h23.128c4.457 0 8.16 0.611 11.107 1.835 5.553 2.3 8.33 6.494 8.33 12.58 0 3.698-1.126 6.632-3.38 8.802-2.253 2.17-4.694 3.546-7.325 4.128v0.83c2.777 0.64 5.188 1.718 7.234 3.232 3.995 2.97 5.992 7.106 5.992 12.406 0 4.95-1.912 8.962-5.736 12.035-3.824 3.072-8.915 4.608-15.272 4.608h-24.078v-2.271z m18.369-31.316c4.626 0 7.731-0.9 9.314-2.7 1.583-1.8 2.375-4.995 2.375-9.584 0-3.398-0.518-6.258-1.553-8.581-1.035-2.323-3.026-3.485-5.972-3.485-1.559 0-2.642 0.312-3.251 0.936-0.61 0.625-0.913 1.75-0.913 3.376v20.038z m0 25.703c0.023 1.57 0.214 2.719 0.571 3.446 0.595 1.28 1.738 1.92 3.429 1.92 3.453 0 5.876-1.15 7.269-3.447 1.393-2.298 2.09-5.57 2.09-9.815 0-6.34-1.537-10.557-4.608-12.651-1.858-1.28-4.775-1.876-8.751-1.789v22.336z" fill="#000000"></path></svg>