<svg viewBox="0 0 1024 1024" version="1.1" xmlns="http://www.w3.org/2000/svg"><path d="M224 0h576c123.6 0 224 100.4 224 224v576c0 123.6-100.4 224-224 224H224c-123.6 0-224-100.4-224-224V224C0 100.4 100.4 0 224 0z" fill="#FFFFFF"></path><path d="M872 464c-30.8-2.8-55.2-0.4-73.2 7.6-27.2 11.6-53.2 34.8-109.6 86.4-56.4 52-160.8 110-264.4 110-69.2 0-126.8-4.4-172.8-12.8 26.4 4.4 65.2 4.4 116.4 0 76.8-6.8 164-45.6 198.8-69.6S640.8 532 664 512s75.2-57.6 118.4-62.8c28.4-3.6 58.4 1.2 89.6 14.8z" fill="#F2A100"></path><path d="M120 627.2c41.2 18.8 86.4 24.8 136.4 18.8 74.8-9.2 169.2-38.8 238.8-90.8s137.6-123.2 201.2-138 137.2 4 176.4 35.2c39.2 31.6 38.4 26.4 11.2 0S780 360 696.8 360s-141.6 25.2-192.8 32.4-179.2 1.6-220-12.4-69.2 8-83.2 22.4-48.8 28-60.8 28-1.6 14 34.4 14h286.4c7.6 0-105.6 104.8-176.8 148.8-47.6 29.2-102 40.8-164 34z" fill="#AE1F33"></path></svg>