<svg viewBox="0 0 1024 1024" version="1.1" xmlns="http://www.w3.org/2000/svg"><path d="M521.82 467.025h-31.907l2.06 9.29h27.788l2.059-9.29z m-12.545-7.432v3.716h28.646v3.716h-7.773l-3.01 9.29h6.787c2.207 0 3.996 1.778 3.996 3.97v33.603c0 2.28-1.86 4.129-4.154 4.129h-7.689v-3.862l1.961-0.104c0.547-0.091 0.949-0.562 0.949-1.114v-32.08h-48.005v37.16h-8.92v-41.702h12.532l-3.01-9.29h-9.523v-3.716h29.086v-3.716h8.127z m-11.004 54.175h13.67v-13.27h-13.67v13.27z m21.024-30.274s4.456 10.956 6.942 12.403h-5.182v22.12h-31.9v-22.12h-4.346s4.557-7.855 5.386-12.403h8.907s-4.557 11.576-5.8 12.403h23.82s-4.971-8.269-5.593-12.403h7.766z m245.247-16.469h-31.908l2.061 9.29h27.787l2.06-9.29z m-12.546-7.432v3.716h28.647v3.716h-7.774l-3.01 9.29h6.787c2.206 0 3.997 1.778 3.997 3.97v33.603c0 2.28-1.86 4.129-4.155 4.129H768.8v-3.862l1.96-0.104a1.13 1.13 0 0 0 0.948-1.114v-32.08h-48.004v37.16h-8.92v-41.702h12.533l-3.01-9.29h-9.523v-3.716h29.085v-3.716h8.127z m-10.475 54.175h13.672v-13.27H741.52v13.27z m21.026-30.274s4.456 10.956 6.943 12.403h-5.183v22.12h-31.9v-22.12h-4.345s4.557-7.855 5.385-12.403h8.908s-4.558 11.576-5.8 12.403h23.82s-4.972-8.269-5.593-12.403h7.765z m-194.361 28.95h31.439v-23.639h-31.439v23.638z m41.573-23.639v23.637h8.892v5.575h-66.39v-5.575h5.376V464.55h7.268c1.136-0.002 37.624-0.078 51.266-4.956v4.956s-15.808 5.318-47.985 4.984v14.008h47.985v5.264h-6.412z m59.924-29.212l1.836 5.99h28.394v4.98H671.96v7.404h23.583a4.362 4.362 0 0 1 4.369 4.355v31.452s-0.414 4.243-3.934 4.243h-11.596v-5.574h3.52s2.485-0.413 2.485-1.858v-27.044h-18.427v34.476h-9.733V483.54h-17.392v34.476h-10.782l0.015-40.05h28.16v-7.405h-28.16v-4.979h27.187l-2.34-5.99h10.767z m183.322 43.292h-8.369v10.311h16.737v4.82h-65.608v-4.82h15.175v-10.311h-7.977s-5.636-8.743-7.98-38.11h8.592s4.464 31.564 7.365 36.35v-41.532h8.257v53.603h17.183v-53.603h8.256v42.636c1.198-3.573 6.924-21.382 7.923-38.125h8.814s-3.013 31.607-8.368 38.78zM891.638 458s-1.678 4.614-3.442 9.01h14.074v3.895h-15.697c-0.72 1.637-1.361 2.953-1.8 3.56h-8.528s4.984-8.121 7.199-16.465h8.194zM878.9 482.611v-3.897h22.839v3.897h-7.165v12.026h6.604v3.898h-6.604v11.914c0 3.23 2.126 3.118 2.126 3.118h4.478v3.787s-10.635 0.667-13.098-1.004c-2.462-1.669-2.462-4.898-2.462-4.898v-12.917H878.9v-3.898h6.718v-12.026H878.9z m35.988 1.015h0.056v1.787h18.078v-9.268h-18.134v7.481z m0-11.165h18.134v-9.156h-18.134v9.156z m20.579 19.861h7.168s-2.957 12.033-6.3 17.548c3.336 4.913 6.3 8.147 6.3 8.147h-9.736c-7.072-3.711-13.2-24.796-14.429-29.254h-3.526v22.945c0 0.832 0.673 1.507 1.502 1.507h7.454v4.802h-14.394a3.526 3.526 0 0 1-3.518-3.531v-55.424h32.857a2.974 2.974 0 0 1 2.968 2.98v26.72h-14.488c0.54 4.506 2.226 9.043 4.3 13.158 2.269-3.448 3.842-9.598 3.842-9.598z m43.284-33.79s-6.007 13.956-11.157 17.526h-10.619s8.367-8.944 12.12-17.527h9.656z m-5.497 17.526H983s-2.093 4.212-4.873 8.823v32.073h-9.312v-21.001h-8.122s9.312-10.967 12.561-19.895z m14.526-10.622v-4.78h36.647v4.78H987.78z m0 15.971v-5.349h36.647v5.35h-6.106v30.938c0 4.82-2.786 4.607-2.786 4.607h-17.682v-4.821h10.61c1.178 0 1.071-1.393 1.071-1.393v-29.332H987.78zM471 555.558l2.998-0.263c0.142 1.208 0.472 2.198 0.991 2.972 0.52 0.774 1.326 1.4 2.417 1.878 1.093 0.477 2.322 0.716 3.686 0.716 1.213 0 2.284-0.181 3.212-0.544 0.929-0.362 1.62-0.86 2.073-1.49 0.453-0.631 0.68-1.32 0.68-2.067 0-0.757-0.219-1.418-0.656-1.984-0.437-0.565-1.158-1.04-2.162-1.424-0.646-0.252-2.07-0.644-4.276-1.177-2.207-0.533-3.753-1.035-4.637-1.507-1.147-0.603-2.003-1.353-2.565-2.247-0.562-0.895-0.844-1.896-0.844-3.006 0-1.217 0.345-2.357 1.033-3.416 0.688-1.06 1.692-1.863 3.015-2.412 1.32-0.55 2.79-0.824 4.407-0.824 1.78 0 3.35 0.289 4.711 0.864 1.36 0.577 2.405 1.425 3.137 2.545 0.732 1.12 1.125 2.387 1.18 3.803l-3.048 0.231c-0.164-1.526-0.718-2.678-1.663-3.458-0.945-0.78-2.34-1.169-4.186-1.169-1.922 0-3.324 0.354-4.203 1.062-0.88 0.708-1.319 1.562-1.319 2.56 0 0.868 0.312 1.581 0.935 2.141 0.61 0.56 2.208 1.133 4.792 1.72 2.583 0.588 4.355 1.101 5.317 1.54 1.398 0.648 2.43 1.469 3.096 2.462 0.667 0.994 1 2.138 1 3.433 0 1.284-0.366 2.495-1.098 3.631-0.732 1.135-1.783 2.02-3.154 2.65-1.372 0.632-2.914 0.948-4.629 0.948-2.173 0-3.995-0.32-5.464-0.955-1.469-0.637-2.621-1.595-3.457-2.873-0.836-1.28-1.275-2.726-1.319-4.34z m24.963 7.637v-24.432h3.226v10.033h12.668v-10.033h3.226v24.432h-3.226v-11.516H499.19v11.516h-3.226z m29.348-10.033h8.273l-2.547-6.766c-0.777-2.055-1.354-3.744-1.73-5.066a31.202 31.202 0 0 1-1.316 4.666l-2.68 7.166z m-7.041 10.033l9.372-24.432h3.479l9.987 24.432h-3.678l-2.847-7.399h-10.204l-2.68 7.399h-3.43z m26.556 0v-24.432h3.294l12.747 19.182v-19.182h3.08v24.432h-3.295l-12.748-19.198v19.198h-3.078z m37.054-9.35v-2.83l10.215-0.017v8.957c-1.568 1.251-3.185 2.192-4.852 2.824a14.387 14.387 0 0 1-5.134 0.947c-2.368 0-4.52-0.508-6.456-1.524-1.936-1.015-3.397-2.483-4.384-4.404-0.987-1.92-1.48-4.067-1.48-6.438 0-2.349 0.49-4.541 1.471-6.578 0.982-2.036 2.395-3.548 4.237-4.536 1.842-0.989 3.964-1.483 6.366-1.483 1.744 0 3.32 0.284 4.73 0.848 1.409 0.566 2.514 1.353 3.315 2.364 0.8 1.01 1.409 2.327 1.826 3.95l-2.88 0.792c-0.36-1.23-0.811-2.196-1.348-2.899-0.537-0.702-1.305-1.265-2.304-1.687-0.997-0.423-2.105-0.635-3.322-0.635-1.458 0-2.72 0.223-3.784 0.668-1.064 0.444-1.922 1.029-2.575 1.753a8.357 8.357 0 0 0-1.521 2.388c-0.615 1.493-0.921 3.111-0.921 4.857 0 2.152 0.37 3.952 1.11 5.401 0.74 1.45 1.817 2.525 3.232 3.227a10 10 0 0 0 4.508 1.054c1.382 0 2.731-0.266 4.047-0.798 1.316-0.533 2.314-1.1 2.994-1.704v-4.496h-7.09z m37.409 2.893c1.83 0.518 3.339 1.29 4.526 2.314 1.863-1.72 2.795-4.304 2.795-7.755 0-1.962-0.33-3.675-0.989-5.142-0.659-1.466-1.624-2.605-2.892-3.415-1.27-0.81-2.694-1.215-4.274-1.215-2.364 0-4.325 0.819-5.883 2.456-1.558 1.637-2.337 4.082-2.337 7.333 0 3.153 0.77 5.572 2.313 7.259 1.541 1.687 3.51 2.53 5.907 2.53 1.133 0 2.2-0.214 3.203-0.644a10.212 10.212 0 0 0-3.137-1.39l0.768-2.331z m6.978 4.1c1.47 1.025 2.827 1.776 4.07 2.25l-0.933 2.232c-1.72-0.629-3.438-1.62-5.147-2.976-1.776 1.003-3.737 1.505-5.883 1.505-2.169 0-4.135-0.53-5.9-1.589-1.765-1.058-3.124-2.546-4.077-4.464-0.954-1.918-1.43-4.078-1.43-6.482 0-2.391 0.48-4.569 1.438-6.531 0.958-1.962 2.324-3.456 4.093-4.481 1.77-1.026 3.751-1.539 5.94-1.539 2.212 0 4.206 0.532 5.982 1.596 1.776 1.064 3.13 2.552 4.061 4.465 0.932 1.913 1.397 4.071 1.397 6.473 0 1.996-0.3 3.79-0.898 5.383a11.287 11.287 0 0 1-2.713 4.159z m9.911 2.357v-24.432h3.187v24.432h-3.187z m25.464-23.9h3.217v13.879c0 2.414-0.276 4.33-0.83 5.75-0.553 1.421-1.55 2.576-2.993 3.467-1.442 0.89-3.336 1.335-5.68 1.335-2.277 0-4.14-0.388-5.588-1.163-1.448-0.776-2.482-1.899-3.101-3.368-0.62-1.468-0.928-3.475-0.928-6.021v-13.88h3.217v13.863c0 2.087 0.196 3.624 0.588 4.613 0.392 0.988 1.067 1.75 2.023 2.286 0.957 0.535 2.125 0.802 3.508 0.802 2.366 0 4.051-0.53 5.058-1.589 1.006-1.06 1.509-3.097 1.509-6.112v-13.862z m37.215 15.555l3.18 0.807c-0.666 2.624-1.866 4.625-3.598 6.003-1.732 1.377-3.85 2.066-6.352 2.066-2.59 0-4.696-0.53-6.319-1.589-1.623-1.06-2.859-2.593-3.704-4.602-0.848-2.009-1.271-4.167-1.271-6.471 0-2.515 0.478-4.707 1.434-6.58 0.956-1.87 2.317-3.292 4.082-4.264 1.764-0.972 3.707-1.457 5.827-1.457 2.404 0 4.427 0.615 6.065 1.844 1.64 1.23 2.782 2.959 3.427 5.187l-3.132 0.741c-0.556-1.756-1.365-3.035-2.426-3.837-1.06-0.801-2.393-1.201-3.999-1.201-1.847 0-3.39 0.444-4.631 1.333-1.24 0.89-2.112 2.083-2.615 3.581a14.482 14.482 0 0 0-0.754 4.636c0 2.053 0.298 3.845 0.894 5.376 0.595 1.532 1.521 2.676 2.778 3.433a7.77 7.77 0 0 0 4.082 1.136c1.78 0 3.289-0.515 4.524-1.547 1.235-1.032 2.071-2.563 2.508-4.595z m10.763-3.235c0 2.907 0.792 5.197 2.376 6.87 1.583 1.674 3.57 2.51 5.958 2.51 2.435 0 4.437-0.845 6.01-2.535 1.572-1.689 2.358-4.086 2.358-7.19 0-1.964-0.336-3.678-1.008-5.142-0.673-1.465-1.656-2.6-2.95-3.406-1.295-0.807-2.748-1.21-4.36-1.21-2.289 0-4.258 0.776-5.908 2.329-1.65 1.552-2.476 4.144-2.476 7.774z m-3.334-0.049c0-4.004 1.09-7.139 3.268-9.404 2.178-2.265 4.989-3.399 8.434-3.399 2.255 0 4.29 0.533 6.1 1.597 1.812 1.065 3.192 2.549 4.143 4.451 0.95 1.903 1.425 4.062 1.425 6.475 0 2.447-0.5 4.635-1.5 6.566-1 1.93-2.418 3.392-4.251 4.385-1.834 0.993-3.812 1.49-5.934 1.49-2.3 0-4.356-0.549-6.167-1.646a10.646 10.646 0 0 1-4.118-4.493 13.479 13.479 0 0 1-1.4-6.022z m28.68 11.629v-24.432h4.767l5.665 17.3c0.522 1.61 0.903 2.816 1.143 3.615 0.272-0.888 0.696-2.193 1.273-3.916l5.73-16.999h4.261v24.432h-3.053v-20.448l-6.954 20.448h-2.856l-6.923-20.798v20.798h-3.052z m29.212 0v-24.432h4.766l5.665 17.3c0.523 1.61 0.904 2.816 1.144 3.615 0.27-0.888 0.696-2.193 1.272-3.916l5.73-16.999h4.262v24.432h-3.054v-20.448l-6.954 20.448h-2.856l-6.922-20.798v20.798h-3.053z m29.212 0v-24.432h17.497v2.883h-14.295v7.484h13.387v2.866h-13.387v8.316h14.856v2.883H793.39z m26.56-13.649h6.857c1.457 0 2.597-0.153 3.42-0.458 0.822-0.306 1.447-0.795 1.874-1.467a4.01 4.01 0 0 0 0.642-2.191c0-1.156-0.414-2.106-1.242-2.85-0.828-0.744-2.135-1.117-3.922-1.117h-7.63v8.083z m-3.19 13.649v-24.432h10.688c2.148 0 3.782 0.22 4.9 0.66 1.118 0.438 2.012 1.213 2.68 2.324 0.669 1.111 1.003 2.339 1.003 3.683 0 1.733-0.553 3.194-1.66 4.383-1.108 1.189-2.818 1.944-5.13 2.267 0.843 0.41 1.484 0.816 1.923 1.216 0.932 0.866 1.814 1.95 2.647 3.25l4.193 6.649h-4.012l-3.19-5.082c-0.932-1.468-1.7-2.59-2.303-3.367-0.602-0.777-1.141-1.322-1.619-1.633a4.768 4.768 0 0 0-1.455-0.651c-0.362-0.077-0.953-0.116-1.776-0.116h-3.7v10.849h-3.19z m42.495-8.345l3.18 0.807c-0.666 2.624-1.866 4.625-3.597 6.003-1.732 1.377-3.85 2.066-6.353 2.066-2.59 0-4.696-0.53-6.319-1.589-1.623-1.06-2.858-2.593-3.704-4.602-0.848-2.009-1.271-4.167-1.271-6.471 0-2.515 0.478-4.707 1.434-6.58 0.957-1.87 2.317-3.292 4.082-4.264 1.765-0.972 3.707-1.457 5.827-1.457 2.404 0 4.427 0.615 6.066 1.844 1.64 1.23 2.78 2.959 3.426 5.187l-3.131 0.741c-0.557-1.756-1.366-3.035-2.426-3.837-1.06-0.801-2.393-1.201-4-1.201-1.847 0-3.39 0.444-4.63 1.333-1.241 0.89-2.113 2.083-2.616 3.581a14.482 14.482 0 0 0-0.753 4.636c0 2.053 0.297 3.845 0.893 5.376 0.596 1.532 1.522 2.676 2.779 3.433a7.77 7.77 0 0 0 4.081 1.136c1.78 0 3.29-0.515 4.525-1.547 1.234-1.032 2.07-2.563 2.507-4.595z m9.023 8.345v-24.432h3.187v24.432h-3.187z m13.946-10.033h8.273l-2.547-6.766c-0.777-2.055-1.354-3.744-1.73-5.066a31.203 31.203 0 0 1-1.316 4.666l-2.68 7.166z m-7.041 10.033l9.371-24.432h3.48l9.987 24.432h-3.679l-2.846-7.399h-10.204l-2.68 7.399h-3.43z m26.556 0v-24.432h3.15v21.549h11.721v2.883h-14.871z m32.376-2.883h5.954c1.023 0 1.74-0.039 2.154-0.116 0.728-0.134 1.337-0.356 1.827-0.667 0.489-0.311 0.891-0.764 1.207-1.359 0.315-0.593 0.473-1.28 0.473-2.057 0-0.911-0.229-1.703-0.686-2.375-0.456-0.672-1.09-1.144-1.9-1.417-0.81-0.272-1.977-0.408-3.499-0.408h-5.53v8.399z m0-11.283h5.171c1.403 0 2.41-0.093 3.018-0.283 0.805-0.244 1.411-0.65 1.819-1.216 0.408-0.567 0.612-1.277 0.612-2.133 0-0.811-0.191-1.525-0.57-2.142a2.894 2.894 0 0 0-1.632-1.266c-0.708-0.228-1.92-0.342-3.638-0.342h-4.78v7.382z m-3.165 14.166v-24.432h8.972c1.828 0 3.293 0.248 4.397 0.742a5.694 5.694 0 0 1 2.593 2.284c0.626 1.027 0.939 2.102 0.939 3.224a5.62 5.62 0 0 1-0.833 2.95c-0.554 0.922-1.391 1.667-2.512 2.233 1.447 0.433 2.559 1.173 3.337 2.216 0.777 1.046 1.165 2.279 1.165 3.7a7.269 7.269 0 0 1-0.709 3.192c-0.473 0.983-1.057 1.741-1.754 2.274-0.696 0.534-1.568 0.937-2.618 1.21-1.05 0.272-2.335 0.407-3.858 0.407h-9.119z m27.755-10.033h8.273l-2.546-6.766c-0.778-2.055-1.355-3.744-1.732-5.066a31.202 31.202 0 0 1-1.315 4.666l-2.68 7.166z m-7.041 10.033l9.372-24.432h3.479l9.987 24.432h-3.678l-2.847-7.399h-10.203l-2.68 7.399h-3.43z m26.025 0v-24.432h3.294l12.747 19.182v-19.182h3.08v24.432h-3.295l-12.747-19.198v19.198h-3.08z m25.494 0v-24.432h3.23v12.116l12.123-12.116h4.38l-10.242 9.9 10.691 14.532h-4.263l-8.692-12.365-3.997 3.899v8.466h-3.23z" fill="#231916"></path><path d="M0 530.573v49.394s19.848-16.793 57.45-29.201c43.827-14.462 112.253-23.349 182.346 4.503 15.752 6.26 30.884 15.82 44.962 24.698 0 0 33.097-34.794 127.391-42.25v-7.144H0zM48.03 462.058l-0.013 12.81H18.708s-6.236-0.625-6.236 4.686c0 5.312 4.678 5.203 4.678 5.203h17.149s16.325-0.496 16.325 17.97c0 17.754-15.078 17.754-15.078 17.754H0v-12.81h30.868s6.549 0.626 6.549-5.623c0-6.248-6.237-5.623-6.237-5.623H16.214S0 497.362 0 480.179c0-17.184 14.655-18.12 14.655-18.12h33.376z m55.881 0v12.613H77.842c-6.276 0-9.413 6.448-9.413 16.598 0 16.753 10.437 16.512 10.437 16.512h25.045v12.614s-10.862 0.194-27.276 0-25.785-17.729-21.965-37.508c3.82-19.778 21-20.829 21-20.829h28.241z m38.76 22.038s4.575 0 4.575-4.591c0-4.593-4.575-5.076-4.575-5.076h-16.853v9.667h16.853z m0 23.481s4.575 0 4.575-4.592-4.575-5.075-4.575-5.075h-16.853v9.667h16.853z m13.723-16.35s3.431 3.19 4.13 9.214c0.763 6.583-1.24 17.732-14 20.04h-35.152v-58.423h35.151s6.193 0.484 10.353 5.362c4.363 5.117 6.545 14.837-0.482 23.807z" fill="#E50113"></path><path d="M211.194 506.321c8.449-8.034 3.38-29.213-6.757-32.378-7.89-2.463-16.806 3.773-20.372 6.66l-0.497 22.313c6.05 9.267 19.704 10.937 27.626 3.405z m2.172-41.629c19.073 7.06 18.832 42.847 3.864 52.584-4.882 3.177-13.535 4.926-18.831 4.03-6.948-1.176-12.173-5.13-15.066-7.861l-0.144 6.508h-11.106V444h12.389l-0.164 25.663c3.534-3.212 13.83-10.607 29.058-4.97z m32.284 45.936c6.36 4.752 16.272-0.805 20.796-3.852-0.234-3.734-0.009-7.756 0.278-11.646-23.182-1.51-29.26 9.383-21.074 15.498z m33.1-4.13c0 5.344 4.833 7.775 4.833 7.775l-9.906 6.927c-2.691-1.353-4.438-3.539-5.555-6.228-2.646 2.408-7.552 5.523-15.949 6.732-26.566 3.821-26.819-22.981-14.98-30.28 8.606-5.306 25.044-5.293 30.117-5.152 0.13-3.742-0.06-6.914-1.123-8.931-6.524-12.392-30.201-0.73-30.201-0.73l-3.142-9.232c49.024-18.699 46.632 14.335 46.632 14.335s-0.725 19.438-0.725 24.783z m46.698-43.967c15.665 2.476 17.352 13.899 17.352 20.948v36.457h-13.014v-33.394s0.723-13.758-10.363-14c-8.72-0.192-14.304 4.877-17.116 9.18 0.352 14.61 0.968 38.214 0.968 38.214h-13.738v-50.797l-1.686-4.375h11.086s2.783 2.377 3.1 5.298c3.127-3.035 11.332-9.44 23.41-7.531z m85.64 57.405h-18.354l-27.29-25.933v25.933h-13.04V444h13.04v46.648l26.323-25.96h16.18l-26.988 26.617 30.128 28.63z" fill="#231916"></path></svg>