<svg viewBox="0 0 1024 1024" version="1.1" xmlns="http://www.w3.org/2000/svg"><path d="M224 0h576c123.6 0 224 100.4 224 224v576c0 123.6-100.4 224-224 224H224c-123.6 0-224-100.4-224-224V224C0 100.4 100.4 0 224 0z" fill="#FFFFFF"></path><path d="M76 552v104s42-35.2 121.6-61.6c92.8-30.4 237.6-49.2 385.6 9.6 33.2 13.2 65.2 33.2 95.2 52 0 0 70-73.2 269.6-88.8V552H76zM177.6 404v28H115.6s-13.2-1.2-13.2 10.4 10 11.2 10 11.2h36.4s34.4-1.2 34.4 39.2c0 38.8-32 38.8-32 38.8H76v-28h65.2s14 1.2 14-12.4-13.2-12.4-13.2-12.4h-31.6s-34.4 2-34.4-35.6 30.8-39.2 30.8-39.2h70.8z m118 0v27.6H240.4c-13.2 0-20 14-20 36.4 0 36.8 22 36 22 36h52.8v28s-22.8 0.4-57.6 0-54.4-38.8-46.4-82C199.6 406.4 236 404 236 404h59.6z m82 48.4s9.6 0 9.6-10-9.6-11.2-9.6-11.2h-35.6v21.2h35.6z m0 51.2s9.6 0 9.6-10-9.6-11.2-9.6-11.2h-35.6v21.2h35.6z m28.8-35.6s7.2 6.8 8.8 20c1.6 14.4-2.8 38.8-29.6 44H311.2v-128h74.4s13.2 1.2 22 11.6c9.2 11.2 13.6 32.8-1.2 52.4z" fill="#E50113"></path><path d="M522.4 502c18-17.2 7.2-62.8-14.4-69.6-16.8-5.2-35.6 8-42.8 14.4l-1.2 48c12.8 20 41.6 23.6 58.4 7.2z m4.8-89.6c40.4 15.2 39.6 92 8 113.2-10.4 6.8-28.4 10.4-39.6 8.8-14.8-2.4-25.6-11.2-31.6-16.8l-0.4 14H440V368h26l-0.4 55.2c7.6-6.8 29.2-22.8 61.6-10.8z m68 98.8c13.6 10.4 34.4-1.6 44-8.4-0.4-8 0-16.8 0.4-25.2-48.8-2.8-61.6 20.8-44.4 33.6z m69.6-8.8c0 11.6 10 16.8 10 16.8l-20.8 14.8c-5.6-2.8-9.2-7.6-11.6-13.6-5.6 5.2-16 12-33.6 14.4-56 8.4-56.4-49.6-31.6-65.2 18-11.6 52.8-11.2 63.6-11.2 0.4-8 0-14.8-2.4-19.2-13.6-26.8-63.6-1.6-63.6-1.6l-6.8-20c103.2-40.4 98.4 30.8 98.4 30.8s-1.6 42.4-1.6 54z m98.8-94.4c33.2 5.2 36.4 30 36.4 45.2v78.4h-27.6v-72s1.6-29.6-22-30c-18.4-0.4-30 10.4-36 19.6 0.8 31.6 2 82.4 2 82.4h-28.8v-109.6l-3.6-9.6h23.2s6 5.2 6.4 11.2c7.2-6 24.4-20 50-15.6z m180.4 123.2h-38.8l-57.6-56v56H820V368h27.6v100.4l55.6-56h34l-56.8 57.2 63.6 61.6z" fill="#231916"></path></svg>