<svg viewBox="0 0 1024 1024" version="1.1" xmlns="http://www.w3.org/2000/svg"><path d="M129.2 570.4c1.7 3.1 3.8 5.9 6.2 8.4 4 4.1 8.8 7 14.1 8.9-3 16.5-17.1 28.4-33.6 28.4-12.3 0-23.6-6.7-29.7-17.6l-1.1-2.2c-2.2-4.7-3.3-9.7-3.3-14.9 0-3.2 0.4-6.4 1.3-9.4 6.7 2.4 13.8 3.6 20.9 3.6 8.7 0.1 17.2-1.6 25.2-5.2z m-83-31c7 14.5 19.1 25.7 34.1 31.7-1 3.4-1.5 6.9-1.5 10.4 0 5.7 1.3 11.2 3.8 16.3-13.7 9.5-32.1 7.9-43.9-4-6.5-6.5-10.1-15.2-10.1-24.4 0-3.1 0.4-6.2 1.2-9.2l0.7-2.3c1.7-4.9 4.4-9.2 8.1-12.9 2.3-2.2 4.8-4.1 7.6-5.6z m144.6-6.5c4.1 5.9 6.2 12.8 6.2 19.6 0 8.9-3.4 17.6-10.1 24.3-8.7 8.7-21.6 12.1-33.6 8.8l-2.3-0.7c-4.9-1.7-9.2-4.4-12.9-8.1-2.2-2.2-4.1-4.8-5.7-7.5 14.5-7 25.7-19.1 31.7-34.1 3.4 1 6.9 1.5 10.4 1.5 5.7-0.1 11.2-1.4 16.3-3.8zM104 450.4c33.9 0 61.3 27.4 61.3 61.3 0 9-1.9 17.5-5.4 25.1L148 526.1c1.5-4.5 2.3-9.4 2.3-14.4 0-25.6-20.8-46.4-46.4-46.4s-46.4 20.8-46.4 46.4c0 25.6 20.8 46.4 46.4 46.4 3.9 0 7.7-0.5 11.3-1.4l12.6 11.5c-7.3 3.1-15.4 4.8-23.9 4.8-33.9 0-61.3-27.4-61.3-61.3s27.5-61.3 61.4-61.3z m40.9 82.5l11.4 10.4c-5.3 8.9-12.8 16.3-21.7 21.5L122.8 554c9.5-4.4 17.3-11.8 22.1-21.1zM34.6 489.5c3.2 0 6.4 0.4 9.4 1.3-2.4 6.7-3.6 13.8-3.6 20.9 0 8.8 1.8 17.3 5.3 25.3-3.1 1.7-5.9 3.8-8.4 6.2-4.1 4-7.1 8.8-8.9 14.1-16.5-2.9-28.4-17-28.4-33.6 0-12.2 6.7-23.6 17.5-29.7l2.2-1.1c4.7-2.2 9.7-3.4 14.9-3.4z m57.8-2.3c0-3 2.6-2.6 2.6-2.6h28.3c7.5 0 7.8 6.7 7.8 7.7v39.1c0 7.3-7.1 7.5-7.5 7.5H79.4c-3 0-2.6-2.6-2.6-2.6s0.2-28.2 0.2-33v-0.5c0-2.9 2.4-2.4 2.4-2.4H90c3.7 0 2.8 2.8 2.8 2.8v17.4c0 2.5 2.1 2.1 2.1 2.1h17.6c2.9 0 2.3-2.3 2.3-2.3v-17.3c0-2.2-2.4-2.4-2.4-2.4H94.2c-1.8 0-1.8-1.8-1.8-1.8v-11.7z m87.6-21.4c16.5 2.9 28.4 17.1 28.4 33.6 0 12.3-6.7 23.6-17.6 29.7l-2.2 1.1c-4.7 2.2-9.7 3.3-14.9 3.3-3.2 0-6.4-0.4-9.4-1.3 2.4-6.7 3.6-13.8 3.6-20.9 0-8.8-1.8-17.3-5.3-25.3 3.1-1.7 5.9-3.8 8.4-6.2 4.1-3.9 7.1-8.6 9-14zM21.6 446.5c8.7-8.7 21.6-12.1 33.6-8.8l2.3 0.7c4.9 1.7 9.2 4.4 12.9 8.1 2.2 2.2 4.1 4.8 5.7 7.5-14.5 7-25.7 19.1-31.7 34.1-3.4-1-6.9-1.5-10.4-1.5-5.7 0-11.2 1.3-16.3 3.8-4.1-5.9-6.2-12.8-6.2-19.6-0.1-8.9 3.4-17.7 10.1-24.3z m104.3-21.1c13.7-9.5 32.1-7.9 43.9 4 6.5 6.5 10 15.4 10 24.4 0 3.1-0.4 6.1-1.2 9.2l-0.7 2.3c-1.7 4.9-4.4 9.2-8.1 12.9-2.2 2.2-4.8 4.1-7.5 5.7-7-14.5-19.1-25.7-34.1-31.7 1-3.4 1.5-6.9 1.5-10.4-0.1-5.8-1.4-11.3-3.8-16.4zM92.5 407c12.3 0 23.6 6.7 29.7 17.6l1.1 2.2c2.2 4.7 3.3 9.7 3.3 14.9 0 3.2-0.4 6.4-1.3 9.4-6.7-2.4-13.8-3.6-20.9-3.6-8.8 0-17.3 1.8-25.3 5.3-1.7-3.1-3.8-5.9-6.2-8.4-4-4.1-8.8-7-14.1-8.9 3-16.6 17.1-28.5 33.7-28.5z" fill="#F29700"></path><path d="M642.3 429.1c2.9 4.4 4.6 7 5.1 7.9l2.2 4-2.7 1.6h24.7l13.2-0.3v11l-13.1-0.3h-9l2.7 1.9c-2.5 3.8-4.2 6.4-5 7.6h9.5l10.8-0.4-0.3 11.4v43.6c0 1.7-0.2 3-0.7 3.8-0.4 0.8-1.4 1.6-3 2.5-1.6 0.8-3.1 1.4-4.7 1.7-1.6 0.3-4.6 0.5-9 0.6-0.1-1.3-0.3-2.6-0.5-4s-0.5-2.9-1-4.6l-1.3-4.4c3.5 0.4 5.6 0.5 6.3 0.3 1-0.1 1.5-0.4 1.8-0.7 0.2-0.3 0.3-1.2 0.3-2.7v-24.5c-1.9 2.3-3 3.7-3.3 4.3L663 493l-3.5-3.1-0.2 6.6v10.7l0.2 8.8-6.5-0.2h-21.8l-8.1 0.2 0.2-8v-11l-0.2-7.6c-1.4 1.1-2.8 2-4.4 2.9-1.2-2.3-1.9-3.7-2.2-4.1l-2.6-4.1v25.5l0.4 14.2h-13l0.3-13.6v-39.3l-0.3-9 10.1 0.4h10.1c-2.1-3.8-3.3-5.8-3.5-6.1l-1.3-1.6 2.5-1.7H609l-12.3 0.3v-11l12.3 0.3h27.6c-1.4-2.5-2.4-4.2-2.9-4.9l-2.3-3.3c4.6-2 8.2-3.7 10.9-5.2z m381.7 33v11.7l-8.6-0.3h-8.7V518c0 1.2-0.3 2.3-0.8 3.3s-2.3 1.7-5.3 2.3c-3 0.6-5.1 0.9-6.1 1-1 0.1-2.9 0.2-5.7 0.1-0.1-1.2-0.3-2.5-0.5-3.9s-0.6-2.9-1.1-4.3l-1.6-4.7c3.5 0.5 5.6 0.7 6.4 0.6 1.3-0.1 2.1-0.5 2.6-1.1 0.4-0.6 0.6-1.5 0.6-2.8v-35.1h-17.4l-9.2 0.3v-11.6l8.7 0.3h38.3l8.4-0.3z m-591.3-6.4c-0.4 3.7-0.5 5.9-0.5 6.6l-0.2 7h18.9l8.6-0.3v11.8l-8.6-0.4h-18c0.7 2.6 1.8 6.1 3.3 10.5 1.6 4.4 4.9 8.5 10.1 12.2 5.2 3.7 8.8 6 10.8 6.8 2 0.8 4.4 1.6 7.1 2.4-1.1 1.5-2 2.9-2.9 4.3-0.9 1.4-2.1 4-3.6 7.8-2.8-1.4-5.9-3-9.4-4.9-3.5-1.9-6.9-4.5-10.4-7.8s-6.2-6.7-8.1-10.2l-2.5-4.4c-1.1 2.5-2.4 5-3.8 7.6-1.4 2.6-3.8 5.3-7.2 8.1-3.4 2.8-6.4 5-9 6.5-2.6 1.5-6.4 3.2-11.2 5.3-1.8-3.8-3.4-6.6-4.8-8.4l-2.4-3.1c3.8-0.7 7.6-1.9 11.5-3.4 3.9-1.6 7.1-3.7 9.7-6.5 2.6-2.8 4.6-5.8 6-8.9 1.4-3.1 2.3-5.9 2.6-8.1l0.8-5.8h-14.8l-9.1 0.4V469l9.1 0.3h15.5c0-3.9-0.1-6.2-0.1-7.1l-0.5-6.4c1.8 0.2 3.6 0.3 5.1 0.4 1.6 0.1 4.3-0.1 8-0.5z m473.5-23.4l-0.2 8.5v33l0.2 6.7-5.9-0.2h-9.2c0.2 1.5 0.3 2.9 0.5 4 0.2 1.2 0.4 2.1 0.7 2.9l1.2 3.4c2.4-1.8 4.5-3.3 6.2-4.7 1.7-1.4 3.6-3.1 5.7-5.3 1.9 3.2 3.3 5.1 4.2 5.7l3.2 2.5c-3.6 3-8.6 6.8-15 11.2 1.1 1.7 2.2 3.3 3.5 5 1.3 1.7 2.9 3.3 5 4.9 2.1 1.5 4.5 2.9 7.2 4-0.9 1.2-2.2 2.9-3.8 5.1-1.6 2.2-2.9 4-3.9 5.5-2-1.5-4.7-3.6-8.1-6.4-3.4-2.8-6.7-7.4-10-13.8-3.2-6.4-5.4-12.4-6.3-17.8l-1.2-6.2h-7.8V506c4.5-2.9 8.5-5.8 11.9-8.6v8.6l0.5 3.5c-8.1 5.7-14.6 10.8-19.6 15.3-1.4-4-2.6-6.6-3.3-7.9l-2.3-3.9c1-0.8 1.6-1.5 2-2.1 0.3-0.6 0.5-1.5 0.5-2.7v-68.1l-0.3-7.8 8.1 0.2h27.6l8.7-0.2z m-486.5-4.1c1.4 2.1 4.3 6.1 8.4 12-1.2 0.7-2.3 1.4-3.5 2h26.7l9.7-0.3v11.6l-9.8-0.4h-58.5v16.5c0 6.3-0.1 12.3-0.4 17.9-0.3 5.6-1 10.4-2 14.3-1 3.9-2.3 7.4-3.7 10.4-1.5 3-2.9 5.4-4.3 7.3l-3.7 5.2c-2.1-3.1-4-5.4-5.7-6.9l-3.6-3.2c2.6-2.2 4.5-4.1 5.7-5.9s2.3-4.2 3.4-7.5c1-3.2 1.7-6.6 2.1-10.1 0.4-3.5 0.6-8.1 0.6-13.8 0-12.4 0-20.9-0.2-25.4l-0.4-10 11.3 0.3h23.6c-1.4-2.7-2.4-4.4-3.1-5.2l-2.7-3.1c4.1-1.6 6.9-3 8.3-4.2l1.8-1.5z m106.9 0.9c1.6 1.5 3.8 3.6 6.7 6.2 2.9 2.6 4.9 4.5 6.1 5.6-2 1.8-4.1 3.8-6.3 5.8h31.3l10.2-0.3v11.5l-10.2-0.4h-29.1v10h22.2l8.3-0.3-0.3 9.9v29.8c0 1.7-0.1 2.9-0.3 3.7-0.2 0.7-1.1 1.8-2.6 3.3-1.6 1.5-6.8 2.6-15.6 3.2-0.1-1-0.3-2.3-0.5-3.8-0.2-1.6-0.8-3.2-1.8-5.1l-2-3.9c4.1 0.4 6.6 0.6 7.4 0.6 1.7 0 2.6-0.3 2.7-0.7 0.2-0.4 0.2-1 0.2-1.7V478h-17.6v34.9l0.4 11.8h-13.2l0.3-11.8V478h-16.8v30.5l0.2 7.3h-12.6l0.3-11.2v-27.8l-0.3-9.7 8.6 0.3H523v-10h-27.3l-11.6 0.4v-11.5l11.6 0.3h31.2c-2.3-2.8-4-4.7-5.4-5.7l-4.9-3.9c4.6-2.6 7.4-4.6 8.6-6l1.4-1.9z m432.3 21.5c4.4 3.6 7.1 5.7 8.1 6.3l2.6 1.6c-4.3 5.4-8.4 10.4-12.3 15.1v42.6l0.3 8.5h-11.9l0.4-8.7v-30.7c-3.1 3-6.4 5.9-9.7 8.8-0.5-1.5-1-3-1.6-4.5-0.6-1.5-1.9-4.1-4-7.8 6.1-3.6 11.6-8.3 16.5-14 4.9-5.8 8-10 9.3-12.8l2.3-4.4z m-660.8-19.1c6.2 0.5 9.5 0.8 9.9 0.7h3.9c-0.2 4.2-0.2 6.5-0.2 7l-0.4 15.3H337l12.1-0.3v11.9l-12.1-0.2h-25.8c0.1 2.2 0.2 3.9 0.4 5.2 0.2 1.3 0.8 3.4 1.8 6.1 1 2.8 2.3 5.6 3.9 8.5 1.6 2.9 4.6 6.8 9 11.7 4.4 4.9 8.7 8.1 12.9 9.6 4.2 1.4 8.2 2.6 12.1 3.5-0.8 1.2-1.5 2.4-2.2 3.8-0.7 1.4-1.5 3.3-2.2 5.9l-1.1 3.6c-2.6-1-6.3-2.5-11.3-4.7-5-2.2-10-5.9-15.1-11.2-5.1-5.3-8.2-9.1-9.4-11.5l-3.9-7.1c-1.2 2.7-2.5 5.3-3.8 7.7-1.4 2.5-3.8 5.5-7.3 8.9-3.5 3.5-8.1 6.7-13.7 9.8-5.6 3-10.5 5.4-14.7 7.2-0.5-1.2-1-2.4-1.6-3.7-0.6-1.3-2.6-4.2-5.9-8.6 5-1.2 10.3-3 16-5.4 5.7-2.4 10.2-5.9 13.4-10.4 3.3-4.5 5.5-8.5 6.7-12 1.2-3.5 1.9-7 2.2-10.5l0.5-6.6c-13-0.4-21.4-0.5-25.2-0.4l-11.7 0.6v-11.6l12.2 0.3h25c0.1-6.6 0.1-10.7 0-12.1l-0.1-11z m533.3-2.4c3.7 1.3 6.1 2.1 7.4 2.2l4.6 0.7c-0.7 2.2-1.1 3.5-1.2 3.9l-1.5 4.3h10.9l7.7-0.2v10.7l-6.4-0.2h-16.5c-1.4 2.9-2.9 5.8-4.6 8.8H852l6-0.2v10.6l-6-0.2h-7v9.1h6.9l7.3-0.2v11.2l-7.1-0.2H845v14.7c4.3-2.5 7.2-4.4 8.6-5.6l3.9-3c-0.1 2.1-0.2 4.2-0.3 6.1-0.1 2-0.1 3.3 0 3.9l0.3 3.2c-8.7 5.5-15.8 10.4-21.3 14.7-0.4-1.5-0.8-3-1.2-4.6-0.5-1.6-1-3.1-1.7-4.5l-2-4.3c1-0.6 1.7-1.3 2.2-1.9 0.5-0.6 0.7-1.7 0.7-3.1v-15.8h-6.4l-7.8 0.2v-11.1l8.8 0.2h5.3v-9.1h-2.9l-4.8 0.2v-2.4c-1.6 2-3.3 3.8-5 5.5-0.3-1.3-0.6-2.5-0.8-3.5-0.2-1-1.3-4.5-3.3-10.5 0.9-0.7 2.1-1.7 3.6-3s3.2-4.1 5.2-8.6c2-4.4 3.5-9.1 4.4-13.9l0.9-4.1z m-82.5 4.1l-0.3 12.2v60.9h8.5v-60.8l-0.3-12.2H770l-0.3 12.2v42.9l2.7-5.4c0.7-1.4 1.6-3.8 2.9-7 1.3-3.2 2.5-6.9 3.8-11 1.2-4.1 2.2-7.8 2.8-11l1.3-6.7c3.4 1.1 7.8 2.2 13.1 3.4-1.4 5.4-2.7 9.8-3.8 13.3-1.1 3.4-2.5 7.3-4.2 11.7-1.7 4.4-3.2 8.1-4.5 10.9-1.3 2.9-3.3 7-6.1 12.5-2.5-2.1-5.1-4-8-5.8v12.9h17l11.9-0.4v12.3l-11.9-0.3h-68.4l-10.4 0.3v-12.3l10.4 0.4h17.9v-16.8c-4 1.7-6.6 2.9-7.9 3.8l-3.5 2.2c-3-10.7-5.4-18.7-7.1-24-1.7-5.3-3.1-9.3-4.2-12.2l-3.2-8.1c4.1-1.2 6.9-2.3 8.4-3.1l3.3-1.8c0.9 2.6 2.4 6.7 4.5 12.3 2.1 5.6 3.4 9.3 4 11l2.7 8.2c1.3 4 2.1 6.4 2.2 7.1l0.8 3.4v-42.8l-0.3-12.2h13z m-100.2 64.4H633v8.6h15.7v-8.6z m1.2-25.3h-18.2c2 1.6 4.1 3.2 6.5 4.5-1.5 1.5-2.9 2.9-4.2 4.1-1.3 1.2-4.1 3.5-8.3 6.7l6.6 0.2h18.8l5.6-0.2c-1.1-1-1.9-1.7-2.6-2.3-0.7-0.6-4.2-3.1-10.7-7.6 2.2-1.5 4.4-3.3 6.5-5.4z m18.8 0h-15.1c8 5.5 12.1 8.3 12.3 8.5l2.7 2.1v-10.6z m-41.6 0h-13.2v10c2.6-1.2 4.9-2.4 6.7-3.6 1.8-1.2 3.1-2.3 3.9-3.4l2.6-3zM895.2 462h-22.7v8.8h22.7V462z m-242.3-9.2h-24.1c1.4 2.3 2.9 4.7 4.4 7.1-1.3 0.8-2.6 1.6-3.8 2.4h21.3c-0.9-0.6-1.9-1.3-2.9-2 1.4-1.8 2.1-2.8 2.4-3.2l2.7-4.3z m305.4-22.9c1.3 1.6 2.5 3 3.6 4.2 1.1 1.2 2.9 2.8 5.4 4.8-6.7 5.4-11.9 9.4-15.5 12.1s-7.8 5.5-12.5 8.4c-2.2-3.9-4.5-7.5-6.8-10.8 4.8-2 9.3-4.5 13.6-7.6 4.3-3.1 7.5-5.7 9.5-8.1l2.7-3z m-63.1 13.2h-22.7v8.8h22.7v-8.8z m124.4-8.5v11.7l-8.4-0.4h-30.3l-7.8 0.4v-11.7l8 0.3h30.3l8.2-0.3zM373.3 562.3c1.5 0 2.8 0.3 3.9 1s2.1 1.6 2.9 3v-3.4h5.6V595h-6v-11.8c-0.8 1-1.8 1.9-2.9 2.5-1.2 0.6-2.4 0.9-3.8 0.9-2.6 0-4.7-1-6.4-3-2-2.3-3-5.5-3-9.4 0-3.7 0.9-6.7 2.8-8.7 1.9-2.2 4.2-3.2 6.9-3.2z m71 0c2.8 0 5.1 1.2 6.9 3.7v-3.2h5.6v20.5c0 2.7-0.2 4.7-0.7 6.1-0.4 1.3-1.1 2.4-1.9 3.1-0.8 0.8-1.9 1.4-3.2 1.8-1.3 0.4-3 0.6-5 0.6-3.8 0-6.6-0.7-8.2-2-1.6-1.3-2.4-3-2.4-5.1v-0.7l6.8 0.8c0.1 0.8 0.4 1.4 0.8 1.7 0.6 0.4 1.5 0.7 2.7 0.7 1.6 0 2.7-0.2 3.5-0.7 0.5-0.3 0.9-0.8 1.2-1.5 0.2-0.5 0.3-1.4 0.3-2.8v-3.4c-1.8 2.5-4.1 3.7-6.8 3.7-3 0-5.5-1.3-7.2-3.9-1.4-2.1-2.1-4.6-2.1-7.7 0-3.8 0.9-6.8 2.7-8.8 2-1.9 4.3-2.9 7-2.9z m100.8 0l5.5 16.5 5.4-16.5h6.3l-8.1 22.3-1.5 4.1c-0.5 1.4-1 2.4-1.5 3.1-0.5 0.7-1 1.3-1.7 1.7-0.6 0.4-1.4 0.8-2.3 1-0.9 0.2-2 0.4-3.1 0.4-1.2 0-2.3-0.1-3.5-0.4l-0.6-4.8c1 0.2 1.8 0.3 2.6 0.3 1.4 0 2.5-0.4 3.2-1.3 0.7-0.8 1.2-1.9 1.6-3.2l-8.8-23.3h6.5z m-12.9-7.4v8.2h4.3v4.9h-4.3v9.3c0 1.9 0 3 0.1 3.3 0.1 0.3 0.3 0.6 0.6 0.8 0.3 0.2 0.6 0.3 1 0.3 0.6 0 1.4-0.2 2.5-0.6l0.5 4.7c-1.4 0.6-3.1 0.9-4.9 0.9-1.1 0-2.1-0.2-3-0.6-0.9-0.4-1.6-0.8-2-1.4-0.4-0.6-0.7-1.4-0.9-2.4-0.1-0.7-0.2-2-0.2-4v-10.4H523V563h2.9v-4.6l6.3-3.5z m426.8-0.8V571l7.2-8.1h7.5l-7.9 8.4 8.4 14.7h-6.6l-5.8-10.4-2.8 3v7.4h-6.1v-31.9h6.1z m-642.3 0c2.7 0 4.7 0.2 6.1 0.6 1.9 0.6 3.5 1.5 4.8 2.9 1.3 1.4 2.4 3.1 3.1 5.2 0.7 2 1.1 4.5 1.1 7.5 0 2.6-0.3 4.9-1 6.8-0.8 2.3-2 4.2-3.4 5.6-1.1 1.1-2.6 1.9-4.6 2.5-1.4 0.4-3.3 0.7-5.7 0.7h-12.2V554h11.8z m485.8 8.8V586h-5.7v-23.1h5.7z m-176.9-0.6c3.5 0 6.3 1.1 8.5 3.3 2.2 2.2 3.3 5 3.3 8.4 0 3.4-1.1 6.3-3.4 8.5-2.2 2.3-5.1 3.4-8.5 3.4-2.1 0-4.1-0.5-6-1.4-1.9-0.9-3.4-2.3-4.4-4.1-1-1.8-1.5-4-1.5-6.6 0-2 0.5-3.9 1.5-5.8s2.4-3.3 4.2-4.3c2-0.9 4-1.4 6.3-1.4z m-205.2 0c1.4 0 2.6 0.2 3.7 0.7 1.1 0.5 2 1.1 2.6 1.9 0.6 0.8 1 1.6 1.2 2.6 0.2 1 0.3 2.3 0.3 4.1V586H422v-11.8c0-2.5-0.1-4.1-0.4-4.9-0.3-0.7-0.7-1.3-1.3-1.7-0.6-0.4-1.3-0.6-2.1-0.6-1.1 0-2 0.3-2.9 0.9-0.8 0.6-1.4 1.4-1.7 2.3-0.3 1-0.5 2.7-0.5 5.3V586H407v-23.2h5.8v3.4c2-2.6 4.5-3.9 7.6-3.9z m96.9 0.6V586h-5.7v-23.1h5.7z m420.4-0.6c1.4 0 2.6 0.2 3.7 0.7 1.1 0.5 2 1.1 2.6 1.9 0.6 0.8 1 1.6 1.2 2.6 0.2 1 0.3 2.3 0.3 4.1V586h-6.2v-11.8c0-2.5-0.1-4.1-0.4-4.9-0.3-0.7-0.7-1.3-1.3-1.7-0.6-0.4-1.3-0.6-2.1-0.6-1.1 0-2 0.3-2.9 0.9-0.9 0.6-1.4 1.4-1.7 2.3-0.3 1-0.5 2.7-0.5 5.3V586h-6.2v-23.2h5.8v3.4c2.1-2.6 4.6-3.9 7.7-3.9z m-118.2 0c2.7 0 4.7 0.3 6 1 1.3 0.6 2.2 1.4 2.8 2.4 0.5 1 0.8 2.8 0.8 5.4l-0.1 7c0 2 0.1 3.5 0.3 4.4 0.2 0.9 0.6 2 1.1 3h-5.9c-0.2-0.4-0.3-1-0.6-1.8-0.1-0.4-0.2-0.6-0.2-0.7-1 1-2.1 1.7-3.3 2.2-1.2 0.5-2.4 0.7-3.7 0.7-2.3 0-4.2-0.6-5.5-1.9-1.3-1.3-2-2.9-2-4.8 0-1.3 0.3-2.4 0.9-3.4 0.6-1 1.5-1.8 2.6-2.3 1.1-0.5 2.7-1 4.8-1.4 2.8-0.5 4.7-1 5.8-1.5v-0.6c0-1.2-0.3-2-0.9-2.5-0.6-0.5-1.6-0.7-3.2-0.7-1.1 0-1.9 0.2-2.5 0.6-0.6 0.4-1.1 1.2-1.4 2.2l-5.4-1c0.6-2.2 1.7-3.8 3.2-4.9 1.3-0.9 3.5-1.4 6.4-1.4z m-149.5 0c1.7 0 3.1 0.3 4.2 1 1.2 0.7 2 1.7 2.6 3 0.4 1 0.6 2.6 0.6 4.8V586h-6v-13.2c0-2.3-0.2-3.8-0.6-4.4-0.6-0.9-1.4-1.3-2.6-1.3-0.8 0-1.6 0.3-2.4 0.8-0.7 0.5-1.3 1.3-1.6 2.3-0.3 1-0.5 2.6-0.5 4.8v11h-6v-12.7c0-2.3-0.1-3.7-0.3-4.4-0.2-0.7-0.5-1.1-1-1.5-0.5-0.3-1.1-0.5-1.8-0.5-0.9 0-1.8 0.3-2.5 0.8s-1.3 1.2-1.6 2.2c-0.3 1-0.5 2.5-0.5 4.8V586h-6v-23.2h5.6v3.2c2-2.4 4.4-3.7 7.1-3.7 1.5 0 2.7 0.3 3.8 0.9 1.1 0.6 2 1.5 2.6 2.8 1-1.2 2.1-2.2 3.2-2.8 1.2-0.6 2.4-0.9 3.7-0.9z m-177.8-9c3.9 0 7.1 1.1 9.5 3.4 1.4 1.3 2.5 3.3 3.3 5.8l-6.3 1.5c-0.4-1.6-1.2-2.9-2.4-3.9-1.2-0.9-2.7-1.4-4.4-1.4-2.4 0-4.3 0.8-5.8 2.5s-2.2 4.4-2.2 8.2c0 4 0.7 6.9 2.2 8.6 1.5 1.7 3.3 2.5 5.7 2.5 1.7 0 3.2-0.5 4.4-1.6 1.2-1.1 2.1-2.8 2.7-5.1l6.2 1.9c-1 3.5-2.5 6.1-4.8 7.7-2.2 1.7-5.1 2.5-8.5 2.5-4.2 0-7.7-1.4-10.4-4.3s-4.1-6.8-4.1-11.8c0-5.3 1.4-9.3 4.1-12.3 2.7-2.8 6.3-4.2 10.8-4.2z m350.4 0.8V586h-5.7v-31.9h5.7z m64.4 8.2c2.7 0 4.7 0.3 6 1 1.3 0.6 2.2 1.4 2.8 2.4 0.5 1 0.8 2.8 0.8 5.4l-0.1 7c0 2 0.1 3.5 0.3 4.4 0.2 0.9 0.6 2 1.1 3H912c-0.2-0.4-0.3-1-0.6-1.8-0.1-0.4-0.2-0.6-0.2-0.7-1 1-2.1 1.7-3.3 2.2-1.2 0.5-2.4 0.7-3.7 0.7-2.3 0-4.2-0.6-5.5-1.9-1.3-1.3-2-2.9-2-4.8 0-1.3 0.3-2.4 0.9-3.4 0.6-1 1.5-1.8 2.6-2.3 1.1-0.5 2.7-1 4.8-1.4 2.8-0.5 4.7-1 5.8-1.5v-0.6c0-1.2-0.3-2-0.9-2.5-0.6-0.5-1.6-0.7-3.2-0.7-1.1 0-1.9 0.2-2.5 0.6-0.6 0.4-1.1 1.2-1.4 2.2l-5.4-1c0.6-2.2 1.7-3.8 3.2-4.9 1.2-0.9 3.4-1.4 6.4-1.4z m-126.6 0c2.8 0 5.1 0.6 6.8 1.8 1.7 1.2 2.9 3 3.6 5.4l-6.1 1.1c-0.2-1.2-0.7-2-1.4-2.6-0.7-0.6-1.7-0.9-2.8-0.9-1.6 0-2.8 0.5-3.7 1.5-0.9 1-1.4 2.8-1.4 5.2 0 2.7 0.5 4.6 1.4 5.7 0.9 1.1 2.2 1.7 3.8 1.7 1.2 0 2.1-0.3 2.9-1 0.8-0.7 1.3-1.8 1.6-3.4l6.1 1c-0.6 2.7-1.8 4.8-3.6 6.2-1.8 1.4-4.2 2.1-7.2 2.1-3.4 0-6.1-1-8.2-3.1-2-2.1-3-5-3-8.7 0-3.7 1-6.7 3.1-8.7 1.8-2.3 4.6-3.3 8.1-3.3z m-381.6 0.6V586h-5.7v-23.1h5.7z m-51.7-0.6c2.7 0 4.7 0.3 6 1 1.3 0.6 2.2 1.4 2.8 2.4 0.5 1 0.8 2.8 0.8 5.4l-0.1 7c0 2 0.1 3.5 0.3 4.4 0.2 0.9 0.6 2 1.1 3h-6c-0.2-0.4-0.3-1-0.6-1.8-0.1-0.4-0.2-0.6-0.2-0.7-1 1-2.1 1.7-3.3 2.2-1.2 0.5-2.4 0.7-3.7 0.7-2.3 0-4.2-0.6-5.5-1.9-1.3-1.3-2-2.9-2-4.8 0-1.3 0.3-2.4 0.9-3.4 0.6-1 1.5-1.8 2.6-2.3 1.1-0.5 2.7-1 4.8-1.4 2.8-0.5 4.7-1 5.8-1.5v-0.6c0-1.2-0.3-2-0.9-2.5-0.6-0.5-1.6-0.7-3.2-0.7-1.1 0-1.9 0.2-2.5 0.6-0.6 0.4-1.1 1.2-1.4 2.2l-5.4-1c0.6-2.2 1.7-3.8 3.2-4.9 1.4-0.9 3.6-1.4 6.5-1.4z m387.4 0c3.4 0 6.1 1.1 8 3.3 2 2.2 2.9 5.6 2.8 10.2h-15.1c0 1.8 0.5 3.1 1.5 4.1 0.9 1 2.1 1.5 3.5 1.5 0.9 0 1.7-0.3 2.4-0.8 0.6-0.5 1.1-1.3 1.5-2.5l6 1c-0.8 2.2-2 3.9-3.7 5.1-1.7 1.2-3.7 1.7-6.2 1.7-4 0-6.9-1.3-8.8-3.9-1.5-2.1-2.3-4.7-2.3-7.8 0-3.8 1-6.7 3-8.8 1.9-2.1 4.4-3.1 7.4-3.1z m143-8.2c2.5 0 4.4 0.1 5.7 0.3 1.3 0.2 2.4 0.6 3.4 1.3 1 0.7 1.8 1.6 2.5 2.7s1 2.3 1 3.7c0 1.5-0.4 2.9-1.2 4.1-0.8 1.2-1.9 2.2-3.3 2.8 2 0.6 3.5 1.5 4.5 2.9 1.1 1.4 1.6 3 1.6 4.8 0 1.5-0.3 2.9-1 4.2-0.7 1.4-1.6 2.5-2.8 3.3-1.2 0.8-2.6 1.3-4.4 1.5-1.1 0.1-3.7 0.2-7.8 0.2h-11V554h12.8z m-166.6 8.2c1.7 0 3.1 0.3 4.2 1 1.2 0.7 2 1.7 2.6 3 0.4 1 0.6 2.6 0.6 4.8V586h-6v-13.2c0-2.3-0.2-3.8-0.6-4.4-0.6-0.9-1.4-1.3-2.6-1.3-0.8 0-1.6 0.3-2.4 0.8-0.7 0.5-1.3 1.3-1.6 2.3-0.3 1-0.5 2.6-0.5 4.8v11h-6v-12.7c0-2.3-0.1-3.7-0.3-4.4-0.2-0.7-0.5-1.1-1-1.5-0.5-0.3-1.1-0.5-1.8-0.5-0.9 0-1.8 0.3-2.5 0.8s-1.3 1.2-1.6 2.2c-0.3 1-0.5 2.5-0.5 4.8V586h-6v-23.2h5.6v3.2c2-2.4 4.4-3.7 7.1-3.7 1.5 0 2.7 0.3 3.8 0.9 1.1 0.6 2 1.5 2.6 2.8 1-1.2 2.1-2.2 3.2-2.8 1.1-0.6 2.4-0.9 3.7-0.9z m-114.9-9c3.9 0 7.1 1.1 9.5 3.4 1.4 1.3 2.5 3.3 3.3 5.8l-6.3 1.5c-0.4-1.6-1.2-2.9-2.4-3.9-1.2-0.9-2.7-1.4-4.4-1.4-2.4 0-4.3 0.8-5.8 2.5s-2.2 4.4-2.2 8.2c0 4 0.7 6.9 2.2 8.6 1.5 1.7 3.3 2.5 5.7 2.5 1.7 0 3.2-0.5 4.4-1.6 1.2-1.1 2.1-2.8 2.7-5.1l6.2 1.9c-1 3.5-2.6 6.1-4.8 7.7-2.2 1.7-5.1 2.5-8.5 2.5-4.2 0-7.7-1.4-10.4-4.3s-4.1-6.8-4.1-11.8c0-5.3 1.4-9.3 4.1-12.3 2.7-2.8 6.3-4.2 10.8-4.2z m166.6 9c1.4 0 2.7 0.4 3.9 1.2l-1.9 5.4c-1-0.7-2-1-2.8-1-0.8 0-1.6 0.2-2.1 0.7-0.6 0.5-1 1.3-1.4 2.6-0.3 1.2-0.5 3.8-0.5 7.8v7.1h-6v-23.2h5.6v3.3c1-1.6 1.8-2.6 2.6-3.1 0.8-0.6 1.7-0.8 2.6-0.8z m147.9 12.3c-0.8 0.3-2 0.6-3.6 0.9-1.7 0.4-2.7 0.7-3.3 1-0.8 0.6-1.2 1.3-1.2 2.1s0.3 1.6 0.9 2.2c0.6 0.6 1.4 0.9 2.4 0.9 1.1 0 2.1-0.4 3.1-1.1 0.7-0.5 1.2-1.2 1.4-2 0.2-0.5 0.2-1.5 0.2-2.9v-1.1z m-559.8 0c-0.8 0.3-2 0.6-3.6 0.9-1.7 0.4-2.7 0.7-3.3 1-0.8 0.6-1.2 1.3-1.2 2.1s0.3 1.6 0.9 2.2c0.6 0.6 1.4 0.9 2.4 0.9 1.1 0 2.1-0.4 3.1-1.1 0.7-0.5 1.2-1.2 1.4-2 0.2-0.5 0.2-1.5 0.2-2.9v-1.1z m472.4 0c-0.8 0.3-2 0.6-3.6 0.9-1.7 0.4-2.7 0.7-3.3 1-0.8 0.6-1.2 1.3-1.2 2.1s0.3 1.6 0.9 2.2c0.6 0.6 1.4 0.9 2.4 0.9 1.1 0 2.1-0.4 3.1-1.1 0.7-0.5 1.2-1.2 1.4-2 0.2-0.5 0.2-1.5 0.2-2.9v-1.1z m-448.2-7.5c-1.5 0-2.7 0.6-3.6 1.8-1 1.2-1.5 3.1-1.5 5.6 0 2.5 0.5 4.4 1.4 5.5 0.9 1.1 2.1 1.7 3.5 1.7s2.6-0.6 3.6-1.9c1-1.3 1.6-3.2 1.6-5.7 0-2.4-0.5-4.1-1.4-5.3-0.9-1.1-2.1-1.7-3.6-1.7z m250.7 0.1c-1.6 0-2.9 0.6-4 1.8-1.1 1.2-1.6 2.9-1.6 5.2 0 2.2 0.5 4 1.6 5.2 1.1 1.2 2.4 1.8 4 1.8s2.9-0.6 4-1.8c1.1-1.2 1.6-2.9 1.6-5.2 0-2.2-0.5-3.9-1.6-5.1-1.1-1.3-2.4-1.9-4-1.9z m-179.8-0.3c-1.4 0-2.6 0.6-3.6 1.7-0.9 1.1-1.4 2.8-1.4 5.1 0 2.4 0.5 4.2 1.4 5.3 0.9 1.1 2.1 1.7 3.4 1.7 1.5 0 2.7-0.6 3.7-1.7 1-1.2 1.5-2.9 1.5-5.1 0-2.4-0.5-4.1-1.5-5.3-0.8-1.1-2-1.7-3.5-1.7z m-131.5-7.4h-2.9v21.1h4.8c1.8 0 3.1-0.1 3.9-0.3 1-0.3 1.9-0.7 2.6-1.3 0.7-0.6 1.3-1.6 1.7-3.1 0.4-1.4 0.7-3.4 0.7-5.8 0-2.5-0.2-4.3-0.7-5.7-0.4-1.3-1-2.3-1.8-3.1-0.8-0.7-1.8-1.2-3-1.5-0.9-0.2-2.7-0.3-5.3-0.3z m562.1 12.6h-5.2v8.5h6c2.3 0 3.8-0.1 4.4-0.2 1-0.2 1.7-0.6 2.4-1.3 0.6-0.7 0.9-1.6 0.9-2.7 0-1-0.2-1.8-0.7-2.4-0.5-0.7-1.1-1.1-2-1.5-0.9-0.3-2.9-0.4-5.8-0.4z m-141.5-5.2c-1.3 0-2.4 0.5-3.3 1.4-0.9 1-1.3 2.2-1.3 3.9h9c0-1.7-0.5-3.1-1.4-4-0.8-0.9-1.8-1.3-3-1.3z m140.7-7.5h-4.4v7.4h4.3c2.5 0 4.1 0 4.7-0.1 1.1-0.1 2-0.5 2.6-1.1 0.6-0.6 1-1.5 1-2.5s-0.3-1.8-0.8-2.4c-0.5-0.6-1.4-1-2.4-1.1-0.8-0.2-2.4-0.2-5-0.2z m-476.8-5.3v5.6h-5.7v-5.6h5.7z m118.5 0v5.6h-5.7v-5.6h5.7z m285.2 0v5.6h-5.7v-5.6h5.7z" fill="#231916"></path></svg>