<svg viewBox="0 0 1024 1024" version="1.1" xmlns="http://www.w3.org/2000/svg"><path d="M0 0m224 0l576 0q224 0 224 224l0 576q0 224-224 224l-576 0q-224 0-224-224l0-576q0-224 224-224Z" fill="#FFFFFF"></path><path d="M512 172c187.48 0 340 152.52 340 340 0 187.476-152.52 340-340 340s-340-152.524-340-340c0-187.48 152.52-340 340-340z m297.28 355.94l-71.5-0.004v103.372c0 26.488-21.532 48.036-48.008 48.036l-15.744-0.004v13.368c0 26.32-21.544 47.728-48.032 47.728H525.28l0.004 69.1c152.72-6.744 275.92-129.152 283.992-281.596z m-528.376-0.004l-66.18 0.004c8.028 151.56 129.844 273.432 281.336 281.468v-68.972H392.688c-26.48 0-48.032-21.412-48.032-47.728v-13.368h-15.74c-26.472 0-48.008-21.544-48.008-48.032l-0.004-103.372z m215.156 151.404H369.992v13.368c0 12.44 10.184 22.552 22.696 22.552h103.372v-35.92z m152.632 0H525.28v35.92h100.72c12.512 0 22.692-10.116 22.692-22.552v-13.368z m-304.036-151.404h-38.428v103.372a22.72 22.72 0 0 0 22.688 22.7l15.74-0.004v-126.068z m304.036-152.632H369.992v278.7h278.7V375.304z m63.764 152.632h-38.428v126.068h15.744a22.72 22.72 0 0 0 22.688-22.696l-0.004-103.372z m-146.948-111.56c23.224 0 42.12 18.892 42.12 42.116v109.676c0 23.22-18.896 42.112-42.12 42.112h-109.676c-23.22 0-42.112-18.892-42.112-42.112v-109.68c0-23.22 18.892-42.112 42.112-42.112h109.68z m0 42.116h-109.676v109.676h109.616l0.06-109.68z m124.264-83.188h-15.744v123.412h38.428V398.004a22.72 22.72 0 0 0-22.68-22.7zM214.592 498.72h66.312V398.004c0-26.488 21.54-48.036 48.012-48.036h15.74v-16.02c0-26.32 21.548-47.728 48.032-47.728l103.372-0.004V214.592c-152.376 8.08-274.728 131.332-281.468 284.12z m310.692-284.252l-0.004 71.752h100.72c26.484 0 48.032 21.416 48.032 47.732l-0.004 16.02h15.744c26.476 0 48.008 21.548 48.008 48.036v100.712h71.624c-6.776-153.68-130.512-277.472-284.12-284.252z m-180.628 160.84h-15.74a22.72 22.72 0 0 0-22.688 22.7v100.712h38.428V375.304z m151.404-63.912H392.688c-12.512 0-22.696 10.12-22.696 22.56v16.016h126.068v-38.576z m129.936 0H525.28v38.576h123.412v-16.02c0-12.436-10.18-22.552-22.696-22.552z" fill="#DB2B2D"></path></svg>