<svg viewBox="0 0 1024 1024" version="1.1" xmlns="http://www.w3.org/2000/svg"><path d="M142.8 369c78.7 0 142.8 64.1 142.8 142.8 0 78.7-64.1 142.8-142.8 142.8C64.1 654.6 0 590.5 0 511.8 0 433.1 64.1 369 142.8 369z m124.8 149.5h-30v43.4c0 11.1-9 20.2-20.2 20.2h-6.6v5.6c0 11.1-9 20-20.2 20h-42.3v29c64.2-2.8 115.9-54.2 119.3-118.2z m-221.9 0H17.9c3.4 63.6 54.5 114.8 118.1 118.2v-29H92.6c-11.1 0-20.2-9-20.2-20v-5.6h-6.6c-11.1 0-20.2-9-20.2-20.2l0.1-43.4z m90.4 63.6h-53v5.6c0 5.2 4.3 9.5 9.5 9.5H136v-15.1z m64.1 0h-51.8v15.1h42.3c5.3 0 9.5-4.2 9.5-9.5v-5.6zM72.5 518.5H56.4v43.4c0 5.3 4.3 9.5 9.5 9.5h6.6v-52.9z m127.7-64.1h-117v117h117v-117z m26.8 64.1h-16.1v52.9h6.6c5.3 0 9.5-4.3 9.5-9.5v-43.4z m-61.7-46.9c9.8 0 17.7 7.9 17.7 17.7v46.1c0 9.8-7.9 17.7-17.7 17.7h-46.1c-9.8 0-17.7-7.9-17.7-17.7v-46.1c0-9.8 7.9-17.7 17.7-17.7h46.1z m0 17.7h-46.1v46.1h46l0.1-46.1z m52.1-34.9h-6.6v51.8H227v-42.3c0-5.2-4.3-9.5-9.6-9.5zM17.9 506.2h27.8v-42.3c0-11.1 9-20.2 20.2-20.2h6.6V437c0-11.1 9-20 20.2-20h43.4v-30.1c-64 3.4-115.4 55.1-118.2 119.3z m130.5-119.4v30.1h42.3c11.1 0 20.2 9 20.2 20v6.7h6.6c11.1 0 20.2 9 20.2 20.2v42.3h30.1c-3-64.4-54.9-116.4-119.4-119.3z m-75.9 67.6h-6.6c-5.3 0-9.5 4.3-9.5 9.5v42.3h16.1v-51.8z m63.6-26.9H92.7c-5.3 0-9.5 4.2-9.5 9.5v6.7h52.9v-16.2z m54.6 0h-42.3v16.2h51.8V437c0-5.2-4.3-9.5-9.5-9.5z" fill="#DB2B2D"></path><path d="M555.9 585.4c15.4 0 26.4 11.4 26.4 27.4 0 15.8-11.1 27.2-26.4 27.2-15.4 0-26-11.3-26-27.8-0.1-15.8 10.6-26.8 26-26.8z m128.2 1.1c2.7 0 5.4 0.3 8.3 0.8 2.7 0.5 4.2 0.8 7.9 1.9v13.1h-5.6l-1.5-8.1-1.2-1.4c-2.4-0.9-4.1-1.2-6.5-1.2-11.5 0-18.5 8.1-18.5 21.5 0 13.9 7.2 21.9 19.5 21.9 1.2 0 2-0.1 3.9-0.3V619l-1.2-1.1-5.8-0.4v-3.8H706v3.8l-4.5 0.4-1.2 1.1v17.9c-3.9 1.3-5.4 1.7-8.2 2.2-3 0.6-6 0.9-8.9 0.9-16.3 0-27.3-10.9-27.3-27 0-16 11-26.5 28.2-26.5z m-317.6 0c17.9 0 28.4 9.6 28.4 26.1 0 9.4-3.3 16.6-9.8 21.4-4.7 3.5-10 5-18.6 5h-22.9v-3.9l4.7-0.4 1.3-1.3V592l-1.3-1.3-4.7-0.4v-3.9h22.9z m69.7 0l17.7 47.8 4.6 0.8v3.8h-20.9v-3.8l4.9-0.5 0.5-1-4.7-13.1h-16.8l-4.7 13 0.8 1 4.9 0.5v3.8H406V635l4.7-0.7 17.4-47.9h8.1z m80.3 0v13.8h-5.3l-1.3-8.3-1.2-1h-9.3v42.4l1.3 1.3 5 0.4v3.9h-23.1v-3.9l5.1-0.4 1.2-1.3V591h-9.3l-1.2 1-1.2 8.3h-5.3v-13.8h44.6z m93.4 0v2.1l23.4 37.1v-33.4l-1.4-1.5-4.6-0.6v-3.7h17.4v3.7l-4.5 0.6-1.3 1.5v46.6h-8.6L603.9 597v36.2l1.2 1.3 4.7 0.6v3.9h-17.4v-3.9l4.5-0.6 1.4-1.3v-41.3l-1.1-1.1-4.9-0.4v-3.9h17.6z m174.3 0c11 0 17 4.3 17 12.2 0 3.7-1.3 6.6-4 8.9-1.8 1.5-3.3 2.3-7.3 3.5 9.4 0.3 14.4 4.8 14.4 12.9 0 9.6-7.3 15-19.9 15h-24.7v-3.9l4.7-0.4 1.3-1.3v-41.6l-1.3-1.1-4.7-0.4v-3.9h24.5z m67.6 0l18.1 47.8 4.7 0.8v3.8h-21.3v-3.8l5-0.5 0.6-1-4.8-13.1H837l-4.8 13 0.8 1 5 0.5v3.8h-17V635l4.8-0.7 17.7-47.9h8.3z m52.9 0v2.1l23.9 37.1v-33.4l-1.4-1.5-4.7-0.6v-3.7h17.8v3.7l-4.6 0.6-1.3 1.5v46.6h-8.7L898.6 597v36.2l1.3 1.3 4.8 0.6v3.9h-17.8v-3.9l4.6-0.6 1.4-1.3v-41.3l-1.1-1.1-5-0.4v-3.9h17.9z m72.3 0v3.9l-4.6 0.4-1.3 1.1v20.4h2.2l17-20.5-0.5-1-4.4-0.4v-3.9h17.7v3.9l-5.5 0.6-14.9 17.8 16.7 25.9 5.7 0.5v3.9h-16.2v-2.8L975.6 616H971v17.4l1.3 1.3 4.6 0.4v3.9h-22.1v-3.9l4.7-0.4 1.2-1.3v-41.6l-1.2-1.1-4.7-0.4v-3.9H977z m-613.2 5.6h-4.7v43.5h4.7c12.7 0 18.8-7.1 18.8-22 0-14.4-6.3-21.5-18.8-21.5z m192.9-1.1c-8.9 0-14.6 8.7-14.6 22.1 0 13.5 5.8 22.5 14.5 22.5 8.8 0 14.5-8.8 14.5-22.1 0-13.6-5.6-22.5-14.4-22.5zM780 614.4c-1.4 0-2.7 0.1-4.8 0.2v20.9l1.8 0.1c0.9 0.1 1.8 0.1 2.4 0.1 9.6 0 13.7-3.3 13.7-11 0-7.1-4.1-10.3-13.1-10.3z m-350.7-16.7l-6.6 19h13.4l-6.8-19z m416.1 0l-6.6 19h13.4l-6.8-19z m-67.3-6.7h-0.4c-0.7 0-1.3 0-2.4 0.2v18.7c0.8 0.1 1.1 0.1 1.7 0.1 8.2 0 11.7-3 11.7-9.9-0.1-6.2-3.4-9.1-10.6-9.1z" fill="#AA7E5D"></path><path d="M911.3 413.7c1.2-0.3 3.4 0.7 4 1.4l1.1 1.4c1.1 1.9 1.1 4.4 1.7 5.3 0.6 1 0.1 0.3 0.9 0.8-0.1 0.8-0.3 0.4 0.2 0.9 0.2 1.8 0 0.4 0.5 1.3 1.3 2 4.5 2.4 6.6 4.6 2 2.1 3.1 7 1 10.1l-8.7 10.3c-1.2 1.1-2.5 1.8-2.4 4.1 1.6 1 6 1.9 8.5 3.2l0.9 0.6c2 1.3 2.1 1.4 3.4 3.3 1.2 1.8 0.7 0.2 2.8 3.6 2.4 0.1 2.5-1 5.2-1 2.7-0.1 6.6 0.2 8.7-1l2.5-0.7c3-0.3 3.3-0.3 5.7-0.9 2.5-0.6 3.7 0 5.8 0.1 0.7 0.1 2.4 0.1 3.1 0 3.4-0.5 1.4-2.2 6.8-3 2.5-0.3 3.1-0.8 5.9-0.8 2.1 0 4.1 0.1 5.7-0.5 1.7-0.6 3.1-1.2 5-1.7 6.3-1.5 7.8 0.1 16.4-3l2.5-0.7c1-0.1 2-0.3 3.3-0.3 6.6-0.2 6 2.4 9.4 4.3 0.2 0.6 0.1 0.4 0.6 0.6 2 3.3 6.1 5.1 5.2 8.7-0.5 2.2-4.2 5.3-7.9 5.6-0.6 0.1-1.1 0-1.7 0.2-1.5 0.3-0.1 0-1.2 0.5l-8.7 1.5c-5.8 0.8-14-1.7-13.3 1.8 0.3 1.5 0.5 0.4 2.6 2.7 3.8 4.1 2 5.4 1.9 10.8-0.2 8.6 1.2 13.2 1.2 19.4 0 2.8 0.5 3.8 0.6 6v20.5c0 3.7 0.4 3.7 2.7 7.5 0.6 1 0.8 0.7 1.6 1.6 0.7 0.7 0.9 1.5 1 2.6 0.8 8.6-11.5 6.7-17 6.7-3.5 0-9-0.6-11.8-1.8-4.1-1.7-3.9-1.1-5.2-1.6-7-2.7-7.2-2.6-16.4-3.9-8.6-1.2-5.2-2.6-9.5-4.5-0.1-0.8-1-2-1.9-2.6-0.5-1.8-1.2-2.3-2.5-3.3-0.2-2.4-0.2-2.9 2.3-2.8 1.8 0.1 2.9 0.6 4.6 0.8 3.4 0.3 6.7-0.3 10.2-0.4 6.3-0.1 9.3-1.7 13.4-2.5 1.6-0.3 2.7-0.8 3.6-1.9 2 0.1 1.6-1.6 1.6-4.5v-19.8-13.1c0-4.1 0.9-8.6 0.7-12.7-2.6-1.4-4.3-0.6-8.4 0.5-1.3 0.3-0.2 0.1-1.5 0.5l-13.7 3.2c-0.9 0.4-1.7 1.3-2.2 2-1.4 1.7-2.1 3.1-5.4 2.9-4.1-0.2-6.8-5.1-8.8-8-0.5-0.7-1.4-1.6-1.9-2.3-0.6-0.9-0.7-1.8-0.9-3.1-0.1-2.9 0-2.9-1.1-4.9h-2.3c-0.2 0.6-0.2 0.5-0.3 0.7-0.4 0.9 0.1-0.3-0.4 0.9-1.6 4-4.9 8.7-7.3 12.8-0.6 1-0.8 0.8-1.3 1.9-2.5 5.3 1.2 6.9 2 14.3 0.1 1.1 0.7 4.6 0.8 4.8 0.1 2.8-0.1 5 1.5 6.6 5.4 5.2 1.8 5.7 1.2 10.9-0.7 5.9-0.7 7.9-2.1 13.2-1.2 4.8-1.5 9.2-1.2 14.4 0.1 2.4 0.4 1.4 0.9 3 0.8 2.5 0 4.2-2 5.7-5.2 4.2-7.6-5.9-10.5-7.1l-2-2.3c-5.9-4.3-13.4 0.8-12.6-9.6 0.1-1.8 3.4-8.3 3.8-9.7l0.7-12.8c0.8-1 0.4-0.2 0.9-1.9 0.7-2.5 1.5-1.9 1.4-5.3-2.4 0.1-2 1-3.3 2.4-0.9 0.9-1.6 1.5-2 3.5-0.5 0.3-2.1 2.1-2.2 3.4-0.8 0.5-0.4 0.2-1.1 0.8l-10.9 12c-3 3.5-6.9 4.8-11.4 3.4-3.1-1-1.4 0.1-5.8-2-1-0.5 0.3 0-0.9-0.5-0.1-3.9 0.4-2 0.8-4.4l1.7-2.3c2.3-3.3 3.5-4.1 5.5-8.2 1.5-3.1 9.8-16.3 11.4-18.6 2.7-3.9 7.1-10.4 9.4-14.6 1.4-2.5 8.2-14.9 8.3-15.8 1.1-0.4 0.9-0.2 1.4-1.2 0.1-0.2 0.6-1.4 0.7-1.4 1.1-4.3-4.4-4.9-7.3-5.1 0-0.3 0.6-0.4-0.5-0.2-1.1-1.8-1.3-1.7-2.5-2.9-0.5-0.5-0.9-0.8-1.3-1.5-0.9-1.5 0.1-0.8-1.2-1.8 0.4-2.4 0-3.7 1.1-5.7l2.3-4.7c0.5-1.2 1-3.5 1.8-5 2.7-5-0.1-2.9 2.9-7.3 1.7-2.5 2.2-4.8 3.7-6.9l4.4-6.2c0.7-1 1.1-1.2 1.1-2.2 0.8-0.4 0.2-0.1 0.8-0.5l2.6-1.6z m-127.8 11.1l2.3 2.5c1.2 1.2 3 3.2 5.6 2.6 0.4 0.5 0 0.2 0.7 0.6 0.5 0.3 0.3 0.1 0.8 0.3 6.4 2.6 4.7 6.1 4.5 12.5-0.5 0.9-0.7 21.5-0.1 23.5-0.1 0.1-0.1 0.1-0.2 0.3l-0.4 1.2c-0.1 0.8 0.2 2.8-1.5 4.4-1.5 1.3-5.5 2.1-8.1 1.5 0 0-0.7-0.2-0.8-0.3-0.1 0-0.2-0.1-0.2-0.1-0.1 0-0.4-0.2-0.5-0.2L783 472c-0.3-0.3-1.3-2.1-1.5-2.5-0.7-1.9-0.3-1.4-1.3-2.9-1.5-0.1-2.2 0.1-3.2 0.7-0.1 0-0.1 0.1-0.2 0.1s-0.1 0.1-0.2 0.1l-0.4 0.3c-2.7 1.4-5.8-0.2-6.8 4.4-0.4 1.7 0.1 2 0.5 3.4 1.1 4.5 2.7 4 6.3 7.1 0.6 0.5 0.7 0.8 1.5 1.3 3.1 2.1 3.4 2.9 5.9 2.8 2.3-3.1 2.7-2.3 5.5-4.7 1.4-1.3 4.3-4.1 7.3-2.4 2 1.1 4.1 4.4 2.3 7.1-0.4 0.6-1.8 1.7-2.6 2.4-1 0.8-2.2 1.4-3.2 2.1 0 0.7-0.1 1.6 0 2.3 0.5 2.9 3.8 2.2 5.4 0.3l2.5-3.8c1.1 0 0.2 0.2 1.3-0.2 1.7-0.7 0.3 0 0.8-0.6 0 0 0.8-1.4 1-1.7 3.1-4.3 4.7-4.5 5.7-5.6 0.7-0.7 1.4-4 3-2.4 1.9 1.8-2.3 5.9-3.3 7.4-0.9 1.3-1.2 2.3-2.2 3.5-2.6 3.1-0.4 1.7-3.9 4.6-2.6 2.1-0.3 4 1.5 5.3 0.9 0.6 6.7 3.7 7.8 3.9 1.3 1.4 7.2 3.8 9.6 4.5 3 0.9 7 3.2 10 4.7l15 6.9c2 1 2.8 0.5 4.9 1.7l0.3 0.2c0.4 1.7 1.1 1.8 1.2 3.6 0.1 2-0.5 2.1-0.7 3.6-0.5 3.2 1.1 5-0.5 7.6-3.4 0.2-6.9 0-10.4 0-4 0-3.6-1.1-9.5-1-5.9 0.1-6.7-0.9-9.5-0.9-1.6 0-3.6 0.2-5.1-0.2-1.4-0.4-6.2-2.2-7.2-3-0.6-0.5-1-0.7-1.6-1.2-2-1.7-2.6-3-3.5-4.4-1.5-2.3-9.4-8.4-12.9-12.5-1.5-0.1-2.7-0.4-4.3 2.4-0.8 1.5 0 1.7-2.1 4.7-1.3 1.9-1.4 3.2-2.3 4.8-1 1.6-2 1.8-2.6 4.4l-0.7 0.8c-0.3 0.4-0.5 0.8-0.8 1.3-0.5 0.7-1.1 1.5-1.7 2.2l-6.6 8.9c-0.7 1-3.1 3.5-3.3 4.7-0.8 0.5-0.1-0.1-0.9 0.7-0.6 0.6-4.4 5.2-5.6 6-1 0.6-1.5 1-3.1 1 0 0-0.4-0.3-0.5-0.5-1.7-1.8-1.3-5.4-4.2-7.4 0.1-1-0.2-1.1-1-2.2-3.4-4.4-7.7-2.7-6.4-7.4 0.2-0.6 0.2-0.7 1.2-1.6 0.7-0.5 1-0.5 1.7-1.1 0.2-0.2 1.3-1.4 1.5-1.7 0.7-0.8 1.6-2.8 2.1-4 3.2-6.9 0.3-8.5 1.8-15.9 0.1-0.6 0.1-0.6 0.3-1.1 0.7-2.3 0.3-1.1 0.7-3.9 0.6-4.4-0.8-3.8 0.8-8 0.7-1.8 1.2-12.8 0.9-13.8-1.1-3.8-4.4-4.1-6-7.1-1.6-2.9 0.4-5.3 2.6-7.1 2.3-1.8 4.5 0.2 5.4-2.8 0.1-0.4 0.2-1.5 0.3-1.9l0.4-12.8c0-2.8 0.3-5.4 0.4-8.5 0-1.6 0.3-2.1 0.4-3.9 0-1.2-0.2-3.6 0-4.5 0.2-0.9 0.9-1.8 1.7-2.4 4.3-3.7 1.9 0.4 9.2-3.9l9.1-6.3c1.5-1.3 0-1.2 2.5-1.2z m-184.7-5.5c3.4-1.1 2.5-2.7 7.6-2.2 0.6 0.3 0.2 0.8 2.2 2.3 0.6 0.4 0.8 0.7 1.4 1.1 6.2 4.7 8.4 2.4 13.2 9.9 0.5 0.8 0-0.3 0.5 1 0.8 2 0.6 5 0.5 7-0.4 11.1-0.5 46.7 0.8 58.1 0.4 3.3 0.1 6.1 0.6 9.4 1.2 8 1.1 10.4 1.3 18.3 0.2 8.1 3.4 24 3.2 26.8-3 2.2-2.9 0.1-9.2 2.5-2.3 0.8-11 1.6-13.9-0.4-1-0.7-1.6-0.9-3-1.2 0-0.1-0.1-0.2-0.1-0.1s-0.1-0.1-0.1-0.1l-0.5-0.4c-2.2-1.4-6.9-3.8-9.3-3.7-0.4-0.6 0.1-0.2-0.6-0.6-1.2-0.8-4.9-1-5.9-1.3l-5.3-2.8c-0.4-0.2-0.5-0.2-1-0.5l-6-3.6c-1.5-0.9-1.4-1.5-3.7-2.1-2.4-0.6-4.1-1.5-3.7-4.6 0.5-4.1 6.2-4.3 8.9-2.3 3.6 2.5 1.9 0.3 6.2 3.8 2.8 2.2 6.4 1.6 10.7 1.5 10.5 0 11.4 0.7 11.2-10.9-0.2-10.2 0.4-6.9-2.2-14.7l-0.6-1.9c-2.7-8.5-0.8-9-0.7-12.2l-0.4-10.7c0-1.7 0.1-4 0-5.7-0.1-1.6-0.6-3.3-0.7-5-0.1-2.5-0.1-2.6-0.5-4.7-0.9-5.2 1.3-6 1.4-9.9 0-0.8 0.1-1.9-0.2-2.7-0.4-1.3-0.2-0.5-1.4-1.3-0.2-5.8 1.3-5.9 0.6-8.9-0.3-1.4-0.6-0.7-0.6-2.5-0.2-3.7 1.9-7.8 0.5-12.5 0 0 1.3 0.7 1.3-2.1 0-1.7-0.5-2.7-2-2.9h-3.2c-1.4 0.1-2.7 0.1-4.1-0.1-3.4-0.6-13.6-1.1-17-0.3-2.8 0.7-3.9 2.1-5.9 2.9-4 1.6-12.8-1.6-24.1 1.5-3 0.8-5.3 0.6-5.2-2.8 2.1-1.6 4.5-1.4 7.4-2.1 1.6-0.4 1.8-1 3.2-1.3 1.3-0.3 3-0.5 4.3-0.7 7-0.8 15.9 0.3 22.2-1.9 5.2-1.9 6.3-1.7 12.8-1.7 3-0.1 6.8 0 9.1-0.7z m-202.1-6c2.1-2.3 5 1.1 7.4 1.5l2.4 1.3c5.7 2.2 8.8 2.4 12.9 3.7 5 1.6 3.1-0.7 7 3.5 0.4 0.4 0.5 0.6 1 1.1 1.8 2.2 1.5 2.8 1.8 6.1 0.3 3.3-0.4 5-0.7 7.7-0.2 2.6 0.3 5.4-0.2 7.8-0.3 1.2-1.8 3.7-1 6.2 0.9 3 4.8 0 10.2-0.7 5.6-0.8 3.9-0.3 10.5-1.5 6.1-1.2 5.7-0.6 9.9 1 3.8 1.4 3.3 2.3 4.4 4.4 1.2 2.2 3.2 2.2 2.7 9.2-0.2 3.3-3.5 6.4-6.3 8.2-1.8 1.2-9.8 4.2-12.8 5.1-1.3 0.4-3.1 0.9-4.6 1.3-3.9 0.4-3 1.8-12.7 2.7-2.7 3.3-1.7 2-2.6 6.6-0.3 1.6-0.2-0.1-0.5 1.9s-0.8 8.9-1.5 9.8l-0.6 0.8c-0.1 0.2-0.3 0.5-0.4 0.7-1.1 2.4-1 1.1-2.6 4l-5.3 8.5c-4 5.2-10 8.4-15.6 11.9-1 0.6-1.9 1.1-2.9 1.7l-4.5 2.5c-0.5 0.3-0.8 0.5-1.3 0.8l-5.8 3.3c-1.2 0.5-2.3 0.6-3.5 1.1-1.9 0.8-1.1 0.7-3.7 0.8-1.7 0.1-7.6 1.4-9.2 2.5-3.2 2.2-0.4 0.3-4.4 2.2-0.8 0.4-1 0.3-1.7 0.7-3.4 1.8-2.8 2.1-7.2 4.1-1.3 0.6-5.4 2.4-6.7 2.6-1.9 0.2-2.3 0.1-3.9 0.7-4.2 1.4-9.2 2.8-14 0.7-1-0.4-0.6-0.3-1.3-0.8-1.1-0.9-1.5-1-2.1-2.5-1.3-3 0.2-4.5 2.5-5.7 5.7-2.8 11.9 0.4 15.7-2.7l4.5-2.6c4.3-2.5 22.6-19.6 25-22.9l5.9-6.7c2.1-2.9 2-2.3 3.2-3.9 2.8-3.5 3.2-1.9 6.5-5.8 0.5-0.6 0.8-0.8 1.2-1.2 0.9-1 0.5-0.2 0.9-1.6 1.6-0.3 1.4-5.8-1.6-6-1 0-3.6 1.5-8.1 1.7-19.1 1-14.4 12.3-26.1 1.5-2.2-2-6.4-7.7-8.5-8.7-1.2-0.6-2.1-1.2-3.5-1.3-0.5-0.8-0.2-0.4-1-0.9-1.6-1-2.3-0.8-3.4-3s-2.6-3.3-1.2-5.9c0.5-0.9 1.3-1.6 2-2.3 3.2-3.1 7.3-1.5 10.4-1.5 9-0.1 19.9-2.8 29.6-4 3.2-0.4 10.2-2.4 13.1-3.4 2.2-0.8 3.3-2.4 2.8-5.6-0.7-4.3-0.7 0-0.7-7.8v-16.5l-0.1-12.7c-0.2-1.4-0.3-2.9 0.3-3.7z m32.8 88.4c3.1-2 5.5-0.7 9.6-0.7 3.1 0 7.8-0.1 10.8 0.4 3.2 0.5 1.8 0.6 3.6 1.8 3.8 2.6 8.6 1.5 17.7 13.4 0.8 1 0.3 0.3 1 1.7 2 4.3 2.3 10.2 1.6 15.2-0.2 1.3-0.9 2.9-1.6 4-0.2 0.4-0.8 1.2-1.1 1.6-0.8 1.1-0.8 0.8-1.4 2.2-0.7 0.2-1.8 2-5.7 2.9-1.6 0.4-1.5 0.8-3.5 0.9-1.5 0.1-3 0-4.5 0-2.5 0-3.7 0.1-5.1-1.3l-0.5-0.5c-1-0.9-2.2-1.3-3.2-2.7-0.6-0.8-1.2-1.8-1.8-2.4-0.3-2-1.1-3.5-1.7-5.4-0.7-2.3-1.1-3.2-2-5-0.9-1.8-1.6-4.7-0.4-7.2 2.5-4.8-1.5-6.1-3.4-10.2-1.6-3.5-5.8-4.8-7.5-6.1-0.1 0-0.1-0.1-0.2-0.1s-0.1-0.1-0.2-0.2c-0.7-0.8-0.5-1.6-0.5-2.3z m286.6-79.4c0.4-1.2 2.7-1.2 5 0.9s4.3 1.3 4.7 3.2c0.1 0.5 0.1 0.3 0.2 1l-0.6 4.8c-0.8 2.2-1.8 2.8-2.6 4.8-0.3 0.8-0.6 1.6-0.2 2.7 1.1 2.8 5.3 2.7 8.2 2.9 10 0.9 10.4-5.3 17.5 1.9l0.3 0.3c1.4 1.3 1.3 0.2 4.3 2.4 0.2 6.4-6.7 3-12.5 4.7-1 0.3-1.7 1-2.3 1.9-0.6 0.9-0.2 0.1-0.6 1.2-1.6-0.3-4 0.9-4.8 1.8l-0.3 0.3V457.4c-3.3 0.4-4.4 1.2-4.5 3.5 3.7 1.8 4.4-0.8 8.2 0 2.7 0.6 3.4 3.4 3.3 5.8-0.9 0.6-1.7 1.3-2.7 1.9l-2.7 1.6c-2.6 1.7-7.2-1-6.6 2.2-0.7 0.4-0.4-0.8-0.6 1.3-0.1 1.2 0.7 2.9 1.6 3.5 1.5 1 3.7 0 6 0.1 1.2 1.4 2.5 4 1.8 6.9-0.6 2.8-3.3 2.1-6.3 2.3-1.5 2-1.2 3.2-1.3 6.5-0.1 4-0.2 4.5 4 4.1-0.3-1.4 2.1-2.9 3.6-4.7 4.4-5.6 7.8-0.8 8 1.3 0.3 4.5-3.8 4.5-6.3 5.2l-7.4 3.9c-0.1 0.9-0.2 2-0.1 2.9 0.3 2.3 0.3 0.6 0.7 2.2 0.4 1.7 0 4 2.3 4.4 0.5 0.1 0.4 0.1 0.9 0l3.8-1.6c2-0.9 2.2-1.9 4.3-2.7 1.8-0.7 3.3-1.4 4.6-2.5 4.7-4.2 8.3 0.6 3.3 2.9-1.8 0.9-10.4 6.1-11.4 8.8-1.1 0.4-1.1 0.7-2 1.5l-2.6 2.3c-5 4.8-7.9 5.5-9.2 6.7-0.9 0.9-0.2 0.2-0.7 0.9-1.6 0-7.8 4.2-10.2 5.2l-3.1 2c-1.4 0.3-2 0.7-2.9 1.2-1.6 1-4.1 3.3-5.8 3.4-3.1 0.3-3.5-1.8-5.5-3.8-1.8-1.9-1-3.6-3.2-4.5 0-1.1 0.3-0.1-0.4-1.2-0.8-1.2-0.5-0.6-0.8-0.7-0.4-1.7-1.8-4.1 2.8-4.7 4.5-0.6 1.9 1 6.6-1.6 2.8-1.6 3.4-0.9 6.8-1.5 2.3-0.4 3.9-1.8 5.9-2.2 1.4-0.3 2.2-0.1 3.4-0.8l1.2-0.8 3-3c1.4-2 0.5-13.3-0.1-14-0.3-0.3-1-0.6-1.3-0.7-0.3-0.1-0.5-0.2-0.8-0.3-0.1 0-0.2 0-0.3-0.1 0-0.1-0.2-0.1-0.3-0.1 0-3.1 2.8-4.4 2.5-8-0.2-2.4-1.4-5.9-5.1-4.8-1.6 0.5-6 3.4-8.1 2-0.6-0.4-0.9-1.1-0.6-2 0.5-1.6 2.4-1.3 3.7-2.8l0.3-0.3c0-0.1 0.1-0.2 0.2-0.4l0.1-0.2 0.6-0.2c2-0.2 2.7-0.9 4.5-1.7 4.5-1.8 2.7-4.7 3.7-7.6 0.6-1.7 1.7-2.1 0.7-4.1-1.3-1.3-4.7 1.4-9.2 1.4-0.4-1.3-0.4-1.1-0.4-2.8 1.1-1 2-2.5 3.5-3.2 0.9-0.4 1.2-0.2 2-0.8l1.9-2c2.8 0.1 3.1 1.7 5.7 0-0.5-1.8-1.5-1.2-2.5-2.8 0.1-2.5 1.3-2.1 3-3 1.2-0.6 1.7-1.9 3.3-2.7 1.4-0.6 4.5-1.8 5.9-3 1-0.9 0.8-0.5 0.7-2.2-1.5-1.1-2.6-0.8-5-0.9-0.3-0.3-1.2-0.4-2-0.7-3-1.2-7.1-3.8-8.7 0.7-1.3 3.8-2.6 3.6-2.7 6.5l-0.2 0.2-2.2 3c-0.6 0.8-3.8 9.2-5.3 10.6-1.3 1.2-1.5 1.3-1.9 3.4-0.5 2.6-1 2.4-1.7 3.6-0.6 1.1-0.9 2.9-1.5 3.9-0.9 1.6-1.7 0.9-2.1 3.5-0.1 0-0.1 0-0.1 0.1s-0.1 0.1-0.1 0.1c-1.2 1.3-9.8 16.3-14.1 21.4-3.6 4.2-6.2 7.7-10.5 11.8-1.3 1.2-2.3 2.3-3.5 3.5-0.7 0.7-1 0.9-1.9 1.6-0.5 0.4-0.5 0.4-1 0.9-4 4-8.3 7.7-13 11-0.3 0.2-0.7 0.5-1 0.7-2.9 2.2-2.4 1.2-4.4 3l-6.4 4.6c-1 0.8-0.6 0.1-0.8 1.1-0.7 0.3-0.6 0.2-1.4 0.6-0.5 0.3-0.3 0.4-1.1 0.6-0.5 0.2-0.9 0.2-1.5 0.1-1-0.1-1.7-0.4-1.2-1.8l6.6-6.9c1.8-1.8 6-6.3 6.8-8.9l0.4-0.2c0.2-0.1 0.3-0.2 0.5-0.4l12.4-15.2c2.3-3.8 6.2-8.5 9.2-12l8.7-12.1c0.6-0.9 0.9-1.7 1.5-2.7 1.4-2.1 3.9-5.1 5-7.7 2-4.5 5.3-8.7 7.3-13.9 0.4-1 8.3-14.4 8.4-16.8 0.5-0.4 0.4-0.1 0.9-0.9 0.4-0.7 0.4-1.5 2.1-4.3l4.5-11.7c0.3-1.1 0.6-2.1 0.9-3 0.5-1.5 0.2-1.7 0.5-3-0.2-0.2-0.1-0.3-0.1-0.3z m-191 13.6c2.9-0.3 3.5 5.9 3.5 7.9v5.6c0 2.6 0.5 3.3 0.7 5.3 0.7 7.1-0.4 15.7 0.3 23.1 1 10.2 1.2 11.6 1 22.2-0.1 6.6-1.5 14.1-0.8 19.6 0.3 2.2 0.9 2 1.2 2.2-0.2 1.2 0 2-0.4 3.3-0.4 1.4-0.9 1.1-0.8 2.5-2 1.1 0.1 4.8-0.8 8.5-0.4 1.6-1.2 1.6-1.9 2.7-1 1.7-0.4 2.5-2.2 2.9-0.1 0-0.2 0.1-0.3 0.1-0.5 0.1-1.5 0.4-3-0.9-1.6-1.4-3.9-4.8-7.8-6.2-0.4-0.9-2-2.1-2.7-2.8-6.9-6.4-4.9-2.7-2-15.8 0.5-2.2 1.3-2.5 1.5-3.9 0.3-1.8 0.9-9.9 0.2-11 0.3-0.2 0.4-0.4 0.5-0.4 0 0 0-0.1 0.1-0.3l0.1-0.1 0.8-3.2c0.6-2.8 1.5-5.1 1.8-8 0.1-1.5 0-3.4 0.2-4.8 0.6-4.8 2.1-9.3 2.9-16.7 1-9.3-1-16.9 1.2-23.5 0.6-1.7 1.6-1.1 2.9-1.9 1.7-1.3 1-5.5 3.8-6.4z m252.1 67c-1.8-0.1-1.9 0.7-2.7 1.6l-3.8 0.1c-1.5 2.3-0.7 1-1.1 4.2-0.1 1-0.4 1.2-0.5 2.2-0.5 3.9 0.8 6.7-1.2 13.3-1.9 6.3 2.3 4.3 3.8 2.1l7.2-8.1c0.1 0 0.1-0.1 0.2-0.2l3.5-4.1c1.7-2.3 5.2-4.4-0.1-7.7-0.7-0.5-0.6-0.4-1.2-0.9-1.3-1-2.4-2.5-4.1-2.5z m-69.2-3.2c1.3-1 2.6-3.6 4.7-1.9 1 2.7 1.8 3.1 4.5 3.8 0.1 4.5-0.5 2.7-1.3 5.4-1.7 0.4-1.2 1.8-4.4 5.1l-0.7 0.8c-1.3 1.6-2 1.2-3.9 0.1-0.5-2.2-1.2-1.5-2.9-3-1.2-1.1-1.7-1.9-0.9-3.8 1.2-2.5 4-3.5 4.9-6.5z m-124.7-61.4c4.6-1.2 7.3 6.2 10.3 6.4 1 1.9 1.1 1 1.9 1.7 0.7 0.6 0.6 1.6 0.6 2.8-2.8 1.5-4.5 1.3-9.8 4.4-1.9 1.1-3.9 2.2-5.3 3.6-0.5 0.5-0.2 0.4-0.9 0.7-0.8 0.3-2.3 0.4-3.4 0.4h-0.2c-1.6 0-4.3 0.1-5.4 0.9-1.4 0.9-0.9 1.5-1.7 2.6l-2.1 1.8c-1.6 0.9-3.5 1.2-4.8 2.3-0.8 0.7-2 2.2-2.1 3.3-0.9 5.8 10.2 0.6 10.3 0.6 1.5-1.1-0.5-0.5 2.7-1.9 1.5-0.7 3.3-2.3 4.6-3.2 0.1 0 0.1-0.1 0.2-0.1s0.1-0.1 0.2-0.1h0.1l0.1-0.1c2.6-1.4 2.7 0.9 6.3 2.2 2.1 0.7 3.6 1.5 5.1 3l0.2 0.2 0.2 0.2c2.3 2.4 2.1 2.8 1.3 6.6-1.1 5.4-6.8 6.5-5.7 9.4 0 0.1 0.9 1.5 0.9 1.6 3.9 0.3 5.2 1.1 8.2 4 0.1 0.1 0.8 1.1 1 1.4 1.9 2.8 0.7 2.9-1 6.8-0.2 0.5-1.5 3.1-1.6 3.3-2.3 2.5-8 0-8 0-2.1-1.3-6.1-1-9.1-2.2-2.8-1.1-6-2.2-9.4-2.5-2.9-0.2-3 0.4-4.4 1.4-0.8 0.5-6.3 3.4-8.2 2.5-1.6-0.8-2.4-2.3-3.1-2.6-0.7-2.6-2.1-1.3-2.3-4.3-0.4-6.9 0.1-17.1 1.9-23.5 0.5-1.9 0.5-3.5 1.2-5.2 0.3-0.6 0.6-1.5 1-2.2 0.5-1.1 0.7-1 1.5-1.7 5.1-4.9 0.6-5-2.1-4.2-3.5 1.1-4 0.7-8.5 0.7-0.8 0-1.6 0-2.3-0.2-1.5-0.5-0.3 0-1.4-1-2.7-2.3-2.2-2.1-4.7-4.9-2.1-2.3-2.6-4-0.7-6.6 4.5-0.1 1.6 0.5 9.2-0.1 3.3-0.3 7.2-0.1 10 0.2 3.3 0.3 6.2-0.5 9.4-0.8 5.2-0.5 4.4 0 7.8-2.3 1-0.9 4.2-2.4 5.7-3.2 1.6-1 3.9-1.5 6.3-2.1z m-12.2 41.4c-0.1-3-3.5-2.5-6.9-2.5-6.4 0-3.6 4.6-3.7 9.6-0.1 3.3-0.8 7.3 1.3 7.1 1-0.1 1.5-0.9 2.6-1.8l5.7-3.4c0.1-2-0.7-3.5-0.1-5.5 0.3-1 0.6-1.5 0.8-2.2 0.3-0.5 0.3-0.7 0.3-1.3z m210.8-25.9c-3.6-2.9-3.4 0.6-9.1 1.5-2 0.3-2.6 0.2-3 2.3-0.3 1.5-0.3 3.8 0.2 4.9 1.6 0.8 4.8-0.4 6.5-1 2-0.7 3.6-2.2 5.2-3.3l0.2-4.4z m204.2-28.9c2.7-0.3 2.8-1.6 5.3-1.2 1.9 0.3 2.6 1.6 4.4 2.2 0.4 0.8 3.1 2.4 4 2.5 1.3 2.4 9 6.5 5.3 10.4-3.2 3.4-4.6 5.9-9.1 8.1-7.9 4-7.8 0.9-14.5 2.8-2.2 0.6-8.7 2.2-10 3-1.2 0.6-1.9 1-2.3 1.9-1.2-0.1-1.9 0.1-2.7 0.5-0.5 0.3-0.2 0.1-0.8 0.3l-0.3 0.1c-3.7 1.2-0.9 1.7-6 1.6 0.2-2.6 0.7-2.6 2.6-3.6 1.4-0.7 2.2-1.4 3.5-2.1 1.3-0.7 2.8-0.9 3.5-2 1.4-2.1 2.9-3.6-0.9-3.6-8.9 0-5.9-1.2-8.9-3.4-1.2-0.9-1.5-2-1.2-4 0.6-3.5 4.3-4.9 4.8-5.2 1.1-0.8 3.8-3 6.1-3.6 6.8-3.3 4-1 8.9-2.1l8.3-2.6z m-210 13.5c-1.3-0.6-6.5 0-7.4 0.9-0.7 0.7-2.5 5.3 0.3 6.5 0.8 0.4 6.7 0.1 7.8-0.4l0.7-1.5c0.1-1.3 0.1-4.8-1.4-5.5z"></path></svg>