<svg viewBox="0 0 1024 1024" version="1.1" xmlns="http://www.w3.org/2000/svg"><path d="M0 0m224 0l576 0q224 0 224 224l0 576q0 224-224 224l-576 0q-224 0-224-224l0-576q0-224 224-224Z" fill="#FFFFFF"></path><path d="M595.16 703.252a121.46 121.46 0 0 0 20.224 27.376 118.528 118.528 0 0 0 45.744 28.956C651.56 813.16 605.788 852 552.032 852c-39.744 0-76.7-21.856-96.452-57.044l-3.664-7.04a112.58 112.58 0 0 1-10.816-48.428c0-10.38 1.452-20.656 4.228-30.6a203.884 203.884 0 0 0 67.748 11.588 203.156 203.156 0 0 0 82.08-17.224z m-269.304-100.94c22.812 47.108 61.988 83.66 110.472 103.02a121.592 121.592 0 0 0-4.808 33.752 120.36 120.36 0 0 0 12.228 53.064 110.868 110.868 0 0 1-142.304-12.848c-21.06-21.16-32.66-49.312-32.66-79.24a113.2 113.2 0 0 1 4.008-29.84l2.336-7.576c5.548-15.784 14.4-29.852 26.312-41.832a111.308 111.308 0 0 1 24.416-18.5z m469.048-21.248a111.436 111.436 0 0 1 19.984 63.636 111.52 111.52 0 0 1-32.804 79.02c-28.336 28.32-70.04 39.304-108.848 28.66l-7.564-2.344a110.548 110.548 0 0 1-41.752-26.316 111.48 111.48 0 0 1-18.46-24.472 208.46 208.46 0 0 0 102.812-110.76c10.92 3.176 22.24 4.832 33.672 4.832 18.536 0 36.344-4.152 52.96-12.256z m-281.116-268.376c109.808 0 198.824 89.192 198.824 199.216a198.736 198.736 0 0 1-17.5 81.704l-38.372-34.776a150.8 150.8 0 0 0 7.476-46.928c0-83.24-67.352-150.724-150.428-150.724-83.08 0-150.424 67.48-150.424 150.72 0 83.252 67.348 150.728 150.424 150.728a150.24 150.24 0 0 0 36.548-4.508l40.864 37.336a197.8 197.8 0 0 1-77.412 15.668c-109.804 0-198.82-89.2-198.82-199.22 0-110.024 89.016-199.216 198.82-199.216z m133.016 266.784l36.96 33.784a201.58 201.58 0 0 1-70.424 69.808l-38.264-35.26c30.8-14.056 56.088-38.224 71.728-68.332zM288.3 440.28c10.348 0 20.612 1.46 30.528 4.24a205.168 205.168 0 0 0-11.56 67.888 204.4 204.4 0 0 0 17.188 82.26 120.764 120.764 0 0 0-27.32 20.264 119.104 119.104 0 0 0-28.96 45.816C214.736 651.14 176 605.28 176 551.452c0-39.832 21.812-76.864 56.928-96.656l7.032-3.668c15.18-7.2 31.44-10.84 48.34-10.84z m188.024-8.132c0-9.744 8.408-8.416 8.408-8.416h91.688c23.952 0 25.356 21.456 25.424 24.976v127.052c0 23.54-22.7 24.352-24.264 24.38h-143.508c-9.608 0-8.28-8.296-8.28-8.296s0.652-99.524 0.652-108.792c0-9.264 7.928-7.936 7.928-7.936h34.408c11.88 0 9.228 9.24 9.228 9.24v56.496c0 8.052 6.72 6.728 6.72 6.728h57.18c9.464 0 7.48-7.484 7.48-7.484v-56.12c0-7.02-7.672-7.684-7.672-7.684h-59.532c-5.86 0-5.86-5.868-5.86-5.868z m283.44-68.9C813.24 372.84 852 418.7 852 472.568c0 39.82-21.816 76.852-56.932 96.64l-7.032 3.676a112.032 112.032 0 0 1-48.336 10.836c-10.36 0-20.616-1.46-30.528-4.24a205.216 205.216 0 0 0 11.556-67.884c0-28.52-5.8-56.176-17.184-82.248a121.184 121.184 0 0 0 27.32-20.268 118.828 118.828 0 0 0 28.896-45.828zM245.912 300.28c28.332-28.32 70.04-39.304 108.848-28.66l7.564 2.344a110.6 110.6 0 0 1 41.752 26.312 111.416 111.416 0 0 1 18.46 24.468 208.472 208.472 0 0 0-102.812 110.76 120.66 120.66 0 0 0-33.672-4.828 119.772 119.772 0 0 0-52.96 12.26 111.468 111.468 0 0 1 12.82-142.656z m338.336-68.424a110.96 110.96 0 0 1 142.38 12.848c21.12 21.22 32.584 49.936 32.584 79.324 0 9.928-1.308 19.928-3.992 29.744l-2.332 7.58a110.912 110.912 0 0 1-26.26 41.836 111.412 111.412 0 0 1-24.424 18.5c-22.828-47.116-62.024-83.66-110.536-103.024a121.392 121.392 0 0 0 4.808-33.744 120.36 120.36 0 0 0-12.228-53.064zM475.972 172c39.744 0 76.704 21.856 96.448 57.04l3.664 7.052a112.564 112.564 0 0 1 10.816 48.432c0 10.368-1.452 20.652-4.228 30.588a204.028 204.028 0 0 0-67.748-11.58 203.22 203.22 0 0 0-82.08 17.22 121.296 121.296 0 0 0-20.232-27.376 118.488 118.488 0 0 0-45.74-28.952C376.436 210.836 422.212 172 475.972 172z" fill="#F29700"></path></svg>