<svg viewBox="0 0 1024 1024" version="1.1" xmlns="http://www.w3.org/2000/svg"><path d="M224 0h576c123.6 0 224 100.4 224 224v576c0 123.6-100.4 224-224 224H224c-123.6 0-224-100.4-224-224V224C0 100.4 100.4 0 224 0z" fill="#FFFFFF"></path><path d="M512 176c187.6 0 340 150.4 340 336s-152.4 336-340 336-340-150.4-340-336 152.4-336 340-336z m48 54.4c-2.8-10-7.6-19.6-14-26.4-9.6-10-23.6-15.6-40.8-16-18 0-36 11.2-41.6 28.4-0.4 1.6-0.8 2.8-1.2 4.4-2-0.4-4-1.2-5.6-2-4.4-2-8.8-3.6-13.6-4-6.4-0.4-16.4 3.2-20 8.4-1.2 2-2.8 4-3.2 6-0.4 2.8 0.4 6 3.2 8.4 1.6 1.2 3.2 2 5.2 2 3.2 0 6.4-1.2 8.8-2.8 2.4-1.6 3.2-7.2 1.2-9.2-1.2-1.6-4.8-2-6.4-0.4-0.4 0.4-2 1.6-2.8 2-0.8-1.2-0.8-2.4-0.4-3.2 0.8-2.4 3.6-4.4 6-4.8 1.6 0 3.2 0.4 4.8 1.2 3.6 2.4 4.4 7.2 3.6 11.2-1.2 6.4-5.2 9.6-11.6 10.8-5.6 0.8-10.4-1.2-14.4-4.8-2-2-3.2-3.2-6-2.4-19.6 6.8-38.4 14.4-56 24.4-16.8 9.6-32.4 21.6-47.2 34-12.8 10.8-24.4 22.8-34.4 35.2-20.8 26-35.2 49.2-46.4 80.4-16.4 46.4-19.2 99.2-9.6 147.6 3.6 18.4 8.8 34.8 12.4 41.6-0.8-4-1.6-7.6-2.4-11.2-3.2-14-5.6-28-6.8-42-2.4-24-3.6-50.4-0.4-74.4 1.6-14 4.8-27.6 9.2-42.4 4.4-14.8 10.8-31.6 18-44.8 2.8-5.2 6-9.6 8.8-14.8 0.8-1.2 2.8-4.8 2.8-4.8-2.4 5.2-4.4 10.4-6.4 15.6-4 9.2-7.2 18.4-10.4 27.6-9.6 27.6-16.4 57.6-18 86.8-0.8 12.8-0.8 25.6-0.4 38.4 0.4 26.8 5.2 54.4 14 80 6.4 18.4 13.2 33.6 23.6 50.4 10.8 17.6 24 34.4 38.8 48.8 14.4 14 29.6 26.4 46.4 37.6 2.4 1.6 8.4 4.8 14 7.6 8.4 4.4 17.2 8.4 17.2 8.4-0.4-0.4-8-4.8-15.6-9.2-15.6-8.8-29.2-18.8-41.6-30.8-12.8-12.4-25.2-27.2-34-42.8-11.2-19.6-18.4-41.6-21.2-65.2-4.4-38 2.8-78 20.4-113.2 20.4-41.2 54.8-76.4 95.2-102 26.8-16.8 63.2-35.6 99.6-41.2 20-3.2 47.6-2.8 66 7.6 4.4 2.4 8 6 9.6 10.8 2 5.2 1.6 8.8-2 13.6-2.8 3.2-8.8 3.6-12.4 1.2-2.8-2-3.2-4.8-2.8-7.6 1.2-4.8 3.6-5.6 7.6-7.2 1.2-0.8 2-0.8 1.2-1.2l-2.4-1.2c-5.2-2.4-17.6-1.2-17.6 6.4 0 7.6 5.2 13.6 10.4 18.8 15.6 15.6 36.8 23.2 58.8 20.4 15.6-2 27.2-10.8 36-22.8 9.6-12.8 14.4-27.2 9.6-42.4-0.8-2.4-1.6-4.4-2.8-6.4-2.4-4.4-6-8-8.8-12 0 0 0.4-0.4 0.8-1.2 1.6-3.2 2.8-6 3.6-9.2 4.4-12.4 2.8-24.4-3.6-35.6-1.2-2.4-3.2-4.8-5.6-7.2-1.6-1.6-3.6-2.8-3.6-2.8v-4c-0.4-7.2-5.6-17.2-10.4-22.8-6.8-7.6-16.8-13.6-26.8-16.8-6.4-2-13.6-3.2-19.2-4.4-0.8 0-3.2-0.4-3.2-0.4-0.8 0.4-2.4-4-3.2-6z m-86 564c3.2 10 7.6 19.6 14.4 26.4 10 10 24 15.2 40.8 15.2 18 0 35.6-11.6 40.8-29.2 0.4-1.6 0.8-2.8 1.2-4.4 2 0.4 4 0.8 5.6 1.6 4.4 2 8.8 3.6 13.6 4 6.4 0.4 16.4-3.2 20-8.8 1.2-2 2.8-4 3.2-6.4 0.4-2.8-0.4-6-3.2-8.4-1.6-1.2-3.2-2-5.2-2-3.2 0.4-6 1.2-8.8 3.2-2.4 1.6-3.2 7.2-1.2 9.2 1.2 1.6 4.8 1.6 6.4 0.4 0.4-0.4 2-1.6 2.8-2 0.8 1.2 0.8 2.4 0.4 3.2-0.8 2.4-3.6 4.4-6 4.8-1.6 0.4-3.2 0-4.8-1.2-3.6-2.4-4.4-7.2-3.6-11.2 1.2-6.4 4.8-9.6 11.2-10.8 5.6-1.2 10.4 0.8 14.4 4.4 2 2 3.2 3.2 6.4 2.4 19.6-7.2 38-15.2 55.6-25.6 16.4-10 32-22 46.4-35.2 12.4-11.2 24-23.2 33.6-36 20-26.4 34.4-50 44.8-81.2 15.6-46.8 17.2-100 7.2-148-4-18.4-9.6-34.4-13.2-41.6 0.8 4 1.6 7.6 2.8 11.2 3.2 14 6 28 7.6 42 2.8 24 4.4 50.4 1.6 74.4-1.6 14-4.4 27.6-8.4 42.4-4 14.8-10.4 31.6-17.2 45.2-2.4 5.2-6 9.6-8.4 14.8-0.8 1.6-2.4 4.8-2.8 4.8 2.4-5.2 4-10.4 6-15.6 3.6-9.2 6.8-18.4 10-27.6 9.2-28 15.2-58 16.4-87.2 0.4-12.8 0.4-25.6 0-38.8-0.8-27.2-6.4-54.4-15.2-80-6.4-18.4-14-33.6-24.4-50-11.2-17.2-24.4-34.4-39.6-48.4-14.8-13.6-29.6-26-46.8-36.8-2.8-1.6-8.4-4.8-14-7.6-8.4-4-17.2-8-17.2-8 0.4 0.4 8.4 4.8 15.6 8.8 15.6 8.4 29.2 18.4 41.6 30 13.2 12.4 25.6 27.2 34.8 42.4 11.6 19.6 19.2 41.2 22.4 64.8 5.2 38-1.6 78.4-18.4 113.6-19.6 41.6-53.6 77.6-93.2 104-26.4 17.6-62.4 36.8-98.4 43.2-20 3.6-47.2 3.6-65.6-6.4-4.4-2.4-8-5.6-10-10.8-2-5.2-2-8.8 2-13.6 2.8-3.6 8.8-4 12.4-1.6 2.8 1.6 3.6 4.8 2.8 7.6-0.8 4.8-3.6 5.6-7.6 7.2-1.2 0.8-2 0.8-0.8 1.2l2.4 1.2c5.2 2 17.2 0.8 17.6-6.4 0-7.6-5.6-13.6-10.4-18.8-15.6-15.6-36.8-22.4-58.8-19.6-15.6 2.4-26.8 11.2-35.6 23.2-9.2 12.8-14 27.2-8.8 42.8 0.8 2.4 1.6 4.4 2.8 6.4 2.4 4 6 8 9.2 11.6 0 0-0.4 0.4-0.8 1.2-1.6 3.2-2.4 6-3.6 9.6-4 12.8-2.4 24.4 4 36 1.2 2.4 3.2 4.8 6 7.2 1.6 1.6 3.6 2.8 3.6 2.8v4c0.4 7.2 6 17.2 10.8 22.4 6.8 7.6 17.2 13.2 26.8 16.4 6.4 2 13.6 3.2 19.2 4 0.8 0 3.2 0.4 3.2 0.4-0.8 1.2 0.8 5.6 1.6 7.6zM428 511.6l86 80.4 82-83.6-86-80.4-82 83.6z" fill="#004DA1"></path></svg>