<svg viewBox="0 0 1024 1024" version="1.1" xmlns="http://www.w3.org/2000/svg"><path d="M85.2 427c47 0 85.2 37.8 85.2 84.5S132.2 596 85.2 596 0 558.2 0 511.5 38.1 427 85.2 427z m12 13.3c-0.7-2.6-1.9-4.9-3.5-6.6-2.4-2.6-6-4-10.2-4-4.5 0-9 2.8-10.4 7.2-0.1 0.4-0.2 0.7-0.3 1.1-0.5-0.1-1-0.3-1.4-0.5-1.1-0.5-2.2-0.9-3.4-1-1.6-0.1-4.1 0.8-5 2.1-0.3 0.5-0.7 1-0.8 1.5-0.1 0.7 0.1 1.5 0.8 2.1 0.4 0.3 0.8 0.5 1.3 0.5 0.8 0 1.6-0.3 2.2-0.7 0.6-0.4 0.8-1.8 0.3-2.3-0.3-0.4-1.2-0.5-1.6-0.1-0.1 0.1-0.5 0.4-0.7 0.5-0.2-0.3-0.2-0.6-0.1-0.8 0.2-0.6 0.9-1.1 1.5-1.2 0.4 0 0.8 0.1 1.2 0.3 0.9 0.6 1.1 1.8 0.9 2.9-0.3 1.6-1.3 2.4-2.9 2.7-1.4 0.2-2.6-0.3-3.6-1.2-0.5-0.5-0.8-0.8-1.6-0.6-4.9 1.7-9.6 3.6-14.1 6.2-4.2 2.4-8.1 5.4-11.9 8.6-3.2 2.7-6.1 5.7-8.6 8.9-5.2 6.5-8.9 12.4-11.6 20.2-4.1 11.7-4.8 25-2.4 37.1 0.9 4.7 2.2 8.7 3.1 10.5-0.2-1-0.4-1.9-0.6-2.8-0.8-3.5-1.4-7-1.7-10.5-0.6-6.1-0.9-12.7-0.1-18.7 0.4-3.5 1.2-6.9 2.3-10.6 1.1-3.7 2.7-7.9 4.5-11.3 0.7-1.3 1.5-2.4 2.2-3.7 0.2-0.3 0.7-1.2 0.7-1.2-0.6 1.3-1.1 2.6-1.6 3.9-1 2.3-1.8 4.6-2.6 6.9-2.4 7-4.1 14.5-4.5 21.8-0.2 3.3-0.2 6.4-0.1 9.7 0.1 6.8 1.3 13.7 3.5 20.1 1.6 4.6 3.4 8.5 5.9 12.7 2.7 4.4 6 8.7 9.7 12.3 3.6 3.5 7.4 6.6 11.6 9.4 0.6 0.4 2.1 1.2 3.5 1.9 2.1 1.1 4.3 2.1 4.3 2.1-0.1-0.1-2.1-1.2-3.9-2.3-3.9-2.2-7.3-4.7-10.4-7.7-3.3-3.2-6.3-6.9-8.5-10.8-2.8-4.9-4.6-10.4-5.3-16.4-1.1-9.6 0.7-19.6 5.1-28.4 5.1-10.4 13.8-19.2 23.9-25.7 6.7-4.3 15.8-8.9 24.9-10.4 5.1-0.8 11.9-0.7 16.5 1.9 1.1 0.6 2 1.5 2.4 2.8 0.5 1.3 0.4 2.2-0.5 3.4-0.7 0.9-2.2 0.9-3.1 0.3-0.7-0.5-0.8-1.2-0.7-1.9 0.3-1.2 0.9-1.4 1.9-1.8 0.3-0.2 0.5-0.2 0.3-0.3l-0.6-0.3c-1.3-0.6-4.4-0.3-4.4 1.6 0 1.9 1.3 3.5 2.6 4.7 3.9 3.9 9.2 5.8 14.7 5.2 3.9-0.5 6.8-2.7 9-5.7 2.4-3.2 3.6-6.8 2.4-10.7-0.2-0.6-0.4-1.1-0.7-1.6-0.6-1.1-1.5-2.1-2.2-3 0 0 0.1-0.1 0.2-0.3 0.4-0.8 0.7-1.5 1-2.4 1.1-3.2 0.7-6.1-0.9-9-0.3-0.6-0.8-1.2-1.4-1.8-0.4-0.4-0.9-0.7-0.9-0.7v-1c-0.1-1.8-1.4-4.3-2.6-5.7-1.7-2-4.2-3.4-6.7-4.2-1.6-0.5-3.4-0.8-4.8-1.1-0.2 0-0.8-0.1-0.8-0.1-0.2-0.4-0.6-1.4-0.7-2z m-22.1 142c0.8 2.6 1.9 4.9 3.6 6.6 2.5 2.5 6 3.9 10.2 3.8 4.5 0 9-2.9 10.2-7.4 0.1-0.4 0.2-0.7 0.3-1.1 0.5 0.1 1 0.2 1.4 0.4 1.1 0.5 2.3 0.9 3.5 1 1.6 0.1 4.1-0.9 5-2.2 0.3-0.5 0.7-1 0.8-1.6 0.1-0.7-0.1-1.5-0.8-2.1-0.4-0.3-0.8-0.5-1.3-0.5-0.8 0.1-1.6 0.3-2.2 0.8-0.6 0.4-0.8 1.8-0.3 2.3 0.3 0.4 1.2 0.5 1.6 0.1 0.1-0.1 0.5-0.4 0.7-0.5 0.2 0.3 0.2 0.6 0.1 0.8-0.2 0.6-0.9 1.1-1.5 1.2-0.4 0.1-0.8 0-1.2-0.3-0.9-0.6-1.1-1.8-0.9-2.8 0.3-1.6 1.2-2.4 2.8-2.7 1.4-0.3 2.6 0.2 3.7 1.1 0.5 0.5 0.8 0.8 1.6 0.6 4.9-1.8 9.5-3.8 13.9-6.4 4.1-2.5 8-5.5 11.7-8.8 3.1-2.8 6-5.8 8.5-9 5.1-6.6 8.6-12.6 11.3-20.4 3.9-11.8 4.3-25.1 1.8-37.2-1-4.6-2.4-8.7-3.3-10.4 0.2 1 0.4 1.9 0.7 2.8 0.8 3.5 1.5 7 1.9 10.5 0.7 6.1 1.1 12.7 0.4 18.7-0.4 3.5-1.1 6.9-2.1 10.7-1 3.7-2.6 8-4.3 11.4-0.6 1.3-1.5 2.5-2.1 3.7-0.2 0.4-0.6 1.2-0.7 1.2 0.6-1.3 1-2.6 1.5-3.9 0.9-2.3 1.7-4.6 2.5-7 2.3-7 3.8-14.5 4.1-21.9 0.1-3.3 0.1-6.4 0-9.7-0.2-6.8-1.6-13.7-3.8-20.1-1.6-4.6-3.5-8.4-6.1-12.6-2.8-4.4-6.1-8.6-9.9-12.2-3.7-3.5-7.5-6.5-11.7-9.3-0.7-0.4-2.1-1.2-3.6-1.9-2.1-1-4.3-2-4.4-2 0.1 0.1 2.1 1.2 3.9 2.2 3.9 2.1 7.4 4.6 10.5 7.5 3.3 3.1 6.4 6.8 8.7 10.7 2.9 4.9 4.8 10.4 5.6 16.3 1.3 9.6-0.4 19.6-4.6 28.6-5 10.5-13.4 19.5-23.4 26.1-6.6 4.4-15.7 9.2-24.7 10.8-5 0.9-11.9 0.9-16.5-1.6-1.1-0.6-2-1.4-2.5-2.7-0.5-1.3-0.5-2.2 0.5-3.4 0.7-0.9 2.2-1 3.1-0.4 0.7 0.5 0.9 1.2 0.7 1.9-0.3 1.2-0.9 1.4-1.9 1.9-0.3 0.2-0.5 0.2-0.2 0.3l0.6 0.3c1.3 0.6 4.4 0.2 4.4-1.6 0-1.9-1.4-3.4-2.6-4.7-3.9-3.9-9.3-5.7-14.8-4.9-3.9 0.6-6.7 2.8-8.9 5.9-2.3 3.3-3.5 6.9-2.2 10.7 0.2 0.6 0.4 1.1 0.7 1.6 0.6 1.1 1.5 2 2.3 3 0 0-0.1 0.1-0.2 0.3-0.4 0.8-0.6 1.6-0.9 2.4-1 3.2-0.6 6.1 1 9 0.3 0.6 0.8 1.2 1.5 1.8 0.4 0.4 0.9 0.7 0.9 0.7v1c0.1 1.8 1.5 4.3 2.7 5.7 1.7 1.9 4.3 3.4 6.7 4.1 1.7 0.5 3.4 0.8 4.8 1 0.2 0 0.8 0.1 0.8 0.1-0.2 0.1 0.2 1.1 0.4 1.7z m-10.4-70.7L86 532l20.3-21.3L85 490.4l-20.3 21.2z" fill="#004DA1"></path><path d="M238 506.2l8.5-7c3.7 4.4 7.9 9.1 12.9 14.3l-9.6 7.7c-1.5-2.1-3.9-5.1-7.3-9.3-2.1-2.5-3.5-4.4-4.5-5.7zM207.5 468v-12.8H242c0.5-6.2 0.7-13 0.7-20.5H256c0 6.7-0.2 13.5-0.7 20.5h36V468h-34.2c5.9 20.9 18 35.3 36.4 43.2-3.2 3.1-6.6 7.3-10.3 12.7-15.7-9.8-26.7-24.8-33.1-45.2-4.4 16-15.8 31.1-34.2 45.6-0.5-0.5-1.2-1.4-2.2-2.7-2.9-3.6-5.6-6.6-8.1-8.9 20.1-12.1 31.6-27 34.5-44.8h-32.6z m146.7-20.9c-5.4 7.5-12.4 14.3-20.9 20.5h41.5c-8.1-5.9-15-12.7-20.6-20.5z m-5.9-13.1h15.4l-2.6 3.5c8.3 11.8 20.6 21 36.7 27.4-2.5 3.3-5.1 7.2-8.1 11.6-3.7-1.5-7.1-3.3-10.3-5.4 0 1.8-0.1 4.2-0.4 7.3v6.9c-0.5 10.6-4.8 15.8-12.9 15.8-3.4 0.2-7.7 0.4-12.9 0.4-0.3-2.1-0.9-5.1-1.8-9.3-0.3-1.3-0.5-2.3-0.7-3.1 5.1 0.3 8.8 0.4 11 0.4 3.7 0 5.5-1.7 5.5-5v-5.4h-30.5v25.1c0 3.9 2.4 5.9 7.3 6.2h28.3c3.7 0 6.1-1.9 7.3-5.8 0.7-3.1 1.5-6.8 2.2-11.2 0.2 0 0.5 0.1 0.7 0.4 2.9 1.3 6.6 2.8 11 4.6-1.2 5.4-2.4 9.9-3.7 13.5-2 6.4-7 9.7-15 9.7h-35.3c-9.8-0.3-14.7-4.9-14.7-13.9v-34.3c-1.2 0.5-2.9 1.5-5.1 3.1-1 0.5-1.7 0.9-2.2 1.2-1.5-2.6-3.7-5.9-6.6-10-0.5-0.8-0.8-1.3-1.1-1.5 18.4-8.6 31.2-19.3 38.5-32.2z m106 0l13.2 1.5c-0.5 3.1-1.1 6.2-1.8 9.3h32.7v20.1h-12.1v-8.5h-24.6v0.4c-0.3 0-0.4 0.1-0.4 0.4 1.7 8.5 4.9 16.6 9.5 24.3 7.1-5.9 12.9-10.9 17.3-15.1l8.8 11.6c-0.7 0.5-2.9 1.9-6.6 4.2-4.9 3.1-9.1 5.7-12.5 7.7 6.6 6.7 14.8 12 24.6 15.8-0.5 0.8-1.6 2.6-3.3 5.4-2 2.8-3.5 5.3-4.8 7.3-19.1-9.8-32.4-25.5-40-47.1-0.5 1-1.3 2.5-2.6 4.3-1.2 2.1-2.2 3.6-2.9 4.6v27c8.6-3.1 14.8-5.4 18.7-6.9 0 1-0.1 2.4-0.4 4.2-0.3 5.1-0.4 8.2-0.4 9.3-15.4 4.6-25.2 8-29.4 10l-5.5-10.8c3.2-2.6 4.8-6.9 4.8-13.1v-6.2c-4.4 4.1-9.3 8.4-14.7 12.7-2.2-4.6-4.5-9-7-13.1 15.2-9.5 26.2-21.9 33-37.1h-15v13.1h-12.5v-24.5H452c0.8-3.8 1.5-7.4 2.3-10.8z m103.3 40.5l9.9-5.4c4.2 6.7 8.1 13.5 11.8 20.5l-10.7 6.2c-2.4-5.4-6.1-12.5-11-21.3z m0.4-11.2V451h25v-16.6h12.1V451h11v12.4h-11v44.8c0 9.8-4.9 14.9-14.7 15.4-3.7 0.3-8 0.4-12.9 0.4-0.2-1.5-0.7-3.9-1.5-7-0.5-2.3-0.9-4-1.1-5 1.5 0 3.6 0.1 6.3 0.4h5.5c4.2 0 6.3-2.3 6.3-7v-42.1h-25z m-37.5-0.7v-12h11.8v-16.2h11.4v16.2h10.6v12h-10.6v13.5l4-3.5c4.4 4.9 8.1 9.7 11 14.3l-9.2 7.3c-0.5-1-1.5-2.7-2.9-5-1.2-2.1-2.2-3.6-2.9-4.6V524h-11.4v-37.1c-2.7 6.2-5.9 12.1-9.5 17.8-1-5.9-2.2-11.6-3.7-17 5.4-7.5 9.7-15.8 12.9-25.1h-11.5z m140.1 38.2h13.6v-7.3h-13.6v7.3z m-3.3-29.7l6.2 7.3c-2.2 2.1-4.5 3.9-7 5.4h22.8c-1.5-0.8-3.4-2.1-5.9-3.9-1.2-0.8-2.1-1.3-2.6-1.5l5.9-7c5.9 3.3 11.6 7 17.3 10.8v-11.5h-53.3v12.7c2.9-2.1 7-5 12.1-8.9 2.1-1.5 3.5-2.7 4.5-3.4z m-31.6-18.9v-10h34.5c0-0.3-0.1-0.8-0.4-1.5-0.5-1.5-1-3.6-1.5-6.2l14.8-0.5c0 2.6 0.3 5.3 0.7 8.1h34.9v10h-83z m3.3 71.4v-63h17.3c-0.5-0.8-1.2-1.8-2.2-3.1-1.2-1.5-2.1-2.6-2.6-3.1h14.3c0.5 0.5 1.2 1.5 2.2 3.1 1 1.3 1.7 2.3 2.2 3.1h14c0.5-0.5 1.1-1.4 1.8-2.7 1-1 2.1-2.2 3.3-3.5h13.9c-1.7 2.3-3.5 4.4-5.5 6.2h18v47.5c0 9-3.9 13.9-11.8 14.7-3.2 0.5-8.3 0.8-15.4 0.8-0.7-5.2-1.5-8.8-2.2-10.8 2 0.3 5.3 0.4 9.9 0.4 5.1 0 7.7-2.6 7.7-7.7v-16.3l-2.6 3.5c-2.2-1.5-4.4-3.1-6.6-4.6v22.8h-24.2v3.9h-11v-25.6c-0.5 0.5-1.3 1.2-2.6 1.9-1.2 1-2.2 1.8-2.9 2.3-0.3-0.5-1-1.7-2.2-3.5 1.2 1.5 0.9 1-1.1-1.5v35.1H629z m124.3-39.4v-48.3h12.9v72.2h11v-72.2h12.5v49.4c4.9-9.8 9.5-21.2 14-34.4l11.4 5c-2.4 6.4-6.7 16.8-12.9 31.3-1.2 3.1-2.2 5.4-2.9 7l-9.5-4.6v18.5H815v11.6h-86.3v-11.6h24.6V490l-9.9 4.2c-4.7-14.4-9.4-27.5-14.3-39.4l10.7-5c0.7 2.1 2 5.3 3.7 9.7 2.3 5.6 5.6 13.9 9.8 24.7z m158.5 1.5H893c0.5 2.1 1.6 4.6 3.3 7.7 0.5 1 0.9 1.8 1.1 2.3 4.9-3 9.7-6.4 14.4-10z m-30.1 0h-2.9v23.9c1.5-0.8 3.9-1.8 7.4-3.1 1.7-0.8 2.9-1.3 3.7-1.5-3.6-5.4-6.3-11.8-8.2-19.3z m-3-11.2h24.6v-7.7h-24.6v7.7z m0-17.7h24.6v-7.7h-24.6v7.7z m-14.3-11.6v10.4h-16.2c-0.2 0.8-0.7 1.8-1.5 3.1-0.5 1.5-1 2.7-1.5 3.5h16.5v10.4h-7.3v9.3h9.5v10.4h-9.5v13.5c2.7-1.8 5.3-3.5 7.7-5 0.5 3.9 0.9 7.8 1.1 12-4.4 2.6-8.3 5-11.8 7.3-0.7 0.5-1.8 1.4-3.3 2.7-0.7 0.5-1.2 0.9-1.5 1.2l-6.3-8.9c1.7-1.8 2.6-4.4 2.6-7.7v-15.1h-9.5v-10.4h9.5v-9.3h-3.3c-1 1.8-2.2 3.7-3.7 5.8-1-5.4-2.1-10.3-3.3-14.7 5.1-9.8 8.7-19.7 10.7-29.7 4.4 0.8 8.1 1.5 11 2.3-0.3 1-0.6 2.4-1.1 4.3-0.7 2.1-1.2 3.6-1.5 4.6h12.7z m50.3 40.5h-2.6l6.6 10c-1.5 0.8-3.9 2.1-7.3 3.9-3.2 1.8-5.6 3.2-7.4 4.2 4.4 3.6 9.9 6.2 16.5 7.7-1.5 1.5-3.3 4.5-5.5 8.9-0.7 1-1.2 1.8-1.5 2.3-7.8-2.8-14.4-6.9-19.8-12.4-0.3 2.1-0.4 3.7-0.4 5-11 3.6-18.9 6.8-23.5 9.7l-5.2-9.7c1.5-2.1 2.2-5 2.2-8.9v-68.5h47.8v47.8z m44.6-51.7c0.5 0.5 1.3 1.2 2.6 1.9 2 1.3 4.5 3.2 7.7 5.8-6.1 7.5-14.3 15.4-24.6 23.9-1.7-3.3-4.3-7-7.7-10.8 10-7.7 17.4-14.6 22-20.8z m15.4 18.5v-12h45.5v12h-45.5z m-14.3 5.4l10.3 6.6c-2.7 3.9-5.5 7.9-8.4 12v46.7h-12.1V490c-2.7 2.6-5.5 5.3-8.4 8.1-1-3.6-2.6-7.9-4.8-12.7 9-8.3 16.8-17.4 23.4-27.5z m11.4 20.5v-12h52.5v12h-14v29.7c0 9.5-4.4 14.5-13.2 15.1h-7.3c-4.2 0.2-7.3 0.4-9.5 0.4-0.7-4.4-1.7-8.4-2.9-12 2.2 0 5.1 0.1 8.8 0.4h5.1c4.4 0 6.6-2.3 6.6-7v-26.6h-26.1z m-736.9 77.8H223v27.1h-5.9v-27.1H205v-4.6h29.9v4.6z m23.5 17.7v-2.1c-1 0.9-3.3 1.5-6.7 1.8-3.9 0.3-5.8 1.4-5.5 3.4-0.1 1.6 1.4 2.4 4.5 2.4 4.7-0.3 7.3-2.1 7.7-5.5z m7.9 9.3h-5.7c-0.9-0.6-1.4-1.6-1.5-2.9-2 2.2-5.1 3.4-9.3 3.4-6.1-0.1-9.3-2.3-9.5-6.6 0.1-4.6 3.5-7.2 10.2-7.8 4.7-0.4 7.4-0.9 7.9-1.5 0.3-3-1.4-4.3-5.2-4.1-4-0.2-6.3 1.1-6.7 4l-5.5-1.4c1.3-4.9 5.4-7.2 12.4-7 7.2-0.1 10.8 3 10.7 9.2v8.9c0 2.5 0.7 4.5 2.2 5.8z m7 0v-23.4h5.7v23.4h-5.7z m0-26v-5.7h5.7v5.7h-5.7z m36.8 9.4l-5.7 1.2c-0.8-2.5-2.6-3.9-5.3-4-4.4 0-6.6 2.6-6.6 8 0 5.2 2.2 7.8 6.6 7.8 3.3 0.1 5.3-1.5 5.9-4.9l5.7 1.1c-1.4 5.6-5.3 8.3-11.7 8.1-8-0.2-12.2-4.2-12.4-12.1 0.3-7.8 4.4-12 12.3-12.4 5.9 0.2 9.7 2.6 11.2 7.2z m23.5 7.3v-2.1c-1 0.9-3.3 1.5-6.7 1.8-3.9 0.3-5.8 1.4-5.5 3.4-0.1 1.6 1.4 2.4 4.5 2.4 4.7-0.3 7.3-2.1 7.7-5.5z m7.9 9.3h-5.7c-0.9-0.6-1.4-1.6-1.5-2.9-2 2.2-5.1 3.4-9.3 3.4-6.1-0.1-9.3-2.3-9.5-6.6 0.1-4.6 3.5-7.2 10.2-7.8 4.7-0.4 7.4-0.9 7.9-1.5 0.3-3-1.4-4.3-5.2-4.1-4-0.2-6.3 1.1-6.7 4l-5.5-1.4c1.3-4.9 5.4-7.2 12.4-7 7.2-0.1 10.8 3 10.7 9.2v8.9c0 2.5 0.7 4.5 2.2 5.8z m29.4-14.8v14.8h-5.7v-14.4c0-3.5-1.6-5.2-4.7-5.2-4.1 0.3-6.4 2.1-6.7 5.4v14.2h-5.5v-23.4h5.5v2.9c1.6-2.2 4.1-3.4 7.4-3.4 6.7-0.1 9.9 2.9 9.7 9.1z m26.1 4.1v-3.4c-0.3-3.4-2.4-5.1-6-5.3-4.6 0.1-7 2.6-7.1 7.6 0.1 4.7 2.3 7.1 6.6 7.3 4.3 0.1 6.5-2 6.5-6.2z m0-12.5h5.7v19.9c0.3 7.3-4 10.9-13 10.7-4.4 0-7.8-1.1-10.2-3.4l2.9-2.9c2.1 1.2 4.4 1.9 7.1 2 5.3 0.2 7.8-1.8 7.4-6.1-1.4 1.7-3.9 2.6-7.6 2.6-7.1-0.3-10.9-4.1-11.2-11.3 0.3-7.6 4.3-11.6 11.7-11.9 3.4 0.2 5.8 1.3 7.1 3.4v-3z m35.2-3.8v8.9h9.8c5.2 0 7.7-1.6 7.6-4.7-0.1-2.6-2.6-4-7.6-4.1h-9.8z m27.3 27h-7.9l-12.1-13.5h-7.2v13.5h-5.9v-31.8h16.8c8 0.2 12.3 3.2 12.6 9 0 5.2-3.2 8.2-9.5 9l13.2 13.8z m22.8-23.4h5.5v23.4h-5.5v-2.4c-1.6 1.8-4.1 2.8-7.4 2.9-6.7 0.1-9.9-2.8-9.7-8.7v-15.1h5.7v14.7c-0.1 3.6 1.5 5.3 4.8 5.2 4-0.3 6.2-2.1 6.6-5.4v-14.6z m30.8 1.1l-2.4 4.4c-0.9-0.7-2.1-1.1-3.6-1.1-3.1-0.1-4.6 2-4.5 6.4v12.5h-5.7v-23.4h5.7v3.4c0.9-2.3 2.7-3.6 5.2-3.8 2.2 0.1 4 0.6 5.3 1.6z m22.6 13v-2.1c-1 0.9-3.3 1.5-6.7 1.8-3.9 0.3-5.8 1.4-5.5 3.4-0.1 1.6 1.4 2.4 4.5 2.4 4.8-0.3 7.4-2.1 7.7-5.5z m8 9.3H538c-0.9-0.6-1.4-1.6-1.5-2.9-2 2.2-5.1 3.4-9.3 3.4-6.1-0.1-9.3-2.3-9.5-6.6 0.1-4.6 3.5-7.2 10.2-7.8 4.7-0.4 7.4-0.9 7.9-1.5 0.3-3-1.4-4.3-5.2-4.1-4-0.2-6.3 1.1-6.7 4l-5.5-1.4c1.3-4.9 5.4-7.2 12.4-7 7.2-0.1 10.8 3 10.7 9.2v8.9c-0.1 2.5 0.7 4.5 2.2 5.8z m6.7 0v-31.7h5.7v31.7h-5.7z m60.3-22.9l-6.2 1.5c-1.6-3.9-4.7-5.9-9.1-6.1-6.8 0.3-10.4 4.2-10.7 11.8 0.1 7.6 3.6 11.6 10.4 11.8 5.4 0.1 8.8-2.4 10-7.5l6.4 1.4c-2.1 7.1-7.5 10.7-16.2 10.5-10.9-0.2-16.5-5.6-16.8-16.2 0.2-10.7 6-16.2 17.3-16.5 7 0.1 12 3.2 14.9 9.3z m19.5 19.6c4.4-0.1 6.6-2.8 6.7-8.1-0.1-5.3-2.4-8-6.7-8.1-4.6 0.1-7 2.9-7.1 8.3 0.2 5 2.5 7.7 7.1 7.9z m0.4-20.5c7.9 0.3 12.1 4.4 12.4 12.2-0.1 8-4.4 12-13 12.2-8-0.4-12.3-4.3-12.8-11.8 0.3-8.2 4.7-12.4 13.4-12.6z m56.3 9v14.8h-5.7v-14.4c0.1-3.6-1.3-5.3-4.1-5.1-3.4 0.2-5.3 1.9-5.5 5.2v14.2h-5.7v-14.4c0.1-3.6-1.3-5.3-4.1-5.1-3.2 0.2-5.1 1.9-5.5 5.1v14.4h-5.7V560h5.7v2.6c1.5-2 3.5-3.1 6-3.2 3.9 0 6.7 1.3 8.3 3.8 1.8-2.5 4.1-3.8 6.9-3.8 6.2-0.1 9.4 2.9 9.4 9z m45.1 0v14.8h-5.7v-14.4c0.1-3.6-1.3-5.3-4.1-5.1-3.4 0.2-5.3 1.9-5.5 5.2v14.2H711v-14.4c0.1-3.6-1.3-5.3-4.1-5.1-3.2 0.2-5.1 1.9-5.5 5.1v14.4h-5.7V560h5.7v2.6c1.5-2 3.5-3.1 6-3.2 3.9 0 6.7 1.3 8.3 3.8 1.8-2.5 4.1-3.8 6.9-3.8 6.2-0.1 9.4 2.9 9.4 9z m20.2-4.4c-3.8 0.3-6 2-6.6 5.2h12.9c-0.4-3.4-2.5-5.1-6.3-5.2z m6.6 11.4l5.9 1.4c-1.6 4.8-5.7 7.1-12.3 7-8.4-0.3-12.8-4.3-13.1-11.9 0.3-7.9 4.7-12.1 13-12.5 8.2 0.2 12.4 4.4 12.6 12.7v1.4h-19.5c0.6 4 2.9 6.1 6.9 6.3 3.5 0 5.7-1.4 6.5-4.4z m29.7-14.5l-2.4 4.4c-0.9-0.7-2.1-1.1-3.6-1.1-3.1-0.1-4.6 2-4.5 6.4v12.5h-5.7v-23.4h5.7v3.4c0.9-2.3 2.7-3.6 5.2-3.8 2.3 0.1 4 0.6 5.3 1.6z m28.2 5.7l-5.7 1.2c-0.8-2.5-2.6-3.9-5.3-4-4.4 0-6.6 2.6-6.6 8 0 5.2 2.2 7.8 6.6 7.8 3.3 0.1 5.3-1.5 5.9-4.9l5.7 1.1c-1.4 5.6-5.3 8.3-11.7 8.1-8.1-0.2-12.2-4.2-12.4-12.1 0.3-7.8 4.4-12 12.3-12.4 5.9 0.2 9.7 2.6 11.2 7.2z m6.7 16.6v-23.4h5.7v23.4h-5.7z m0-26v-5.7h5.7v5.7h-5.7z m31.3 16.7v-2.1c-1 0.9-3.3 1.5-6.7 1.8-3.9 0.3-5.8 1.4-5.5 3.4-0.1 1.6 1.4 2.4 4.5 2.4 4.8-0.3 7.4-2.1 7.7-5.5z m8 9.3H857c-0.9-0.6-1.4-1.6-1.5-2.9-2 2.2-5.1 3.4-9.3 3.4-6.1-0.1-9.3-2.3-9.5-6.6 0.1-4.6 3.5-7.2 10.2-7.8 4.7-0.4 7.4-0.9 7.9-1.5 0.3-3-1.4-4.3-5.2-4.1-4-0.2-6.3 1.1-6.7 4l-5.5-1.4c1.3-4.9 5.4-7.2 12.4-7 7.2-0.1 10.8 3 10.7 9.2v8.9c-0.1 2.5 0.7 4.5 2.2 5.8z m6.7 0v-31.7h5.7v31.7h-5.7z m44.6-14h-9.5v9.6h10c4.8 0 7.3-1.6 7.3-4.9-0.3-3-2.9-4.6-7.8-4.7z m-9.5-13v8.4h8.8c4.5-0.1 6.8-1.6 6.9-4.4-0.2-2.5-2.5-3.9-6.7-4h-9z m10.5 27h-16.2v-31.7h15.4c7.6 0.3 11.6 3.1 12.1 8.3-0.1 3.1-1.6 5.2-4.5 6.6 3.9 1.5 5.9 4.1 6 7.8 0 6-4.3 9-12.8 9z m37.8-9.3v-2.1c-1 0.9-3.3 1.5-6.7 1.8-3.9 0.3-5.8 1.4-5.5 3.4-0.1 1.6 1.4 2.4 4.5 2.4 4.8-0.3 7.4-2.1 7.7-5.5z m8 9.3h-5.7c-0.9-0.6-1.4-1.6-1.5-2.9-2 2.2-5.1 3.4-9.3 3.4-6.1-0.1-9.3-2.3-9.5-6.6 0.1-4.6 3.5-7.2 10.2-7.8 4.7-0.4 7.4-0.9 7.9-1.5 0.3-3-1.4-4.3-5.2-4.1-4-0.2-6.3 1.1-6.7 4l-5.5-1.4c1.3-4.9 5.4-7.2 12.4-7 7.2-0.1 10.8 3 10.7 9.2v8.9c-0.1 2.5 0.7 4.5 2.2 5.8z m29.4-14.8v14.8h-5.7v-14.4c0-3.5-1.6-5.2-4.7-5.2-4.1 0.3-6.4 2.1-6.7 5.4v14.2h-5.5v-23.4h5.5v2.9c1.6-2.2 4.1-3.4 7.4-3.4 6.7-0.1 9.9 2.9 9.7 9.1z m25.7 14.8l-8.1-11-3.1 2.6v8.4H999v-31.7h5.7v16.8l9.8-8.7h8.1l-11.1 9.3 11.4 14.2h-7z" fill="#231916"></path></svg>