<svg viewBox="0 0 1024 1024" version="1.1" xmlns="http://www.w3.org/2000/svg"><path d="M224 0h576c123.6 0 224 100.4 224 224v576c0 123.6-100.4 224-224 224H224c-123.6 0-224-100.4-224-224V224C0 100.4 100.4 0 224 0z" fill="#FFFFFF"></path><path d="M594.8 289.2c-14.8-2.4-30-4-45.2-5.2-16.8 16.8-36.4 36-56.4 55.6-108.4 107.2-112 111.2-113.2 112.8-24.4 29.2-24.4 67.6-12.4 90 11.2 20.8 29.6 34.4 50.8 38.4 25.6 4.8 53.6-3.6 76.8-23.2 3.2-2.4 10.4-10.4 28.4-30 13.2-14 32.8-35.2 36.4-38.4 8.8-7.2 18-12 26.4-14 19.2-4.8 35.6 3.6 44.4 22.4 10.4 21.2-2.4 42.4-14.8 56-6.4 7.2-101.2 100.4-179.2 177.2 14.8 2.4 30 4 45.6 4.8 61.2-60.4 152.4-150 159.6-158 28-30.8 35.6-64.8 20.8-95.6-16-33.6-49.2-50-84.4-41.2-13.2 3.2-26.8 10.4-40 20.8-4.4 3.6-15.6 15.2-40 41.6-10.4 10.8-22.8 24.4-25.6 26.8-15.2 12.4-32.8 18.4-47.6 15.6-11.2-2-20.4-9.2-26.8-20.8-5.6-10-6.4-32 8.4-50 7.6-8 128-126.8 188-185.6" fill="#B4B4B3"></path><path d="M631.6 296.8c128.4 32 220 115.2 220 212.4 0 122.4-144.4 222-325.2 226.4 60-58.8 132-129.6 138.8-137.2 36.8-40.4 46.4-88 26-130.4-22.4-46.8-70.8-70-120-58.4-18 4.4-35.6 13.2-52.4 26.8-6 4.8-15.2 14.4-43.6 44.8-8.4 8.8-30.8 32.4-31.6 33.2-2 1.6-4.8 2.8-7.6 2.8-6.4 0-11.6-5.2-11.6-12 0-3.2 1.2-6 3.2-8 0.8-0.4 146.8-144.4 204-200.4z m-30.8 228.4s-125.6 122.8-202.8 198C266.4 691.6 172 608.4 172 510c0-123.2 148.4-223.2 333.2-226-11.2 10.8-23.2 22.4-34.8 34-111.2 108-114.4 111.6-116.8 114.8-35.2 42-32.8 94.4-15.6 125.2 16 28.8 42 48 73.2 54 35.2 6.4 72.8-4.4 103.6-30 4.4-3.6 10-9.2 31.6-32.4 11.2-11.6 38.8-40 39.2-40.4 2-2.8 5.2-4.8 9.2-4.8 6 0 11.2 4.8 11.2 11.2-0.4 4-2.4 7.6-5.2 9.6z" fill="#0068B6"></path></svg>