<svg viewBox="0 0 1024 1024" version="1.1" xmlns="http://www.w3.org/2000/svg"><path d="M368.6 532.6v3.9c0 0.9-0.3 1.7-0.8 2.2-0.5 0.5-1.1 0.8-1.8 0.8-0.6 0-1.2-0.2-2-0.5l-0.3-0.2c-0.9-0.4-2.7-1.1-5.5-2-4.2-1.3-8.6-4-13.1-8.2-4.3-3.9-8-8.5-11.1-13.7l-1-1.6c-1-1.6-1.7-2.4-2.1-2.4-0.4 0-0.8 0.2-1.1 0.6l-0.1 0.2c-0.4 0.5-0.9 0.9-1.5 1.2l-0.3 0.1c-0.7 0.3-2.1 0.6-4 0.9l-1 0.2c-1.8 0.3-3.1 0.4-4.1 0.4-1.1 0-1.7-0.2-1.7-0.5s0.3-0.8 1-1.4l0.9-0.8c6.4-5.4 9.3-9 8.6-10.8-2.2-6.8-4.4-14.3-6.4-22.4-0.2-1.1-0.7-1.6-1.4-1.6l-5.6 0.9c-3.8 0.6-7.5 1.6-11.3 3.1l-0.9 0.4c-3.3 1.3-5.1 2.4-5.5 3.2-0.5 0.9-0.7 1.6-0.7 2.2s0.5 0.9 1.4 0.9c1.4 0 4-0.6 7.8-1.9l1.6-0.5c3.1-1.1 5.7-2.1 7.8-3 0.4-0.1 0.9-0.2 1.4-0.2 1.8 0 3.1 0.9 3.9 2.6 0.8 1.7 1.2 2.9 1.2 3.7 0 0.7-0.5 1.1-1.6 1.2l-1.2 0.1c-2.2 0.2-3.6 0.4-4.3 0.5-0.7 0.2-1.3 0.7-1.8 1.6-0.5 0.9-0.7 1.6-0.7 2.3s0.4 1 1.3 1h0.1c0.2 0 0.7-0.1 1.3-0.2 0.7-0.1 1.2-0.3 1.3-0.7v-0.1c0.3-1 0.7-1.5 1.2-1.5s1.5 0.4 2.9 1.2c1.4 0.8 2.2 1.5 2.2 2s-0.3 1.2-0.8 1.9c-1.3 1.8-2.1 3.4-2.4 4.7-0.9 3.4-2.7 6.9-5.4 10.4-0.4 0.4-0.5 0.8-0.5 1.1 0 0.3 0.2 0.5 0.5 0.8l2.4 1.7c0.6 0.4 1.1 0.8 1.6 1.2l1 0.8c1.2 0.9 1.9 1.5 2.1 1.7 0.1 0.2 0.3 0.9 0.5 2 0.2 1.2 0.3 2.3 0.3 3.3s-0.2 2-0.7 2.9c-0.4 0.9-0.9 1.4-1.3 1.4s-1.2-0.5-2.2-1.6l-0.8-1c-1.8-2-3.3-3.6-4.4-4.7l-0.8-0.8c-1.1-1-1.8-1.6-2.2-1.8-0.5-0.3-1-0.4-1.5-0.4s-1.5 0.4-3 1.3-2.4 1.9-2.8 3c-0.1 0.3-0.4 0.5-0.8 0.7-0.4 0.1-1.4 0.3-3.2 0.6-1.8 0.3-3.2 0.4-4.4 0.4-1.2 0-2.6-0.4-4.2-1.1-1.7-0.7-2.5-1.2-2.5-1.6 0-0.3 0.6-0.6 1.7-0.8h0.3c1.3-0.2 3.5-1 6.5-2.3l0.9-0.4c2.5-1.1 4-1.9 4.7-2.5 0.7-0.6 1.1-1.3 1.1-2s-0.5-1.3-1.5-1.8c-0.9-0.5-1.6-0.8-2.4-0.9h-0.3c-1.4-0.1-2.2-0.6-2.2-1.5 0-0.7 0.3-1.5 0.9-2.3l0.2-0.3c0.7-0.9 1.1-1.6 1.1-2.1s-0.8-0.8-2.3-0.8c-1.5 0-2.6 0.2-3.1 0.5s-1 1.1-1.2 2.2-0.4 2.3-0.4 3.5-1.7 3-5 5.2-5.8 3.4-7.2 3.4c-0.7 0-1-0.3-1-0.9 0-0.6 1.8-3.1 5.4-7.5 1.7-2.1 2.9-4.4 3.7-6.9 0.8-2.5 1.5-7.1 2-13.9l0.5-6.5c0.2-3.4 0.4-6 0.5-7.8 0.1-2.8 1-4.1 2.7-4.1 0.6 0 1.4 0.2 2.5 0.7l0.4 0.2c1.3 0.5 2.2 0.8 2.8 0.8h0.3c1.2-0.1 4.6-0.8 10.4-2.1l2.6-0.6c4.6-1.1 7.1-1.8 7.3-2.2 0.3-0.4 0.5-1 0.5-1.6l-1.5-8-0.5-2.4c-0.5-2.2-0.8-3.7-1.1-4.5-0.3-1-0.8-2.2-1.6-3.6l-0.3-0.5c-0.9-1.6-1.4-2.9-1.4-3.9 0-1.9 1.6-2.8 4.7-2.8 1.2 0 2 0.2 2.6 0.7 0.5 0.4 0.8 1.2 0.9 2.2v0.3c0.1 1.2 0.5 3.6 1.4 7.1l2.3 9.7 0.3 1.1c0.5 2.2 0.8 3.4 1 3.6 0.2 0.2 0.5 0.3 0.8 0.3l1.3-0.1c1.2 0 2.8 0.7 4.8 2s2.9 2.6 2.9 4c0 2.5-0.9 3.7-2.7 3.5h-0.2c-0.5-0.1-1-0.1-1.4-0.1-1.7 0-2.5 0.6-2.5 1.8 0 0.6 0.2 1.3 0.5 2.1 1.8 4 2.9 7.3 3.4 9.9l0.2 1.2c0.4 2.3 1 3.4 1.7 3.4 0.2 0 0.7-0.6 1.5-1.7 0.7-1 1.3-2 1.8-3.1l0.3-0.7c0.6-1.4 1.4-2.6 2.3-3.8 1-1.2 1.9-1.7 2.7-1.7s1.8 0.5 2.9 1.5c1.2 1 1.7 1.7 1.7 2.2 0 0.4-0.2 0.8-0.7 1.3l-0.2 0.2c-0.6 0.4-1.4 2-2.5 4.8l-0.8 2.2c-0.8 2-1.4 3.3-1.8 3.9-0.5 0.8-1.1 1.5-2 2.2-0.9 0.7-1.5 1.2-2 1.8-0.5 0.5-0.7 1.2-0.7 1.9 0 2.2 1.9 5.8 5.8 10.6l0.4 0.5c4.2 5.1 7.7 8.5 10.5 10.1l0.8 0.4c2.4 1.3 3.9 2 4.5 2 0.7 0 1.1-0.2 1.3-0.6l0.1-0.2c0.2-0.6 0.5-1.9 1-3.9 0.5-2.4 0.9-4.8 1.1-7.5l0.1-1c0.2-2.7 0.4-7 0.6-12.8 0.1-1.4 0.3-2.2 0.8-2.2 0.9 0 2 2.7 3.4 8.2 0.9 5.2 1.6 13.1 1.6 23.6z m-64.1-38.5c0-1.1-0.4-1.6-1.1-1.6-0.7 0-1.5 0.2-2.5 0.6l-0.4 0.2c-1.1 0.5-2.6 1-4.4 1.4-1.8 0.4-2.7 1.4-2.7 2.8s0.7 2.2 2.1 2.2 3.3-0.4 5.5-1.2 3.5-2.4 3.5-4.4z m2.2 15.5c0.8 0 1.8-0.9 2.9-2.6l0.4-0.6c0.9-1.4 1.3-2.3 1.3-2.6 0-0.4-0.3-0.7-1-0.7s-1.4 0.1-2.3 0.4c-0.9 0.3-1.4 0.6-1.6 1.1-0.2 0.4-0.4 0.8-0.7 1.1l-0.2 0.3c-0.4 0.5-0.6 0.9-0.6 1.4s0.2 0.9 0.5 1.5c0.3 0.4 0.8 0.7 1.3 0.7z m40.4-50.5c0 0.4-0.3 1-0.9 1.9-0.6 0.9-1.4 1.4-2.4 1.4-0.8 0-1.5 0-2.3-0.1l-0.8-0.1c-0.8-0.1-1.6-0.1-2.4-0.2h-0.8c-1 0-1.7-0.2-2.1-0.5-0.3-0.3-0.8-1.3-1.4-3-0.6-1.7-0.9-3.1-0.9-4.4s0.4-2.4 1.1-3.3c0.8-0.9 1.4-1.4 1.8-1.4 0.4 0 0.8 0.3 1.3 0.8l0.2 0.2c0.5 0.6 1.8 1.6 4 3.2l1.2 0.8c3 2.1 4.4 3.6 4.4 4.7z m105.4 0.5c1.4 0 2.3 0.2 2.7 0.6 0.4 0.4 0.7 1.1 0.7 2.2s-0.2 1.9-0.7 2.3c-0.4 0.4-2.1 1.4-5.1 2.9l-4.3 2.2c-2.2 1.1-3.8 1.9-4.9 2.4-1.6 0.8-2.9 1.1-3.9 1.1s-3.3-0.9-6.8-2.8c-0.4-0.2-0.8-0.3-1.2-0.3s-0.8 0.3-1.3 0.9c-4.7 5.9-9.2 8.8-13.5 8.8-0.7 0-1-0.2-1-0.5 0-0.4 0.4-1 1.2-2 3.6-4 7.4-9 11.4-14.9l0.7-1.1c4.1-6.2 6.4-10.3 6.8-12.4v-0.2c0.1-1.2 0.7-1.7 1.7-1.7s2.4 0.6 4.2 1.9 2.7 2.3 2.7 3c0 0.7-0.7 1.7-2 3l-0.3 0.3c-1.3 1.3-2.7 2.8-4 4.5l-0.5 0.7c-1.6 2-2.3 3.2-2.3 3.5 0 0.3 0.3 0.4 1 0.4 1.8 0 3.6-0.4 5.4-1.2 6-2.4 10.3-3.6 13.3-3.6z m-42.4 10.6c0 2-0.2 3.3-0.5 3.9-0.4 0.5-1 0.8-1.8 0.8-2.2 0-4.2-0.8-6.2-2.3-2-1.6-2.9-3.5-2.9-5.9 0-0.7 0.2-2.1 0.6-4.2 0.4-2.1 1.1-3.4 2.1-4.1 1-0.7 1.6-1 2-1s0.9 0.4 1.6 1.3 1.7 2.1 2.7 3.6c1 1.5 1.7 2.8 2.1 4s0.3 2.4 0.3 3.9z m66.8 33.6c0 1.1-0.2 1.8-0.7 2.1-0.4 0.3-1 0.5-1.6 0.5-0.7 0-1.8-0.5-3.4-1.4-1.5-0.9-4.2-1.6-7.8-2.3l-1.6-0.3c-3.4-0.6-5.6-0.9-6.4-0.9-0.9 0-1.4 0.2-1.7 0.7-0.2 0.4-0.7 2.4-1.4 6l-0.9 4.4c-0.3 1.3-0.4 2.1-0.4 2.2 0 0.2 0.2 0.4 0.7 0.6l0.5 0.2c0.6 0.2 1.5 0.6 2.7 1.1 1.3 0.6 2.5 0.9 3.7 1h0.4c1.3 0 2.3 0.5 2.8 1.5s0.8 2.5 0.8 4.6v0.9c0 1.6-0.1 2.8-0.3 3.6-0.2 0.9-0.6 1.4-1.2 1.4-0.5 0-1.4-0.4-2.5-1.2l-0.3-0.2c-1.3-0.9-3.1-1.8-5.4-2.7l-1.1-0.4c-1.6-0.6-2.7-0.9-3.1-0.9-0.5 0-0.9 0.3-1.2 1l-0.1 0.2c-1.2 2.5-2.4 4.6-3.6 6.5l-0.4 0.6c-1.2 1.8-2.1 3.4-2.5 4.7l-0.1 0.3c-0.4 1.4-0.9 2.1-1.4 2.1-0.5 0-1-0.2-1.7-0.6l-0.6-0.4c-0.9-0.5-2.3-1.3-4.2-2.2-2.2-1.1-4.7-2.8-7.3-5.2l-0.7-0.6c-2.2-2-3.3-3.3-3.3-4 0-0.2 0.1-0.3 0.4-0.3s1 0.3 2.1 0.9 2.7 1.1 4.7 1.5l1.4 0.3c1.2 0.2 2 0.3 2.5 0.3 1.7 0 3.3-1.2 4.7-3.5l0.6-1c1-1.7 1.5-2.8 1.5-3.3s-0.4-0.9-1.1-1l-10.1-2.2-1.3-0.4c-5.3-1-9.2-1.6-11.8-1.6-0.9 0-1.7 0.1-2.4 0.2l-0.3 0.1c-0.7 0.2-1.2 0.3-1.7 0.3-0.9 0-1.3-0.3-1.3-1s0.3-1.7 0.8-3c0.5-1.2 1.2-2.2 2.1-3l0.3-0.2c1.1-0.8 2.2-2.2 3.5-4.2l0.4-0.6c1-1.6 1.5-2.6 1.5-2.9 0-0.3-0.2-0.5-0.5-0.5s-1.4 0.2-3.2 0.5l-1.6 0.3c-1.8 0.4-2.9 0.7-3.1 0.9-0.3 0.3-0.5 0.7-0.7 1.4-1.7 7.9-4 13.7-6.9 17.5l-0.6 0.8c-2.6 3.3-4.3 4.9-5.2 4.9-0.4 0-0.8-0.3-1.4-0.9-0.5-0.6-1.5-2.3-3-5.1-1.4-2.8-2.4-5.1-2.7-6.8l-0.1-0.4c-0.3-1.9-0.5-5.4-0.5-10.5 0-3.4 0.3-6.2 0.8-8.6l0.1-0.5c0.6-2.5 1.2-5.5 1.7-9 0.3-2.3 1-3.5 2.2-3.5 1.2 0 2.7 0.4 4.6 1.3 1.8 0.9 2.8 1.8 2.8 2.9 0 1-0.8 2.1-2.5 3.5l-0.3 0.3c-1.9 1.5-3.6 3.9-4.9 7.3-1.4 3.4-2.1 6.8-2.1 10.4s0.5 5.8 1.4 6.7 1.9 1.4 2.9 1.4c1.7 0 3.6-1.5 5.6-4.5 2-3 3.4-5.5 4-7.7l0.5-1.8c3-10 4.9-15 5.9-15 0.2 0 0.3 0.3 0.3 1 0 0.6-0.1 1.7-0.4 3.5l-0.5 3c-0.1 0.8-0.2 1.2-0.2 1.3 0 0.7 0.3 1 0.8 1s1.4-0.1 2.7-0.3c1.1-0.2 2.1-0.4 2.9-0.7l0.4-0.1c0.8-0.3 1.5-0.5 2.3-0.7l0.6-0.1c1-0.2 1.6-0.5 2-0.9 0.3-0.4 0.8-1.5 1.4-3.3 0.6-1.8 1.1-3.6 1.4-5.5 0.3-1.9 0.6-3.1 1-3.5 0.4-0.4 1.9-1 4.5-1.7l7.9-2.3c2.6-0.8 5-1.2 7.2-1.2s4.5 0.2 7.1 0.7l0.9 0.2c2 0.4 3.3 0.7 3.8 1 0.5 0.3 0.8 0.7 0.8 1.1 0 0.3-0.1 0.7-0.3 1l-0.1 0.2c-0.8 1-1.3 3.1-1.6 6.3l-0.7 4c0 0.5 0.3 0.9 0.8 1.1 0.5 0.2 2 0.5 4.6 1l0.4 0.1c2.8 0.5 5 0.7 6.8 0.7l3.3-0.3c0.7 0 1.4 0.2 2 0.6 0.6 0.4 0.9 0.9 1.1 1.4l0.3 1c0.6 2.2 1.1 3.7 1.5 4.5l0.1 0.2c0.2 0.3 0.5 1.2 0.5 2.1z m-34.5-11.1h0.5c0.2 0 0.3 0 0.6-0.1 0.6-0.1 1.3-0.1 2.1-0.1s1.2-0.6 1.2-1.8c0-3.4-0.3-5.7-1-6.8-0.7-1.2-2-1.7-3.9-1.7s-4.1 0.3-6.4 1c-2.4 0.7-3.7 1.2-4.2 1.7-0.4 0.4-0.7 1.2-1 2.4l-0.1 0.4c-0.3 1.3-0.8 2.8-1.5 4.5-0.1 0.4-0.2 0.7-0.2 1.1s0.3 0.6 0.9 0.6l2.7-0.3c0.8-0.1 1.3-0.2 1.6-0.4 0.2-0.2 0.4-0.9 0.7-2l0.1-0.6c0.3-1.5 0.8-2.7 1.6-3.6 0.8-0.9 1.5-1.4 2-1.4 0.2 0 1 0.4 2.5 1.2 1.4 0.8 2.2 1.6 2.2 2.3s-0.1 1.4-0.4 2.1c-0.3 0.7-0.4 1.1-0.4 1.4s0.1 0.1 0.4 0.1z m-17.2 18.7c1.1 0 2.3-0.8 3.5-2.3 1.3-1.6 2.2-3.1 2.7-4.8l0.2-0.7c0.4-1.2 0.5-2.1 0.5-2.5 0-0.5-0.4-0.8-1.2-0.8h-0.9c-2.1 0-3.5 0.2-4.1 0.4-0.7 0.3-1.2 0.8-1.6 1.4l-0.4 0.9c-1.2 2.3-2 3.8-2.6 4.6l-0.1 0.1c-0.7 0.8-1 1.5-1 2.1 0 0.6 0.7 1 2 1.2 1.2 0.2 2.3 0.4 3 0.4zM442 513c0.7 0 1.2-0.3 1.5-0.8l0.1-0.2c0.3-0.7 0.6-2.2 1.1-4.6l0.3-1.7c0.3-1.7 0.5-2.8 0.5-3.3 0-0.7-0.2-1.1-0.6-1.4-0.3-0.2-1.3-0.3-2.8-0.5l-0.8-0.1c-2-0.1-3.5-0.2-4.5-0.2s-1.5 0.3-1.5 0.9 0.2 1.2 0.5 1.7 0.8 0.9 1.3 1.2l0.3 0.1c0.7 0.3 1.1 1 1.1 1.9 0 0.9-0.3 2-1 3.3l-0.4 0.7c-0.4 0.8-0.6 1.3-0.6 1.5 0 0.5 0.3 0.8 0.9 0.8 0.5 0 1.2 0.1 2 0.3l1 0.2c0.8 0.1 1.3 0.2 1.6 0.2z m102.4-56.1c0 0.9-0.4 1.6-1.3 2.1s-1.7 0.7-2.4 0.7-1.3-0.1-1.6-0.2l-1.5-0.6c-3.1-1.3-5.2-2.1-6.4-2.5h-0.2c-1.3-0.4-2-0.7-2.3-1.1-0.2-0.3-0.3-0.8-0.4-1.5v-0.3c0-0.8 0.1-2.4 0.3-4.9v-0.5c0.2-2.7 0.7-4.5 1.4-5.3 0.7-0.8 1.4-1.2 2.1-1.2 0.7 0 1.4 0.8 2.1 2.3l0.1 0.3c0.7 1.6 1.9 3 3.4 4.3l0.4 0.3c4.3 3.4 6.3 6 6.3 8.1z m34 14.3c0 1.3-0.1 2.2-0.3 2.6-0.2 0.4-0.7 0.7-1.3 0.7-0.6 0-1.5-0.3-2.7-0.8l-0.7-0.3c-4.3-1.9-9.8-2.8-16.4-2.8-3.2 0-6.1 0.2-8.7 0.6l-0.9 0.1c-2.1 0.4-3.5 0.7-4 1.1-0.7 0.4-1.1 1.3-1.4 2.5-0.3 1.2-0.4 2.2-0.4 3 0 0.8 0.5 1.1 1.4 0.9 3.1-0.7 6-1 8.6-1 4.3 0 8 0.9 11.1 2.8l0.7 0.5c2.6 1.7 3.9 2.9 3.9 3.8 0 0.4-0.3 0.8-1 1.3l-0.2 0.2c-0.8 0.5-1.3 1-1.6 1.5-0.3 0.4-0.5 1.5-0.7 3.3l-0.2 2c-0.2 1.7-0.5 3.9-0.9 6.5l-0.3 2.1c-0.7 4.3-1.2 7.1-1.6 8.3-0.4 1.2-0.6 2.2-0.6 3 0 0.8-0.1 1.2-0.2 1.4-0.1 0.2-0.4 0.3-0.9 0.3h-0.3c-1.1-0.1-3-0.4-5.9-1.1-3.2-0.8-6.5-1.9-9.9-3.5-0.7-0.3-1.1-0.4-1.4-0.4-0.3 0-0.5 0.3-0.8 0.9-0.2 0.6-0.5 2.2-0.8 4.7-0.3 2.4-0.4 4.3-0.3 5.9v0.4c0.1 1.6 0.2 3.1 0.2 4.3l-0.4 11.1c0 0.9 0 1.7 0.1 2.4v0.3c0.1 0.7 0.2 1.4 0.2 2 0 1.8-0.7 2.7-2.2 2.7-0.4 0-1.1-0.1-2-0.4-0.9-0.3-1.5-0.6-1.8-1.1-0.3-0.5-0.4-1.6-0.3-3.4l0.2-1.6c0.4-4 0.6-7.2 0.6-9.8 0-2.6-0.1-5.4-0.4-8.5l-0.3-2.9c-0.2-2.2-0.3-4-0.4-5.3v-1.4-20.6c0-0.8-0.1-1.3-0.2-1.6-0.1-0.4-0.4-0.5-0.9-0.5-0.4 0-1.4 0.2-3 0.5-1.6 0.4-2.9 1-3.9 2s-1.6 1.9-1.8 2.7c-0.2 0.7-0.4 1.8-0.7 3.5l-0.1 0.9c-0.3 2.1-0.4 3.7-0.4 4.9 0 1.2 0.1 2.4 0.4 3.6 0.3 1.2 0.4 2.2 0.4 3s-0.3 1.7-0.8 2.6-1 1.4-1.5 1.4c-1.1 0-2.5-2.4-4.3-7.2-1.8-4.8-2.7-10.4-2.7-16.8 0-1.4 0.2-2.2 0.6-2.6 0.4-0.3 2.5-1.1 6.3-2.2l2.8-0.8c2.5-0.7 4.5-1.2 5.9-1.5l1.5-0.3c1.1-0.3 1.8-0.5 2-0.6 0.3-0.2 0.4-0.7 0.4-1.5s-0.2-1.7-0.5-2.7-0.7-1.6-1-1.8c-0.3-0.2-1.2-0.2-2.6-0.1h-0.3c-1.7 0.1-3.4 0.2-5.1 0.2l-3-0.1c-1 0-2.5 0.3-4.3 1-1.6 0.6-3.3 1-4.9 1.3l-0.7 0.1c-1.8 0.2-3.6 0.7-5.4 1.4-1.6 0.6-2.9 1.3-3.8 2l-0.3 0.2c-0.9 0.8-1.7 1.2-2.4 1.2-0.6 0-1.2-0.8-1.7-2.4l-0.1-0.3c-0.5-1.6-0.9-2.9-1.4-3.9l-0.1-0.3c-0.5-0.9-0.8-1.6-0.8-2.1 0-1.2 0.9-1.8 2.8-1.8l2.2 0.1c1.3 0 2.8-0.2 4.6-0.5l0.7-0.2c3-0.7 7.3-1.4 13-2.3l5.1-0.7c4.9-0.7 7.9-1.3 9.1-1.6 4.4-1.4 11.5-2.2 21.3-2.5l1.5-0.1c1.9-0.1 4.3-0.3 7.1-0.5l10.8-1c2.6 0 4.3 1.3 5 3.8 0 2 0.4 4.1 0.4 5.8z m-24 19c0-2.2-0.7-3.9-2.1-5.2-1.4-1.3-3.1-2-5.1-2-1 0-2.1 0.2-3.1 0.5-1.1 0.4-1.8 0.7-2.1 1.1-0.3 0.3-0.4 1-0.4 2.1v0.3c0 1.1-0.1 2.3-0.3 3.7l-0.1 0.6c-0.3 1.6-0.4 3-0.4 4.2s0.1 2.4 0.2 3.6l0.2 1.7c0.1 0.5 0.1 1 0.2 1.3 0.1 0.8 0.7 1.4 1.9 2 1.2 0.5 2.6 0.8 4.2 0.8s3-0.5 4-1.6 1.8-3.1 2.2-6c0.4-2.9 0.7-5.3 0.7-7.1z m98-35.5c0 0.9-0.3 1.6-0.8 2.3-0.5 0.7-1.1 1-1.7 1s-2-0.6-4.1-1.7-3.7-2.1-4.7-2.9-1.5-1.7-1.5-2.6c0-1.8 0.5-3.9 1.5-6.3s2.3-3.6 3.9-3.6c0.8 0 1.5 0.3 2.2 0.8 0.7 0.5 1.1 1.3 1.3 2.2 0.4 1.9 1.3 3.9 2.6 6.2 0.8 1.9 1.3 3.4 1.3 4.6z m27.7 4.8c0.9 0 1.7 0.5 2.4 1.5 0.8 1 1.5 2.3 2.1 3.9 0.7 1.6 1 3 1 4s-0.4 1.6-1.1 1.6c-0.3 0-0.7-0.1-1.1-0.2-5-1.7-9.8-2.5-14.3-2.5-1.8 0-3.7 0.1-5.7 0.3l-1.1 0.1c-1.3 0.2-2.2 0.3-2.5 0.4-0.4 0.1-0.6 0.3-0.6 0.6 0 0.2 0.2 0.6 0.6 1.1l0.3 0.4c0.6 0.7 0.9 1.3 0.9 1.8 0 0.4-0.7 1.3-2.1 2.5l-0.3 0.3c-1.6 1.4-2.3 2.5-2.3 3.3 0 0.5 0.4 0.8 1.3 0.8 2.8 0 5.8 0.4 8.8 1.1l1.3 0.3c2.3 0.6 3.8 1.1 4.3 1.4 0.7 0.4 1 0.9 1 1.4s-0.1 1.1-0.2 1.8c-0.5 3-0.8 7.1-0.8 12.2l0.2 12.4-0.3 7.7c0 2 0.1 3.6 0.2 4.7s0.2 2.3 0.2 3.5v0.7c0 0.7 0 1.3-0.1 1.6v0.1c-0.1 0.3-0.1 0.7-0.1 1.1v0.3c0 0.4 0.1 1.2 0.3 2.5l0.3 1.9c0.2 1.4 0.3 2.4 0.3 3 0 2-0.8 3-2.5 3s-5-1-9.9-2.9c-5-2-9.2-4.3-12.6-7.2l-0.7-0.6c-2.9-2.5-4.4-4.2-4.4-5.2 0-0.4 0.2-0.5 0.7-0.5s1 0.2 1.6 0.5c2.5 1.5 5.6 2.6 9.1 3.4l1.5 0.3c2.7 0.5 4.5 0.8 5.4 0.8 1.1 0 1.9-0.3 2.2-0.9 0.4-0.6 0.5-2.8 0.5-6.7v-1.9c0-3.5-0.2-8.3-0.4-14.2l-0.1-2.8c-0.3-6.3-0.8-10.4-1.3-12.1-0.6-1.9-1.8-3.5-3.7-4.7-1.8-1.2-3.7-1.8-5.5-1.8-0.9 0-1.6 0.5-1.9 1.5-0.3 1-0.5 1.8-0.5 2.5 0 2 0.7 3.1 2.2 3.5 2.3 0.5 3.9 1 4.7 1.5 0.8 0.5 1.2 1 1.2 1.7 0 2.8-1.7 4.2-5.2 4.2-2.2 0-3.7-0.4-4.6-1.1-0.9-0.7-1.6-1.9-2.2-3.4s-0.9-3.1-1-4.6v-0.6c-0.1-1.1-0.2-1.8-0.3-2.1-0.2-0.4-0.7-0.5-1.4-0.5-0.8 0-1.3 0.1-1.7 0.4-0.3 0.2-0.6 0.7-0.8 1.4l-0.1 0.3c-0.2 0.8-0.4 1.5-0.8 2.3l-0.5 1c-0.3 0.7-0.5 1.1-0.5 1.4 0 0.3-0.1 1-0.1 2.1 0 1.9-0.8 3.6-2.5 5.1s-3.6 2.3-5.9 2.3c-1.1 0-1.6-0.2-1.6-0.5 0-0.4 0.3-1 0.8-2s1.3-1.8 2.4-2.5 1.8-1.7 2.3-3.1 0.7-2.6 0.7-3.5c0-0.9-0.2-1.4-0.5-1.4s-1.3 0.3-2.9 1l-0.3 0.1c-1.8 0.8-3 1.5-3.5 2.2s-0.9 2.4-1.1 5.2c-0.2 2.3-0.4 5.1-0.9 8.3l-0.4 2.7c-0.5 3.2-0.9 5.4-1.3 6.5l-0.1 0.2c-0.4 1.2-0.7 2.7-0.7 4.5l0.2 5.1c0 0.9-0.1 1.5-0.4 2-0.3 0.4-0.9 0.9-1.8 1.2-0.9 0.4-1.6 0.6-2.1 0.6-1.4 0-2-1.4-1.7-4.1 0.2-1.7 0.3-3.2 0.3-4.6l-0.1-4.3 0.4-10.4c0.2-4.6 0.2-8.5 0.2-11.7 0-1.4 0.4-2.8 1.1-4 0.8-1.2 1.5-2 2.3-2.3l1-0.4c0.8-0.3 1.9-0.7 3.3-1.2l0.4-0.2c2.4-0.9 4.8-1.7 7.2-2.5 2.2-0.7 4.2-1.3 5.9-1.7l0.6-0.2c1.9-0.4 3.2-0.9 3.9-1.4 0.7-0.5 1.5-1.3 2.4-2.5 0.9-1.2 1.4-2.3 1.4-3.3s-0.4-2-1.1-2.7c-0.7-0.8-1.6-1.1-2.6-1.1s-1.6 0.1-1.8 0.4c-0.2 0.3-0.5 0.8-0.9 1.7-0.3 0.8-0.9 1.7-1.7 2.7l-0.3 0.4c-1 1.2-1.9 2.3-2.6 3.3s-1.5 1.6-2.4 1.8c-0.7 0.1-1.4 0.3-2 0.5l-0.9 0.3c-0.5 0.1-0.8 0.2-1 0.2-0.9 0-1.3-0.5-1.3-1.5 0-0.8 0.1-1.7 0.4-2.6l0.2-0.5c0.4-1.1 0.6-2.1 0.6-3.1s-0.2-1.7-0.5-2.1-1-0.6-2.1-0.6c-2.5 0-5.9 0.4-10 1.2l-0.8 0.2c-4.3 0.9-7.2 1.8-8.5 2.7l-0.2 0.1c-0.7 0.5-1.2 0.8-1.8 0.8s-1.4-0.9-2.6-2.6c-1.2-1.7-1.7-3.1-1.7-4.2 0-0.4 0.3-0.8 0.9-1 0.5-0.2 2-0.5 4.5-0.9l0.9-0.1c2.7-0.4 5.1-0.7 7.2-0.8l1.2-0.1c2.2-0.1 5.6-0.5 10.1-1.1l1.9-0.3c3.7-0.5 6.5-1 8.4-1.5l0.8-0.2c2-0.5 5.6-1 10.7-1.5l3.3-0.3c5.7-0.6 9.5-0.9 11.6-0.9h0.2c2.2 0 4.7-0.1 7.5-0.3l2.4-0.2c1.6-0.1 2.7-0.3 3.4-0.3 1.1-0.6 1.9-0.6 2.3-0.6z m-20.3 48.6c0 0.6-0.5 1.3-1.6 2.1l-0.3 0.2c-1.3 0.9-2.1 1.8-2.4 2.7s-0.5 2.3-0.5 4.2c0 1-0.4 1.5-1.3 1.5l-1.8-0.1c-1.4 0-3.4 0.2-6 0.5l-0.6 0.1c-2.7 0.4-4.4 0.7-5.1 1h-0.1c-0.6 0.3-1.1 0.4-1.4 0.4-0.3 0-0.5-0.2-0.9-0.7l-0.1-0.2c-0.4-0.6-1.1-1.3-2.2-2.3-1.1-0.9-2.2-2.6-3.3-4.9l-0.4-0.8c-0.8-1.9-1.3-3.2-1.3-3.9 0-1.6 1.1-2.6 3.2-3.2l4.5-1c2.6-0.6 4.5-1.1 5.6-1.4l0.4-0.1c1.4-0.5 2.7-0.7 3.8-0.7 2.6 0 5.2 0.8 7.9 2.4 2.6 1.8 3.9 3.1 3.9 4.2z m-18.5 5.1c0.9 0 1.9-0.2 3.1-0.5 1.2-0.4 2-0.8 2.3-1.2 0.3-0.5 0.5-1.1 0.5-1.9 0-0.8-0.3-1.4-0.8-1.9s-1.2-0.7-2.1-0.7c-0.9 0-2 0.3-3.3 1-1.3 0.7-2 1.4-2 2.4 0.2 1.8 0.9 2.8 2.3 2.8z m150.7-9.6c2 0 3.7 1.8 5.2 5.3 1.4 3.5 2.1 6.3 2.1 8.3 0 1.2-0.4 1.8-1.2 1.8-0.8 0-1.8-0.2-2.9-0.7-7.5-2.8-14.2-4.2-20.2-4.2l-9 0.3-5.2-0.2c-2.4 0-5.6 0.4-9.7 1.1-3.6 0.6-7.2 1.1-10.9 1.3l-1.6 0.1c-4.3 0.2-9.1 1-14.4 2.4l-1.3 0.3c-4.5 1.2-7.6 2.3-9.4 3.2l-0.2 0.1c-0.7 0.4-1.4 0.7-2 0.7s-1.3-0.9-2.1-2.8l-0.3-0.7c-0.6-1.5-0.9-2.4-0.9-2.9s0.5-0.9 1.6-0.9h0.7c3.3-0.2 8.4-1.1 15.4-2.8l1.8-0.4c6.4-1.6 10.1-2.9 11.2-3.8 1.2-1 1.7-2.9 1.7-5.6v-0.6c0-0.8-0.1-1.8-0.3-3.1l-0.3-1.9c-0.1-1.1-0.2-2-0.3-2.7-0.1-0.9-0.4-1.4-1-1.4-0.5 0-1.2 0.5-2 1.4l-0.2 0.2c-0.8 1-1.8 2.2-3.1 3.5l-0.4 0.5c-1.5 1.6-2.5 2.5-2.8 2.8-0.4 0.3-0.7 0.4-1 0.4-1 0-2.5-1.1-4.6-3.3s-3-4-3-5.5c0-1.2 0.7-1.7 2-1.7 0.3 0 0.7 0.1 1.3 0.2s1.2 0.2 2 0.2c2 0 4.2-0.7 6.7-2l0.8-0.4c2-1.1 3.3-1.9 3.7-2.4 0.5-0.6 0.7-1.4 0.7-2.5l-0.4-6.9c-0.1-2.8-0.2-5.4-0.2-8.1s0.9-4 2.8-4c0.7 0 2.1 0.3 4.1 1l1.2 0.4c1.8 0.6 2.9 1.1 3.3 1.3 0.4 0.3 0.6 0.7 0.6 1.2s-0.1 1-0.4 1.6l-0.1 0.3c-1 1.9-1.5 5.3-1.5 10v0.6c0 4.6 0 8.8 0.1 12.6l0.2 7.6v0.8c0 0.7 0.3 1.3 0.7 1.7 0.4 0.5 1.1 0.7 2.2 0.7s2.1-0.4 3-1.2 1.8-3.4 2.6-7.8c0.7-4 1.2-8.4 1.4-13.1l0.1-1.3c0.2-4.9 0.7-10.4 1.7-16.6l0.2-1.2c1.1-6.7 1.9-10.4 2.3-11.2s1.2-1.2 2.1-1.2 2.2 0.4 4 1.1c1.7 0.8 2.6 1.5 2.6 2.1 0 0.6-0.2 1-0.7 1.3l-0.2 0.1c-0.6 0.3-1.1 1.3-1.6 3l-0.1 0.4c-0.5 2-1.2 6.4-2.1 13.4l-0.4 3.2c-0.6 5-0.9 8.3-1 10.1v0.2c0 1.1 0.3 1.6 0.9 1.6 0.6 0 2.1-1.2 4.5-3.6 2.4-2.4 4.9-5.4 7.7-9.1 0.9-1.2 1.8-1.8 2.6-1.8s2 0.9 3.7 2.6c1.7 1.7 2.6 2.9 2.6 3.6 0 0.6-0.6 1.2-1.7 1.7l-0.3 0.1c-1.3 0.5-3 1.8-5 3.6l-2.3 2.1c-2.9 2.7-4.9 4.5-6.2 5.6-1.6 1.3-3.2 2.3-4.7 2.9-1.5 0.7-2.4 1.2-2.8 1.5-0.4 0.4-0.7 1.1-0.9 2.2-0.3 1.1-0.4 2-0.4 2.8s0.3 1.4 1 1.7c0.7 0.3 1.9 0.5 3.6 0.5h3.7c10.1-0.1 16.4-0.5 18.9-1.3 0.7-0.2 1.5-0.4 2-0.4z m61.5-34.8c0 1.2-0.8 2.5-2.3 3.9-1.6 1.4-2.9 2.1-3.9 2.1s-1.8-0.4-2.7-1.2l-0.2-0.2c-1.8-1.9-3.4-2.8-4.8-2.8s-2.3 0.1-2.7 0.4c-0.4 0.3-1.2 1.1-2.4 2.5l-0.5 0.6c-1.6 1.8-2.8 3.4-3.6 4.7s-1.2 2.3-1.2 3c0 0.7 0.3 1.1 0.9 1.4s1.2 0.4 1.7 0.4 1.3-0.2 2.3-0.7c4.5-2.1 7.9-3.1 10.3-3.1 1.3 0 2 1 2 2.9 0 0.7-0.1 1.3-0.3 1.8-0.2 0.4-0.6 1.1-1.2 1.9l-0.2 0.3c-0.8 1-1.5 2.2-2.2 3.6l-0.3 0.6c-0.5 1.1-0.8 1.8-0.8 2 0 0.3 0.2 0.5 0.5 0.5l4.2-0.5c0.9 0 1.4 0.6 1.4 1.7 0 1.5-1.2 3.3-3.7 5.4-2.5 2.1-4.6 3.5-6.4 4.4-0.4 0.2-0.8 0.7-1.1 1.5-0.3 0.8-0.4 1.7-0.4 2.6 0 0.9 0.2 1.7 0.7 2.3 0.5 0.6 1.2 0.9 2.1 0.9 0.9 0 2.5-0.9 4.8-2.8s4-3.5 5.1-4.9l0.4-0.5c0.9-1.1 1.4-1.6 1.7-1.6 0.3 0 0.4 0.3 0.4 0.8s-0.4 1.7-1.2 3.6c-0.8 1.8-2 3.9-3.8 6.2l-0.4 0.6c-2 2.6-3.5 4.4-4.5 5.4s-2.1 1.7-3.3 2.2c-1 0.4-1.9 0.8-2.7 1.2l-0.4 0.2c-0.8 0.5-1.4 0.8-1.8 0.8-0.4 0-0.7-0.2-0.9-0.5s-0.4-1.6-0.8-3.7c-0.3-2.2-0.5-4.3-0.5-6.3l0.2-4.9c0-0.8-0.4-1.2-1.2-1.2-2.1 0-4.3 0.4-6.6 1.1-0.3 0.1-0.6 0.1-0.9 0.1-0.3 0-0.6-0.3-0.9-0.9-0.2-0.5-0.4-1.4-0.6-2.5l-0.1-0.4c-0.2-1.4-0.3-2.4-0.3-3.1s0.5-1.1 1.4-1.1c0.2 0 0.5 0 0.9 0.1l0.3 0.1c0.5 0.1 1.2 0.2 2.2 0.2s2.3-0.3 3.9-1l0.6-0.3c1.2-0.5 1.9-1 2.1-1.2 0.3-0.3 0.4-0.8 0.4-1.5 0-1.5-0.4-2.6-1.1-3.3l-0.2-0.1c-0.8-0.6-1.8-2.2-2.8-4.6-0.1-0.3-0.3-0.4-0.7-0.4s-0.7 0.1-0.9 0.3c-2.2 2.2-4.6 3.8-7.3 4.8l-0.9 0.3c-2.2 0.8-3.7 1.2-4.6 1.2-0.6 0-0.9-0.3-0.9-0.8s0.9-1.9 2.6-4.2l0.3-0.3c1.9-2.5 4.1-4.9 6.7-7.3l0.3-0.3c1.2-1.3 4.2-5 8.9-10.9 5.1-6.4 8.6-12.3 10.6-17.6 0.6-1.4 1.2-2.2 2-2.2s2 0.8 3.6 2.3c1.6 1.6 2.4 2.8 2.4 3.6s-0.4 1.6-1.2 2.3l-0.5 0.4c-0.6 0.5-1.2 1.1-2 1.8l-0.8 0.7c-1.3 1.3-2.1 2-2.2 2.2-0.1 0.2-0.2 0.5-0.2 0.8s0.4 0.7 1.1 1.1c0.7 0.4 1.5 0.6 2.3 0.6 0.8 0 1.6-0.1 2.5-0.3 0.9-0.2 1.6-0.3 2.1-0.3s1.1 0.3 1.6 0.9c0.3 0.6 0.6 1.3 0.6 2.2z m60.8 50.7c0 0.5-0.7 1.2-2 2s-2.9 1.2-4.8 1.2c-1.8 0-4.1-0.1-6.8-0.4l-6.9-0.8-0.7-0.1c-1.5-0.2-2.4-0.5-2.7-0.7-0.3-0.3-0.7-1.2-1.2-2.9s-1.3-3.2-2.3-4.6-2.6-2.6-4.6-3.6l-0.7-0.4c-1.6-0.8-2.6-1.2-3.1-1.2s-1 0.3-1.2 1c-2.4 5.5-5.7 10.2-9.9 14.1l-0.8 0.7c-3.8 3.4-6.3 5.1-7.6 5.1-0.7 0-1.2-0.6-1.8-1.9-0.5-1.2-1.1-3.9-1.6-8.2l-0.1-0.6c-0.6-4.6-0.9-10.4-0.9-17.5 0-2.1 0.2-4.1 0.5-6l0.2-0.8c0.4-2 0.8-5.2 1.2-9.8l0.2-2.9c0.3-4.3 0.5-7.1 0.5-8.3 0-1.3-0.1-2.5-0.4-3.5l-0.2-0.6c-0.2-0.7-0.2-1.2-0.2-1.4 0-0.8 0.3-1.3 1-1.5h0.2c0.7-0.1 2.2-0.8 4.3-1.9l0.4-0.2c2.3-1.3 5.2-2.5 8.6-3.6s6.4-1.7 8.8-1.7c2.5 0 4.6 0.5 6.3 1.6 1.7 1 2.6 2 2.6 2.9 0 0.4-0.2 0.9-0.6 1.6l-0.2 0.3c-0.5 0.8-1.1 2.6-1.7 5.3l-0.1 0.5c-0.7 3.6-1.8 7.1-3.4 10.3s-3.5 5.5-6 6.8l-3.5 1.8c-2.5 1.3-4.1 2.2-4.8 2.7l-0.1 0.1c-0.8 0.6-1.2 1-1.2 1.3 0 0.5 0.5 0.8 1.4 0.8 0.7 0 3.1-1 7.3-2.9s8.5-4.8 13-8.5c1-0.9 1.7-1.3 2.2-1.3s1 0.6 1.6 1.7c0.7 1.1 1 1.9 1 2.4s-0.5 1.1-1.4 1.9l-0.1 0.2c-1 0.7-2 1.6-3 2.6l-0.5 0.5c-4.2 4.2-8.3 7-12.3 8.3l-0.5 0.2c-0.5 0.1-0.8 0.4-0.8 0.7 0 0.3 0.1 0.6 0.3 0.9 0.2 0.3 1.7 1.2 4.4 2.9 2.7 1.6 5.8 3.3 9.3 4.9l1.1 0.5c3 1.3 5.2 2.2 6.6 2.5 4.8 1.2 8.9 2.6 12.4 4.1 3.5 1.5 5.3 2.6 5.3 3.4z m-50.7-31.8c0.2 0 1.6-0.7 4.1-2.1l1.5-0.9c1.6-0.9 2.7-1.6 3.2-2 0.6-0.5 1.2-1.8 1.9-4s1.1-4 1.4-5.6c0.3-1.6 0.4-3.1 0.4-4.6 0-1.5-0.3-2.6-0.8-3.2s-1.3-0.9-2.2-0.9c-1.4 0-3.3 1.1-5.6 3.4-2.4 2.2-3.6 4.1-3.6 5.5 0 0.8 0.4 1 1.1 0.8 3-1.3 5.1-2 6.3-2 1.2 0 1.7 0.5 1.7 1.4 0 0.9-0.6 2.5-1.9 4.6-1.3 2.1-2.7 3.5-4.4 4.3l-0.7 0.4c-1.3 0.6-2.1 1.1-2.5 1.5-0.5 0.5-0.8 1.1-0.8 2 0 1 0.3 1.4 0.9 1.4z m-2.6 29c1.4 0 3.1-0.4 5.1-1.2 2-0.8 4-2.2 5.8-4.1l0.6-0.6c1.5-1.6 2.2-2.7 2.2-3.3 0-0.7-0.3-1.2-1-1.5-2.2-0.9-4.6-2.2-7.3-3.7-0.9-0.6-2-0.9-3.4-0.9s-2.3 0.1-2.7 0.3c-0.4 0.2-0.8 1.5-1.1 3.9s-0.5 4.5-0.5 6.4c0 1.8 0.2 3.1 0.5 3.7 0.3 0.7 0.9 1 1.8 1z m100.2-56.2c0 0.4-0.1 0.9-0.3 1.2-0.2 0.4-1.3 1.8-3.5 4.1-1.9 2.1-3.8 3.9-5.7 5.3l-0.6 0.5c-2.1 1.6-4.3 3.5-6.6 5.8-0.4 0.4-0.8 0.5-1.3 0.5s-0.9-0.1-1.2-0.3c-0.3-0.2-0.4-0.6-0.4-1.3 0-0.7 0.1-1.3 0.3-1.9 0.2-0.4 0.8-1.8 2-4l1.3-2.3c1.9-3.4 3.3-6 4.4-7.8l0.2-0.3c1-1.6 1.8-2.9 2.5-3.8l0.2-0.3c0.7-0.9 1.2-1.5 1.4-1.6s0.3-0.2 0.5-0.2c0.5 0 1.2 0.4 2.3 1.3l1.8 1.5c0.6 0.5 1.1 0.9 1.5 1.2 0.8 0.8 1.2 1.6 1.2 2.4z m33.5-4.3c1.2 0 2.1 0.6 2.8 1.8 0.7 1.2 1.1 2.3 1.1 3.2s-0.2 1.7-0.5 2.3c-0.4 0.7-2.4 1.9-6 3.7l-1.4 0.7c-2.8 1.4-4.8 2.2-5.9 2.5-1.2 0.3-2.3 0.4-3.1 0.4-2.7 0-4.6 0.1-5.6 0.3l-0.9 0.2c-0.5 0.1-0.8 0.2-1 0.2-1 0-1.6-0.7-2-2.2l-0.3-1.3c-0.3-1.1-0.5-1.9-0.8-2.6l-0.3-0.8c-0.2-0.6-0.3-1-0.3-1.2 0-0.8 0.7-1.3 2.1-1.4 2.4-0.1 4.5-0.6 6.5-1.4l0.7-0.3c1.8-0.7 4.1-1.5 7.2-2.4l1.6-0.5c3.1-0.7 5.2-1.2 6.1-1.2z m17.9 26.9c0 2-0.6 2.9-1.8 2.9-0.4 0-1-0.1-1.9-0.4l-0.6-0.2c-1.2-0.4-2.9-0.5-5-0.5s-3.5 0.1-4.2 0.4c-0.7 0.3-1.3 1-1.8 2.1s-0.9 2-1 2.8v0.2c-0.1 1-0.1 3.2-0.1 6.6l-0.2 16.6c0 2 0.1 4.4 0.4 7.2l0.1 0.8c0.3 3 0.6 5.1 0.8 6.4l0.2 0.9c0.2 0.9 0.2 1.5 0.2 1.9 0 1.4-0.5 2.1-1.6 2.1-0.4 0-0.9-0.1-1.5-0.3-1.2-0.5-3.4-1.2-6.7-2.1l-1.6-0.5c-4.2-1.2-7.2-2.3-9-3.4-1.7-1-3.6-2.4-5.8-4.3l-1.4-1.2c-1.8-1.6-2.7-2.5-2.7-2.6 0-0.2 0.1-0.3 0.3-0.3 0.2 0 0.5 0 0.8 0.1l2.6 0.8c6.9 2 11.3 3 13.2 3 2.1 0 3.5-0.4 4.2-1.2s1-2 1-3.6v-0.8c0-1.7-0.2-4.8-0.4-9.2l-0.2-3.9c-0.3-4.9-0.6-8.5-1-10.8l-0.3-1.9c-0.3-1.6-0.5-2.6-0.6-3-0.2-0.4-0.7-0.8-1.5-1.2-0.8-0.4-1.4-0.5-2-0.5-2 0-4.6 0.3-7.9 0.9-3.3 0.6-6 1.5-8.1 2.7-0.7 0.4-1.4 0.7-1.9 0.7s-1.3-0.8-2.3-2.5l-0.2-0.3c-1.1-1.9-1.6-3.1-1.6-3.6s0.1-0.9 0.2-1.1c0.1-0.2 1.2-0.5 3.3-1l0.4-0.1c2.1-0.4 3.8-0.7 5.1-0.9h0.3c1.2-0.1 3.1-0.5 5.8-1.2l0.5-0.1c2.7-0.7 5-1.3 6.8-2l0.4-0.2c1.8-0.7 3.5-1.2 4.9-1.5 1.2-0.2 2.4-0.4 3.5-0.4h0.7c1.3 0 2.6-0.2 3.9-0.5 1.2-0.3 2.4-0.5 3.4-0.7h0.4c1.1-0.1 3-0.1 5.7-0.1 1.2 0 2.1 0.3 2.5 0.8l0.2 0.3c0.4 0.6 1 1.5 1.8 2.8 0.9 1.8 1.3 3.4 1.3 5.1z m-53.4-3.3c0 0.7-0.5 1.6-1.6 2.8s-1.8 2.1-2.1 2.7c-0.2 0.5-0.4 0.9-0.4 1.5v1.5c-0.1 2.4-0.3 5.3-0.5 8.6l-0.1 0.8c-0.4 4.2-0.5 7.8-0.5 10.8l0.1 7.8v1c0 3-0.3 4.9-0.8 5.9s-1.4 1.6-2.6 1.6c-1.2 0-2-0.2-2.6-0.5s-0.8-1-0.8-1.8v-0.2c0-1 0.2-3.3 0.4-7l0.2-3.5c0.3-3.9 0.4-6.8 0.4-8.7 0-2.1-0.1-4-0.4-5.5l-0.1-0.6c-0.2-1.1-0.4-1.8-0.5-1.9-0.2-0.2-0.5-0.3-0.8-0.3-0.7 0-1.6 0.9-2.7 2.7l-0.2 0.3c-1.2 1.9-1.8 3.2-1.8 4v0.1c0 0.7-0.1 1.3-0.3 1.6-0.2 0.4-0.9 1.2-2.2 2.5-1.3 1.3-2.5 2.3-3.6 3s-2.3 1.2-3.4 1.5c-1.2 0.3-2.2 0.4-3 0.4-0.9 0-1.3-0.2-1.3-0.5s0.1-0.6 0.4-1l0.1-0.2c0.3-0.5 1.5-1.8 3.3-3.9l0.3-0.3c1.9-2.2 3.4-3.9 4.5-5l0.2-0.2c1.1-1.1 2.9-3.4 5.4-6.8 2.3-3.2 4.2-6 5.7-8.7l1-1.7c1.4-2.3 2.5-4 3.3-5 1-1.2 1.8-1.8 2.3-1.8s1.5 0.5 2.7 1.5c1.4 0.7 2 1.6 2 2.5z m-679.9 103l-9.3-30.6h4.7l6.9 25.2 8-24.6h4.7l8 24.6 6.9-25.2h4.7l-9.3 30.6H300l-8-24.6-8 24.6h-4.7z m39.1 0v-30.6H340v3.8h-16.8v9h13.3v3.8h-13.3V579h17.2v3.8h-22z m27.9 0v-30.6h5.9v30.6h-5.9z m13.2 0v-30.6h4.9v12.6h18.2v-12.6h4.9v30.6h-4.9v-14h-18.2v14h-4.9z m59.4 0l-3.4-8.3h-13.7l-3.4 8.3h-5.1l12.8-30.6h5.1l12.8 30.6h-5.1z m-15.4-11.7h10.3l-5.1-13.1-5.2 13.1z m26.4 11.7v-30.6h5.9v30.6h-5.9z m40.1 1.5c-3.5 0-6.6-0.7-9.3-2-2.7-1.3-4.9-3.2-6.4-5.6-1.6-2.4-2.3-5.2-2.3-8.4s0.8-6 2.4-8.4c1.6-2.4 3.7-4.3 6.5-5.6 2.8-1.3 5.9-2 9.4-2 1.7 0 3.5 0.2 5.1 0.5 1.7 0.3 3.2 0.8 4.5 1.3l-0.5 3.9c-3.1-1.3-6.1-1.9-9.1-1.9-2.7 0-5.1 0.5-7 1.6-1.9 1.1-3.4 2.5-4.4 4.4-1 1.9-1.5 3.9-1.5 6.3s0.5 4.4 1.5 6.3c1 1.9 2.4 3.3 4.4 4.4 1.9 1.1 4.2 1.6 7 1.6 3.2 0 6.3-0.6 9.2-1.9l0.5 3.9c-3.2 1-6.4 1.6-10 1.6z m17.1-1.5v-30.6h5.9v30.6h-5.9z m21 0v-26.9h-10.7v-3.8h26.4v3.8h-10.7v26.9h-5z m42.3-30.6h5.7l-12.9 17.4v13.3h-5v-13.3l-12.9-17.4h5.7l9.7 13.3 9.7-13.3z m35.5 32.1c-3.5 0-6.6-0.7-9.3-2s-4.9-3.2-6.4-5.6c-1.6-2.4-2.3-5.2-2.3-8.4s0.8-6 2.4-8.4c1.6-2.4 3.7-4.3 6.5-5.6 2.8-1.3 5.9-2 9.4-2 1.7 0 3.5 0.2 5.1 0.5 1.7 0.3 3.2 0.8 4.5 1.3l-0.5 3.9c-3.1-1.3-6.1-1.9-9.1-1.9-2.7 0-5.1 0.5-7 1.6s-3.4 2.5-4.4 4.4c-1 1.9-1.5 3.9-1.5 6.3s0.5 4.4 1.5 6.3c1 1.9 2.4 3.3 4.4 4.4 1.9 1.1 4.2 1.6 7 1.6 3.2 0 6.3-0.6 9.2-1.9l0.5 3.9c-3.2 1-6.4 1.6-10 1.6z m31.1 0c-3.5 0-6.7-0.7-9.5-2s-5-3.2-6.5-5.6c-1.6-2.4-2.3-5.2-2.3-8.4s0.8-6 2.3-8.4c1.6-2.4 3.7-4.3 6.5-5.6 2.8-1.3 5.9-2 9.5-2 3.5 0 6.7 0.7 9.5 2s5 3.2 6.5 5.6c1.6 2.4 2.3 5.2 2.3 8.4s-0.8 6-2.3 8.4c-1.6 2.4-3.7 4.3-6.5 5.6-2.8 1.3-6 2-9.5 2z m0.7-4.4c2.8 0 5.2-0.5 7.2-1.5s3.5-2.4 4.5-4.2c1-1.8 1.5-3.8 1.5-6s-0.5-4.2-1.5-6c-1-1.8-2.5-3.1-4.5-4.2-2-1-4.4-1.5-7.2-1.5s-5.2 0.5-7.2 1.5-3.5 2.4-4.5 4.2c-1 1.8-1.5 3.8-1.5 6s0.5 4.2 1.5 6c1 1.8 2.5 3.1 4.5 4.2 2 1 4.4 1.5 7.2 1.5z m20.5 2.9l3.3-30.6h4.1l10.9 21 10.8-21h4.2l3.3 30.6h-5.1l-1.9-23.1-11.2 21.7-11.4-21.7-1.9 23.1h-5.1z m42.6 0l3.3-30.6h4.1l10.9 21 10.8-21h4.2l3.3 30.6h-5.1l-1.9-23.1-11.2 21.7-11.4-21.7-1.9 23.1h-5.1z m45.5 0v-30.6h21.6v3.8h-16.8v9h13.3v3.8h-13.3V579h17.2v3.8h-22z m27.9-30.6H766c4 0 7.1 0.8 9.3 2.3 2.2 1.5 3.4 3.9 3.4 7 0 4.1-2.1 7-6.4 8.6l8.2 12.7h-6.1l-7.4-11.9h-7.7v11.9h-5.2v-30.6z m12 14.6c2.3 0 4-0.5 5.2-1.4 1.2-0.9 1.8-2.2 1.8-3.8s-0.6-2.9-1.8-3.8c-1.2-0.9-2.9-1.3-5.3-1.3H760v10.2h6.2z m33.9 17.5c-3.5 0-6.6-0.7-9.3-2-2.7-1.3-4.9-3.2-6.4-5.6-1.6-2.4-2.3-5.2-2.3-8.4s0.8-6 2.4-8.4c1.6-2.4 3.7-4.3 6.5-5.6 2.8-1.3 5.9-2 9.4-2 1.7 0 3.5 0.2 5.1 0.5 1.7 0.3 3.2 0.8 4.5 1.3l-0.5 3.9c-3.1-1.3-6.1-1.9-9.1-1.9-2.7 0-5.1 0.5-7 1.6-1.9 1.1-3.4 2.5-4.4 4.4s-1.5 3.9-1.5 6.3 0.5 4.4 1.5 6.3c1 1.9 2.4 3.3 4.4 4.4 1.9 1.1 4.2 1.6 7 1.6 3.2 0 6.3-0.6 9.2-1.9l0.5 3.9c-3.2 1-6.4 1.6-10 1.6z m15.7-1.5v-30.6h5.9v30.6h-5.9z m35.9 0l-3.4-8.3h-13.7l-3.4 8.3H826l12.8-30.6h5.1l12.8 30.6h-5z m-15.4-11.7h10.3l-5.1-13.1-5.2 13.1z m27.9 11.7v-30.6h4.7V579h15.8v3.8h-20.5z m53.2-16.7c2.3 0.5 4 1.4 5.2 2.7s1.8 3.1 1.8 5.2c0 2.7-1 4.8-3 6.4-2 1.6-4.8 2.3-8.4 2.3h-13.5v-30.6h11.3c3.3 0 5.8 0.6 7.6 1.9s2.7 3.1 2.7 5.6c0 1.5-0.3 2.8-0.9 3.9-0.7 1.2-1.6 2-2.8 2.6z m-12.1-0.8h5.1c1.7 0 3-0.3 3.8-1 0.9-0.6 1.3-1.8 1.3-3.4 0-1.6-0.4-2.8-1.3-3.4-0.9-0.6-2.2-1-3.8-1h-5.1v8.8z m8.2 13.1c2 0 3.6-0.4 4.7-1.1 1.2-0.7 1.7-1.8 1.7-3.2 0-3-2.2-4.4-6.5-4.4h-8.2v8.8h8.3z m39.5 4.4l-3.4-8.3h-13.7l-3.4 8.3h-5.1l12.8-30.6h5.1l12.8 30.6H953z m-15.5-11.7h10.3l-5.1-13.1-5.2 13.1z m26.5 11.7v-30.6h5.3l17.7 22.9v-22.9h4.9v30.6h-4.2l-18.9-24.2v24.2H964z m35.2 0v-30.6h5.9v30.6h-5.9z m18.9 0l-13.1-16.2 13.1-14.4h5.8l-13.5 14.3 13.6 16.3h-5.9z" fill="#0068B6"></path><path d="M136.8 440.7c-4.7-0.8-9.6-1.4-14.6-1.7-5.5 5.4-11.8 11.7-18.2 18-35.2 34.8-36.3 36.1-36.7 36.7-7.9 9.5-7.9 21.9-3.9 29.3 3.7 6.7 9.5 11.2 16.5 12.5 8.2 1.6 17.3-1.2 24.9-7.5 1-0.8 3.3-3.3 9.2-9.7 4.2-4.5 10.6-11.4 11.8-12.4 2.9-2.4 5.8-3.9 8.5-4.6 6.2-1.5 11.6 1.2 14.4 7.2 3.3 6.9-0.8 13.7-4.8 18.1-2.1 2.3-32.7 32.6-57.9 57.5 4.8 0.7 9.7 1.3 14.7 1.6 19.9-19.6 49.3-48.7 51.6-51.3 9.1-10 11.5-21 6.7-31-5.2-10.9-15.9-16.2-27.3-13.4-4.3 1-8.7 3.4-12.9 6.8-1.5 1.2-5 5-13 13.5-3.3 3.6-7.4 8-8.3 8.7-4.9 4.1-10.6 6-15.5 5.1-3.7-0.7-6.6-3-8.6-6.7-1.9-3.3-2.2-10.4 2.6-16.3 2.5-2.8 41.4-41.3 60.8-60.4" fill="#B4B4B3"></path><path d="M148.7 443.2c41.6 10.4 71.2 37.4 71.2 69 0 39.7-46.8 72.1-105.3 73.5 19.4-19.1 42.7-42.1 44.9-44.5 11.9-13.1 15-28.5 8.4-42.3-7.3-15.2-22.9-22.8-38.9-18.9-5.8 1.4-11.5 4.3-16.9 8.7-2 1.6-4.9 4.7-14.1 14.5-2.7 2.9-10 10.6-10.2 10.7-0.7 0.5-1.5 0.9-2.4 0.9-2.1 0-3.8-1.7-3.8-3.8 0-1 0.4-1.9 1-2.6 0.3-0.3 47.6-47.1 66.1-65.2z m-9.9 74c0 0.1-40.6 39.9-65.7 64.3C30.5 571.3 0 544.2 0 512.4c0-40 48-72.5 107.8-73.4-3.6 3.5-7.5 7.3-11.3 11-35.9 35-37 36.3-37.8 37.3-11.4 13.6-10.6 30.6-5.1 40.7 5.2 9.4 13.6 15.6 23.7 17.5 11.3 2.1 23.6-1.4 33.6-9.7 1.4-1.2 3.2-3 10.2-10.5 3.6-3.8 12.5-13 12.7-13.1 0.7-0.9 1.7-1.5 2.9-1.5 2 0 3.6 1.6 3.6 3.6 0 1.2-0.6 2.3-1.5 2.9z" fill="#0068B6"></path></svg>