<svg viewBox="0 0 1024 1024" version="1.1" xmlns="http://www.w3.org/2000/svg"><path d="M224 0h576c123.6 0 224 100.4 224 224v576c0 123.6-100.4 224-224 224H224c-123.6 0-224-100.4-224-224V224C0 100.4 100.4 0 224 0z" fill="#FFFFFF"></path><path d="M852 216h-96.8l-42.4 38.8H315.2L272.8 216H176s13.6 47.6 28.8 127.2c3.2 17.2 12.4 24.4 27.2 24.4h435.2c12.4 0 18.8 3.2 16.4 19.6v1.2c-12 72.4-19.6 147.2-24 208.4-0.8 10.4-4 20-19.6 20H382.4c-6.4 0-12.4-1.2-12.8-10-0.8-14-2-28.8-3.6-44-0.8-10.8 3.6-14 9.6-14h193.2c14 0 20.8-4 22.4-22.8 2-21.2 5.2-54.8 10-89.6H243.6c-16 0-22.4 10.4-19.6 30v0.4c12.4 96.4 21.6 214 17.6 342h119.6s14-77.2 14-79.2H652c0 2 14 79.2 14 79.2h119.6C776 478.4 852 216 852 216" fill="#EB5A0E"></path></svg>