<svg viewBox="0 0 1024 1024" version="1.1" xmlns="http://www.w3.org/2000/svg"><path d="M224 0h576c123.6 0 224 100.4 224 224v576c0 123.6-100.4 224-224 224H224c-123.6 0-224-100.4-224-224V224C0 100.4 100.4 0 224 0z" fill="#FFFFFF"></path><path d="M136 699.2L335.2 328s75.2 11.6 119.6 73.6c44.4 62 112.8 264.8 217.6 295.6 0 0-123.6 6-174.8-34.4-51.2-40.4-71.2-95.6-71.2-95.6l-29.2-53.6s-8.8-15.2-27.6-23.6c-20.4-9.2-53.2-12-78.8 16-45.2 49.6-1.6 124 68.4 108.8 0 0 24.4-1.6 16.8 20.8-7.6 22.8-45.2 63.6-80.4 63.6H136z m256-374.4c131.6-10.8 179.2 93.6 179.2 93.6s60.4 105.2 98.8 179.2c38.4 74 114 102 114 102-29.2 2.4-62.8-3.2-62.8-3.2-61.6-9.6-116.4-99.2-157.6-177.6-17.2-32.8-55.2-104.4-80.4-132.8C445.2 342.8 392 324.8 392 324.8z m108 0c131.6-10.8 179.2 93.6 179.2 93.6s60.4 105.2 98.8 179.2c38.4 74 114 102 114 102-29.2 2.4-62.8-3.2-62.8-3.2-61.6-9.6-116.4-99.2-157.6-177.6-17.2-32.8-55.2-104.4-80.4-132.8-38-43.2-91.2-61.2-91.2-61.2z" fill="#E50113"></path></svg>