<svg viewBox="0 0 1024 1024" version="1.1" xmlns="http://www.w3.org/2000/svg"><path d="M360.2 479.4v4.1h12.7v3.5h-12.7v11.7c0.7 3.3-5.7 9.1-19.4 17.5 13.9 8.2 24.6 14.2 32.1 17.9-11.9 0-19.6-0.1-23.1-0.3-4-0.5-7.3-1.5-10.1-3.2-4.2-3-8.1-5.3-11.6-6.7-3.5 1.4-7.3 3.6-11.6 6.7-3.2 1.6-6.7 2.7-10.4 3.2-3.5 0.2-11.1 0.3-22.7 0.3 6.5-3.3 17.2-9.2 32.1-17.9-14.2-8.9-20.6-14.7-19.4-17.5V487h-12.7v-3.5h12.7v-4.8h-8.6v-18.2h15.7v6.3c1.5-3.7 6-5.7 13.4-6h3.4V451h17.9v9.8h15.7c11.4-0.2 16.9 2.3 16.4 7.7v6.3c0 1.9-0.9 3.4-2.6 4.6h-7.2z m-6.7-4.8v-6.5c0-2.6-2.9-3.9-8.6-3.9h-27.2c-7.5 0-12.3 1.6-14.5 4.9v4.2h7.8v10.1h34.7v-8.9h7.8z m-8.2 20.6V487H311v8.2c-0.3 1.4 5.5 5.7 17.1 13 11.5-7.3 17.2-11.6 17.2-13z m96.8 21.8h-10.8v-49.2h10.8c1.7-2.8 3.4-6.4 4.9-10.9h-17.6v-3.1h50.8v3.2h-17.9c-1.5 4-3 7.6-4.5 10.9h8.6c7.7-0.2 11.5 2.6 11.2 8.4v40h-10.8V477c0.2-4.2-2.1-6.3-7.1-6.3h-10.8c-3.5 0-5.7 1.6-6.7 4.9V517z m5.6-12.3V477h13.4v32.6c3.2 6.1 6.7 11.3 10.5 15.8 2.2 3.7 5.1 6.7 8.6 8.8-11.5 1.2-18.1-0.1-19.8-3.9-2.2-2.8-4.2-5.5-6-8.1-2.2 2.6-4.9 5.4-7.8 8.4-2.7 3-9.7 4.1-20.9 3.2 7.2-4.2 13.7-10.6 19.4-19.3 1.7-2.8 2.6-6.1 2.6-9.8z m-31.4 28v-81.3h9.7v81.4h-9.7z m-9.4-6.3v-70.8h6v70.9h-6z m-13-8.7V451h9.7v67.4c1 11.2-3.4 16.4-13.1 15.4 2.3-3.7 3.4-9.1 3.4-16.1zM561.4 480h-7.5v38.5c10.5 3.5 15.4 1.1 14.9-7.3v-23.5c0.5-5.6-2-8.1-7.4-7.7z m-39.6 44.1h-15.7v-47.9h15.7v5.9c1-3.7 5-5.6 12-5.6h3v-9.8H554v9.8h16.8c9 0 13.3 3.8 13.1 11.5v24.8c0.2 8.4-4.5 12.4-14.2 11.9-6.5-0.2-11.7-2.2-15.7-5.9v15.7h-17.2V480h-5.6c-5 0.2-8.1 1.9-9.3 4.9v39.2z m67.9-60.2h-89.6v-3.5h36.6V451h17.2v9.4h35.9v3.5z m77.7 2.7h16.8c-1.2 5.1-3.4 8.2-6.4 9.1-2.5 1.2-9.1 1.3-19.8 0.4 3.8-1 6.9-4.2 9.4-9.5zM652.1 504c-3.2-0.2-5.6 1.5-7.1 5.2v6.6c1 3.7 3.4 5.4 7.1 4.9h1.5c5.2 0.5 7.7-1.6 7.5-6.3v-5.6c-0.2-3-2.4-4.7-6.4-4.9h-2.6z m-7.1 20.3h-12v-24.1h12v6.6c0.5-4.4 3.2-6.6 8.2-6.6h8.6c7.7-0.2 11.5 2.9 11.2 9.4v5.9c-0.2 6.1-3.5 9-9.7 8.7h-9.7c-4.7 0.2-7.6-1.4-8.6-4.9v5z m-23.6-57.7h16.8c2.2 5.4 5.4 8.5 9.3 9.4-11 0.9-17.7 0.8-20.2-0.4-2.9-0.9-4.9-3.9-5.9-9z m6.4 67.9h-14.2v-54.6h14.2v7c1-4.7 5.4-7 13.1-7H679c9.7 0 14.5 3.9 14.2 11.5V524c0.2 7.7-4.2 11.4-13.5 11.2-8.2-0.2-15-2.8-20.2-7.7 13.7 3.7 20.1 1.4 19.1-7v-21.4c-11.2 0.7-17.8-1.5-19.8-6.6-1.2-1.4-2.1-3.1-2.6-5.2h15c2.5 6.3 5 10 7.5 11.2v-6.6c0.2-5.8-2.6-8.6-8.6-8.4h-31.8c-5.2-0.2-8.7 1.5-10.5 5.2v9.4c3-2.1 5.7-5.7 8.2-10.8h15.3c-1 2.6-2.2 4.9-3.7 7-1.7 3.5-8.4 4.8-19.8 3.8v36.4z m65.8-70.7h-82.2v-3.1h32.5v-8.8h18.3v8.7h31.4v3.2z m93.7 5.2h13.4c-0.3 2.1-0.7 6.7-1.5 13.7-1 9.1-1.6 14.7-1.9 16.8-0.3 10.3-6.6 14.7-19 13.3v16.1h24.6v3.9h-86.1v-3.9h24.6v-16.1c-12.4 1.2-18.6-3.3-18.6-13.3-0.5-2.1-1.2-7.7-2.2-16.8-0.7-7-1.1-11.6-1.1-13.7h13.4c0 1.2 0.1 3.3 0.4 6.3 1.5 13.1 2.6 21.1 3.4 24.2 1.2 6.3 2.9 10.3 4.8 11.9v-58.2H756v75.7h7.5v-76h14.9v58.9c2.2-1.6 4-5.7 5.2-12.3 0.5-3 1.5-11.1 3-24.2 0.2-2.6 0.4-4.7 0.7-6.3z m100 22.5c4.5 0.5 6.7-1.4 6.7-5.6v-9.4h-24.2v12.2c1 2.1 2.6 3 4.8 2.8h12.7z m-11.9-33.8c-2.7 0-4.6 0.7-5.6 2.1V473H894v-9.8c0-3.7-2-5.6-6-5.6h-12.6z m1.9 68.6c3.5 0 7.3-0.9 11.6-2.8-0.7-0.5-1.5-1.3-2.2-2.4-2.7-3-5.3-5.9-7.8-8.7-3-3.3-6-6.9-8.9-10.8v16c-0.9 6.5 1.6 9.4 7.3 8.7z m-21.6-8.7v-64.1h14.2v4.5c1.5-2.6 4.1-3.8 7.8-3.8h17.5c8.7 0 13 3.4 13 10.1v20.9c0.2 7-4.1 10.1-13 9.4h-17.9c-4.2 0.2-6.7-0.9-7.5-3.5v9.1H884c1.5 2.3 3 4.3 4.5 5.9 1.2 1.4 2.2 2.4 3 3.1 2.7-2.6 5.5-6.3 8.2-11.1h13c-2 3.9-3.7 7-5.2 9.1-2.5 4.2-6.5 6.3-11.9 6.3 0.5 0.7 1.5 1.9 3 3.5 1.7 1.6 3.1 2.8 4.1 3.5 3 2.8 6.8 5.6 11.6 8.4-12.4 1.9-20.8 0.2-25-4.9-4.2 7-10.6 10.6-19 10.8-9.2 0.2-13.9-3.3-14.2-10.5-3 6.5-7.7 9.9-14.2 10.1-7.2 0-10.7-3.6-10.4-10.8v-24.8h-8.2v-3.1h8.2v-15.4h-6.3v-3.1h27.6v3.1h-7.1v15.3h8.9v3.1h-8.9V519c-0.5 4.9 0.6 7.1 3.4 6.6 2-0.2 4.2-1.4 6.7-3.5v-4.5z m-1.5-55.8v3.2h-11.6c-0.5 1.6-0.9 2.9-1.1 3.8-2.2 5.1-8.3 7.2-18.3 6.3 3.2-3 5.8-10.9 7.8-23.7h15.3c-0.5 1.4-1 3.1-1.5 5.2-0.5 2.3-0.9 4.1-1.1 5.2h10.5z m115.9-3.1v-3.5h47.8v3.5h-47.8z m22 58.9v-34.8H966V479h55.6v3.8h-13.1v40.4c0.2 7.9-5.1 11.7-16.1 11.5-11-0.2-19-3.5-24.3-9.8 5.2 1.4 10.1 2.1 14.6 2.1 6.8 0.5 9.9-2.7 9.4-9.4z m-35.5 16.7h-16.4v-34.5h-8.6c5.2-3.5 9.7-11.6 13.4-24.4h16.8c-1.7 5.3-3.5 10.2-5.2 14.6v44.3z m-10.4-82.9h17.6c-2 6.7-3.9 11.7-5.6 15-2.2 5.8-11.1 8.1-26.5 7 5.9-3.8 10.7-11.1 14.5-22zM852.5 554l-1 1.9-2.8 6h5.6l1.3 2.7h-8.2l-1.6 3.5c-0.2 0.4-0.3 0.7-0.4 1l1.3 1.3h-6.1s1.4-1.4 1.6-1.5c0.2-0.2 1.2-2.4 1.8-3.7l7.2-15.6h3.8l7.3 15.6c0.6 1.3 1.7 3.5 1.8 3.7 0.2 0.2 1.6 1.5 1.6 1.5h-7.6s1.2-1.3 1.3-1.3c-0.1-0.3-0.2-0.6-0.4-1l-1.6-3.5h-7.6l1.3-2.7h5.1l-3.7-7.9z m-201.2 0l-1 1.9-2.8 6h5.6l1.3 2.7h-8.2l-1.6 3.5c-0.2 0.4-0.3 0.7-0.4 1l1.3 1.3h-6.1s1.4-1.4 1.6-1.5c0.2-0.2 1.2-2.4 1.8-3.7l7.2-15.6h3.8l7.3 15.6c0.6 1.3 1.7 3.5 1.8 3.7 0.2 0.2 1.6 1.5 1.6 1.5H657s1.2-1.3 1.3-1.3c-0.1-0.3-0.2-0.6-0.4-1l-1.6-3.5h-7.6l1.3-2.7h5.1l-3.8-7.9z m-105.7-4.2l7.2 15.5c0.6 1.3 1.7 3.5 1.8 3.7 0.2 0.2 1.6 1.5 1.6 1.5h-7.6s1.2-1.3 1.3-1.3c-0.1-0.3-0.2-0.6-0.4-1l-1.6-3.5h-7.6l1.3-2.7h5.1l-3.1-8.3-3.8 8.3h5.6l1.3 2.7h-8.2l-1.6 3.5c-0.2 0.4-0.3 0.7-0.4 1l1.3 1.3h-6.1s1.4-1.4 1.6-1.5c0.2-0.2 1.2-2.4 1.8-3.7l7.1-15.5-0.1-0.1h3.6l-0.1 0.1z m260.8 2.9h-4.9v6.4h4c1.2 0 2.1-0.1 2.1-0.1l1.2-1.5v5.7s-1-1.3-1.3-1.4c-0.3-0.1-0.9-0.1-1.9-0.1h-4v5.4c0.1 1.3 0.2 2 0.4 2.2 0.2 0.2 2.5 1.6 2.5 1.6h-9.9s1.9-1.4 2.1-1.7c0.2-0.2 0.3-0.9 0.3-2.1v-12.6c0-1.2-0.1-1.9-0.3-2.1-0.2-0.2-2.1-2.4-2.1-2.4h14.3l2.1 5.1s-2.4-2-2.7-2.1c-0.4-0.2-1-0.3-1.9-0.3zM621.5 568c1.2 0 2.2-0.3 2.9-1 0.6-0.5 1-0.9 1-1.9 0-1-0.6-1.7-1.4-2.3-0.9-0.8-2.2-1.1-3.6-1.2v-2.8c1.4 0 2.5-0.3 3.2-1 0.6-0.5 1.1-1.4 1.1-2.2 0-0.8-0.5-1.6-1.1-2-0.7-0.6-1.9-0.9-3.4-0.9h-0.9V565.7c0 1 0.1 1.6 0.4 1.9 0.2 0.3 0.8 0.4 1.8 0.4z m4.7-8.1c1 0.3 1.8 0.8 2.4 1.3 1 0.9 1.5 2 1.5 3.4 0 2.6-0.6 4.3-1.8 5.1-1.2 0.8-3.1 1.2-5.5 1.2h-10.5s1.9-1.4 2.1-1.7c0.2-0.2 0.3-0.9 0.3-2.1v-13.4c0-1.2-0.1-1.9-0.3-2.1-0.2-0.2-2.1-1.7-2.1-1.7h10.4c2.2 0 3.8 0.4 4.9 1.1 1.1 0.7 1.6 1.2 1.6 3.3s-0.4 3.6-1.3 4.4c-0.4 0.4-1 0.8-1.7 1.2z m67-6.3c0-1.2-0.1-1.9-0.3-2.1-0.2-0.2-2.1-1.6-2.1-1.6h7.1s-1.9 1.3-2.1 1.6c-0.2 0.2-0.3 0.9-0.3 2.1v17.6h-3.1L680 556.3v10.8c0 1.2 0.1 1.9 0.3 2.1 0.2 0.2 2.1 1.7 2.1 1.7h-7.1s1.9-1.4 2.1-1.7c0.2-0.2 0.3-0.9 0.3-2.1v-11.9c0-1.2-0.1-1.9-0.3-2.1-0.2-0.2-2.1-3.2-2.1-3.2h5.6l12.3 14.8v-11.1z m26.5 5.7s2.9 0.2 5.2 2.3c3.2 2.9 5.1 7.8 5.1 7.8l1.6 1.5h-10l1.4-2s-0.5-2.5-2-4.1c-1.5-1.7-5.2-3.3-5.2-3.3v5.6c0 1.5 0.2 2.3 0.5 2.3 0.6 0.1 1.6 1.5 1.6 1.5h-9s1.9-1.4 2.1-1.7c0.2-0.2 0.3-0.9 0.3-2.1v-13.4c0-1.2-0.1-1.9-0.3-2.1-0.2-0.2-2.1-1.7-2.1-1.7h9s-1.6 1.4-1.8 1.7c-0.2 0.2-0.3 0.9-0.3 2.1v5.2l7.3-5.9c0.5-0.4 1-0.8 1.3-1.1-0.1 0-1.4-2-1.4-2h8s-3.7 3.2-5.6 4.6l-5.7 4.8z m52.3 9.3c2.1 0 3.7-0.7 4.8-2.2 1-1.4 1.5-3.4 1.6-6-0.1-2.6-0.6-4.6-1.6-5.9-1.1-1.5-2.7-2.2-4.8-2.2-2.1 0-3.7 0.7-4.8 2.2-1 1.4-1.5 3.3-1.6 5.9 0.1 2.6 0.6 4.6 1.6 6 1 1.5 2.6 2.2 4.8 2.2z m0-19.1c3.5 0 6.3 0.9 8.3 2.7 2 1.8 3 4.3 3 7.5V561.3c0 3.2-1 5.7-3 7.5-2 1.8-4.8 2.7-8.3 2.7-3.5 0-6.3-0.9-8.3-2.7-2-1.8-3-4.3-3-7.5v-0.2-0.2-0.2-0.2-0.4-0.4c0-3.2 1-5.7 3-7.5 2-1.8 4.7-2.7 8.3-2.7z m244.4 0.4h7.1s-1.9 1.5-2.1 1.7c-0.2 0.2-0.3 0.9-0.3 2.1v17.5h-3.1l-12.4-14.9v10.8c0 1.2 0.1 1.9 0.3 2.1 0.2 0.2 2.1 1.7 2.1 1.7h-7.1s1.9-1.4 2.1-1.7c0.2-0.2 0.3-0.9 0.3-2.1v-11.9c0-1.2-0.1-1.9-0.3-2.1-0.2-0.2-2.1-3.2-2.1-3.2h5.6l12.3 14.8v-11c0-1.2-0.1-1.9-0.3-2.1-0.1-0.2-2.1-1.7-2.1-1.7z m-123.9 3.8c0-1.2-0.1-1.9-0.3-2.1-0.2-0.2-2.1-1.7-2.1-1.7h7.1s-1.9 1.5-2.1 1.7c-0.2 0.2-0.3 0.9-0.3 2.1v17.5h-3.1l-12.4-14.9v10.8c0 1.2 0.1 1.9 0.3 2.1 0.2 0.2 2.1 1.7 2.1 1.7h-7.1s1.9-1.4 2.1-1.7c0.2-0.2 0.3-0.9 0.3-2.1v-11.9c0-1.2-0.1-1.9-0.3-2.1-0.2-0.2-2.1-3.2-2.1-3.2h5.6l12.3 14.8v-11z m93.3 0c0-1.2-0.1-1.9-0.3-2.1-0.2-0.2-2.1-1.7-2.1-1.7h7.1s-1.9 1.5-2.1 1.7c-0.2 0.2-0.3 0.9-0.3 2.1v9.5c0 2.8-0.7 4.9-2 6.2-1.4 1.3-3.5 2-6.3 2-6 0-9.1-2.6-9.1-7.9v-9.6c0-1.2-0.1-1.9-0.3-2.1-0.2-0.2-2.1-1.7-2.1-1.7h9.5s-1.9 1.5-2.1 1.7c-0.2 0.2-0.3 0.9-0.3 2.1v8.4c0 2.3 0.4 4 1.1 5 0.8 1 2.1 1.5 3.9 1.5 1.9 0 3.4-0.5 4.2-1.6 0.9-1 1.3-2.7 1.3-5v-8.5zM918 558c2.2 1.1 3.7 2.1 4.5 2.9 0.8 0.9 1.2 1.9 1.2 3.2v1.3c0 1.8-0.8 3.2-2.3 4.3-1.5 1.1-3.6 1.6-6.2 1.6-1.6 0-3.4-0.2-5.5-0.6-0.3 0-0.8 0.6-0.8 0.6V565s2.6 2.2 3 2.6c0.9 0.7 2 1 3.3 1 1.2 0 2.2-0.3 2.9-1 0.6-0.5 0.9-1.1 1-1.8-0.1-0.5-0.3-0.9-0.6-1.3-0.4-0.5-1.3-1-2.5-1.6l-1.5-0.7c-3.7-1.8-5.6-3.8-5.6-5.9v-0.2-0.2-0.2-0.2-0.4-0.4c0-1.7 0.7-3 2-4 1.4-1 3.1-1.5 5.4-1.5 1.5 0 5.2 0.7 5.2 0.7l0.8-0.8v6.4s-2.6-2.2-2.9-2.5c-0.7-0.6-1.7-1-2.8-1-1 0-1.8 0.3-2.4 0.9-0.5 0.4-0.8 0.9-0.9 1.5 0.1 0.4 0.3 0.7 0.6 1 0.4 0.5 1.3 1 2.5 1.6l1.6 1z m40-8.1s-1.9 1.5-2.1 1.7c-0.2 0.2-0.3 0.9-0.3 2.1v13.4c0 1.2 0.1 1.9 0.3 2.1 0.2 0.2 2.1 1.7 2.1 1.7h-9.5s1.9-1.4 2.1-1.7c0.2-0.2 0.3-0.9 0.3-2.1v-5.8h-9.2v5.8c0 1.2 0.1 1.9 0.3 2.1 0.2 0.2 2.1 1.7 2.1 1.7h-9.5s1.9-1.4 2.1-1.7c0.2-0.2 0.3-0.9 0.3-2.1v-13.4c0-1.2-0.1-1.9-0.3-2.1-0.2-0.2-2.1-1.7-2.1-1.7h9.5s-1.9 1.5-2.1 1.7c-0.2 0.2-0.3 0.9-0.3 2.1v4.8h9.2v-4.8c0-1.2-0.1-1.9-0.3-2.1-0.2-0.2-2.1-1.7-2.1-1.7h9.5z m-494.4 11.5l3.5 4.2c1.1 1.3 4 5.3 4 5.3h-6.7l-6.2-8.6h-0.6v-2.8c1.3-0.1 2.4-0.5 3.3-1.2 0.7-0.7 1.2-1.5 1.3-2.6-0.3-2.1-1.6-3.1-4.2-3.1h-1.7V567c0 1.2 0.1 1.9 0.3 2.1 0.2 0.3 1.8 1.7 1.8 1.7h-9s1.9-1.4 2.1-1.7c0.2-0.2 0.3-0.9 0.3-2.1v-13.4c0-1.2-0.1-1.9-0.3-2.1-0.2-0.2-2.1-1.7-2.1-1.7h6.5l2.8-0.1h1.4c4.6 0 6.9 1.6 6.9 4.9v1.3c0 1.3-0.4 2.5-1.1 3.4-0.6 1-1.3 1.6-2.3 2.1z m-176.7-1.1c0.1 2.5 0.8 4.5 2 5.8 1.3 1.4 3.4 2.2 6.1 2.2 1.9 0 4-0.5 6.4-1.4v4.2l-0.7-0.7s-4.3 1-6.7 1c-3.8 0-6.7-0.9-8.8-2.7-2.1-1.8-3.2-4.3-3.2-7.5v-0.2-0.2-0.2-0.2-0.4-0.4c0-3.2 1-5.8 3.1-7.5 2.1-1.8 5-2.7 8.7-2.7 2 0 6.2 0.6 6.2 0.6l1.1-0.9v6.6s-2.5-2.2-2.9-2.5c-1-0.7-2.4-1.1-4.3-1.1-2.2 0-3.9 0.8-5.1 2.3-1.2 1.5-1.8 3.5-1.9 5.9z m144.6 7.8h1.9c1.5 0 2.3-0.1 2.5-0.2 0.2-0.1 2.7-2.1 2.7-2.1l-1.7 5.1h-15.4s1.9-1.4 2.1-1.7c0.2-0.2 0.3-0.9 0.3-2.1v-13.4c0-1.2-0.1-1.9-0.3-2.1-0.2-0.2-2.1-1.7-2.1-1.7h14.9l1.6 5s-2.5-1.9-2.7-2c-0.3-0.1-0.8-0.2-1.7-0.2h-4.9v6h3.2c1.2 0 1.9 0 2.1-0.1 0.2-0.1 0.3-0.5 0.3-1.2v-0.3h1.6v5.7h-1.6v-0.2c0-0.7-0.2-1.1-0.4-1.2-0.3-0.1-0.9-0.1-1.9-0.1h-3.3v4.4c0 1.5 0.2 2.2 0.6 2.3 0.1 0.1 0.9 0.1 2.2 0.1z m-59.1-18.2s-1.9 1.5-2.1 1.7c-0.2 0.2-0.3 0.9-0.3 2.1v13.4c0 1.2 0.1 1.9 0.3 2.1 0.2 0.2 2.1 1.7 2.1 1.7h-8.8s1.7-1.4 1.8-1.7c0.2-0.2 0.3-1 0.3-2.1v-11.6l-6.9 13.2h-1.6l-6.8-14.1V567c0 1.2 0.1 1.9 0.3 2.1 0.2 0.3 1.8 1.7 1.8 1.7h-6.7s1.9-1.4 2.1-1.7c0.2-0.2 0.3-0.9 0.3-2.1v-13.4c0-1.2-0.1-1.9-0.3-2.1-0.2-0.2-2.1-1.7-2.1-1.7h7.4l6.2 12.7 6.2-12.7h6.8z m38.5 0s-1.9 1.5-2.1 1.7c-0.2 0.2-0.3 0.9-0.3 2.1v13.4c0 1.2 0.1 1.9 0.3 2.1 0.2 0.2 2.1 1.7 2.1 1.7h-8.8s1.7-1.4 1.8-1.7c0.2-0.2 0.3-1 0.3-2.1v-11.6l-6.9 13.2h-1.6l-6.8-14.1V567c0 1.2 0.1 1.9 0.3 2.1 0.2 0.3 1.8 1.7 1.8 1.7h-6.7s1.9-1.4 2.1-1.7c0.2-0.2 0.3-0.9 0.3-2.1v-13.4c0-1.2-0.1-1.9-0.3-2.1-0.2-0.2-2.1-1.7-2.1-1.7h7.4l6.2 12.7 6.2-12.7h6.8z m75.4 10.4c0.1 2.5 0.8 4.5 2 5.8 1.3 1.4 3.4 2.2 6.1 2.2 1.9 0 4-0.5 6.4-1.4v4.2l-0.7-0.7s-4.3 1-6.7 1c-3.8 0-6.7-0.9-8.8-2.7-2.1-1.8-3.2-4.3-3.2-7.5v-0.2-0.2-0.2-0.2-0.4-0.4c0-3.2 1-5.8 3.1-7.5 2.1-1.8 4.9-2.7 8.7-2.7 2 0 6.2 0.6 6.2 0.6l1.1-0.9v6.6s-2.5-2.2-2.9-2.5c-1-0.7-2.4-1.1-4.3-1.1-2.2 0-3.9 0.8-5.1 2.3-1.2 1.5-1.8 3.5-1.9 5.9z m91.8 7.8c0.8 0 1.5 0 2.2-0.1 0.3 0 0.6-0.1 0.7-0.3 0.1-0.2 2.4-2.8 2.4-2.8v6.1h-17.3s1.9-2.9 2.1-3.2c0.2-0.2 0.3-0.9 0.3-2.1v-10.4c0-1.2-0.1-1.9-0.3-2.1-0.2-0.2-2.1-3.2-2.1-3.2h9.5s-2 3-2.1 3.2c-0.2 0.2-0.3 0.9-0.3 2.1v10.4c0 1.5 0.2 2.2 0.6 2.3 0.3 0.1 1.1 0.1 2.4 0.1h1.9z m-56.4-18.2s-1.9 1.5-2.1 1.7c-0.2 0.2-0.3 0.9-0.3 2.1v13.4c0 1.2 0.1 1.9 0.3 2.1 0.2 0.2 2.1 1.7 2.1 1.7h-9.5s1.9-1.4 2.1-1.7c0.2-0.2 0.3-0.9 0.3-2.1v-13.4c0-1.2-0.1-1.9-0.3-2.1-0.2-0.2-2.1-1.7-2.1-1.7h9.5z m-197.1 18.7c2.1 0 3.8-0.7 4.8-2.2 1-1.4 1.5-3.4 1.6-6-0.1-2.6-0.6-4.6-1.6-5.9-1.1-1.5-2.7-2.2-4.8-2.2-2.1 0-3.7 0.7-4.8 2.2-1 1.4-1.5 3.3-1.6 5.9 0.1 2.6 0.6 4.6 1.6 6 1.1 1.5 2.7 2.2 4.8 2.2z m0-19.1c3.5 0 6.3 0.9 8.3 2.7 2 1.8 3 4.3 3 7.5V561.3c0 3.2-1 5.7-3 7.5-2 1.8-4.8 2.7-8.3 2.7-3.5 0-6.3-0.9-8.3-2.7-2-1.8-3-4.3-3-7.5v-0.2-0.2-0.2-0.2-0.4-0.4c0-3.2 1-5.7 3-7.5 2-1.8 4.8-2.7 8.3-2.7z" fill="#231916"></path><path d="M0 573.6L65.7 451s24.9 3.9 39.5 24.4c14.6 20.5 37.3 87.4 71.8 97.7 0 0-40.9 1.9-57.7-11.3-16.8-13.3-23.5-31.5-23.5-31.5l-9.7-17.7s-2.9-5-9.1-7.7c-6.7-3-17.5-4-26 5.3-14.9 16.3-0.6 41 22.6 36 0 0 8-0.6 5.5 6.9s-14.9 21-26.5 21-52.6-0.5-52.6-0.5z m84.6-123.3c43.3-3.6 59.1 30.7 59.1 30.7s19.9 34.5 32.6 58.8c12.7 24.3 37.5 33.4 37.5 33.4-9.7 0.8-20.7-1.1-20.7-1.1-20.2-3.1-38.3-32.5-51.9-58.3-5.6-10.8-18.2-34.3-26.5-43.6-12.5-14-30.1-19.9-30.1-19.9z m36.3 0c43.4-3.6 59.1 30.6 59.1 30.6s19.9 34.5 32.6 58.8c12.7 24.3 37.5 33.4 37.5 33.4-9.7 0.8-20.7-1.1-20.7-1.1-20.2-3.1-38.3-32.5-51.9-58.3-5.7-10.7-18.2-34.2-26.5-43.5-12.5-14-30.1-19.9-30.1-19.9z" fill="#E50113"></path></svg>