<svg viewBox="0 0 1024 1024" version="1.1" xmlns="http://www.w3.org/2000/svg"><path d="M751.838 586.85l-3.182-2.209v-4.68h13.229l28.467 36.726v-36.725h9.554v51.25h-10.518l-27.959-36.743v36.743h-9.591V586.85z m155.751-0.164l-0.786 0.31-3.392-2.355v-4.68h14.239l28.475 36.726v-36.725h9.541v51.25h-10.512l-27.965-36.743v36.743h-9.6v-44.526z m-444.16-0.003l-0.792 0.313-3.395-2.355v-4.68h14.236l28.472 36.726v-36.725h9.548v51.25h-10.51l-27.97-36.743v36.743h-9.59v-44.529z m404.185 0.313l-3.394-2.355v-4.68H879.744l21.657 51.251h-10.983l-5.917-14.063H865.65l-5.511 14.063h-10.993l18.468-44.216z m-153.758-0.009l-3.387-2.346v-4.68h15.521l21.66 51.251h-10.99l-5.913-14.063H711.9l-5.507 14.063h-10.997l18.46-44.225z m-289.185-0.535l-2.61-1.81v-4.68h14.517l21.66 51.25H447.25l-5.915-14.063h-18.852l-5.506 14.063h-10.995l18.69-44.76z m222.689 0.42l-3.215-2.23v-4.68h32.073v8.57h-18.587v12.553h18.671v8.486h-18.671v21.641H647.36v-44.34z m-123.608-0.006l-3.21-2.225v-4.68h13.551l0.069 19.84a38.059 38.059 0 0 0 1.386-1.523l17.315-18.316h12.885l-24.362 25.228 26.386 26.022h-13.614l-19.348-19.2c-0.216-0.183-0.458-0.417-0.715-0.668v19.868h-10.343v-44.346z m-144.31 22.073v14.15h5.22c3.157 0 5.643-0.682 7.37-2.038 1.664-1.318 2.477-3.116 2.477-5.49 0-2.26-0.797-3.863-2.44-4.911-1.76-1.134-4.472-1.711-8.078-1.711h-4.55z m9.798-9.976c1.597-1.202 2.377-2.905 2.377-5.235 0-0.765-0.14-1.472-0.423-2.16-0.256-0.646-0.699-1.23-1.317-1.747-0.657-0.528-1.515-0.967-2.542-1.273-1.088-0.334-2.459-0.5-4.076-0.5h-3.817v12.798h2.288c3.321 0 5.845-0.637 7.51-1.883z m-23.454-19.001h17.39c2.879 0 5.507 0.285 7.8 0.839 2.333 0.564 4.342 1.417 5.979 2.506 1.686 1.146 2.982 2.564 3.841 4.202 0.88 1.664 1.325 3.58 1.325 5.692 0 1.39-0.213 2.725-0.63 3.949a12.977 12.977 0 0 1-1.747 3.35 12.808 12.808 0 0 1-2.634 2.713c-0.296 0.232-0.595 0.443-0.9 0.645 0.612 0.234 1.207 0.493 1.78 0.768 1.398 0.72 2.618 1.58 3.626 2.577a11.714 11.714 0 0 1 2.47 3.606c0.594 1.365 0.891 2.885 0.891 4.528 0 2.318-0.426 4.476-1.264 6.416-0.852 1.966-2.202 3.675-4.01 5.09-1.751 1.365-4.022 2.46-6.74 3.233-2.651 0.755-5.858 1.136-9.54 1.136h-14.326v-44.328l-3.31-2.311v-4.611z m245.997 42.86c2.519 0 4.796-0.398 6.758-1.182 1.937-0.781 3.599-1.925 4.926-3.39 1.334-1.458 2.374-3.307 3.082-5.475 0.728-2.21 1.099-4.748 1.099-7.56 0-2.853-0.344-5.428-1.021-7.64-0.657-2.184-1.642-4.061-2.938-5.586-1.28-1.5-2.878-2.66-4.753-3.452-1.903-0.805-4.146-1.211-6.662-1.211-2.404 0-4.607 0.436-6.548 1.283-1.963 0.863-3.588 2.037-4.964 3.584-1.373 1.548-2.45 3.43-3.202 5.607-0.77 2.204-1.155 4.675-1.155 7.342 0 2.67 0.367 5.142 1.09 7.344 0.71 2.154 1.749 4.01 3.091 5.544a13.71 13.71 0 0 0 4.818 3.522c1.9 0.836 4.047 1.27 6.379 1.27z m19.405-36.77c2.214 2.258 3.945 4.972 5.135 8.071 1.19 3.12 1.793 6.579 1.793 10.3 0 4.054-0.606 7.773-1.807 11.062-1.227 3.322-2.993 6.174-5.244 8.478-2.258 2.325-5.064 4.135-8.323 5.385-3.201 1.242-6.887 1.864-10.96 1.864-3.914 0-7.492-0.617-10.637-1.828-3.174-1.207-5.938-2.955-8.2-5.215-2.261-2.24-4.025-4.96-5.256-8.118-1.216-3.132-1.828-6.65-1.828-10.454 0-3.99 0.608-7.663 1.808-10.917 1.208-3.274 2.994-6.112 5.306-8.444 2.317-2.327 5.172-4.136 8.48-5.399 3.287-1.244 7.065-1.88 11.227-1.88 3.787 0 7.298 0.628 10.435 1.855 3.134 1.22 5.846 2.987 8.07 5.24z m210.896-6.09h11.082l-18.977 29.808v21.442h-10.247V610.01l-15.18-24.037-3.832-1.51 0.043-4.501h11.573l12.63 21.473 12.908-21.473z m-404.026 28.475l-6.196-16.14-6.017 16.14h12.213z m289.415 0l-6.199-16.14-6.015 16.14h12.214z m153.757 0l-6.2-16.14-6.015 16.14h12.215z m109.376 3.905v-8.44h22.113v22.516l-0.585 0.307c-2.885 1.52-6.05 2.656-9.391 3.39-3.309 0.722-6.85 1.097-10.504 1.097-4.255 0-8.133-0.65-11.526-1.906-3.386-1.267-6.315-3.062-8.702-5.343-2.376-2.286-4.195-5.017-5.433-8.132-1.242-3.112-1.867-6.53-1.867-10.154 0-4.165 0.763-7.941 2.272-11.233 1.505-3.287 3.596-6.123 6.215-8.41 2.625-2.29 5.743-4.056 9.282-5.257 3.535-1.207 7.386-1.82 11.438-1.82 3.328 0 6.611 0.393 9.749 1.163 1.58 0.39 3.091 0.851 4.51 1.438 3.073 1.28 4.769 2.325 4.769 2.325l-4.835 10.033-3.24-1.34-0.922-3.264a32.91 32.91 0 0 0-1.195-0.394 32.55 32.55 0 0 0-4.505-1.115c-4.637-0.833-8.727-0.386-12.158 0.901-2.288 0.851-4.254 2.076-5.857 3.633-1.578 1.542-2.814 3.44-3.67 5.635-0.869 2.203-1.304 4.668-1.305 7.323 0 2.566 0.38 4.96 1.133 7.123 0.731 2.1 1.854 3.946 3.335 5.472 1.474 1.526 3.356 2.743 5.587 3.61 2.246 0.879 4.904 1.322 7.904 1.322 1.707 0 3.465-0.18 5.244-0.53 1.46-0.283 2.808-0.667 4.002-1.142v-8.808h-11.858zM434.823 451.334h81.7l-1.85 13.366s-0.253 2.947-3.269 2.947h-25.911c-5.763 14.35-13.412 28.058-22.742 36.413 4.805 2.088 10.857 4.596 17.996 7.45 12.697 4.993 20.012 7.93 24.49 9.8l3.618 1.519-8.931 15.454s-1.347 2.36-4.202 0.973c-2.851-1.403-29.619-13.351-50.203-21.918-26.508 16.165-65.098 23.025-68.636 23.397-3.54 0.356-3.87-2.117-3.87-2.117-1.59-3.96-5.304-14.273-5.304-14.273 24.507-3.747 43.3-10.547 56.66-16.765-19.558-9.512-44.823-17.791-44.823-17.791l6.28-12.386s0.858-2.048 3.22-1.164c1.53 0.494 3.926 1.272 6.91 2.256 2.509-3.313 4.953-7.017 7.269-10.848h-36.247c-3.204 0-3.32-2.247-3.32-2.247l-1.892-14.066h50.354c5.271-10.59 8.693-19.094 8.693-19.094h22.35a209.242 209.242 0 0 1-8.34 19.094z m-9.15 16.313c-6.466 10.258-11.529 15.873-12.323 16.732 10.824 3.766 22.68 8.112 30.652 11.678 9.362-7.512 16.579-18.523 21.46-28.41h-39.788z m132.712-48.663v77.103c1.127 0.224 3.165 0.562 5.468 0.562 5.567 0 12.183-1.978 12.183-11.427 0-10.906-4.669-19.791-13.89-30.095l-1.297-1.461 0.1-0.317s6.786-12.621 9.362-21.418c2.581-8.8 3.26-12.947 3.26-12.947h-15.186z m32.465 6.17c-3.318 14.382-9.906 25.084-9.906 25.084 9.117 11.15 13.74 21.903 13.74 35.665 0 10.482-4.718 17.434-12.264 22.002-6.349 3.824-15.657 4.214-24.035 3.553v29.312H538.63V397.07h14.832l4.052 6.33 18.458-0.077 1.346-4.202 17.587-0.088s-0.74 11.73-4.055 26.122z m27.179 89.475h42.182v-42.44h-42.182v42.44z m0-58.782h42.182v-36.809h-42.182v36.81z m-19.105 84.923V398.074h15.506l3.112 5.234h42.68l2.678-5.234h16.417v142.084h-15.814l-3.292-11.027h-42.182l-3.289 11.64h-15.816z m322.88-138.399c-5.5 8.572-18.167 29.008-38.895 44.943l-12.66-14.726s22.302-18.906 36.387-44.563l14.86 9.899s2.048 1.502 0.307 4.447z m93.212 12.986s-0.14 1.81-2.232 1.81h-70.889c-2.33 0-2.358-1.767-2.358-1.767l-1.959-15.317h79.388l-1.95 15.274z m-86.842 18.801s2.47 1.205 0.764 3.918c-1.703 2.709-15.219 20.771-15.219 20.771v81.923h-19.17v-60.062l-17.037 15.746-11.282-15.493s28.724-25.71 47.283-55.755l14.661 8.952z m-539.272-10.503l-2.192 15.62h-16.904v-36.137h14.099l4.527 4.88h41.746v-15.974h14.75c2.671 0 4.15 1.058 4.15 3.661v12.314h40.435l4.946-4.881h14.024v36.137h-16.904l-2.189-15.62H388.902z m538.627 19.64H1024l-1.898 14.655s-0.35 2.207-2.89 2.207h-20.007v58.871c0 9.29-3.215 18.696-18.132 18.696-5.39 0-23.508 0.032-25.556 0.032-2.048 0-2.769-1.793-2.769-1.793l-5.842-14.002h27.432c3.998 0 5.239-2.684 5.239-4.946v-56.858h-46.722c-2.635 0-3.27-1.09-3.473-2.589a5065.326 5065.326 0 0 1-1.853-14.274zM754.717 518.23s0.797 2.536-1.449 3.937c-2.498 1.573-29.676 17.597-29.676 17.597l-8.919-12.223 3.752-4.402v-39.388h-17.911l-1.1-15.059h19.01v-16.16h-9.273l-1.569-7.345-10.177-7.892 0.399-0.617c0.169-0.27 15.205-24.93 21.889-45.663l0.311-0.982 18.695 3.899s-2.935 8.76-6.518 16.104h22.938l-0.966 13.174s-0.225 1.88-2.22 1.88h-26.756c-1.943 3.54-3.981 9.15-6.044 12.384h35.986l-0.958 13.116s-0.16 1.941-2.498 1.941h-14.657v16.161h18.684l-0.934 12.78s0.202 2.279-2.273 2.279h-15.477v30.16c4.373-2.742 15.181-9.549 15.181-9.549l2.53 13.868z m25.776-89.479h47.8V416.86h-47.8v11.893z m0 26.563h47.8v-11.5h-47.8v11.5z m46.998 49.987c13.74 15.754 34.719 22.325 34.719 22.325l-12.95 12.513s-1.634 1.524-3.704 0.515c-9.04-3.677-42.492-20.347-57.61-70.284h-7.453V517.8l19.229-8.686 3.644 13.038s0.902 2.396-1.538 3.622c-2.447 1.226-34.238 16.001-34.238 16.001l-9.89-12.228 3.648-3.388-0.005-129.09h16.142l2.985 4.726h47.967l3.9-4.726h14.494v72.49c0 4.02-1.557 5.523-5.495 5.523H828.37v-4.71h-20.356c1.35 7.262 6.6 17.907 9.663 22.713l23.697-15.446 7.507 10.091s1.183 2.026-0.329 3.324c-1.508 1.306-21.06 14.248-21.06 14.248z" fill="#3B3B3B"></path><path d="M292.428 383h-41.86l-18.303 16.947H60.18v0.008L41.86 383H0s5.946 20.617 12.45 55.237l0.007-0.014c1.378 7.52 5.363 10.535 11.85 10.535h188.151c5.324 0 8.185 1.458 7.048 8.504-0.025 0.184-0.025 0.293-0.043 0.448-5.219 31.5-8.445 63.901-10.4 90.513l-0.014-0.016c-0.326 4.54-1.664 8.753-8.41 8.753H89.296c-2.816 0-5.343-0.577-5.602-4.364h-0.008a1306.59 1306.59 0 0 0-1.493-19.193v-0.047c-0.39-4.693 1.607-6.088 4.16-6.088h83.597c6.116 0 9-1.696 9.747-9.956 0 0 0.035 0.053 0.035 0.059 0.854-9.212 2.31-23.747 4.298-38.923H29.353c-6.857 0-9.618 4.517-8.468 12.989 0.006 0.056 0 0.084 0.006 0.134 5.45 41.851 9.393 93.02 7.694 148.685H80.27s6.08-33.628 6.06-34.482h119.767c-0.021 0.854 6.06 34.482 6.06 34.482h51.686C259.475 496.954 292.428 383 292.428 383" fill="#EB5A0E"></path></svg>