<svg viewBox="0 0 1024 1024" version="1.1" xmlns="http://www.w3.org/2000/svg"><path d="M63.2 502.4l35.4-33.8 46.6 45-12.2 13.5s40.5 13.9 59.5-41.9c0.1-0.4 0.2-0.7 0.4-1.1-12.2-40.5-49.8-70-94.4-70-51.6 0-93.9 39.7-98 90.3 3.2-2 28.6-16.3 62.7-2z m35.4 60.3L74 536.1s-18 14.7-9.5 35.1S89 605 94.7 610.7c1.3 0 2.5 0.1 3.8 0.1 43 0 79.4-27.5 92.9-65.9-3.1 2.1-18.9 10.4-68.4-6.7l-24.4 24.5z" fill="#346DB2"></path><path d="M142.4 539.3s36.3 11.4 51.3-1.8c2.1-8 3.2-16.4 3.2-25 0-5.5-0.5-10.9-1.4-16.1-7.3 15.3-27.4 43.1-74.3 32.3 0 0-34.3-12.3-54.5-21.8 0 0-35.1-14.8-66.7 5.9 0 10.7 1.8 21 4.9 30.6 29.9-31.4 62.1-27 75.8-23 14 4.1 45 12.1 45 12.1-30.1-5.5-27.2-7.2-52.6-9.1-25.4-1.9-60.2 20.9-64.9 27.9 13.6 31.4 43 54.3 78.1 58.7-11.8-11.2-52.2-50.8-14.1-78 0 0.1 18.5-8.9 70.2 7.3z" fill="#F9C500"></path><path d="M279.2 438.2v8.5h-17.3v-8.5c0-8.9 5.1-13.3 15.2-13.3h25.4V420H322v4.9h25.8c9.6 0 14.4 4 14.4 12.1v9.7h-17.3v-5.3c0-2.1-2.4-3.2-7.2-3.2h-58.5z m59.2 10.5c11.8 0 17.6 5.4 17.3 16.2v38.8h7.6v6.5c0 4.6-3.4 6.9-10.2 6.9H261v-13.4h6.8v-38.8c0-10.8 5.5-16.2 16.5-16.2h54.1z m-6.8 49h-46.1v6.1h52.9v-1.6c0-3.3-2.3-4.8-6.8-4.5z m0-18.2h-46.1v7.3h52.9V484c0-3.3-2.3-4.8-6.8-4.5z m0-18.6h-46.1v7.7h52.9v-2.8c0-3.3-2.3-4.9-6.8-4.9z m118.1-22.7h-60.5v7.3h66v-3.6c0-2.5-1.8-3.7-5.5-3.7z m-24.9 38.4h-26.7v9.3h34.7v-3.6c0-3.8-2.6-5.7-8-5.7z m-41.5 25.1h21.6l-3.8 6.5 26.2-5.7c2.3-1.3 4.8-1.7 7.6-1.2h12.7c4.2-0.3 7.5 0.4 9.7 2l14.4 13.4h-25.8l-7.2-6.9c-1.1-1.3-2.7-2-4.6-2l-30.5 8.1c-2.5 0.8-5.4 1.2-8.5 1.2h-11c-4.2 0-6.5-1.6-6.8-4.8l6-10.6z m-11.4-2v-13.8h8.5v-29.5c0-3.8 1.4-6.4 4.2-7.7h-13.5V437c0-7.8 5.2-11.7 15.6-11.7h25V420h20.7v5.3H459c9.3 0 14.1 3.6 14.4 10.9v12.5h-5.9v2c-0.8 4.6-3.7 6.9-8.5 6.9h-60.9v6.1h70.2v12.9h-18.2v9.3h23.3v6.9c0 4.3-2.5 6.6-7.6 6.9h-93.9z m207.4 2.8c0 5.9-3.4 8.9-10.1 8.9H554v-12.5h5.5c1.7 0 2.5-0.8 2.5-2.4v-23.9c0-4.8-2.8-7.3-8.5-7.3h-12.3v51.8h-18.6V473c0-5.1-2.5-7.7-7.6-7.7h-12.3v46.1H485v-46.1c0-9.2 4.8-13.8 14.4-13.8h23.3v-4.8c0-4-2.8-6.1-8.5-6.1h-33v-13.7h41.5V420h18.6v6.9h42.3v13.8h-42.3v10.9h22.9c10.2 0 15.2 4.5 15.2 13.4v37.5zM691 507c0 6.5-3.2 9.8-9.7 10.1h-8V490c-13.8-3.8-23.1-12.1-27.9-25.1h16.5c1.1 4.1 4.9 7.8 11.4 11.3v-6.9c0-4.8-3.1-7.3-9.3-7.3h-52.5v13.8c5.4-2.2 9-5.7 11-10.5h16.9c-5.4 12.9-14.7 21-27.9 24.3v27.1h-17.3v-55c0-8.9 4.4-13.2 13.1-12.9h3.8l-5.1-9.3h-14.8v-13.8h41.9V420h19.5v5.7h41v13.8h-15.2l-5.1 9.3h5.9c7.9 0 11.8 4.5 11.8 13.3V507z m-24.1-9.7v18.2h-49.5v-18.2c0-6.7 3.7-10.1 11-10.1h27.5c7.4-0.1 11 3.3 11 10.1z m-8.8-57.9h-32.2c3.1 6.5 8.6 9.7 16.5 9.7 7.6 0 12.8-3.2 15.7-9.7z m-13.2 58.7h-10.2v6.5h14.8v-2.8c0.1-2.5-1.5-3.7-4.6-3.7z m56.4 19v-13.4h27.1V494h-15.7l-10.6-61.1h15.6l10.6 55V420h17.3v83.7h12.7V420h17.8v69.2l11.4-56.2h15.7l-9.3 54.2c-1.4 4.6-5.1 6.9-11 6.9h-6.8v9.7h27.5v6.5c0 4.6-3.1 6.9-9.3 6.9h-93z m150.2-79.3c0-10.8 6.2-16.2 18.6-16.2h24.1c11.8 0 17.8 5.5 17.8 16.6V473h-42.7v29.5c0 1.1 0.8 1.6 2.5 1.6h9.3V517h-19c-7.1 0-10.6-3.4-10.6-10.1v-69.1z m-3.3 7.7v14.6h-8.5v12.1h9.3v14.6h-9.3v14.5c0 1.6 0.8 2.4 2.5 2.4h6.8V517h-16.9c-5.7-0.8-8.8-4.6-9.3-11.3v-10.1c0-5.9-2.4-8.9-7.2-8.9h-4.2v-14.5h11.4v-4.8c0-4.8-2.1-7.3-6.3-7.3H813v-14.6h35.2z m63.4 32.8l0.4 0.4v13.8h-15.7l17.3 24.3h-18.2L879.5 494c-2.5-8.1-0.4-13.4 6.3-15.8h25.8zM812.2 420h16.9v8.1h19v13.8h-27.5c-5.6-0.8-8.5-4.5-8.5-10.9v-11z m57.1 22.2h25v-2.8c0-3.5-2.8-5.2-8.5-5.2h-16.5v8z m16.5 11h-16.5v6.9h25v-2.4c0-3-2.8-4.5-8.5-4.5z m127 53.8c0 2.4-0.9 4.7-2.5 6.9-1.7 2.2-3.9 3.2-6.8 3.2h-27.9v-13h16.5c1.4 0 2.3-0.1 2.5-0.4 0.8-0.6 1.1-1.4 0.8-2.4v-27.1c0-7.3-4-10.9-11.8-10.9h-24.1v-13.4h64.3v13.3h-11V507z m-49.5-73.2V420h58.4v13.8h-58.4z m-6.8-13.8c-4.2 10.3-9.9 18.2-16.9 23.9h16.9c-4.5 10.5-10.5 18.2-18.2 23h9.7v40.4c0 6.5-3.1 9.7-9.3 9.7h-8.5v-44l-8.9 2.4V458c6.5-2.2 12-6.5 16.5-12.9-4.2 2.7-9.7 5.1-16.5 7.3v-17c6.5-2.7 12.4-7.8 17.8-15.4h17.4zM305.6 548.6v1.2c-1.9 0.2-3.4 0.9-4.6 1.9-1.2 1.1-2.5 2.8-4.1 5.3l-9.3 14.3v12.3c0 2.4 0.4 3.9 1.1 4.6 0.8 0.7 2.5 1.1 5.4 1.1v1.2h-19.3v-1.2c2.9 0 4.7-0.5 5.5-1.4 0.6-0.7 0.9-2.4 0.9-5v-11l-8.2-12.2c-3-4.5-5.2-7.3-6.4-8.4-1-0.9-2.2-1.4-3.8-1.5v-1.2h17.7v1.2c-1.3 0-2.3 0.1-3.2 0.2-0.9 0.1-1.3 0.7-1.3 1.7 0 0.3 0.1 0.8 0.3 1.3 0.2 0.5 0.5 1 0.7 1.4l9.3 14 9-14.3c0.3-0.5 0.6-1 0.7-1.2 0.1-0.3 0.2-0.6 0.2-1.1 0-0.9-0.4-1.5-1.2-1.7-0.8-0.3-1.9-0.4-3.2-0.4v-1.2h13.8z m2.2 41.9v-0.9c2.1 0 3.4-0.3 4-0.9 0.6-0.6 0.9-2.2 0.9-4.6v-14.7c0-1.6-0.2-2.7-0.7-3.3-0.3-0.3-0.8-0.5-1.5-0.5-0.4 0-0.8 0-1.3 0.1 0 0-0.5 0.1-1.3 0.2v-1c2-0.6 3.6-1.2 4.9-1.6 2.2-0.8 3.8-1.5 4.9-1.8l0.3 0.2V584c0 2.2 0.3 3.7 0.8 4.4 0.5 0.7 1.8 1.1 3.9 1.1v0.9h-14.9z m3.9-40c0-0.8 0.2-1.4 0.7-2 0.6-0.8 1.4-1.2 2.4-1.2 0.9 0 1.7 0.3 2.3 0.9 0.6 0.6 0.9 1.4 0.9 2.3 0 0.9-0.3 1.7-0.9 2.3-0.6 0.6-1.4 0.9-2.3 0.9-1 0-1.8-0.4-2.3-1.1-0.5-0.7-0.8-1.4-0.8-2.1z m22.3 19.6V586c0 1 0.8 1.8 2.4 2.3 1.3 0.5 2.5 0.7 3.7 0.7 3.2 0 5.5-1.3 6.8-4 1-1.9 1.5-4.4 1.5-7.3 0-3.4-0.6-6.2-1.8-8.4-1.4-2.7-3.5-4-6.2-4-1.4 0-2.7 0.3-3.9 1-1.7 1-2.5 2.2-2.5 3.8z m-5.3 17v-32.8c0-1.2-0.1-2-0.3-2.3-0.4-0.6-1.2-0.9-2.5-0.9l-1.4 0.1v-1c3-0.8 4.8-1.3 5.4-1.5 0.6-0.2 1.9-0.6 3.8-1.3h0.3v19.2c0.3-1 1.2-2 2.7-3.1 1.9-1.3 3.8-2 5.9-2 3.6 0 6.4 1.5 8.5 4.5 1.9 2.7 2.8 5.8 2.8 9.6 0 3.7-1.1 7-3.3 9.9-2.9 3.8-6.9 5.8-12.1 5.8-1.9 0-3.9-0.4-6.1-1.1-2.5-1.1-3.7-2.1-3.7-3.1z m28.2 3.4v-0.9c2.1 0 3.4-0.3 4-0.9 0.6-0.6 0.9-2.2 0.9-4.6v-14.7c0-1.6-0.2-2.7-0.7-3.3-0.3-0.3-0.8-0.5-1.5-0.5-0.4 0-0.8 0-1.3 0.1 0 0-0.5 0.1-1.3 0.2v-1c2-0.6 3.6-1.2 4.9-1.6 2.2-0.8 3.8-1.5 4.9-1.8l0.3 0.2V584c0 2.2 0.3 3.7 0.8 4.4 0.5 0.7 1.8 1.1 3.9 1.1v0.9h-14.9z m3.9-40c0-0.8 0.2-1.4 0.7-2 0.6-0.8 1.4-1.2 2.4-1.2 0.9 0 1.7 0.3 2.3 0.9 0.6 0.6 0.9 1.4 0.9 2.3 0 0.9-0.3 1.7-0.9 2.3-0.6 0.6-1.4 0.9-2.3 0.9-1 0-1.8-0.4-2.3-1.1-0.5-0.7-0.8-1.4-0.8-2.1z m17.7 34.3v-15.7c0-1.8-0.2-2.9-0.7-3.5-0.3-0.4-0.8-0.6-1.5-0.6-0.9 0-1.5 0.1-1.8 0.3v-1.1c3.1-0.9 6-1.8 8.7-2.8h0.4v5.1c2-1.9 3.4-3.1 4.4-3.7 1.5-1 3.1-1.5 4.9-1.5 1.9 0 3.5 0.6 4.7 1.8 1.8 1.6 2.7 4.2 2.7 7.7v14.5c0 1.5 0.3 2.6 0.8 3.2 0.5 0.6 1.6 0.9 3 0.9v0.9H391v-0.9c1.3 0 2.3-0.3 2.8-0.8 0.8-0.8 1.1-2.3 1.1-4.5V571c0-2-0.4-3.6-1.1-4.6-0.7-1-2-1.6-3.8-1.6-1 0-1.9 0.3-2.9 0.9-1 0.6-2.1 1.5-3.3 2.7v17.8c0 1.1 0.3 1.9 0.9 2.5 0.6 0.5 1.7 0.8 3.3 0.8v0.9h-13.5v-0.9c1.5 0 2.6-0.3 3.2-1 0.5-0.6 0.8-1.9 0.8-3.7z m86.3-22.9h-1.5c-0.8-3.5-2.4-6.3-4.6-8.4-2.4-2.2-5.5-3.4-9.3-3.4-1.6 0-3.3 0.3-5 1-1.7 0.7-3.2 1.6-4.5 2.9-1.5 1.5-2.7 3.2-3.5 5.3-1.1 2.7-1.7 6.2-1.7 10.3 0 6.3 1.6 11.1 4.7 14.5 2.8 3 6.4 4.4 10.7 4.4 2.6 0 5-0.5 7.3-1.5s4.6-2.6 7-4.9l1.1 1.1-1.8 2.1c-1.7 1.6-3.6 2.9-5.6 3.9-2.9 1.4-6.2 2.1-9.7 2.1-5.7 0-10.5-1.7-14.3-5-4.5-3.9-6.8-9.5-6.8-16.8 0-6.7 2.2-12.1 6.6-16.2 4.1-3.8 9-5.6 14.8-5.6 1.9 0 3.7 0.2 5.6 0.6 1.8 0.5 3.6 1 5.5 1.5 0.7 0 1.3-0.2 1.9-0.5 0.5-0.3 0.9-0.9 1-1.6h1.3l0.8 14.2z m5.5 28.6v-0.9c2.1 0 3.4-0.3 4-0.9 0.6-0.6 0.9-2.2 0.9-4.6v-14.7c0-1.6-0.2-2.7-0.7-3.3-0.3-0.3-0.8-0.5-1.5-0.5-0.4 0-0.8 0-1.3 0.1 0 0-0.5 0.1-1.3 0.2v-1c2-0.6 3.6-1.2 4.9-1.6 2.2-0.8 3.8-1.5 4.9-1.8l0.3 0.2V584c0 2.2 0.3 3.7 0.8 4.4 0.5 0.7 1.8 1.1 3.9 1.1v0.9h-14.9z m3.9-40c0-0.8 0.2-1.4 0.7-2 0.6-0.8 1.4-1.2 2.4-1.2 0.9 0 1.7 0.3 2.3 0.9 0.6 0.6 0.9 1.4 0.9 2.3 0 0.9-0.3 1.7-0.9 2.3-0.6 0.6-1.4 0.9-2.3 0.9-1 0-1.8-0.4-2.3-1.1-0.5-0.7-0.8-1.4-0.8-2.1z m30.4 11.5v2h-6.4v18.1c0 1.6 0.1 2.8 0.4 3.5 0.5 1.4 1.5 2.2 2.8 2.2 0.9 0 1.7-0.3 2.4-0.8 0.4-0.3 0.9-0.8 1.5-1.5l0.8 0.7c-0.8 1.4-1.8 2.5-3.2 3.4-1.4 0.9-2.8 1.4-4.2 1.4-1.8 0-3.1-0.5-4.1-1.6-1.1-1.3-1.7-3.4-1.7-6.4v-19h-3.3l-0.3-0.4c0-0.3 0.4-0.7 1.3-1.3 0.5-0.4 1.1-0.8 1.5-1.3 1-1 1.9-2.1 2.8-3.3 0.7-0.9 1.7-2.2 2.8-3.9 0.3 0 0.4 0.3 0.4 0.8v7.3h6.5z m33 0v0.9c-0.7 0.1-1.2 0.3-1.5 0.4-0.6 0.4-1.2 1.2-1.6 2.4l-9.7 25.8c-1.7 4.4-3.3 7.6-4.8 9.5-1.7 2.1-3.7 3.2-5.9 3.2-1.5 0-2.6-0.4-3.4-1.1-0.8-0.8-1.2-1.6-1.2-2.5 0-0.6 0.1-1.1 0.4-1.5 0.5-0.8 1.4-1.3 2.7-1.3 0.6 0 1.3 0.1 2 0.3 0.8 0.2 1.6 0.5 2.5 0.8 1.4 0 2.8-1.5 4.1-4.5 1.1-2.5 1.7-4.3 1.7-5.3 0-0.5-0.5-1.8-1.6-4-0.8-1.6-1.6-3.1-2.3-4.7l-7.2-15.6c-0.4-0.8-1.1-1.3-2-1.7-0.5-0.2-0.9-0.3-1.2-0.3v-0.8h13v0.9c-1.1 0-1.9 0.1-2.6 0.3-0.7 0.2-1 0.7-1 1.5 0 0.3 0.1 0.7 0.2 1.2 0.1 0.4 0.3 0.8 0.4 1.1l7.3 16 4.9-14c0.3-0.8 0.6-1.7 0.9-2.6 0.3-0.9 0.5-1.5 0.5-1.7 0-1.2-1-1.8-3-1.8v-0.9h8.4z m58.1-0.1h-1.5c-0.8-3.5-2.4-6.3-4.6-8.4-2.4-2.2-5.5-3.4-9.3-3.4-1.6 0-3.3 0.3-5 1-1.7 0.7-3.2 1.6-4.5 2.9-1.5 1.5-2.7 3.2-3.5 5.3-1.1 2.7-1.7 6.2-1.7 10.3 0 6.3 1.6 11.1 4.7 14.5 2.8 3 6.4 4.4 10.7 4.4 2.6 0 5-0.5 7.3-1.5s4.6-2.6 7-4.9l1.1 1.1-1.8 2.1c-1.7 1.6-3.6 2.9-5.6 3.9-2.9 1.4-6.2 2.1-9.7 2.1-5.7 0-10.5-1.7-14.3-5-4.5-3.9-6.8-9.5-6.8-16.8 0-6.7 2.2-12.1 6.6-16.2 4.1-3.8 9-5.6 14.8-5.6 1.9 0 3.7 0.2 5.6 0.6 1.8 0.5 3.6 1 5.5 1.5 0.7 0 1.3-0.2 1.9-0.5 0.5-0.3 0.9-0.9 1-1.6h1.3l0.8 14.2z m18.5-0.5c4.3 0 7.7 1.3 10.3 3.9 2.6 2.6 3.9 6.2 3.9 10.8 0 3.6-1.1 6.9-3.4 9.9-2.7 3.5-6.2 5.2-10.6 5.2-4 0-7.4-1.4-10-4.3-2.6-2.8-3.9-6.4-3.9-10.8 0-4.1 1.2-7.5 3.6-10.3 2.6-2.9 5.9-4.4 10.1-4.4z m1 27.9c2 0 3.6-0.8 4.9-2.3 1.7-2 2.5-5 2.5-9.2 0-4.1-0.8-7.6-2.4-10.4-1.6-2.9-3.8-4.3-6.6-4.3-2.1 0-3.9 0.9-5.3 2.6-1.4 1.7-2.1 4.1-2.1 7.3 0 3.7 0.5 7 1.6 9.9 1.6 4.3 4.1 6.4 7.4 6.4z m20.5-4.2v-16c0-1.8-0.2-2.9-0.7-3.5-0.3-0.4-0.8-0.6-1.5-0.6s-1.3 0.1-2 0.3v-1.1c3-0.8 6-1.8 8.8-2.8h0.4v4.9c2.2-1.7 3.9-2.8 5-3.5 1.6-0.9 3.2-1.4 4.7-1.4 1.9 0 3.5 0.5 4.7 1.6 1 0.9 1.7 2.1 2.1 3.7 1.1-1.3 2.4-2.4 3.7-3.2 2.1-1.4 4.3-2.1 6.5-2.1 2.9 0 5 1.3 6.2 3.9 0.8 1.8 1.3 4.3 1.3 7.4v13.1c0 1 0.1 1.8 0.3 2.2 0.4 0.8 1.2 1.3 2.4 1.5h1.6v0.9h-13.8v-0.9c1.8-0.2 2.9-0.5 3.3-0.9 0.6-0.5 0.9-1.7 0.9-3.7v-13.4c0-2.2-0.2-3.8-0.6-4.7-0.7-1.5-2-2.3-4-2.3-1.7 0-3.1 0.4-4.3 1.1-1 0.6-1.9 1.5-2.7 2.8v15.9c0 2.2 0.4 3.6 1.3 4.3 0.6 0.5 1.7 0.8 3.3 0.8v0.9h-14.2v-0.9c1.6 0 2.7-0.2 3.2-0.7 0.7-0.6 1.1-1.9 1.1-3.8v-13.7c0-2.2-0.3-3.8-1-5-0.7-1.1-1.8-1.7-3.3-1.7-1.9 0-3.6 0.6-5.2 1.7-1.3 0.9-2 1.6-2 2V586c0 1.4 0.4 2.3 1.3 2.8 0.6 0.3 1.6 0.5 3 0.5v0.9h-14v-0.9c1.6 0 2.6-0.2 3.2-0.6 0.6-0.3 1-1.6 1-3.6z m49.1 0v-16c0-1.8-0.2-2.9-0.7-3.5-0.3-0.4-0.8-0.6-1.5-0.6s-1.3 0.1-2 0.3v-1.1c3-0.8 6-1.8 8.8-2.8h0.4v4.9c2.2-1.7 3.9-2.8 5-3.5 1.6-0.9 3.2-1.4 4.7-1.4 1.9 0 3.5 0.5 4.7 1.6 1 0.9 1.7 2.1 2.1 3.7 1.1-1.3 2.4-2.4 3.7-3.2 2.1-1.4 4.3-2.1 6.5-2.1 2.9 0 5 1.3 6.2 3.9 0.8 1.8 1.3 4.3 1.3 7.4v13.1c0 1 0.1 1.8 0.3 2.2 0.4 0.8 1.2 1.3 2.4 1.5h1.6v0.9h-13.8v-0.9c1.8-0.2 2.9-0.5 3.3-0.9 0.6-0.5 0.9-1.7 0.9-3.7v-13.4c0-2.2-0.2-3.8-0.6-4.7-0.7-1.5-2-2.3-4-2.3-1.7 0-3.1 0.4-4.3 1.1-1 0.6-1.9 1.5-2.7 2.8v15.9c0 2.2 0.4 3.6 1.3 4.3 0.6 0.5 1.7 0.8 3.3 0.8v0.9h-14.1v-0.9c1.6 0 2.7-0.2 3.2-0.7 0.7-0.6 1.1-1.9 1.1-3.8v-13.7c0-2.2-0.3-3.8-1-5-0.7-1.1-1.8-1.7-3.3-1.7-1.9 0-3.6 0.6-5.2 1.7-1.3 0.9-2 1.6-2 2V586c0 1.4 0.4 2.3 1.3 2.8 0.6 0.3 1.6 0.5 3 0.5v0.9h-14v-0.9c1.6 0 2.6-0.2 3.2-0.6 0.5-0.3 0.9-1.6 0.9-3.6z m69.5-5l1 0.4c-0.7 2.2-1.9 4.2-3.5 6-2.7 3-6 4.6-9.9 4.6-3.6 0-6.4-1.2-8.6-3.7-2.1-2.5-3.2-6-3.2-10.4 0-5.3 1.5-9.3 4.5-12.1 2.4-2.3 5.2-3.4 8.3-3.4 3.2 0 5.7 0.9 7.5 2.7 2.1 1.9 3.3 4.9 3.6 8.9h-19.6c0 5.1 1.1 8.8 3.4 11.1 1.8 1.8 4 2.7 6.6 2.7 2.4 0 4.6-0.8 6.4-2.4 1.2-1.1 2.4-2.5 3.5-4.4z m-19.6-9.2h13c-0.3-2.2-0.8-3.8-1.3-4.7-1-1.7-2.5-2.5-4.7-2.5-1.9 0-3.4 0.5-4.5 1.6-1.2 1-2 2.9-2.5 5.6z m26.7 14.3v-15.8c0-1.6-0.2-2.7-0.7-3.3-0.3-0.3-0.8-0.5-1.6-0.5-0.4 0-0.8 0-1.2 0.1-0.1 0-0.5 0.1-1 0.2v-1c3.4-1.1 6.5-2.2 9.5-3.4h0.3v5.8c1.5-2.2 2.9-3.7 4-4.5 1.2-0.8 2.4-1.2 3.6-1.2 2.3 0 3.4 1.1 3.4 3.4 0 0.8-0.2 1.5-0.7 2-0.4 0.5-1 0.8-1.7 0.8-0.8 0-1.6-0.4-2.4-1.1-0.8-0.7-1.5-1.1-1.9-1.1-0.8 0-1.7 0.6-2.7 1.8s-1.6 2.3-1.6 3.4V585c0 2 0.5 3.3 1.5 4 0.8 0.5 2.1 0.8 3.9 0.8v0.9h-15.2v-0.9c1.9-0.3 3.1-0.7 3.5-1.1 0.7-0.7 1-1.8 1-3.5z m41.4-4.6l0.9 0.6c-1.7 3.5-3.5 6.1-5.6 7.6-2 1.5-4.4 2.3-7 2.3-2.9 0-5.5-1.1-7.8-3.3-2.7-2.7-4-6.3-4-10.8 0-4.9 1.5-8.8 4.5-11.7 2.7-2.6 5.9-3.9 9.7-3.9 1.1 0 2.3 0.2 3.5 0.5 1.2 0.4 2.3 0.8 3.2 1.5 0.9 0.6 1.6 1.3 2 2.2 0.5 0.8 0.7 1.6 0.7 2.2 0 0.8-0.2 1.5-0.7 2-0.5 0.5-1.2 0.8-2.2 0.8-0.8 0-1.5-0.3-2-0.8s-0.9-1.2-1.1-2.1l-0.4-1.4c-0.3-1.1-0.6-1.9-1-2.2-0.6-0.5-1.6-0.8-3.2-0.8-1.8 0-3.5 0.7-4.9 2.1-2.1 2-3.2 5.1-3.2 9.2 0 3.6 0.9 6.5 2.8 8.7s4.1 3.4 6.9 3.4c2.1 0 3.9-0.6 5.4-1.8 1-1 2.2-2.3 3.5-4.3z m3.9 9.9v-0.9c2.1 0 3.4-0.3 4-0.9 0.6-0.6 0.9-2.2 0.9-4.6v-14.7c0-1.6-0.2-2.7-0.7-3.3-0.3-0.3-0.8-0.5-1.5-0.5-0.4 0-0.8 0-1.3 0.1 0 0-0.5 0.1-1.3 0.2v-1c2-0.6 3.6-1.2 4.9-1.6 2.2-0.8 3.8-1.5 4.9-1.8l0.3 0.2V584c0 2.2 0.3 3.7 0.8 4.4 0.5 0.7 1.8 1.1 3.9 1.1v0.9h-14.9z m3.9-40c0-0.8 0.2-1.4 0.7-2 0.6-0.8 1.4-1.2 2.4-1.2 0.9 0 1.7 0.3 2.3 0.9 0.6 0.6 0.9 1.4 0.9 2.3 0 0.9-0.3 1.7-0.9 2.3-0.6 0.6-1.4 0.9-2.3 0.9-1 0-1.8-0.4-2.3-1.1-0.5-0.7-0.8-1.4-0.8-2.1z m30.8 32.2v-9.2c-4.2 1.4-7.1 3-8.7 4.8-1.1 1.2-1.6 2.5-1.6 4.1 0 1.5 0.4 2.8 1.2 3.7 0.8 0.9 1.8 1.4 3 1.4 0.6 0 1.3-0.1 2.1-0.4 0.8-0.3 1.4-0.5 1.8-0.8 0.9-0.4 1.5-0.9 1.8-1.4 0.3-0.4 0.4-1.1 0.4-2.2z m9.8 3.6v1.6c-1.1 1.3-2.3 2.3-3.4 2.7-0.7 0.3-1.5 0.4-2.2 0.4-1.1 0-1.9-0.2-2.5-0.6-1.1-0.7-1.7-2.1-1.7-4.1-1.5 1.4-2.9 2.4-4.1 3.1-1.8 1-3.4 1.5-5 1.5-1.8 0-3.4-0.6-4.7-1.8-1.3-1.2-2-2.8-2-4.8 0-2.9 1.3-5.2 4-7.1 1.9-1.3 5.8-3.1 11.8-5.4v-3.9c0-2-0.6-3.4-1.7-4.3-0.8-0.6-1.9-0.9-3.2-0.9-1.1 0-2.2 0.3-3.1 0.9-0.9 0.6-1.4 1.3-1.4 2.2 0 0.4 0 0.9 0.1 1.3s0.1 0.8 0.2 1.2c0 0.7-0.3 1.3-0.8 1.9-0.5 0.5-1.2 0.8-2 0.8-0.9 0-1.6-0.3-2-0.9-0.5-0.6-0.7-1.2-0.7-1.9 0-1.6 0.8-3 2.4-4.4 2-1.7 4.6-2.6 7.9-2.6 4.1 0 6.8 1.2 8.2 3.6 0.8 1.4 1.2 3.6 1.2 6.5v12.3c0 1.3 0.1 2.2 0.3 2.8 0.2 0.6 0.7 0.9 1.5 0.9 0.6 0 1.1-0.1 1.5-0.3 0.5 0 0.9-0.3 1.4-0.7z m1.3 4.2v-0.9c1.9 0 3.2-0.3 3.9-1 0.7-0.7 1.1-1.8 1.1-3.6v-30.2c0-1.5-0.2-2.5-0.5-3.1-0.3-0.5-1.1-0.8-2.3-0.8l-2.1 0.1v-1c3.2-0.8 5.3-1.3 6.3-1.6 0.3-0.1 1.5-0.5 3.8-1.2h0.3v37.9c0 1.8 0.3 3 0.9 3.6 0.6 0.5 1.9 0.8 3.8 0.8v0.9h-15.2z m36.4-40.7v-1.2h17.7c4.3 0 7.7 0.5 10.3 1.6 4.2 1.7 6.3 4.7 6.3 9 0 3-1 5.3-3.1 6.9-1.2 0.9-2.9 1.6-5.3 2.2 3.1 0.7 5.6 1.9 7.3 3.4 2.1 1.9 3.2 4.4 3.2 7.5 0 3.4-1.4 6.2-4.2 8.2-2.7 1.9-6.3 2.9-11.1 2.9h-21.1v-1.2c2.6 0 4.2-0.4 5-1.1 0.7-0.7 1.1-2.3 1.1-4.6v-28.1c0-2.4-0.4-3.9-1.1-4.6-0.7-0.5-2.4-0.9-5-0.9z m12.5 20.1v15.7c0 1.1 0.3 1.8 0.9 2.1 0.6 0.3 1.9 0.5 3.9 0.5 3.2 0 5.6-0.4 7.5-1.3 2.9-1.4 4.4-4 4.4-7.7 0-2.4-0.7-4.3-2-5.7-1.1-1.1-2.5-2-4.4-2.6-1.1-0.3-2.4-0.6-3.9-0.7-1.5-0.3-3.6-0.3-6.4-0.3z m0-17.1v14.6l6-0.1c2.2 0 4-0.3 5.3-0.9 2.7-1.2 4-3.5 4-6.7 0-3.3-1.3-5.7-3.9-7.2-1.9-1.1-4.3-1.6-7.2-1.6h-2.8c-0.5 0-0.9 0.2-1.1 0.5-0.2 0.4-0.3 0.8-0.3 1.4z m46.7 29.9v-9.2c-4.2 1.4-7.1 3-8.7 4.8-1.1 1.2-1.6 2.5-1.6 4.1 0 1.5 0.4 2.8 1.2 3.7 0.8 0.9 1.8 1.4 3 1.4 0.6 0 1.3-0.1 2.1-0.4 0.8-0.3 1.4-0.5 1.8-0.8 0.9-0.4 1.5-0.9 1.8-1.4 0.3-0.4 0.4-1.1 0.4-2.2z m9.8 3.6v1.6c-1.1 1.3-2.3 2.3-3.4 2.7-0.7 0.3-1.5 0.4-2.2 0.4-1.1 0-1.9-0.2-2.5-0.6-1.1-0.7-1.7-2.1-1.7-4.1-1.5 1.4-2.9 2.4-4.1 3.1-1.8 1-3.4 1.5-5 1.5-1.8 0-3.4-0.6-4.7-1.8-1.3-1.2-2-2.8-2-4.8 0-2.9 1.3-5.2 4-7.1 1.9-1.3 5.8-3.1 11.7-5.4v-3.9c0-2-0.6-3.4-1.7-4.3-0.8-0.6-1.9-0.9-3.2-0.9-1.1 0-2.2 0.3-3.1 0.9-0.9 0.6-1.4 1.3-1.4 2.2 0 0.4 0 0.9 0.1 1.3s0.1 0.8 0.2 1.2c0 0.7-0.3 1.3-0.8 1.9-0.5 0.5-1.2 0.8-2 0.8-0.9 0-1.6-0.3-2-0.9-0.5-0.6-0.7-1.2-0.7-1.9 0-1.6 0.8-3 2.4-4.4 2-1.7 4.6-2.6 7.9-2.6 4.1 0 6.8 1.2 8.2 3.6 0.8 1.4 1.2 3.6 1.2 6.5v12.3c0 1.3 0.1 2.2 0.3 2.8 0.2 0.6 0.7 0.9 1.5 0.9 0.6 0 1.1-0.1 1.5-0.3s1-0.3 1.5-0.7z m5.2-1.5v-15.7c0-1.8-0.2-2.9-0.7-3.5-0.3-0.4-0.8-0.6-1.5-0.6-0.9 0-1.5 0.1-1.8 0.3v-1.1c3.1-0.9 6-1.8 8.7-2.8h0.4v5.1c2-1.9 3.4-3.1 4.4-3.7 1.5-1 3.1-1.5 4.9-1.5 1.9 0 3.5 0.6 4.7 1.8 1.8 1.6 2.7 4.2 2.7 7.7v14.5c0 1.5 0.3 2.6 0.8 3.2 0.5 0.6 1.6 0.9 3 0.9v0.9h-13.1v-0.9c1.3 0 2.3-0.3 2.8-0.8 0.8-0.8 1.1-2.3 1.1-4.5V571c0-2-0.4-3.6-1.1-4.6-0.7-1-2-1.6-3.8-1.6-1 0-1.9 0.3-2.9 0.9-1 0.6-2.1 1.5-3.3 2.7v17.8c0 1.1 0.3 1.9 0.9 2.5 0.6 0.5 1.7 0.8 3.3 0.8v0.9H959v-0.9c1.5 0 2.6-0.3 3.2-1 0.6-0.6 0.9-1.9 0.9-3.7z m26.9 5.7v-0.9c2.2-0.3 3.5-0.7 4-1.1 0.5-0.4 0.7-1.5 0.7-3.1v-30.5c0-1.5-0.2-2.5-0.5-3.1-0.3-0.5-1.1-0.8-2.3-0.8l-1.9 0.1v-1c1.6-0.4 3.1-0.8 4.5-1.2 1.4-0.4 3.2-0.9 5.2-1.6h0.3v26.6l8.6-7.6c1-0.9 1.5-1.6 1.5-2.2 0-0.4-0.2-0.7-0.6-0.9-0.4-0.2-1.3-0.3-2.6-0.3v-0.9h12.9v0.9c-2 0-3.6 0.3-4.9 1-1.9 1-4.8 3.3-8.8 7.1l-1.8 1.7 9.7 12.3c1.4 1.8 2.8 3 4.2 3.8 1.1 0.5 2.1 0.8 3.2 0.8v0.9h-13.8v-0.9h1.2c0.9 0 1.3-0.3 1.3-1 0-0.2-0.2-0.5-0.5-1s-0.6-0.9-0.8-1.1l-8.7-11.7-0.1 11.5c0 1.2 0.3 2.1 0.9 2.5 0.6 0.5 1.5 0.7 2.6 0.7h1.3v0.9H990z" fill="#231916"></path></svg>