<svg viewBox="0 0 1024 1024" version="1.1" xmlns="http://www.w3.org/2000/svg"><path d="M224 0h576c123.6 0 224 100.4 224 224v576c0 123.6-100.4 224-224 224H224c-123.6 0-224-100.4-224-224V224C0 100.4 100.4 0 224 0z" fill="#FFFFFF"></path><path d="M389.6 476.8L511.6 360l160.8 155.2-42 46.8s139.6 48 204.8-144.4l1.2-3.6c-41.6-140-171.2-241.6-324.8-241.6-178 0-323.6 136.8-338 311.2 11.2-6.8 98.8-56.4 216-6.8z m122 208l-84.4-91.6s-62 50.8-32.8 121.2 84.4 116.4 104 136.4c4.4 0 8.8 0.4 13.2 0.4 148 0 274-94.8 320.4-227.2-10.8 7.2-65.2 36-235.6-23.2l-84.8 84z" fill="#346DB2"></path><path d="M663.2 604s125.2 39.2 176.8-6c7.2-27.6 11.2-56.4 11.2-86.4 0-18.8-1.6-37.6-4.8-55.6-25.2 52.8-94.8 148.8-256.4 111.6 0 0-118.4-42.4-188-75.2 0 0-121.2-51.2-230 20 0 36.8 6 72.4 16.8 105.6 102.8-108 213.6-92.8 260.8-78.8 48 14 155.2 42 155.2 42-104-18.8-94-24.8-181.6-31.2s-207.6 72-224 96c46.8 108 148 187.2 269.2 202.4-40.8-38.8-180-175.2-48.8-268.8 1.2-0.4 64.8-31.6 243.6 24.4z" fill="#F9C500"></path></svg>