<svg viewBox="0 0 1024 1024" version="1.1" xmlns="http://www.w3.org/2000/svg"><path d="M224 0h576c123.6 0 224 100.4 224 224v576c0 123.6-100.4 224-224 224H224c-123.6 0-224-100.4-224-224V224C0 100.4 100.4 0 224 0z" fill="#FFFFFF"></path><path d="M480.8 852v-0.4c-16.4-1.2-31.2-4-45.6-7.2-13.2-3.6-26.8-7.2-38-11.2-7.6-3.2-15.2-6-22.8-8.8-15.2-7.2-29.6-15.2-43.2-23.2-20-12.8-38.4-27.2-54-42-18.4-18.4-33.2-36.4-47.2-55.6-3.6-6-7.2-12-11.2-17.6-9.2-16-17.2-32.4-23.6-48-6.4-17.2-12-34.8-15.6-50.8l-4.8-24c-1.6-12-2.8-24.8-3.2-35.6-0.4-14.8 0.4-30.4 0.8-44 0.8-5.6 1.2-10.4 1.6-15.6 0.8-6.8 2-14 3.6-20.8 2-9.6 4.4-18.8 6.4-28 4.4-13.6 9.2-26.4 13.6-38.8 2.8-6.4 5.6-12.4 8.4-18.4 6.8-13.2 14-25.2 21.6-37.6 6-9.2 12.8-17.6 19.2-26.4 4.8-5.6 9.6-11.2 14.4-16.4 8-8 16-16 24.4-24 8-6.4 15.6-13.2 24-19.6 13.2-9.2 26.4-17.6 41.2-26 16.8-8.4 34-16 52.4-22.4 7.6-2.4 15.2-4.8 22.8-6.8 10.8-2.4 21.6-4.4 32.4-6.4l28.8-3.6v94.4c-9.6 0.8-18.8 2.8-27.2 4-8.4 2.4-16.8 4.8-24.8 6.8-11.6 4-21.6 8-32.8 13.2-17.6 8.8-32.4 19.6-47.6 31.2-4 3.2-7.6 6.4-11.2 9.6-6.8 7.2-13.6 14.4-20 21.6-4.8 6-9.6 12.4-14 18.4-3.6 5.2-7.2 11.2-10.8 16.8-10.8 19.2-19.2 39.6-25.2 61.6-1.6 6.8-3.2 14-4.4 21.2-2 14.8-3.2 30.4-3.2 46.4 0.4 6.4 0.8 12.4 1.2 18.8 0.4 5.6 1.2 11.6 2 17.2 2.8 13.6 6.4 27.6 11.2 42.8 4.4 11.2 9.2 22.4 16 35.2 3.2 5.6 6.8 11.6 10.4 17.6 6.8 8.8 13.6 17.6 20 26.4 6.8 6.8 14 14 21.2 20.8 13.2 11.6 28.4 22.4 46 32.4 0-110 0.4-219.2 0.4-329.2 0.8-1.6 1.2-3.6 1.6-5.2 4.4-8 9.2-12 18.4-14.4 40.8-0.4 82-0.4 122.8-0.4 0-69.2 0.4-138.4 0.4-207.6 22 2 43.6 6 66.8 12 9.2 2.8 18.4 6 27.6 8.8 12.8 4.8 26.4 11.6 40.4 18.4 18.8 10.4 36.4 22 54.8 36.4 3.6 3.2 7.2 6.4 11.2 9.6 4.8 4.8 10 9.6 14.8 14.4 4.4 4.8 8.8 9.2 13.2 14.4 12.8 15.2 25.2 32 36.8 50.4l14.4 26.4c5.6 12.4 11.6 26.4 16.8 41.2 9.6 30.8 15.6 62.8 17.6 96.4v24c-0.4 7.2-1.2 14.8-1.6 21.6-1.6 13.2-3.6 27.2-6.8 42-4.8 18.8-10.4 37.6-18 56.4-3.2 6.4-6 13.2-8.8 20-5.2 9.2-10.8 18.8-16 28.4-8 11.2-16 22.4-23.6 33.2-5.6 6.4-10.8 12.4-16 18.8-6.8 6.8-14 13.6-21.2 20.8-18 15.2-38 30.4-58.4 42.8-6.4 3.2-12.4 6.4-18.4 10-26.8 12.8-56.4 23.6-85.2 29.2-11.2 1.6-25.2 4.8-34.8 4.8v0.4h-6.4v-94c14.8-1.6 28.8-4.8 44.8-8.8 11.6-3.6 23.6-8.4 35.6-13.6l18-9.6c16.4-10 32-22 46.8-34.8 6.8-7.2 14-14 19.6-21.2 10.4-14 21.2-29.6 29.2-44.8 5.2-10.4 9.2-21.2 13.6-31.2 3.6-13.2 7.2-26 10-38.4 0.8-5.2 1.2-10.4 2.4-15.2 1.2-18.8 1.2-36.8 0.4-54-2-18-6.4-36-11.2-52-3.2-8-6-15.6-8.8-23.2-3.2-6-6-12.4-9.2-18.4-7.2-12.4-15.6-24.4-22.8-34-9.2-10.4-18.4-20.4-26.4-28.8-5.6-4.4-10.8-8.8-16-13.6-11.2-8-21.6-14.8-32.4-21.2-0.4 109.2-0.4 218.4-0.4 327.6-1.2 8.4-5.6 14-12.4 18.8-3.2 0.8-6 2-8.8 2.8-40.4 0-81.2 0-121.6 0.4V852h-6.4z m-4.8-300h76v-76h-76v76z" fill="#C00415"></path></svg>