<svg viewBox="0 0 1024 1024" version="1.1" xmlns="http://www.w3.org/2000/svg"><path d="M960.66394 438.876c-1.276-0.547-2.251-1.167-3.3-1.596-1.34-4.14-3.91-10.963-2.743-13.726 9.999-1.441 20.153-4.953 29.879-8.637 2.041-0.73 4.348-1.295 6.69-1.688 2.26 0 3.09-1.076 7.21 0.958 1.285 2.353 2.26 5.044 3.163 9.55-4.594 6.256-16.033 10.068-22.286 12.704-6.18 0.84-12.378 1.678-18.613 2.435z m-50.224 11.501c-1.258-0.784-2.324-1.687-3.3-2.298 0-3.913 2.042-7.287 3.118-9.75 5.186-9.12 10.154-18.332 16.343-26.595 4.157-2.062 9.544 3.748 13.964 8.126 0.192 0.602 0.365 1.259 0.584 1.842-4.13 8.492-15.131 16.007-22.688 22.008-2.552 2.718-5.295 5.883-8.02 6.667z m-382.074 54.386c-3.29-1.87-6.654-3.502-9.725-5.153-3.364-4.405-2.133-5.208-0.447-8.573 0.164-1.414 0.447-2.846 0.61-4.068-0.163-10.826 0-22.491-2.114-32.205-0.374-0.775-0.784-1.687-1.158-2.453-6.7-6.722-9.388-5.044-16.434-3.803-3.1 1.87-6.235 3.803-9.38 5.837-0.327 2.253-0.783 4.77-1.23 7.242-0.191 11.647 0 24.297-3.117 36.774-0.82 0.656-1.64 1.25-2.252 2.06-4.548-1.869-5.414-2.927-5.779-5.216-0.173-5.782-0.428-11.565-0.692-17.448 0.52-8.062 0.52-21.56 2.734-28.811 3.118-1.679 6.198-3.357 9.553-4.78 2.707-2.69 4.129-9.968 3.719-13.27-3.072-2.298-3.072-2.107-4.767-1.687-3.109 1.87-6.463 4.596-9.927 4.596-3.591-3.538-6.462-9.138-4.776-11.838 6.417-1.86 14.074-3.758 21.94-4.761 9.99-2.736 19.889-5.226 29.952-7.716 5.332 0 11.138 6.029 9.899 14.301-3.273-0.42-6.609-0.565-9.726-0.803-2.507 0.238-4.95 0.384-7.529 0.63-3.482 1.614-5.806 3.292-8.276 5.171-0.356 0.894-5.378 9.394-4.54 11.009 2.079-0.192 4.375-0.402 6.654-0.657 6.636 0 14.475-1.405 22.387 2.554 0.419 0.355 0.83 0.802 1.476 1.432 0 3.365-2.497 6.877-3.363 10.142-0.182 2.927-0.356 5.846-0.356 8.746 0 10.963 0.174 22.054 0.356 33.19 0 2.919 0.282 5.819 0.483 8.91-1.54 0.274-2.953 0.457-4.175 0.648z m-71.16 14.548a51.993 51.993 0 0 1-3.118-1.286c-11.64-2.043-22.86-7.434-29.24-14.43v-2.954c2.232 0.383 4.53 1.012 6.835 1.65h12.452c5.186-5.143 3.509-12.668 3.509-17.429-0.638-8.719-1.222-19.727-2.69-25.93-0.564-0.893-1.293-1.495-1.895-2.106h-6.6c-3.299 1.678-6.389 4.542-9.999 2.89-3.527-4.578-4.52-7.405-6.198-11.026v-6.995c6.645-0.876 14.575-2.299 21.995-4.168 8.294-3.156 16.79-7.844 26.306-7.844 0.656 1.213 1.43 2.472 2.333 3.885 0 2.089 0.392 6.038-1.057 8.93-2.215 1.668-4.603 3.347-6.855 5.025-5.423 13.453-3.746 29.851-2.907 45.648-0.383 8.738-0.584 17.42-0.839 26.14h-2.033z m461.538 3.091c-0.811-0.848-1.686-1.477-2.315-2.08-0.392-9.73 1.504-20.092 1.923-28-0.246-0.866-0.42-1.431-0.42-2.088 1.058-5.19-0.874-10.798-1.503-14.547-2.005 0.383-3.51 3.147-4.776 5.153-2.47 1.697-1.605 6.494-3.674 9.577-5.606 5.563-14.347 10.98-21.575 10.98-0.73-0.373-1.249-0.802-1.668-1.167 0-5.472 7.912-10.634 11.02-13.544 3.874-4.77 8.058-9.53 12.223-14.118 5.998-9.385 11.986-18.68 18.24-27.818 4.958-2.526 7.474-0.21 11.247 5.345 0 0.702 0 1.486 0.155 2.325-2.279 2.91-4.576 5.81-6.608 8.756-0.255 2.007-0.447 4.114-0.62 6.248-3.983 13.662-2.762 26.103-3.537 40.85 0.22 2.664 0.63 5.619 1.03 8.501 0 6.467-4.767 5.235-9.142 5.627z m-331.112 5.154a40.53 40.53 0 0 1-2.634-0.593c-2.315-6.832-6.29-11.255-9.562-14.548-4.594-9.74-2.716-18.888-2.27-26.95 0.593-3.977 1.486-8.738 2.908-11.055 3.537-1.632 12.224 1.277 17.583 3.53 1.076 1.076 2.698 2.69 1.869 5.49-1.495 1.405-2.662 3.02-3.938 4.697-2.27 3.785-8.121 12.103-6.226 18.032 0.63 0.647 1.45 1.295 2.27 1.942 9.343-2.526 18.704-5.025 28.038-7.287 1.23-1.286 2.507-2.262 3.928-3.32 0.256-2.034 0.639-3.967 1.03-5.819 0.438-24.497 0.839-48.968 1.222-73.502 1.085-2.299 2.898-1.268 6.271-1.405 6.198 1.04 13.436 0.785 18.449 7.862-1.933 2.472-3.737 4.97-5.606 7.497-1.221 2.873-2.48 5.792-3.527 8.665 0 17.876-1.432 36.555 0 54.668 0.628 1.806 0.838 1.806 3.08 2.837 8.75 0 17.437 0.255 26.16 0.438 0.84-1.651 1.66-3.275 2.726-4.761 1.066-6.029 2.47-10.17 3.099-15.587-0.365-6.002-3.345-9.559 3.901-9.559 5.278 2.062 9.808 3.95 15.632 8.72 0 9.977-5.396 20.101-8.932 29.906-0.839 3.94-1.677 7.907-2.315 11.793a23.799 23.799 0 0 0-2.899 2.937c-2.908-1.26-5.752-2.509-8.732-3.53-2.653-0.456-5.141-0.812-7.63-1.022-21.575 0-43.15 2.244-63.24 5.993-3.554 1.276-7.1 2.444-10.655 3.93z m161.846 0.446c-3.09-5.39-2.89-10.37-3.327-14.93-0.455-4.168-0.638-8.126-0.82-12.048-5.04 0.374-10.182 3.265-13.262 2.663-1.504-5.135-3.127-10.552-1.896-14.675 3.153-0.255 6.234-0.447 9.534-0.711 2.516-0.967 6.226-3.466 7.666-5.764 0-3.311-3.3-5.19-4.13-6.22-0.829-1.642-1.65-3.339-2.497-4.999h-1.039c-4.558 3.721-15.14 13.07-21.338 10.99-0.237-1.468-0.237-2.69-0.237-3.921 10.947-17.658 24.647-35.114 34.436-52.07 1.896-4.387 3.728-8.764 5.624-12.896 1.477-5.144 0.392-8.929 6.818-6.831 2.315 1.404 5.405 4.77 8.76 8.51 0 6.201-8.76 8.9-8.76 16.37 0.638 0 1.267 0.192 2.142 0.402 3.482-1.04 8.058-4.341 11.777 1.268v4.779c-1.23 4.131-6.654 9.978-11.212 9.978-5.341-3.73-7.264-5.673-11.42-5.673a60.556 60.556 0 0 0-5.78 4.788c-1.923 2.736-7.902 9.184-6.262 14.164 1.076-0.2 2.133-0.2 3.373-0.2 3.874-1.861 17.382-12.286 21.566-3.968-0.191 1.86-0.191 3.721-0.191 5.637-1.058 2.845-7.338 10.333-5.852 13.425 2.324-0.146 4.794-0.383 7.264-0.602 0.22 0.219 0.63 0.602 1.03 1.049 0 8.947-6.435 14.693-13.654 20.093-1.868 3.365-4.43 6.466-0.437 10.443 3.992 0 6.836-3.722 8.923-5.847 2.917-3.94 5.998-7.944 9.115-11.61h1.64c0 1.44 0 3.12 0.22 4.77-2.252 6.056-5.588 13.252-9.535 19.062-2.069 2.526-4.174 5.025-6.052 7.743-3.08 2.07-6.198 4.104-9.097 6.385-1.066 0-2.05 0.191-3.09 0.446z m-285.646 5.82c-0.21-0.384-0.21-0.767-0.21-1.223 6.062-7.05 13.026-12.64 20.527-17.849 2.48-3.11 5.433-6.256 7.493-9.987 0.83-2.471 1.613-4.961 2.707-7.424 0.401-2.763 0.775-5.427 1.422-8.117 0.629-11.045 2.242-22.82 1.65-31.785 2.725-3.448 5.833-1.414 10.19 0.447 0.201 0.346 0.402 1.049 0.83 1.669-0.237 7.625-0.428 15.295-0.629 23.248-0.656 5.61-3.3 11.382-6.645 17.174-0.629 3.62-1.276 8.765-1.276 14.128-4.512 5.426-12.004 11.264-17.391 15.14-3.738 1.286-7.265 2.763-10.82 4.195-2.634 0-5.36 0.247-7.848 0.383z m69.657 1.085c-2.488-2.308-4.931-4.378-7.456-6.449-6.435-7.697-12.652-15.386-18.877-23.056 0-0.83 0-1.615 0.255-2.508 8.705 0 18.476 4.368 28.384 8.746 1.896 1.432 2.716 2.308 4.138 6.63 0 3.777 0.447 6.011-0.629 10.8-1.221 1.86-2.452 3.702-3.682 5.663-0.848 0-1.468 0-2.133 0.174z m461.43-0.064c-1.058-0.383-1.851-0.84-2.744-1.268-9.763-2.27-21.785-5.573-28.995-9.093-5.816-5.235-14.539-9.367-16.17-14.775h2.196c8.505 3.365 20.354 6.64 31.557 6.64 5.423-2.92 3.554-9.294 3.554-13.672a6941.02 6941.02 0 0 1-2.479-33.61c-2.561-7.889-3.345-6.867-8.295-7.716-6.453 0.849-14.347 2.29-19.542 4.141-2.033 1.05-3.91 2.125-5.834 3.083-5.56 0-7.41-6.375-8.887-8.482v-4.132c0.219-0.392 0.392-0.63 0.82-0.82 12.26-2.481 25.741-5.044 38.812-9.805 3.081-0.794 6.226-1.432 9.307-2.061 4.849-0.146 10.82-1.697 17.026-2.481 3.984 0 7.885 0 11.832 0.283 0.656 0.501 1.294 1.149 2.078 1.805 0.82 2.07 8.295 13.316 3.08 17.028-0.974 0-2.04 0.183-2.916 0.43-3.08-0.64-5.98-1.223-8.942-1.861-2.825 0.392-5.742 0.82-8.64 1.431-3.52 2.737-2.954 1.679-4.34 6.03-0.282 16.37-2.479 34.484 0.82 52.716 0.183 3.356 1.66 8.902 1.66 14.118a91.201 91.201 0 0 0-1.878 1.88c-1.03 0-2.106 0-3.08 0.19z m-206.465 0c-3.719-3.73-3.363-7.47-4.32-10.826-0.894-6.175-1.687-12.377-2.516-18.634 0-4.569-0.228-9.923-1.04-12.504 0-13.443 1.687-27.389 2.06-38.99 0-8.044-1.02-16.609-1.248-21.762 0.456-0.656 0.875-1.295 1.249-1.933 13.49-6.193 30.307-21.333 46.924-11.219 1.65 1.679 2.288 1.679 2.288 4.761-3.355 5.865-5.406 13.371-6.91 21.215-1.011 3.995-2.862 11.245-5.587 15.778a89.11 89.11 0 0 0-4.95 4.761c-5.159 3.338-9.707 5.254-12.852 9.814 1.641-0.894 3.263-1.687 5.114-2.326 9.352-4.15 17.054-11.391 24.547-18.898 5.405-3.985 5.159-1.851 9.297 5.035-0.392 2.234-1.632 3.74-3.272 4.952-4.239 5.427-10.145 10.608-14.12 15.159-2.643 1.404-5.414 3.083-8.048 4.742-0.283 1.077-1.057 1.077-0.283 3.73 8.933 4.214 18.039 8.282 27.254 12.724 4.13 0.784 8.268 1.623 12.424 2.654 4.521 1.687 9.142 3.338 13.654 5.025 0.638 1.013 2.452 2.244 2.452 4.971-2.625 1.65-5.35 3.274-8.04 4.953-9.752 1.048-18.047 0.173-26.369 0-3.336-3.302-2.434-4.77-2.908-6.385-2.288-3.174-4.493-6.257-6.809-9.212-3.08-0.775-5.97-1.614-8.914-2.453-0.61 0.62-1.313 1.423-1.695 2.317-3.5 10.506-12.816 23.257-21.567 31.119-2.707 1.678-4.138 1.24-5.815 1.432z m1.422-22.236c3.619-0.192 6.444-0.967 10.619-2.472 3.09-2.681 11.658-11.008 9.98-14.474-4.374-2.526-17.236-9.622-19.706-4.45-0.893 6.703-0.893 13.078-0.893 21.396z m3.363-48.33c4.139-1.25 9.526-5.162 13.682-8.318 3.108-6.366 3.947-18.852 4.157-24.488-2.735-11.191-14.758 6.648-15.906 8.901v1.678c2.206-1.258 4.694-2.289 7.192-3.31 3.354 0 8.896 0 5.341 7.296-1.987 1.86-4.94 4.059-6.809 7.214-5.724 3.548-7.657 3.548-7.657 11.027z m-469.25 80.343c-0.993-0.611-1.822-1.231-2.615-1.642 0.337-1.44 0.793-2.672 1.394-3.958v-14.739h-0.893c0-8.053 0-14.11-0.784-20.494-0.428-7.105-0.61-14.164-0.82-20.986-5.214 0-7.028 0.63-10.756 1.022-13.509 0.4-26.397 1.04-36.588 6.858-6.809 5.755-9.279-2.098-9.926-6.22 0-5.025 0.219-3.165 4.384-4.77 16.772-2.964 32.924-7.287 50.188-12.513 0.647-0.174 1.467-0.174 2.306-0.174 1.832-2.91 0.784-10.808 0.784-12.66-0.784 0-1.514 0.21-2.042 0.42-6.198 3.275-10.956 5.4-14.776 10.982-4.311 2.9-8.294-0.611-10.755-2.053-0.63-1.678-1.049-3.329-1.422-4.76h-0.82c-0.456-1.223-0.857-2.518-1.286-3.54-0.182-1.23-0.182-2.453-0.182-3.739 0.811-0.638 1.823-1.277 2.871-1.65a312.257 312.257 0 0 1 13.09-2.107c4.958-1.834 10.162-3.73 15.322-5.673 0-4.25-0.784-9.458-2.908-11.501-6.736 0-10.09 3.283-15.131 6.384-1.24-0.191-2.461-0.456-3.719-0.456-2.47-7.223-6.864-11.984-3.354-17.165 7.073-1.067 14.356-1.933 21.566-2.718 13.526-3.32 25.96-6.22 40.908-6.22 0.629 1.432 1.258 3.11 2.06 4.761-0.629 0-1.149 0.21-1.878 0.392 0.894 1.678 1.878 2.107 1.249 4.953-5.843 2.964-11.622 4.268-16.38 5.043-6.617 3.73-5.788 3.986-6.444 12.04 0.656 3.082-0.392 8.108-0.392 13.06h1.048c5.788-6.01 11.567-12.012 17.364-17.83 1.112-3.284 2.771-2.244 7.11-2.071 1.021 0.775 5.369 3.11 5.369 7.287-0.602 0.602-1.212 1.213-1.823 1.834-9.361 4.934-18.057 13.972-23.708 22.217 11.239 0.41 23.89-0.647 36.697-1.87 0.875 0 1.932 0.247 2.98 0.438 3.264 3.293 9.316 12.049 9.316 19.546-0.556 0.346-1.094 0.793-1.468 1.395-7.219-1.222-14.502-2.444-21.784-3.74-8.24 0-24.41-0.629-31.493 2.345-1.85 3.876-1.686 12.823-2.324 18.67 0 13.589 0.219 27.306 0.474 41.042 0 3.74-8.577 4.378-10.008 4.56z m-35.947 71.546v-36.667h15.01c4.436 0 7.813 0.693 10.13 2.08 2.318 1.388 3.477 3.412 3.477 6.07 0 4.41-3.531 7.532-10.594 9.366 8.256 1.668 12.384 5.03 12.384 10.083 0 2.924-1.208 5.166-3.626 6.727-2.417 1.56-5.883 2.34-10.399 2.34h-16.382z m8.049-21.464h2.384c2.83 0 5.078-0.554 6.744-1.663 1.665-1.109 2.498-2.616 2.498-4.521 0-1.767-0.67-2.967-2.008-3.6-1.34-0.632-3.87-0.948-7.593-0.948h-2.025v10.732z m0 16.098h2.175c4.263 0 7.202-0.353 8.817-1.058 1.615-0.705 2.423-1.993 2.423-3.863 0-1.92-1.082-3.518-3.247-4.793-2.164-1.275-4.894-1.912-8.19-1.912h-1.978V610.8z m22.358 5.366l13.76-36.667h7.358l13.76 36.667h-7.548l-3.68-9.786h-14.62l-3.679 9.786h-5.351z m10.732-15.204h10.732l-5.366-14.309-5.366 14.31z m76.912 15.204v-36.667h7.886v17.788l15.08-17.788h6.82l-13.668 16.45 16.972 20.217h-10.258l-14.946-18.036v18.036h-7.886z m72.168 0.894c-6.425 0-11.563-1.748-15.415-5.246-3.851-3.497-5.777-8.158-5.777-13.982 0-5.89 1.935-10.566 5.806-14.03 3.87-3.465 9.094-5.198 15.672-5.198 6.54 0 11.75 1.733 15.63 5.197 3.88 3.465 5.82 8.117 5.82 13.957 0 5.972-1.94 10.682-5.82 14.13-3.88 3.448-9.185 5.172-15.916 5.172z m-0.332-5.366c3.763 0 6.742-1.253 8.937-3.758 2.196-2.506 3.293-5.902 3.293-10.188 0-4.158-1.102-7.493-3.307-10.007-2.205-2.514-5.122-3.77-8.752-3.77-3.668 0-6.6 1.256-8.795 3.77-2.195 2.514-3.293 5.873-3.293 10.08 0 4.173 1.093 7.528 3.279 10.066 2.185 2.538 5.065 3.807 8.638 3.807z m29.222 4.472v-36.667h25.041v5.029h-16.757v11.149h13.772v5.054h-13.772v15.435h-8.284z m43.822 0v-36.667h13.613c4.748 0 8.138 0.747 10.17 2.242 2.031 1.495 3.047 3.993 3.047 7.494 0 3.964-1.359 7.049-4.076 9.254-2.717 2.205-6.52 3.307-11.41 3.307h-3.377v14.37h-7.967z m8.943-19.675h1.606c2.82 0 5.045-0.577 6.677-1.73 1.633-1.153 2.45-2.718 2.45-4.695 0-3.468-2.508-5.201-7.521-5.201h-3.212v11.626z m25.041 19.675v-36.667h8.944v36.667h-8.944z m109.108 0v-36.667h17.34c6.243 0 11.024 1.507 14.345 4.521 3.322 3.014 4.982 7.362 4.982 13.044 0 6.045-1.76 10.74-5.281 14.085-3.52 3.345-8.448 5.017-14.781 5.017h-16.605z m8.943-5.366h6.067c4.273 0 7.46-1.127 9.562-3.382 2.101-2.255 3.152-5.679 3.152-10.272 0-3.554-0.844-6.512-2.532-8.876-1.161-1.626-2.56-2.75-4.194-3.37-1.636-0.62-4.019-0.93-7.149-0.93h-4.906v26.83z m36.667 5.366v-36.667h8.943v36.667h-8.943z m19.675 0v-36.667h6.957l21.66 25.047V579.5h6.262v36.667h-7.101l-21.517-25.048v25.048h-6.26z m-154.718 0v-36.667h6.957l21.661 25.047V579.5h6.261v36.667h-7.101l-21.517-25.048v25.048h-6.26z m-243.255 0v-36.667h6.956l21.661 25.047V579.5h6.261v36.667h-7.101l-21.516-25.048v25.048h-6.261z m478.462-0.887c-5.464 1.187-10.181 1.781-14.151 1.781-7.529 0-13.312-1.662-17.351-4.986-4.04-3.324-6.06-8.088-6.06-14.291 0-6.154 2.02-10.889 6.06-14.205 4.039-3.316 9.793-4.974 17.262-4.974 4.776 0 9.513 0.47 14.21 1.41v9.617h-1.566c-1.847-3.197-3.187-4.883-4.018-5.058-3.002-0.63-5.611-0.945-7.83-0.945-4.619 0-8.186 1.237-10.702 3.712-2.516 2.474-3.774 5.98-3.774 10.517 0 4.388 1.346 7.832 4.04 10.332 2.692 2.5 6.407 3.749 11.144 3.749 1.041 0 2.26-0.124 3.656-0.371v-12.052h9.08v15.764z m-154.717 0c-5.465 1.187-10.182 1.781-14.152 1.781-7.528 0-13.312-1.662-17.351-4.986-4.04-3.324-6.059-8.088-6.059-14.291 0-6.154 2.02-10.889 6.059-14.205 4.039-3.316 9.793-4.974 17.262-4.974 4.776 0 9.513 0.47 14.211 1.41v9.617h-1.567c-1.847-3.197-3.187-4.883-4.018-5.058-3.001-0.63-5.611-0.945-7.83-0.945-4.619 0-8.186 1.237-10.702 3.712-2.516 2.474-3.774 5.98-3.774 10.517 0 4.388 1.346 7.832 4.04 10.332 2.692 2.5 6.407 3.749 11.144 3.749 1.042 0 2.26-0.124 3.656-0.371v-12.052h9.08v15.764z m161.953 0.544l0.219-8.071c0.135 0.051 0.506 0.051 1.114 0 0.27 1.614 0.587 2.482 0.954 2.603 3.342 1.105 6.267 1.657 8.775 1.657 2.146 0 3.836-0.437 5.071-1.312 1.235-0.874 1.853-2.062 1.853-3.563 0-1.188-0.388-2.19-1.163-3.007-0.776-0.816-2.245-1.786-4.409-2.907l-2.677-1.361c-3.588-1.848-6.122-3.618-7.6-5.309-1.479-1.69-2.218-3.666-2.218-5.926 0-3.02 1.213-5.445 3.638-7.276 2.425-1.831 5.63-2.747 9.615-2.747 3.191 0 5.894 0.421 9.897 1.262v6.728c-0.463 0-0.567-0.07-0.954-0.194-0.557-0.18-1.329-1.408-1.85-1.559-2.797-0.809-4.204-1.213-6.012-1.213-1.839 0-3.313 0.375-4.422 1.126-1.108 0.75-1.663 1.736-1.663 2.957 0 1.006 0.388 1.889 1.163 2.648 0.775 0.759 2.236 1.69 4.382 2.796l2.866 1.46c3.859 1.98 6.518 3.803 7.979 5.47 1.46 1.666 2.19 3.695 2.19 6.087 0 3.398-1.379 6.063-4.137 7.993-2.76 1.93-6.563 2.895-11.414 2.895-3.21 0-6.942-0.412-11.197-1.237z m33.903 0.343v-36.667h8.524v14.89h16.937v-14.89h8.524v36.667h-8.524v-16.723H889.50094v16.723h-8.524z m41.14 0l13.76-36.667h7.357l13.76 36.667h-7.548l-3.68-9.786h-14.62l-3.679 9.786h-5.35z m10.731-15.204h10.732l-5.366-14.309-5.366 14.31z m31.301 15.204v-36.667h6.353l23.71 25.047V579.5h5.71v36.667h-5.591l-24.471-25.048v25.048h-5.71z m-860.138 10.78v-0.173c-5.498-0.456-10.55-1.405-15.41-2.408-4.396-1.24-8.965-2.463-12.78-3.813-2.557-1.04-5.096-2.007-7.609-2.993-5.17-2.38-10.03-5.163-14.545-7.781a133.072 133.072 0 0 1-18.186-14.086c-6.162-6.176-11.123-12.27-15.883-18.72-1.192-1.97-2.44-4.005-3.723-5.957-3.095-5.438-5.789-10.875-7.91-16.175-2.148-5.748-4.068-11.696-5.251-17.151-0.492-2.746-1.029-5.41-1.557-8.138-0.482-4.068-0.883-8.31-1.138-11.923-0.09-4.981 0.164-10.2 0.273-14.807 0.246-1.842 0.383-3.53 0.592-5.318 0.328-2.327 0.737-4.662 1.156-6.988 0.71-3.175 1.438-6.34 2.203-9.452 1.438-4.57 3.049-8.858 4.614-13.009 0.883-2.107 1.857-4.205 2.795-6.258 2.239-4.452 4.696-8.52 7.29-12.699 2.076-3.065 4.27-5.957 6.49-8.904 1.611-1.86 3.204-3.713 4.87-5.565 2.722-2.664 5.452-5.373 8.21-8.074 2.63-2.207 5.252-4.378 8.028-6.55 4.397-3.147 8.893-5.893 13.808-8.73 5.67-2.837 11.414-5.383 17.64-7.609 2.53-0.766 5.06-1.56 7.637-2.317 3.613-0.757 7.236-1.514 10.85-2.19 3.176-0.456 6.398-0.793 9.648-1.158v31.747c-3.222 0.283-6.308 0.922-9.193 1.323-2.84 0.812-5.607 1.551-8.393 2.327-3.959 1.414-7.281 2.736-11.022 4.506-5.944 2.993-10.877 6.596-15.984 10.464-1.328 1.04-2.548 2.199-3.813 3.257a361.64 361.64 0 0 0-6.79 7.29c-1.675 1.988-3.186 4.205-4.752 6.248-1.192 1.816-2.421 3.786-3.613 5.702-3.632 6.486-6.463 13.283-8.484 20.682-0.491 2.344-1.046 4.734-1.538 7.115-0.664 4.945-1.101 10.19-1.101 15.683 0.164 2.143 0.255 4.187 0.437 6.267 0.2 1.934 0.364 3.85 0.664 5.775 0.938 4.57 2.14 9.332 3.823 14.414 1.42 3.822 3.104 7.59 5.416 11.841 1.128 1.953 2.33 3.877 3.477 5.884 2.248 2.947 4.533 5.912 6.717 8.886 2.321 2.29 4.724 4.68 7.073 7.07 4.505 3.896 9.62 7.6 15.464 10.975 0-37.002 0.1-73.868 0.164-110.833 0.21-0.575 0.355-1.15 0.6-1.761 1.43-2.755 3.104-4.041 6.19-4.89 13.699-0.082 27.598-0.091 41.305-0.091 0-23.272 0.092-46.627 0.173-69.881 7.382 0.63 14.646 2.016 22.492 3.987 3.122 0.948 6.198 1.961 9.293 3.01 4.314 1.679 8.911 3.887 13.599 6.158 6.271 3.476 12.315 7.453 18.468 12.252 1.229 1.05 2.466 2.107 3.75 3.184a408.803 408.803 0 0 1 5.042 4.835c1.466 1.578 3.004 3.111 4.506 4.799a177.125 177.125 0 0 1 12.443 16.904c1.629 2.974 3.258 5.967 4.87 8.932a148.14 148.14 0 0 1 5.633 13.875c3.25 10.437 5.298 21.147 5.908 32.523v8.038c-0.173 2.444-0.346 4.917-0.52 7.298-0.554 4.379-1.255 9.214-2.238 14.085-1.675 6.386-3.532 12.709-6.062 18.93a190.284 190.284 0 0 0-2.995 6.697 322.196 322.196 0 0 0-5.325 9.56c-2.685 3.786-5.388 7.517-7.946 11.23-1.82 2.099-3.631 4.17-5.397 6.304-2.349 2.281-4.733 4.598-7.109 7.025-6.09 5.163-12.807 10.3-19.66 14.36-2.13 1.048-4.16 2.17-6.217 3.32-9.066 4.288-19.024 8-28.672 9.807-3.777 0.575-8.483 1.66-11.733 1.66v0.174h-2.13v-31.684c5.043-0.602 9.73-1.56 15.028-2.937 3.868-1.241 7.992-2.81 11.978-4.525 1.994-1.022 3.978-2.172 6.072-3.239 5.534-3.394 10.84-7.417 15.746-11.768 2.294-2.381 4.679-4.772 6.663-7.134 3.54-4.735 7.2-9.926 9.876-15.044 1.747-3.485 3.158-7.107 4.55-10.491 1.22-4.407 2.467-8.694 3.36-12.955 0.254-1.779 0.418-3.457 0.764-5.163 0.455-6.34 0.455-12.362 0.073-18.21-0.665-6.02-2.13-12.078-3.777-17.515-1.029-2.637-2.003-5.219-2.986-7.81-1.138-2.006-2.084-4.141-3.104-6.166-2.43-4.17-5.206-8.165-7.618-11.495a220.7 220.7 0 0 0-8.884-9.643 287.503 287.503 0 0 1-5.388-4.525c-3.741-2.691-7.319-5.045-10.923-7.152-0.091 36.801-0.173 73.511-0.173 110.277-0.355 2.782-1.948 4.698-4.114 6.34-1.02 0.292-2.066 0.666-2.995 0.949-13.644 0-27.333 0-40.968 0.082v69.808h-2.112zM101.85494 525.2h25.358v-25.37h-25.358v25.37z" fill="#C00415"></path></svg>