<svg viewBox="0 0 1024 1024" version="1.1" xmlns="http://www.w3.org/2000/svg"><path d="M480.294 484.51c0 2.939-1.76 3.634-3.984 4.559 2.145 1 3.984 2.007 3.984 4.638v18.238c0 2.08-0.54 3.626-1.61 4.636-1.074 1-2.76 1.462-4.981 1.462h-8.271v6.107h-11.03v-65.375h19.3c2.296 0.076 3.908 0.55 4.983 1.545 1.07 1.009 1.61 2.55 1.61 4.64v19.55z m-8.966 23.096v-12.044c0-1.464-0.92-2.394-2.451-2.394h-3.445v16.84h3.445c1.684 0 2.451-0.769 2.451-2.402z m0-24.87v-13.448c0-1.466-0.92-2.403-2.451-2.403h-3.445v18.24h3.445c1.684 0 2.451-0.848 2.451-2.389z m14.144-23.961h36.896v59.194c0 4.326-2.696 6.181-6.622 6.181h-30.274v-65.375z m25.8 54.94v-18.618h-14.708v21.015h12.244v-0.068c1.542 0 2.464-0.86 2.464-2.329z m0-26.654v-20.176h-14.708v20.176h14.708z m84.126 29.019v0.067h11.116v8.003h-18.597c-3.705 0-5.554-2.614-6.403-5.768-0.08-0.155-0.08-0.312-0.155-0.386l-9.798-39.155h11.963l4.78 19.383c0.229 0 0.462 0 0.768-0.08 1.544-0.074 2.93-0.46 3.473-2.225l3.479-9.927h9.872l-5.015 15.843c-0.542 1.46-1.39 2.622-2.626 3.312-2.314 1.458-5.403 1.156-8.018 1.156l1.765 6.687c0.395 1.772 1.242 3.09 3.396 3.09z m-16.636-57.952l-2.47 4.796h31.517v18.633h-11.123v-10.514h-24.486l-10.428 21.484c-1.319 2.63-2.471 5.26-6.178 5.339l-0.08 14.61c0 1.933 0.228 3.632 2.546 3.632h10.277v8.042h-18.071c-3.79-0.225-5.878-2.323-5.878-6.185v-20.1l-6.407 0.078-0.079-8.198h10.661c1.703 0 3.01-0.995 3.706-2.55 0 0 0-0.08 0.076-0.153l7.652-16h-10.203v10.515h-11.12v-18.633h25.186l2.395-4.796h12.507z m397.35 20.713H1024.011v8.142h-8.832v30.724c0 3.57-3.105 6.443-6.744 6.443h-23.951v-7.528h16.205c2.085 0 3.327-1.17 3.327-3.1v-26.539H976.111v-8.142z m-17.47-15.555l2.427-5.158h11.16l-4.84 10.845c-1.483 2.848-3.904 4.69-7.417 4.69h-5.856l-1.953-8.075c2.029 0 4.37 0.08 5.853-1.535 0.158-0.157 0.312-0.38 0.468-0.534l0.159-0.233z m10.527 19.853c-0.99 2.489-1.83 5.055-4.432 6.372h4.817v34.64h-11.011v-33.323h-3.82l-1.913-8.154c0.768 0 1.526 0 2.292-0.083 1.687-0.068 3.44-0.69 4.286-2.246l0.074-0.072 1.836-4.669h10.93l-3.06 7.535z m10.827-15.95v-8.414h42.72v8.415h-42.72zM723.671 501.497h34.306v11.853c0 4.076-1.683 6.918-6.585 6.918h-27.72v-18.771z m23.274 9.234v-2.842h-12.25v5.999h9.803c2.3 0 2.447-1.617 2.447-3.157z m29.803-40.655H763.811l-2.87 7.712h14.024v40.854c-0.079 4.082-2.48 6.157-6.659 6.157h-7.052l-1.553-6.394c0.7 0 1.475 0 2.17-0.074 1.169-0.157 1.94-1.004 1.94-2.316v-30.209h-9.841v3.387c0 2.542 2.561 2.542 4.497 2.542v6.63h-7.982c-2.402 0-4.339-1.311-5.264-3.388-0.237-0.615-0.393-1.238-0.393-1.848v-7.323h-7.364v7.323c0 2.847-2.709 5.237-5.653 5.237h-7.978l-1.553-6.63h2.716c1.705-0.07 3.328-0.46 3.328-2.543v-3.387h-9.761v38.384h-11.157v-46.402h13.872c-0.853-2.549-1.703-5.169-2.482-7.712h-13.247v-8.013h30.214v-3.934h11.16v3.934h29.827v8.013z m-27.503 7.712l2.863-7.712h-21.46l2.479 7.712h16.118z m125.63 0.406h-4.506l-1.707-8.106h0.856c0.7 0 1.787-0.235 2.25-0.62 0.394-0.383 0.702-1.006 0.782-1.69l2.093-9.65h10.565l-1.087 5.479h9.785v8.028h-11.422c-0.768 3.933-3.41 6.56-7.61 6.56z m59.8 37.855h5.836v8.102h-12.373c-4.689 0-5.99-3.552-7.142-7.333l-2.616-8.813-4.304-14.516h-5.221v20.854c0 1.465 0.997 2.313 2.461 2.313h6.142v7.495h-13.064c-4.147 0-6.604-2.005-6.604-6.178v-58.55h41.26v27.891c-0.072 4.315-2.686 6.175-6.605 6.175h-7.302l2.844 9.342h2.074c1.233 0 2.153-0.609 2.461-1.773l0.609-4.25h7.226l-1.614 9.035c-0.69 2.475-3.072 3.477-5.45 3.787-1.002 0.156-2.081 0.156-3.158 0.156 0.625 1.777 1.077 5.016 2.844 5.944 0.152 0.078 0.314 0.149 0.467 0.149 0.38 0.17 0.765 0.17 1.23 0.17z m-25.82-49.138v6.577h19.132v-6.577h-19.132z m0 19.005h16.67c1.466 0 2.382-0.846 2.462-2.311v-3.71h-19.132v6.021z m-38.283 2.917v-8.05h23.334v8.05h-7.03v7.605h7.03v8.063h-7.03v9.283c0 1.459 1.004 2.314 2.475 2.314v0.067h4.322v7.986h-11.28c-2.24 0-3.938-0.542-5.02-1.533-1.08-1-1.623-2.54-1.623-4.608V504.5h-5.793v-8.063h5.793v-7.605h-5.178zM385.285 457.48v9.134h5.684v8.133h-5.684v11.31l4.52-1.863v9.684l-4.52 1.86v22.065a5.49 5.49 0 0 1-0.47 2.162c-1.094 2.639-3.509 4.185-6.474 4.185h-7.712l-1.946-8.055c2.34 0 5.376 0 5.376-3.177v-12.386l-6.392 2.714v-9.684l6.392-2.704v-16.111h-5.763v-8.133h5.763v-9.134h11.226z m23.404 30.635h29.532v29.923c0 2.788-1 4.643-2.992 5.493a7.92 7.92 0 0 1-3.003 0.62h-8.386l-1.922-7.505 2.848-0.07c1.31 0 2.386-0.93 2.386-2.328v-3.715h-3.615c-2.307 0-3.54-1.538-4.005-3.55l-1.536-7.888h5.462l0.617 3.709c0.15 0.695 0.691 1.397 1.305 1.397h1.772v-9.127h-8.154c-1.077 3.557-2.229 7.038-3.307 10.513-1.15 3.788-3.772 4.728-7.08 4.946-0.846 0.083-1.844 0.083-2.763 0.083v3.015c0 0.387 0.153 1.082 1.073 1.082h10.614v7.506h-17.536c-4.3-0.235-4.92-2.632-4.92-6.032v-18.56h-1.537l-1.925-7.584c2.235 0 4.92 0 6.072-2.396l1.773-3.478h-3.998v-24.747h42.68v18.56c0 2.09-0.534 3.64-1.61 4.64-1.077 1-2.771 1.547-5.003 1.547h-21.076l-1.766 3.946z m-2.154-23.056v3.95h20.536v-3.95h-20.536z m0 9.291v4.17h18.072c1.547 0 2.464-0.848 2.464-2.316v-1.854h-20.536z m2.842 27.606l2.004-6.882h-5.533v9.127c1.233 0.07 2.075-0.157 2.762-0.929 0.314-0.31 0.543-0.773 0.767-1.316z m265.749 5.365h-6.965c-3.088 0-4.939-1.623-5.718-4.857l-1.624-8.48-3.17-16.438h10.207l3.171 18.897c0.308 1.546 1.011 2.24 2.164 2.24h1.935v8.638z m13.186-49.193v7.199h5.585v8.596h-5.585v41.326c0 5.417-3.989 8.901-9.115 8.901h-14.474v-8.595h10.336c1.454 0 2.22-1.314 2.22-3.948v-37.684H659.591v-8.596h17.688v-7.2h11.033z m-30.935 51.696c0.235 1.45 0.931 2.215 1.937 2.215h2.866v8.08h-7.982c-3.33 0-5.267-2.226-5.736-6.613l-3.172-33.76v43.757h-10.152V480.74l-2.398 32.225c-0.544 6-5.577 7.153-10.689 7.153l-1.944-8.079h1.005c1.55 0 2.325-0.917 2.405-2.76l2.635-32.921h8.986v-2.847h-12.161v-8.843h12.161v-6.54h10.152v6.54h11.782v8.843h-11.782v2.847h8.603l3.484 33.466z m179.631-2.864v8.09h21.946v9.1H788.401v-9.1h20.634v-7.776h-6.336c-3.553 0-5.952-3.478-7.034-10.254l-5.023-32.082h10.198l3.557 28.297c0.465 3.62 1.161 5.47 2.168 5.47h2.47v-39.93h10.82v56.274h6.337v-56.274h10.817v39.699c1.083 0 2.09-0.076 3.168-0.076 1.008 0 1.78-1.926 2.473-5.623l3.253-27.837h10.118l-4.17 31.147c-1.088 7.247-3.788 10.875-8.195 10.875h-6.647z m-590.756-48.832v5.385h25.617v9.473h-55.932v40.931c0 6.849-3.773 10.233-11.24 10.233h-3.381v-8.842h2.079c0.842 0 1.302-0.547 1.302-1.698v-50.097h28.09v-5.385h13.465z m65.925-0.648l-1.936 4.719h43.833v9.295h-47.94l-6.345 14.405h16.337v-10.453h11.465V485.9h24.39v9.291h-24.39v24.082c0 3.251-2.169 4.878-6.582 4.878h-8.527l-2.937-8.364h5.105c1.01 0 1.476-0.467 1.476-1.392V495.19H287.861v-9.29l6.348-14.406h-8.747v-9.295h12.7l0.227-0.459 1.788-4.26h12z m35.389 54.74c0.39 1.533 1.173 2.297 2.498 2.297h3.363v8.339h-8.597c-0.626 0-1.254-0.083-1.797-0.156-2.344-0.532-3.833-1.988-4.533-4.509l-5.786-20.58h10.945l3.906 14.608z m-48.853-14.608h11.346l-9.349 22.012c-0.536 1.481-1.307 2.567-2.305 3.182-0.69 0.463-1.528 0.697-2.446 0.697h-9.202v-8.76h3.606c0.995 0 1.759-0.696 2.374-2.253l5.668-14.027 0.308-0.851z m132.188 60.494V545.19h4.437v12.705c0 2.636-0.41 5.073-2.845 6.556-2.53 1.591-7.066 1.591-9.308-0.62-1.16-1.067-1.793-2.665-1.793-4.776l4.13-0.532c0.11 1.16 0.205 2.008 0.522 2.432 0.853 1.263 3.278 1.592 4.352 0.32 0.304-0.527 0.505-1.591 0.505-3.169z m10.696 7.09V545.19h4.332v20.006h-4.332z m14.68-8.804v5.417h12.159v3.387h-16.58V545.19h16.172v3.396h-11.752v4.432h10.908v3.374h-10.908z m30.578-11.202h5.058l-8.04 11.645v8.36h-4.33v-8.468l-8.026-11.537h5.174l5.181 7.938 4.983-7.938z m12.462 0h4.663l8.66 20.006h-4.751l-1.907-4.564h-8.786l-1.783 4.564h-4.653l8.557-20.006z m-0.727 12.076h5.915l-2.957-7.323v-0.095l-2.958 7.418z m31.28 1.257V545.19h4.139v20.006h-4.446l-8.769-13.023v13.023h-4.13V545.19h4.332l8.874 13.333z m20.622-4.01h9.418v7.923c-2.327 2.124-6.235 3.087-9.302 3.087-6.251 0-11.002-3.83-11.002-10.382 0-2.123 0.433-3.913 1.382-5.503 2.005-3.4 5.614-4.775 9.404-4.775 4.128 0 8.246 1.504 9.297 5.936l-4.425 0.742c-0.65-2.238-2.648-3.18-4.872-3.18-4.113 0-6.237 2.63-6.237 6.563 0 4.023 1.907 7.184 6.13 7.184 1.8 0 3.693-0.73 5.177-1.788v-2.425h-4.97v-3.381z m65.446 1.82v-11.142h4.444v10.512c0 6.361-1.487 9.873-8.467 9.873-6.989 0-8.89-3.095-8.89-9.66V545.19h4.341v10.818c0 3.5 0.539 6.143 4.455 6.143 3.795 0 4.117-2.52 4.117-5.819z m40.732-11.142h4.656l8.68 20.057h-4.759l-1.921-4.575h-8.666l-1.79 4.575h-4.664l8.464-20.057z m-0.64 12.107h5.934l-2.97-7.341-0.095-0.096-2.87 7.437z m22.55-11.899v16.453h10.888v3.396h-15.334v-19.849h4.445z m81.345 13.474l3.92-13.682h6.659v20.057h-4.125V549.43l-4.332 15.818h-4.242l-4.332-15.818v15.818h-4.026V545.19h6.569l3.909 13.682z m27.093 0l3.908-13.682h6.562v20.057h-4.008V549.43l-4.341 15.818h-4.243l-4.324-15.818v15.818h-4.136V545.19h6.667l3.915 13.682z m20.946-2.451v5.43h12.174v3.396h-16.505V545.19h16.068v3.404h-11.737v4.444h11.006v3.383h-11.006z m64.852 8.826V545.19h4.336v20.057h-4.336z m16.521-20.057h4.64l8.782 20.057h-4.86l-1.905-4.575h-8.686l-1.794 4.575h-4.659l8.482-20.057z m-0.646 12.107h5.925l-2.954-7.341v-0.096l-2.97 7.437z m22.53-11.899v16.453h11.01v3.396h-15.34v-19.849h4.33z m36.179 9.228c2.326 0.638 4.143 2.238 4.143 4.78 0 3.185-2.546 5.423-5.516 5.738-0.632 0-2 0.103-4.115 0.103h-8.69V545.19h8.797c2.844 0 6.025 0 7.707 2.761 1.707 2.436 0.221 5.615-2.326 6.675z m-9.731-6.032v4.554h6.034c1.383-0.213 2.438-0.856 2.438-2.335 0-1.384-0.953-2.013-2.236-2.219h-6.236z m7.089 13.14c1.269-0.212 2.227-1.164 2.227-2.54 0-1.17-0.737-2.015-1.899-2.437-0.534-0.111-1.597-0.22-3.174-0.22h-4.243v5.314h4.243c1.49 0 2.426 0 2.846-0.116z m18.405-16.544h4.666l8.781 20.057h-4.866l-1.903-4.575h-8.687l-1.783 4.575h-4.661l8.453-20.057z m-0.625 12.107h5.918l-2.951-7.341v-0.096l-2.967 7.437z m31.31 1.26V545.19h4.132v20.057h-4.443l-8.773-13.057v13.057h-4.135V545.19h4.339l8.88 13.366z m21.487-5.52l8.676 12.21h-5.714l-6.042-9.434-3.475 3.38v6.054h-4.45V545.19h4.45v8.903l8.877-8.903h5.927l-8.25 7.848z m-423.948 3.384c2.225 1.191 3.497 2.882 4.877 4.895l2.739 3.93h-5.277l-3.178-4.353c-0.632-0.857-1.378-2.123-2.335-2.966-0.423-0.315-0.834-0.63-1.355-0.85-0.964-0.32-2.03-0.213-3.084-0.213v8.383h-4.446V545.19h9.315c2.33 0 4.017 0.208 5.083 0.514 2.105 0.746 3.48 2.89 3.48 5.11 0 3.492-2.64 5.194-5.819 5.607z m-3.174-2.753c1.375 0 2.335-0.102 2.76-0.204 1.065-0.316 1.687-1.274 1.687-2.337 0-1.369-0.944-2.218-2.212-2.438-0.332 0-1.057-0.095-2.235-0.095h-4.44v5.074h4.44z m50.575 2.753c2.232 1.191 3.497 2.882 4.863 4.895l2.647 3.93h-5.278l-3.187-4.353c-0.635-0.857-1.365-2.123-2.213-2.966-0.42-0.315-0.959-0.63-1.382-0.85-0.943-0.32-2.102-0.213-3.06-0.213v8.383h-4.447V545.19h9.198c2.34 0 4.027 0.208 5.09 0.514 2.212 0.746 3.489 2.89 3.489 5.11 0 3.492-2.542 5.194-5.72 5.607z m-3.168-2.753c1.374 0 2.324-0.102 2.738-0.204 1.068-0.316 1.703-1.274 1.703-2.337 0-1.369-0.945-2.218-2.32-2.438-0.222 0-0.959-0.095-2.121-0.095h-4.442v5.074h4.442z m73.95 8.483c2.652 0 4.225-1.793 4.864-4.224l4.234 1.163c-1.262 4.362-4.65 6.485-9.099 6.485-5.923 0-9.848-4.26-9.848-10.196 0-6.154 3.828-10.517 10.176-10.517 4.121 0 7.509 1.911 8.666 5.828l-4.334 0.972c-0.54-2.13-2.428-3.293-4.554-3.293-4.022 0-5.49 3.189-5.49 6.704 0 3.594 1.27 7.078 5.384 7.078z m24.236-17.289c6.236 0 10.568 4.047 10.568 10.402 0 6.365-4.332 10.311-10.568 10.311-6.249 0-10.584-3.84-10.584-10.196 0-6.257 4.122-10.517 10.584-10.517z m0 17.289c4.115 0 6.024-3.169 6.024-6.984 0-3.832-1.909-6.798-6.024-6.798-4.127 0-6.029 2.966-6.029 6.798 0 3.815 2.002 6.896 6.03 6.984z m103.887-5.73c2.213 1.191 3.483 2.882 4.874 4.895l2.635 3.93h-5.296l-3.16-4.353c-0.64-0.857-1.377-2.123-2.337-2.966-0.423-0.315-0.836-0.63-1.273-0.85-1.043-0.32-2.098-0.213-3.174-0.213v8.383h-4.33V545.19h9.215c2.316 0 4.008 0.208 5.06 0.514 2.242 0.746 3.495 2.89 3.495 5.11 0 3.492-2.645 5.194-5.709 5.607z m-3.284-2.753c1.482 0 2.338-0.102 2.754-0.204 1.166-0.316 1.692-1.274 1.692-2.337 0-1.369-0.946-2.218-2.217-2.438-0.31 0-1.053-0.095-2.23-0.095h-4.446v5.074h4.447z m24.025-5.299c-4.025 0-5.404 3.189-5.404 6.704 0 3.594 1.276 7.078 5.298 7.078 2.652 0 4.225-1.793 4.857-4.224l4.23 1.163c-1.259 4.362-4.536 6.485-8.98 6.485-6.037 0-9.949-4.26-9.949-10.196 0-6.154 3.912-10.517 10.17-10.517 4.115 0 7.5 1.911 8.758 5.828l-4.34 0.972c-0.52-2.13-2.422-3.293-4.64-3.293z m-508.164-3.507c6.237 0 10.572 4.047 10.572 10.402 0 6.366-4.335 10.311-10.572 10.311-6.241 0-10.582-3.84-10.582-10.196 0-6.257 4.028-10.517 10.48-10.517h0.102z m0 17.289c4.014 0 6.02-3.168 6.02-6.985 0-3.831-2.006-6.797-6.02-6.797-4.127 0-6.03 2.966-6.03 6.797 0 3.817 2.01 6.897 6.03 6.985z m27.159-3.594V545.19h4.137v20.057h-4.443l-8.782-13.057v13.057h-4.114v-20.057h4.328l8.874 13.367z m19.03-4.02h9.398v7.944c-2.316 2.128-6.234 3.094-9.306 3.094-6.238 0-10.988-3.84-10.988-10.409 0-6.366 4.642-10.304 10.779-10.304 4.14 0 8.254 1.508 9.201 5.951l-4.323 0.745c-0.652-2.245-2.756-3.19-4.878-3.19-4.126 0-6.335 2.638-6.335 6.58 0 4.035 1.998 7.203 6.233 7.203 1.798 0 3.694-0.731 5.18-1.793v-2.43h-4.961v-3.39z m-92.75 3.39v-3.39h9.402v7.944c-2.316 2.128-6.237 3.094-9.31 3.094-6.237 0-10.984-3.84-10.984-10.409 0-6.366 4.638-10.304 10.777-10.304 4.136 0 8.252 1.508 9.204 5.951l-4.325 0.745c-0.654-2.245-2.758-3.19-4.88-3.19-4.126 0-6.34 2.638-6.34 6.58 0 4.035 2.006 7.203 6.234 7.203 1.798 0 3.698-0.731 5.188-1.793v-2.43h-4.966z m-91.498 0v-3.39h9.403v7.944c-2.323 2.128-6.244 3.094-9.31 3.094-6.239 0-10.988-3.84-10.988-10.409 0-6.366 4.638-10.304 10.78-10.304 4.137 0 8.252 1.508 9.2 5.951l-4.324 0.745c-0.652-2.245-2.763-3.19-4.876-3.19-4.127 0-6.337 2.638-6.337 6.58 0 4.035 1.998 7.203 6.231 7.203 1.797 0 3.694-0.731 5.183-1.793v-2.43H212.211z m72.483 0.63V545.19h4.11v20.057h-4.43l-8.776-13.057v13.057h-4.12v-20.057h4.321l8.895 13.367z m-45.579-2.225v-11.142h4.44v10.512c0 6.361-1.483 9.873-8.457 9.873-6.981 0-8.884-3.094-8.884-9.66V545.19h4.338v10.818c0 3.501 0.532 6.143 4.45 6.143 3.785 0 4.113-2.52 4.113-5.819z m15.94-11.142h4.652l8.669 20.057h-4.747l-1.92-4.576h-8.664l-1.793 4.576h-4.652l8.454-20.057z m-0.64 12.107h5.928l-2.97-7.342-0.087-0.095-2.872 7.437z m72.116-12.16c6.036 0 10.234 3.93 10.234 10.07 0 6.117-4.126 9.896-10.073 9.978v0.062h-8.848v-20.057h8.687v-0.053z m0 16.756c3.882 0 5.825-3.068 5.825-6.773 0-3.71-1.943-6.58-5.825-6.58h-4.573v13.353h4.573z" fill="#1B1918"></path><path d="M144.88 564.808c13.685-16.679 18.893-35.947 18.893-56.911v-75.013c-12.906 10.935-25.283 25.787-25.283 43.626l0.13 11.73v30.856c0 10.549-2.602 19.665-8.076 29.168-17.725 31.002-57.599 40.257-90.05 30.616 0 0 0 0.126 0.126 0.126-0.127 0.26-0.388 0.385-0.648 0.52-0.263-0.396-0.526-0.52-0.912-0.646v1.949h0.128c0.258 0.122 0.52 0.122 0.784 0.122 0.26 0 1.042 0.398 1.042 0.398 0 0.265 0.26 0.39-0.13 0.39h-0.652c-0.523 0-0.653 0-1.172-0.39v1.823c34.277 20.311 79.362 13.55 105.82-18.364zM39.06 578.88c-0.783-0.14-1.564 0.386-2.608 0 0.39-0.14 0.912-0.14 0.912-0.527-0.26-0.522-0.779-0.384-1.433-0.91l-0.523-0.26c-0.39 0.14-0.39 0.648-0.52 0.91-1.172 0.124-1.435-1.036-2.475-1.174 0-0.772 0.65-0.26 0.913-0.52-0.522-0.252-1.043-0.39-1.568-0.652-0.13 0-0.13 0.136-0.13 0.136-0.519-0.263-1.039-0.395-1.3-0.788-1.047-0.52-2.085-0.911-3.13-1.429-0.52-0.27-0.648-0.393-0.648-0.27 0 0.14 0.781 0.929 1.042 1.44 0.39 0.26 0.78 0.652 1.172 1.047 0.26 0.126 0.392 0.264 0.65 0.517l0.393-0.13 0.912 0.787-1.174-0.657c2.996 2.48 6.256 4.688 9.515 6.772v-1.823c0-0.134-0.915-0.261-1.043-0.261-0.52-0.137-0.26-0.385-0.52-0.649l-0.264-0.264h0.131c0.263 0 0.781 0.13 1.044 0.264 0.13 0.129 0.52 0.264 0.652 0.39v-1.949z" fill="#007833"></path><path d="M93.586 534.558h-30.13c-3.003 0-5.485-2.465-5.485-5.58v-35.486c0-3.121 2.482-5.59 5.484-5.59h36.914c0-29.117 18.918-53.428 44.104-58.884H83.021c-25.178-0.52-49.317 10.524-65.365 29.9-18.654 22.487-25.307 60.827 3.914 83.577 21.917 16.892 53.104 13.116 72.016-7.937" fill="#8DBD10"></path><path d="M159.242 429c-27.786 2.604-49.56 27.493-49.948 57.975v25.139c0 43.109-52.682 59.673-85.681 40.247v4.684c0.26 0.137 0.523 0.269 0.783 0.519 0 0.265 0.392 0.4 0.392 0.788 0 0.264 1.041 0.91 0.65 1.044-0.13 0.132-0.39 0.256-0.522 0.132-0.128-0.132-0.128-0.788-0.52-0.788-0.133 0-0.392 0-0.783-0.124v5.736c3.26 2.347 6.65 4.428 10.433 5.998 30.911 13.02 73.81 6.116 91.81-25.28 4.952-8.465 7.426-17.845 7.426-27.739 0-13.686-0.126-27.491-0.255-41.304 0-19.014 12.395-35.049 26.215-47.027zM23.612 552.36c-3.649-2.088-7.042-4.82-10.17-7.818l-0.259-0.26c-0.133 0-0.263-0.122-0.393-0.122 0.13 0.26 0 0.123-0.131 0-1.045-0.265-1.954-0.79-2.738-1.439 0-0.124 0.13-0.124 0.13-0.265 0.13-0.649-0.522-1.56-0.786-2.08 0-0.128 0-0.392-0.127-0.52-0.258-0.256-0.782-0.52-0.913-0.903-0.13-0.265-0.393-0.793-0.652-0.919 0.13-0.135 0.13-0.256 0.13-0.515-2.868-4.436-5.344-9.518-6.908-15.245-0.656-1.432-0.784-0.78-0.784 0a54.945 54.945 0 0 0 1.955 8.985c0.132 0.14 0.393 0.265 0.523 0.78 4.304-0.252 0.39 4.566 3.782 5.602 0 0.52 0 0.908 0.522 1.167 0.26 0 0.519-0.26 0.519-0.38h0.132c0.129 0.12 0.26 0.525 0.26 0.772 0 0.4 0.128 0.918 0.128 1.312-1.173-1.438-2.346-2.734-4.042-3.527-0.128-0.38-0.39-0.646-0.65-1.03 0.522 1.564 1.173 3.119 1.828 4.557 0.648 0.78 1.431 1.424 2.476 1.823 2.607 5.594 9.388 7.032 12.125 11.724-1.565-0.393-2.478-0.265-3.39-1.833l0.786-0.131c0.126-0.12 0.39-0.383 0.126-0.643-0.126-0.268-0.39-0.389-0.78-0.268 0 0.651-1.435 0.139-1.435-0.12-2.479 0.388-4.17-1.825-5.738-2.736 3.782 6.117 8.737 11.716 14.475 16.024v-5.736c-0.39-0.264-0.912-0.652-0.912-1.052 0-0.52-1.435-0.644-0.784-1.164 0.132-0.131 0.654 0.392 0.91 0.392 0.265 0 0.526 0.128 0.786 0.253v-4.684z" fill="#007833"></path></svg>