<svg viewBox="0 0 1024 1024" version="1.1" xmlns="http://www.w3.org/2000/svg"><path d="M224 0h576c123.6 0 224 100.4 224 224v576c0 123.6-100.4 224-224 224H224c-123.6 0-224-100.4-224-224V224C0 100.4 100.4 0 224 0z" fill="#FFFFFF"></path><path d="M773.6 732c56.8-69.2 78.4-149.2 78.4-236.4V184c-53.6 45.6-104.8 107.2-104.8 181.2l0.4 48.8v128c0 43.6-10.8 81.6-33.6 121.2-73.6 128.8-239.2 167.2-374 127.2 0 0 0 0.4 0.4 0.4-0.4 1.2-1.6 1.6-2.8 2-1.2-1.6-2-2-3.6-2.8v8h0.4c1.2 0.4 2 0.4 3.2 0.4 1.2 0 4.4 1.6 4.4 1.6 0 1.2 1.2 1.6-0.4 1.6h-2.8c-2 0-2.8 0-4.8-1.6v7.6c142.4 84.8 329.6 56.8 439.6-75.6zM334 790.4c-3.2-0.4-6.4 1.6-10.8 0 1.6-0.4 3.6-0.4 3.6-2-1.2-2-3.2-1.6-6-3.6l-2-1.2c-1.6 0.4-1.6 2.8-2 3.6-4.8 0.4-6-4.4-10.4-4.8 0-3.2 2.8-1.2 3.6-2-2-1.2-4.4-1.6-6.4-2.8-0.4 0-0.4 0.4-0.4 0.4-2-1.2-4.4-1.6-5.2-3.2-4.4-2-8.8-3.6-13.2-6-2-1.2-2.8-1.6-2.8-1.2 0 0.4 3.2 4 4.4 6 1.6 1.2 3.2 2.8 4.8 4.4 1.2 0.4 1.6 1.2 2.8 2l1.6-0.4 3.6 3.2-4.8-2.8c12.4 10.4 26 19.6 39.6 28v-7.6c0-0.4-4-1.2-4.4-1.2-2-0.4-1.2-1.6-2-2.8l-1.2-1.2h0.4c1.2 0 3.2 0.4 4.4 1.2 0.4 0.4 2 1.2 2.8 1.6v-7.6z" fill="#007833"></path><path d="M560.4 606.4h-124.8c-12.4 0-22.8-10.4-22.8-23.2v-147.6c0-12.8 10.4-23.2 22.8-23.2h153.2c0-120.8 78.4-222 183.2-244.4h-255.2C412 166 312 211.6 245.2 292.4 168 385.6 140 544.8 261.6 639.2c90.8 70.4 220.4 54.4 298.8-32.8" fill="#8DBD10"></path><path d="M833.2 168c-115.2 10.8-205.6 114-207.6 240.8v104.4c0 179.2-218.8 247.6-355.6 167.2v19.6c1.2 0.4 2 1.2 3.2 2 0 1.2 1.6 1.6 1.6 3.2 0 1.2 4.4 3.6 2.8 4.4-0.4 0.4-1.6 1.2-2 0.4-0.4-0.4-0.4-3.2-2-3.2-0.4 0-1.6 0-3.2-0.4v24c13.6 9.6 27.6 18.4 43.2 24.8 128.4 54 306.4 25.2 381.2-104.8 20.4-35.2 30.8-74 30.8-115.2 0-56.8-0.4-114-1.2-171.6 0-79.2 51.2-146 108.8-195.6zM270 680.4c-15.2-8.8-29.2-20-42.4-32.4l-1.2-1.2c-0.4 0-1.2-0.4-1.6-0.4 0.4 1.2 0 0.4-0.4 0-4.4-1.2-8-3.2-11.2-6 0-0.4 0.4-0.4 0.4-1.2 0.4-2.8-2-6.4-3.2-8.8 0-0.4 0-1.6-0.4-2-1.2-1.2-3.2-2-3.6-3.6-0.4-1.2-1.6-3.2-2.8-4 0.4-0.8 0.4-1.2 0.4-2-12-18.4-22-39.6-28.8-63.2-2.8-6.4-3.2-3.6-3.2-0.4 1.6 12.4 4.4 24.8 8 37.2 0.4 0.4 1.6 1.2 2 3.2 18-1.2 1.6 18.8 15.6 23.2 0 2 0 3.6 2 4.8 1.2 0 2-1.2 2-1.6h0.4c0.4 0.4 1.2 2 1.2 3.2 0 1.6 0.4 4 0.4 5.6-4.8-6-9.6-11.2-16.8-14.8-0.4-1.6-1.6-2.8-2.8-4.4 2 6.4 4.8 12.8 7.6 18.8 2.8 3.2 6 6 10.4 7.6 10.8 23.2 38.8 29.2 50.4 48.8-6.4-1.6-10.4-1.2-14-7.6l3.2-0.4c0.4-0.4 1.6-1.6 0.4-2.8-0.4-1.2-1.6-1.6-3.2-1.2 0 2.8-6 0.4-6-0.4-10.4 1.6-17.2-7.6-24-11.2 15.6 25.2 36.4 48.8 60 66.4v-24c-1.6-1.2-3.6-2.8-3.6-4.4 0-2-6-2.8-3.2-4.8 0.4-0.4 2.8 1.6 3.6 1.6 1.2 0 2 0.4 3.2 1.2v-18.8z" fill="#007833"></path></svg>