<svg viewBox="0 0 1024 1024" version="1.1" xmlns="http://www.w3.org/2000/svg"><path d="M83.55603 520.163v-35.425l28.49-14.693v34.697l-28.49 15.42z m34.306-99.937s-84.049-24.43-112.469 61.177C1.69703 492.539-0.00697 503.47 0.00003 513.951c0.063 64.038 64.138 111.155 128.712 84.927 0 0 42.593-20.003 53.907-67.567 0 0-26.669 44.073-61.657 51.605 0 0-24 7.108-49.308 0.165l11.902-24.57v-18.586l28.49-15.411v14.408l11.453 12.545V518.32l12.846-6.953-12.846-7.721v-58.7l-67.595 34.896L69.31003 490.25l-0.227 37.734-17.368 9.402 17.26 8.624-0.218 36.218c-11.188-3.544-22.467-9.978-31.886-21.114-31.604-37.342-23.73-90.924 18.095-123.851 0 0 15.463-15.345 62.896-17.038zM228.00003 526.21v-9.68c4.525-0.213 8.257-1.63 11.189-4.267 1.929-1.719 3.325-3.629 4.191-5.7 0.898-2.211 1.343-5.363 1.343-9.433v-10.37H228.00003v-9.754h16.723V448.37H228.92003v-9.595h94.269v9.595h-14.603v28.636h15.272v9.754h-15.272v39.45h-9.738v-39.45h-44.546v9.328c0 5.608-0.564 10.033-1.713 13.27-1.485 4.233-4.243 7.966-8.273 11.207-4.597 3.663-10.04 5.557-16.316 5.645z m26.302-49.204h44.546V448.37h-44.546v28.636z m89.906 49.716v-9.592h18.842v-15.345h-17.87v-9.592h17.87v-9.116h9.58v9.116h17.872v9.592H372.63003v15.345h19.004v9.592h-47.426z m0-47.699v-9.591h18.842v-13.7h-17.87v-9.592h17.87l-0.107-8.09 9.687-0.05v8.14h17.872v9.592H372.63003v13.7h19.004v9.591h-47.426z m50.377-23.132v-9.592h31.535v-8.086h9.583v8.086h4.398v9.592h-4.398v56.054c0 3.485-0.672 6.351-2.018 8.6-2.316 3.877-5.778 5.824-10.41 5.86l-14.248 0.107v-9.54l11.347 0.104c2.139 0 3.627-0.584 4.455-1.77 0.866-1.274 1.291-3.113 1.291-5.537V455.89h-31.535z m4.56 33.506v-9.595h19.623v9.595h-19.623z m61.94-33.716v-9.541h43.181v-7.927h9.796v7.927h43.006v9.54h-95.982z m2.74 68.652v-42.104c0-4.248 1.237-7.523 3.73-9.843 1.768-1.626 3.993-2.776 6.734-3.47 0.901-0.244 1.679-0.368 2.333-0.368h27.644v-8.921h9.742v8.921h25.719c5.429 0 9.44 1.697 12.073 5.077 1.787 2.285 2.688 5.31 2.688 9.08v28.106c0 4.654-1.466 8.232-4.401 10.672-2.545 2.106-5.48 3.168-8.802 3.168h-8.54v-9.805l7.09 0.054c1.199 0 2.402-0.53 3.57-1.611 1.043-0.918 1.554-2.3 1.554-4.089v-24.318c0-2.316-0.546-4.054-1.66-5.185-0.99-1.042-2.192-1.557-3.572-1.557h-25.72v48.175h-9.74V478.14l-23.612-0.054c-2.974-0.035-5.093 0.814-6.366 2.548-0.495 0.655-0.777 1.293-0.885 1.913V524.332h-9.58z m114.544-69.891v-9.754h42.724v-6.176h9.58v6.176h42.778v9.754h-95.082z m1.184 71.908l-0.054-48.582c0-4.143 1.346-7.38 3.995-9.7 0.797-0.689 1.768-1.293 2.9-1.804 1.273-0.585 2.193-0.848 2.742-0.778h0.105l0.723 0.05v-8.298h9.53v8.298h51.738v-8.298h9.723v8.298c3.074 0.108 5.569 1.03 7.46 2.745 2.703 2.495 4.046 5.754 4.046 9.805v32.922c0 4.14-0.654 7.218-1.962 9.22-1.59 2.351-3.604 4.054-6.01 5.08-1.59 0.69-3.925 1.042-7 1.042h-1.183v-6.068c-1.485 0.724-2.773 1.096-3.89 1.096h-52.253c-4.278 0-6.416-2.16-6.416-6.478v-14.513c0-2.355 0.565-4.105 1.716-5.24 1.095-1.115 2.967-1.661 5.585-1.661h51.368c1.875 0 3.395 0.581 4.613 1.766 1.025 0.96 1.555 2.587 1.555 4.868l0.054 16.534c2.723-0.887 4.084-2.8 4.084-5.7v-25.77c0-4.763-0.247-7.524-0.723-8.283-0.762-1.258-2.107-1.859-4.05-1.824l-9.668 0.054c0.159 0.407 0.298 0.725 0.406 0.938 1.184 2.939 2.491 4.921 3.941 5.963 1.133 0.852 2.881 1.487 5.233 1.859v8.356c-5.182-0.426-9.406-2.072-12.639-4.94-2.104-1.86-3.801-4.303-5.074-7.308-0.425-0.957-1.025-2.583-1.818-4.868h-25.316c-1.73 5.91-4.242 10.212-7.565 12.9-2.58 2.125-6.52 3.526-11.807 4.216v-8.356c2.351-0.372 4.046-0.957 5.074-1.716 1.872-1.379 3.338-3.736 4.401-7.044h-9.05c-1.875 0-3.129 0.353-3.785 1.043-0.759 0.816-1.146 2.265-1.146 4.355l-0.054 45.821h-9.529z m25.541-13.22h41.366c1.732 0 2.776-0.194 3.163-0.565 0.267-0.213 0.406-0.922 0.406-2.126v-5.398c0-1.344-0.193-2.211-0.618-2.583-0.476-0.46-1.501-0.673-3.06-0.673l-40.794-0.054c-1.342 0-2.262 0.177-2.741 0.568-0.387 0.299-0.584 0.938-0.584 1.859v6.742c0 0.975 0.197 1.576 0.584 1.823 0.336 0.264 1.094 0.407 2.278 0.407z m89.57 13.135v-9.754h29.256v-78.085h9.738v78.085h17.234v-78.085h9.742v78.085h29.412v9.754h-95.383z m0-87.84h9.934l3.412 39.308c0.495 5.875 1.466 10.285 2.916 13.22 1.098 2.32 2.44 3.963 4.03 4.973 0.831 0.515 2.069 0.975 3.731 1.347v10.107c-5.8-1.205-10.182-3.276-13.152-6.215-2.634-2.637-4.49-6.195-5.604-10.691-0.689-2.761-1.168-5.732-1.447-8.918l-3.82-43.13z m71.307 68.812v-9.646c3.376-0.973 5.921-2.885 7.6-5.77 1.558-2.656 2.598-6.866 3.113-12.636l3.515-40.76h9.9l-3.57 40.494c-0.478 5.521-1.097 9.537-1.82 12.035-1.714 5.804-4.418 9.91-8.08 12.337-2.103 1.378-5.654 2.687-10.658 3.946z m44.935-9.7v-9.592h10.411v-12.388h-10.41v-9.592h33.971v9.592h-13.98v12.388h13.98v9.592h-13.98v15.752c0 1.998 0.812 3.009 2.44 3.009h11.54v9.592h-14.387c-2.634 0-4.81-0.814-6.54-2.444-1.751-1.607-2.634-4.05-2.634-7.307v-18.602h-10.41z m0-34.797v-9.591c1.184-0.283 2.12-0.728 2.847-1.344 1.342-1.185 2.475-3.47 3.376-6.904a274.58 274.58 0 0 1 1.748-6.266h10.253l-1.536 5.592h17.284v9.541h-20.095c-1.647 3.079-3.643 5.293-5.96 6.637-2.208 1.363-4.842 2.142-7.917 2.335z m71.68 23.699l3.832 7.206h19.693v9.592h-14.654c3.13 6.176 5.747 10.036 7.813 11.558 1.926 1.417 4.296 2.103 7.089 2.071v9.646c-5.446-0.371-9.634-1.719-12.531-4.003-3.45-2.758-6.382-6.459-8.806-11.079l-12.886-24.991h-9.897v24.991c0 2.517 0.282 4.035 0.831 4.55 0.654 0.581 1.45 0.886 2.386 0.886h10.605v9.646h-14.6c-2.351 0-4.42-0.87-6.222-2.586-1.717-1.665-2.583-4.124-2.583-7.365V447.91c0-2.936 0.866-5.294 2.583-7.044 1.697-1.7 3.763-2.548 6.222-2.548h35.581c3.043 0 5.43 0.883 7.143 2.637 1.625 1.661 2.44 3.752 2.44 6.284v28.105c0 3.362-0.425 5.681-1.291 7.006-1.803 2.726-4.224 4.089-7.248 4.089h-15.5z m-20.347-9.592h30.297c1.803 0 2.967-0.283 3.52-0.832 0.65-0.655 0.986-1.786 0.986-3.416v-5.804H862.24003v10.052z m0-19.806h34.803v-5.236c0-2.602-1.06-3.895-3.16-3.895h-27.56c-1.608 0-2.703 0.282-3.252 0.832-0.549 0.55-0.831 1.576-0.831 3.063v5.236z m65.596 31.825v-10.462c4.242-1.042 7.568-2.815 9.954-5.29 2.316-2.427 4.347-6.478 6.096-12.143h10.627c-1.593 6.265-4.03 11.771-7.302 16.55l-0.054 2.335v46.354h-9.58V485.77c-2.246 1.13-5.499 2.176-9.741 3.097z m0-22.92v-10.478c4.35-0.763 7.885-2.761 10.627-6.002 1.713-2.122 3.64-5.91 5.743-11.415h10.307c-1.346 4.46-2.51 7.79-3.466 9.967-2.386 5.556-5.886 9.91-10.519 13.06-2.97 2.034-7.193 3.664-12.692 4.868z m34.965 9.185v-9.595h60.738v9.595h-10.713v36.087c0 2.389-0.194 4.143-0.565 5.293-0.97 2.904-2.494 5.169-4.56 6.796-2.173 1.715-4.366 2.583-6.575 2.583H978.39003v-9.592h18.172c1.84 0 3.024-0.16 3.573-0.46 2.066-1.22 3.11-3.115 3.11-5.717v-34.99H962.80003z m0.78-26.707v-9.595h59.96v9.595h-59.96zM261.11403 558.812l-4.238 4.003c-2.913-3.026-6.169-4.536-9.766-4.536-3.053 0-5.617 1.031-7.71 3.093-2.085 2.065-3.125 4.602-3.125 7.629 0 2.109 0.457 3.987 1.376 5.62 0.923 1.64 2.238 2.912 3.937 3.835 1.702 0.92 3.572 1.386 5.604 1.386 1.788 0 3.405-0.323 4.86-0.97 1.454-0.647 3.065-1.821 4.824-3.528l4.076 4.245c-2.336 2.287-4.555 3.863-6.66 4.742-2.095 0.878-4.491 1.322-7.182 1.322-4.917 0-8.958-1.554-12.137-4.656-3.17-3.112-4.755-7.121-4.755-12.038 0-3.14 0.72-5.931 2.162-8.396 1.439-2.455 3.5-4.431 6.178-5.916a17.595 17.595 0 0 1 8.634-2.223c2.637 0 5.176 0.549 7.62 1.646a17.862 17.862 0 0 1 6.302 4.742z m24.607-6.388c4.536 0 8.422 1.627 11.665 4.862 3.233 3.242 4.859 7.191 4.859 11.835 0 4.64-1.604 8.561-4.802 11.749-3.199 3.185-7.088 4.783-11.681 4.783-4.777 0-8.758-1.646-11.944-4.926-3.185-3.283-4.78-7.181-4.78-11.692 0-3.02 0.751-5.804 2.248-8.345a16.613 16.613 0 0 1 6.098-6.043 16.425 16.425 0 0 1 8.337-2.223z m-0.041 5.938c-2.961 0-5.456 1.021-7.475 3.067-2.019 2.05-3.03 4.65-3.03 7.819 0 3.514 1.265 6.3 3.791 8.364 1.981 1.624 4.244 2.433 6.796 2.433 2.884 0 5.344-1.046 7.38-3.13 2.031-2.09 3.048-4.666 3.048-7.711 0-3.055-1.027-5.621-3.071-7.712-2.048-2.087-4.523-3.13-7.44-3.13z m28.524-5.938h5.728l7.132 23.21 7.246-23.21h5.649l5.185 33.27H339.50003l-3.331-20.985-6.552 20.986h-5.157l-6.46-20.986-3.383 20.986h-5.721l5.31-33.271z m42.076 0h5.734l7.129 23.21 7.25-23.21h5.644l5.19 33.27h-5.65l-3.33-20.985-6.553 20.986h-5.154l-6.46-20.986-3.385 20.986h-5.721l5.306-33.271z m38.868 0h16.812v6.185H401.00003v5.98h10.961v6.14H401.00003v8.739h10.961v6.185h-16.812v-33.23z m25.599 0h6.672c3.683 0 6.308 0.323 7.874 0.97 1.562 0.648 2.82 1.73 3.772 3.258 0.948 1.52 1.417 3.327 1.417 5.418 0 2.201-0.527 4.025-1.588 5.48-1.056 1.463-2.628 2.577-4.717 3.344l7.832 14.76h-6.925l-7.411-14.1h-0.577v14.1h-6.35v-33.23z m6.349 12.989h1.933c2.032 0 3.424-0.27 4.184-0.802 0.752-0.543 1.132-1.415 1.132-2.627 0-0.71-0.19-1.335-0.577-1.868a3.228 3.228 0 0 0-1.502-1.158c-0.622-0.228-1.766-0.349-3.44-0.349h-1.73v6.804z m53.569-6.6l-4.241 4.002c-2.91-3.026-6.166-4.536-9.766-4.536-3.05 0-5.617 1.031-7.703 3.093-2.092 2.065-3.132 4.602-3.132 7.629 0 2.109 0.457 3.987 1.38 5.62 0.922 1.64 2.234 2.912 3.936 3.835 1.702 0.92 3.572 1.386 5.604 1.386 1.788 0 3.401-0.323 4.86-0.97 1.454-0.647 3.065-1.821 4.82-3.528l4.08 4.245c-2.336 2.287-4.558 3.863-6.66 4.742-2.095 0.878-4.491 1.322-7.185 1.322-4.914 0-8.955-1.554-12.134-4.656-3.17-3.112-4.752-7.121-4.752-12.038 0-3.14 0.717-5.931 2.156-8.396 1.442-2.455 3.502-4.431 6.18-5.916a17.586 17.586 0 0 1 8.635-2.223c2.637 0 5.173 0.549 7.62 1.646a17.862 17.862 0 0 1 6.302 4.742z m9.405 26.84v-33.23h5.772v33.23h-5.772z m27.33-33.23h5.892l11.7 33.23h-6.02l-2.384-6.845h-12.403l-2.517 6.845h-6.01l11.741-33.23z m2.966 8.822l-4.035 11.378h8.074l-4.039-11.378z m23.533-8.821h5.772v27.206h8.403v6.023h-14.175v-33.23z m49.147 33.27h-8.809v-33.27h4.942c2.853 0 4.941 0.187 6.257 0.577 1.927 0.52 3.44 1.497 4.533 2.928 1.1 1.427 1.648 3.115 1.648 5.072 0 1.265-0.247 2.414-0.739 3.438-0.5 1.034-1.325 2.014-2.475 2.95 1.927 0.936 3.325 2.116 4.203 3.546 0.881 1.428 1.315 3.115 1.315 5.072 0 1.866-0.45 3.56-1.356 5.085-0.907 1.529-2.086 2.674-3.544 3.448-1.452 0.77-3.442 1.155-5.975 1.155z m-1.23-27.247h-1.569v7.049h1.322c1.426 0 2.498-0.33 3.214-0.993 0.71-0.66 1.068-1.539 1.068-2.64 0-1.046-0.345-1.874-1.033-2.496-0.682-0.612-1.687-0.92-3.002-0.92z m-0.33 12.691h-1.239v8.492h1.483c2.473 0 4.134-0.324 4.983-0.964 0.856-0.648 1.28-1.602 1.28-2.871 0-1.456-0.497-2.595-1.48-3.42-0.991-0.821-2.665-1.237-5.027-1.237z m32.684-18.714h5.893l11.7 33.23h-6.02l-2.38-6.846h-12.407l-2.517 6.845h-6.01l11.74-33.23z m2.967 8.821l-4.035 11.378h8.073l-4.038-11.378z m23.33-8.821h5.73l13.548 21.89v-21.89h6.06v33.23h-5.772l-13.547-21.77v21.77h-6.02v-33.23z m34.458 0h6.384v11.419l8.977-11.42h7.664l-11.614 14.84 12.724 18.432h-7.494l-10.257-14.76v14.76h-6.384v-33.271z m65.044 0c4.532 0 8.422 1.627 11.661 4.862 3.237 3.242 4.86 7.191 4.86 11.835 0 4.64-1.604 8.561-4.803 11.749-3.198 3.185-7.087 4.783-11.677 4.783-4.78 0-8.761-1.646-11.947-4.926-3.186-3.283-4.78-7.181-4.78-11.692 0-3.02 0.751-5.804 2.25-8.345 1.49-2.538 3.528-4.558 6.096-6.043 2.564-1.478 5.35-2.223 8.34-2.223z m-0.045 5.938c-2.96 0-5.455 1.021-7.47 3.067-2.02 2.05-3.034 4.65-3.034 7.819 0 3.514 1.264 6.3 3.79 8.364 1.982 1.624 4.248 2.433 6.8 2.433 2.881 0 5.34-1.046 7.373-3.13 2.035-2.09 3.052-4.666 3.052-7.711 0-3.055-1.027-5.621-3.071-7.712-2.045-2.087-4.52-3.13-7.44-3.13z m25.396-5.938h16.065v6.185h-9.97v6.014h9.97v6.065h-9.97v14.965h-6.095v-33.23z m42.681 0h6.378v11.419l8.969-11.42h7.657l-11.603 14.84 12.711 18.432h-7.486l-10.248-14.76v14.76h-6.378v-33.271z m43.268 0h5.884l11.691 33.23h-6.013l-2.382-6.846h-12.391l-2.515 6.845h-6.007l11.733-33.23z m2.964 8.821l-4.031 11.378h8.062l-4.031-11.378z m24.168 24.408v-33.23h5.767v33.23h-5.767z m16.395-33.23h16.052v6.186h-9.96v6.014h9.96v6.065h-9.96v14.965h-6.092v-33.23z m25.78 0h16.797v6.186h-10.954v5.98h10.954v6.14h-10.954v8.739h10.954v6.185h-16.797v-33.23z m25.904 0h5.726l13.534 21.89v-21.89h6.055v33.23h-5.766l-13.535-21.769v21.77h-6.014v-33.23z m64.095 5.98l-4.237 4.158c-2.66-2.826-5.78-4.24-9.339-4.24-3.106 0-5.712 1.027-7.828 3.089-2.106 2.059-3.167 4.577-3.167 7.55 0 3.044 1.09 5.626 3.275 7.745 2.175 2.116 4.86 3.172 8.04 3.172 2.087 0 3.845-0.434 5.27-1.316 1.431-0.879 2.571-2.236 3.42-4.08h-9.095v-5.649h15.846l0.041 1.32c0 2.772-0.715 5.399-2.14 7.876-1.428 2.468-3.275 4.361-5.536 5.662-2.26 1.31-4.93 1.963-8.008 1.963-3.265 0-6.188-0.71-8.766-2.125-2.578-1.415-4.608-3.438-6.09-6.077-1.482-2.64-2.22-5.504-2.22-8.577 0-4.21 1.368-7.845 4.11-10.928 3.266-3.68 7.535-5.522 12.804-5.522 2.74 0 5.31 0.507 7.692 1.526 2.03 0.853 4.01 2.337 5.928 4.453z" fill="#003A81"></path></svg>