<svg viewBox="0 0 1024 1024" version="1.1" xmlns="http://www.w3.org/2000/svg"><path d="M224 0h576c123.6 0 224 100.4 224 224v576c0 123.6-100.4 224-224 224H224c-123.6 0-224-100.4-224-224V224C0 100.4 100.4 0 224 0z" fill="#FFFFFF"></path><path d="M484 544v-124.4L584 368v122L484 544z m119.6-352.8s-296.4-85.6-396.8 214.8c-13.2 39.2-19.2 77.6-19.2 114 0.4 224.8 226 390 454 298 0 0 150.4-70 190-237.2 0 0-94 154.8-217.6 181.2 0 0-84.8 24.8-174 0.4l42-86v-65.2l100.4-54v50.4l40.4 44v-116.4l45.2-24.4-45.2-27.2V278l-238.4 122.4 47.2 36.4-0.8 132.4-61.2 32.8 60.8 30.4-0.8 127.2c-39.6-12.4-79.2-35.2-112.4-74-111.6-131.2-83.6-318.8 64-434.4 0.8 0 55.2-54 222.4-60z" fill="#003A81"></path></svg>