<svg viewBox="0 0 1024 1024" version="1.1" xmlns="http://www.w3.org/2000/svg"><path d="M311.53754 520.8c-3.3 0.1-5.9 0.2-7.8 0.3V514c1.9 0.1 4.5 0.2 7.8 0.3-0.1-12.7-0.3-20.4-0.6-23l11.2 0.5c-0.2 1.9-0.4 6.5-0.5 13.9 3.2-1.2 6.2-2.5 9-4 3.1-1.6 7-4.1 11.8-7.6l7.2 5.2c-5.3 3.1-9.5 5.6-12.8 7.3-3.3 1.7-6.7 3.5-10.2 5.4-1.5-1.9-3.2-3.7-5.1-5.4 0 2.3-0.1 4.9-0.1 7.8h5.2c11 0 19.1-0.2 24.3-0.5v7.1c-3.4-0.2-8-0.3-13.7-0.4 0.9 4.5 1.8 7.7 2.9 9.6 1.1 2 2.6 3.9 4.4 5.7 1.9 1.7 5 3.5 9.4 5.4-2.9 2.5-5.2 4.9-6.9 7.1-4.8-3.1-8.2-5.7-10.2-7.6-2-1.9-3.5-3.7-4.6-5.4-1.1-1.7-2-3.8-2.6-6.1-0.6-2.3-1.2-5.2-1.6-8.7h-6.6V536c2.2-1.1 4.4-2.3 6.6-3.6 0.9 1.9 2 3.9 3.3 6.1-6.6 3.8-12.5 7.4-17.7 10.8-2-2.2-4-4.6-5.9-7.1 1.3-0.5 2.6-1.1 3.9-1.6 0-7.4 0-14-0.1-19.8zM295.83754 547c-1.3 0.5-3.2 1-5.6 1.4-2.4 0.4-6 0.8-10.9 1.1-0.9-3.1-1.5-5.7-2-7.8 4.4 0.2 7.1 0.2 8.2 0 1.1-0.2 2-0.4 2.8-0.6 0.8-0.2 1.4-0.6 1.8-0.9 0.4-0.4 0.8-0.9 1-1.5 0.2-0.6 0.4-1.4 0.5-2.4 0.1-0.9 0.2-3.9 0.2-9-7.4 0-14 0.2-19.7 0.5 0.9-2.8 1.4-4.9 1.6-6.1 0.2-1.2 0.6-6.1 1-14.6 5.7 0.3 11.4 0.5 17.1 0.5v-8.5c-7 0-13.4 0.2-19.1 0.5v-7.1c5.7 0.3 10.6 0.5 14.8 0.5s9.1-0.2 14.8-0.5c-0.4 4.1-0.7 7.7-0.7 10.8 0 3.2 0.2 6.8 0.7 10.9-5.7-0.3-11.8-0.5-18.4-0.5l-0.7 7.6c6.6 0 12.9-0.2 19.1-0.5-0.4 4.1-0.7 7.7-0.7 10.9 0 3.1-0.1 5.5-0.3 6.9-0.2 1.5-0.5 2.7-0.8 3.7-0.3 0.9-0.9 1.9-1.7 2.7-0.6 0.7-1.7 1.4-3 2z m99.4-12.3c-5.7 2.4-10.4 4.2-14.4 5.5-4.3 1.4-11.3 3.4-20.9 5.9-1.3-2-3-4.2-5.2-6.6 8.7-1.6 14.9-2.8 18.4-3.8 3.5-0.9 6.9-2 10.1-3.2 2.8-1 6.1-2.5 10-4.6 0-0.1-0.1-0.2-0.1-0.2-0.3-0.5-0.6-1.1-1.1-1.6-4.2 1.9-7.3 3.1-9.1 3.9-2.2 0.9-5.1 1.8-8.8 2.8-3.7 1-7.3 2-10.8 2.9-1.1-1.9-2.6-3.9-4.6-6.1 4.8-0.6 8.7-1.3 11.8-2.1 3.1-0.8 6-1.6 8.8-2.6 2.2-0.7 4.8-1.8 8-3.3-0.5-0.4-1.1-0.8-1.6-1.3-1.6 0.5-3.2 0.9-4.7 1.3-3.5 0.9-8.5 2-15 3.3-1.5-2.2-3.3-4.4-5.2-6.6 9.2-0.9 15.3-1.7 18.3-2.3 2.3-0.5 6.2-1.6 11.7-3.3-9.4 0-16.1 0.2-20.2 0.5v-7c4.8 0.3 13.2 0.5 25.2 0.5s20.4-0.2 25.2-0.5v7c-4.2-0.3-11.2-0.4-20.9-0.5 1.1 0.6 2.2 1.2 3.3 1.9-2.7 1.1-5.8 2.2-9.3 3.3 1.2 0.7 2.2 1.3 3.1 1.9 1.5 0.9 2.9 2.1 4.2 3.6 4.9-2.4 10.4-5.3 16.5-8.8l7.8 4.7c-2.6 1.3-5.8 2.8-9.4 4.4 1.1 3.1 2.1 5.2 2.9 6.4 0.9 1.3 2.5 2.8 4.9 4.7 2.4 1.9 6.7 4 12.8 6.3-2.6 2.3-5 4.6-7.2 6.8-5.7-3.1-9.8-5.8-12.4-8-2.6-2.2-4.6-4.2-5.9-6.1-1.1-1.6-2.2-3.8-3.3-6.7-1.3 0.5-2.5 0.9-3.8 1.3 0.4 1.3 0.7 2.5 0.9 3.7 0.2 1.4 0.3 2.5 0.3 3.3 0 0.8-0.1 1.8-0.2 3.2-0.1 1.3-0.4 2.7-1 4-0.5 1.3-1.4 2.4-2.5 3.2-1.1 0.8-2.5 1.4-4.2 1.9-1.7 0.5-5 0.9-9.8 1.2-0.6-2.2-1.7-4.7-3.2-7.5 3 0.3 5.1 0.4 6.2 0.2 1.1-0.2 2-0.4 2.6-0.7 0.7-0.3 1.1-0.6 1.3-0.9 0.2-0.3 0.5-0.8 0.7-1.4 0.2-0.6 0.3-1.5 0.3-2.6-0.5-0.5-0.5-0.9-0.5-1.3z m5.5-38.4c18.1 0 29.3-0.2 33.8-0.5-0.4 4.1-0.7 6.7-0.7 7.8 0 1.1 0.2 3.2 0.7 6.3h-11.1v-7.5h-55.6v7.5h-11.1c0.4-3.7 0.6-6.1 0.6-7 0-0.9-0.2-3.3-0.6-7 4.8 0.3 16.1 0.4 33.9 0.5-1.3-0.9-3-2-5.1-3.3l9.2-2.8 7.8 4.7-1.8 1.3z m70.5 20.6c-6.8 0.1-11.7 0.2-14.9 0.4v-6.6c3.3 0.2 8.5 0.3 15.8 0.4v-6c-4.9 0.1-8.6 0.2-11.1 0.4v-6.6c2.5 0.2 6.2 0.3 11 0.4-0.1-3.3-0.3-5.8-0.5-7.5l9.9 0.5c-0.2 1.5-0.4 3.8-0.5 7.1h10.8c-0.1-3.5-0.3-6.2-0.5-8l9.9 0.5c-0.2 1.7-0.4 4.2-0.5 7.5 6.4-0.1 11.2-0.2 14.3-0.4v6.6c-3.1-0.2-7.9-0.3-14.4-0.4v6c8.6-0.1 14.7-0.2 18.4-0.4v6.6c-3.1-0.2-7.9-0.3-14.4-0.4 1.4 1.1 2.8 2.1 4.2 3 2.4 1.4 6.2 3.1 11.5 5-1.7 1.6-3.7 3.6-5.9 6.1-5.3-2.5-9.1-4.6-11.5-6.4-0.3-0.2-0.6-0.5-1-0.8 0 6.3 0.3 11 0.7 14.2-4.8-0.3-13.1-0.5-25-0.5v3.3c0.5 0.6 0.9 1 1.3 1.2 0.4 0.2 1.3 0.4 2.6 0.7h20.3c2.2-0.3 3.5-0.5 3.9-0.7 0.5-0.2 0.9-0.4 1.3-0.7 0.4-0.3 0.8-0.6 1-0.9 0.3-0.3 0.5-0.8 0.7-1.4 0.2-0.6 0.5-1.7 1-3.3 3.1 1.3 5.9 2.4 8.5 3.3-1.3 2.5-2.2 4.2-2.6 5-0.4 0.8-0.9 1.4-1.3 1.9s-1.2 1-2.3 1.7c-1.1 0.6-3 1.1-5.6 1.4h-29.6c-2.6-0.3-4.3-0.6-4.9-0.7-0.7-0.2-1.2-0.4-1.6-0.7-0.4-0.3-0.9-0.9-1.3-1.9v-19.9c-2.6 1.4-5.7 3-9.2 4.6-2.2-2.2-4.1-4.1-5.9-5.7 5.3-1.6 9.3-3.1 12.2-4.7 1.7-0.9 3.5-2 5.2-3.2z m11.6 0c-2.4 1.9-4.9 3.6-7.4 5.2h24.1c-1.5-1.4-3.1-3.1-5-5.2h-11.7z m9-5.7v-6.1h-11.1v6.1H491.83754z m-50.6-13.7l5.9-5.7 13.5 6.8-5.2 6.1c-5.1-2.6-9.8-5-14.2-7.2z m14.5 31.2c-1.3 3.8-2.7 7.4-4.3 10.9-1.5 3.5-3.2 6.8-4.9 9.9-3.1-2.5-5.9-4.6-8.5-6.1 2.6-3.1 4.5-5.7 5.6-7.8 1.1-2.1 2.5-5.9 4.3-11.6 2.5 1.5 5.1 3.1 7.8 4.7zM443.23754 507l11.8 6.6-4.9 6.1c-2.2-1.3-4.2-2.4-5.9-3.3-1.8-0.9-3.9-2-6.6-3.3l5.6-6.1z m34.1 25.4h16.4v-4.7h-16.4v4.7z m69.2-5.4c-1.8 1.2-3.6 2.4-5.6 3.6-3.7 2.2-7.7 4.4-12.1 6.6-1.7-2.2-3.7-4.4-5.9-6.6 8.7-3.8 14.7-6.9 18-9.4 3.3-2.5 6.1-5.1 8.5-7.7 2.4-2.7 4.2-5.4 5.6-8.2 0.2-0.5 0.4-1 0.6-1.4H538.03754v8.5h-10.5c0.4-3.5 0.7-6 0.7-7.7 0-1.7-0.2-4.3-0.7-7.7 4.3 0.3 14.4 0.4 30.4 0.5 0.3-1.7 0.7-4 1-7l11.2 1.4c-0.5 1.9-1 3.8-1.6 5.6 16.7 0 27.3-0.2 31.7-0.5-0.4 3.4-0.7 6-0.7 7.7 0 1.7 0.2 4.3 0.7 7.7h-10.5v-8.5h-23.5c-0.8 2-1.5 3.6-2.1 4.7-0.9 1.6-2.5 3.8-4.9 6.8-0.9 1.2-1.9 2.3-3 3.4v18c4.4-2.2 8.5-4.4 12.5-6.6 0.9 1.9 1.9 3.9 3.3 6.1-7.9 4.7-15.6 8.9-23.3 12.7-2.2-2-4.6-4.1-7.2-6.3 2.8-1.1 4.5-2 4.9-2.6V527z m28.2 6c-2.6-2.6-4.5-5.2-5.8-7.9-1.2-2.7-2.2-5.4-2.9-8.2-0.8-2.8-1.4-5.6-1.8-8.4h9.8c0.4 2.8 0.8 4.9 1.1 6.3 0.3 1.4 1 3.5 2.1 6.3 4.4-2.2 8.3-4.4 11.8-6.6l7.9 5.2c-4.8 2.2-10 4.5-15.7 7 2.2 2.7 4.9 4.7 8.2 6.2 3.3 1.5 8.4 3 15.4 4.6-2.6 3.1-4.6 5.8-5.9 8-7.7-2.7-13-4.8-15.9-6.3-2.9-1.5-5.7-3.6-8.3-6.2z m46.3-20.9v-1.2c-5 0.1-9.4 0.2-13.2 0.5v-7.6c3.8 0.2 8.1 0.4 13.1 0.5-0.1-6.3-0.3-10.6-0.5-12.8l11.2 0.5c-0.3 2-0.4 6.1-0.5 12.3 4.2-0.1 7.7-0.2 10.4-0.4v7.6c-2.8-0.2-6.3-0.4-10.5-0.4v7.2l5.9-2.5 8.6 10-7.9 5.2c-0.9-1.9-2.1-3.9-3.6-5.9-0.9-1.3-1.9-2.5-3-3.7 0 15.1 0.2 24.5 0.6 28.2h-11.2c0.4-3.2 0.6-10.5 0.6-22-3.8 4.5-7.1 7.8-9.9 10.1-1.8-2.9-3.3-5.2-4.6-7.1 4.8-4.4 8-7.6 9.4-9.5 1.2-1.8 2.9-4.7 5.1-9z m46.8-2.2h-1.2c-9.2 0-16.5 0.2-21.8 0.5v-7.1c5.3 0.3 12.5 0.5 21.8 0.5h1.1c-0.1-6.6-0.3-10.7-0.5-12.4l11.2 0.5c-0.2 1.5-0.3 5.4-0.4 11.8 4-0.1 7.5-0.2 10.4-0.4v7.1c-2.9-0.2-6.4-0.3-10.4-0.4-0.1 8.6-0.1 20.1-0.1 34.6-0.7 1.3-1.3 2.1-1.8 2.5-0.5 0.4-1.2 0.7-2.1 1-0.9 0.2-1.8 0.4-2.6 0.6-0.9 0.2-2.1 0.3-3.6 0.5s-3.8 0.2-6.9 0.2c-0.9-2.5-2.2-5.1-4-7.6 6.2 0 9.4-0.1 9.9-0.2 0.4-0.2 0.9-0.6 1.3-1.2-0.2-12.5-0.3-22.7-0.3-30.5z m-21 8.6l9.2-2.4c2.2 4.1 4.6 8.7 7.3 13.8l-9.9 2.9c-0.5-1.9-1.3-4.2-2.6-6.9-1.4-2.7-2.7-5.2-4-7.4z m65.6-15.1c-10.9 0.1-17.9 0.2-21.2 0.4v-7c4.8 0.3 16.6 0.5 35.5 0.5l-4.6-5.2 10.5-1.9 5.9 5.2-3.3 1.9c18.8 0 30.7-0.2 35.5-0.5v7c-3.3-0.2-10.5-0.4-21.6-0.4l2.5 1.4-4.9 5.1c10-0.1 16.7-0.2 20-0.4-0.5 3.5-0.7 15-0.7 34.7-0.4 0.9-1 1.6-1.6 2.1-0.7 0.5-1.8 0.9-3.3 1.4-1.5 0.5-5.2 0.9-10.8 1.2-0.4-2.8-1.1-5.3-2-7.5 2.2 0.3 3.5 0.5 3.9 0.5 0.4 0 1.1-0.1 2-0.2 0.9-0.2 1.5-0.7 2-1.6v-24.5h-14.7c5.1 2.8 10 5.3 14.7 7.5l-5.9 5.6c-1.2-0.8-2.3-1.5-3.4-2.1-0.4 3.4-0.6 6.2-0.6 8.2 0 2.2 0.2 5 0.6 8.5-4.8-0.3-10.2-0.5-16.1-0.5-5.9 0-11.3 0.2-16.1 0.5 0.4-3.4 0.7-6.2 0.7-8.5 0-2.1-0.2-5-0.6-8.5-1.2 0.6-2.5 1.2-4 2l-4.6-4.9V548h-10.5c0.5-3.4 0.7-9.8 0.7-19.2 0-9.4-0.2-15.8-0.7-19.2 3.3 0.2 9.2 0.3 17.7 0.4-1.4-1.5-2.9-3-4.5-4.6l3.5-2z m6.5 0l3.9 4.7-4.4 1.8h22.1l-3.2-1.9c1.4-1.4 2.9-3 4.3-4.7h-10.5c-4.4 0.1-8.5 0.1-12.2 0.1z m19.7 12.2h-16.7l5.5 3.3c-3.5 2.2-6.2 3.8-7.9 4.9-1 0.6-2.3 1.3-3.9 2.2 5.4 0.3 10.5 0.4 15.4 0.4 4.7 0 9.7-0.1 15-0.4-1.8-1.1-3.3-2-4.5-2.6-2-1.1-4.7-2.4-8.2-4l5.3-3.8z m-32.2 6.7c3.2-1.1 5.6-2.2 7.2-3 1.4-0.8 2.9-2 4.6-3.8h-11.8v6.8z m17.1 15.3h15.1v-6.1h-15.1v6.1z m77.6 0.7v-10.9l-10.5 3.3c-2.2-6-4.3-11-6.2-14.9-2-4-4.3-7.9-6.9-11.8l10.5-2.1c1.7 3.5 3.2 6.2 4.3 8.3 1.1 2 2.3 4.3 3.6 6.9 1.3 2.5 3.1 6 5.3 10.4-0.1-20.4-0.3-32.1-0.7-35l11.2 0.5c-0.4 3.1-0.6 18.3-0.6 45.5h8.6c0-27.2-0.2-42.7-0.7-46.4l11.2 0.5c-0.4 2.9-0.6 14.3-0.6 34.2 3.7-5 6.3-9.3 7.9-13.2 1.8-4.3 3.3-8.3 4.6-12.1l11.2 2.8c-2.2 4.1-4.5 8.5-6.9 13.3-2.4 4.7-5.4 10.1-8.9 16.1l-7.9-4.5v9.2c13.4-0.1 22-0.2 25.7-0.4v8c-4.8-0.3-18-0.5-39.5-0.5s-34.6 0.2-39.5 0.5v-8c3.4 0.1 11.7 0.3 24.8 0.3z m104.4-28.2v6.2h20.9v-6.2h-20.9z m0-5.7h20.9v-6.1h-20.9v6.1z m-39.9 8.7c-1.2 1-2.7 2.2-4.6 3.6-0.9-3.8-1.5-6.6-2-8.5 2.2-1.9 3.8-3.5 4.9-4.7 1.1-1.3 2.1-2.7 2.9-4.3 0.9-1.6 2.2-4.6 3.9-9l9.8 2.4c-1.2 1.7-2.2 3.3-3.1 4.7 6.8-0.1 12.4-0.2 16.8-0.5v7.1c-5.2-0.3-12-0.4-20.5-0.5-0.6 1-1.3 1.9-2.1 2.8-0.8 1-1.6 1.9-2.3 2.8 10.6 0 18.5-0.2 23.6-0.5v6.6c-4.2-0.2-7.9-0.4-11.1-0.4v6.5c4.4-0.1 8.6-0.2 12.4-0.4v6.6c-3.8-0.2-8-0.4-12.4-0.4v10c4.8-2.2 8.3-3.9 10.5-5.2v7.6c-5.3 2.5-9 4.3-11.1 5.4-2.2 1.1-4.8 2.4-7.8 4-1.3-2.8-2.6-5.2-3.9-7.1 1.3-0.6 2.4-1.4 3.3-2.4v-12.2c-4.7 0.1-9.1 0.2-13.1 0.5V521c4 0.2 8.4 0.4 13.1 0.4v-6.5c-2.3 0.1-4.7 0.2-7.2 0.4v-2.2z m56.5 8.9c0.5 1.7 1.2 3.7 2.2 5.9 0.1 0.2 0.2 0.5 0.3 0.7l9.7-5.3 6.5 4.3-12.6 6.5c0.4 0.5 0.9 1 1.3 1.4 2.3 2.3 6.3 4.7 11.9 7.2-3.1 2.8-5.2 5-6.5 6.6-4.8-3.1-8.3-5.7-10.5-7.8-2.2-2.1-3.9-4.1-5.2-6.1-1.3-2.1-2.3-3.9-3-5.4-0.6-1.5-1.5-4.1-2.6-8h-8.1v16c3.9-1.6 7.6-3.3 11.1-5.2-0.4 2.8-0.4 5.4 0 7.6-7.4 3.8-13.8 7-19 9.7-2.2-2.2-4.2-4.4-6.2-6.6 2.4-1.1 4-2.1 4.9-3.1 0-28.4-0.2-44.4-0.7-48.2 5.2 0.3 12 0.5 20.3 0.5s15-0.2 20.3-0.5c-0.4 3.8-0.7 8.8-0.7 15.1s0.2 11.3 0.7 15.1c-3-0.2-7.7-0.4-14.1-0.4z m42.4-3.8c0 17.5 0.2 27.9 0.7 31.2H954.03754c0.4-3.2 0.6-11.2 0.7-23.9-2.3 1.5-4.9 3.2-7.9 5-1.3-2.8-2.9-5.3-4.6-7.5 4.4-2.2 7.5-3.9 9.2-5.2 1.8-1.3 3.9-3 6.3-5.2s5.2-5 8.3-8.5l9.2 4.7c-2.8 2.5-5.2 4.6-7.1 6.4-1.1 0.9-2.2 1.9-3.6 3z m44.2-0.4v27.8c-0.4 0.9-0.8 1.5-1 1.7-0.2 0.2-0.6 0.4-1.3 0.7-0.7 0.3-1.6 0.6-2.7 0.7-1.1 0.2-2.7 0.3-4.9 0.5s-4.2 0.2-5.9 0.2c-0.9-2.5-2-5.1-3.3-7.8 2.6 0.3 4.3 0.5 5 0.5 0.7 0 1.3-0.1 2-0.2 0.7-0.2 1.1-0.3 1.3-0.5 0.2-0.2 0.5-0.7 1-1.7v-21.9c-11.1 0-19 0.2-23.8 0.5V511c4.8 0.3 13 0.5 24.4 0.5 11.4 0 19.6-0.2 24.4-0.5v7.3c-3.4-0.2-8.5-0.4-15.2-0.5zM979.03754 493.7c4.8 0.3 11.5 0.5 20.1 0.5 8.6 0 15.3-0.2 20.1-0.5v7.6c-4.8-0.3-11.5-0.5-20.1-0.5-8.6 0-15.3 0.2-20.1 0.5v-7.6z m-35.6 9c5.3-1.6 8.9-2.8 10.9-3.8 2-0.9 3.8-2 5.6-3.1 1.8-1.1 4-2.6 6.6-4.5l7.3 5.2c-2.6 1.6-5.1 3-7.6 4.4-2.4 1.3-4.7 2.6-6.9 3.7s-5.6 2.7-10.2 4.7c-1.4-2-3.3-4.2-5.7-6.6zM282.03754 582.5h-4v-22.6h8.1c5.9 0.3 9 2.5 9.4 6.6-0.1 4.2-2.3 6.5-6.5 6.9l8.3 9.2h-4.8l-10-11.6h3.3c3.6-0.1 5.5-1.3 5.8-3.8-0.2-2.8-2.1-4.2-5.6-4.4h-4v19.7z m31.3-22.6h4.1v15.9c-0.1 4.4-3.1 6.6-9 6.7-6-0.1-9-2.3-9-6.7v-15.9h4.1v16.6c0.1 2.3 1.7 3.4 4.9 3.5 3-0.1 4.7-1.3 4.9-3.5v-16.6z m12.8 22.6h-4v-22.6h8.1c5.9 0.3 9 2.5 9.3 6.6-0.1 4.2-2.3 6.5-6.5 6.9l8.3 9.2h-4.8l-10-11.6h3.3c3.6-0.1 5.5-1.3 5.7-3.8-0.2-2.8-2.1-4.2-5.6-4.4h-3.7v19.7z m25.1-17.6l-2.8 8.1h5.8l-3-8.1z m-6.2 17.6h-3.8l7.9-22.6h4.1l8.3 22.6h-3.9l-2.5-6.7h-7.7l-2.4 6.7z m34 0h-14.5v-22.6h4.1v19.7H379.03754v2.9z m31.9-14.5h-3.7c-0.6-4.5-2.5-6.7-5.6-6.7-3.8 0.3-5.7 3.3-5.8 9.3 0.1 6.1 2 9.3 5.8 9.4 3.4 0.2 5.2-2 5.6-6.6h3.7c-0.1 5.9-3.2 8.9-9.4 9-6.4-0.3-9.7-4.2-9.8-11.8 0.1-7.5 3.4-11.5 9.8-12 5.7 0.1 8.9 3.2 9.4 9.4z m13.4-6.6c-4.2 0.3-6.4 3.3-6.5 9.3 0.1 6.2 2.3 9.3 6.5 9.4 4.1-0.1 6.3-3.2 6.5-9.4-0.2-6-2.4-9.1-6.5-9.3z m0-2.7c6.7 0.3 10.1 4.3 10.4 12-0.3 7.8-3.8 11.8-10.4 11.8-6.8-0.2-10.3-4.1-10.4-11.8 0.1-7.6 3.6-11.7 10.4-12z m18.8 23.8h-3.8v-22.6h5.8l5.9 16.5h0.2l5.6-16.5h5.8v22.6h-3.9v-17.4l-5.9 17.4h-3.3l-6.2-17.4h-0.1v17.4z m29 0h-3.7v-22.6h5.8l6 16.5h0.1l5.6-16.5h5.8v22.6h-3.9v-17.4l-6 17.4h-3.3l-6.2-17.4h-0.2v17.4z m39.8 0h-14.5v-22.6h14.5v2.8h-10.4v6.5h10.4v3h-10.4v7.5h10.4v2.8z m8.7 0h-4v-22.6h8.1c5.9 0.3 9 2.5 9.3 6.6-0.1 4.2-2.3 6.5-6.5 6.9l8.3 9.2H531.03754L521.03754 571h3.3c3.6-0.1 5.5-1.3 5.7-3.8-0.2-2.8-2.1-4.2-5.6-4.4h-3.7v19.7z m36.6-14.5h-3.7c-0.6-4.5-2.5-6.7-5.7-6.7-3.8 0.3-5.7 3.3-5.8 9.3 0.1 6.1 2 9.3 5.8 9.4 3.4 0.2 5.3-2 5.7-6.6h3.7c-0.1 5.9-3.2 8.9-9.4 9-6.4-0.3-9.7-4.2-9.8-11.8 0.1-7.5 3.4-11.5 9.8-12 5.8 0.1 8.9 3.2 9.4 9.4z m3.5 14.5v-22.6h4.1v22.6h-4.1z m16.9-17.6l-2.8 8.1h5.8l-3-8.1z m-6.2 17.6h-3.8l7.9-22.6h4.1l8.3 22.6H584.03754l-2.5-6.7h-7.7l-2.4 6.7z m32.8 0h-14.5v-22.6h4.1v19.7h10.4v2.9z m18.6-10.1v7.2h4.7c3.4 0.1 5.1-1.1 5.1-3.7-0.2-2.2-2-3.4-5.4-3.5h-4.4z m0-9.7v6.7h3.8c3-0.1 4.5-1.2 4.7-3.3-0.2-2.1-1.8-3.3-4.7-3.4h-3.8z m-4.1 19.8v-22.6h8.1c5.6 0.1 8.5 2.1 8.7 6-0.1 2.7-1.4 4.3-3.9 4.8 3.3 0.5 5 2.3 5.2 5.4-0.1 4.3-3.1 6.5-9.2 6.5h-8.9z m29.1-17.6L645.03754 573h5.8l-3-8.1z m-6.1 17.6h-3.8l7.9-22.6h4.1l8.4 22.6h-3.9l-2.5-6.7H644.03754l-2.3 6.7z m23.2 0h-3.8v-22.6h4.1l10.1 16.2v-16.2h3.8v22.6h-3.6l-10.4-16.8h-0.2v16.8z m25.2 0h-4v-22.6h4v10.5h0.2l9.4-10.5h4.4l-7.9 8.8 9 13.8h-4.6l-7.1-11.3-3.4 3.9v7.4z m37.8-21.1c-4.2 0.3-6.4 3.3-6.5 9.3 0.1 6.2 2.3 9.3 6.5 9.4 4.1-0.1 6.3-3.2 6.5-9.4-0.2-6-2.4-9.1-6.5-9.3z m0-2.7c6.7 0.3 10.2 4.3 10.4 12-0.3 7.8-3.8 11.8-10.4 11.8-6.8-0.2-10.3-4.1-10.5-11.8 0.2-7.6 3.7-11.7 10.5-12z m15.6 1.2h13.4v2.8h-9.4v6.5h9.4v3h-9.4v10.4h-3.9v-22.7z m26.1 19.9l11.1-17.1h-10.2v-2.8h15v2.8l-11.1 16.9h11.4v2.9h-16.3v-2.7z m24.3 2.7H790.03754v-22.6h3.9v9.3h10.2v-9.3h3.9v22.6h-3.9v-10.4h-10.2v10.4z m26.9-17.6l-2.9 8.1h5.8l-2.9-8.1z m-6.1 17.6h-3.8l7.9-22.6h4.1l8.3 22.6h-3.9l-2.6-6.7H817.03754l-2.3 6.7z m23.2 0h-3.8v-22.6h4.1l10.1 16.2v-16.2h3.8v22.6h-3.7L838.03754 565.8h-0.2v16.7z m40-15.7h-4.2c-0.6-3.5-2.6-5.3-5.7-5.4-4.3 0.3-6.6 3.3-6.7 9.3 0.1 6.2 2.4 9.3 6.8 9.4 4.1 0.2 6.1-2.1 6-6.8h-8v-2.9h12.1v2.9c-0.1 6-3.5 9.1-10.1 9.2-7-0.2-10.6-4.1-10.8-11.8 0.2-7.6 3.8-11.6 10.7-12 5.9 0.3 9.2 3 9.9 8.1z m2 9h4.3c-0.1 3.1 1.1 4.5 3.6 4.4 2.3 0 3.5-1.2 3.6-3.7v-16.7h4.3v16.7c0 3.9-2.6 5.9-8 6-5.2-0.1-7.8-2.3-7.8-6.7z m19.2 6.7v-22.6h4.1v22.6h-4.1z m16.9-17.6l-2.8 8.1h5.8l-3-8.1z m-6.1 17.6h-3.8l7.9-22.6h4.1l8.4 22.6h-4l-2.5-6.7h-7.7l-2.4 6.7z m38.2-15.7H944.03754c-0.6-3.5-2.5-5.3-5.8-5.4-4.4 0.3-6.5 3.3-6.6 9.3 0.1 6.2 2.3 9.3 6.8 9.4 4.1 0.2 6.2-2.1 6-6.8h-8v-2.9h12.1v2.9c-0.1 6-3.5 9.1-10.1 9.2-7-0.2-10.6-4.1-10.8-11.8 0.2-7.6 3.8-11.6 10.7-12 5.8 0.3 9.1 3 9.8 8.1z m12-1.9l-2.8 8.1h5.8l-3-8.1z m-6.2 17.6h-3.8l7.9-22.6h4.1l8.4 22.6h-4l-2.5-6.7h-7.8l-2.3 6.7z m23.3 0h-3.8v-22.6h4.1l10.1 16.2v-16.2h3.8v22.6h-3.6l-10.4-16.8h-0.2v16.8z m40-15.7h-4.2c-0.6-3.5-2.5-5.3-5.7-5.4-4.3 0.3-6.5 3.3-6.6 9.3 0.1 6.2 2.4 9.3 6.8 9.4 4.1 0.2 6.2-2.1 6-6.8h-8v-2.9h12.1v2.9c-0.1 6-3.5 9.1-10.1 9.2-7-0.2-10.6-4.1-10.8-11.8 0.2-7.6 3.7-11.6 10.7-12 5.8 0.3 9.1 3 9.8 8.1zM249.03754 582.5h4.1v-91.1H249.03754z"></path><path d="M2.33754 507.7c0-78.7 89.1-82.4 89.1-52.1 0 2.1-1.9 13-16.4 13 0 0-49.3-15.5-72.7 39.1z m74.3 75.4l-32-32 32-32 32 32-32 32z" fill="#F6BE10"></path><path d="M39.13754 499.4c-4 2.7-8.8 6.7-14 14.8-19.9 31-4.8 59.2 13.9 72.4-17.8-10.8-57.6-42.9-29-92.1 13.6-23.3 28.5-25.3 36-19.4 2.7 2.1 4.6 6.4 4.2 11 9-7.6 21.7-12.7 39.6-12.7 26.5 0 35.7 11.9 34.6 21.3-0.6 4.8-5.6 10.3-12.7 10.6-7.1 0.3-9.6-8.8-29.4-8.8-33.8 0-52.2 25-53.8 47.8 0.1-10.8 1.5-29.5 10.6-44.9z" fill="#093A84"></path><path d="M145.13754 551.5v-18.7h12.5c2.4 0 4.2 0.2 5.6 0.6 1.5 0.5 2.6 1.4 3.5 2.6 0.9 1.2 1.3 2.5 1.3 4 0 1.9-0.7 3.5-2.2 4.8-0.7 0.6-1.6 1.2-2.7 1.6 0.8 0.7 1.5 1.5 2.3 2.4l6 8h-7.7l-3.7-5c-0.9-1.2-1.7-2.2-2.3-2.8-0.6-0.7-1.1-1-1.3-1.1-0.4-0.2-0.7-0.3-1.1-0.4h-3.9v9.4h-27.9v-4l12.6-14.5 0.2-0.2h-11.4v-5.3h19.9v3.9l-13.1 14.8h13.4z m6.2-9.3h5.7c1.3 0 2.4-0.1 3.1-0.3 0.5-0.2 0.9-0.4 1.2-0.8 0.3-0.4 0.4-0.7 0.4-1.1 0-0.6-0.2-1-0.7-1.4-0.4-0.3-1.3-0.7-3.2-0.7h-6.5v4.3z m23.4 13c-1.8-1.1-3.3-2.7-4.2-4.7-0.9-2-1.4-4.1-1.4-6.4 0-2.5 0.5-4.7 1.6-6.6 1.1-1.9 2.6-3.4 4.6-4.4 4.1-2 9.6-1.9 13.1 0.4 1.9 1.3 3.2 3.1 3.9 5.4l0.5 1.5-5.7 1.2-0.4-1.2c-0.5-1.3-1.1-2.2-1.9-2.7-1.8-1.2-5.2-1.1-7 0.1-1 0.6-1.6 1.4-2 2.5-0.4 1.2-0.6 2.4-0.6 3.6 0 1.6 0.3 3.1 0.8 4.2s1.2 1.9 2.1 2.4c2.3 1.3 5.2 1.1 7-0.2 1-0.7 1.6-1.8 1.9-3.3l0.3-1.4 5.9 1.4-0.4 1.4c-0.8 2.7-2.1 4.7-4.1 6.1-1.9 1.4-4.3 2.1-7 2.1-2.9 0.2-5.2-0.3-7-1.4z m-45.8 24.2h6c1 0 1.8 0 2.2-0.1 0.7-0.1 1.4-0.3 1.8-0.6 0.5-0.3 0.9-0.7 1.2-1.2s0.5-1.1 0.5-1.8c0-0.8-0.2-1.5-0.7-2.1-0.5-0.6-1.1-1-1.9-1.2-0.8-0.2-2-0.4-3.5-0.4h-5.6v7.4z m0-10h5.2c1.4 0 2.4-0.1 3-0.3 0.8-0.2 1.4-0.6 1.8-1.1 0.4-0.5 0.6-1.1 0.6-1.9 0-0.7-0.2-1.4-0.6-1.9-0.4-0.5-0.9-0.9-1.7-1.1-0.7-0.2-1.9-0.3-3.7-0.3h-4.8v6.6z m-3.2 12.6v-21.7h9.1c1.8 0 3.3 0.2 4.5 0.7 1.1 0.4 2 1.1 2.6 2 0.6 0.9 1 1.9 1 2.9 0 0.9-0.3 1.8-0.8 2.6-0.6 0.8-1.4 1.5-2.5 2 1.5 0.4 2.6 1 3.4 2 0.8 0.9 1.2 2 1.2 3.3 0 1-0.3 2-0.7 2.8-0.5 0.9-1.1 1.5-1.8 2s-1.6 0.8-2.7 1.1c-1.1 0.2-2.4 0.4-3.9 0.4h-9.4z m26.5-9h8.3l-2.6-6c-0.8-1.8-1.4-3.3-1.7-4.5-0.3 1.4-0.8 2.8-1.3 4.1l-2.7 6.4z m-7.1 9l9.4-21.7h3.5l10 21.7h-3.7l-2.8-6.6h-10.2l-2.7 6.6h-3.5z m25.1 0v-21.7h3.3l13 17v-17h3.1V582h-3.3l-13-17.1V582h-3.1z m25.2 0v-21.7h3.3V571l12.4-10.8h4.5L205.03754 569l10.9 12.9h-4.4l-8.9-11-4.1 3.5v7.5h-3.1z"></path></svg>