<svg viewBox="0 0 1024 1024" version="1.1" xmlns="http://www.w3.org/2000/svg"><path d="M0 0m224 0l576 0q224 0 224 224l0 576q0 224-224 224l-576 0q-224 0-224-224l0-576q0-224 224-224Z" fill="#FFFFFF"></path><path d="M569.632 404.128c2.892 34.928-256.92 221.52-254.872 268.7 13.932 71.856 351.088 75.724 504.884-17.42-65.512 145.108-227.616 222.168-382.456 188.408-154.836-33.76-265.28-171.604-265.192-330.976 0-16.604 1.212-33.188 3.604-49.616 136.572-82.38 392.348-79.608 394.032-59.096zM513.192 172c187.112 0.02 338.788 151.308 338.808 337.936v2.06c-111.072 95.276-368.256 86.488-371.64 67.596-2.068-30.72 225.328-171.992 221.768-219.14-5.216-69.52-335.656-52.012-500.908 17.44C254.36 253.036 377.2 171.972 513.192 172z" fill="#EB0018"></path></svg>