<svg viewBox="0 0 1024 1024" version="1.1" xmlns="http://www.w3.org/2000/svg"><path d="M841.72002 483.903c1.932 1.871 2.439 4.268 2.058 7.672-1.805 0.787-4.819 1.282-7.446 0.965 0.032-2.976 2.603-7.635 5.388-8.637z m-9.765-4.583c0.155 3.113-6.02 17.96-10.664 17.91-1.186-5.247 0.04-11.538 1.466-16.332 2.514-0.943 5.791-1.874 9.198-1.578z m16.992-17.946c0.12 7.129-3.943 4.925-10.413 5.63-4.39 0.479-10.629 2.629-14.028 1.39-4.123-10.527 20.674-8.405 24.44-7.02z m-15.248-19.15c26.591-2.27 18.222 6.281 15.278 6.745-1.579 0.25-6.661-0.182-8.89-0.086-4.757 0.204-12.022 2.409-16.29 0.96-1.041-6.358 4.218-7.135 9.902-7.62z m-48.67 13.294c-2.403 0.13-1.116-0.006-3.41-0.807l1.761-3.24c3.33-3.84 7.1-2.845 13.596-2.845 12.304-0.001 7.491-2.484 12.78-3.666 2.55 4.497 3.618 45.482-3.346 53.224-3.551 3.946-8.313 4.771-10.377 9.762 0.85 6.688 13.958 14.792 21.601 9.513 6.182-4.268 2.783-7.282 21.87-12.566 14.125-3.909 8.346 4.064 19.89 10.98 3.896 2.334 10.467 2.859 13.907-0.314 2.48-2.287 5.708-6.686 5.191-11.628-9.278-2.715-12.623-3.618-18.42-9.56-2.633-2.698-10.674-11.308-10.43-16.771 12.956-0.785 11.064 2.764 12.208-17.605 0.859-15.313 9.796-23.754-0.204-28.018-4.702-2.003-50.81-0.23-53.174 1.064-4.202 2.296-2.773 3.636-15.559 2.96-7.78-0.41-4.288-5.477-11.128-7.164-2.879 1.47-7.294 6.47-9.571 8.685-7.845 7.624-16.98 10.852-16.955 18.372 0.026 8.027 2.98 7.115 9.553 8.19 4.843 8.571 4.89 2.673 11.719 5.057 1.174 7.759-7.86 4.053-14.66 7.396-0.448 5.324 1.342 13.878 9.591 11.435 6.268-1.858 4.851-0.181 5.283 0.33 1.98 2.606-0.152 8.21-1.413 10.768-1.927 3.911-4.032 4.901-7.015 7.193-0.308 4.613 0.59 5.047 2.73 7.649 6.282 7.631 4.164 5.692 21.3-8.194 8.87-7.186 12.162-9.543 10.79-17.748-5.167-0.7-6.388 3.24-11.513 2.926-0.974-3.573-0.971-4.048-0.114-7.635 4.381-1.747 6.643-0.972 10.218-4.175 2.135-1.915 5.12-5.593 3.233-8.974-5.414-2.157-8.596 1.604-13.664 0.317-0.986-9.588 7.986-1.865 13.982-10.236 7.364-10.278-12.634-5.83-16.863-5.99-1.128 0.748-0.982 1.18-3.386 1.315zM574.60002 448.72l-19.022 0.054c-10.9-0.016-43.395 0.408-54.152 3.233-5.545 21.933 14.597 8.898 19.516 11.382-2.141 4.28-28.984 12.876-35.026 14.772 0.207 5.755 4.862 6.318 10.543 5.825 4.538-0.394 7.574-2.496 11.192-4.05 3.777-1.621 7.065-2.91 10.519-4.667 2.894-1.473 6.941-4.912 10.349-3.348-0.769 2.96-1.42 2.397-4.772 4.125-1.746 0.901-3.136 1.65-5.316 2.716-4.09 1.997-7.338 3.532-11.479 5.29-11.903 5.05-21.55 4.073-21.532 11.14 11.61 11.361 39.108-12.793 47.596-13.48-0.023 4.33-5.563 5.88-8.627 7.812l-22.006 11.567c-3.877 1.783-8.788 2.088-11.86 4.843-2.162 4.448 10.982 12.626 23.911 2.412l15.202-12.026c5.688-4.311 4.736-1.847 4.92-1.669 3.146 3.908-4.64 10.08-7.005 11.644-7.577 5.01-11.022 2.763-12.636 8.053 2.731 4.653 20.292 8.254 26.755 2.086 13.15-12.55 4.922-17.753 9.114-25.071 5.26 1.445 14.279 16.019 20.406 20.14 10.431 7.015 25.684-4.019 25.993-10.763-3.966-2.22-17.465-4.378-23.75-7.49-2.977-1.474-7.066-4.363-9.743-6.251-4.689-3.307-7.368-4.311-7.301-7.873 4.589-3.448 12.49-1.708 16.227-6.161 1.781-4.542-0.733-8.026-3.452-10.633-5.453 0.198-14.778 6.716-19.717 8.34-5.567 1.833-15.057-9.24-15.316-10.526 22.71-2.765 43.664 4.309 40.469-11.426z m81.523 12.238c2.492-9.6 46.974-13.78 49.552-3.915 0.026 0.1-0.984 29.186-1.167 29.977-3.778 1.447-19.793 1.311-25.622 1.622-7.364 0.392-18.436 3.275-23.732 3.123-0.278-1.702 0.6-29.387 0.969-30.807z m-18.467 2.701c4.605 14.128-1.948 39.69-1.868 41.883 0.268 7.388 10.805 3.026 16.126 1.728 19.087-4.65 43.879-5.006 63.42-0.368 17.42 4.135 7.166-15.887 6.93-18.949-0.633-8.305-1.286-25.343 3.302-31.035 3.9-4.833 8.072-7.684 2.072-14.5-4.889-5.553-10.471-2.028-18.292-2.2-19.072-0.422-20.234-3.594-43.982 0.413-9.019 1.523-11.577 1.995-21.531 1.346-5.544-0.362-16.76 1.275-15.077 7.53 0.796 2.955 7.16 8.811 8.9 14.152z m-221.846 29.72c-1.276-2.136-0.839-7.794-0.515-10.952 0.445-4.335 2.302-5.09 6.829-4.674 1.736 2.125 4.781 10.13 4.6 13.195-1.716 0.934-6.975 3.345-9.344 3.075l-1.57-0.644z m33.397-43.15c4.283-3.288 3.374-9.12 3.342-9.384l-0.424-1.416c-6.734-1.289-18.873 2.043-27.662 1.6-8.196-0.412-12.065-11.054-19.127-10.173-5.251 0.656-1.868 5.916-1.591 10.624 2.056 35.025-0.08 21.464-14.17 27.38-1.25 5.211 1.596 11.07 3.697 14.465l8.763-0.883c0.329 4.933-0.404 8.786-2.586 12.384-2.76 4.55-3.625 3.512-9.202 5.193-5.521 1.666-7.435 17.2 2.424 18.306 6.37 0.716 16.134-4.948 21.099-7.554 10.617-5.574 13.79-10.707 17.222-11.542 4.942 6.636 4.895 15.184 13.549 18.319 6.824 2.473 17.419-2.603 20.765-5.574 2.222-1.972 0.71 0.224 1.77-2.429-1.938-2.651 0.755-0.413-2.965-2.016-1.138-0.49-2.04-0.698-2.943-1.034-10.82-4.03-20.193-15.253-25.836-24.64-8.86-14.737 20.787 5.567 22.006-17.218-10.316-1.416-35.99 1.812-38.488-1.506-2.04-4 0.88-8.01 4.534-9.074 9.07-2.64 20.913-0.06 25.823-3.829z m-94.016 39.525c2.52-0.904 5.216-1.702 8.057-2.405l6.094-1.008c1.951 0.1 1.26 0.139 1.996 0.457 5.839 19.174-21.51 15.339-26.455 16.583-0.876 4.782 1.175 7.247 3.822 9.26 9.165 6.967 15.653 10.774 28.145 1.976 7.024-4.947 6.609-7.897 8.387-17.998 0.959-5.43 2.126-20.09 0.892-25.381-7.48-0.49-13.913 3.902-22.061 2.732-3.913-12.414 14.796-10.215 23.077-10.893 2.33-5.485 2.62-12.22 4.95-18.039 2.344-5.854 8.258-10.392-1.173-14.692-6.522-2.974-14.06 0.004-20.78 0.477-5.928 0.417-18.373-0.219-22.59 0.821-1.503 3.913-0.606 5.966 1.302 9.646 5.233 10.09 14.808-1.992 29.053 1.995 0.56 8.692-2.623 8.653-10.3 9.948-4.594 0.777-15.153 0.84-18.307 2.543-4.123 4.568 2.747 7.28 1.631 16.098-0.85 6.721-4.87 8.902-6.376 13.64-2.718 8.551 6.988 5.547 10.636 4.24z m658.468-14.051c3.622-1.175 8.97-8.057 9.312-13.776-41.886-2.478-23.508-2.494-60.246-0.374-7.249 0.418-15.046 0.59-15.375 7.951-1.045 23.444 37.04-9.177 33.443 12.563-2.093 12.647-0.825 6.993-0.575 19.443 0.182 9.14-1.003 18.987 7.299 21.685 13.779-7.121 1.183-37.161 5.105-48.503 6.951-0.84 13.708 3.39 21.037 1.01z m-489-41.136c-4.266 1.113-16.66 2.076-21.933 2.836-21.866 3.15-22.617-6.626-18.722 13.325 0.309 1.586 1.335 10.648 1.363 10.726 1.492 4.09 5.862 1.131 7.483-1.13 4.74-6.612-1.356-8.146 8.465-10.592 23.05-5.741 47.376-6.263 71.132-4.354 16.84 1.354-0.567 16.359 8.87 17.74 3.266 0.48 5.314-3.626 7.7-7.32 4.158-6.442 7.297-7.285 7.63-9.493-1.016-7.171-5.621-8.818-12.917-9.83-6.406-0.89-13.885-1.4-20.53-1.892-12.076-0.893-15.094 1.458-19.75-2.539-6.48-5.56-9.762-3.285-18.455-2.464l-0.337 4.987z m402.256 42.952c9.29-0.934 1.545 11.809-0.065 14.487-5.448 9.064-19.557 5.68-20.171 15.94-0.276 4.595 0.577 6.846 3.729 8.37 8.418 4.067 12.397-0.415 17.546-4.003 17.205-11.988 12.378-13.921 13.46-34.726 0.462-8.87 5.764-12 5.785-16.873-4.358-3.028-15.404-1.066-20.434-0.02-6.807 1.415-14.311 1.999-18.938 4.921-0.842 4.448-1.909 12.5 0.652 15.794 5.407 4.576 13.14-3.358 18.436-3.89z m77.426-44.86c-23.671-2.208-18.42-1.208-37.51 1.732-5.885 0.906-13.397 0.576-14.22 5.708-0.859 5.344 4.626 10.875 9.36 11.094 3.173 0.147 12.68-2.21 17.507-2.643 5.633-0.508 12.743-1.145 18.434-2.005 4.388-0.662 11.718-1.928 15.446-4.857 6.132-4.819-5.56-8.708-9.017-9.029z m-96.978 0.838c-0.987 2.38-2.311 13.785-1.157 16.595 2.345 5.709 37.987-3.087 40.773-10.191-2.41-4.75-11.598-5.607-17.701-6.63l-21.915 0.226z" fill="#1B1918"></path><path d="M355.77802 587.988h-17.879V548.95h16.917c8.33 0.254 12.752 3.364 13.265 9.33-0.128 4.952-2.82 7.999-8.074 9.142v0.19c6.023 1.016 9.291 4.126 9.804 9.331 0 7.364-4.678 11.045-14.033 11.045z m-1.11-17.35h-9.93v13.013h10.29c5.297 0 7.945-2.293 7.945-6.879-0.24-3.965-3.01-6.01-8.305-6.134z m-1.18-17.35h-8.75v10.843h8.75c4.69-0.114 7.091-2.008 7.205-5.68-0.114-3.442-2.516-5.164-7.205-5.164z m43.823-4.338l15.809 39.038h-6.555l-4.93-11.149h-16.233l-4.477 11.15h-6.555l15.808-39.04h7.133z m-3.706 4.337h-0.182l-1.094 3.187-5.653 14.164h13.676l-5.652-14.164c0-0.118-0.061-0.354-0.183-0.708l-0.399-0.952c-0.342-0.84-0.513-1.35-0.513-1.527z m24.074-4.337h7.355l20.673 31.992h0.199V548.95h5.964v39.038h-7.157l-21.07-32.183v32.183h-5.964V548.95z m79.779 39.038h-8.171l-13.95-18.662-8.172 7.808v10.854h-6.178V548.95h6.178v20.757l20.926-20.757h8.17l-17.138 16.567 18.335 22.471z m35.427-39.038c11.953 0.74 18.379 7.339 19.278 19.796-0.642 12.212-7.133 18.625-19.471 19.242-12.338-0.617-18.764-7.03-19.278-19.242 0.642-12.58 7.133-19.18 19.47-19.796z m-0.19 34.7c8.043-0.381 12.253-5.41 12.63-15.086-0.377-9.548-4.524-14.64-12.442-15.277-7.918 0.637-12.129 5.73-12.631 15.277 0.377 9.421 4.524 14.45 12.442 15.087z m55.939-29.75h-21.232v12.189h18.554v4.76h-18.554v17.14h-6.121v-39.04h27.353v4.952z m52.426 34.088h-31.912v-3.999l23.019-30.088h-23.124v-4.951h31.227v4.57l-23.414 29.898h24.204v4.57z m41.03 0h-6.362v-17.33h-21.667v17.33h-6.163V548.95h6.163v16.567h21.667V548.95h6.361v39.038z m27.5-39.038l15.808 39.038h-6.555l-4.419-11.242h-17.543l-3.678 11.242h-6.555l15.809-39.038h7.133z m-3.831 4.337h-0.183l-1.094 3.187-5.653 14.164h13.677l-5.653-14.164c0-0.118-0.06-0.354-0.182-0.708l-0.4-0.952c-0.341-0.84-0.512-1.35-0.512-1.527z m26.477-4.337h7.355l20.674 31.992h0.199V548.95h5.963v39.038h-7.156L738.20002 555.805v32.183h-5.964V548.95z m77.5 21.643v11.752c-2.66 5.078-8.358 7.682-17.096 7.812-12.283-0.651-18.741-7.486-19.374-20.506 0.633-13.15 6.838-20.05 18.615-20.701 8.99 0.13 14.88 3.71 17.665 10.74l-5.698 2.15c-1.9-5.079-5.889-7.617-11.967-7.617-7.598 0.78-11.714 5.924-12.347 15.428 0.506 9.765 4.875 14.973 13.106 15.624 5.446-0.13 9.308-1.758 11.587-4.883v-9.799h5.509z m21.55-21.643h5.8v26.743c0.122 9.565-3.758 14.386-11.641 14.463l-0.52-0.002c-7.733 0.132-12.036-4.094-12.91-12.678l5.613-1.585c0.242 6.141 2.474 9.245 6.695 9.313l0.415-0.002c4.49 0.132 6.673-3.104 6.548-9.707V548.95z m14.92 39.038V548.95h6.839v39.038h-6.839z m36.618-39.038l15.809 39.038h-6.555l-4.086-11.242h-17.544l-4.01 11.242h-6.555l15.808-39.038h7.133z m-3.66 4.337h-0.183l-1.094 3.187-1.304 3.218c-0.942 2.357-2.392 6.006-4.349 10.946h13.677l-5.653-14.164c0-0.118-0.06-0.354-0.182-0.708l-0.4-0.952c-0.341-0.84-0.512-1.35-0.512-1.527z m62.777 34.701h-8.17l-13.951-18.662-8.171 7.808v10.854h-6.178V548.95h6.178v20.757l20.926-20.757h8.17l-17.138 16.567 18.334 22.471z m19.472-39.038c11.953 0.74 18.379 7.339 19.278 19.796-0.642 12.212-7.133 18.625-19.471 19.242-12.338-0.617-18.764-7.03-19.279-19.242 0.643-12.58 7.133-19.18 19.472-19.796z m-0.19 34.7c8.043-0.381 12.253-5.41 12.63-15.086-0.377-9.548-4.524-14.64-12.442-15.277-7.918 0.637-12.129 5.73-12.631 15.277 0.377 9.421 4.524 14.45 12.442 15.087z m28.586-11.125V548.95h6.288v23.575c0 8.385 3.437 12.612 10.31 12.681l0.497-0.002c7.206 0 10.808-4.292 10.808-12.877V548.95H1024.00002v23.377c0 11.887-5.764 17.83-17.292 17.83-11.266 0-16.9-5.877-16.9-17.632z" fill="#1B1918"></path><path d="M154.21502 470.068c1.122 13.553-99.643 85.952-98.847 104.26 5.403 27.88 136.163 29.38 195.81-6.76-25.408 56.303-88.277 86.203-148.328 73.104C42.80002 627.572-0.03498 574.088 0.00002 512.25c0-6.443 0.469-12.878 1.397-19.252 52.966-31.965 152.166-30.888 152.818-22.93zM132.32502 380c72.568 0.007 131.394 58.709 131.401 131.123v0.8c-43.077 36.967-142.82 33.557-144.134 26.227-0.802-11.92 87.39-66.735 86.01-85.029-2.024-26.974-130.179-20.182-194.27 6.767 20.612-48.445 68.252-79.9 120.994-79.888z" fill="#EB0018"></path></svg>