<svg viewBox="0 0 1024 1024" version="1.1" xmlns="http://www.w3.org/2000/svg"><path d="M225.120623 0h573.758754c123.119066 0 223.128405 100.009339 223.128405 223.128405v573.758755c0 123.119066-100.009339 223.128405-223.128405 223.128404H225.120623c-123.119066 0-223.128405-100.009339-223.128405-223.128404V223.128405C1.992218 100.009339 102.001556 0 225.120623 0z" fill="#FFFFFF"></path><path d="M145.431907 494.070039c0-274.527626 310.785992-287.676265 310.785992-181.690272 0 7.570428-6.375097 45.024125-57.375876 45.024124 0 0.398444-171.729183-53.789883-253.410116 136.666148z m258.988326 262.972763l-111.564202-111.564203 111.564202-111.564202 111.564203 111.564202-111.564203 111.564203z" fill="#F6BE10"></path><path d="M273.730739 464.983658c-13.945525 9.562646-30.680156 23.508171-48.610116 51.399221-69.329183 107.97821-16.73463 206.393774 48.610116 252.61323-62.157198-37.453696-201.214008-149.416342-101.204669-321.145525 47.016342-81.28249 99.212451-88.056031 125.509728-67.735409 9.562646 7.570428 15.937743 22.31284 14.742412 38.649027C343.856809 392.466926 388.48249 374.536965 450.639689 374.536965c92.438911 0 124.71284 41.438132 120.728404 74.110506-1.992218 16.73463-19.523735 35.859922-44.227237 37.055253-24.703502 1.195331-33.469261-30.680156-102.4-30.680156-117.9393 0-182.088716 87.259144-187.666926 166.549416 0-37.453696 4.781323-102.798444 36.656809-156.588326z" fill="#093A84"></path><path d="M643.486381 647.072374V581.727626h43.828794c8.367315 0 14.742412 0.796887 19.523736 2.390662 5.179767 1.593774 9.164202 4.781323 12.35175 8.765759 3.187549 4.382879 4.382879 8.765759 4.38288 13.945525 0 6.375097-2.390661 12.351751-7.570428 16.73463-2.390661 2.390661-5.57821 3.984436-9.164202 5.57821 2.789105 2.390661 5.179767 5.179767 7.968871 8.367316l20.719066 27.89105h-27.094163l-13.148638-17.531517c-3.187549-4.382879-5.976654-7.570428-7.968872-9.96109-2.390661-2.390661-3.585992-3.187549-4.781323-3.984436-1.195331-0.796887-2.390661-1.195331-3.984436-1.593774H665.002335v32.672374H567.782101v-13.945526l43.828794-50.602334c0.398444 0 0.398444-0.398444 0.796887-0.796887h-39.844358V581.727626h69.329183v13.547082l-45.422568 51.797666H643.486381z m21.515954-32.672374h19.922179c4.781323 0 8.367315-0.398444 10.757976-1.195331 1.992218-0.796887 3.187549-1.593774 3.984436-2.789105 0.796887-1.195331 1.195331-2.390661 1.195331-3.984436 0-1.992218-0.796887-3.585992-2.390662-4.781323-1.195331-1.195331-4.382879-2.390661-11.15642-2.390661h-22.711284v15.140856z m81.680933 45.422568c-6.375097-3.984436-11.554864-9.562646-14.742412-16.336187-3.187549-6.773541-4.781323-14.343969-4.781323-22.31284 0-8.765759 1.992218-16.336187 5.57821-23.109728 3.585992-6.773541 9.164202-11.953307 15.937743-15.140856 14.343969-7.171984 33.469261-6.773541 45.422568 1.593775 6.375097 4.382879 11.15642 10.757977 13.547082 18.726848l1.593775 5.179766-19.922179 4.38288-1.593775-3.984436c-1.593774-4.382879-3.585992-7.570428-6.375097-9.562646-6.375097-4.382879-17.929961-3.585992-24.305058 0.398444-3.187549 1.992218-5.57821 5.179767-7.171985 8.765758-1.593774 3.984436-2.390661 8.367315-2.390661 12.750195 0 5.57821 0.796887 10.757977 2.789105 14.742412 1.593774 3.984436 3.984436 6.375097 7.570428 8.367315 7.968872 4.382879 17.929961 3.984436 24.305058-0.796887 3.187549-2.390661 5.57821-6.375097 6.773541-11.554863l1.195331-4.781323 20.320622 4.781323-1.593774 5.179766c-2.789105 9.164202-7.570428 16.336187-14.343969 21.515953-6.773541 4.781323-15.140856 7.171984-24.703502 7.171985-8.765759-0.398444-16.73463-2.390661-23.109728-5.976654z m-159.775875 84.470039h21.11751c3.585992 0 5.976654 0 7.570428-0.398444 2.789105-0.398444 4.781323-1.195331 6.375097-1.992217 1.593774-0.796887 3.187549-2.390661 4.382879-4.38288s1.593774-3.984436 1.593775-6.375097c0-2.789105-0.796887-5.179767-2.390662-7.570428-1.593774-1.992218-3.984436-3.585992-6.773541-4.38288-2.789105-0.796887-6.773541-1.195331-12.351751-1.19533h-19.523735v26.297276z m0-35.063035h18.328405c4.781323 0 8.367315-0.398444 10.757976-0.796887 2.789105-0.796887 4.781323-1.992218 6.375098-3.585992 1.593774-1.593774 1.992218-3.984436 1.992217-6.773541 0-2.390661-0.796887-4.781323-1.992217-6.773541s-3.187549-3.187549-5.976654-3.984436c-2.390661-0.796887-6.773541-1.195331-12.750195-1.195331h-16.73463v23.109728z m-11.15642 43.828794v-75.70428h31.477043c6.375097 0 11.554864 0.796887 15.539299 2.390661 3.984436 1.593774 6.773541 3.984436 9.164203 7.171985 1.992218 3.187549 3.187549 6.375097 3.187548 9.961089 0 3.187549-0.796887 6.375097-2.789105 9.164202-1.992218 2.789105-4.781323 5.179767-8.765759 6.773541 5.179767 1.195331 9.164202 3.585992 11.554864 6.773541 2.789105 3.187549 3.984436 7.171984 3.984436 11.554864 0 3.585992-0.796887 6.773541-2.390662 9.961089-1.593774 3.187549-3.585992 5.57821-5.976653 7.171985-2.390661 1.593774-5.57821 2.789105-9.164203 3.585992-3.585992 0.796887-8.367315 1.195331-13.547081 1.195331H575.750973z m92.43891-31.078599h29.086382l-8.765759-21.11751c-2.789105-6.375097-4.781323-11.554864-5.976654-15.5393-1.195331 4.781323-2.789105 9.562646-4.382879 14.343969l-9.96109 22.312841zM643.486381 753.058366l32.672374-75.70428h11.953307l34.664592 75.70428h-12.750195l-9.961089-23.109728h-35.461479L655.439689 753.058366h-11.953308z m87.657588 0v-75.70428h11.554864l45.024124 59.368093V677.354086h10.757977v75.70428H786.92607l-45.024124-59.368094V753.058366H731.143969z m87.657587 0v-75.70428h11.554864v37.453696l43.031907-37.453696h15.539299l-36.258365 30.680155L890.521401 753.058366h-15.140856l-31.078599-38.250584-14.343969 11.953307v26.297277H818.801556z"></path></svg>