<svg viewBox="0 0 1024 1024" version="1.1" xmlns="http://www.w3.org/2000/svg"><path d="M21.136 549.463h123.481l-19.607 33.93H40.744l-19.608-33.93zM82.32 441h39.48l42.841 72.965-20.58 34.385L82.322 441z m-40.115 0H82.32L20.06 548.35 0 513.965 42.205 441z" fill="#359230"></path><path d="M246.405 549.463v-90.108h33.919c12.984 0 22.196 3.772 29.314 10.896 6.699 7.543 9.632 18.859 9.632 32.69 0 14.668-3.769 26.403-10.051 34.37-7.118 7.964-16.75 12.152-29.311 12.152h-33.503z m11.726-80.048v69.152h21.357c8.793 0 15.91-3.355 20.1-8.8 5.027-6.29 7.117-14.67 7.117-25.986 0-11.315-2.51-19.699-7.118-25.567-4.604-5.444-11.306-8.8-20.099-8.8h-21.357z m71.707 80.048V483.42h10.57v12.2c2.113-4.629 4.224-7.993 7.185-10.518 3.38-2.1 6.761-2.943 11.412-2.943h2.538v11.779h-2.537c-5.919 0-10.57 1.682-13.527 4.625-2.958 3.367-4.228 7.992-4.228 14.303v36.596h-11.413z m92.607-21.277c-1.253 7.137-4.597 13.012-9.618 17.21-5.016 4.193-11.29 6.292-18.816 6.292-9.199 0-16.306-2.936-21.742-9.228-5.016-5.88-7.945-14.274-7.945-25.183 0-10.914 2.929-19.721 7.945-26.017 5.436-6.716 12.543-9.656 21.742-9.656 9.202 0 16.31 2.94 21.745 8.815 5.017 5.875 7.527 13.85 7.527 24.342v4.614h-47.25c0.415 7.133 2.09 12.588 5.016 16.368 3.344 4.194 7.946 5.872 13.8 5.872 4.601 0 7.945-1.258 11.29-3.356 2.925-2.516 4.6-5.876 5.435-10.073h10.871z m-10.87-17.622c0-5.875-1.254-10.914-4.183-13.853-3.344-3.773-7.527-5.03-13.381-5.03-5.435 0-9.199 1.257-12.124 5.03-3.344 2.94-5.44 7.978-5.854 13.853h35.541z m30.03 17.576c0.423 4.18 2.109 7.528 4.639 10.033 2.952 2.09 6.746 3.344 12.221 3.344 5.06 0 8.432-0.834 10.962-2.506 2.949-2.09 4.638-4.6 4.638-7.943 0-2.09-0.844-4.181-2.111-5.434-1.682-1.256-4.212-2.51-8.006-3.343l-12.647-3.347c-6.743-1.672-11.38-3.762-14.33-6.268-2.948-2.928-4.215-6.69-4.215-11.705 0-6.272 2.108-10.452 6.742-14.215 4.216-2.924 10.54-4.596 18.126-4.596 8.01 0 14.33 1.672 18.545 5.015 4.639 3.762 7.169 9.196 7.169 14.63v0.419h-10.962c0-3.344-2.104-5.853-4.216-8.359-2.526-1.675-6.32-2.509-10.536-2.509-4.634 0-8.009 0.834-10.117 2.09-2.526 1.672-3.793 4.182-3.793 7.106 0 2.09 0.844 3.762 2.108 5.015 1.685 1.257 4.638 2.09 8.009 2.928l10.958 2.51c8.01 2.086 12.647 4.177 16.019 6.682 2.53 3.347 4.215 7.11 4.215 12.128 0 7.106-2.53 12.12-7.587 15.883-4.638 3.762-11.38 5.433-19.812 5.433-8.428 0-15.173-1.671-19.808-5.849-4.216-4.18-6.324-10.033-6.746-17.142h10.536z m110.72-68.785v90.104h-10.87v-8.383c-2.928 3.772-6.272 5.868-9.616 7.543-3.345 1.676-7.527 2.512-11.29 2.512-8.779 0-15.89-2.931-21.325-9.215-5.435-6.288-7.526-14.67-7.526-25.15 0-10.891 2.51-19.274 7.526-25.561 5.435-6.708 12.546-9.64 21.325-9.64 4.182 0 8.364 0.837 11.708 2.516 3.764 1.676 6.689 4.188 9.199 7.543v-32.269h10.87z m-15.47 38.553c-3.344-4.608-7.942-6.284-14.634-6.284-6.273 0-11.289 2.096-14.214 6.708-3.348 4.188-5.439 10.891-5.439 18.858 0 7.543 2.091 13.827 5.439 17.599 3.763 4.611 8.36 6.703 14.633 6.703 5.854 0 10.452-2.092 14.215-6.703 3.347-4.188 4.6-10.48 4.6-18.859 0-7.96-1.253-14.25-4.6-18.022z m70.312 51.555v-40.546c0-6.275-0.838-10.452-2.523-12.961-2.102-2.925-5.885-3.762-10.089-3.762-6.302 0-11.348 1.675-14.71 5.015-3.783 3.347-5.464 8.78-5.464 15.048v37.206h-10.93v-65.631h10.51v9.615c2.944-3.763 5.884-6.687 9.246-8.359 3.365-2.09 7.566-2.928 12.19-2.928 4.626 0 8.826 0.838 12.192 2.09 3.782 1.672 6.306 4.182 7.983 7.106 0.842 1.257 2.105 2.928 2.523 5.434 0.421 2.09 0.421 5.437 0.421 10.033v42.64h-11.349z m77.811-21.277c-0.844 7.137-4.634 13.012-9.268 17.21-5.474 4.193-11.792 6.292-19.373 6.292-9.264 0-16.423-2.936-21.475-9.228-5.478-5.88-8.003-14.274-8.003-25.183 0-10.914 2.525-19.721 8.003-26.017 5.052-6.716 12.21-9.656 21.475-9.656s16.427 2.94 21.901 8.815 7.58 13.85 7.58 24.342v4.614H638.23c0.422 7.133 2.106 12.588 5.474 16.368 2.947 4.194 8.003 5.872 13.477 5.872 4.63 0 8.002-1.258 11.37-3.356 2.947-2.516 4.635-5.876 5.897-10.073h10.53z m-10.53-17.622c0-5.875-1.684-10.914-4.63-13.853-2.95-3.773-7.585-5.03-13.48-5.03-5.053 0-9.265 1.257-12.212 5.03-3.372 2.94-5.474 7.978-5.896 13.853h36.218z m20.27 38.899V483.42h10.431v12.2c2.083-4.629 4.587-7.993 7.091-10.518 3.337-2.1 6.674-2.943 11.264-2.943h2.918v11.779h-2.504c-5.84 0-10.845 1.682-13.35 4.625-2.918 3.367-5.004 7.992-5.004 14.303v36.596h-10.846z m63.965 0v-90.108h36.095c10.074 0 16.787 1.676 21.405 5.448 5.036 3.352 7.138 9.22 7.138 16.347 0 4.608-0.841 8.803-3.36 11.735-2.1 3.769-5.456 6.284-9.654 7.544 5.456 1.256 9.233 3.772 12.59 7.544 2.94 4.188 4.201 8.383 4.201 14.667 0 7.964-2.52 14.671-7.978 19.28-5.036 5.03-12.59 7.543-21.823 7.543h-38.614z m12.173-52.39h21.406c6.713 0 10.911-0.836 14.268-3.348 2.936-2.52 4.198-5.871 4.198-10.899 0-4.612-1.262-7.964-3.778-9.64-3.356-2.515-7.554-3.771-13.43-3.771h-22.664v27.659z m0 41.494h24.763c6.293 0 11.331-1.256 14.268-4.192 3.356-2.515 5.039-7.127 5.039-12.151 0-5.032-1.683-8.804-5.04-11.74-2.936-2.095-8.391-3.347-15.529-3.347h-23.5v31.43z m106.422 2.092c-3.366 3.77-6.736 6.283-10.943 7.958-3.37 1.675-7.998 2.514-11.786 2.514-6.736 0-12.207-1.674-15.995-5.024-3.789-3.77-5.893-8.382-5.893-14.662 0-5.864 2.104-10.469 5.893-13.822 3.366-3.35 9.259-5.444 16.835-6.7 1.683-0.42 4.21-0.42 7.998-0.839 5.05-0.416 8.838-1.255 10.103-1.675 1.261-0.416 2.105-0.835 2.523-1.675 0.422-0.835 0.422-2.51 0.422-5.444 0-2.93-1.262-5.448-3.367-7.539-2.526-1.678-6.315-2.094-10.942-2.094-5.472 0-9.685 0.84-12.208 2.51-2.527 2.515-3.788 5.445-3.788 9.637h-10.521v-0.839c0-6.283 2.523-11.728 7.154-15.913 4.628-3.353 11.365-5.448 19.363-5.448 8.837 0 15.152 1.679 19.362 4.605 4.628 3.773 6.31 8.382 6.31 15.497v33.089c0 2.93 0.423 4.609 0.844 5.448 0.84 0.836 1.684 1.252 3.367 1.252h1.261c0.844-0.416 1.265-0.416 1.687-0.416v8.378c-1.687 0.42-2.527 0.835-3.788 0.835h-2.527c-3.788 0-6.314-0.416-8.42-2.094-1.682-1.675-2.944-3.77-2.944-7.12v-0.42z m-0.843-24.71c-2.945 1.258-7.998 2.513-15.575 3.352-2.1 0.836-10.942 2.146-13.887 4.606-2.945 2.459-2.948 4.608-2.948 7.538 0 3.35 1.261 5.864 3.366 7.539 2.105 1.675 4.632 2.51 8.842 2.51 5.893 0 10.52-1.251 14.73-4.185 3.367-3.353 5.472-6.7 5.472-11.728v-9.633z m68.778 33.514v-40.546c0-6.275-1.26-10.452-3.362-12.961-2.102-2.925-5.043-3.762-10.09-3.762-6.302 0-10.928 1.675-14.71 5.015-2.945 3.347-4.626 8.78-4.626 15.048v37.206h-11.35v-65.631h10.932v9.615c2.099-3.763 5.043-6.687 8.826-8.359 3.362-2.09 7.567-2.928 11.77-2.928 5.044 0 9.248 0.838 12.61 2.09 3.362 1.672 6.306 4.182 7.987 7.106 0.843 1.257 1.681 2.928 2.103 5.434 0.42 2.09 0.838 5.437 0.838 10.033v42.64h-10.928z m23.165 0v-90.108h10.873v54.065l29.693-29.758h13.387l-24.26 23.89 24.26 41.91h-12.549l-19.239-33.946-11.292 10.896v23.05h-10.873z" fill="#000000"></path></svg>