<svg viewBox="0 0 1024 1024" version="1.1" xmlns="http://www.w3.org/2000/svg"><path d="M429.171 414l65.493 65.493V414h-65.493z m25.072 9.752h30.642v30.65l-30.642-30.65z" fill="#0075BF"></path><path d="M567.797 508.61c15.457 6.575 32.98 14.019 32.98 37.974 0 21.375-14.592 35.738-36.287 35.738-22.137 0-38.63-13.671-43.038-35.666l-0.07-0.343 13.421-3.22 0.078 0.364c2.728 13.183 13.204 27.376 29.762 27.376 12.665 0 22.208-9.799 22.208-22.8 0-16.309-13.018-21.619-26.8-27.239-15.423-6.28-31.376-12.786-31.376-35.003 0-20.287 14.388-34.456 35.004-34.456 18.163 0 32.199 12.3 37.548 32.914l0.084 0.331-12.592 3.908-0.095-0.348c-4.55-15.195-10.67-25.32-25.756-25.32-11.363 0-20.28 9.246-20.28 21.035 0 14.047 12.243 19.253 25.21 24.756z m87.29-7.026h-20.128v56.233c0 4.917 0.056 8.797 2.254 11 1.495 1.487 3.887 2.18 7.536 2.18 3.807 0 7.04-0.37 9.893-1.116l0.445-0.119v9.883l-0.232 0.089c-4.995 1.783-8.9 2.587-12.681 2.587-7.087 0-12.108-1.577-15.346-4.83-4.8-4.807-5.155-12.833-5.155-21.528 0-0.736 0.012-4.552 0.012-4.552v-49.827h-13.53V490.26h13.53v-28.794H634.959v28.794h20.128v11.325z m36.49 68.122c12.011 0 21.375-9.894 24.923-14.247v-25.45c-1.203 0.35-7.604 2.204-7.604 2.204-12.083 3.463-30.335 8.69-30.335 23.055 0 6.83 5.343 14.438 13.016 14.438z m40.585 9.552l0.205 0.494h-14.54s-1.101-9.611-1.248-10.863c-6.797 6.597-14.91 13.433-25.495 13.433-13.78 0-24.994-11.562-24.994-25.762 0-24.178 23.874-30.498 43.06-35.58l3.585-0.96 3.765-1.05v-4.713c0-9.545-6.186-15.242-16.553-15.242-8.2 0-15.01 4.388-21.446 13.835l-0.21 0.304-9.437-7.02 0.2-0.287c8.538-12.226 18.636-18.166 30.893-18.166 11.987 0 29.826 7.46 29.826 28.022v44.06l0.05 2.865c0.079 5.56 0.163 11.32 2.34 16.63z m59.66-91.578c15.301 0 23.06 10.24 23.06 30.434v61.638h-13.273v-58.42l0.028-2.759c0.091-6.23 0.206-13.299-3.55-17.108-1.844-1.869-4.415-2.775-7.878-2.775-7.796 0-17.818 7.744-22.51 13.29v67.772h-13.278v-89.494h13.278v8.78l0.01-0.006c7.256-5.84 14.11-11.352 24.112-11.352z m61.005-33.77h0.358v125.842h-13.274V453.91h12.916z m74.86 72.212c0.003-0.17 0.003-0.325 0.003-0.495 0-6.996-2.38-16.232-7.863-21.872-3.068-3.146-6.697-4.74-10.79-4.74-13.117 0-20.424 13.898-20.726 27.107h39.376z m5.227 29.441l9.581 6.324-0.116 0.273c-5.178 12.244-17.89 20.161-32.375 20.161-22.85 0-35.95-17.246-35.95-47.319 0-30.073 13.1-47.322 35.95-47.322 8.472 0 15.491 2.955 20.865 8.776 7.041 7.627 10.997 20.142 10.997 34.292 0 2.093-0.089 4.222-0.265 6.374l-0.024 0.331H887.99c0.1 21.616 8.353 33.543 23.301 33.543 11.703 0 19.365-11.56 21.431-15.102l0.191-0.33z m89.364-65.304h0.486l-29.612 92.775c-4.047 12.777-11.19 27.445-30.784 27.445-3.666 0-6.46-0.691-9.774-1.792l-0.292-0.102 2.057-11.307 0.376 0.108c2.353 0.673 4.671 1.278 7.149 1.278 12.347 0 16.538-10.3 19.755-20.87-0.078-0.23-30.724-87.535-30.724-87.535h13.48s23.2 66.577 23.883 68.545l21.824-68.545h12.176z" fill="#A6A7A7"></path><path d="M99.398 453.91h0.36v125.842H85.833V467.504L55.545 579.752H44.206L13.913 467.507v112.245H0V453.91h22.534s27.132 102.18 27.34 102.953c0.206-0.782 26.862-102.953 26.862-102.953h22.662z m56.014 117.087c19.724 0 22.674-22.555 22.674-35.994 0-13.443-2.95-35.988-22.674-35.988-19.73 0-22.677 22.545-22.677 35.988 0 13.439 2.946 35.994 22.677 35.994z m0-83.317c22.848 0 35.949 17.25 35.949 47.323s-13.101 47.319-35.949 47.319-35.948-17.246-35.948-47.32c0-30.073 13.1-47.322 35.948-47.322z m99.601 1.285h0.355v12.193l-0.404-0.063c-16.084-2.2-24.487 14.972-29.39 27.958v50.699h-13.277V490.26h13.277v18.613c4.996-10.428 11.5-19.908 24.606-19.908h4.833z m117.048 80.74c12.016 0 21.383-9.893 24.93-14.246v-25.45c-1.205 0.35-7.608 2.2-7.608 2.2-12.075 3.467-30.328 8.693-30.328 23.06 0 6.83 5.34 14.437 13.006 14.437z m40.592 9.553l0.203 0.494h-14.54s-1.101-9.611-1.242-10.863c-6.8 6.597-14.923 13.433-25.491 13.433-13.786 0-25-11.562-25-25.762 0-24.178 23.875-30.498 43.054-35.58l3.587-0.96 3.768-1.05v-4.713c0-9.545-6.195-15.242-16.557-15.242-8.197 0-15.012 4.388-21.443 13.835l-0.21 0.304-9.434-7.02 0.194-0.287c8.534-12.226 18.64-18.166 30.893-18.166 11.99 0 29.829 7.46 29.829 28.022v44.06l0.05 2.851c0.078 5.572 0.155 11.333 2.339 16.644z m59.188-91.578c15.31 0 23.069 10.24 23.069 30.434v61.638h-13.282v-58.42l0.034-2.759c0.093-6.23 0.208-13.299-3.552-17.108-1.84-1.869-4.418-2.775-7.875-2.775-7.801 0-17.823 7.744-22.513 13.29v67.772H434.44v-89.494h13.282v8.78l0.012-0.006c7.26-5.84 14.104-11.352 24.107-11.352zM296.72 538.088c12.1 0 19.613-7.932 19.613-20.712 0-9.702-4.846-21.036-18.487-21.036-12.534 0-19.292 10.918-19.292 21.196 0 10.217 6.24 20.552 18.166 20.552z m-7.342 34.64c-7.592 1.441-16.456 5.715-16.456 12.995 0 12.518 19.728 12.518 26.213 12.518 9.19 0 24.605-1.774 24.605-13.644 0-6.395-6.759-9.99-20.665-10.98-0.014 0-13.697-0.877-13.697-0.889z m47.929-75.645h-4.726c-3.526 0-5.798 0.182-8.974 1.887 3.509 4.934 5.413 11.137 5.514 18.4 0.003 0.157 0.003 0.316 0.003 0.47 0 8.312-3.054 15.979-8.629 21.625-5.623 5.692-13.321 8.825-21.684 8.825-4.84 0-9.377-0.86-14.26-2.695l-1.268 0.995c-2.681 2.054-6.018 4.61-6.018 8.1 0 3.798 7.829 4.495 17.726 5.386 17.53 1.563 41.54 3.71 41.54 25.331 0 15.383-13.155 23.521-38.041 23.521-34.625 0-38.36-15.779-38.36-22.557 0-9.418 8.308-14.394 14.944-17.356-5.004-2.105-10.602-5.892-10.602-12.399 0-5.733 3.13-8.628 6.75-11.978 1.414-1.3 2.867-2.665 4.25-4.279-6.701-7.897-9.707-13.209-9.707-23.305 0-17.918 13.357-30.918 31.757-30.918 7.13 0 13.697 2.125 19.531 6.332v0.006c0.037 0.024 0.064 0.05 0.093 0.074 5.82-4.313 12.59-7.488 20.161-6.686v11.221z" fill="#231916"></path></svg>