<svg viewBox="0 0 1024 1024" version="1.1" xmlns="http://www.w3.org/2000/svg"><path d="M224 0h576c123.6 0 224 100.4 224 224v576c0 123.6-100.4 224-224 224H224c-123.6 0-224-100.4-224-224V224C0 100.4 100.4 0 224 0z" fill="#FFFFFF"></path><path d="M436 428l60 56v-56h-60z m24 8h28v28l-28-28z" fill="#0075BF"></path><path d="M559.6 510.8c13.2 6 28 12.4 28 33.6 0 18.8-12.4 31.6-30.8 31.6-18.8 0-32.8-12-36.8-31.6v-0.4l11.6-2.8v0.4c2.4 11.6 11.2 24.4 25.2 24.4 10.8 0 18.8-8.8 18.8-20 0-14.4-11.2-19.2-22.8-24-13.2-5.6-26.8-11.2-26.8-30.8 0-18 12.4-30.4 29.6-30.4 15.6 0 27.2 10.8 32 29.2v0.4l-10.8 3.6v-0.4c-4-13.6-9.2-22.4-22-22.4-9.6 0-17.2 8-17.2 18.8 0.4 11.2 10.8 16 22 20.8zM640 504h-18.8v50.4c0 4.4 0 8 2 10 1.6 1.2 3.6 2 7.2 2s6.4-0.4 9.2-0.8h0.4v8.8h-0.4c-4.8 1.6-8.4 2.4-12 2.4-6.8 0-11.2-1.6-14.4-4.4-4.4-4.4-4.8-11.6-4.8-19.2V504H596v-10h12.8V468h12.4v25.6h18.8v10.4z m27.2 56.8c10.8 0 19.2-8.8 22.4-12.8v-22.4c-1.2 0.4-6.8 2-6.8 2-10.8 3.2-27.6 7.6-27.6 20.4 0 6 4.8 12.8 12 12.8z m36.8 8.4v0.4h-13.2s-0.8-8.4-1.2-9.6c-6 6-13.6 12-23.2 12-12.4 0-22.8-10.4-22.8-22.8 0-21.6 21.6-27.2 38.8-31.6l3.2-0.8s2.8-0.8 3.6-0.8v-4c0-8.4-5.6-13.6-14.8-13.6-7.6 0-13.6 4-19.6 12.4v0.4l-8.4-6.4v-0.4c7.6-10.8 16.8-16 28-16 10.8 0 27.2 6.8 27.2 24.8v41.6c0 4.8 0.4 9.6 2.4 14.4z m52-77.2c13.2 0 20 8.8 20 26.4V572h-11.6V518.8c0-5.6 0-11.6-3.2-14.8-1.6-1.6-3.6-2.4-6.8-2.4-6.8 0-15.2 6.8-19.2 11.6V572H724v-77.6h11.6v7.6c6-5.2 12-10 20.4-10z m55.6-28l0.4 112h-12v-112h11.6z m67.6 58v-0.4c0-6.4-2-14.4-6.8-19.6-2.8-2.8-6-4.4-9.6-4.4-11.6 0-18 12.4-18 24h34.4z m4.4 26.4l8.4 5.6v0.4c-4.4 10.8-15.6 18-28.4 18-20 0-31.6-15.2-31.6-42s11.6-42 31.6-42c7.6 0 13.6 2.8 18.4 7.6 6 6.8 9.6 18 9.6 30.4 0 2 0 3.6-0.4 5.6v0.4h-46.8c0 19.2 7.2 29.6 20.4 29.6 10 0 16.8-10.4 18.8-13.6z m76-56.4h0.4l-26.4 83.2c-3.6 11.6-10 24.8-27.6 24.8-3.2 0-5.6-0.8-8.8-1.6h-0.4l2-10h0.4c2 0.8 4 1.2 6.4 1.2 10.8 0 14.8-9.2 17.6-18.8 0-0.4-27.2-78.8-27.2-78.8h12s20.8 60 21.2 61.6c0.4-1.6 19.6-61.6 19.6-61.6h10.8z" fill="#A6A7A7"></path><path d="M147.6 460l0.4 112h-11.6v-100c-0.8 2.4-25.6 100-25.6 100h-9.6s-24.8-97.6-25.6-100v100H64v-112h18.8s22.8 90.8 23.2 91.6c0-0.8 22.8-91.6 22.8-91.6h18.8zM200 565.6c17.6 0 20-20.8 20-33.6 0-12.4-2.8-33.6-20-33.6-17.6 0-20 20.8-20 33.6 0 12.4 2.4 33.6 20 33.6z m0-77.6c20.4 0 32 16 32 44s-11.6 44-32 44-32-16-32-44 11.6-44 32-44z m87.6 4l0.4 10.8h-0.4c-13.6-2-20.4 13.2-24.4 24.8V572H252v-78.8h11.2v16.4c4-9.2 9.6-17.6 20.4-17.6h4z m103.6 72.4c10.8 0 19.2-9.2 22.4-13.2v-23.6c-1.2 0.4-6.8 2-6.8 2-10.8 3.2-27.6 8-27.6 21.6 0 6 4.8 13.2 12 13.2z m36.8 8.8v0.4h-13.2s-0.8-8.8-1.2-10c-6 6-13.6 12.4-23.2 12.4-12.4 0-22.8-10.8-22.8-24 0-22.4 21.6-28.4 38.8-33.2l3.2-0.8s2.8-0.8 3.6-0.8v-4.4c0-8.8-5.6-14-14.8-14-7.6 0-13.6 4-19.6 12.8v0.4l-8.4-6.4v-0.4c7.6-11.2 16.8-16.8 28-16.8 10.8 0 27.2 6.8 27.2 26V558c0 4.8 0.4 10.4 2.4 15.2z m48-85.2c13.2 0 20 9.2 20 27.6V572h-11.6v-55.6c0-5.6 0-12-3.2-15.6-1.6-1.6-3.6-2.4-6.8-2.4-6.8 0-15.2 7.2-19.2 12V572H444v-81.6h11.6v8c6-5.2 12-10.4 20.4-10.4z m-153.6 47.6c10 0 16.4-7.2 16.4-18.8 0-8.8-4-19.2-15.2-19.2-10.4 0-16 10-16 19.2-0.4 9.2 4.8 18.8 14.8 18.8z m-6 31.6c-6.4 1.2-13.6 5.2-13.6 12 0 11.2 16.4 11.2 21.6 11.2 7.6 0 20.4-1.6 20.4-12.4 0-6-5.6-9.2-17.2-10l-11.2-0.8z m39.6-68.8h-4c-2.8 0-4.8 0-7.6 1.6 2.8 4.4 4.4 10 4.4 16.8v0.4c0 7.6-2.4 14.4-7.2 19.6-4.8 5.2-11.2 8-18 8-4 0-7.6-0.8-12-2.4-0.4 0-1.2 0.8-1.2 0.8-2.4 2-4.8 4-4.8 7.2 0 3.6 6.4 4 14.8 4.8 14.4 1.6 34.4 3.2 34.4 23.2 0 14-10.8 21.2-31.6 21.2-28.8 0-32-14.4-32-20.4 0-8.4 6.8-13.2 12.4-15.6-4-2-8.8-5.2-8.8-11.2 0-5.2 2.4-8 5.6-10.8 1.2-1.2 2.4-2.4 3.6-4-5.6-7.2-8-12-8-21.2 0-16.4 11.2-28 26.4-28 6 0 11.2 2 16 5.6 4.8-4 10.4-6.8 16.8-6v10.4z" fill="#231916"></path></svg>