<svg viewBox="0 0 1024 1024" version="1.1" xmlns="http://www.w3.org/2000/svg"><path d="M890.585 487.645c0.6 3.7 2.4 12.3 5.1 16.2 5.5-4.2 8.1-9.7 9.5-11.6 0.3-0.4 0.8-0.4 1.1-0.3 1.9 1 8.1 5.4 8.1 5.4 0.5 0.5-4.4 10.3-12.2 15.6 1.6 2.9 8.4 8.5 15.4 10.2 0.3 0.1 0.5 0.2 0.5 0.7v11.6c-33.4-7.2-38.1-40.2-38.8-47.9h-2.3v30.3c0 4.5 1.2 4.8 1.6 5 1.5 0.9 3.9 0.9 8.3 0.9h8c0.4 0 0.7 0.3 0.7 0.6v10.4h-9.9c-7 0-12.1-0.1-15.1-1.9-4.2-2.5-4.6-7.3-4.6-12v-77h49v43.8h-24.4z m-326.4-27.5v11.3h35.5c0.4 0 0.5 0.2 0.5 0.5v44.5c0 9.7-7.7 14.4-14.2 14.9h-6.2c-0.3 0-0.5-0.1-0.5-0.4-0.2-2.2-1.2-10-1.2-10 4.5 0 9.9-0.4 9.9-5.5v-33h-23.8v53h-12.7v-53h-23v47.8h-12.5v-58.8h35.5v-11.3h-38v-10.9h35.9c-1.5-2.4-4.5-5.3-4.5-5.3s9.7-2.8 12-3.8c0.6-0.3 1.1 0 1.3 0.4 1 1.5 3.8 3.8 6.7 8.7h37.2v10.9h-37.9z m-133.4 8.8c3 1.3 8.7 4 8.7 4-0.2 0.4-2.1 6.9-6.5 12.5v48.8h-12.3v-35.6s-7.8 8.2-13.2 11.2v-14.2c0-0.2 0.1-0.5 0.2-0.5 14-10.4 19.4-23.1 20.9-26.2h-3.2v-8.9h-18v-10.9h18v-7.2s9 0.3 11.5 0.4c0.6 0 0.9 0.4 0.9 0.8v6h26.4v-7.2s9.2 0.3 11.7 0.4c0.4 0 0.7 0.2 0.7 0.5v6.3h20v10.9h-20v8.8h-12.4v-8.8h-26.4v8.8h-7z m-103.4 3.7h9.7c0.3 0 0.4 0.2 0.4 0.5 0.2 3.7 1.3 26.3 5.3 44h-10.7c-0.3 0-0.5-0.2-0.6-0.5-2.7-17-3.8-32-4.2-39.4v58h-12v-46.5s-3.5 20.9-13.4 37.3v-26.2c7.1-21.1 7.7-33.1 7.7-33.1h-7.7v-11.2h13.4v-13.6s9.1 0.4 11.5 0.5c0.3 0 0.5 0.2 0.5 0.6v12.4h12.3v11.2h-12.3v6z m-111.3 6.5h17.7c1-1.3 1.2-2.1 1.4-2.1h11.1c0 0.1-0.2 1.1-0.5 2.1h18v-15.8c-1.9 4.9-4.9 10.6-11.3 15.3v-11.5c4-4.1 5.2-8.4 5.8-11h-5.6v-8.8h11.1v-4.8s6.8 0.2 8.5 0.3c0.3 0 0.4 0.2 0.4 0.4v4.1h11.9v8.8h-5.7c0 3.3 3.5 8.7 6.1 11.3v11.2c-8.4-6-11.6-11-12.5-16v16.6h12.5v9.8h-19c4.8 2.2 12.5 3.2 18.7 3.6 0.1 0 0.4 0.1 0.4 0.4v8.9c-4.4 0.2-13.8-1.3-21.4-4.2l1.1 3.6c-4.9 1.4-10.4 2.3-16.7 2.7v2.5h29.1v8.8h-29.1v2.2h37v9h-37v0.4c0 3.5-0.9 5.7-2.8 7.6-2.8 2.7-7.5 2.9-12.8 2.9H226.285c-0.3 0-0.6-0.2-0.6-0.4-0.2-1.8-0.8-8.3-0.8-8.3h4.8c3.5 0 5.6 0.2 6.2-0.6 0.6-0.7 0.4-1.4 0.4-1.4v-0.1h-40.4v-9h40.4v-2.2h-32.5v-8.8h32.5v-2.6h-2c-4.1 0-8.5-0.1-13.3-0.1-0.2 0-0.3-0.1-0.3-0.4 0-1.6 0.1-6.1 0.1-6.1-6.5 1.9-14.6 4.7-24.8 5.7v-9.5c0-0.2 0.2-0.4 0.3-0.4 9.9-0.9 16.1-2.4 21.4-4.3h-21.8v-9.8h11.3v-15.8c-1.9 4.9-5 10.1-11.3 14.8v-11.8c4-4.1 5.2-7.2 5.8-9.8h-5.6v-9.2h11v-4.8s6.8 0.2 8.5 0.3c0.3 0 0.4 0.2 0.4 0.4v4.1h11.9v9.2h-5.5c0 3.3 3.5 8.3 6.1 10.9v11.2c-8.4-6-11.6-11-12.5-16v16.5z m569.1-36.6v81.2h27.2v11.1h-88.5v-11.1h27.1v-81.2h11.9v81.2h10.6v-81.2h11.7z m-532.8 17v7c0 0.1-0.1 0.2-0.2 0.2-0.6 0.2-3.2 0.5-4.4 1 2.2 0.5 3.7 1.4 4.2 1.7 0.1 0.1 0.2 0.2 0.2 0.3v8.6c-4.1-2.9-8-4.9-11.4-6.8-6.7 3.5-12.1 6.8-12.2 6.8v-7.8l0.1-0.3c0.5-0.4 1.8-1.3 4.7-2.4-1.7-0.6-3.8-0.7-5.3-1-0.1 0-0.2 0-0.2-0.3v-6.9c3.7 0.6 8.9 1.5 12.8 3.4 3.4-1.8 8-3.2 11.7-3.5z m137.6 16.6c0 1.1-0.2 19.6-16.8 36.9 5.1 4.1 10.6 6 18.1 8.7 0.1 0.1 0.4 0.3 0.4 0.6v13.1c-11.1-3.5-19.8-9-26.6-15-6.7 5.4-15.3 10.5-26.1 14.7v-12.6c0-0.5 0.4-1 0.6-1.1 7.8-3 14-7.1 16.2-9.1-10.1-11.6-12.5-20.7-13.4-23.7-0.1-0.4 0.1-0.8 0.4-0.9 2.1-0.8 9.1-4.3 9.1-4.3 0.1 0.2 5.5 15.1 12.7 21.8 6.4-4.9 11.8-19.2 12.2-24.2h-34.6v-11h17.9v-9.8h-19.4v-11.1h19.4v-7.2s7.6 0.3 10 0.5c0.4 0 0.6 0.3 0.6 0.6v6.2h19.6v11.1h-19.6v9.7h19.4l-0.1 6.1z m-136.2 18.2c-8.4-2.3-13.3-4.6-13.6-4.9-4.7 3-12.2 5.1-14.8 6 10.4 0.6 19.8 0.6 28.4-1.1z m231.2 29.4v-11.4s9 0.4 11.2 0.5c0.3 0 0.5 0.2 0.5 0.5v21.5h-28.2c-6.1 0-11-1.1-13.5-3.7-3.2-3.3-2.5-5.7-2.4-10.4v-4.3c-4.6 1.4-14.9 2-14.9 2v-11.6c0-0.3 0.3-0.6 0.5-0.6 5.3-0.5 10.1-1.7 14.5-3.2v-32.2l11.9 1.2v25.9c16.1-9.5 21.3-23.4 21.4-23.6 0 0 7.9 5.4 10 6.8 0.2 0.2 0.3 0.5 0.2 0.7-1.7 3-11.8 20.6-31.6 30.3v5.5c0 2.3 0 3.1 1.5 4.7 1.1 1.2 2.8 1.3 7.7 1.3h11.2z m167.9-6.4h19.3v-9.7h-19.3v9.7z m27.1-54.7h12.9s-1.1 3.6-5.2 8h19.3v48.7c0 13.7-10.5 17.4-18.7 17.4v-9.8c0-0.6 0.4-0.9 0.6-0.9 4.3 0 7.7-1.5 7.7-8.4v-4c-8.7-9-26.6-23.7-29-25.7 0 0 6.2-4.9 7.9-6.2 0.2-0.2 0.6-0.2 0.8 0 2.2 1.6 13.5 10.6 20.3 16.9v-17h-65.3v17.6c9.1-8.9 15.7-15.9 17.3-17.5 0.2-0.2 0.5-0.2 0.7-0.1 2 1.2 9.3 6 9.3 6-0.1 0-4.9 4.1-11.5 10.3h32.4l2.4 2.1v27.2h-29v4.1h-9.6v-30c-4.3 4.1-7.5 8.1-12.1 13v20.4h-10.3v-64h17.2c-3.9-4.6-6.1-7.3-6.5-8h13.5c0.8 0 1.3 0.3 1.5 0.5 1.9 2.3 4.7 5.1 7.1 7.6h19.5c1.5-1.5 4.2-5 5.8-7.4 0.2-0.4 0.7-0.8 1-0.8z m161.9-5.8c-0.3 2.4-2.2 9.2-2.2 9.2h22.3v10.3h-12.9v12.9h12.9v9.9h-12.9v18.3c0 1.4 0.2 3.4 1.2 4.6 1.2 1.3 5.7 1.3 9.8 1.3 0.3 0 0.6 0.2 0.6 0.5v10.3h-7.6c-9.8 0-10.9-0.7-13.1-3.3-1.7-1.9-2-4.9-2-8v-23.6h-12.5v-9.9h12.5v-12.9h-2.6c-4 6.5-9.9 9.8-9.9 9.8v-16.5c0-0.5 0.4-1.2 0.5-1.5 6.7-10.4 6.3-26.8 6.3-27h11.1c0 0.2 0 2.5-0.3 4.8h18.8v10.8h-20z m127.5-1.7v-10.7h49.6v10.7h-49.6z m54.6 11.9v10.7h-13.3v43.2c0 5.6-1.9 8.6-3.5 10.2-4.4 4.4-13.3 3.6-26.1 3.6h-2.3c-0.7 0-1-0.3-1.1-0.8-0.2-2-1.7-10.2-1.7-10.2h9.7c9.4 0 13.1 0.8 13.1-5.3V477.745h-34.5v-10.7h59.7z m-120-13.3h-27.2v7.2h24.6v9.7h-24.6v7h27.2v-23.9z m27.1 14.3c12.2-9.5 18-22.9 19.8-26.8l10.3 4c-3.9 11.1-15.1 28.8-30.1 37.4v-14.6z m23.1-2.3l9.5 5.9s-3.7 6.5-9.6 14.7v47.8h-11.2v-37.6s-4.2 4.7-11.8 9.2v-15s6-3.6 12.5-11c7.5-8.5 10.6-13.9 10.6-14z m-207.7 53.4h-10.3c-0.4 0-0.6-0.3-0.7-0.5-6.4-19.3-7.8-48.7-7.8-57.6v-12.2h11c0.5 0 0.7 0.2 0.7 0.6v11.7c0.1 36.2 7.1 58 7.1 58z m-83.1-79c0.6-0.3 1.1 0 1.3 0.4 1 1.5 3.8 3.8 6.7 8.7h36.8v10.9h-88.5v-10.9h36.3c-1.5-2.4-4.5-5.3-4.5-5.3s9.7-2.8 11.9-3.8z m126.4 79s7.1-21.8 7.1-58.1v-11.6c0-0.3 0.3-0.6 0.7-0.6h11v12.3c0 8.9-1.4 38.3-7.8 57.6 0 0.2-0.3 0.5-0.7 0.5h-10.3z m-561.9-59.6c0.2-0.2 2-4.3 6.3-8.2-1.9-0.9-5.6-1.6-5.6-1.6-0.1 0-0.2-0.2-0.2-0.3v-6.9c4.6 0.8 9 2.1 12.2 4 3.3-2 7.5-3.4 12-4v6.5c0 0.5-0.2 0.6-0.3 0.6-2.1 0.4-4.4 1.1-5.2 1.7 4.3 3.9 5.6 7.9 5.9 8.2h-9.2c-0.2 0-0.3-0.1-0.3-0.2-0.9-1.3-1.7-3.1-2.9-3.8-1.2 1.1-2.6 3.3-3 3.9-0.1 0.1-0.1 0.2-0.5 0.2h-9.2z" fill="#1B1918"></path><path d="M202.385 567.745c0.6 0.1 1.2 0.2 2.2 0.2 3.5 0 5.6-1.7 5.6-4.7 0-2.6-1.8-4.2-5.1-4.2-1.3 0-2.2 0.1-2.7 0.2v8.5z m-6.5-13c2-0.3 4.8-0.6 8.8-0.6 4 0 6.9 0.8 8.8 2.3 1.8 1.4 3.1 3.8 3.1 6.6s-0.9 5.2-2.7 6.8c-2.2 2.1-5.5 3-9.4 3-0.9 0-1.6 0-2.2-0.1v10.3h-6.4v-28.3z m34.9 18.8c-3.4 0-6 0.8-6 3.2 0 1.6 1.1 2.4 2.5 2.4 1.6 0 2.9-1 3.3-2.3 0.1-0.3 0.1-0.7 0.1-1.1v-2.2z m0.8 9.7l-0.4-2.1h-0.1c-1.4 1.6-3.5 2.5-5.9 2.5-4.2 0-6.7-3-6.7-6.3 0-5.3 4.8-7.9 12.1-7.8v-0.3c0-1.1-0.6-2.6-3.8-2.6-2.1 0-4.3 0.7-5.7 1.5l-1.2-4.1c1.4-0.8 4.3-1.8 8-1.8 6.9 0 9.1 4 9.1 8.8v7.1c0 2 0.1 3.8 0.3 5h-5.7z m10.3-13.8c0-2.6-0.1-4.8-0.2-6.7h5.7l0.3 2.9h0.1c0.9-1.3 3-3.3 6.5-3.3 4.3 0 7.5 2.8 7.5 9v12.4h-6.5v-11.6c0-2.7-0.9-4.5-3.3-4.5-1.8 0-2.9 1.2-3.3 2.4-0.2 0.4-0.3 1-0.3 1.6v12h-6.5v-14.2z m23.1 9.9l6.6-8.2c1.2-1.4 2.1-2.4 3.3-3.7v-0.1h-9.2v-5.1h17.1v3.9l-6.3 7.8c-1.2 1.4-2.2 2.7-3.4 3.8v0.1h10.1v5.1h-18.2v-3.6z m21.3-26.4h6.4v11.8h0.1c0.7-0.9 1.5-1.6 2.5-2.1 0.9-0.5 2.1-0.8 3.3-0.8 4.1 0 7.2 2.8 7.2 9.1v12.1h-6.4v-11.4c0-2.7-0.9-4.6-3.3-4.6-1.7 0-2.7 1.1-3.2 2.3-0.2 0.4-0.2 1-0.2 1.4v12.3h-6.4v-30.1z m24.7 30.1v-20.6h6.5v20.6h-6.5z m6.7-26.3c0 1.8-1.4 3.2-3.5 3.2s-3.4-1.4-3.4-3.2c0-1.8 1.3-3.2 3.4-3.2 2.1 0 3.5 1.4 3.5 3.2z m5-3.8h6.4v11.8h0.1c0.7-0.9 1.5-1.6 2.5-2.1 0.9-0.5 2.1-0.8 3.3-0.8 4.1 0 7.2 2.8 7.2 9.1v12.1h-6.4v-11.4c0-2.7-0.9-4.6-3.3-4.6-1.7 0-2.7 1.1-3.2 2.3-0.2 0.4-0.2 1-0.2 1.4v12.3h-6.4v-30.1z m44.4 23.6c0 2.7 0.1 5 0.2 6.7h-5.5l-0.3-2.9h-0.1c-0.8 1.3-2.7 3.4-6.4 3.4-4.1 0-7.2-2.6-7.2-9.1v-12.3h6.4v11.2c0 3 1 4.9 3.2 4.9 1.8 0 2.8-1.2 3.2-2.3 0.2-0.4 0.2-0.9 0.2-1.4v-12.4h6.4v14.2z m16.3-3c-3.4 0-6 0.8-6 3.2 0 1.6 1.1 2.4 2.5 2.4 1.6 0 2.9-1 3.3-2.3 0.1-0.3 0.1-0.7 0.1-1.1v-2.2z m0.7 9.7l-0.4-2.1h-0.1c-1.3 1.6-3.5 2.5-5.9 2.5-4.2 0-6.7-3-6.7-6.3 0-5.3 4.8-7.9 12.1-7.8v-0.3c0-1.1-0.6-2.6-3.7-2.6-2.1 0-4.3 0.7-5.7 1.5l-1.2-4.1c1.4-0.8 4.3-1.8 8-1.8 6.9 0 9.1 4 9.1 8.8v7.1c0 2 0.1 3.8 0.3 5h-5.8z m40-0.8c-1.2 0.6-3.9 1.2-7.3 1.2-9.9 0-14.9-6.2-14.9-14.3 0-9.8 6.9-15.2 15.6-15.2 3.3 0 5.9 0.7 7 1.3l-1.3 5.1c-1.3-0.6-3.1-1.1-5.4-1.1-5.1 0-9.1 3.1-9.1 9.5 0 5.7 3.4 9.3 9.1 9.3 1.9 0 4.1-0.4 5.4-0.9l0.9 5.1z m3.6 0.6v-20.6h6.5v20.6h-6.5z m6.8-26.3c0 1.8-1.4 3.2-3.5 3.2s-3.4-1.4-3.4-3.2c0-1.8 1.3-3.2 3.4-3.2 2.1 0 3.4 1.4 3.5 3.2z m12.3-0.1v5.9h4.7v4.7h-4.7v7.5c0 2.5 0.6 3.6 2.6 3.6 0.8 0 1.5-0.1 1.9-0.2v4.9c-0.9 0.3-2.4 0.5-4.2 0.5-2.1 0-3.8-0.7-4.9-1.8-1.2-1.2-1.8-3.2-1.8-6.1v-8.4h-2.8v-4.7h2.8v-4.5l6.4-1.4z m13.1 5.7l3.1 10.2c0.3 1.2 0.8 2.8 1 3.9h0.1c0.3-1.1 0.6-2.7 0.9-3.9l2.6-10.2h7l-4.9 13.7c-3 8.2-5 11.5-7.4 13.6-2.3 1.9-4.7 2.6-6.3 2.8l-1.4-5.5c0.8-0.1 1.8-0.5 2.8-1.1 1-0.5 2.1-1.5 2.7-2.6 0.2-0.3 0.3-0.6 0.3-0.9 0-0.2 0-0.6-0.3-1.1l-7.7-19h7.5z m47.1 20.1c-1.2 0.6-3.9 1.2-7.3 1.2-9.9 0-14.9-6.2-14.9-14.3 0-9.8 6.9-15.2 15.6-15.2 3.3 0 5.9 0.7 7 1.3l-1.3 5.1c-1.3-0.6-3.1-1.1-5.4-1.1-5.1 0-9.1 3.1-9.1 9.5 0 5.7 3.4 9.3 9.1 9.3 1.9 0 4.1-0.4 5.4-0.9l0.9 5.1z m8.7-9.5c0 3.5 1.5 6.1 4.2 6.1 2.5 0 4.1-2.5 4.1-6.1 0-3-1.2-6.1-4.1-6.1-3 0-4.2 3.1-4.2 6.1z m14.8-0.2c0 7.5-5.3 10.9-10.8 10.9-6 0-10.6-3.9-10.6-10.5s4.3-10.8 10.9-10.8c6.4 0 10.5 4.3 10.5 10.4z m4-3.3c0-2.6-0.1-4.8-0.2-6.7h5.4l0.3 2.8h0.1c0.9-1.3 2.7-3.3 6.3-3.3 2.7 0 4.8 1.4 5.7 3.5h0.1c0.8-1.1 1.7-1.9 2.7-2.5 1.1-0.7 2.4-1 3.9-1 4 0 7 2.8 7 9v12.3h-6.3v-11.4c0-3-1-4.8-3-4.8-1.5 0-2.5 1-3 2.3-0.2 0.5-0.2 1.2-0.2 1.7v12.2h-6.4v-11.7c0-2.7-0.9-4.4-3-4.4-1.6 0-2.6 1.3-3 2.4-0.2 0.5-0.3 1.1-0.3 1.6v12.2h-6.3v-14.2z m36.4 0c0-2.6-0.1-4.8-0.2-6.7h5.4l0.3 2.8h0.1c0.9-1.3 2.7-3.3 6.3-3.3 2.7 0 4.8 1.4 5.7 3.5h0.1c0.8-1.1 1.7-1.9 2.7-2.5 1.1-0.7 2.4-1 3.9-1 4 0 7 2.8 7 9v12.3h-6.3v-11.4c0-3-1-4.8-3-4.8-1.5 0-2.5 1-3 2.3-0.2 0.5-0.2 1.2-0.2 1.7v12.2h-6.3v-11.7c0-2.7-0.9-4.4-3-4.4-1.6 0-2.6 1.3-3 2.4-0.2 0.5-0.3 1.1-0.3 1.6v12.2h-6.2v-14.2z m49.2 1.3c0-1.5-0.7-4.1-3.6-4.1-2.7 0-3.8 2.4-3.9 4.1h7.5z m-7.5 4.3c0.2 2.6 2.8 3.9 5.8 3.9 2.2 0 3.9-0.3 5.6-0.8l0.8 4.3c-2.1 0.8-4.6 1.3-7.4 1.3-6.9 0-10.9-4-10.9-10.4 0-5.2 3.2-10.9 10.3-10.9 6.6 0 9.1 5.2 9.1 10.2 0 1.1-0.1 2-0.2 2.5h-13.1z m17.3-5.4c0-3.1-0.1-5.1-0.2-6.9h5.4l0.2 3.8h0.2c1-3 3.5-4.3 5.5-4.3 0.6 0 0.9 0 1.3 0.1v6.1c-0.5-0.1-1-0.2-1.7-0.2-2.3 0-3.9 1.3-4.3 3.3-0.1 0.4-0.1 0.9-0.1 1.5v10.6h-6.3v-14z m31.2 13.1c-1.2 0.5-3.3 0.9-5.8 0.9-6.8 0-11.1-4-11.1-10.5 0-6 4.2-10.9 12-10.9 1.7 0 3.6 0.3 5 0.8l-1 4.7c-0.8-0.3-1.9-0.6-3.6-0.6-3.4 0-5.6 2.4-5.6 5.7 0 3.8 2.6 5.7 5.7 5.7 1.5 0 2.7-0.2 3.7-0.6l0.7 4.8z m3.3 0.3v-20.6h6.5v20.6h-6.5z m6.8-26.3c0 1.8-1.4 3.2-3.5 3.2s-3.4-1.4-3.4-3.2c0-1.8 1.3-3.2 3.4-3.2 2.1 0 3.4 1.4 3.5 3.2z m16 16.8c-3.4 0-6 0.8-6 3.2 0 1.6 1.1 2.4 2.5 2.4 1.6 0 2.9-1 3.3-2.3 0.1-0.3 0.1-0.7 0.1-1.1v-2.2z m0.8 9.7l-0.4-2.1h-0.1c-1.4 1.6-3.5 2.5-5.9 2.5-4.2 0-6.7-3-6.7-6.3 0-5.3 4.8-7.9 12.1-7.8v-0.3c0-1.1-0.6-2.6-3.7-2.6-2.1 0-4.3 0.7-5.7 1.5l-1.2-4.1c1.4-0.8 4.3-1.8 8-1.8 6.9 0 9.1 4 9.1 8.8v7.1c0 2 0.1 3.8 0.3 5h-5.8z m10.2-0.2v-30.1h6.3v30.1h-6.3z m27.1-4.2c0.6 0.1 1.4 0.1 2.5 0.1 2.9 0 5.6-1.1 5.6-4.1 0-2.9-2.6-4-5.8-4h-2.2v8z m0-12.6h2.1c3.4 0 5.3-1.4 5.3-3.5s-1.7-3.3-4.6-3.3c-1.4 0-2.2 0.1-2.8 0.2v6.6z m-6.4-10.9c1.7-0.3 5.2-0.6 8.4-0.6 4 0 6.4 0.4 8.5 1.6 2 1.1 3.5 3 3.5 5.6 0 2.5-1.5 4.9-4.7 6.1v0.1c3.3 0.9 5.7 3.3 5.7 7 0 2.6-1.2 4.6-3 6-2.1 1.6-5.6 2.6-11.3 2.6-3.2 0-5.6-0.2-7-0.4v-28z m36.2 18.2c-3.4 0-6 0.8-6 3.2 0 1.6 1.1 2.4 2.5 2.4 1.6 0 2.9-1 3.3-2.3 0.1-0.3 0.1-0.7 0.1-1.1v-2.2z m0.7 9.7l-0.4-2.1h-0.1c-1.4 1.6-3.5 2.5-5.9 2.5-4.2 0-6.7-3-6.7-6.3 0-5.3 4.8-7.9 12.1-7.8v-0.3c0-1.1-0.6-2.6-3.8-2.6-2.1 0-4.3 0.7-5.7 1.5l-1.2-4.1c1.4-0.8 4.3-1.8 8-1.8 6.9 0 9.1 4 9.1 8.8v7.1c0 2 0.1 3.8 0.3 5h-5.7z m10.3-13.8c0-2.6-0.1-4.8-0.2-6.7h5.7l0.3 2.9h0.1c0.9-1.3 3-3.3 6.5-3.3 4.3 0 7.5 2.8 7.5 9v12.4h-6.5v-11.6c0-2.7-0.9-4.5-3.3-4.5-1.8 0-2.9 1.2-3.3 2.4-0.2 0.4-0.3 1-0.3 1.6v12h-6.5v-14.2z m32 1.6c0.5-0.8 1-1.7 1.5-2.5l4.1-6.2h7.6l-7.3 8.4 8.4 12.4h-7.8l-4.9-8.5-1.6 2v6.5h-6.3v-30.1h6.3v18z" fill="#868789"></path><path d="M104.1 517.8c-1.8 1.8-7.7 7.8-10 10-0.6 0.6-1.4 0.7-1.9 0.1-2.8-2.8-11.4-11.4-14.5-14.6-0.5-0.5-0.5-1 0.1-1.6 3-3 11.5-11.6 14.8-14.8 0.3-0.3 0.8-0.4 1.2 0 2.3 2.3 8.1 8.1 10.1 10.2 0.5 0.5 1.2 0.6 1.9 0.3 5.7-2.4 22.9-9.5 22.9-9.5-5.8-14-19.5-23.8-35.6-23.8-21.3 0-38.5 17.3-38.5 38.6s17.2 38.6 38.5 38.6c16 0 29.8-9.8 35.6-23.8 0 0-17.5-7.3-23.3-9.7-0.5-0.3-1-0.3-1.3 0" fill="#C5C7C8"></path><path d="M105.1 512.8s13.8 5.7 23.2-2.5c11.8-10.3 7.3-29.2-4-40.4-16.6-16.6-49.1-15.9-69.7 1.7-27.2 23.2-25.6 67.6 6.9 88.2 30.4 19.3 76.3 6.1 92.2-38.3 3.5-9.9 1.2-15.8 4.8-15.1 0 0 7.2 30.4-16.8 51.9-7.4 6.6-8.5 20.5-32.4 30.9-9.5 4.2-25.5-0.8-38.7-2-11.9-1-22.3 0.4-30.6-3.3-12.1-5.3-16.2-21.2-21.9-32.2C12.3 540.6 0 521.1 0 521.1c2.3-34.8 18.4-69.6 56.1-85.2 52.9-21.9 108.4 20.8 91 64.5-4.2 10.6-15 16.3-23.9 16.6-10.8 0.3-18.1-4.2-18.1-4.2" fill="#E30016"></path></svg>