<svg viewBox="0 0 1024 1024" version="1.1" xmlns="http://www.w3.org/2000/svg"><path d="M224 0h576c123.6 0 224 100.4 224 224v576c0 123.6-100.4 224-224 224H224c-123.6 0-224-100.4-224-224V224C0 100.4 100.4 0 224 0z" fill="#FFFFFF"></path><path d="M615.2 544.8c-7.6 7.6-33.2 33.2-42.4 42.8-2.8 2.8-5.6 2.8-8.4 0.4-12-12-48.4-48.8-62-62.8-2.4-2.4-2.4-4.4 0.4-7.2 12.8-12.8 49.2-49.6 63.2-63.6 1.2-1.2 3.6-1.6 5.2 0 9.6 9.6 34.4 34.8 43.2 43.6 2 2 4.8 2.4 8 1.2 24.4-10.4 98-40.8 98-40.8-24.8-60-83.2-102.4-151.6-102.4-91.2 0-164.8 74.4-164.8 166s73.6 166 164.4 166c68.4 0 127.2-42.4 151.6-102.4L620.8 544c-2.4-0.8-4.4-0.8-5.6 0.8" fill="#C5C7C8"></path><path d="M620 522.4s58.8 24.4 99.2-10.8c50.4-44.4 31.2-124.8-16.8-173.2-70.8-71.2-209.2-68.4-297.2 7.2-116 99.6-109.2 289.6 29.2 377.6 129.6 82.4 325.2 26.4 393.2-164 14.8-42 5.2-67.6 20.4-64.8 0 0 30.4 130-72 222-31.6 28.4-36 87.6-138 132.4-40.4 18-108.4-3.6-164.8-8.4-50.8-4.4-94.8 1.6-130.4-14-51.6-22.4-69.2-90.4-93.6-137.6-24.8-47.2-77.2-130.8-77.2-130.8 9.6-148.8 78.8-298 239.2-364.8 225.2-93.6 462 89.2 388 276-18 45.2-64.4 70-102 71.2-46 1.6-77.2-18-77.2-18" fill="#E30016"></path></svg>