<svg viewBox="0 0 1024 1024" version="1.1" xmlns="http://www.w3.org/2000/svg"><path d="M224 0h576c123.6 0 224 100.4 224 224v576c0 123.6-100.4 224-224 224H224c-123.6 0-224-100.4-224-224V224C0 100.4 100.4 0 224 0z" fill="#FFFFFF"></path><path d="M510 713.6c-38.8 39.2-73.6 72.8-88.8 86-42.8 36-67.2 48.8-93.2 48.4-26-0.4-98-52-132-91.2-20.8-24.4-26-47.6-22.4-65.6 4.8-23.6 32-91.6 37.2-160.8 5.6-68.8-15.2-113.2-32.4-169.2-17.2-56 4-73.2 9.6-89.6 5.6-16 102.8-84.8 130.4-92.4 27.6-7.6 50.4-0.8 61.6 9.6 6 5.6 67.2 66 130 128 62.8-61.6 123.6-122.4 130-128 11.6-10.4 34.4-17.2 61.6-9.6 27.6 7.6 124.4 76 130.4 92.4 5.6 16 26.8 33.2 9.6 89.6-17.2 56-37.6 100.4-32.4 169.2 5.6 68.8 32.4 136.8 37.2 160.8 3.6 18-1.2 41.6-22.4 65.6-34 39.2-105.6 90.8-132 91.2-26 0.4-50.4-12.4-93.2-48.4-15.2-13.2-50-46.8-88.8-86z m67.6-68.8c49.6 51.6 96.8 98.4 103.6 99.6 15.2 2.8 64-44.8 64-44.8s2-15.2-2.8-35.2c-8-34-32-79.6-34-138.4-3.2-88.8 21.2-117.6 32-171.2 2.4-12.4 7.2-28-2-38-9.6-10-27.6-21.2-36.4-26.8-17.6-10.8-23.2-7.6-37.6 6.4L578.4 384c28 27.6 51.6 50.4 64 61.6 46.4 42.8 33.2 85.6 25.6 100.8-3.2 6.8-42.8 49.6-90.4 98.4z m-136-260.8L355.2 296.4c-14-14.4-19.6-17.6-37.6-6.4-8.8 5.6-26.8 16.4-36.4 26.8-9.6 10-4.8 25.6-2 38 10.8 53.6 35.2 82.4 32 171.2-2 58.8-26 104.4-34 138.4-4.8 20.4-2.8 35.2-2.8 35.2s48.8 47.6 64 44.8c6.8-1.2 54-48.4 103.6-99.6-47.2-48.8-87.2-91.6-90.4-98.4-7.6-15.2-20.8-58 25.6-100.8 12.8-11.2 36-34 64.4-61.6z m68.4 69.6l-57.6 58.8s24.8 26.4 57.6 61.2c33.2-34.8 57.6-61.2 57.6-61.2l-57.6-58.8z" fill="#E30016"></path></svg>