<svg viewBox="0 0 1024 1024" version="1.1" xmlns="http://www.w3.org/2000/svg"><path d="M239.78854 597.512l11.437-15.404-10.081-14.159h4.651l5.368 7.585c1.114 1.57 1.906 2.781 2.374 3.628a39.16 39.16 0 0 1 2.34-3.366l5.952-7.847h4.252l-10.384 13.932 11.19 15.63h-4.838l-7.439-10.544a55.223 55.223 0 0 1-1.293-1.975c-0.661 1.073-1.13 1.81-1.411 2.216l-7.418 10.304h-4.7z m33.668 0v-29.563h4.106v29.563h-4.106z m12.317 0v-29.563h3.962l15.328 23.21v-23.21h3.703v29.563H304.80654l-15.328-23.23v23.23h-3.704z m32.847 0v-29.563h3.883v12.142h15.228V567.95h3.882v29.563h-3.882V583.58h-15.228v13.932h-3.883z m50.324-30.384h3.874v17.265c0 2.998-0.334 5.383-1.001 7.15-0.667 1.767-1.865 3.2-3.6 4.306-1.737 1.113-4.01 1.663-6.828 1.663-2.736 0-4.982-0.48-6.718-1.447-1.742-0.96-2.988-2.358-3.73-4.188-0.748-1.83-1.116-4.32-1.116-7.484v-17.265h3.866v17.244c0 2.594 0.238 4.507 0.708 5.731 0.47 1.232 1.286 2.177 2.43 2.845 1.15 0.668 2.56 1.002 4.22 1.002 2.845 0 4.873-0.66 6.085-1.982 1.205-1.315 1.81-3.847 1.81-7.596v-17.244z m13.728 30.384v-29.563h4.105v29.563h-4.105z m31.204 0v-29.563h13.219c2.659 0 4.679 0.27 6.06 0.799 1.382 0.53 2.486 1.466 3.319 2.808 0.826 1.35 1.236 2.836 1.236 4.46 0 2.1-0.68 3.861-2.055 5.3-1.368 1.439-3.486 2.354-6.346 2.746 1.049 0.496 1.84 0.985 2.382 1.473 1.152 1.047 2.242 2.361 3.276 3.93l5.187 8.047h-4.964l-3.944-6.154c-1.152-1.769-2.103-3.131-2.853-4.067-0.743-0.943-1.41-1.604-2-1.976a5.976 5.976 0 0 0-1.798-0.791c-0.45-0.09-1.18-0.138-2.2-0.138h-4.576v13.126h-3.943z m4.106-17.245h8.366c1.773 0 3.17-0.171 4.17-0.515 1.006-0.343 1.766-0.89 2.286-1.64 0.52-0.75 0.78-1.564 0.78-2.447 0-1.29-0.5-2.352-1.513-3.185-1.006-0.833-2.601-1.246-4.785-1.246h-9.304v9.033z m47.04-13.139h3.873v17.265c0 2.998-0.334 5.383-1.001 7.15-0.667 1.767-1.865 3.2-3.6 4.306-1.737 1.113-4.01 1.663-6.828 1.663-2.736 0-4.982-0.48-6.718-1.447-1.742-0.96-2.988-2.358-3.73-4.188-0.748-1.83-1.116-4.32-1.116-7.484v-17.265h3.866v17.244c0 2.594 0.238 4.507 0.708 5.731 0.47 1.232 1.286 2.177 2.43 2.845 1.15 0.668 2.56 1.002 4.22 1.002 2.845 0 4.873-0.66 6.085-1.982 1.205-1.315 1.81-3.847 1.81-7.596v-17.244z m12.905 30.384v-29.563h13.22c2.658 0 4.678 0.27 6.06 0.799 1.381 0.53 2.485 1.466 3.318 2.808 0.827 1.35 1.236 2.836 1.236 4.46 0 2.1-0.68 3.861-2.055 5.3-1.367 1.439-3.485 2.354-6.345 2.746 1.048 0.496 1.84 0.985 2.38 1.473 1.153 1.047 2.244 2.361 3.278 3.93l5.186 8.047h-4.964l-3.944-6.154c-1.152-1.769-2.103-3.131-2.853-4.067-0.742-0.943-1.41-1.604-2-1.976a5.976 5.976 0 0 0-1.798-0.791c-0.45-0.09-1.18-0.138-2.2-0.138h-4.575v13.126h-3.944z m4.106-17.245h8.366c1.773 0 3.17-0.171 4.17-0.515 1.006-0.343 1.766-0.89 2.286-1.64 0.52-0.75 0.78-1.564 0.78-2.447 0-1.29-0.499-2.352-1.512-3.185-1.007-0.833-2.602-1.246-4.786-1.246h-9.304v9.033z m24.635 17.245l11.123-29.563h4.126l11.85 29.563h-4.368l-3.377-8.955h-12.107l-3.175 8.955h-4.072z m8.212-12.318h10.675l-3.29-8.45c-0.996-2.565-1.743-4.675-2.227-6.331a38.053 38.053 0 0 1-1.7 5.834l-3.458 8.947z m23.814 12.318v-29.563h4.004v26.073h14.883v3.49h-18.887z m65.862-10.803l3.938 0.985c-0.824 3.188-2.312 5.624-4.45 7.307-2.146 1.676-4.762 2.51-7.862 2.51-3.204 0-5.807-0.643-7.814-1.929-2.007-1.293-3.536-3.16-4.58-5.603-1.046-2.45-1.572-5.077-1.572-7.882 0-3.058 0.588-5.726 1.772-8.004 1.183-2.279 2.865-4.01 5.051-5.193 2.18-1.184 4.582-1.772 7.205-1.772 2.976 0 5.474 0.746 7.502 2.244 2.028 1.499 3.44 3.599 4.235 6.315l-3.868 0.903c-0.692-2.141-1.689-3.694-3.004-4.673-1.308-0.978-2.955-1.464-4.948-1.464-2.284 0-4.187 0.54-5.723 1.621-1.537 1.088-2.616 2.539-3.232 4.365a17.297 17.297 0 0 0-0.935 5.638c0 2.504 0.367 4.68 1.1 6.547 0.742 1.861 1.883 3.257 3.44 4.18a9.716 9.716 0 0 0 5.052 1.382c2.201 0 4.063-0.63 5.592-1.88 1.53-1.26 2.56-3.128 3.1-5.597z m8.865-4c0-4.874 1.336-8.69 4.016-11.444 2.68-2.756 6.138-4.137 10.378-4.137 2.772 0 5.277 0.65 7.502 1.942 2.226 1.299 3.926 3.104 5.095 5.422 1.169 2.31 1.75 4.943 1.75 7.876 0 2.98-0.61 5.647-1.841 7.992-1.232 2.352-2.974 4.13-5.228 5.34-2.26 1.21-4.688 1.812-7.298 1.812-2.835 0-5.361-0.664-7.586-2.004-2.233-1.333-3.92-3.158-5.067-5.47a16.23 16.23 0 0 1-1.721-7.329z m4.105 0.054c0 3.556 0.933 6.35 2.8 8.395 1.872 2.046 4.215 3.069 7.034 3.069 2.873 0 5.236-1.03 7.089-3.096 1.852-2.066 2.786-4.998 2.786-8.794 0-2.396-0.403-4.49-1.195-6.281-0.793-1.792-1.954-3.178-3.478-4.167-1.53-0.982-3.242-1.476-5.141-1.476-2.706 0-5.028 0.947-6.975 2.849-1.946 1.895-2.92 5.066-2.92 9.5z m31.205 14.749v-29.563h6.002l7.124 20.932c0.659 1.947 1.143 3.406 1.438 4.377a196.53 196.53 0 0 1 1.605-4.742l7.208-20.567h5.364v29.563h-3.842v-24.744l-8.751 24.744h-3.597l-8.709-25.164v25.164h-3.842z m36.131 0v-29.563h6.003l7.123 20.932c0.66 1.947 1.143 3.406 1.438 4.377 0.343-1.074 0.877-2.657 1.606-4.742l7.207-20.567h5.364v29.563h-3.842v-24.744l-8.75 24.744h-3.598l-8.708-25.164v25.164h-3.843z m36.953 0v-29.563h21.48v3.49h-17.55v9.051h16.436v3.469h-16.436v10.063h18.242v3.49h-22.172z m28.741 0v-29.563h13.219c2.659 0 4.679 0.27 6.06 0.799 1.382 0.53 2.486 1.466 3.32 2.808 0.825 1.35 1.235 2.836 1.235 4.46 0 2.1-0.68 3.861-2.055 5.3-1.368 1.439-3.486 2.354-6.346 2.746 1.049 0.496 1.84 0.985 2.382 1.473 1.152 1.047 2.242 2.361 3.276 3.93l5.187 8.047h-4.964l-3.944-6.154c-1.152-1.769-2.103-3.131-2.853-4.067-0.743-0.943-1.41-1.604-2-1.976a5.977 5.977 0 0 0-1.798-0.791c-0.45-0.09-1.18-0.138-2.2-0.138h-4.575v13.126h-3.944z m4.927-17.245h8.366c1.773 0 3.17-0.171 4.17-0.515 1.006-0.343 1.766-0.89 2.286-1.64 0.52-0.75 0.78-1.564 0.78-2.447 0-1.29-0.5-2.352-1.512-3.185-1.007-0.833-2.602-1.246-4.786-1.246h-9.304v9.033z m49.439 6.442l3.937 0.985c-0.823 3.188-2.311 5.624-4.45 7.307-2.145 1.676-4.761 2.51-7.862 2.51-3.204 0-5.806-0.643-7.813-1.929-2.007-1.293-3.537-3.16-4.581-5.603-1.045-2.45-1.571-5.077-1.571-7.882 0-3.058 0.588-5.726 1.771-8.004 1.184-2.279 2.866-4.01 5.052-5.193 2.18-1.184 4.582-1.772 7.205-1.772 2.976 0 5.474 0.746 7.502 2.244 2.028 1.499 3.44 3.599 4.235 6.315l-3.869 0.903c-0.691-2.141-1.688-3.694-3.003-4.673-1.308-0.978-2.955-1.464-4.948-1.464-2.284 0-4.187 0.54-5.724 1.621-1.536 1.088-2.615 2.539-3.231 4.365a17.297 17.297 0 0 0-0.935 5.638c0 2.504 0.367 4.68 1.1 6.547 0.741 1.861 1.883 3.257 3.44 4.18a9.716 9.716 0 0 0 5.052 1.382c2.201 0 4.063-0.63 5.592-1.88 1.53-1.26 2.56-3.128 3.1-5.597z m11.328 10.803v-29.563h4.106v29.563h-4.106z m9.033 0l11.122-29.563h4.126l11.85 29.563h-4.367l-3.378-8.955h-12.107l-3.175 8.955h-4.071z m8.211-12.318h10.676l-3.29-8.45c-0.997-2.565-1.744-4.675-2.227-6.331a38.016 38.016 0 0 1-1.7 5.834l-3.459 8.947z m24.635 12.318v-29.563h4.004v26.073h14.883v3.49h-18.887z m43.523 0v-29.563h11.017c2.241 0 4.039 0.303 5.393 0.895a6.925 6.925 0 0 1 3.185 2.767c0.765 1.24 1.155 2.54 1.155 3.903 0 1.26-0.342 2.45-1.026 3.565-0.677 1.115-1.708 2.017-3.082 2.705 1.777 0.523 3.137 1.418 4.094 2.678 0.957 1.266 1.435 2.76 1.435 4.48 0 1.384-0.294 2.671-0.875 3.862-0.58 1.19-1.298 2.106-2.153 2.753-0.854 0.647-1.927 1.129-3.212 1.46-1.285 0.33-2.864 0.495-4.736 0.495h-11.195z m3.284-18.066h6c1.622 0 2.791-0.108 3.501-0.316 0.93-0.272 1.634-0.721 2.106-1.354 0.472-0.633 0.71-1.424 0.71-2.373 0-0.898-0.22-1.695-0.658-2.379-0.446-0.689-1.079-1.157-1.892-1.41-0.821-0.254-2.23-0.38-4.225-0.38h-5.542v8.212z m0 13.96h7.575c1.304 0 2.218-0.05 2.742-0.145 0.929-0.173 1.701-0.456 2.324-0.853 0.624-0.39 1.134-0.97 1.538-1.722 0.397-0.76 0.602-1.627 0.602-2.618 0-1.157-0.29-2.162-0.871-3.023-0.581-0.853-1.389-1.454-2.424-1.801-1.027-0.34-2.515-0.513-4.45-0.513h-7.036v10.675z m22.993 4.106l11.122-29.563h4.126l11.85 29.563h-4.367l-3.378-8.955H935.17654l-3.175 8.955h-4.072z m8.212-12.318h10.675l-3.29-8.45c-0.997-2.565-1.744-4.675-2.227-6.331a38.08 38.08 0 0 1-1.7 5.834l-3.458 8.947z m25.456 12.318v-29.563h3.961l15.328 23.21v-23.21h3.704v29.563h-3.961l-15.329-23.23v23.23h-3.703z m32.026 0v-29.563h3.815v14.661l14.305-14.66h5.164l-12.085 11.976 12.615 17.586h-5.03l-10.254-14.964-4.715 4.722v10.242h-3.815z m-726.653-126.86h-8.707c1.484 5.502 2.907 8.26 4.27 8.26 1.348 0 2.832-2.758 4.437-8.26z m20.137 67.735l-0.091-72.383c0.408-6.507 3.694-9.7 9.841-9.58h27.511v5.187c0 4.618-2.104 6.926-6.298 6.926l-17.655-0.074 0.076 9.4h13.49c6.678 0.105 10.024 3.658 10.024 10.63v49.894h-13.657V494.37c0-3.389-1.666-5.098-4.966-5.098h-4.89v40.854l-0.077 8.261h-13.308z m-44.893-30.84h5.148c3.422 0 5.163 1.605 5.224 4.829l-0.44 24.947h-10.553l0.621-29.775z m27.148-2.638v33.478h-14.02v-28.29c0-3.464-2.015-5.188-6.027-5.188h-7.994v-10.794h14.02v-1.41c0-2.054-1.272-3.073-3.816-3.073h-10.916v-10.72h6.48l-2.3-8.26h-3.468v-10.72h14.02v-4.483h14.899v4.483h13.93v10.72h-3.816l-2.392 8.26h6.207v10.72h-14.807v4.483h14.096v10.794h-14.096z m2.21 3.074l6.208-0.09c2.317-0.285 3.997 0.885 5.057 3.523l1.075 26.177h-11.098l-1.242-29.61z m152.17-7.556v11.604h-47.928l-11.814 14.228 34.801-0.18c2.26-0.87 2.855-2.19 1.786-3.944l-2.411-5.007h15.645l10.73 21.08c-23.895 0-45.913 0.18-72.702 0.18-6.212-1.17-8.288-5.218-6.273-12.13l12.074-14.227H341.28654v-11.604h82.455z m-8.761-39.355l9.57 25.487h-4.014v7.196h-75.663v-7.196h-5.724l12.776-30.93h15.66l-9.661 26.537h49.012l-4.121-11.08c-0.992-2.667-3.633-4.032-8.045-4.032h-31.344l4.16-11.425 38.724-0.18c4.289 0 7.254 1.85 8.67 5.623z m57.968 0.27l0.091-5.893h15.248v5.892h24.733c7.261 0 10.892 3.868 10.892 11.59v12.923h-14.523v-6.507c0-4.333-1.98-6.491-5.945-6.491h-17.29c-4.72 12.473-10.83 21.603-18.334 27.406v24.497c0 1.41 0.696 2.114 2.118 2.114h12.858v11.514h-19.242c-6.913-0.06-10.362-3.433-10.362-10.104v-20.03l-13.04 4.392 0.091-14.677c14.78-4.678 24.764-13.059 29.968-25.112h-14.28v12.998h-14.613v-12.998c0-7.677 4.008-11.515 12.04-11.515h19.59z m50.434 32.773l0.363 0.255v12.473h-21.45l21.617 31.185h-17.714l-21.36-30.825c-2.435-7.271-0.09-11.634 6.989-13.088h31.555z m17.775-15.673l3.547 0.083c5.744 0.134 4.417 7.856 4.566 13.765 0.407 16.123-0.608 25.779-0.2 41.903l-7.913 0.088v-55.84z m38.595-5.5h-11.494v64.624h-14.037l-0.01-64.624h-13.054v-11.476h13.064v-6.838h14.037v6.838h11.494v11.476z m26.283-12.461v-5.853h14.123v5.853h4.758v11.509h-4.758v56.986c-0.06 2.072-0.858 3.962-2.394 5.671-1.762 1.951-3.704 2.92-5.812 2.92h-14.213v-10.633h5.028c1.13-0.06 1.99-0.363 2.56-0.968 0.498-0.528 0.713-1.272 0.708-2.223l-0.282-51.84-23.538 0.087v-11.51h23.82z m-9.761 26.647l4.828 33.194h-13.543l-5.344-37.774h8.2c3.386 0 5.343 1.521 5.859 4.58zM701.80654 521v15.98h-40.805V521c0-5.78 3.013-8.686 9.04-8.686h22.71c5.92 0 8.934 2.905 9.055 8.686z m-18.275 0.704h-8.16v5.886h12.067v-2.98c0-1.933-1.303-2.906-3.907-2.906z m0.53-28.245h13.4c1.362 3.968 4.103 7.024 9.493 9.66v11.486c-11.825-2.98-19.048-9.869-22.893-21.146z m37.262-2.546v38.773c0 5.511-2.605 8.372-7.813 8.611l-6.556 0.09v-41.17c0-4.147-2.604-6.23-7.813-6.23h-42.758v46.951H642.01654v-47.295c0-7.428 3.603-11.112 10.825-11.052h3.195l-4.436-7.908h-11.9v-11.396h34.066v-4.838h16.155v4.838h33.537v11.396h-12.43l-4.255 7.908h4.785c6.51 0 9.766 3.774 9.766 11.322z m-26.8-19.23h-26.436c2.544 5.511 7.025 8.252 13.445 8.252s10.75-2.74 12.991-8.252z m-29.086 21.94h13.84c-4.619 11.413-11.72 18.406-22.894 20.982v-11.502c4.74-1.872 7.222-5.031 9.054-9.48z m75.265 44.764v-11.67h22.09v-8.41h-12.945l-8.69-51.816h12.945l8.69 46.37v-57.412h14.294v71.267h10.371V455.45h14.369v58.639l9.326-47.597h12.946l-7.45 45.757c-1.362 4.04-4.405 6.06-9.144 6.06h-5.678v8.408h22.635v5.791c0 3.92-2.513 5.88-7.54 5.88h-76.219z m132.37-8.35v-59.385c0-9.31 5.056-13.943 15.17-13.883h19.698c9.584 0 14.339 4.722 14.278 14.152v21.17l0.09 8.336h-34.959v24.947c0 1.41 0.711 2.114 2.134 2.114h7.813v10.9h-15.882c-5.557-0.06-8.343-2.849-8.343-8.352z m27.949-46.387h-13.672v5.892h20.59v-2.114c0-2.519-2.315-3.778-6.918-3.778z m-13.672-9.49h20.59v-2.459c0-2.743-2.315-4.123-6.918-4.123h-13.672v6.582z m-17.291 2.908v12.384h-7.01v10.195h7.722v12.384h-7.723v12.473c0 1.695 0.712 2.55 2.135 2.55h5.588v11.333H857.09654c-4.784-0.584-7.358-3.748-7.706-9.49v-9.22c0-5.097-1.954-7.646-5.86-7.646h-3.467v-12.384h9.327v-4.228c0-3.973-1.726-5.967-5.148-5.967h-2.756v-12.384h28.571z m-29.373-21.619h-0.348 14.11v6.942h15.792v11.424h-22.635c-4.785-0.645-7.086-3.718-6.92-9.22v-9.146z m81.351 49.46l0.363 0.27v11.769h-12.687l14.111 21.17h-14.914l-13.127-19.85c-2.134-7.032-0.348-11.484 5.33-13.359h20.924z m93.006-12.652v37.527c0 2.05-0.681 3.95-2.044 5.7-1.483 1.93-3.406 2.903-5.768 2.903h-22.712l-0.09-10.967h13.58c1.121 0 1.863-0.285 2.211-0.883 0.485-0.584 0.712-1.302 0.712-2.185v-22.967c0-6.075-3.286-9.128-9.842-9.128h-19.698v-11.566H1024.00654v11.566h-8.964z m-40.547-25.062v-11.672h47.905v11.672H974.49654z m-19.864-11.746h14.459c-3.725 8.873-8.403 15.651-14.02 20.334h14.02c-3.785 8.709-8.752 15.173-14.914 19.377h7.722v34.893c0 5.551-2.543 8.334-7.631 8.334h-6.829v-37.885l-7.1 1.75-0.091-14.633c5.677-2.05 10.174-5.701 13.49-10.953-3.483 2.394-7.949 4.429-13.4 6.135l-0.09-14.29c5.39-2.289 10.174-6.643 14.384-13.062z m-383.911 22.993l3.547 0.083c5.744 0.134 4.417 7.856 4.566 13.765 0.408 16.123-0.607 25.779-0.2 41.903l-7.913 0.088v-55.84z" fill="#1B1918"></path><path d="M105.52654 575.4c-12.07 12.117-22.87 22.632-27.613 26.64-13.384 11.308-20.962 15.319-29.148 15.176-8.185-0.143-30.671-16.26-41.26-28.545C0.94954 581.062-0.61546 573.737 0.51154 568.1c1.487-7.439 9.968-28.7 11.673-50.27 1.704-21.57-4.759-35.411-10.112-52.968-5.354-17.556 1.19-22.913 2.974-27.971 1.784-5.059 32.121-26.484 40.746-28.864 8.625-2.38 15.763-0.298 19.332 2.975 1.898 1.74 20.865 20.559 40.403 39.815 19.539-19.256 38.506-38.074 40.403-39.815 3.57-3.273 10.708-5.356 19.333-2.975 8.625 2.38 38.962 23.805 40.746 28.864 1.785 5.058 8.328 10.415 2.974 27.971-5.353 17.557-11.816 31.397-10.112 52.967 1.705 21.57 10.185 42.832 11.672 50.271 1.128 5.638-0.437 12.963-6.995 20.572-10.588 12.285-33.074 28.402-41.26 28.545-8.185 0.143-15.763-3.868-29.147-15.176-4.744-4.008-15.543-14.523-27.614-26.64z m21.186-21.569c15.47 15.995 30.072 30.584 32.218 30.963 4.791 0.846 20.073-14.077 20.073-14.077s0.615-4.7-0.857-11.071c-2.454-10.62-9.95-24.883-10.622-43.296-1.016-27.808 6.596-36.785 10.02-53.596 0.783-3.844 2.292-8.761-0.68-11.835-3.06-3.163-8.636-6.59-11.445-8.334-5.519-3.426-7.294-2.425-11.705 2.062l-26.758 27.214c8.89 8.688 16.348 15.893 20.255 19.484 14.574 13.39 10.41 26.78 8.03 31.542-1.05 2.102-13.641 15.577-28.529 30.944z m-42.615-81.97l-26.758-27.214c-4.411-4.487-6.187-5.488-11.705-2.062-2.809 1.744-8.385 5.171-11.445 8.334-2.972 3.074-1.464 7.991-0.68 11.835 3.424 16.811 11.036 25.788 10.02 53.596-0.672 18.413-8.169 32.676-10.622 43.296-1.472 6.371-0.857 11.07-0.857 11.07s15.282 14.924 20.073 14.078c2.146-0.38 16.747-14.968 32.218-30.963-14.888-15.367-27.48-28.842-28.53-30.944-2.38-4.761-6.543-18.152 8.03-31.542 3.908-3.59 11.365-10.796 20.256-19.484z m21.43 21.795L87.24254 512.25s7.81 8.37 18.283 19.425c10.474-11.055 18.284-19.425 18.284-19.425l-18.284-18.595z" fill="#E30016"></path></svg>