<svg viewBox="0 0 1024 1024" version="1.1" xmlns="http://www.w3.org/2000/svg"><path d="M340 582.973h21.714c4.714 0 8.433 1.187 11.089 3.56 2.457 2.234 3.718 5.236 3.718 9.005 0 2.793-0.664 5.166-1.925 7.12-1.262 1.815-3.055 3.142-5.445 4.119 3.12 0.628 5.445 1.954 7.038 3.979 1.527 1.954 2.324 4.677 2.324 8.027 0 5.026-1.66 8.726-4.913 11.1-2.79 1.954-6.774 2.931-11.82 2.931H340v-49.84z m6.796 6.797v14.726h12.192c3.405 0 5.789-0.65 7.22-1.805 1.361-1.227 2.11-3.176 2.11-5.847 0-2.454-0.749-4.259-2.11-5.342-1.5-1.155-3.815-1.732-7.084-1.732h-12.328z m0 21.522v15.858h13.338c3.025 0 5.431-0.5 7.15-1.5 2.2-1.285 3.3-3.286 3.3-6.143 0-2.929-0.825-5-2.406-6.286-1.65-1.286-4.263-1.929-7.838-1.929h-13.544z m63.528-28.319h8.875l18.217 49.841h-8.341l-4.338-12.495h-19.952l-4.338 12.495h-8.34l18.217-49.84z m-3.492 30.585h15.858l-7.756-21.523h-0.277l-7.825 21.523z m39.646-30.585h7.611l22.965 35.95h0.26v-35.95h7.677v49.841h-7.416l-23.225-36.438h-0.26v36.438h-7.612v-49.84z m83.25 0h9.892l-20.988 21.36 24.13 28.481H532.2l-18.85-23.105-5.814 5.933v17.172h-7.82v-49.84h7.82v23.524l22.19-23.525z m61.708-2.265c7.107 0 12.713 2.458 16.82 7.444 3.912 4.705 5.868 10.955 5.868 18.68 0 7.724-1.956 13.904-5.868 18.609-4.107 4.915-9.713 7.373-16.82 7.373-7.17 0-12.778-2.528-16.82-7.444-3.911-4.775-5.802-10.955-5.802-18.539 0-7.654 1.89-13.834 5.802-18.61 4.042-5.055 9.65-7.513 16.82-7.513z m0.6 6.796c-4.92 0-8.71 1.744-11.436 5.23-2.593 3.348-3.857 7.812-3.857 13.53 0 5.65 1.264 10.113 3.857 13.46 2.66 3.417 6.515 5.161 11.435 5.161 4.92 0 8.71-1.674 11.37-4.952 2.593-3.277 3.922-7.81 3.922-13.669 0-5.858-1.33-10.46-3.922-13.808-2.66-3.348-6.45-4.952-11.37-4.952z m35.68-4.53h31.718v6.98h-24.097v13.821h22.729v6.98h-22.73v22.06h-7.62v-49.842z m58.852 0h9.659l11.348 17.59 11.348-17.59h9.66l-16.28 24.082 17.36 25.758h-9.659l-12.429-19.266-12.429 19.266h-9.66l17.226-25.758-16.144-24.083z m53.29 0h6.797v49.84h-6.797v-49.84z m16.992 0h7.611l22.965 35.949h0.26v-35.95h7.677v49.841h-7.417l-23.225-36.438h-0.26v36.438h-7.611v-49.84z m48.656 0h9.66l11.347 17.59 11.348-17.59h9.66l-16.28 24.082 17.36 25.758h-9.659l-12.429-19.266-12.429 19.266h-9.66l17.226-25.758-16.144-24.083z m53.29 0h6.797v49.84h-6.797v-49.84z m34.076 0h8.875l18.218 49.84h-8.342l-4.337-12.495h-19.952l-4.338 12.495h-8.341l18.217-49.84z m-2.359 30.584h15.859l-7.756-21.523h-0.277l-7.826 21.523z m38.514-30.585h7.611l22.965 35.95h0.26v-35.95h7.677v49.841h-7.417l-23.225-36.438h-0.26v36.438h-7.611v-49.84z m72.737-2.265c6.195 0 11.044 1.404 14.613 4.284 3.435 2.809 5.59 6.952 6.465 12.57h-7.946c-0.674-3.23-2.155-5.618-4.31-7.233-2.223-1.616-5.186-2.388-8.822-2.388-4.512 0-8.081 1.545-10.708 4.775-2.895 3.371-4.31 8.076-4.31 14.256 0 5.899 1.28 10.463 3.839 13.623 2.761 3.37 7.07 5.056 12.93 5.056 2.29 0 4.444-0.28 6.465-0.842a21.832 21.832 0 0 0 5.185-2.318v-10.323h-12.728v-7.022h20.607v21.208c-2.559 2.106-5.455 3.651-8.754 4.775-3.502 1.123-7.34 1.685-11.65 1.685-7.678 0-13.604-2.528-17.847-7.584-3.973-4.705-5.926-10.815-5.926-18.258 0-7.514 1.953-13.694 5.926-18.54 4.176-5.196 9.833-7.724 16.97-7.724zM368.979 391h19.687c0.626 0 1.133 0.507 1.133 1.133v6.025c0 0.625 0.507 1.132 1.133 1.132h26.095c0.625 0 1.132 0.507 1.132 1.133v14.159c0 0.625-0.507 1.132-1.132 1.132h-5.32c-0.463 0-0.879 0.281-1.051 0.71l-6.844 16.983a1.133 1.133 0 0 0 1.05 1.556h12.165c0.625 0 1.132 0.508 1.132 1.133v14.074c0 0.626-0.507 1.133-1.132 1.133h-26.095c-0.626 0-1.133 0.507-1.133 1.133v9.003c0 0.626 0.507 1.133 1.133 1.133h23.516c0.626 0 1.133 0.507 1.133 1.133v17.08c0 0.626-0.507 1.133-1.133 1.133h-23.516c-0.626 0-1.133 0.507-1.133 1.133v60.87c0 0.625-0.507 1.132-1.133 1.132H368.98a1.133 1.133 0 0 1-1.133-1.133v-60.87c0-0.625-0.507-1.132-1.133-1.132h-25.58a1.133 1.133 0 0 1-1.133-1.133v-17.08c0-0.626 0.507-1.133 1.133-1.133h25.58c0.626 0 1.133-0.507 1.133-1.133v-9.003c0-0.626-0.507-1.133-1.133-1.133h-25.58A1.133 1.133 0 0 1 340 450.17v-14.074c0-0.625 0.507-1.133 1.133-1.133h11.666a1.133 1.133 0 0 0 1.04-1.583l-7.37-16.984a1.133 1.133 0 0 0-1.04-0.682h-4.296a1.133 1.133 0 0 1-1.133-1.132v-14.159c0-0.626 0.507-1.133 1.133-1.133h25.58c0.626 0 1.133-0.507 1.133-1.132v-6.025c0-0.626 0.507-1.133 1.133-1.133z m1.465 24.522a1.133 1.133 0 0 0-1.015 1.635l8.635 17.44a1.133 1.133 0 0 0 2.03 0l8.62-17.44a1.133 1.133 0 0 0-1.015-1.635h-17.255z m-27.046 76.292h13.593c0.626 0 1.133 0.507 1.133 1.133v50.973c0 0.626-0.507 1.133-1.133 1.133h-13.593a1.133 1.133 0 0 1-1.133-1.133v-50.973c0-0.626 0.508-1.133 1.133-1.133z m57.77 0h13.593c0.626 0 1.133 0.507 1.133 1.133v50.973c0 0.626-0.507 1.133-1.133 1.133h-13.593a1.133 1.133 0 0 1-1.133-1.133v-50.973c0-0.626 0.508-1.133 1.133-1.133z m94.018-99.681v18.619c0 0.625-0.507 1.132-1.133 1.132h-45.042c-0.626 0-1.133 0.507-1.133 1.133v19.397c0 0.626 0.507 1.133 1.133 1.133h41.644a4.531 4.531 0 0 1 4.53 4.53V543.92c0 0.626-0.506 1.133-1.132 1.133h-21.388a1.133 1.133 0 0 1-1.133-1.133v-91.153c0-0.626-0.507-1.133-1.133-1.133h-21.388c-0.626 0-1.133 0.507-1.133 1.133v91.153c0 0.626-0.507 1.133-1.133 1.133h-19.524a1.133 1.133 0 0 1-1.133-1.133V395.531A4.531 4.531 0 0 1 430.62 391h63.434c0.626 0 1.133 0.507 1.133 1.133z m61.33-1.133h27.178a1.133 1.133 0 0 1 0.848 1.884l-37.008 41.743a1.133 1.133 0 0 0 0.848 1.884h41.566c0.315 0 0.615-0.13 0.83-0.36l28.191-30.264c0.215-0.23 0.515-0.36 0.83-0.36h24.8a1.133 1.133 0 0 1 0.862 1.867l-62.813 73.667a1.133 1.133 0 0 0 0.862 1.868h43.631c0.314 0 0.613-0.13 0.828-0.36l18.75-20.05c0.213-0.23 0.513-0.36 0.827-0.36h12.227a6.334 6.334 0 0 1 5.042 10.168c-16.445 21.629-28.839 36.88-37.182 45.753-14.393 15.308-36.876 26.045-57.314 26.509-13.388 0.304-30.727 0.459-52.016 0.464a1.133 1.133 0 0 1-1.133-1.133v-17.958c0-0.626 0.507-1.133 1.132-1.133h37.672c20.159 0 38.969-7.718 56.43-23.154h-94.102a1.133 1.133 0 0 1-1.132-1.133v-16.48c0-0.626 0.507-1.133 1.132-1.133h32.284c0.329 0 0.641-0.143 0.856-0.391l22.13-25.53a1.133 1.133 0 0 0-0.855-1.874h-61.363a3.398 3.398 0 0 1-2.645-5.532l46.925-58.18c0.215-0.267 0.54-0.422 0.882-0.422z m137.166 0h18.455c0.626 0 1.133 0.507 1.133 1.133v11.242c0 0.626 0.507 1.133 1.133 1.133h27.665c0.626 0 1.133 0.507 1.133 1.133v19.206c0 0.625-0.507 1.133-1.133 1.133H697.08a4.531 4.531 0 0 1-4.531-4.531v-29.316c0-0.626 0.507-1.133 1.133-1.133z m-1.133 46.644c0-0.626 0.507-1.133 1.133-1.133h48.386c0.626 0 1.133 0.507 1.133 1.133v13.634c0 0.626-0.507 1.133-1.133 1.133h-12.017c-0.626 0-1.133 0.507-1.133 1.133v21.078c0 0.626 0.507 1.133 1.133 1.133h15.385c0.626 0 1.133 0.507 1.133 1.133v13.087c0 0.625-0.507 1.132-1.133 1.132H733.42c-0.626 0-1.133 0.507-1.133 1.133v33.38c0 0.626 0.507 1.133 1.133 1.133h12.016c0.626 0 1.133 0.507 1.133 1.132v15.571c0 0.626-0.507 1.133-1.133 1.133h-32.372a4.531 4.531 0 0 1-4.531-4.531V492.24c0-0.626-0.507-1.133-1.133-1.133h-17.087a1.133 1.133 0 0 1-1.133-1.132v-13.087c0-0.626 0.508-1.133 1.133-1.133H707.4c0.626 0 1.133-0.507 1.133-1.133v-21.078c0-0.626-0.507-1.133-1.133-1.133h-13.718a1.133 1.133 0 0 1-1.133-1.133v-13.634z m59.997-42.113a4.531 4.531 0 0 1 4.53-4.531h82.285a4.531 4.531 0 0 1 4.531 4.531v76.13c0 0.625-0.507 1.133-1.133 1.133h-66.985c-0.625 0-1.132 0.507-1.132 1.132v52.323c0 0.626 0.507 1.133 1.132 1.133h19.83c0.626 0 1.133 0.507 1.133 1.132v15.406c0 0.626-0.507 1.133-1.133 1.133h-38.527a4.531 4.531 0 0 1-4.531-4.53V395.53z m24.499 11.286a2.265 2.265 0 0 0-2.266 2.265v13.46c0 0.626 0.508 1.133 1.133 1.133h44.893c0.625 0 1.132-0.507 1.132-1.133v-13.46a2.265 2.265 0 0 0-2.265-2.265h-42.627z m0 33.716a2.265 2.265 0 0 0-2.266 2.266v13.46c0 0.625 0.508 1.132 1.133 1.132h44.893c0.625 0 1.132-0.507 1.132-1.133v-13.46a2.265 2.265 0 0 0-2.265-2.265h-42.627z m66.847 45.025v18.388c0 0.625-0.507 1.133-1.133 1.133h-22.578a1.133 1.133 0 0 0-0.921 1.792l25.731 35.926a1.133 1.133 0 0 1-0.92 1.792h-25.473c-0.387 0-0.748-0.198-0.956-0.525l-34.61-54.417a3.398 3.398 0 0 1 2.868-5.222h56.86c0.625 0 1.132 0.507 1.132 1.133zM894.898 391h24.272a1.133 1.133 0 0 1 0.95 1.75c-8.282 12.719-15.324 21.58-21.127 26.586-5.838 5.036-15.475 10.528-28.91 16.476a1.133 1.133 0 0 1-1.591-1.035v-20.36c0-0.408 0.219-0.785 0.574-0.986 7.034-3.986 12.162-7.4 15.382-10.243 3.195-2.82 6.36-6.707 9.492-11.66 0.208-0.329 0.57-0.528 0.958-0.528z m0.54 38.461h12.623a6.583 6.583 0 0 1 5.185 10.64c-6.017 7.69-11.138 13.454-15.36 17.29-5.733 5.208-14.963 11.543-27.689 19.005a1.133 1.133 0 0 1-1.705-0.977v-21.416c0-0.362 0.173-0.703 0.466-0.916 7.401-5.381 12.747-9.566 16.036-12.554 3.24-2.944 6.42-6.484 9.54-10.621 0.214-0.284 0.548-0.45 0.904-0.45z m11.677 38.566c0.625 0 1.133 0.507 1.133 1.132v74.297c0 0.626-0.508 1.133-1.133 1.133h-22.963a1.133 1.133 0 0 1-1.132-1.133V469.16c0-0.625 0.507-1.132 1.132-1.132h22.963z m26.056-75.894c0-0.626 0.507-1.133 1.132-1.133h85.05c0.626 0 1.133 0.507 1.133 1.133v15.224c0 0.626-0.507 1.133-1.133 1.133h-85.05a1.133 1.133 0 0 1-1.132-1.133v-15.224z m-6.669 48.4h96.542c0.626 0 1.133 0.507 1.133 1.133v14.592c0 0.626-0.507 1.133-1.133 1.133h-13.905c-0.625 0-1.132 0.507-1.132 1.133v81.534a4.531 4.531 0 0 1-4.531 4.53h-58.228a1.133 1.133 0 0 1-1.133-1.132v-14.092c0-0.625 0.508-1.133 1.133-1.133h39.622c0.626 0 1.133-0.507 1.133-1.132v-66.31a3.398 3.398 0 0 0-3.398-3.398h-56.103a1.133 1.133 0 0 1-1.132-1.133v-14.592c0-0.626 0.507-1.133 1.132-1.133z" fill="#D80013"></path><path d="M11.327 367h267.328c6.256 0 11.327 5.071 11.327 11.327v267.328c0 6.256-5.071 11.327-11.327 11.327H11.327C5.071 656.982 0 651.911 0 645.655V378.327C0 372.071 5.071 367 11.327 367z m64.486 32.446h-54.29v31.622h159.76v170.114h-49.33v30.88h83.326v-137.5h25.213v137.5h32.5V460.627h-57.713v-29.56h57.712v-31.621H113.634v-14.322H75.813v14.322z m-16.848 37.567l-22.06 21.792 30.507 29.826h-45.89v33.625H76.72v22.324H21.522v32.029H76.72v55.453H110v-55.453h55.333V544.58H110v-22.324h55.332v-33.625H119.34l29.199-29.826-21.021-21.792-34.832 33.236-33.721-33.236zM21.522 600.92v31.143h33.623v-31.143H21.522z" fill="#D80013"></path></svg>