<svg viewBox="0 0 1024 1024" version="1.1" xmlns="http://www.w3.org/2000/svg"><path d="M224 0h576c123.6 0 224 100.4 224 224v576c0 123.6-100.4 224-224 224H224c-123.6 0-224-100.4-224-224V224C0 100.4 100.4 0 224 0z" fill="#FFFFFF"></path><path d="M212 172h600c22 0 40 18 40 40v600c0 22-18 40-40 40H212c-22 0-40-18-40-40V212c0-22 18-40 40-40z m137.6 76H222.4v74h374.8v398.8h-115.6v72.4h195.2v-322.4H736v322.4h76V391.6h-135.2V322.4H812V248h-373.6v-33.6H349.6V248z m-39.2 88l-52 51.2 71.6 70H222.4V536H352v52.4H222.4v75.2H352v130h78v-130h129.6v-75.2h-129.6V536h129.6v-78.8h-108L520 387.2 471.2 336l-81.6 78L310.4 336z m-88 384.4v73.2h78.8v-73.2H222.4z" fill="#D80013"></path></svg>