<svg viewBox="0 0 1024 1024" version="1.1" xmlns="http://www.w3.org/2000/svg"><path d="M1014.014 467.716h-80.348l-7.709-13.617h88.057v13.617z m-118.147 7.172c-13.403 14.51-30.158 15.914-45.257 17.339V478.45c15.074-2.038 30.307-4.24 32.444-34.337h25.655l-0.114 3.147c-1.11 13.727-8.633 22.508-12.728 27.628zM663.643 544.88h19.024v27.234h-19.064l0.04-27.234z m250.179-58.763c-2.963 10.599-9.11 19.415-16.755 26.386h0.32c0 3.164-0.054 85.03-0.054 85.03h-23.118v-70.779c-8.794 3.604-17.736 5.475-25.42 5.608v-13.872c36.195-6.185 39.458-33.952 39.532-34.012v-2.236h26.737l-1.242 3.875z m-202.856-38.56c1.049 23.473 12.042 26.357 27.077 30.634v12.093c-13.39-1.198-28.45-4.99-40.324-18.995-11.579 15.886-28.209 18.623-43.194 20.031v-13.613c16.428-3.075 28.568-3.705 29.611-31.777h26.761l0.07 1.628z m312.126 50.118v13.26h-27.396l0.015 65.619c0 15.68-5.223 20.979-24.41 20.979H945.12l-7.745-13.275h18.585c10.025 0 14.152 0.39 15.84-1.27 0.7-0.68 0.997-3.357 0.997-4.513l0.035-67.54h-48.213l-7.74-13.26h106.213z m-199.716 30.803c-2.641 15.756-11.407 25.969-22.178 31.713 9.692 11.376 19.832 16.21 19.832 16.21l-0.35 26.579c-47.52-20.23-51.293-93.529-51.293-93.529h22.592c1.468 0 2.764 0.015 3.31-0.522 0.43-0.414 0.641-1.399 0.641-2.778v-14.8h-23.774l-6.657-12.608h30.431v-16.406H764.47l0.03 119.335c0 1.133 0.33 2.035 0.99 2.705 1.715 1.68 5.223 2.246 16.792 2.113h5.504v11.42h-20.862c-19.109 0-24.341-5.291-24.341-20.909l0.069-126.532 75.408 0.01-0.024 52.922c0 6.065-1.444 10.43-4.41 13.396-4.455 4.414-9.091 4.385-14.57 4.37H784.34c1.35 11.41 4.898 20.82 9.328 28.402 8.13-6.754 6.992-21.061 7.021-21.09h22.686z m-113.448 6.505v45.51h26.299v12.5h-74.32l-7.382-12.5h34.363v-45.51h-23.976l-8.603-12.497h32.58v-15.931h-16.227l-7.387-12.511h65.104v12.511h-20.451v15.93h25.02v12.498h-25.02z m5.42 37.131V544.88h19.063v27.234h-19.063zM406.029 445.346l0.434-0.325h31.097l-0.862 2.216c-6.663 17.312-44.419 16.349-48.854 16.167h-1.218v34.57h48.475v12.471h-14.287c-0.02 3.155-0.079 86.79-0.079 86.79h-23.074v-86.79h-11.035v11.489c0 35.744-10.773 65.453-21.492 76.396l-0.99 1.018-10.527-7.514-1.39-1.08 1.153-1.323c0.133-0.103 9.872-10.108 9.872-55.266v-8.177l0.039-7.804-0.079-67.266h24.366c11.01-0.157 18.382-5.509 18.451-5.572zM352.89 569.47v10.283l-3.936-0.172c-8.724-1.115-15.848-3.886-22.756-9.752v27.703h-23.022v-24.637c-11.375 9.108-21.427 12.59-29.6 13.347l-1.49-0.152v-9.845l1.077-0.383c16.537-5.837 26.687-22.525 29.605-36.222h-24.818l-7.424-12.478h32.65v-16.399H277.95l-7.424-12.468h19.307v-23.316l20.93 0.093v23.223h11.479v-23.223h21.285v23.223h11.424v12.468h-28.709c0 2.515-0.02 13.893-0.02 16.399h28.73v12.478h-28.73v0.703c2.495 15.539 11.902 25.959 24.306 28.823l2.362 0.304z m243.934-48.652V506.48h-31.376v9.689c0 1.326 0.38 2.343 1.081 3.036 1.89 1.818 6.05 1.7 9.08 1.621l1.717-0.01h19.498z m-22.764 46.42V552.85h-10.783v9.67c0 1.135 0.336 2.014 1.007 2.677 1.964 1.916 6.39 2.074 9.776 2.04z m23.149-14.387c-0.04 2.418-0.04 11.91-0.04 14.322h25.227l-0.094 11.527H597.14v18.832h-23.08V578.7h-8.335c-19.167 0-25.637-5.252-25.637-20.862v-16.817h33.972v-8.687h-8.335c-19.167 0-25.637-5.252-25.637-20.871v-16.798h80.004v37.67h-22.883v8.686h22.848l0.084 11.83h-22.932z m-110.733-47.17h20.095v-11.625h-20.095v11.624z m20.095 27.646v-15.163h-20.095v3.857s-0.03 3.46-0.03 4.014c0 3.464 0.208 5.64 1.032 6.3 1.16 0.977 4.012 0.977 8.059 1.001l4.979-0.01h6.055z m0.7-92.56v17.142h24.315v12.465h-24.206v11.87h22.434v62.609h-20.065c-0.035 2.383-0.079 11.222-0.079 13.604h21.916v12.465h-21.916v26.61h-23.11v-26.61h-22.103l-7.447-12.465h29.55v-13.825c-17.79 0-23.277-12.121-23.277-25.156V482.22l20.78 0.024v-11.87h-21.817l-7.436-12.465h29.253c0.025-1.041 0.025-10.062 0.025-17.26l23.184 0.118z m89.869 26.36c0.094-2.305-0.247-2.801-0.592-3.012-0.242-0.182-1.234-0.388-2.004-0.354l-1.93 0.059h-9.494v11.133h14.02v-7.827z m21.042 3.512v5.08h10.018v12.549H538.27l-6.667-12.548h28.41V464.6H542.63l-6.835-11.688h24.22v-12.43l23.13 0.053v12.377h8.527l3.815-0.133c5.956-0.216 13.358-0.55 18.08 3.994 3.095 2.968 4.615 7.508 4.615 13.865z m-267.77-0.2h-69.766l-7.397-12.612h30.007v-17.345h23.027v17.345h24.13v12.613z" fill="#83857F"></path><path d="M111.015 397.49C47.654 400.354-1.397 454.021 1.488 517.386c2.86 63.354 56.549 112.389 119.91 109.524 63.367-2.86 112.378-56.552 109.513-119.902C228.139 445.432 177.315 397.372 116.305 397.367c-1.759 0-3.512 0.04-5.29 0.122" fill="#FFDD9A"></path></svg>