<svg viewBox="0 0 1024 1024" version="1.1" xmlns="http://www.w3.org/2000/svg"><path d="M224 0h576c123.6 0 224 100.4 224 224v576c0 123.6-100.4 224-224 224H224c-123.6 0-224-100.4-224-224V224C0 100.4 100.4 0 224 0z" fill="#FFFFFF"></path><path d="M496.8 176.4C311.6 184.8 168 341.6 176.4 527.2c8.4 185.2 165.6 328.8 350.8 320.4 185.6-8.4 328.8-165.6 320.4-350.8-8-180-156.8-320.8-335.2-320.8-5.2 0-10.4 0-15.6 0.4" fill="#FFDD9A"></path><path d="M510.4 172c-4.8 0-9.2 0-14 0.4-181.6 8-323.6 157.6-324.4 337.6v3.2c0 4.8 0 9.2 0.4 14 8.4 181.6 157.6 323.6 337.6 324.8h3.6c4.4 0 9.2 0 13.6-0.4 187.6-8.4 332.8-167.6 324.4-355.2-8-181.6-157.6-323.6-337.6-324.8h-3.6z m26.8 639.2c-0.4-7.6 10.8-9.6 10.8-9.6 100.4-20 71.2-85.6 35.6-119.2-14.8-14-154.8-134.8-154.8-134.8C295.2 432 306 342.4 306 342.4c6.4-110.4 102.8-137.6 176-131.6 8.8 0.8 13.2 6 11.6 13.2-1.6 7.6-12.8 8.4-12.8 8.4-23.2 1.2-44 3.6-60 14.4-58.8 39.6-41.6 107.2 37.2 182 10 9.6 20.4 19.6 31.2 29.6 0 0 15.6 14 47.2 43.6 60.4 55.6 93.6 85.6 93.6 85.6 106.4 88.8 70 169.6 29.6 198-31.2 21.6-65.6 31.6-110.4 34h-1.2c-4.4 0.4-10.4-2-10.8-8.4z m24.8-327.6c-34.4-7.2-41.6-38.4-41.6-38.4-2.8-11.2-3.6-24.8-1.2-42.8 4.8-37.2 14.8-54.4 26-83.2 15.2-38.8-22-61.2-15.6-75.6 8.4-19.2 35.2 5.2 64.8 7.2 25.6 1.6 41.2 0 60.8 2.8 26.4 3.6 58 12.4 72 29.2 12.8 15.2-6.8 33.6-30.4 22-17.2-8.4-39.2-3.2-26.4 14.8 15.6 17.2 22.8 17.6 38.4 22 43.2 11.6 44 52.8 14.8 74.4-33.2 24.4-67.2 14.4-80.8-33.6-6.8-24-23.6-36-40.8-29.2-17.2 6.8-7.2 38 6 67.2 22.8 58-23.2 64-40.8 64-2-0.4-4-0.8-5.2-0.8z m-126.8 316.8c-37.6-3.6-82.4-15.6-121.6-49.2-36-31.2-58-74-68.8-111.2-11.2-38.4-15.6-83.2 2.4-79.6 5.6 1.2 15.2 25.6 26 43.6 10.8 18.4 20 28.8 28 35.2 3.6 2.8 16.4-25.6 35.2-42 10.8-8.8 22.8-12 24.8 14.8 2.4 32.8-3.6 71.6 6 71.6 8.8 0 29.2-6.8 73.2-10.4 16.8-1.6 26 1.6 10.4 24-8 11.2-18.4 26.8-43.6 44.8 37.6 35.2 82.8 31.2 83.6 46 0.4 8.8-16.4 13.2-38.4 13.2-5.6 0-11.2-0.4-17.2-0.8z" fill="#0074C0"></path></svg>