<svg viewBox="0 0 1024 1024" version="1.1" xmlns="http://www.w3.org/2000/svg"><path d="M0 0m224 0l576 0q224 0 224 224l0 576q0 224-224 224l-576 0q-224 0-224-224l0-576q0-224 224-224Z" fill="#FFFFFF"></path><path d="M825.48 557.56c3.44 0 6.04 2.56 6.52 5.84v247.28c-0.72 13.68-11.64 24.56-25.396 25.32h-246.628c-3.52-0.28-6.24-3.12-6.24-6.72 0-1.48 0.72-2.88 1.56-4l1.08-1.04 263.908-264.08 1.08-1.04c1.16-0.92 2.48-1.56 4.12-1.56z m-146.92-184.78c3.088 0 5.896 1.08 8.156 2.872l2.332 2.308 130.34 131.268 0.988 0.96c0.832 1.112 1.504 2.548 1.504 4.14 0 1.636-0.672 2.988-1.504 4.144l-0.988 1-305.68 307.76-1.9 1.912a26.312 26.312 0 0 1-16.464 6.856H228.452a6.612 6.612 0 0 1-6.096-6.656c0-1.512 0.592-2.868 1.544-4.024l1.028-1.036 443.064-446.2 2.612-2.552a13.172 13.172 0 0 1 7.96-2.752z m-384.304 324c3.56 0.08 6.52 2.964 6.52 6.64 0 1.46-0.592 2.724-1.424 3.872l-1.38 1.34-94.24 94.228-1.384 1.344a6.024 6.024 0 0 1-3.832 1.42c-3.436 0-6.08-2.608-6.516-5.884v-97.072c0.356-3.28 2.96-5.848 6.36-5.888z m41.556-339.188c3.096 0.04 5.868 1.16 8.148 2.956l2.12 2.116 142.1 139.176 1.424 1.48c2.04 2.352 3.424 5.308 3.424 8.7 0 3.352-1.384 6.388-3.504 8.744l-1.224 1.36-141.976 139.012-2.648 2.596c-2.16 1.56-4.728 2.556-7.58 2.676H198.48A6.752 6.752 0 0 1 192 660.22v-296.52c0.284-3.272 2.812-5.788 6.192-6.108zM497.324 188a26.06 26.06 0 0 1 16.84 7.164l1.616 1.68 133.456 138.304 3.24 3.272c1.46 2.252 2.448 4.956 2.448 7.904 0 3.028-0.988 5.772-2.528 8.064l-3.04 3.112-124.8 129.256-1.624 1.72a12.852 12.852 0 0 1-8.496 3.276c-3.24 0-6.2-1.232-8.536-3.28l-1.66-1.72L227.612 200.2l-1.344-1.472a6.46 6.46 0 0 1-1.384-4.012c0-3.44 2.532-6.264 5.772-6.716z m308.312 0c14.248 0.56 25.584 11.564 26.364 25.372v246.864c-0.328 3.4-3.2 6.2-6.776 6.2-1.64 0-3.12-0.64-4.188-1.52l-1.152-1.08-270.94-264.072-1.192-1.16c-0.984-1.12-1.6-2.48-1.6-4.08 0-3.32 2.628-6.04 5.992-6.524zM198.704 225.968c1.456 0 2.68 0.632 3.864 1.424l1.3 1.38L297.976 323l1.3 1.42c0.868 1.068 1.5 2.372 1.5 3.836 0 3.436-2.64 6.16-5.992 6.56H197.836a6.728 6.728 0 0 1-5.836-6.4V232.484c0.16-3.556 3.036-6.52 6.704-6.52z" fill="#C41829"></path></svg>