<svg viewBox="0 0 1024 1024" version="1.1" xmlns="http://www.w3.org/2000/svg"><path d="M277.525 531.8c1.507 0 2.646 1.122 2.856 2.558v108.26c-0.315 5.99-5.098 10.755-11.125 11.088H161.209c-1.541-0.123-2.733-1.367-2.733-2.943 0-0.648 0.316-1.261 0.683-1.751l0.474-0.456L275.248 532.94l0.473-0.455c0.508-0.403 1.086-0.683 1.804-0.683z m-64.365-80.9c1.352 0 2.583 0.472 3.572 1.257l1.023 1.012 57.1 57.47 0.434 0.42c0.364 0.488 0.66 1.116 0.66 1.814 0 0.715-0.296 1.308-0.66 1.814l-0.433 0.436-133.917 134.744-0.833 0.838a11.532 11.532 0 0 1-7.213 3H15.969c-1.474-0.104-2.67-1.343-2.67-2.913 0-0.663 0.26-1.256 0.676-1.762l0.45-0.454L208.53 453.221l1.144-1.117c0.972-0.732 2.168-1.204 3.486-1.204zM44.799 592.753c1.557 0.035 2.855 1.298 2.855 2.906 0 0.64-0.26 1.194-0.623 1.695l-0.606 0.588L5.14 639.196l-0.605 0.588c-0.468 0.38-1.039 0.623-1.679 0.623-1.505 0-2.665-1.142-2.855-2.577v-42.5c0.156-1.435 1.298-2.56 2.786-2.577z m18.204-148.502c1.357 0.018 2.57 0.507 3.57 1.294l0.928 0.926 62.254 60.933 0.625 0.647c0.892 1.031 1.499 2.325 1.499 3.81 0 1.469-0.607 2.797-1.535 3.829l-0.536 0.594-62.2 60.863-1.16 1.136c-0.946 0.682-2.07 1.12-3.32 1.172H2.838A2.956 2.956 0 0 1 0 576.745v-129.82c0.125-1.433 1.232-2.534 2.713-2.674zM133.762 370c2.856 0.125 5.419 1.29 7.375 3.137l0.71 0.735 58.465 60.551 1.42 1.434c0.64 0.986 1.073 2.17 1.073 3.46 0 1.326-0.433 2.527-1.108 3.531l-1.333 1.362-54.674 56.59-0.71 0.753c-1.021 0.896-2.32 1.434-3.722 1.434-1.42 0-2.718-0.538-3.74-1.434l-0.727-0.753-121.19-125.458-0.588-0.646a2.828 2.828 0 0 1-0.606-1.756c0-1.506 1.108-2.743 2.528-2.94z m135.07 0c6.242 0.245 11.207 5.063 11.549 11.108v108.081c-0.144 1.49-1.403 2.716-2.968 2.716-0.72 0-1.368-0.28-1.835-0.666l-0.504-0.473-118.7-115.615-0.52-0.508c-0.433-0.49-0.702-1.086-0.702-1.787 0-1.454 1.15-2.646 2.626-2.856zM2.935 386.623c0.64 0 1.175 0.277 1.693 0.623l0.57 0.605 41.228 41.254 0.57 0.623c0.38 0.467 0.657 1.038 0.657 1.678 0 1.505-1.158 2.698-2.626 2.871H2.556C1.175 434.104 0.07 432.945 0 431.475v-41.998c0.07-1.556 1.33-2.854 2.936-2.854z" fill="#C41829"></path><path d="M755.647 426.52c0.565 0 1.063 0.185 1.488 0.457l0.156 0.105 0.636 0.65 8.383 8.608 0.783 0.782c0.077 0.196 0.124 0.4 0.124 0.626 0 0.693-0.48 1.27-1.162 1.516l-0.149 0.048h-17.285v17.57h1.233l6.367-6.49 0.643-0.65a2.77 2.77 0 0 1 1.636-0.555c0.58 0 1.091 0.186 1.519 0.474l0.157 0.113 0.55 0.547 8.833 9.086 0.783 0.798c0.078 0.187 0.132 0.39 0.132 0.617 0 0.701-0.493 1.279-1.17 1.518l-0.148 0.046H748.62v25.249l18.62-7.616 0.906-0.352c0.078-0.008 0.163-0.04 0.264-0.04 1.008 0 1.815 0.743 1.815 1.658 0 0.153-0.03 0.292-0.075 0.435l-0.05 0.144-0.736 0.782-26.73 29.267-0.358 0.399a2.762 2.762 0 0 1-1.791 0.649c-0.94 0-1.74-0.463-2.233-1.11l-0.101-0.141-0.225-0.422-7.313-13.379-0.24-0.422c-0.093-0.258-0.179-0.524-0.179-0.83 0-0.81 0.473-1.51 1.148-1.95l0.147-0.09 0.698-0.297 0.706-0.274v-31.66h-22.466v-5.504h22.466v-17.57H718.16v-5.536h29.274l5.98-6.1 0.558-0.57c0.473-0.352 1.039-0.587 1.675-0.587z m35.002-33.247c1.055 0.2 1.873 0.884 2.13 1.808l0.042 0.175v0.688h33.662v-0.735c0.223-0.937 0.97-1.65 1.98-1.896l0.192-0.04H841.9c1.063 0.2 1.874 0.912 2.124 1.845l0.04 0.178v52.53c-0.171 0.96-0.902 1.695-1.89 1.956l-0.187 0.043H828.56c-0.996-0.2-1.754-0.85-2.031-1.742l-0.046-0.17v-0.75h-16.16s2.477 11.966 12.604 25.272l0.31 0.403 11.65-18.429 0.205-0.308a2.78 2.78 0 0 1 2.37-1.304c0.264 0 0.515 0.05 0.758 0.123l0.181 0.059 1.169 0.75 8.514 5.5 1.003 0.649c0.45 0.458 0.735 1.027 0.735 1.667 0 0.737-0.364 1.373-0.917 1.827l-0.142 0.11-0.75 0.402-22.25 12.068c6.785 7.927 16.374 15.995 29.856 22.017 0.308 0.143 0.656 0.253 0.964 0.396 0.387 0.292 0.624 0.742 0.624 1.232 0 0.656-0.42 1.186-1.004 1.478-0.3 0.056-0.592 0.127-0.876 0.19-5.482 1.343-11.634 4.402-13.609 9.831-0.04 0.119-0.07 0.253-0.118 0.395-0.435 0.87-1.382 1.47-2.52 1.47-0.324 0-0.647-0.079-0.955-0.174-0.387-0.269-0.814-0.545-1.201-0.838-11.22-8.294-18.285-18.744-22.709-28.823l-0.243-0.56-28.797 29.289-0.45 0.442a2.851 2.851 0 0 1-1.753 0.625 2.788 2.788 0 0 1-2.18-1.026l-0.11-0.144-0.356-0.688-5.98-11.83-0.394-0.759c-0.055-0.205-0.142-0.419-0.142-0.624 0-0.841 0.481-1.544 1.175-2l0.152-0.094 0.592-0.27 0.758-0.339V395.17c0.223-0.914 0.971-1.612 1.967-1.856l0.19-0.04h12.005z m124.224 23.272a3.1 3.1 0 0 1 0.86 0.13l0.204 0.064 1.08 0.663 11.736 7.147 1.022 0.63c0.494 0.46 0.82 1.082 0.82 1.769 0 0.355-0.083 0.694-0.234 1.001-0.301 0.323-0.586 0.646-0.88 0.986a155.04 155.04 0 0 1-12.235 12.062l-0.958 0.836v69.125c-0.237 1.015-1.087 1.77-2.225 1.973l-0.204 0.03h-14.6c-1.147-0.137-2.048-0.822-2.377-1.782l-0.053-0.172v-54.58c-7.698 4.99-14.55 8.65-19.5 11.064-0.42 0.194-0.796 0.372-1.173 0.55-0.109 0.007-0.21 0.056-0.31 0.056-1.089 0-1.96-0.775-1.96-1.728 0-0.186 0.05-0.34 0.117-0.51 0.268-0.314 0.545-0.621 0.83-0.928 16.845-18.899 32.04-39.38 37.284-46.609 0.285-0.404 0.544-0.759 0.779-1.082a3.103 3.103 0 0 1 1.977-0.695z m94.245 9.974a2.7 2.7 0 0 1 1.408 0.412l0.173 0.112 0.76 0.813 11.588 12.028 0.821 0.852c0.078 0.18 0.132 0.383 0.132 0.594 0 0.74-0.538 1.35-1.27 1.552l-0.148 0.035h-25.68v52.904s-1.31 17.14-19.099 17.14c-11.55 0-4.17-8.23-18.293-13.951-0.255-0.11-0.496-0.211-0.76-0.305-0.441-0.312-0.728-0.766-0.728-1.305 0-0.708 0.466-1.293 1.127-1.533l0.144-0.046h11.953c6.446 0 6.555-5.264 6.557-5.443v-47.461h-43.871v-5.15h62.97l10.03-10.169 0.496-0.485a2.738 2.738 0 0 1 1.69-0.594z m-367.753-39.896c1.108 0.199 1.937 0.977 2.139 2.008 0 0.278 0 0.54 0.008 0.818 0.043 8.267 0.36 16.066 0.871 23.365l0.105 1.453h18.662l6.37-6.548 0.527-0.547c0.465-0.35 1.039-0.596 1.682-0.596 0.6 0 1.131 0.201 1.58 0.508l0.164 0.12 0.434 0.452 8.966 9.333 0.721 0.762c0.093 0.199 0.147 0.421 0.147 0.635 0 0.704-0.459 1.283-1.093 1.532l-0.139 0.048h-37.556c1.372 14.897 3.565 27.58 6.13 37.953 5.596-13.722 8.665-25.334 9.943-30.675 0.109-0.42 0.194-0.802 0.272-1.159 0.45-0.841 1.371-1.437 2.449-1.437 0.11 0 0.203 0.027 0.292 0.05l0.087 0.022 0.845 0.214 9.277 2.445 1.038 0.254c0.868 0.436 1.48 1.254 1.48 2.23 0 0.127-0.07 0.238-0.077 0.365-0.078 0.238-0.147 0.468-0.21 0.706-5.27 18.779-12.36 33.478-19.878 44.86 4.263 10.928 8.54 16.523 11.214 16.523 4.743 0 4.255-4.746 10.33-14.127 0.164-0.246 0.334-0.516 0.512-0.778 0.318-0.27 0.744-0.444 1.21-0.444 0.937 0 1.697 0.682 1.774 1.547-0.1 0.334-0.178 0.675-0.263 1.008-5.146 20.414 6.393 33.438-12.625 33.438-8.238 0-16.507-7.842-23.42-22.556-7.735 8.556-15.143 14.095-20.747 17.564-0.302 0.182-0.604 0.373-0.899 0.555-0.162 0.04-0.317 0.088-0.496 0.088-1.007 0-1.829-0.754-1.829-1.675 0-0.222 0.055-0.437 0.14-0.619 0.271-0.27 0.527-0.548 0.767-0.818 7.378-8.08 13.516-17.15 18.577-26.215-5.169-14.895-9.16-34.459-11.155-58.132l-0.098-1.187h-26.83a262.17 262.17 0 0 1-0.131 15.74l-0.047 1.133h10.268c0.008-0.127 0.008-0.246 0.008-0.373 0.16-0.997 0.916-1.781 1.966-2.032l0.188-0.04h10.594c1.029 0.188 1.817 0.888 2.08 1.816l0.044 0.177v0.929c-0.31 32.405-5.348 46.938-5.348 46.938-0.07 0.278-3.15 12.183-14.872 12.183-7.571 0-3.402-5.104-7.804-9.017-0.038-0.04-0.054-0.071-0.093-0.095a10.315 10.315 0 0 0-0.604-0.484c-0.054-0.048-0.124-0.08-0.194-0.111-0.155-0.262-0.279-0.556-0.279-0.873 0-0.737 0.51-1.34 1.22-1.564l0.144-0.04h2.937c3.937 0 4.673-3.865 4.673-3.865s4.254-13.955 5.181-37.106l0.027-0.704h-10.439c-1.218 17.83-4.376 31.161-8.31 41.153l-0.207 0.523-0.108 0.293c-6.425 15.818-14.772 24.692-20.158 27.843-0.325 0.166-0.62 0.34-0.922 0.484-0.14 0.04-0.279 0.087-0.426 0.087-1.023 0-1.83-0.746-1.83-1.698 0-0.16 0.055-0.302 0.117-0.46 0.132-0.255 0.287-0.477 0.442-0.723 6.45-11.466 10.488-26.21 12.933-39.055l0.172-0.915 0.03-0.127c4.503-24.239 3.418-47.096 2.783-55.327a15.552 15.552 0 0 0-0.085-1.182c0.183-1.012 0.953-1.798 1.992-2.036l0.185-0.036h11.525c1.038 0.175 1.836 0.841 2.115 1.746 0 0.249 0.01 0.501 0.024 0.75l0.023 0.37h26.605a409.043 409.043 0 0 1-0.852-24.581c-0.008-0.42-0.008-0.81-0.008-1.222 0.225-0.886 0.948-1.562 1.893-1.8l0.192-0.042h10.958z m-239.89 66.494c1.142 0.18 2.024 0.927 2.278 1.926l0.036 0.168v3.43h66.188v-3.485c0.212-1 1.026-1.775 2.118-2.004l0.195-0.035h15.705c1.108 0.164 1.965 0.885 2.226 1.844l0.04 0.171v55.806c-0.19 1.003-1.022 1.78-2.148 1.993l-0.19 0.03h-15.585c-1.141-0.15-2.038-0.881-2.32-1.878l-0.041-0.169v-3.501h-66.188v3.446c-0.182 1.04-1.035 1.854-2.17 2.071l-0.191 0.031h-15.593c-1.1-0.142-1.978-0.84-2.276-1.777l-0.046-0.167v-55.964c0.227-0.952 1.016-1.68 2.059-1.9l0.198-0.036h15.706z m68.502 32.664H403.78v16.115h66.196v-16.115z m96.462-92.508c0.974 0.197 1.724 0.89 1.988 1.792l0.044 0.171v32.095l3.557-4.557 0.46-0.59a2.769 2.769 0 0 1 1.825-0.71c0.6 0 1.132 0.21 1.566 0.523l0.158 0.123 0.598 0.678 6.225 7.321 0.683 0.8c0.06 0.186 0.122 0.388 0.122 0.59 0 0.773-0.525 1.375-1.26 1.607l-0.15 0.041H568.47v40.66l5.987-1.066 1.073-0.178c0.874 0.097 1.58 0.792 1.58 1.673 0 0.353-0.13 0.682-0.326 0.954l-0.088 0.113-0.782 0.525-28.342 19.684-0.66 0.452c-0.39 0.21-0.827 0.364-1.287 0.364a2.692 2.692 0 0 1-2.296-1.255l-0.088-0.151-0.138-0.307-5.742-11.935-0.238-0.477a2.264 2.264 0 0 1-0.161-0.784c0-1.003 0.59-1.85 1.453-2.283l0.165-0.076 1.165-0.194 13.646-2.416v-43.303h-15.463v-5.826h15.463V395.27c0.194-0.959 0.899-1.688 1.863-1.952l0.183-0.044h11.001z m240.393 53.89h-14.011v40.509l19.61-8.962c-6.255-16.849-5.599-31.548-5.599-31.548z m-336.855 16.995H403.78v16.107h66.196v-16.107z m21.552-74.21c0.565 0 1.094 0.179 1.535 0.454l0.161 0.107 0.597 0.616 10.653 10.821 0.44 0.445c0.165 0.249 0.29 0.545 0.29 0.857 0 0.73-0.517 1.31-1.235 1.534l-0.147 0.04h-44.269v39.532h29.932l8.115-8.18 0.574-0.585c0.479-0.335 1.045-0.561 1.697-0.561 0.628 0 1.176 0.19 1.632 0.512l0.167 0.127 0.353 0.335 10.685 10.783 0.762 0.779c0.086 0.195 0.141 0.413 0.141 0.623 0 0.76-0.56 1.369-1.315 1.57l-0.154 0.035H363.498v-5.438h49.344v-39.533h-46.665v-5.407h114.942l8.123-8.29 0.597-0.615a2.903 2.903 0 0 1 1.69-0.56z m-49.164 14.873H430.37v39.533h11.996v-39.533z m384.118 20.996H792.82v15.75h33.662v-15.75zM484.26 406.57c0.216 0 0.417 0.054 0.62 0.118l0.152 0.05 0.48 0.209 13.01 5.684 0.284 0.117a2.68 2.68 0 0 1 1.462 2.391c0 0.31-0.06 0.619-0.164 0.903-0.225 0.343-0.42 0.694-0.645 1.028-8.076 12.03-19.826 19.077-26.23 22.246-0.314 0.142-0.614 0.309-0.899 0.434-0.105 0.025-0.21 0.067-0.322 0.067a1.77 1.77 0 0 1-1.762-1.789c0-0.142 0.045-0.267 0.082-0.401 0.098-0.21 0.173-0.418 0.263-0.619 5.886-13.183 9.477-23.298 11.09-28.139 0.127-0.334 0.21-0.635 0.314-0.91 0.458-0.812 1.268-1.389 2.265-1.389z m246.77-16.623c0.07 0 0.132 0.018 0.19 0.034l0.084 0.022 1.028 0.261 10.603 2.774 0.828 0.214c0.908 0.42 1.56 1.245 1.56 2.227 0 0.175-0.081 0.333-0.113 0.5-0.193 0.364-0.37 0.737-0.571 1.093-2.728 5.157-5.717 9.854-8.776 14.111l-0.613 0.846h13.979l6.712-6.73 0.418-0.412c0.49-0.372 1.125-0.634 1.808-0.634 0.535 0 1.02 0.17 1.44 0.415l0.176 0.109 0.86 0.84 9.027 9.075 0.587 0.61c0.137 0.222 0.217 0.476 0.217 0.737 0 0.729-0.502 1.317-1.22 1.545l-0.147 0.04h-38.213c-12.114 14.687-23.802 22.193-23.802 22.193 12.38-22.819 18.85-40.605 21.117-47.373 0.153-0.444 0.29-0.84 0.402-1.19a2.845 2.845 0 0 1 2.42-1.307z m-349.002 16.623c0.277 0.05 0.563 0.114 0.873 0.17 11.822 2.027 23.963 9.818 23.963 21.022 0 9.68-5.414 12.055-10.225 12.055-14.35 0-4.468-18.03-15.769-30.198-0.13-0.154-0.26-0.3-0.4-0.446-0.179-0.268-0.293-0.552-0.293-0.876 0-0.948 0.824-1.694 1.851-1.727z m530.437-16.623c0.297 0 0.595 0.044 0.869 0.124l0.2 0.067 0.884 0.551 11.183 6.972 0.884 0.558c0.48 0.444 0.775 1.041 0.775 1.715 0 0.49-0.186 0.926-0.473 1.3-0.24 0.23-0.488 0.452-0.752 0.682-15.081 13.728-32.945 21.052-42.579 24.243-0.387 0.138-0.736 0.237-1.085 0.36-1.007-0.016-1.813-0.743-1.813-1.63 0-0.284 0.093-0.52 0.209-0.735 0.217-0.222 0.426-0.421 0.643-0.628 15.772-15.282 24.979-27.128 28.528-32.04 0.225-0.284 0.45-0.59 0.62-0.835 0.48-0.444 1.163-0.704 1.907-0.704z m-85.982 11.567H792.82v18.706h33.662v-18.706z m-178.001-11.567c0.279 0 0.566 0 0.837 0.007 10.185 0.46 16.856 5.516 17.616 10.44 0.962 6.237-3.716 9.501-7.803 9.501-9.014 0-4.111-9.384-11.356-17.26-0.194-0.218-0.372-0.422-0.613-0.626a1.86 1.86 0 0 1-0.116-0.583c0-0.743 0.613-1.333 1.435-1.479z m350.868 0c0.604 0 1.15 0.193 1.61 0.513l0.169 0.125 0.517 0.546 11.425 12.214 0.776 0.848c0.097 0.202 0.145 0.429 0.145 0.672 0 0.79-0.565 1.447-1.326 1.67l-0.145 0.035h-78.59v-5.543h53.67l9.558-10.03 0.347-0.378a2.866 2.866 0 0 1 1.844-0.672zM420.017 557.29v2.21c-4.658 0.259-7.667 1.082-9.064 2.44-1.378 1.37-2.09 4.106-2.09 8.193v43.502c0 7.96-1.931 13.84-5.793 17.66-3.88 3.855-8.67 5.787-14.379 5.787-3.74 0-6.673-0.841-8.754-2.542-2.1-1.702-3.14-3.588-3.14-5.668 0-2.127 0.59-3.652 1.78-4.558 1.19-0.906 2.475-1.35 3.844-1.35 2.7 0 4.686 1.627 5.99 4.919 1.293 3.273 2.652 4.918 4.105 4.918 1.556 0 2.652-0.675 3.243-2.015 0.61-1.36 0.937-3.708 0.937-7.073v-53.58c0-4.392-0.74-7.203-2.193-8.442-1.444-1.239-4.434-1.97-8.98-2.191v-2.21h34.494z m110.28-3.325l1.17 27.06h-2.897c-1.668-5.376-3.857-9.709-6.567-12.998-5.153-6.204-12.093-9.296-20.83-9.296-8.805 0-15.99 3.336-21.585 10-5.585 6.664-8.383 15.838-8.383 27.521 0 10.753 2.945 19.325 8.815 25.735 5.86 6.41 13.33 9.616 22.341 9.616 6.508 0 12.506-1.486 17.993-4.465 3.151-1.692 6.606-4.24 10.376-7.651l2.326 2.237c-2.778 3.365-6.223 6.326-10.375 8.882-7.048 4.305-14.675 6.476-22.901 6.476-13.527 0-24.256-4.154-32.197-12.425-7.343-7.651-10.994-17.192-10.994-28.64 0-11.72 3.867-21.57 11.602-29.523 8.148-8.355 18.759-12.529 31.814-12.529 4.545 0 9.237 0.64 14.018 1.937 4.8 1.297 7.49 1.945 8.03 1.945 1.197 0 2.336-0.32 3.386-0.95 1.06-0.62 1.806-1.597 2.218-2.932h2.64zM604.749 557.29c9.729 0 17.438 1.543 23.156 4.649 5.69 3.105 8.553 8.441 8.553 16.035 0 5.703-2.001 10.013-5.984 12.978-2.247 1.675-5.632 3.086-10.146 4.178 5.576 1.336 10.355 3.567 14.3 6.672 3.954 3.124 5.926 7.481 5.926 13.1 0 9.42-4.38 15.885-13.152 19.414-4.627 1.844-10.317 2.766-17.077 2.766h-39.59v-2.249c4.856-0.273 8.032-1.007 9.464-2.24 1.442-1.232 2.153-4.093 2.153-8.582v-53.65c0-4.441-0.711-7.293-2.153-8.573-1.432-1.28-4.608-2.032-9.463-2.258v-2.24h34.013z m124.706 0l29.964 67.17c1.989 4.466 3.574 7.213 4.775 8.276 1.21 1.054 3.208 1.757 6.022 2.136v2.21h-30.573v-2.21c3.518-0.286 5.77-0.675 6.802-1.11 1.003-0.443 1.52-1.525 1.52-3.264 0-0.564-0.198-1.572-0.592-3.051a32.986 32.986 0 0 0-1.641-4.605l-4.813-11.392h-31.68c-3.124 7.74-4.99 12.474-5.6 14.194-0.61 1.701-0.901 3.06-0.901 4.068 0 1.989 0.816 3.366 2.458 4.134 1.013 0.462 2.936 0.804 5.741 1.026v2.21H687.1v-2.21c3.105-0.323 5.422-1.47 6.96-3.43 1.558-1.942 4.213-7.278 7.946-15.998l25.067-58.154h2.382z m94.391 0l46.107 56.693V574.6c0-6.472-0.979-10.698-2.927-12.65-1.267-1.266-4.119-2.09-8.509-2.46v-2.2h28.063v2.2c-4.548 0.454-7.586 1.564-9.106 3.293-1.51 1.729-2.274 5.714-2.274 11.92v62.38h-2.032l-52.845-64.989v46.143c0 6.473 0.942 10.68 2.852 12.659 1.24 1.267 4.027 2.136 8.342 2.598v2.192h-28.054v-2.192c4.93-0.499 8.118-1.618 9.516-3.328 1.389-1.711 2.078-5.697 2.078-11.93V566.02l-1.621-1.905c-1.743-2.043-3.225-3.31-4.455-3.79-1.23-0.473-3.067-0.768-5.518-0.833v-2.201h20.383z m134.715 0v2.24c-4.71 0.235-7.755 1.016-9.118 2.352-1.382 1.336-2.059 4.15-2.059 8.468v24.719c7.417-6.333 13.5-11.715 18.2-16.165 8.44-8.027 12.652-13.164 12.652-15.441 0-1.6-0.715-2.663-2.143-3.171-1.448-0.508-3.469-0.763-6.101-0.763v-2.239h31.566v2.24c-3.845 0.385-6.89 1.12-9.1 2.22-2.218 1.11-5.301 3.52-9.221 7.255l-23.52 21.81 28.69 31.043c5.226 5.56 8.79 9.052 10.67 10.425 1.889 1.393 4.652 2.296 8.3 2.739v2.06h-36.85v-2.06c3.338-0.123 5.603-0.386 6.778-0.81 1.175-0.404 1.768-1.223 1.768-2.446 0-0.668-0.386-1.703-1.157-3.058-0.761-1.374-1.964-2.983-3.628-4.78l-23.181-25.095-3.723 3.444v21.82c0 4.489 0.668 7.34 2.03 8.525 1.345 1.195 4.297 2.004 8.846 2.4v2.06h-34v-2.06c4.897-0.396 7.943-1.261 9.118-2.626 1.184-1.364 1.767-4.591 1.767-9.7v-52.317c0-4.357-0.667-7.19-1.974-8.46-1.306-1.28-4.286-2.079-8.911-2.39v-2.239h34.301zM594.01 597.186v31.405c0 2.175 0.622 3.592 1.847 4.232 1.244 0.62 4.099 0.935 8.603 0.935 6.47 0 11.892-1.24 16.258-3.74 4.365-2.51 6.538-7.322 6.538-14.418 0-7.057-2.538-11.889-7.654-14.477-5.117-2.579-11.616-3.878-19.538-3.878h-3.674c-0.523 0-1.304-0.03-2.38-0.059z m131.607-24.334l-14.679 34.308h29.357l-14.678-34.308z m-125.93-12.237c-2.583 0-4.164 0.229-4.752 0.686-0.627 0.448-0.925 1.711-0.925 3.74v28.82l11.77-0.189c4.135-0.07 7.577-0.766 10.315-2.059 5.224-2.487 7.837-6.964 7.837-13.41 0-7.61-3.018-12.744-9.042-15.41-3.345-1.442-8.416-2.178-15.202-2.178z" fill="#3F3A3A"></path></svg>