<svg viewBox="0 0 1024 1024" version="1.1" xmlns="http://www.w3.org/2000/svg"><path d="M67.5 419c-20.8 14.6-34.4 38.8-34.4 66.2 0 44.6 36.1 80.8 80.6 80.8 35.1 0 65-22.5 76.1-54-1 51.7-43.1 93.2-94.9 93.2-52.4 0-94.9-42.6-94.9-95.1 0-43 28.5-79.3 67.5-91.1z m32.6 6.7c-13.1 8.6-21.8 23.6-21.8 40.6 0 26.7 21.2 48.3 47.5 48.3 20.3 0 37.6-12.9 44.4-31.1-1.5 30-26.2 53.8-56.4 53.8-31.2 0-56.5-25.3-56.5-56.6 0-26.6 18.2-48.9 42.8-55z m9.9 27h36.2v36.2H110v-36.2z" fill="#330D72"></path><path d="M246.8 473.7V434h77.8v29.3c0.2 7.2-2.9 10.6-9.3 10.3h-23.6v3.9h34.6v10.3h-82.5v-10.2h35v-3.9h-32z m13.6-29.2v4.5h51v-4.5h-51z m51 15h-51v4.4h49.5c1 0.3 1.5-0.4 1.5-2.2v-2.2z m-64.5 57.4v-24.5h78v16.8c0.2 5.7-2 8.3-6.8 7.7h-25.4v6c0.2 6.9-2.4 10.2-7.9 9.9h-12.5v-9h3.9c1.7 0 2.5-0.4 2.5-1.3v-5.6h-31.8z m64.5-14h-52.5v4.3h50.6c1.2 0.5 1.9-0.1 1.9-2v-2.3z m-66 19.9h7c1.9 0.3 2.9 0 3.1-0.8l0.7-1.2h14.7L266 530c-1.2 1.9-3.4 2.8-6.6 2.8h-14v-10z m55.4 4.4l-2.9-6.4h15.7l0.4 1.2c-0.2 0.8 1.1 1.1 4 0.8h8.4v10H311c-5.3-0.2-8.7-2.1-10.2-5.6z m51-67.3h10.7l-4.9 13.3v59.6h-10.9v-49.3h-5.3v-11.6h2.1c1.4 0.3 2.5-0.6 3.2-2.6l2.8-9.4h-8.1v-12h2.1c1.4 0.3 2.6-0.4 3.5-2.1l3.9-10.3h13l-9.5 21.4c-0.7 1.7-1.5 2.6-2.4 2.9l-0.2 0.1z m13.6-8.8v-11.7h23l0.7-3.9H403l-1.1 3.9h21.9v11.7h-24.1l-1.1 4.3h24.9v19.9c0 8.4-3 12.6-9.1 12.6h-49v-32.5h19.4l1.5-4.3h-20.9z m10.5 23.3h4.5v-7.5h-4.5v7.5z m18 0h3v-7.5h-3v7.5z m15 0h3.1c0.9 0.3 1.4-0.4 1.4-2v-5.5h-4.5v7.5z m-43.5 28.5v-10.5h58.5v10.5h-58.5z m-4.5 17.6h0.7c0.5 0.3 1-0.3 1.4-1.8l2.1-12.8h10.7l-2.5 21.2c-0.5 3.8-3.2 5.7-8.2 5.7h-4.3v-12.3z m16.5 1.9v-16.5h12.5v10.9c-0.3 2.9 0.8 4.2 3.1 3.9h14.4v12.2h-18.7c-7.8-0.1-11.6-3.6-11.3-10.5z m16.8-11l-0.3-5.5h9.6l0.3 3.2c0.2 1.8 0.7 2.6 1.4 2.3h0.7v6.4h-6.2c-3.7 0.3-5.5-1.8-5.5-6.4z m14.7 11v-16.5h10.8v12.6c-0.2 2.3 0.2 3.3 1.3 3h1.3v11.3H418c-6.1-0.3-9.1-3.7-9.1-10.4z m33-71.5h3.7c1.2 0.3 2-0.4 2.2-2.1l1.9-13.2h11.6l-0.7 7.3h12.7v12.4h-14.2l-0.4 3.4c-0.7 2.8-2.9 4.1-6.4 3.8h-10.5v-11.6z m35.2-9.7h17.6V437h12.5v4.2h18.7v11h-18.7v5.9h16.1v51.1h1.8v10.6h-5.9l0.4 2.1c0.2 0.6 0.9 1 1.8 1.3h3.7v9.7h-11.4c-2.7 0-4.2-1.5-4.4-4.6l-2.2-8.4h-11l-1.8 8.9c-0.5 2.8-2.6 4.2-6.2 4.2h-11.7v-9.7h5.1l0.5-0.2c0.5-0.2 0.8-0.3 1-0.3l0.7-3h-7.3v-11h3.3v-50.7h15v-5.9h-17.6v-11z m35.2 31.7v-6h-21v6h21z m-62.5 19.4v-10.1h-7.6v-12.3H473v12.2h-10.2v10.1h10.6v12.2h-10.6v15.2c0 1.4 0.4 2 1.1 1.7h7.2v11.4h-15.6c-3.8 0-5.7-2.8-5.7-8.4v-19.8h-8v-12.2h8z m62.5-7.4v-6h-21v6h21z m0 6h-21v6h21v-6z m-20.9 12v7.5h21v-7.5h-21z m49.4-48.1v-11.9h34.3V437H589v5.9h34.3v11.9H589v6.8h32.8v58.1c0.5 6.8-2.9 10-10.2 9.8h-15.7V518h10.9c0.7 0.3 1.1-0.3 1.1-1.7v-42.8h-19.3v59.4h-13.5v-59.4h-20.8v56l-12.4-0.4v-67.5h33.2v-6.8h-34.3z m97.5-3.8v-13.2h34.6V434h14.4v3.8h33.5V451h-7.9l-4 8.5H719v61.3c1 8.8-2 12.6-9 11.5h-7.6v-11.9h1.4c1.4 0.3 2-0.4 1.8-2.1v-46.8h-9.7v4.7c-0.2 1.4 0.4 2 1.8 1.7h5v11.9h-13c-5.3 1.1-7.4-1.7-6.5-8.5v-9.8h-7.6v7.7c0.7 8.8-1.6 12.5-6.8 11.1h-12.2v-11.6h4.7c1.2 0 1.8-0.7 1.8-2.1v-5.1h-9.4v61.3h-14v-73.2h11.5l-3.6-8.5h-9.3z m53.7 8.5l4.8-7.5h-34.5l3.7 7.5h26z m-4.2 56.8v-8.9h-18v11.9h15.9c1.4 0.3 2.1-0.7 2.1-3z m5.4 13.4h-36.9v-34.3h44.9v25c0.5 7-2.1 10.1-8 9.3z m69.8-94.2h13.2v84h7.6v-84H797v84h25.7v13.3h-84v-13.3H763v-84z m44.8 54.2l3-49.7h12l-3.4 54.4c-0.7 8.2-3.6 12-8.6 11.5h-9v-12.8h3.4c1.2 0.3 2.1-0.9 2.6-3.4z m-66.3 2.9l-2.7-51.1H751l2.3 46.6c-0.3 3.2 0.5 4.6 2.3 4.1h2.7v12.2h-9.6c-4.8 0.5-7.2-3.5-7.2-11.8zM873.8 437h45v44.5c0 5.2-2.5 7.9-7.5 7.9h-24.7v32.3c-0.2 2 0.4 2.9 1.9 2.6h4.9v10H881c-4.7-0.3-7.1-2.5-7.1-6.5V437z m31.5 21v-7.5h-19.5v7.5h19.5z m-19.5 20.9h17.6c1.2 0.3 1.9-0.7 1.9-3v-7.4h-19.5v10.4z m12.8 48.4l-5.3-34.9h11.4l1.1 7.6h3c1.3 0 1.9-0.7 1.9-2.2v-4.9h9.5v7.1c-0.3 6.3-2.5 9.4-6.8 9.4h-6.1l2.3 13c0 2.1 1.4 3.1 4.2 3.1h5.7v10.3h-13.7c-4.1 0.3-6.5-2.5-7.2-8.5z m-65.3-66.4v-11.6h1.9c1.8 0 2.8-0.9 3.1-2.6l3.1-11.2h13.4l-1.5 5.6h16.1V454h-19.1c-1.3 4.9-3.6 7.2-6.9 6.9h-10.1z m0.4 16.7v-12.2h35.6v12.2H855v11.8h13.9v12.2H855V519c-0.3 3.2 1 4.5 3.9 3.9h7.4v11.3h-17.8c-4.4 0-6.5-3.5-6.2-10.5v-22.1h-8.9v-12.2h8.9v-11.8h-8.6z m98.5-29.6h7.2c2.3 0.3 3.9-1.2 4.9-4.5l2.7-8h16.7l-7.6 19.2c-2 4.5-6.1 6.5-12.1 6.2h-11.8V448z m85.5 2.5h-52.5V437h52.5v13.5z m-54 10.5h54v13.1h-4.9v48c0 7.9-4.4 11.9-13.1 12.2h-26.2v-14h22.1c1.7 0.3 2.6-1.2 2.6-4.4v-41.8h-34.5V461z m-3 0l-7.2 18.8v54.6h-14.8v-47.7h-6.5v-14.8h4.6c1 0 1.8-0.6 2.3-1.7 0 0.3 0.1 0.1 0.4-0.4l4.2-8.7h17zM245.3 561.5c0-0.4 0.3-0.6 0.8-0.6h10.6c0.5 0 0.8 0.2 0.8 0.6 0 0.4-0.3 0.5-0.8 0.5-0.7 0.1-1.2 0.2-1.6 0.5-0.3 0.3-0.5 0.6-0.5 0.8-0.1 0.5-0.2 1.1-0.2 1.8v16.6c-0.1 1.1-0.3 2.2-0.6 3.2-0.5 1.4-1.3 2.5-2.5 3.3-1.4 0.7-3 1.1-4.7 1-1 0-2.1-0.5-3.1-1.4-1.8-1.6-2.2-2.8-2.2-4 0.3-1.4 0.7-2.2 1.9-2.5 0.6-0.1 1.4 0 1.9 0.4 0.9 0.7 1.3 1.6 1.2 2.6v0.3c0 0.5-0.2 1-0.6 1.6-0.2 0.3-0.3 0.3 0 0.6 1 0.7 1.9 0.5 2.6-0.5 0.3-0.7 0.5-1.4 0.5-2.1V565c0-1.1-0.1-1.8-0.4-2.3-0.4-0.4-0.9-0.6-1.6-0.7h-0.3c-0.9 0-1.2-0.2-1.2-0.5z m18.1-0.1c0-0.3 0.2-0.5 0.7-0.5h9c0.5 0 0.7 0.2 0.7 0.5s-0.2 0.5-0.6 0.5h-0.2c-0.6 0-1 0.2-1.4 0.4-0.3 0.4-0.5 1.1-0.6 2.1v18.1c0 0.5 0.1 1 0.2 1.5 0.2 0.6 0.8 1 1.8 1 0.5 0 0.7 0.2 0.7 0.5 0 0.4-0.2 0.6-0.7 0.6h-9c-0.5 0-0.7-0.2-0.7-0.5 0-0.4 0.2-0.6 0.7-0.6 0.8 0 1.4-0.3 1.7-0.8 0.1-0.5 0.2-1.1 0.3-1.9v-17.8c0-1.2-0.2-2-0.7-2.4-0.2-0.2-0.6-0.3-1-0.3h-0.3c-0.4 0.1-0.6 0-0.6-0.4z m15 0c0-0.3 0.2-0.5 0.7-0.5h6.8c0.5 0 0.9 0.2 1.3 0.7L297 575c0.3 0.4 0.5 0.5 0.5 0.1v-10.8c-0.1-1.3-0.8-2.1-2.4-2.3-0.5 0-0.8-0.2-0.8-0.5s0.2-0.5 0.7-0.5h6.5c0.5 0 0.8 0.2 0.8 0.5s-0.2 0.5-0.7 0.5h-0.2c-0.6 0-1.1 0.2-1.5 0.6-0.5 0.5-0.7 1.1-0.8 1.7v21.3c0 0.5-0.1 0.7-0.4 0.7-0.3 0-0.6-0.2-1-0.7-3.1-4.1-6.2-8.2-9.3-12.4l-4.6-6.2c-0.3-0.5-0.5-0.5-0.5-0.1v16c0.1 1.3 0.9 2.1 2.4 2.3 0.5 0 0.8 0.2 0.8 0.5 0 0.4-0.3 0.6-0.8 0.6h-6.5c-0.5 0-0.8-0.2-0.8-0.5 0-0.4 0.3-0.6 0.8-0.6 1.6-0.2 2.5-1.1 2.5-2.5v-18c0.2-0.4-0.1-1-0.9-1.7-0.4-0.5-0.9-0.9-1.7-1-0.5-0.1-0.7-0.3-0.7-0.6z m50.1 0.2c0.3-0.5 0.5-0.7 0.8-0.7 0.3 0 0.5 0.2 0.5 0.7v7.3c0 0.5-0.2 0.7-0.5 0.7s-0.5-0.2-0.7-0.6l-0.1-0.2c-0.9-2.3-2.4-4.1-4.4-5.3-2-1.1-4-1.2-6.1-0.6-1.5 0.7-2.6 1.7-3.2 3.1-1 1.9-1.5 4-1.5 6.2v2.5c0.1 2 0.5 3.9 1.1 5.7 1 2.4 2.8 3.8 5.3 3.9 1.4 0.1 2.6 0 3.6-0.4 0.4-0.2 0.6-0.4 0.6-0.8v-4.3c0-0.5-0.1-0.9-0.2-1.4-0.1-0.5-0.4-0.9-1.2-1.1-0.4-0.1-0.7-0.2-1.1-0.2-0.5 0-0.8-0.2-0.8-0.5s0.2-0.5 0.7-0.5h10.1c0.5 0 0.8 0.2 0.8 0.5s-0.2 0.5-0.7 0.6h-0.2c-0.8 0-1.4 0.4-1.7 1-0.1 0.6-0.2 1.1-0.2 1.8v4.3c0 0.5-0.2 0.9-0.7 1.1-1.4 0.8-3.5 1.3-6.1 1.5-0.5 0-1 0.1-1.6 0.1h-2.4c-2.1 0-4.1-0.6-6.1-1.8-1.9-1.2-3.4-2.7-4.4-4.6-1-2.1-1.5-4.2-1.4-6.5 0.1-2 0.5-3.9 1.5-5.7 1.6-2.9 3.8-4.9 6.5-6 1.9-0.7 4.1-1 6.5-0.8 1.1 0.1 2.1 0.3 3.1 0.7l2.3 0.9c0.8 0.7 1.4 0.4 1.9-0.6z m8.4-0.2c0-0.3 0.2-0.5 0.7-0.5h11c2.3 0.2 4.3 0.8 5.9 1.9 1.6 1.1 2.8 2.6 3.6 4.5 0.9 2 1.3 4.2 1.2 6.7-0.1 2.6-0.6 4.8-1.7 6.8-0.5 1-1.3 2-2.4 2.9-2 1.6-4.4 2.4-7.2 2.5h-10.4c-0.5 0-0.8-0.2-0.8-0.6 0-0.3 0.3-0.5 0.9-0.5 0.6 0 1.1-0.2 1.5-0.4 0.4-0.2 0.6-0.5 0.6-1 0.1-0.5 0.1-1.1 0.2-1.7v-16.5c-0.1-0.5-0.1-1-0.1-1.5-0.1-0.9-0.3-1.5-0.9-1.7-0.4-0.2-0.9-0.3-1.5-0.3-0.4-0.1-0.6-0.2-0.6-0.6z m9.9 1h-0.4c-0.4 0-0.6 0.2-0.6 0.6v20.4c0.2 0.8 0.5 1.2 1.2 1.3h0.2c1.8 0.1 3.3-0.7 4.5-2.4 1-1.8 1.5-4.3 1.6-7.3v-2.6c-0.1-2.7-0.6-4.9-1.5-6.8-1.2-2.2-2.9-3.3-5-3.2z m18.5-1c0-0.3 0.2-0.5 0.7-0.5h18c0.5 0 0.8 0.2 0.8 0.7v6.2c0 0.5-0.2 0.8-0.5 0.8s-0.6-0.3-0.6-0.8c-0.3-1.2-0.6-2.2-1.1-2.9-0.3-0.5-0.7-1-1.3-1.4-1-0.5-2.3-0.8-3.9-0.9h-2.2c-0.4 0-0.6 0.2-0.6 0.6v8.6c0 0.4 0.2 0.6 0.6 0.6 1.2-0.1 2.1-0.6 2.8-1.6 0.4-0.9 0.8-2.1 1-3.5 0.1-0.5 0.3-0.7 0.6-0.7s0.5 0.2 0.5 0.7v12c0 0.5-0.2 0.8-0.5 0.8s-0.5-0.2-0.5-0.6v-0.2c-0.2-1.2-0.5-2.2-0.8-3-0.6-1.4-1.6-2.1-3-2.2-0.4 0-0.6 0.2-0.6 0.6v7.2c0 0.5 0.1 1 0.2 1.5 0.2 0.5 0.5 0.7 0.9 0.8 1.5 0.2 3.1 0.1 4.9-0.3 1.8-0.4 3.1-1.7 4.1-3.7 0.2-0.5 0.4-1.1 0.6-1.7 0.2-0.5 0.4-0.7 0.7-0.7 0.3 0 0.5 0.2 0.4 0.7l-0.9 6.7c-0.1 0.6-0.4 0.9-0.9 0.9h-18.4c-0.5 0-0.8-0.2-0.8-0.5s0.2-0.5 0.7-0.6h0.2c0.5 0 1-0.1 1.3-0.3l0.2-0.1c0.3-0.1 0.6-0.5 0.6-1 0.1-0.4 0.2-1 0.2-1.6v-16.9l-0.2-1.5c0-0.8-0.4-1.3-1.1-1.5-0.3-0.1-0.5-0.1-0.8-0.1h-0.4c-0.6-0.1-0.9-0.2-0.9-0.6z m29.1 0.3c0.1-0.5 0.3-0.8 0.8-0.8h16.1c0.5 0 0.6 0.2 0.4 0.7l-12.1 22.3c-0.2 0.4-0.1 0.6 0.3 0.6h4.6c1.5 0 3-0.4 4.4-1.3 1-0.7 1.8-1.7 2.4-2.9 0.3-0.6 0.6-1.3 0.8-2l0.2-0.7c0.1-0.5 0.3-0.8 0.6-0.8s0.5 0.2 0.5 0.7c-0.3 2.6-0.5 5.2-0.8 7.8-0.1 0.6-0.3 0.9-0.8 0.9h-18.9c-0.5 0-0.6-0.2-0.4-0.7 4-7.4 8-14.8 12-22.3 0.2-0.4 0.1-0.6-0.3-0.6h-4.5c-1.1 0.1-2 0.7-3 1.7-1.1 1.4-1.7 2.5-1.8 3.3-0.1 0.6-0.2 0.9-0.5 0.9s-0.5-0.2-0.5-0.7c0.2-2 0.4-4.1 0.5-6.1z m24.9-0.3c0-0.3 0.2-0.5 0.7-0.5h10.7c0.5 0 0.8 0.2 0.8 0.5s-0.3 0.5-0.8 0.5c-0.7 0-1.3 0.2-1.8 0.5-0.2 0.1-0.3 0.3-0.4 0.6l-0.1 0.3c-0.1 0.5-0.2 0.9-0.2 1.4v6.9c0 0.4 0.2 0.6 0.6 0.6h6.3c0.4 0 0.6-0.2 0.6-0.6v-6.9c0-0.5-0.1-1-0.2-1.5 0-0.5-0.4-0.9-1.1-1.2-0.3-0.1-0.7-0.2-1.1-0.2-0.6 0-0.8-0.2-0.8-0.5s0.3-0.5 0.8-0.5H444c0.5 0 0.8 0.2 0.8 0.5s-0.3 0.5-0.8 0.5c-0.7 0.1-1.2 0.2-1.5 0.4-0.3 0.1-0.5 0.3-0.6 0.5v0.1c-0.2 0.4-0.2 1-0.3 1.8v18.2l0.1 0.7c0 0.3 0.1 0.6 0.4 0.9 0.4 0.3 0.9 0.5 1.6 0.5h0.3c0.5 0 0.8 0.2 0.8 0.5 0 0.4-0.2 0.6-0.7 0.6h-10.7c-0.5 0-0.8-0.2-0.8-0.5s0.2-0.5 0.6-0.6h0.2c0.6 0 1.2-0.1 1.6-0.3 0.3-0.2 0.5-0.4 0.6-0.6 0.2-0.5 0.3-1.1 0.3-1.9v-7.5c0-0.4-0.2-0.6-0.6-0.6H429c-0.4 0-0.6 0.2-0.6 0.6v7.4c0 1 0.1 1.8 0.4 2.2 0.4 0.4 1 0.6 1.8 0.7 0.6 0 0.9 0.2 0.9 0.5 0 0.4-0.2 0.6-0.7 0.6h-10.7c-0.5 0-0.8-0.2-0.8-0.6 0-0.3 0.3-0.5 0.9-0.5 0.5 0 0.9-0.1 1.3-0.3l0.2-0.1c0.4-0.2 0.6-0.5 0.6-1 0.1-0.4 0.2-1 0.2-1.6v-16.6c-0.1-0.5-0.1-1-0.1-1.5-0.1-0.9-0.3-1.5-0.9-1.7-0.4-0.2-0.9-0.3-1.5-0.3-0.4 0.1-0.7 0-0.7-0.4z m30 0c0-0.3 0.2-0.5 0.7-0.5h17.9c0.5 0 0.8 0.2 0.8 0.7v6.2c0 0.5-0.2 0.8-0.5 0.8s-0.6-0.3-0.6-0.8c-0.3-1.2-0.6-2.2-1.1-2.9-0.3-0.5-0.7-1-1.3-1.4-1-0.5-2.3-0.8-3.9-0.9H459c-0.4 0-0.6 0.2-0.6 0.6v8.6c0 0.4 0.2 0.6 0.6 0.6 1.2-0.1 2.1-0.6 2.8-1.6 0.4-0.9 0.8-2.1 1-3.5 0.1-0.5 0.3-0.7 0.6-0.7s0.5 0.2 0.5 0.7v12c0 0.5-0.2 0.8-0.5 0.8s-0.5-0.2-0.6-0.7c-0.2-1.2-0.5-2.2-0.8-3-0.6-1.4-1.6-2.1-3-2.2-0.4 0-0.6 0.2-0.6 0.6v7.2c0 0.5 0.1 1 0.2 1.5 0.2 0.5 0.5 0.7 0.9 0.8 1.5 0.2 3.1 0.1 4.9-0.3 1.8-0.4 3.1-1.7 4.1-3.7 0.2-0.5 0.4-1.1 0.6-1.7 0.2-0.5 0.4-0.7 0.7-0.7 0.3 0 0.5 0.2 0.4 0.7l-0.9 6.7c-0.1 0.6-0.4 0.9-0.9 0.9H450c-0.5 0-0.8-0.2-0.8-0.5s0.2-0.5 0.7-0.6h0.2c0.7 0 1.2-0.2 1.5-0.4 0.3-0.1 0.5-0.4 0.6-0.8v-0.2c0.1-0.4 0.2-1 0.2-1.6v-16.9l-0.2-1.5c0-0.8-0.4-1.3-1.1-1.5-0.3-0.1-0.5-0.1-0.8-0.1h-0.4c-0.3-0.2-0.6-0.3-0.6-0.7z m27 0c0-0.3 0.2-0.5 0.7-0.5h6.8c0.5 0 0.9 0.2 1.3 0.7l9.8 13.3c0.3 0.4 0.5 0.5 0.5 0.1v-10.8c-0.1-1.3-0.8-2.1-2.4-2.3-0.5 0-0.8-0.2-0.8-0.5s0.2-0.5 0.7-0.5h6.5c0.5 0 0.8 0.2 0.8 0.5s-0.2 0.5-0.7 0.5h-0.2c-0.6 0-1.1 0.2-1.5 0.6-0.5 0.5-0.7 1.1-0.8 1.7v21.3c0 0.5-0.1 0.7-0.4 0.7-0.3 0-0.6-0.2-1-0.7-3.1-4.1-6.2-8.2-9.3-12.4l-4.6-6.2c-0.3-0.5-0.5-0.5-0.5-0.1v15.5c0.1 1.3 0.9 2.1 2.4 2.3 0.5 0 0.8 0.2 0.8 0.5 0 0.4-0.3 0.6-0.8 0.6h-6.5c-0.5 0-0.8-0.2-0.8-0.5 0-0.4 0.3-0.6 0.8-0.6 1.6-0.2 2.5-1.1 2.5-2.5v-17.5c0.2-0.4-0.1-1-0.9-1.7-0.4-0.5-0.9-0.9-1.7-1-0.5 0-0.7-0.2-0.7-0.5z m55.9 0.2c0.1-0.5 0.3-0.7 0.6-0.7s0.4 0.2 0.4 0.7v7.2c0 0.5-0.1 0.8-0.4 0.8-0.3 0-0.5-0.2-0.6-0.7-0.5-2.3-1.9-4.1-4.1-5.4-1.1-0.5-2.1-0.7-3.2-0.6h-0.4c-1.6 0.2-3 1.1-4.2 2.8-1.3 2.2-1.9 4.4-2 6.7v2.2c0.1 2 0.4 3.9 1 5.7 0.9 2.3 2.6 3.7 4.8 4 2.9 0.3 5.5-0.9 7.8-3.6l0.3-0.4c0.3-0.5 0.5-0.4 0.5 0v1.2c0 0.5-0.2 1-0.7 1.5-1.3 1.4-2.9 2.3-4.7 2.9-1.7 0.5-3.9 0.6-6.7 0-1-0.3-2-0.7-2.9-1.2-2.3-1.4-3.8-3.3-4.7-5.5-1.1-2.9-1.2-6.1-0.3-9.4 0.7-2.2 2-4.2 3.9-6 1.9-1.6 3.9-2.5 5.9-2.8 2.1-0.3 4.3 0 6.6 1 0.7 0.3 1.3 0.5 1.9 0.6 0.7 0.1 1-0.3 1.2-1z m8.6-0.2c0-0.3 0.2-0.5 0.7-0.5h9c0.5 0 0.7 0.2 0.7 0.5s-0.2 0.5-0.6 0.5h-0.2c-0.6 0-1 0.2-1.4 0.4-0.3 0.4-0.5 1.1-0.6 2.1v18.1c0 0.5 0.1 1 0.2 1.5 0.2 0.6 0.8 1 1.8 1 0.5 0 0.7 0.2 0.7 0.5 0 0.4-0.2 0.6-0.7 0.6h-9c-0.5 0-0.7-0.2-0.7-0.5 0-0.4 0.2-0.6 0.7-0.6 0.8 0 1.4-0.3 1.7-0.8 0.1-0.5 0.2-1.1 0.3-1.9v-17.8c0-1.2-0.2-2-0.7-2.4-0.2-0.2-0.6-0.3-1-0.3h-0.3c-0.4 0.1-0.6 0-0.6-0.4z m16.5 0.3c0-0.5 0.2-0.8 0.7-0.8h18c0.5 0 0.8 0.2 0.8 0.7v5.6c0 0.5-0.1 0.7-0.4 0.7s-0.5-0.2-0.6-0.7c-0.3-1.1-0.6-2.1-1.1-3-0.4-0.7-0.9-1.1-1.5-1.3-0.7-0.2-1.5-0.4-2.3-0.3h-0.5c-0.4 0-0.6 0.2-0.6 0.6v18.9c0 0.9 0.1 1.7 0.3 2.2 0.3 0.5 1 0.7 2 0.8 0.5 0 0.7 0.2 0.7 0.5 0 0.4-0.2 0.6-0.7 0.6H562c-0.5 0-0.7-0.2-0.7-0.5 0-0.4 0.2-0.6 0.7-0.6 0.7 0 1.3-0.2 1.7-0.4 0.4-0.5 0.6-1.2 0.6-2.3v-19.1c0-0.4-0.2-0.6-0.6-0.6-1 0-1.7 0-2.2 0.1-0.8 0.1-1.5 0.6-2.1 1.4-0.4 0.8-0.8 1.8-1.1 3-0.1 0.5-0.3 0.8-0.6 0.8s-0.4-0.2-0.4-0.7v-5.6z m25.4-0.3c0-0.3 0.2-0.5 0.7-0.5h9.5c0.5 0 0.8 0.2 0.8 0.5s-0.3 0.5-0.8 0.6c-1.3 0-1.7 0.6-1.3 1.7l0.1 0.2c0.4 0.9 0.9 1.9 1.4 3 0.7 1.4 1.4 2.9 2.1 4.3l1.1 2.2c0.2 0.4 0.4 0.4 0.7 0l1.4-2.5c1.6-2.9 2.7-5.1 3.3-6.4 0.3-0.6 0.4-1.2 0.2-1.6-0.4-0.5-0.9-0.7-1.6-0.7-0.5 0-0.8-0.2-0.8-0.5s0.3-0.5 0.8-0.5h5.6c0.5 0 0.8 0.2 0.8 0.5s-0.2 0.6-0.7 0.6c-0.5 0.1-1 0.5-1.5 1-0.4 0.5-0.9 1.5-1.7 3l-5 9.3c-0.2 0.3-0.2 0.6-0.2 1v6c0 0.9 0.1 1.7 0.4 2.2 0.5 0.4 1.3 0.7 2.4 0.6 0.5 0 0.8 0.2 0.8 0.5 0 0.4-0.2 0.6-0.7 0.6h-11.4c-0.5 0-0.8-0.2-0.8-0.5 0-0.4 0.3-0.6 0.8-0.6 0.9 0 1.6-0.1 2.3-0.5 0.2-0.1 0.3-0.3 0.4-0.7 0.1-0.5 0.2-1 0.2-1.5v-5c0-0.4-0.1-0.7-0.2-1l-5.9-11.9-0.8-1.5c-0.4-0.6-0.8-1-1.4-1.1-0.7-0.3-1-0.4-1-0.8z m57.5 0.2c0.1-0.5 0.3-0.7 0.6-0.7s0.4 0.2 0.4 0.7v7.2c0 0.5-0.1 0.8-0.4 0.8-0.3 0-0.5-0.2-0.6-0.7-0.5-2.3-1.9-4.1-4.1-5.4-1.1-0.5-2.1-0.7-3.2-0.6h-0.4c-1.6 0.2-3 1.1-4.2 2.8-1.3 2.2-1.9 4.4-2 6.7v2.2c0.1 2 0.4 3.9 1 5.7 0.9 2.3 2.6 3.7 4.8 4 2.9 0.3 5.5-0.9 7.8-3.6l0.3-0.4c0.3-0.5 0.5-0.4 0.5 0v1.2c0 0.5-0.2 1-0.7 1.5-1.3 1.4-2.9 2.3-4.7 2.9-1.7 0.5-3.9 0.6-6.7 0-1-0.3-2-0.7-2.9-1.2-2.3-1.4-3.8-3.3-4.7-5.5-1.1-2.9-1.2-6.1-0.3-9.4 0.7-2.2 2-4.2 3.9-6 1.9-1.6 3.9-2.5 5.9-2.8 2.1-0.3 4.3 0 6.6 1 0.7 0.3 1.3 0.5 1.9 0.6 0.6 0.1 1-0.3 1.2-1z m13.4 0.8c2.5-1.2 5.2-1.7 8-1.4l0.6 0.1c2.1 0.2 4.1 1.1 6.1 2.7 2.1 1.9 3.4 3.9 4 6.1 0.5 1.9 0.6 4.2 0.2 6.9-0.3 2-1.3 3.8-3 5.7-1.5 1.6-3.3 2.7-5.4 3.4-2.3 0.6-4.7 0.7-7.1 0.2-3.7-0.7-6.5-2.9-8.4-6.4-1.3-2.8-1.6-5.8-1-9 0.4-2 1.4-3.9 3-5.7 0.9-1.2 1.9-2 3-2.6z m10.2 1.4c-1.7-1.4-3.7-1.8-6.1-1.1-1.4 0.6-2.4 1.4-2.9 2.5-1 2-1.5 4.4-1.6 7v2.9c0.1 2.1 0.5 4 1.2 5.9 1 2.5 3 3.8 6 3.8 2.6-0.2 4.4-1.6 5.4-4.4 0.5-1.6 0.8-3.4 0.9-5.6v-2.3c-0.1-2.2-0.4-4.2-1.1-6-0.3-0.9-0.9-1.8-1.8-2.7z m13.4-2.4c0-0.3 0.3-0.5 0.8-0.5h8.2c0.5 0 0.8 0.2 1 0.7 1.9 4.9 3.8 9.9 5.8 14.8 0.2 0.4 0.3 0.3 0.5-0.1l5.4-14.6c0.2-0.5 0.5-0.8 1-0.8h8.1c0.5 0 0.8 0.2 0.8 0.5s-0.2 0.4-0.6 0.5h-0.2c-0.9 0-1.6 0.3-2 0.8-0.2 0.5-0.4 1.3-0.4 2.4v17.2c0.1 0.5 0.1 1 0.2 1.5 0.1 0.4 0.3 0.8 0.5 0.9 0.5 0.3 1.1 0.4 1.8 0.4 0.5 0 0.8 0.2 0.8 0.5 0 0.4-0.2 0.6-0.7 0.6h-10.7c-0.5 0-0.8-0.2-0.8-0.5 0-0.4 0.3-0.6 0.8-0.6 0.8 0 1.4-0.2 1.8-0.6 0.4-0.5 0.6-1.2 0.6-2.2v-17.4c0-0.4-0.1-0.4-0.3 0.1-2.5 6.8-5.1 13.6-7.7 20.4-0.2 0.5-0.4 0.7-0.6 0.7-0.2 0-0.4-0.2-0.6-0.7l-8-20.2c-0.2-0.5-0.3-0.5-0.3-0.1v17.6c0.3 1.5 1.1 2.3 2.4 2.4 0.5 0 0.8 0.2 0.8 0.5 0 0.4-0.3 0.6-0.8 0.6H678c-0.5 0-0.8-0.2-0.8-0.6 0-0.3 0.3-0.5 0.8-0.5 1.7-0.2 2.5-1.1 2.5-2.6V565c0-0.5-0.1-1-0.2-1.5 0-0.7-0.5-1.2-1.3-1.4-0.2 0-0.5-0.1-0.7-0.1h-0.3c-0.5-0.1-0.8-0.2-0.8-0.6z m37.5 0c0-0.3 0.3-0.5 0.8-0.5h8.2c0.5 0 0.8 0.2 1 0.7 1.9 4.9 3.8 9.9 5.8 14.8 0.2 0.4 0.3 0.3 0.5-0.1l5.4-14.6c0.2-0.5 0.5-0.8 1-0.8h8.1c0.5 0 0.8 0.2 0.8 0.5s-0.2 0.4-0.6 0.5h-0.2c-0.9 0-1.6 0.3-2 0.8-0.2 0.5-0.4 1.3-0.4 2.4v17.2c0.1 0.5 0.1 1 0.2 1.5 0.1 0.4 0.3 0.8 0.5 0.9 0.5 0.3 1.1 0.4 1.8 0.4 0.5 0 0.8 0.2 0.8 0.5 0 0.4-0.2 0.6-0.7 0.6H735c-0.5 0-0.8-0.2-0.8-0.5 0-0.4 0.3-0.6 0.8-0.6 0.8 0 1.4-0.2 1.8-0.6 0.4-0.5 0.6-1.2 0.6-2.2v-17.4c0-0.4-0.1-0.4-0.3 0.1-2.5 6.8-5.1 13.6-7.7 20.4-0.2 0.5-0.4 0.7-0.6 0.7-0.2 0-0.4-0.2-0.6-0.7l-8-20.2c-0.2-0.5-0.3-0.5-0.3-0.1v17.6c0.3 1.5 1.1 2.3 2.4 2.4 0.5 0 0.8 0.2 0.8 0.5 0 0.4-0.3 0.6-0.8 0.6h-6.6c-0.5 0-0.8-0.2-0.8-0.6 0-0.3 0.3-0.5 0.8-0.5 1.7-0.2 2.5-1.1 2.5-2.6V565c0-0.5-0.1-1-0.2-1.5 0-0.7-0.5-1.2-1.3-1.4-0.2 0-0.5-0.1-0.7-0.1h-0.3c-0.8-0.1-1-0.2-1-0.6z m36 0c0-0.3 0.2-0.5 0.7-0.5h17.9c0.5 0 0.8 0.2 0.8 0.7v6.2c0 0.5-0.2 0.8-0.5 0.8s-0.6-0.3-0.6-0.8c-0.3-1.2-0.6-2.2-1.1-2.9-0.3-0.5-0.7-1-1.3-1.4-1-0.5-2.3-0.8-3.9-0.9h-2.2c-0.4 0-0.6 0.2-0.6 0.6v8.6c0 0.4 0.2 0.6 0.6 0.6 1.2-0.1 2.1-0.6 2.8-1.6 0.4-0.9 0.8-2.1 1-3.5 0.1-0.5 0.3-0.7 0.6-0.7s0.5 0.2 0.5 0.7v12c0 0.5-0.2 0.8-0.5 0.8s-0.5-0.2-0.5-0.6v-0.2c-0.2-1.2-0.5-2.2-0.8-3-0.6-1.4-1.6-2.1-3-2.2-0.4 0-0.6 0.2-0.6 0.6v7.2c0 0.5 0.1 1 0.2 1.5 0.2 0.5 0.5 0.7 0.9 0.8 1.5 0.2 3.1 0.1 4.9-0.3 1.8-0.4 3.1-1.7 4.1-3.7 0.2-0.5 0.4-1.1 0.6-1.7 0.2-0.5 0.4-0.7 0.7-0.7 0.3 0 0.5 0.2 0.4 0.7l-0.9 6.7c-0.1 0.6-0.4 0.9-0.9 0.9h-18.4c-0.5 0-0.8-0.2-0.8-0.5s0.2-0.5 0.7-0.6h0.2c0.7 0 1.2-0.2 1.5-0.4 0.3-0.1 0.6-0.5 0.6-1 0.1-0.4 0.2-1 0.2-1.6v-16.9l-0.2-1.5c0-0.8-0.4-1.3-1.1-1.5-0.3-0.1-0.5-0.1-0.8-0.1h-0.4c-0.6-0.1-0.8-0.2-0.8-0.6z m27 0c0-0.3 0.2-0.5 0.7-0.5h12.4c1.1 0.1 2.1 0.3 3 0.5 2.6 0.9 4.1 2.6 4.5 5 0.3 1.6 0.2 3.1-0.4 4.5-0.8 1.5-2 2.6-3.6 3.3-0.4 0.1-0.5 0.3-0.3 0.6l5.5 8.9c0.5 0.8 1 1.3 1.7 1.5h0.3c0.2 0 0.3 0.2 0.3 0.5 0 0.4-0.2 0.6-0.7 0.6h-5.7c-0.5 0-0.9-0.2-1.2-0.7-2-3.3-4.1-6.7-6.2-10.1-0.2-0.4-0.6-0.6-1-0.6s-0.7 0.2-0.7 0.6v6.7c0 0.3 0 0.7 0.1 1l0.1 0.5c0.1 0.9 0.7 1.4 1.8 1.5h0.3c0.5 0 0.8 0.2 0.8 0.5 0 0.4-0.2 0.6-0.7 0.6h-10.2c-0.5 0-0.7-0.2-0.7-0.6 0-0.3 0.3-0.5 0.9-0.5 0.6 0 1.1-0.2 1.5-0.4 0.3-0.2 0.5-0.5 0.6-1 0.1-0.5 0.1-1.1 0.2-1.7v-16.5c0-0.5-0.1-1-0.1-1.5 0-0.9-0.3-1.5-0.9-1.7-0.4-0.2-0.9-0.3-1.5-0.3-0.6-0.2-0.8-0.3-0.8-0.7z m9.5 1c-0.4 0-0.6 0.2-0.6 0.6v9.2c0 0.4 0.2 0.6 0.6 0.6 0.9 0 1.7 0 2.4-0.2 1.1-0.3 2-1 2.5-2 0.4-1 0.5-2.1 0.5-3.2v-0.5c0-1.1-0.3-2-0.8-2.9-0.7-1-1.6-1.5-2.8-1.6h-1.8z m40.4-0.8c0.1-0.5 0.3-0.7 0.6-0.7s0.4 0.2 0.4 0.7v7.2c0 0.5-0.1 0.8-0.4 0.8-0.3 0-0.5-0.2-0.6-0.7-0.5-2.3-1.9-4.1-4.1-5.4-1.1-0.5-2.1-0.7-3.2-0.6h-0.4c-1.6 0.2-3 1.1-4.2 2.8-1.3 2.2-1.9 4.4-2 6.7v2.2c0.1 2 0.4 3.9 1 5.7 0.9 2.3 2.6 3.7 4.8 4 2.9 0.3 5.5-0.9 7.8-3.6l0.3-0.4c0.3-0.5 0.5-0.4 0.5 0v1.2c0 0.5-0.2 1-0.7 1.5-1.3 1.4-2.9 2.3-4.7 2.9-1.7 0.5-3.9 0.6-6.7 0-1-0.3-2-0.7-2.9-1.2-2.3-1.4-3.8-3.3-4.7-5.5-1.1-2.9-1.2-6.1-0.3-9.4 0.7-2.2 2-4.2 3.9-6 1.9-1.6 3.9-2.5 5.9-2.8 2.1-0.3 4.3 0 6.6 1 0.7 0.3 1.3 0.5 1.9 0.6 0.6 0.1 1-0.3 1.2-1z m7-0.2c0-0.3 0.2-0.5 0.7-0.5h9c0.5 0 0.7 0.2 0.7 0.5s-0.2 0.5-0.6 0.5h-0.2c-0.6 0-1 0.2-1.4 0.4-0.3 0.4-0.5 1.1-0.6 2.1v18.1c0 0.5 0.1 1 0.2 1.5 0.2 0.6 0.8 1 1.8 1 0.5 0 0.7 0.2 0.7 0.5 0 0.4-0.2 0.6-0.7 0.6h-9c-0.5 0-0.7-0.2-0.7-0.5 0-0.4 0.2-0.6 0.7-0.6 0.8 0 1.4-0.3 1.7-0.8 0.1-0.5 0.2-1.1 0.3-1.9v-17.8c0-1.2-0.2-2-0.7-2.4-0.2-0.2-0.6-0.3-1-0.3h-0.3c-0.3 0.1-0.6 0-0.6-0.4z m43.5 0c0-0.3 0.2-0.5 0.7-0.5h10.8c0.5 0 0.8 0.2 0.8 0.5s-0.2 0.5-0.7 0.5c-1 0.1-1.7 0.3-2.1 0.6-0.4 0.5-0.5 1.2-0.5 2.1v17.2c0 0.7 0.1 1.4 0.3 2.1 0.1 0.2 0.3 0.3 0.4 0.3h0.1c0.9 0.2 2 0.3 3.4 0.2 1.2 0 2.2-0.2 3.1-0.6 0.6-0.2 1-0.6 1.4-1.2 0.7-1.1 1.4-2.5 1.9-4.1l0.2-0.6c0.1-0.5 0.4-0.7 0.7-0.7s0.5 0.2 0.4 0.7l-0.4 3.8-0.4 3.8c0 0.5-0.3 0.8-0.8 0.8h-18.7c-0.5 0-0.8-0.2-0.8-0.5s0.2-0.5 0.7-0.6h0.2c0.5 0 1-0.1 1.3-0.3l0.2-0.1c0.3-0.1 0.5-0.5 0.6-1 0.1-0.4 0.2-1 0.2-1.6v-16.9l-0.2-1.5c0-0.8-0.4-1.3-1.1-1.5-0.3-0.1-0.5-0.1-0.8-0.1h-0.4c-0.2-0.3-0.5-0.4-0.5-0.8z m34.5 0c0-0.3 0.2-0.5 0.7-0.5h12c0.9 0 1.9 0.2 3 0.6 2.6 1 4 2.8 4.1 5.2 0.2 1.8-0.4 3.3-1.7 4.6-0.6 0.4-1.2 0.8-1.9 1.1l-0.5 0.2c-0.4 0.1-0.4 0.3-0.1 0.4h0.1c3.6 1.1 5.3 3.2 5.2 6.3v0.4c0 2.1-1.2 3.9-3.6 5.4-1.8 0.8-3.5 1.2-5.3 1.3h-11.3c-0.5 0-0.8-0.2-0.8-0.5 0-0.4 0.3-0.6 0.9-0.6 0.6 0 1.1-0.2 1.5-0.4 0.3-0.1 0.5-0.4 0.6-0.8v-0.2c0.1-0.4 0.2-1 0.2-1.6v-16.9l-0.2-1.5c0-0.8-0.4-1.3-1.1-1.5-0.3-0.1-0.5-0.1-0.8-0.1h-0.4c-0.3-0.4-0.6-0.5-0.6-0.9z m8.3 1c-0.6 0-0.9 0.2-0.9 0.6v7.8c0 0.4 0.3 0.6 0.9 0.6 0.9 0 1.9-0.2 3-0.4 1.8-0.5 2.9-1.3 3.3-2.3 0.6-1.5 0.5-2.8-0.4-4.1-0.7-1.1-2-1.8-3.6-2.1-0.7-0.1-1.5-0.1-2.3-0.1z m0 10.5c-0.6 0-0.8 0.2-0.8 0.6v9.3c0 1 0.4 1.6 1.1 1.9 2.2 0.5 4.1-0.3 5.6-2.3 0.8-1.5 1-3.3 0.6-5.2-0.2-1.3-1.1-2.5-2.4-3.4-1.3-0.7-2.7-1-4.1-0.9z m28.7-11.2c0.2-0.5 0.4-0.8 0.6-0.8 0.2 0 0.4 0.2 0.6 0.7L959 582c0.2 0.6 0.4 1.1 0.6 1.5 0.5 1 1.2 1.6 2 1.8 0.3 0 0.5 0.2 0.5 0.5 0 0.4-0.2 0.6-0.7 0.6h-9.7c-0.5 0-0.8-0.2-0.8-0.5 0-0.4 0.3-0.6 0.8-0.6s0.8-0.1 1.1-0.2c0.6-0.2 0.8-0.5 0.7-1l-0.1-0.2c-0.2-0.9-0.7-2.2-1.4-3.8-0.2-0.4-0.4-0.6-0.8-0.6h-6.4c-0.4 0-0.7 0.2-0.9 0.7l-0.6 1.4c-0.5 1.2-0.6 2.2-0.2 2.9 0.2 0.3 0.6 0.5 1.1 0.7l0.9 0.1c0.5 0 0.8 0.2 0.8 0.6 0 0.3-0.3 0.5-0.8 0.5h-6.3c-0.5 0-0.8-0.2-0.8-0.5 0-0.4 0.3-0.6 0.8-0.7 0.6-0.2 1.1-0.6 1.5-1.2 0.7-1.1 1.3-2.5 2.1-4.4l7.2-17.9z m1.4 14.9l-2.5-6.7c-0.1-0.4-0.3-0.4-0.5 0l-2.7 6.8c-0.2 0.4-0.1 0.6 0.4 0.6h5c0.4 0 0.5-0.2 0.3-0.7z m-89.8-14.9c0.2-0.5 0.4-0.8 0.6-0.8 0.2 0 0.4 0.2 0.6 0.7l8.1 20.3c0.2 0.6 0.4 1.1 0.6 1.5 0.5 1 1.2 1.6 2 1.8 0.3 0 0.5 0.2 0.5 0.5 0 0.4-0.2 0.6-0.7 0.6h-9.7c-0.5 0-0.8-0.2-0.8-0.5 0-0.4 0.3-0.6 0.8-0.6s0.8-0.1 1.1-0.2c0.6-0.2 0.8-0.5 0.7-1l-0.1-0.2c-0.2-0.9-0.7-2.2-1.4-3.8-0.2-0.4-0.4-0.6-0.8-0.6h-6.4c-0.4 0-0.7 0.2-0.9 0.7l-0.6 1.4c-0.5 1.2-0.6 2.2-0.2 2.9 0.2 0.3 0.6 0.5 1.1 0.7l0.9 0.1c0.5 0 0.8 0.2 0.8 0.6 0 0.3-0.3 0.5-0.8 0.5h-6.3c-0.5 0-0.8-0.2-0.8-0.5 0-0.4 0.3-0.6 0.8-0.7 0.6-0.2 1.1-0.6 1.5-1.2 0.7-1.1 1.3-2.5 2.1-4.4l7.3-17.8z m1.3 14.9l-2.5-6.7c-0.1-0.4-0.3-0.4-0.5 0l-2.7 6.8c-0.2 0.4-0.1 0.6 0.4 0.6h5c0.4 0 0.5-0.2 0.3-0.7z m105.6-15.2c0-0.3 0.2-0.5 0.7-0.5h6.8c0.5 0 0.9 0.2 1.3 0.7l9.8 13.3c0.3 0.4 0.5 0.5 0.5 0.1v-10.8c-0.1-1.3-0.8-2.1-2.4-2.3-0.5 0-0.8-0.2-0.8-0.5s0.2-0.5 0.7-0.5h6.5c0.5 0 0.8 0.2 0.8 0.5s-0.2 0.5-0.7 0.5h-0.2c-0.6 0-1.1 0.2-1.5 0.6-0.5 0.5-0.7 1.1-0.8 1.7v21.3c0 0.5-0.1 0.7-0.4 0.7-0.3 0-0.6-0.2-1-0.7-3.1-4.1-6.2-8.2-9.3-12.4l-4.6-6.2c-0.3-0.5-0.5-0.5-0.5-0.1v15.5c0.1 1.3 0.9 2.1 2.4 2.3 0.5 0 0.8 0.2 0.8 0.5 0 0.4-0.3 0.6-0.8 0.6h-6.5c-0.5 0-0.8-0.2-0.8-0.5 0-0.4 0.3-0.6 0.8-0.6 1.6-0.2 2.5-1.1 2.5-2.5v-17.5c0.2-0.4-0.1-1-0.9-1.7-0.4-0.5-0.9-0.9-1.7-1-0.5 0-0.7-0.2-0.7-0.5z m28.5 0c0-0.3 0.2-0.5 0.7-0.5h10.3c0.5 0 0.8 0.2 0.8 0.5s-0.3 0.5-0.9 0.6c-0.5 0-0.9 0.2-1.2 0.4-0.3 0.3-0.5 0.7-0.5 1.2l-0.1 1.3v7.3c0 0.4 0.2 0.4 0.6 0.1l7.8-7c0.5-0.4 0.9-0.9 1.3-1.5 0.5-0.7 0.3-1.3-0.6-1.6-0.2-0.1-0.4-0.1-0.7-0.2h-0.3c-0.5 0-0.8-0.2-0.8-0.5s0.3-0.5 0.8-0.5h7.7c0.5 0 0.8 0.2 0.8 0.5s-0.3 0.5-0.9 0.6c-0.5 0.1-1 0.3-1.6 0.7-0.9 0.7-1.9 1.5-3.1 2.5-1.8 1.6-3.7 3.2-5.5 4.8-0.5 0.4-0.5 0.8-0.2 1.3l6.5 8.9 0.8 1.1c0.6 0.9 1.1 1.5 1.5 1.8 0.9 1.1 1.8 1.7 2.8 1.9 0.5 0 0.8 0.2 0.8 0.6 0 0.4-0.3 0.6-0.8 0.6h-10.7c-0.5 0-0.8-0.2-0.8-0.5 0-0.4 0.2-0.6 0.7-0.6 0.7-0.1 1-0.5 1-1-0.3-0.8-0.7-1.6-1.3-2.4l-4.9-6.6c-0.3-0.4-0.6-0.5-0.7-0.4-0.2 0.2-0.3 0.5-0.3 0.9v6.9c0 0.8 0.2 1.5 0.5 2 0.4 0.3 0.9 0.5 1.6 0.6 0.5 0 0.8 0.2 0.8 0.5 0 0.4-0.3 0.6-0.8 0.6h-10.5c-0.5 0-0.8-0.2-0.8-0.6 0-0.3 0.3-0.5 0.9-0.5 0.5 0 1-0.1 1.3-0.3l0.2-0.1c0.4-0.2 0.6-0.5 0.6-1 0.1-0.4 0.2-1 0.2-1.6v-16.6c-0.1-0.5-0.1-1-0.1-1.5-0.1-0.9-0.3-1.5-0.9-1.7-0.4-0.2-0.9-0.3-1.5-0.3-0.3-0.2-0.5-0.3-0.5-0.7z" fill="#231916"></path></svg>