<svg viewBox="0 0 1024 1024" version="1.1" xmlns="http://www.w3.org/2000/svg"><path d="M224 0h576c123.6 0 224 100.4 224 224v576c0 123.6-100.4 224-224 224H224c-123.6 0-224-100.4-224-224V224C0 100.4 100.4 0 224 0z" fill="#FFFFFF"></path><path d="M414 180c-74.4 52-123.2 138.4-123.2 236 0 159.2 129.2 288 288.8 288 126 0 233.2-80.4 272.4-192.4-3.6 184.4-154.4 332.4-340 332.4-187.6 0-340-152-340-339.2 0-153.2 102-282.8 242-324.8z m116.8 24c-47.2 30.4-78.4 83.6-78.4 144 0 94.8 76.8 171.6 171.6 171.6 73.2 0 135.6-46 160.4-110.4-5.2 106.4-94.4 190.8-204 190.8-112.8 0-204-90-204-200.8-0.4-94.4 65.6-173.6 154.4-195.2z m37.2 96h132v128h-132V300z" fill="#330D72"></path></svg>