<svg viewBox="0 0 1024 1024" version="1.1" xmlns="http://www.w3.org/2000/svg"><path d="M429.8 462.9h13.4l3.3 11.9c0.4 2 1.4 3 3 3h2.6v10.8h-8.8c-4.1 0-6.7-2-7.8-5.9l-5.7-19.8z m-8.6 46.2H435l2.7 7.2c0.6 1.5 1.6 2.2 3.2 2.2h10.7v10.8h-17.7c-2.4 0-4.5-1.7-6.3-5.1l-6.4-15.1z m-37.5 0h13.7l-6.6 15.4c-1.4 3.4-3.8 5.2-7.1 5.2h-15.6v-10.9h10.4c1.1 0 2-0.8 2.5-2.3l2.7-7.4z m-6-46.2h13.4l-5 19.1c-1.3 4.4-4.4 6.6-9.5 6.6h-8.5v-10.8h4c1 0 1.8-0.8 2.4-2.5l3.2-12.4z m25.7-17.9h14.5v4.5h33.8v10.9h-25.2v29.8h-12.7v-29.8h-7v29.8h-12.7v-29.8h-26.3v-10.9h35.7V445z m49 49.6v11.2h-36v26.4h-13v-26.4H367v-11.2h36.4v-3h12.9v3h36.1z m98.9 37.6v-85.4h13.5v85.4h-13.5z m-32.4-1.8v-81.1h13.4v81.1h-13.4z m-32.4-83.3h12.7V521c0 3.4-1 6.1-3.1 8.3-1.7 1.9-4.1 2.9-7.2 2.9h-7.1v-11.9h2.6c1.5 0 2.2-1.8 2.2-5.5v-67.7z m155.3 32.6l5.9 11.9h9.7c1.6 0 2.7-0.8 3.4-2.3l3.6-7.7h13.8l-7.5 15.6c-1.6 3.5-4.3 5.2-8.1 5.2h-9.5l6.4 12.9c0.9 2 2 3 3.1 3h16.7v11.5h-24.9c-1.7 0-3.2-1.3-4.4-3.9l-21.3-46.3h13.1z m38.3-25.5v19.7h-12.6v-8.2H632l-11.9 26.1-1.3 2.3V518c0 1.2 0.7 1.8 2.2 1.8h11.2V531h-18.6c-5.2 0-7.8-2.2-7.8-6.7v-27.5h-10v-11.9h10c1.8 0 3.6-2.1 5.5-6.3l6.3-13h-8.5v8.2h-12.5v-19.6h26.5l3.5-7.4h14.1l-3.3 7.4h42.7z m81.7 63.1c1.5 0 2.2-1.1 2.2-3.3v-2.6h-23.8v5.9h21.6z m-38-54.7h13.4l2.8 8.6h26.5l3.5-8.6h13.7l-3.4 8.6h12.4V521c0 3.4-1 6.1-3.1 8.3-1.7 1.9-4.1 2.9-7.2 2.9h-10.1v-5.4c-1.3 0.7-2.9 1-4.9 1h-39v-26.9H776v17.9c0 1.1-0.1 2.1-0.3 3h2.2c1.5 0 2.2-1.6 2.2-4.9v-35h-12.3v4.1c0 1.3 0.8 1.9 2.3 1.9h7.8v10H763c-4.4 0-6.7-2-6.7-5.9v-10.1H748v9.3c0 3.9-2.2 5.9-6.7 5.9h-14.2v-10h7.8c1 0 1.5-0.6 1.5-1.9v-3.3h-11.9v50.3h-12.7v-61h14.7l-2.7-8.6z m20.5-17.6h15.2v4.5h34.7v11.2h-83.7v-11.2h33.8V445z m154.6 51.8h10v6c0 5.7-3.2 8.6-9.6 8.6H893l2.2 7.6c0.8 2.9 2 4.3 3.7 4.3h8.9v10h-13.4c-5.3 0-8.8-2.9-10.4-8.8l-7.4-27.8h12.2l1.6 5.6h6.6c1.3 0 1.9-0.5 1.9-1.5v-4z m-4.5-20.8H874v7.1h18.1c1.5 0 2.3-0.8 2.3-2.3V476zM874 465.6h20.4v-6.3H874v6.3z m0 28.3v27.2c0 1.3 0.7 1.9 2.2 1.9h6v10.4H870c-5.4 0-8.2-2.9-8.2-8.6v-76.3H907v37.6c0 5.2-2.7 7.8-8.2 7.8H874z m-42.6-46.6h11.9l-1.5 5.9h16.7v10.9h-19.3l-0.1 0.4c-1.1 3.9-3.8 5.9-8.1 5.9h-7.4V460h3.3c0.8 0 1.4-0.7 1.9-2.1l2.6-10.6z m26.7 26.1v10.9H844v10.4h14.8v11.2H844v14.9c0 1.3 0.7 1.9 2.2 1.9h10.4V533h-17.8c-4.7 0-7-2-7-5.9v-21.3h-8.9v-11.2h8.9v-10.4h-7.4v-10.8h33.7z m112.1-14.5v-10.8h51.5v10.8h-51.5z m52.2 10v11.3h-5.5v40.6c0 7.3-4.5 10.9-13.4 10.9h-24.9v-11.6h21.5c1.7 0 2.6-0.8 2.6-2.3v-37.6h-34.1v-11.3h53.8z m-72.3-22.7h14.8l-8.1 19.3c-0.3 0.9-0.7 1.7-1.1 2.4h10.7l-8.9 20.9-0.4 0.9v42h-13.4v-35.9h-6.3v-11.9h4.8c2 0 3.5-1.2 4.5-3.7l3.2-8.4c-0.6 0.1-1.2 0.2-1.8 0.2h-10v-12h4.5c1.6 0 2.8-1.1 3.5-3.2l4-10.6zM367.6 578.9v-24h3.1v21.2h11.5v2.8h-14.6z m33.7-24h3.2v13.6c0 2.4-0.3 4.3-0.8 5.6-0.5 1.4-1.5 2.5-2.9 3.4-1.4 0.9-3.3 1.3-5.6 1.3-2.2 0-4.1-0.4-5.5-1.1-1.4-0.8-2.4-1.9-3-3.3-0.6-1.4-0.9-3.4-0.9-5.9v-13.6h3.1v13.6c0 2.1 0.2 3.6 0.6 4.5 0.4 1 1 1.7 2 2.2 0.9 0.5 2.1 0.8 3.4 0.8 2.3 0 4-0.5 5-1.6 1-1 1.5-3 1.5-6v-13.5z m12.9 14.1h8.1l-2.5-6.6c-0.8-2-1.3-3.7-1.7-5-0.3 1.5-0.7 3.1-1.3 4.6l-2.6 7z m-6.8 9.9l9.1-24h3.4l9.7 24H426l-2.8-7.3h-9.9l-2.6 7.3h-3.3z m24.6 0v-24h3.2l12.5 18.8v-18.8h3v24h-3.2L435 560.1V579h-3z m40.7-8.7l3.2 0.8c-0.7 2.6-1.9 4.6-3.6 5.9-1.7 1.4-3.8 2-6.3 2-2.6 0-4.7-0.5-6.3-1.6-1.6-1-2.8-2.6-3.7-4.5-0.8-2-1.3-4.1-1.3-6.4 0-2.5 0.5-4.6 1.4-6.5 0.9-1.8 2.3-3.2 4-4.2 1.8-1 3.7-1.4 5.8-1.4 2.4 0 4.4 0.6 6 1.8 1.6 1.2 2.8 2.9 3.4 5.1l-3.1 0.7c-0.5-1.7-1.4-3-2.4-3.8-1.1-0.8-2.4-1.2-4-1.2-1.8 0-3.4 0.4-4.6 1.3-1.2 0.9-2.1 2-2.6 3.5s-0.7 3-0.7 4.6c0 2 0.3 3.8 0.9 5.3 0.6 1.5 1.5 2.6 2.8 3.4 1.2 0.7 2.6 1.1 4 1.1 1.8 0 3.3-0.5 4.5-1.5 1.3-0.9 2.2-2.4 2.6-4.4z m7.2 8.7v-24h3.2v9.9h12.4v-9.9h3.2v24h-3.2v-11.3h-12.4v11.3h-3.2z m39.6-24h3.2v13.6c0 2.4-0.3 4.3-0.8 5.6-0.5 1.4-1.5 2.5-2.9 3.4-1.4 0.9-3.3 1.3-5.6 1.3-2.2 0-4.1-0.4-5.5-1.1-1.4-0.8-2.4-1.9-3-3.3-0.6-1.4-0.9-3.4-0.9-5.9v-13.6h3.1v13.6c0 2.1 0.2 3.6 0.6 4.5 0.4 1 1 1.7 2 2.2 0.9 0.5 2.1 0.8 3.4 0.8 2.3 0 4-0.5 5-1.6 1-1 1.5-3 1.5-6v-13.5z m12.3 14.1h8.1l-2.5-6.6c-0.8-2-1.3-3.7-1.7-5-0.3 1.5-0.7 3.1-1.3 4.6l-2.6 7z m-6.8 9.9l9.1-24h3.4l9.7 24h-3.6l-2.8-7.3h-9.9l-2.6 7.3H525z m24.6 0v-24h3.2l12.5 18.8v-18.8h3v24h-3.2L552.6 560v18.9h-3z m36.5-13.4h6.8c1.4 0 2.6-0.1 3.4-0.4 0.8-0.3 1.4-0.8 1.9-1.4s0.6-1.4 0.6-2.2c0-1.1-0.4-2.1-1.2-2.8-0.8-0.7-2.1-1.1-3.9-1.1h-7.6v7.9z m-3.2 13.4v-24h10.6c2.1 0 3.7 0.2 4.9 0.6 1.1 0.4 2 1.2 2.7 2.3 0.7 1.1 1 2.3 1 3.6 0 1.7-0.5 3.1-1.6 4.3-1.1 1.2-2.8 1.9-5.1 2.2 0.8 0.4 1.5 0.8 1.9 1.2 0.9 0.9 1.8 1.9 2.6 3.2l4.2 6.5h-4l-3.2-5c-0.9-1.4-1.7-2.5-2.3-3.3-0.6-0.8-1.1-1.3-1.6-1.6-0.5-0.3-1-0.5-1.4-0.6-0.4-0.1-0.9-0.1-1.8-0.1h-3.7v10.7h-3.2z m39.6-24h3.2v13.6c0 2.4-0.3 4.3-0.8 5.6-0.5 1.4-1.5 2.5-2.9 3.4-1.4 0.9-3.3 1.3-5.6 1.3-2.2 0-4.1-0.4-5.5-1.1-1.4-0.8-2.4-1.9-3-3.3-0.6-1.4-0.9-3.4-0.9-5.9v-13.6h3.1v13.6c0 2.1 0.2 3.6 0.6 4.5 0.4 1 1 1.7 2 2.2 0.9 0.5 2.1 0.8 3.4 0.8 2.3 0 4-0.5 5-1.6 1-1 1.5-3 1.5-6v-13.5z m11.6 10.6h6.8c1.4 0 2.6-0.1 3.4-0.4 0.8-0.3 1.4-0.8 1.9-1.4s0.6-1.4 0.6-2.2c0-1.1-0.4-2.1-1.2-2.8-0.8-0.7-2.1-1.1-3.9-1.1h-7.6v7.9z m-3.2 13.4v-24h10.6c2.1 0 3.7 0.2 4.9 0.6 1.1 0.4 2 1.2 2.7 2.3 0.7 1.1 1 2.3 1 3.6 0 1.7-0.5 3.1-1.6 4.3-1.1 1.2-2.8 1.9-5.1 2.2 0.8 0.4 1.5 0.8 1.9 1.2 0.9 0.9 1.8 1.9 2.6 3.2l4.2 6.5h-4l-3.2-5c-0.9-1.4-1.7-2.5-2.3-3.3-0.6-0.8-1.1-1.3-1.6-1.6-0.5-0.3-1-0.5-1.4-0.6-0.4-0.1-0.9-0.1-1.8-0.1h-3.7v10.7h-3.2z m27.9-9.9h8.1l-2.5-6.6c-0.8-2-1.3-3.7-1.7-5-0.3 1.5-0.7 3.1-1.3 4.6l-2.6 7z m-6.8 9.9l9.1-24h3.4l9.7 24h-3.6l-2.8-7.3h-9.9l-2.6 7.3H652z m25.1 0v-24h3.1v21.2h11.5v2.8h-14.6z m43.1-8.7l3.2 0.8c-0.7 2.6-1.9 4.6-3.6 5.9-1.7 1.4-3.8 2-6.3 2-2.6 0-4.7-0.5-6.3-1.6-1.6-1-2.8-2.6-3.7-4.5-0.8-2-1.3-4.1-1.3-6.4 0-2.5 0.5-4.6 1.4-6.5 0.9-1.8 2.3-3.2 4-4.2 1.8-1 3.7-1.4 5.8-1.4 2.4 0 4.4 0.6 6 1.8 1.6 1.2 2.8 2.9 3.4 5.1l-3.1 0.7c-0.5-1.7-1.4-3-2.4-3.8-1.1-0.8-2.4-1.2-4-1.2-1.8 0-3.4 0.4-4.6 1.3-1.2 0.9-2.1 2-2.6 3.5s-0.7 3-0.7 4.6c0 2 0.3 3.8 0.9 5.3 0.6 1.5 1.5 2.6 2.8 3.4 1.2 0.7 2.6 1.1 4 1.1 1.8 0 3.3-0.5 4.5-1.5 1.3-0.9 2.2-2.4 2.6-4.4z m9.3-3.2c0 2.9 0.8 5.1 2.3 6.8 1.5 1.6 3.5 2.5 5.8 2.5 2.4 0 4.3-0.8 5.9-2.5 1.5-1.7 2.3-4 2.3-7.1 0-1.9-0.3-3.6-1-5.1-0.7-1.4-1.6-2.6-2.9-3.4-1.3-0.8-2.7-1.2-4.3-1.2-2.2 0-4.2 0.8-5.8 2.3-1.5 1.6-2.3 4.1-2.3 7.7z m-3.2-0.1c0-3.9 1.1-7 3.2-9.3 2.1-2.2 4.9-3.3 8.2-3.3 2.2 0 4.2 0.5 6 1.6 1.8 1 3.1 2.5 4 4.4 0.9 1.9 1.4 4 1.4 6.4 0 2.4-0.5 4.6-1.5 6.5-1 1.9-2.4 3.3-4.2 4.3-1.8 1-3.7 1.5-5.8 1.5-2.2 0-4.3-0.5-6-1.6-1.8-1.1-3.1-2.6-4-4.4-0.9-2-1.3-4-1.3-6.1z m26.3 12v-24h4.8l5.7 17c0.5 1.6 0.9 2.8 1.1 3.6 0.3-0.9 0.7-2.2 1.3-3.8l5.7-16.7h4.3v24h-3.1v-20.1l-6.9 20.1h-2.9l-6.9-20.4V579h-3.1z m28.1 0v-24h4.8l5.7 17c0.5 1.6 0.9 2.8 1.1 3.6 0.3-0.9 0.7-2.2 1.3-3.8l5.7-16.7h4.3v24h-3.1v-20.1l-6.9 20.1h-2.9l-6.9-20.4V579h-3.1z m27.5 0v-24h17v2.8h-13.9v7.3h13v2.8h-13v8.2h14.4v2.8h-17.5z m25.4-13.4h6.8c1.4 0 2.6-0.1 3.4-0.4 0.8-0.3 1.4-0.8 1.9-1.4s0.6-1.4 0.6-2.2c0-1.1-0.4-2.1-1.2-2.8-0.8-0.7-2.1-1.1-3.9-1.1h-7.6v7.9z m-3.2 13.4v-24H841c2.1 0 3.7 0.2 4.9 0.6 1.1 0.4 2 1.2 2.7 2.3 0.7 1.1 1 2.3 1 3.6 0 1.7-0.5 3.1-1.6 4.3-1.1 1.2-2.8 1.9-5.1 2.2 0.8 0.4 1.5 0.8 1.9 1.2 0.9 0.9 1.8 1.9 2.6 3.2l4.2 6.5h-4l-3.2-5c-0.9-1.4-1.7-2.5-2.3-3.3-0.6-0.8-1.1-1.3-1.6-1.6-0.5-0.3-1-0.5-1.4-0.6-0.4-0.1-0.9-0.1-1.8-0.1h-3.7v10.7h-3.2z m40.8-8.7l3.2 0.8c-0.7 2.6-1.9 4.6-3.6 5.9-1.7 1.4-3.8 2-6.3 2-2.6 0-4.7-0.5-6.3-1.6-1.6-1-2.8-2.6-3.7-4.5-0.8-2-1.3-4.1-1.3-6.4 0-2.5 0.5-4.6 1.4-6.5 0.9-1.8 2.3-3.2 4-4.2 1.8-1 3.7-1.4 5.8-1.4 2.4 0 4.4 0.6 6 1.8 1.6 1.2 2.8 2.9 3.4 5.1l-3.1 0.7c-0.5-1.7-1.4-3-2.4-3.8-1.1-0.8-2.4-1.2-4-1.2-1.8 0-3.4 0.4-4.6 1.3-1.2 0.9-2.1 2-2.6 3.5s-0.7 3-0.7 4.6c0 2 0.3 3.8 0.9 5.3 0.6 1.5 1.5 2.6 2.8 3.4 1.2 0.7 2.6 1.1 4 1.1 1.8 0 3.3-0.5 4.5-1.5 1.3-0.9 2.1-2.4 2.6-4.4z m7.8 8.7v-24h2.9v24H879z m12.7-9.9h8.1l-2.5-6.6c-0.8-2-1.3-3.7-1.7-5-0.3 1.5-0.7 3.1-1.3 4.6l-2.6 7z m-6.8 9.9l9.1-24h3.4l9.7 24h-3.6l-2.8-7.3h-9.9l-2.6 7.3h-3.3z m24.5 0v-24h3.1v21.2H924v2.8h-14.6z m29.5-2.8h6c1 0 1.7 0 2.2-0.1 0.7-0.1 1.3-0.3 1.8-0.7 0.5-0.3 0.9-0.7 1.2-1.3 0.3-0.6 0.5-1.3 0.5-2 0-0.9-0.2-1.7-0.7-2.3-0.5-0.7-1.1-1.1-1.9-1.4-0.8-0.3-2-0.4-3.5-0.4h-5.6v8.2z m0-11.1h5.2c1.4 0 2.4-0.1 3-0.3 0.8-0.2 1.4-0.6 1.8-1.2 0.4-0.6 0.6-1.3 0.6-2.1s-0.2-1.5-0.6-2.1-0.9-1-1.6-1.2c-0.7-0.2-1.9-0.3-3.7-0.3h-4.8v7.2z m-3.1 13.9v-24h9c1.8 0 3.3 0.2 4.4 0.7 1.1 0.5 2 1.2 2.6 2.2 0.6 1 0.9 2.1 0.9 3.2 0 1-0.3 2-0.8 2.9-0.6 0.9-1.4 1.6-2.5 2.2 1.5 0.4 2.6 1.2 3.4 2.2 0.8 1 1.2 2.2 1.2 3.6 0 1.1-0.2 2.2-0.7 3.1-0.5 1-1.1 1.7-1.8 2.2-0.7 0.5-1.6 0.9-2.6 1.2s-2.3 0.4-3.9 0.4h-9.2z m26.7-9.9h8.1l-2.5-6.6c-0.8-2-1.3-3.7-1.7-5-0.3 1.5-0.7 3.1-1.3 4.6l-2.6 7z m-6.8 9.9l9.1-24h3.4l9.7 24h-3.6l-2.8-7.3h-9.9l-2.6 7.3h-3.3z m24.5 0v-24h3.2l12.5 18.8v-18.8h3v24h-3.2L983.2 560v18.9h-3z m24 0v-24h3.2v11.9l12-11.9h4.3l-10.1 9.7 10.5 14.3h-4.2l-8.6-12.1-3.9 3.8v8.3h-3.2z"></path><path d="M141.9 451.3c2.5-0.1 5-0.2 7.4-0.2H155c0.7 0 1.3 0 2 0.1 0.7 0 1.3 0 2 0.1 0.7 0 1.3 0.1 2 0.1s1.3 0.1 2 0.1 1.3 0.1 2 0.2 1.3 0.1 2 0.2 1.3 0.1 2 0.2 1.3 0.2 2 0.2c0.7 0.1 1.3 0.2 2 0.3 0.7 0.1 1.3 0.2 2 0.3 0.7 0.1 1.3 0.2 2 0.3 0.7 0.1 1.3 0.2 2 0.4 0.7 0.1 1.3 0.2 2 0.4 0.7 0.1 1.3 0.3 2 0.4 0.7 0.1 1.3 0.3 2 0.4 0.7 0.2 1.3 0.3 2 0.5s1.3 0.3 2 0.5c0.6 0.2 1.3 0.3 1.9 0.5 0.6 0.2 1.3 0.4 1.9 0.6 0.6 0.2 1.3 0.4 1.9 0.6 0.6 0.2 1.3 0.4 1.9 0.6l1.8 0.6c0.6 0.2 1.2 0.4 1.8 0.7 1.2 0.5 2.4 0.9 3.5 1.4 1.2 0.5 2.3 1 3.4 1.5s2.2 1.1 3.3 1.6c1.1 0.6 2.1 1.1 3.1 1.7 1 0.6 2 1.2 2.9 1.8 0.9 0.6 1.9 1.2 2.7 1.9 0.9 0.6 1.7 1.3 2.5 1.9 0.4 0.3 0.8 0.7 1.2 1 0.4 0.3 0.8 0.7 1.1 1 0.4 0.3 0.7 0.7 1.1 1 0.4 0.3 0.7 0.7 1 1l1 1c0.3 0.3 0.6 0.7 0.9 1 0.3 0.3 0.6 0.7 0.9 1.1 0.3 0.4 0.6 0.7 0.8 1.1 0.3 0.4 0.5 0.7 0.8 1.1 0.2 0.4 0.5 0.7 0.7 1.1 0.2 0.4 0.5 0.7 0.7 1.1 0.2 0.4 0.4 0.7 0.6 1.1 0.2 0.4 0.4 0.7 0.6 1.1 0.2 0.4 0.3 0.7 0.5 1.1 0.2 0.4 0.3 0.7 0.5 1.1 0.1 0.4 0.3 0.7 0.4 1.1 0.1 0.4 0.2 0.7 0.4 1.1 0.1 0.4 0.2 0.7 0.3 1.1 0.1 0.4 0.2 0.7 0.3 1.1 0.1 0.4 0.2 0.7 0.2 1.1 0.1 0.4 0.1 0.7 0.2 1.1 0 0.4 0.1 0.7 0.1 1.1 0 0.3 0.1 0.7 0.1 1v1c0 0.5 0 1.1-0.1 1.6 0 0.5-0.1 1.1-0.2 1.6s-0.2 1.1-0.3 1.6c-0.1 0.5-0.2 1.1-0.4 1.6-0.3 1.1-0.7 2.2-1.1 3.2-0.5 1.1-1 2.1-1.6 3.2-0.6 1.1-1.3 2.1-2 3.1s-1.6 2-2.5 3c-0.4 0.5-0.9 1-1.4 1.5-0.5 0.5-1 1-1.5 1.4-0.5 0.5-1 0.9-1.6 1.4-0.5 0.5-1.1 0.9-1.7 1.4l36.6 33.3c0.5-0.3 1-0.7 1.5-1 0.5-0.3 1-0.7 1.5-1 1-0.7 1.9-1.4 2.8-2.1 0.9-0.7 1.8-1.5 2.6-2.2 0.8-0.7 1.7-1.5 2.5-2.3 0.8-0.8 1.5-1.6 2.3-2.4l2.1-2.4c1.3-1.6 2.5-3.3 3.6-5 1.1-1.7 2-3.5 2.8-5.2 0.4-0.9 0.8-1.8 1.1-2.7l0.9-2.7c0.3-0.9 0.5-1.8 0.7-2.7 0.2-0.9 0.4-1.8 0.5-2.8 0.1-0.9 0.2-1.8 0.3-2.8 0.1-0.9 0.1-1.9 0.1-2.8 0-0.7-0.1-1.4-0.1-2.1-0.1-0.7-0.1-1.4-0.2-2.1l-0.3-2.1c-0.1-0.7-0.2-1.4-0.4-2.1-0.1-0.7-0.3-1.4-0.5-2.1-0.2-0.7-0.4-1.4-0.6-2-0.2-0.7-0.4-1.4-0.7-2-0.2-0.7-0.5-1.4-0.8-2-0.3-0.7-0.6-1.3-0.9-2-0.3-0.7-0.6-1.3-0.9-2-0.3-0.7-0.7-1.3-1-2-0.4-0.7-0.7-1.3-1.1-2-0.4-0.7-0.8-1.3-1.2-1.9-0.4-0.6-0.8-1.3-1.3-1.9-0.4-0.6-0.9-1.3-1.4-1.9-0.5-0.6-1-1.3-1.5-1.9-1-1.2-2.1-2.5-3.2-3.7-1.1-1.2-2.3-2.4-3.5-3.6-1.2-1.2-2.5-2.3-3.8-3.4-1.3-1.1-2.7-2.2-4-3.3-2.8-2.2-5.7-4.2-8.9-6.2-1.6-1-3.1-1.9-4.8-2.9-1.6-0.9-3.3-1.8-5-2.7-1.7-0.9-3.4-1.7-5.2-2.5-1.8-0.8-3.5-1.6-5.4-2.4-1.8-0.8-3.6-1.5-5.5-2.2-0.9-0.3-1.9-0.7-2.8-1-0.9-0.3-1.9-0.7-2.8-1-1-0.3-1.9-0.6-2.9-0.9-1-0.3-1.9-0.6-2.9-0.9-1-0.3-2-0.6-2.9-0.9-1-0.3-2-0.5-3-0.8-1-0.3-2-0.5-3-0.8-1-0.2-2-0.5-3-0.7-1-0.2-2-0.5-3-0.7-1-0.2-2-0.4-3.1-0.6-1-0.2-2-0.4-3.1-0.6-1-0.2-2.1-0.4-3.1-0.5-1-0.2-2.1-0.3-3.1-0.5s-2.1-0.3-3.1-0.5c-1-0.1-2.1-0.3-3.1-0.4-1-0.1-2.1-0.3-3.1-0.4-1-0.1-2.1-0.2-3.2-0.3-1.1-0.1-2.1-0.2-3.2-0.3-1.1-0.1-2.1-0.2-3.2-0.2-1.1-0.1-2.1-0.1-3.2-0.2s-2.1-0.1-3.2-0.2c-1.1 0-2.1-0.1-3.2-0.1s-2.1-0.1-3.2-0.1H141.3c-4.8 0-9.6 0.1-14.4 0.4 5.4 4.7 10.2 9.3 15 13.9M203 579.4l-3.6 0.9c-1.2 0.3-2.4 0.6-3.6 0.8-1.2 0.3-2.4 0.5-3.7 0.8-1.2 0.3-2.5 0.5-3.7 0.7-1.3 0.2-2.5 0.5-3.8 0.7-1.3 0.2-2.5 0.4-3.8 0.6-2.6 0.4-5.1 0.7-7.7 1.1-2.6 0.3-5.2 0.6-7.8 0.8l-3.9 0.3-3.9 0.3c-1.3 0.1-2.6 0.1-4 0.2-1.3 0.1-2.6 0.1-4 0.1-1.3 0-2.6 0.1-4 0.1h-10c-0.5 0-1 0-1.6-0.1-0.5 0-1 0-1.6-0.1-0.5 0-1 0-1.6-0.1-0.5 0-1.1-0.1-1.6-0.1s-1.1-0.1-1.6-0.1-1.1-0.1-1.6-0.1-1.1-0.1-1.6-0.1-1.1-0.1-1.6-0.1-1.1-0.1-1.6-0.1-1.1-0.1-1.6-0.1c-0.5-0.1-1.1-0.1-1.6-0.2s-1.1-0.1-1.6-0.2-1.1-0.1-1.6-0.2-1.1-0.1-1.6-0.2-1.1-0.1-1.6-0.2-1.1-0.1-1.6-0.2-1.1-0.1-1.6-0.2-1.1-0.2-1.6-0.2c-0.5-0.1-1.1-0.2-1.6-0.2-0.5-0.1-1.1-0.2-1.6-0.3-0.5-0.1-1.1-0.2-1.6-0.3-0.5-0.1-1.1-0.2-1.6-0.3-0.5-0.1-1.1-0.2-1.6-0.3-0.5-0.1-1.1-0.2-1.6-0.3-0.5-0.1-1.1-0.2-1.6-0.3-0.5-0.1-1.1-0.2-1.6-0.3-1.1-0.2-2.2-0.4-3.2-0.7-1.1-0.2-2.1-0.5-3.2-0.7-1.1-0.3-2.1-0.5-3.2-0.8-1.1-0.3-2.1-0.5-3.2-0.8-1.1-0.3-2.1-0.6-3.2-0.9-1-0.3-2.1-0.6-3.1-0.9-1-0.3-2.1-0.6-3.1-1-1-0.3-2.1-0.7-3.1-1-1-0.3-2-0.7-3-1-1-0.4-2-0.7-3-1.1-1-0.4-2-0.7-2.9-1.1-1-0.4-1.9-0.8-2.9-1.2-1-0.4-1.9-0.8-2.9-1.2-1.9-0.8-3.7-1.7-5.5-2.5-1.8-0.9-3.6-1.8-5.3-2.7-1.7-0.9-3.4-1.9-5.1-2.8-1.6-1-3.2-1.9-4.8-2.9-0.8-0.5-1.5-1-2.3-1.5-0.7-0.5-1.5-1-2.2-1.5-0.7-0.5-1.4-1-2.1-1.6-0.7-0.5-1.4-1.1-2-1.6-0.7-0.5-1.3-1.1-2-1.6-0.6-0.5-1.3-1.1-1.9-1.6-0.6-0.5-1.2-1.1-1.8-1.6-0.6-0.6-1.2-1.1-1.7-1.7-0.6-0.6-1.1-1.1-1.6-1.7-0.5-0.6-1-1.1-1.6-1.7-0.5-0.6-1-1.1-1.5-1.7-0.5-0.6-0.9-1.1-1.4-1.7-0.4-0.6-0.9-1.1-1.3-1.7-0.4-0.6-0.8-1.1-1.2-1.7-0.4-0.6-0.8-1.1-1.1-1.7-0.4-0.6-0.7-1.1-1-1.7-0.3-0.6-0.7-1.1-1-1.7-0.3-0.6-0.6-1.1-0.9-1.7-0.3-0.6-0.5-1.1-0.8-1.7-0.3-0.6-0.5-1.1-0.7-1.7-0.2-0.6-0.4-1.1-0.6-1.7-0.2-0.6-0.4-1.1-0.6-1.7-0.2-0.6-0.3-1.1-0.5-1.7-0.1-0.6-0.3-1.1-0.4-1.7-0.1-0.6-0.2-1.1-0.3-1.7-0.1-0.6-0.2-1.1-0.3-1.7-0.1-0.6-0.1-1.1-0.2-1.6 0-0.5-0.1-1.1-0.1-1.6 0-0.7 0-1.4 0.1-2.1 0-0.7 0.1-1.4 0.2-2.1 0.1-0.7 0.2-1.4 0.3-2.2 0.1-0.7 0.3-1.4 0.4-2.2 0.2-0.7 0.3-1.4 0.5-2.2 0.2-0.7 0.4-1.4 0.7-2.2 0.2-0.7 0.5-1.4 0.8-2.2 0.3-0.7 0.6-1.4 0.9-2.2 0.3-0.7 0.7-1.4 1-2.2 0.4-0.7 0.7-1.4 1.2-2.1 0.4-0.7 0.8-1.4 1.3-2.1 0.4-0.7 0.9-1.4 1.4-2.1 1-1.4 2-2.8 3.2-4.2 1.1-1.4 2.3-2.7 3.6-4.1 1.3-1.3 2.6-2.7 4.1-3.9 1.4-1.3 2.9-2.6 4.5-3.8l2.4-1.8c0.8-0.6 1.7-1.2 2.5-1.8 0.9-0.6 1.7-1.2 2.6-1.8 0.9-0.6 1.8-1.1 2.7-1.7 0.9-0.6 1.8-1.1 2.8-1.7 0.9-0.5 1.9-1.1 2.9-1.6s1.9-1 2.9-1.6l3-1.5c0.5-0.2 1-0.5 1.5-0.7 0.5-0.2 1-0.5 1.5-0.7 0.5-0.2 1-0.5 1.6-0.7 0.5-0.2 1-0.5 1.6-0.7 0.5-0.2 1.1-0.5 1.6-0.7 0.5-0.2 1.1-0.4 1.6-0.7 0.5-0.2 1.1-0.4 1.6-0.6 0.5-0.2 1.1-0.4 1.6-0.6 6.8 5.8 13.5 11.6 20.3 17.4-0.6 0.5-1.2 1.1-1.8 1.6-0.6 0.5-1.1 1.1-1.7 1.6-0.5 0.6-1.1 1.1-1.6 1.7-0.5 0.6-1 1.1-1.5 1.7-0.5 0.6-0.9 1.2-1.4 1.7-0.4 0.6-0.9 1.2-1.3 1.8-0.8 1.2-1.6 2.4-2.2 3.6-0.7 1.2-1.2 2.4-1.7 3.7-0.2 0.6-0.5 1.2-0.7 1.8-0.2 0.6-0.4 1.2-0.6 1.9-0.2 0.6-0.3 1.2-0.4 1.8l-0.3 1.8c-0.1 0.6-0.1 1.2-0.2 1.8 0 0.6-0.1 1.2-0.1 1.8v2c0 0.3 0 0.7 0.1 1 0 0.3 0.1 0.7 0.1 1 0.1 0.3 0.1 0.7 0.2 1 0.1 0.3 0.1 0.7 0.2 1 0.1 0.3 0.2 0.7 0.3 1 0.1 0.3 0.2 0.7 0.3 1 0.1 0.3 0.2 0.7 0.4 1 0.1 0.3 0.3 0.7 0.4 1 0.2 0.3 0.3 0.7 0.5 1 0.2 0.3 0.3 0.7 0.5 1 0.2 0.3 0.4 0.7 0.6 1 0.2 0.3 0.4 0.7 0.6 1 0.2 0.3 0.4 0.7 0.7 1 0.2 0.3 0.5 0.7 0.7 1 0.3 0.3 0.5 0.7 0.8 1 0.3 0.3 0.6 0.7 0.8 1 0.3 0.3 0.6 0.7 0.9 1 0.3 0.3 0.6 0.7 1 1l1 1c0.3 0.3 0.7 0.7 1.1 1 0.7 0.7 1.5 1.3 2.3 1.9 0.8 0.6 1.6 1.3 2.5 1.9l2.7 1.8c0.9 0.6 1.9 1.2 2.9 1.8 1 0.6 2 1.1 3.1 1.7 1 0.5 2.1 1.1 3.2 1.6s2.2 1 3.4 1.5c1.1 0.5 2.3 1 3.5 1.4 1.2 0.5 2.4 0.9 3.6 1.3 0.6 0.2 1.2 0.4 1.9 0.6 0.6 0.2 1.3 0.4 1.9 0.6 0.6 0.2 1.3 0.4 1.9 0.6 0.6 0.2 1.3 0.4 1.9 0.5 0.6 0.2 1.3 0.3 1.9 0.5 0.7 0.2 1.3 0.3 2 0.5s1.3 0.3 2 0.5c0.7 0.1 1.3 0.3 2 0.4 0.7 0.1 1.3 0.3 2 0.4 0.7 0.1 1.3 0.3 2 0.4 0.7 0.1 1.3 0.2 2 0.4 0.7 0.1 1.3 0.2 2 0.3 0.7 0.1 1.3 0.2 2 0.3 0.7 0.1 1.3 0.2 2 0.3 0.7 0.1 1.3 0.2 2 0.2 0.7 0.1 1.3 0.1 2 0.2s1.3 0.1 2 0.2 1.3 0.1 2 0.2 1.3 0.1 2 0.1 1.3 0.1 2 0.1 1.3 0.1 2 0.1 1.3 0.1 2 0.1h3.8c1.9-0.1 3.9-0.3 5.9-0.5 2-0.2 4.1-0.4 6.2-0.6 13.8 13.2 27.8 26.1 41.7 39.1m-91.6-88.7c8.9 7.9 17.9 15.7 26.8 23.6 1 0.7 2.1 1.1 3.5 1.1 1 0 2-0.2 3.2-0.6 12.6-4.2 25.3-8.5 37.9-12.7 1.3-0.4 2-1.6 2-2.8 0-0.7 0-2.1-1-3.1-8.2-7.4-16.3-14.7-24.5-22.1-1-0.9-2.4-1.4-4.1-1.4-1.3 0-2.8 0.3-4.4 0.9-12.4 3.7-24.9 7.3-37.3 11-2.1 0.8-3 3-3 4.1 0.1 0.8 0.4 1.5 0.9 2" fill="#E30016"></path></svg>