<svg viewBox="0 0 1024 1024" version="1.1" xmlns="http://www.w3.org/2000/svg"><path d="M144.384 872.07c3.746 0 7.873-0.38 10.397-3.019 1.623-1.731 2.404-4.16 2.404-7.453 0-3.252-0.761-5.7-2.364-7.39-2.484-2.597-6.39-2.956-10.256-2.956h-4.367v20.818h4.186z m-4.186-49.026v19.425h3.746c2.584 0 6.33-0.296 8.674-2.766 1.602-1.69 2.403-4.138 2.403-7.432 0-2.766-0.76-4.94-2.223-6.503-1.703-1.774-4.347-2.724-7.853-2.724h-4.747zM129 879.608v-64.08c0-1.183 0.1-1.267 1.202-1.267h14.743c5.85 0 13.121 0.57 17.408 5.151 2.544 2.682 3.826 6.504 3.826 11.508 0 9.395-5.529 12.33-9.195 14.272l-1.842 0.972 1.983 0.549c5.148 1.52 11.238 5.447 11.238 15.666 0 16.258-10.898 18.475-22.656 18.475h-15.505c-1.142 0-1.202-0.085-1.202-1.246z m72.802-10.83v-12.16h-1.324c-2.452-0.043-8.185-0.17-11.348 3.2-1.364 1.408-2.076 3.37-2.076 5.675 0 2.197 0.751 4.16 2.036 5.568 1.305 1.387 3.045 2.134 4.903 2.134 3.796 0 6.781-3.094 7.81-4.417z m11.704 8.62c-0.02 0-7.117 3.136-7.117 3.136-0.751 0.277-0.89 0.32-1.206-0.214-0.178-0.341-1.167-2.41-1.641-4.843l-0.277-1.536s-0.454 0.47-1.364 1.494c-1.838 2.048-4.962 5.419-11.229 5.419-3.954 0-7.236-1.28-9.568-3.82-2.393-2.58-3.658-6.335-3.658-10.794 0-4.46 1.206-7.958 3.579-10.54 5.238-5.674 14.807-5.674 19.987-5.674h0.79v-3.947c0-2.795-0.296-4.928-1.66-6.422-1.206-1.301-3.005-1.877-5.753-1.877-3.677 0-7.196 1.45-9.549 2.325-1.107 0.384-1.601 0.598-1.799 0.64-0.316 0.043-0.415-0.298-0.415-0.298l-1.898-6.337c-0.277-0.832-0.316-1.002 0.336-1.493 1.186-0.79 7.058-3.222 15.084-3.222 5.536 0 9.41 1.302 11.862 3.969 2.313 2.453 3.42 6.208 3.42 11.413v19.415c0 6.912 1.246 9.75 1.918 11.499 0.375 0.917 0.672 1.536 0.158 1.706z m71.477-22.234v23.57c0 0.408-0.061 0.572-0.511 0.572h-9.58c-0.512 0-0.553-0.123-0.553-0.572v-64.786c0-0.674 0-0.674 0.88-0.878l8.413-1.675c1.27-0.265 1.351-0.347 1.351 0.92v39.97l19.96-19.935c0.818-0.796 0.777-0.837 1.698-0.081-0.04-0.041 4.995 4.105 4.995 4.105 0.41 0.368 0.348 0.51-0.327 1.246l-16.193 15.706 18.076 21.67c0.696 0.92 0.655 1.062 0.02 1.43-1.924 1.123-7.615 4.228-7.615 4.228-0.655 0.326-0.778 0.286-1.29-0.368l-19.324-25.122z m-60.263 25.129v-29.574c0-10.01-0.98-12.482-1.543-13.998-0.208-0.519-0.312-0.851-0.312-1.287 0-0.083 0.145-0.208 0.5-0.291 0.02-0.041 7.485-2.513 7.485-2.513 0.625-0.166 0.917-0.208 1.146-0.208 0.918 0 2.064 4.59 2.419 6.127l0.313 1.35s0.708-0.665 1.355-1.184c2.814-2.513 7.005-6.293 14.219-6.293 2.439 0 5.941 0.499 8.485 3.095 2.293 2.264 3.44 5.753 3.44 10.384v34.392c0 0.56-0.02 0.56-0.542 0.56h-9.736c-0.5 0-0.563-0.082-0.563-0.56v-30.176c0-2.68-0.209-5.69-2.085-7.497-1.022-1.06-2.44-1.558-4.232-1.558-3.065 0-6.63 1.558-9.487 4.465v34.766c0 0.478-0.041 0.56-0.563 0.56h-9.757c-0.5 0-0.542 0-0.542-0.56z m141.626-30.867c-2.254 1.639-7.563 5.378-7.563 11.89 0 3.004 1.075 5.714 3.034 7.647 2.043 2.038 4.824 3.11 7.836 3.11 6.488 0 10.301-4.265 11.565-5.694l0.485-0.546-14.493-17.016-0.864 0.609z m3.77-11.03c0.106-0.083 0.99-0.86 1.517-1.365 2.402-2.08 6.11-5.21 6.11-10.125 0-2.416-0.717-4.475-2.15-5.883-1.263-1.26-3.054-1.953-5.16-1.953-4.508 0-7.773 3.319-7.773 7.836 0 4.222 3.265 7.373 5.477 9.474 0.526 0.525 1.727 1.723 1.98 2.017z m18.012 34.748l-0.632 0.567c-2.886 2.71-7.647 7.143-18.643 7.143-7.352 0-13.314-2.017-17.126-5.862-3.14-3.088-4.719-7.184-4.719-12.142 0-10.756 8.932-16.134 13.229-18.676a71.323 71.323 0 0 0 1.748-1.071s-0.884-1.03-1.874-1.996c-2.697-2.794-7.71-8.004-7.71-13.97 0-3.887 1.474-7.458 4.318-10.252 3.56-3.571 8.91-5.651 14.346-5.651 5.287 0 9.858 1.638 12.934 4.748 2.633 2.583 4.002 6.113 4.002 10.188 0 7.878-7.626 13.613-11.228 16.45-0.632 0.483-1.748 1.344-1.748 1.344l11.944 13.991 0.653-0.987c2.401-4.58 2.865-8.53 3.118-10.861 0.084-0.61 0.168-1.366 0.273-1.723 0.085-0.336 0.253-0.252 0.822-0.084 0.021 0 7.246 2.017 7.246 2.017 0.506 0.147 0.57 0.315 0.57 0.777 0 5.861-4.34 15.42-5.815 17.668l-0.358 0.504 7.773 9.39s0.358 0.42 0.232 0.694c-0.105 0.21-0.316 0.42-0.548 0.672l-4.929 4.39c-0.485 0.358-0.632 0.4-0.78 0.4-0.379 0-0.59-0.294-1.01-0.694l-6.088-6.974z m99.852-23.118h17.03v-0.832c0-3.67-0.332-7.702-2.694-10.134-1.263-1.323-3.024-1.984-5.179-1.984-7.955 0-8.784 8.405-9.074 11.542-0.041 0.576-0.083 1.408-0.083 1.408z m26.932 25.75c0 1.536-8.452 5.078-16.594 5.078-6.36 0-11.332-1.878-14.875-5.462-4.123-4.245-6.236-10.902-6.236-19.734 0-8.683 2.548-16 7.065-20.716 3.563-3.67 8.245-5.547 13.57-5.547 5.2 0 9.384 1.537 12.388 4.673 4.206 4.33 6.34 11.712 6.34 21.953 0 1.621-0.166 1.664-1.409 1.664h-27.14v0.874c0 4.758 1.078 8.129 3.274 10.433 1.947 1.984 4.744 2.987 8.307 2.987 5.055 0 8.598-1.664 10.732-2.667 0.684-0.32 1.326-0.619 1.554-0.619 0.228 0 0.435 0.299 0.559 0.49-0.041-0.042 2.32 5.804 2.32 5.804 0.125 0.256 0.145 0.533 0.145 0.79z m91.135-25.75h17.03v-0.832c0-3.67-0.311-7.702-2.714-10.134-1.264-1.323-2.984-1.984-5.138-1.984-7.976 0-8.784 8.405-9.074 11.542a30.507 30.507 0 0 0-0.104 1.408zM633 875.776c0 1.536-8.473 5.078-16.594 5.078-6.36 0-11.353-1.878-14.896-5.462-4.123-4.245-6.215-10.902-6.215-19.734 0-8.683 2.527-16 7.064-20.716 3.543-3.67 8.225-5.547 13.57-5.547 5.2 0 9.364 1.537 12.368 4.673 4.206 4.33 6.36 11.712 6.36 21.953 0 1.621-0.186 1.664-1.43 1.664h-27.139v0.874c0 4.758 1.078 8.129 3.274 10.433 1.947 1.984 4.744 2.987 8.307 2.987 5.055 0 8.64-1.664 10.753-2.667 0.662-0.32 1.305-0.619 1.512-0.619 0.27 0 0.497 0.299 0.58 0.49-0.041-0.042 2.341 5.804 2.341 5.804 0.104 0.256 0.145 0.533 0.145 0.79z m72.973-25.725h17.018v-0.831c0-3.667-0.29-7.695-2.695-10.125-1.264-1.322-3.005-1.983-5.161-1.983-7.98 0-8.789 8.399-9.08 11.532-0.061 0.576-0.082 1.407-0.082 1.407z m26.946 25.73c0 1.534-8.457 5.073-16.582 5.073-6.363 0-11.38-1.876-14.924-5.457-4.104-4.242-6.198-10.893-6.198-19.718 0-8.676 2.508-15.988 7.048-20.699 3.544-3.666 8.25-5.585 13.577-5.585 5.202 0 9.369 1.578 12.395 4.711 4.187 4.328 6.343 11.703 6.343 21.935 0 1.62-0.166 1.663-1.43 1.663h-27.154v0.874c0 4.753 1.078 8.121 3.275 10.424 1.948 1.982 4.746 2.984 8.332 2.984 5.058 0 8.623-1.663 10.738-2.665 0.663-0.32 1.305-0.618 1.533-0.618 0.25 0 0.456 0.299 0.56 0.49-0.02-0.042 2.322 5.799 2.322 5.799 0.145 0.255 0.165 0.532 0.165 0.788z m143.954-7.233v-23.972s-0.336-0.334-0.593-0.585c-1.304-1.065-3.439-2.84-7.55-2.84-5.83 0-8.795 5.283-8.795 15.766 0 6.828 1.028 11.067 3.261 13.385 1.285 1.336 2.945 2.046 4.98 2.046 4.764 0 7.195-2.422 8.282-3.382 0.198-0.168 0.415-0.418 0.415-0.418z m11.8-31.615c-0.752 1.963-2.175 5.554-2.175 11.255v14.66c0 3.424 0.139 7.788 0.257 11.985 0.119 3.863 0.238 7.58 0.238 10.19 0 11.298-5.811 17.02-17.235 17.02-6.187 0-14.804-2.214-17.63-3.76-0.554-0.334-0.87-0.584-0.91-0.856-0.039-0.292 0.198-0.94 0.337-1.482 0.02 0 1.798-6.035 1.798-6.035 0.158-0.522 0.494-0.355 1.819 0.209 2.569 1.107 7.332 3.216 13.558 3.216 3.143 0 5.238-0.648 6.562-2.026 1.66-1.754 1.878-4.49 1.878-7.142 0-2.443-0.12-4.322-0.218-5.47-0.099-0.857-0.237-2.527-0.237-2.527s-0.79 0.626-1.265 0.94c-1.443 1.064-4.823 3.424-10.633 3.424-3.874 0-7.076-1.295-9.547-3.905-3.676-3.926-5.633-10.524-5.633-19.295 0-9.104 2.135-16.162 6.207-20.443 2.786-2.965 6.383-4.469 10.653-4.469 5.751 0 8.36 2.444 10.1 4.03 0.296 0.251 1.383 1.212 1.383 1.212l0.336-1.17c0.454-1.357 1.937-4.009 2.55-4.072h-0.02c0.158 0 0.454 0.063 0.691 0.188-0.039-0.041 7.076 2.694 7.076 2.694 0.475 0.209 0.534 0.418 0.06 1.629z m-99.165 43.92h-9.898c-0.53 0-0.572-0.085-0.572-0.58l-0.022-47.313c0-0.495 0.064-0.538 0.573-0.538h9.92c0.529 0 0.55 0.043 0.55 0.538v47.313c0 0.538-0.042 0.58-0.55 0.58z m-4.949-54.646c-4.112 0-7.44-3.306-7.44-7.416 0-4.09 3.328-7.395 7.44-7.395 4.07 0 7.397 3.305 7.397 7.395 0 4.11-3.327 7.416-7.397 7.416z m-127.147 28.948v23.57c0 0.408-0.062 0.572-0.553 0.572h-9.558c-0.512 0-0.532-0.082-0.532-0.572v-64.786c0-0.633 0-0.633 0.86-0.878l8.452-1.675c1.249-0.266 1.33-0.307 1.33 0.919v40.011l19.935-19.934c0.819-0.837 0.798-0.878 1.699-0.122-0.041 0 4.994 4.105 4.994 4.105 0.43 0.408 0.327 0.551-0.328 1.205l-16.168 15.747 18.072 21.711c0.716 0.878 0.655 1.021 0.02 1.43a8545.417 8545.417 0 0 0-7.634 4.146c-0.655 0.408-0.778 0.327-1.269-0.327-0.02 0-19.32-25.122-19.32-25.122z m145.634 25.138v-29.59c0-9.96-0.98-12.429-1.542-13.944-0.23-0.519-0.313-0.809-0.313-1.286 0-0.083 0.125-0.208 0.459-0.332 0.062 0 7.522-2.428 7.522-2.428 0.625-0.208 0.938-0.29 1.146-0.29 0.896 0 2.042 4.668 2.417 6.162l0.313 1.349s0.688-0.622 1.354-1.183c2.813-2.51 7.002-6.329 14.17-6.329 2.5 0 5.96 0.581 8.544 3.092 2.27 2.304 3.438 5.79 3.438 10.417v34.362c0 0.52-0.063 0.56-0.584 0.56h-9.71c-0.5 0-0.563-0.04-0.563-0.56v-30.15c0-2.677-0.208-5.685-2.063-7.49-1.062-1.059-2.48-1.557-4.25-1.557-3.085 0-6.606 1.598-9.482 4.461v34.736c0 0.52-0.041 0.56-0.583 0.56h-9.731c-0.5 0-0.542-0.04-0.542-0.56z m-277.854 0.041V850.72c0-7.539-1.306-10.862-2.056-12.814-0.578-1.578-0.706-1.91-0.171-2.118l7.689-3.032c0.92-0.374 1.05-0.416 1.52 0.29 0.514 0.727 1.778 2.991 2.378 6.397l0.257 1.828s1.327-1.496 1.841-2.14c2.014-2.554 5.462-6.708 11.287-6.708 2.335 0 4.284 0.582 4.84 1.226 0.129 0.166 0.215 0.332-0.02 0.893l-3.106 8.224c-0.107 0.29-0.172 0.29-0.729 0.125-0.942-0.312-2.355-0.852-4.047-0.852-3.534 0-7.346 3.821-8.524 5.192v33.104c0 0.437-0.065 0.52-0.557 0.52H525.77c-0.472 0-0.579-0.083-0.579-0.52z m218.008-0.04v-29.59c0-7.533-1.306-10.811-2.077-12.803-0.578-1.536-0.664-1.868-0.15-2.076l7.666-3.03c0.942-0.373 1.05-0.414 1.542 0.291 0.493 0.727 1.777 2.988 2.377 6.392l0.257 1.826s1.306-1.494 1.842-2.138c1.991-2.552 5.46-6.744 11.264-6.744 2.355 0 4.326 0.623 4.86 1.266 0.13 0.166 0.215 0.332 0 0.892l-3.126 8.218c-0.107 0.29-0.17 0.29-0.75 0.124-0.92-0.311-2.333-0.85-4.025-0.85-3.533 0-7.345 3.817-8.523 5.187v33.034c0 0.478-0.064 0.56-0.578 0.56h-10c-0.493 0-0.58-0.082-0.58-0.56z m-155.065 0.56h-31.913c-0.228 0-0.29-0.043-0.29-0.344v-7.183l23.21-31.958h-20.723c-0.394 0-0.435-0.043-0.435-0.452v-7.957c0-0.495 0-0.538 0.518-0.538h31.022c0.704 0 0.829 0.086 0.829 0.753v6.968l-22.899 31.721h23.935c0.953 0 1.015 0.172 0.725 0.925-0.041 0.043-2.86 7.269-2.88 7.312-0.208 0.495-0.56 0.753-1.099 0.753z m-111-64.89c0.193 0.247-0.044 0.473-0.195 1.09l-18.516 62.77c-0.323 1.03-0.323 1.03-1.42 1.03H445.42c-1.163 0-1.163 0-1.4-0.967 0-0.062-18.15-62.483-18.15-62.483-0.129-0.514-0.172-0.637-0.107-0.802 0.15-0.35 0.581-0.432 0.904-0.514 0.065 0 11.045-1.77 11.045-1.77 1.012-0.164 1.12 0 1.313 0.803 0 0.04 8.72 39.46 8.72 39.46 0.71 3.168 2.584 11.007 3.036 15.513h0.861c0.474-4.3 2.67-12.18 3.553-15.472l9.86-39.07c0.388-1.48 0.819-1.316 1.788-1.151l9.28 1.09c0.236 0.062 0.817 0.226 1.011 0.473zM220.041 665.03v70.53H129V547.89h91.042v84.426h0.518l53.598-84.427h109.185L303.4 644.861l75.427 90.699H274.655l-53.991-70.53h-0.622zM889 728.262c-21.133 6.489-48.835 10.325-73.67 10.325-88.477 0-153.422-25.22-153.422-98.638 0-66.275 62.951-95.087 149.008-95.087 23.94 0 54.307 2.673 78.084 10.243l-0.04 64.235c-17.615-10.712-35.229-17.364-60.47-17.364-32.808 0-65.596 16.18-65.596 39.728 0 23.63 32.646 39.77 65.596 39.77 24.834 0 42.855-6.857 60.47-17.1l0.04 63.888zM488.105 627.438h44.648c17.247 0 24.016-7.05 24.016-17.812 0-12.38-6.81-18.53-22.752-18.53h-45.912v36.342z m0 69.977h46.748c17.492 0 23.465-7.276 23.465-18.058 0-10.802-6.034-18.53-23.262-18.53h-46.951v36.588z m-89.623-149.526h181.182c47.074 0 62.507 18.386 62.507 47.04 0 32.1-28.501 45.996-57.777 47.595v0.533c30.05 2.357 59.347 5.8 59.347 43.638 0 24.699-15.433 48.865-67.196 48.865H398.482V547.89z" fill="#00467D"></path><path d="M889 378.167v117.998l-760 0.08V439.04s106.556-21.047 249.788-35.875c24.026 18.697 61.83 35.51 105.714 35.51 56.574 0 100.642-26.719 125.633-53.458 148.632-7.86 278.865-7.05 278.865-7.05m-376.993 30.26c72.762 0 131.734-58.27 131.734-130.216 0-71.925-58.972-130.216-131.734-130.216-72.72 0-131.692 58.29-131.692 130.216 0 71.945 58.972 130.215 131.692 130.215" fill="#00A0E8"></path></svg>