<svg viewBox="0 0 1024 1024" version="1.1" xmlns="http://www.w3.org/2000/svg"><path d="M224 0h576c123.6 0 224 100.4 224 224v576c0 123.6-100.4 224-224 224H224c-123.6 0-224-100.4-224-224V224C0 100.4 100.4 0 224 0z" fill="#FFFFFF"></path><path d="M193.884 820.8c3.6 0 7.2-0.4 9.6-2.4 1.6-1.6 2-3.6 2-6.4 0-2.8-0.8-4.8-2-6.4-2.4-2-6-2.4-9.2-2.4h-4v17.6h3.6z m-3.6-41.6v16.4h3.6c2.4 0 5.6-0.4 8-2.4 1.6-1.6 2-3.6 2-6.4 0-2.4-0.8-4-2-5.6-1.6-1.6-4-2.4-7.2-2.4h-4.4z m-10.4 47.6v-54c0-0.8 0-1.2 1.2-1.2h13.6c5.2 0 12 0.4 16 4.4 2.4 2.4 3.6 5.6 3.6 9.6 0 8-5.2 10.4-8.4 12l-1.6 0.8 2 0.4c4.8 1.2 10.4 4.4 10.4 13.2 0 13.6-10 15.6-20.8 15.6h-14.8c-1.2 0.4-1.2 0.4-1.2-0.8z m61.6-9.2v-10.4h-1.2c-2 0-7.2 0-10 2.8-1.2 1.2-2 2.8-2 4.8s0.8 3.6 1.6 4.8c1.2 1.2 2.8 2 4.4 2 3.6 0 6.4-2.8 7.2-4z m10.4 7.6l-6.4 2.8c-0.8 0.4-0.8 0.4-1.2 0 0-0.4-1.2-2-1.6-4l-0.4-1.2-1.2 1.2c-1.6 1.6-4.4 4.8-10 4.8-3.6 0-6.4-1.2-8.4-3.2-2-2.4-3.2-5.6-3.2-9.2s1.2-6.8 3.2-9.2c4.8-4.8 13.2-4.8 17.6-4.8h0.8v-3.2c0-2.4-0.4-4.4-1.6-5.6-1.2-1.2-2.8-1.6-5.2-1.6-3.2 0-6.4 1.2-8.4 2-0.8 0.4-1.6 0.4-1.6 0.4-0.4 0-0.4-0.4-0.4-0.4l-1.6-5.6c-0.4-0.8-0.4-0.8 0.4-1.2 1.2-0.8 6.4-2.8 13.2-2.8 4.8 0 8.4 1.2 10.4 3.2s3.2 5.2 3.2 9.6v16.8c0 6 1.2 8.4 1.6 10 0.8 0.4 1.2 0.8 0.8 1.2z m66-19.2v20.4c0 0.4 0 0.4-0.4 0.4h-8.8c-0.4 0-0.4 0-0.4-0.4v-56c0-0.4 0-0.4 0.8-0.8l7.6-1.6c1.2-0.4 1.2-0.4 1.2 0.8v34.4l18.4-17.2c0.8-0.8 0.8-0.8 1.6 0l4.4 3.6c0.4 0.4 0.4 0.4-0.4 1.2l-14.8 13.6 16.4 18.8c0.8 0.8 0.4 0.8 0 1.2-1.6 0.8-6.8 3.6-6.8 3.6-0.4 0.4-0.8 0.4-1.2-0.4l-17.6-21.6z m-52 21.6v-24.4c0-8.4-0.8-10.4-1.6-11.6 0-0.4-0.4-0.8-0.4-1.2l0.4-0.4 6.8-2h1.2c0.8 0 2 3.6 2.4 5.2l0.4 1.2s0.8-0.4 1.2-0.8c2.4-2 6.4-5.2 13.2-5.2 2.4 0 5.6 0.4 7.6 2.4s3.2 4.8 3.2 8.4v28.4c0 0.4 0 0.4-0.4 0.4h-8.8c-0.4 0-0.4 0-0.4-0.4v-24.8c0-2.4 0-4.8-2-6-0.8-0.8-2.4-1.2-4-1.2-2.8 0-6 1.2-8.8 3.6v28.8c0 0.4 0 0.4-0.4 0.4h-8.8c-0.8-0.4-0.8-0.4-0.8-0.8z m123.2-26.8c-2 1.6-6.8 4.8-6.8 10.4 0 2.4 0.8 4.8 2.8 6.4 1.6 1.6 4.4 2.8 6.8 2.8 5.6 0 9.2-3.6 10-4.8l0.4-0.4-12.8-14.8-0.4 0.4z m3.2-9.2l1.2-1.2c2-1.6 5.2-4.4 5.2-8.8 0-2-0.8-4-2-5.2-1.2-1.2-2.8-1.6-4.4-1.6-4 0-6.8 2.8-6.8 6.8 0 3.6 2.8 6.4 4.8 8 0.8 0.4 2 1.6 2 2z m16 29.6l-0.4 0.4c-2.4 2.4-6.8 6-16.4 6-6.4 0-11.6-1.6-15.2-5.2-2.8-2.8-4-6-4-10.4 0-9.2 8-14 11.6-16l1.6-0.8-1.6-1.6c-2.4-2.4-6.8-6.8-6.8-12 0-3.2 1.2-6.4 4-8.8 3.2-3.2 8-4.8 12.8-4.8 4.8 0 8.8 1.6 11.2 4 2.4 2.4 3.6 5.2 3.6 8.8 0 6.8-6.8 11.6-10 14-0.4 0.4-1.6 1.2-1.6 1.2l10.4 12 0.4-0.8c2-4 2.4-7.2 2.8-9.2 0-0.4 0-1.2 0.4-1.6 0-0.4 0.4-0.4 0.8 0l6.4 1.6c0.4 0 0.4 0.4 0.4 0.8 0 5.2-4 13.2-5.2 15.2l-0.4 0.4 6.8 8 0.4 0.4-0.4 0.4-4.4 3.6c-0.4 0.4-0.4 0.4-0.8 0.4s-0.4-0.4-0.8-0.4l-5.6-5.6z m89.6-19.6h15.6v-0.8c0-3.2-0.4-6.4-2.4-8.8-1.2-1.2-2.8-1.6-4.8-1.6-7.2 0-8 7.2-8.4 10v1.2z m24.8 22c0 1.2-7.6 4.4-15.2 4.4-6 0-10.4-1.6-13.6-4.8-3.6-3.6-5.6-9.2-5.6-16.8 0-7.6 2.4-13.6 6.4-17.6 3.2-3.2 7.6-4.8 12.4-4.8 4.8 0 8.4 1.2 11.2 4 4 3.6 5.6 10 5.6 18.8 0 1.2 0 1.6-1.2 1.6h-24.8v0.8c0 4 0.8 6.8 2.8 8.8 1.6 1.6 4.4 2.4 7.6 2.4 4.8 0 8-1.6 10-2.4 0.8-0.4 1.2-0.4 1.6-0.4 0.4 0 0.4 0.4 0.4 0.4l2 4.8c0 0.4 0.4 0.8 0.4 0.8z m79.2-22h15.6v-0.8c0-3.2-0.4-6.4-2.4-8.8-1.2-1.2-2.8-1.6-4.8-1.6-7.2 0-8 7.2-8.4 10v1.2z m24.8 22c0 1.2-7.6 4.4-15.2 4.4-6 0-10.4-1.6-13.6-4.8-3.6-3.6-5.6-9.2-5.6-16.8 0-7.6 2.4-13.6 6.4-17.6 3.2-3.2 7.6-4.8 12.4-4.8 4.8 0 8.4 1.2 11.2 4 4 3.6 6 10 6 18.8 0 1.2 0 1.6-1.2 1.6h-24.8v0.8c0 4 0.8 6.8 2.8 8.8 1.6 1.6 4.4 2.4 7.6 2.4 4.8 0 8-1.6 10-2.4 0.8-0.4 1.2-0.4 1.2-0.4 0.4 0 0.4 0.4 0.4 0.4l2 4.8c0 0.4 0.4 0.8 0.4 0.8z m63.2-22h15.6v-0.8c0-3.2-0.4-6.4-2.4-8.8-1.2-1.2-2.8-1.6-4.8-1.6-7.2 0-8 7.2-8.4 10v1.2z m24.4 22c0 1.2-7.6 4.4-15.2 4.4-6 0-10.4-1.6-13.6-4.8-3.6-3.6-5.6-9.2-5.6-16.8 0-7.6 2.4-13.6 6.4-17.6 3.2-3.2 7.6-4.8 12.4-4.8 4.8 0 8.4 1.2 11.2 4 4 3.6 6 10 6 18.8 0 1.2 0 1.6-1.2 1.6h-24.8v0.8c0 4 0.8 6.8 2.8 8.8 1.6 1.6 4.4 2.4 7.6 2.4 4.8 0 8-1.6 10-2.4 0.8-0.4 1.2-0.4 1.6-0.4 0.4 0 0.4 0.4 0.4 0.4l2 4.8v0.8z m126.8-4.4v-20.8l-0.4-0.4c-1.2-0.8-3.2-2.4-6.8-2.4-5.2 0-8 4.4-8 13.6 0 6 0.8 9.6 2.8 11.6 1.2 1.2 2.8 1.6 4.4 1.6 4.4 0 6.4-2 8-3.2-0.4 0 0 0 0 0z m10.8-27.2c-0.8 1.6-2 4.8-2 9.6v12.8c0 2.8 0 6.8 0.4 10.4 0 3.2 0.4 6.4 0.4 8.8 0 9.6-5.2 14.8-15.6 14.8-5.6 0-13.6-2-16-3.2-0.4-0.4-0.8-0.4-0.8-0.8s0-0.8 0.4-1.2l1.6-5.2c0-0.4 0.4-0.4 1.6 0 2.4 0.8 6.8 2.8 12.4 2.8 2.8 0 4.8-0.4 6-1.6 1.6-1.6 1.6-4 1.6-6v-4.8c0-0.8-0.4-2-0.4-2s-0.8 0.4-1.2 0.8c-1.2 0.8-4.4 2.8-9.6 2.8-3.6 0-6.4-1.2-8.8-3.2-3.2-3.2-5.2-9.2-5.2-16.8 0-8 2-14 5.6-17.6 2.4-2.4 6-4 9.6-4 5.2 0 7.6 2 9.2 3.6l1.2 1.2 0.4-1.2c0.4-1.2 1.6-3.6 2.4-3.6h0.8l6.4 2.4c-0.4 0 0 0-0.4 1.2z m-89.2 36h-9.2c-0.4 0-0.4 0-0.4-0.4v-39.2c0-0.4 0-0.4 0.4-0.4h9.2c0.4 0 0.4 0 0.4 0.4v39.2c0 0.4 0 0.4-0.4 0.4z m-4.8-47.2c-4 0-7.2-3.2-7.2-7.2s3.2-6.8 7.2-6.8 6.8 3.2 6.8 6.8c0.4 4.4-2.8 7.2-6.8 7.2z m-112 25.2v20.4c0 0.4 0 0.4-0.4 0.4h-8.8c-0.4 0-0.4 0-0.4-0.4v-56c0-0.4 0-0.4 0.8-0.8l7.6-1.6c1.2-0.4 1.2-0.4 1.2 0.8v34.4l18.4-17.2c0.8-0.8 0.8-0.8 1.6 0l4.4 3.6c0.4 0.4 0.4 0.4-0.4 1.2l-14.8 13.6 16.4 18.8c0.8 0.8 0.4 0.8 0 1.2-1.6 0.8-6.8 3.6-6.8 3.6-0.4 0.4-0.8 0.4-1.2-0.4l-17.6-21.6z m132 21.6v-24.4c0-8.4-0.8-10.4-1.6-11.6-0.4-0.4-0.4-0.8-0.4-1.2l0.4-0.4 6.8-2c0.4 0 0.8-0.4 1.2-0.4 0.8 0 2 4 2.4 5.2l0.4 1.2s0.8-0.4 1.2-0.8c2.4-2 6.4-5.2 12.8-5.2 2.4 0 5.6 0.4 8 2.4 2 2 3.2 4.8 3.2 8.8v28.4c0 0.4 0 0.4-0.4 0.4h-8.8c-0.4 0-0.4 0-0.4-0.4v-24.8c0-2.4 0-4.8-2-6-0.8-0.8-2.4-1.2-4-1.2-2.8 0-6 1.2-8.8 3.6v28.8c0 0.4 0 0.4-0.4 0.4h-8.8c-0.8-0.4-0.8-0.4-0.8-0.8z m-248 0v-24.4c0-6.4-1.2-8.8-1.6-10.4-0.4-1.2-0.4-1.6 0-1.6l6-2.4c0.8-0.4 0.8-0.4 1.2 0.4 0.4 0.8 1.6 2.4 2 5.2l0.4 1.6 1.6-1.6c1.6-2 4.4-5.6 8.8-5.6 2 0 3.2 0.4 4 1.2v0.8l-2.4 6.8c0 0.4 0 0.4-0.4 0-0.8-0.4-2-0.8-3.2-0.8-2.8 0-6 3.2-6.8 4.4v27.2c0 0.4 0 0.4-0.4 0.4h-8c-0.8-0.8-1.2-0.8-1.2-1.2z m192 0v-24.4c0-6.4-1.2-8.8-1.6-10.4-0.4-1.2-0.4-1.6 0-1.6l6-2.4c0.8-0.4 0.8-0.4 1.2 0.4 0.4 0.4 1.6 2.4 2 5.2l0.4 1.6 1.6-1.6c1.6-2 4.4-5.6 8.8-5.6 2 0 3.6 0.4 4 1.2v0.8l-2.4 6.8c0 0.4 0 0.4-0.4 0-0.8-0.4-2-0.8-3.2-0.8-2.8 0-6 3.2-6.8 4.4v27.2c0 0.4 0 0.4-0.4 0.4h-8c-0.8-0.8-1.2-0.8-1.2-1.2z m-137.6 0.4h-28c-0.4 0-0.4 0-0.4-0.4v-6l20.4-26.4h-18.4c-0.4 0-0.4 0-0.4-0.4v-6.4c0-0.4 0-0.4 0.4-0.4h27.2c0.8 0 0.8 0 0.8 0.8v5.6l-20 26h21.2c0.8 0 0.8 0 0.8 0.8l-2.4 6c-0.4 0.4-0.8 0.8-1.2 0.8z m-96.4-54.4v0.8l-16 52.8c-0.4 0.8-0.4 0.8-1.2 0.8h-10c-0.8 0-0.8 0-1.2-0.8l-15.6-52.4v-0.8c0-0.4 0.4-0.4 0.8-0.4l9.6-1.6c0.8 0 0.8 0 1.2 0.8l7.6 33.2c0.8 2.8 2.4 9.2 2.4 13.2h0.8c0.4-3.6 2.4-10.4 3.2-13.2l8.4-32.8c0.4-1.2 0.8-1.2 1.6-0.8l8 0.8c-0.4 0 0.4 0 0.4 0.4z" fill="#00467D"></path><path d="M851.884 380v108h-672v-52.4s94.4-19.2 220.8-32.8c21.2 17.2 54.8 32.4 93.6 32.4 50 0 88.8-24.4 111.2-48.8 131.2-7.2 246.4-6.4 246.4-6.4m-332 28c64 0 116-52 116-116s-52-116-116-116-116 52-116 116 52 116 116 116" fill="#00A0E8"></path><path d="M260.284 636.8V700h-80v-168h80v75.6h0.4l47.2-75.6h96l-70.4 86.8 66.4 81.2h-91.6l-47.6-63.2h-0.4z m591.6 58c-18.8 6-43.2 9.2-64.8 9.2-78 0-135.2-22.8-135.2-89.6 0-60.4 55.6-86.4 131.2-86.4 21.2 0 48 2.4 68.8 9.2v58.4c-15.6-9.6-31.2-15.6-53.2-15.6-28.8 0-57.6 14.8-57.6 36 0 21.6 28.8 36 57.6 36 22 0 37.6-6.4 53.2-15.6v58.4z m-356.8-91.6h39.2c15.2 0 21.2-6.4 21.2-16 0-11.2-6-16.4-20-16.4h-40.4v32.4z m0 62.8h41.2c15.6 0 20.8-6.4 20.8-16s-5.2-16.4-20.4-16.4h-41.6v32.4z m-79.2-134h159.6c41.6 0 55.2 16.4 55.2 42 0 28.8-25.2 41.2-50.8 42.8v0.4c26.4 2 52.4 5.2 52.4 39.2 0 22-13.6 43.6-59.2 43.6h-157.2v-168z" fill="#00467D"></path></svg>