<svg viewBox="0 0 1024 1024" version="1.1" xmlns="http://www.w3.org/2000/svg"><path d="M224 0h576c123.6 0 224 100.4 224 224v576c0 123.6-100.4 224-224 224H224c-123.6 0-224-100.4-224-224V224C0 100.4 100.4 0 224 0z" fill="#FFFFFF"></path><path d="M218.8 502.8v18.8c0 42.4-18.8 81.6-36 107.6-9.2 14-21.2 26.8-33.6 37.6-5.6 5.2-13.6 10.8-20.4 15.6-5.2 3.6-20 10.8-22.8 13.6h143.2c0.4-1.2 16.4-24.4 19.2-28.4 6.4-10.4 11.2-20 16.8-31.2 6-12.4 22.4-56.8 22.4-73.2 0.8 0.8 8.8 34 10 38 3.2 10.8 8.8 25.6 13.2 34.8 6.4 12.4 28 53.6 37.2 59.6h141.6c-3.6-3.2-17.2-9.6-22.8-13.6-8-5.2-13.6-10.4-20.8-16-10.8-8.4-26.4-27.6-34.4-39.6-19.6-28.8-35.2-66.4-35.2-114v-3.6c0-42.8 17.6-87.2 36-112 12.4-17.2 20.8-24.8 35.2-39.2 5.2-5.2 14.8-11.6 21.2-16 3.2-2 22.4-12.4 23.2-13.6H366c-4.4 8.8-13.6 18.8-19.2 28-5.6 10-12 20.8-16.8 31.2-4.8 11.2-9.6 22-13.2 34.4-1.2 4.8-9.2 37.2-10 38 0-16-16.4-60.8-22.4-73.2-6-12.4-28-52.8-36.4-58.8H104c0.8 1.2 19.2 11.2 22.4 13.2 8 5.6 13.2 10 20.8 15.6 11.2 8.4 26.8 26.4 34.8 38 17.2 26.8 36.8 65.6 36.8 108.4" fill="#E30016"></path><path d="M830.8 501.6c0-38-20.8-85.2-37.2-106.8-11.2-14.8-20-25.2-34.4-37.6-6.8-5.6-13.2-10.8-20.4-15.6-3.2-2-21.2-12-22.4-13.2h145.2c0 0.4 21.2 32.8 24 37.6 6.8 11.2 14.8 28.8 19.6 42.4 10.8 32 18.4 62 18.4 104.4 0 42.8-8.4 72.4-19.2 104.8-4.8 13.6-12.8 30.4-19.6 42-4 6.8-7.2 12.4-11.6 18.8-4 5.6-9.6 12.4-12.4 18h-141.6c3.6-3.2 16.4-10 22-13.6 6.8-4.8 14-10 20-15.6 12.4-11.2 24-23.6 33.2-37.6 16.4-24.8 36-65.2 36-106v-22z m-282.8 88v-148h147.2v147.6H548z" fill="#F89828"></path></svg>