<svg viewBox="0 0 1024 1024" version="1.1" xmlns="http://www.w3.org/2000/svg"><path d="M44.756293 512.099902c8.491707 5.594537 16.184195 13.586732 22.877658 25.075513 4.695415-9.290927 12.288-17.482927 23.077464-24.276293-13.08722-8.691512-18.881561-16.583805-23.576976-24.376195-6.094049 10.789463-13.886439 18.182244-22.378146 23.576975" fill="#AE935C"></path><path d="M0.899122 511.800195c0 1.498537 0.099902 2.897171 0.099902 4.395707 22.378146 2.497561 40.660293-13.187122 60.041366-38.662243 15.884488-20.87961 44.556488-24.875707 67.833756 5.494634-10.789463-22.977561-33.966829-38.961951-60.740683-38.961952-37.163707 0-67.234341 30.370341-67.234341 67.733854" fill="#EC440E"></path><path d="M75.026732 547.065756c-16.084293 20.87961-44.856195 22.977561-68.333269-8.491707 10.289951 23.77678 34.066732 40.360585 61.739708 40.360585 37.163707 0 67.234341-29.970732 67.234341-66.934634 0-0.999024 0-2.097951-0.099902-3.096976-1.698341-0.199805-3.396683-0.299707-5.095025-0.299707-20.280195 0-37.463415 15.085268-55.445853 38.462439" fill="#83120E"></path><path d="M169.034927 446.86361c11.089171-2.297756 23.477073 11.288976 14.885463 13.287024-11.988293 2.697366-23.77678 14.086244-18.981463 20.679805 6.493659 4.995122 7.992195 9.490732 2.097951 14.985366-0.599415-1.098927-12.487805-8.491707-5.594537-22.877659 7.192976-10.190049 14.585756-13.886439 7.592586-26.074536z m-8.092098 63.438049c3.396683 14.785561 11.788488-3.996098 19.480976-18.282147 2.097951-1.698341 1.898146 1.298732 0.799219 6.393756-1.398634 1.298732-1.298732 2.797268-0.599414 4.295805-3.796293 17.383024-8.391805 28.572098-14.286049 28.472195-4.295805 0.499512-7.192976-3.096976-5.394732-20.879609z m28.672-34.865952c4.295805 1.098927 8.291902 0.499512 17.58283-1.098927 12.887415-2.297756 24.076488 0.299707 20.779707 7.592586-7.492683 9.390829-13.786537 14.885463-19.880586 19.580878-0.39961 0.299707 0.79922 0.899122 1.398635 0.899122 9.390829-0.39961 19.081366-1.698341 16.883512 5.894244 0 2.697366-11.189073 7.592585-29.371317 7.492683-8.791415-0.099902-10.289951-10.090146 1.098927-21.67883 3.996098-4.096 12.188098-5.294829 7.892292-10.489756-3.096976-1.998049-5.294829 0.199805-7.692488 1.698342-6.593561 0.499512-9.191024-2.897171-9.990243-8.192 0.099902-0.79922 0.199805-1.898146 1.298731-1.698342z m59.441951 31.569171c0.699317-0.299707 0.999024 0 1.698342 2.297756 2.697366-0.299707 3.796293 1.198829 2.897171 2.297756-1.498537 1.698341-3.096976 3.196878-5.095025 6.593561-3.69639 6.293854-7.192976 6.593561-7.192975 4.295805-0.199805-6.393756 1.298732-12.288 7.692487-15.484878z m14.485854-60.341073c11.48878-0.099902 13.287024 12.088195 9.690537 31.169561 0.199805 0.899122 0.79922 0.899122 1.698341 0.199805 2.297756-2.997073 4.695415-6.094049 6.993171-9.091122-0.699317-2.097951 0.199805-2.597463 1.798244-2.397659l10.889366-10.589658c4.49561-4.395707 8.691512 0.899122 12.787512 7.39278 1.898146 0 3.896195 0.699317 6.094049 2.697366 0.79922 3.496585-1.098927 3.096976-2.497561 3.496585-5.694439-2.997073-12.088195-3.596488-19.480976-0.899122-9.790439 1.498537-15.884488 12.587707-22.877658 21.578927-0.599415 1.698341 0.699317 1.398634 1.798243 1.098927 4.096-3.896195 8.691512-9.990244 11.288976-7.093073 1.298732 1.098927 0.899122 2.497561-0.199805 4.096-0.599415 0.899122 0.199805 1.098927 1.198829 1.098927 7.79239 0.199805 15.98439-0.099902 1.898147 33.367414-6.793366 10.190049-14.286049 9.290927-22.178342 4.395708-1.898146 1.698341-3.69639 3.396683-5.594536 5.095024-0.099902-2.897171-0.199805-5.794341-0.199805-8.59161 3.396683-6.893268 6.693463-13.686634 10.090146-20.579902-3.996098 1.098927-6.493659-0.099902-6.793366-4.89522 1.198829-1.698341 2.197854-3.496585 1.19883-5.794341 1.498537-2.997073 3.396683-5.794341 6.893268-6.893268-2.897171-2.097951-2.197854-17.682732-1.798244-32.368391-0.899122-2.197854-1.798244-4.395707-2.697366-6.493658z m26.274342 17.882536c-0.199805 0.79922 0.79922 1.198829 3.396683 0.899122 2.797268-1.898146 5.594537-3.096976 8.192-2.197853-0.79922-4.395707-2.097951-4.595512-3.296781-5.095025-2.697366 2.097951-5.494634 4.295805-8.291902 6.393756z m-23.776781 53.347903c1.898146-0.099902 3.896195 0.999024 5.994146 3.496585 7.692488-2.797268 12.587707-16.883512 9.290927-25.275317-3.596488-5.894244-10.090146 13.586732-15.285073 21.778732zM298.20878 508.503415c-1.298732-2.797268 3.596488-1.898146 13.686635 2.097951 6.893268 2.597463 8.99122 6.393756 7.093073 11.089171-3.896195 1.898146-6.193951-1.898146-8.691512-4.89522-8.891317-3.69639-13.686634-6.693463-12.088196-8.291902z m29.271415-32.668098c7.292878-1.298732 18.481951-7.492683 30.370342-14.585756l-2.097952-11.089171c3.796293-4.195902 7.79239-6.193951 8.59161-2.797268 0.099902 4.096 0.099902 8.192 0.199805 12.387902 0.79922-0.199805 1.598439-0.299707 2.397659-0.499512 1.098927 5.794341 0.39961 9.890341-3.796293 10.589659-0.299707 1.498537-0.39961 3.196878-0.299707 5.194927 2.997073-0.79922 5.494634-3.096976 7.992195-5.194927 0.099902 0.699317-0.899122 2.297756-7.392781 8.891317 2.297756 0.099902 0.299707 1.298732 0 2.097951 0.699317-0.199805 1.398634-0.299707 2.097951-0.499512-0.499512 0.599415-0.999024 1.198829-1.598439 1.698341 0.099902 0.299707 0.099902 0.699317 0.199805 0.999025 0.499512-0.79922 0.999024-1.498537 1.598439-2.297756 1.798244-0.699317 0 1.998049-2.197853 4.995122 0 18.581854 3.496585 46.654439-5.194927 42.358634-1.998049-0.699317-3.896195-1.598439-4.295805-5.594537-4.096-7.692488-10.389854-9.890341-17.482927-9.890341-0.999024-1.998049-1.998049-4.096-2.897171-6.094049l14.186147-17.582829 0.299707 1.898146c2.597463-3.396683 4.89522-5.494634 8.291902-7.592585-0.199805-2.697366-0.099902-7.39278-0.299707-10.090147-13.786537 10.789463-24.576 14.885463-28.672 2.697366z m19.880585 34.766049c0.499512 1.698341 1.998049 3.596488 5.894244 6.094049 1.698341 1.598439 1.298732-9.490732 1.498537-16.683708-3.596488 2.597463-5.694439 6.493659-7.392781 10.589659z m6.693464-16.184195c0.39961 0.099902 0.899122 0 1.298732-0.79922 0.199805-1.098927 0.099902-1.998049-0.199805-2.597463-0.999024 0.79922-1.298732 1.998049-1.098927 3.396683z m26.474146-29.47122c0.999024-3.096976 10.589659-8.291902 17.982439-6.993171 4.695415 1.798244 1.798244 6.293854-0.499512 10.489757l-4.49561 9.690536c11.588683-4.695415 21.379122-2.397659 24.675903 8.791415 3.996098 13.686634-1.698341 20.180293-7.392781 24.276292-10.389854 7.492683-16.78361 8.192-21.578927 6.393757l-6.693463 8.791414c-0.199805-2.797268-0.79922-5.594537-3.096976-8.192l2.397659-5.394731c-1.298732-0.999024-1.898146-2.497561-2.097951-4.295805-1.298732 0.299707-1.998049 1.298732-2.697366 2.497561 0.199805-3.096976-0.499512-6.094049-1.898146-8.99122 5.594537-7.39278 10.889366-14.585756 7.892292-15.085268-3.796293-1.698341-5.394732-4.295805-1.398634-9.390829 3.096976-5.394732 10.489756-14.385951 5.694439-12.987318-2.797268 2.597463-3.996098 2.497561-5.095024 2.197854 2.597463-2.397659 1.998049-2.997073-1.698342-1.798244z m2.297756 45.355708c5.194927-5.594537 7.192976-17.982439 10.190049-22.777757 1.898146-2.897171 5.394732-0.299707 6.393756 2.397659 0 3.496585-2.597463 10.889366-7.192975 21.379122 8.391805-1.798244 24.775805-10.889366 19.480975-25.075512-4.795317-5.394732-11.788488-4.595512-20.180292 0.299707-1.398634 4.695415-4.795317 11.48878-10.989269 20.679805l2.297756 3.096976z m55.945366-22.378147c-0.499512-3.196878 0.199805-6.493659 3.196878-10.289951l-0.899122-10.489756c5.594537 3.396683 9.091122 9.091122 7.592586 20.180293 6.993171-0.199805 12.887415-2.397659 14.885463-11.189074 2.297756-4.995122 5.994146-2.297756 9.790439 0.699317-1.098927 8.491707-2.997073 18.082341-0.899122 22.178342 0.499512 7.292878-1.898146 7.79239-4.195902 8.691512-6.393756-4.195902-8.791415-8.891317-7.292878-13.986341-3.596488-3.096976-6.793366-5.294829-9.091122-5.194927-3.396683 2.097951-5.294829 8.291902-5.694439 18.681756-0.999024 5.294829-3.496585 4.89522-5.794342 5.294829-4.695415 0.39961-7.093073-7.093073-9.590634-14.186146 0.599415 0 1.098927 0.099902 1.698342 0.099902 2.997073 4.096 4.096 2.797268 4.995121 0.699317 0.899122-5.294829-4.89522-8.891317-9.990243-12.687609-0.699317-0.999024 1.698341-1.098927 11.288975 1.498536z m47.553561-24.17639c-4.795317 1.498537-3.69639-3.29678 0.199805-10.789463 3.996098-3.096976 6.693463-1.798244 8.192 3.996097-0.999024 9.890341-2.097951 19.68078-3.096976 29.571122 10.090146 3.096976 18.981463 6.393756 16.284098 11.988293-1.198829 2.997073-6.293854 1.798244-13.187122-1.398634-3.69639 0-4.89522 5.394732-2.397658 18.781658 1.298732-0.699317 1.798244 8.891317 1.398634 13.886439-0.099902 1.398634-3.796293 3.796293-4.995122 2.797268-3.996098-3.29678-8.59161-11.089171-8.891317-17.183219 0-0.999024 1.698341 0.699317 4.195902 3.496585 0.499512-13.586732 0.699317-26.574049-6.293854-21.878634 0-5.294829 1.998049-8.291902 7.093074-7.992195 0.39961-8.491707 0.899122-16.883512 1.498536-25.275317z m41.059903-3.996098c4.195902 2.597463 5.694439 6.293854 3.996097 10.090147 4.195902 0.599415 7.992195-0.899122 12.787512-2.897171 0.39961-2.097951-1.198829-2.997073-1.398634-4.695415-0.299707-3.69639 3.196878-5.494634 12.088195 0.79922 10.589659-1.598439 19.780683-2.497561 21.67883-0.299707 3.496585 7.892293-5.594537 11.089171-18.781659 12.987317-3.29678 0.599415-7.79239 0.899122-11.089171 1.498536 0.299707 0.499512 0.499512 0.899122 0.79922 1.398634-2.797268 8.791415-2.897171 14.385951-1.098927 17.782635 10.589659-4.795317 20.380098-11.089171 29.371317-18.681757 4.89522 4.995122-1.798244 10.489756-17.383024 20.779708 1.698341 1.798244 4.295805 0.699317 8.491707-4.695415 0.299707 2.397659-0.899122 4.89522-2.297756 7.292878 12.487805 4.89522 23.976585 9.990244 26.773854 17.582829 1.598439 3.996098-1.298732 2.697366-3.896196 1.698342-9.890341-8.291902-18.681756-12.987317-26.474146-14.585756-3.396683 5.994146-6.793366 11.988293-10.090146 17.882536-8.491707 10.389854-12.487805 7.592585-15.884488 2.997074-4.89522-7.093073-1.998049-16.583805 1.498537-26.274342-0.099902-2.697366-1.798244-1.298732-2.897171 1.198829-4.195902 10.289951-6.793366 10.989268-8.192 10.489756-6.993171-4.195902-3.796293-11.88839 3.196878-20.779707 4.096-5.394732 8.291902-10.789463 12.387902-16.284097-0.199805-3.496585-6.293854 2.097951-13.287024 8.991219-3.996098 2.797268-5.794341-1.998049-5.594537-14.286049 0.499512-1.298732 0.999024-2.097951 2.297756 0.299708 0.299707-5.694439 1.098927-9.890341 2.997074-10.289952z m30.070634 5.994147c-2.197854 0.499512-3.896195 1.398634-3.69639 1.898146 0.099902 0.499512 1.998049 0.499512 4.195902 0s3.896195-1.398634 3.69639-1.898146c-0.199805-0.499512-1.998049-0.499512-4.195902 0z m-15.285073 39.861073c-2.997073 4.395707-3.996098 10.989268-2.897171 13.486829 0.999024 2.297756 7.892293-1.198829 18.681756-15.58478 1.398634-1.798244-2.897171-3.996098-5.794342-3.796293-3.69639 0.199805-6.893268 2.897171-9.990243 5.894244z m77.02478-33.767024c0.999024-0.299707 2.497561-0.39961 2.597463-1.398635 0.699317-4.096-2.297756-8.891317-0.299707-12.487805 1.298732-2.397659 5.794341-2.997073 7.992195-1.398634 1.598439 1.198829-1.998049 3.69639-2.197853 5.794342-0.099902 1.298732 0 3.396683 1.198829 3.596488 3.896195 0.699317 8.691512 1.298732 7.79239 7.592585-0.199805 1.598439-2.597463 1.898146-3.69639 2.997073-2.397659 2.397659-1.498537 5.594537 1.598439 6.293854 1.998049 0.39961 5.994146-5.394732 6.693463-3.396683 1.098927 2.997073-2.897171 6.293854-4.595512 8.991219-6.393756 9.890341-10.190049 18.981463-13.187122 26.673952-2.097951 5.494634-1.398634 8.092098 3.296781 10.689561 5.294829 2.897171-4.395707 3.796293-8.192-1.298732-2.197854-2.997073 0.39961-9.191024-1.798244-7.992195-3.69639 1.998049-4.295805 5.694439-6.193951 6.793366-1.598439 0.899122-3.896195 1.398634-5.494635-2.297756-1.098927-2.597463-1.098927-5.694439-0.699317-8.491708 0.199805-1.998049 1.998049-2.497561 4.195903-4.995122 8.791415-9.990244 14.985366-20.380098 8.791414-19.181268-4.49561 0.79922-9.091122 4.195902-13.586731-1.198829-2.297756-2.797268-6.493659-7.592585-3.896195-10.090147 4.89522-4.795317 13.187122-3.29678 19.68078-5.194926z m22.078439 6.59356c5.794341-3.496585 9.091122-8.092098 16.78361-12.787512-1.798244-0.599415-2.897171-4.995122-2.097951-6.193951 2.197854-3.396683 7.292878-7.093073 11.588683-2.997073 2.897171 4.89522 5.994146 4.195902 8.991219 5.194927 4.995122 1.798244 3.496585 6.393756-2.097951 9.191024-7.592585-0.499512-7.992195 4.096-7.192976 9.290927 0.299707 6.493659 0.599415 12.887415 0.899122 19.381073 4.096 22.078439 2.797268 35.565268-7.992195 33.667122-4.295805-1.098927-8.891317-3.096976-8.791415-4.895219 0.199805-4.395707-1.598439-7.592585-3.996097-11.189074 3.496585 2.697366 7.093073 5.194927 13.886439 1.698342-1.398634-6.593561 3.896195-18.282146-5.694439-15.98439-1.898146-0.099902-3.796293-0.199805-5.694439-0.199805-0.499512-2.397659 4.395707-2.397659-0.899122-6.094049-3.396683 3.096976-7.093073 6.993171-8.791415 6.693463-0.79922-2.697366-3.496585-4.795317 7.492683-10.789463 3.596488-0.899122 7.292878 1.598439 10.889366 4.595512 0.999024 1.098927 1.198829-3.69639 0-10.589658 0.899122-7.692488 0.099902-11.288976-3.29678-8.99122-5.794341 5.494634-10.889366 8.791415-13.686635 6.094049 2.197854-2.497561 2.097951-4.195902-0.299707-5.095025z m57.443903-13.786536c9.990244-2.597463 21.778732-4.395707 20.08039-11.88839 2.097951-5.694439 6.993171-5.994146 11.788488-1.19883 0.999024 0.999024 0 2.797268 0 4.195903 4.195902-3.096976 9.191024-3.996098 15.784585 0.199805 1.398634 1.898146 1.798244 3.69639-4.49561 3.796292-2.797268 0.499512-5.694439 1.098927-8.491707 1.598439 1.898146 2.197854 3.896195 4.096 7.292878 4.195903 4.096 2.797268 3.996098 4.89522-5.294829 5.095024-8.291902 10.489756-12.987317 7.592585-18.881561 8.891317 4.195902-5.294829 8.291902-10.689561 15.18517-15.18517-0.79922-1.198829-1.298732-2.497561-5.095024-0.999025-5.494634 1.698341-11.089171 3.396683-16.583805 5.095025-3.29678 2.597463-5.694439 5.095024-2.197854 6.893268 2.997073-1.498537 5.994146-2.997073 8.891318-4.395707-6.193951 9.490732-12.288 18.581854-14.585757 12.088195-2.897171-3.896195-0.199805-8.491707 4.096-13.287025-2.597463 0.299707-5.294829 1.898146-7.692487 0.999025-2.997073-1.098927-5.194927-4.295805 0.199805-6.094049z m-3.396683 32.867902c-3.596488-0.499512-4.595512-1.798244-1.798244-4.395707 10.989268-2.997073 22.078439-5.894244 33.067707-8.891317-0.199805-0.999024-0.499512-1.998049-0.699317-2.997073 3.396683 0.39961 7.292878 0.39961 15.58478-2.397659 3.29678-0.79922 6.693463-0.899122 10.989269 3.996098-0.199805 13.486829-0.299707 27.073561-0.499512 40.56039 0 8.99122-3.796293 12.487805-10.289952 12.088195-8.192-3.69639-12.088195-8.491707-14.485853-13.686634 3.196878 1.798244 6.893268 3.096976 12.188097 2.397659 10.389854-4.096 6.193951-25.974634 6.693464-42.058927-2.397659-0.699317-6.793366 0.099902-11.788488 1.198829-0.39961 1.698341-0.999024 3.396683-2.097951 5.194927 5.194927 0.79922 6.393756 1.498537 5.894244 2.297756-1.298732 2.497561-5.994146 3.796293-13.287025 3.996097l-8.59161 2.397659c0.999024 5.694439-0.999024 6.393756-2.197853 7.392781 4.695415-1.798244 9.490732-3.69639 14.186146-5.494635 2.997073-1.298732 6.293854-1.198829 10.289951 2.097952 1.498537 5.394732-0.299707 6.293854-3.596488 5.095024 0.099902 2.897171 1.098927 4.695415 3.896196 4.895219 3.29678 5.694439-1.898146 6.493659-9.490732 5.994147-5.994146-0.79922-11.988293 1.398634-18.082342 4.096-3.496585-2.697366-4.995122-5.994146-4.495609-9.990244 1.698341-1.798244 3.496585-3.396683 2.497561-8.192-2.597463-1.598439-2.297756-5.794341-1.098927-10.689561l-9.690537 4.295805c0.199805 7.192976 0.499512 14.385951 0.699317 21.578927 0.79922 6.893268-1.498537 8.092098-6.094048 5.594536-3.396683-3.996098-5.194927-10.190049 2.297756-26.374244z m28.372292-10.190048c-2.497561 0.299707-3.896195 1.598439-4.096 4.096-0.79922 1.498537-1.498537 3.096976-2.297756 4.595512 1.798244 0 3.69639-0.999024 5.594537-3.096976-0.899122-1.898146-0.199805-3.796293 0.799219-5.594536z m-9.390829 25.575024c0.999024 0.299707 1.998049 0.299707 3.096976-1.298732 1.098927-2.597463 1.298732-4.096-0.599415-3.096975-2.797268 2.097951-4.49561 3.796293-2.497561 4.395707z m52.84839-19.081366c1.798244-0.299707 3.496585-0.299707 4.595512 2.097951 3.496585 3.496585 12.387902 1.498537 22.078439-1.198829-0.199805-6.493659-0.39961-12.987317-0.599414-19.580878-2.497561-2.297756-5.394732-4.595512-3.496586-6.393756 7.892293-2.997073 13.786537 2.197854 19.281171 8.991219-1.498537 3.796293-2.997073 7.692488-4.595512 11.488781 3.396683-0.899122 6.793366-1.698341 10.190049-2.597464l2.397658-16.483902c1.098927-6.393756-0.39961-7.892293-2.297756-8.59161-0.699317-3.29678-1.098927-6.393756 4.995122-5.294829 6.893268-2.497561 9.790439-1.098927 8.691512 4.195902-4.595512 7.592585-6.893268 15.285073-7.492683 23.177366 4.695415-2.297756 9.390829-5.494634 13.686635-1.698341 6.593561 4.295805 4.49561 7.39278-1.698342 9.990244-6.094049 7.692488-9.990244 10.489756-13.486829 12.088195-1.598439 6.493659 2.597463 8.391805 10.289951 7.39278 5.594537 3.796293 5.594537 7.192976-3.29678 9.890342-13.187122-0.599415-24.576 2.197854-31.868878 4.995122-3.796293 1.498537-6.593561-0.39961-7.192976-2.597464-2.897171-1.998049-3.896195-3.896195-2.697366-5.894244 3.096976-0.499512 6.293854-0.899122 9.390829-1.398634-0.199805-6.094049-0.39961-12.088195-0.599414-18.182244-5.194927 3.29678-11.48878 10.989268-16.983415 10.589659-4.49561-0.099902-14.385951-6.893268-9.290927-14.985366z m58.343025-9.690536c-5.494634 1.498537-5.594537 3.69639-4.195903 4.695414 1.098927 0.699317 2.797268-1.398634 4.595512-3.596488 0.299707-0.899122 0.199805-1.298732-0.399609-1.098926z m-21.179317 8.092097l0.299707 13.187122c2.897171-2.497561 5.894244-5.095024 8.791415-7.592585-1.298732-3.396683-0.999024-6.393756 0.699317-9.091122-3.196878 1.098927-6.493659 2.297756-9.790439 3.496585z m48.852292 0.299707c17.582829-23.976585 24.276293-35.565268 20.080391-34.865951 3.29678-3.69639 5.794341-4.096 7.592585-0.899122 0.599415 6.893268-0.199805 8.391805-2.597464 10.190049 3.396683 0.79922 5.994146-1.798244 9.990244-2.397659 6.493659-0.999024 7.892293 3.996098 2.897171 7.292879-3.096976 1.998049-6.893268 2.697366-10.389854 4.096 2.897171-2.897171-0.699317-2.197854-5.294829-1.098927-1.898146 3.396683-3.69639 6.793366-5.594536 10.190048 3.996098 0.79922 7.992195-1.198829 11.88839-4.395707 4.595512-1.298732 5.594537 1.098927 5.994146 3.896195-3.196878 1.398634-3.69639 5.194927-3.496585 9.590634 5.794341-1.398634 8.291902-0.599415 6.193951 3.296781l-6.593561 2.097951c-0.199805 3.496585-0.299707 6.993171-0.499512 10.489756 4.49561-1.798244 7.79239-6.793366 10.989268-11.788488 2.997073 5.694439-14.585756 27.273366-23.377171 29.87083-1.698341 0.499512-6.993171-4.395707-5.894243-8.192 2.897171-2.797268 6.693463-5.394732 6.493658-8.791415 3.69639 0.699317 5.894244-0.999024 4.795317-7.692488 0.79922-3.596488-0.699317-3.596488-4.49561-0.199805-5.394732 2.197854-7.992195 1.698341-9.390829 0 0.599415-2.697366 1.798244-5.095024 6.793366-5.194926 2.697366-0.79922 5.394732-1.498537 8.192-2.297757 1.098927-3.69639 1.798244-6.793366-1.198829-5.494634-1.698341 0.599415-3.29678 1.098927-4.995122 1.698342 0-2.797268-0.599415-3.69639-3.696391-2.497561-3.896195 8.192-8.891317 11.588683-13.187121 9.690536-1.598439-2.297756-2.797268-4.395707-1.19883-6.593561z m47.553561-25.175414c6.993171-1.098927 12.088195-3.796293 14.485854-8.791415 1.998049-2.997073 4.795317-0.599415 7.692488 3.496585 0.79922 1.498537 0.099902 4.096-0.899122 6.893269-4.195902 6.493659-7.093073 13.686634-8.891317 21.479024-0.699317 3.29678-3.996098 3.896195-9.590634 2.297756 0.099902 3.096976 0.199805 6.094049 0.299707 9.191025 6.193951-6.493659 12.088195-12.68761 14.685658-13.386927 13.586732-1.698341-0.099902 13.486829-2.597463 17.482927-0.699317 1.698341 2.597463 1.498537 6.293854 0.999024 9.990244 0.199805 19.980488 4.995122 17.782634 11.089171-1.098927 2.997073-7.292878 2.497561-10.489756-0.299708-5.095024-1.398634-10.190049-2.797268-15.384976-4.195902-4.49561 6.693463-8.192 17.682732-14.286049 15.085268-4.89522-2.197854-1.398634-11.588683-1.398634-18.182244-0.899122-0.599415-2.197854-0.599415-2.597463-1.698341 0.099902-1.698341 1.598439-2.197854 2.997073-3.096976-0.199805-13.486829 1.698341-30.270439-1.198829-33.267512 5.394732-1.698341 6.993171 2.297756 6.094048 10.190049 1.198829-0.899122 3.096976-1.498537 2.797269-3.596488-0.199805-0.999024-0.899122-0.899122-1.598439-1.698341 3.396683-1.298732 4.695415-1.698341 5.694439-0.699317 0.39961-2.697366 0.39961-4.395707-0.699317-3.996098-4.995122 0.79922-7.39278-1.998049-9.191025-5.294829z m7.692488 14.385951c-1.598439-0.599415-3.396683 1.198829-4.995122 2.597463v4.096c1.398634-0.099902 3.596488 0.099902 4.195903-0.199804 3.096976-1.398634 2.497561-5.894244 0.799219-6.493659z m-4.195902 29.970732c-1.098927 2.797268-0.899122 4.89522-0.39961 6.693463 1.798244-1.798244 2.897171-3.69639 3.396683-5.894244-0.899122-0.899122-1.898146-1.098927-2.997073-0.799219z m-0.999025-5.794342c-0.499512 0.599415 0.499512 1.198829 2.997073 1.798244 3.69639 0.499512 5.794341-1.898146 7.392781-8.291902 0.699317-2.597463-2.297756-0.199805-10.389854 6.493658z m61.240195-53.947317c4.49561 1.698341 8.691512 10.989268 7.892293 14.585756-0.699317 3.096976-8.691512 11.788488-12.787512 15.584781 2.897171 0.599415 5.694439 1.198829 8.59161 1.798244 8.092098 2.697366 2.097951 9.390829-3.096976 15.784585-3.396683 2.897171-1.598439 5.694439 1.598439 8.491707-1.398634 0.39961-1.898146 1.598439-0.599415 4.695415-0.999024 0.79922-1.098927 1.698341 0.39961 2.997073-0.599415 1.598439-1.198829 3.096976-1.798244 4.695415-3.896195 5.494634-5.694439-0.499512-6.893268-9.690537-4.795317 11.88839-8.291902 13.686634-11.189073 11.788488 0.099902-4.096-1.398634-8.691512 0.39961-12.387902 1.798244-3.796293 7.892293-8.99122 10.190048-14.985366-3.29678 0.39961-6.493659 0.79922-9.790439 1.198829-0.699317-5.794341-1.598439-11.788488 1.798244-14.585756 0.79922-0.299707 1.598439-0.499512 2.397659-0.79922 9.990244-9.890341 17.18322-19.68078 12.887414-29.171512z m22.977561 9.590634c0.499512-1.798244 1.798244-3.496585 8.491708-4.495609 1.098927-3.196878 2.897171-3.796293 5.394731-1.898147 13.187122 0.999024 11.48878 5.394732 7.592586 10.289951-11.189073 5.594537-16.583805 11.588683-20.48 17.682732 6.693463-1.798244 13.386927-3.596488 20.180292-5.394732 6.693463-1.798244 10.789463 0.899122 13.886439 4.995122 2.897171 6.193951-3.896195 5.694439-11.988292 4.295805-2.697366 2.497561-5.394732 5.095024-8.192 7.592586 4.395707 12.887415 12.188098 25.774829 0.299707 38.762146-9.790439 5.694439-14.785561 2.097951-20.48-0.199805 3.596488-0.999024 7.093073-1.498537 11.988293-5.894244 12.787512-13.986341 9.091122-21.678829 0.699317-27.573073 2.097951-0.999024 1.598439-1.698341 2.997073-1.698341 1.098927-1.398634 1.298732-2.697366-0.499512-3.496586 2.097951-2.097951 1.198829-3.096976 0.999024-3.796293l-14.785561 7.592586c-5.594537 2.097951-8.99122-0.39961-8.491707-11.488781 0.699317-1.598439 1.398634-3.096976 2.097951-4.695414 5.494634 0 11.988293-4.595512 20.180293-16.983415-3.69639-2.397659-7.192976-3.896195-9.890342-3.596488z m-733.983219 1.598439c1.598439 2.797268 2.097951 7.492683 2.497561 12.387903 0.699317 6.693463-0.599415 8.192-2.797269 7.39278-2.797268-1.598439-4.595512-3.996098-2.197853-8.991219-0.199805-10.090146 0.999024-11.48878 2.497561-10.789464z m-90.611512 110.192391c0.299707-0.199805 0.599415-0.39961 0.999024-0.39961 0.699317 0 1.198829 0.39961 1.498537 1.298732 0.299707 0.899122 0.699317 1.298732 1.098926 1.298731 0.39961 0 0.699317-0.199805 0.79922-0.499512 0.199805-0.39961 0.199805-0.999024 0.199805-1.898146v-14.186147c0-1.198829-0.199805-1.898146-0.599415-2.197853-0.39961-0.299707-1.098927-0.499512-2.297756-0.599415v-0.599415h8.891317v0.599415c-1.198829 0.099902-1.998049 0.299707-2.297756 0.699317-0.39961 0.39961-0.499512 1.098927-0.499512 2.197854v11.48878c0 2.097951-0.499512 3.69639-1.498537 4.695415s-2.197854 1.498537-3.69639 1.498536c-0.999024 0-1.698341-0.199805-2.297756-0.699317-0.499512-0.499512-0.79922-0.999024-0.79922-1.498536 0-0.599415 0.199805-0.999024 0.499513-1.198829z m11.688585 2.297756c1.198829-0.099902 1.998049-0.299707 2.397659-0.599415 0.39961-0.299707 0.499512-0.999024 0.499512-2.197854v-13.886439c0-1.098927-0.199805-1.898146-0.499512-2.197853-0.39961-0.299707-1.198829-0.499512-2.397659-0.599415v-0.599415h8.991219v0.599415c-1.198829 0.099902-1.998049 0.299707-2.397658 0.599415-0.39961 0.299707-0.499512 1.098927-0.499512 2.197853v13.886439c0 1.198829 0.199805 1.898146 0.499512 2.197854 0.39961 0.299707 1.198829 0.499512 2.397658 0.599415v0.599414h-8.991219v-0.599414z m23.477073-7.492683l-3.596488-8.691512-3.596487 8.691512h7.192975z m-13.486829 8.092097v-0.599414c0.79922-0.099902 1.398634-0.39961 1.798244-0.899122 0.39961-0.499512 1.098927-1.898146 2.097951-4.195903l6.493659-15.384975h0.599414l7.79239 17.782634c0.499512 1.198829 0.899122 1.898146 1.19883 2.197853 0.299707 0.299707 0.79922 0.499512 1.598439 0.599415v0.599415h-7.992195v-0.599415c0.899122-0.099902 1.498537-0.199805 1.798243-0.299707 0.299707-0.099902 0.39961-0.39961 0.39961-0.899122 0-0.199805-0.099902-0.39961-0.199805-0.79922s-0.199805-0.79922-0.399609-1.198829l-1.298732-2.997073H190.314146c-0.79922 2.097951-1.298732 3.29678-1.498536 3.796293-0.199805 0.499512-0.199805 0.79922-0.199805 1.098926 0 0.499512 0.199805 0.899122 0.599415 1.098927 0.299707 0.099902 0.79922 0.199805 1.498536 0.299708v0.599414h-6.193951z m22.777756-0.499512c1.298732-0.099902 2.097951-0.39961 2.497561-0.899122 0.39961-0.499512 0.499512-1.498537 0.499512-3.196878v-13.786536l-0.39961-0.499513c-0.499512-0.499512-0.79922-0.899122-1.198829-0.999024-0.299707-0.099902-0.79922-0.199805-1.398634-0.199805v-0.599415h5.294829l11.988293 14.985366v-10.389853c0-1.698341-0.299707-2.797268-0.79922-3.396683-0.299707-0.299707-1.098927-0.599415-2.197853-0.699317v-0.599415h7.292878v0.599415c-1.198829 0.099902-1.998049 0.39961-2.397659 0.899122s-0.599415 1.498537-0.599414 3.196878v16.483902h-0.499513L211.693268 559.453659v12.188097c0 1.698341 0.199805 2.797268 0.699317 3.396683 0.299707 0.299707 1.098927 0.599415 2.197854 0.699317v0.599415H207.297561v-0.599415z m37.063805-20.180293c1.198829 0.299707 1.798244 0.499512 1.998049 0.499513 0.39961 0 0.79922-0.099902 0.999024-0.299708 0.199805-0.199805 0.299707-0.39961 0.499512-0.799219h0.699317l0.199805 6.593561h-0.699317c-0.599415-1.498537-1.298732-2.697366-1.998049-3.396683-1.198829-1.298732-2.797268-1.998049-4.795317-1.998049s-3.796293 0.79922-5.294829 2.297756c-1.498537 1.498537-2.297756 4.096-2.297756 7.592586 0 2.897171 0.79922 5.194927 2.297756 6.793365 1.498537 1.598439 3.396683 2.397659 5.594537 2.397659 0.39961 0 0.79922 0 1.298731-0.099903s0.999024-0.199805 1.398634-0.299707c0.699317-0.199805 1.198829-0.499512 1.398635-0.599414 0.199805-0.199805 0.299707-0.39961 0.299707-0.79922v-4.995122c0-1.198829-0.199805-1.998049-0.499512-2.297756-0.299707-0.299707-1.098927-0.499512-2.197854-0.599415v-0.599414h7.892293v0.599414c-0.79922 0.099902-1.298732 0.199805-1.498537 0.39961-0.39961 0.299707-0.599415 0.999024-0.599415 1.998049v6.193951c0 0.39961-0.899122 0.899122-2.697365 1.498537-1.798244 0.599415-3.496585 0.899122-5.194927 0.899122-2.997073 0-5.594537-0.899122-7.692488-2.697366-2.297756-1.998049-3.496585-4.595512-3.496585-7.992195 0-2.897171 0.899122-5.494634 2.797268-7.592586 1.998049-2.297756 4.695415-3.496585 7.992195-3.496585 1.198829 0.299707 2.397659 0.499512 3.596488 0.799219z m9.091122 14.385952c0.499512 1.398634 1.098927 2.497561 1.798244 3.396683 1.198829 1.498537 2.697366 2.197854 4.495609 2.197853 0.999024 0 1.798244-0.299707 2.497561-0.999024 0.699317-0.599415 1.098927-1.498537 1.098927-2.697366 0-0.999024-0.39961-1.898146-1.098927-2.697366-0.499512-0.499512-1.498537-1.198829-2.997073-2.197854l-2.597463-1.698341c-0.79922-0.499512-1.398634-0.999024-1.898146-1.598439-0.899122-0.999024-1.298732-2.097951-1.298732-3.296781 0-1.598439 0.499512-2.897171 1.498536-3.996097s2.397659-1.598439 4.096-1.598439c0.699317 0 1.498537 0.199805 2.497561 0.499512 0.999024 0.39961 1.498537 0.499512 1.698342 0.499512 0.39961 0 0.599415-0.099902 0.799219-0.299707 0.099902-0.199805 0.299707-0.39961 0.299708-0.79922h0.599414l0.699317 6.693464h-0.699317c-0.499512-1.998049-1.298732-3.396683-2.397658-4.195903-1.098927-0.79922-2.197854-1.198829-3.296781-1.198829-0.79922 0-1.598439 0.299707-2.197853 0.79922s-0.899122 1.198829-0.899122 2.097951c0 0.79922 0.199805 1.498537 0.699317 2.097951 0.499512 0.599415 1.198829 1.198829 2.197853 1.798244l2.697366 1.698341c1.698341 1.098927 2.897171 1.998049 3.596488 2.897171 0.699317 0.899122 0.999024 1.998049 0.999024 3.196878 0 1.698341-0.599415 2.997073-1.798243 4.096-1.198829 1.098927-2.797268 1.698341-4.595513 1.698342-0.899122 0-1.898146-0.199805-2.997073-0.599415-0.999024-0.39961-1.598439-0.599415-1.798244-0.599415-0.39961 0-0.599415 0.099902-0.699317 0.299708-0.099902 0.199805-0.199805 0.499512-0.199805 0.699317h-0.699317l-0.899122-6.693464h0.79922z m24.576-14.385952v0.599415c-1.198829 0.099902-1.998049 0.299707-2.297756 0.599415-0.39961 0.299707-0.499512 1.098927-0.499512 2.197853v9.990244c0 1.598439 0.199805 2.897171 0.699317 3.796293 0.79922 1.698341 2.397659 2.497561 4.795317 2.497561 2.597463 0 4.295805-0.899122 5.194926-2.597464 0.499512-0.999024 0.699317-2.397659 0.699318-4.395707v-8.192c0-1.698341-0.199805-2.797268-0.599415-3.196878-0.39961-0.39961-1.198829-0.699317-2.297756-0.799219v-0.599415h7.292878v0.599415c-1.198829 0.099902-1.998049 0.39961-2.397659 0.899122-0.39961 0.499512-0.599415 1.498537-0.599414 3.096975v8.192c0 2.197854-0.299707 3.796293-0.999025 5.095025-1.198829 2.197854-3.596488 3.29678-6.99317 3.29678s-5.694439-1.098927-6.893269-3.29678c-0.699317-1.198829-0.999024-2.697366-0.999024-4.695415v-9.790439c0-1.098927-0.199805-1.898146-0.499512-2.197854-0.39961-0.299707-1.098927-0.499512-2.297756-0.599414v-0.599415h8.691512z m53.248 0v0.599415c-0.699317 0-1.298732 0-1.598439 0.199805-0.39961 0.099902-0.499512 0.39961-0.499512 0.899122 0 0.099902 0 0.299707 0.099902 0.499512s0.199805 0.499512 0.39961 0.79922l4.595512 6.693463 4.49561-6.793366c0.199805-0.299707 0.299707-0.499512 0.399609-0.699317 0.099902-0.199805 0.099902-0.299707 0.099903-0.39961 0-0.39961-0.199805-0.699317-0.699317-0.899122-0.299707-0.099902-0.79922-0.099902-1.498537-0.199805v-0.599414h6.793366v0.599414c-0.599415 0-1.198829 0.199805-1.698341 0.599415-0.79922 0.499512-1.598439 1.498537-2.597464 2.997073l-4.595512 6.993171v6.094049c0 1.198829 0.199805 1.998049 0.599415 2.297756 0.39961 0.299707 1.298732 0.499512 2.597463 0.599415v0.599414h-9.490732v-0.599414c1.398634-0.099902 2.297756-0.299707 2.597464-0.599415 0.299707-0.299707 0.499512-1.198829 0.499512-2.497561v-5.394732l-4.096-5.994146c-1.398634-2.097951-2.397659-3.396683-2.997073-3.996098-0.599415-0.599415-1.298732-0.899122-2.097951-0.899122v-0.599414h8.691512z m23.77678 12.587708l-3.596488-8.691512-3.596487 8.691512h7.192975z m-13.486829 8.092097v-0.599414c0.79922-0.099902 1.398634-0.39961 1.798244-0.899122 0.39961-0.499512 1.098927-1.898146 2.097951-4.195903l6.493659-15.384975h0.599414l7.792391 17.782634c0.499512 1.198829 0.899122 1.898146 1.198829 2.197853 0.299707 0.299707 0.79922 0.499512 1.598439 0.599415v0.599415h-7.992195v-0.599415c0.899122-0.099902 1.498537-0.199805 1.798244-0.299707 0.299707-0.099902 0.39961-0.39961 0.399609-0.899122 0-0.199805-0.099902-0.39961-0.199804-0.79922s-0.199805-0.79922-0.39961-1.198829l-1.298732-2.997073H347.160976c-0.79922 2.097951-1.298732 3.29678-1.498537 3.796293-0.199805 0.499512-0.199805 0.79922-0.199805 1.098926 0 0.499512 0.199805 0.899122 0.599415 1.098927 0.299707 0.099902 0.79922 0.199805 1.498536 0.299708v0.599414h-5.994146z m22.178341-0.499512c1.298732-0.099902 2.097951-0.39961 2.497561-0.899122 0.39961-0.499512 0.499512-1.498537 0.499513-3.196878v-13.786536l-0.39961-0.499513c-0.499512-0.499512-0.79922-0.899122-1.198829-0.999024-0.299707-0.099902-0.79922-0.199805-1.398635-0.199805v-0.599415h5.29483l11.988292 14.985366v-10.389853c0-1.698341-0.299707-2.797268-0.799219-3.396683-0.299707-0.299707-1.098927-0.599415-2.197854-0.699317v-0.599415h7.292878v0.599415c-1.198829 0.099902-1.998049 0.39961-2.397658 0.899122-0.39961 0.499512-0.599415 1.498537-0.599415 3.196878v16.483902h-0.499512L368.140488 559.453659v12.188097c0 1.698341 0.199805 2.797268 0.699317 3.396683 0.299707 0.299707 1.098927 0.599415 2.197854 0.699317v0.599415h-7.292879v-0.599415z m37.063805-20.180293c1.198829 0.299707 1.798244 0.499512 1.998049 0.499513 0.39961 0 0.79922-0.099902 0.999025-0.299708 0.199805-0.199805 0.299707-0.39961 0.499512-0.799219h0.699317l0.199805 6.593561h-0.699317c-0.599415-1.498537-1.298732-2.697366-1.998049-3.396683-1.198829-1.298732-2.797268-1.998049-4.795317-1.998049s-3.796293 0.79922-5.29483 2.297756c-1.498537 1.498537-2.297756 4.096-2.297756 7.592586 0 2.897171 0.79922 5.194927 2.297756 6.793365 1.498537 1.598439 3.396683 2.397659 5.594537 2.397659 0.39961 0 0.79922 0 1.298732-0.099903s0.999024-0.199805 1.398634-0.299707c0.699317-0.199805 1.198829-0.499512 1.398634-0.599414 0.199805-0.199805 0.299707-0.39961 0.299707-0.79922v-4.995122c0-1.198829-0.199805-1.998049-0.499512-2.297756-0.299707-0.299707-1.098927-0.499512-2.197853-0.599415v-0.599414h7.892292v0.599414c-0.79922 0.099902-1.298732 0.199805-1.498536 0.39961-0.39961 0.299707-0.599415 0.999024-0.599415 1.998049v6.193951c0 0.39961-0.899122 0.899122-2.697366 1.498537-1.798244 0.599415-3.496585 0.899122-5.194927 0.899122-2.997073 0-5.594537-0.899122-7.692487-2.697366-2.297756-1.998049-3.496585-4.595512-3.496586-7.992195 0-2.897171 0.899122-5.494634 2.797268-7.592586 1.998049-2.297756 4.695415-3.496585 7.992196-3.496585 1.298732 0.299707 2.497561 0.499512 3.596487 0.799219z m7.392781 20.280196l13.786536-19.081366h-7.192975c-1.798244 0-3.096976 0.499512-3.896195 1.398634-0.499512 0.499512-0.79922 1.498537-1.098927 2.797268h-0.79922l0.599415-5.294829H426.083902v0.39961l-13.786536 19.081365h8.092097c1.798244 0 3.196878-0.39961 3.996098-1.298731 0.499512-0.499512 0.999024-1.498537 1.398634-2.997073h0.699317l-0.799219 5.494634h-17.682732v-0.499512z m19.580878-0.199805c1.198829-0.099902 1.998049-0.39961 2.297756-0.699317 0.299707-0.299707 0.499512-1.098927 0.499512-2.497561v-13.48683c0-1.098927-0.199805-1.798244-0.499512-2.197853-0.299707-0.299707-1.098927-0.499512-2.197854-0.599415v-0.599415h8.59161v0.599415c-1.098927 0.099902-1.898146 0.299707-2.197854 0.599415-0.299707 0.299707-0.499512 1.098927-0.499512 2.197853v6.094049h9.39083v-6.094049c0-1.098927-0.199805-1.798244-0.499513-2.197853-0.299707-0.299707-1.098927-0.499512-2.197853-0.599415v-0.599415h8.591609v0.599415c-1.098927 0.099902-1.898146 0.299707-2.197853 0.599415-0.299707 0.299707-0.499512 1.098927-0.499512 2.197853v13.886439c0 1.098927 0.199805 1.898146 0.499512 2.197854 0.299707 0.299707 1.098927 0.499512 2.197853 0.599415v0.599414h-8.591609v-0.599414c1.198829-0.099902 1.998049-0.299707 2.297756-0.699317 0.299707-0.299707 0.39961-1.198829 0.39961-2.497561v-6.094049h-9.39083v6.393756c0 1.098927 0.199805 1.898146 0.499512 2.197854 0.299707 0.299707 1.098927 0.499512 2.197854 0.599414v0.599415h-8.59161v-0.499512z m28.072585-2.397659c1.298732 1.598439 2.797268 2.397659 4.695415 2.397659 1.798244 0 3.396683-0.79922 4.595512-2.297756 1.298732-1.498537 1.898146-3.996098 1.898146-7.392781 0-3.396683-0.699317-5.894244-1.998048-7.39278s-2.797268-2.297756-4.595513-2.297757c-1.798244 0-3.396683 0.79922-4.695414 2.397659-1.298732 1.598439-1.898146 3.996098-1.898147 7.292878 0.099902 3.29678 0.699317 5.694439 1.998049 7.292878z m-2.297756-15.384975c1.898146-1.898146 4.195902-2.797268 6.993171-2.797269s5.095024 0.899122 6.993171 2.797269c1.998049 1.998049 3.096976 4.695415 3.096975 8.092097 0 3.396683-1.098927 6.094049-3.196878 8.092098-1.898146 1.798244-4.195902 2.697366-6.893268 2.697365-2.897171 0-5.294829-0.999024-7.192976-2.997073-1.898146-1.998049-2.897171-4.695415-2.89717-7.79239 0-3.396683 0.999024-6.094049 3.096975-8.092097z m27.473171-2.297757v0.599415c-1.198829 0.099902-1.998049 0.299707-2.297756 0.599415-0.39961 0.299707-0.499512 1.098927-0.499512 2.197853v9.990244c0 1.598439 0.199805 2.897171 0.699317 3.796293 0.79922 1.698341 2.397659 2.497561 4.795317 2.497561 2.597463 0 4.295805-0.899122 5.194927-2.597464 0.499512-0.999024 0.699317-2.397659 0.699317-4.395707v-8.192c0-1.698341-0.199805-2.797268-0.599415-3.196878-0.39961-0.39961-1.198829-0.699317-2.297756-0.799219v-0.599415h7.292878v0.599415c-1.198829 0.099902-1.998049 0.39961-2.397659 0.899122-0.39961 0.499512-0.599415 1.498537-0.599414 3.096975v8.192c0 2.197854-0.299707 3.796293-0.999025 5.095025-1.198829 2.197854-3.596488 3.29678-6.99317 3.29678s-5.694439-1.098927-6.893269-3.29678c-0.699317-1.198829-0.999024-2.697366-0.999024-4.695415v-9.790439c0-1.098927-0.199805-1.898146-0.499512-2.197854-0.39961-0.299707-1.098927-0.499512-2.297756-0.599414v-0.599415h8.691512z m68.932683 9.290927c1.698341-0.699317 2.497561-1.998049 2.497561-3.796292 0-1.798244-0.699317-2.997073-2.197854-3.696391-0.79922-0.39961-1.798244-0.499512-3.196878-0.499512-0.899122 0-1.398634 0.099902-1.598439 0.199805-0.199805 0.099902-0.299707 0.39961-0.299707 0.899122v7.692488c2.197854-0.199805 3.796293-0.499512 4.795317-0.79922z m-10.689561 10.789464c1.198829-0.099902 1.998049-0.299707 2.197854-0.699317 0.299707-0.39961 0.39961-1.198829 0.399609-2.497561v-13.48683c0-1.098927-0.199805-1.798244-0.499512-2.197853-0.299707-0.299707-1.098927-0.599415-2.197854-0.599415v-0.599415h8.691513c1.798244 0 3.29678 0.199805 4.495609 0.699317 2.297756 0.899122 3.396683 2.397659 3.396683 4.795318 0 1.598439-0.499512 2.697366-1.498536 3.596487-0.999024 0.79922-2.397659 1.398634-4.096 1.598439l6.393756 7.892293c0.39961 0.499512 0.79922 0.79922 1.198829 1.098927 0.39961 0.199805 0.899122 0.39961 1.498537 0.39961v0.599414h-4.995122l-7.792391-9.590634-1.398634 0.099903v6.094048c0 1.198829 0.199805 1.898146 0.499513 2.197854 0.39961 0.299707 1.098927 0.499512 2.297756 0.599415v0.599414h-8.691513v-0.599414z m29.571122-20.080391v0.599415c-1.198829 0.099902-1.998049 0.299707-2.297756 0.599415-0.39961 0.299707-0.499512 1.098927-0.499512 2.197853v9.990244c0 1.598439 0.199805 2.897171 0.699317 3.796293 0.79922 1.698341 2.397659 2.497561 4.795317 2.497561 2.597463 0 4.295805-0.899122 5.194926-2.597464 0.499512-0.999024 0.699317-2.397659 0.699318-4.395707v-8.192c0-1.698341-0.199805-2.797268-0.599415-3.196878-0.39961-0.39961-1.198829-0.699317-2.297756-0.799219v-0.599415h7.292878v0.599415c-1.198829 0.099902-1.998049 0.39961-2.397659 0.899122-0.39961 0.499512-0.599415 1.498537-0.599414 3.096975v8.192c0 2.197854-0.299707 3.796293-0.999025 5.095025-1.198829 2.197854-3.596488 3.29678-6.99317 3.29678s-5.694439-1.098927-6.893269-3.29678c-0.699317-1.198829-0.999024-2.697366-0.999024-4.695415v-9.790439c0-1.098927-0.199805-1.898146-0.499512-2.197854-0.39961-0.299707-1.098927-0.499512-2.297756-0.599414v-0.599415h8.691512z m23.976585 9.290927c1.698341-0.699317 2.497561-1.998049 2.497561-3.796292 0-1.798244-0.699317-2.997073-2.197854-3.696391-0.79922-0.39961-1.798244-0.499512-3.196878-0.499512-0.899122 0-1.398634 0.099902-1.598439 0.199805-0.199805 0.099902-0.299707 0.39961-0.299707 0.899122v7.692488c2.197854-0.199805 3.796293-0.499512 4.795317-0.79922z m-10.689561 10.789464c1.198829-0.099902 1.998049-0.299707 2.197854-0.699317 0.299707-0.39961 0.39961-1.198829 0.39961-2.497561v-13.48683c0-1.098927-0.199805-1.798244-0.499513-2.197853s-1.098927-0.599415-2.197853-0.599415v-0.599415h8.691512c1.798244 0 3.29678 0.199805 4.49561 0.699317 2.297756 0.899122 3.396683 2.397659 3.396683 4.795318 0 1.598439-0.499512 2.697366-1.498537 3.596487-0.999024 0.79922-2.397659 1.398634-4.096 1.598439l6.393756 7.892293c0.39961 0.499512 0.79922 0.79922 1.198829 1.098927 0.39961 0.199805 0.899122 0.39961 1.498537 0.39961v0.599414h-4.995122l-7.79239-9.590634-1.398634 0.099903v6.094048c0 1.198829 0.199805 1.898146 0.499512 2.197854 0.39961 0.299707 1.098927 0.499512 2.297756 0.599415v0.599414h-8.691512v-0.599414z m34.066732-7.492683l-3.596488-8.691512-3.596488 8.691512h7.192976z m-13.486829 8.092097v-0.599414c0.79922-0.099902 1.398634-0.39961 1.798244-0.899122 0.39961-0.499512 1.098927-1.898146 2.097951-4.195903l6.493658-15.384975h0.599415l7.79239 17.782634c0.499512 1.198829 0.899122 1.898146 1.198829 2.197853 0.299707 0.299707 0.79922 0.499512 1.598439 0.599415v0.599415h-7.992195v-0.599415c0.899122-0.099902 1.498537-0.199805 1.798244-0.299707 0.299707-0.099902 0.39961-0.39961 0.39961-0.899122 0-0.199805-0.099902-0.39961-0.199805-0.79922s-0.199805-0.79922-0.39961-1.198829l-1.298731-2.997073h-8.291903c-0.79922 2.097951-1.298732 3.29678-1.498536 3.796293-0.199805 0.499512-0.199805 0.79922-0.199805 1.098926 0 0.499512 0.199805 0.899122 0.599414 1.098927 0.299707 0.099902 0.79922 0.199805 1.498537 0.299708v0.599414h-5.994146z m22.777756-0.599414c1.098927-0.099902 1.898146-0.299707 2.197853-0.599415 0.299707-0.299707 0.499512-0.999024 0.499513-2.197854v-13.886439c0-1.098927-0.199805-1.798244-0.499513-2.197853-0.299707-0.299707-1.098927-0.599415-2.197853-0.599415v-0.599415h8.691512v0.599415c-1.098927 0.099902-1.898146 0.199805-2.297756 0.599415-0.39961 0.299707-0.599415 0.999024-0.599415 1.998048v14.985366c0 0.299707 0.099902 0.599415 0.199805 0.79922 0.099902 0.199805 0.39961 0.299707 0.79922 0.39961 0.199805 0 0.499512 0.099902 0.699317 0.099902h1.398634c2.697366 0 4.595512-0.199805 5.494634-0.699317 0.999024-0.499512 1.898146-1.598439 2.797268-3.496585h0.79922l-1.498537 5.394731h-16.483902v-0.599414z m61.340097-20.080391c1.198829 0.299707 1.898146 0.499512 1.998049 0.499513 0.299707 0 0.599415-0.099902 0.79922-0.199805 0.299707-0.199805 0.39961-0.39961 0.599414-0.79922h0.699317l0.299708 7.093073h-0.699317c-0.39961-1.398634-0.999024-2.497561-1.598439-3.396683-1.298732-1.598439-2.997073-2.397659-5.194927-2.397658s-3.996098 0.899122-5.394732 2.597463c-1.398634 1.698341-2.097951 4.096-2.097951 7.192976 0 2.797268 0.699317 4.995122 2.197853 6.693463 1.498537 1.698341 3.29678 2.497561 5.594537 2.497561 1.598439 0 3.096976-0.39961 4.49561-1.198829 0.79922-0.39961 1.598439-1.098927 2.597463-1.998049l0.599415 0.599415c-0.699317 0.899122-1.598439 1.698341-2.597464 2.297756-1.798244 1.098927-3.69639 1.698341-5.694439 1.698341-3.396683 0-5.994146-1.098927-7.992195-3.196878-1.798244-1.998049-2.697366-4.49561-2.697366-7.492682 0-3.096976 0.999024-5.594537 2.897171-7.692488 1.998049-2.197854 4.695415-3.29678 7.892293-3.296781 0.899122 0 2.097951 0.199805 3.29678 0.499512z m12.188098 17.682732c1.298732 1.598439 2.797268 2.397659 4.695414 2.397659 1.798244 0 3.396683-0.79922 4.595513-2.297756 1.298732-1.498537 1.898146-3.996098 1.898146-7.392781 0-3.396683-0.699317-5.894244-1.998049-7.39278s-2.797268-2.297756-4.595512-2.297757c-1.798244 0-3.396683 0.79922-4.695415 2.397659-1.298732 1.598439-1.898146 3.996098-1.898146 7.292878 0.099902 3.29678 0.79922 5.694439 1.998049 7.292878z m-2.297756-15.384975c1.898146-1.898146 4.195902-2.797268 6.99317-2.797269s5.095024 0.899122 6.993171 2.797269c1.998049 1.998049 3.096976 4.695415 3.096976 8.092097 0 3.396683-1.098927 6.094049-3.196878 8.092098-1.898146 1.798244-4.195902 2.697366-6.893269 2.697365-2.897171 0-5.294829-0.999024-7.192975-2.997073-1.898146-1.998049-2.897171-4.695415-2.897171-7.79239 0-3.396683 1.098927-6.094049 3.096976-8.092097z m18.581853 17.782634c1.298732-0.099902 2.097951-0.39961 2.497561-0.899122 0.39961-0.499512 0.499512-1.498537 0.499513-3.096976v-12.68761c0-1.098927-0.199805-1.898146-0.499513-2.197853-0.39961-0.299707-1.198829-0.499512-2.397658-0.599415v-0.599415h6.094049l7.093073 15.484878 6.993171-15.484878h6.193951v0.599415c-1.198829 0.099902-1.898146 0.299707-2.197854 0.599415-0.299707 0.299707-0.499512 1.098927-0.499512 2.197853v13.886439c0 1.098927 0.199805 1.898146 0.499512 2.197854 0.299707 0.299707 1.098927 0.499512 2.197854 0.599415v0.599414h-8.691512v-0.599414c1.298732-0.099902 1.998049-0.299707 2.297756-0.699317s0.499512-1.198829 0.499512-2.497561v-13.986342l-7.992195 17.782634h-0.39961l-7.79239-16.983414v12.387902c0 1.698341 0.199805 2.797268 0.699317 3.296781 0.299707 0.299707 0.999024 0.599415 2.197853 0.699317v0.599414h-7.292878v-0.599414z m27.573074 0c1.298732-0.099902 2.097951-0.39961 2.497561-0.899122 0.39961-0.499512 0.499512-1.498537 0.499512-3.096976v-12.68761c0-1.098927-0.199805-1.898146-0.499512-2.197853-0.39961-0.299707-1.198829-0.499512-2.397659-0.599415v-0.599415h6.094049l7.093073 15.484878 6.993171-15.484878h6.193951v0.599415c-1.198829 0.099902-1.898146 0.299707-2.197854 0.599415-0.299707 0.299707-0.499512 1.098927-0.499512 2.197853v13.886439c0 1.098927 0.199805 1.898146 0.499512 2.197854 0.299707 0.299707 1.098927 0.499512 2.197854 0.599415v0.599414h-8.691512v-0.599414c1.298732-0.099902 1.998049-0.299707 2.297756-0.699317s0.499512-1.198829 0.499512-2.497561v-13.986342l-7.992195 17.782634h-0.39961l-7.79239-16.983414v12.387902c0 1.698341 0.199805 2.797268 0.699317 3.296781 0.299707 0.299707 0.999024 0.599415 2.197854 0.699317v0.599414h-7.292878v-0.599414z m27.47317 0c1.098927-0.099902 1.898146-0.299707 2.197854-0.599415 0.299707-0.299707 0.499512-0.999024 0.499512-2.197854v-13.886439c0-1.098927-0.199805-1.798244-0.499512-2.197853-0.299707-0.299707-1.098927-0.599415-2.197854-0.599415v-0.599415h16.284098l0.099902 4.49561h-0.799219c-0.299707-1.398634-0.599415-2.297756-1.198829-2.697366s-1.698341-0.599415-3.496586-0.599414h-4.195902c-0.499512 0-0.699317 0.099902-0.79922 0.199805-0.099902 0.099902-0.199805 0.39961-0.199805 0.799219v6.993171h4.695415c1.298732 0 2.097951-0.199805 2.497561-0.599415 0.39961-0.39961 0.599415-1.198829 0.899122-2.397658h0.699317v7.192975h-0.699317c-0.199805-1.198829-0.499512-1.998049-0.899122-2.397658-0.39961-0.39961-1.198829-0.599415-2.497561-0.599415h-4.695415v7.692488c0 0.599415 0.199805 0.999024 0.599415 1.098927 0.39961 0.099902 1.498537 0.199805 3.496585 0.199805 2.097951 0 3.596488-0.199805 4.595513-0.699317 0.999024-0.499512 1.898146-1.598439 2.697365-3.396683h0.899122l-1.398634 5.294829h-16.583805v-0.499512z m29.671025-10.789464c1.698341-0.699317 2.497561-1.998049 2.497561-3.796292 0-1.798244-0.699317-2.997073-2.197854-3.696391-0.79922-0.39961-1.798244-0.499512-3.196878-0.499512-0.899122 0-1.398634 0.099902-1.598439 0.199805-0.199805 0.099902-0.299707 0.39961-0.299707 0.899122v7.692488c2.197854-0.199805 3.896195-0.499512 4.795317-0.79922z m-10.689561 10.789464c1.198829-0.099902 1.998049-0.299707 2.197853-0.699317 0.299707-0.39961 0.39961-1.198829 0.39961-2.497561v-13.48683c0-1.098927-0.199805-1.798244-0.499512-2.197853s-1.098927-0.599415-2.197854-0.599415v-0.599415h8.691512c1.798244 0 3.29678 0.199805 4.49561 0.699317 2.297756 0.899122 3.396683 2.397659 3.396683 4.795318 0 1.598439-0.499512 2.697366-1.498536 3.596487-0.999024 0.79922-2.397659 1.398634-4.096 1.598439l6.393756 7.892293c0.39961 0.499512 0.79922 0.79922 1.198829 1.098927 0.39961 0.199805 0.899122 0.39961 1.498537 0.39961v0.599414h-4.995122l-7.792391-9.590634-1.398634 0.099903v6.094048c0 1.198829 0.199805 1.898146 0.499512 2.197854 0.39961 0.299707 1.098927 0.499512 2.297756 0.599415v0.599414h-8.691512v-0.599414z m35.465366-20.080391c1.198829 0.299707 1.898146 0.499512 1.998048 0.499513 0.299707 0 0.599415-0.099902 0.79922-0.199805 0.299707-0.199805 0.39961-0.39961 0.599415-0.79922h0.699317l0.299707 7.093073h-0.699317c-0.39961-1.398634-0.999024-2.497561-1.598439-3.396683-1.298732-1.598439-2.997073-2.397659-5.194927-2.397658s-3.996098 0.899122-5.394732 2.597463c-1.398634 1.698341-2.097951 4.096-2.097951 7.192976 0 2.797268 0.699317 4.995122 2.197854 6.693463 1.498537 1.698341 3.29678 2.497561 5.594536 2.497561 1.598439 0 3.096976-0.39961 4.49561-1.198829 0.79922-0.39961 1.598439-1.098927 2.597463-1.998049l0.599415 0.599415c-0.699317 0.899122-1.598439 1.698341-2.597463 2.297756-1.798244 1.098927-3.69639 1.698341-5.694439 1.698341-3.396683 0-5.994146-1.098927-7.992195-3.196878-1.798244-1.998049-2.697366-4.49561-2.697366-7.492682 0-3.096976 0.999024-5.594537 2.89717-7.692488 1.998049-2.197854 4.695415-3.29678 7.892293-3.296781 0.899122 0 2.097951 0.199805 3.296781 0.499512z m6.293853 20.080391c1.198829-0.099902 1.998049-0.299707 2.397659-0.599415 0.39961-0.299707 0.499512-0.999024 0.499512-2.197854v-13.886439c0-1.098927-0.199805-1.898146-0.499512-2.197853-0.39961-0.299707-1.198829-0.499512-2.397659-0.599415v-0.599415h8.99122v0.599415c-1.198829 0.099902-1.998049 0.299707-2.397659 0.599415-0.39961 0.299707-0.499512 1.098927-0.499512 2.197853v13.886439c0 1.198829 0.199805 1.898146 0.499512 2.197854 0.39961 0.299707 1.198829 0.499512 2.397659 0.599415v0.599414h-8.99122v-0.599414z m23.576976-7.492683l-3.596488-8.691512-3.596488 8.691512h7.192976z m-13.486829 8.092097v-0.599414c0.79922-0.099902 1.398634-0.39961 1.798243-0.899122 0.39961-0.499512 1.098927-1.898146 2.097952-4.195903l6.493658-15.384975h0.599415l7.79239 17.782634c0.499512 1.198829 0.899122 1.898146 1.198829 2.197853 0.299707 0.299707 0.79922 0.499512 1.598439 0.599415v0.599415h-7.992195v-0.599415c0.899122-0.099902 1.498537-0.199805 1.798244-0.299707 0.299707-0.099902 0.39961-0.39961 0.39961-0.899122 0-0.199805-0.099902-0.39961-0.199805-0.79922s-0.199805-0.79922-0.39961-1.198829l-1.298731-2.997073h-8.291903c-0.79922 2.097951-1.298732 3.29678-1.498536 3.796293-0.199805 0.499512-0.199805 0.79922-0.199805 1.098926 0 0.499512 0.199805 0.899122 0.599414 1.098927 0.299707 0.099902 0.79922 0.199805 1.498537 0.299708v0.599414h-5.994146z m22.178341-0.599414c1.098927-0.099902 1.898146-0.299707 2.197854-0.599415 0.299707-0.299707 0.499512-0.999024 0.499512-2.197854v-13.886439c0-1.098927-0.199805-1.798244-0.499512-2.197853-0.299707-0.299707-1.098927-0.599415-2.197854-0.599415v-0.599415h8.691512v0.599415c-1.098927 0.099902-1.898146 0.199805-2.297756 0.599415-0.39961 0.299707-0.599415 0.999024-0.599414 1.998048v14.985366c0 0.299707 0.099902 0.599415 0.199804 0.79922 0.099902 0.199805 0.39961 0.299707 0.79922 0.39961 0.199805 0 0.499512 0.099902 0.699317 0.099902h1.398634c2.697366 0 4.595512-0.199805 5.494634-0.699317 0.999024-0.499512 1.898146-1.598439 2.797269-3.496585h0.799219l-1.498537 5.394731h-16.483902v-0.599414z m66.33522-13.287025c0 0.599415 0.099902 0.999024 0.199804 1.098927 0.099902 0.099902 0.39961 0.199805 0.999025 0.199805h0.499512c2.397659 0 3.996098-0.299707 5.095024-0.999024 0.999024-0.699317 1.498537-1.798244 1.498537-3.396683 0-1.498537-0.499512-2.597463-1.398634-3.296781-0.899122-0.699317-2.397659-0.999024-4.395707-0.999024-1.198829 0-1.898146 0.099902-2.097952 0.299707-0.199805 0.199805-0.39961 0.699317-0.399609 1.398634v5.694439z m0 10.389854c0 0.599415 0.099902 0.999024 0.399609 1.198829 0.299707 0.199805 0.999024 0.299707 2.097952 0.299708h0.699317c1.898146 0 3.29678-0.39961 4.295804-1.19883 0.999024-0.79922 1.498537-1.998049 1.498537-3.596488s-0.499512-2.797268-1.598439-3.596487c-1.098927-0.79922-2.697366-1.198829-4.795317-1.19883h-1.198829c-0.599415 0-0.999024 0.099902-1.098927 0.199805-0.099902 0.099902-0.199805 0.39961-0.199805 0.899122v6.993171z m-6.593561 2.897171v-0.699317c1.298732 0 2.097951-0.199805 2.497561-0.599415 0.39961-0.39961 0.599415-1.098927 0.599414-2.297756V557.45561c0-1.098927-0.199805-1.898146-0.599414-2.297756-0.39961-0.39961-1.298732-0.599415-2.497561-0.699317v-0.599415h10.289951c2.497561 0 4.49561 0.499512 5.894244 1.398634 1.398634 0.899122 2.097951 2.197854 2.097951 3.896195 0 1.098927-0.39961 2.097951-1.098927 2.997073-0.699317 0.899122-1.798244 1.498537-3.196878 1.898147 1.698341 0.299707 2.997073 0.999024 3.896195 1.898146 0.899122 0.899122 1.298732 2.097951 1.298732 3.496585 0 2.097951-0.79922 3.69639-2.297756 4.695415-1.598439 0.999024-3.996098 1.498537-7.192976 1.498537h-9.690536z m28.971707-8.491708h8.192l-3.996098-9.091122-4.195902 9.091122z m-7.093073 8.491708v-0.699317c0.699317 0 1.298732-0.199805 1.698341-0.599415 0.499512-0.39961 0.899122-1.098927 1.498537-2.197854l8.791414-18.681756h0.699317l8.59161 18.981464c0.199805 0.499512 0.39961 0.899122 0.599415 1.198829 0.199805 0.299707 0.39961 0.599415 0.699317 0.799219 0.199805 0.199805 0.499512 0.299707 0.699317 0.39961 0.299707 0.099902 0.599415 0.099902 0.999024 0.099903v0.599414h-8.991219v-0.699317c0.899122 0 1.498537-0.099902 1.898146-0.299707 0.299707-0.199805 0.499512-0.599415 0.499512-1.098927 0-0.199805 0-0.299707-0.099902-0.499512 0-0.199805-0.099902-0.299707-0.199805-0.499512l-1.798244-4.096h-8.991219l-1.498537 3.496585c-0.199805 0.39961-0.299707 0.699317-0.39961 0.999024-0.099902 0.299707-0.099902 0.499512-0.099902 0.699317 0 0.499512 0.199805 0.79922 0.599415 0.999025 0.39961 0.199805 0.999024 0.299707 1.798243 0.299707h0.199805v0.699317h-7.192975z m30.969756-3.696391c0 1.198829 0.199805 1.998049 0.599414 2.297757 0.39961 0.299707 1.198829 0.599415 2.497561 0.699317v0.699317h-7.79239v-0.699317c1.298732-0.099902 2.097951-0.299707 2.497561-0.699317 0.39961-0.299707 0.599415-1.098927 0.599415-2.297757v-15.18517c-0.39961-0.699317-0.899122-1.298732-1.398634-1.598439-0.499512-0.299707-1.098927-0.599415-1.798244-0.599415v-0.699317h5.594536l12.787513 15.484878V557.45561c0-1.198829-0.199805-1.998049-0.599415-2.297756-0.39961-0.299707-1.198829-0.599415-2.497561-0.599415v-0.699317h7.692488v0.699317c-1.298732 0.099902-2.097951 0.299707-2.497561 0.599415-0.39961 0.299707-0.599415 1.098927-0.599415 2.297756v18.082341h-0.699317l-14.585756-17.582829v13.986341z m20.979512 3.696391v-0.699317h0.299707c1.098927 0 1.798244-0.199805 2.197854-0.599415 0.39961-0.39961 0.599415-1.198829 0.599415-2.197854v-14.385951c0-1.298732-0.199805-2.097951-0.599415-2.497561-0.39961-0.39961-1.198829-0.599415-2.497561-0.699317v-0.699317h9.690537v0.599415c-1.198829 0-2.097951 0.299707-2.497561 0.699317-0.39961 0.39961-0.599415 1.298732-0.599415 2.497561v6.593561c0.199805 0 0.299707 0 0.499512-0.099903 0.099902-0.099902 0.299707-0.199805 0.599415-0.499512l5.394732-5.394732c0.599415-0.699317 1.098927-1.198829 1.498536-1.698341 0.299707-0.499512 0.499512-0.79922 0.499512-1.098927 0-0.299707-0.199805-0.599415-0.499512-0.699317-0.299707-0.199805-0.899122-0.299707-1.698341-0.299707v-0.599415h8.391805v0.599415c-0.999024 0-1.898146 0.199805-2.697366 0.699317-0.79922 0.39961-1.698341 1.098927-2.597464 2.097951l-5.794341 5.994146c5.394732-1.798244 6.493659 1.298732 8.791414 9.890342 0.299707 1.298732 3.496585 2.097951 4.195903 1.798244v0.699317c-5.794341 0-6.893268 0.099902-7.892293 0.099902-0.499512 0-0.199805-1.198829-0.599414-2.997073-1.498537-8.192-3.796293-10.190049-6.793366-6.993171v-0.099902c-0.299707-0.299707-0.599415-0.39961-0.899122-0.39961h-0.199805v6.993171c0 1.098927 0.199805 1.798244 0.599415 2.197853 0.39961 0.39961 1.198829 0.599415 2.397658 0.599415v0.699317h-9.790439z" fill="#1B1918"></path></svg>