<svg viewBox="0 0 1024 1024" version="1.1" xmlns="http://www.w3.org/2000/svg"><path d="M679.036878 453.956683c1.598439 2.797268 3.596488 4.595512 7.992195 5.594537 11.688585 9.590634-13.486829 5.494634-7.592585 16.284097-0.999024 12.987317 2.997073 27.073561 1.798244 40.96 2.097951 4.995122-3.69639 7.79239-8.59161 8.691512l-0.299707-0.299707c-2.197854 1.298732-7.892293-4.195902-7.992195-4.195902 0.39961-0.299707 0.499512-0.299707 0.899121 0 0.79922-0.39961-1.198829-3.69639 1.098927-2.297757-0.299707-3.196878-3.796293-4.795317-5.894244-8.092097 1.298732 0.099902 1.298732 2.297756 4.49561 2.297756-0.299707-0.899122-0.999024-2.597463 1.198829-1.198829 10.190049 6.693463 8.391805-7.692488 6.493659-14.286049-1.798244 0-3.596488-0.199805-5.394732 0.099902-0.299707-2.897171-4.096 0.899122-4.895219-0.299707 7.093073-8.99122-4.395707-3.096976-7.392781-0.099902-5.394732 2.497561 3.096976-11.288976 8.192-9.290927 2.797268-0.899122 6.993171 6.593561 9.091122 2.797268-0.999024-32.168585-3.096976-11.089171-16.883512-10.190049 0.39961-0.79922 2.297756-3.796293 1.398634-4.495609-0.099902 0.099902 0 0.199805-0.099902 0.199804-4.595512-0.099902-5.494634 9.290927-8.391805 12.487805-1.398634 1.998049-3.096976 3.496585-4.49561 5.694439-0.899122 0-1.398634 1.098927-1.998049 1.698342 0.599415 0.599415 1.098927 0 1.398634 0.299707 0.599415-0.299707 0.299707-0.79922 0.899122-0.799219l0.299708 0.499512c-1.898146 2.197854-12.68761 20.779707-3.196878 22.577951 0.39961 8.691512-11.189073-0.599415-9.191025-7.492683-1.098927-0.599415-0.899122 0.899122-1.698341 1.098927-1.398634 1.698341-2.297756 4.89522-5.394732 5.694439-0.599415-0.599415-1.398634-0.599415-1.998049-0.599415l-2.297756-2.597463c0.499512-4.195902-2.297756-10.090146 3.396683-12.487805 4.195902-4.995122 9.690537-11.089171 10.489756-18.481951-10.489756 5.594537-16.983415 5.194927-18.382049-9.290927 6.293854-5.894244 21.27922-1.198829 20.48-9.890342 0.299707-1.998049-1.998049-7.192976 0.699318-9.091121 0.299707-0.299707 3.596488-3.096976 5.594536-1.898147 3.796293 2.697366-4.89522 7.492683-0.199805 9.690537 8.59161 1.498537 10.689561 5.994146 2.197854 11.88839 0.299707 2.297756 4.295805 6.593561 6.893268 2.397659 0 0.099902 1.998049-2.497561 2.797268-2.597464 3.69639-5.095024 11.189073-7.692488 14.785561-13.187122-3.196878-5.794341 4.096-11.089171 9.690537-7.79239z m-108.993561 51.249951c0-2.097951 6.094049-4.995122 4.195903-6.993171-0.099902 0-2.697366-1.298732-2.697366-1.598439-8.791415-2.597463-17.582829 10.789463-13.686634 18.681756 3.69639-0.299707 9.890341-8.491707 12.188097-10.090146z m6.493659-42.858146c-1.098927 0-8.092098 1.898146-5.095025 3.396683 2.097951-0.199805 4.096-1.698341 5.894244-2.097951 0-0.299707 0.899122-0.79922 0.999025-1.19883 1.398634-0.499512-1.798244-0.39961-1.798244-0.099902z m19.480975 40.060878c4.49561 2.897171 12.288 7.892293 11.88839 13.287024-9.191024-0.599415-31.768976-23.576976-32.268487-9.890341-18.082341 34.466341-30.570146 18.781659-22.078439-11.388878-1.998049 0.79922-6.493659 11.788488-9.990244 12.887414-18.581854-4.096 32.268488-51.249951 7.192975-32.468292-0.099902 0-1.998049 1.898146-1.298731 1.798244-1.398634 0.099902-4.195902 5.294829-5.29483 4.595512 0.299707-0.299707 0.499512-0.699317 0.599415-0.999025-5.394732 0.39961-5.794341-10.489756-4.89522-14.385951 3.196878-0.199805 2.097951-5.095024 3.496586-7.79239 2.697366-5.794341 5.494634 6.993171 6.393756 8.691512 2.597463 0 17.083317-3.69639 9.990244-8.092097-1.498537-1.698341 4.395707-3.996098 7.592585-1.598439 6.693463 5.194927 15.784585-1.898146 23.776781 1.298731 8.59161 11.788488-17.682732 13.686634-25.575025 14.685659-2.197854 0.699317-4.795317 23.077463-1.598439 18.182244 0.39961-0.199805 1.598439 0.499512 1.598439-0.599415 15.285073-5.694439 31.569171-26.574049 27.273366-11.189073-0.499512 0.999024-7.692488 5.694439-2.797268 3.496585 0 0.099902 0.099902 0.499512 0.099902 0.499512-0.79922 0.39961-6.793366 4.096-6.793366 4.695415-1.198829 0.299707-7.492683 4.695415-8.092097 5.294829 3.496585 3.796293 5.994146-4.395707 8.491707-4.495609-4.995122 12.587707 4.795317 6.893268 12.288 13.486829zM820.398829 483.527805c-0.999024 0.599415-7.192976 2.997073-9.390829 3.996097 0.499512 2.797268 0.39961 9.290927 0.79922 12.088196 0.499512-2.397659 8.092098-5.494634 7.79239-9.790439-0.499512-0.499512 0-2.797268-0.699317-3.096976-0.199805-0.499512 0.499512-0.699317 0.699317-0.899122 0.999024-0.199805 0.099902-1.798244 0.799219-2.297756z m11.089171-3.69639c-1.798244-0.39961-6.793366 1.498537-4.295805 4.995122 0.699317-0.79922 3.396683-4.096 4.295805-4.995122z m0.499512-26.673952c3.69639 2.097951 0.39961 4.595512-1.398634 8.491708-2.597463 5.994146-4.295805 17.482927-4.096 17.882536 0.699317-0.499512 1.898146-0.699317 2.597463-1.398634 0.999024 0 1.398634 0 1.898147-0.699317 2.697366-2.097951 10.090146-1.298732 11.988292 3.496585 0 0 0.499512 0.699317 0.199805 1.398635 0.699317 0.199805 0 0.699317 0 1.198829-0.699317 0.499512-0.699317 1.198829-0.699317 1.898146-3.896195 1.398634-25.674927 18.182244-12.987317 19.780683 3.596488 0.199805 7.692488-0.599415 9.191025 3.996098-0.499512 0.699317 0.199805 1.898146-0.899122 1.598439-1.198829 0.499512-0.899122 2.097951-2.397659 1.698341-10.389854 3.796293-29.770927 3.596488-36.164683 7.292878-0.899122-0.499512-2.797268-0.499512-3.196878-1.998049-0.899122-0.699317-0.899122-1.898146-2.397658-1.398634-3.69639-5.494634 3.396683-5.394732 6.593561-6.393756 0 0 0 0.099902 0.899122-0.39961-0.499512-2.397659-1.198829-1.498537 0.699317-3.396682-0.499512-1.198829-0.599415-11.48878-0.899122-12.387903-0.499512 0-0.999024 0.099902-3.396683 1.598439 0.199805-0.099902-3.096976 1.598439-3.096976 1.898146-1.998049 2.197854-7.592585 4.995122-10.190049 5.694439-0.699317 0-2.197854-1.398634-3.096975-0.999024-3.496585-1.498537-6.993171-6.393756-6.094049-9.890341-0.499512-0.199805-0.199805-0.899122-0.199805-1.398635 0.499512-0.699317 1.198829-1.898146 2.097951-1.198829 0.499512 0 0.899122 0 1.398634-0.199805 0 0 0.199805 0.199805 0.499513 0.199805 2.397659-1.098927 1.198829 6.993171 13.287024 2.597464 0.499512-0.899122 8.59161-0.899122 9.290927-3.796293-1.498537-5.794341 2.197854-14.585756-3.796293-19.081366-8.092098-5.594537 27.173463-6.593561 13.586732 15.584781 2.297756-0.299707 6.793366-1.198829 9.590634-3.296781-0.599415-7.992195 2.797268-13.886439 2.397659-16.78361 0.099902-6.893268-10.589659-11.288976 8.791414-11.588683z m-558.654439 6.593561c0.999024 1.298732 6.793366 19.580878 0.39961 19.880586-4.795317-2.497561-3.596488-16.184195-0.39961-19.880586z m40.360586 0.79922c2.597463-1.098927 5.594537-2.397659 8.491707-1.798244-2.397659-7.39278-8.092098-1.998049-11.88839 2.297756 1.098927-0.499512 1.598439 0.199805 3.396683-0.499512z m-23.377171 44.856195c-0.39961 0.599415-2.597463 4.595512-3.196878 6.193951 4.195902 0.79922 6.293854 5.694439 10.789463 0.299708 2.197854-4.795317 5.095024-9.590634 5.394732-15.285074 1.198829-1.498537 0-4.395707-0.999025-6.293853-5.694439-0.499512-8.691512 10.789463-11.988292 15.085268z m41.059902-45.655415c1.798244 0.79922 3.796293 3.096976 1.398634 4.395708-0.39961 0.899122-1.198829 0.79922-1.698341 0.599414-20.48-8.491707-29.970732 5.794341-37.962927 16.483903-3.29678 1.198829-5.994146 7.39278-0.39961 3.396683 1.798244-2.397659 9.990244-9.990244 10.489756-4.395708 0.299707 0.299707 0.599415 0.299707 0.899122 0.299708 0 1.198829-1.598439 1.598439-1.898146 2.497561 23.77678 0.699317 4.89522 47.153951-15.98439 40.460487 0.099902-1.698341-1.698341-0.999024-1.898147-3.396682-1.198829 0.699317-3.69639 3.796293-4.895219 5.594536-1.598439 0.299707-2.097951-9.390829-0.299707-10.090146 1.698341-6.193951 5.794341-11.388878 8.791414-18.282147-0.099902 0-0.099902-0.099902-0.199805-0.199804-7.292878 1.498537-7.292878-4.395707-4.995122-9.490732-1.398634-4.995122 8.291902-5.694439 4.995122-11.788488-2.097951-10.689561 2.297756-22.777756-3.196878-33.567219 0.899122 0.899122 3.29678-0.699317 3.896195 1.198829 15.684683 1.898146-1.298732 43.157854 11.788488 23.277268 0.699317-1.198829 2.897171-2.197854 1.498537-3.796293 6.793366-1.698341 13.586732-18.981463 22.078439-9.990243 2.397659 3.096976 3.096976 5.894244 7.592585 6.793365z m-65.336195 57.443903c-0.899122 0.599415-2.197854 0.199805-3.096975 0-0.599415-2.497561 2.297756-12.487805 4.395707-13.287025 2.097951-2.197854 2.697366-0.899122 4.695414 0 0 0 1.998049 0.599415 2.097952 0.599415 2.497561 0.39961-7.192976 11.988293-8.092098 12.68761z m57.843512-14.685659c4.096 1.798244 10.989268 1.298732 14.685659 6.393756 1.098927 2.297756 3.496585 8.491707-3.196878 6.493659-5.794341-4.795317-9.490732-6.993171-16.583805-10.989268l0.299707-0.299708-1.298731-1.598439c1.498537-0.699317 3.396683-1.498537 6.094048 0z m-144.658731 18.881561c-0.699317-2.997073-2.297756-15.784585 0.499512-15.884488 1.798244 17.083317 16.184195-12.387902 19.281171-17.682731 3.096976 0 0.199805 4.595512 0.199804 5.994146-0.199805 7.292878-9.690537 45.45561-19.980487 27.573073z m37.563317-32.268488c15.185171-3.29678 8.391805-16.084293 0.599414-8.691512-5.594537 3.196878-14.985366-7.992195-9.490731-9.390829 7.79239 3.29678 12.288-0.099902 19.880585-1.498537 34.666146 0.199805 14.585756 11.089171-0.099902 26.773854-0.39961 1.998049 11.588683 0 15.384975 1.498537 11.48878 9.590634-27.772878 13.08722-28.971707 11.88839-10.090146-4.096-1.598439-16.483902 2.697366-20.579903z m-39.361561-8.391804c-1.898146-19.381073 19.281171-18.382049 9.390829-38.06283 6.094049 0.199805 23.976585 4.096 15.484878 13.287025-9.390829 3.29678-15.285073 4.096-19.980488 14.186146-3.596488 10.689561 14.785561 9.590634 2.497561 21.079415-0.299707 0-7.192976-9.790439-7.39278-10.489756z m530.481951-14.985366c0.299707-1.198829-0.499512-2.597463 0-3.796293 1.798244-0.499512 3.996098 0.299707 5.694439-0.699317 3.29678-0.699317 8.691512-1.898146 12.787512-3.596488-0.199805-0.999024 1.998049-1.198829 2.097951-3.396683 0.199805-0.499512 1.098927-1.998049 0-3.496585 2.397659-2.697366 5.194927-3.196878 9.790439-1.898146 0.699317 0.599415 1.798244 1.298732 1.598439 2.297756-0.099902 0.099902-0.199805 0.39961 0 0.499512 0 0.899122-0.699317 1.698341-0.599414 2.597463 1.698341 0.599415 3.796293-1.398634 5.894244-2.697366 0.599415-0.999024 2.397659-1.098927 3.796292 0.299708 1.198829 1.098927 8.391805 1.498537 5.194927 5.394731-2.197854 1.698341-9.990244 0-10.889366 3.496586 1.098927 0 1.698341 1.098927 2.797269 1.198829 1.098927 0.999024 2.497561 1.098927 3.796292 1.298732 0.39961 0.599415 1.398634 0.999024 1.298732 1.798244 0.599415 0.899122-0.699317 1.298732-0.799219 1.998048-7.79239 1.098927-14.286049 10.190049-23.876683 8.791415 3.596488-4.89522 8.59161-9.890341 13.786536-14.685658-5.095024-2.197854-13.886439 3.29678-20.979512 5.294829-7.192976 8.59161 1.798244 4.695415 7.492683 1.498536-3.796293 3.69639-5.394732 9.690537-10.389854 13.48683-0.599415 0-1.298732-0.299707-1.898146-0.099903-0.39961-0.899122-1.798244-1.098927-1.798244-2.297756-0.79922-2.297756-0.39961-6.793366 2.797268-8.891317 0.499512-0.599415 4.096-4.195902-0.099902-2.597463-1.298732 0.899122-3.096976 0.599415-4.49561 1.198829-0.999024-0.299707-1.598439-1.198829-2.997073-2.997073z m18.881561 23.077463c1.298732-0.999024 1.598439-2.497561 2.197854-3.896195l-0.099903-0.199805c-1.498537-0.199805-2.597463 0.79922-3.996097 1.198829 0 1.098927 0.699317 1.998049 1.498536 2.897171h0.39961z m3.29678 13.386927c-7.592585-0.099902-4.695415 9.390829 0.099903 0.299707l-0.099903-0.299707z m30.769952 14.885463c1.098927 1.098927-0.099902 2.397659 0.099902 3.496586-0.499512 1.998049-2.297756 4.995122-5.095024 6.493658-0.79922-0.199805-1.198829 0.699317-1.998049 0.39961-2.397659 0.899122-4.89522-0.199805-6.893268-1.498537-1.698341-2.297756-3.996098-2.897171-6.593561-6.493658-0.299707-0.699317-2.297756-2.197854-2.397659-4.096 3.196878 1.398634 7.292878 2.797268 11.988293 1.398634 0.79922 0.099902 1.298732-0.599415 1.898146-0.999024 0.39961-0.999024 1.698341-1.598439 1.798244-2.697366 0.79922-3.196878 1.498537-7.292878 1.598439-11.688586 0.199805-0.099902 0.499512-0.299707 0.599415-0.499512-1.398634-2.797268 0.299707-7.39278 0.199805-11.88839-0.199805-0.39961-0.699317-1.098927 0-1.498537 0-1.498537 0.39961-3.896195-0.199805-6.393756 0-0.499512-0.199805-0.999024 0-1.498536-0.299707-0.599415-0.099902-1.398634-0.699317-1.998049-2.097951 0.699317-12.487805-0.499512-11.189074 3.69639-0.299707 0.599415-0.199805 1.398634-0.799219 1.798244-0.199805 1.798244 1.798244 1.898146 4.695415 2.397659 0.199805 0.199805 0.199805 0.499512 0.399609 0.699317-0.599415 1.398634-1.998049 1.298732-2.997073 2.097951-3.096976 0.79922-6.993171 2.297756-11.788488 2.197854-1.098927 0.599415-2.397659 1.098927-3.796292 1.098926 1.098927-1.298732 2.697366-1.098927 4.096-3.796292-1.898146-1.298732 2.997073-6.293854-2.197854-4.49561-2.097951 1.898146-1.998049 4.795317-2.697366 8.092098 0.099902 0.199805 0.39961 0.299707 0.599415 0.399609-4.89522 7.093073-4.195902 9.590634 4.895219 4.096 1.898146-0.299707 3.69639-2.097951 7.093073-2.297756 1.098927 0.499512 2.397659 0.899122 5.494635 1.598439 0.199805 0.39961 0.599415 0.299707 0.999024 0.39961 4.395707 2.797268-1.298732 4.595512-2.997073 7.892293 1.498537 1.498537 3.896195 1.298732 5.294829 3.096975 0.599415 6.993171-18.282146 2.097951-26.873756 7.592586-2.897171 0-5.794341-7.79239-3.496585-11.089171 0-0.79922 1.098927-1.298732 0.999024-2.197854 0.199805-0.39961 0-1.298732 0.299707-1.898146-0.499512-1.698341-1.598439-2.997073-1.698341-5.694439-0.499512-0.299707 0.299707-0.79922-0.199805-1.298732 0.099902-1.198829 0.39961-2.697366 0.899122-3.896195-2.397659-0.599415-5.394732 2.297756-8.691512 3.896195-0.699317 1.898146 0 3.896195 0.099902 7.392781-0.199805 2.897171 0.899122 6.693463 0.199805 10.889366l0.199805 0.099902c0.499512 1.298732 0 2.997073 0.39961 4.395707-0.499512 1.198829-0.299707 2.697366-1.698342 3.096976-0.79922 0.899122-2.097951-0.299707-2.997073 0.299707-1.398634-0.299707-2.797268-1.898146-3.29678-4.395707-0.79922-0.499512-0.599415-1.498537-1.098927-2.097951 0.199805-0.79922-0.199805-1.598439-0.39961-2.397659 0.299707-1.398634 0.699317-3.596488 1.598439-6.094049 0.199805-0.899122-0.199805-2.597463 0.79922-4.495609 4.89522-5.894244-2.197854-6.193951 0.799219-9.490732 1.398634-0.599415 3.396683-0.39961 4.49561-1.698342 2.997073-0.299707 6.094049-2.197854 10.489756-2.497561 1.398634-1.498537 3.996098-0.79922 7.39278-2.197853 0.999024 0.199805 1.598439-0.699317 2.597464-0.699317 0.199805-1.098927 8.791415-1.498537 5.594536-3.696391 5.894244 0.599415 10.989268-3.29678 18.681756-3.096975 12.587707 1.898146 3.196878 27.273366 5.994147 37.763122-1.798244 0.599415 0.299707 0.39961 0.099902 2.397658-0.599415 0.199805-0.39961 0.899122-0.599414 1.598439z m241.664-67.234341c4.096-0.499512 10.190049 2.597463 9.091122 7.992195-0.899122-0.299707-0.899122 1.198829-1.798244 1.498537-8.891317 2.197854-15.684683 10.789463-21.379122 16.783609 5.994146-0.999024 12.088195-4.595512 19.181268-5.194926 2.497561-2.197854 9.191024-0.099902 13.08722 2.497561-0.299707-0.299707 2.197854 2.097951 2.197853 2.097951 1.598439 6.693463-9.191024 5.194927-12.487805 4.595512-2.797268 2.097951-5.794341 4.595512-7.892292 6.993171 1.998049 1.898146 3.096976 5.394732 4.295804 8.291902 3.796293 9.690537 2.997073 31.868878-10.389853 30.470244-3.996098 0.79922-6.193951-0.099902-10.289951-0.39961 3.69639-0.699317-2.297756-1.398634-2.897171-0.999024 0.599415-0.599415 3.69639-1.798244 3.69639-1.798244 11.588683-3.996098 22.577951-18.082341 11.288976-27.473171-0.39961-1.298732-4.595512-2.597463-0.599415-4.49561 1.898146-1.198829 0.39961-5.494634 0.299707-6.393756-9.290927 3.196878-13.886439 7.292878-14.985365 6.693464-7.79239 2.097951-7.093073-9.590634-5.594537-14.086244l0.599415-1.198829c2.697366 0.099902 5.494634-1.598439 8.591609-3.396683 2.197854-2.997073 6.493659-6.094049 8.491708-10.289952 0.299707-1.198829 1.498537-1.498537 1.498536-2.49756-1.998049-1.398634-5.694439-2.597463-8.691512-4.195903-0.39961 0-0.699317 0.099902-1.098927 0.099903 4.395707-1.498537 10.289951-6.893268 15.784586-5.594537z m-36.664196-3.296781c3.096976 5.394732 9.890341 13.08722 3.696391 18.581854-2.797268 3.996098-5.194927 6.993171-8.891317 10.689561 1.198829 0 3.096976 0.299707 4.295805 0.899122 2.997073-0.599415 5.794341 1.498537 7.892292 3.396683 0.299707 2.997073-3.096976 9.390829-4.295805 9.790439-5.694439 6.993171-3.69639 4.995122-1.198829 10.989268-1.498537 0.899122 0 2.997073 0 3.996098-1.498537 3.096976 1.398634 5.394732-3.69639 8.59161-3.096976-0.79922-4.995122-7.192976-3.69639-10.090147l-0.599415-0.299707c-1.298732 1.598439-2.897171 5.194927-3.996098 8.291902-1.298732 2.097951-3.496585 3.096976-7.292878 2.997074-1.498537-11.288976 5.694439-17.482927 10.389854-25.275318-0.79922-2.097951-6.693463 0.299707-9.191024 1.19883-1.798244-1.298732-0.199805-9.390829-0.39961-11.588683 0.299707 0 0.899122-1.798244 0.899122-2.397659 0.899122-1.498537 3.69639 0 3.996097-2.197853 5.594537-7.39278 14.985366-15.185171 11.988293-25.674927l-0.199805-1.898147h0.299707z m-69.931707 45.255805c0.499512 0 0.499512-0.499512 0.999025-0.699317 0.199805 6.193951-6.893268 12.487805-10.090147 18.282147-4.096 2.897171-7.192976 10.090146-13.786536 9.690536 0-0.299707-0.299707-0.199805-0.499513-0.199805-8.391805-11.48878 1.298732-7.192976 2.497561-15.684683 1.698341 0.699317 3.69639-0.39961 4.295805-3.496585-0.999024-0.999024 0.899122-5.294829-0.299707-6.094049-3.396683 1.498537-17.18322 8.891317-10.489756-1.698341 1.398634-0.499512 3.29678-1.098927 4.49561-0.899122 4.096-0.999024 9.590634-1.698341 7.992195-7.692488-1.698341 0-5.294829 2.497561-6.493659 2.397659-0.499512-0.499512 0.099902-1.098927 0.099903-1.598439-5.494634-7.192976-4.695415 5.694439-11.888391 8.092097-8.192 2.197854-7.292878-6.193951-2.797268-10.090146 0.899122-2.297756 22.178341-27.573073 15.584781-29.07161 1.398634-0.999024 2.897171-2.597463 4.795317-2.397659 5.294829 1.698341 2.197854 7.093073 0.599414 11.788488 3.496585-0.199805 10.589659-4.795317 13.986342-1.198829 2.997073 6.094049-7.093073 6.993171-11.788488 8.991219 0 0-0.699317-0.699317 0.499512-1.198829-4.295805-4.595512-15.484878 12.487805-8.291902 10.489756 2.897171-1.198829 13.386927-9.490732 14.685658-1.498536-2.897171 1.098927-3.29678 6.693463-3.396683 8.791414 1.998049 0.39961 5.194927-2.097951 6.693464 1.098927 0.699317 3.096976-4.595512 2.897171-6.893269 4.395708 0.39961 1.398634-0.599415 9.690537 0 9.390829 4.395707-1.798244 6.493659-6.293854 9.490732-9.890342z m17.482927 3.996098c0.199805-0.699317 1.198829-3.796293 1.898146-4.295805-0.299707-0.999024-0.999024 0.199805-1.698341 0.199805-1.098927 0.999024-5.095024 3.596488-5.894244 4.096-0.39961 1.298732-2.597463 1.698341-2.297756 3.196878 1.698341 1.598439 4.096 0.699317 6.094049 0.899122 0.499512-0.79922 1.598439-3.29678 1.898146-4.096z m-7.492683 13.686634c0.699317-1.698341 2.497561-3.396683 2.897171-5.394732-4.096-1.798244-3.29678 1.598439-3.396683 5.494634l0.499512-0.099902z m0.39961-32.268488c-1.398634-0.199805-0.599415 3.69639-1.198829 4.595512 6.193951 2.297756 8.891317-9.890341 1.198829-4.595512z m34.366439 29.870829c-0.899122 10.489756-17.982439-1.698341-24.076488-1.698341-1.698341-0.099902-1.998049 0.699317-3.096976 2.897171-1.398634 6.193951-11.788488 21.079415-14.086243 6.693463-0.199805-4.295805 2.397659-11.688585-1.298732-14.685658 6.094049-5.394732 1.098927-29.07161 2.297756-34.266537 0.499512 0.199805 1.198829 0.499512 1.698341 0.299707 3.69639 1.498537 2.997073 5.894244 3.096976 10.090147 1.098927 0.599415 4.49561-4.096 1.298732-4.89522 0.199805-1.198829 1.898146-0.699317 2.797268-1.198829 1.998049 0.899122 2.397659-0.599415 2.497561-2.597463-0.199805-0.199805-0.099902-0.699317-0.699317-0.499513-2.997073-0.39961-7.192976-1.398634-8.59161-5.594536 6.393756 0.39961 10.190049-4.695415 14.885464-8.59161 0.39961-0.699317 2.197854 0 2.197853 0 5.095024 2.397659 4.89522 7.692488 1.898147 12.487805 0.499512 1.398634-1.098927 1.898146-0.999025 3.196878-4.096 5.394732-3.596488 12.987317-8.59161 17.482927-1.498537 0.499512-4.89522-0.999024-6.893268 0.099902-0.099902 2.697366 0.39961 4.89522 0.099903 7.592586 3.496585-0.199805 6.593561-6.993171 10.389853-9.890342 0-0.999024 3.096976-1.898146 3.496586-2.397658 0.999024-0.299707 1.898146 0.499512 2.89717 0.199804 0.899122 0.299707 2.397659 0.199805 2.697366 1.398635 2.297756 1.598439-1.098927 3.996098-2.197853 6.393756-14.985366 19.081366 10.289951 1.398634 18.282146 17.482926z m-453.557073-6.99317c1.098927 1.698341-0.699317 4.096 1.098927 5.894244 2.297756 0.899122 4.395707-1.298732 8.192-1.398634l0.299707 0.399609c1.098927 0 2.397659 0.299707 3.096975 0.999025 4.096 4.49561-7.39278 6.293854-11.08917 8.591609-1.098927 6.193951 3.496585 19.980488-2.397659 20.180293-2.997073-0.39961-7.492683-5.994146-4.49561-8.991219-0.39961-7.292878 2.097951-10.389854-4.495609-10.689561-1.698341-1.098927-2.797268-2.397659-4.49561-3.096976 2.097951-1.398634 4.096-0.699317 6.193951-2.097951 7.192976-2.297756-3.69639-9.390829 4.89522-11.488781 1.498537 0.699317 1.798244 1.398634 3.196878 1.698342z m2.797268-22.078439c-0.999024-2.097951-5.894244 0.39961-7.592585 0.399609-2.097951 1.698341 0.699317 2.797268 1.398634 4.795318 6.793366-0.79922 11.388878-1.898146 6.193951-5.194927z m-8.691512-32.568195c0 1.398634 2.797268 0.699317 1.698341 2.397658 2.197854 0.899122-1.398634 6.693463-0.699317 7.093073 3.396683 0.499512 13.686634-0.79922 15.884488-2.497561 2.497561-0.199805 5.594537 0.699317 7.192976 4.195903-1.198829 6.393756-7.992195 16.78361-10.389854 22.877658 1.698341 2.197854 5.194927 2.397659 7.992195 4.49561 2.397659 0.999024 3.496585 4.995122-1.298732 3.896195-30.570146-0.699317 10.489756 11.189073 18.382049 14.685659 2.097951-0.39961 3.796293 0.999024 4.49561 2.797268-0.299707 1.398634-7.592585 2.797268-8.59161 1.698341-4.49561 0.299707-9.790439-0.299707-12.787512-4.295804-7.892293-5.294829-12.587707-10.190049-19.980488-12.587708-8.291902 9.890341-12.088195 26.873756-27.672975 25.37522 34.066732-37.962927 10.190049-14.785561 4.195902-21.479025-1.698341 0-2.797268-1.398634-3.496585-2.797268 0.39961-0.699317 0.999024-0.999024 0.699317-2.397658 0.39961 0 0.999024-0.39961 0.999024-0.39961 3.196878 2.297756 15.285073-1.198829 19.081366-2.397659 1.498537-1.998049 3.396683-3.69639 1.398634-7.292878 0.999024-0.699317 3.096976 0.699317 3.096976-1.398634-0.699317-0.699317-2.397659-0.999024-3.096976-0.699317v-0.699317c15.085268-4.995122 14.685659-7.692488 0-8.291902 0-0.299707 0-0.999024 0.699317-1.398635 0.999024 0.39961 2.097951-1.698341 3.096976-0.999024 2.897171-1.298732 6.094049-1.298732 10.090146-0.299707 0.999024-0.999024 2.697366-5.095024 2.097951-3.796293-0.199805-6.693463-40.060878 1.698341-22.478048 8.391805 2.297756 1.698341 4.195902 5.095024 5.494634 8.691512-1.698341 2.097951-2.697366 3.896195-6.593561 3.096976-0.79922-1.498537-3.396683-2.797268-2.797269-5.494634-5.294829-9.290927-8.391805-9.390829 0.199805-15.784586 5.095024-2.097951 5.694439-19.880585 13.08722-14.685658z m-59.841561 33.167609c-5.594537 1.798244-15.784585 7.39278-8.491708 13.886439 0.299707-2.897171 2.997073-0.499512 5.69444-1.798244 2.897171-1.198829 11.988293-16.184195 2.797268-12.088195z m-27.672976 4.295805c-8.691512 1.898146-16.583805 5.294829-6.793366 11.988293 1.398634 0.39961 5.694439-10.489756 6.793366-11.988293z m-47.753366 6.593561c2.397659-4.795317 4.096-0.299707 11.288976-0.39961 5.294829-0.699317 14.286049-3.196878 18.681756-4.295804 6.993171-5.095024 10.489756-27.772878 7.592585-33.267513 15.085268-9.790439-0.499512 25.37522 1.898147 28.472196 5.694439-2.497561 11.189073-0.999024 12.587707-10.190049-0.499512-3.196878-2.597463-11.588683 4.295805-2.197854 1.598439 2.097951 0.499512 3.596488 0.099902 7.892293 0.699317 0.999024 1.498537 2.197854 1.798244 3.996097 4.295805 1.898146 14.785561-10.289951 20.979512-12.288 20.87961 0.79922 12.887415 9.690537 7.192976 21.27922 3.896195 0.79922 2.597463 7.292878-1.698341 10.489756-2.897171-1.198829-11.388878 0.79922-15.384976 1.498537-11.88839 8.891317-10.389854-24.376195-14.685659-18.981464-8.092098 25.874732-11.388878 10.190049 3.296781 26.574049 0.499512 2.997073-2.897171 3.396683-5.194927 4.995122-2.897171 0.199805-6.693463-6.493659-10.389854-7.392781-6.393756 2.197854-11.688585 21.079415-18.282146 10.389854-0.199805-5.894244 7.692488-9.290927 11.88839-15.285073-4.795317-2.097951-5.894244-5.494634-5.794341-9.690537-12.188098 4.395707-26.074537 15.884488-30.170537-1.598439 0 0.099902 0 0.099902 0 0z" fill="#231916"></path><path d="M48.35278 512.699317c9.191024 6.094049 17.582829 14.785561 24.775805 27.173463 5.194927-10.090146 13.287024-18.981463 25.075513-26.374243-14.186146-9.290927-20.380098-17.882537-25.575025-26.374244-6.593561 11.788488-15.085268 19.780683-24.276293 25.575024" fill="#AE935C"></path><path d="M0.899122 512.499512c0 1.598439 0.099902 3.196878 0.199805 4.795317 24.17639 2.697366 44.056976-14.385951 64.936585-41.959024 17.18322-22.577951 48.152976-26.873756 73.428293 5.894244-11.688585-24.875707-36.764098-42.058927-65.835707-42.058927C33.467317 439.171122 0.899122 471.939122 0.899122 512.499512" fill="#EC440E"></path><path d="M81.12078 550.562341C63.737756 573.140293 32.468293 575.438049 7.093073 541.271415c11.189073 25.774829 36.864 43.757268 66.834732 43.757268 40.16078 0 72.828878-32.468293 72.828878-72.429268 0-1.098927 0-2.197854-0.099903-3.396683-1.898146-0.199805-3.69639-0.299707-5.494634-0.299708-21.878634 0.099902-40.460488 16.384-60.041366 41.659317" fill="#83120E"></path><path d="M185.818537 555.657366l5.294829-0.099903c0.599415 0 0.899122 0.199805 0.899122 0.499513s-0.299707 0.499512-0.79922 0.499512c-0.79922 0-1.398634 0.299707-1.798244 0.799219-0.39961 0.499512-0.599415 1.798244-0.699317 3.896195-0.099902 2.197854-0.099902 4.195902-0.099902 6.094049v3.796293c0 2.497561-0.299707 4.295805-0.899122 5.394732-0.599415 1.198829-1.498537 2.097951-2.697366 2.89717-1.298732 0.699317-2.597463 1.098927-4.195902 1.098927-1.698341 0-2.997073-0.39961-3.996098-1.198829-0.999024-0.79922-1.498537-1.798244-1.498537-2.997073 0-0.79922 0.299707-1.398634 0.79922-1.998049 0.499512-0.599415 1.198829-0.899122 2.097951-0.899122 0.79922 0 1.398634 0.199805 1.898147 0.699317s0.699317 0.999024 0.699317 1.598439c0 0.299707-0.199805 0.899122-0.499513 1.498537-0.299707 0.499512-0.39961 0.79922-0.399609 1.098927s0.099902 0.499512 0.299707 0.699317 0.499512 0.199805 0.79922 0.199804c0.999024 0 1.598439-0.499512 1.998048-1.398634s0.599415-3.29678 0.599415-6.99317c0-7.692488-0.099902-11.988293-0.299707-12.887415-0.199805-0.899122-1.098927-1.398634-2.697366-1.398634-0.499512 0-0.699317-0.199805-0.699317-0.499512 0-0.39961 0.299707-0.599415 0.799219-0.599415 0.099902 0 0.599415 0 1.298732 0.099902 1.498537 0 2.797268 0.099902 3.796293 0.099903z m9.091122-0.199805c0.39961 0 1.298732 0 2.597463 0.099902 0.999024 0.099902 1.798244 0.099902 2.397658 0.099903l5.494635-0.099903c0.499512 0 0.699317 0.199805 0.699317 0.499513s-0.199805 0.499512-0.599415 0.499512c-0.899122 0.099902-1.598439 0.299707-1.898146 0.499512-0.299707 0.299707-0.599415 0.899122-0.699317 1.798244-0.199805 0.999024-0.299707 3.096976-0.299708 6.493658 0 3.896195 0.099902 6.893268 0.199805 8.99122 0.099902 2.097951 0.39961 3.396683 0.699317 3.896195 0.39961 0.499512 0.999024 0.699317 1.798244 0.699317 0.599415 0 0.899122 0.199805 0.899122 0.499512 0 0.39961-0.299707 0.599415-0.999024 0.599415h-0.79922c-2.297756-0.199805-3.796293-0.199805-4.595512-0.199805-1.798244 0-3.196878 0.099902-3.996098 0.199805-0.499512 0.099902-0.79922 0.099902-0.999024 0.099902-0.39961 0-0.699317-0.199805-0.699317-0.499512s0.199805-0.39961 0.599415-0.499512c0.999024-0.099902 1.698341-0.39961 2.097951-0.899122 0.39961-0.39961 0.599415-1.498537 0.599415-3.196878 0.099902-1.698341 0.099902-4.295805 0.099902-7.892293 0-3.796293-0.099902-6.293854-0.199805-7.592585-0.099902-1.298732-0.39961-2.097951-0.699317-2.397659s-0.899122-0.499512-1.798244-0.599414c-0.499512 0-0.699317-0.199805-0.699317-0.599415 0.199805-0.39961 0.39961-0.499512 0.79922-0.499512z m23.177365 5.794341l-3.196878 8.192 6.493659-0.099902c-0.299707-0.999024-0.899122-2.297756-1.598439-3.996098-0.79922-1.698341-1.298732-3.096976-1.698342-4.096z m1.298732-6.393756h1.198829c1.598439 3.496585 3.896195 8.99122 6.793366 16.483903 1.298732 3.496585 2.297756 5.594537 2.797269 6.293853s1.298732 1.198829 2.397658 1.298732c0.39961 0 0.499512 0.199805 0.499512 0.499512 0 0.39961-0.199805 0.599415-0.699317 0.599415-0.299707 0-0.899122 0-1.998049-0.099902-1.298732-0.099902-2.297756-0.199805-3.196878-0.199805-0.79922 0-1.898146 0-3.29678 0.099902-0.999024 0.099902-1.698341 0.099902-1.998049 0.099903-0.599415 0-0.79922-0.199805-0.799219-0.499513s0.199805-0.39961 0.599414-0.499512c1.498537-0.099902 2.197854-0.699317 2.197854-1.798244 0-0.499512-0.199805-1.398634-0.699317-2.697366-0.39961-1.298732-0.899122-2.497561-1.398634-3.596487H214.290732c-0.999024 2.897171-1.598439 4.795317-1.598439 5.694439 0 0.699317 0.299707 1.198829 0.799219 1.598439 0.499512 0.39961 1.098927 0.599415 1.698342 0.599414 0.499512 0.099902 0.699317 0.199805 0.699317 0.599415 0 0.299707-0.199805 0.499512-0.699317 0.499512-0.199805 0-0.699317 0-1.498537-0.099902-1.098927-0.099902-1.798244-0.099902-2.297756-0.099903-0.999024 0-1.898146 0.099902-2.697366 0.199805-0.199805 0-0.39961 0.099902-0.499512 0.099903-0.39961 0-0.699317-0.199805-0.699317-0.599415 0-0.299707 0.099902-0.39961 0.39961-0.499512 0.699317-0.199805 1.298732-0.499512 1.698341-0.79922 0.39961-0.299707 0.899122-0.899122 1.298732-1.798244 0.499512-0.899122 1.098927-2.297756 1.698341-4.195902 1.498537-4.096 3.796293-9.890341 6.793366-17.18322z m21.578927 0.699317c5.794341 6.793366 10.689561 12.288 14.585756 16.384v-8.991219c0-1.698341-0.099902-2.997073-0.299707-3.69639-0.199805-0.79922-0.599415-1.398634-1.19883-1.798244s-1.398634-0.699317-2.197853-0.79922c-0.39961 0-0.699317-0.199805-0.699317-0.599414 0-0.39961 0.199805-0.499512 0.599414-0.499513 0.199805 0 0.499512 0 0.899122 0.099903 0.699317 0.099902 1.698341 0.099902 3.096976 0.099902 1.698341 0 2.997073 0 3.796293-0.099902 0.39961 0 0.699317-0.099902 0.899122-0.099903 0.499512 0 0.699317 0.199805 0.699317 0.499513s-0.299707 0.599415-0.899122 0.599414c-0.79922 0.099902-1.498537 0.39961-2.197854 0.999025-0.699317 0.599415-0.999024 1.698341-0.999024 3.496585l0.099902 10.589659-0.099902 7.992195c0 0.699317-0.199805 0.999024-0.599415 0.999024-0.099902 0-0.199805 0-0.39961-0.099902-0.099902-0.099902-0.999024-0.899122-2.497561-2.597464s-3.796293-4.195902-6.793366-7.692488-5.095024-5.994146-6.393756-7.492683v9.39083c0 1.798244 0.099902 3.29678 0.199805 4.295805 0.199805 0.999024 0.599415 1.798244 1.398634 2.297756 0.79922 0.499512 1.498537 0.699317 2.197854 0.699317 0.39961 0 0.599415 0.199805 0.599415 0.499512 0 0.39961-0.199805 0.599415-0.699317 0.599415-0.299707 0-0.599415 0-1.098927-0.099903-0.699317-0.099902-1.698341-0.099902-2.797269-0.099902-1.798244 0-3.096976 0.099902-3.996097 0.199805-0.499512 0.099902-0.899122 0.099902-1.098927 0.099902-0.499512 0-0.699317-0.199805-0.699317-0.599415 0-0.299707 0.39961-0.499512 1.198829-0.499512 1.398634-0.099902 2.197854-0.599415 2.597464-1.498536 0.299707-0.899122 0.499512-1.998049 0.499512-3.496586 0-6.393756 0-10.389854-0.099903-11.788488s-0.499512-2.697366-1.298731-3.896195c-0.79922-1.198829-1.798244-1.898146-2.897171-2.097951-0.499512-0.099902-0.699317-0.299707-0.699317-0.599415 0-0.39961 0.299707-0.599415 0.699317-0.599414h1.998049c1.698341-0.099902 3.196878-0.099902 4.595512-0.099903z m47.054049 2.097952l0.499512 5.294829v0.599415c0 0.39961-0.199805 0.599415-0.499512 0.599414s-0.599415-0.199805-0.79922-0.599414c-0.999024-1.998049-2.197854-3.596488-3.796292-4.795318-1.598439-1.198829-3.396683-1.898146-5.394732-1.898146-2.597463 0-4.695415 1.098927-6.193951 3.296781s-2.197854 4.795317-2.197854 7.79239c0 3.29678 0.79922 6.094049 2.497561 8.192 1.598439 2.097951 3.596488 3.196878 5.794341 3.196878 0.899122 0 1.898146-0.199805 2.897171-0.699317 0.999024-0.39961 1.598439-0.899122 1.898146-1.398634s0.39961-1.198829 0.39961-2.097952c0-2.097951-0.099902-3.396683-0.199805-3.896195-0.199805-0.499512-0.39961-0.899122-0.799219-1.098926s-1.198829-0.39961-2.297756-0.499513c-0.499512 0-0.699317-0.199805-0.699317-0.499512 0-0.39961 0.199805-0.499512 0.599414-0.499512h2.797269l8.491707-0.199805c0.39961 0 0.599415 0.199805 0.599415 0.499512 0 0.199805-0.099902 0.299707-0.199805 0.39961-0.099902 0.099902-0.699317 0.199805-1.498537 0.39961-0.699317 0.099902-1.098927 0.39961-1.298732 0.699317-0.199805 0.299707-0.299707 2.097951-0.399609 5.594536 0 0.79922-0.099902 1.198829-0.099903 1.298732 0 0.099902-0.79922 0.499512-2.197854 1.298732-1.398634 0.699317-2.897171 1.298732-4.395707 1.698341-1.498537 0.39961-2.997073 0.499512-4.49561 0.499512-2.497561 0-4.795317-0.499512-6.793365-1.498536s-3.596488-2.397659-4.795318-4.195903c-1.198829-1.798244-1.798244-3.996098-1.798243-6.493658 0-3.496585 1.198829-6.593561 3.69639-9.191024 2.397659-2.597463 5.794341-3.896195 9.990244-3.896196 1.498537 0 2.897171 0.199805 4.096 0.499513 1.198829 0.39961 2.597463 0.899122 4.096 1.598439 0.299707 0.099902 0.599415 0.199805 0.799219 0.199805 0.199805 0 0.39961-0.199805 0.599415-0.499513 0.199805-0.499512 0.39961-0.699317 0.699317-0.699317 0.099902-0.099902 0.299707 0.199805 0.39961 0.999025z m19.480975-0.899122c0.199805-0.199805 0.299707-0.39961 0.499513-0.699317 0.199805-0.39961 0.39961-0.599415 0.599414-0.599415 0.299707 0 0.499512 0.299707 0.599415 0.799219l0.599414 4.995122 0.099903 0.599415c0 0.299707-0.199805 0.499512-0.499512 0.499512-0.199805 0-0.39961-0.099902-0.499513-0.199805s-0.299707-0.499512-0.599414-1.098926c-0.499512-1.098927-1.398634-2.097951-2.597464-2.897171-1.198829-0.899122-2.397659-1.298732-3.596487-1.298732s-2.197854 0.299707-2.897171 0.999025c-0.79922 0.699317-1.198829 1.498537-1.198829 2.597463 0 0.79922 0.39961 1.598439 1.098926 2.197854 0.699317 0.699317 2.097951 1.298732 4.195903 1.898146 3.196878 0.899122 5.394732 2.097951 6.593561 3.496585 1.098927 1.398634 1.698341 2.897171 1.698341 4.595512s-0.39961 3.196878-1.298731 4.295805c-0.79922 1.198829-1.798244 2.097951-2.997074 2.697366-1.198829 0.699317-2.697366 0.999024-4.495609 0.999025-0.999024 0-2.097951-0.199805-3.196878-0.39961-1.098927-0.299707-2.197854-0.79922-3.396683-1.398634-0.199805 0.299707-0.39961 0.599415-0.599415 1.098927s-0.39961 0.79922-0.699317 0.799219c-0.299707 0-0.499512-0.299707-0.499512-0.999024l-0.499512-6.693464v-0.599414c0-0.39961 0.199805-0.499512 0.499512-0.499513s0.499512 0.299707 0.799219 0.899122c0.699317 1.798244 1.698341 3.396683 2.997073 4.595513 1.298732 1.198829 2.697366 1.798244 4.395708 1.798243 1.398634 0 2.597463-0.39961 3.496585-1.298731 0.899122-0.899122 1.298732-1.798244 1.298732-2.897171 0-1.098927-0.39961-1.998049-1.198829-2.797268-0.79922-0.699317-2.297756-1.498537-4.395708-2.097951-1.998049-0.699317-3.596488-1.298732-4.595512-1.898147-0.999024-0.599415-1.798244-1.498537-2.397658-2.497561-0.599415-1.098927-0.899122-2.197854-0.899122-3.29678 0-1.898146 0.699317-3.596488 2.197853-4.89522s3.496585-1.998049 5.994147-1.998049c1.298732 0 3.196878 0.39961 5.394731 1.19883z m6.593561-1.298732l5.994147 0.199805c0.599415 0 1.198829 0 1.898146-0.099903 1.198829-0.099902 2.097951-0.099902 2.697366-0.099902s0.899122 0.199805 0.899122 0.499512-0.199805 0.499512-0.699317 0.499512c-0.899122 0-1.598439 0.39961-1.998049 0.999025s-0.699317 1.798244-0.79922 3.596488c-0.099902 1.798244-0.199805 3.896195-0.199804 5.994146 0 3.496585 0.199805 5.894244 0.499512 7.093073s1.098927 2.197854 2.197853 2.897171c1.098927 0.699317 2.597463 1.098927 4.395708 1.098927s3.196878-0.39961 4.195902-1.19883c0.899122-0.79922 1.598439-1.998049 1.898146-3.69639 0.39961-1.698341 0.499512-4.795317 0.499513-9.390829 0-2.697366-0.199805-4.595512-0.599415-5.594537s-1.098927-1.598439-2.197854-1.698341c-0.699317-0.099902-1.098927-0.299707-1.098926-0.699317s0.299707-0.499512 0.899122-0.499512c0.299707 0 0.79922 0 1.398634 0.099902 0.699317 0.099902 1.398634 0.099902 2.197853 0.099902 0.699317 0 1.498537 0 2.297756-0.099902 0.599415-0.099902 1.098927-0.099902 1.298732-0.099902 0.599415 0 0.899122 0.199805 0.899122 0.499512s-0.199805 0.499512-0.699317 0.499512c-0.599415 0.099902-1.198829 0.39961-1.698341 0.899122s-0.79922 1.398634-0.999025 2.597463c-0.099902 1.198829-0.199805 4.195902-0.199805 9.091122 0 3.196878-0.299707 5.594537-0.999024 6.993171-0.599415 1.398634-1.798244 2.597463-3.396683 3.396683s-3.596488 1.198829-5.994146 1.198829c-1.798244 0-3.396683-0.199805-4.795317-0.499512s-2.397659-0.79922-3.196879-1.498537c-0.79922-0.699317-1.398634-1.498537-1.698341-2.397658-0.39961-0.899122-0.499512-2.197854-0.499512-3.996098l0.099902-9.890341c0-1.398634-0.099902-2.497561-0.199805-3.396683-0.199805-0.899122-0.39961-1.498537-0.699317-1.798244-0.299707-0.299707-0.79922-0.499512-1.498536-0.499512-0.39961-0.099902-0.699317-0.099902-0.79922-0.199805-0.099902-0.099902-0.199805-0.199805-0.199805-0.39961 0.099902-0.299707 0.39961-0.499512 0.899122-0.499512z m46.854244 11.688585h0.699317c1.098927 0 2.097951-0.199805 3.196878-0.599414 1.098927-0.39961 1.898146-1.098927 2.297756-1.898147 0.39961-0.899122 0.699317-1.798244 0.699317-2.797268 0-1.598439-0.499512-2.797268-1.398634-3.596488-0.899122-0.899122-2.097951-1.298732-3.496585-1.298731-0.599415 0-1.298732 0.099902-1.998049 0.299707v9.890341z m4.995122 0.79922c1.698341 0.199805 2.997073 0.699317 4.096 1.498536s1.898146 2.297756 2.397659 4.695415c0.499512 2.197854 1.098927 3.596488 1.598439 4.295805 0.599415 0.699317 1.398634 1.098927 2.397658 1.098927 0.599415 0 0.899122 0.199805 0.899122 0.599414 0 0.39961-0.499512 0.499512-1.398634 0.499513l-7.093073-0.199805c-0.699317-0.699317-1.198829-2.097951-1.498537-3.996098-0.299707-2.497561-0.699317-4.195902-1.098927-5.194927s-0.899122-1.698341-1.698341-2.197853c-0.699317-0.39961-1.598439-0.699317-2.597463-0.699317-0.299707 0-0.699317 0-1.19883 0.099902v8.092098c0 0.999024 0.199805 1.698341 0.599415 2.197853 0.39961 0.39961 1.098927 0.699317 2.097951 0.699317 0.599415 0 0.79922 0.199805 0.79922 0.599415 0 0.299707-0.199805 0.499512-0.699317 0.499512l-5.394732-0.099902c-0.79922 0-1.698341 0-2.897171 0.099902-1.098927 0.099902-1.798244 0.099902-2.097951 0.099903-0.499512 0-0.79922-0.199805-0.79922-0.499513 0-0.39961 0.199805-0.499512 0.699318-0.499512 0.699317 0 1.298732-0.199805 1.898146-0.499512s0.899122-1.798244 0.899122-4.395707v-10.190049c0-3.496585-0.199805-5.594537-0.39961-6.293854-0.299707-0.79922-1.098927-1.198829-2.397658-1.198829-0.499512 0-0.79922-0.199805-0.79922-0.499512 0-0.39961 0.299707-0.499512 0.999024-0.499512 3.496585 0 6.393756-0.099902 8.791415-0.199805 1.098927-0.099902 1.998049-0.099902 2.897171-0.099903 2.797268 0 4.995122 0.599415 6.593561 1.698342 1.598439 1.098927 2.397659 2.597463 2.397658 4.395707 0 1.198829-0.39961 2.297756-1.098927 3.296781s-1.698341 1.698341-2.797268 2.197853c-1.198829 0.099902-2.497561 0.39961-4.096 0.599415z m13.386927-12.487805l5.994146 0.199805c0.599415 0 1.198829 0 1.898147-0.099903 1.198829-0.099902 2.097951-0.099902 2.697366-0.099902s0.899122 0.199805 0.899121 0.499512-0.199805 0.499512-0.699317 0.499512c-0.899122 0-1.598439 0.39961-1.998048 0.999025s-0.699317 1.798244-0.79922 3.596488c-0.099902 1.798244-0.199805 3.896195-0.199805 5.994146 0 3.496585 0.199805 5.894244 0.499512 7.093073s1.098927 2.197854 2.197854 2.897171c1.098927 0.699317 2.597463 1.098927 4.395707 1.098927s3.196878-0.39961 4.195903-1.19883c0.899122-0.79922 1.598439-1.998049 1.898146-3.69639 0.39961-1.698341 0.499512-4.795317 0.499512-9.390829 0-2.697366-0.199805-4.595512-0.599414-5.594537s-1.098927-1.598439-2.197854-1.698341c-0.699317-0.099902-1.098927-0.299707-1.098927-0.699317s0.299707-0.499512 0.899122-0.499512c0.299707 0 0.79922 0 1.398634 0.099902 0.699317 0.099902 1.398634 0.099902 2.197854 0.099902 0.699317 0 1.498537 0 2.297756-0.099902 0.599415-0.099902 1.098927-0.099902 1.298732-0.099902 0.599415 0 0.899122 0.199805 0.899122 0.499512s-0.199805 0.499512-0.699317 0.499512c-0.599415 0.099902-1.198829 0.39961-1.698342 0.899122s-0.79922 1.398634-0.999024 2.597463c-0.099902 1.198829-0.199805 4.195902-0.199805 9.091122 0 3.196878-0.299707 5.594537-0.999024 6.993171-0.599415 1.398634-1.798244 2.597463-3.396683 3.396683s-3.596488 1.198829-5.994147 1.198829c-1.798244 0-3.396683-0.199805-4.795317-0.499512s-2.397659-0.79922-3.196878-1.498537-1.398634-1.498537-1.698341-2.397658c-0.39961-0.899122-0.499512-2.197854-0.499512-3.996098l0.099902-9.890341c0-1.398634-0.099902-2.497561-0.199805-3.396683-0.199805-0.899122-0.39961-1.498537-0.699317-1.798244-0.299707-0.299707-0.79922-0.499512-1.498537-0.499512-0.39961-0.099902-0.699317-0.099902-0.799219-0.199805-0.099902-0.099902-0.199805-0.199805-0.199805-0.39961 0.099902-0.299707 0.39961-0.499512 0.899122-0.499512z m52.948293 2.197854l0.499512 5.294829v0.599415c0 0.39961-0.199805 0.599415-0.499512 0.599414s-0.599415-0.199805-0.79922-0.599414c-0.999024-1.998049-2.197854-3.596488-3.796293-4.795318-1.598439-1.198829-3.396683-1.898146-5.394731-1.898146-2.597463 0-4.695415 1.098927-6.193951 3.296781s-2.197854 4.795317-2.197854 7.79239c0 3.29678 0.79922 6.094049 2.497561 8.192 1.598439 2.097951 3.596488 3.196878 5.794341 3.196878 0.899122 0 1.898146-0.199805 2.897171-0.699317 0.999024-0.39961 1.598439-0.899122 1.898146-1.398634s0.39961-1.198829 0.39961-2.097952c0-2.097951-0.099902-3.396683-0.199805-3.896195-0.199805-0.499512-0.39961-0.899122-0.799219-1.098926s-1.198829-0.39961-2.297756-0.499513c-0.499512 0-0.699317-0.199805-0.699317-0.499512 0-0.39961 0.199805-0.499512 0.599414-0.499512h2.797269l8.491707-0.199805c0.39961 0 0.599415 0.199805 0.599414 0.499512 0 0.199805-0.099902 0.299707-0.199804 0.39961-0.099902 0.099902-0.699317 0.199805-1.498537 0.39961-0.699317 0.099902-1.098927 0.39961-1.298732 0.699317-0.199805 0.299707-0.299707 2.097951-0.399609 5.594536 0 0.79922-0.099902 1.198829-0.099903 1.298732 0 0.099902-0.79922 0.499512-2.197854 1.298732-1.398634 0.699317-2.897171 1.298732-4.395707 1.698341-1.498537 0.39961-2.997073 0.499512-4.49561 0.499512-2.497561 0-4.795317-0.499512-6.793365-1.498536s-3.596488-2.397659-4.795318-4.195903c-1.198829-1.798244-1.798244-3.996098-1.798243-6.493658 0-3.496585 1.198829-6.593561 3.69639-9.191024 2.397659-2.597463 5.794341-3.896195 9.990244-3.896196 1.498537 0 2.897171 0.199805 4.096 0.499513 1.198829 0.39961 2.597463 0.899122 4.096 1.598439 0.299707 0.099902 0.599415 0.199805 0.799219 0.199805 0.199805 0 0.39961-0.199805 0.599415-0.499513 0.199805-0.499512 0.39961-0.699317 0.699317-0.699317 0.099902-0.099902 0.299707 0.199805 0.39961 0.999025z m15.384975 3.596487l-3.196878 8.192 6.493659-0.099902c-0.299707-0.999024-0.899122-2.297756-1.598439-3.996098-0.79922-1.698341-1.398634-3.096976-1.698342-4.096z m1.19883-6.393756h1.198829c1.598439 3.496585 3.896195 8.99122 6.793366 16.483903 1.298732 3.496585 2.297756 5.594537 2.797268 6.293853s1.298732 1.198829 2.397658 1.298732c0.39961 0 0.499512 0.199805 0.499513 0.499512 0 0.39961-0.199805 0.599415-0.699317 0.599415-0.299707 0-0.899122 0-1.998049-0.099902-1.298732-0.099902-2.297756-0.199805-3.196878-0.199805-0.79922 0-1.898146 0-3.296781 0.099902-0.999024 0.099902-1.698341 0.099902-1.998048 0.099903-0.599415 0-0.79922-0.199805-0.79922-0.499513s0.199805-0.39961 0.599415-0.499512c1.498537-0.099902 2.197854-0.699317 2.197853-1.798244 0-0.499512-0.199805-1.398634-0.699317-2.697366-0.39961-1.298732-0.899122-2.497561-1.398634-3.596487h-7.492683c-0.999024 2.897171-1.598439 4.795317-1.598439 5.694439 0 0.699317 0.299707 1.198829 0.79922 1.598439 0.499512 0.39961 1.098927 0.599415 1.698341 0.599414 0.499512 0.099902 0.699317 0.199805 0.699317 0.599415 0 0.299707-0.199805 0.499512-0.699317 0.499512-0.199805 0-0.699317 0-1.498536-0.099902-1.098927-0.099902-1.798244-0.099902-2.297757-0.099903-0.999024 0-1.898146 0.099902-2.697365 0.199805-0.199805 0-0.39961 0.099902-0.499513 0.099903-0.39961 0-0.699317-0.199805-0.699317-0.599415 0-0.299707 0.099902-0.39961 0.39961-0.499512 0.699317-0.199805 1.298732-0.499512 1.698342-0.79922 0.39961-0.299707 0.899122-0.899122 1.298731-1.798244 0.499512-0.899122 1.098927-2.297756 1.698342-4.195902 1.598439-4.096 3.896195-9.890341 6.793366-17.18322z m35.165658 13.187122c0-3.69639-0.599415-6.493659-1.898146-8.391805-1.298732-1.898146-2.897171-2.797268-4.795317-2.797268s-3.496585 0.999024-4.795317 2.797268c-1.298732 1.898146-1.898146 4.695415-1.898147 8.391805 0 3.596488 0.599415 6.393756 1.798244 8.291903 1.198829 1.998049 2.797268 2.997073 4.795317 2.997073 1.798244 0 3.396683-0.899122 4.695415-2.697366 1.398634-1.798244 2.097951-4.695415 2.097951-8.59161z m-6.393756-12.587707c2.497561 0 4.595512 0.499512 6.493659 1.498537s3.29678 2.397659 4.495609 4.295804c1.098927 1.898146 1.698341 3.996098 1.698342 6.193952 0 3.496585-1.298732 6.493659-3.796293 9.191024-2.597463 2.697366-5.694439 3.996098-9.490732 3.996098-3.396683 0-6.393756-1.098927-8.791414-3.296781-2.397659-2.197854-3.69639-5.194927-3.696391-8.991219 0-3.596488 1.298732-6.593561 3.796293-9.091122 2.397659-2.497561 5.494634-3.796293 9.290927-3.796293z m33.866927 11.688585h0.699317c1.098927 0 2.097951-0.199805 3.196878-0.599414 1.098927-0.39961 1.898146-1.098927 2.297756-1.898147 0.39961-0.899122 0.699317-1.798244 0.699317-2.797268 0-1.598439-0.499512-2.797268-1.398634-3.596488-0.899122-0.899122-2.097951-1.298732-3.496585-1.298731-0.599415 0-1.298732 0.099902-1.998049 0.299707v9.890341z m4.995122 0.79922c1.698341 0.199805 2.997073 0.699317 4.096 1.498536s1.898146 2.297756 2.397658 4.695415c0.499512 2.197854 1.098927 3.596488 1.598439 4.295805 0.599415 0.699317 1.398634 1.098927 2.397659 1.098927 0.599415 0 0.899122 0.199805 0.899122 0.599414 0 0.39961-0.499512 0.499512-1.398634 0.499513l-7.093074-0.199805c-0.699317-0.699317-1.198829-2.097951-1.498536-3.996098-0.299707-2.497561-0.699317-4.195902-1.098927-5.194927-0.39961-0.999024-0.899122-1.698341-1.698341-2.197853-0.699317-0.39961-1.598439-0.699317-2.597464-0.699317-0.299707 0-0.699317 0-1.198829 0.099902v8.092098c0 0.999024 0.199805 1.698341 0.599415 2.197853 0.39961 0.39961 1.098927 0.699317 2.097951 0.699317 0.599415 0 0.79922 0.199805 0.799219 0.599415 0 0.299707-0.199805 0.499512-0.699317 0.499512l-5.694439-0.199805c-0.79922 0-1.698341 0-2.897171 0.099903-1.098927 0.099902-1.798244 0.099902-2.097951 0.099902-0.499512 0-0.79922-0.199805-0.799219-0.499512 0-0.39961 0.199805-0.499512 0.699317-0.499512 0.699317 0 1.298732-0.199805 1.898146-0.499512s0.899122-1.798244 0.899122-4.395708V564.44878c0-3.496585-0.199805-5.594537-0.39961-6.293853-0.299707-0.79922-1.098927-1.198829-2.397658-1.198829-0.499512 0-0.79922-0.199805-0.79922-0.499513 0-0.39961 0.299707-0.499512 0.999025-0.499512 3.496585 0 6.393756-0.099902 8.791414-0.199805 1.098927-0.099902 1.998049-0.099902 2.897171-0.099902 2.797268 0 4.995122 0.599415 6.593561 1.698341 1.598439 1.098927 2.397659 2.597463 2.397659 4.395708 0 1.198829-0.39961 2.297756-1.098927 3.29678-0.699317 0.999024-1.698341 1.698341-2.797269 2.197854-0.899122 0.199805-2.197854 0.499512-3.796292 0.699317z m13.386927-12.487805l5.994146 0.199805c0.599415 0 1.198829 0 1.898146-0.099903 1.198829-0.099902 2.097951-0.099902 2.697366-0.099902 0.599415 0 0.899122 0.199805 0.899122 0.499512s-0.199805 0.499512-0.699317 0.499512c-0.899122 0-1.598439 0.39961-1.998049 0.999025s-0.699317 1.798244-0.799219 3.596488c-0.099902 1.798244-0.199805 3.896195-0.199805 5.994146 0 3.496585 0.199805 5.894244 0.499512 7.093073s1.098927 2.197854 2.197854 2.897171c1.098927 0.699317 2.597463 1.098927 4.395707 1.098927 1.798244 0 3.196878-0.39961 4.195902-1.19883 0.899122-0.79922 1.598439-1.998049 1.898147-3.69639 0.39961-1.698341 0.499512-4.795317 0.499512-9.390829 0-2.697366-0.199805-4.595512-0.599415-5.594537-0.39961-0.999024-1.098927-1.598439-2.197853-1.698341-0.699317-0.099902-1.098927-0.299707-1.098927-0.699317s0.299707-0.499512 0.899122-0.499512c0.299707 0 0.79922 0 1.398634 0.099902 0.699317 0.099902 1.398634 0.099902 2.197854 0.099902 0.699317 0 1.498537 0 2.297756-0.099902 0.599415-0.099902 1.098927-0.099902 1.298731-0.099902 0.599415 0 0.899122 0.199805 0.899122 0.499512s-0.199805 0.499512-0.699317 0.499512c-0.599415 0.099902-1.198829 0.39961-1.698341 0.899122s-0.79922 1.398634-0.999025 2.597463c-0.099902 1.198829-0.199805 4.195902-0.199804 9.091122 0 3.196878-0.299707 5.594537-0.999025 6.993171-0.599415 1.398634-1.798244 2.597463-3.396683 3.396683-1.598439 0.79922-3.596488 1.198829-5.994146 1.198829-1.798244 0-3.396683-0.199805-4.795317-0.499512s-2.397659-0.79922-3.196878-1.498537-1.398634-1.498537-1.698342-2.397658c-0.39961-0.899122-0.499512-2.197854-0.499512-3.996098l0.099903-9.890341c0-1.398634-0.099902-2.497561-0.199805-3.396683-0.199805-0.899122-0.39961-1.498537-0.699317-1.798244s-0.79922-0.499512-1.498537-0.499512c-0.39961-0.099902-0.699317-0.099902-0.799219-0.199805s-0.199805-0.199805-0.199805-0.39961c0.099902-0.299707 0.39961-0.499512 0.899122-0.499512z m36.564292 11.688585h0.699317c1.098927 0 2.097951-0.199805 3.196878-0.599414 1.098927-0.39961 1.898146-1.098927 2.297756-1.898147 0.39961-0.899122 0.699317-1.798244 0.699318-2.797268 0-1.598439-0.499512-2.797268-1.398635-3.596488-0.899122-0.899122-2.097951-1.298732-3.496585-1.298731-0.599415 0-1.298732 0.099902-1.998049 0.299707v9.890341z m5.095025 0.79922c1.698341 0.199805 2.997073 0.699317 4.096 1.498536s1.898146 2.297756 2.397658 4.695415c0.499512 2.197854 1.098927 3.596488 1.598439 4.295805 0.599415 0.699317 1.398634 1.098927 2.397659 1.098927 0.599415 0 0.899122 0.199805 0.899122 0.599414 0 0.39961-0.499512 0.499512-1.398634 0.499513l-7.093074-0.199805c-0.699317-0.699317-1.198829-2.097951-1.498536-3.996098-0.299707-2.497561-0.699317-4.195902-1.098927-5.194927-0.39961-0.999024-0.899122-1.698341-1.698341-2.197853-0.699317-0.39961-1.598439-0.699317-2.597464-0.699317-0.299707 0-0.699317 0-1.198829 0.099902v8.092098c0 0.999024 0.199805 1.698341 0.599414 2.197853 0.39961 0.39961 1.098927 0.699317 2.097952 0.699317 0.599415 0 0.79922 0.199805 0.799219 0.599415 0 0.299707-0.199805 0.499512-0.699317 0.499512l-5.694439-0.199805c-0.79922 0-1.698341 0-2.897171 0.099903-1.098927 0.099902-1.798244 0.099902-2.097951 0.099902-0.499512 0-0.79922-0.199805-0.799219-0.499512 0-0.39961 0.199805-0.499512 0.699317-0.499512 0.699317 0 1.298732-0.199805 1.898146-0.499512 0.599415-0.299707 0.899122-1.798244 0.899122-4.395708V564.44878c0-3.496585-0.199805-5.594537-0.499512-6.293853-0.299707-0.79922-1.098927-1.198829-2.397659-1.198829-0.499512 0-0.79922-0.199805-0.799219-0.499513 0-0.39961 0.299707-0.499512 0.999024-0.499512 3.496585 0 6.393756-0.099902 8.791415-0.199805 1.098927-0.099902 1.998049-0.099902 2.897171-0.099902 2.797268 0 4.995122 0.599415 6.59356 1.698341 1.598439 1.098927 2.397659 2.597463 2.397659 4.395708 0 1.198829-0.39961 2.297756-1.098927 3.29678-0.699317 0.999024-1.698341 1.698341-2.797268 2.197854-0.899122 0.199805-2.197854 0.499512-3.69639 0.699317z m22.677853-6.693464l-3.196878 8.192 6.493659-0.099902c-0.299707-0.999024-0.899122-2.297756-1.598439-3.996098-0.79922-1.698341-1.398634-3.096976-1.698342-4.096z m1.19883-6.393756h1.198829c1.598439 3.496585 3.896195 8.99122 6.793366 16.483903 1.298732 3.496585 2.297756 5.594537 2.797268 6.293853s1.298732 1.198829 2.397659 1.298732c0.39961 0 0.499512 0.199805 0.499512 0.499512 0 0.39961-0.199805 0.599415-0.699317 0.599415-0.299707 0-0.899122 0-1.998049-0.099902-1.298732-0.099902-2.297756-0.199805-3.196878-0.199805-0.79922 0-1.898146 0-3.296781 0.099902-0.999024 0.099902-1.698341 0.099902-1.998048 0.099903-0.599415 0-0.79922-0.199805-0.79922-0.499513s0.199805-0.39961 0.599415-0.499512c1.498537-0.099902 2.197854-0.699317 2.197853-1.798244 0-0.499512-0.199805-1.398634-0.699317-2.697366-0.39961-1.298732-0.899122-2.497561-1.398634-3.596487h-7.492683c-0.999024 2.897171-1.598439 4.795317-1.598439 5.694439 0 0.699317 0.299707 1.198829 0.79922 1.598439 0.499512 0.39961 1.098927 0.599415 1.698341 0.599414 0.499512 0.099902 0.699317 0.199805 0.699317 0.599415 0 0.299707-0.199805 0.499512-0.699317 0.499512-0.199805 0-0.699317 0-1.498536-0.099902-1.098927-0.099902-1.798244-0.099902-2.297757-0.099903-0.999024 0-1.898146 0.099902-2.697365 0.199805-0.199805 0-0.39961 0.099902-0.499513 0.099903-0.39961 0-0.699317-0.199805-0.699317-0.599415 0-0.299707 0.099902-0.39961 0.39961-0.499512 0.699317-0.199805 1.298732-0.499512 1.698342-0.79922 0.39961-0.299707 0.899122-0.899122 1.298731-1.798244 0.499512-0.899122 1.098927-2.297756 1.698342-4.195902 1.598439-4.096 3.896195-9.890341 6.793366-17.18322z m35.465365 25.175415c-2.997073-0.199805-7.79239-0.199805-14.186146-0.199805-2.197854 0-4.096 0.099902-5.494634 0.199805h-0.699317c-0.499512 0-0.699317-0.199805-0.699317-0.599415 0-0.199805 0.099902-0.299707 0.199805-0.399609 0.099902-0.099902 0.39961-0.099902 0.899122-0.199805 0.79922-0.099902 1.298732-0.299707 1.698341-0.699317 0.39961-0.299707 0.699317-0.79922 0.79922-1.498537 0.199805-0.699317 0.299707-2.397659 0.299707-5.095024v-9.790439c0-1.498537-0.099902-2.597463-0.299707-3.296781s-0.499512-1.198829-0.899122-1.498536-0.999024-0.499512-1.698342-0.499513c-0.499512 0-0.79922-0.199805-0.799219-0.599414 0-0.39961 0.299707-0.599415 0.899122-0.599415l6.094048 0.199805c0.899122 0 2.197854 0 3.896196-0.099902h1.198829c0.499512 0 0.79922 0.199805 0.799219 0.499512 0 0.199805-0.099902 0.299707-0.199805 0.399609-0.199805 0.099902-0.599415 0.199805-1.198829 0.299708-0.79922 0.099902-1.398634 0.299707-1.698341 0.599414s-0.599415 0.79922-0.699317 1.598439c-0.099902 0.79922-0.199805 2.497561-0.199805 5.095025v11.189073c0 1.698341 0.199805 2.697366 0.499512 3.096976 0.299707 0.299707 0.79922 0.499512 1.698341 0.499512 1.998049 0 3.496585-0.199805 4.49561-0.499512s1.898146-0.899122 2.797268-1.698342c0.899122-0.79922 1.798244-2.197854 2.797269-4.096 0.199805-0.39961 0.39961-0.599415 0.599414-0.599414 0.299707 0 0.499512 0.199805 0.499513 0.499512-0.099902 0.899122-0.499512 3.496585-1.398635 7.79239z m32.867903-22.577951c0.299707-0.299707 0.499512-0.699317 0.799219-1.098927 0.299707-0.499512 0.599415-0.699317 0.79922-0.699317s0.39961 0.099902 0.499512 0.199805c0.099902 0.099902 0.099902 0.499512 0.199805 1.098927l0.39961 5.794341v0.699317c0 0.499512-0.199805 0.699317-0.599415 0.699317-0.299707 0-0.499512-0.199805-0.599415-0.599414-0.499512-1.298732-1.398634-2.697366-2.697365-4.295805-1.298732-1.598439-2.897171-2.397659-4.89522-2.397659-1.498537 0-2.697366 0.39961-3.69639 1.298732s-1.798244 1.998049-2.297756 3.496585c-0.599415 1.498537-0.79922 3.29678-0.79922 5.294829 0 3.596488 0.79922 6.393756 2.297756 8.491708s3.496585 3.096976 5.694439 3.096975c2.497561 0 4.795317-1.498537 6.793366-4.595512 0.299707-0.39961 0.499512-0.599415 0.699317-0.599414 0.39961 0 0.599415 0.199805 0.599415 0.599414 0 0.79922-0.999024 2.097951-2.897171 3.896195-1.898146 1.798244-4.295805 2.697366-7.192975 2.697366-3.796293 0-6.793366-1.198829-8.99122-3.596488s-3.29678-5.294829-3.29678-8.791414 1.098927-6.493659 3.29678-8.99122c2.197854-2.597463 4.995122-3.796293 8.391805-3.796292 2.597463 0.099902 5.095024 0.79922 7.492683 2.097951z m25.175415 10.589658c0-3.69639-0.599415-6.493659-1.898147-8.391805-1.298732-1.898146-2.897171-2.797268-4.795317-2.797268s-3.496585 0.999024-4.795317 2.797268c-1.298732 1.898146-1.898146 4.695415-1.898146 8.391805 0 3.596488 0.599415 6.393756 1.798244 8.291903 1.198829 1.998049 2.797268 2.997073 4.795317 2.997073 1.798244 0 3.396683-0.899122 4.695414-2.697366 1.398634-1.798244 2.097951-4.695415 2.097952-8.59161z m-6.393757-12.587707c2.497561 0 4.595512 0.499512 6.493659 1.498537s3.29678 2.397659 4.49561 4.295804c1.098927 1.898146 1.698341 3.996098 1.698341 6.193952 0 3.496585-1.298732 6.493659-3.796293 9.191024-2.597463 2.697366-5.694439 3.996098-9.490731 3.996098-3.396683 0-6.393756-1.098927-8.791415-3.296781-2.397659-2.197854-3.69639-5.194927-3.69639-8.991219 0-3.596488 1.298732-6.593561 3.796293-9.091122 2.397659-2.497561 5.594537-3.796293 9.290926-3.796293z m23.676878 0.199805c0.299707 0.79922 0.899122 1.998049 1.798244 3.596488s1.698341 3.29678 2.497561 4.995122 1.798244 3.496585 2.797269 5.394731c0.79922 1.498537 1.298732 2.397659 1.398634 2.597464 3.096976-6.893268 5.394732-12.387902 6.993171-16.583805 2.897171 0 5.694439-0.099902 8.192-0.199805h0.499512c0.499512 0 0.79922 0.199805 0.799219 0.599415 0 0.299707-0.199805 0.499512-0.599414 0.499512-1.398634 0-2.297756 0.499512-2.697366 1.398634s-0.699317 3.29678-0.699317 6.893268v8.99122c0 1.798244 0.199805 3.096976 0.699317 3.896195 0.499512 0.699317 1.298732 1.098927 2.397658 1.198829 0.499512 0 0.79922 0.199805 0.79922 0.499512 0 0.199805-0.099902 0.299707-0.299708 0.499513h-5.194926c-1.598439 0-3.69639 0.099902-6.493659 0.199804-0.199805-0.199805-0.299707-0.299707-0.299707-0.499512 0-0.299707 0.299707-0.499512 0.999024-0.599414 0.599415-0.099902 1.098927-0.299707 1.398634-0.499513 0.299707-0.199805 0.499512-0.599415 0.599415-1.198829 0.099902-0.599415 0.199805-1.398634 0.199805-2.497561l0.099902-8.192v-7.292878c-3.29678 7.79239-5.394732 12.68761-6.193951 14.785561l-1.898146 4.995122c-0.199805 0.499512-0.39961 0.79922-0.599415 0.79922-0.199805 0-0.499512-0.299707-0.799219-0.999025-0.899122-1.898146-4.096-8.092098-9.590635-18.681756-0.099902 2.997073-0.099902 7.192976-0.099902 12.288 0 2.697366 0.199805 4.395707 0.499512 5.194927 0.299707 0.699317 1.198829 1.098927 2.597464 1.298732 0.499512 0.099902 0.699317 0.199805 0.699317 0.499512s-0.199805 0.499512-0.599415 0.499512h-0.39961c-1.498537-0.099902-2.497561-0.199805-3.196878-0.199805-1.698341 0-3.096976 0.099902-3.996097 0.199805h-0.39961c-0.39961 0-0.599415-0.199805-0.599415-0.499512 0-0.199805 0.099902-0.299707 0.199805-0.39961 0.099902-0.099902 0.39961-0.199805 0.79922-0.199805 1.198829-0.199805 1.898146-0.599415 2.297756-1.298732 0.39961-0.599415 0.499512-1.698341 0.499512-3.096975l0.099902-10.489756c0-2.397659-0.099902-3.996098-0.199804-4.695415-0.099902-0.79922-0.39961-1.398634-0.899122-1.798244-0.499512-0.39961-1.298732-0.699317-2.297757-0.899122-0.39961-0.099902-0.599415-0.299707-0.599414-0.599414s0.199805-0.499512 0.699317-0.499513h0.39961c1.198829 0.099902 3.796293 0.099902 7.692487 0.099903z m35.465366 0c0.299707 0.79922 0.899122 1.998049 1.798244 3.596488s1.698341 3.29678 2.497561 4.995122 1.798244 3.496585 2.797268 5.394731c0.79922 1.498537 1.298732 2.397659 1.398635 2.597464 3.096976-6.893268 5.394732-12.387902 6.99317-16.583805 2.897171 0 5.694439-0.099902 8.192-0.199805h0.499513c0.499512 0 0.79922 0.199805 0.799219 0.599415 0 0.299707-0.199805 0.499512-0.599415 0.499512-1.398634 0-2.297756 0.499512-2.697365 1.398634s-0.699317 3.29678-0.699317 6.893268v8.99122c0 1.798244 0.199805 3.096976 0.699317 3.896195 0.499512 0.699317 1.298732 1.098927 2.397658 1.198829 0.499512 0 0.79922 0.199805 0.79922 0.499512 0 0.199805-0.099902 0.299707-0.299708 0.499513h-5.194927c-1.598439 0-3.69639 0.099902-6.493658 0.199804-0.199805-0.199805-0.39961-0.299707-0.39961-0.499512 0-0.299707 0.299707-0.499512 0.999025-0.599414 0.599415-0.099902 1.098927-0.299707 1.398634-0.499513 0.299707-0.199805 0.499512-0.599415 0.599414-1.198829 0.099902-0.599415 0.199805-1.398634 0.199805-2.497561l0.099903-8.192v-7.292878c-3.29678 7.79239-5.394732 12.68761-6.193952 14.785561l-1.898146 4.995122c-0.199805 0.499512-0.39961 0.79922-0.599415 0.79922-0.199805 0-0.499512-0.299707-0.799219-0.999025-0.899122-1.898146-4.096-8.092098-9.590634-18.681756-0.099902 2.997073-0.099902 7.192976-0.099903 12.288 0 2.697366 0.199805 4.395707 0.499513 5.194927 0.299707 0.699317 1.198829 1.098927 2.597463 1.298732 0.499512 0.099902 0.699317 0.199805 0.699317 0.499512s-0.199805 0.499512-0.599415 0.499512h-0.399609c-1.498537-0.099902-2.497561-0.199805-3.196878-0.199805-1.698341 0-3.096976 0.099902-3.996098 0.199805h-0.39961c-0.39961 0-0.599415-0.199805-0.599414-0.499512 0-0.199805 0.099902-0.299707 0.199805-0.39961 0.099902-0.099902 0.39961-0.199805 0.799219-0.199805 1.198829-0.199805 1.898146-0.599415 2.297756-1.298732 0.39961-0.599415 0.499512-1.698341 0.499512-3.096975l0.099903-10.489756c0-2.397659-0.099902-3.996098-0.199805-4.695415-0.099902-0.79922-0.39961-1.398634-0.899122-1.798244-0.499512-0.39961-1.298732-0.699317-2.297756-0.899122-0.39961-0.099902-0.599415-0.299707-0.599415-0.599414s0.199805-0.499512 0.699317-0.499513h0.39961c1.298732 0.099902 3.896195 0.099902 7.79239 0.099903z m46.454634 0l1.19883 5.694439c0 0.39961-0.199805 0.499512-0.499512 0.499512-0.199805 0-0.39961-0.199805-0.699318-0.499512-1.198829-1.798244-2.397659-2.997073-3.396682-3.596488-0.999024-0.599415-2.497561-0.899122-4.49561-0.899122-1.098927 0-2.097951 0.099902-3.196878 0.299707-0.199805 2.197854-0.299707 4.49561-0.299708 7.093074v2.197853h1.398635c0.899122 0 1.598439-0.099902 2.197853-0.399609 0.599415-0.199805 1.198829-0.699317 1.598439-1.498537 0.39961-0.79922 0.699317-1.298732 0.699317-1.498537 0.099902-0.39961 0.299707-0.599415 0.599415-0.599414s0.499512 0.099902 0.499512 0.399609v0.299708c-0.099902 0.79922-0.199805 2.997073-0.199805 6.793366 0 0.499512 0 0.999024 0.099903 1.398634v0.299707c0 0.299707-0.199805 0.499512-0.599415 0.499512-0.299707 0-0.499512-0.299707-0.599415-0.999024-0.199805-1.098927-0.79922-1.998049-1.698341-2.597464-0.899122-0.599415-2.197854-0.899122-4.096-0.899121-0.099902 2.097951-0.099902 3.396683-0.099902 4.096 0 2.797268 0 4.49561 0.099902 4.995121s0.39961 0.999024 0.899122 1.298732c0.499512 0.299707 1.398634 0.499512 2.697366 0.499512 4.595512 0 7.692488-1.498537 9.091122-4.495609 0.199805-0.39961 0.39961-0.599415 0.699317-0.599415s0.499512 0.099902 0.499512 0.39961c0 0.199805 0 0.39961-0.099902 0.799219l-1.19883 5.29483h-6.593561c-1.898146 0-3.596488-0.099902-5.194927-0.099903-1.598439-0.099902-2.897171-0.099902-3.796292-0.099902-0.999024 0-2.597463 0.099902-4.595512 0.199805h-0.599415c-0.599415 0-0.899122-0.199805-0.899122-0.599415 0-0.299707 0.199805-0.499512 0.699317-0.499512 1.198829 0 1.998049-0.299707 2.397659-0.999025 0.39961-0.599415 0.599415-1.998049 0.599414-3.896195l0.099903-9.490732c0-3.196878 0-5.194927-0.099903-5.994146-0.099902-0.699317-0.299707-1.198829-0.599414-1.498536-0.299707-0.299707-0.999024-0.499512-1.898147-0.599415-0.39961-0.099902-0.599415-0.199805-0.599414-0.499512 0-0.39961 0.199805-0.599415 0.699317-0.599415l4.395707 0.099903 14.885463 0.299707z m13.08722 11.48878h0.699317c1.098927 0 2.097951-0.199805 3.196878-0.599414 1.098927-0.39961 1.898146-1.098927 2.297756-1.898147 0.39961-0.899122 0.699317-1.798244 0.699317-2.797268 0-1.598439-0.499512-2.797268-1.398634-3.596488-0.899122-0.899122-2.097951-1.298732-3.496585-1.298731-0.599415 0-1.298732 0.099902-1.998049 0.299707v9.890341z m4.995122 0.79922c1.698341 0.199805 2.997073 0.699317 4.096 1.498536s1.898146 2.297756 2.397658 4.695415c0.499512 2.197854 1.098927 3.596488 1.598439 4.295805 0.599415 0.699317 1.398634 1.098927 2.397659 1.098927 0.599415 0 0.899122 0.199805 0.899122 0.599414 0 0.39961-0.499512 0.499512-1.398634 0.499513l-7.093073-0.199805c-0.699317-0.699317-1.198829-2.097951-1.498537-3.996098-0.299707-2.497561-0.699317-4.195902-1.098927-5.194927-0.39961-0.999024-0.899122-1.698341-1.698341-2.197853-0.699317-0.39961-1.598439-0.699317-2.597464-0.699317-0.299707 0-0.699317 0-1.198829 0.099902v8.092098c0 0.999024 0.199805 1.698341 0.599415 2.197853 0.39961 0.39961 1.098927 0.699317 2.097951 0.699317 0.499512 0 0.79922 0.199805 0.799219 0.599415 0 0.299707-0.199805 0.499512-0.699317 0.499512l-5.694439-0.199805c-0.79922 0-1.698341 0-2.89717 0.099903-1.098927 0.099902-1.798244 0.099902-2.097952 0.099902-0.499512 0-0.79922-0.199805-0.799219-0.499512 0-0.39961 0.199805-0.499512 0.699317-0.499512 0.699317 0 1.298732-0.199805 1.898146-0.499512 0.599415-0.299707 0.899122-1.798244 0.899122-4.395708V564.44878c0-3.496585-0.199805-5.594537-0.499512-6.293853-0.299707-0.79922-1.098927-1.198829-2.397658-1.198829-0.499512 0-0.79922-0.199805-0.79922-0.499513 0-0.39961 0.299707-0.499512 0.999024-0.499512 3.496585 0 6.393756-0.099902 8.791415-0.199805 1.098927-0.099902 1.998049-0.099902 2.897171-0.099902 2.797268 0 4.995122 0.599415 6.593561 1.698341 1.598439 1.098927 2.397659 2.597463 2.397658 4.395708 0 1.198829-0.39961 2.297756-1.098927 3.29678-0.699317 0.999024-1.698341 1.698341-2.797268 2.197854-0.899122 0.199805-2.197854 0.499512-3.69639 0.699317z m32.768-10.489756c0.299707-0.299707 0.499512-0.699317 0.799219-1.098927 0.299707-0.499512 0.599415-0.699317 0.79922-0.699317s0.39961 0.099902 0.499512 0.199805c0.099902 0.099902 0.099902 0.499512 0.199805 1.098927l0.39961 5.794341v0.699317c0 0.499512-0.199805 0.699317-0.599415 0.699317-0.299707 0-0.499512-0.199805-0.599414-0.599414-0.499512-1.298732-1.398634-2.697366-2.697366-4.295805-1.298732-1.598439-2.897171-2.397659-4.89522-2.397659-1.498537 0-2.697366 0.39961-3.69639 1.298732s-1.798244 1.998049-2.297756 3.496585-0.79922 3.29678-0.79922 5.294829c0 3.596488 0.79922 6.393756 2.297756 8.491708s3.496585 3.096976 5.694439 3.096975c2.497561 0 4.795317-1.498537 6.793366-4.595512 0.299707-0.39961 0.499512-0.599415 0.699317-0.599414 0.39961 0 0.599415 0.199805 0.599415 0.599414 0 0.79922-0.999024 2.097951-2.897171 3.896195-1.898146 1.798244-4.295805 2.697366-7.192975 2.697366-3.796293 0-6.793366-1.198829-8.99122-3.596488s-3.29678-5.294829-3.29678-8.791414 1.098927-6.493659 3.29678-8.99122c2.197854-2.597463 4.995122-3.796293 8.391805-3.796292 2.597463 0.099902 4.995122 0.79922 7.492683 2.097951z m6.293854-1.998049c0.39961 0 1.298732 0 2.597463 0.099902 0.999024 0.099902 1.798244 0.099902 2.397659 0.099903l5.494634-0.099903c0.499512 0 0.699317 0.199805 0.699317 0.499513s-0.199805 0.499512-0.599415 0.499512c-0.899122 0.099902-1.598439 0.299707-1.898146 0.499512-0.299707 0.299707-0.599415 0.899122-0.699317 1.798244-0.199805 0.999024-0.299707 3.096976-0.299708 6.493658 0 3.896195 0.099902 6.893268 0.199805 8.99122 0.099902 2.097951 0.39961 3.396683 0.699317 3.896195 0.39961 0.499512 0.999024 0.699317 1.798244 0.699317 0.599415 0 0.899122 0.199805 0.899122 0.499512 0 0.39961-0.299707 0.599415-0.999024 0." fill="#231916"></path></svg>