<svg viewBox="0 0 1024 1024" version="1.1" xmlns="http://www.w3.org/2000/svg"><path d="M225.120623 0h573.758754c123.119066 0 223.128405 100.009339 223.128405 223.128405v573.758755c0 123.119066-100.009339 223.128405-223.128405 223.128404H225.120623c-123.119066 0-223.128405-100.009339-223.128405-223.128404V223.128405C1.992218 100.009339 102.001556 0 225.120623 0z" fill="#FFFFFF"></path><path d="M392.466926 512.159377c42.633463 28.289494 81.28249 68.133852 114.751751 125.111284 23.906615-46.617899 61.360311-87.657588 116.345525-121.525291-65.743191-42.633463-94.829572-82.079377-118.736186-121.126849-30.680156 53.789883-69.727626 90.845136-112.36109 117.540856" fill="#AE935C"></path><path d="M173.322957 510.565603c0 7.570428 0.398444 14.742412 0.796887 21.914397 111.962646 12.351751 204.003113-66.141634 300.824903-193.64358 79.290272-104.392218 223.128405-124.314397 339.872374 27.492607-53.789883-115.150195-170.135409-194.838911-304.809339-194.83891-186.073152 0-336.684825 151.807004-336.684825 339.075486" fill="#EC440E"></path><path d="M547.063035 685.880778c-80.485603 103.993774-224.722179 114.353307-341.864591-42.633463 51.797665 118.337743 170.533852 201.612451 309.192217 201.612452 185.674708 0 336.286381-149.416342 336.286382-333.497277 0-5.179767 0-10.359533-0.398444-15.539299-8.765759-1.195331-17.133074-1.593774-25.500389-1.593775-101.603113 0-187.666926 74.907393-277.715175 191.651362" fill="#83120E"></path></svg>