<svg viewBox="0 0 1024 1024" version="1.1" xmlns="http://www.w3.org/2000/svg"><path d="M36.3 509.2v6c0 13.4-6 25.8-11.4 33.9-3 4.5-6.7 8.4-10.6 11.9-1.8 1.7-4.3 3.5-6.4 4.9-1.6 1.1-6.3 3.5-7.2 4.3H46c0.1-0.3 5.2-7.7 6-8.9 2-3.2 3.6-6.3 5.3-9.9 1.9-3.9 7-18 7-23.1 0.2 0.3 2.7 10.7 3.1 12.1 1 3.4 2.8 8.1 4.2 11 2 4 8.9 17 11.7 18.9h44.8c-1.1-1-5.5-3.1-7.2-4.3-2.5-1.7-4.3-3.3-6.6-5.1-3.5-2.7-8.4-8.7-10.9-12.6-6.1-9.1-10.9-21-10.9-36v-1.2c0-13.5 5.6-27.5 11.4-35.4 4-5.4 6.5-7.8 11.1-12.4 1.6-1.6 4.7-3.7 6.7-5.1 1-0.7 7.2-4 7.4-4.3H83c-1.4 2.7-4.3 5.9-6.1 8.9-1.8 3.1-3.9 6.5-5.3 9.9-1.5 3.5-3 7-4.2 10.8-0.4 1.5-2.9 11.7-3.1 12.1 0-5.1-5.1-19.2-7-23.1-1.9-3.9-8.8-16.7-11.5-18.5H0c0.3 0.4 6 3.5 7.1 4.2 2.6 1.7 4.2 3.2 6.6 4.9 3.5 2.6 8.5 8.3 11 12 5.4 8.3 11.6 20.6 11.6 34.1" fill="#E30016"></path><path d="M230.5 508.8c0-11.9-6.5-26.9-11.7-33.8-3.6-4.7-6.4-8-10.9-11.9-2.1-1.8-4.2-3.4-6.5-5-1-0.7-6.8-3.8-7.1-4.2h46.1c0 0.1 6.7 10.4 7.7 11.9 2.2 3.5 4.8 9.1 6.2 13.4 3.4 10.1 5.9 19.6 5.9 33 0 13.6-2.6 22.9-6 33.1-1.5 4.3-4 9.7-6.2 13.3-1.3 2.2-2.3 3.9-3.7 6-1.2 1.8-3.1 3.9-4 5.7h-44.9c1.2-1 5.2-3.1 7-4.3 2.2-1.5 4.5-3.1 6.4-4.9 3.9-3.6 7.6-7.4 10.6-11.9 5.2-7.8 11.4-20.6 11.4-33.5v-6.9z m-89.8 27.8v-46.7h46.6v46.7h-46.6z" fill="#F89828"></path><path d="M797.3 493.8v-7.2l-10.6 0.1 10.6 7.1z m-26.6-13.2h8c0.6 0 4.7-3.9 5-4.5h-17.3c0.5 0.7 3.7 4.5 4.3 4.5z m-18.6 15.7l14.4-9.5h-14.4v9.5z m14.9 13.2h16.3v-6.2H767v6.2z m4.5-17.3l-6.8 4.9 22-0.1-9.5-5.4 3-5h-11.7l3 5.6zM769 469v-5h9.5v5h26.2v6.8h-10.3c-0.7 0-4.8 4.3-5.2 5h15.1V516c0 2.3-3.4 5.6-5.8 5.6h-19v-4.1h17.8v-13.3l-6.6-4.1v14h-31.4v-12.8l-7.9 4.1v16.2h-7.8v-40.2h17.3c-0.5-0.7-5.1-5.8-5.6-5.8h-11.8v-4.1l0.2-2.5H769z m156.8 7.1h16.9v-5.6h-16.9v5.6z m0.1 13v0.6h17.2v-7.4h-17l-0.2 6.8z m-38.1-8.2c0-0.8 4.5-6.7 5.3-8.1 0.8-1.5 1.4-3 2.1-4.5 0.3-0.8 1.4-4.5 2.1-4.5h8.1l-2.4 5.6h11.5v7.2h-3.3l-11 0.2-2.6 3.6 16.7 0.1v6.5h-8.9v9.5h9.3v7h-8.9v9.3l8.9-1.9v6.2c0 0.8-3.1 1.2-4 1.4-1.6 0.3-2.6 0.8-4.1 1.1-1.9 0.5-6.7 2-8.4 2.1v-18.4h-10.1v-6.4h10.3v-9.7h-5.6c-1 0-3.8 3-4.8 3.7l-0.2-4.5v-5.5z m30.8 41.2l-0.4-59h31.6v32h-13.4c0.7 1.6 1.3 3.1 2.1 4.7 1 1.9 1.8 2.5 2.8 4l6.4-4.7 4.9 4.8-7.8 5.1c0.7 1 2.5 2.6 3.5 3.4 0.7 0.5 4.4 2 4.4 2.6v6.6c-5.1 0-12.1-7.2-15-10-2.6-2.6-8.1-11.9-8.5-16.4h-3.9v18.3l8.1-2.3v6.3c0 0.7-6.2 2.1-7.2 2.4-1 0.6-6.8 2.2-7.6 2.2z m-217.9-31.8l8.1-4v0.2l8.7 15.9-7.9 5.2-0.1-0.2-8.8-17.1zM960.4 480c0-0.3 5.8-6.9 6.5-7.9 1-1.3 1.9-3 2.7-4.5 0.4-0.7 1.8-4.5 2.5-4.5h8.3c0 3-6.3 12.8-7.9 14.9-1.7 2.3-3 4.3-5.3 5.9-1 0.7-5.8 4.3-6.7 4.5V480z m-516.3 36.2l17.8-17.7 5.8 6.5-17 17.1-6.6-5.9z m40.4-10.4l6.1-6.4 19.4 17-5.6 6.1-19.9-16.7z m-39.9-37.2l6.6-4.6c1.4 2.1 14.3 21.5 14.3 21.9 0 0.3-6.2 4.9-6.5 4.9-0.2 0-14.1-20.6-14.4-22.2z m542.6 5.4l0.3-8.6h33.3v8.6h-33.6z m-11 3.9l5.6-0.3h3.6c-0.4 1.7-3.1 7.2-4 8.8-0.7 1.3-4.9 6.9-4.9 7.7v28h-8.2v-19.8c-1.3 0.9-2.5 2.5-4.1 3.6-0.9 0.6-4 2.8-4.7 3v-8.3c0-0.4 8.5-9.2 9.4-10.2 2-2.1 6.6-9.5 7.3-12.5zM519 488.5c0-0.4 5.2-3.9 5.9-4.6 1.9-1.9 3.3-3.3 4.8-5.5 1.1-1.6 6.8-11.7 7-13.5h9.1c-0.2 2.3-2.2 7.5-3.2 9.2-0.6 0.9-5 7.1-5 7.2v40.4h-8.3v-30.5c-0.9 0.2-3.7 2.9-4.7 3.6-0.8 0.5-4.7 2.6-5.6 2.8v-9.1z m465 3.6l0.3-6.8h38.8v7.3h-6.7V517c0 2.4-2.9 4.6-5.6 4.6h-17.5v-6h15.4v-22h-24.6l-0.1-1.5z m-264.5-19v-8.2h10.4v8.2h5.3v7.4h-6.1v34.8c0 1.3-1.7 4.6-2.5 5.3-0.9 0.9-3.8 2.1-5.5 2.1h-21.3v-7h20v-34.9h-17v-7.6l15.1-0.2 1.6 0.1z m-38.6-0.4V464h8.1v8.7h10.8v6.8H689v7.4c0 0.9 9.1 9 10.2 10.7l-5 5.1-4.9-4.8-0.1 23.8h-7.7v-27l-8.2 12.3c-0.6-0.4-4.9-4.4-4.9-4.7 0-0.6 5.5-9.7 6.3-11.1 1.1-2.1 5.9-9.7 6.2-11h-11.7v-7.6h1.9l9.8 0.1zM473.2 492v-29.8h7.7v29.4h3.9c0.7 0 7.6-12.7 8.4-14.3 1.3-2.6 7.7-12.6 8.1-14.4l8.3 3.7-14.3 24.7h14.8v6.2h-65.8V492h28.9z m80 5.2v-25.4c0-1.3-0.5-7.8 0.6-7.8h10.1v25.8c2-0.5 7.4-6.9 8.5-8.8 1.4-2.4 3.7-9.7 3.7-13.5h9.1c-0.1 2.4-1.9 9.1-2.5 11.4-0.9 3.3-2.4 7.3-4.1 9.7-2.1 3.1-4.2 4.5-6.8 7-0.9 0.9-7.1 5.5-8.1 5.7V515h22.1v6.6h-21.1c-5.7 0-8.2 0.3-10.2-3.8-1.5-3-0.8-8.8-0.8-13-2.7 1.4-8.2 4.1-11.4 4.9v-7.4c1.2 0 5.1-1.6 6.1-2.1 1.6-0.9 3.2-2.1 4.8-3z m69.1-28.4l2.4-6.2h9.9l-2.8 6.2h27.9V482h-6.9v-6.2H630c0.2 2.6 9 17.8 10.6 18.8l11.7-9.9 5.8 5.8-13 10.6c0.2 1 4.9 5.6 6 6.5 1.8 1.4 5.7 3.9 7.7 5v8.9c-5.6-3-17.4-10.9-20.9-15.6-2.8-3.7-4.6-7.2-7-11.1-0.9-1.5-6-10.7-6.3-11.9h-0.4c-0.8 3.3-8.3 13.3-8.3 13.6v15.7l17.3-3v7.6l-25.9 4.7V503c-1.6 1.1-4 3.4-5.8 4.8-1.9 1.5-4.5 2.8-6.7 3.9v-8.1c2-0.5 12.4-10 14.3-12 2.8-2.8 9.6-11.5 10.5-15.6h-15v8.1h-8.3v-15.3h26z m209.6 30.4v-22.8-11.3c0-2.7 1.1-1.7 3.9-1.7 1.6 0 3.5-0.2 5.4-0.2v52.1h10.2v-51.8h8.7v35l10.7-25.5 8.3 3.7-12 27.5-7.1-3.3v14.4h18v6.2h-63.8v-6.1h17.7v-16l-7.4 3.7-11.2-26.9 8.2-3.1 10.4 26.1z m-462.7 9.7c3.6-4 7.1-8.7 9.4-14 2.7 1.5 4.3 2.2 6.5 3.3-2.6 6.5-5.2 11.1-9.1 15.7-2.4-2-5-3.7-6.8-5z m3.3-17.5v-6.7h23.3v-7.1l8.6 0.2 0.1 6.9h15.6v12l5.7-3.4c3.4 4.2 6.3 9 8.8 14.8-2.5 1.9-5.5 3.6-8.4 5.3-2.2-5.5-4-8.9-6.1-11.7 0 8 0.7 13.5-2.1 16.7-2.9 3.3-8.3 3.8-17.9 3.1-0.1-2.9-0.6-5-1.3-6.9 7.7 0.6 11-1 12.1-3.7 0.6-3.9 0.7-11.4 0.3-19.6h-7.9c-1.9 14.6-11.2 25-25.4 30.7-2.8-2.2-4.2-3.3-6.9-5 14-4.4 22.6-14.2 24-25.7h-22.5z m-3.8-16.2v-6.7h11.6v-6.3h7.2v6.3h24.9v-6.3h8.4v6.3h11.5v6.7h-11.5v4.3h-8.1v-4.3h-25.2v4.7h-7.2v-4.7h-11.6z m-53-9.8H355v7.6h-15.3v41.3h18.5v7.8h-46.8v-7.8h19.7V473h-15.6v-7.6zM295 522.6l-3.4-8.7c5.8-5.4 10.1-11.3 13.8-17.6l8.4 2.7c-2.1 3.9-5.4 9.6-8.4 13.4-3.7 4.5-7 7.2-10.4 10.2z m9-28.6c-4.1-3-8.1-5.7-12.4-8.1l5.4-6.5c4.6 2.5 8.3 5.3 12.3 8L304 494z m2.4-15.5c-5-4.5-8.9-7.7-11.7-9.8l5.6-6.6c4 3.1 7.7 6.3 11.2 9.8l-5.1 6.6z m-9.1 63.1h3.8v15.2c0 0.7 0 1.3-0.1 1.7-0.1 0.5-0.2 0.9-0.4 1.3-0.3 0.5-0.6 0.9-1 1.2-0.4 0.3-0.8 0.6-1.3 0.8-0.5 0.2-1 0.4-1.6 0.5-0.6 0.1-1.1 0.1-1.8 0.1-0.6 0-1.2-0.1-1.8-0.2-0.6-0.1-1.1-0.2-1.5-0.4v-3.2c0.5 0.2 0.9 0.3 1.5 0.4 0.5 0.1 1 0.2 1.5 0.2 1 0 1.7-0.2 2.1-0.7s0.7-1.1 0.7-2v-14.9z m10.1 20.9v-20.4h3.6v20.4h-3.6z m21.7-5.2h-7.8l-2 5.2h-4.1l8.3-20.4h3.5l8.2 20.4h-4l-2.1-5.2z m-4-10.7c-0.7 2.2-1.4 4-2 5.4l-0.7 1.8h5.4l-0.7-1.8c-0.5-1.4-1.2-3.2-2-5.4z m24.9 5c1.5 2.1 2.7 3.9 3.6 5.6h0.1c-0.1-2.7-0.2-4.6-0.2-5.8v-9.3h3.8v20.4h-4l-6.8-9.4c-1.2-1.6-2.4-3.5-3.7-5.7h-0.1c0.1 2.5 0.2 4.4 0.2 5.8v9.3h-3.8v-20.4h4l6.9 9.5z m26.3 3.1h-4.7v-3.2h8.5V562c-0.3 0.1-0.7 0.2-1.2 0.4-0.5 0.1-1 0.2-1.6 0.3-0.6 0.1-1.2 0.2-1.8 0.2-0.6 0.1-1.3 0.1-1.9 0.1-1.9 0-3.5-0.2-4.9-0.7-1.4-0.5-2.6-1.2-3.5-2.1-0.9-0.9-1.6-2-2.1-3.2-0.5-1.2-0.7-2.6-0.7-4.1 0-1.1 0.1-2.1 0.4-3.1 0.2-1 0.6-1.9 1.1-2.7 0.5-0.8 1-1.6 1.7-2.2 0.7-0.7 1.4-1.2 2.3-1.7 0.9-0.5 1.8-0.8 2.8-1.1 1-0.3 2.1-0.4 3.3-0.4 1.1 0 2 0.1 3 0.2 0.9 0.2 1.7 0.3 2.3 0.5v3.2c-0.8-0.3-1.6-0.5-2.5-0.6-0.8-0.1-1.7-0.2-2.5-0.2-1.1 0-2.2 0.2-3.2 0.5s-1.8 0.8-2.6 1.5c-0.7 0.7-1.3 1.5-1.7 2.4-0.4 1-0.6 2.1-0.6 3.3 0 2.4 0.7 4.3 1.9 5.5 1.3 1.2 3.1 1.8 5.4 1.8 0.4 0 0.9 0 1.4-0.1 0.5 0 0.9-0.1 1.2-0.2v-4.8z m19.9 2c0-0.5-0.1-0.9-0.4-1.3-0.3-0.3-0.6-0.6-1-0.8-0.4-0.2-0.9-0.4-1.5-0.5-0.5-0.1-1.1-0.3-1.7-0.4-0.8-0.2-1.6-0.4-2.3-0.6-0.7-0.2-1.4-0.6-1.9-1s-1-1-1.3-1.6c-0.3-0.7-0.5-1.5-0.5-2.5 0-1.1 0.2-2 0.6-2.8 0.4-0.8 0.9-1.5 1.5-2s1.4-0.9 2.3-1.2c0.9-0.3 1.8-0.4 2.9-0.4 1.1 0 2.2 0.1 3.3 0.3 1.1 0.2 2 0.5 2.8 0.8v3.3c-1.1-0.4-2.1-0.7-3-0.9-1-0.2-1.9-0.3-2.7-0.3-1.2 0-2.2 0.2-2.8 0.7-0.7 0.5-1 1.1-1 2 0 0.5 0.1 1 0.3 1.3 0.2 0.3 0.5 0.6 0.9 0.8 0.4 0.2 0.8 0.4 1.3 0.5 0.5 0.1 1 0.3 1.6 0.4 0.9 0.2 1.7 0.4 2.5 0.6 0.8 0.2 1.5 0.6 2.1 1 0.6 0.4 1.1 1 1.4 1.7 0.4 0.7 0.5 1.6 0.5 2.7s-0.2 2.1-0.6 2.9c-0.4 0.8-1 1.5-1.7 2s-1.7 0.9-2.7 1.2c-1.1 0.3-2.2 0.4-3.5 0.4-1.1 0-2.2-0.1-3.3-0.3-1.1-0.2-2-0.5-2.7-0.9v-3.2c1 0.4 2 0.8 2.9 1 1 0.2 1.9 0.3 3 0.3 0.6 0 1.2 0 1.7-0.1 0.6-0.1 1.1-0.3 1.5-0.5 0.5-0.2 0.8-0.6 1.1-1 0.3-0.5 0.4-1 0.4-1.6z m17.9 5.8c-1.1 0-2-0.1-2.9-0.3s-1.6-0.5-2.3-0.9c-0.7-0.4-1.2-0.9-1.7-1.4-0.5-0.6-0.8-1.2-1.1-1.9-0.2-0.6-0.4-1.2-0.5-1.9-0.1-0.7-0.1-1.5-0.1-2.3v-12.2h3.8v11.7c0 1.5 0.2 2.6 0.5 3.4 0.4 0.9 1 1.6 1.7 2 0.7 0.4 1.6 0.6 2.6 0.6s1.9-0.2 2.6-0.6c0.7-0.4 1.3-1.1 1.7-2 0.3-0.8 0.5-2 0.5-3.4v-11.7h3.8v12.1c0 0.9 0 1.6-0.1 2.3-0.1 0.7-0.3 1.3-0.5 1.9-0.3 0.7-0.6 1.4-1.1 1.9-0.5 0.6-1 1-1.7 1.4-0.7 0.4-1.4 0.7-2.3 0.9-0.9 0.3-1.8 0.4-2.9 0.4z m34.9-16.2c1 1.4 1.7 2.5 2.1 3.1h0.1c0.6-0.9 1.3-1.9 2.1-3.1l3-4.2h4.4l-7.2 10.1 7.5 10.4h-4.3l-3.2-4.6c-0.8-1.1-1.5-2.2-2.2-3.2h-0.1c-0.7 1-1.4 2.1-2.2 3.2l-3.2 4.6h-4.3l7.5-10.4-7.2-10.1h4.4l2.8 4.2z m16 16.2v-20.4h3.6v20.4H465z m20.4-10.9c1.5 2.1 2.7 3.9 3.6 5.6h0.1c-0.1-2.7-0.2-4.6-0.2-5.8v-9.3h3.8v20.4h-4l-6.8-9.4c-1.2-1.6-2.4-3.5-3.7-5.7h-0.1c0.1 2.5 0.2 4.4 0.2 5.8v9.3h-3.8v-20.4h4l6.9 9.5z m26.6 3.1h-4.7v-3.2h8.5V562c-0.3 0.1-0.7 0.2-1.2 0.4-0.5 0.1-1 0.2-1.6 0.3-0.6 0.1-1.2 0.2-1.8 0.2-0.6 0.1-1.3 0.1-1.9 0.1-1.9 0-3.5-0.2-4.9-0.7-1.4-0.5-2.6-1.2-3.5-2.1-0.9-0.9-1.6-2-2.1-3.2-0.5-1.2-0.7-2.6-0.7-4.1 0-1.1 0.1-2.1 0.4-3.1 0.2-1 0.6-1.9 1.1-2.7 0.5-0.8 1-1.6 1.7-2.2 0.7-0.7 1.4-1.2 2.3-1.7 0.9-0.5 1.8-0.8 2.8-1.1 1-0.3 2.1-0.4 3.3-0.4 1.1 0 2 0.1 3 0.2 0.9 0.2 1.7 0.3 2.3 0.5v3.2c-0.8-0.3-1.6-0.5-2.5-0.6-0.8-0.1-1.7-0.2-2.5-0.2-1.1 0-2.2 0.2-3.2 0.5s-1.8 0.8-2.6 1.5c-0.7 0.7-1.3 1.5-1.7 2.4-0.4 1-0.6 2.1-0.6 3.3 0 2.4 0.7 4.3 1.9 5.5 1.3 1.2 3.1 1.8 5.4 1.8 0.4 0 0.9 0 1.4-0.1 0.5 0 0.9-0.1 1.2-0.2v-4.8z m13.1-4.2h9.6v-8.4h3.8v20.4h-3.8v-8.9h-9.6v8.9h-3.8v-20.4h3.8v8.4z m28.4 12c-1.1 0-2-0.1-2.9-0.3-0.9-0.2-1.6-0.5-2.3-0.9-0.7-0.4-1.2-0.9-1.7-1.4-0.5-0.6-0.8-1.2-1.1-1.9-0.2-0.6-0.4-1.2-0.5-1.9-0.1-0.7-0.1-1.5-0.1-2.3v-12.2h3.8v11.7c0 1.5 0.2 2.6 0.5 3.4 0.4 0.9 1 1.6 1.7 2 0.7 0.4 1.6 0.6 2.6 0.6s1.9-0.2 2.6-0.6c0.7-0.4 1.3-1.1 1.7-2 0.3-0.8 0.5-2 0.5-3.4v-11.7h3.8v12.1c0 0.9 0 1.6-0.1 2.3-0.1 0.7-0.3 1.3-0.5 1.9-0.3 0.7-0.6 1.4-1.1 1.9-0.5 0.6-1 1-1.7 1.4-0.7 0.4-1.4 0.7-2.3 0.9s-1.8 0.4-2.9 0.4z m26.7-5.2h-7.8l-2 5.2h-4.1l8.3-20.4h3.5l8.2 20.4h-4l-2.1-5.2z m-4-10.7c-0.7 2.2-1.4 4-2 5.4l-0.7 1.8h5.4l-0.7-1.8c-0.5-1.4-1.2-3.2-2-5.4z m43.8 1.6c0 1.4-0.4 2.6-1.2 3.6-0.8 1-2 1.7-3.7 2.2v0.1l6.1 8.4h-4.5l-5.6-7.9h-2.6v7.9h-3.7v-20.4h6.2c1 0 2 0.1 2.9 0.2 0.9 0.1 1.6 0.3 2.3 0.5 1.2 0.5 2.1 1.1 2.8 2 0.7 0.9 1 2.1 1 3.4z m-9.6 3c0.9 0 1.6 0 2.2-0.1 0.6-0.1 1.1-0.2 1.5-0.3 0.8-0.3 1.3-0.7 1.6-1.2 0.3-0.5 0.4-1.1 0.4-1.7 0-0.6-0.1-1.1-0.4-1.5-0.2-0.4-0.6-0.8-1.2-1-0.4-0.2-0.8-0.3-1.4-0.4-0.6-0.1-1.2-0.1-2.1-0.1h-2.7v6.4h2.1z m23.9 11.3c-1.1 0-2-0.1-2.9-0.3s-1.6-0.5-2.3-0.9c-0.7-0.4-1.2-0.9-1.7-1.4-0.5-0.6-0.8-1.2-1.1-1.9-0.2-0.6-0.4-1.2-0.5-1.9-0.1-0.7-0.1-1.5-0.1-2.3v-12.2h3.8v11.7c0 1.5 0.2 2.6 0.5 3.4 0.4 0.9 1 1.6 1.7 2 0.7 0.4 1.6 0.6 2.6 0.6s1.9-0.2 2.6-0.6c0.7-0.4 1.3-1.1 1.7-2 0.3-0.8 0.5-2 0.5-3.4v-11.7h3.8v12.1c0 0.9 0 1.6-0.1 2.3-0.1 0.7-0.3 1.3-0.5 1.9-0.3 0.7-0.6 1.4-1.1 1.9-0.5 0.6-1 1-1.7 1.4-0.7 0.4-1.4 0.7-2.3 0.9-0.8 0.3-1.8 0.4-2.9 0.4z m30.2-14.3c0 1.4-0.4 2.6-1.2 3.6-0.8 1-2 1.7-3.7 2.2v0.1l6.1 8.4h-4.5l-5.6-7.9H653v7.9h-3.7v-20.4h6.2c1 0 2 0.1 2.9 0.2 0.9 0.1 1.6 0.3 2.3 0.5 1.2 0.5 2.1 1.1 2.8 2s1 2.1 1 3.4z m-9.6 3c0.9 0 1.6 0 2.2-0.1 0.6-0.1 1.1-0.2 1.5-0.3 0.8-0.3 1.3-0.7 1.6-1.2 0.3-0.5 0.4-1.1 0.4-1.7 0-0.6-0.1-1.1-0.4-1.5-0.2-0.4-0.6-0.8-1.2-1-0.4-0.2-0.8-0.3-1.4-0.4-0.6-0.1-1.2-0.1-2.1-0.1H653v6.4h1.9z m27.5 6.1h-7.8l-2 5.2h-4.1l8.3-20.4h3.5l8.2 20.4h-4l-2.1-5.2z m-4-10.7c-0.7 2.2-1.4 4-2 5.4l-0.7 1.8h5.4l-0.7-1.8c-0.5-1.4-1.2-3.2-2-5.4z m17.9-4.5v17.3h9.8v3.1h-13.6v-20.4h3.8z m38.9 2.7c-1 0-2 0.2-2.8 0.5-0.9 0.3-1.6 0.8-2.2 1.5-0.6 0.6-1.1 1.4-1.4 2.4-0.4 0.9-0.5 2-0.5 3.2 0 1.2 0.2 2.3 0.5 3.2 0.3 0.9 0.8 1.7 1.4 2.3 0.6 0.6 1.3 1.1 2.2 1.4 0.9 0.3 1.8 0.5 2.9 0.5 0.8 0 1.6-0.1 2.4-0.2 0.8-0.1 1.6-0.3 2.3-0.5v3.2c-0.7 0.2-1.5 0.4-2.3 0.5-0.8 0.1-1.7 0.2-2.6 0.2-1.7 0-3.3-0.2-4.6-0.7-1.3-0.5-2.4-1.2-3.3-2.1-0.9-0.9-1.5-2-2-3.3-0.4-1.3-0.7-2.7-0.7-4.2 0-1.6 0.2-3 0.7-4.4 0.5-1.3 1.2-2.5 2.1-3.5 0.9-1 2-1.8 3.4-2.3 1.3-0.6 2.9-0.9 4.6-0.9 0.9 0 1.7 0.1 2.5 0.2s1.5 0.3 2.1 0.5v3.2c-0.8-0.3-1.6-0.4-2.3-0.5-1-0.1-1.7-0.2-2.4-0.2z m25 7.5c0-1.2-0.2-2.3-0.5-3.3-0.3-0.9-0.7-1.7-1.3-2.3-0.5-0.6-1.2-1.1-1.9-1.4-0.8-0.3-1.6-0.5-2.5-0.5-0.9 0-1.7 0.2-2.5 0.5-0.7 0.3-1.4 0.8-1.9 1.4-0.5 0.6-1 1.4-1.3 2.3-0.3 0.9-0.5 2-0.5 3.3 0 1.2 0.2 2.3 0.5 3.3 0.3 0.9 0.7 1.7 1.3 2.3 0.5 0.6 1.2 1.1 1.9 1.4 0.7 0.3 1.6 0.5 2.5 0.5 0.9 0 1.7-0.2 2.5-0.5 0.7-0.3 1.4-0.8 1.9-1.4 0.5-0.6 1-1.4 1.3-2.3 0.3-0.9 0.5-2 0.5-3.3z m4.1 0c0 1.6-0.2 3-0.7 4.3-0.4 1.3-1.1 2.4-1.9 3.4-0.9 0.9-1.9 1.7-3.1 2.2-1.2 0.5-2.7 0.8-4.2 0.8-1.6 0-3-0.3-4.2-0.8-1.2-0.5-2.3-1.3-3.1-2.2-0.9-0.9-1.5-2.1-1.9-3.4-0.4-1.3-0.7-2.7-0.7-4.3 0-1.6 0.2-3 0.7-4.3 0.4-1.3 1.1-2.4 1.9-3.4 0.9-0.9 1.9-1.7 3.1-2.2 1.2-0.5 2.7-0.8 4.2-0.8 1.6 0 3 0.3 4.2 0.8 1.2 0.5 2.3 1.3 3.1 2.2s1.5 2.1 1.9 3.4c0.4 1.3 0.7 2.7 0.7 4.3z m15.6 4.7c0.5-1.6 1-3.3 1.7-5.2l3.6-9.8h5.4v20.4h-3.8v-10.2c0-1.5 0.1-3.3 0.2-5.3h-0.1c-0.2 0.6-0.4 1.2-0.6 2-0.2 0.7-0.5 1.4-0.7 2.1l-4.3 11.5h-2.5l-4.4-11.5c-0.3-0.7-0.5-1.4-0.7-2.1-0.2-0.7-0.4-1.4-0.6-2h-0.1c0.1 1.9 0.2 3.6 0.2 5.3v10.4h-3.8v-20.5h5.3l3.6 9.7c0.5 1.6 1 3.4 1.6 5.2z m27.3 0c0.5-1.6 1-3.3 1.7-5.2l3.6-9.8h5.4v20.4H814v-10.2c0-1.5 0.1-3.3 0.2-5.3h-0.1c-0.2 0.6-0.4 1.2-0.6 2-0.2 0.7-0.5 1.4-0.7 2.1l-4.3 11.5H806l-4.4-11.5c-0.3-0.7-0.5-1.4-0.7-2.1-0.2-0.7-0.4-1.4-0.6-2h-0.1c0.1 1.9 0.2 3.6 0.2 5.3v10.4h-3.8v-20.5h5.3l3.6 9.7c0.5 1.6 1.1 3.4 1.7 5.2z m20.8 2.4h10.3v3.1h-14.1v-20.4h13.5v3.1H828v5.3h8.3v3.1H828v5.8z m30.4-11.2c0 1.4-0.4 2.6-1.2 3.6-0.8 1-2 1.7-3.7 2.2v0.1l6.1 8.4h-4.5l-5.6-7.9H847v7.9h-3.7v-20.4h6.2c1 0 2 0.1 2.9 0.2 0.9 0.1 1.6 0.3 2.3 0.5 1.2 0.5 2.1 1.1 2.8 2 0.6 0.9 0.9 2.1 0.9 3.4z m-9.6 3c0.9 0 1.6 0 2.2-0.1 0.6-0.1 1.1-0.2 1.5-0.3 0.8-0.3 1.3-0.7 1.6-1.2 0.3-0.5 0.4-1.1 0.4-1.7 0-0.6-0.1-1.1-0.4-1.5-0.2-0.4-0.6-0.8-1.2-1-0.4-0.2-0.8-0.3-1.4-0.4-0.6-0.1-1.2-0.1-2.1-0.1h-2.7v6.4h2.1z m25.8-6.4c-1 0-2 0.2-2.8 0.5-0.9 0.3-1.6 0.8-2.2 1.5-0.6 0.6-1.1 1.4-1.4 2.4-0.4 0.9-0.5 2-0.5 3.2 0 1.2 0.2 2.3 0.5 3.2 0.3 0.9 0.8 1.7 1.4 2.3 0.6 0.6 1.3 1.1 2.2 1.4 0.9 0.3 1.8 0.5 2.9 0.5 0.8 0 1.6-0.1 2.4-0.2 0.8-0.1 1.6-0.3 2.3-0.5v3.2c-0.7 0.2-1.5 0.4-2.3 0.5-0.8 0.1-1.7 0.2-2.6 0.2-1.7 0-3.3-0.2-4.6-0.7-1.3-0.5-2.4-1.2-3.3-2.1-0.9-0.9-1.5-2-2-3.3-0.4-1.3-0.7-2.7-0.7-4.2 0-1.6 0.2-3 0.7-4.4 0.5-1.3 1.2-2.5 2.1-3.5 0.9-1 2-1.8 3.4-2.3 1.3-0.6 2.9-0.9 4.6-0.9 0.9 0 1.7 0.1 2.5 0.2s1.5 0.3 2.1 0.5v3.2c-0.8-0.3-1.6-0.4-2.3-0.5-1-0.1-1.7-0.2-2.4-0.2z m9.5 17.7v-20.4h3.6v20.4h-3.6z m22.1-5.2h-7.8l-2 5.2h-4.1l8.3-20.4h3.5l8.2 20.4h-4l-2.1-5.2z m-3.9-10.7c-0.7 2.2-1.4 4-2 5.4l-0.7 1.8h5.4l-0.7-1.8c-0.6-1.4-1.2-3.2-2-5.4z m17.9-4.5v17.3h9.8v3.1h-13.6v-20.4h3.8z m34.3 5.4c0 0.9-0.2 1.7-0.6 2.4-0.4 0.7-1.1 1.4-2 1.8v0.1c0.5 0.2 1 0.4 1.4 0.7 0.4 0.3 0.8 0.6 1.1 1 0.3 0.4 0.5 0.8 0.7 1.3 0.2 0.5 0.3 1 0.3 1.6 0 0.5-0.1 1-0.2 1.6-0.2 0.6-0.4 1.1-0.8 1.7-0.4 0.5-0.9 1-1.6 1.5s-1.5 0.8-2.5 1.1c-0.3 0.1-0.5 0.1-0.8 0.2-0.3 0.1-0.6 0.1-1 0.1s-0.8 0.1-1.2 0.1h-7.5v-20.6h7.2c1.5 0 2.8 0.2 3.7 0.5 0.7 0.2 1.3 0.5 1.8 0.9s0.9 0.8 1.3 1.2c0.3 0.4 0.6 0.9 0.7 1.4v1.4z m-10.9 5.9v5.9h2.5c0.7 0 1.2 0 1.7-0.1 0.5 0 0.9-0.1 1.2-0.2 0.5-0.1 1-0.3 1.3-0.5 0.3-0.2 0.6-0.4 0.9-0.7 0.2-0.2 0.4-0.5 0.5-0.8 0.1-0.3 0.1-0.6 0.1-1 0-0.6-0.2-1.1-0.5-1.5-0.3-0.4-0.8-0.8-1.5-1-0.3-0.1-0.7-0.2-1.1-0.2-0.4 0-0.9-0.1-1.5-0.1h-3.6z m3.4-3.1c1 0 1.8-0.1 2.3-0.3 0.6-0.2 1-0.6 1.2-1 0.2-0.4 0.4-0.9 0.4-1.4 0-0.6-0.1-1.1-0.4-1.5-0.3-0.4-0.7-0.8-1.4-1-0.3-0.1-0.6-0.1-1-0.2-0.4 0-0.8-0.1-1.4-0.1h-3.1v5.4h3.4z m25.5 7h-7.8l-2 5.2h-4.1l8.3-20.4h3.5l8.2 20.4h-4l-2.1-5.2z m-3.9-10.7c-0.7 2.2-1.4 4-2 5.4l-0.7 1.8h5.4l-0.7-1.8c-0.6-1.4-1.2-3.2-2-5.4z m24.9 5c1.5 2.1 2.7 3.9 3.6 5.6h0.1c-0.1-2.7-0.2-4.6-0.2-5.8v-9.3h3.8v20.4h-4l-6.8-9.4c-1.2-1.6-2.4-3.5-3.7-5.7h-0.1c0.1 2.5 0.2 4.4 0.2 5.8v9.3h-3.8v-20.4h4l6.9 9.5z m13.7 10.9v-20.4h3.7v9.3h0.1l7.7-9.3h4.6l-8.5 10.1 9.2 10.3h-4.8l-8.2-9.2h-0.1v9.2h-3.7z" fill="#1B1918"></path></svg>