<svg viewBox="0 0 1024 1024" version="1.1" xmlns="http://www.w3.org/2000/svg"><path d="M224 0h576c123.6 0 224 100.4 224 224v576c0 123.6-100.4 224-224 224H224c-123.6 0-224-100.4-224-224V224C0 100.4 100.4 0 224 0z" fill="#FFFFFF"></path><path d="M493.6 449.2l-96.8 96.4c-8.8 6.8-17.6 10.8-33.6 7.2-48.4-10-114.8-21.6-170-50.4-16.4-8.4-6-30.4-4.8-34.8C234.4 333.2 362 236 512.8 236c153.2 0 282.8 100.4 326.4 238.8 1.6 4.4 0.4 16.4-3.6 18.8-62 36.8-110 51.6-164 66.4-16 2.8-36.4-6-52-21.2l-89.2-89.6c-15.2-11.6-25.6-9.6-36.8 0" fill="#E30016"></path><path d="M184 500c188.4 143.2 454.4 150 656 0-38 98-74 197.6-128.8 283.6-4.4 3.2-10.8 4-21.6 4.4H338.8c-7.6-0.4-14.4-4-20.8-12-48.4-79.6-91.2-177.6-134-276" fill="#F0B600"></path></svg>