<svg viewBox="0 0 1024 1024" version="1.1" xmlns="http://www.w3.org/2000/svg"><path d="M91.2 493.6L62.7 522c-2.6 2-5.2 3.1-9.9 2.1-14.3-3-33.8-6.3-50.1-14.8-4.8-2.5-1.8-8.9-1.4-10.2a101.11 101.11 0 0 1 191.8 2c0.4 1.3 0.1 4.8-1.1 5.5-18.2 10.8-32.5 15.2-48.4 19.5-4.7 0.8-10.7-1.8-15.3-6.2l-26.2-26.2c-4.4-3.5-7.5-2.9-10.9-0.1" fill="#E30016"></path><path d="M0 508.3c55.5 42.1 133.9 44.1 193.3 0-11.2 28.9-21.8 58.2-38 83.5-1.3 0.9-3.2 1.2-6.3 1.3H45.6a8.52 8.52 0 0 1-6.2-3.5C25.2 566.2 12.6 537.3 0 508.3" fill="#F0B600"></path><path d="M235.7 480.7l1.4-0.1 1.8-0.3 1.5-0.4c0.3-0.1 1.5-0.2 3.6-0.5s3.3-0.4 3.5-0.4a12 12 0 0 1 1.4 0.3c0.8 0.2 2.3 0.4 4.3 0.7s3.1 0.7 3.3 1.3a2.2 2.2 0 0 1 0 1.6 16.45 16.45 0 0 1-1.5 1.5l-2 2.9a5.8 5.8 0 0 1-2.7 1.9l-2 0.6-5 2.5-3.5 1.2a6.19 6.19 0 0 1-1.8 0.7c-0.6 0-1.3-0.6-2.4-1.7s-1.6-3.4-1.6-6.8c0-2.8 0.6-4.5 1.7-5z m20.5 16.8a1.64 1.64 0 0 1 1.6-0.3 1.51 1.51 0 0 1 0.8 1.3 5.3 5.3 0 0 1-0.7 2.6l-1.4 3.6a16.78 16.78 0 0 1-4 5.5 27 27 0 0 1-5.6 4.3l-4.9 2.4a11.08 11.08 0 0 1-4 1.4 2.66 2.66 0 0 1-2.6-1.7v-4.5l-0.6-1.1a2.58 2.58 0 0 1 0.2-1.4 6 6 0 0 1 0.8-1.6 3.66 3.66 0 0 1 1.5-1.1l1.5-0.5 2.3-0.9 1.4-0.2a8 8 0 0 0 2.1-0.8l1-0.7 2.4-0.9c0.1 0 0.7-0.4 1.9-1.1l3.5-1.8a8.32 8.32 0 0 0 1.8-1.3zM243.3 458l1 0.5c1 0.5 2.8 0.5 5.4 0.1a8.19 8.19 0 0 1 3.9 0.3c1.1 0.4 2.1 0.8 2.8 1.1a5.06 5.06 0 0 0 1.7 0.5l1.9 0.2 1.3 0.4a15.6 15.6 0 0 1 3.2 1.3 2.3 2.3 0 0 1 0.4 1.1 1.55 1.55 0 0 1-0.2 1.2 0.55 0.55 0 0 1-0.5 0.3l-0.7 0.2a6.9 6.9 0 0 0-2.9 2 5.61 5.61 0 0 1-2.1 1.7 8.33 8.33 0 0 1-1.2-0.1 13 13 0 0 0-2.7 0.1 17 17 0 0 0-2.3 0.5l-2.6 1.2a12.29 12.29 0 0 1-1.3 0.2l-5.6 0.9a3.75 3.75 0 0 1-1 0.1c-0.9 0-1.7-0.6-2.6-1.7a6.26 6.26 0 0 1-1.4-2.7 4.84 4.84 0 0 1 0-1.7c0.1-1.1 0.3-2.5 0.6-4.3s0.7-2.6 1.3-2.7 0.8-0.2 0.9-0.2a6.12 6.12 0 0 0 0.5-0.6c0.4-0.4 1.1-0.3 2.2 0.1z m19.1 48.9a2.89 2.89 0 0 1 3-1.3l1.3 0.3a8.4 8.4 0 0 0 1.8-0.4l1.5-0.5 3.2-1.4c0.2 0 1.4-0.3 3.8-0.8l3.9-0.5c1.9-0.3 3.2-0.8 3.7-1.5a2.9 2.9 0 0 0 0.8-1.8l0.1-0.8 0.8-3.3c0.1-0.6 0.2-2.7 0.3-6.4a61.26 61.26 0 0 0-0.1-7.9c-0.1-1.6-0.2-2.8-0.2-3.5a4.5 4.5 0 0 0-0.3-1.8c-0.6-0.9-1.8-1.2-3.7-0.9l-4.9 0.9a23.08 23.08 0 0 1-5.3 0.2c-2-0.1-3.3-0.5-3.8-1.2l-0.8-2-1.1-2a4.8 4.8 0 0 1-0.1-1.8 3.92 3.92 0 0 1 0.2-1.3l0.9-1.8a6.63 6.63 0 0 1 1-1.7 1.69 1.69 0 0 1 1-0.3c0.1 0 0.4 0.2 1.1 0.4a7.32 7.32 0 0 0 1.6 0.4 20.53 20.53 0 0 0 7-0.9 57 57 0 0 1 6.4-1.4c1.3 0.1 3.4 0.1 6.4 0s5.1-0.1 6.4-0.1a47.91 47.91 0 0 1 8.9 0.4 16 16 0 0 0 5.2 0.2 12.27 12.27 0 0 1 1.8-0.4 4 4 0 0 1 2.4 0.9 1.54 1.54 0 0 1 0.6 2.1l-1.2 1.6-0.7 1.4-0.7 0.8-1.2 2.7a3.75 3.75 0 0 1-2.1 0.9 46.6 46.6 0 0 1-4.9 0.7c-2.3 0.2-4.4 0.3-6.6 0.4a11.82 11.82 0 0 0-4.2 0.5 3.32 3.32 0 0 0-1.6 1.5 9.15 9.15 0 0 0-0.7 2.5 38.11 38.11 0 0 0 0.1 5.7l0.2 5.3 0.5 8.3a6.87 6.87 0 0 0 0.3 2.2c0.2 0.6 1.1 1.2 2.6 2s5.4 0.9 11.5 0.4c1.4-0.1 3.7-0.5 6.9-1.1a35.92 35.92 0 0 0 6-1.6c0.8-0.4 1.3-0.6 1.5-0.5 0.5 0.2 0.7 0.9 0.8 1.9a9.86 9.86 0 0 1-0.7 3.5 36.63 36.63 0 0 1-2.3 4.7 24.42 24.42 0 0 1-3.5 5.2 6.89 6.89 0 0 1-3.3 2.3 7.24 7.24 0 0 1-3.9 0.1 8.3 8.3 0 0 1-2.1-0.6l-3.5-1.8a26.51 26.51 0 0 0-6.9-1.7q-7.35-0.9-10.2-0.3a61.85 61.85 0 0 0-6.1 1.6 45.64 45.64 0 0 1-7.9 1.6 22.08 22.08 0 0 0-6.4 1.5 4.9 4.9 0 0 1-2.3 0.8c-0.3 0-0.8-0.5-1.7-1.4l-1.4-1.4a2.09 2.09 0 0 1-0.4-0.6 6.25 6.25 0 0 1-0.1-1.7v-1.6a10.81 10.81 0 0 1 0.9-2.5z m74.8 10.3a4.79 4.79 0 0 1 0.8-1.1l3.3-2.6q3.3-2.7 3.9-5.4a70.78 70.78 0 0 0 0.8-7.2c0.2-3 0.4-4.7 0.4-4.9a22.8 22.8 0 0 0-1-5.6 20.92 20.92 0 0 1-0.9-3.5c0-0.4-0.1-0.9-0.1-1.4a5.72 5.72 0 0 0-0.1-1.4v-0.8l0.7-2.8a4.28 4.28 0 0 1 0.3-1.5 1.71 1.71 0 0 1 0.9-0.6 2.5 2.5 0 0 1 1.4-0.4 4.16 4.16 0 0 1 3.3 2.1 10.42 10.42 0 0 1 1.9 3 11.05 11.05 0 0 1 0.5 2.4l0.2 4.7 0.7 5.5 0.4 4.7 0.5 3.5c0 0.9-0.1 2.3-0.2 3.9a58.25 58.25 0 0 1-1.5 8.2 10.64 10.64 0 0 1-2.4 4.9 7.57 7.57 0 0 1-2.9 1.9c-1 0.2-1.5 0.3-1.6 0.3l-1-0.3-1.5-0.1a5.74 5.74 0 0 1-2-0.7 8.72 8.72 0 0 1-3.1-2.6c-1.2-1.1-1.7-1.9-1.7-2.2z m13.8-60a4.48 4.48 0 0 1 3 0.9l1.4 2.1a17.69 17.69 0 0 0 3.2 2.8 33.68 33.68 0 0 1 3.1 2.5l1.4 2.3a6.16 6.16 0 0 1 1.3 2.4v0.5a7.75 7.75 0 0 0 0.4 1.9 3.16 3.16 0 0 1-0.2 2.7c-0.4 0.8-1.4 1.1-2.9 1a37.3 37.3 0 0 1-5.5-1.1 19.79 19.79 0 0 1-5.6-2.2 16 16 0 0 0-2.9-1.5 2.93 2.93 0 0 1-1.3-1.2 9.12 9.12 0 0 1-1-2.4 18.87 18.87 0 0 1-0.6-2.1 10.77 10.77 0 0 1 0.6-3.5 12.22 12.22 0 0 1 1-2.8 5.69 5.69 0 0 1 1.8-1.5 4.59 4.59 0 0 1 2.8-0.8z m17.4 3.4a4.6 4.6 0 0 1 1.3-0.2l1.8-0.1a12.33 12.33 0 0 0 1.8-0.3c0.9-0.2 2.8-0.5 5.6-0.9a56.93 56.93 0 0 1 5.9-0.7h7.3l1.1-0.2h11.9a23.73 23.73 0 0 1 7.5 1.1c2.1 0.7 3.4 1.3 3.9 1.9l0.7 1.7a7.93 7.93 0 0 1 0.5 1.5 3 3 0 0 1-0.5 1.3c-0.3 0.5-0.4 1-0.6 1.3s-0.3 1.2-0.6 2.6l-0.7 3.1a87 87 0 0 0-1.2 9.5 73.6 73.6 0 0 0-0.5 11.5l0.9 8.6 0.1 4.3 0.3 7.5c0 0.2-0.1 0.6-0.1 1.2l-0.4 3.9a5 5 0 0 1-0.6 2.3 11.37 11.37 0 0 1-2.5 1.9c-1.4 0.8-2.3 1.2-2.7 1.1a1.73 1.73 0 0 1-1.2-0.6l-2.1-2.6c-0.2-0.2-0.4-0.3-0.5-0.4a2.75 2.75 0 0 1-0.2-1.3l-0.4-8.5c-0.4-7.3-0.5-11.2-0.5-11.9l0.8-21.3v-0.9l0.2-4.4a3.54 3.54 0 0 0-0.4-1.9 4.43 4.43 0 0 0-1.2-1c-0.5-0.3-0.9-0.5-1.1-0.6a3.64 3.64 0 0 0-1.5 0 17.41 17.41 0 0 1-3.1-0.1l-13.4 0.9c-5 0.4-8.3 0.8-10.1 1.4s-3 0.7-3.6 0.3a15.57 15.57 0 0 1-1.8-1.5 5.75 5.75 0 0 1-1.7-2.3 5 5 0 0 1-0.1-1.7 7.61 7.61 0 0 1 0.3-2.1l0.3-1.3a3.6 3.6 0 0 1 1.1-2.1z m67.8 57.7a8.54 8.54 0 0 0 0.1-1.5 41.94 41.94 0 0 1 1.4-6.1 33.52 33.52 0 0 0 1.4-7.6l-0.6-7.8a4.33 4.33 0 0 0-0.1-0.5l-0.5-1a1.72 1.72 0 0 1-0.1-0.8 0.9 0.9 0 0 1 0.1-0.5c0.1-0.2 0.5-0.2 1.4-0.1l3.2 0.6a10.13 10.13 0 0 0 4.3-0.1 6.18 6.18 0 0 0 1.8-0.6l2.2-0.2 1.7-0.3q13.2-2.4 15-2.4h2l5.6-0.9h0.5a11 11 0 0 1 1.8 0.2l2.6 0.6a2.32 2.32 0 0 1 0.4 2.5c-0.1 0.2-0.2 0.6-0.5 1.2s-0.4 1-0.5 1.1a3.45 3.45 0 0 0-0.1 1.2l-0.8 5.5v1c-0.3 5.6-0.4 8.6-0.4 8.9a2.64 2.64 0 0 1 0.1 0.7l-0.1 0.9v2.1l-0.2 1.3-0.1 0.5a6.2 6.2 0 0 1-1.3 2.6c-0.7 1.1-1.7 0.4-2.9-1.9a14.82 14.82 0 0 1-1.7-5.6 9.94 9.94 0 0 0-1.2-4.5c-0.7-1.3-2.8-0.8-6.3 1.3a3.76 3.76 0 0 0-1.4 1.4c-0.4 0.5-0.4 2-0.3 4.5a17.88 17.88 0 0 1-0.3 5.2 3.65 3.65 0 0 1-1.2 1.9 2.36 2.36 0 0 1-1.7 0.1 3.73 3.73 0 0 1-2-0.9c-0.4-0.4-0.6-0.9-0.9-1.2a19.6 19.6 0 0 1-0.3-4.9c0-2.8-0.2-4.5-0.6-5s-1.3-0.7-2.6-0.7c-0.4 0-1.8 0.3-4.3 0.8s-3.9 0.9-4.3 1a3.6 3.6 0 0 0-0.9 0.5l-1.2 6.8a3.34 3.34 0 0 1-1.2 1.5l-2.1 1.7c-0.8 0.8-1.3 1.2-1.6 1.1a1.33 1.33 0 0 1-0.6-0.5 4.82 4.82 0 0 1-0.4-1.5z m10.3-15.1c1.4 0.6 2.4 0.5 3.2-0.5a4.1 4.1 0 0 0 1.1-2.4l-0.3-1.2a2.19 2.19 0 0 0-0.3-0.8l-0.6-0.6c-0.4-0.3-0.9-0.2-1.5 0.2a8.25 8.25 0 0 0-1.2 1.1c-0.6 0.7-0.9 1.3-0.7 1.8a0.44 0.44 0 0 0-0.1 0.3 1.1 1.1 0 0 0 0 0.8c0 0.8 0.1 1.2 0.4 1.3z m9.2-5.2a2.33 2.33 0 0 0 0.9 2.5 4.51 4.51 0 0 0 3.4 0.5c0.2 0 1.6-0.1 4.4-0.4s3.1-1.2 1-2.7-3.7-2.3-4.8-2.3c-2 0.2-3.3 0.5-4 1.1a3.78 3.78 0 0 0-0.9 1.3z m17.5-2.6a2.81 2.81 0 0 0-1.5-0.3 2.76 2.76 0 0 0-2.1 1.1 2.88 2.88 0 0 0-0.4 2.9 3.27 3.27 0 0 0 0.9 1.6c0.5 0.5 1.3 0.5 2.3-0.1a3.25 3.25 0 0 0 1.9-2.5 2.71 2.71 0 0 0-1.1-2.7z m-33.1-32.3c0.1-0.1 0.6-0.6 1.6-1.5s1.7-1.7 2.2-2.3 0.8-0.7 1.1-0.6l0.7 1.1 1.7-0.5h0.8l5.6-0.8c0.5-0.1 2.9-0.2 7-0.4s6.9-0.3 8.2-0.3c0.6 0 2 0.2 4.2 0.4a28.81 28.81 0 0 1 5 0.8c1.1 0.3 1.8 0.4 2.3 0.5a5.63 5.63 0 0 1 1 0.2c0.2 0.1 0.5 0.3 1.1 0.7a8.94 8.94 0 0 0 1.6 0.9 1.45 1.45 0 0 1 0.9 0.4c0.1 0.2 0 0.3-0.1 0.6a7.91 7.91 0 0 1-1.5 1.3l-1.8 1.6a1.61 1.61 0 0 1-0.9 0.3c-0.2 0-1.4 0-3.5-0.1l-3.7-0.6a37 37 0 0 0-6.1 0.5l-7.8 0.8c-2.4 0.3-4.9 0.8-7.6 1.4a44.83 44.83 0 0 1-5.2 1.1c-0.8 0.1-1.2 0.2-1.4 0.2s-0.3 0.1-0.4 0.2l-0.6 0.7c-1.1 0.9-2.1 0.8-3-0.5a6.7 6.7 0 0 1-1.2-2.9 1.86 1.86 0 0 1 0-0.8 3.75 3.75 0 0 0-0.1-1.1 2 2 0 0 1-0.1-0.7c-0.2-0.2-0.1-0.4 0-0.6z m3.2 10.9c0.3-1 1.8-1.7 4.4-2l3.9-0.5h1.6l4-0.6c1-0.1 1.6-0.2 1.7-0.2l1.5-0.3c0.3 0 0.6-0.1 1.1-0.1s3.7-0.2 9.7-0.6 9.2-0.3 9.5 0.2 0 2.2-0.8 5a31.23 31.23 0 0 0-0.5 3.2 22.91 22.91 0 0 0-0.2 4.4 4 4 0 0 1-0.3 2.1 3.13 3.13 0 0 1-1.9 0.2 31.89 31.89 0 0 0-4.2 0.1l-6.2 0.4c-0.3 0-2.2 0.4-5.7 1s-5.5 1-6 1.1l-2.7 0.9-2.6 0.4-1.7 0.7a6 6 0 0 1-1.8-0.5c-1-0.3-1.5-0.7-1.6-1.3a2.51 2.51 0 0 1 0.1-1 0.6 0.6 0 0 1 0.1-0.4l1.1-4.2a7.83 7.83 0 0 0-0.5-3.4l-1.7-3.3c-0.1-0.3-0.1-0.6-0.2-0.9s-0.2-0.4-0.1-0.4z m10.6 6.3a1.79 1.79 0 0 0 1 0.9 4.64 4.64 0 0 0 2.1 0.4 33.85 33.85 0 0 0 3.6-0.7 51.22 51.22 0 0 1 7.9-1c3.1-0.2 4.8-0.7 5.2-1.3a2.18 2.18 0 0 0-0.3-2.4c-0.6-0.9-1.9-1.3-3.9-1.3-1.5 0.1-2.6 0.2-3.6 0.3s-3 0.6-6.3 1.3-5 1.4-5.4 2a2.06 2.06 0 0 0-0.3 1.8z m26.8 32.5a0.3 0.3 0 0 1 0-0.4c0-0.2 0.2-0.4 0.6-0.5l1.3-0.3a6 6 0 0 0 1.3-0.8c0.7-0.5 1.8-1.1 3.2-1.9a11.6 11.6 0 0 0 3.4-2.7 12.92 12.92 0 0 0 1.9-2.9 29.78 29.78 0 0 0 1.3-3c0.4-1.1 0.8-2 0.9-2.5a1.73 1.73 0 0 0 0.1-1.2c-0.1-0.2-0.7-0.4-2-0.5a5.79 5.79 0 0 0-3.7 1 17.07 17.07 0 0 1-2 1.1h-1a4.44 4.44 0 0 1-1.8-0.2c-0.4-0.1-0.8-0.8-1.1-2a7.76 7.76 0 0 1-0.3-2.8 6.42 6.42 0 0 1 0.5-1.6c0.3-0.7 0.5-1.3 0.6-1.5a24.55 24.55 0 0 0 0.2-2.7 9.72 9.72 0 0 0-0.5-3.7 0.37 0.37 0 0 1-0.1-0.3l-0.8-0.7c-0.7-0.6-0.7-1.7 0-3.2a4.67 4.67 0 0 1 2.1-2.3l2.3-1.1c0.2-0.2 0.3-0.3 0.4-0.3l0.8-0.1c0.1 0 0.1-0.1 0.3-0.1a25.17 25.17 0 0 1 3.6-0.9l3.9-1.3a6.35 6.35 0 0 0 2.5-0.6 3.49 3.49 0 0 0 0.6-0.9l0.5-2.1c0.1-0.4 0.2-0.6 0.2-0.7l0.1-2.8a7.11 7.11 0 0 1 0.6-1.9 2.26 2.26 0 0 1 1.9-1.5 5.07 5.07 0 0 1 0.9 0.2 1.52 1.52 0 0 1 0.9 0.5 7.58 7.58 0 0 1 0.9 1.7l0.4 0.8a10.86 10.86 0 0 1 0.5 2.8 5.08 5.08 0 0 0 0.7 2.6 3.32 3.32 0 0 0 1.3 0.9 12.5 12.5 0 0 0 3.6 0.4 24.61 24.61 0 0 1 4.9 0.5 9.92 9.92 0 0 1 3.8 1.6 7.27 7.27 0 0 1 2 1.9 3.74 3.74 0 0 1 0.4 1.1l-0.7 1.4a5.45 5.45 0 0 0-0.3 1.7l-4.1 6.5a11.32 11.32 0 0 0-0.9 4.8c-0.1 2.1-0.3 3.4-0.7 4l-1.5 1.5a3.19 3.19 0 0 0-0.2 1.8v0.9a13.23 13.23 0 0 0 0.7 1.8 26.9 26.9 0 0 0 1.9 3.9 16.66 16.66 0 0 1 1.6 3.6 18.29 18.29 0 0 0 0.8 2.5c0.3 0.8 0.5 1.2 0.4 1.3-0.1 0.5-1.1 1.1-2.7 1.9l-8.5 0.1a5.5 5.5 0 0 1-1.2 0.1l-7.3 0.3a28.73 28.73 0 0 0-3.3 0.7c-1.5 0.4-2.4 0.5-2.8 0.6l-4.4 0.5-3.2 0.9c-0.9 0-2-0.7-3.2-2.2a9.56 9.56 0 0 1-2.5-3.7z m10.3-28.3v1.8q-0.15 1.95 0.3 2.4l0.1 0.1 0.5 0.6c0.6 0.5 1.5 0.5 2.8-0.1a4.82 4.82 0 0 0 3.1-4.8c0-2.2-0.4-3.4-1.2-3.5-0.2 0-0.9 0.1-2.2 0.3a3.85 3.85 0 0 0-2.7 1.3 4 4 0 0 0-0.7 1.9z m13.2 24a10.57 10.57 0 0 0 3.3-1 9.28 9.28 0 0 0 1.8-2.8c0.8-1.6 0.4-3.8-1.3-6.7a2.3 2.3 0 0 0-1.5-1.1 4.4 4.4 0 0 0-0.9 0.1h-1.8c-0.7 0-1.1 0-1.3 0.2a13.72 13.72 0 0 0-1.1 2.1q-0.9 1.95-1.5 3.6a6.22 6.22 0 0 0-0.3 3.6c0.3 1.3 0.7 2.1 1.3 2.4a9.32 9.32 0 0 0 3.3-0.4z m4.8-20.8a4.92 4.92 0 0 0 1.7-0.6 4.7 4.7 0 0 0 1.5-2.1 5.43 5.43 0 0 0 0.6-2.8q-0.15-1.05-2.1-1.8a3.26 3.26 0 0 0-3.2 0.1 5.2 5.2 0 0 0-1.5 2.4 4.82 4.82 0 0 0-0.4 3 1.53 1.53 0 0 0 0.7 1.1l1 0.3 0.6 0.4a2 2 0 0 0 1.1 0z m26.2 15.3a9.77 9.77 0 0 1 0.6-2.3c0.4-0.8 1.5-1.2 3.5-1.2a17.31 17.31 0 0 0 2.7-0.8 8.53 8.53 0 0 0 2.5-1.3c3.1-1.5 4.8-2.5 5.2-2.7l1-0.8 2.3-1.3q2.1-2.25 2.1-3l0.4-2.8c-0.4-0.3-0.8-0.7-1.2-1s-1.5-0.1-3.2 0.5-2.9 1-3.7 1.2l-2.7 0.4-2.7 0.6c-1 0.4-1.6 0.5-1.7 0.4l-2-0.5a7.27 7.27 0 0 1-2-1.9 9.3 9.3 0 0 1-0.6-1.8 9 9 0 0 1-0.3-1.5c0-0.2 0.1-0.7 0.2-1.3a5.18 5.18 0 0 1 0.7-1.8 2.92 2.92 0 0 1 1.7-1.1 6.42 6.42 0 0 0 2 0.5 16.61 16.61 0 0 0 2.8-0.5l4.7-0.9 3.5-0.7a16 16 0 0 0 4-0.6 2.76 2.76 0 0 0 1.4-0.2c0.3-0.2 0.5-1.1 0.5-2.9s-0.1-2.8-0.5-3.1-2-0.1-4.9 0.6l-2.5 0.3-3.2 0.5a6.71 6.71 0 0 1-2.7 0.7 11.25 11.25 0 0 1-3.6-1.3 6.46 6.46 0 0 0-1.7-1.5c-0.9-2-1.3-3.4-1.2-4.1a9.12 9.12 0 0 1 0.3-1.6 11.05 11.05 0 0 1 1.2-1.3 4.39 4.39 0 0 1 1.9-1l0.9-0.1 2.8-1a7.17 7.17 0 0 1 1.3 0.1 4.59 4.59 0 0 0 1 0.1 5.13 5.13 0 0 0 1.7-0.7 20.19 20.19 0 0 1 5.1-1.3c2.4-0.4 3.8-0.5 3.9-0.5l2.1 0.1a3.44 3.44 0 0 1 0.9-0.1l2.6 0.3a20.4 20.4 0 0 0 2.3-0.4 6.11 6.11 0 0 1 3.6 0.2 6.19 6.19 0 0 0 1.8 0.7h1.1l2.4 0.5h0.9a13.55 13.55 0 0 0 2.1 1 1.38 1.38 0 0 0 0.3 0.4l1.7 1.1 0.5 0.5 0.5 0.5 0.6 1.9-0.6 2.1a26 26 0 0 1-3.4 1.6l-1.4-0.1-1.8 0.5a8.33 8.33 0 0 1-1.2-0.1l-4.1 0.1-0.9-0.3-3.5 0.6a32.5 32.5 0 0 1-0.3 3.7 3.6 3.6 0 0 0 0.4 2.4c0.4 0.6 1.8 0.5 4-0.2a18 18 0 0 0 5.2 0.1 9.27 9.27 0 0 1 4.2 0.1 1.19 1.19 0 0 1 0.9 1.7l-0.6 4c-1.4 1.9-2.7 2.8-3.9 2.9l-2.7-0.2a14.37 14.37 0 0 0-2.8 0.8 9.17 9.17 0 0 0-2.3 0.9l-0.4 1.1c0.4 2.2 0.8 3.4 1.4 3.5l2.4 1.1 2.2-0.1a8.78 8.78 0 0 1 3.1 0.8c0.9 0.5 1.3 0.8 1.4 1l0.4 1.8c0.2 0.5 0.3 0.8 0.3 0.8l-0.7 3.2a7.29 7.29 0 0 1-2.3 1.2 2.33 2.33 0 0 1-2 0l-1.6-1c-1.4-0.8-3-0.6-4.8 0.5-1.3 2-1.9 3.5-1.6 4.6l0.2 0.7a26.46 26.46 0 0 1-0.1 4.8l0.1 4.5-0.1 2.3 0.2 2.4a3.08 3.08 0 0 0-0.4 0.9v1a3.68 3.68 0 0 1-0.5 1.6 4.82 4.82 0 0 1-2.5 1.8 14 14 0 0 1-2.2-1.6 3.75 3.75 0 0 1-0.7-1.2 15.69 15.69 0 0 1-0.3-1.6 4.82 4.82 0 0 1 0-1.7l0.1-2.7v-2.1c0-0.5 0.1-1.2 0.2-2.2s0.3-1.5 0.3-1.6l0.1-2.7a7.53 7.53 0 0 0 0.1-4.2c-0.3-1-0.8-1.6-1.3-1.7s-1.4 0.1-2.4 0.8l-11.5 8a8.45 8.45 0 0 1-4 0.6c-1.5-1-2.4-1.8-2.6-2.4a17.69 17.69 0 0 1-0.8-2.2 7 7 0 0 1-0.4-1.7c0.2-0.3 0.3-0.6 0.6-1.1z m46.8 1.2a17.74 17.74 0 0 0 1.7-3.1c0.1-0.5 0.3-1.9 0.5-4.2l0.1-3.4 0.6-3.2c-0.1-1.9-0.2-3.3-0.3-4.3s-0.4-2.5-0.8-4.5a7.65 7.65 0 0 1-0.1-4.5 3.12 3.12 0 0 1 2.8-1.8l3.6 0.1 1.3-0.3 2.3 0.3 2.5 0.1 4.4-0.9q7.5-0.9 8.4-0.9l2.8 0.2 0.6-0.2a28.41 28.41 0 0 0 4.1-0.1c1.5-0.1 2.4-0.1 2.7 0.3l1 0.9 0.1 0.4c0 1.2-0.1 2-0.1 2.3l-0.3 1.2c-0.7 2.3-1 3.7-1.1 4.2l-0.5 3.2c-0.3 2.9-0.6 5.1-0.8 6.4s-0.3 2.1-0.3 2.3l0.1 2.3a20.59 20.59 0 0 0 0.3 2.1 13.6 13.6 0 0 0 0.6 2 13.61 13.61 0 0 1 0.6 2 8.62 8.62 0 0 1 0.1 1.7 4.24 4.24 0 0 1-0.6 1.9 4.46 4.46 0 0 1-2 1.4c-1 0.3-1.5 0.5-1.6 0.4l-3.3-1.1a19.83 19.83 0 0 0-6.6-0.8l-4.4 0.4-5.6 0.1-2.8 0.5c-0.4 0.1-1 0.1-1.8 0.2s-1.5 0.2-2 0.3l-2 0.7a3.93 3.93 0 0 1-3.4-0.1 1.79 1.79 0 0 1-0.7-0.5c-0.4-0.3-0.4-0.9-0.2-1.7z m12.3-5.8c1.8-0.2 3-0.4 3.5-0.4s1.9-0.1 4.2-0.2a18.07 18.07 0 0 0 4.6-0.6 5 5 0 0 0 2-1.3 9.13 9.13 0 0 0 1.3-2.2c0.4-0.9 0.6-1.4 0.7-1.7l0.3-2.1a12.51 12.51 0 0 0 0.2-5c-0.3-1-1.8-1.5-4.4-1.3l-4.8 0.5h-3.4l-3.3 0.8-0.5 0.1a10.36 10.36 0 0 1-1 1.9c-0.2 0.4-0.4 0.6-0.4 0.8s-0.2 0.7-0.5 1.7-0.7 2.3-1.2 4.3-0.5 3 0.2 3.3z m70.6-28.9a1.28 1.28 0 0 0-0.4-1c-0.3-0.3-1.2-0.2-3 0.3l-6.1 0.7c-2.5 0.6-4.1 1.7-4.9 3.5l-0.7 3.3a4.79 4.79 0 0 1-1.8 2.5c-0.8 0.6-1.8 1.2-3.1 2a5.27 5.27 0 0 1-3.2 1c-0.9-0.1-1.5-1.1-1.9-2.8l1.5-7.4a6.52 6.52 0 0 0-0.2-2.4l-0.7-1.8c-0.5-1.3-0.6-2.2-0.3-2.8a4.82 4.82 0 0 1 0.8-1.2 4.12 4.12 0 0 1 2.3 0c1.3 0.3 4.1-0.1 8.5-1l5.3-0.4 5.9-1q4.95-0.3 5.7-0.9l1.8-2.5a5 5 0 0 1 5.1-2.3 3.18 3.18 0 0 1 2.3 1.4l0.9 2.2c0.5 0.6 1.8 0.8 3.8 0.7l8.2-0.4a40.42 40.42 0 0 1 6.3 0.2l6 0.9c0.4 0.1 2.1 0.2 5.1 0.5s4.6 0.9 4.9 2.1a3.24 3.24 0 0 1-0.3 2.8l-4.7 2.6a10.43 10.43 0 0 0-1.8 2.2 25.09 25.09 0 0 1-3.1 3.5 11.78 11.78 0 0 1-4 2.5c-1.6 0.6-2.5 0.5-3-0.1a2.24 2.24 0 0 1-0.1-2.1 4.05 4.05 0 0 1 0.8-1 8.65 8.65 0 0 0 1.5-2 4.26 4.26 0 0 0 0.8-2.1 2.5 2.5 0 0 0-1.5-2.2 9.36 9.36 0 0 0-3.8-0.8l-6.3-0.5a28.82 28.82 0 0 0-7.3 0.6 30.54 30.54 0 0 0-4.1 1.1 6.15 6.15 0 0 0-1.7 2l-1.3 1.8-2.7 4.3-1.9 2.4a27.29 27.29 0 0 0-2.8 4.2 11.75 11.75 0 0 0-1.7 3.8 19.29 19.29 0 0 0 0.2 3.8l0.1 4.9c0 0.8 0.1 1.7 0.2 2.8s0.2 1.8 0.2 2.1l-0.1 1.6a3.57 3.57 0 0 0 2.6 3.5c0.4 0.2 1.4 0 2.9-0.5a41.5 41.5 0 0 1 4.8-1.1l8.3-2c5.3-1.1 7.9-0.5 7.9 2q0 1.2-2.7 3.3c-1.8 1.3-2.8 2.1-3.2 2.3a39.43 39.43 0 0 1-3.8 1.1l-10 3.7-2.5 0.7c-1.1 0.3-3.2 1.2-6.4 2.5a55 55 0 0 0-8.4 4.3c-2.5 1.6-4.1 2.3-4.9 2.3a3 3 0 0 1-2.2-1.1 5 5 0 0 1-1-3.3 9.58 9.58 0 0 1 0.9-4.2 8.4 8.4 0 0 1 1.8-2.4l4.4-2.6a14.26 14.26 0 0 0 3.1-3 7.07 7.07 0 0 0 1.6-3.9c0-1.2 0.1-2.7 0.1-4.3 0-2.5-0.3-3.9-0.8-4.2s-1.6 0.3-3.3 2.1a37.6 37.6 0 0 1-5.3 3.7c-2.7 1.7-4.5 2.7-5.3 3.1a3.59 3.59 0 0 1-2.5 0.3 6.68 6.68 0 0 1-3-1.7c-1.1-1.1-1.9-1.7-2.2-2.1a15 15 0 0 1-1.5-2.3c-0.7-1.2-1.2-2.1-1.6-2.9s0-1.2 1-1.5l2.2 0.2a9.29 9.29 0 0 0 2.5-0.5l3.9-0.9a11.51 11.51 0 0 0 2.5-1.2c0.8-0.5 2.7-2 5.9-4.4s5-4 5.7-4.7 2.2-2.4 4.7-5.3c2.7-3.2 4-5.3 4.1-6.6z m6.7 22.3a21.22 21.22 0 0 1 2.8-3.7 37.89 37.89 0 0 0 2.8-3.5l3.3-6c0.5-0.5 0.8-0.9 0.9-1l0.5-1.3a4.63 4.63 0 0 1 1.8-2.1 2.57 2.57 0 0 1 2.5-0.4c1.2 0.5 1.7 1.7 1.6 3.7l-0.4 3.3c0.2 1.1 1.3 2.6 3.3 4.6a31.47 31.47 0 0 0 4.4 3.8l5 3.1 1.6 1.8a9.38 9.38 0 0 0 2 1.2l3.6 2.5a21.62 21.62 0 0 0 3.5 2.2l1.4 0.4c0.1 0.1 0.5 0.2 1.2 0.6a14.16 14.16 0 0 0 2.2 0.7l2.9 0.6 2.5 0.9a16.48 16.48 0 0 0 2.1 0.5c0.9 0.2 1.4 0.3 1.5 0.6s0 0.8-0.5 1.6a21.52 21.52 0 0 1-2.6 2.9 37.52 37.52 0 0 1-4.4 3.7 12.29 12.29 0 0 1-6.2 1.9 9.23 9.23 0 0 1-5.7-1.2 13.19 13.19 0 0 1-4.4-4.1l-2.8-4.3-1.3-1.6a26.15 26.15 0 0 1-2.3-3.3c-1.1-1.7-1.8-2.7-2-3l-5.8-5.8a5.74 5.74 0 0 0-2.1-1.7 2.19 2.19 0 0 0-2 0.4 5.35 5.35 0 0 0-0.9 0.7l-3.1 2-3.1 2.4a2.82 2.82 0 0 1-3.1-0.3c-0.8-0.6-1.2-1.2-1.1-1.7a7 7 0 0 1 0.4-1.1z m122 7.4c0.1 1.1 0.1 2.5 0.1 4.4a16.66 16.66 0 0 0 0.3 3.9 4.5 4.5 0 0 1 0.2 1.4 6.57 6.57 0 0 1-0.6 1.2c-0.3 0.5-0.5 0.9-0.6 1a9.07 9.07 0 0 1-1.7 0.8c-1 0.4-1.6 0.6-1.6 0.6a2.63 2.63 0 0 1-1.2-0.1l-3.1-0.5c-0.7-0.1-2-0.1-4.1-0.2a40.24 40.24 0 0 0-6.4 0.1q-1.95 0.3-2.1 0.3l-2.3-0.1-2.5 0.4c-2.1 0.2-3.4-0.1-4-1s-0.5-2.4 0.3-4.8a27.07 27.07 0 0 0 1.2-5.6 8.91 8.91 0 0 0-0.2-3.1c-0.2-0.6-0.4-1.1-0.6-1.2s-0.7 0.2-2 0.6a3.5 3.5 0 0 1-3.4-0.5c-1.4-0.9-2.1-2-2-3.2a2.92 2.92 0 0 1 0.6-1.5c0.4-0.6 0.7-1 1-1.1l1.1 0.2a6.11 6.11 0 0 0 1.4-0.9l1.1-0.7 2-2.2 1.6-1.6c0.1-0.2 0.4-0.7 0.8-1.5a2.47 2.47 0 0 0 0.4-1.6c-0.1-0.2-0.4-0.3-0.8-0.2l-3.6 0.1a9 9 0 0 0-4 1.5 6.88 6.88 0 0 0-2.6 2.5 8.68 8.68 0 0 0-0.2 3.8l-0.5 8.6c0 0.3-0.1 0.8-0.1 1.6s-0.1 1.4-0.1 1.9l-0.3 2.9-0.3 4.7c-0.4 3.8-0.9 6.4-1.6 7.7a7.07 7.07 0 0 1-2.3 2.7 14 14 0 0 1-3.4 1.4 21.58 21.58 0 0 1-2.6 0.7 7.73 7.73 0 0 1-2.9-0.3 8.24 8.24 0 0 1-2.1-0.8 15.62 15.62 0 0 1-1.3-1.3c-0.6-0.6-0.8-1-0.8-1.4a5.52 5.52 0 0 1 1.2-1.5l1.4-1.9 2.3-2.2 0.6-0.9a9.17 9.17 0 0 1 1.2-1.3 15.77 15.77 0 0 0 2-2.7 13.27 13.27 0 0 0 1.7-3.8 21 21 0 0 0 0.9-3.2c0.1-0.6 0.4-2 0.6-4a32.65 32.65 0 0 0 0.4-4.7l-0.4-6.9c-0.1-2.5-0.1-4-0.2-4.5a1.56 1.56 0 0 1 0-1 13.62 13.62 0 0 1 0.1-1.6 13.09 13.09 0 0 1 0.6-2.7q0.45-1.35 0.9-1.5c0.2-0.1 0.5 0 1 0.1s1.3 0.4 2.5 0.8a5.41 5.41 0 0 0 2.9 0.4l0.9-0.3c0.4-0.1 1.4-0.3 3.1-0.6a13.65 13.65 0 0 0 2.7-0.6 0.86 0.86 0 0 0 0.3-0.6 1.35 1.35 0 0 0 0-0.9 3.51 3.51 0 0 0-1.1-2 5.09 5.09 0 0 0-3.1-0.4l-3.9 0.9c-2.1 0.5-4.1 1-5.9 1.6s-2.8 0.8-3.1 0.9l-2 0.4-1.9 0.5-2.5 0.3-1.7 0.7a1.39 1.39 0 0 1-0.9 0q-1.35-0.3-1.8-2.4a15.29 15.29 0 0 1-0.4-3 11 11 0 0 1 0.2-1.8 6.63 6.63 0 0 1 0.9-1.9 9.34 9.34 0 0 1 1.3-1.5c0.5-0.5 0.9-0.8 1.1-0.8a4.17 4.17 0 0 1 1 0.5 3.37 3.37 0 0 0 1.7 0.5 17.67 17.67 0 0 0 1.9-0.1c0.9-0.1 2.6-0.4 5-0.9s4.2-0.8 5.3-1l5.4-0.7c0.4 0 2.6-0.4 6.6-1.1s6.4-1.4 7.4-2.1l2.3-3.7c1.3-1.5 2.5-2 3.9-1.4l1.1 0.8 1.5 0.9 2.2 1.7a24.6 24.6 0 0 0 7 3.3 55.81 55.81 0 0 0 9.2 0.7h5.5a44.15 44.15 0 0 1 5.3 0l2.5 0.2a22.47 22.47 0 0 0 5.4-0.5c2.1-0.4 3.3-0.2 3.7 0.7s0 2-1 3.4c-2.4 3.1-4 5.2-4.8 6a6.59 6.59 0 0 1-3.4 1.8 8.81 8.81 0 0 1-2.9 0.3 6.32 6.32 0 0 1-2.1-0.7l-3-1.3-4.1-1.8a24.36 24.36 0 0 0-7.4-1.3 3.74 3.74 0 0 0-2 0.4 1.92 1.92 0 0 0-0.8 1.6 2.34 2.34 0 0 0 0.1 1.4c0.2 0.4 0.6 0.6 1.3 0.7h1.8c0.4 0 2 0.2 4.8 0.5s5.4 0.6 7.6 0.9 3.2 1.8 3 4.4a13.69 13.69 0 0 0-0.4 1.7c-0.2 1.1-0.4 2.6-0.6 4.3a31 31 0 0 0-0.2 3.7c0 0.1 0.1 0.6 0.2 1.5s0.2 3.5 0.3 7.8l0.3 6.5 0.3 13.8a14 14 0 0 0 0.2 1.8 9.51 9.51 0 0 1 0.1 1.4c-0.1 0.4-0.7 0.9-1.8 1.6a5.85 5.85 0 0 1-2.1 0.9 2.26 2.26 0 0 1-2.1-1.3 11.79 11.79 0 0 1-1-2.5 12.31 12.31 0 0 1-0.4-3.1l-0.1-2.9-0.4-7c-0.1-1.6-0.1-3.2-0.1-4.9 0-0.6 0.1-1.9 0.2-3.9s0.2-4.3 0.3-6.8 0.2-4.3 0.3-5.2a6.37 6.37 0 0 0 0-2c-0.4-1.7-2.1-2.8-5-3.4a10.43 10.43 0 0 0-3 0.1 3.93 3.93 0 0 0-2.5 1.2q-0.6 0.9 1.2 3a4.76 4.76 0 0 0 1.7 1.3 6.76 6.76 0 0 0 3.1 0.7 13.92 13.92 0 0 1 3.2 0.4c0.9 0.2 0.6 1.4-0.8 3.4a8.43 8.43 0 0 1-3.5 2.9 32.08 32.08 0 0 0-2.9 1.5 3.14 3.14 0 0 0-1.1 1.4 4.3 4.3 0 0 0-0.5 3z m-8.9-11.9c-0.1-0.2-0.4-1.1-1.1-2.8a8 8 0 0 0-1.8-3.3c-0.6-0.5-1.6-0.6-3.1-0.5-1.8 0.2-2.9 0.7-3.4 1.4a11.33 11.33 0 0 0-1.3 2.7l-1.8 4.4a6.47 6.47 0 0 0-0.4 1.3c-0.1 0.5 0 0.7 0.2 0.8l0.7 0.1a6.74 6.74 0 0 1-0.1 1c0 0.7 1.8 0.2 5.5-1.4 0.2-0.1 0.4-0.1 0.5-0.2l4.9-0.6a3.09 3.09 0 0 0 0.8-0.2 1.12 1.12 0 0 0 0.8-0.7c0.3-0.2 0.1-0.9-0.4-2z m-12.3-15.9a2.27 2.27 0 0 0 0.6 1.6c0.4 0.4 1.6 0.5 3.4 0.3l3.5-0.4c2.5-0.4 3.8-1 3.8-1.8a7.16 7.16 0 0 0-0.1-1.7 3.09 3.09 0 0 0-0.9-1.2 5.75 5.75 0 0 0-2.1-0.4l-2.8-0.2a14.42 14.42 0 0 0-3.2 0.7c-1.4 0.4-2.2 0.8-2.2 1a1.27 1.27 0 0 0-0.1 0.6v0.4l0.2 0.8z m0.4 32a2.43 2.43 0 0 0 0.4 1.1 1.77 1.77 0 0 0 1.4 0.9 8.35 8.35 0 0 0 2.4-0.2l1.8-0.1 1.1-0.3c0.2 0 1 0.1 2.5 0.2s2.3 0 2.5-0.4a7.84 7.84 0 0 0 0.8-1.8 10.81 10.81 0 0 0 0.5-2.7 6.22 6.22 0 0 0-0.1-2.1c-0.1-0.4-0.6-0.7-1.5-1a6.9 6.9 0 0 0-3.7 0.2 26.38 26.38 0 0 1-4.9 0.8c-1.7 0.1-2.6 0.3-2.7 0.5a3.45 3.45 0 0 0-0.1 1.2z m54.6-34.4l3-1.7a39.27 39.27 0 0 0 9.8-8.3c2.8-3.3 4.7-4.9 5.7-4.9a1.8 1.8 0 0 1 1.5 1.5l0.2 1.6c0.3 1 1.4 1.4 3.3 1.3 0.5 0 1-0.1 1.6-0.1l5.1-0.8h1c5.4-0.1 8.1 1.2 8 3.8a3 3 0 0 1-0.5 1.5 27.65 27.65 0 0 1-1.7 2.2 7.1 7.1 0 0 1-1.9 1.8c-0.5 0.3-2.3 0.4-5.4 0.5l-5 0.6a37.8 37.8 0 0 0-6.8 1.1 5.25 5.25 0 0 0-3.1 2.3c-0.7 1.1-1 1.8-0.8 2a1.2 1.2 0 0 0 0.5 0.5 41.84 41.84 0 0 0 6.2-0.9l1.4-0.2 3.1-0.7a19.74 19.74 0 0 1 4.1 0.1 22.94 22.94 0 0 0 4.2 0.2 13.92 13.92 0 0 1 1.7-0.1c1.5 0.3 2.2 1 2.3 2.2a5 5 0 0 1-0.5 2.8 4 4 0 0 1-1.7 1.7 12.26 12.26 0 0 1-2.3 0.9c-0.8 0.2-2.2 0.4-4 0.7a7.21 7.21 0 0 0-3.6 1.1 6.84 6.84 0 0 0-1.6 2.6q-0.75 1.8 2.7 1.8a12.71 12.71 0 0 0 3-0.6 15.77 15.77 0 0 1 4.2-0.6c1.4 0 2.2 0.3 2.5 0.9a4.64 4.64 0 0 1 0.4 2.1 8.6 8.6 0 0 1-0.6 3.3 3.74 3.74 0 0 1-1.5 1.3l-4.1 1.3-0.5 0.2-5.4 1.8c-0.1 0.2-0.5 0.7-1.1 1.6l-0.6 1a8.92 8.92 0 0 0-0.5 1 14.23 14.23 0 0 0-0.6 2.1c-0.2 0.9 0.6 1.3 2.5 1.1a17.45 17.45 0 0 0 3.5-1.7l5.7-2.5a6.9 6.9 0 0 1 1.7-1.1c0.5-0.2 0.6 0.3 0.4 1.7-0.2 1-0.4 1.7-0.5 2.2a10.6 10.6 0 0 1-1.7 2.6c-0.9 1.3-1.6 2.1-1.9 2.5l-3.1 3-2.7 2.7-4.1 3.1q-0.6 0.45-3.6 3.3c-2 1.9-3.7 2.8-5.1 2.8s-2.1-0.7-2.1-2.2a22.5 22.5 0 0 1 0.9-6.4l2-4.4 0.5-1.5 1.7-3.2a10.63 10.63 0 0 0 0.8-3.5c0.1-1.5-0.1-2.2-0.8-2.3a12.87 12.87 0 0 0-1.9 0.3 12.22 12.22 0 0 1-2.2 0.3 4.55 4.55 0 0 1-2.8-1 4.6 4.6 0 0 1-1.4-1.6 3.42 3.42 0 0 1-0.2-1.5 5.22 5.22 0 0 1 0.5-2.2 6.36 6.36 0 0 1 1.8-2.7 5.54 5.54 0 0 1 1.8-1l1.4-0.4 1.5-0.6 2.4-0.6c1.3-0.6 1.8-1.4 1.6-2.2a2 2 0 0 0-1.4-1h-3.7a5.61 5.61 0 0 1-2.3-0.6 3.45 3.45 0 0 1-1.7-1.3 3 3 0 0 1-0.5-1.6 6.62 6.62 0 0 1 0.1-1.5 4.51 4.51 0 0 1 0.3-1.3 2.26 2.26 0 0 0 0.2-1.3 1.6 1.6 0 0 0-0.7-0.9 4.18 4.18 0 0 0-1-0.4l-1.5-0.2a7.53 7.53 0 0 1-2.5-1 14.25 14.25 0 0 1-2.8-2.2 2.44 2.44 0 0 1-0.8-2.2z m41.3-7.1a7.93 7.93 0 0 1 0.7-2.9c0.5-1.2 0.9-1.8 1.3-1.8a4.18 4.18 0 0 1 0.9 0.3 3.82 3.82 0 0 0 1.3 0.4l4.1-0.3 3.9 0.2a28 28 0 0 0 6.1-0.7 28.57 28.57 0 0 1 6.6-0.6c1.7 0.1 2.5 0.2 2.5 0.2a10.9 10.9 0 0 0 1.2-0.1l5.4-0.1a17.33 17.33 0 0 1 3.6 0.2 4.73 4.73 0 0 1 2.4 2.2c0.9 1.3 0.8 2.8-0.1 4.6-0.1 0.2-0.4 0.6-0.6 1a10 10 0 0 0-0.8 1.4 22.62 22.62 0 0 0-1 4.2q-0.6 3.6-0.9 6.6c-0.2 2-0.2 4-0.2 5.9a13.37 13.37 0 0 1-0.8 4.8q-0.75 1.8-3.6 2.7c-1.9 0.6-2.9 1.1-3 1.6a2.37 2.37 0 0 0 0.2 1.8 7 7 0 0 0 0.9 1.6l1.8 3a28.4 28.4 0 0 0 4.1 4.8 54.63 54.63 0 0 0 8.5 6.3c3.9 2.6 6.6 3.6 8 3.3a7.09 7.09 0 0 1 2.5-0.3c0.4 0.1 0.6 0.4 0.9 0.9s-0.1 1.3-1 2.4a20.91 20.91 0 0 1-6 5.4 10.19 10.19 0 0 1-5.2 1.6 6.6 6.6 0 0 1-2.7-0.6 17.07 17.07 0 0 1-3.7-2.5 18.49 18.49 0 0 1-2.9-3l-2.4-5.1a13.81 13.81 0 0 0-2.1-3.2 1.52 1.52 0 0 0-1.3-0.3l-2.1 1.7a9.63 9.63 0 0 1-2.5 0.9c-1.1 0.2-2.1 0.4-2.9 0.6s-1.7 0.4-2.9 0.7l-8.7 2.6c-8.9 1.8-13.6 2.8-14.1 3.1a4.88 4.88 0 0 1-1.3 0.6 4.12 4.12 0 0 1-1.2 0.1 1.88 1.88 0 0 1-1.9-0.9 5.62 5.62 0 0 1-0.4-1.5 6.18 6.18 0 0 1 1.2-2.4l7.3-9.1c0.4-0.7 0.7-1.2 0.9-1.6s0.5-1.6 1.1-3.6a42.08 42.08 0 0 0 1.1-6 60.46 60.46 0 0 0 0.4-6.1l0.1-6.6v-2.4c0-0.3-0.1-1-0.2-2.3s-0.2-2.6-0.2-4.1a15.65 15.65 0 0 0-0.2-2.9 8.8 8.8 0 0 0-0.5-1.5l-1.2-2.5a17.63 17.63 0 0 1-0.4-2.7z m12.6 44.1a5.74 5.74 0 0 0 2-1.9 11.89 11.89 0 0 0 1.6-4.2 33.86 33.86 0 0 1 0.9-3.4c0.2-0.5 0.4-1.1 0.6-1.7a1.05 1.05 0 0 0-0.4-1.3 3.08 3.08 0 0 0-1.2-0.5l-1.6 0.1h-1.1a12.6 12.6 0 0 0-2.6 0.9 9.12 9.12 0 0 0-2.8 1.7c-0.5 0.6-0.9 2.1-1.2 4.6a17.8 17.8 0 0 0-0.3 4.7c0.2 1.1 0.8 1.7 1.8 1.7l3.2-0.9z m-5.2-36.3a7.71 7.71 0 0 0 0.1 1.9c0.1 0.3 0.6 0.6 1.4 0.8 0 0 1.8-0.2 5.3-0.8l3.1-0.1 5.6-0.5 1.1 0.1 2.3-0.2c1.8 0 2.9-0.1 3.3-0.4a2.48 2.48 0 0 0 0.8-1.7 6.92 6.92 0 0 0-0.1-2.5 3.13 3.13 0 0 0-0.5-1c-0.2-0.3-3.1-0.4-8.6-0.5l-1.9 0.2-7 0.6a4.21 4.21 0 0 1-2.8 0.7q-1.5-0.15-1.8 0.6a9.41 9.41 0 0 0-0.3 2.8z m2.5 18.3s1-0.2 3-0.7a20.67 20.67 0 0 1 4.4-0.8l2.8-0.1 2.2-0.6a26.9 26.9 0 0 1 4.3-0.4c2 0 3.1-0.2 3.2-0.4a5.65 5.65 0 0 0 0.2-2.3v-1.6a3.35 3.35 0 0 0-1-1.7c-0.5-0.5-1.8-0.6-3.8-0.3a69.89 69.89 0 0 1-9.2 0.7c-3.1 0-5 0.3-5.8 0.8a4.52 4.52 0 0 0-1.8 2.4 4.17 4.17 0 0 0-0.1 3.1c0.2 1.2 0.8 1.8 1.6 1.9z m14.9 17.1c0.9-0.1 1.5-0.3 1.8-0.8a2.29 2.29 0 0 0 0.3-1.7 22.49 22.49 0 0 0-1-4c-0.6-1.8-1.1-2.7-1.6-2.6-0.3 0.1-0.7 0.5-1.4 1.4a12.15 12.15 0 0 1-1.2 1.6l-0.9 2a12.08 12.08 0 0 1-1.1 1.8c-0.6 1-0.8 1.6-0.5 2s1.1 0.5 2.6 0.4z m40.2-43.4l0.5-0.7a15 15 0 0 0 0.6-1.6 3.2 3.2 0 0 1 1.7-1.9 7.73 7.73 0 0 1 2.9-0.1 35.3 35.3 0 0 0 4.6 0c1.5-0.2 4.4-0.3 8.5-0.4s6.2-0.1 6.3-0.1a35.65 35.65 0 0 1 4.1 0.8c1.7 0.4 2.7 0.9 2.8 1.5s-0.5 1.4-1.7 2.6a54.9 54.9 0 0 1-4.6 3.8c-1.9 1.4-5.5 2.7-10.7 3.9s-8.8 1.5-10.6 1c-3.1-0.7-4.6-2.3-4.6-4.6a25.43 25.43 0 0 1 0.2-4.2z m0.3 48.3c0.2-1.1 0.5-1.8 1.2-2.1s2.2-0.7 4.8-0.9 5-1.9 7.3-4.9a26.86 26.86 0 0 0 4.6-8.3c0.8-2.5 1-4 0.7-4.5s-1.3-0.6-3.1-0.4c-0.8 0.1-1.5 0.2-1.9 0.3s-1.6 0.6-3.7 1.3a23.48 23.48 0 0 1-4.1 1.3 4.83 4.83 0 0 1-3.7-0.9 6 6 0 0 1-2.2-3.2 7.78 7.78 0 0 1 0.3-4.7c0.6-1.8 1.1-2.9 1.7-3.1a4.91 4.91 0 0 1 1.2-0.3 20.67 20.67 0 0 1 2.8 0.4 7 7 0 0 0 2.5 0l2.8-1.4a25.92 25.92 0 0 1 4.1-1c2.2-0.4 3.6-0.7 4.4-0.8s2.2-0.2 4.3-0.4a37.7 37.7 0 0 0 3.9-0.3 2.13 2.13 0 0 1 1.2 0.3 1.37 1.37 0 0 1 0.4 1.1 5.55 5.55 0 0 1-0.3 1.7l-2.9 8.1-1.9 7.6c-0.5 1.7-1.8 5.4-3.9 11s-4.4 9.3-6.8 11a9.34 9.34 0 0 1-7.4 1.8c-2-0.3-3.4-1-4.1-2a9 9 0 0 1-1.6-4.1 7.73 7.73 0 0 1-0.6-2.6z m31.8-22a20.12 20.12 0 0 1 0-3.5 17.76 17.76 0 0 1 0.8-3.1 4.86 4.86 0 0 1 1.5-2.5 6.76 6.76 0 0 1 3.5-1.1l8.8-1.4a66.67 66.67 0 0 1 7-0.2 150.73 150.73 0 0 1 18.4 0.9 41.37 41.37 0 0 0 10.1 0.4 36.44 36.44 0 0 1 4.2-0.5 1.83 1.83 0 0 1 1.7 0.7c0.3 0.5 0 1.6-1.1 3.2-3 4.7-5.3 7.4-6.8 8a11.66 11.66 0 0 1-4 1 12 12 0 0 1-3.2-0.2l-6.8-1.6c-1-0.2-1.6-0.1-1.8 0.2a1.88 1.88 0 0 0-0.3 1.3l-0.4 8.7-0.1 1.8a5.43 5.43 0 0 0 0 1.8 39.9 39.9 0 0 0 0.4 5 37.38 37.38 0 0 1 0.4 4.9 36.26 36.26 0 0 1-0.5 4.4 8.92 8.92 0 0 1-2.8 5.3c-1.6 1.5-4.1 2-7.7 1.5q-13.2-1.8-14.4-4.5c-0.8-1.7-1.2-2.8-1.1-3.1 0.2-1 2.1-1.4 5.4-1a16 16 0 0 0 8.2-0.8c2.1-0.9 3.3-1.8 3.7-2.7a10.7 10.7 0 0 0 0.3-4.3c-0.1-0.5-0.1-2.3-0.2-5.5s-0.2-5.9-0.3-8.2-0.6-3.8-1.2-4.5-2.3-0.9-5.1-0.4q-12.3 2.25-14.7 1.5c-1-0.2-1.6-0.6-1.7-1.1z m3.5-19.8a12.37 12.37 0 0 1 0.1-3.5l1.1-2.7a4.89 4.89 0 0 1 1-2.1l1.1-0.4a9.78 9.78 0 0 0 1.1-0.8c0.7-0.5 2.7-0.8 5.9-1l6.8-0.4c5.5-0.3 10-0.5 13.5-0.4 8.6 0.2 13.9 0.6 15.8 1.4s2.9 1.7 3 3 0.1 2 0.1 2.3a4.19 4.19 0 0 1-2.6 3.1 12.39 12.39 0 0 1-4.1 1.2l-6.6-0.7c-1-0.1-2.3-0.1-4-0.1-2.9 0.1-7.2 0.5-12.9 1s-9.4 1-11.2 1.3a29.41 29.41 0 0 1-3.7 0.5c-1 0-1.6 0-1.8-0.2zM247.8 560.7v13.7c0.2 5.6-2.9 8.4-9.3 8.2-4.6-0.1-7.1-1.9-7.5-5.5 0.1-2.6 1.3-4 3.4-4.1 2.2 0.1 3.4 1.2 3.5 3.2-0.1 1.9-1 2.8-2.7 2.9a4.64 4.64 0 0 1-1.9-0.4c0.6 1.5 2 2.3 4.2 2.5 2.7-0.1 4.1-1.4 4.2-3.8v-16.6c0.2-1.7-1.1-2.6-3.9-2.5v-1.5h13.5v1.5c-2.5-0.1-3.7 0.7-3.5 2.4z m17.6 21.3h-11.2v-1.5c2.2 0.1 3.2-0.7 3-2.5v-9.7c0.2-1.8-0.8-2.6-3-2.5v-1.3l8.3-0.1V578c-0.2 1.8 0.8 2.6 2.9 2.5z m-9.2-23a3 3 0 0 1 3-3 2.83 2.83 0 0 1 3 3 3 3 0 0 1-3 3 3.08 3.08 0 0 1-3-3z m28.1 10.3v8.4q0 2.1 1.2 2.1c0.7 0 1.1-0.9 1.3-2.6h1.2v0.7c-0.1 2.6-1.6 3.9-4.6 4a3.83 3.83 0 0 1-3.9-2.1 6.64 6.64 0 0 1-5.3 2.1c-3.9 0-5.8-1.3-5.8-4s3.1-5 9.2-6.7a5 5 0 0 0 1.2-0.3v-2c0-2.1-1.1-3.1-3.3-3.1a5.42 5.42 0 0 0-2.5 0.6v0.1a2.11 2.11 0 0 1 2 2.4c-0.1 1.5-0.9 2.3-2.6 2.4a2.57 2.57 0 0 1-2.7-2.7c0.3-2.8 2.8-4.3 7.6-4.4 4.6 0.2 7 1.8 7 5.1z m-5.7 7.7v-4.1c-3.1 1-4.6 2.6-4.7 4.9 0.1 1.7 0.9 2.6 2.3 2.7 1.6-0.2 2.4-1.3 2.4-3.5z m22.4 5h-11.1v-1.4c2.1 0.1 3-0.7 2.8-2.4v-9.5c0.2-1.7-0.7-2.5-2.8-2.4V565l7.9-0.1v2.6c1.8-2.1 3.7-3.1 5.9-3 3.3 0.1 5 1.9 5.1 5.3v8.5c-0.2 1.7 0.7 2.5 2.6 2.4v1.4h-8v-13.6c0-1.4-0.5-2.2-1.6-2.2-2.1 0.4-3.3 2.4-3.7 5.9v6c-0.2 1.7 0.8 2.5 2.9 2.4z m28.8-18.4h-0.1c-0.6 0.2-0.9 0.8-1 1.9a5.89 5.89 0 0 1 2.5 4.7q-0.3 5.4-7.8 5.7c-0.6 0-1.2-0.1-1.9-0.1a2.77 2.77 0 0 0-0.9-0.1c-1 0-1.4 0.2-1.4 0.7s1.4 1 4.2 1.2c6.3 0.2 9.5 1.8 9.5 4.8-0.4 3.8-3.5 5.8-9.4 6.1-5.6-0.2-8.5-1.7-8.9-4.6 0.3-1.7 1.9-2.6 4.7-2.9-0.2-0.1-0.5-0.2-1-0.4-1.8-0.4-2.7-1.3-2.6-2.8 0-1 1.1-2 3.2-2.9a5.41 5.41 0 0 1-3.2-4.5q0.45-5.55 7.8-6a10.88 10.88 0 0 1 3.6 0.6c0.5-1.9 1.6-2.9 3.5-2.9s2.9 0.9 3 2.5c-0.1 1.2-0.8 1.8-2.2 1.9-1.1 0-1.7-0.5-1.7-1.6 0-0.7 0.1-1 0.1-1.3z m-2.1 20.6c0.1-1.7-1.7-2.5-5.3-2.4-2.7 0-4 0.7-3.9 2 0.1 1.8 1.7 2.8 4.9 2.9 2.8-0.2 4.2-1 4.3-2.5z m-4.5-18.2c-1.8 0-2.7 1.4-2.7 4.3s0.9 4.4 2.7 4.4 2.6-1.5 2.6-4.4-0.9-4.3-2.6-4.3z m23.7 16h-10.8v-1.4c2.1 0.1 3.1-0.7 2.9-2.4v-9.5c0.2-1.7-0.8-2.5-2.9-2.4V565l7.7-0.1v2.3a6.35 6.35 0 0 1 5-2.7 5.09 5.09 0 0 1 4.8 2.9 5.75 5.75 0 0 1 5.1-2.9c3.4 0.1 5.1 1.7 5.2 4.9v8.9c-0.2 1.7 0.7 2.5 2.6 2.4v1.4h-7.7v-12.3c0.1-2.5-0.5-3.6-1.8-3.4-1.8 0.5-2.9 2.1-3 4.7v7.2c-0.1 1.7 0.7 2.5 2.5 2.4v1.4h-7.6v-12.3c0.1-2.5-0.5-3.6-1.8-3.4-1.8 0.5-2.9 2.1-3.1 4.7v7.2c-0.2 1.7 0.7 2.5 2.8 2.4v1.3z m40.5-8.7h-11.8c0 4.8 1.6 7.3 4.8 7.3q2.85 0 5.7-3.6l1.2 0.7c-1.5 3-4.2 4.4-7.8 4.3-5.9-0.3-9.1-3.2-9.7-8.7 0.7-5.6 3.9-8.6 9.7-9 5 0.3 7.6 3.3 7.9 9z m-11.4-1.8h5.7c0-4.2-0.9-6.2-2.6-6.1s-2.8 2-3.1 6.1z m26.3 10.5h-11.1v-1.4c2 0.1 3-0.7 2.8-2.4v-9.5c0.2-1.7-0.7-2.5-2.8-2.4V565l7.9-0.1v2.6a7 7 0 0 1 5.8-3c3.3 0.1 5 1.9 5.1 5.3v8.5c-0.2 1.7 0.7 2.5 2.6 2.4v1.4h-8.1v-13.6c0-1.4-0.5-2.2-1.6-2.2-2 0.4-3.3 2.4-3.7 5.9v6c-0.2 1.7 0.8 2.5 2.9 2.4v1.4z m45.1-5.2h1.5c0 3.9-1.8 5.8-5.4 5.8s-5.6-1.9-5.6-6.1c0.3-4.4-1.2-6.5-4.6-6.3v7.7c-0.3 2.2 0.9 3.3 3.7 3.1v1.5h-13.4V581c2.7 0.1 3.9-0.7 3.7-2.5v-17.8c0.2-1.7-1-2.6-3.7-2.5v-1.5h13.3q9.45 0.15 9.6 6.9c-0.1 4-3.1 6-9.1 6.1v0.1c3.5 0.3 5.8 2.1 6.6 5.6 0.9 3.2 1.6 4.6 2.2 4.1 0.6 0.2 1.1-0.8 1.2-2.7z m-14.1-16.3v7.9c4.5 0.1 6.7-1.6 6.5-5-0.1-3.1-1.4-4.8-4-5-1.7 0-2.5 0.7-2.5 2.1z m32 13c0-5.1-1.2-7.8-3.5-7.9-2.3 0.1-3.4 2.7-3.4 7.9s1.2 7.8 3.4 7.9c2.2-0.1 3.4-2.7 3.5-7.9z m6.3-0.2c-0.7 5.5-3.9 8.4-9.8 8.7-6-0.3-9.2-3.2-9.8-8.7 0.7-5.6 4-8.6 9.8-9 5.9 0.4 9.2 3.4 9.8 9z m14.3 8.7h-11.1v-1.4c2 0.1 3-0.7 2.8-2.4v-9.5c0.2-1.7-0.7-2.5-2.8-2.4V565l7.9-0.1v2.6c1.8-2.1 3.7-3.1 5.9-3 3.3 0.1 5 1.9 5.1 5.3v8.5c-0.2 1.7 0.7 2.5 2.6 2.4v1.4h-8.1v-13.6c0-1.4-0.5-2.2-1.6-2.2-2 0.4-3.3 2.4-3.7 5.9v6c-0.2 1.7 0.8 2.5 2.9 2.4v1.4z m28.9-18.4h-0.1c-0.6 0.2-0.9 0.8-1 1.9a5.78 5.78 0 0 1 2.4 4.7q-0.3 5.4-7.8 5.7c-0.6 0-1.2-0.1-1.9-0.1a2.77 2.77 0 0 0-0.9-0.1c-1 0-1.4 0.2-1.4 0.7s1.4 1 4.2 1.2c6.3 0.2 9.5 1.8 9.5 4.8-0.4 3.8-3.5 5.8-9.3 6.1-5.6-0.2-8.5-1.7-8.9-4.6 0.3-1.7 1.9-2.6 4.8-2.9-0.2-0.1-0.5-0.2-1-0.4-1.8-0.4-2.7-1.3-2.6-2.8 0-1 1.1-2 3.2-2.9a5.41 5.41 0 0 1-3.2-4.5q0.45-5.55 7.8-6a10.88 10.88 0 0 1 3.6 0.6c0.5-1.9 1.6-2.9 3.4-2.9s2.9 0.9 3 2.5c-0.1 1.2-0.8 1.8-2.2 1.9-1.2 0-1.7-0.5-1.7-1.6a2.39 2.39 0 0 1 0.1-1.3z m-2.1 20.6c0.1-1.7-1.7-2.5-5.3-2.4-2.7 0-4 0.7-3.9 2 0.1 1.8 1.7 2.8 4.9 2.9 2.7-0.2 4.2-1 4.3-2.5z m-4.6-18.2c-1.8 0-2.7 1.4-2.7 4.3s0.9 4.4 2.7 4.4 2.6-1.5 2.6-4.4-0.8-4.3-2.6-4.3z m25.3 16v-13.4c0.1-1.7-0.4-2.5-1.6-2.5-1.8 0.4-2.8 2.3-3 5.6v6.3c-0.2 1.7 0.6 2.5 2.5 2.4v1.4h-10.8v-1.4q3.3 0.15 3-2.4v-17.9c0.2-1.4-0.7-2-2.7-1.9v-1.4l8.1-0.1v9.8a6.58 6.58 0 0 1 4.6-2.3c3.5 0.1 5.4 1.8 5.5 5.2v8.6q-0.3 2.55 2.4 2.4v1.4h-8z m29.4-8.7H551c0 4.8 1.6 7.3 4.8 7.3q2.85 0 5.7-3.6l1.2 0.7c-1.5 3-4.2 4.4-7.9 4.3-5.9-0.3-9.2-3.2-9.7-8.7 0.7-5.6 3.9-8.6 9.7-9 5.1 0.3 7.8 3.3 8 9z m-11.4-1.8h5.7c0-4.2-0.9-6.2-2.6-6.1s-2.8 2-3.1 6.1z m46.7 5.3h1.4c0 3.9-1.8 5.8-5.3 5.8s-5.5-1.9-5.5-6.1q0.45-6.6-4.5-6.3v7.7c-0.3 2.2 0.9 3.3 3.6 3.1v1.5h-13.1V581c2.6 0.1 3.8-0.7 3.6-2.5v-17.8c0.2-1.7-1-2.6-3.6-2.5v-1.5h12.9q9.15 0.15 9.3 6.9c-0.1 4-3.1 6-8.9 6.1v0.1a6.81 6.81 0 0 1 6.5 5.6c0.9 3.2 1.6 4.6 2.2 4.1 0.9 0.2 1.3-0.8 1.4-2.7zM584 560.5v7.9c4.5 0.1 6.7-1.6 6.5-5-0.1-3.1-1.4-4.8-4-5-1.7 0-2.5 0.7-2.5 2.1z m26.7 4.5v13c0 1.9 0.7 2.9 2 2.9 2-0.1 3.1-1.6 3.3-4.4v-7.6c0.2-1.8-0.8-2.6-3-2.5v-1.3l8.4-0.1v13.6c-0.2 1.7 0.8 2.6 2.9 2.5v1.3l-7.9 0.1v-2a6.59 6.59 0 0 1-5.5 2.2c-3.8 0.1-5.6-1.6-5.5-5.2v-8.4c0.2-1.8-0.7-2.6-2.6-2.5v-1.3z m27.8 17h-11.7v-1.4c2.1 0.1 3.1-0.7 2.9-2.4v-9.5c0.2-1.7-0.8-2.5-2.9-2.4V565l7.9-0.1v3.9h0.1c1.2-2.9 2.8-4.3 5-4.3s3.4 1.2 3.5 3.2c-0.1 1.8-1 2.8-2.6 2.9a2.49 2.49 0 0 1-2.6-2.7c0-0.2 0.1-0.4 0.1-0.7v-0.6c-2.1 1.6-3.2 5.2-3.2 10.8-0.4 2.6 0.8 3.7 3.5 3.4v1.2z m23.2-12.7v8.4q0 2.1 1.2 2.1c0.7 0 1.1-0.9 1.3-2.6h1.3v0.7c-0.1 2.6-1.6 3.9-4.6 4a3.83 3.83 0 0 1-3.9-2.1 6.78 6.78 0 0 1-5.3 2.1c-3.8 0-5.8-1.3-5.8-4s3.1-5 9.2-6.7a3 3 0 0 0 1.1-0.3v-2c0-2.1-1.1-3.1-3.3-3.1a4.75 4.75 0 0 0-2.4 0.6v0.1a2.17 2.17 0 0 1 2 2.4 2.42 2.42 0 0 1-2.6 2.4 2.65 2.65 0 0 1-2.8-2.7c0.3-2.8 2.8-4.3 7.7-4.4 4.6 0.2 6.9 1.8 6.9 5.1z m-5.6 7.7v-4.1c-3.1 1-4.6 2.6-4.7 4.9 0.1 1.7 0.9 2.6 2.3 2.7 1.6-0.2 2.4-1.3 2.4-3.5z m22.8 3.6v1.4h-11.2v-1.4q3.3 0.15 3-2.4v-17.3c0.2-1.7-0.8-2.5-2.9-2.5V557l8.2-0.1v21.3c-0.1 1.6 0.8 2.4 2.9 2.4z m35-23.9v9h-1.4c-1.9-5.5-4.7-8.1-8.4-7.9-4.3 0-6.5 3.8-6.5 11.3s2.5 11.2 7.5 11.3c4.9-0.1 7.6-3 8-8.6h1.7c-0.2 6.6-3.7 10-10.6 10-8.4-0.3-12.9-4.5-13.5-12.8 0.9-7.9 5.2-12.3 13-13.1a15.09 15.09 0 0 1 7.2 2.2l1.4-1.6h1.6z m18.6 16.8c0-5.1-1.2-7.8-3.4-7.9-2.3 0.1-3.4 2.7-3.4 7.9s1.3 7.8 3.4 7.9c2.2-0.1 3.3-2.7 3.4-7.9z m6.4-0.2c-0.7 5.5-4 8.4-9.8 8.7-6-0.3-9.2-3.2-9.8-8.7 0.7-5.6 4-8.6 9.8-9 5.8 0.4 9.1 3.4 9.8 9z m13.9 8.7H742v-1.4c2.1 0.1 3.1-0.7 2.9-2.4v-9.5c0.2-1.7-0.8-2.5-2.9-2.4V565l7.7-0.1v2.3a6.32 6.32 0 0 1 4.9-2.7 5.09 5.09 0 0 1 4.8 2.9 5.75 5.75 0 0 1 5.1-2.9c3.4 0.1 5.1 1.7 5.2 4.9v8.9c-0.2 1.7 0.7 2.5 2.6 2.4v1.4h-7.7v-12.3c0.1-2.5-0.5-3.6-1.7-3.4-1.8 0.5-2.9 2.1-3.1 4.7v7.2c-0.1 1.7 0.7 2.5 2.5 2.4v1.4h-7.6v-12.3c0.1-2.5-0.5-3.6-1.8-3.4-1.8 0.5-2.9 2.1-3.1 4.7v7.2c-0.2 1.7 0.7 2.5 2.8 2.4v1.3z m33.6 0h-10.8v-1.4c2.1 0.1 3.1-0.7 2.9-2.4v-9.5c0.2-1.7-0.8-2.5-2.9-2.4V565l7.7-0.1v2.3a6.35 6.35 0 0 1 5-2.7 5.09 5.09 0 0 1 4.8 2.9 5.75 5.75 0 0 1 5.1-2.9c3.4 0.1 5.1 1.7 5.2 4.9v8.9c-0.2 1.7 0.7 2.5 2.6 2.4v1.4h-7.7v-12.3c0.1-2.5-0.5-3.6-1.7-3.4-1.8 0.5-2.9 2.1-3.1 4.7v7.2c-0.1 1.7 0.7 2.5 2.5 2.4v1.4h-7.6v-12.3c0.1-2.5-0.5-3.6-1.8-3.4-1.8 0.5-2.9 2.1-3.1 4.7v7.2c-0.2 1.7 0.7 2.5 2.8 2.4v1.3z m41.1-8.7h-11.8c0 4.8 1.6 7.3 4.8 7.3q2.85 0 5.7-3.6l1.2 0.7c-1.5 3-4.2 4.4-7.8 4.3-5.9-0.3-9.1-3.2-9.7-8.7 0.7-5.6 3.9-8.6 9.7-9 5 0.3 7.6 3.3 7.9 9z m-12-1.8h5.7c0-4.2-0.9-6.2-2.6-6.1s-2.8 2-3.1 6.1zM843 582h-11.7v-1.4c2.1 0.1 3.1-0.7 2.9-2.4v-9.5c0.2-1.7-0.8-2.5-2.9-2.4V565l7.9-0.1v3.9h0.2c1.2-2.9 2.8-4.3 4.9-4.3s3.4 1.2 3.5 3.2c-0.1 1.8-1 2.8-2.6 2.9a2.55 2.55 0 0 1-2.6-2.7c0-0.2 0.1-0.4 0.1-0.7v-0.6c-2.1 1.6-3.2 5.2-3.2 10.8-0.4 2.6 0.8 3.7 3.5 3.4v1.2z m22.8-4.6l1 0.9a7.8 7.8 0 0 1-7.1 3.7c-5.9-0.4-9-3.3-9.4-8.7q0.6-8.25 9.9-9c4.1 0.2 6.3 1.6 6.5 4.3a3 3 0 0 1-3 3c-1.8-0.1-2.7-0.9-2.8-2.6 0-1.4 0.8-2.3 2.5-2.6a3.33 3.33 0 0 0-2.5-0.7c-3 0.1-4.6 2.6-4.6 7.4s1.7 7.3 4.7 7.4c1.5 0.1 3.1-1 4.8-3.1z m15.8 4.6h-11.2v-1.5c2.2 0.1 3.2-0.7 3-2.5v-9.7c0.2-1.8-0.8-2.6-3-2.5v-1.3l8.3-0.1V578c-0.2 1.8 0.8 2.6 2.9 2.5z m-9.3-23a3 3 0 0 1 3-3 2.83 2.83 0 0 1 3 3 3 3 0 0 1-3 3 3.08 3.08 0 0 1-3-3z m28.1 10.3v8.4q0 2.1 1.2 2.1c0.7 0 1.1-0.9 1.3-2.6h1.3v0.7c-0.1 2.6-1.6 3.9-4.6 4a3.83 3.83 0 0 1-3.9-2.1 6.78 6.78 0 0 1-5.3 2.1c-3.9 0-5.8-1.3-5.8-4s3.1-5 9.2-6.7a5 5 0 0 0 1.2-0.3v-2c0-2.1-1.1-3.1-3.3-3.1a4.75 4.75 0 0 0-2.4 0.6v0.1a2.17 2.17 0 0 1 2 2.4 2.42 2.42 0 0 1-2.6 2.4 2.57 2.57 0 0 1-2.7-2.7c0.3-2.8 2.8-4.3 7.6-4.4 4.5 0.2 6.8 1.8 6.8 5.1z m-5.6 7.7v-4.1c-3.1 1-4.6 2.6-4.7 4.9 0.1 1.7 0.9 2.6 2.3 2.7 1.6-0.2 2.4-1.3 2.4-3.5z m22.9 3.6v1.4h-11.2v-1.4q3.3 0.15 3-2.4v-17.3c0.2-1.7-0.8-2.5-2.9-2.5V557l8.2-0.1v21.3c-0.2 1.6 0.8 2.4 2.9 2.4z m20.2-19.5v7h1.1c3.7 0 5.6-1.5 5.5-4.6s-1.5-4.8-4.2-4.9a2.24 2.24 0 0 0-2.4 2.5z m-6.2 17v-17.5c0.2-1.7-1-2.5-3.5-2.4v-1.4h13.3q9 0.15 9.3 6.3c0 3-1.9 4.9-5.8 5.4 4.9 0.8 7.3 2.9 7.3 6.3-0.3 4.7-3.5 7.1-9.5 7.2h-14.6v-1.4c2.6 0.1 3.7-0.8 3.5-2.5z m6.1-8.7v8c-0.1 1.9 0.8 2.8 2.6 2.7 3.6-0.1 5.5-1.7 5.5-4.9-0.1-3.9-1.9-5.9-5.5-5.9h-2.6z m34.2-0.1v8.4q0 2.1 1.2 2.1c0.7 0 1.1-0.9 1.3-2.6h1.3v0.7c-0.1 2.6-1.6 3.9-4.6 4a3.83 3.83 0 0 1-3.9-2.1 6.64 6.64 0 0 1-5.3 2.1c-3.8 0-5.8-1.3-5.8-4s3.1-5 9.2-6.7a5 5 0 0 0 1.2-0.3v-2c0-2.1-1.1-3.1-3.3-3.1a4.75 4.75 0 0 0-2.4 0.6v0.1a2.17 2.17 0 0 1 2 2.4 2.42 2.42 0 0 1-2.6 2.4 2.52 2.52 0 0 1-2.7-2.7c0.3-2.8 2.8-4.3 7.6-4.4 4.5 0.2 6.8 1.8 6.8 5.1z m-5.6 7.7v-4.1c-3.1 1-4.6 2.6-4.7 4.9 0.1 1.7 0.9 2.6 2.3 2.7 1.6-0.2 2.4-1.3 2.4-3.5z m23 5h-11.1v-1.4c2 0.1 3-0.7 2.8-2.4v-9.5c0.2-1.7-0.7-2.5-2.8-2.4V565l7.9-0.1v2.6a7.06 7.06 0 0 1 5.9-3c3.3 0.1 5 1.9 5.1 5.3v8.5c-0.2 1.7 0.7 2.5 2.6 2.4v1.4h-8.1v-13.6c0-1.4-0.5-2.2-1.6-2.2-2 0.4-3.3 2.4-3.7 5.9v6c-0.2 1.7 0.8 2.5 2.9 2.4v1.4z m35.1 0h-7.6l-4.6-8.6-0.9 0.7v4q-0.3 2.55 2.7 2.4v1.4H1003v-1.4q3.45 0.15 3-2.4v-17.3c0.2-1.7-0.8-2.5-2.9-2.5v-1.4l8.3-0.1v14.8c3.9-2.9 5.7-4.5 5.3-4.8 0-0.4-0.7-0.6-2.2-0.7h-0.4v-1.4h9.3v1.4c-1.9 0-4.3 1.3-7 3.9l4.7 9.1c0.4 1.1 1.5 1.5 3.3 1.4v1.5z" fill="#005AA6"></path></svg>