<svg viewBox="0 0 1024 1024" version="1.1" xmlns="http://www.w3.org/2000/svg"><path d="M224 0h576c123.6 0 224 100.4 224 224v576c0 123.6-100.4 224-224 224H224c-123.6 0-224-100.4-224-224V224C0 100.4 100.4 0 224 0z" fill="#FFFFFF"></path><path d="M469.6 640.8c-43.6 37.2-106 38-178.8 18.4-96-37.6-125.2-92.4-122.8-162.4 2.8-70 74.8-189.2 267.2-222 100.8-20.4 265.6 3.2 360.8 98.8-236-116.4-362 33.2-474.8 110-17.6 20.8-15.6 31.2-0.4 51.2 48.4 35.6 100.8 70.8 148.8 106" fill="#E30016"></path><path d="M232 652.4c59.2 59.2 197.6 123.6 350 97.6 158-26.8 283.2-125.6 273.6-247.2 1.2-93.2-144-170-253.6-152-75.6 48.4-140 96.8-215.6 145.2-12.4 11.6-7.6 20.8 0 30 41.2 29.2 82 58.4 123.2 88 42.8-29.2 85.6-58.4 128.4-88 1.2-6 1.6-12.8-5.2-26.4-22.4-16.8-50.4-37.6-72.4-54 2.8-9.6 12.4-20 43.6-19.2 34.8 20.4 70 46 104.8 66.8 13.2 14 13.2 28 0 42-65.2 46-92.8 81.6-195.2 137.6-102.4 56.4-196 13.6-281.6-20.4" fill="#004FA0"></path></svg>