<svg viewBox="0 0 1024 1024" version="1.1" xmlns="http://www.w3.org/2000/svg"><path d="M88.948 549.449c-12.862 10.899-31.234 11.13-52.698 5.382C7.86 543.744-0.762 527.689 0.052 507.135c0.81-20.552 22.006-55.552 78.732-65.107 29.667-6.065 78.309 0.87 106.33 28.996-69.513-34.171-106.648 9.735-139.917 32.256-5.181 6.13-4.565 9.105-0.174 15.03 14.234 10.38 29.692 20.76 43.925 31.139" fill="#E30016"></path><path d="M18.455 552.816c17.406 17.332 58.276 36.272 103.155 28.598 46.597-7.912 83.557-36.851 80.684-72.555 0.409-27.338-42.436-49.886-74.722-44.595-22.275 14.222-41.346 28.446-63.624 42.67-3.712 3.358-2.228 6.143 0 8.843l36.313 25.756 37.856-25.756c0.411-1.767 0.51-3.797-1.546-7.69-6.566-4.87-14.81-10.99-21.376-15.86 0.77-2.792 3.697-5.92 12.87-5.622 10.301 6.024 20.61 13.539 30.911 19.56 3.946 4.1 3.946 8.203 0 12.303-19.187 13.455-27.386 23.921-57.555 40.363-30.173 16.444-57.667 3.888-82.966-6.015" fill="#004FA0"></path><path d="M264.593 474.056c-3.294-3.063-7.455-6.557-12.482-10.486 2.129-2.404 4.348-5.24 6.673-8.513 2.899 2.406 7.062 6.012 12.485 10.807-2.527 3.285-4.743 6.012-6.676 8.192z m17.413 5.576l4.93-1.65v-22.925h2.03c4.061 0.21 6.389 0.436 6.972 0.657 0.184 0.435 0.1 1.414-0.297 2.951V474.713l15.095-4.908c-0.384 9.38-0.767 18.452-1.163 27.188 0 8.082-3.765 11.8-11.32 11.143-0.582-3.284-1.449-6.236-2.612-8.849v13.097h-8.705v-24.56l-5.229 1.956v23.918c-0.58 4.376 1.166 6.223 5.23 5.578h12.482c4.061 0.645 6.09-2.515 6.09-9.505 3.295 1.523 6.577 2.404 9.87 2.613-0.58 7.437-1.745 12.023-3.478 13.77-1.362 1.956-5.027 2.949-11.035 2.949h-11.022c-12.581 0.657-18.092-2.628-16.546-9.827V492.41l-7.838 3.272-2.03-7.858-2.614 5.242a119.8 119.8 0 0 0-13.065-8.191c1.932-3.285 3.678-6.445 5.226-9.506 4.26 2.404 8.521 5.02 12.77 7.856l-0.867 1.314 8.122-2.613V463.57h2.032c4.457 0.224 6.972 0.66 7.555 1.314 0 0.435-0.1 0.98-0.297 1.637-0.187 0.88-0.286 1.635-0.286 2.292v10.819z m19.158 3.272l-5.523 2.292v12.778c3.491 1.09 5.125-0.77 4.94-5.564 0.185-2.84 0.384-6.012 0.583-9.506z m-52.83 40.301c0-0.226 0.1-0.435 0.284-0.656 3.68-8.74 6.775-18.021 9.29-27.848 0.196 0.21 0.58 0.545 1.163 0.98a37.918 37.918 0 0 0 6.971 3.928c-0.196 0.223-0.781 2.515-1.745 6.89a455.294 455.294 0 0 0-5.513 23.26c-0.381 0-2.612-1.425-6.673-4.262-2.513-1.523-3.777-2.292-3.777-2.292z m130.958-30.139v-37.352c4.644 0 7.355 0.112 8.123 0.321 0.98 0 1.548 0.114 1.745 0.336 0 0.435-0.097 0.868-0.284 1.301-0.58 1.314-0.782 2.74-0.58 4.263v68.803h-9.004v-30.473c-2.515 0.881-5.03 1.426-7.542 1.635-0.967-6.99-2.328-14.733-4.062-23.26v48.171h-8.42v-26.867c-0.768 0.21-1.65 0.433-2.615 0.657-2.13 0.433-3.678 0.657-4.644 0.657-0.384-3.496-1.447-10.483-3.195-20.967v15.724c0 7.635-0.767 13.42-2.316 17.364-1.361 4.793-4.94 10.145-10.737 16.045-2.91-2.404-5.906-4.15-9.003-5.24 4.063-2.407 7.358-5.9 9.87-10.486 2.515-4.808 3.777-10.26 3.777-16.381v-40.625c4.448 0 6.96 0.114 7.543 0.324 0.966 0 1.548 0.112 1.745 0.335 0 0.433-0.097 0.866-0.296 1.314a13.838 13.838 0 0 0-0.583 3.927v13.434a33.418 33.418 0 0 0 6.676-1.313c1.362 5.676 2.612 11.573 3.777 17.697v-32.446c4.447 0 6.972 0.112 7.54 0.336 0.978 0 1.549 0.112 1.748 0.321 0 0.224-0.1 0.657-0.286 1.314a13.577 13.577 0 0 0-0.58 3.93v10.161c1.932-0.223 4.345-0.657 7.255-1.313a214.426 214.426 0 0 1 4.348 18.353z m-44.41 9.17c-4.444-1.09-7.059-1.747-7.838-1.97 0.396-1.747 1.546-9.17 3.49-22.284 0.188-1.299 0.384-2.389 0.583-3.27 4.064 0.881 6.676 1.426 7.827 1.636a215.87 215.87 0 0 0-2.316 14.748c-0.966 6.554-1.546 10.26-1.745 11.14z m91.206-28.504v-18.351h2.6c2.33 0.223 4.26 0.445 5.809 0.654 1.362 0.226 2.129 0.433 2.328 0.657 0 0.436-0.1 1.092-0.299 1.973a19.57 19.57 0 0 0-0.284 3.27v11.797c3.678 0 7.159-0.112 10.453-0.333 1.733-0.21 3.282-0.321 4.644-0.321a99.497 99.497 0 0 0 4.061-0.657c-0.582 8.96-1.262 21.945-2.03 38.985v3.272c-0.198 2.195 0.965 3.173 3.48 2.949 2.711 1.537 4.444-2.39 5.226-11.785 3.282 2.406 6.477 4.04 9.572 4.907-0.767 12.887-4.161 18.787-10.155 17.697H451.04c-5.607 0.21-8.222-2.516-7.838-8.192 0-4.374 0.682-16.928 2.032-37.673l-9.288 0.644c0.396 21.627-6.96 37.462-22.057 47.513-2.129-2.628-5.027-5.017-8.705-7.214 7.938-4.583 13.252-9.714 15.961-15.388 2.899-5.467 4.447-13.77 4.644-24.91l-17.41 0.656v-9.826l17.709-0.324z m84.8 40.946h-26.996v-9.493h26.997v-6.878h4.064c4.84 0 7.156 0.324 6.971 0.98 0 0.434-0.099 0.978-0.298 1.635-0.185 0.881-0.284 1.635-0.284 2.292v1.97h27.28v9.494h-26.996v17.04h-10.737v-17.04z m-6.956-45.865v30.474h-8.708v-18.353c-0.2 0.221-0.68 0.878-1.461 1.97a130.267 130.267 0 0 1-4.928 5.9 60.936 60.936 0 0 1-7.543-7.214c6.377-6.332 12.47-15.39 18.28-27.19 6.972 2.616 10.55 4.153 10.737 4.586 0 0.433-1.153 2.404-3.481 5.898-1.55 1.973-2.515 3.272-2.896 3.929z m11.317 5.243v-19.332h2.614c2.316 0.224 4.161 0.333 5.51 0.333 1.35 0.21 2.13 0.436 2.317 0.657 0 0.657-0.088 1.302-0.287 1.958-0.199 0.881-0.284 1.86-0.284 2.95v7.534c4.445-2.837 8.026-5.788 10.737-8.834 0.583-0.657 0.966-1.105 1.165-1.314 5.411 5.898 8.123 8.946 8.123 9.17-2.513 1.314-6.491 3.717-11.902 7.213a90.3 90.3 0 0 1-8.123 5.24v4.251c0 2.628 0.966 3.83 2.899 3.606h4.643c4.26 0.88 6.094-2.292 5.511-9.506 2.91 1.314 6.193 2.31 9.87 2.952-0.386 7.21-1.25 11.588-2.612 13.11-1.165 1.971-4.16 2.837-8.991 2.616H522.79c-5.027 0.221-7.443-2.294-7.256-7.537v-4.905a89.103 89.103 0 0 1-6.38 2.949c-1.162-2.628-2.611-5.577-4.357-8.849l1.447-0.336c3.294-0.866 6.292-2.18 9.004-3.926z m52.294 10.483v-18.675h22.639c0-0.657 0.1-1.747 0.299-3.272 0.38-3.27 0.58-5.9 0.58-7.868 3.095 0.445 6.292 0.769 9.574 0.99 0 0.21 0.097 0.321 0.296 0.321 0.583 0.226 0.867 0.433 0.867 0.657a108.726 108.726 0 0 1-1.45 9.172h23.22v17.697h-9.584v-8.848h-13.349c0.58 7.646 2.129 13.755 4.641 18.353 1.935-1.746 3.977-3.943 6.096-6.556 0.976-1.314 1.646-1.97 2.03-1.97 6.008 4.809 8.804 7.422 8.42 7.87-3.677 2.18-7.639 5.24-11.902 9.17 4.46 5.9 10.936 10.707 19.457 14.412-2.91 3.284-5.326 6.445-7.258 9.505-14.711-8.303-23.999-20.97-27.864-38.01-0.58 1.093-1.546 2.63-2.908 4.587-0.386 0.657-0.77 1.314-1.165 1.97v23.262c4.26-1.747 8.038-3.496 11.332-5.243-0.2 2.615-0.299 5.564-0.299 8.848 0.2 0.866 0.299 1.314 0.299 1.314-8.324 3.272-14.23 5.788-17.71 7.535a922.172 922.172 0 0 0-2.614 1.635 503.412 503.412 0 0 1-4.06-9.503c2.315-1.526 3.577-4.041 3.764-7.538V503.55c-4.061 4.586-8.892 8.625-14.502 12.118a45.688 45.688 0 0 0-6.105-7.868c15.094-8.946 24.484-19.976 28.162-33.087h-11.902v9.826h-9.004z m83.07-4.586h-9.87v-8.848h11.033v-16.048h6.39c1.932 0 2.898 0.324 2.898 0.978 0 0.433-0.097 0.883-0.284 1.316-0.583 1.09-0.78 2.292-0.583 3.606v10.148h8.125v8.848h-8.125v9.17l4.644-3.27c2.131 3.06 4.83 7.856 8.125 14.412l-7.256 5.243c-2.131-4.153-3.964-7.646-5.513-10.485v35.381h-8.421v-29.803c-2.515 5.45-5.027 9.827-7.54 13.097-1.549-2.837-3.493-5.786-5.81-8.846 5.227-7.202 9.289-15.503 12.187-24.899z m20.037 0v-8.848h18.28v-16.048h7.838c1.35 0 2.032 0.21 2.032 0.657 0 0.435-0.1 1.092-0.287 1.958a8.89 8.89 0 0 0-0.296 3.942v9.49h8.123v8.85h-7.827v42.595c0.967 5.897-4.357 8.624-15.975 8.189-0.185-3.058-1.051-6.443-2.6-10.16 7.156 1.087 10.154-0.324 8.991-4.25v-36.375H670.65z m1.45 9.17l9.287-2.949c2.13 5.9 3.678 11.688 4.644 17.376l-9.288 2.615a141.383 141.383 0 0 0-4.644-17.042z m86.548-28.166h25.832v8.192h-17.71c2.329 1.301 3.58 2.068 3.778 2.291 0 0.436-0.199 0.869-0.582 1.3-1.163 1.316-2.316 3.063-3.48 5.242h13.054v46.201c0 5.032-4.644 7.423-13.932 7.212-0.187-3.285-1.053-6.33-2.602-9.17 5.214 0.212 7.542-0.769 6.96-2.949V497.65c-0.768 0.869-1.746 2.294-2.896 4.25-0.399-0.209-1.265-1.09-2.615-2.613v20.634h-9.001v-1.959h-8.708v2.95h-7.838v-20.968l-1.734 1.314c-1.165-2.194-2.23-3.941-3.197-5.243v34.066l-9.287-0.321V477.66h13.931c-0.383-0.433-0.78-1.09-1.163-1.97-1.165-1.747-1.548-2.725-1.165-2.951 1.364-0.643 4.46-1.523 9.29-2.613 0.197 0.433 1.163 2.95 2.909 7.534h8.125c1.548-2.836 2.711-5.676 3.48-8.512h-40.632v-8.192h27.565c-0.383-1.97-0.767-3.382-1.15-4.265-0.2-0.657-0.2-1.088 0-1.311 4.447-0.433 8.409-0.657 11.902-0.657 0.383 1.537 0.667 3.605 0.866 6.233z m-14.798 24.896h-9.873v8.848c3.68-1.97 6.962-4.921 9.873-8.848z m14.512 0h-12.779l4.94 5.564c-0.196 0.224-0.582 0.657-1.165 1.314-1.745 1.09-3.478 2.403-5.224 3.929h17.413c-3.481-2.392-5.71-3.817-6.676-4.25-0.77-0.448-1.066-0.77-0.869-0.993 0.77-1.092 2.231-2.949 4.36-5.564z m11.604 0h-10.453c2.714 1.97 6.195 4.472 10.453 7.535v-7.535z m-23.22 24.896h8.705v-6.878h-8.705v6.878z m70.884-6.878v-46.855h5.51c3.48 0 5.028 0.447 4.642 1.313-0.58 2.404-0.864 4.696-0.864 6.878v53.734h5.795v-61.925h6.105c3.282 0.223 4.83 0.656 4.644 1.313-0.197 0.224-0.296 0.545-0.296 0.993-0.583 1.956-0.867 4.039-0.867 6.219v38.009c3.479-7.647 5.994-16.829 7.54-27.524 0.386-2.18 0.682-3.493 0.881-3.929 2.314 0.643 5.61 1.959 9.856 3.93 0.585 0.209 1.265 0.432 2.032 0.656a829.725 829.725 0 0 0-2.899 7.535c-2.129 7.199-5.51 15.936-10.154 26.21 0.383 0.433-1.932-0.545-6.972-2.949v11.14h20.323v9.17h-65.883v-9.17h20.607v-11.14c-5.226 2.404-8.224 3.494-9.003 3.27-0.2-0.657-0.384-1.314-0.583-1.956-2.712-14.86-5.71-25.665-8.99-32.445 5.225-1.747 8.706-2.95 10.44-3.608 2.327 8.094 5.039 18.468 8.136 31.131z m74.363-39.965h11.601v8.515h-14.796c-1.364 3.717-2.13 6.01-2.33 6.875h16.845v8.528h-8.72v6.877h9.288v8.513h-9.288v9.508a142.398 142.398 0 0 1 4.073-2.951c2.12-1.97 3.282-2.949 3.481-2.949 0.583 2.404 1.066 5.017 1.447 7.856-7.54 6.345-12.283 10.707-14.213 13.111-1.364 1.523-2.131 2.292-2.33 2.292-0.967-1.314-2.515-4.474-4.644-9.503 0-0.212 0.386-0.757 1.165-1.637 1.549-1.957 2.316-3.494 2.316-4.587v-11.14H875.73v-8.513h10.157v-6.877h-2.899a7.471 7.471 0 0 0-0.866 2.294c-0.396 0.866-0.682 1.523-0.881 1.956-1.151-1.09-3.28-2.725-6.375-4.907-0.398-0.224-0.583-0.446-0.583-0.657 5.227-11.797 8.222-21.079 8.99-27.845 0.582-2.197 0.98-3.496 1.165-3.941 1.932 0.224 5.127 0.99 9.584 2.292 0.186 0.447 0 1.104-0.583 1.97a67.553 67.553 0 0 0-1.447 4.92z m13.93 50.13v-56.028h31.926v37.35h-2.908c1.942 2.18 3.578 4.15 4.94 5.9 1.15 1.747 1.066 2.934-0.296 3.594-0.386 0.223-0.67 0.333-0.867 0.333-2.515 1.958-4.646 3.817-6.391 5.564 3.095 3.93 6.775 6.78 11.033 8.527-2.328 2.18-4.744 5.34-7.256 9.491-0.384-0.21-0.767-0.545-1.163-0.978-6.193-5.24-10.256-10.05-12.186-14.41 0 0.866 0.1 2.068 0.284 3.605 0 1.523 0.1 2.613 0.296 3.27-7.554 4.363-12.099 7.314-13.645 8.849-1.35 1.09-2.132 1.635-2.316 1.635-0.782-0.657-2.23-4.263-4.36-10.817 0-0.212 0.299-0.645 0.867-1.302 1.362-1.313 2.041-2.836 2.041-4.583z m8.707-41.296h13.635v-5.886H914.63v5.886z m0 14.093h13.635v-5.9H914.63v5.9z m2.614 8.525h-2.614v19.656c3.481-1.526 5.797-2.84 6.962-3.93-2.714-5.688-4.163-10.93-4.348-15.726z m16.245 0h-8.122v1.302c0.77 2.849 1.646 5.031 2.612 6.554a42.238 42.238 0 0 0 5.51-7.856z m20.086-20.31c6.775-5.9 12.681-13.113 17.709-21.626 0.767 0.657 1.932 1.414 3.48 2.292 4.062 2.182 6.094 3.384 6.094 3.608-0.187 0.433-0.583 0.866-1.153 1.3a30.22 30.22 0 0 0-2.612 2.63c-6.193 7.643-11.815 13.752-16.842 18.338-1.35-1.525-3.579-3.705-6.676-6.542z m31.64-7.213v-8.513h31.345v8.513h-31.345z m-12.198 21.626v40.299h-9.288v-30.473c-1.35 1.747-2.995 3.718-4.928 5.898l-6.389-6.554c7.552-6.766 14.228-15.406 20.037-25.891 5.608 3.286 8.506 5.242 8.705 5.9 0 0.223-0.296 0.544-0.879 0.992-1.932 2.406-4.347 5.676-7.258 9.829z m7.841-9.17h40.346v9.17h-11.033v34.063c0.395 4.586-4.249 6.992-13.932 7.214-0.57-4.375-1.636-7.87-3.183-10.484 5.411 0.433 7.924-0.333 7.54-2.292v-28.501h-19.738v-9.17z m-709.059 73.654h-5.307c-0.166-2.83-1.68-4.337-4.54-4.506-2.781 0.17-4.254 3.087-4.425 8.758 0.171 5.667 1.644 8.543 4.425 8.631 2.86-0.088 4.374-1.59 4.54-4.508h5.307c-0.337 5.239-3.62 7.898-9.847 7.987-6.317-0.172-9.56-4.211-9.727-12.11 0.166-8.072 3.41-12.24 9.727-12.497 6.227 0.177 9.51 2.925 9.847 8.245z m9.45 16.362h-4.976v-24.048h4.976v9.491h8.936v-9.491h5.103v24.048h-4.976V559.78h-9.063v10.526z m20.19 0v-24.048h5.034v24.048h-5.033z m9.508 0v-4.031l11.593-15.983h-10.835v-4.034h16.883v4.034l-11.462 15.983h11.717v4.03h-17.896z m27.346 0h-4.976v-24.048h4.976v9.491h8.936v-9.491h5.103v24.048h-4.976V559.78h-9.063v10.526z m30.882 0c-7.333-0.172-11.084-4.211-11.25-12.11 0.166-8.072 3.917-12.24 11.25-12.497 7.162 0.258 10.867 4.425 11.12 12.497-0.253 7.899-3.958 11.938-11.12 12.11z m-0.279-20.693c-4.04 0-6.015 2.91-5.936 8.732-0.08 5.82 1.896 8.69 5.936 8.604 3.874 0 5.806-2.868 5.806-8.604 0-5.823-1.932-8.732-5.806-8.732z m32.121-3.355h5.004v14.92c-0.25 5.91-3.584 8.956-10.002 9.128-6.588-0.172-9.96-3.217-10.132-9.129v-14.92h5.006v12.987c-0.336 5.317 1.377 7.845 5.126 7.59 3.586 0.255 5.249-2.273 4.998-7.59v-12.986z m26.922 0h4.926v15.944c-0.169 5.226-2.776 7.93-7.83 8.102-4.968 0.081-7.576-2.53-7.83-7.847h5.05c0 2.915 0.926 4.375 2.78 4.375 1.686 0 2.607-1.46 2.78-4.375 0-0.08 0.04-0.213 0.124-0.383V546.26z m11.078 24.048v-24.048h5.033v24.048h-5.033z m26.315-24.048h5.003v14.92c-0.25 5.91-3.583 8.956-10.002 9.128-6.588-0.172-9.96-3.217-10.13-9.129v-14.92h5.003v12.987c-0.334 5.317 1.376 7.845 5.127 7.59 3.584 0.255 5.25-2.273 4.999-7.59v-12.986z m16.133 24.048h-4.978v-24.048h4.978v9.491h8.935v-9.491h5.102v24.048h-4.978V559.78h-9.06v10.526z m35.318-24.048h5.004v14.92c-0.25 5.91-3.584 8.956-10.003 9.128-6.589-0.172-9.96-3.217-10.13-9.129v-14.92h5.004v12.987c-0.337 5.317 1.377 7.845 5.126 7.59 3.586 0.255 5.25-2.273 4.999-7.59v-12.986z m14.788 24.048h-4.75l8.374-24.048h5.871l8.125 24.048h-5.001l-1.748-5.068h-9.124l-1.747 5.068z m2.52-9.507h6.71l-3.163-10.067h-0.128l-3.42 10.067z m30.759-10.626v6.152h4.24c2.304 0 3.501-1.087 3.59-3.263-0.089-1.93-1.286-2.89-3.59-2.89h-4.24z m0.067 10.518v9.615h-5.1v-24.048h10.078c5.363 0.174 8.086 2.252 8.167 6.241-0.08 3.121-1.7 5.068-4.847 5.85v0.129c2.294 0.26 3.7 2.037 4.21 5.328 0 0.26 0.045 0.524 0.125 0.784 0.175 2.945 0.6 4.853 1.281 5.716h-5.49a32.253 32.253 0 0 1-0.891-6.5c-0.258-2.078-0.982-3.115-2.175-3.115h-5.358z m34.077-14.433h5.004v14.92c-0.25 5.91-3.584 8.956-10.002 9.128-6.588-0.172-9.96-3.217-10.131-9.129v-14.92h5.005v12.987c-0.336 5.317 1.375 7.845 5.126 7.59 3.583 0.255 5.249-2.273 4.998-7.59v-12.986z m16.189 3.915v6.152h4.237c2.307 0 3.504-1.087 3.593-3.263-0.089-1.93-1.286-2.89-3.593-2.89h-4.237z m0.07 10.518v9.615h-5.103v-24.048h10.078c5.366 0.174 8.086 2.252 8.17 6.241-0.084 3.121-1.7 5.068-4.848 5.85v0.129c2.295 0.26 3.698 2.037 4.209 5.328 0 0.26 0.044 0.524 0.127 0.784 0.173 2.945 0.599 4.853 1.278 5.716h-5.49a32.604 32.604 0 0 1-0.89-6.5c-0.257-2.078-0.982-3.115-2.173-3.115h-5.359z m21.458 9.615h-4.75l8.375-24.048h5.87l8.125 24.048h-5l-1.749-5.068h-9.123l-1.748 5.068z m3.08-9.507h6.71l-3.162-10.067h-0.13L639.79 560.8z m34.114 9.507h-15.1v-24.048h4.948v20.017h10.152v4.03z m30.2-16.362h-5.307c-0.166-2.83-1.682-4.337-4.543-4.506-2.78 0.17-4.249 3.087-4.425 8.758 0.176 5.667 1.644 8.543 4.425 8.631 2.86-0.088 4.377-1.59 4.543-4.508h5.307c-0.34 5.239-3.62 7.898-9.85 7.987-6.314-0.172-9.558-4.211-9.724-12.11 0.166-8.072 3.41-12.24 9.724-12.497 6.23 0.177 9.51 2.925 9.85 8.245z m14.603 16.362c-7.333-0.172-11.081-4.211-11.248-12.11 0.167-8.072 3.915-12.24 11.248-12.497 7.164 0.258 10.87 4.425 11.123 12.497-0.254 7.899-3.959 11.938-11.123 12.11z m0.281-20.693c-4.038 0-6.015 2.91-5.934 8.732-0.081 5.82 1.896 8.69 5.934 8.604 3.874 0 5.808-2.868 5.808-8.604 0-5.823-1.934-8.732-5.808-8.732z m37.508 0.024l-6.541 20.669h-4.15l-6.165-20.67-0.125 0.132v20.538h-4.652v-24.048h8.174l4.904 17.548h0.13l5.28-17.548h7.797v24.048h-4.652v-20.669z m32.435 0l-6.54 20.669h-4.15l-6.165-20.67-0.124 0.132v20.538H767.3v-24.048h8.173l4.906 17.548h0.127l5.28-17.548h7.799v24.048h-4.654v-20.669z m10.247 20.669v-24.048h15.835v4.034h-10.73v5.584h9.963v4.03h-9.962v6.369h11.112v4.03H799.18z m26.285-20.133v6.152h4.239c2.305 0 3.502-1.087 3.59-3.263-0.088-1.93-1.285-2.89-3.59-2.89h-4.24z m0.069 10.518v9.615h-5.103v-24.048h10.081c5.364 0.174 8.084 2.252 8.167 6.241-0.083 3.121-1.7 5.068-4.847 5.85v0.129c2.294 0.26 3.697 2.037 4.209 5.328 0 0.26 0.044 0.524 0.126 0.784 0.173 2.945 0.6 4.853 1.28 5.716h-5.488a32.428 32.428 0 0 1-0.894-6.5c-0.256-2.078-0.98-3.115-2.173-3.115h-5.358z m36.842-6.747h-5.307c-0.166-2.83-1.68-4.337-4.543-4.506-2.779 0.17-4.249 3.087-4.422 8.758 0.173 5.667 1.643 8.543 4.422 8.631 2.863-0.088 4.377-1.59 4.543-4.508h5.307c-0.338 5.239-3.62 7.898-9.85 7.987-6.314-0.172-9.556-4.211-9.724-12.11 0.168-8.072 3.41-12.24 9.724-12.497 6.23 0.177 9.512 2.925 9.85 8.245z m5.033 16.362v-24.048h5.033v24.048h-5.033z m13.696 0h-4.748l8.376-24.048h5.87l8.124 24.048h-5l-1.749-5.068h-9.122l-1.75 5.068z m3.082-9.507h6.71l-3.163-10.067h-0.13l-3.417 10.067z m34.114 9.507h-15.1v-24.048h4.947v20.017H918.3v4.03z m16.778-4.493h3.852c2.728 0.172 4.053-0.833 3.974-3 0.079-2.166-1.246-3.212-3.974-3.128h-3.852v6.128z m-0.56-10.048h3.957c2.124 0 3.229-0.91 3.314-2.733-0.085-1.91-1.19-2.86-3.314-2.86h-3.956v5.593z m3.877 14.54h-8.91V546.26h8.91c5.43 0 8.276 2.081 8.524 6.241-0.083 2.513-1.482 4.247-4.197 5.202v0.127c3.305 0.955 5.049 3.034 5.219 6.239-0.342 3.989-3.526 6.068-9.546 6.239z m17.652 0h-4.75l8.377-24.047h5.868l8.125 24.048h-5l-1.749-5.068h-9.12l-1.751 5.068z m3.08-9.506h6.71l-3.162-10.067h-0.13l-3.419 10.067z m39.706 9.507h-7.25l-9.165-20.014-0.124 0.126v19.888h-4.712v-24.048h7.51l8.905 18.98 0.124-0.132V546.26h4.712v24.048z m10.679-24.048v10.399l7.88-10.4h5.844l-8.643 10.79 9.407 13.259h-6.23l-8.258-12.218v12.218h-5.086v-24.048h5.086z" fill="#1B1918"></path></svg>