<svg viewBox="0 0 1024 1024" version="1.1" xmlns="http://www.w3.org/2000/svg"><path d="M224 0h576c123.6 0 224 100.4 224 224v576c0 123.6-100.4 224-224 224H224c-123.6 0-224-100.4-224-224V224C0 100.4 100.4 0 224 0z" fill="#FFFFFF"></path><path d="M512 176c-187.6 0-340 152.8-340 341.6 0 158.8 108 292.4 254.4 330.4v-398c0-14.8 2-17.6 16-17.6h138c14 0 16 2.8 16 17.6v135.6c0 14.8-2 17.6-16 17.6l-122.4 0.4c-14.4 1.2-16.4 13.2-10 21.2 43.6 52.8 87.6 104.8 131.6 157.6l47.6 56.8c131.2-47.2 225.2-173.6 225.2-321.6C852 328.8 699.6 176 512 176z m137.6 576l-70.4-83.6h43.6c24.8 0 45.2-21.6 45.2-48v-209.2c0-26.4-20.4-48-45.2-48h-215.2c-24.8 0-45.6 21.6-45.6 48v209.2c0 2 0 3.6 0.4 5.6v113.6c-71.6-48.8-118.4-131.2-118.4-224C244 365.6 365.6 244 516 244s272 121.6 272 271.6c0 101.2-55.6 190-138.4 236.4z" fill="#E50113"></path></svg>