<svg viewBox="0 0 1024 1024" version="1.1" xmlns="http://www.w3.org/2000/svg"><path d="M73.5 440C32.9 440 0 472.9 0 513.5c0 34.2 23.3 63 54.9 71.2V499c0-3.2 0.5-3.8 3.5-3.8h29.8c3 0 3.5 0.6 3.5 3.8v29.1c0 3.2-0.5 3.8-3.5 3.8l-26.4 0.1c-3.1 0.2-3.5 2.9-2.1 4.6l28.5 33.9 10.2 12.2c28.3-10.2 48.6-37.3 48.6-69.2 0-40.6-32.9-73.5-73.5-73.5z m29.4 124.3l-15.2-18h9.4c5.4 0 9.8-4.7 9.8-10.4v-45.2c0-5.7-4.4-10.4-9.8-10.4H50.6c-5.4 0-9.8 4.7-9.8 10.4v45.2c0 0.4 0 0.8 0.1 1.2v24.5c-15.5-10.6-25.6-28.3-25.6-48.4 0-32.4 26.3-58.6 58.8-58.6s58.8 26.2 58.8 58.6c-0.1 22-12.1 41.1-30 51.1z" fill="#E50113"></path><path d="M742.8 494.3v12.9c0 6.8-3.6 11.7-10.5 11.7h-26.8v-24.6c-1.2 0.2-2.4 0.3-3.7 0.3v-8.9c6-0.2 8.9-2.8 9.6-6.5h-10.9v44.5H691v-53.4h12.5l-2.6-6.5h-11.3v-9h29.5l-1.5-2.8h11.6l1.8 2.8h28.3v9h-10.5l-2.6 6.5H758V514c0 5.3-3 9.8-9.9 9.8h-5.4l-0.1-8.8c5 0 5.8 0.1 5.8-5.7v-30.1h-10.6c1.1 3.5 5 6.7 9.6 6v9.3c-1.5 0.1-3 0-4.6-0.2z m-6.9-2.6c-4.2-2.5-7.9-6.6-9.1-12.5h-4.9c-1.3 5-4.3 9.6-9 12.5h23zM883.4 468l-6.6-8.3-3 8.3h9.6z m-19.1 0l5.7-16.4h12.3l12.1 16.4h0.4v9h-13v8.8h12.3v9.2h-12.3v14c0 3.2 2.5 4.8 9.8 4.8v9.5h-7.1c-10.7 0-13-9.5-13-18.4V495h-7.2v-9.2h7.2V477h-7.2v-9z m50.8 38.3c-2.1-4.6-3.6-9.5-4.4-14h9.8c0.6 2.1 1.4 4.5 2.4 6.3 2.2-2.9 2.9-4.3 3.9-6.2h9.4c-1.6 5.1-5.8 11-8.9 14.6 1.6 3.2 5 5.6 8.1 6.1v10.3c-6.5-0.3-11.6-4.1-15.6-9.3-5.9 4.9-11.6 10-17.8 9.2-1.2-0.2-2.3-0.6-3.3-1.4s-1.6-2.2-1.7-3.3c-0.2-1.1-0.3-2.8-0.3-5.2v-61h37.8v21.2c0 5.9-1.9 16-12.8 16h-15.3v18c0 3.4 0.1 3.4 0.4 3.9 1 1.8 6.5-3.6 8.3-5.2z m-684.9-24.9v11.9c0 13.2-12.5 17.2-23 16.6v-9.5c4.6 0 13.6-0.1 13.6-6.9v-4.4h-23.4v20.7c0 3.6 2.1 4.2 5.5 4.2h30.7l-0.1 9.3h-33.6c-6.7 0-12.6-1.8-12.6-9.9v-31.9c-1.3 0.9-2.6 1.8-3.9 2.6l-0.1-12.4c6.7-3.6 10.5-12.9 11.6-19.6h26.7c2.2 6.1 6.7 15.4 12.2 19v12.4c-1.2-0.5-2.4-1.2-3.6-2.1z m-3.4-2.7c-4.7-4.2-9.4-10.3-12.1-17.4h-12.4c-2.5 6.9-6.6 12.8-11.7 17.4h36.2z m751.3-16.9v-9.3h43.9v9.3h-43.9z m28.3 19.1h-29.2v-9.5h45.4v9.5h-4.7v27c0 8.8-3.8 16.1-12.5 16.1h-19.3v-9.5h15.2c2.9 0 5.2-1.8 5.2-7v-26.6h-0.1z m-31-9.8c-1.9 5.2-3.5 8.4-6 11.4v41.9h-11.3v-33.8c-2.2 0.8-4.4 1.7-6.5 2V481c6.8-1.1 10.5-6.3 12.1-10l11.7 0.1z m-23.8-7.8c7-1.4 10.4-7.7 11.8-12.1h11.9c-3.1 11.2-12 20.2-23.7 22.9v-10.8z m-45.4 3.9h18.5v-6.6h-18.5v6.6z m0 8.1v6.2h14.2c4.8 0 4.3-4.3 4.3-6.2h-18.5z m-60.5-18l-1.4 28c-0.8 7.5-2.9 12.5-6.9 16.2-2.3 2-5.9 4.3-10.5 6.5v-12.9c7.2-2.6 6.8-6.4 7.4-13.5l1-24.3h10.4z m-68.4 0.2h10.5l1 23.9c0.6 9 3.4 13.3 7 12.8v13.4c-5.9-1.4-10.8-5.3-14.1-11.4-1.5-2.7-3.1-9.8-3.2-12.1l-1.2-26.6z m-0.4 56.6h20.2V451h10.1v63.1h8.3V451h10v63.1H847v9.4h-70.1v-9.4z m-38-50.3H711l3 6.5h21.4l3.5-6.5z m-105.2-5.6h24.9V452h9.2v6.2h3.8v9.3h-3.8v43.2c0 6.4-4.5 12.9-12.1 12.9h-18.6l0.1-9.2h16.9c2.9 0 4.5-1.7 4.5-5.7l-0.1-41.2h-24.9v-9.3h0.1z m-10.8 17.4h8.6l7.5 29.8h-10.9L623 483l-0.1-7.4z m-24.2 32.6c5.5-12.5 7.5-30.3 7.9-36.7l5.9 0.1V493c-0.4 3.8-1.1 14.4-6.3 23l-7.5-7.8z m24.2-40.8v56.2h-10.6l0.1-56.2h-10.8v-9.2h10.9v-6.1h10.4v6.1h9.4v9.2h-9.4z m21.5 38.4c-2.8-10.4-6.7-25.1-8.3-30.1h10.5c1.5 5.1 5.1 19.5 7.9 30.1h-10.1zM555.2 477c0.9 5.8 2.9 10.6 6 16.3 3.7-3.2 9.2-9.7 11.2-15.1h10.5c-2.5 8-8.1 16.3-16.4 23.8 1.9 2.1 5.2 7.4 16.7 11.6v9.9c-11.6-2.2-28.8-9.5-39-46.4l11-0.1z m-41.3 12.8c14.4-5.9 21.3-15.4 23.7-25.8h-13v7.4h-9.9V455h24.5l0.8-3.5h11l-0.6 3.5h33v16.4h-10V464h-24.5c-1.8 8.6-5.5 16.7-13.8 26.3V509c0 1.2 0.1 2 1.4 1.7 3.9-1 14.4-8.4 16.9-10.6 1 1.7 1.8 3.2 2.6 4.4 0.8 1.2 1.8 2.5 2.9 4-4.1 4.3-21.9 14.8-30 15.8-3.4 0.4-4.1-1.8-4.1-4.3v-23.8c-2.5 1.4-6.3 2.9-10.9 4.6v-11z m-58 15.6v8.8h24c3.1 0 5.4-0.7 5.3-4.7v-4.1h-29.3z m-10.1-9h49.7l-0.1 11.6c-0.1 9.2-3.9 15.3-11.8 15.3h-37.7v-26.9h-0.1z m0.1-4.4v-9.1h48.9v9.1h-48.9z m0-13.2v-9.2h48.6v9.2h-48.6z m-1.6-22.5h20.9l-1-4.3h10.3l2.2 4.3h19v8.9h-51.4v-8.9z m1.1-4.6c-1.3 6.8-3.2 13.2-5.8 17.8v54.9h-10.1v-45.1c-1.5 0.8-3 1.7-4.4 2.5v-11.9c6.4-2.8 9.1-13.3 9.6-18.2h10.7z m-106.9 9.4v-8.2H375v8.2h-36.5z m27.8 9.7h-19v3.3h16.4c1.1 0 1.9-0.2 2.2-0.6s0.4-1 0.4-1.9v-0.8z m-27.3 11v-18.9h35.5v10.9c0 1.8-0.2 3.5-0.5 4.7-0.4 1.2-1.2 2-2.4 2.5s-2.4 0.8-4.6 0.8h-28z m6.9 23.3h21.6v-12.3h-21.6v12.3z m-7.9-21.5h37.7v28.6c0 8.6-4.3 11.6-11.2 11.6v-7.4c3.3 0 3-2.3 3-3.7h-6v11.1h-9.3v-11.1h-6.3v11.1H338v-40.2z m13.9 9.2c0 2.7 1 5.1 4.5 5.5v6.8c-8.3 0-9-4.3-10.4-12.3h5.9z m15.5 0c-0.9 5.9-1.2 11.3-9.6 12.3V498h0.4c2.6 0 3.6-3 3.6-5.3l5.6 0.1z m29.2 1c4.2 0 3.8-3.8 3.8-8.3v-19.7h-3.8v28z m-11.7 0h3.7v-28h-3.7v28z m11.7 9v11.9c4.2 0 4.3-6 4.3-9.2h7.9c-0.1 6.3-0.6 18-9.9 18h-22v-8.8h11.7v-11.9h-11.7v-46h11.7V452h8v4.9h12.1v37c0 1.9-0.2 3.4-0.6 4.4-0.4 1-1.1 2.1-2.1 3.1s-2.7 1.5-5.1 1.5h-4.3v-0.1zM286.5 452h10.9v72.2h-10.9v-27.5c-8.4-3.1-11.9-13.5-12.4-26.3h8.7c0.5 5 0.5 10.1 3.6 13.4V452h0.1z m-23.4 44.6c-9.9-4.2-11-17.1-11.7-26.3h8.9c0.2 2.7 0.4 10 2.9 13v-31.2h11V497c0 8.5-5.1 25.9-20.3 27.1v-11c6.9-1.4 9.3-8.5 9.3-14.3v-2.2h-0.1z m47.6 0.2c-8.3-2.6-12.5-15.3-13.3-26.4h9.3c0.6 5.1 1.4 10.8 4 13.1v-31.8h10.1v72.2h-10.1v-27.1zM164 462.6l0.1-10.5 16.9 9.4v11.2l-17-10.1z m0.1 6.3l16.9 10-0.1 10.9-16.9-10.3 0.1-10.6z m18.4 22.9c-2.8 13.5-8.5 27.1-19.5 31.7v-13.1c5.3-3.2 9.2-13.6 9.5-18.5l10-0.1z m532.6 8.9v9.1h13.1c4.1 0 4.9-1.2 4.9-4.3v-4.8h-18zM184.3 557.2h-3c-0.4-1.8-1.3-3.1-2.7-3.9-1-0.6-2.3-0.9-3.7-0.9-2.2 0-4 0.8-5.3 2.3-1.5 1.7-2.2 3.9-2.2 6.9s0.6 5.2 1.7 6.8c1.3 1.8 3.3 2.8 5.9 2.8 1.4 0 2.6-0.4 3.6-1.1 1.5-1.1 2.5-2.8 2.9-5.2h3c-0.4 2.6-1.3 4.7-2.8 6.2-1.1 1.2-2.5 2-4.2 2.4-1 0.3-2 0.4-3.1 0.4-2.9 0-5.3-0.9-7.1-2.8-2.1-2.2-3.2-5.3-3.2-9.5 0-3.6 1-6.5 2.9-8.7s4.5-3.3 7.8-3.3c2.8 0 5 0.8 6.7 2.3 1.6 1.4 2.5 3.2 2.8 5.3z m10.1 6.7h7.1l-3.4-10.2-3.7 10.2z m8.2 2.7h-9.1l-2.4 6.7h-3.2l8.6-23.2h3.5l8.3 23.2h-3.4l-2.3-6.7z m25.2-16.4h3v23.2h-3.5l-11.6-18.7-0.1 18.7h-3v-23.2h3.6l11.4 18.7 0.2-18.7z m19.5 13.5V561h10v12.3h-2l-0.7-3c-0.8 1.1-1.9 2-3.2 2.6-1.4 0.7-2.8 1-4.3 1-1.7 0-3.3-0.3-4.5-0.9-0.9-0.4-1.7-1-2.5-1.7-1.6-1.5-2.6-3.2-3.1-5.2-0.3-1.2-0.5-2.7-0.5-4.5 0-3.1 0.9-5.9 2.6-8.1 2-2.6 4.7-3.9 8.2-3.9 2.3 0 4.4 0.6 6.2 1.9 2 1.4 3.2 3.3 3.5 5.8h-3c-0.4-1.8-1.4-3.1-2.8-3.9-1.1-0.6-2.4-0.9-4-0.9-2.1 0-3.9 0.8-5.3 2.4-1.5 1.7-2.2 4-2.2 6.9 0 2.8 0.5 5 1.5 6.5 1.3 2 3.3 3 6.1 3 0.8 0 1.5-0.1 2.1-0.2 0.9-0.2 1.8-0.6 2.5-1.3 1-0.7 1.6-1.6 2-2.6s0.5-2.2 0.5-3.5h-7.1z m32.7 6.9v2.8h-18.1v-2.6L276 553h-13v-2.8h17v2.7l-14.1 17.7H280z m20.1-10.8v-9.6h3.1v23.2h-3.1v-10.8h-11.9v10.8h-3.1v-23.2h3.1v9.6h11.9z m30.7 2c0 3.1-0.8 5.7-2.4 7.9-2 2.8-5 4.2-8.9 4.2s-6.9-1.4-8.9-4.2c-1.6-2.2-2.4-4.9-2.4-7.9 0-3.1 0.8-5.7 2.4-7.9 2-2.8 5-4.2 8.9-4.2s6.9 1.4 8.9 4.2c1.6 2.2 2.4 4.8 2.4 7.9z m-3.2 0c0-2.8-0.7-5-2.1-6.7-1.5-1.8-3.5-2.7-5.9-2.7s-4.4 0.9-5.9 2.6-2.2 4-2.2 6.8 0.7 5 2.2 6.8c1.5 1.7 3.4 2.6 5.9 2.6s4.4-0.9 5.9-2.6c1.4-1.8 2.1-4 2.1-6.8z m23.3-11.6h3.1v15c0 2.5-0.7 4.6-2.2 6.2-1.6 1.7-4 2.6-7 2.6-2.9 0-5.2-0.8-6.7-2.5-1.4-1.5-2.1-3.4-2.1-5.8v-15.5h3.1v14.6c0 2.3 0.6 4 1.9 5.1 1 0.9 2.3 1.3 4 1.3s3.1-0.4 4.1-1.3c1.3-1.1 2-2.8 2-5.1v-14.6h-0.2z m29.4 2.7v7.9h7.3c1.4 0 2.5-0.2 3.2-0.7 1-0.6 1.5-1.7 1.5-3.3s-0.5-2.7-1.5-3.3c-0.7-0.4-1.6-0.6-2.7-0.6h-7.8z m0 10.5v9.9h-3.1v-23.1h10.7c2.2 0 4 0.4 5.2 1.3 1.6 1.1 2.4 2.7 2.4 5 0 1.5-0.3 2.8-1 3.7-0.5 0.6-1.2 1.3-2.2 1.8 0.9 0.4 1.5 0.8 1.9 1.2 0.6 0.7 0.9 1.8 0.9 3.2l0.2 4.2c0 0.7 0.1 1.1 0.2 1.4 0.1 0.3 0.5 0.6 1 0.9v0.5h-3.8c-0.2-0.6-0.3-1.6-0.4-2.7-0.1-1.2-0.1-2.2-0.1-3.1 0-1.2-0.2-2.2-0.6-2.8-0.6-0.9-1.8-1.4-3.5-1.4h-7.8z m42.7-1.6c0 3.1-0.8 5.7-2.4 7.9-2 2.8-5 4.2-8.9 4.2s-6.9-1.4-8.9-4.2c-1.6-2.2-2.4-4.9-2.4-7.9 0-3.1 0.8-5.7 2.4-7.9 2-2.8 5-4.2 8.9-4.2s6.9 1.4 8.9 4.2c1.6 2.2 2.4 4.8 2.4 7.9z m-3.3 0c0-2.8-0.7-5-2.1-6.7-1.5-1.8-3.5-2.7-5.9-2.7-2.5 0-4.4 0.9-5.9 2.6s-2.2 4-2.2 6.8 0.7 5 2.2 6.8c1.5 1.7 3.4 2.6 5.9 2.6s4.4-0.9 5.9-2.6c1.4-1.8 2.1-4 2.1-6.8z m23.4-11.6h3v23.2h-3.5L431 554.7l-0.1 18.7h-3v-23.2h3.6l11.4 18.7 0.2-18.7z m19.5 13.5V561h10v12.3h-2l-0.7-3c-0.8 1.1-1.9 2-3.2 2.6-1.4 0.7-2.8 1-4.3 1-1.7 0-3.2-0.3-4.5-0.9-0.9-0.4-1.7-1-2.5-1.7-1.6-1.5-2.6-3.2-3.1-5.2-0.3-1.2-0.5-2.7-0.5-4.5 0-3.1 0.9-5.9 2.6-8.1 2-2.6 4.7-3.9 8.2-3.9 2.3 0 4.4 0.6 6.2 1.9 2 1.4 3.2 3.3 3.5 5.8h-3c-0.4-1.8-1.4-3.1-2.8-3.9-1.1-0.6-2.4-0.9-4-0.9-2.1 0-3.9 0.8-5.3 2.4-1.5 1.7-2.2 4-2.2 6.9 0 2.8 0.5 5 1.5 6.5 1.3 2 3.3 3 6.1 3 0.8 0 1.5-0.1 2.1-0.2 0.9-0.2 1.8-0.6 2.5-1.3 1-0.7 1.6-1.6 2-2.6s0.5-2.2 0.5-3.5h-7.1z m26.8-2.2l8.2 11.9h-3.9l-6.2-9.5-6.4 9.5h-3.8l8.3-11.9-7.8-11.3h3.9l5.9 8.9 5.9-8.9h3.8l-7.9 11.3z m13.2 11.9v-23.2h3.4v23.2h-3.4z m25.3-23.2h3v23.2h-3.5l-11.6-18.7-0.1 18.7h-3v-23.2h3.7l11.4 18.7 0.1-18.7z m28.7 2.7v7.9h7.3c1.4 0 2.5-0.2 3.2-0.7 1-0.6 1.5-1.7 1.5-3.3s-0.5-2.7-1.5-3.3c-0.7-0.4-1.6-0.6-2.7-0.6h-7.8z m0 10.5v9.9h-3.1v-23.1h10.7c2.2 0 4 0.4 5.2 1.3 1.6 1.1 2.4 2.7 2.4 5 0 1.5-0.3 2.8-1 3.7-0.5 0.6-1.2 1.3-2.2 1.8 0.9 0.4 1.5 0.8 1.9 1.2 0.6 0.7 0.9 1.8 0.9 3.2l0.2 4.2c0 0.7 0.1 1.1 0.2 1.4s0.5 0.6 1 0.9v0.5H569c-0.2-0.6-0.3-1.6-0.4-2.7-0.1-1.2-0.1-2.2-0.1-3.1 0-1.2-0.2-2.2-0.6-2.8-0.6-0.9-1.8-1.4-3.5-1.4h-7.8z m36.7-13.2h3.1v15c0 2.5-0.7 4.6-2.2 6.2-1.6 1.7-4 2.6-7 2.6-2.9 0-5.2-0.8-6.7-2.5-1.4-1.5-2.1-3.4-2.1-5.8v-15.5h3.1v14.6c0 2.3 0.6 4 1.9 5.1 1 0.9 2.3 1.3 4 1.3s3.1-0.4 4.1-1.3c1.3-1.1 2-2.8 2-5.1v-14.6h-0.2z m13.1 2.7v7.9h7.3c1.4 0 2.5-0.2 3.2-0.7 1-0.6 1.5-1.7 1.5-3.3s-0.5-2.7-1.5-3.3c-0.7-0.4-1.6-0.6-2.7-0.6h-7.8z m0 10.5v9.9h-3.1v-23.1H614c2.2 0 4 0.4 5.2 1.3 1.6 1.1 2.4 2.7 2.4 5 0 1.5-0.3 2.8-1 3.7-0.5 0.6-1.2 1.3-2.2 1.8 0.9 0.4 1.5 0.8 1.9 1.2 0.6 0.7 0.9 1.8 0.9 3.2l0.2 4.2c0 0.7 0.1 1.1 0.2 1.4s0.5 0.6 1 0.9v0.5h-3.8c-0.2-0.6-0.3-1.6-0.4-2.7-0.1-1.2-0.1-2.2-0.1-3.1 0-1.2-0.2-2.2-0.6-2.8-0.6-0.9-1.8-1.4-3.5-1.4h-7.8z m25.4 0.5h7.1l-3.4-10.2-3.7 10.2z m8.2 2.7h-9.2l-2.4 6.7h-3.2l8.6-23.2h3.5l8.3 23.2h-3.4l-2.2-6.7z m13.2-16.4v20.4h11.6v2.8h-14.7v-23.2h3.1z m51.5 7h-3c-0.4-1.8-1.3-3.1-2.7-3.9-1-0.6-2.3-0.9-3.7-0.9-2.2 0-4 0.8-5.3 2.3-1.5 1.7-2.2 3.9-2.2 6.9s0.5 5.2 1.7 6.8c1.3 1.8 3.3 2.8 5.9 2.8 1.4 0 2.6-0.4 3.6-1.1 1.5-1.1 2.5-2.8 2.9-5.2h3c-0.4 2.6-1.3 4.7-2.8 6.2-1.1 1.2-2.5 2-4.2 2.4-1 0.3-2 0.4-3.1 0.4-2.9 0-5.3-0.9-7.1-2.8-2.1-2.2-3.2-5.3-3.2-9.5 0-3.6 1-6.5 2.9-8.7s4.5-3.3 7.8-3.3c2.8 0 5 0.8 6.7 2.3 1.7 1.4 2.6 3.2 2.8 5.3z m27.4 4.6c0 3.1-0.8 5.7-2.4 7.9-2 2.8-5 4.2-8.9 4.2s-6.9-1.4-8.9-4.2c-1.6-2.2-2.4-4.9-2.4-7.9 0-3.1 0.8-5.7 2.4-7.9 2-2.8 5-4.2 8.9-4.2s6.9 1.4 8.9 4.2c1.6 2.2 2.4 4.8 2.4 7.9z m-3.3 0c0-2.8-0.7-5-2.1-6.7-1.5-1.8-3.5-2.7-5.9-2.7-2.5 0-4.4 0.9-5.9 2.6s-2.2 4-2.2 6.8 0.7 5 2.2 6.8c1.5 1.7 3.4 2.6 5.9 2.6s4.4-0.9 5.9-2.6c1.4-1.8 2.1-4 2.1-6.8z m30.4 11.6h-2.9v-19.5l-6.5 19.5h-3.1l-6.4-19.4v19.4h-3v-23.2h4.5l6.6 19.6 6.6-19.6h4.4v23.2h-0.2z m28.3 0h-3v-19.5l-6.5 19.5h-3.1l-6.4-19.4v19.4h-3v-23.2h4.5l6.6 19.6 6.6-19.6h4.4l-0.1 23.2z m23.1-2.8v2.8h-17v-23.2h16.7v2.8h-13.6v7.1h12.6v2.8h-12.6v7.7h13.9z m9.4-17.7v7.9h7.3c1.4 0 2.5-0.2 3.2-0.7 1-0.6 1.5-1.7 1.5-3.3s-0.5-2.7-1.5-3.3c-0.7-0.4-1.6-0.6-2.7-0.6H820z m0 10.5v9.9h-3.1v-23.1h10.7c2.2 0 4 0.4 5.2 1.3 1.6 1.1 2.4 2.7 2.4 5 0 1.5-0.3 2.8-1 3.7-0.5 0.6-1.2 1.3-2.2 1.8 0.9 0.4 1.5 0.8 1.9 1.2 0.6 0.7 0.9 1.8 0.9 3.2l0.2 4.2c0 0.7 0.1 1.1 0.2 1.4 0.1 0.3 0.5 0.6 1 0.9v0.5h-3.8c-0.2-0.6-0.3-1.6-0.4-2.7-0.1-1.2-0.1-2.2-0.1-3.1 0-1.2-0.2-2.2-0.6-2.8-0.7-0.9-1.8-1.4-3.5-1.4H820z m40.1-6.2h-3c-0.4-1.8-1.3-3.1-2.7-3.9-1-0.6-2.3-0.9-3.7-0.9-2.2 0-4 0.8-5.3 2.3-1.5 1.7-2.2 3.9-2.2 6.9s0.6 5.2 1.7 6.8c1.3 1.8 3.3 2.8 5.9 2.8 1.4 0 2.6-0.4 3.6-1.1 1.5-1.1 2.5-2.8 2.9-5.2h3c-0.4 2.6-1.3 4.7-2.8 6.2-1.1 1.2-2.5 2-4.2 2.4-1 0.3-2 0.4-3.1 0.4-2.9 0-5.3-0.9-7.1-2.8-2.1-2.2-3.2-5.3-3.2-9.5 0-3.6 1-6.5 2.9-8.7s4.5-3.3 7.8-3.3c2.8 0 5 0.8 6.7 2.3 1.7 1.4 2.6 3.2 2.8 5.3z m5.9 16.2v-23.2h3.4v23.2H866z m15-9.5h7.1l-3.4-10.2-3.7 10.2z m8.2 2.7H880l-2.4 6.7h-3.2l8.6-23.2h3.5l8.3 23.2h-3.4l-2.2-6.7z m13.2-16.4v20.4H914v2.8h-14.7v-23.2h3.1z m35.1 12.4v8.1h6.6c1.6 0 2.8-0.4 3.6-1.1s1.2-1.8 1.2-3.1c0-1.5-0.6-2.5-1.7-3.2-0.9-0.5-2.1-0.7-3.6-0.7h-6.1z m-3.1 10.8v-23.2h10c2 0 3.7 0.6 4.8 1.7s1.6 2.4 1.6 4.1c0 0.9-0.2 1.8-0.6 2.5-0.5 1-1.3 1.8-2.5 2.3 1.2 0.5 2 1 2.6 1.6 1 1 1.5 2.4 1.5 4.1 0 2-0.7 3.6-2 4.8-1.4 1.4-3.3 2-5.8 2h-9.6v0.1z m3.1-20.5v7.1h5.5c1.6 0 2.7-0.3 3.5-0.8 0.8-0.6 1.3-1.6 1.3-2.9 0-1.1-0.4-2-1.1-2.5-0.7-0.6-1.9-0.9-3.6-0.9h-5.6z m24.9 11h7.1l-3.4-10.2-3.7 10.2z m8.2 2.7h-9.2l-2.4 6.7h-3.2l8.6-23.2h3.5l8.3 23.2h-3.4l-2.2-6.7z m25.2-16.4h3v23.2h-3.5l-11.6-18.7-0.1 18.7h-3v-23.2h3.6l11.4 18.7 0.2-18.7z m12.3 15v8.2h-3.1v-23.2h3.1v11.2l11.1-11.2h4.3l-9.5 9.4 9.7 13.8h-4l-8-11.6-3.6 3.4z" fill="#231916"></path></svg>