<svg viewBox="0 0 1024 1024" version="1.1" xmlns="http://www.w3.org/2000/svg"><path d="M224 0h576c123.6 0 224 100.4 224 224v576c0 123.6-100.4 224-224 224H224c-123.6 0-224-100.4-224-224V224C0 100.4 100.4 0 224 0z" fill="#FFFFFF"></path><path d="M184 840h656V184H184z" fill="#18568F"></path><path d="M207.2 820.4V207.2h605.6v613.2H207.2z m90-349.6l-12.4 46.8h136.8s64.4-8.8 24.8-55.6C403.6 420 331.6 347.2 331.6 347.2l-17.2 55.2 51.2 47.6s25.2 22.4 5.6 22c-22-0.8-74-1.2-74-1.2z m429.6 0s-52 0-73.6 0.4c-19.6 0.4 5.6-22 5.6-22l51.2-47.6-17.2-55.2s-72 73.2-115.2 115.2c-39.2 46.8 24.8 55.6 24.8 55.6h136.8l-12.4-46.4zM381.6 306l-38.4 26.8 82 83.2s14.4 13.2 30.8 18c20 5.6 42.8 0.4 46.4-40.8-0.4-64 0-147.6 0-147.6L450 276v82s-1.2 12-13.6 0.4c-12.8-11.2-54.8-52.4-54.8-52.4z m256.8 4S596.8 351.2 584 362.8c-12.4 11.6-13.6-0.4-13.6-0.4V280.4l-52.4-30.4s0.4 83.6 0 147.6c3.2 41.2 26.4 46.4 46 40.8 16.8-4.8 30.8-18 30.8-18l82-83.2-38.4-27.2z m-85.6 170.8c0-22.4-18.4-40.8-40.8-40.8s-40.8 18.4-40.8 40.8 18.4 40.8 40.8 40.8 40.8-18 40.8-40.8z" fill="#E6D245"></path><path d="M230.4 793.6v-244.8h558.8v244.4H230.4z m295.2-146.4c-5.6-44.8-30.8-67.2-75.6-67.2-26 0-46.4 8.4-61.2 25.2-14.8 16.8-22.4 38-22.4 64 0 28 7.6 50 23.2 65.6 15.6 16 35.6 23.6 60 23.6 20 0 37.2-5.2 50.8-16 14-10.8 22-26.4 24.8-47.2l-42.4-2.4c-4 22-15.2 32.8-33.2 32.8-11.2 0-19.6-4-26-11.6-6.4-7.6-9.2-22.4-9.2-44.4 0-37.6 11.6-56.4 34-56.4 20 0 30 12.4 30.8 36.8l46.4-2.8z m68.4 73.6V584h-45.2v170.8h120.4v-33.6h-75.2z" fill="#18568F"></path></svg>