<svg viewBox="0 0 1024 1024" version="1.1" xmlns="http://www.w3.org/2000/svg"><path d="M348.01 397.904c-31.594 18.114-41.294 19.532-75.35 39.648 19.813-21.18 26.733-30.099 39.152-47.871-31.627 1.653-77.426 5.345-110.271 12.46 28.59-14.851 85.088-31.532 114.913-35.422-6.92-9.319-62.855-39.107-76.82-44.719 44.27 3.36 98.442 19.452 124.634 35.288 10.585-3.125 21.152-3.376 40.295-5.008-4.872 8.244-4.943 13.027-23.867 25.209 5.249 13.674-7.22 88.968-17.47 109.003-0.448-31.537-3.327-71.362-15.216-88.588zM116.68 667.478c-19.128-0.596-33.427-2.98-50.315-7.771-1.144 11.47-0.416 20.316 2.803 31.27-13.494-12.839-21.837-24.282-29.819-41.063C24.23 643.17 13.37 636.943 0 628.884c9.558-4.161 17.83-6.96 29.48-10.053-3.69-19.922-2.645-37.763 0.224-62.677 5.31 23.536 9.892 40.44 20.304 58.11 12.717-2.427 23.452-3.997 38.303-6.062-8.069 11.47-12.974 20.582-17.276 32.067 14.315 13.051 27.404 20.683 45.644 27.209z m47.086-249.154c-5.744 7.137-12.244 20.422-13.998 26.612 46.71 6.264 84.375 29.523 84.375 29.523-41.108-7.03-62.56-6.169-77.803-4.865-15.221 1.464-18.313 3.242-18.313 3.242-11.022 23.253-17.583 63.692-17.583 63.719-7.47-17.4-18.268-52.292-18.268-52.319-20.625 10.772-68.053 54.102-68.091 54.123 26.09-50.78 52.514-74.034 52.541-74.034-9.104-8.846-32.968-13.28-50.403-14.046 9.087-3.619 32.36-7.877 50.228-8.595 17.83-0.548 28.627 0.51 28.655 0.51 16.026-12.272 40.198-22.592 48.66-23.87z m50.598 217.185c0.345 7.624 0.788 13.346 1.494 20.171 14.922-6.932 26.205-13.651 39.19-22.54-12.115 12.082-22.857 22.15-37.614 33.341 1.181 6.097 2.194 9.51 3.545 14.268-5.592 0.98-13.27 1.484-21.33 1.264-15.6 8.92-36.705 15.597-52.656 19.358 9.5-5.894 17.844-12.14 27.595-20.885-9.75-1.89-18.867-4.816-28.251-9.58 15.294-0.074 27.803-1.66 43.529-5.823 9.187-10.035 16.197-18.698 24.498-29.574z" fill="#009B91"></path><path d="M221.931 545.328c-2.71-0.037-5.678 0.159-7.412 0.396-0.362 8.266-0.62 17.924-0.62 22.253 0 3.664 0.038 16.074 0.598 25.168 2.688 0.142 6.886 0.147 9.492 0.147 15.46 0 23.34-3.532 23.34-10.475 0-2.05-0.895-3.949-2.683-5.615-3.852-3.627-11.358-5.735-20.01-5.504h-4.39l4.33-8.75h0.367c7.424 0.268 13.415-1.15 16.427-3.897 1.394-1.302 2.08-2.847 2.08-4.607 0-6.575-5.822-9.063-21.519-9.116z m-29.051-6.326l-0.05-0.643 41.473 0.042c14.375 0.237 29.76 4.154 29.76 14.392 0 6.28-6.957 11.73-17.173 13.802 13.925 3.221 21.337 9.057 21.337 16.939 0 12.573-19.598 17.065-37.973 17.065l-37.605-0.01 0.127-0.654c1.086-7.977 1.168-26.455 1.168-31.958 0-6.021-0.433-22.4-1.064-28.975z m160.485-0.643h0.677l-0.081 0.617c-0.596 6.525-1.052 22.96-1.052 29.016 0 5.49 0.07 23.973 1.198 31.969l0.07 0.638h-14.999l-0.157-0.221c-1.642-2.174-33.68-38.616-34.01-38.99-2.927-3.381-3.81-5.022-4.45-6.778v0.032c0 14.795 0 30.096 1.095 45.366l0.037 0.591h-18.647l0.081-0.638c1.09-7.975 1.171-26.479 1.171-31.97 0-6.055-0.434-22.459-1.057-29.015l-0.032-0.617h21.01l0.19 0.19c6.51 6.371 25.234 28.9 25.402 29.116 5.378 6.187 6.408 7.49 7.633 9.852-0.673-7.722-1.003-15.67-1.318-23.482l-0.764-15.676h18.003z m51.725 7.519c-2.38 0.063-4.754 0.221-6.107 0.385-0.21 4.369-0.269 8.917-0.269 12.895 0 3.098 0.027 5.81 0.108 7.873 0.671 0.084 1.756 0.195 1.756 0.195l4.351 0.095c10.76 0 23.587-1.873 23.587-10.906 0-2.227-0.795-4.116-2.342-5.64-3.491-3.388-10.77-5.056-21.084-4.897z m-26.992-6.912l-0.054-0.607h34.61c16.582 0.311 36.366 3.651 36.366 18.056 0 12.637-14.111 18.773-43.172 18.773l-3.084-0.121s-3.153-0.122-4.05-0.164c0.092 8.432 0.35 19.364 1.144 25.063l0.065 0.633h-22.035l0.065-0.633c1.106-7.983 1.187-26.472 1.187-31.964 0-6.047-0.451-22.43-1.042-29.036z m141.1 6.912c-2.364 0.063-4.782 0.221-6.114 0.385-0.199 4.369-0.269 8.89-0.269 12.88 0 3.076 0.032 5.825 0.108 7.888a95.66 95.66 0 0 0 1.746 0.195l4.341 0.095c10.789 0 23.64-1.873 23.64-10.906 0-2.227-0.816-4.116-2.385-5.64-3.481-3.388-10.756-5.056-21.067-4.897z m-27.025-6.912l-0.033-0.607h34.596c16.608 0.311 36.391 3.651 36.391 18.056 0 12.637-14.125 18.773-43.182 18.773l-3.11-0.121s-3.106-0.122-4.02-0.164c0.092 8.432 0.376 19.364 1.123 25.063l0.102 0.633h-22.045l0.092-0.633c1.074-7.983 1.15-26.472 1.15-31.964 0-6.047-0.425-22.43-1.064-29.036z m108.322 17.724c-3.552 6.04-7.652 13.166-11.823 21.063 1.59 0.032 11.823 0.174 11.823 0.174l9.9-0.11s0.949-0.032 1.727-0.048c-5.218-9.812-9.834-18.141-11.627-21.08z m-5.465-18.331h15.086l35.998 62.24h-22.343l-0.148-0.364c-1.13-2.505-3.695-7.57-7.187-14.274-0.548 0-2.861-0.048-2.861-0.048l-13.134-0.131s-15.223 0.179-15.957 0.184c-2.539 5.196-4.687 10.028-6.376 14.253l-0.131 0.38H558.68l0.516-0.876c4.188-6.91 31.114-52.18 35.296-61.016l0.17-0.348h0.367z m60.183 0.617l-0.065-0.617 35.196 0.042c16.877 0.264 37.027 3.622 37.027 17.998 0 8.172-6.006 13.512-18.205 16.364 0.153 0.206 0.405 0.48 0.405 0.48 6.684 7.608 22.434 25.41 23.26 26.412l0.716 0.944h-24.02l-0.208-0.253c-5.011-7.46-16.97-23.09-24.807-32.058l-1-1.134 1.536 0.216s2.115 0.274 4.782 0.174c8.116-0.337 16.882-3.959 16.882-11.145 0-2.187-0.83-4.117-2.46-5.62-3.519-3.373-10.919-5.066-21.39-4.887-1.716 0.037-4.208 0.2-6.1 0.354-0.36 7.744-0.617 17.402-0.617 21.73 0 5.489 0.066 23.935 1.213 31.954l0.06 0.637h-22.413l0.071-0.653c1.104-7.977 1.225-26.45 1.225-31.937 0-6.047-0.492-22.448-1.088-29.001z m110.156-0.617h0.612l-0.049 0.612c-0.601 6.54-1.067 22.983-1.067 29.018 0 5.465 0.092 23.964 1.175 31.956l0.109 0.654H743.92l0.087-0.654c1.088-7.992 1.164-26.491 1.164-31.956 0-6.024-0.433-22.44-1.05-29.018l-0.071-0.612h21.319z m47.81 6.97c-2.7-0.038-5.69 0.158-7.363 0.395-0.422 8.266-0.642 17.872-0.642 22.253 0 3.664 0.017 16.074 0.57 25.168 2.667 0.142 6.875 0.147 9.508 0.147 15.488 0 23.305-3.532 23.305-10.475 0-2.05-0.883-3.949-2.666-5.615-3.857-3.627-11.334-5.735-19.997-5.504H811.5l4.323-8.75h0.384c7.433 0.268 13.435-1.15 16.392-3.897 1.432-1.302 2.129-2.847 2.129-4.607 0-6.575-5.837-9.063-21.55-9.116z m-29.055-6.327l-0.044-0.643 41.475 0.042c14.385 0.237 29.746 4.154 29.746 14.392 0 6.28-6.967 11.73-17.172 13.802 13.935 3.221 21.38 9.057 21.38 16.939 0 12.573-19.651 17.065-38.003 17.065l-37.574-0.01 0.098-0.654c1.098-7.977 1.169-26.455 1.169-31.958 0-6.026-0.46-22.411-1.075-28.975z m123.138 17.693c-3.563 6.045-7.68 13.156-11.835 21.058 1.6 0.021 11.813 0.18 11.813 0.18l9.95-0.122s0.898-0.037 1.682-0.058c-5.235-9.79-9.812-18.12-11.61-21.058z m9.275-18.336h0.35l35.982 62.24h-22.326l-0.165-0.37c-1.118-2.51-3.673-7.595-7.164-14.268-0.587 0-2.884-0.037-2.884-0.037l-13.156-0.158s-15.228 0.195-15.919 0.195c-2.538 5.217-4.714 10.028-6.37 14.253l-0.13 0.385h-19.318l0.515-0.865c2.368-3.935 30.85-51.653 35.302-61.048l0.153-0.327h15.13z m40.778 14.19c0-11.144 13.837-18.636 34.425-18.636 8 0 15.707 1.166 20.327 1.848l4.63 0.65v11.514l0.067 2.374s-4.697-1.456-4.708-1.456c-4.847-1.568-13.86-4.473-23.083-4.473-12.293 0-12.293 4.248-12.293 5.639 0 4.887 9.942 7.943 19.536 10.929 13.03 4.028 27.785 8.598 27.785 20.01 0 12.299-14.29 19.651-38.237 19.651-9.145 0-18.208-1.633-22.983-2.546l-1.593-0.252-2.6-0.44v-11.386l-0.006-2.465 4 1.434c9.467 3.432 18.065 5.306 25.54 5.612 7.668 0.28 12.553-0.65 14.866-2.825 1.112-0.993 1.61-2.288 1.61-3.91 0-5.295-10.191-8.533-20.095-11.621-12.753-4.007-27.188-8.523-27.188-19.651z" fill="#231916"></path></svg>