<svg viewBox="0 0 1024 1024" version="1.1" xmlns="http://www.w3.org/2000/svg"><path d="M228.93 572.748c5.106 0 8.977-1.462 12.094-4.04l-2.741-2.232c-2.527 1.962-5.376 3.155-9.139 3.155-7.526 0-13.197-5.007-13.197-11.466 0-6.46 5.886-11.544 13.358-11.544 3.387 0 6.021 1.116 8.064 2.694l2.688-2.31c-2.258-1.808-6.021-3.5-10.805-3.5-10 0-17.471 5.54-17.471 14.66 0 9.158 7.364 14.583 17.148 14.583z m33.32 0c9.982 0 16.98-5.656 16.98-14.699 0-9.042-6.998-14.545-16.98-14.545s-16.98 5.503-16.98 14.545c0 9.043 6.998 14.699 16.98 14.699z m0.06-2.83c-7.045 0-12.324-4.575-12.324-11.792 0-7.256 5.279-11.792 12.324-11.792 6.992 0 12.203 4.536 12.203 11.792 0 7.217-5.211 11.792-12.203 11.792z m28.712-12.735v-8.962h6.096c5.95 0 10.412 0.91 10.412 4.442 0 3.46-4.462 4.52-10.412 4.52h-6.096z m22.168 15.565l-9.95-12.393c5.293-0.927 8.786-3.552 8.786-7.954 0-5.818-5.493-7.89-13.192-7.952l-12.53-0.001v28.3h4.923v-12.007h6.986l9.42 12.007h5.557z m6.604 0h4.984v-11.235h6.486c8.576 0 14.472-2.78 14.472-8.764 0-6.088-5.727-8.239-14.357-8.3l-11.585-0.001v28.3z m4.716-14.622v-9.905h6.242c6.827 0 10.267 1.153 10.267 4.75 0 3.56-3.228 5.155-10.055 5.155h-6.454z m42.45 14.622c9.983 0 16.981-5.656 16.981-14.699 0-9.042-6.998-14.545-16.98-14.545s-16.98 5.503-16.98 14.545c0 9.043 6.998 14.699 16.98 14.699z m-0.045-2.83c-7.205 0-12.69-4.654-12.69-11.87 0-7.257 5.485-11.714 12.69-11.714 7.15 0 12.781 4.457 12.781 11.713 0 7.217-5.631 11.871-12.781 11.871z m29.761-12.263v-9.906h6.36c5.948 0 9.205 1.239 9.205 4.77 0 3.46-3.257 5.136-9.204 5.136h-6.36z m22.169 15.093l-9.95-12.393c5.292-0.927 8.785-3.552 8.785-7.954 0-5.818-5.492-7.89-13.191-7.952l-12.53-0.001v28.3h4.922v-12.007h6.986l9.42 12.007h5.558z m12.263-11.32l1.989-4.256c1.436-3.153 2.762-6.155 4.033-9.423h0.22l0.989 2.392c0.986 2.365 1.98 4.666 3.1 7.031l1.933 4.256h-12.264z m17.334 11.32h5.307l-13.484-28.3h-5.578l-13.484 28.3h5.09l3.845-8.648h14.513l3.79 8.648z m15.981 0h5.065v-25.289h12.09v-3.011h-29.245v3.011h12.09v25.289z m21.87 0h23.584v-3.05h-18.53v-10.309h15.107v-3.05h-15.106v-8.88h17.932v-3.011h-22.986v28.3z m40.565-7.856c0-2.32 2.184-4.112 5.024-5.822 2.84 3.216 6.609 6.352 10.54 8.917-2.293 1.466-4.914 2.403-7.645 2.403-4.479 0-7.92-2.2-7.92-5.498z m4.245-14.06c0-2.317 1.96-4.026 5.04-4.026 2.801 0 3.921 1.443 3.921 3.076 0 2.468-3.248 4.177-7 5.886-1.233-1.709-1.961-3.418-1.961-4.937z m24.998 18.992c-2.22-0.424-4.766-1.347-7.42-2.694a28.103 28.103 0 0 0 6.933-10.081h-4.55c-1.246 3.232-3.141 6.04-5.633 8.35-3.791-2.194-7.474-5.041-10.074-7.965l1.17-0.61c3.99-2.095 7.767-4.375 7.767-7.74 0-3.27-2.87-5.58-7.8-5.58-5.47 0-9.153 2.925-9.153 6.696 0 2.039 0.975 4.31 2.6 6.58l-0.578 0.288c-3.832 1.943-7.222 4.278-7.222 7.869 0 4.54 4.875 7.811 12.078 7.811 4.713 0 8.45-1.27 11.483-3.232 3.196 1.616 6.283 2.693 9.045 3.232l1.354-2.924z m8.962 2.924h4.717v-28.3h-4.717v28.3z m15.565 0h4.771v-14.864c0-2.973-0.38-5.985-0.596-8.842h0.217l4.283 5.83 14.475 17.876h5.15v-28.3h-4.77v14.71c0 2.934 0.38 6.1 0.65 8.957h-0.27l-4.23-5.83-14.475-17.837h-5.205v28.3z m45.429 0h5.89l12.829-28.3H639.6l-6.496 15.327c-1.432 3.32-2.423 6.023-3.91 9.344h-0.22c-1.412-3.044-2.317-5.568-3.56-8.526l-6.9-16.145h-5.34l12.883 28.3z m24.379 0h23.583v-3.05h-18.53v-10.309h15.107v-3.05h-15.107v-8.88h17.933v-3.011h-22.986v28.3z m42.899 0c8.129 0 13.23-3.54 13.23-8.003 0-4.195-3.507-6.119-8.023-7.542l-5.58-1.732-0.939-0.29c-2.75-0.864-5.49-1.952-5.49-4.404 0-2.54 2.87-4.156 7.28-4.156 3.613 0 6.482 1.04 8.873 2.655l2.604-2.27c-2.763-2.078-6.855-3.502-11.477-3.502-7.067 0-12.274 3.156-12.274 7.504 0 4.03 4.123 6.032 7.685 7.161l5.864 1.843 1.331 0.439c2.995 1.015 5.151 2.038 5.151 4.563 0 2.77-3.082 4.617-8.182 4.617-4.038 0-7.97-1.385-10.786-3.501l-2.923 2.424c3.4 2.578 8.13 4.194 13.656 4.194z m28.715 0h5.056v-25.289h8.702v-3.011h-23.583v3.011h9.825v25.289z m20.833 0h4.467v-15.675c0-2.433-0.372-5.869-0.584-8.34h0.212l10.476 14.366h3.298l10.476-14.366h0.212l-0.18 1.702c-0.228 2.196-0.458 4.727-0.458 6.638v15.675h4.627v-28.3h-5.956c-6.133 8.187-9.501 12.937-10.104 14.25h-0.266c-0.638-1.313-4.06-6.063-10.264-14.25h-5.956v28.3z m42.45 0h23.585v-3.05h-18.53v-10.309h15.106v-3.05h-15.106v-8.88h17.932v-3.011h-22.986v28.3z m29.245 0h4.77v-14.864c0-2.973-0.379-5.985-0.596-8.842h0.217l4.283 5.83 14.475 17.876h5.15v-28.3h-4.77v14.71c0 2.934 0.38 6.1 0.65 8.957h-0.27l-4.23-5.83-14.475-17.837h-5.204v28.3z m46.072 0h5.02v-25.289h9.753v-3.011h-24.527v3.011h9.754v25.289z m30.338 0h12.935c9.065 0 15.366-2.741 15.366-8.3 0-3.862-3.427-6.101-8.291-6.757v-0.193c3.814-0.85 5.97-3.32 5.97-6.14 0-4.9-5.515-6.848-13.54-6.909l-12.44-0.001v28.3z m4.717-16.98v-8.962h6.15c6.204 0 9.415 1.2 9.415 4.425 0 2.774-2.775 4.537-9.633 4.537h-5.932z m0 14.622v-11.32h6.995c6.994 0 10.929 1.681 10.929 5.414 0 4.06-4.044 5.906-10.93 5.906h-6.994z m36.319-8.962l1.989-4.256c1.436-3.153 2.762-6.155 4.032-9.423h0.221l0.988 2.392c0.987 2.365 1.981 4.666 3.1 7.031l1.933 4.256h-12.263z m16.862 11.32h5.307l-13.484-28.3h-5.578l-13.484 28.3h5.09l3.845-8.648h14.513l3.79 8.648z m9.552 0h4.77v-14.864c0-2.973-0.379-5.985-0.596-8.842h0.217l4.283 5.83 14.475 17.876h5.15v-28.3h-4.77v14.71c0 2.934 0.38 6.1 0.65 8.957h-0.27l-4.23-5.83-14.475-17.837h-5.204v28.3z m36.318 0v-28.3h5.018v14.208h0.162l16.51-14.208h5.612l-12.356 10.772L1024 572.748h-5.611l-11.816-14.749-6.799 5.792v8.957h-5.018z" fill="#727374"></path><path d="M235.488 516.62c9.308 0 16.362-2.43 22.045-6.713l-4.997-3.708c-4.605 3.26-9.797 5.242-16.656 5.242-13.716 0-22.338-7.415-22.338-19.24 0-11.699 9.014-18.986 22.632-18.986 6.173 0 10.973 1.853 14.697 4.474l4.898-3.835c-4.115-3.004-10.973-5.817-19.693-5.817-18.223 0-31.842 9.205-31.842 24.355 0 15.214 13.423 24.227 31.254 24.227z m47.044-25.943v-16.98h10.776c11.322 0 17.524 2.271 17.524 8.75 0 6.346-6.202 8.23-17.524 8.23h-10.776z m41.035 24.999l-18.503-20.863c9.842-1.56 16.338-5.979 16.338-13.388 0-9.82-10.27-13.301-24.648-13.387l-23.184-0.001v47.639h9.153v-20.213h12.991l17.519 20.213h10.334z m385.356-24.999v-16.98H719.7c11.321 0 17.523 2.271 17.523 8.75 0 6.346-6.202 8.23-17.523 8.23h-10.777z m40.564 24.999l-18.503-20.863c9.842-1.56 16.338-5.979 16.338-13.388 0-9.82-10.27-13.301-24.648-13.387l-23.184-0.001v47.639h9.153v-20.213h12.991l17.519 20.213h10.334z m-410.826 0h41.465v-5.135h-35.047V493.19h32.189v-5.135h-32.189v-14.948h35.089v-5.07H335.83v44.81a2.83 2.83 0 0 0 2.83 2.83z m57.072 0h18.571c21.832 0 33.784-8.904 33.784-23.982 0-15.143-11.952-23.657-34.179-23.657h-18.176v47.639z m8.018-5.66v-36.32h8.84c18.426 0 27.479 6.428 27.479 18.035 0 11.545-9.053 18.285-27.479 18.285h-8.84z m59.903 5.66h10.376v-47.64h-10.376v47.64z m43.34 0h9.068v-42.57h21.644v-5.07h-52.355v5.07h21.644v42.57z m72.22-18.395l10.936-22.17c1.209 2.332 4.953 9.722 11.232 22.17h-22.169z m31.42 18.395h9.615l-24.428-47.64h-10.104l-24.427 47.64h9.221l5.353-10.591h28.97l5.8 10.59z m50.626 0.943c9.473 0 17.224-2.413 21.721-5.697v-20.645h-22.965v5.162h14.832v12.869c-2.775 1.81-7.656 2.882-12.727 2.882-15.023 0-23.348-7.775-23.348-20.175 0-12.266 9.186-19.907 23.252-19.907 7.177 0 11.674 2.078 15.215 4.692l4.784-4.022c-4.019-3.016-10.43-6.1-20.19-6.1-18.564 0-32.152 9.652-32.152 25.538 0 15.952 13.11 25.403 31.578 25.403z m101.905-0.943h10.377v-47.64h-10.377v47.64z m56.253 0.943c9.308 0 16.362-2.429 22.045-6.712l-4.997-3.708c-4.605 3.26-9.797 5.242-16.656 5.242-13.716 0-22.338-7.415-22.338-19.24 0-11.699 9.013-18.986 22.632-18.986 6.173 0 10.973 1.853 14.697 4.474l4.898-3.835c-4.115-3.004-10.973-5.817-19.693-5.817-18.223 0-31.842 9.205-31.842 24.355 0 15.214 13.423 24.227 31.254 24.227z m60.25 0c18.3 0 31.13-9.397 31.13-24.419s-12.83-24.163-31.13-24.163c-18.3 0-31.13 9.141-31.13 24.163s12.83 24.42 31.13 24.42z m-0.707-5.66c-12.995 0-21.461-7.353-21.461-18.756 0-11.465 8.466-18.506 21.46-18.506 12.897 0 21.462 7.041 21.462 18.506 0 11.403-8.565 18.756-21.461 18.756z m44.101 4.717h41.036v-5.135h-31.795v-42.504h-9.24v47.639z m53.3-2.83v-44.81h44.19v5.07h-34.973v14.948h29.818v5.135H985.58v17.352h36.063v5.135h-42.45a2.83 2.83 0 0 1-2.83-2.83zM359.601 452h10.189l-6.792 8.962H352.81l6.792-8.962z" fill="#007C58"></path><path d="M149.048 545.863H128.18c-2.624-0.1-4.933-4.21-4.933-4.21l-23.911-59.409L84.134 513.9c-9.228 8.62-27.062 8.724-27.062 8.724l32.302-59.304h22.547l37.127 82.543zM0 570.39v-14.15h153.293v14.15H0z" fill="#004327"></path><path d="M124.521 475.292s2.988-0.253 5.655-1.546l34.66-18.444 0.25 15.491-28.153 15.117s-4.993 2.997-8.889-1.418c0 0-1.446-2.614-2.393-5.087a23.767 23.767 0 0 1-1.13-4.113" fill="#BE1B21"></path><path d="M165.045 478.002l0.04 18.67s-24.922 15.368-53.82 30.606C89.058 538.984 76.19 543.55 49.1 547.738 13.522 551.716 1.22 530.235 0.12 515.706c0 0-4.125-25.166 36.233-46.211 0 0 22.718-10.759 32.42-3.871l4.487 14.206s-18.8-3.343-41.475 14.472c0 0-20.466 15.428-19.208 26.88 1.261 11.452 17.635 12.722 32.276 10.968 0 0 25.76-2.064 64.233-23.222l55.96-30.925z" fill="#0E7B74"></path></svg>