<svg viewBox="0 0 1024 1024" version="1.1" xmlns="http://www.w3.org/2000/svg"><path d="M224 0h576c123.6 0 224 100.4 224 224v576c0 123.6-100.4 224-224 224H224c-123.6 0-224-100.4-224-224V224C0 100.4 100.4 0 224 0z" fill="#FFFFFF"></path><path d="M370.8 374.4c-27.2 16-35.6 17.2-65.2 34.8 17.2-18.4 23.2-26.4 34-42-27.6 1.6-67.2 4.8-95.6 10.8 24.8-13.2 73.6-27.6 99.6-31.2-6-8-54.4-34.4-66.4-39.2 38.4 2.8 85.2 17.2 108 30.8 9.2-2.4 18.4-2.4 34.8-4-4.4 7.2-4.4 11.6-20.8 22 4.4 12-6.4 78-15.2 95.6-0.4-27.6-2.8-62.4-13.2-77.6zM172 607.6c-16.4-0.4-28.8-2.4-43.2-6.8-0.8 10-0.4 17.6 2.4 26.8-11.6-11.2-18.8-20.8-25.6-35.2-12.8-6-22.4-11.2-33.6-18 8-3.6 15.2-6 25.2-8.8-3.2-17.2-2.4-32.4 0-54 4.4 20.4 8.4 34.8 17.6 50 10.8-2 20-3.6 32.8-5.2-6.8 10-11.2 17.6-14.8 27.6 12.4 11.6 23.6 18 39.2 23.6zM211.6 392c-4.8 6-10.4 17.6-12 23.2 40 5.6 72.4 25.6 72.4 25.6-35.2-6-53.6-5.2-66.8-4.4-13.2 1.2-15.6 2.8-15.6 2.8-9.6 20-15.2 55.2-15.2 55.2-6.4-15.2-15.6-45.2-15.6-45.2C140.8 458.4 100 496 100 496c22.4-44 45.2-64 45.2-64-8-7.6-28.4-11.6-43.2-12 8-3.2 28-6.8 43.2-7.6 15.2-0.4 24.8 0.4 24.8 0.4 13.6-10.8 34.4-19.6 41.6-20.8z m46 186c0.4 6.8 0.8 11.6 1.2 17.6 12.8-6 22-12 33.2-20-10.4 10.8-19.2 19.6-32 29.2 1.2 5.2 2 8.4 3.2 12.4-4.8 0.8-11.2 1.2-18 1.2-13.2 8-31.2 13.6-44.4 17.2 8-5.2 15.2-10.8 23.2-18.4-8.4-1.6-16-4.4-24-8.4 12.8 0 23.6-1.6 36.8-5.2 8-8.4 13.6-16 20.8-25.6z" fill="#009B91"></path><path d="M264.8 502c-2.4 0-4.8 0-6.4 0.4-0.4 6.8-0.4 14.8-0.4 18.4 0 3.2 0 13.6 0.4 21.2h8c13.2 0 19.6-2.8 19.6-8.8 0-1.6-0.8-3.2-2.4-4.8-3.2-3.2-9.6-4.8-16.8-4.4h-3.6l3.6-7.2h0.4c6.4 0.4 11.2-0.8 14-3.2 1.2-1.2 1.6-2.4 1.6-4 0.4-5.6-4.8-7.6-18-7.6z m-24.8-5.6v-0.4h35.2c12 0 25.2 3.6 25.2 12 0 5.2-6 10-14.4 11.6 11.6 2.8 18 7.6 18 14 0 10.4-16.4 14.4-32 14.4h-32v-0.4c0.8-6.8 0.8-22 0.8-26.8 0.4-5.2 0-18.8-0.8-24.4z m139.2-0.4h0.8v0.4c-0.4 5.6-0.8 19.2-0.8 24.4 0 4.4 0 20 1.2 26.8v0.4h-12.8c-1.2-2-28.4-32.4-28.8-32.4-2.4-2.8-3.2-4-3.6-5.6 0 12.4 0 25.2 0.8 38v0.4h-16v-0.4c0.8-6.8 0.8-22 0.8-26.8 0-5.2-0.4-18.8-0.8-24.4v-0.4h17.6c5.6 5.2 21.2 24 21.6 24.4 4.4 5.2 5.6 6.4 6.4 8.4-0.4-6.4-0.8-13.2-1.2-19.6L364 496h15.2z m43.6 6.4c-2 0-4 0-5.2 0.4 0 3.6-0.4 7.6-0.4 10.8v6.4h5.2c9.2 0 20-1.6 20-9.2 0-2-0.8-3.6-2-4.8-2.8-2.4-8.8-4-17.6-3.6z m-22.8-6v-0.4h29.2c14 0.4 30.8 3.2 30.8 15.2 0 10.4-12 15.6-36.4 15.6h-2.8-3.6c0 7.2 0.4 16 0.8 20.8v0.4H400v-0.4c0.8-6.8 1.2-22 1.2-26.8 0-5.2-0.4-18.8-1.2-24.4z m122.8 6c-2 0-4 0-5.2 0.4 0 3.6-0.4 7.6-0.4 10.8v6.4h5.2c9.2 0 20-1.6 20-9.2 0-2-0.8-3.6-2-4.8-2.8-2.4-8.8-4-17.6-3.6z m-22.8-6v-0.4h29.2c14 0.4 30.8 3.2 30.8 15.2 0 10.4-12 15.6-36.4 15.6h-2.8-3.2c0 7.2 0.4 16 0.8 20.8v0.4H500v-0.4c0.8-6.8 0.8-22 0.8-26.8 0.4-5.2 0-18.8-0.8-24.4z m92.4 14.8c-3.2 5.2-6.8 11.2-10.4 17.6H602.8c-4.8-8-8.8-15.2-10.4-17.6z m-4.8-15.2h13.2l31.2 52h-19.6v-0.4c-0.8-2-3.2-6.4-6.4-12H592h-14c-2.4 4.4-4 8.4-5.6 12v0.4H556l0.4-0.8c3.6-5.6 27.2-43.6 30.8-50.8l0.4-0.4z m52.4 0.4v-0.4h30.4c14.8 0.4 32 3.2 32 15.2 0 6.8-5.2 11.2-15.6 13.6l0.4 0.4c5.6 6.4 19.6 21.2 20 22l0.8 0.8h-20.8v-0.4c-4.4-6.4-14.8-19.2-21.6-26.8l-0.8-0.8h1.2s2 0.4 4 0c7.2-0.4 14.8-3.2 14.8-9.2 0-2-0.8-3.6-2-4.8-3.2-2.8-9.6-4.4-18.4-4-1.6 0-3.6 0-5.2 0.4-0.4 6.4-0.4 14.4-0.4 18 0 4.4 0 20 1.2 26.8v0.4h-20v-0.4c0.8-6.8 1.2-22 1.2-26.8 0-4.8-0.4-18.4-1.2-24z m95.2-0.4h0.4v0.4c-0.4 5.6-0.8 19.2-0.8 24.4 0 4.4 0 20 1.2 26.8v0.4h-20v-0.4c0.8-6.8 1.2-22 1.2-26.8 0-5.2-0.4-18.8-0.8-24.4v-0.4h18.8z m37.6 6c-2.4 0-4.8 0-6.4 0.4-0.4 6.8-0.4 14.8-0.4 18.4 0 3.2 0 13.6 0.4 21.2h8c13.2 0 19.6-2.8 19.6-8.8 0-1.6-0.8-3.2-2.4-4.8-3.2-3.2-9.6-4.8-16.8-4.4h-3.6l3.6-7.2h0.4c6.4 0.4 11.2-0.8 14-3.2 1.2-1.2 2-2.4 2-4 0-5.6-5.2-7.6-18.4-7.6z m-24.8-5.6v-0.4h35.2c12 0 25.2 3.6 25.2 12 0 5.2-6 10-14.4 11.6 12 2.8 18 7.6 18 14 0 10.4-16.8 14.4-32 14.4h-32v-0.4c0.8-6.8 0.8-22 0.8-26.8 0.4-5.2 0-18.8-0.8-24.4z m108.4 14.8c-3.2 5.2-6.8 10.8-10.4 17.6H866.8c-4.8-8-8.8-15.2-10.4-17.6z m8-15.2l31.6 52h-19.6v-0.4c-0.8-2-3.2-6.4-6.4-12H856h-14c-2.4 4.4-4 8.4-5.6 12v0.4H820l0.4-0.8c2-3.2 26.8-43.2 30.8-51.2v-0.4h13.2z m35.6 11.6c0-9.2 11.6-15.6 28.8-15.6 6.8 0 13.2 0.8 17.2 1.6l4 0.4v11.6l-4-1.2c-4-1.2-11.6-3.6-19.2-3.6-10.4 0-10.4 3.6-10.4 4.8 0 4 8.4 6.8 16.4 9.2 10.8 3.2 23.2 7.2 23.2 16.8 0 10.4-12 16.4-32 16.4-7.6 0-15.2-1.2-19.2-2l-1.2-0.4-2-0.4v-11.6l3.2 1.2c8 2.8 15.2 4.4 21.6 4.8 6.4 0.4 10.4-0.4 12.4-2.4 0.8-0.8 1.2-2 1.2-3.2 0-4.4-8.4-7.2-16.8-9.6-11.2-3.6-23.2-7.6-23.2-16.8z" fill="#231916"></path></svg>