<svg viewBox="0 0 1024 1024" version="1.1" xmlns="http://www.w3.org/2000/svg"><path d="M132 892h760V132H132z" fill="#18568F"></path><path d="M159.212 869.647V159.212H860.9v710.435H159.212z m104.31-405.045l-14.35 54.324h158.746s74.44-10.05 28.928-64.212c-49.958-48.954-133.621-133.63-133.621-133.63l-19.851 63.725 59.18 54.992s29.094 25.977 6.473 25.47c-25.29-0.547-85.504-0.669-85.504-0.669z m497.546 0s-60.208 0.122-85.495 0.67c-22.619 0.506 6.472-25.47 6.472-25.47l59.175-54.993-19.85-63.726s-83.654 84.677-133.607 133.631c-45.508 54.162 28.925 64.212 28.925 64.212h158.75l-14.37-54.324z m-399.752-190.95l-44.674 31.267 94.823 96.552s16.593 15.242 35.913 20.789c23.06 6.656 49.777 0.575 53.682-47.064-0.475-74.345 0-171.02 0-171.02l-60.873 35.026v95.196s-1.385 14.051-15.952 0.452c-14.588-13.6-62.92-61.197-62.92-61.197z m297.48 4.497s-48.33 47.598-62.918 61.197c-14.589 13.6-15.952-0.452-15.952-0.452V243.7l-60.874-35.026s0.455 96.675 0 171.02c3.906 47.639 30.623 53.72 53.683 47.063 19.32-5.546 35.892-20.79 35.892-20.79l94.843-96.55-44.673-31.267zM559.535 476.21c0-26.079-21.152-47.212-47.208-47.212-26.097 0-47.25 21.133-47.25 47.212 0 26.08 21.153 47.213 47.25 47.213 26.056 0 47.208-21.134 47.208-47.213z" fill="#E6D245"></path><path d="M186.425 838.547V554.762h647.263v283.785H186.425z m341.61-169.839c-6.539-51.947-35.733-77.91-87.56-77.91-29.928 0-53.54 9.667-70.795 29.02-17.276 19.333-25.934 44.16-25.934 74.502 0 32.407 8.963 57.792 26.81 76.154 17.846 18.341 41.05 27.533 69.613 27.533 23.265 0 42.945-6.259 59.02-18.776 16.053-12.516 25.69-30.796 28.847-54.859l-48.996-2.788c-4.666 25.323-17.44 37.984-38.341 37.984-12.876 0-22.9-4.482-30.07-13.467-7.192-8.985-10.777-26.107-10.777-51.327 0-43.705 13.201-65.537 39.583-65.537 23.021 0 34.899 14.19 35.632 42.549l52.969-3.078z m79.052 85.59V595.303h-52.082v198.2h139.342v-39.205h-87.26z" fill="#18568F"></path></svg>