<svg viewBox="0 0 1024 1024" version="1.1" xmlns="http://www.w3.org/2000/svg"><path d="M224 0h576c123.6 0 224 100.4 224 224v576c0 123.6-100.4 224-224 224H224c-123.6 0-224-100.4-224-224V224C0 100.4 100.4 0 224 0z" fill="#FFFFFF"></path><path d="M812 657.2h-94.4c-12-0.4-22.4-18.8-22.4-18.8l-108-267.6-68.8 142.4c-41.6 38.8-122.4 39.2-122.4 39.2l146-267.2H644l168 372z m-672 112v-64h692v64H140z" fill="#004327"></path><path d="M700 340.4s13.6-1.2 25.6-7.2l157.2-84L884 320l-127.6 68.8s-22.8 13.6-40.4-6.4c0 0-6.4-12-10.8-23.2-3.6-9.6-5.2-18.8-5.2-18.8" fill="#BE1B21"></path><path d="M884 351.6V436s-112.4 69.6-242.4 138.4c-100 52.8-158 73.6-280 92.4-160.8 18.4-216-78.8-221.2-144.4 0 0-18.4-114 163.2-209.2 0 0 102.4-48.8 146-17.6l20.4 64.4s-84.8-15.2-186.8 65.6c0 0-92.4 69.6-86.4 121.6 5.6 51.6 79.2 57.2 145.2 49.6 0 0 116-9.2 289.6-105.2l252.4-140z" fill="#0E7B74"></path></svg>