<svg viewBox="0 0 1024 1024" version="1.1" xmlns="http://www.w3.org/2000/svg"><path d="M648.537 345.706c51.474-5.334 98.93 4.896 131.585 25.506 37.38 27.522 49.606 59.52 36.81 95.832-15.53 30.84-50.042 39.918-86.571 31.997-23.728-10.668-30.057-22.487-18.842-35.31 5.903-5.05 9.783-10.662 29.482-12.246 4.167-6.347-5.754-6.054-14.957-6.198-0.138-0.87-0.287-1.59-0.436-2.453 9.788-0.288 19.997-1.44 22.009 8.79 3.454-0.288 5.173-3.024 2.736-11.526-3.455-7.932-11.657-11.67-26.614-9.222-8.766-11.532-23.291-10.519-41.84-0.865-7.915 3.745-15.388 4.753-22.153-0.15-12.364-20.46-18.544-46.253-11.21-84.155z m14.335 59.035c2.217-0.144 4.858-0.144 7.951-0.144 0.73 0 3.388 0 7.657 0.144l0.289-1.294h-1.623c-1.765 0-2.935-0.143-3.235-0.43-0.447-0.144-0.735-0.575-0.735-1.156 0-0.569 0.288-2.011 0.594-4.31l3.528-19.41-0.735-0.436c-0.74 0.436-1.917 1.006-3.676 1.73-1.628 0.574-3.687 1.293-6.18 2.011l-2.065 0.431-0.735 2.73 0.447 0.288 4.705-2.155c1.47-0.713 2.352-1.006 2.646-1.144 0 0.569-0.294 2.299-0.882 5.172l-2.064 12.22c-0.435 2.16-0.735 3.454-1.03 3.741-0.288 0.431-1.175 0.718-2.64 0.718h-2.217v1.294z m29.828 0h4.401c0.562-1.31 1.134-2.775 1.842-4.236 1.558-3.218 2.827-5.847 3.83-7.892a6396.59 6396.59 0 0 0 4.668-8.33c1.558-2.63 2.56-4.236 3.12-4.972v-1.46H696.672c-1.41 0-2.407-0.146-3.404-0.146l-0.142 0.146c-0.136 1.028-0.425 2.483-0.844 4.381l0.283 0.292c1.7-0.14 3.83-0.292 6.232-0.292 0.997 0 3.546 0.152 7.8 0.152-1.705 2.483-4.962 7.6-10.066 15.2l-4.113 6.719 0.283 0.438z m34.514-27.687v1.73h0.14c1.27 0 2.115 0.432 2.82 1.158 0.704 0.715 1.127 1.73 1.127 3.02 0 1.015-0.282 1.88-0.705 2.744-0.558 1.01-1.55 1.874-2.965 2.883l-0.417-0.289v5.482c0.564 0.433 0.992 0.865 1.268 1.297 0.564 0.727 0.851 1.586 0.851 2.6 0 1.436-0.428 2.738-1.274 3.741-0.281 0.294-0.569 0.444-0.845 0.727v1.729a15.672 15.672 0 0 0 3.382-2.306c1.832-1.585 2.824-3.608 2.824-6.058 0-1.297-0.428-2.45-1.127-3.459-0.705-1.014-1.832-1.88-3.388-2.738 1.832-1.297 2.96-2.168 3.664-2.888 0.71-0.577 1.128-1.297 1.415-2.018 0.282-0.576 0.423-1.446 0.423-2.161 0-1.591-0.564-2.888-1.556-3.753-1.127-1.009-2.39-1.585-4.228-1.585-0.417 0-0.992 0.144-1.41 0.144z m-4.093 13.985c-1.55 1.014-2.677 1.735-3.24 2.167-0.987 0.859-1.833 1.735-2.256 2.6-0.428 0.859-0.704 1.873-0.704 2.876 0 1.88 0.558 3.32 1.69 4.473 1.27 1.015 2.825 1.586 4.792 1.586 1.269 0 2.548-0.289 3.81-0.865v-1.73c-0.71 0.433-1.69 0.721-2.682 0.721-1.41 0-2.396-0.432-3.242-1.297-0.845-0.72-1.263-1.873-1.263-3.32 0-1.297 0.418-2.444 1.122-3.603 0.846-1.153 1.833-2.162 3.1-2.882l1.128 0.72c0.71 0.433 1.274 0.865 1.838 1.297V388.3l-0.423-0.282c-1.415-0.72-2.26-1.447-2.824-2.168-0.564-0.72-0.846-1.585-0.846-2.6 0-1.29 0.423-2.305 1.269-3.17 0.705-0.72 1.696-1.153 2.824-1.297v-1.73c-1.691 0.29-3.388 1.292-5.079 2.739-1.691 1.585-2.678 3.459-2.678 5.476 0 2.456 1.128 4.185 3.106 5.488l0.558 0.283z m27.036 12.13v1.429h3.611c1.879 0 4.051 0 6.507 0.143l0.15-1.287h-2.895c-0.578 0-1.011-0.143-1.156-0.286-0.294-0.285-0.439-0.428-0.439-0.857s0.145-1.72 0.44-3.86l0.144-0.862h3.184l1.006 0.143 0.722-3.15-0.139-0.143-4.2 0.143 1.889-10.869c0.288-2.572 0.722-4.43 1.01-5.58l-0.583-0.428c-1.728 0.72-3.473 1.143-4.767 1.292-0.295 0.429-1.156 1.572-2.895 3.573-0.428 0.572-0.861 1.286-1.59 2.15v2.858c1.162-1.715 2.746-3.722 4.768-6.289l-1.006 5.283-1.305 8.01h-2.456v3.007h1.878l-0.29 1.572c-0.288 2.006-0.572 3.293-0.86 3.722-0.15 0.143-0.295 0.285-0.728 0.285z m-4.051 1.572c1.011 0 2.317-0.143 4.05-0.143v-1.43c-0.138 0-0.427 0.143-0.727 0.143-1.006 0-1.728 0.143-1.878 0.143h-1.295l-0.15 1.287z m4.05-7.152v-3.007h-4.623c0.29-0.71 0.862-1.567 1.729-2.716 0.722-1.143 1.444-2.138 1.878-3.002 0.289-0.428 0.728-0.857 1.017-1.286v-2.859c-0.428 0.572-1.017 1.424-1.595 2.144a345.853 345.853 0 0 1-3.323 5.003l-2.745 4.299-0.139 1.424h7.802z" fill="#5AA16E"></path><path d="M697.845 429.169c0.143 0 0.43-0.144 0.718-0.144h9.205c4.025 0.282 5.324 3.889 2.599 5.902-1.875-0.144-3.605-0.144-5.474-0.144-1 3.026-5.324 2.302-7.048 0.432v-6.046z m0 108.375v-41.166c13.804 14.687 34.807 20.727 60.415 21.446-17.255 7.916-34.382 16.12-60.415 19.72z m-13.949-102.617c3.588-2.445 8.055-4.464 13.949-5.758v6.046c-0.575-0.58-0.863-1.438-0.72-2.163-3.454 0.288-7.042 1.731-10.498 3.601-2.161 0.72-3.024 0-2.73-1.726z m13.949 61.451c-3.887-4.17-7.193-8.922-9.924-14.68-1.156-3.74-7.193-7.192-11.08-2.296-2.73 3.307-3.167 8.917-6.755 9.348-3.019-2.87-0.293-13.818-2.88-16.55-5.755 7.34-13.667 12.816-21.003 11.372 7.624-7.196 12.516-14.249 11.367-23.89-4.462 5.608-10.068 8.634-17.117 8.203 6.612-6.19 9.636-12.092 6.33-22.165-24.314-56.274-18.271-112.403 2.013-154.72-24.027 14.974-36.532 54.984-36.97 108.093-2.586-1.593-5.036-3.313-7.48-5.044V531.21c10.787 3.17 22.297 5.476 34.52 7.053 24.31 2.013 43.3 1.438 58.979-0.72v-41.166zM604.347 353.9v-45.486c1.868-2.59 4.025-5.034 6.9-7.335v5.465c-2.588 2.45-4.888 10.073-3.307 21.446-1.293 7.921 3.605 15.544 0.288 23.46-0.431 3.6-2.156 4.464-3.881 2.45z m0-45.486V353.9c-0.58-0.868-1.15-1.875-1.725-3.457-1.432-2.589-2.737-5.322-3.6-8.347V319.93c1.013-4.032 2.732-7.915 5.325-11.516z m0 85.635V531.21c-1.869-0.576-3.594-1.007-5.324-1.582v-139.32c1.73 1.295 3.455 2.589 5.324 3.74z m-5.324-14.82V363.68c1.581 5.47 1.73 10.942 1.15 16.269-0.288-0.288-0.719-0.437-1.15-0.72z m0-59.299v22.166c-1.15-3.884-1.725-8.06-1.581-12.955 0.293-3.165 0.718-6.185 1.58-9.21z m0 43.75c-1.15-3.596-2.875-7.197-5.324-10.792-2.012-3.164-3.594-6.904-4.887-10.792v28.355c3.018 3.302 6.33 6.328 10.21 8.778V363.68z m0 26.63v139.319c-3.45-1.15-6.905-2.445-10.211-3.745V382.25c3.306 2.738 6.617 5.47 10.21 8.06z m-10.211-48.214v28.355c-4.75-5.759-8.337-12.668-10.499-20.727-2.73-15.256-0.431-28.212 6.9-39.004-0.138 11.655 0.862 22.453 3.599 31.376z m0 40.154c-15.961-13.962-28.052-30.369-32.651-51.096-2.875 20.87-1.582 42.892 28.62 72.824-22.285-8.198-38.262-25.18-49.91-48.214 2.587 39.297 23.59 58.149 48.335 72.83-26.902-3.601-47.617-18.426-62.146-44.187 4.462 31.237 18.134 58.868 60.565 75.274-24.315 0.863-47.042-9.785-67.901-31.956 7.911 40.735 35.963 55.416 71.058 60.594-14.955 7.346-32.364 5.039-51.493-4.177 14.098 19.001 32.939 32.681 55.523 41.742V382.25z" fill="#008BD0"></path><path d="M62.242 559.93h27.617c25.13 0 42.515 17.238 36.523 46.03-5.256 13.886-15.195 25.142-29.655 33.765 16.947 2.774 28.049 21.192 21.327 47.491-6.283 22.654-26.589 39.022-55.812 41.358v-16.362c2.336-0.444 4.24-1.022 5.408-1.752 13.151-8.774 20.16-18.565 22.787-35.37 0.882-18.851-7.738-27.62-20.592-25.867h-7.603v-17.244l6.722 0.432c10.08-1.747 24.253-11.391 27.909-28.203 2.92-17.974-0.882-27.916-14.758-27.327H62.242V559.93z m-45.878 0h45.878v16.951H59.03l-11.253 54.221 14.465 0.877v17.244H43.98l-9.787 57.142c1.168 7.015 18.407 7.6 28.049 5.847v16.362c-2.336 0.152-4.672 0.298-7.014 0.298H0L28.639 582.87c1.752-8.178-2.044-12.711-12.713-12.857l0.438-10.083z m480.23 0h27.646c25.157 0 42.556 17.238 36.569 46.03-5.273 13.886-15.212 25.142-29.7 33.765 16.967 2.774 28.086 21.192 21.352 47.491-6.291 22.654-26.619 39.022-55.868 41.358v-16.362c2.333-0.444 4.239-1.022 5.414-1.752 13.16-8.774 20.187-18.565 22.812-35.37 0.883-18.851-7.746-27.62-20.62-25.867h-7.606v-17.244l6.724 0.432c10.096-1.747 24.285-11.391 27.933-28.203 2.935-17.974-0.865-27.916-14.768-27.327h-19.889V559.93z m-45.783 0h45.782v16.951h-3.075l-11.26 54.221 14.335 0.877v17.244h-18.14l-9.805 57.142c1.175 7.015 18.44 7.6 27.945 5.847v16.362c-2.198 0.152-4.536 0.298-6.875 0.298h-55.294l28.67-146.003c1.76-8.178-2.04-12.711-12.727-12.857l0.444-10.083z m-284.103 50.554c11.83-3.07 23.377-3.07 34.78 0.14 9.806 3.362 14.138 11.539 15.724 22.056l-16.594 96.374h-26.406l1.436-9.49c-3.028 2.48-5.912 4.523-8.94 6.28V712.11c9.817-4.815 16.023-20.142 17.17-37.377-5.773 0-11.546 0.875-17.17 3.216v-15.041c6.356-1.173 13.128-1.61 20.637-1.465l4.47-29.79c2.74-11.241-12.55-14.305-17.603-8.9-6.062 4.815-7.077 11.089-7.504 18.245v-30.514z m-31.17 34.459c3.754-14.895 10.82-27.887 29.872-34.021 0.432-0.146 0.86-0.298 1.298-0.438v30.514c0 1.173-0.14 2.486-0.14 3.653l-31.03 0.292z m31.17 80.9c-12.557 7.588-24.97 9.345-36.944 0.73-5.053-6.286-8.508-12.852-9.09-19.862v-4.675c0.432-5.55 2.74-11.24 7.076-17.521 9.668-10.955 22.358-18.543 38.958-21.607v15.04c-3.467 1.454-6.933 3.649-10.106 6.713-11.691 12.852-7.792 28.768 2.601 29.06 2.596 0.146 5.192-0.443 7.505-1.61v13.733z m53.952 3.03l16.912-90.322c2.768-10.656 0.577-13.572-12.246-12.114l3.642-10.073L269.2 608.2l-2.044 22.472c12.683-14.739 25.511-21.743 38.189-22.327 13.556 0 26.53 6.854 23.466 30.644l-16.47 89.884h-29.007l16.767-78.067c4.661-21.009-4.958-24.951-20.985-15.905-18.37 10.947-22.89 48.152-31.198 93.972h-27.26z m694.734 0l16.778-90.322c2.922-10.656 0.59-13.572-12.253-12.114l3.786-10.073 40.274-8.165-2.187 22.472c12.69-14.739 25.538-21.743 38.228-22.327 13.717 0 26.699 6.854 23.486 30.644l-16.341 89.884h-29.032l16.784-78.067c4.666-21.009-4.963-24.951-21.012-15.905-18.388 10.947-22.908 48.152-31.37 93.972h-27.141z m-586.128 0l27.198-148.204 29.238-10.396-14.324 82.738 45.029-42.613 19.741 1.03-45.034 46.565 40.06 70.88H397.11l-30.267-55.498-10.379 55.497h-27.198zM613.85 607.237a63.721 63.721 0 0 1 11.921-0.728c28.617-0.437 38.791 17.339 39.657 44.721v7.284c-0.146 1.316-0.146 2.766-0.146 4.221-6.242 38.457-23.39 60.162-51.432 65.117v-14.276c4.221-2.475 7.996-6.265 11.33-11.365 8.292-21.124 12.937-40.931 12.937-61.91 0.732-16.453-6.108-21.117-14.674-21.705-3.484 0-6.684 0.88-9.593 2.48v-13.84z m-40.382 29.717c9.872-15.587 22.52-26.946 40.382-29.717v13.84c-5.952 3.498-10.313 9.763-12.055 16.022-8.722 21.56-11.771 35.255-12.056 56.809-1.016 10.055 3.92 20.687 13.217 22.585 3.78 0 7.55-1.025 10.894-2.917v14.276c-4.065 0.728-8.426 1.02-13.077 1.02-24.843 0-37.914-14.86-38.78-39.476v-5.1c0.425-13.404 4.21-29.421 11.475-47.342z m287.051-29.846c3.63-0.582 7.56-0.727 11.765-0.582 28.623-0.442 38.936 17.332 39.662 44.717v7.283c0 1.31-0.145 2.766-0.145 4.216-6.248 38.458-23.245 60.162-51.282 65.11v-14.42c4.07-2.33 7.985-6.119 11.185-11.359 8.426-20.975 13.071-40.781 12.926-61.757 0.732-16.458-6.092-21.121-14.668-21.704-3.345-0.145-6.684 0.874-9.443 2.475v-13.979z m-40.533 29.855c9.878-15.58 22.514-26.938 40.533-29.855v13.979c-5.952 3.498-10.464 9.763-12.206 16.021-8.716 21.558-11.77 35.251-12.06 56.809-0.872 9.903 3.925 20.68 13.367 22.577 3.78 0 7.41-1.025 10.9-3.062v14.42c-4.216 0.728-8.577 1.02-13.223 1.02-24.703 0-37.92-14.853-38.785-39.473v-5.1c0.575-13.541 4.355-29.417 11.474-47.336z m-76.558-8.728c-13.768-6.996-29.145-10.06-37.492-2.19-10.255 14.435 1.903 22.444 14.347 29.731 9.664 4.806 15.676 12.39 19.188 22.153 5.713 24.046-13.767 43.572-38.375 51.296-15.372 1.753-31.194 1.899-47.736 0 3.512-7.287 7.03-15.297 10.396-22.584 6.298 7.864 20.944 8.889 36.76 5.68 11.133-3.496 21.822-17.633 2.78-30.023-14.206-6.845-23.577-15.442-28.114-25.648-2.932-26.958 8.054-43.28 35.584-48.529 14.645-2.912 28.559-1.31 40.857-0.145a1173.536 1173.536 0 0 0-8.195 20.26z m5.92 69.625l22.43-121.743 27.228-7.57-6.088 37.239 27.661-0.436-2.176 15.418h-29.096l-13.182 76.22c-3.912 14.54 4.64 17.75 19.837 15.419v14.686c-35.757 5.965-52.556-2.902-46.614-29.233z" fill="#009EE0"></path></svg>