<svg viewBox="0 0 1024 1024" version="1.1" xmlns="http://www.w3.org/2000/svg"><path d="M224 0h576c123.6 0 224 100.4 224 224v576c0 123.6-100.4 224-224 224H224c-123.6 0-224-100.4-224-224V224C0 100.4 100.4 0 224 0z" fill="#FFFFFF"></path><path d="M468.8 346.8c119.6-12.4 229.6 11.2 305.2 59.2 86.8 64 115.2 138 85.6 222.4-36 71.6-116 92.8-200.8 74.4-55.2-24.8-69.6-52-43.6-82 13.6-11.6 22.8-24.8 68.4-28.4 9.6-14.8-13.2-14-34.8-14.4-0.4-2-0.8-3.6-1.2-5.6 22.8-0.8 46.4-3.2 51.2 20.4 8-0.8 12-7.2 6.4-26.8-8-18.4-27.2-27.2-61.6-21.2-20.4-26.8-54-24.4-97.2-2-18.4 8.8-35.6 11.2-51.6-0.4-28.8-47.6-43.2-107.6-26-195.6z m33.2 137.2c5.2-0.4 11.2-0.4 18.4-0.4 1.6 0 8 0 17.6 0.4l0.8-3.2h-3.6c-4 0-6.8-0.4-7.6-1.2-1.2-0.4-1.6-1.2-1.6-2.8 0-1.2 0.8-4.8 1.2-10l8-45.2-1.6-1.2c-1.6 1.2-4.4 2.4-8.4 4-3.6 1.2-8.4 3.2-14.4 4.8l-4.8 1.2-1.6 6.4 1.2 0.8 10.8-5.2c3.6-1.6 5.6-2.4 6-2.8 0 1.2-0.8 5.2-2 12l-4.8 28.4c-1.2 5.2-1.6 8-2.4 8.8-0.8 1.2-2.8 1.6-6 1.6h-5.2v3.6z m69.2 0h10c1.2-3.2 2.8-6.4 4.4-10 3.6-7.6 6.4-13.6 8.8-18.4l10.8-19.2c3.6-6 6-10 7.2-11.6v-3.2H580c-3.2 0-5.6-0.4-8-0.4l-0.4 0.4c-0.4 2.4-0.8 5.6-2 10l0.8 0.8c4-0.4 8.8-0.8 14.4-0.8 2.4 0 8.4 0.4 18 0.4-4 5.6-11.6 17.6-23.2 35.2l-9.6 15.6 1.2 1.2z m80-64.4v4h0.4c2.8 0 4.8 1.2 6.4 2.8 1.6 1.6 2.8 4 2.8 7.2 0 2.4-0.8 4.4-1.6 6.4-1.2 2.4-3.6 4.4-6.8 6.8l-0.8-0.8v12.8c1.2 1.2 2.4 2 2.8 3.2 1.2 1.6 2 3.6 2 6 0 3.2-0.8 6.4-2.8 8.8-0.8 0.8-1.2 1.2-2 1.6v4c2.8-1.2 5.2-3.2 8-5.2 4.4-3.6 6.4-8.4 6.4-14 0-3.2-0.8-5.6-2.8-8-1.6-2.4-4.4-4.4-8-6.4 4.4-3.2 6.8-5.2 8.4-6.8 1.6-1.2 2.8-3.2 3.2-4.8 0.8-1.2 0.8-3.2 0.8-5.2 0-3.6-1.2-6.8-3.6-8.8-2.8-2.4-5.6-3.6-10-3.6-0.4-0.4-1.6 0-2.8 0z m-9.2 32.4c-3.6 2.4-6.4 4-7.6 5.2-2.4 2-4.4 4-5.2 6-0.8 2-1.6 4.4-1.6 6.8 0 4.4 1.2 7.6 4 10.4 2.8 2.4 6.4 3.6 11.2 3.6 2.8 0 6-0.8 8.8-2v-4c-1.6 1.2-4 1.6-6.4 1.6-3.2 0-5.6-1.2-7.6-3.2-2-1.6-2.8-4.4-2.8-7.6 0-3.2 0.8-5.6 2.8-8.4 2-2.8 4.4-5.2 7.2-6.8l2.8 1.6c1.6 1.2 2.8 2 4.4 3.2v-12.8l-0.8-0.8c-3.2-1.6-5.2-3.2-6.4-5.2s-2-3.6-2-6c0-2.8 0.8-5.2 2.8-7.2 1.6-1.6 4-2.8 6.4-3.2v-4c-4 0.8-8 2.8-11.6 6.4-4 3.6-6.4 8-6.4 12.8 0 5.6 2.8 9.6 7.2 12.8l0.8 0.8z m62.4 28.4v3.2h8.4c4.4 0 9.2 0 15.2 0.4l0.4-2.8h-6.8c-1.2 0-2.4-0.4-2.8-0.8-0.8-0.8-1.2-0.8-1.2-2s0.4-4 1.2-8.8l0.4-2h7.2l2.4 0.4 1.6-7.2-0.4-0.4-9.6 0.4 4.4-25.2c0.8-6 1.6-10.4 2.4-12.8l-1.2-0.8c-4 1.6-8 2.8-11.2 2.8-0.8 0.8-2.8 3.6-6.8 8.4-0.8 1.2-2 2.8-3.6 4.8v6c2.8-4 6.4-8.8 11.2-14.4l-2.4 12.4-3.2 18.4h-5.6v6.8h4.4l-0.8 3.6c-0.8 4.8-1.2 7.6-2 8.8 0 0.4-0.4 0.8-1.6 0.8z m-9.2 3.6c2.4 0 5.2-0.4 9.2-0.4v-3.2c-0.4 0-0.8 0.4-1.6 0.4-2.4 0-4 0.4-4.4 0.4h-3.2v2.8z m9.2-16.8v-6.8h-10.8c0.8-1.6 2-3.6 4-6.4 1.6-2.8 3.2-4.8 4.4-6.8 0.8-0.8 1.6-2 2.4-2.8v-6.8c-0.8 1.2-2.4 3.2-3.6 4.8-3.2 4.8-5.6 8.8-7.6 11.6l-6.4 10-0.4 3.2h18z" fill="#5AA16E"></path><path d="M583.2 540.4c0.4 0 1.2-0.4 1.6-0.4h21.2c9.2 0.8 12.4 9.2 6 13.6-4.4-0.4-8.4-0.4-12.8-0.4-2.4 7.2-12.4 5.2-16.4 1.2v-14z m0 251.6v-95.6c32 34 80.8 48 140 49.6-40 18.8-79.6 37.6-140 46z m-32.4-238c8.4-5.6 18.8-10.4 32.4-13.2v14c-1.2-1.2-2-3.2-1.6-5.2-8 0.8-16.4 4-24.4 8.4-5.2 1.6-7.2 0-6.4-4z m32.4 142.4c-9.2-9.6-16.8-20.8-23.2-34-2.8-8.8-16.8-16.8-25.6-5.2-6.4 7.6-7.2 20.8-15.6 21.6-7.2-6.8-0.8-32-6.8-38.4-13.2 17.2-31.6 29.6-48.8 26.4 17.6-16.8 29.2-33.2 26.4-55.6-10.4 13.2-23.2 20-39.6 19.2 15.2-14.4 22.4-28 14.8-51.6-56.4-130.4-42.4-260.8 4.8-358.8-56 34.8-84.8 127.6-86 250.8-6-3.6-11.6-7.6-17.2-11.6v318.4c25.2 7.2 51.6 12.8 80 16.4 56.4 4.8 100.4 3.2 136.8-1.6v-96zM366.4 366V260.4c4.4-6 9.2-11.6 16-17.2V256c-6 5.6-11.2 23.2-7.6 49.6-3.2 18.4 8.4 36 0.8 54.4-1.2 8.8-5.2 10.8-9.2 6z m0-105.6v105.6c-1.2-2-2.8-4.4-4-8-3.2-6-6.4-12.4-8.4-19.2V287.2c2.4-9.6 6.4-18.4 12.4-26.8z m0 198.8v318.4c-4.4-1.2-8.4-2.4-12.4-3.6v-323.6c4 3.2 8 6 12.4 8.8z m-12.4-34.4v-36c3.6 12.8 4 25.2 2.8 37.6-0.8-0.8-2-1.2-2.8-1.6z m0-137.6v51.6c-2.8-9.2-4-18.8-3.6-30 0.4-7.6 1.6-14.8 3.6-21.6z m0 101.6c-2.8-8.4-6.8-16.8-12.4-25.2-4.8-7.2-8.4-16-11.2-25.2V404c7.2 7.6 14.8 14.8 23.6 20.4v-35.6z m0 61.6v323.2c-8-2.8-16-5.6-23.6-8.8v-333.2c7.6 6.4 15.2 12.8 23.6 18.8z m-23.6-112V404c-11.2-13.2-19.2-29.2-24.4-48-6.4-35.2-1.2-65.6 16-90.4-0.4 27.2 2 52.4 8.4 72.8z m0 93.2c-37.2-32.4-65.2-70.4-75.6-118.4-6.8 48.4-3.6 99.6 66.4 168.8-51.6-19.2-88.8-58.4-116-112 6 91.2 54.8 134.8 112 168.8-62.4-8.4-110.4-42.8-144-102.4 10.4 72.4 42 136.4 140.4 174.8-56.4 2-109.2-22.4-157.6-74 18.4 94.4 83.6 128.4 164.8 140.4-34.8 17.2-75.2 11.6-119.6-9.6 32.8 44 76.4 76 128.8 96.8v-333.2z" fill="#008BD0"></path></svg>