<svg viewBox="0 0 1024 1024" version="1.1" xmlns="http://www.w3.org/2000/svg"><path d="M224 0h576c123.6 0 224 100.4 224 224v576c0 123.6-100.4 224-224 224H224c-123.6 0-224-100.4-224-224V224C0 100.4 100.4 0 224 0z" fill="#FFFFFF"></path><path d="M507.2 537.2s-126.8-13.6-158.8-129.2c-34.4-91.6 48-268.8 196.8-230.8 91.2 23.2 118.8 78 134 108.4 6 12.4 3.2 11.2 6 12.4 116.4 42 149.2 89.2 166 196.4 4.8 30.8-11.6 87.6-32 120.4-20.8 33.6-44.8 57.6-64 71.6-8.8 6.4-20.8 12-31.2 15.6-6.8 2.4-13.6 4.4-19.2 4.8-22.8 2.4-20.8 2-16-2.4 26.4-24.8 43.6-72.4 53.6-121.6 10.4-51.6-12-117.2-34.8-146.4-43.2-56.4-140.8-110.8-212.8-49.6-72.4 61.2 12.4 150.4 12.4 150.4z m16-47.2s127.6 13.6 160 128c34.4 90.8-48.4 266.4-198.4 228.8-91.6-23.2-120-77.2-134.8-107.6-6-12-3.2-11.2-6-12-117.2-42-150.4-88.4-167.2-194.8-4.8-30.4 12-87.2 32-119.2C230 380 254 356 273.6 342c8.8-6.4 20.8-11.6 31.2-15.6 6.8-2.4 13.6-4.4 19.2-4.8 22.8-2 20.8-2 16.4 2.4-26.8 24.8-44 71.6-54 120.4-10.4 51.2 12 116 34.8 145.2 43.6 56 142 109.6 214.8 49.2 72.8-60.4-12.8-148.8-12.8-148.8z" fill="#E3001E"></path><path d="M507.6 538.8s-89.6-45.2-66.8-152.8C464 277.6 580.4 284 580.4 284s42.8 1.2 71.2 29.6c18.8 18.8 35.6 50.8 42.4 66 0 0 8.8 3.2 18.8 4.4 16.4 2.4 38 12 50.4 26 25.2 28.4 40.4 59.6 40.4 59.6s10.4 26.4 12.4 56c1.6 23.6-4.4 49.2-12.4 66.8-10 22.8-33.2 49.2-50.8 61.2-25.2 16.8-44 25.2-43.2 24 9.2-15.2 32.8-68 35.6-116.4 2.4-42.8-15.6-82.8-15.6-82.8s-42.8-114.4-180-114c-72.4 18-93.2 62-79.2 110.8 10 36.4 37.2 63.6 37.2 63.6z m12.8-49.6s89.6 45.2 66.8 152.8c-23.2 108.4-139.6 102-139.6 102s-42.8-1.2-71.2-29.6c-18.8-18.8-35.6-50.8-42.4-66 0 0-8.8-3.2-18.8-4.4-16.4-2.4-38-12-50.4-26-25.2-28.4-40.4-59.6-40.4-59.6s-10.4-26.4-12.4-56c-1.6-23.6 4.4-49.2 12.4-66.8 10-22.8 33.2-49.2 50.8-61.2 25.2-16.8 44-25.2 43.2-24-9.2 15.2-32.8 68-35.6 116.4-2.4 42.8 15.6 82.8 15.6 82.8s42.8 114.4 180 114c72.4-18 93.2-62 79.2-110.8-10-36.4-37.2-63.6-37.2-63.6z" fill="#AB1A21"></path></svg>