<svg viewBox="0 0 1024 1024" version="1.1" xmlns="http://www.w3.org/2000/svg"><path d="M368.72581 557c-0.3 0-0.5 0-0.8 0.1h1c-0.1-0.1-0.1-0.1-0.2-0.1z"></path><path d="M378.52581 560.9c-1.1-1.2-2.4-2.2-4-2.9s-3.4-1.1-5.4-1.1h-0.3c1.4 0 2.7 0.4 3.8 1.1 1.1 0.8 2 1.8 2.8 3s1.3 2.6 1.7 4.1c0.4 1.5 0.6 3 0.6 4.5s-0.2 3.1-0.6 4.6-0.9 2.9-1.7 4.2c-0.7 1.2-1.7 2.2-2.8 3-1.1 0.8-2.4 1.2-3.9 1.2s-2.8-0.4-3.9-1.1-2.1-1.6-2.8-2.8-1.3-2.5-1.7-4.1c-0.4-1.5-0.6-3.1-0.6-4.8 0-1.6 0.2-3.2 0.5-4.7s0.9-2.9 1.6-4.2c0.7-1.2 1.6-2.2 2.8-3 0.8-0.6 1.7-0.9 2.8-1.1-1.2 0.1-2.4 0.4-3.6 0.8-1.7 0.6-3.1 1.5-4.3 2.6-1.2 1.1-2.2 2.5-2.9 4.2-0.7 1.6-1.1 3.5-1.1 5.6 0 1.9 0.3 3.7 1 5.3 0.7 1.6 1.6 3 2.8 4.2s2.6 2.1 4.2 2.7c1.6 0.6 3.3 1 5.1 1 1.8 0 3.5-0.3 5.1-1 1.6-0.6 3-1.6 4.2-2.8 1.2-1.2 2.2-2.6 2.9-4.2 0.7-1.6 1.1-3.4 1.1-5.3 0-1.7-0.3-3.4-0.9-5-0.5-1.4-1.4-2.7-2.5-4zM367.72581 557h0.2-0.2zM514.42581 579.1l-1.9-2.9-2-3c-0.3-0.5-0.7-1-1.1-1.4-0.4-0.4-0.8-0.7-1.2-1v-0.1c0.8-0.3 1.5-0.6 2.2-1s1.3-0.9 1.8-1.4c0.5-0.5 0.9-1.2 1.3-1.9s0.5-1.5 0.5-2.4c0-1.5-0.3-2.7-0.9-3.6-0.6-1-1.5-1.7-2.5-2.3-1-0.6-2.1-0.9-3.3-1-1.2-0.1-2.6-0.1-4.2-0.1h-9.5v0.4c0.6 0.1 1.2 0.2 1.6 0.3s0.8 0.4 1.2 0.8c0.1 0.1 0.3 0.4 0.3 0.7 0.1 0.3 0.1 0.7 0.2 1.1 0 0.4 0.1 0.8 0.1 1.3V573.6l-0.1 3.8v1.4c0 0.4-0.1 0.8-0.1 1.2 0 0.4-0.1 0.7-0.2 1-0.1 0.3-0.2 0.5-0.3 0.7-0.3 0.4-0.7 0.7-1.3 0.9-0.5 0.2-1.1 0.3-1.7 0.4v0.4h11.2v-0.4c-1 0-1.7-0.2-2.2-0.6-0.5-0.4-0.9-0.7-1.1-1-0.2-0.4-0.4-0.8-0.4-1.4l-0.1-1.6v-1.2-6.2h0.8c0.2 0 0.6 0 1 0.1 0.6 0.1 1.2 0.4 1.7 0.9s1.1 1 1.5 1.6c0.6 0.7 1 1.3 1.5 1.9 0.4 0.5 0.8 1.1 1.1 1.6l0.5 0.8 0.9 1.5c0.2 0.4 0.5 0.7 0.7 1.2l0.7 1.1 0.1 0.1c0.2 0.3 0.3 0.5 0.4 0.6l0.3 0.4 0.2 0.3 0.2 0.2h7.2v-0.3c-1.1-0.2-2.1-0.5-2.9-1.1-0.8-0.6-1.3-1.5-2.2-2.8z m-6.9-10.2c-0.5 0.4-1.2 0.7-1.9 1-0.8 0.3-1.6 0.4-2.4 0.5-0.8 0.1-1.7 0.1-2.7 0.1v-4-4.3-1.6l0.1-1.9v-0.1-0.3l0.1-0.4v-0.1c0.2 0 0.4 0 0.7-0.1h1.2c0.7 0 1.3 0.1 1.9 0.2 0.6 0.1 1.2 0.3 1.8 0.6 1.1 0.6 2 1.3 2.5 2.3 0.6 0.9 0.9 2 0.9 3.2 0 0.7-0.1 1.3-0.2 1.9-0.2 0.6-0.4 1.2-0.8 1.7-0.3 0.4-0.7 0.9-1.2 1.3zM502.62581 530.9c3.5-3.3 7.2-10.4 14.1-11.6-8.5-3.5-23.5-10.4-30.5-20.9 6.7-2.3 13.2-5.1 19.6-8.2 12.8 2.5-5.8-12.7-9.2-10.3-3 5.4-7.2 10.5-12.5 15.6-8-10.7-10.4-19.1-12.9-29.6h24.6c-12.5 25.2-0.3 3.8 12.8 6.3 2.7-0.1 2.6 0.3 4.7-0.9 2.2-3.6-7.8-8.8-11.1-11.3s-3.8 0.9-7.2 4.1h-26.1c1.2-3 4-10.1 5.3-13.4 12.2-4.1-11.1-9.5-13.3-7.9-1.6 8.8-2.2 13.8-5 21.3h-17.5c-1.2-3.4-4.3-10.4-4.9-1.5 0.1 5.4-10.3 7.2-8.8 13.7 6.2 12.1 18.3-0.2 14.2-10.4h16.4c-11.3 34.8-50 61.5-21.3 43.1 4.8-3.2 8.1-7 13.8-12-0.7 4.8 2 20.2-2.3 24.5-0.5 0.3 0.4 1.5 0.5 1.9 2.5 3.4 4 11.8 7 10.5 4.7-4.1 8-7 11.9-10.2 29.7-22.8 7.2-9.8-6.1-6.9v-29.4c2.5-1.2 3.4-2.3 0.3-4.2 3.5-5.8 6.5-11.6 9-17.4h1.1c1.1 24.4 11 53.6 33.4 65.1z"></path><path d="M367.52581 557.1h0.3c-0.2-0.1-0.2 0-0.3 0zM479.62581 557.3c1.1 0.2 2 0.5 2.6 0.9 0.6 0.4 1 1 1.2 1.6 0.1 0.2 0.2 0.6 0.2 1s0.1 0.8 0.1 1.3 0 0.9 0.1 1.4v7.7c0 0.8 0 1.7-0.1 2.5-0.1 0.9-0.2 1.7-0.4 2.5s-0.4 1.6-0.8 2.3-0.9 1.4-1.5 1.9c-0.6 0.6-1.4 1-2.3 1.3s-2.1 0.5-3.4 0.5c-1.2 0-2.2-0.2-3.1-0.6s-1.7-1-2.3-1.7c-0.6-0.7-1.1-1.6-1.5-2.7-0.4-1-0.5-2.2-0.6-3.5V572v-8.8-1.4l0.1-1.7c0-0.6 0.1-1 0.4-1.4 0.3-0.4 0.5-0.6 0.8-0.9 0.3-0.2 0.6-0.4 1-0.5 0.4-0.1 0.7-0.2 1.1-0.2v-0.1h-10.5v0.4c0.6 0.1 1.2 0.2 1.6 0.4 0.5 0.2 0.9 0.5 1.2 0.9 0.1 0.2 0.2 0.4 0.3 0.7 0.1 0.3 0.1 0.6 0.2 1 0 0.4 0.1 0.8 0.1 1.2V574c0 0.3 0 0.7 0.1 1.3 0 0.6 0.2 1.2 0.4 2s0.5 1.4 0.9 2.2c0.4 0.7 1 1.4 1.7 2 0.7 0.6 1.7 1.1 2.9 1.5 1.2 0.4 2.6 0.5 4.3 0.5 1.7 0 3.2-0.2 4.3-0.6 1.2-0.4 2.1-0.9 2.9-1.5 0.8-0.6 1.3-1.4 1.7-2.1 0.4-0.8 0.7-1.6 0.9-2.4 0.2-0.8 0.3-1.5 0.3-2.2l0.1-1.7 0.2-6.5v-1.3-1.7c0-0.6 0.1-1.1 0.1-1.6l0.1-0.7c0-0.2 0.1-0.4 0.1-0.6 0.1-0.4 0.1-0.7 0.2-0.8 0.3-0.7 0.7-1.2 1.2-1.6 0.5-0.3 1.2-0.6 2.1-0.7v-0.5h-8.8v0.3h-0.2zM545.22581 581.3l-0.7-0.7c-0.1-0.1-0.2-0.3-0.2-0.4l-0.1-0.1-0.9-1.9c-0.2-0.4-0.4-1-0.6-1.6l-0.6-1.5-1.1-3.1-2.7-7.3-3.1-8.3h-0.2c0 0.1-0.1 0.2-0.2 0.3l-0.2 0.4c-0.2 0.3-0.4 0.5-0.7 0.8-0.3 0.3-0.6 0.6-0.9 0.8s-0.7 0.5-1.1 0.7l0.4 0.8c-0.2 0.5-0.5 1.1-0.7 1.7l-2.1 5-1 2.3-1.9 4.4c-0.3 0.6-0.5 1.2-0.8 1.8l-0.9 2.1c-0.5 1.2-1 2.1-1.4 2.8-0.4 0.6-0.6 1-0.8 1.2-0.1 0.1-0.2 0.2-0.4 0.3l-0.3 0.2c-0.4 0.3-1 0.4-1.6 0.5v0.4h7.5v-0.4l-1-0.2c-0.3-0.1-0.7-0.2-1-0.3s-0.5-0.3-0.7-0.5-0.3-0.5-0.3-0.8c0-0.5 0.2-1.4 0.7-2.7l1.5-3.8 0.5-1.3h9.4c0.4 0.9 0.7 1.8 1 2.7 0.2 0.5 0.4 1 0.5 1.5l0.3 0.9c0.2 0.7 0.4 1.3 0.5 1.8s0.2 0.8 0.2 1.1c0 0.3-0.1 0.6-0.3 0.8s-0.5 0.4-0.8 0.5c-0.3 0.1-0.6 0.2-0.8 0.3-0.2 0-0.3 0-0.4 0.1h-0.1v0.4h10.3v-0.4c-0.5 0-1-0.1-1.4-0.3-0.2-0.6-0.5-0.8-0.8-1z m-17.2-9l4.7-11.1c0.1 0.2 0.2 0.5 0.3 0.8 2.4 6.1 3.8 9.5 4 10.3h-9zM406.02581 557.3c1.1 0.2 2 0.5 2.6 0.9 0.6 0.4 1 1 1.2 1.6 0.1 0.2 0.2 0.6 0.2 1s0.1 0.8 0.1 1.3 0 0.9 0.1 1.4v7.7c0 0.8 0 1.7-0.1 2.5-0.1 0.9-0.2 1.7-0.4 2.5s-0.4 1.6-0.8 2.3-0.9 1.4-1.5 1.9c-0.6 0.6-1.4 1-2.3 1.3s-2.1 0.5-3.4 0.5c-1.2 0-2.2-0.2-3.1-0.6s-1.7-1-2.3-1.7c-0.6-0.7-1.1-1.6-1.5-2.7-0.4-1-0.5-2.2-0.6-3.5v-1.6-8.8-1.4l0.1-1.7c0-0.6 0.1-1 0.4-1.4 0.3-0.4 0.5-0.6 0.8-0.9 0.3-0.2 0.6-0.4 1-0.5 0.4-0.1 0.7-0.2 1.1-0.2v-0.2H387.02581v0.4c0.6 0.1 1.2 0.2 1.6 0.4 0.5 0.2 0.9 0.5 1.2 0.9 0.1 0.2 0.2 0.4 0.3 0.7 0.1 0.3 0.1 0.6 0.2 1 0 0.4 0.1 0.8 0.1 1.2V574c0 0.3 0 0.7 0.1 1.3 0 0.6 0.2 1.2 0.4 2s0.5 1.4 0.9 2.2c0.4 0.7 1 1.4 1.7 2 0.7 0.6 1.7 1.1 2.9 1.5 1.2 0.4 2.6 0.5 4.3 0.5 1.7 0 3.2-0.2 4.3-0.6 1.2-0.4 2.1-0.9 2.9-1.5 0.8-0.6 1.3-1.4 1.7-2.1 0.4-0.8 0.7-1.6 0.9-2.4 0.2-0.8 0.3-1.5 0.3-2.2l0.1-1.7 0.2-6.5v-1.3-1.7c0-0.6 0.1-1.1 0.1-1.6s0.1-1 0.2-1.3c0.1-0.4 0.1-0.7 0.2-0.8 0.3-0.7 0.7-1.2 1.2-1.6 0.5-0.3 1.2-0.6 2.1-0.7v-0.5H406.02581v0.3zM393.72581 495c6.4-7.8-4.3-17.2-12.1-18.9-3.2 0.3 3.6 4.2 3 10.1-1.5 6.7 1.7 14.5 9.1 8.8zM451.62581 579.1l-1.6-2.3-1.6-2.4c-0.3-0.4-0.5-0.8-0.8-1.1-0.3-0.5-0.7-1-1.1-1.4-0.4-0.4-0.8-0.7-1.2-1v-0.1c0.8-0.3 1.5-0.6 2.2-1 0.7-0.4 1.3-0.9 1.8-1.4s0.9-1.2 1.3-1.9 0.5-1.5 0.5-2.4c0-1.5-0.3-2.7-0.9-3.6-0.6-1-1.5-1.7-2.5-2.3s-2.1-0.9-3.3-1c-1.2-0.1-2.6-0.1-4.2-0.1h-9.5v0.4c0.6 0.1 1.2 0.2 1.6 0.3 0.4 0.1 0.8 0.4 1.2 0.8 0.1 0.1 0.3 0.4 0.3 0.7 0.1 0.3 0.1 0.7 0.2 1.1 0 0.4 0.1 0.8 0.1 1.3V573.7l-0.1 3.3v1.9c0 0.4-0.1 0.8-0.1 1.2 0 0.4-0.1 0.7-0.2 1-0.1 0.3-0.2 0.5-0.3 0.7-0.3 0.4-0.7 0.7-1.3 0.9-0.5 0.2-1.1 0.3-1.7 0.4v0.4h11.2v-0.5c-1 0-1.7-0.2-2.2-0.6-0.5-0.4-0.9-0.7-1.1-1-0.2-0.4-0.4-0.8-0.4-1.4v-2-7h0.8c0.2 0 0.6 0 1 0.1 0.6 0.1 1.2 0.4 1.7 0.9s1.1 1 1.5 1.6l0.6 0.8c0.3 0.4 0.6 0.7 0.8 1.1 0.4 0.5 0.8 1.1 1.1 1.6l0.5 0.8 1.2 1.9c0.2 0.3 0.3 0.5 0.5 0.8l0.6 1 0.2 0.3c0.2 0.3 0.3 0.5 0.4 0.6l0.3 0.4 0.2 0.3 0.2 0.2h7.2v-0.4c-1.1-0.2-2.1-0.5-2.9-1.1-0.5-0.6-1.4-1.5-2.2-2.8z m-7-10.2c-0.5 0.4-1.2 0.7-1.9 1-0.8 0.3-1.6 0.4-2.4 0.5-0.8 0.1-1.7 0.1-2.7 0.1v-4-3.1c0-1.1 0-2 0.1-2.9l0.1-1.9v-0.1-0.3l0.1-0.5c0.1 0 0.3 0 0.5-0.1h1.4c0.7 0 1.3 0.1 1.9 0.2 0.6 0.1 1.2 0.3 1.8 0.6 1.1 0.6 2 1.3 2.5 2.3 0.6 0.9 0.9 2 0.9 3.2 0 0.7-0.1 1.3-0.2 1.9-0.2 0.6-0.4 1.2-0.8 1.7-0.3 0.5-0.7 1-1.3 1.4zM396.92581 531.7c0.1 3.6 10.1 3.3 11.3-1.5 0 0.1-0.3-9.1-0.4-11.9-0.1 0-0.1-64-0.1-65.6 3-2.6 4.2-3.9-0.9-5-2.3 0-7.4-2.9-9.9-0.6 0.1 1.9 0.5 11.5 0.4 10.4v1.2c0 21.6 0.2 61.5-0.4 73zM331.32581 497.7c12-0.4 8.3-26 1-28.2 0.6 5 0.3 12.6-5.2 16.6-5.9 3.3-2.7 11.6 4.2 11.6z"></path><path d="M367.02581 527.2c-0.4 4.5 9.1 2.1 11.2-0.4-0.6-6.7-0.3-63-0.4-71 3.2-2.8 3.8-3.8 0.6-4.3-16.7-4.3-9.7 1.8-10.7 7.8-0.1 12.7 0.4 60-0.7 67.9zM733.22581 469.9c6 8.9 7.3 22.3 5.8 34.3 1.3 12.5 17.1 5 14.3-4.6 0.4-12.4-23.1-39.4-20.1-29.7zM981.62581 455.3c1.2-0.1 35.8 0.3 37.5-0.1 3 0.3-9.9-13.8-11.9-9.3 0 0.1-0.1 0.1-0.1 0.2-1.9 2.6-3.3 4.3-5.3 7.3-5 0-23.9 0.3-28.4-0.7l2.7 2.9 5.5-0.3zM933.52581 471.8c9.8-3.6 21.7-11.3 31.3-17.6 11.3 0.7-5.6-11.6-9.2-12.1-6.2 14.8-29.7 31.4-22.1 29.7zM964.02581 467.7c-6.3-3.4-6.1-6-8.9 0.4-8.8 19-23.7 29.5-21.3 32.4 5.7-2.9 10.8-7.1 17-11.4 1.6 37.6-6.7 50.5 11.3 41 0.5-7.9-0.4-36.8-0.1-44.9 2.5-1.6 2.8-2.9-1.5-4.7 1.6-1.6 4.2-4 6.3-6.1 6.6-0.6 2.7-3.2-2.8-6.7zM284.02581 581.7c-0.2-0.3-0.3-0.7-0.3-1.4v-16.2-1.8c0-0.6 0-1.2 0.1-1.8 0-0.6 0.1-1.2 0.3-1.6 0.3-0.6 0.7-1 1.3-1.2s1.1-0.3 1.6-0.4v-0.3h-10.6v0.4c0.6 0.1 1.2 0.2 1.6 0.4 0.5 0.2 0.9 0.5 1.2 0.9 0.1 0.2 0.2 0.4 0.3 0.7 0.1 0.3 0.1 0.6 0.2 1s0.1 0.8 0.1 1.2v12l-0.1 3.3v1.9c0 0.4 0 0.8-0.1 1.2 0 0.4-0.1 0.7-0.1 1 0 0.3-0.1 0.5-0.3 0.6-0.4 0.4-0.8 0.7-1.3 1-0.5 0.2-1.1 0.4-1.6 0.5v0.4H287.02581v-0.5c-0.5 0-1-0.2-1.7-0.4-0.6-0.2-1-0.5-1.3-0.9zM346.22581 581.6c-0.1-0.2-0.2-0.6-0.3-1.2v-18.5-1.2c0-0.4 0.1-0.7 0.1-1s0.1-0.5 0.2-0.7c0.3-0.5 0.7-0.9 1.2-1.1s1.1-0.4 1.7-0.5v-0.4h-10.7v0.4c0.5 0 1.1 0.1 1.6 0.3s1 0.6 1.5 1.2c0.2 0.3 0.3 0.7 0.3 1.2s0.1 1 0.1 1.4v8h-14v-3.7V561.6v-1.3c0-0.6 0.1-1 0.4-1.4 0.2-0.4 0.5-0.7 0.8-0.9s0.6-0.4 1-0.5 0.7-0.2 1.1-0.2v-0.3h-10.6v0.4c0.6 0.1 1.2 0.2 1.6 0.4 0.5 0.2 0.9 0.5 1.2 0.9 0.1 0.2 0.2 0.4 0.3 0.7 0.1 0.3 0.1 0.6 0.2 1 0 0.4 0.1 0.8 0.1 1.2v17.2c0 0.4-0.1 0.8-0.1 1.2 0 0.4-0.1 0.7-0.1 1 0 0.3-0.1 0.5-0.2 0.6-0.3 0.3-0.7 0.6-1.2 0.9-0.5 0.3-1.1 0.4-1.7 0.5v0.4H331.02581v-0.4c-0.5 0-1-0.2-1.5-0.4s-0.9-0.5-1.2-1c-0.2-0.3-0.3-0.7-0.3-1.4v-10h14V579.4c0 0.3 0 0.6-0.1 0.9s-0.1 0.6-0.1 0.8c0 0.2-0.1 0.4-0.1 0.4-0.2 0.3-0.6 0.6-1.2 0.9-0.6 0.3-1.3 0.4-2.2 0.5v0.4h10.9v-0.3c-0.6-0.1-1.2-0.2-1.7-0.4-0.6-0.2-1-0.5-1.3-1zM311.82581 580.2c-1.5 1.4-3.3 2.2-5.2 2.4-0.7 0.1-1.3 0.1-2 0.1H297.02581l18-25.4-0.1-0.2H294.72581l-2.6 7.8 0.4 0.1c0.3-0.4 0.6-0.9 1-1.4s0.8-1 1.2-1.6c0.4-0.5 0.8-1 1.3-1.4 0.4-0.4 0.8-0.8 1.1-1 0.6-0.5 1.3-0.9 2-1.2s1.5-0.5 2.4-0.5h8.7l-18 25.5 0.1 0.3h21.5l2.6-8.2-0.4-0.1c-1.3 1.7-2.7 3.4-4.2 4.8zM353.62581 451.2c5-2.8 3.7-4.2-1-5-2.8 0.1-12.2-3.4-10.9 0.6 2 49.2 3.9 67.5-19 83.4 36.8-5.5 29.6-50.7 30.9-79zM220.92581 511.5c7.5-3.4 15.7-7.2 22.5-13.3 6.9 26.2 22.8-1.7 2.2-1.6 6.9-6.5 8-8.1 12-14.4h19.1c2.7 11.4 13.4 26.9 25.6 29.8 1-4.3 5.7-8.2 9.6-11.1-13.6-3.1-26.6-7.8-32.3-18.7 1.7-0.5 30.7 1 32.3-0.5-6.8-8.3-10.2-14.6-17.5-1.3h-36.1c1.6-3.7 2.9-7.4 4-11.2h32.9c3.1-0.9-5.5-7.4-8.8-9.1-1.8-0.9-3.4 2.9-6.3 7.2h-17.4c0.4-1.9 1.5-6.2 2.2-9.6h38c4.4-0.4-9.3-11-10.3-10.7-2.4 0.6-5 6-7.1 8.7h-20.1c0.5-2.3 1-4.7 1.8-7.3 9.7-3.8-9.8-7-12.8-6.4 0.2 3.3-0.2 8.4-0.9 13.6-6.1 0.1-21.9 0.1-27.6-0.8l2.1 3.2c5.5-0.4 19.9-0.3 25.4-0.3-0.2 2.5-1.7 7.1-2.2 9.6-5.3 0.1-16.7 0-21.9-0.6l2.1 2.8c4.7-0.4 14.9-0.5 19.4-0.4-0.4 2.6-3.1 8.7-3.7 11.2-5.8 0.1-20.2 0.1-25.7-0.6l1.9 2.8c5.2-0.4 17.9-0.4 23-0.4-10.2 20-31.1 28.7-25.4 29.4zM269.62581 581.3l-0.7-0.7c-0.1-0.1-0.2-0.3-0.2-0.4l-0.1-0.1-0.8-1.7c-0.2-0.5-0.5-1.1-0.7-1.9l-0.6-1.5-1.1-3.1-2.7-7.3-3.1-8.3h-0.3c-0.1 0.2-0.2 0.4-0.4 0.6-0.2 0.3-0.4 0.5-0.7 0.8s-0.6 0.6-0.9 0.8c-0.3 0.2-0.7 0.5-1.1 0.7l0.4 0.8c-0.2 0.5-0.5 1.1-0.7 1.7l-2.1 5-1 2.3-2.6 6.2-0.9 2.1c-0.5 1.2-1 2.1-1.4 2.8-0.4 0.6-0.6 1-0.8 1.2-0.1 0.1-0.2 0.2-0.4 0.3l-0.3 0.2c-0.4 0.3-1 0.4-1.6 0.5v0.4h7.5v-0.4l-1-0.2c-0.3-0.1-0.7-0.2-1-0.3-0.3-0.1-0.5-0.3-0.7-0.5-0.2-0.2-0.3-0.5-0.3-0.8 0-0.4 0.2-1.1 0.5-2.1l0.2-0.6c0.3-0.8 0.7-1.7 1-2.5l0.5-1.3 0.5-1.3h9.4c0.4 0.9 0.7 1.8 1 2.7 0.3 0.9 0.6 1.6 0.8 2.4l0.1 0.4c0.2 0.5 0.3 1 0.4 1.4 0.1 0.5 0.2 0.8 0.2 1.1 0 0.3-0.1 0.6-0.3 0.8-0.2 0.2-0.5 0.4-0.8 0.5-0.3 0.1-0.6 0.2-0.8 0.3-0.2 0-0.3 0-0.4 0.1h-0.1v0.4H272.02581v-0.4c-0.5 0-1-0.1-1.4-0.3-0.4-0.4-0.8-0.6-1-0.8z m-17-9.2l4.6-10.8c0.1 0.2 0.1 0.3 0.2 0.5l4 10.3h-8.8z"></path><path d="M356.72581 483.5c-3.6 27.3 24.3 2.1 0.4-7.6-2.4-1.2-5.4-1.6-2.7 1.3 0.9 2.3 2.2 3.1 2.3 6.3zM294.12581 523.5c0.7-7.2-9.6-11.9-25.1-13.8 4.7-2.9 19.5-3.9 15.9-6.9-10.4-13.4-9.2-2.2-15.8 4.1v-14.1c7.8-5.6-6.9-5.5-11.2-5.6 0.5 5.8 1 17.6 0.8 23.4-11 4.1-34.2 3.3-29.3 7.6 3.3 4.8 3.6 11.7 6.8 8.3 4.5-4 16.5-10.2 22.5-13.8 0.5 17.4-0.2 9.3-12.4 11.4 4.9 4.4 8.1 1.3 8.3 10.4 20.4 2.5 13.3-11.5 14.5-23 11.7 3.2 17.4 31.3 25 12zM240.82581 557.4c-0.5 0.1-1.1 0.2-1.9 0.2h-18c-0.6 0-1-0.1-1.4-0.1-0.5-0.1-0.9-0.2-1.5-0.3l-1 6.9 0.3 0.1c0.1-0.4 0.3-0.9 0.6-1.3 0.2-0.5 0.5-0.9 0.8-1.3 0.2-0.3 0.4-0.5 0.5-0.8l0.2-0.3c0.2-0.3 0.5-0.6 0.6-0.8 0.5-0.5 1-0.8 1.6-1 0.6-0.2 1.3-0.3 2.2-0.3H228.12581v15.4l-0.1 3.1v1.9c0 0.4 0 0.8-0.1 1.1 0 0.3-0.1 0.7-0.1 0.9-0.1 0.3-0.1 0.5-0.3 0.6-0.5 0.6-1.1 1-1.6 1.2-0.6 0.2-1.1 0.3-1.7 0.4v0.4h11.3v-0.4c-0.5-0.1-1.1-0.2-1.7-0.4-0.6-0.2-1.1-0.6-1.5-1.1-0.2-0.3-0.3-0.7-0.3-1.4 0-0.6-0.1-1.3-0.1-2V564v-5.3-0.5H236.32581c0.9 0 1.6 0.1 2.2 0.3 0.5 0.1 0.9 0.4 1.4 0.8l0.2 0.2c0.2 0.2 0.4 0.4 0.7 0.8 0.3 0.4 0.5 0.7 0.8 1.1 0.3 0.4 0.5 0.9 0.8 1.3 0.3 0.5 0.5 0.9 0.7 1.4l0.3-0.1-1.1-7.1c-0.5 0.2-1 0.4-1.5 0.5zM818.92581 530.3c-11.2-13-10.1-12.6-18.4-1.3h-10.8v-13.9c10.7-15.2 16.1-24.5 25-40.9 11.5-1.3-9.4-10.5-12-9.4-2.1 14.2-6.1 26.5-13.1 42.1v-54.7c10.4-5-7.1-8.2-11.9-6.5 1.3 8.2 0.7 73.7 0.8 83.4h-9.7v-78.4c10.7-5-7.4-8.2-12-6.5 1.1 8.1 0.6 75.2 0.7 84.9-5 0-24.8 0.2-29.2-0.6l2.9 2.8c1.5-1.2 84.6 1 87.7-1zM825.32581 581.7c-0.2-0.3-0.3-0.7-0.3-1.4v-16.2-1.8c0-0.6 0-1.2 0.1-1.8 0-0.6 0.1-1.2 0.3-1.6 0.3-0.6 0.7-1 1.3-1.2s1.1-0.3 1.6-0.4v-0.3h-10.6v0.4c0.6 0.1 1.2 0.2 1.6 0.4 0.5 0.2 0.9 0.5 1.2 0.9 0.1 0.2 0.2 0.4 0.3 0.7s0.1 0.6 0.2 1 0.1 0.8 0.1 1.2v12l-0.1 3.8v1.4c0 0.4 0 0.8-0.1 1.2-0.1 0.4-0.1 0.7-0.1 1 0 0.3-0.1 0.5-0.3 0.6-0.4 0.4-0.8 0.7-1.3 1-0.5 0.2-1.1 0.4-1.6 0.5v0.4h10.7v-0.5c-0.5 0-1-0.2-1.7-0.4-0.6-0.2-1.1-0.5-1.3-0.9zM856.52581 581.3l-0.7-0.7c-0.1-0.1-0.2-0.3-0.2-0.4l-0.1-0.1-0.9-1.9c-0.2-0.4-0.4-1-0.6-1.6l-0.6-1.5-1.1-3.1-2.7-7.3-3.1-8.3h-0.3c0 0.1-0.1 0.2-0.2 0.3l-0.2 0.4c-0.2 0.3-0.4 0.5-0.7 0.8-0.3 0.3-0.6 0.6-0.9 0.8s-0.7 0.5-1.1 0.7l0.4 0.8c-0.2 0.5-0.5 1.1-0.7 1.7l-2.1 5-1 2.3-1.9 4.4c-0.3 0.6-0.5 1.2-0.8 1.8l-0.9 2.1c-0.5 1.2-1 2.1-1.4 2.8-0.4 0.6-0.6 1-0.8 1.2-0.1 0.1-0.2 0.2-0.4 0.3l-0.3 0.2c-0.4 0.3-1 0.4-1.6 0.5v0.4h7.5v-0.4l-1-0.2c-0.3-0.1-0.7-0.2-1-0.3s-0.5-0.3-0.7-0.5-0.3-0.5-0.3-0.8c0-0.5 0.2-1.4 0.7-2.7l1-2.5 1-2.6h9.4c0.4 0.9 0.7 1.8 1 2.7 0.2 0.5 0.4 1 0.5 1.5l0.3 0.9c0.2 0.7 0.4 1.3 0.5 1.8s0.2 0.8 0.2 1.1c0 0.3-0.1 0.6-0.3 0.8s-0.5 0.4-0.8 0.5c-0.3 0.1-0.6 0.2-0.8 0.3-0.2 0-0.3 0-0.4 0.1h-0.1v0.4H859.02581v-0.4c-0.5 0-1-0.1-1.4-0.3-0.4-0.6-0.8-0.8-1.1-1z m-17.1-9l4.2-9.8c0.1-0.4 0.3-0.7 0.4-0.9l0.1-0.3c0.1 0.2 0.2 0.5 0.3 0.8 2.4 6 3.8 9.4 4 10.2h-9zM809.62581 557.7c-0.2 0.2-0.3 0.4-0.5 0.6l-0.4 0.4c-0.1 0.1-0.2 0.2-0.3 0.2l-0.4-0.2-0.2-0.2c-0.4-0.3-0.9-0.6-1.6-0.9-0.7-0.3-1.6-0.6-2.6-0.9s-2.3-0.4-3.6-0.4c-1.5 0-2.9 0.2-4.1 0.5-1.2 0.3-2.3 0.8-3.3 1.4s-1.8 1.2-2.5 2-1.3 1.6-1.8 2.4c-0.4 0.7-0.8 1.4-1 2.1-0.3 0.7-0.5 1.4-0.6 2s-0.3 1.2-0.3 1.8c-0.1 0.6-0.1 1.1-0.1 1.5 0 2 0.3 3.8 1 5.5 0.6 1.7 1.6 3.1 2.8 4.3 1.2 1.2 2.7 2.1 4.4 2.8 1.7 0.6 3.7 1 5.8 1 1.3 0 2.4-0.1 3.4-0.3 1-0.2 1.8-0.5 2.5-0.8 0.6-0.3 1.1-0.5 1.4-0.7l0.5-0.3c0.2-0.1 0.2-0.2 0.3-0.2s0.3 0.2 0.6 0.5 0.6 0.7 0.9 1.1h0.4l0.1-8.1h-0.4c-0.2 1.1-0.6 2.1-1.2 3.1s-1.3 1.9-2.1 2.6c-0.8 0.8-1.8 1.4-2.8 1.8s-2.2 0.7-3.4 0.7c-1.5 0-2.9-0.3-4.2-1-1.3-0.7-2.3-1.6-3.2-2.7-0.9-1.1-1.6-2.5-2-4-0.5-1.5-0.7-3.2-0.7-5 0-1.7 0.2-3.3 0.7-4.9s1.1-3 1.9-4.2c0.8-1.2 1.9-2.3 3.1-3 1.3-0.8 2.7-1.1 4.3-1.1 1.2 0 2.3 0.2 3.3 0.7 1 0.4 2 1 2.8 1.8s1.5 1.7 2.1 2.7 1.1 2.1 1.4 3.3h0.4v-8.2h-0.4c-0.1-0.1-0.3 0.1-0.4 0.3zM552.42581 529.2c-0.5-7.9-0.4-37.3-0.4-45.6 1.8 1.8 3.2 4.9 3.2 7.7 1.3 19.6 24-5.3-3.2-9.7v-13.7c7.3-1.2 28 4.6 9.5-8.3-1-1.1-2.7 1.6-6.4 6.3H552.02581v-17.7c8.8-4.7-7.9-7.1-10.9-5.6 0.5 5.5 0.6 18 0.5 23.4-4 0.1-13 0-16.9-0.6l2.7 2.8c2.6-0.4 10.6-0.3 13.4-0.3-2.6 30.6-31.9 61.5 0.6 27.8 0 8.6 0.1 24.4-0.7 34.6-0.2 3.6 9.8 3.3 11.7-1.1zM749.72581 579c-0.6 0.7-1.1 1.4-1.7 1.9-0.6 0.5-1.2 0.9-1.9 1.2-0.6 0.3-1.3 0.5-2.1 0.6-0.7 0.1-1.3 0.2-2 0.2h-1.5c-0.9 0-1.8-0.1-2.6-0.2s-1.3-0.4-1.5-0.7-0.4-0.9-0.4-1.6c-0.1-0.7-0.1-1.4-0.1-2.2v-0.9-5.5c0-0.7 0-1.2 0.1-1.5h2.4c0.2 0 0.5 0 0.9 0.1 0.7 0 1.3 0.2 1.9 0.4 0.5 0.2 1 0.5 1.4 0.8 0.4 0.4 0.8 1 1.2 1.9 0.4 0.8 0.7 1.6 0.9 2.4h0.4v-11.6h-0.4c-0.1 0.7-0.3 1.3-0.5 1.9-0.2 0.6-0.4 1-0.7 1.4s-0.7 0.8-1.2 1.1c-0.5 0.3-1.1 0.5-1.8 0.7-0.3 0.1-0.7 0.1-1.2 0.2-0.5 0-0.9 0.1-1.4 0.1H735.92581V568.4 564.5 560.2c0-1.2 0.1-2 0.1-2.4h0.3c0.2 0 0.5-0.1 0.9-0.1 0.5 0 1.1-0.1 1.5-0.1 1.6 0 2.9 0.1 4 0.2s1.8 0.3 2.2 0.5c1.7 0.9 3.5 2.5 5.4 5l0.4-0.2-2.4-6.1h-19.6v0.4c0.6 0.1 1.2 0.2 1.6 0.3 0.4 0.1 0.8 0.4 1.1 0.8 0.1 0.1 0.3 0.4 0.3 0.7 0 0.3 0.1 0.7 0.2 1.1 0.1 0.4 0.1 0.9 0.1 1.3v12.8l-0.1 3.1v1.4c0 0.4-0.1 0.8-0.1 1.2s-0.1 0.7-0.2 1c-0.1 0.3-0.2 0.5-0.3 0.6-0.3 0.4-0.8 0.7-1.3 0.9s-1.1 0.4-1.7 0.5v0.4h21.8l1.8-7-0.4-0.1c-0.6 0.9-1.2 1.8-1.8 2.6zM777.92581 579.1l-1.6-2.3-1.6-2.4c-0.3-0.4-0.5-0.8-0.8-1.1-0.3-0.5-0.7-1-1.1-1.4-0.4-0.4-0.8-0.7-1.2-1v-0.1c0.8-0.3 1.5-0.6 2.2-1 0.7-0.4 1.3-0.9 1.8-1.4s0.9-1.2 1.3-1.9c0.3-0.7 0.5-1.5 0.5-2.4 0-1.5-0.3-2.7-0.9-3.6-0.6-1-1.5-1.7-2.5-2.3s-2.1-0.9-3.3-1-2.6-0.1-4.2-0.1H757.02581v0.4c0.6 0.1 1.2 0.2 1.6 0.3 0.4 0.1 0.8 0.4 1.2 0.8 0.1 0.1 0.3 0.4 0.3 0.7 0.1 0.3 0.1 0.7 0.2 1.1 0 0.4 0.1 0.8 0.1 1.3V573.7l-0.1 3.3v1.9c0 0.4-0.1 0.8-0.1 1.2 0 0.4-0.1 0.7-0.2 1-0.1 0.3-0.2 0.5-0.3 0.7-0.3 0.4-0.7 0.7-1.3 0.9-0.5 0.2-1.1 0.3-1.7 0.4v0.4H768.02581v-0.5c-1 0-1.7-0.2-2.2-0.6-0.5-0.3-0.9-0.7-1.1-1-0.2-0.4-0.4-0.8-0.4-1.4v-2-7h0.8c0.2 0 0.6 0 1 0.1 0.6 0.1 1.2 0.4 1.7 0.9s1.1 1 1.5 1.6l0.6 0.8c0.3 0.4 0.6 0.7 0.8 1.1 0.4 0.5 0.8 1.1 1.1 1.6l0.5 0.8 1.2 1.9c0.2 0.3 0.3 0.5 0.5 0.8l0.6 1 0.2 0.3c0.2 0.3 0.3 0.5 0.4 0.6l0.3 0.4 0.2 0.3 0.2 0.2h7.2v-0.4c-1.1-0.2-2.1-0.5-2.9-1.1-0.8-0.6-1.4-1.5-2.3-2.8z m-6.9-10.2c-0.5 0.4-1.2 0.7-1.9 1-0.8 0.3-1.6 0.4-2.4 0.5-0.8 0.1-1.7 0.1-2.7 0.1v-4-3.1c0-1.1 0-2 0.1-2.9l0.1-1.9v-0.1-0.3l0.1-0.5c0.1 0 0.3 0 0.5-0.1h1.4c0.7 0 1.3 0.1 1.9 0.2 0.6 0.1 1.2 0.3 1.8 0.6 1.1 0.6 2 1.3 2.5 2.3s0.9 2 0.9 3.2c0 0.7-0.1 1.3-0.2 1.9-0.2 0.6-0.4 1.2-0.8 1.7s-0.8 1-1.3 1.4zM952.92581 581.3l-0.7-0.7c-0.1-0.1-0.2-0.3-0.2-0.4v-0.2l-0.8-1.7c-0.2-0.5-0.5-1.1-0.7-1.9l-0.6-1.5-1.1-3.1-2.7-7.3-3.1-8.3h-0.3c-0.1 0.2-0.2 0.4-0.4 0.6-0.2 0.3-0.4 0.5-0.7 0.8-0.3 0.3-0.6 0.6-0.9 0.8-0.3 0.2-0.7 0.5-1.1 0.7l0.4 0.8c-0.2 0.5-0.5 1.1-0.7 1.7l-2.1 5-1 2.3-1.9 4.4c-0.3 0.6-0.5 1.2-0.8 1.8l-0.9 2.1c-0.5 1.2-1 2.1-1.4 2.8-0.4 0.6-0.6 1-0.8 1.2-0.1 0.1-0.2 0.2-0.4 0.3l-0.3 0.2c-0.4 0.3-1 0.4-1.6 0.5v0.4h7.5v-0.4l-1-0.2c-0.3-0.1-0.7-0.2-1-0.3s-0.5-0.3-0.7-0.5-0.3-0.5-0.3-0.8c0-0.4 0.2-1.1 0.5-2.1l0.2-0.6c0.3-0.8 0.7-1.7 1-2.5l0.5-1.3 0.5-1.3h9.4c0.4 0.9 0.7 1.8 1 2.7s0.6 1.6 0.8 2.4l0.1 0.4c0.2 0.5 0.3 1 0.4 1.4 0.1 0.5 0.2 0.8 0.2 1.1s-0.1 0.6-0.3 0.8-0.5 0.4-0.8 0.5c-0.3 0.1-0.6 0.2-0.8 0.3-0.2 0-0.3 0-0.4 0.1h-0.1v0.4h10.3v-0.4c-0.5 0-1-0.1-1.4-0.3-0.1-0.3-0.5-0.5-0.8-0.7z m-17.1-9l4.7-11.1c0.1 0.2 0.1 0.3 0.2 0.5l4.3 10.6h-9.2zM978.12581 557.3c1.1 0.2 2 0.5 2.6 0.9 0.6 0.4 1 1 1.2 1.7 0.2 0.5 0.3 1.2 0.3 2.1v15.2L965.62581 557h-7.1v0.4c0.4 0 0.8 0.1 1.2 0.2s0.8 0.3 1.1 0.5c0.3 0.2 0.7 0.6 0.9 1.1 0.3 0.5 0.4 1 0.5 1.7v10.9c0 1.2 0 2.3-0.1 3.2l-0.1 1.6c0 0.9-0.1 1.7-0.2 2.4-0.1 1-0.3 1.8-0.6 2.3s-0.8 0.9-1.3 1.2c-0.5 0.3-1.1 0.4-1.7 0.5v0.4h8.6v-0.4c-1-0.1-1.7-0.3-2.3-0.6s-1-0.7-1.2-1.3c-0.2-0.5-0.4-1.2-0.4-2.2 0-0.8-0.1-1.7-0.1-2.8v-16c1.3 1.5 2.5 2.9 3.7 4.3l1.9 2.4 9.2 11.3c1.3 1.6 2.7 3.3 4.2 5 0.2 0.2 0.4 0.4 0.6 0.4 0.1 0 0.2 0 0.3-0.1s0.1-0.1 0.1-0.2v-5-5V568.6c0-0.8 0-1.6 0.1-2.3l0.1-3.1c0-0.5 0-1 0.1-1.5 0-1 0.2-1.7 0.3-2 0.3-0.7 0.7-1.2 1.2-1.6 0.5-0.3 1.2-0.6 2.1-0.7v-0.4H978.02581v0.3h0.1zM1016.62581 582.4s-0.1-0.1-0.2-0.1l-0.2-0.2-0.7-0.6c-0.3-0.2-0.6-0.5-0.9-0.8-0.3-0.3-0.6-0.6-0.8-0.9l-3.1-3.6-4.2-4.9-1.3-1.5c-0.2-0.2-0.4-0.5-0.6-0.7l-0.8-0.9c0.2-0.2 0.4-0.4 0.6-0.7l1.7-1.8 1.3-1.3 0.8-0.8 1.5-1.5c1.3-1.2 2.5-2.3 3.8-3.2 1.2-0.9 2.5-1.5 3.7-1.6v-0.3h-9.6v0.4c0.6 0.1 1.2 0.3 1.6 0.6 0.5 0.3 0.7 0.8 0.7 1.5 0 0.4-0.2 0.9-0.5 1.4s-0.7 1-1.1 1.5l-2 2.2c-0.8 0.9-1.6 1.7-2.4 2.5-0.8 0.8-1.6 1.5-2.3 2.2s-1.3 1.1-1.7 1.4v-7.4-0.5l0.1-1.5c0-0.8 0.2-1.5 0.4-2 0.2-0.6 0.5-1 0.8-1.3 0.3-0.3 0.7-0.5 1.1-0.6 0.4-0.1 0.9-0.2 1.3-0.2v-0.2h-11.1v0.4c0.6 0.1 1.2 0.2 1.6 0.4 0.5 0.2 0.9 0.5 1.2 0.9 0.3 0.3 0.4 0.9 0.5 1.7s0.1 1.6 0.1 2.6v16c0 0.4 0 0.8-0.1 1.2-0.1 0.4-0.1 0.7-0.2 1-0.1 0.3-0.2 0.5-0.3 0.7-0.3 0.3-0.7 0.6-1.2 0.8-0.5 0.2-1.1 0.3-1.7 0.4v0.4h11.4v-0.5c-0.2 0-0.5-0.1-0.8-0.1-0.3-0.1-0.6-0.1-1-0.3-0.3-0.1-0.6-0.3-0.9-0.4-0.3-0.1-0.5-0.4-0.7-0.6-0.2-0.3-0.4-0.8-0.5-1.4-0.1-0.6-0.1-1.3-0.1-2v-6.5c0.1-0.2 0.1-0.3 0.2-0.4 0.1-0.1 0.2-0.1 0.4-0.1s0.4 0.1 0.6 0.3c0.2 0.1 0.5 0.4 0.9 0.9l1.5 1.7c1.1 1.2 2.1 2.5 3.2 3.7l4.3 5.2c0.1 0.2 0.3 0.3 0.4 0.4 0.1 0.1 0.2 0.2 0.3 0.2h8v-0.6c-0.7 0-1.3-0.1-1.8-0.3-0.5-0.1-0.9-0.2-1.2-0.3zM884.92581 577.8c-0.3 0.7-0.7 1.3-1.1 1.9-0.4 0.6-1 1.1-1.6 1.5-0.6 0.4-1.4 0.8-2.3 1.1-0.4 0.1-0.8 0.2-1.4 0.3-0.5 0.1-1 0.1-1.5 0.2H874.82581c-0.5 0-0.9 0-1.4-0.1-0.5-0.1-0.9-0.1-1.3-0.2s-0.7-0.2-1-0.3c-0.3-0.1-0.5-0.2-0.6-0.4-0.2-0.3-0.3-0.9-0.4-1.6l-0.1-1.5v-3V562.8c0-0.7 0-1.5 0.1-2.3 0-0.7 0.2-1.2 0.4-1.6 0.3-0.4 0.6-0.7 1-0.9s0.8-0.4 1.2-0.5l0.6-0.1c0.2 0 0.3-0.1 0.5-0.1v-0.3h-11.1v0.4c0.6 0.1 1.2 0.2 1.7 0.4s1 0.5 1.3 1c0.1 0.2 0.2 0.4 0.3 0.7 0.1 0.3 0.1 0.6 0.2 1 0 0.4 0.1 0.8 0.1 1.2v16c0 0.4 0 0.8-0.1 1.2 0 0.4-0.1 0.8-0.1 1.2s-0.1 0.7-0.2 1c-0.1 0.3-0.2 0.5-0.3 0.6-0.3 0.4-0.8 0.7-1.3 0.9-0.6 0.2-1.1 0.4-1.7 0.5v0.4h22.3l1.3-7.6-0.3-0.1c-0.4 0.7-0.7 1.4-1 2zM1022.92581 478.6c-9.6-8.5-8.9-12.7-17.2 0.7-4.9-0.1-35.9 0.3-39.6-0.6l2.6 2.8c3.8-0.5 23.3-0.3 27.3-0.3 0 54.4 3.1 35.5-14.7 40.3 7.4 3.3 10.2 2.8 10.7 10.7 14.5 1.7 16.8-4.3 15.9-13.4v-35.3c0.6-0.6 1.2-1.3 1.8-2.2 1.5-0.9 18.8 2.4 13.2-2.7zM907.12581 531.4c1.6 1.2 3.8 4.7 4.8 1.4 1.4-3.3 6.3-7 10.5-7.9 1.6-0.5-0.5-1.9-2.1-2.2-10.1-3.7-14.5-9.8-19.9-17.8 19.5-9.5 30.2-6.4 11-14.7-2.9-2.1-8.3 9.8-12.1 12.5-2.6-4.2-4.7-9.6-6.4-16.1h9.7c-0.8 5.2 10.5 3.2 11.5-0.1-0.6-8.1-0.5-24.3-0.5-31.3 7.1-2.8-2.3-5.9-7.4-8.2-1.9-0.8-2.3 0.9-5 3.8-34.7 2.8-29.8-15.7-29.4 7.9-0.1 13 1 62.4-1.8 63.3 2.2 3.6 4.2 14.2 6.6 10.8 5.8-6.5 12.2-14.6 18.7-21.3 3.2 10.8 5.5 13.5 11.8 19.9z m-26-78.7h20.7v13.6h-20.7v-13.6z m0 31.4v-15h20.7v15h-20.7z m1.4 32.9v-30h8.3c0.8 8 1.5 16.8 3.8 24.3-3.8 2-7.9 3.9-12.1 5.7zM921.82581 571.5c-0.6-0.6-1.4-1-2.2-1.3s-1.7-0.5-2.5-0.6v-0.1c1.6-0.3 2.9-1 3.9-2s1.5-2.3 1.5-3.9c0-1.5-0.4-2.7-1.2-3.6s-1.8-1.7-3-2.1c-0.8-0.3-1.5-0.5-2.4-0.6-0.8-0.1-1.7-0.2-2.6-0.2h-11.9v0.4c0.6 0.1 1.1 0.2 1.5 0.3 0.4 0.1 0.7 0.4 1.1 0.8 0.1 0.1 0.3 0.4 0.3 0.7s0.2 0.7 0.2 1.1c0.1 0.4 0.1 0.9 0.1 1.3V573.7l-0.1 3.6v1.7c0 0.4-0.1 0.8-0.1 1.2-0.1 0.4-0.1 0.7-0.2 1-0.1 0.3-0.2 0.5-0.3 0.6-0.3 0.4-0.8 0.7-1.3 0.9-0.5 0.2-1.1 0.4-1.7 0.5v0.4h12.2c1 0 2.1 0 3.2-0.1s2.1-0.3 3-0.6c0.5-0.2 1-0.5 1.6-0.9 0.5-0.4 1-0.8 1.4-1.4 0.4-0.5 0.8-1.2 1-1.9 0.2-0.7 0.4-1.5 0.4-2.4 0-1-0.2-1.9-0.6-2.6-0.1-0.9-0.6-1.6-1.3-2.2z m-3 8.1c-0.6 0.9-1.3 1.6-2.4 2.2-0.8 0.4-1.6 0.7-2.4 0.8-0.8 0.1-1.6 0.1-2.3 0.1-0.8 0-1.5-0.1-1.9-0.3-0.4-0.2-0.8-0.4-1-0.7-0.3-0.4-0.5-0.9-0.5-1.5v-0.6c0-0.5-0.1-1.1-0.1-1.8V575.4v-9.1-4.7-1.1l0.1-1.7c0-0.2 0-0.3 0.1-0.5l0.1-0.4c0.2-0.1 0.5-0.1 0.9-0.2 0.4 0 0.9-0.1 1.4-0.1 1.7 0 3.1 0.2 4.2 0.7 0.9 0.4 1.7 1.1 2.3 2.1s0.9 2 0.9 3.3c0 1.7-0.6 3.1-1.7 4.2s-2.8 1.7-4.9 1.9h-1.3 1.5c0.7 0 1.3 0 1.8 0.1s1 0.2 1.6 0.4c0.7 0.2 1.3 0.5 1.8 0.9s1 0.8 1.4 1.4 0.7 1.1 0.9 1.7c0.2 0.6 0.3 1.3 0.3 2 0.1 1.3-0.2 2.4-0.8 3.3zM720.02581 582.2c-0.3-0.2-0.5-0.4-0.7-0.6l-0.2-0.3s0-0.1-0.1-0.1c-0.1-0.3-0.2-0.6-0.3-1.1s-0.1-0.9-0.1-1.4v-2.1-9.3-3.4c0-0.9 0.1-1.7 0.1-2.6 0-0.9 0.1-1.5 0.3-1.9 0.2-0.5 0.5-1 1-1.4 0.5-0.4 1.2-0.6 2.2-0.6v-0.4h-7.5l-0.6 1.6-1 2.4-1.8 4.2c-0.6 1.5-1.3 3.1-2 4.8l-3 6.9-8.4-20h-7.5v0.4c0.3 0 0.6 0.1 1 0.2s0.8 0.3 1.1 0.5c0.3 0.2 0.7 0.6 0.9 1 0.3 0.4 0.4 1 0.4 1.7V572.9c0 0.9 0 1.8-0.1 2.5 0 1.2-0.1 2.3-0.2 3.2-0.1 0.9-0.4 1.6-0.7 2.2-0.3 0.6-0.7 1-1.2 1.4-0.5 0.3-1.2 0.6-2 0.8v0.4h9.2v-0.4c-1-0.1-1.8-0.4-2.4-0.7-0.6-0.3-1-0.8-1.3-1.4-0.3-0.6-0.5-1.3-0.5-2.1-0.1-0.8-0.1-1.8-0.1-3v-4.7-8.6-3.2l1.1 2.6 1.7 3.8 2.7 6.4c0.5 1.2 1.1 2.5 1.6 3.8l2.8 6.7h0.2l0.1-0.3 0.5-1.3 0.6-1.6 0.3-0.8c0.2-0.5 0.4-0.9 0.5-1.2l2.1-5 1.3-3 0.6-1.5c0.4-1 0.8-1.9 1.3-2.9l2.8-6.5v14.9c0 1.5 0 3-0.1 4.6 0 0.5-0.1 1-0.1 1.4-0.1 0.5-0.2 0.9-0.3 1.2-0.2 0.5-0.7 1-1.4 1.4-0.7 0.4-1.5 0.6-2.5 0.7v0.4h12.1v-0.1c-0.6 0-1.1-0.1-1.5-0.3-0.2-0.1-0.6-0.3-0.9-0.5z"></path><path d="M870.12581 507c0.6-3.5-13.4 6.4-16.1 6.7v-20.1c6.7-1.2 24.8 4.3 9-7.5-2-2.9-5.4 4.3-7.2 5.7H854.02581v-11.2c0.7-0.9 1.6-0.6 1.7-2.4 10.2 0 15 1.6 2.6-7.8-0.8-1-4.3 3.8-6.2 5.8-3.7 0-14.5 0.1-17.9-0.5 2.5-2.6 6.7-8.1 10-13.1 0.6-0.7 25.5 1.3 25.4-0.7-5.8-6-6.8-11.4-14.2-1.3h-10.2c2.2-3.7 4.4-7.6 6.3-11 12.7-3.5-12.3-9.8-10.8-6.1-3 21.7-19.2 45.8-7.2 32.7l2.2 2.2c2-0.2 6-0.4 8.1-0.3v13.5c-3.5 0.1-10.6-0.1-14.2-0.6l2.9 2.7c2.6-0.3 8.7-0.3 11.4-0.3 0 13.2 0.6 18.3-1.5 27.9 2.3 3.5 5 12.5 6.3 10.8 6.2-7.7 14-17 21.4-25.1zM612.12581 465.6c-6.5-7-6.2-2.3-11.1 3h-1.3v-19c9.9-4.8-11.2-8.4-11.8-5 0.6 8.1 0.4 17.9 0.5 24-4.4 0.1-15.2 0.1-19.4-0.6l2.9 2.9c2.8-0.4 13.6-0.3 16.5-0.3-0.4 69.3 3.9 46.6-15 52.6 4.5 2.1 8.8 1.6 10.6 7.1-0.3 5.9 7 4 11.9 1.9 7.5 0 2.3-58 3.7-61.8 3.9-1.2 22.3 3.9 12.5-4.8z"></path><path d="M576.12581 504.8c18.5-3 0.5-23.3-9.8-21.6 8.6 7.3-0.1 22.6 9.8 21.6zM573.52581 577.8c-0.3 0.7-0.7 1.3-1.1 1.9-0.4 0.6-1 1.1-1.6 1.5-0.6 0.4-1.4 0.8-2.3 1.1-0.4 0.1-0.8 0.2-1.4 0.3-0.5 0.1-1 0.1-1.5 0.2H563.42581c-0.5 0-0.9 0-1.4-0.1-0.5-0.1-0.9-0.1-1.3-0.2s-0.7-0.2-1-0.3c-0.3-0.1-0.5-0.2-0.6-0.4-0.2-0.3-0.3-0.9-0.4-1.6l-0.1-1.5v-3V562.8c0-0.7 0-1.5 0.1-2.3 0-0.7 0.2-1.2 0.4-1.6 0.3-0.4 0.6-0.7 1-0.9s0.8-0.4 1.2-0.5l0.6-0.1c0.2 0 0.3-0.1 0.5-0.1v-0.3h-11.1v0.4c0.6 0.1 1.2 0.2 1.7 0.4s1 0.5 1.3 1c0.1 0.2 0.2 0.4 0.3 0.7 0.1 0.3 0.1 0.6 0.2 1 0 0.4 0.1 0.8 0.1 1.2v16c0 0.4 0 0.8-0.1 1.2 0 0.4-0.1 0.8-0.1 1.2s-0.1 0.7-0.2 1c-0.1 0.3-0.2 0.5-0.3 0.6-0.3 0.4-0.8 0.7-1.3 0.9-0.6 0.2-1.1 0.4-1.7 0.5v0.4h22.3l1.3-7.6-0.3-0.1c-0.4 0.7-0.7 1.4-1 2zM613.22581 557.7c-0.2 0.2-0.3 0.4-0.5 0.6l-0.4 0.4c-0.1 0.1-0.2 0.2-0.3 0.2 0 0-0.2-0.1-0.5-0.3l-0.1-0.1c-0.4-0.3-0.9-0.6-1.6-0.9s-1.6-0.6-2.6-0.9-2.3-0.4-3.6-0.4c-1.5 0-2.9 0.2-4.1 0.5-1.2 0.3-2.3 0.8-3.3 1.4-1 0.6-1.8 1.2-2.5 2s-1.3 1.6-1.8 2.4c-0.4 0.7-0.8 1.4-1 2.1-0.3 0.7-0.5 1.4-0.6 2-0.1 0.6-0.3 1.2-0.3 1.8-0.1 0.6-0.1 1.1-0.1 1.5 0 2 0.3 3.8 1 5.5 0.6 1.7 1.6 3.1 2.8 4.3s2.7 2.1 4.4 2.8c1.7 0.6 3.7 1 5.8 1 1.3 0 2.4-0.1 3.4-0.3s1.8-0.5 2.5-0.8c0.6-0.3 1.1-0.5 1.4-0.7l0.5-0.3c0.2-0.1 0.2-0.2 0.3-0.2s0.3 0.2 0.6 0.5 0.6 0.7 0.9 1.1h0.4l0.1-8.1h-0.4c-0.2 1.1-0.6 2.1-1.2 3.1s-1.3 1.9-2.1 2.6c-0.8 0.8-1.8 1.4-2.8 1.8-1 0.4-2.2 0.7-3.4 0.7-1.5 0-2.9-0.3-4.2-1-1.3-0.7-2.3-1.6-3.2-2.7-0.9-1.1-1.6-2.5-2-4-0.5-1.5-0.7-3.2-0.7-5 0-1.7 0.2-3.3 0.7-4.9s1.1-3 1.9-4.2c0.8-1.2 1.9-2.3 3.1-3 1.3-0.8 2.7-1.1 4.3-1.1 1.2 0 2.3 0.2 3.3 0.7 1 0.4 2 1 2.8 1.8s1.5 1.7 2.1 2.7 1.1 2.1 1.4 3.3h0.4v-8.2h-0.4c-0.1-0.1-0.2 0.1-0.4 0.3zM655.42581 523.8c3.4 4.2 11.6 0.8 9.5-5.5h13c-2 7.6 7.4 7.1 9.8 2.5-0.6-3.3-0.5-12-0.5-15.4 4.1-2.7 2.7-4.5-4.5-7.6-3.5-1.7-2.7-0.8-5.9 3.2-15.6 1.5-16.4-4.4-21.3-3.3 0.8 7.5 0.7 18.6-0.1 26.1z m8.6-22.5h13.6v13.6H664.02581v-13.6zM658.42581 478.6c-14.5 26.7-18.6 24.2 7.4 7.2 9.6-0.4-1.9-5.9-5.3-7.7h-1.9c0 0.2-0.1 0.3-0.2 0.5zM676.12581 483.2c4.5 1.8 7.9 7.9 10.2 11.8 8.4 7.8 12.4-8.8 5.9-10.1-1.6-1.7-26.4-7.7-16.1-1.7zM659.02581 477.7l-0.4 0.4h1.9s-0.1 0-0.1-0.1c-0.7-0.2-1.2-0.4-1.4-0.3z"></path><path d="M692.82581 531.4c-1.6 7.2 12.5 3.8 14.7-0.4 1.7-1.6 0.2-47.5 0.7-49.5 6.3-4.1 1-5-3.7-8.2-4.1-2.7-5.6-2.6-8.7 3h-14.9c3.3-3 6.7-6 10.1-9 8.5-0.5 0.4-4.7-3.1-6.7 0.5-0.2 27.7 0.4 28.1-0.2 0.7-2.8-5.7-6.8-9.5-9.6-1.2-1.8-6 6.8-7.1 7.9H674.02581c10.8-7.6-4.5-19.3-13.4-15.7 6.6 3.6 1.2 11.2 7.2 15.7-4.6-0.1-38.9 0.4-42.2-0.7l2.5 2.9c3.5-0.4 17.8-0.3 21.4-0.3 7.6 6.1 2 11.1 8.3 15.6-13.7 1.5-17.2-4.7-22.7-3.7 1.6 14.6-0.3 46.1 0.5 60.3 14.2 4.7 10.7-8.4 10.7-13.2v-41.4h12.5c0.3-0.4 0.7-0.7 1.9 0.1h36.6v40.1c-0.2 3.1 0.6 0.4-0.5 4.8-0.2 4.2-13.1-0.5-12.5 2.6 3.3 1.3 8.4 2.6 8.5 5.6z m-14.6-58c-0.1 0.4-0.6 1.4-1.1 2.8h-16c11.2-6.4 0.7-14.9-9.1-16.5h30c-2.3 8.5-3 12-3.8 13.7zM632.92581 557c-0.3 0-0.5 0-0.8 0.1h1c-0.1-0.1-0.1-0.1-0.2-0.1z"></path><path d="M645.32581 565.1c-0.6-1.6-1.4-3-2.5-4.2-1.1-1.2-2.4-2.2-4-2.9-1.6-0.7-3.4-1.1-5.4-1.1h-0.3c1.4 0 2.7 0.4 3.8 1.1 1.1 0.8 2 1.8 2.8 3 0.8 1.2 1.3 2.6 1.7 4.1s0.6 3 0.6 4.5-0.2 3.1-0.6 4.6c-0.4 1.5-0.9 2.9-1.7 4.2-0.7 1.2-1.7 2.2-2.8 3s-2.4 1.2-3.9 1.2-2.8-0.4-3.9-1.1c-1.1-0.7-2.1-1.6-2.8-2.8s-1.3-2.5-1.7-4.1c-0.4-1.5-0.6-3.1-0.6-4.8 0-1.6 0.2-3.2 0.5-4.7s0.9-2.9 1.6-4.2c0.7-1.2 1.6-2.2 2.8-3 0.8-0.6 1.7-0.9 2.8-1.1-1.2 0.1-2.4 0.4-3.6 0.8-1.7 0.6-3.1 1.5-4.3 2.6s-2.2 2.5-2.9 4.2c-0.7 1.6-1.1 3.5-1.1 5.6 0 1.9 0.3 3.7 1 5.3 0.7 1.6 1.6 3 2.8 4.2 1.2 1.2 2.6 2.1 4.2 2.7 1.6 0.6 3.3 1 5.1 1s3.5-0.3 5.1-1c1.6-0.6 3-1.6 4.2-2.8 1.2-1.2 2.2-2.6 2.9-4.2 0.7-1.6 1.1-3.4 1.1-5.3 0-1.5-0.3-3.2-0.9-4.8zM682.22581 582.2c-0.3-0.2-0.5-0.4-0.7-0.6l-0.2-0.3s0-0.1-0.1-0.1c-0.1-0.3-0.2-0.6-0.3-1.1 0-0.3-0.1-0.6-0.1-0.9v-0.5-11.4-3.4c0-0.9 0.1-1.7 0.1-2.6 0-0.9 0.1-1.5 0.3-1.9 0.2-0.5 0.5-1 1-1.4 0.5-0.4 1.2-0.6 2.2-0.6v-0.4H677.02581l-0.4 1-0.8 2.1c-0.3 0.6-0.5 1.3-0.8 2l-2.3 5.5c-0.3 0.8-0.7 1.6-1.1 2.5l-3 6.9-8.4-20h-7.5v0.4c0.3 0 0.6 0.1 1 0.2s0.8 0.3 1.1 0.5c0.4 0.2 0.7 0.6 0.9 1 0.2 0.4 0.4 1 0.4 1.7v11c0 1.4-0.1 2.7-0.1 3.7 0 1.2-0.1 2.3-0.2 3.2-0.1 0.9-0.4 1.6-0.7 2.2-0.3 0.6-0.7 1-1.2 1.4-0.5 0.4-1.2 0.6-2 0.8v0.4h9.2v-0.5c-1-0.1-1.8-0.4-2.4-0.7-0.6-0.3-1-0.8-1.3-1.4-0.3-0.6-0.5-1.3-0.5-2.1s-0.1-1.8-0.1-3v-4.7-2.9l0.1-5.7v-3.2l1.1 2.6 1.4 3.3c0.3 0.7 0.6 1.5 1 2.3l2 4.6c0.5 1.2 1.1 2.5 1.6 3.8l2.8 6.7h0.2l0.1-0.2c0-0.1 0.1-0.3 0.2-0.6l0.4-0.9 0.6-1.6 0.3-0.8c0.2-0.5 0.4-0.9 0.5-1.2l2.1-5c0.4-1 0.9-2 1.3-3l0.6-1.5c0.4-1 0.8-1.9 1.3-2.9l2.8-6.5v14.9c0 1.5 0 3-0.1 4.6 0 0.5-0.1 1-0.1 1.4-0.1 0.5-0.2 0.9-0.3 1.2-0.2 0.5-0.7 1-1.4 1.4s-1.5 0.6-2.5 0.7v0.4h12.1c-0.6 0-1.1-0.1-1.5-0.3-0.6-0.1-0.9-0.3-1.2-0.5z"></path><path d="M89.22581 519.2s-34.1-3.7-42.8-34.7c-9.2-24.6 12.9-72.2 53-62 24.5 6.2 32 20.9 36 29.2 1.6 3.3 0.9 3 1.6 3.3 31.3 11.3 40.2 24 44.7 52.8 1.3 8.3-3.2 23.6-8.6 32.4-5.6 9.1-12.1 15.5-17.3 19.3-2.4 1.8-5.6 3.2-8.4 4.2-1.8 0.7-3.7 1.1-5.2 1.3-6.1 0.6-5.6 0.5-4.3-0.6 7.1-6.7 11.8-19.5 14.4-32.7 2.8-13.9-3.2-31.5-9.3-39.4-11.5-15.3-37.7-29.9-57.2-13.5-19.4 16.4 3.4 40.4 3.4 40.4z m4.3-12.7s34.4 3.6 43.1 34.4c9.3 24.4-13 71.6-53.4 61.5-24.7-6.2-32.3-20.8-36.3-28.9-1.6-3.3-0.9-3-1.6-3.3C13.72581 559 4.82581 546.5 0.22581 517.9c-1.3-8.2 3.2-23.4 8.7-32.1 5.7-9 12.2-15.3 17.4-19.1 2.4-1.7 5.7-3.2 8.4-4.2 1.9-0.7 3.7-1.1 5.2-1.3 6.1-0.6 5.6-0.5 4.4 0.6-7.2 6.6-11.9 19.3-14.6 32.4-2.8 13.8 3.3 31.2 9.4 39 11.8 15 38.2 29.5 57.8 13.3s-3.4-40-3.4-40z" fill="#E3001E"></path><path d="M89.82581 519s-24.1-12.1-17.9-41.2c6.2-29 37.4-27.3 37.4-27.3s11.5 0.3 19.2 8c5 5.1 9.6 13.7 11.4 17.8 0 0 2.4 0.8 5.1 1.2 4.5 0.7 10.2 3.2 13.6 7 6.8 7.6 10.8 16.1 10.8 16.1s2.8 7.1 3.3 15.1c0.4 6.3-1.2 13.2-3.3 18-2.7 6.2-8.9 13.3-13.7 16.5-6.7 4.5-11.8 6.8-11.6 6.4 2.5-4.1 8.8-18.3 9.6-31.3 0.7-11.5-4.2-22.3-4.2-22.3s-11.5-30.8-48.4-30.7c-19.6 4.8-25.1 16.6-21.4 29.8 2.8 9.6 10.1 16.9 10.1 16.9z m3.4-13.2s24.1 12.1 17.9 41.2c-6.2 29-37.4 27.3-37.4 27.3s-11.5-0.3-19.2-8c-5-5.1-9.6-13.7-11.4-17.8 0 0-2.4-0.8-5.1-1.2-4.5-0.7-10.2-3.2-13.6-7-6.8-7.6-10.8-16.1-10.8-16.1s-2.8-7.1-3.3-15.1c-0.4-6.3 1.2-13.2 3.3-18 2.7-6.2 8.9-13.3 13.7-16.5 6.7-4.5 11.8-6.8 11.6-6.4-2.5 4.1-8.8 18.3-9.6 31.3-0.7 11.5 4.2 22.3 4.2 22.3s11.5 30.8 48.4 30.7c19.5-4.9 25.1-16.6 21.3-29.8-2.7-9.6-10-16.9-10-16.9z" fill="#AB1A21"></path></svg>