<svg viewBox="0 0 1024 1024" version="1.1" xmlns="http://www.w3.org/2000/svg"><path d="M225.120623 0h573.758754c123.119066 0 223.128405 100.009339 223.128405 223.128405v573.758755c0 123.119066-100.009339 223.128405-223.128405 223.128404H225.120623c-123.119066 0-223.128405-100.009339-223.128405-223.128404V223.128405C1.992218 100.009339 102.001556 0 225.120623 0z" fill="#FFFFFF"></path><path d="M512.398444 258.988327c54.58677 0 100.009339 40.641245 107.181323 93.634241h-58.571207l-47.414786-47.414786-62.555642 62.555642 60.164981 59.766537 47.414786-47.016342H619.579767c-7.171984 52.992996-52.594553 93.634241-107.181323 93.634241-59.368093 0-107.97821-48.211673-107.978211-107.579767s48.610117-107.579767 107.978211-107.579766" fill="#AC292F"></path><path d="M334.294163 352.224125c-32.672374 31.875486-20.719066 62.555642 3.187549 82.079377l141.049027 141.447471c5.976654 5.976654 44.625681 44.625681 1.593775 97.220233L370.950973 800.871595H217.151751l64.149416-66.141634c21.914397-22.711284 39.445914-45.422568 10.757977-79.290272l-95.626459-117.540856c-28.687938-28.687938-28.687938-51.000778-10.359533-73.712063L400.435798 219.143969l30.281712 23.508171-96.423347 109.571985z m355.411674 0l-96.82179-109.571985L623.564202 219.143969l214.76109 244.644358c18.328405 22.711284 18.328405 45.024125-10.359533 73.712062l-96.024903 117.540856c-28.687938 33.867704-11.15642 56.578988 10.757977 79.290273L806.848249 800.871595h-153.400778l-109.173541-127.900389c-43.031907-52.992996-4.382879-91.24358 1.593774-97.220233l140.650584-141.447471c23.906615-19.523735 35.859922-50.203891 3.187549-82.079377z" fill="#008A76"></path></svg>