<svg viewBox="0 0 1024 1024" version="1.1" xmlns="http://www.w3.org/2000/svg"><path d="M278.967401 562.013159c-1.989058 1.472562-4.722388 1.978068-8.200991 1.472562-5.710423-1.472562-7.699481-4.944172-5.963177-10.391852 1.493541-4.707403 2.24281-9.157058 2.24281-13.368944v-0.74727c-0.749268-2.471586-2.609452-4.196901-5.596535-5.194927-1.478556-0.495516-2.113936-1.236792-1.860183-2.220831 0.490521-0.504507 1.368663-0.741276 2.609452-0.741277 4.465639 0.984039 7.704476-0.489522 9.694532-4.449654 5.704429-8.91929 11.04921-19.800663 16.004371-32.681085 0.5115-0.984039 1.131895-1.364667 1.876168-1.106919 0.734283 0.489522 0.863157 1.235793 0.366642 2.214837 0 0.509502-0.252753 1.1269-0.744273 1.868176-0.257748 0.984039-0.495516 1.726314-0.749269 2.220831 1.990057 0.251754 5.214907 0.379629 9.694533 0.379629h0.367641v-11.880398c0-2.491567-0.124878-4.835278-0.367641-7.0651v-2.219833c-0.505506-1.235793-0.505506-2.105943 0-2.60046 0.242763-0.251754 1.240788-0.375633 2.972097-0.375633h1.498537c4.717393 0.489522 8.186006 0.994029 10.422822 1.488546 1.990057 0.979044 2.24281 2.234818 0.749268 3.70738-0.749268 0.252753-1.239789 1.359672-1.493542 3.342735v15.603762h7.457717v-13.008296c0-3.960133-0.258747-6.921241-0.749268-8.904305-0.253752-1.488546-0.129873-2.357698 0.381627-2.595465 0.237768-0.494517 1.240788-0.618396 2.972098-0.380628 3.720367 0.251754 7.694486 0.746271 11.921358 1.488546 1.002021 0.251754 1.622416 0.746271 1.861182 1.487547 0.252753 0.746271-0.124878 1.493541-1.111914 2.219832-0.749268 0.251754-1.239789 1.364667-1.493541 3.342736v12.261026c2.237815-2.72434 3.736351-4.089007 4.465639-4.089007 4.479625 1.725315 8.45874 4.583524 11.921358 8.538662 0.506505 1.725315 0 2.72434-1.478556 2.977093-2.494564-0.252753-7.456718-0.376632-14.908441-0.376633v25.249343c2.480578-3.960133 4.355746-6.066076 5.596535-6.31783 4.465639 1.7403 8.439758 4.592515 11.917361 8.552647 0.749268 1.978068 0.237768 2.962107-1.493541 2.962108H290.889758c-2.733331 0-4.594513 0.12288-5.596535 0.365643-0.749268 0.504507-1.363668 0.375633-1.860183-0.365643-0.252753-0.252753-0.619395-0.618396-1.111914-1.112913-0.252753-0.741276-0.495516-1.230798-0.749269-1.483552-0.252753-0.494517-0.381627-0.875145-0.381627-1.111914h0.749268c3.736351 0.494517 7.19897 0.746271 10.443801 0.746271h6.325823v-27.483161h-2.24281c-1.731309 0-3.592492 0.250755-5.576554 0.740278-0.496515 0-1.11591-0.251754-1.860183-0.741277 0-0.241764-0.129873-0.489522-0.382627-0.746271-0.237768-0.489522-0.490521-0.74727-0.749268-0.74727-4.465639 12.627668-7.327844 23.401147-8.567633 32.305452-0.49152 3.465616 0.128874 9.403817 1.860183 17.818599 0.257748 1.488546 0.5115 2.491567 0.749268 2.976093 0.749268 2.967102-0.237768 5.690443-2.972097 8.178014z m26.317299-26.269346c5.210911 2.241811 9.161054 4.623485 11.86841 7.120047 1.486548 1.743298 1.1259 2.992078-1.106919 3.746341-1.728312 0-2.963106 0.383625-3.703383 1.132894-7.912273 7.745436-18.180246 13.872453-30.793928 18.372058-1.234794 0.253752-1.975071 0.253752-2.212839 0-0.256749-0.499512 0.123879-1.24878 1.106919-2.257795 10.144094-8.993218 17.310096-17.872546 21.522981-26.625998 0.726291-1.742299 1.847196-2.237815 3.318759-1.488546z m28.472196 24.828753c-3.493588-7.687493-8.356839-14.625717-14.573768-20.835653-0.751266-0.743274-1.134892-1.362669-1.134892-1.858185 0.253752-0.505506 0.876144-0.619395 1.882162-0.381628 12.692605 3.226849 21.179317 7.5776 25.40519 13.039267 4.494611 6.685471 3.856234 11.780496-1.867176 15.259098-4.240859 1.477557-7.4757-0.252753-9.710517-5.222899z m-61.533909-71.010654c-0.990033-4.69042-2.46759-8.508691-4.43367-11.479789-0.735282-0.981042-0.357651-1.596441 1.118907-1.848195 8.092098 0.744273 13.747575 3.459621 16.940457 8.145046 1.712328 5.183938 0 8.874334-5.154966 11.101159-4.919196 1.483551-7.749432-0.487524-8.470728-5.917222z m-7.292878 23.547005c-0.749268-4.462642-2.733331-8.564636-5.961178-12.298989-0.49152-0.49152-0.749268-0.982041-0.749269-1.473561 0.257748-0.510501 0.749268-0.749268 1.498537-0.749268 9.183032 0.238767 15.139216 2.480578 17.876542 6.70645 2.236816 5.70343 0.744273 9.675551-4.467637 11.918361-4.463641 1.23879-7.195973-0.124878-8.197994-4.101994z m47.858264 17.036363h7.232936v-27.613034h-7.232936v27.613034z m103.194224 23.852706v4.801312c0.258747 1.972074-0.876144 3.203871-3.364714 3.711375-1.737303 0.725292-3.986107 1.104921-6.729428 1.104921-2.981089 0.492519-4.240859-0.868152-3.728359-4.077018 0-1.72032 0.124878-4.815298 0.363644-9.252964v-16.661729a90.551571 90.551571 0 0 0-6.729428 3.332745h-0.751266c-0.985038 0.502509-1.608429 0.502509-1.861183 0-0.497514-0.493518-0.129873-1.360671 1.128898-2.593467a58.606767 58.606767 0 0 0 8.212979-7.388784c-0.238767-0.996027-0.492519-2.593467-0.746271-4.821292-0.239766-1.483551-0.36864-2.587473-0.36864-3.326751-0.253752-2.465592 0.876144-3.46162 3.364714-2.973097 1.498537 0.250755 3.603481 0.996027 6.345803 2.227824 2.249803-2.464593 4.370732-5.18094 6.365784-8.153038h-16.076301c-2.249803 0-3.986107 0.384624-5.230892 1.123903-0.5125 0.236769-1.134892 0.12288-1.866177-0.379629 0 0-0.124878-0.108894-0.383625-0.359649-0.985038-1.001022-1.608429-1.848195-1.866178-2.593468-0.253752-0.25575-0.37863-0.487524-0.37863-0.739278 0-0.256749 0.253752-0.364644 0.746271-0.364643 4.992125 0.487524 8.725479 0.724293 11.209054 0.724292h6.729428v-14.4379h-5.225897c-1.996051 0-3.986107 0.25575-5.983157 0.744273-0.492519 0.25575-0.990033 0.127875-1.498536-0.359649-0.238767-0.256749-0.362646-0.384624-0.362646-0.384624-0.497514-0.488523-0.990033-1.2288-1.503532-2.208843-0.238767-0.502509-0.238767-0.739278 0-0.739278 0-0.256749 0.259746-0.379629 0.752265-0.37963a70.760898 70.760898 0 0 0 10.093144 0.739279h3.728359c0-5.18094-0.363645-9.617608-1.114911-13.314998-0.492519-2.227824 0.622392-3.094978 3.364714-2.602458 1.996051 0 5.360765 0.502509 10.094142 1.483551 0.990033 0.251754 1.612425 0.374634 1.866178 0.374634 2.487571 0.744273 2.747317 2.213838 0.751266 4.441663-1.005019 0.744273-1.498537 1.848195-1.498536 3.332745v6.284863h0.74727c1.996051-2.953116 3.493588-4.565541 4.48462-4.801312 0.253752 0 0.876144 0.108894 1.866178 0.364644-0.497514-0.25575-0.243762-0.127875 0.746271 0.359649 0.253752-0.724293 0.752265-1.72032 1.498537-2.952117-0.253752 0.250755-0.124878-0.251754 0.36864-1.48455 0.751266-2.207844 1.995052-2.824242 3.74734-1.848195a39.297623 39.297623 0 0 1 8.595606 4.076019v-2.227824c-0.258747-1.483551-0.129873-2.464593 0.363645-2.952117 0.5125-0.744273 1.373659-0.868152 2.617444-0.37963 2.997073 0.996027 7.113054 2.479579 12.343945 4.450654 0.492519 0.493518 0.876144 0.729288 1.114911 0.729288h3.00107c1.483551-2.952117 2.982088-4.563543 4.479625-4.800312 0.991032 0 5.360765 2.336718 13.075231 7.029135 1.006018 0.739278 1.503532 1.612425 1.503532 2.587473-0.259746 0.996027-1.010014 1.612425-2.254798 1.849195-1.478556 0.251754-2.483575 0.996027-2.981089 2.227824-5.484644 8.641561-9.964269 14.922427-13.453861 18.875567 11.701573 7.153015 17.679735 15.428933 17.938482 24.809771-0.259746 8.390806-5.231891 13.822501-14.942408 16.288094-2.249803 0.23577-3.493588-0.745272-3.747341-2.973096 0.253752-3.203871-1.373659-5.417709-4.848265-6.664492v15.922451c0.239766 3.711376-1.134892 5.920219-4.115981 6.664491-1.752289 0.996027-3.74834 1.612425-5.982158 1.848195-4.240859 1.232796-5.848289-1.231797-4.86325-7.393779 0.751266-12.097186 1.244784-27.275364 1.503531-45.534533v-4.071024c-3.002068-0.256749-7.849335-0.384624-14.578763-0.384625h-0.383625a90.8293 90.8293 0 0 1-10.829424 11.12114h5.598532c1.996051-3.456624 3.74834-5.30482 5.230892-5.56057 2.743321 0 6.236909 1.725315 10.477768 5.180941 1.996051 1.483551 2.104944 3.080991 0.367641 4.820292-0.751266 0.739278-1.118907 1.592445-1.118907 2.588473 0 11.357908 0.113889 20.107364 0.367641 26.279336 0.497514 1.977069-0.617397 3.46062-3.364715 4.441663a84.993998 84.993998 0 0 1-6.345803 1.848195c-2.997073 0.502509-4.369733-0.364644-4.110985-2.592469v-4.057038H415.981598z m46.254829-42.088897l5.112008-26.47015h-4.737374c-0.247758 0.49152-0.607407 0.744273-1.103922 0.744273-0.968055 0.749268-1.448585 1.991056-1.448585 3.724363v49.9712c6.808351 0.744273 10.09614-1.733307 9.848383-7.462713-0.486525-7.696484-3.040031-14.538802-7.67051-20.506973z m-46.227855 39.274646h11.833444V538.034576h-11.833444v13.149159z m11.833444-27.613035h-10.346896s-0.127875 0.108894-0.379629 0.359649c0 0.25575-0.363645 0.615399-1.106919 1.108917v10.365877h11.833444v-11.834443z m13.921404-23.790766c1.222806 0 2.934135 0.849171 5.144976 2.575485v-8.11008c-0.253752-2.452605-0.381627-4.292808-0.381627-5.51961-0.733284 0.490521-1.578459 1.338693-2.567493 2.58048 0.739278-0.991032 0.611403-0.740277-0.361647 0.721295-2.690373 5.40672-5.747387 10.450794-9.181034 15.107247h1.834209c2.445612-4.655454 4.294806-7.119048 5.512616-7.354817z m-17.805611 1.437596a94.852371 94.852371 0 0 1 5.138981-8.546654h-5.138981v8.546654z m131.079992 47.843278v-13.706615c-5.455672 4.441662-13.877448 9.630595-25.285307 15.557807-0.732285 0.256749-1.366665 0.256749-1.856188 0-0.237768-0.739278-0.129873-1.357674 0.380629-1.851192 18.082341-14.325011 29.365323-31.137592 33.820971-50.417764h-13.37294c0.986037 4.456648 0.489522 8.287906-1.489546 11.500769-2.986084 4.205893-6.570583 4.931184-10.789463 2.226825-3.712375-3.228847-3.966127-6.308839-0.74727-9.270946 3.728359-2.225826 6.570583-6.179965 8.551649-11.856422 0.251754-0.745272 0.509502-1.1259 0.746271-1.1259 0.505506 0 1.001022 0.379629 1.490544 1.1259 0.748269 1.466568 1.366665 3.084987 1.857187 4.808305h14.495843c1.23879-9.142072 1.872172-15.435926 1.872172-18.901542 0-1.485549 0.733284-2.230821 2.222829-2.230821 1.23879 0.251754 3.346732 0.745272 6.327821 1.485549 5.446681 0.997026 8.917292 1.723317 10.406837 2.23182 1.49554 0.488523 2.223828 1.233795 2.223828 2.215837 0 1.233795-0.619395 2.102946-1.857186 2.591469-1.475559 0.503508-2.604457 1.485549-3.346732 2.972097-0.742275 3.464617-1.604433 6.678478-2.599461 9.635591h20.443036c2.24281-3.702384 3.966127-5.682451 5.203918-5.934205 3.966127 1.234794 8.060129 3.826263 12.27801 7.784398 1.23879 1.486548 1.491543 2.720343 0.749268 3.71737-0.253752 0.740277-1.367664 1.10592-3.347731 1.10592-3.966127 0.488523-8.55065 2.714349-13.754568 6.673482 5.441686 2.720343 8.917292 4.571536 10.407836 5.568562 1.237791 0.725292 1.728312 1.594443 1.489546 2.59147-0.251754 1.233795-1.128898 1.851192-2.603458 1.851192-1.252777 0-3.109963 0.616398-5.58055 1.850193-3.475606 2.23182-7.564613 4.442661-12.264023 6.673483 7.6795 9.888343 16.720671 16.305077 27.142493 19.281171 1.475559 0.489522 2.222829 1.10592 2.22283 1.846197 0 1.234794-0.619395 2.107941-1.856188 2.597463-3.966127 1.722318-7.808375 4.570537-11.536733 8.524675-0.980043 1.974072-2.470587 2.339715-4.455649 1.104921-15.863508-10.119118-25.032554-28.781893-27.508137-55.97134-1.743298 4.699411-3.723364 9.033179-5.947192 12.987317 0.743274 0 1.23879 0.236769 1.490544 0.725292 1.728312 1.24878 1.857186 2.3547 0.366642 3.336741-1.490544 0.509502-2.237815 1.485549-2.237814 2.977093v23.343204l13.386927-3.702385c1.98606-0.489522 3.094978-0.489522 3.34773 0 0.252753 0.745272-0.361647 1.722318-1.857186 2.972098-10.65959 6.910252-18.101323 12.843458-22.304219 17.794622-1.252777 2.216835-2.485573 2.46759-3.723363 0.725292-2.733331-3.69639-4.589518-6.910252-5.569561-9.630595-1.001022-1.485549-0.748269-2.46759 0.74727-2.957112 1.470564-0.996027 2.217834-2.610451 2.217834-4.827286z m42.028956-40.695259l3.029042-9.777451h-22.638892c-0.241764 0.755262-0.371637 1.24978-0.371637 1.50453 3.263813 10.273967 7.161007 18.525908 11.700574 24.792789 1.491543-3.01006 2.747317-6.006135 3.762326-9.02219 0.75826-2.245807 1.254775-4.245854 1.511524-6.012128 0.24576-1.745296 1.254775-2.240812 3.007063-1.48555z m106.914591-24.25831c-0.49152-3.726361-1.748293-6.569584-3.740347-8.556644-0.492519-0.505506-0.730287-0.996027-0.730287-1.491543 0.237768-0.252753 0.729288-0.376632 1.479555-0.376632 8.7045-0.495516 13.9264 1.362669 15.674693 5.584546 1.241787 2.982088 0.620394 5.697436-1.873171 8.193998h20.150322c3.725362-5.955184 6.223922-9.067145 7.465709-9.304913 3.482599 0.986037 7.576601 4.093003 12.300988 9.304913 1.00402 1.982064 0.621393 3.09198-1.112913 3.349729-6.970193-0.510501-15.172183-0.749268-24.620957-0.749269h-4.858255a88.421651 88.421651 0 0 0 6.721436 2.968102c1.98706 1.749292 1.858185 3.111961-0.367641 4.097998-1.49554 0.252753-2.737327 0.872148-3.741346 1.858185-2.483575 2.729335-5.459668 5.330794-8.947263 7.808375h11.570701c1.992055-3.716371 3.596488-5.698435 4.838275-5.956184 3.487594 0.510501 7.467707 2.368687 11.938341 5.594537 1.992055 1.723317 2.245807 3.34873 0.749269 4.835278-1.240788 0.748269-1.862181 1.98706-1.862182 3.716371v22.700831c0.253752 6.936226 0.367641 11.777499 0.367641 14.511828 0.745272 5.459668-0.620394 8.918291-4.088008 10.41483-2.742322 1.23879-6.224921 2.60046-10.457787 4.092004-2.742322 0.748269-4.475629-0.123879-5.226896-2.600461-1.236792-4.46464-4.216882-7.080086-8.946263-7.81337-1.237791-0.252753-1.873171-0.743274-1.873171-1.491543 0-0.490521 0.874146-0.748269 2.622439-0.748269 9.950283 0.495516 14.421916-1.615422 13.423891-6.316832v-22.697834c-0.243762 1.23879-0.994029 2.111938-2.230822 2.602459-1.00302 0.74727-1.878166 1.108917-2.613447 1.108917 0.735282 1.001022 0.497514 1.858185-0.745273 2.607454-1.00302 0.742275-1.49454 1.490544-1.49454 2.233818 0 6.698459 0.123879 11.033225 0.362646 13.020285 0 1.982064-0.859161 3.349729-2.608453 4.092004-2.230821 0.749268-4.729381 1.114911-7.446728 1.114911-1.500535 0.252753-2.250802-0.748269-2.250802-2.972098v-2.601459h-8.574626v2.967102c0 1.749292-0.749268 2.730334-2.245807 2.988082-0.496515 0-1.608429 0.237768-3.357721 0.74827-1.738302 0.232773-2.976094 0.490521-3.726361 0.743274-2.483575 0.237768-3.486595-0.872148-2.995075-3.349729v-5.588542c0.257748-2.73433 0.387621-4.840273 0.387622-6.316832v-2.606454c0-2.729335-0.129873-5.093026-0.387622-7.080086-0.492519 0.257748-1.475559 0.619395-2.977093 1.129896a62.299161 62.299161 0 0 1-2.99008 1.109917v16.003371c0.258747 5.697436 0.382626 9.790439 0.382627 12.26802 0.497514 2.476581-0.620394 4.096-3.357721 4.845268-2.245807 0.742275-4.729381 1.36167-7.466708 1.858185-3.229846 0.489522-4.600507-1.23879-4.103993-5.212909 0.506505-8.933276 0.745272-17.984437 0.745273-27.160476v-18.604831c0-3.716371-0.238767-7.317854-0.745273-10.790463-0.238767-1.481553-0.113889-2.47758 0.382627-2.967102 0.49152-0.496515 1.365666-0.496515 2.607453 0 3.229846 0.231774 7.20896 1.36167 11.938342 3.343735 0.989034 0.489522 1.609428 1.23879 1.86318 2.224827h7.084082c-1.480554-0.986037-2.3547-2.715348-2.612449-5.207914 0-3.968125-1.37166-7.317854-4.089006-10.047189-0.253752-0.729288-0.382626-1.23879-0.382627-1.476558h-10.442802c-3.486595 0-6.463688 0.366642-8.961248 1.108917-0.492519 0.258747-1.113912-0.12288-1.863181-1.108917-0.239766-0.252753-0.492519-0.743274-0.745272-1.491543-0.497514-0.490521-0.865155-0.872148-1.118907-1.108917-0.252753-0.5115-0.252753-0.878142 0-1.130896h0.751266c2.975095 0.510501 8.325869 0.872148 16.04633 1.129897h24.988597a47.375735 47.375735 0 0 1-1.863181-3.353725z m26.948683 25.656944h-45.638431v0.359649c-0.254751 0.744273-0.383625 1.358673-0.383625 1.862182v14.425912c4.996121-5.432695 8.363832-9.988246 10.108128-13.696625 0.74727-1.97607 1.86318-2.335719 3.362716-1.108917 4.488617 2.226825 7.74144 4.201897 9.739489 5.920219 1.738302 1.482552 1.368663 2.714349-1.13589 3.694392-1.245783 0-2.745319 0.502509-4.483622 1.482552-0.499512 0.250755-1.245783 0.615399-2.251801 1.118908-0.987036 0.728289-1.738302 1.230798-2.23182 1.466567 1.992055 0.256749 3.731356 0.744273 5.234887 1.488547 0.748269 0 1.240788 0.249756 1.500535 0.738279h6.351797c1.498537-2.714349 2.874193-4.073022 4.119977-4.073023 0.986037-0.251754 2.246806 0 3.731356 0.743275-0.239766-0.250755-0.369639-0.364644-0.369639-0.364644-2.485573-3.945147-5.982158-7.161007-10.46578-9.624601-0.752265-0.492519-1.135891-0.979044-1.13589-1.482553 0.258747-0.492519 0.88114-0.729288 1.868175-0.729287 9.734494-0.249756 16.473912 1.340691 20.210264 4.798314 0.748269 0.743274 1.370661 1.733307 1.868175 2.965104v-9.98425z m-26.955676-11.394872c1.002021 3.649436-0.129873 6.579575-3.355723 8.76544h11.926353v-0.355652c1.240788-4.633475 2.113936-9.74848 2.605456-15.346014v-0.735282h-22.353171c6.4517 1.698341 10.18905 4.258841 11.177085 7.671508z m7.231938 32.433327h-8.547653V543.951797h8.547653v-13.149159zM808.108661 473.727376c5.23289 0.739278 9.967266 1.850193 14.199134 3.336741 1.005019 0.250755 1.498537 0.739278 1.498537 1.48455-0.244761 0.98304-0.877143 1.723317-1.868176 2.216835-1.005019 0.502509-1.7413 1.485549-2.249803 2.971099a161.270509 161.270509 0 0 1-2.613448 8.522677h5.615516c2.738326-4.441662 4.974142-6.929233 6.726432-7.417756 1.483551 0.251754 4.11598 2.102946 7.850333 5.567563 0-4.205893-0.253752-7.66951-0.751266-10.389854-0.253752-2.46759 0.876144-3.449631 3.365713-2.956113 4.978139 1.485549 9.34887 2.957112 13.083224 4.442662h11.963317c2.737327-3.702384 4.49561-5.552578 5.226895-5.552578 3.494587 0.236769 7.242927 2.087961 11.231032 5.552578 1.99705 1.485549 2.105943 3.098974 0.36864 4.821291-0.746271 0.493518-1.244784 1.362669-1.498536 2.596465v11.858419c0 2.226825 0.253752 7.289881 0.752265 15.19616 0 2.230821-0.752265 3.702384-2.255797 4.442662 2.747317 1.7413 5.361764 3.82926 7.866318 6.311836 0.746271 0.725292 0.861159 1.465569 0.367641 2.210841-0.258747 0.745272-0.88114 0.997026-1.866177 0.745272-0.493518 0-1.374658 0.251754-2.618443 0.745272-0.493518 0.251754-0.872148 0.359649-1.115911 0.359649a77.957869 77.957869 0 0 1-12.345943 5.567563c4.245854 5.186935 10.593655 9.628597 19.061385 13.344968 1.498537 0.982041 2.121928 1.599438 1.882162 1.851192 0.239766 0.488523-0.382626 1.10592-1.881163 1.851192-3.475606 1.722318-5.854283 4.693417-7.094072 8.903305-0.752265 1.470564-1.868176 1.722318-3.370708 0.725292-5.979161-4.67943-10.589659-9.628597-13.830494-14.815532-3.489592 3.206868-9.091122 7.654525-16.826568 13.344968-0.239766 0.236769-0.493518 0.488523-0.74727 0.745272-0.243762 0-0.497514 0.107895-0.736281 0.364644-1.001022 0.740277-1.752289 1.485549-2.245807 2.225827-1.503532 1.979067-3.002068 2.215836-4.485619 0.745272a62.246213 62.246213 0 0 1-5.984156-9.648578c-1.005019-1.485549-0.382626-2.59047 1.868175-3.336741 1.7413-0.739278 2.617444-2.101947 2.617444-4.07602v-20.002466h-14.959391v17.046353c3.743344-1.233795 7.109058-2.596464 10.090146-4.082014 1.758283-0.745272 2.873194-0.745272 3.370709 0 1.001022 0.740277 0.622392 1.846197-1.118908 3.336742-6.731426 6.929233-11.720554 11.859419-14.961389 14.830517-1.483551 1.470564-2.613448 2.961108-3.364714 4.446657-1.483551 2.957112-3.111961 3.57351-4.849264 1.851193-0.5125-0.493518-1.244784-1.233795-2.250802-2.230822-2.483575-2.215836-4.240859-3.95314-5.231891-5.186934-2.249803-2.216835-2.120929-3.83026 0.36864-4.807306 3.250825-1.974072 4.739372-5.20192 4.49561-9.648577v-15.555809h-3.360718c-1.758283 0-3.62446 0.231774-5.615517 0.739278-0.498513 0.237768-0.991032 0.113889-1.503531-0.379629l-0.363645-0.359649a74.177561 74.177561 0 0 1-1.114911-1.125901c-0.259746-0.488523-0.513499-0.853167-0.752266-1.104921 0-0.745272 0.239766-1.10592 0.752266-1.10592 3.982111 0.489522 7.462712 0.740277 10.459785 0.740277h1.498537V510.411551h-1.882162c-2.489569 3.464617-5.471657 6.673483-8.961249 9.643583-1.006018 1.233795-1.62841 1.728312-1.867177 1.475559-0.253752-0.241764-0.129873-1.109916 0.369639-2.595466 5.226896-15.813557 8.099091-29.883817 8.59161-42.236753 0-2.482576 1.011013-3.459621 3.002068-2.971098z m7.843341 20.916573a60.243169 60.243169 0 0 1-6.785374 12.491801h12.817483c3.007063-4.408695 5.015102-6.488663 6.028113-6.257889 2.012035 0 5.148972 1.962084 9.424796 5.881257v-12.115169h-21.485018z m35.291535 19.066381h15.122233v-13.149159h-15.122233v13.149159z m0 33.530255c0.976047-0.257748 2.415641-0.619395 4.346756-1.11591 2.661401-0.743274 4.719391-1.23879 6.172971-1.492542-3.636449-7.452722-5.44768-16.873522-5.44768-28.292371h-5.072047v30.899824z m15.122233-63.116363h-12.907395c-1.478556 0-2.214837 0.625389-2.214838 1.877167v11.271992h15.122233v-13.149159zM837.050398 510.421541h-14.734611v15.122233c2.269783-4.169928 4.155941-6.51264 5.671462-6.999165 2.515543 0.486525 5.676457 2.450607 9.45077 5.89824V510.421541h-0.387621z m33.745046 11.929351c-2.963106 0.756261-4.316784 0-4.066029-2.262791v-3.749338h-6.280867c0.979044 4.76135 2.953116 10.022213 5.917222 15.77959 2.204847-2.999071 4.178919-6.383766 5.917221-10.153085l-1.487547 0.385624z m120.87296 25.790813v-35.595239h-16.80359c-2.227824 0-4.603504 0.251754-7.089077 0.740277-0.492519 0.236769-0.989034 0.236769-1.496539 0 0.506505 0.236769 0.382626 0.128874-0.363645-0.375633a47.153951 47.153951 0 0 1-1.864179-2.597463c-0.257748-0.488523-0.382626-0.853167-0.382627-1.10592h0.746271c2.992078 0.489522 6.85031 0.746271 11.583688 0.746271h30.977749c3.728359-4.958158 5.975165-7.421752 6.726431-7.421752 2.241811 0.741276 5.219902 3.209865 8.948261 7.421752 0.751266 0.977046 1.00402 1.723317 0.751267 2.226825-0.239766 0.730287-0.86016 0.982041-1.86418 0.730287-4.728382 0-8.840367-0.11289-12.309978-0.364644 0.492519 0.740277 0.109893 1.485549-1.133893 2.231821-1.242786 0.488523-1.86418 1.362669-1.86418 2.592468V536.276293c0 8.162029 0.253752 14.713631 0.746272 19.646813 0.257748 4.448656-0.985038 7.169998-3.724363 8.167025-0.253752 0-0.5115 0.12288-0.750268 0.359649-3.982111 1.234794-7.212956 1.981065-9.714513 2.232819-2.977093 0.745272-4.718392 0-5.224897-2.23182-0.239766-3.703383-2.485573-6.295852-6.721437-7.7824-2.23282-0.982041-3.106966-1.851192-2.615445-2.597464 0-0.251754 1.242786-0.359649 3.743344-0.359649 6.960203 0.488523 10.197042-1.358673 9.700527-5.57056z m-33.776016-55.30599c1.733307 0.744273 4.82329 2.351703 9.294923 4.832281a18.721717 18.721717 0 0 0 1.856187 1.125901c1.23879 0.749268 1.858185 1.492542 1.858186 2.22183-0.253752 0.749268-0.981042 1.368663-2.233819 1.875169-1.733307 0.242763-3.094978 1.11591-4.081014 2.609451-0.504507 0.490521-1.123902 1.239789-1.871173 2.221831-0.489522 0.749268-1.604433 2.117932-3.346732 4.102993h0.747271c0.251754 0.252753 0.375633 0.381627 0.375633 0.381627 2.223828 0.987036 2.605456 2.227824 1.114911 3.720367-1.490544 0.49152-2.10994 1.60743-1.858185 3.353725v24.951633c0 1.75129 0.124878 4.101994 0.367641 7.073093v7.089077c0.504507 3.482599-0.619395 5.709424-3.347731 6.70645-1.98606 0.749268-4.456648 1.240788-7.427747 1.478557-1.981065 0.5115-3.218857 0.5115-3.723363 0-0.748269-0.490521-0.986037-1.731309-0.74827-3.715372 0.505506-7.202966 0.748269-13.165143 0.74827-17.882537v-20.120351a75.096663 75.096663 0 0 1-11.904375 7.832351c-0.743274 0.49152-1.23879 0.49152-1.475559 0-0.252753-0.252753-0.123879-0.749268 0.366642-1.492542 9.660566-10.427817 17.103298-22.600929 22.308214-36.504351 0.489522-1.737303 1.489545-2.357698 2.98009-1.861183z m-0.981042-19.019426c4.265834 3.00007 7.64953 5.492636 10.153085 7.48569 1.006018 1.007017 1.376656 1.998049 1.135891 3.001069-0.25575 0.752265-1.011013 1.120905-2.257795 1.120905-1.511524 0-2.88818 0.493518-4.139957 1.500535-9.016195 7.236933-18.41202 13.476839-28.199462 18.715723-0.751266 0.239766-1.251778 0.239766-1.492542 0 0-0.513499 0.240765-1.131895 0.741276-1.88416 9.286931-8.971239 16.164215-18.591844 20.675809-28.808867 0.750267-1.245783 1.892152-1.629409 3.383695-1.130895z m41.283684 14.825522h-16.709682c-2.72434 0-5.072047 0.240765-7.050115 0.741276-0.251754 0-0.746271-0.114888-1.488546-0.369639 0.489522 0.254751 0.361647 0.129873-0.37963-0.370638-0.746271-0.751266-1.235793-1.506529-1.47356-2.261791-0.256749-0.495516-0.256749-0.88114 0-1.120906 0-0.25575 0.237768-0.25575 0.727289 0 3.232843 0.494517 6.812347 0.735282 10.771481 0.735282h18.563871c2.977093-4.744367 5.067052-7.131036 6.303844-7.131036 2.233819 0.750267 5.3248 3.126946 9.283934 7.131036 0.741276 1.011013 0.994029 1.766275 0.741276 2.261791-0.236769 0.500511-0.979044 0.755262-2.214837 0.755263h-5.937202c-4.216882-0.254751-7.919266-0.369639-11.138123-0.369639z" fill="#1B1918"></path><path d="M98.558581 438.8864c15.957417 0 29.211473 11.918361 31.249483 27.278361h-17.094306L98.921227 452.426178l-18.294134 18.228199 17.561849 17.493916 13.791532-13.73259h17.825592c-2.037011 15.355005-15.291067 27.273366-31.249483 27.273366-17.362045 0-31.522217-14.106224-31.522216-31.401334 0-17.296109 14.160172-31.401335 31.523215-31.401335" fill="#AC292F"></path><path d="M46.869059 466.060862c-9.402818 9.25696-5.963177 18.141284 0.947076 23.73682l40.600351 40.914045c1.71033 1.724316 12.877424 12.864437 0.426583 28.175485l-31.438298 37.003863-44.224812-0.049951 18.50393-19.177272c6.298849-6.526626 11.318946-13.167141 3.069003-22.947591L7.12687 519.749432c-8.239953-8.344851-8.274919-14.762583-2.984086-21.334166L65.980396 427.582439l8.76544 6.816343-27.876777 31.66208z m103.104313 0l-27.876777-31.66208 8.761444-6.816343 61.841608 70.833826c5.290833 6.571582 5.254868 12.989315-2.984086 21.334166l-27.626022 33.964831c-8.248944 9.780449-3.229846 16.421963 3.069003 22.94859l18.504929 19.177272-44.225811 0.049951-31.437299-37.003863c-12.45184-15.311048-1.283746-26.451169 0.425584-28.175485l40.600352-40.915044c6.910252-5.594537 10.349893-14.47886 0.947075-23.735821z" fill="#008A76"></path></svg>