<svg viewBox="0 0 1024 1024" version="1.1" xmlns="http://www.w3.org/2000/svg"><path d="M224 0h576c123.6 0 224 100.4 224 224v576c0 123.6-100.4 224-224 224H224c-123.6 0-224-100.4-224-224V224C0 100.4 100.4 0 224 0z" fill="#FFFFFF"></path><path d="M697.6 266l222.4 177.2-388 138.8z" fill="#AECD51"></path><path d="M203.2 388l724.4 58.8-448 107.2z" fill="#FCDE00"></path><path d="M112 842l800.8-395.2-549.2 135.2z" fill="#E42055"></path><path d="M874.8 460l-322 75.2-24.8 42.8z" fill="#B43A2A"></path><path d="M616 421.6l316.4 25.2-379.6 88.4z" fill="#B0C60C"></path><path d="M504 514l73.6-114.8-384-58.4 313.6 176.4 1.6-0.4-4.8-2.8z m79.2-124l132-206 4-6 4.4 5.6 209.2 259.2 5.2 6.4-6 3.2-817.2 448-30 12.8 21.2-22.4 391.6-367.6-323.6-181.6-24.4-16 29.6 2.8 404 61.6z m136.4-194.4l-125.6 196 323.2 49.2-197.6-245.2z m-131.2 205.2l-73.2 114.8 382.8-67.6-309.6-47.2z m311.6 57.2l-392 69.2-374.4 351.2L900 458z" fill="#9ED4DC"></path><path d="M717.2 168c10.8 0 20 8.8 20 20s-8.8 20-20 20-20-8.8-20-20 8.8-20 20-20z m210.4 262c10.8 0 20 8.8 20 20s-8.8 20-20 20-20-8.8-20-20 9.2-20 20-20z m-422 64.8c13.6 0 24.8 11.2 24.8 24.8 0 13.6-11.2 24.8-24.8 24.8-13.6 0-24.8-11.2-24.8-24.8 0-13.6 11.2-24.8 24.8-24.8z m-344-185.6c10.8 0 20 8.8 20 20 0 10.8-8.8 20-20 20s-20-8.8-20-20 9.2-20 20-20zM96 884.4c10.8 0 20 8.8 20 20 0 10.8-8.8 20-20 20s-20-8.8-20-20 8.8-20 20-20z" fill="#00A6DD"></path></svg>