<svg viewBox="0 0 1024 1024" version="1.1" xmlns="http://www.w3.org/2000/svg"><path d="M273.945 331.165l97.938 78.115-170.96 61.12z" fill="#AECD51"></path><path d="M56.112 384.909l319.125 25.99-197.359 47.164z" fill="#FCDE00"></path><path d="M15.862 584.962l352.899-174.063-241.958 59.508z" fill="#E42055"></path><path d="M351.91 416.62l-141.86 33.088-10.89 18.93z" fill="#B43A2A"></path><path d="M237.99 399.703L377.308 410.9 210.05 449.71z" fill="#B0C60C"></path><path d="M188.566 440.468l32.358-50.582L51.67 364.131l138.116 77.679 0.696-0.123-1.916-1.219z m34.997-54.707l57.995-90.651 1.676-2.62 1.949 2.42 92.09 114.241 2.224 2.759-2.669 1.464-359.819 197.4-13.197 5.677 9.278-9.95 172.545-161.892L43.26 364.535l-10.763-7.056 12.955 1.18 178.111 27.102z m60.085-85.634l-55.255 86.368 142.337 21.66-87.082-108.028z m-57.894 90.495l-32.338 50.547 168.858-29.773-136.52-20.774z m137.373 25.168l-172.699 30.45-165 154.815L363.127 415.79z" fill="#9ED4DC"></path><path d="M282.52 288c4.844 0 8.772 3.923 8.772 8.762 0 4.84-3.928 8.763-8.773 8.763s-8.773-3.924-8.773-8.763c0-4.84 3.928-8.762 8.773-8.762z m92.717 115.408c4.845 0 8.773 3.922 8.773 8.762 0 4.839-3.928 8.763-8.773 8.763s-8.773-3.924-8.773-8.763c0-4.84 3.928-8.762 8.773-8.762zM189.29 432.06c6.004 0 10.872 4.862 10.872 10.86 0 5.997-4.868 10.858-10.872 10.858-6.005 0-10.871-4.861-10.871-10.858 0-5.998 4.866-10.86 10.87-10.86zM37.73 350.228c4.844 0 8.773 3.924 8.773 8.762 0 4.84-3.929 8.763-8.774 8.763-4.845 0-8.773-3.922-8.773-8.763 0-4.838 3.928-8.762 8.773-8.762zM8.771 603.668c4.845 0 8.774 3.923 8.774 8.761 0 4.84-3.929 8.763-8.774 8.763-4.845 0-8.772-3.922-8.772-8.763 0-4.838 3.927-8.762 8.772-8.762z" fill="#00A6DD"></path><path d="M937.893 565.136v-14.373h72.007v14.373h-19.14v35.666c0 11.447-6.036 17.457-18.132 18.09h-10.074c-5.692 0.296-10.054 0.454-13.083 0.454-1.01-5.259-2.34-10.044-4.017-14.372 3.007 0 7.046 0.158 12.072 0.474h7.047c6.037 0 9.065-2.789 9.065-8.343v-31.969h-35.745z m-15.617-24.555l14.092 7.869c-3.695 4.627-7.54 9.431-11.58 14.373v56.048h-16.604v-39.836a2200.444 2200.444 0 0 0-11.581 9.727c-1.352-4.33-3.523-9.43-6.551-15.283 12.417-9.885 23.158-20.858 32.224-32.898z m19.635-6.485v-14.373h62.426v14.373h-62.426z m-21.14-22.261c0.666 0.634 1.848 1.403 3.523 2.333 2.685 1.542 6.207 3.855 10.57 6.939-8.399 8.957-19.635 18.544-33.727 28.727-2.363-4.014-5.886-8.344-10.59-12.97 13.77-9.273 23.844-17.616 30.225-25.03zM867.78 574.17h-24.827c0.644 2.453 2.12 5.516 4.385 9.207 0.641 1.217 1.14 2.14 1.452 2.748a232.478 232.478 0 0 0 18.99-11.955z m-39.91 0h-3.906v28.524c1.951-0.924 5.194-2.14 9.744-3.691 2.265-0.902 3.885-1.53 4.86-1.826-4.549-6.439-8.101-14.114-10.698-23.007z m-3.906-13.35h32.617v-9.206h-32.617v9.207z m0.002-21.161h32.616v-9.187h-32.616v9.187z m47.72 34.51h-3.407l8.767 11.976c-1.953 0.922-5.196 2.454-9.745 4.593-4.218 2.159-7.478 3.83-9.744 5.065 5.837 4.3 13.153 7.362 21.92 9.208-1.954 1.825-4.384 5.358-7.313 10.58-0.977 1.217-1.622 2.14-1.953 2.748-10.388-3.356-19.136-8.264-26.281-14.723-0.333 2.455-0.5 4.458-0.5 5.988-14.604 4.3-24.992 8.127-31.142 11.504l-6.835-11.504c1.953-2.454 2.93-5.988 2.93-10.581v-81.9h63.303v57.047z m-66.233-48.95v12.46h-27.9c-0.326 0.926-1.024 2.147-2.026 3.681-0.699 1.85-1.374 3.229-2.05 4.155h28.4v12.458h-15.626v11.082h18.678v12.459h-18.678v16.14c3.749-2.145 11.74-5.791 15.14-7.623a179.99 179.99 0 0 1 1.526 14.29c-6.126 3.072-16.003 7.62-20.765 10.4-1.038 0.605-2.55 1.692-4.599 3.228-1.024 0.63-1.7 1.082-2.026 1.397l-8.698-10.61c2.398-2.164 3.575-5.235 3.575-9.23v-17.992h-13.275v-12.459h13.275v-11.082h-4.6c-1.351 2.147-3.051 4.448-5.1 6.91-1.373-6.456-2.9-12.283-4.6-17.519 7.15-11.693 12.099-23.521 14.823-35.53 6.125 0.925 11.225 1.851 15.324 2.776-0.347 1.24-0.85 2.912-1.547 5.08-1.003 2.46-1.701 4.31-2.027 5.53h22.776z m-146.327 95.89h-17.269v-41.993c-0.69 0.296-1.74 0.768-3.147 1.378-1.385 0.61-3.665 1.85-6.814 3.7-0.336-0.315-1.028-1.08-2.078-2.322-1.049-1.22-4.2-4.45-9.426-9.686 25.13-9.233 43.625-21.832 55.486-37.839h22.516l-3.663 4.156c13.27 14.154 30.202 24.923 50.797 32.305-4.559 4.606-8.221 8.761-11.013 12.462-0.692-0.314-1.921-0.769-3.663-1.398-2.435-0.924-4.177-1.693-5.226-2.303v41.54h-17.804v-6.93h-48.696v6.93z m0-18.468h48.696v-15.69h-48.696v15.69z m4.2-89.044l13.089 10.14c-15.703 12.009-29.485 21.38-41.37 28.152-3.127-3.385-6.792-7.54-10.99-12.462 14.32-6.457 27.407-15.08 39.27-25.83z m20.929 35.063c-7.66 8.603-18.83 17.069-33.506 25.377h64.937c-11.884-7.087-22.34-15.533-31.431-25.377z m8.913-24.923l9.94-9.234c8.734 4.923 19.545 11.4 32.457 19.393 3.507 2.145 6.12 3.68 7.862 4.607l-11.525 12.008c-7.327-5.847-20.24-14.765-38.734-26.774z m-156.744-2.742v12.49h-14.978c-1.72 6.155-3.613 12.014-5.683 17.577h18.591v57.788h-20.64l-0.022 6.971h-13.944l0.023-35.638c-0.352 0.315-0.682 0.77-1.036 1.38-1.367 1.244-2.225 2.329-2.577 3.236-1.366-6.47-3.437-12.173-6.189-17.105 7.577-10.16 12.907-21.564 15.991-34.21h-11.872v-12.489h42.336z m-1.565 94.78v-12.016h30.465v-12.943h-26.322v-12.941h26.322V567.24h16.52v10.634h25.287v12.941h-25.287v12.943h31.499v12.015h-78.484z m3.613-51.317v-12.941h26.852v-11.562h-23.746V526.54h23.746v-12.943h16.52v12.943h25.287v13.415h-25.287v11.562h29.936v12.941h-73.308z m-24.758 32.83h6.696v-34.21h-6.696v34.21z m-44.796-38.934v12.464c-6.516 10.14-14.348 18.607-23.496 25.38 8.814 3.684 20.718 6.616 35.735 8.764-2.277 2.46-5.055 6.616-8.312 12.463-0.98 1.221-1.63 2.147-1.963 2.757-15.664-3.367-29.052-8.152-40.141-14.295-11.424 5.533-24.958 10.613-40.622 15.221a248.149 248.149 0 0 0-8.814-12.916c12.72-3.684 24.31-7.7 34.754-11.994a130.485 130.485 0 0 1-15.184-17.07c-8.814 13.527-21.17 31.03-32.906 39.634l-10.186-13.005c16.194-12.823 33.318-39.703 41.15-57.544h-29.385v-12.917a1515.545 1515.545 0 0 0 5.889-18.923l15.664 1.831c-0.982 4.018-2.464 9.55-4.408 16.618h16.647c1.639-7.034 3.378-12.971 4.976-20.324l17.036 0.024c-0.647 3.388-1.796 8.31-3.425 14.768-0.647 2.461-1.149 4.314-1.462 5.532h32.79a435.693 435.693 0 0 1-13.22-11.99l10.297-9.235c2.61 2.146 6.348 5.079 11.256 8.762 3.258 2.461 5.535 4.313 6.85 5.553l-7.352 6.91h19.59v13.391H416.06c-0.334 1.536-1.316 3.839-2.945 6.911-0.314 1.536-0.648 2.62-0.983 3.23h56.787z m-38.658 29.988c8.48-5.533 14.85-11.223 19.09-17.071h-35.256c3.26 5.533 8.648 11.223 16.166 17.071z m-169.413-49.564v-12.367h33.013v-11.896h16.258v11.896h12.703c-1.365-3.36-2.883-6.407-4.574-9.16l14.22-3.654a214.49 214.49 0 0 0 3.057 6.407c1.019 2.755 1.864 4.885 2.537 6.407h9.147v12.367h-37.09v7.327h33.536v59.977c0 7.932-4.4 12.209-13.202 12.815-3.058 0.313-8.13 0.449-15.24 0.449a219.637 219.637 0 0 0-3.576-12.347c3.728 0.294 6.959 0.45 9.668 0.45 4.053 0 6.09-1.68 6.09-5.04v-5.49h-17.276v20.141H293.86v-20.142h-14.719v22.428h-16.257v-73.241h30.976v-7.327h-33.013z m49.27 47.611h17.277v-8.693h-17.276v8.693z m0-19.693h17.277v-8.693h-17.276v8.693z m-30.976 0h14.72v-8.693h-14.72v8.693z m0 19.693h14.72v-8.693h-14.72v8.693z m-32.83-12.867a294.331 294.331 0 0 1 12.773 8.953c-2.189 4.266-6.062 10.968-11.601 20.108-4.365 7.228-7.584 12.805-9.687 16.763-1.482-0.752-3.672-2.016-6.558-3.809-3.13-2.173-5.598-3.681-7.403-4.524 6.757-9.794 14.235-22.295 22.475-37.491z m-18.951-19.375l9.115-10.588c6.83 4.057 13.198 8.291 19.084 12.685l-9.549 11.99c-7.214-5.586-13.418-10.282-18.65-14.087z m3.525-29.013l9.9-9.774c5.614 3.714 11.714 8.224 18.3 13.489l-9.9 11.185a263.119 263.119 0 0 0-18.3-14.9zM21.996 675.689c5.52 0 8.048-0.299 13.558 0.06 7.488 0.487 13.017 3.616 13.553 10.522 0.351 4.52 0.337 12.022-0.15 16.468-0.58 5.316-3.234 9.346-7.697 11.437-3.439 1.61-9.553 2.114-15.397 2.106-5.32-0.008-10.394-0.14-13.813-0.855-10.309-2.154-10.628-12.49-10.146-21.02l11.933-0.02c0.078 1.957 0.204 3.94 0.314 5.898 0.12 2.089 0.662 3.836 2.307 5.03 2.544 1.85 11.148 1.743 15.898 0.463 2.193-0.59 3.322-1.389 4.251-3.552 0.991-2.309 1.578-5.579 1.384-8.007-0.35-4.41-1.667-6.298-3.136-7.428-3.495-2.689-12.843-1.426-17.027-1.426-5.36 0-10.334-0.926-13.08-4.492-3.59-4.668-3.195-15.96-2.586-21.547 0.58-5.314 3.236-8.926 7.698-11.015 3.437-1.612 9.554-2.536 15.397-2.528 5.32 0.008 9.645 0.446 13.064 1.161 10.308 2.156 11.104 11.139 10.621 19.67l-11.933 0.02c-0.08-1.957 0.07-2.896-0.04-4.854-0.119-2.088-0.662-3.834-2.307-5.03-2.544-1.85-11.173-1.834-15.898-0.461-4.608 1.337-4.317 6.904-3.949 11.558 0.467 5.854 1.16 7.842 7.18 7.842z m427.752 31.226v-28.797c0-11.594-20.049-8.187-20.049-4.09v40.311h-11.455v-42.711h-7.587v-7.605H429.7v3.23c2.31-3.377 9.07-5.902 14.959-5.58 7.57 0.416 15.018 4.793 16.106 12.66 0.287 2.083 0.399 6.882 0.399 14.365v18.217h7.656v7.605h-26.313v-7.605h7.242z m97.497-50.038l-20.502 57.643H515.17l-19.424-57.643h-5.778v-9.331h28.005v9.33h-7.632l15.242 41.924 14.043-41.923h-6.704v-9.331h20.495v9.33h-6.173z m103.638-11.094h11.253v61.177h9.368v7.56H650.883v-61.178h-9.34v-7.559h9.34z m120.261 23.27l-16.035 44.69c-2.52 7.023-4.118 12.03-6.298 15.492-5.26 8.352-19.27 8.832-24.28-0.083-1.411-2.512-1.954-5.438-2.063-8.203l9.368 0.01c0.078 1.351 0.113 2.652 0.609 3.573 1.118 2.073 4.346 2.816 6.76 1.882 1.697-0.654 2.972-2.194 3.919-4.039 1.473-2.876 2.146-6.497 2.356-8.666l-17.442-44.524h-7.184v-7.45h26.255v7.45h-7.7l10.57 32.53 11.277-32.661h-6.742v-7.409h22.739v7.409h-6.109z m-155.51-23.27h11.253v61.177h9.368v7.56H615.634v-61.178h-9.341v-7.559h9.34z m-321.3 18.963H311.923v49.774h-11.617v-42.25h-5.972v-7.524z m6.025-7.511v-9.69h11.6v9.69h-11.6z m-30.171-11.452h11.253v61.177h9.368v7.56H270.188v-61.178h-9.341v-7.559h9.341z m-24.466 11.452v-9.69h11.6v9.69h-11.6z m-6.025 7.51h17.59v49.775H245.67v-42.25h-5.973v-7.525z m705.885 42.17v-28.797c0-11.594-19.44-8.187-19.44-4.09v40.311h-11.109v-42.711h-7.357v-7.605h18.467v3.23c2.24-3.377 8.794-5.902 14.503-5.58 7.342 0.416 14.564 4.793 15.618 12.66 0.28 2.083 0.388 6.882 0.388 14.365v18.217h7.424v7.605H938.56v-7.605h7.022z m40.52-64.657v64.727h6.199v7.535h-17.592V649.79h-7.108v-7.533h18.5z m16.047 29.433h-6.355v-7.634h26.545v7.634h-8.39l-13.725 15.73 18.526 18.718 5.182 0.02 0.068 8.073h-11.014l-24.916-26.393 14.08-16.148z m-625.487-10.046h18.64c7.48 0 13.593 5.975 13.593 13.277v26.321c0 7.302-6.112 13.277-13.594 13.277h-18.64c-7.477 0-13.59-5.975-13.59-13.277v-26.321c0-7.302 6.113-13.277 13.59-13.277z m2.791 8.384c-3.481 0-6.328 2.783-6.328 6.183v23.743c0 3.4 2.848 6.182 6.328 6.182h13.06c3.48 0 6.329-2.783 6.329-6.182v-23.743c0-3.4-2.848-6.183-6.328-6.183h-13.06z m-50.416-8.384h15.19c7.462 0 13.556 5.976 13.556 13.277v1.493h-10.026v-0.203c0-3.398-2.84-6.183-6.31-6.183h-9.626c-3.472 0-6.312 2.783-6.312 6.183v23.743c0 3.4 2.842 6.182 6.312 6.182h9.626c3.469 0 6.31-2.783 6.31-6.182v-1.943h10.026v3.231c0 7.302-6.095 13.277-13.556 13.277h-15.19c-7.456 0-13.553-5.975-13.553-13.277v-26.321c0-7.302 6.095-13.277 13.553-13.277z m551.341 52.875h-10.461c-7.349 0-13.352-5.976-13.352-13.277v-5.983c0-7.923 4.924-10.945 12.074-10.945h18.802l0.113-9.127c0.04-3.4-2-5.159-5.416-5.159h-8.592c-4.161 0-6.217 3.387-6.217 7.111h-9.874c0-4.134 0.458-7.752 3.37-11.013a13.36 13.36 0 0 1 9.982-4.482h14.072c7.345 0 13.352 5.975 13.352 13.277v26.321c0 1.904-0.274 3.7 1.16 3.63h4.76v8.381h-9.069c-3.197 0-5.772-1.842-6.822-4.488-1.224 3.861-3.462 5.754-7.882 5.754z m-13.938-18c0 1.262 0.013 3.405 0.065 4.664 0.092 2.426 2.383 5.302 5.448 5.302h10.185c3.418 0 6.217-2.782 6.217-6.181 0-1.262-0.188-5.486-0.164-6.746 0.044-2.426-0.943-3.152-3.1-3.162l-12.436-0.058c-3.416-0.017-6.215 2.783-6.215 6.181z m-285.684 18h-10.46c-7.35 0-13.353-5.976-13.353-13.277v-5.983c0-7.923 4.923-10.945 12.073-10.945h18.802l0.113-9.127c0.042-3.4-2-5.159-5.415-5.159h-8.593c-4.16 0-6.216 3.387-6.216 7.111h-9.875c0-4.134 0.459-7.752 3.37-11.013a13.362 13.362 0 0 1 9.983-4.482h14.073c7.345 0 13.35 5.975 13.35 13.277v26.321c0 1.904-0.273 3.7 1.16 3.63h4.762v8.381h-9.07c-3.197 0-5.772-1.842-6.822-4.488-1.225 3.861-3.463 5.754-7.882 5.754z m-13.937-18c0 1.262 0.013 3.405 0.063 4.664 0.092 2.426 2.384 5.302 5.448 5.302h10.186c3.419 0 6.216-2.782 6.216-6.181 0-1.262-0.188-5.486-0.164-6.746 0.045-2.426-0.943-3.152-3.1-3.162l-12.434-0.058c-3.418-0.017-6.215 2.783-6.215 6.181z m121.765-34.875h15.19c7.46 0 13.555 5.976 13.555 13.277 0 5.605-0.012 11.177-0.012 16.774h-32.26v8.259c0 3.4 2.84 6.182 6.31 6.182h9.627c3.469 0 6.31-2.783 6.31-6.182v-1.943h10.025v3.231c0 7.302-6.095 13.277-13.555 13.277h-15.19c-7.457 0-13.555-5.975-13.555-13.277v-26.321c0-7.302 6.097-13.277 13.555-13.277z m18.72 22.308v-7.741c0-3.398-2.841-6.183-6.31-6.183h-9.626c-3.472 0-6.312 2.783-6.312 6.183v7.741h22.248z m109.012-27.242v18.46h7.285c4.335 0 7.028-0.093 8.079-0.28 1.898-0.315 3.4-1.263 4.488-2.844 1.09-1.58 1.63-3.663 1.63-6.246 0-2.472-0.462-4.48-1.399-6.023-0.949-1.544-2.346-2.474-4.193-2.788-1.104-0.187-4.27-0.28-9.503-0.28h-6.387z m11.2-9.165c4.614 0 8.06 0.219 10.327 0.67a13.991 13.991 0 0 1 6.078 2.76c1.79 1.403 3.27 3.26 4.465 5.6 1.194 2.322 1.79 4.94 1.79 7.826 0 3.134-0.732 6.02-2.197 8.64-1.48 2.618-3.474 4.583-5.985 5.893 3.542 1.185 6.283 3.212 8.183 6.066 1.913 2.869 2.863 6.238 2.863 10.106 0 3.04-0.612 6.003-1.845 8.886-1.236 2.869-2.918 5.177-5.05 6.892-2.128 1.717-4.76 2.777-7.895 3.181-1.955 0.235-6.689 0.39-14.193 0.454h-19.84v-57.808h-7.577v-9.155c10.317 0 20.345-0.011 30.876-0.011z m-11.2 37.049v20.54h8.105c4.823 0 7.82-0.103 8.99-0.31 2.112-0.352 3.783-1.407 4.993-3.165 1.215-1.758 1.814-4.075 1.814-6.95 0-2.751-0.515-4.986-1.555-6.701-1.056-1.718-2.612-2.752-4.666-3.103-1.228-0.208-4.753-0.311-10.574-0.311h-7.107z m-705.28-37.05h15.347v0.003h24.32c9.208 0 16.732 7.407 16.732 16.477v34.018c0 9.07-7.524 16.477-16.732 16.477h-33.417v-57.562h-6.25v-9.412z m18.643 9.143v47.737h16.898c4.656 0 8.465-3.748 8.465-8.33v-31.077c0-4.58-3.809-8.33-8.465-8.33H129.68z m-62.933-9.142h24.119c9.161 0 16.646 4.784 16.646 13.933v12.481c0 9.149-7.489 14.71-16.646 14.71H71.662v16.514h9.356v9.336h-21.66v-57.84h-6.484v-9.134h13.872z m4.942 9.221v21.72H86.76c4.627 0 8.42-2.263 8.42-6.883v-8.178c0-4.619-3.788-6.659-8.42-6.659H71.688z m135.368 18.922c5.52 0 8.048-0.299 13.558 0.06 7.488 0.487 13.017 3.616 13.553 10.522 0.351 4.52 0.337 12.022-0.15 16.468-0.58 5.316-3.234 9.346-7.697 11.437-3.438 1.61-9.553 2.114-15.397 2.106-5.32-0.008-10.393-0.14-13.813-0.855-10.308-2.154-10.628-12.49-10.146-21.02l11.933-0.02c0.079 1.957 0.204 3.94 0.314 5.898 0.12 2.089 0.662 3.836 2.307 5.03 2.544 1.85 11.148 1.743 15.9 0.463 2.191-0.59 3.322-1.389 4.25-3.552 0.99-2.309 1.577-5.579 1.383-8.007-0.35-4.41-1.666-6.298-3.135-7.428-3.496-2.689-12.844-1.426-17.028-1.426-5.36 0-10.333-0.926-13.08-4.492-3.59-4.668-3.195-15.96-2.586-21.547 0.58-5.314 3.236-8.926 7.698-11.015 3.437-1.612 9.554-2.536 15.397-2.528 5.32 0.008 9.647 0.446 13.064 1.161 10.308 2.156 11.104 11.139 10.621 19.67l-11.933 0.02c-0.08-1.957 0.071-2.896-0.04-4.854-0.118-2.088-0.662-3.834-2.307-5.03-2.544-1.85-11.173-1.834-15.898-0.461-4.607 1.337-4.317 6.904-3.947 11.558 0.465 5.854 1.158 7.842 7.179 7.842z" fill="#231916"></path></svg>