<svg viewBox="0 0 1024 1024" version="1.1" xmlns="http://www.w3.org/2000/svg"><path d="M127.440546 520.903305l-69.772862-69.269354c11.453815-11.340925 22.79374-23.07047 34.247555-34.411395 1.416617-1.395637 2.01703-1.62841 4.613495-1.62841 20.022447 0.015984 42.083902 0.054946 62.129326 0.038962 1.678361-0.012987 3.03104 0.494517 3.971122 1.560476l34.948871 34.6112-70.137507 69.098521z m83.065881-55.857451l43.272742 42.914091c2.274779 2.562498 2.427629 6.212933-0.365643 8.623579-30.047657 29.996706-59.674724 59.567828-89.722381 89.564535-1.195832 1.229799-2.135914 1.940105-3.720366 2.011036l-62.916559-0.079922c-2.552507-0.316691-3.176898-0.436574-5.022095-1.911134L2.351703 516.845268c-2.38567-2.533526-2.530529-6.373776-0.061939-9.482739l42.878127-42.87513 82.787153 82.774166 82.551383-82.215711z" fill="#006599"></path><path d="M323.948644 450.947621h51.902314v16.635755h-10.522724v-7.323848H334.123707v7.989198h-10.174064v-17.301105z m-22.566962 26.284332l5.938201-8.983227c0.887134 0.66535 2.310743 1.54649 4.295805 2.650412 4.615493 2.89817 7.473701 4.886228 8.571629 5.991149l-5.602529 8.659543a101.35502 101.35502 0 0 0-13.203106-8.317877z m43.856172 9.120094v-9.077136h10.281959c0.905116 0.229776 1.357674 0.559454 1.357674 1.018006 0 0.213791-0.116886 0.559454-0.335672 1.002022-0.233772 1.121904-0.350658 2.353701-0.350658 3.701385v3.355723h22.595934v8.731473h-18.477955c5.244878 7.62855 12.43086 12.774525 21.558946 15.469893-2.964105 3.356722-5.025093 6.711446-6.163981 10.080156-8.441756-3.138935-14.942408-8.188004-19.512944-15.128227v19.158291h-10.953303v-20.833654c-4.10599 6.051091-10.48576 12.102181-19.161288 18.138286-1.828215-2.912156-4.79232-5.378747-8.89831-7.38279 9.580644-4.260839 16.883512-10.755497 21.910603-19.501955h-15.757612v-8.731473h21.906607z m-43.856172 29.318369c0-0.230775 0.21479-0.795223 0.674341-1.704336 3.352726-6.320827 6.708449-14.793553 10.07616-25.408187 3.355723 3.384695 6.049093 5.307817 8.055134 5.757377-5.146974 16.267114-8.170021 25.980628-9.058154 29.149534-0.229776 0.447563-0.459551 0.560453-0.673343 0.332675-1.347684-1.130896-4.373729-3.834256-9.074138-8.127063z m3.009061-60.74368l8.064125-6.988176c2.233819 1.548488 5.371754 4.429674 9.394826 8.651551 0.673342 0.66535 1.116909 1.107918 1.346685 1.334697l-8.064125 7.314856c-4.910205-4.871243-8.492706-8.322872-10.741511-10.312928z m35.025796 8.056132c1.378654 0.461549 4.139957 2.03801 8.261931 4.735376 0.454556 0.230775 0.454556 0.461549 0 0.679336-0.454556 0.462548-1.261768 1.240788-2.40665 2.366689-5.738396 5.876261-10.099138 10.04519-13.077229 12.527766-2.287766-2.033015-5.045073-3.95314-8.245947-5.759375 5.723411-3.374704 10.887368-8.223969 15.466896-14.549792z m13.115192 5.02809l7.374798-5.780355c4.026068 3.854236 8.841366 8.83737 14.439898 14.948402-1.790252 1.132894-4.370732 3.158915-7.721459 6.114029-6.489662-7.707473-11.189073-12.78951-14.093237-15.282076z m43.479539-2.03801h10.472773v-20.290185h9.476745c1.340691 0 2.018029 0.229776 2.01803 0.679337v0.677338c-0.677339 1.1259-1.009015 2.697366-1.009015 4.734377v14.200132h7.774408v9.136078h-7.774408v18.605831l6.765393-1.688352c0 0.89113-0.118884 2.697366-0.349658 5.410716-0.212792 2.251801-0.331676 3.722365-0.331677 4.401702-8.33586 2.251801-16.903493 4.848265-25.684917 7.780402-0.679337-3.839251-1.588449-7.894291-2.71335-12.182104 4.054041-0.230775 8.005182-0.679337 11.828449-1.356675v-20.97152h-10.472773v-9.136078z m74.3424-11.921358v70.612043h-11.00825v-76.725073h9.981253c1.364667 0 2.053994 0.231774 2.053994 0.679337 0 0.231774-0.116886 0.568445-0.336671 1.016007-0.469541 1.129897-0.689327 2.605456-0.689327 4.417686zM427.726299 481.429854v-33.491294h9.595629c1.140886 0.215789 1.714326 0.446564 1.714326 0.662353v0.679337c-0.453557 1.357674-0.67534 3.047024-0.675341 5.081038v36.539317c0.453557 13.077229-5.15097 24.582993-16.805588 34.516293-2.737327-2.930139-5.940199-5.295828-9.598626-7.103064 10.739512-7.6795 15.886486-16.70169 15.433927-27.068566 0.218786-1.138888 0.335672-2.482576 0.335673-4.071024v-5.74439z m26.033576-22.582947v58.295072h-10.963294v-64.689827h9.906326c1.419614 0.21479 2.128921 0.444566 2.128921 0.674342 0 0.217787-0.119883 0.560453-0.362646 1.008015a16.450935 16.450935 0 0 0-0.709307 4.712398z m39.694236 17.842576v-19.421034h26.619005c0-0.902119 0.113889-2.1509 0.349659-3.750338 0.451559-3.401678 0.684332-6.020121 0.684331-7.835348 3.857233 0.231774 7.616562 0.566447 11.255009 1.030993 0.233772 0 0.451559 0.114888 0.684332 0.334673 0.451559 0 0.684332 0.232773 0.684332 0.682334-0.45056 3.401678-1.019005 6.587567-1.702338 9.536687h27.303337v18.405026h-11.270994v-9.202014h-15.698669c0.684332 7.950236 2.504554 14.306029 5.462665 19.086361 2.503555-2.050997 5.00711-4.43367 7.511665-7.167001 1.138888-1.133893 1.82222-1.70034 2.040008-1.700339 7.063102 5.001116 10.35289 7.718462 9.902329 8.18201-4.093003 2.037011-8.751454 5.218903-13.996331 9.537686 5.244878 5.903235 12.860441 10.901354 22.876659 14.987363-3.418661 3.417662-6.259887 6.703454-8.530669 9.884348-17.067333-8.631571-27.987668-21.803707-32.765003-39.524402-0.684332 1.133893-1.820222 2.733331-3.421658 4.765346-0.684332 0.917104-1.134892 1.602435-1.368664 2.054993v24.186381c5.008109-1.818224 9.447774-3.634451 13.322989-5.452675-0.232773 2.503555-0.232773 5.567563 0 9.20501v1.366666c-6.375774 2.267785-13.2091 4.982135-20.487992 8.168023-2.040008 0.917104-3.175899 1.365666-3.406673 1.365667-0.919102-2.048-2.506552-5.331793-4.776336-9.883349 2.954115-1.819223 4.424679-4.434669 4.424679-7.836347v-11.235028c-4.541565 4.532574-10.237003 8.73447-17.052347 12.601693a48.862283 48.862283 0 0 0-7.176991-8.184008c17.984437-9.536687 29.021659-21.004488 33.112663-34.408398h-13.992335v10.219021h-10.586662z m96.545717-3.903188h-11.390876v-9.101113h12.737561v-16.497888h7.373799c2.460597 0 3.575508 0.329678 3.346732 1.004019 0 0.229776-0.114888 0.561452-0.328679 1.005019a12.555739 12.555739 0 0 0-0.671345 4.054041v10.435808h9.375844v9.100114h-9.375844v9.43079l5.357768-3.364714c2.461596 3.146927 5.575555 8.07911 9.37984 14.820527l-8.376819 5.388737c-2.23182-4.48562-4.360741-8.076113-6.360789-10.778474v36.380472h-9.720507v-30.645073c-2.903165 5.604527-5.804332 10.105132-8.704499 13.468847-1.572464-2.919149-3.804285-5.953186-6.704453-9.099114 6.030111-7.402771 10.719532-15.941432 14.063266-25.601998z m24.30027-1.080945v-9.218997h21.571933v-16.714677h9.589635c1.608429-0.236769 2.294759 0 2.060988 0.682334v1.704335c-0.452558 1.586451-0.68633 3.072999-0.68633 4.441663v9.886345h9.587637v9.218997h-9.23698v44.376664c0.218786 3.404675-1.037986 5.692441-3.769319 6.828331-2.747317 1.352679-7.777405 1.937108-15.085268 1.703337 0-3.190884-1.023001-6.716441-3.067005-10.587661 5.244878 0.232773 8.21298 0.114888 8.897311-0.334673 1.138888-0.453557 1.708332-1.819223 1.708332-4.091005v-37.894993H614.300098z m0.752265 10.182057l11.031227-3.106966c2.52953 6.211934 4.367735 12.311977 5.517612 18.308121l-11.035223 2.752312c-1.381651-5.98016-3.219856-11.96032-5.514615-17.953467z m101.903485-29.575118h30.485229v8.501697h-20.898591c2.9691 1.348683 4.459645 2.145904 4.459645 2.377678 0 0.216788-0.237768 0.566447-0.689327 1.015009-1.37166 1.362669-2.732332 3.291785-4.10599 5.771364h15.404956v47.940183c0.232773 5.2219-5.248874 7.704476-16.442943 7.484691 0-3.177897-1.022002-6.353795-3.070002-9.51271 6.38976 0.215789 9.137077-0.79822 8.21298-3.061011v-22.439087c-0.905116 0.899122-2.059988 2.377678-3.418662 4.408695-0.467543-0.451559-1.490544-1.348683-3.08199-2.711352v21.409093H713.183532v-2.034014h-10.273967v3.064008h-9.247969v-21.758752l-2.048 1.36267c-1.154872-2.275778-2.39566-4.090006-3.772316-5.43769v35.346482l-10.960297-0.333674v-54.05721H693.322927c-0.233772-0.449561-0.68633-1.131895-1.373659-2.048-1.138888-2.031017-1.592445-3.060012-1.373658-3.060012 1.826217-0.668347 5.481647-1.580457 10.960296-2.711352 0.468542 0.231774 1.610427 2.828238 3.433647 7.818365h9.590634c2.059988-3.177897 3.417662-6.121022 4.104992-8.832375H670.715005v-8.501697h32.53223a34.127672 34.127672 0 0 0-1.024999-4.755356c-0.219785-0.683333-0.335672-1.029994-0.335672-1.029994 0.68633-0.219785 3.186888-0.451559 7.52665-0.683333 3.886205-0.216788 6.051091-0.216788 6.518634 0 0.453557 1.363668 0.789229 3.524558 1.023001 6.467684z m-16.903493 25.714888h-12.036246v9.026185c4.712398-2.012035 8.730474-5.020098 12.035247-9.026185z m16.597791 0.752265h-14.90944l5.76537 5.808328s-0.462548 0.351657-1.357674 1.035988a253.000929 253.000929 0 0 1-6.097046 4.438665h20.310166a187.776624 187.776624 0 0 0-7.439735-4.790322c-0.907114-0.451559-1.354677-0.684332-1.354677-0.684331 1.122903-1.135891 2.815251-3.076995 5.083036-5.808328z m13.489827-0.752265h-12.035247c3.350728 1.921124 7.358814 4.682427 12.035247 8.27392v-8.27392z m-27.831821 26.327289h9.778451v-7.522653h-9.778451v7.522653z m82.906037-7.358813V448.691824h6.481671c4.091005 0 5.910228 0.464546 5.459668 1.354677-0.684332 2.248804-1.019005 4.625483-1.019005 7.093074v55.393904h6.815344v-63.841655h7.177991c4.094002 0 5.914224 0.464546 5.462665 1.354677-0.684332 2.709354-0.801218 3.04103-0.349659 1.025999a52.628605 52.628605 0 0 0-1.019004 6.410739v39.184734c4.090006-8.115075 7.165003-17.682732 9.217998-28.721952 0.220784-2.018029 0.451559-3.25682 0.684331-3.705381 2.725339 0.449561 6.598556 1.686353 11.593678 3.704382 1.148878 0.461549 1.937108 0.793225 2.387669 1.023001-0.669346 1.124901-1.703337 3.720367-3.059013 7.768414-4.557549 11.024234-8.651551 20.030439-12.290997 27.021612 0.451559 0.21479-2.270782-0.793225-8.198993-3.04103V512.199805h23.898661v9.454767h-77.476339V512.199805h24.233334v-11.484785c-6.145998 2.247805-9.672554 3.372706-10.586661 3.372707 0-0.449561-0.116886-1.240788-0.334673-2.362693-3.424656-15.090263-7.064101-26.114498-10.925331-33.102673 6.146997-1.803239 10.24-3.04103 12.27801-3.720367 2.971099 8.116074 6.146997 18.808632 9.568655 32.09266z m86.736297-41.119844h13.563754v8.751453H868.212137c-1.360671 3.593491-2.27278 5.952187-2.721343 7.070096h19.690771v8.771434h-10.193046v7.069097h10.857397v8.751453h-10.857397v9.772457c0.912109-0.67634 2.491567-1.795247 4.76135-3.375703 2.47758-1.798244 3.838252-2.686377 4.070026-2.686377 0.680336 2.468589 1.244784 5.158962 1.693346 8.075114-6.111032 4.496609-11.538732 8.981229-16.288094 13.481834-1.57746 1.564472-2.605456 2.3557-3.054017 2.3557-1.128898-1.121904-2.937132-4.383719-5.429698-9.772457 0-0.21479 0.451559-0.89113 1.363668-2.013034 1.808234-2.024023 2.705358-3.476605 2.705359-4.38272v-11.453815h-11.870408v-8.751453h11.870408v-7.071095h-3.388691c-0.229776 0.444566-0.564449 1.118907-1.013011 2.010037-0.463547 1.120905-0.796222 1.911134-1.028995 2.3557-1.128898-1.118907-3.617467-2.917151-7.452722-5.384742 0.213791 0.229776 0 0.11289-0.683333-0.334673 4.518587-7.416757 8.137054-17.072328 10.861393-28.972706 0.445565-2.24281 0.796222-3.476605 1.013011-3.706381 2.257795 0 5.991149 0.789229 11.205058 2.3557 0.216788 0.232773 0.099902 0.906115-0.347661 2.028019a19.812652 19.812652 0 0 0-2.026021 5.057062z m16.560827 51.510696v-57.943414h37.49938v38.629276h-3.416664c2.497561 2.024023 4.43367 4.064031 5.801335 6.101042 2.035013 1.805237 2.035013 2.937132 0 3.383695-0.684332 0.230775-1.134892 0.449561-1.367664 0.677339a67.03154 67.03154 0 0 0-7.505671 5.756378c3.638447 3.846244 7.95623 6.77938 12.961343 8.819388-2.733331 2.254798-5.571559 5.518611-8.523676 9.814415-0.232773-0.215789-0.566447-0.564449-1.020004-1.011012-7.502673-5.420706-12.391899-10.396847-14.659684-14.905444 0.232773 0.894127 0.334673 2.025022 0.334673 3.383695 0 1.574462 0.115887 2.817249 0.349659 3.728359-6.140004 2.934135-11.475793 5.984156-16.030346 9.152063-1.366665 1.124901-2.267785 1.691348-2.717346 1.691348-0.917104-0.680336-2.617444-4.408695-5.121998-11.189073 0-0.449561 0.349659-1.013011 1.017007-1.694345 1.600437-1.342689 2.399657-2.819247 2.399656-4.39371z m10.123114-42.146841h16.54784v-6.769389h-16.54784v6.769389z m0 15.044309h16.54784v-6.770389h-16.54784v6.770389z m3.106966 7.522653h-3.106966v20.309167c4.135961-1.808234 6.893268-3.164909 8.27392-4.061034-2.989081-6.095048-4.711399-11.510759-5.166954-16.249132z m18.706732 0h-9.026185c0 0.221783 0.109893 0.57344 0.315691 1.031993 0.646369 3.221854 1.513522 5.638494 2.589471 7.241927 2.571489-2.532527 4.621487-5.284839 6.121023-8.274919z m24.070494-20.352125c8.070119-6.144 14.893456-13.657662 20.495984-22.524003 0.673342 0.449561 2.122927 1.135891 4.37273 2.038009 4.699411 2.501557 6.937225 3.87022 6.708448 4.105991 0 0.217787-0.329678 0.667348-1.006017 1.353678-1.117908 0.682334-2.234818 1.601436-3.352726 2.737326-6.95321 7.730451-13.446868 14.107223-19.491965 19.101347-1.565471-1.818224-4.143953-4.091005-7.726454-6.813347z m36.858005-7.479695v-9.027185h36.105741v9.027185h-36.104742z m-14.845502 22.471055v41.466506h-10.937319v-31.35538c-1.591446 1.796246-3.530552 3.823266-5.804332 6.067075l-7.527649-6.744413c9.116098-7.192976 16.97742-16.068308 23.596957-26.639985 6.826334 3.381698 10.252987 5.392734 10.252987 6.071072 0 0.229776-0.230775 0.560453-0.682334 1.020004-2.511547 2.244808-5.470658 5.61152-8.897311 10.115121z m9.580644-9.683543H1023.500488v9.434786h-12.959345v35.045776c0.683333 4.945171-4.77234 7.420753-16.364019 7.420753-0.45056-4.272827-1.704336-7.868316-3.739348-10.786466 6.356792 0.444566 9.308909-0.343664 8.858349-2.360695v-29.319368h-23.184359v-9.434786z m-646.280866 81.785132h-6.661495c-0.119883-3.377701-1.870174-5.072047-5.262861-5.072047-3.391688 0.241764-5.151969 1.694345-5.261861 4.345756-0.240765 2.540519 1.75129 4.110985 5.958181 4.717393 0.118884 0 0.411598 0.057943 0.884137 0.175828 7.595582 1.56647 11.341924 4.651458 11.229034 9.243973-0.121881 7.001163-4.740371 10.626622-13.86446 10.86439-8.421776 0-12.577717-3.684402-12.457835-11.049209h7.016149c0 3.863227 1.818224 5.91822 5.441686 6.159984 4.212886-0.123879 6.378771-1.570466 6.49166-4.345756 0-2.29376-2.044004-3.863227-6.141003-4.713397-0.582431-0.114888-0.994029-0.240765-1.225803-0.361647-7.135032-1.688351-10.707543-4.769342-10.707543-9.238978 0.353655-6.886275 4.859255-10.566681 13.513803-11.052206 7.013151 0.361647 10.703547 3.804285 11.04921 10.325916z m12.140144 24.276292h-6.739419v-33.849943h6.739419v13.177132h0.181822c1.295735-2.316738 3.601483-3.480601 6.919243-3.480601 4.128968 0.489522 6.619536 2.193858 7.442732 5.121998 0.354654 1.46457 0.530482 2.68238 0.530482 3.659426v15.370989h-6.915247v-14.088242c0-3.656429-1.356675-5.491637-4.079016-5.491637-2.358697 0.243762-3.722365 2.079969-4.080016 5.491637v14.088242zM383.372613 568.444878h-14.951399c-0.119883 4.080016 1.170857 6.055087 3.871219 5.92921 2.223828 0.125877 3.633452-0.863157 4.217881-2.964106h6.155988c-0.584429 4.939177-4.046049 7.410763-10.373869 7.410763-7.268901 0.12288-10.849405-3.951141-10.730521-12.224062 0.351657-8.030158 3.926166-12.22706 10.730521-12.596699 4.691419 0 7.912273 1.855188 9.67655 5.555575a11.24302 11.24302 0 0 1 1.2288 4.256843c0.113889 1.488546 0.174829 3.027044 0.17483 4.632476z m-15.044309-4.665444h8.274919c0-3.008062-1.409623-4.513592-4.22887-4.513592-2.578482 0-3.921171 1.50553-4.046049 4.512593z m25.545054-8.493705v2.646415l0.181822 0.179825c1.295735-2.235817 3.601483-3.359719 6.916246-3.359719 4.130966 0.473538 6.623532 2.117932 7.445729 4.94517 0.354654 1.414619 0.530482 2.589471 0.530482 3.532551v14.840507h-6.915247V564.468761c0-3.528554-1.356675-5.300823-4.080015-5.300823-2.357698 0.234771-3.721366 2.00704-4.079017 5.300823v13.601717h-6.739418v-22.784749h6.739418z m37.640242 23.537014h-18.804636v-4.697412l12.138146-13.920406h-11.793483v-4.70041h18.118307v4.70041l-12.138147 13.920406h12.479813v4.697412z m12.008273 0h-6.743414v-33.848944h6.743414v13.177132h0.182822c1.291739-2.316738 3.600484-3.480601 6.915246-3.480601 4.131965 0.489522 6.619536 2.193858 7.442732 5.121998 0.357651 1.46457 0.530482 2.68238 0.530482 3.659426v15.370989h-6.915247v-14.088242c0-3.656429-1.353678-5.491637-4.079016-5.491637-2.358697 0.243762-3.722365 2.079969-4.07602 5.491637v14.088242zM484.169179 568.444878h-14.9504c-0.121881 4.080016 1.168859 6.055087 3.872218 5.92921 2.220831 0.125877 3.633452-0.863157 4.217881-2.964106h6.15399c-0.584429 4.939177-4.043052 7.410763-10.371871 7.410763-7.272898 0.12288-10.855399-3.951141-10.732519-12.224062 0.351657-8.030158 3.924168-12.22706 10.732519-12.596699 4.692418 0 7.909276 1.855188 9.674552 5.555575a11.242021 11.242021 0 0 1 1.2288 4.256843c0.113889 1.488546 0.174829 3.027044 0.17483 4.632476z m-15.044309-4.665444h8.274919c0-3.008062-1.41262-4.513592-4.22887-4.513592-2.578482 0-3.921171 1.50553-4.046049 4.512593z m25.54905-8.493705v2.646415l0.178825 0.179825c1.294736-2.235817 3.603481-3.359719 6.915247-3.359719 4.131965 0.473538 6.623532 2.117932 7.445729 4.94517 0.357651 1.414619 0.530482 2.589471 0.530482 3.532551v14.840507h-6.915247V564.468761c0-3.528554-1.353678-5.300823-4.079016-5.300823-2.358697 0.234771-3.722365 2.00704-4.07602 5.300823v13.601717h-6.743415v-22.784749h6.743415z m39.141776-4.285815v9.018193h6.105038c3.446634 0 5.176944-1.596441 5.176944-4.785327 0-2.946123-1.729311-4.359742-5.176944-4.233865h-6.106037z m1.046977 14.287048v13.53678h-7.0651v-33.849943h13.95637c7.424749 0.124878 11.194068 3.053019 11.307957 8.784421-0.113889 4.39271-2.353701 7.133034-6.713443 8.234959v0.177826c3.650435 0.124878 5.598533 2.625436 5.831305 7.502673 0.119883 0.492519 0.171832 0.851169 0.171832 1.100925 0.353655 4.021073 0.943079 6.706451 1.773268 8.04814h-7.600577c-0.709307-2.927141-1.114911-5.981159-1.234794-9.150064-0.233772-2.925143-1.23879-4.385717-3.01106-4.385717h-7.415758z m37.403473 13.181128l-0.351656-2.849218c-1.526509 2.134915-3.814275 3.203871-6.864297 3.203871-4.10599-0.354654-6.62553-1.958088-7.564613-4.805307-0.232773-0.950072-0.352656-2.134915-0.352655-3.562521v-14.9504h6.687469v13.886439c0.11289 3.442638 1.465569 5.157963 4.047048 5.157963 2.572488-0.236769 3.925167-1.953093 4.047048-5.156964v-13.886439h6.861299v18.867575c0 0.47054 0.057943 1.123902 0.171832 1.962084v2.132917h-6.681475z m11.946334-23.508043h5.921218v4.297803h0.17383c1.241787-3.224851 3.728359-4.716394 7.44473-4.481624v6.09305h-2.872196c-1.582455 0.359649-2.651411 0.895126-3.221853 1.613424-0.332675 0.835184-0.621393 1.972074-0.845175 3.402678V578.070478h-6.426724V558.005073c-0.114888-1.314716-0.17383-2.332722-0.17383-3.045026z m30.080624 11.895383c-5.012105-0.391618-7.513662 0.914107-7.513662 3.921171 0.113889 2.227824 1.280749 3.406673 3.479602 3.533549 2.807259 0 4.152944-2.487571 4.035059-7.45472z m-5.856281-5.443684h-6.598556c0.119883-2.720343 1.184843-4.695415 3.210865-5.926212 1.544492-0.989034 3.806283-1.485549 6.784374-1.48555 6.418732 0 9.630595 2.960109 9.630595 8.887321v12.967337c0 0.24576 0.06094 0.489522 0.181823 0.741276 0.114888 0.489522 0.176827 1.10592 0.176827 1.848195h-6.068074c-0.238767-1.111914-0.359649-2.153897-0.359649-3.142931-1.42361 2.463594-3.806283 3.636449-7.133034 3.51257-4.879235-0.242763-7.376796-2.523536-7.500675-6.846314 0.244761-3.579504 1.90514-6.116027 5.004113-7.594583 2.137912-0.869151 5.115005-1.295735 8.922287-1.295735v-2.227824c-0.241764-1.848195-1.308722-2.833233-3.210864-2.963107-1.790252 0.129873-2.804261 1.298732-3.040032 3.526556z m17.147255 17.410997v-33.848944h7.522654v33.848944h-7.522654z m50.397783-23.007531h-7.34183c-0.229776-4.104991-2.323731-6.21593-6.283863-6.339809-3.846244 0.241764-5.881257 4.345756-6.118026 12.322966 0.236769 7.845339 2.271781 11.893385 6.118026 12.135149 4.079017-0.123879 6.171973-2.234818 6.283863-6.339809h7.342829c-0.349659 7.365807-4.891223 11.109151-13.626692 11.229034-8.736468-0.237768-13.223087-5.91822-13.453862-17.023375 0.349659-11.35591 4.830283-17.216187 13.453862-17.577834 8.616585 0.123879 13.157151 3.987106 13.626692 11.593678z m26.32729 10.78247c-0.341666 7.90528-4.232866 11.982299-11.658614 12.225061-7.426747-0.242763-11.311953-4.319781-11.659614-12.225061 0.34766-8.030158 4.232866-12.228059 11.658615-12.597698 7.426747 0.369639 11.317947 4.56754 11.659613 12.597698z m-15.796573-0.090911c0 5.199922 1.600437 7.80238 4.800312 7.80238 3.319758 0 4.972144-2.602459 4.972144-7.80238 0.120882-5.326798-1.540496-7.993194-4.972144-7.993194-3.199875 0-4.800312 2.666396-4.800312 7.992195z m27.662985-11.215048v2.827239h0.176827c1.503532-2.235817 3.754334-3.359719 6.76939-3.359719 3.585499 0.351657 5.951188 1.768273 7.11605 4.241857 1.850193-2.947122 4.391711-4.356745 7.635544-4.241857 3.356722 0.351657 5.72441 1.768273 7.11605 4.241857 0.461549 1.174853 0.691325 2.998072 0.691325 5.471657v13.597721h-6.769389v-13.596722c0-3.529553-1.327703-5.300823-3.992101-5.300823-2.311742 0.234771-3.646439 2.00704-3.993101 5.299824v13.597721h-6.590564v-13.596722c-0.117885-3.529553-1.451582-5.300823-3.9931-5.300823-2.544515 0.234771-3.878213 2.00704-3.990104 5.299824v13.597721h-6.777381v-22.777756h6.599555z m41.368601 0v2.827239h0.177826c1.502533-2.235817 3.754334-3.359719 6.76939-3.359719 3.586498 0.351657 5.954185 1.768273 7.117049 4.241857 1.85319-2.947122 4.390712-4.356745 7.635544-4.241857 3.356722 0.351657 5.725409 1.768273 7.120047 4.241857 0.458552 1.174853 0.688328 2.998072 0.688327 5.471657v13.597721h-6.770388v-13.596722c0-3.529553-1.327703-5.300823-3.9931-5.300823-2.307746 0.234771-3.642443 2.00704-3.992102 5.299824v13.597721h-6.591563v-13.596722c-0.117885-3.529553-1.452581-5.300823-3.990103-5.300823-2.550509 0.234771-3.884207 2.00704-3.993101 5.299824v13.597721h-6.776382v-22.777756h6.598556zM812.130903 568.444878h-14.952398c-0.118884 4.080016 1.171856 6.055087 3.875216 5.92921 2.219832 0.125877 3.630455-0.863157 4.213885-2.964106h6.155988c-0.586427 4.939177-4.046049 7.410763-10.369873 7.410763-7.272898 0.12288-10.853401-3.951141-10.734517-12.224062 0.351657-8.030158 3.926166-12.22706 10.734517-12.596699 4.688421 0 7.908277 1.855188 9.672554 5.555575a11.298966 11.298966 0 0 1 1.229799 4.256843c0.11289 1.488546 0.174829 3.027044 0.174829 4.632476z m-15.045307-4.665444h8.274919c0-3.008062-1.41262-4.513592-4.225873-4.513592-2.581479 0-3.924168 1.50553-4.048047 4.512593z m18.805635-8.819387h5.921218v4.297803h0.17383c1.241787-3.224851 3.725362-4.716394 7.44473-4.481624v6.09305h-2.875192c-1.580457 0.359649-2.647415 0.895126-3.218857 1.613424-0.332675 0.835184-0.621393 1.972074-0.845175 3.402678V578.070478h-6.426724V558.005073c-0.114888-1.314716-0.17383-2.332722-0.17383-3.045026z m36.105741 8.12007h-6.713444c-0.232773-2.961108-1.41262-4.449655-3.537546-4.449655-1.640398 0-2.644418 2.284769-2.997073 6.852309v1.488546c0.232773 4.939177 1.295735 7.404769 3.177897 7.404769 2.118931 0 3.243832-1.542494 3.356722-4.633475h6.713444c-0.352656 6.056086-3.70638 9.081132-10.070166 9.081131-6.359789-0.243762-9.772457-4.32078-10.239001-12.22606 0.586427-7.904281 4.002092-12.101182 10.24-12.597698 6.473678 0.243762 9.836394 3.271805 10.070166 9.081132z m3.009061 15.742626v-23.317229h7.522654v23.317229h-7.522654z m0-28.584085v-6.017124h7.522654v6.017124h-7.522654z m25.568031 16.616772c-5.013104-0.391618-7.514661 0.914107-7.514661 3.921171 0.117885 2.227824 1.280749 3.406673 3.479602 3.533549 2.807259 0 4.152944-2.487571 4.035059-7.45472z m-6.609545-5.443684h-6.598556c0.120882-2.720343 1.184843-4.695415 3.210864-5.926212 1.544492-0.989034 3.806283-1.485549 6.784375-1.48555 6.418732 0 9.630595 2.960109 9.630595 8.887321v12.967337c0 0.24576 0.06194 0.489522 0.182822 0.741276 0.114888 0.489522 0.176827 1.10592 0.176827 1.848195h-6.07207c-0.231774-1.111914-0.356652-2.153897-0.356652-3.142931-1.420613 2.463594-3.806283 3.636449-7.132035 3.51257-4.880234-0.242763-7.376796-2.523536-7.501674-6.846314 0.24576-3.579504 1.90514-6.116027 5.005112-7.594583 2.13991-0.869151 5.115005-1.295735 8.921288-1.295735v-2.227824c-0.241764-1.848195-1.308722-2.833233-3.210865-2.963107-1.790252 0.129873-2.801264 1.298732-3.040031 3.526556z m17.89952 17.410997v-33.848944h7.522654v33.848944h-7.522654z m32.345413-6.044097h5.551578c3.934158 0.249756 5.841296-1.21881 5.726408-4.39271 0.114888-3.300777-1.79225-4.82329-5.726408-4.582525h-5.551578v8.974236z m0-13.512804h5.319805c2.9701 0 4.458646-1.347684 4.458645-4.042053 0-2.82624-1.488546-4.232866-4.458645-4.232866h-5.319805v8.274919z m4.825288 19.556901h-12.347942v-33.848944h12.347942c7.524652 0 11.467801 2.92814 11.813463 8.784421-0.11289 3.533549-2.053994 5.978162-5.819317 7.320851v0.177827c4.706404 1.217811 7.113054 4.145951 7.232936 8.784421-0.352656 5.48864-4.76135 8.41678-13.227082 8.781424z m29.768928-11.967313c-5.011106-0.391618-7.514661 0.914107-7.514661 3.921171 0.117885 2.227824 1.283746 3.406673 3.478603 3.533549 2.807259 0 4.150946-2.487571 4.036058-7.45472z m-5.856281-5.443684h-6.603551c0.121881-2.720343 1.188839-4.695415 3.214861-5.926212 1.545491-0.989034 3.807282-1.485549 6.783375-1.48555 6.419731 0 9.633592 2.960109 9.633592 8.887321v12.967337c0 0.24576 0.059941 0.489522 0.179825 0.741276 0.114888 0.489522 0.176827 1.10592 0.176827 1.848195h-6.069073c-0.23577-1.111914-0.356652-2.153897-0.356652-3.142931-1.42361 2.463594-3.806283 3.636449-7.136031 3.51257-4.877237-0.242763-7.375797-2.523536-7.499676-6.846314 0.244761-3.579504 1.90514-6.116027 5.002115-7.594583 2.140909-0.869151 5.119001-1.295735 8.926283-1.295735v-2.227824c-0.244761-1.848195-1.312718-2.833233-3.213862-2.963107-1.791251 0.129873-2.802263 1.298732-3.038033 3.526556z m24.641936-6.126017v2.646415l0.181822 0.179825c1.291739-2.235817 3.601483-3.359719 6.915247-3.359719 4.131965 0.473538 6.620535 2.117932 7.446728 4.94517 0.354654 1.414619 0.526486 2.589471 0.526486 3.532551v14.840507h-6.915247V564.468761c0-3.528554-1.353678-5.300823-4.076019-5.300823-2.361694 0.234771-3.724363 2.00704-4.079017 5.300823v13.601717h-6.743415v-22.784749h6.743415z m27.261377-10.31193V564.918322l6.733425-9.883348h7.624554l-7.982205 10.251988 8.512687 13.53678h-7.972215l-6.916246-12.812487v12.811488H997.925463v-33.848944h6.925237z" fill="#1B1918"></path></svg>