<svg viewBox="0 0 1024 1024" version="1.1" xmlns="http://www.w3.org/2000/svg"><path d="M225.120623 0h573.758754c123.119066 0 223.128405 100.009339 223.128405 223.128405v573.758755c0 123.119066-100.009339 223.128405-223.128405 223.128404H225.120623c-123.119066 0-223.128405-100.009339-223.128405-223.128404V223.128405C1.992218 100.009339 102.001556 0 225.120623 0z" fill="#FFFFFF"></path><path d="M511.601556 533.914397L312.77821 337.481712c32.672374-32.27393 64.946304-65.344747 97.618677-97.618677 3.984436-3.984436 5.57821-4.781323 13.148638-4.781323h176.90895c4.781323 0 8.765759 1.593774 11.15642 4.382879l99.610895 98.415565-199.620234 196.034241z m238.269261-157.783658l123.915953 122.720623c6.375097 7.171984 6.773541 17.929961-1.19533 24.703502-86.063813 85.66537-170.533852 170.135409-256.597666 255.800778-3.585992 3.585992-5.976654 5.57821-10.757976 5.57821l-180.096498-0.398443c-7.171984-0.796887-9.164202-1.195331-14.343969-5.578211l-256.597666-255.003891c-6.773541-7.171984-7.171984-18.328405 0-27.094163L277.316732 374.536965l236.675486 236.277043 235.878599-234.683269z" fill="#006599"></path></svg>