<svg style="width: 1.009765625em;height: 1em;vertical-align: middle;fill: currentColor;overflow: hidden;"  viewBox="0 0 1034 1024" version="1.1" xmlns="http://www.w3.org/2000/svg"><path d="M98.518575 473.120316c6.766075-7.674951 18.58146-8.381854 26.357397-1.61578 7.674951 6.867061 8.381854 18.682446 1.514793 26.357397-6.867061 7.674951-18.682446 8.381854-26.357397 1.514793-7.573964-6.766075-8.381854-18.682446-1.514793-26.25641" fill="#009863"></path><path d="M77.917392 506.647732c2.12071 3.635503 4.847337 7.069034 8.179882 9.997633 4.948323 4.443393 10.704536 7.371992 16.763708 8.886785 0.201972 0.908876-0.201972 1.817751-0.504931 2.9286-0.100986 0.504931 0.201972 1.413807 0.201972 2.221696 0.201972 5.756213-4.948323 12.623274-3.837475 15.147929 1.817751 3.231558 0.302959 11.714398 1.211834 14.239053 1.110848 2.9286-0.80789 10.098619-0.302958 12.72426 0.605917 3.231558-2.12071 8.48284-2.423669 9.593689-0.504931 2.019724-3.332544 1.817751-3.231558 4.847337 0 1.514793-4.847337 4.948323-4.746351 6.463116-3.332544 5.04931-8.886785 8.886785-13.229192 13.330178-0.80789-0.706903-9.997633 6.867061-10.906509 7.977909-1.615779 1.817751-7.977909 12.421302-12.017357 12.522288-0.908876 0.100986-1.615779 0.80789-2.423668 1.110848-1.009862 0.504931-3.231558-2.625641-3.433531-3.837475-0.302959-1.514793-3.837475-7.271006-6.059171-8.583827-2.12071-1.413807-4.443393-5.554241-4.140434-6.968047 0.100986-0.504931 1.110848-3.736489 0.706903-4.039448 1.110848-1.211834 0.100986-3.837475 0.201972-5.55424 0.100986-0.504931 2.9286-3.332544 2.524655-3.736489 1.211834-1.413807 3.130572-6.968047 2.019724-8.078896 0.302959-1.110848 1.413807-3.534517 1.009862-4.443392-0.605917-1.312821 1.716765-8.886785 1.918738-8.987772-1.009862-2.9286-1.615779-7.775937 0.403945-10.300591 0.605917-2.019724 3.837475-7.977909 8.381854-9.593689 2.423669-0.908876 12.825247-10.098619 13.330177-11.613412 1.716765-5.150296 6.766075-8.381854 10.199606-13.229191 0.403945-0.403945 2.019724-5.554241 2.322682-5.857199 0.706903-1.514793 1.413807-5.453254 1.211834-6.463117-0.201972-0.80789-0.80789-0.80789-1.211834-1.110848 0.100986-0.605917-0.605917-0.302959-0.201972-1.110848-0.706903-0.504931-0.504931-1.918738-2.524655-2.9286-1.110848-0.100986-2.019724-0.908876-3.130572-1.31282-1.413807-0.706903-3.029586-2.625641-4.24142-3.130572-0.80789-0.302959-4.746351-2.322682-5.453255-2.221696-1.110848 0.201972-3.130572 0.403945-4.140434 0.605917-1.211834 0.201972-5.958185 2.423669-8.886785 1.110848-0.403945 0.403945-5.453254 0.504931-6.059171 1.110848-2.423669 0.100986-5.150296 2.827613-4.847337 2.524655-0.706903 0.706903-3.332544 1.211834-4.443393 1.211834-0.201972 0.100986-3.029586-0.201972-3.635503-0.403945-2.524655-2.221696-8.280868-7.573964-21.106114-12.320315l-1.211835-1.110848c-1.312821 1.514793-5.150296-3.231558-5.958185-4.039448-0.100986-0.80789-0.100986-1.716765 0-2.524655 2.423669-2.726627-6.463116-10.098619-3.635503-13.229191-0.100986-1.211834 1.514793-3.231558-0.100986-4.746351-0.908876-1.211834 1.413807-3.635503 2.524655-3.635503 0.403945-0.504931 3.938462-0.403945 4.948323-1.514793 1.312821 0.201972 3.534517-3.130572 4.342406-4.039448 11.108481-7.371992 27.165286 0.504931 32.921499 3.433531 9.492702 5.150296 17.268639 7.271006 22.620908 11.916371 1.716765 1.110848 3.433531 0.80789 5.049309 1.211834-1.110848 7.977909 0.302959 16.157791 3.938462 23.630769 0.100986-0.100986 1.009862 1.716765 1.110848 1.918738" fill="#EC1D24"></path><path d="M121.947372 448.277712c0.302959-0.605917 0.504931-1.110848 0.706904-1.716765 0.504931-0.80789 1.615779-1.615779 1.514793-2.524655 0-0.605917 0.80789-4.342406 0.605917-4.847337-0.504931-1.110848-0.605917-2.625641-1.110848-3.635503-9.088757-12.219329-15.65286-18.783432-23.731756-24.236687-3.837475-2.726627-7.775937-6.261144-10.502564-10.300591l-2.221696-3.332545c-0.605917-0.80789-1.413807-1.211834-2.019724-1.817751-0.201972 0-0.504931 0-0.80789 0.100986-0.605917 0.201972-1.211834 1.009862-2.019723 1.211834l-0.403945-0.201972c-1.110848 0.403945-3.130572 3.938462-2.524655 4.443392-0.302959 1.211834-5.352268 5.554241-6.160158 8.179882l0.100986 1.110848c-1.110848 1.211834-1.817751 3.938462-2.221696 5.958186 0 0.403945 0.302959 0.302959 0.403945 0.50493-0.80789 2.322682-0.201972 2.524655-0.403945 3.534517-0.201972 0.201972 0.201972 4.24142 0.504931 4.443393-0.201972 1.110848 0.100986 4.039448 0.504931 4.443392 0.403945 0.706903 0.403945 1.211834 0.605917 1.817752 0.80789 0.706903 1.716765 5.453254 1.110848 6.261144 0.100986 1.009862 0.605917 5.857199 1.110848 6.261144 0.80789 0.605917 0.504931 3.130572 0.504931 4.140434 1.211834 2.827613 6.059172 6.867061 8.078896 6.766075l2.928599 2.726627c9.694675-8.684813 23.125838-11.916371 35.446154-9.29073" fill="#F89C1C"></path><path d="M114.777353 527.753846c0.201972 0.80789-0.100986 0.403945 0.302958 1.211834 1.716765 2.9286 10.704536 10.098619 10.60355 13.229192 0.403945 0.403945 2.12071 2.524655 1.716766 2.726627 0.80789 0.908876 6.36213 7.472978 4.847337 8.684813 1.110848 1.211834 1.413807 3.029586 2.423669 4.342406l-0.100987 1.514793c3.938462 4.645365 4.443393 8.987771 11.512427 10.098619 4.443393 0.302959 8.280868-2.423669 11.613412-2.322682 7.069034 0.100986 11.41144 1.312821 14.542012-0.80789 3.029586 0.403945 9.997633-5.655227 12.421301-7.472978 2.827613-3.635503-0.100986-11.916371-0.504931-17.369625-1.110848-1.211834-3.837475-5.251282-8.381854-6.766075-2.827613-3.332544-11.209467-8.583826-15.753846-9.189744l-1.110848-1.31282c-5.453254-0.80789-10.502564-6.059172-15.248915-10.09862-0.100986 0.100986-0.100986 0.201972-0.201973 0.201973-7.775937 8.280868-18.177515 12.825247-28.680078 13.330177" fill="#231F20"></path><path d="M160.019167 502.70927l0.403945 0.302959 1.716765-1.110848c3.534517-0.706903 6.867061-4.443393 9.694675-5.8572 6.665089-3.231558 13.936095-2.726627 20.197238-6.36213 9.795661-5.150296 16.96568-10.704536 18.985405-21.914004-0.100986-0.80789 0.504931-4.746351-0.201973-5.453254 0.908876-1.110848-0.706903-2.524655 0-3.332544-0.403945-0.302959-0.504931-1.009862-0.504931-1.009862l-2.423668-2.12071c-0.504931 0-1.211834-0.100986-1.615779-0.100987-0.706903 0.706903-2.019724 0.706903-2.726628 1.514793-2.524655-0.504931-5.857199-0.201972-7.472978-1.31282-4.443393-3.534517-8.785799-4.140434-14.84497-6.261144-1.110848 0.403945-4.544379 0.908876-5.756213-0.100986-0.706903 0.706903-2.221696 0-3.029586 0-4.342406 0.80789-14.642998 6.564103-20.601183 6.968047-2.726627-0.403945-1.716765 0.403945-4.544379 0.302958-1.211834-1.110848-5.251282-0.706903-6.160158-1.413806-0.706903 0.302959-1.413807 0.201972-2.019724-0.302959-1.110848-0.201972-1.413807-0.201972-2.423668-0.100986 1.312821 0.908876 2.625641 1.918738 3.837475 3.029586 13.027219 11.41144 16.763708 29.386982 10.704536 44.534911 5.655227 1.918738 5.04931-1.312821 8.785799 0.100986" fill="#0066B2"></path><path d="M341.188398 465.142406v9.492702h29.992899v8.684813h-15.248915c1.615779 12.522288 8.987771 24.842604 15.248915 31.103748V526.138067c-14.945957-5.958185-25.549507-28.781065-27.165286-42.71716h-2.928599v42.515188h-11.815385v-42.616174H326.343428c-1.514793 14.037081-12.118343 36.859961-27.165286 42.71716v-11.714399c6.261144-6.261144 13.734122-18.58146 15.248915-31.103747h-15.248915V474.635108h29.992899v-9.492702h12.017357zM319.274394 449.691519h11.916371C326.343428 463.526627 316.244808 470.595661 299.380114 470.595661v-9.391716c11.41144 0 16.763708-5.04931 19.89428-11.512426z m-19.89428-13.633136h71.801183v15.147929h-11.815384v-6.463117H311.195499v7.674951h-11.815385v-16.359763z m-23.630769 78.567258c5.554241-6.160158 9.997633-12.320316 9.997633-28.579093h11.815384c0 20.601183-7.674951 34.335306-21.813017 39.990533v-11.41144z m11.714398-78.567258c2.221696 4.342406 4.140434 6.463116 10.098619 11.613412v12.017357c-12.825247-7.775937-17.77357-12.926233-21.813017-23.630769h11.714398z m0 19.995266c2.221696 4.342406 4.140434 6.36213 10.098619 11.613412v12.118343c-12.825247-7.775937-17.77357-12.926233-21.813017-23.630769h11.714398z m69.276529 0.605917c1.312821 2.9286 5.251282 3.130572 5.251282 3.130572h11.007495v8.987771h-14.945957c-6.059172 0-9.29073-1.716765-11.613412-6.867061l-5.251282-11.310454h12.219329l3.332545 6.059172z m113.609467 70.387377v-90.98856h10.906509v90.98856h-10.906509z m-21.813018-5.453255v-85.535305h10.906509v85.535305H448.536721z m-24.034714-19.995266v-65.540039h12.320316v69.983432c0 7.069034-5.150296 19.389349-19.793294 21.005128v-11.916371c-14.84497 4.24142-21.409073 5.958185-33.022485 7.371992V512c3.837475-0.403945 7.17002-0.80789 10.401578-1.413807v-48.473372h-10.300592v-8.785799h10.300592v-17.268639h12.320315v17.268639h10.300592v8.785799h-10.300592v45.544773c3.130572-0.80789 6.463116-1.817751 10.300592-2.9286V515.029586c5.554241-2.12071 7.472978-5.958185 7.472978-13.431164z m318.712426 3.534517c-13.330178-7.977909-22.519921-38.576726-26.357396-52.714793h11.916371c1.211834 6.160158 10.60355 33.224458 14.441025 37.768836v14.945957z m69.175543-52.714793c-3.938462 14.239053-13.027219 44.736884-26.357397 52.714793v-14.945957c3.938462-4.544379 13.330178-31.608679 14.441026-37.768836h11.916371z m-26.458383-16.359763v82.101775h28.276134v8.785799H716.857037v-8.785799h28.276134v-82.101775h11.916371v82.101775h16.96568v-82.101775h11.916371z m-191.873767 14.441025h-42.71716v10.906509H587.897668V514.524655c0 4.342406-2.726627 7.271006-8.785799 7.271006H563.660982v-9.896647h10.199605c1.413807 0 2.12071-0.504931 2.12071-1.918738v-39.78856h-24.640631v56.855227H539.424295v-56.855227h-24.640631v51.603945h-11.916371V461.405917H539.424295v-10.906509h-42.717159v-8.785799H539.424295v-5.55424h11.916371v5.55424h42.71716v8.785799z m380.213018-6.261144V434.240631h58.168047v9.997633h-58.168047z m59.985799 13.633136v9.593689h-10.704537v52.209862c0 4.342406-2.827613 7.371992-8.886785 7.371992h-15.65286V517.04931h10.300592c1.413807 0 2.12071-0.504931 2.12071-1.918738v-47.665483H970.635341v-9.593689h63.621302z m-97.350691 17.470612c8.179882-2.9286 16.96568-8.886785 21.409073-17.470612H970.635341c-2.524655 6.463116-7.17002 12.219329-10.09862 15.854833v53.219724h-12.320315v-45.443787c-2.524655 2.12071-7.876923 4.544379-11.209468 5.756213v-11.916371z m28.276134-39.283629c-5.04931 14.037081-15.551874 22.418935-28.175148 26.357396v-11.108481c6.766075-1.514793 14.542012-9.189744 16.258778-15.248915h11.91637zM667.979719 460.497041l3.534517-10.098619h-33.931361l3.534517 10.098619h26.862327z m-1.31282 20.601184l-5.04931-11.714399h-13.835108c-2.726627 7.573964-6.968047 13.229191-12.118343 16.662722h34.234319c-1.312821-1.211834-2.322682-2.726627-3.231558-4.948323z m-24.034714 26.559369h23.832742V494.832347h-23.832742v12.825247z m60.591716-57.158186h-19.793294l-3.534517 10.09862h20.399211V519.775937c0 4.342406-2.726627 7.271006-8.785799 7.271006h-15.450887v-9.896647h10.199605c1.413807 0 2.12071-0.504931 2.12071-1.918738v-45.847732h-14.945956l3.130572 6.261144c1.312821 3.130572 5.04931 3.332544 5.04931 3.332545h4.847337v9.492702h-8.078896v28.074162h-47.665483v-28.074162c-2.827613 1.110848-5.756213 1.615779-8.785799 1.615779v-9.492702c5.453254 0 10.704536-4.847337 13.835109-11.209468h-15.753846v57.663117H608.094907V460.497041h21.106114l-3.534517-10.098619h-19.793293v-8.785799h42.717159v-5.55424h11.916371v5.55424h42.71716v8.886785z m136.836292 2.019724c-4.342406 5.958185-7.876923 8.886785-12.21933 9.896647v-11.209467c5.655227-4.746351 6.867061-8.684813 8.078896-15.147929h10.098619c-0.302959 2.221696-1.009862 4.847337-1.817751 7.069033h23.731755v9.391716h-27.872189z m-12.21933 19.692308v-8.886785h39.990533v8.886785h-14.239053v16.359763h14.239053v8.886785h-14.239053v17.77357c0 1.413807 0.706903 1.918738 2.019724 1.918738h12.219329v9.896647h-17.268639c-5.857199 0-8.583826-2.9286-8.583827-7.271006v-22.317949h-14.239053v-8.886785h14.239053v-16.359763h-14.138067z m56.451282 0.403945h28.983038v-9.492703h-28.983038v9.492703z m0-18.278501h28.983038v-9.492703h-28.983038v9.492703z m25.145563 49.584221c3.130572 3.635503 8.684813 8.280868 15.753846 11.815384v11.310454c-22.620907-9.29073-32.113609-24.438659-36.960947-45.544773h-3.938462v33.729388c0 1.413807 0.706903 1.918738 2.120711 1.918738H898.935144v9.896647h-17.672584c-6.059172 0-8.785799-2.9286-8.785799-7.271006v-83.717554H925.191554v45.443787h-25.852466c1.211834 5.352268 2.524655 10.199606 4.746351 13.936094 4.342406-2.9286 7.271006-5.756213 9.492703-10.199605h11.512426c-4.342406 8.078895-8.987771 13.128205-15.65286 18.682446z m-229.440632 63.92426c0.302959 1.413807 0.504931 3.534517 0.504931 6.36213v16.258777h-7.371992v-13.53215c0-4.140434-0.403945-7.17002-1.31282-8.684812-1.009862-1.514793-2.625641-2.423669-5.04931-2.423669s-4.039448 0.80789-5.04931 2.423669c-0.908876 1.514793-1.514793 4.342406-1.615779 8.280868v13.936094h-7.371992v-14.037081c0-3.938462-0.403945-6.665089-1.31282-8.179881-1.009862-1.514793-2.625641-2.423669-5.04931-2.423669s-4.039448 0.80789-5.04931 2.423669c-1.009862 1.514793-1.514793 4.544379-1.514792 8.684812v13.53215h-7.371993v-16.258777c0-2.726627 0.201972-4.847337 0.504931-6.36213 0.302959-1.413807 0.80789-2.726627 1.615779-3.837475 1.110848-1.716765 2.524655-2.9286 4.241421-3.837476 2.625641-1.312821 5.958185-1.615779 7.573964-1.615779 1.615779 0 4.948323 0.302959 7.674951 1.615779 0.908876 0.504931 1.817751 1.110848 2.625641 1.817752 0.80789-0.706903 1.615779-1.413807 2.625641-1.817752 2.625641-1.312821 5.958185-1.615779 7.573964-1.615779 1.615779 0 4.948323 0.302959 7.573965 1.615779 1.716765 0.80789 3.130572 2.12071 4.24142 3.837476 0.504931 1.110848 1.009862 2.423669 1.31282 3.837475z m52.714793 0c0.302959 1.413807 0.504931 3.534517 0.504931 6.36213v16.258777h-7.371992v-13.53215c0-4.140434-0.403945-7.17002-1.31282-8.684812-1.009862-1.514793-2.625641-2.423669-5.04931-2.423669s-4.039448 0.80789-5.04931 2.423669c-0.908876 1.514793-1.514793 4.342406-1.514793 8.280868v13.936094h-7.371992v-13.936094c0-3.938462-0.403945-6.766075-1.31282-8.280868-1.009862-1.514793-2.625641-2.423669-5.04931-2.423669s-4.039448 0.80789-5.049309 2.423669c-1.009862 1.514793-1.514793 4.544379-1.514793 8.684812v13.53215h-7.371992v-16.258777c0-2.726627 0.201972-4.847337 0.50493-6.36213 0.302959-1.413807 0.80789-2.726627 1.514793-3.837475 1.110848-1.716765 2.524655-2.9286 4.24142-3.837476 2.625641-1.312821 5.958185-1.615779 7.573965-1.615779 1.615779 0 4.948323 0.302959 7.573964 1.615779 1.009862 0.504931 1.817751 1.110848 2.625642 1.817752 0.80789-0.706903 1.615779-1.413807 2.625641-1.817752 2.625641-1.312821 5.958185-1.615779 7.573964-1.615779 1.615779 0 4.948323 0.302959 7.573965 1.615779 1.716765 0.80789 3.130572 2.12071 4.24142 3.837476 0.605917 1.110848 1.110848 2.423669 1.413806 3.837475z m-326.488363 0c0.302959 1.413807 0.504931 3.534517 0.504931 6.36213v16.258777h-7.472978v-13.53215c0-4.140434-0.403945-7.17002-1.413807-8.684812-1.009862-1.514793-2.726627-2.423669-5.150295-2.423669-2.423669 0-4.140434 0.80789-5.150296 2.423669-1.009862 1.514793-1.615779 4.544379-1.615779 8.684812v13.53215h-7.472979v-16.258777c0-2.726627 0.201972-4.847337 0.504931-6.36213 0.302959-1.413807 0.80789-2.726627 1.615779-3.837475 1.110848-1.716765 2.625641-2.9286 4.342407-3.837476 2.726627-1.312821 6.059172-1.615779 7.67495-1.615779 1.716765 0 5.04931 0.302959 7.775937 1.615779 1.716765 0.80789 3.130572 2.12071 4.342407 3.837476 0.706903 1.110848 1.211834 2.423669 1.514792 3.837475z m432.220908-1.514793c1.009862-2.221696 2.524655-4.24142 4.443392-5.958185 1.413807-1.211834 3.029586-2.12071 4.746351-2.827614 1.716765-0.605917 3.534517-0.908876 5.453255-0.908876h0.605917c9.29073 0 16.864694 7.573964 16.864694 16.864695v15.753846h-7.573964v-15.551874-0.403945c0-2.625641-0.908876-4.847337-2.625641-6.665088-1.716765-1.817751-3.837475-2.726627-6.261144-2.726628-2.726627 0-5.04931 0.908876-6.867061 2.726628-1.817751 1.817751-2.726627 4.039448-2.726628 6.766075 0 2.625641 0.908876 4.847337 2.726628 6.766074 1.817751 1.918738 4.039448 2.827613 6.564102 2.827614 2.625641 0 4.746351-0.908876 6.564103-2.726627 0.403945-0.403945 0.706903-0.80789 1.009862-1.312821v9.29073c-0.80789 0.504931-1.716765 0.908876-2.625641 1.211834-1.615779 0.605917-3.433531 0.80789-5.453255 0.80789-2.12071 0-4.039448-0.403945-5.958185-1.110848-1.918738-0.706903-3.534517-1.817751-5.04931-3.231559-1.716765-1.615779-3.029586-3.433531-3.938461-5.655226-0.908876-2.12071-1.413807-4.443393-1.413807-6.867061 0-2.322682 0.504931-4.746351 1.514793-7.069034z m-50.695069-0.908876c-2.9286 0.201972-4.948323 1.009862-6.160158 2.221697-1.110848 1.211834-1.716765 3.534517-1.716765 6.766074v15.955819h-7.573965v-31.406706h7.069034v3.635503c1.110848-1.413807 2.423669-2.423669 3.736489-3.130572 1.413807-0.706903 2.9286-1.009862 4.645365-1.009862v6.968047z m-19.995267 1.817752l-21.813017 12.825246c1.312821 1.817751 3.029586 3.029586 5.049309 3.332545 2.019724 0.403945 4.039448-0.100986 6.160158-1.312821 1.413807-0.80789 2.524655-1.918738 3.332545-3.130572 1.211834-1.817751 1.615779-5.453254 1.110848-7.069033l5.453254 9.593688c-1.413807 2.827613-3.231558 4.746351-6.261144 6.564103-2.019724 1.211834-4.140434 1.918738-6.261144 2.221696-2.12071 0.302959-4.24142 0.100986-6.463116-0.504931-2.019724-0.605917-3.938462-1.615779-5.655227-2.9286-1.716765-1.413807-3.130572-3.029586-4.140434-4.847337-1.110848-1.918738-1.817751-3.938462-2.12071-6.059172-0.302959-2.12071-0.201972-4.140434 0.302959-6.261144 0.504931-2.322682 1.413807-4.342406 2.726627-6.261144 1.312821-1.817751 2.827613-3.332544 4.746351-4.342406 2.322682-1.413807 4.847337-2.12071 7.573964-2.221696 2.625641-0.100986 5.251282 0.403945 7.876923 1.514793 1.514793 0.706903 2.9286 1.615779 4.24142 2.827613 1.312821 1.211834 2.423669 2.827613 3.534517 4.746351 0.100986 0.201972 0.201972 0.403945 0.403945 0.706904 0 0.201972 0.100986 0.504931 0.201972 0.605917z m-24.438658 7.573964l14.743984-8.684812c-1.615779-1.514793-3.332544-2.423669-5.150296-2.625641-1.817751-0.201972-3.736489 0.201972-5.655227 1.413806-1.716765 1.009862-2.9286 2.423669-3.635503 4.24142-0.706903 1.817751-0.80789 3.736489-0.302958 5.655227z m-369.306509-7.573964l-21.813018 12.825246c1.312821 1.817751 3.029586 3.029586 5.04931 3.332545 2.019724 0.403945 4.039448-0.100986 6.160157-1.312821 1.413807-0.80789 2.524655-1.918738 3.332545-3.130572 1.211834-1.817751 1.615779-5.453254 1.110848-7.069033l5.453254 9.593688c-1.413807 2.827613-3.231558 4.746351-6.261144 6.564103-2.019724 1.211834-4.140434 1.918738-6.261144 2.221696-2.12071 0.302959-4.24142 0.100986-6.463116-0.504931-2.019724-0.605917-3.938462-1.615779-5.655227-2.9286-1.716765-1.413807-3.130572-3.029586-4.140434-4.847337-1.110848-1.918738-1.817751-3.938462-2.12071-6.059172-0.302959-2.12071-0.201972-4.140434 0.302959-6.261144 0.504931-2.322682 1.413807-4.342406 2.726627-6.261144 1.312821-1.817751 2.9286-3.332544 4.746351-4.342406 2.322682-1.413807 4.847337-2.12071 7.573965-2.221696 2.625641-0.100986 5.251282 0.403945 7.876923 1.514793 1.514793 0.706903 2.9286 1.615779 4.24142 2.827613 1.312821 1.211834 2.423669 2.827613 3.534517 4.746351 0.100986 0.201972 0.201972 0.403945 0.403944 0.706904 0 0.201972 0.100986 0.504931 0.201973 0.605917z m-24.539645 7.573964l14.743984-8.684812c-1.615779-1.514793-3.332544-2.423669-5.150296-2.625641-1.817751-0.201972-3.736489 0.201972-5.655227 1.413806-1.716765 1.009862-2.9286 2.423669-3.635503 4.24142-0.706903 1.817751-0.80789 3.736489-0.302958 5.655227z m182.280079-6.968047c0.302959 1.413807 0.504931 3.534517 0.504931 6.36213v16.258777h-7.472979v-13.53215c0-4.140434-0.403945-7.17002-1.413806-8.684812-1.009862-1.514793-2.726627-2.423669-5.150296-2.423669-2.423669 0-4.140434 0.80789-5.150296 2.423669-1.009862 1.514793-1.615779 4.544379-1.615779 8.684812v13.53215H504.079128v-16.258777c0-2.726627 0.201972-4.847337 0.504931-6.36213 0.302959-1.413807 0.80789-2.726627 1.615779-3.837475 1.110848-1.716765 2.625641-2.9286 4.342406-3.837476 2.726627-1.312821 6.059172-1.615779 7.674951-1.615779 1.716765 0 5.04931 0.302959 7.67495 1.615779 1.716765 0.80789 3.130572 2.12071 4.342407 3.837476 0.605917 1.110848 1.211834 2.423669 1.514793 3.837475z m-31.30572-0.605917l-21.813018 12.825246c1.312821 1.918738 3.029586 3.029586 5.04931 3.332545 2.019724 0.403945 4.039448-0.100986 6.160157-1.312821 1.413807-0.80789 2.524655-1.918738 3.332545-3.130572 1.211834-1.817751 1.615779-5.453254 1.110848-7.069033l5.453254 9.593688c-1.413807 2.827613-3.231558 4.746351-6.261144 6.564103-2.019724 1.211834-4.140434 1.918738-6.261144 2.221696-2.12071 0.302959-4.24142 0.100986-6.463116-0.504931-2.019724-0.605917-3.938462-1.615779-5.655227-2.9286-1.716765-1.413807-3.130572-3.029586-4.140434-4.847337-1.110848-1.918738-1.817751-3.938462-2.12071-6.059172-0.302959-2.12071-0.201972-4.140434 0.302959-6.261144 0.504931-2.322682 1.514793-4.342406 2.726627-6.160157 1.312821-1.817751 2.9286-3.332544 4.746351-4.342407 2.322682-1.413807 4.847337-2.12071 7.573965-2.221696 2.625641-0.100986 5.251282 0.403945 7.876923 1.514793 1.514793 0.706903 2.9286 1.615779 4.24142 2.827613 1.312821 1.211834 2.423669 2.827613 3.534517 4.746351 0.100986 0.201972 0.201972 0.403945 0.403944 0.706904 0 0.100986 0.100986 0.403945 0.201973 0.504931z m-24.539645 7.573964l14.743984-8.684812c-1.615779-1.514793-3.332544-2.423669-5.150296-2.625641-1.817751-0.201972-3.736489 0.201972-5.655227 1.413806-1.716765 1.009862-2.9286 2.423669-3.635503 4.24142-0.706903 1.817751-0.80789 3.736489-0.302958 5.655227z m398.289546 15.551874V550.374753h7.271006v39.990533h-7.271006zM1001.941061 567.845365c0.302959 1.413807 0.504931 3.534517 0.504931 6.36213v16.258777h-7.472979v-13.53215c0-4.140434-0.403945-7.17002-1.413806-8.684812-1.009862-1.514793-2.726627-2.423669-5.150296-2.423669-2.423669 0-4.140434 0.80789-5.150296 2.423669-1.009862 1.514793-1.615779 4.544379-1.615779 8.684812v13.53215h-7.472978v-16.258777c0-2.726627 0.201972-4.847337 0.50493-6.36213 0.302959-1.413807 0.80789-2.726627 1.61578-3.837475 1.110848-1.716765 2.625641-2.9286 4.342406-3.837476 2.726627-1.312821 5.958185-1.615779 7.674951-1.615779 1.716765 0 5.04931 0.302959 7.775936 1.615779 1.716765 0.80789 3.130572 2.12071 4.342407 3.837476 0.706903 1.110848 1.211834 2.423669 1.514793 3.837475z m-63.41933-1.514793c1.009862-2.221696 2.524655-4.24142 4.443393-5.958185 1.413807-1.211834 3.029586-2.12071 4.746351-2.827614 1.716765-0.605917 3.534517-0.908876 5.453254-0.908876h0.605917c9.29073 0 16.864694 7.573964 16.864695 16.864695v15.753846h-7.573965v-15.551874-0.403945c0-2.625641-0.908876-4.847337-2.625641-6.665088-1.716765-1.817751-3.837475-2.726627-6.261144-2.726628-2.726627 0-5.04931 0.908876-6.867061 2.726628-1.817751 1.817751-2.726627 4.039448-2.726627 6.766075 0 2.625641 0.908876 4.847337 2.726627 6.766074 1.817751 1.918738 3.938462 2.827613 6.564103 2.827614s4.746351-0.908876 6.564102-2.726627c0.403945-0.403945 0.706903-0.80789 1.009862-1.312821v9.29073c-0.80789 0.504931-1.716765 0.908876-2.625641 1.211834-1.615779 0.605917-3.433531 0.80789-5.453254 0.80789-2.12071 0-4.039448-0.403945-5.958186-1.110848-1.918738-0.706903-3.534517-1.817751-5.049309-3.231559-1.716765-1.615779-3.029586-3.433531-4.039448-5.655226-0.908876-2.12071-1.413807-4.443393-1.413807-6.867061 0-2.322682 0.504931-4.746351 1.615779-7.069034zM274.840469 576.833136h9.29073v0.605917c0 1.716765 0.605917 3.130572 1.716765 4.140434 1.110848 1.009862 2.625641 1.514793 4.544379 1.514793 2.019724 0 3.635503-0.504931 4.847337-1.413807 1.211834-1.009862 1.817751-2.322682 1.817751-3.938461 0-2.625641-2.423669-4.544379-7.271005-5.655227-0.605917-0.100986-1.110848-0.302959-1.413807-0.302959-4.039448-1.009862-6.968047-2.423669-8.987771-4.24142-1.918738-1.817751-2.9286-4.140434-2.9286-6.968047 0-3.837475 1.312821-6.968047 4.039448-9.29073 2.726627-2.322682 6.261144-3.534517 10.805522-3.534517 4.24142 0 7.573964 1.009862 9.997634 3.130572 2.524655 2.12071 3.938462 5.04931 4.140434 8.785799h-9.189744v-0.302958c0-1.312821-0.504931-2.423669-1.514793-3.231559-1.009862-0.80789-2.322682-1.211834-3.938462-1.211834-1.716765 0-3.029586 0.403945-3.938461 1.211834-1.009862 0.80789-1.413807 1.918738-1.413807 3.433531 0 0.605917 0.100986 1.110848 0.302959 1.615779 0.201972 0.403945 0.504931 0.908876 1.009862 1.211834 1.009862 0.80789 3.029586 1.615779 6.261144 2.322683 1.413807 0.302959 2.524655 0.504931 3.231558 0.807889 3.534517 1.009862 6.160158 2.322682 7.876923 4.140434 1.716765 1.817751 2.524655 4.039448 2.524655 6.867062 0 4.24142-1.514793 7.674951-4.443393 10.199605-2.9286 2.524655-6.867061 3.837475-11.815384 3.837475-4.645365 0-8.381854-1.211834-11.209468-3.736489-2.827613-2.625641-4.24142-5.958185-4.342406-9.997633z m539.872189-7.876923c-0.908876-1.615779-2.019724-2.9286-3.332544-3.736489-1.312821-0.80789-2.9286-1.211834-4.746351-1.211834-2.423669 0-4.443393 0.908876-6.160158 2.726627-1.615779 1.817751-2.423669 4.140434-2.423669 6.867061s0.80789 4.948323 2.524655 6.766075c1.716765 1.817751 3.837475 2.726627 6.36213 2.726627 1.918738 0 3.534517-0.403945 4.847338-1.31282 1.312821-0.80789 2.221696-2.12071 2.928599-3.837476h7.674951c-0.908876 3.837475-2.726627 6.968047-5.453254 9.088758-2.726627 2.221696-6.059172 3.332544-9.896647 3.332544-2.322682 0-4.443393-0.403945-6.362131-1.211834-1.918738-0.80789-3.736489-2.12071-5.251282-3.736489-1.514793-1.514793-2.625641-3.332544-3.43353-5.453255-0.80789-2.019724-1.211834-4.140434-1.211835-6.36213s0.403945-4.342406 1.110849-6.261144c0.706903-1.918738 1.817751-3.736489 3.332544-5.251282 1.615779-1.716765 3.433531-3.130572 5.453254-4.039448 2.019724-0.908876 4.24142-1.312821 6.564103-1.31282 3.837475 0 7.069034 1.110848 9.896647 3.332544 2.827613 2.221696 4.645365 5.251282 5.554241 8.987771h-7.97791z m11.310454 21.409073v-30.194872h7.271006v30.194872h-7.271006z m0-33.325444V550.374753h7.271006v6.665089h-7.271006zM317.557629 550.374753v13.229192c1.110848-1.413807 2.322682-2.423669 3.736489-3.029586 1.413807-0.706903 3.029586-1.009862 4.847337-1.009862 4.039448 0 7.069034 1.110848 9.189744 3.433531 2.12071 2.322682 3.231558 5.655227 3.231558 9.997633v17.369625h-7.472978v-13.330178c0-4.140434-0.504931-6.968047-1.514793-8.381854-1.009862-1.514793-2.726627-2.221696-5.150296-2.221696-2.524655 0-4.24142 0.80789-5.352268 2.524655-1.110848 1.615779-1.615779 4.544379-1.615779 8.583826v12.926233h-7.17002V550.374753h7.271006z m126.434714 0v13.229192c1.110848-1.413807 2.322682-2.423669 3.736489-3.029586 1.413807-0.706903 3.029586-1.009862 4.847337-1.009862 4.039448 0 7.069034 1.110848 9.189744 3.433531 2.12071 2.322682 3.231558 5.655227 3.231558 9.997633v17.369625H457.625479v-13.330178c0-4.140434-0.504931-6.968047-1.514793-8.381854-1.009862-1.514793-2.726627-2.221696-5.150296-2.221696-2.524655 0-4.24142 0.80789-5.352268 2.524655-1.110848 1.615779-1.615779 4.544379-1.615779 8.583826v12.926233h-7.17002V550.374753h7.17002z m152.186193 29.386983c-0.80789-2.019724-1.211834-4.140434-1.211834-6.36213s0.403945-4.342406 1.211834-6.362131c0.80789-2.019724 2.019724-3.837475 3.635503-5.352268 1.615779-1.615779 3.433531-2.827613 5.453254-3.736489 2.019724-0.908876 4.140434-1.312821 6.261144-1.312821 2.322682 0 4.443393 0.403945 6.463117 1.110849 1.918738 0.80789 3.736489 1.918738 5.352268 3.43353 1.716765 1.615779 2.9286 3.433531 3.837475 5.554241 0.908876 2.12071 1.413807 4.24142 1.413807 6.463116 0 2.423669-0.403945 4.645365-1.211834 6.665089-0.80789 2.019724-2.019724 3.837475-3.534517 5.453254-1.615779 1.615779-3.433531 2.9286-5.453254 3.736489-2.019724 0.80789-4.24142 1.312821-6.665089 1.312821-2.423669 0-4.645365-0.403945-6.564103-1.312821-2.019724-0.80789-3.837475-2.12071-5.453254-3.837475-1.514793-1.615779-2.726627-3.433531-3.534517-5.453254z m9.088757-13.128205c-1.716765 1.716765-2.524655 4.039448-2.524654 6.766075 0 2.9286 0.80789 5.352268 2.423668 7.069033 1.615779 1.716765 3.837475 2.625641 6.665089 2.625641 2.726627 0 4.948323-0.908876 6.564103-2.625641 1.615779-1.817751 2.423669-4.140434 2.423668-7.17002 0-2.726627-0.908876-4.847337-2.625641-6.665088-1.716765-1.716765-3.837475-2.625641-6.463116-2.625641-2.625641 0-4.847337 0.908876-6.463117 2.625641z m-195.812228 23.731755v-6.867061l13.53215-18.177515h-12.320316V558.453649h19.89428v7.977909l-12.522288 16.763708H431.369069v7.069034h-21.914004z m180.967258-29.689941h-9.694675c-1.110848-1.615779-2.524655-2.827613-4.140433-3.534517-1.615779-0.80789-3.433531-1.211834-5.453255-1.211834-1.615779 0-3.231558 0.302959-4.645365 0.908876-1.514793 0.605917-2.827613 1.514793-3.938461 2.726627-1.211834 1.211834-2.12071 2.726627-2.827614 4.342406-0.706903 1.615779-1.009862 3.332544-1.009862 5.04931 0 3.736489 1.211834 6.968047 3.635503 9.492702 2.423669 2.524655 5.352268 3.837475 8.785799 3.837476 2.019724 0 3.837475-0.403945 5.352268-1.110849 1.615779-0.706903 2.9286-1.817751 3.837476-3.231558h9.694674c-1.918738 4.140434-4.443393 7.271006-7.573964 9.391716-3.130572 2.12071-6.968047 3.130572-11.41144 3.130572-3.029586 0-5.857199-0.605917-8.48284-1.817751-2.625641-1.211834-4.948323-2.9286-6.968048-5.251282-1.716765-1.918738-3.029586-4.140434-3.938461-6.665089-0.908876-2.423669-1.312821-5.150296-1.312821-7.977909 0-2.827613 0.504931-5.554241 1.615779-8.179882 1.110848-2.524655 2.625641-4.948323 4.746351-6.968047 2.019724-1.918738 4.140434-3.433531 6.564103-4.443393 2.423669-1.009862 5.04931-1.514793 7.775937-1.514793 4.443393 0 8.280868 1.110848 11.41144 3.231558 3.332544 2.12071 5.958185 5.352268 7.977909 9.795661z m422.829191 29.689941h-7.170019V550.374753h7.170019v23.125839l10.401578-14.542012h8.381854l-11.108481 14.945956 13.229191 16.46075h-9.290729l-11.613413-15.955819v15.955819z m-94.119132 0h-16.662722V550.374753h15.248915c1.817751 0 3.231558 0.100986 4.342407 0.201973 1.110848 0.100986 2.019724 0.403945 2.827613 0.706903 2.322682 0.908876 4.039448 2.221696 5.251282 3.837476 1.211834 1.716765 1.817751 3.635503 1.817752 5.958185 0 1.918738-0.403945 3.433531-1.110848 4.746351-0.706903 1.312821-1.817751 2.322682-3.231559 3.029586 2.019724 0.605917 3.736489 1.716765 4.847338 3.332544 1.211834 1.615779 1.817751 3.635503 1.817751 5.958186 0 1.918738-0.403945 3.635503-1.110848 5.251282-0.706903 1.615779-1.716765 3.029586-3.029586 4.039447s-2.726627 1.716765-4.342406 2.221697c-1.514793 0.504931-3.837475 0.706903-6.665089 0.706903z m-8.987771-17.470611v10.401577h8.785799c2.524655 0 4.342406-0.403945 5.453254-1.211834 1.211834-0.80789 1.716765-2.019724 1.716766-3.736489 0-1.817751-0.605917-3.130572-1.817752-4.140434-1.211834-0.908876-3.029586-1.413807-5.352268-1.413807h-8.785799z m0-15.450888v9.088757h7.271006c2.221696 0 3.938462-0.403945 5.04931-1.211834 1.110848-0.80789 1.716765-1.918738 1.716765-3.534517 0-1.514793-0.504931-2.625641-1.615779-3.332544-1.009862-0.706903-2.726627-1.110848-4.948324-1.110848h-7.472978z" fill="#231F20"></path></svg>