<svg viewBox="0 0 1024 1024" version="1.1" xmlns="http://www.w3.org/2000/svg"><path d="M224 0h576c123.6 0 224 100.4 224 224v576c0 123.6-100.4 224-224 224H224c-123.6 0-224-100.4-224-224V224C0 100.4 100.4 0 224 0z" fill="#FFFFFF"></path><path d="M487.6 380.8c22.4-25.6 62-28 87.6-5.2 25.6 22.8 27.6 62 5.2 87.6-22.8 25.6-62 28-87.6 5.2-25.6-22.8-28-62-5.2-87.6" fill="#009863"></path><path d="M420.4 494.4c6.8 12 16 23.2 27.2 33.2 16.4 14.8 36 24.4 56 29.6 0.4 2.8-0.8 6-1.6 9.6-0.4 1.6 0.8 4.8 0.8 7.2 0.8 19.2-16.4 42-12.8 50.4 6 10.8 0.8 38.8 4 47.2 3.6 10-2.8 33.6-1.2 42.4 2 10.8-7.2 28.4-8 31.6-1.6 6.8-11.2 6-10.8 16 0 4.8-16 16.4-15.6 21.2-11.2 16.8-29.6 29.6-44.4 44.4-2.8-2.4-33.6 22.8-36.8 26.4-5.2 6-26.8 41.2-40 41.6-3.2 0.4-5.2 2.4-8 3.6-3.2 1.6-10.8-8.8-11.6-12.8-1.2-5.2-12.8-24.4-20.4-28.4-6.8-4.8-14.8-18.4-13.6-23.2 0.4-1.6 3.6-12.4 2-13.6 4-4 0.4-12.8 0.8-18.4 0.4-1.6 10-11.2 8.4-12.4 4.4-4.4 10.4-23.2 6.8-26.8 0.8-3.6 4.8-11.6 3.2-14.8-2-4.4 5.6-29.6 6.4-30-3.2-9.6-5.6-26 1.2-34.4 2-6.4 12.8-26.4 28-32 8-2.8 42.8-33.6 44.8-38.4 5.6-17.2 22.4-28 34.4-44 1.2-1.2 6.8-18.4 7.6-19.6 2-4.8 4.8-18 4-21.6-0.4-2.4-2.4-2.4-4-3.6 0.4-2-2-1.2-0.8-3.6-2.4-1.6-1.6-6.4-8.4-9.6-3.6-0.4-6.8-3.2-10.4-4.4-4.8-2.4-10-8.8-14.4-10.4-2.8-0.8-16-7.6-18.4-7.6-3.6 0.4-10.4 1.2-14 2-4.4 0.8-20 8-30 4-1.2 1.2-18.4 1.6-20 3.6-8 0.4-17.2 9.2-16 8.4-2.4 2.4-11.2 4-14.8 4-0.8 0.4-10-0.8-12-1.2-8.4-7.2-27.6-25.2-70.4-40.8l-4-3.6c-4.4 4.8-17.2-10.8-20-13.2-0.4-2.8-0.4-5.6 0-8.4 8-8.8-21.6-33.6-12.4-44-0.4-4 5.2-10.8-0.4-15.6-3.2-4 4.4-12 8.4-12.4 1.6-1.6 13.2-1.2 16.8-5.2 4.4 0.4 11.6-10.4 14.4-13.6 37.2-24.4 90.8 1.6 110 11.2 31.2 17.6 57.2 24.4 75.2 40 5.6 3.6 11.6 2.4 16.8 4-2.4 27.6 2 54.8 14.4 79.2 0 0 3.2 6 3.6 6.8" fill="#EC1D24"></path><path d="M566.4 300.4c1.2-2 2-4 2.4-5.6 2-2.8 5.2-5.2 5.2-8.8 0-2 2.8-14.4 2-16.4-1.6-3.6-2-8.8-3.6-12.4-30.8-41.2-52.8-63.2-80-81.6-12.8-8.8-26-20.8-35.2-34.4l-7.6-11.2c-2-2.8-4.4-4-6.8-6.4-0.8 0-1.6 0-2.8 0.4-2 0.8-4 3.2-6.8 4h-0.8c-3.6 1.6-10.8 13.2-8.4 15.2-0.8 4-18 18.8-20.4 27.2l0.4 4c-3.6 4.4-6 13.2-7.6 20 0 1.2 1.2 1.2 1.6 2-2.8 8-0.8 8.4-1.2 12-0.8 0.8 0.4 14 1.6 14.8-0.8 4 0.4 13.6 1.6 14.8 1.2 2.4 1.2 4.4 2 6.4 2.8 2.4 5.6 18.4 3.6 21.2 0.4 3.2 2 19.6 3.6 21.2 2.8 2 1.6 10.4 1.6 14 4 9.6 20.4 23.2 27.2 22.8l10 9.2c32.4-30.4 77.2-41.6 118.4-32.4" fill="#F89C1C"></path><path d="M544 565.2c0.4 2.4-0.4 1.2 0.8 4 5.6 9.6 35.6 33.2 35.2 44 1.2 1.2 7.2 8.4 6 9.2 2.4 2.8 21.2 24.8 16 28.8 3.6 4 4.4 10 8 14.4l-0.4 4.8c13.2 15.6 14.8 30 38.4 33.6 14.8 1.2 27.6-8 38.4-7.6 23.6 0.4 38 4.4 48.4-2.8 10 1.2 33.2-18.8 41.2-24.8 9.6-12-0.4-39.6-2-57.6-3.6-4-12.8-17.6-28-22.4-9.6-10.8-37.6-28.4-52.4-30.4l-3.6-4.4c-18.4-2.4-34.8-20-50.8-33.6-0.4 0.4-0.4 0.8-0.8 0.8-24.8 27.6-59.2 42.4-94.4 44" fill="#231F20"></path><path d="M694 482.4l1.6 1.2 5.6-3.6c12-2.4 22.8-14.8 32-19.6 22.4-10.8 46.4-9.2 67.2-21.6 32.4-17.2 56.4-36 63.2-73.6-0.4-2.4 1.6-16-0.8-18.4 3.2-3.6-2.4-8.4 0-11.2-1.6-1.2-2-3.6-2-3.6l-8-7.2c-1.6 0-4-0.4-5.6-0.4-2.4 2.4-6.8 2.4-8.8 4.8-8.4-1.6-19.6-0.8-24.8-4.4-14.8-12-29.2-14-49.6-21.2-3.6 1.6-15.2 3.2-19.2-0.4-2 2.4-7.6 0-10 0-14.4 2.4-48.8 22-68.4 23.2-8.8-1.2-6 1.6-15.2 1.2-4-3.6-17.6-2.4-20.4-4.8-2.4 0.8-4.8 0.4-6.8-1.2-3.6-0.8-4.4-0.8-8 0 4.4 2.8 8.8 6.4 12.8 10 43.6 38 56 98.4 35.6 149.2 19.2 7.6 17.2-3.2 29.6 1.6" fill="#0066B2"></path></svg>