<svg viewBox="0 0 1024 1024" version="1.1" xmlns="http://www.w3.org/2000/svg"><path d="M0 0m224 0l576 0q224 0 224 224l0 576q0 224-224 224l-576 0q-224 0-224-224l0-576q0-224 224-224Z" fill="#FFFFFF"></path><path d="M513.22 172c116.416 0 220.788 60.356 281.004 152.9h-76.272l124.444 108.64c8.028 24.14 12.04 52.308 8.028 76.448 0 189.112-152.544 342.012-341.22 342.012-116.416 0-220.788-60.356-281-148.876h92.328l-140.504-108.64C176.016 566.32 172 542.176 172 514.012 172 324.9 324.544 172 513.22 172z m0 92.544c-136.488 0-248.888 112.664-248.888 249.468 0 136.804 112.4 249.468 248.888 249.468s244.876-112.664 248.888-249.468c0-136.804-112.4-249.468-248.888-249.468zM620 380c15.668 0 27.5 11.504 27.984 27.004L648 408v216c0 15.668-11.504 27.5-27.004 27.984L620 652h-216c-15.668 0-27.5-11.504-27.984-27.004L376 624v-216c0-15.668 11.504-27.5 27.004-27.984L404 380h216z m-140 56h-48v160h48v-64h56v64h52v-160h-52v56h-56v-56z" fill="#E60012"></path></svg>