<svg viewBox="0 0 1024 1024" version="1.1" xmlns="http://www.w3.org/2000/svg"><path d="M181.435317 526.186146c-3.996098-0.79922-5.494634-3.596488-4.295805-8.391805 1.298732-4.595512 1.798244-7.992195 1.398634-10.190048-0.199805-2.397659-1.398634-3.996098-3.69639-4.795317-0.999024-0.199805-1.398634-0.699317-1.398634-1.498537 0.199805-0.599415 0.79922-0.899122 1.698341-0.899122 3.596488 0.79922 5.994146-0.099902 7.192976-2.697366 3.996098-8.791415 7.39278-18.981463 10.090146-30.670049 0.199805-0.79922 0.599415-1.198829 1.098927-1.198829 0.599415 0.39961 0.79922 0.999024 0.599415 1.798244 0 0.39961-0.099902 0.899122-0.299707 1.498537-0.39961 1.398634-0.79922 3.096976-1.19883 5.095024h2.897171c1.198829 0.199805 1.998049 0.299707 2.597463 0.299707v-8.991219c0-3.196878-0.099902-5.994146-0.299707-8.391805-0.39961-1.598439 0.299707-2.297756 1.998049-2.097951 5.194927 0.999024 8.491707 1.798244 9.990244 2.397658 1.298732 0.599415 1.398634 1.598439 0.299707 2.997073-0.999024 0.79922-1.398634 1.798244-1.398634 2.997074V474.536585h0.899122c1.298732-2.797268 2.297756-4.195902 2.897171-4.195902 1.298732 0.199805 3.29678 1.498537 5.694439 3.896195-0.199805-6.393756-0.499512-10.989268-0.899122-13.786537-0.199805-1.198829-0.099902-1.898146 0.299707-2.097951 0.199805-0.39961 0.899122-0.39961 1.998049 0 3.996098 1.198829 6.993171 2.297756 8.891317 3.296781 0.39961 0.599415 0.699317 0.999024 0.899122 1.198829h1.398634c1.498537-2.597463 2.797268-4.096 3.69639-4.49561 4.195902 1.398634 7.492683 3.396683 9.790439 5.994147 0.39961 0.999024 0.099902 1.798244-0.899122 2.397658-1.098927 0.79922-1.698341 1.698341-1.698341 2.697366V493.518049c0 8.791415 0.199805 16.983415 0.599414 24.675902 0.199805 4.595512-0.599415 7.39278-2.297756 8.391805-2.097951 1.598439-4.89522 2.797268-8.291902 3.596488-1.698341 0.299707-2.697366-0.39961-2.897171-2.197854-0.39961-2.797268-2.197854-4.89522-5.494634-6.293853-1.498537-0.599415-2.097951-1.198829-1.698341-1.798244-0.199805-0.199805 0.599415-0.299707 2.297756-0.299708 5.694439 0.999024 8.291902-0.599415 7.692487-4.795317v-16.883512h-3.996097c-0.199805 16.483902-6.893268 26.973659-20.08039 31.569171-0.79922 0.199805-1.198829 0.099902-1.19883-0.299707-0.199805-0.39961 0-0.899122 0.599415-1.498537 3.396683-3.396683 5.994146-6.793366 7.79239-10.190049l-0.299707 0.299707c-0.199805 0-0.39961 0.099902-0.599415 0.299708-0.599415 0.199805-1.898146 0.39961-3.996097 0.599414-0.999024 0.199805-1.598439 0.299707-1.998049 0.299708-1.298732 0-1.998049-0.79922-1.998049-2.397659v-5.394732h-3.996097v3.296781c0.199805 2.397659-0.39961 3.69639-1.698342 3.896195-2.297756 0.39961-4.395707 0.699317-6.293853 0.899122-1.698341 0.199805-2.497561-0.599415-2.297757-2.397658 0.39961-4.995122 0.599415-11.388878 0.599415-19.281171 0-0.79922-0.099902-2.197854-0.299707-4.195903V489.521951c-0.199805-0.999024-0.099902-1.598439 0.299707-1.798244s0.999024-0.199805 1.698342 0c0.599415 0 1.998049 0.39961 4.295804 1.19883v-12.587708h-0.299707c-1.498537 0-2.897171 0.199805-3.996097 0.599415-0.599415 0-0.999024-0.099902-1.19883-0.299707l-0.599414-0.599415c-2.297756 11.388878-3.596488 20.280195-3.996098 26.773854-0.599415 4.395707-0.099902 9.191024 1.398634 14.385951 0.79922 5.794341-1.898146 8.791415-7.992195 8.991219z m35.864976-49.851317h-8.59161v10.789464c0.599415-0.79922 1.198829-1.198829 1.698341-1.19883 2.497561 0.79922 4.995122 2.997073 7.492683 6.593561 0.199805 0.999024-0.199805 1.698341-1.098927 2.097952-0.599415 0.599415-0.999024 1.598439-1.198829 2.997073v6.593561c0.199805 4.995122 0.299707 8.192 0.299708 9.590634v0.299707c1.498537-4.595512 2.297756-11.88839 2.297756-21.978536v-16.084293c-0.199805 0.199805-0.499512 0.299707-0.899122 0.299707z m-36.963903-8.791414c-0.39961-2.997073-1.398634-5.694439-3.196878-8.092098-0.39961-0.39961-0.599415-0.79922-0.599414-1.198829 0.199805-0.39961 0.599415-0.599415 1.198829-0.599415 6.693463 0.39961 10.889366 2.297756 12.587707 5.694439 1.298732 4.195902 0 7.093073-3.996097 8.691512-3.196878 0.499512-5.294829-1.098927-5.994147-4.495609z m-3.796292 17.482926c-0.79922-3.196878-1.798244-5.694439-3.196878-7.492682-0.39961-0.599415-0.499512-0.999024-0.299708-1.19883s0.599415-0.299707 1.198829-0.299707c5.894244 0 9.890341 1.598439 11.788488 4.795317 1.698341 4.195902 0.499512 7.192976-3.69639 8.99122-3.29678 0.599415-5.194927-0.999024-5.794341-4.795318z m29.271414 7.492683h-3.69639v0.899122c-0.199805 0.39961-0.299707 0.79922-0.299707 1.19883v14.385951h3.996097V492.519024z m22.078439-3.29678v6.593561h3.69639v-14.685659h-3.69639v8.092098z m3.796293-24.675903h-2.897171c-0.599415 0.39961-0.899122 1.198829-0.899122 2.397659v11.988293h3.69639V464.546341h0.099903z m34.965854 33.96683v-11.388878c0-2.197854-0.299707-5.494634-0.899122-9.890342-0.39961-2.397659 0.39961-3.29678 2.297756-2.697366 4.195902 0.999024 7.592585 1.998049 9.990244 2.997074 0.199805 0.199805 0.39961 0.299707 0.599414 0.299707 0.39961 0.199805 0.599415 0.599415 0.599415 1.198829h9.191024v-9.290927H272.945951c-4.395707 0-7.992195 0.299707-10.889366 0.899122-0.39961 0.39961-0.899122 0.199805-1.398634-0.599414-0.599415-0.999024-1.098927-1.998049-1.398634-2.997074-0.39961-0.599415-0.299707-0.79922 0.299707-0.599414 6.094049 0.599415 11.48878 0.899122 16.084293 0.899122h12.887415v-2.097951c0-2.597463-0.199805-5.294829-0.599415-8.092098-0.199805-1.998049 0.599415-2.797268 2.297756-2.397659 3.596488 0.199805 6.893268 0.79922 9.790439 1.798244 1.498537 0.79922 1.798244 1.798244 0.899122 2.997074-0.999024 0.79922-1.398634 1.698341-1.398634 2.697365v5.095025h14.286049c3.496585-5.394732 5.594537-7.992195 6.593561-7.79239 2.097951 0.199805 5.494634 2.597463 9.990244 7.192975 1.198829 1.998049 0.79922 3.196878-1.19883 3.596488-9.191024-0.39961-16.284098-0.599415-21.179317-0.599415h-8.591609v9.290927H310.908878c1.698341-3.596488 3.196878-5.594537 4.295805-5.994146 2.497561 0.199805 5.794341 2.097951 9.990244 5.694439 1.198829 1.198829 1.098927 2.297756-0.299707 3.29678-0.79922 0.199805-1.198829 1.198829-1.19883 2.997073v6.293854c0 8.391805 0.099902 15.98439 0.299708 22.877659 0.39961 5.194927-0.39961 8.59161-2.297757 10.190048-2.297756 2.197854-5.294829 3.896195-8.891317 5.095025-2.297756 0.999024-3.596488 0.299707-3.996097-2.097951-0.79922-3.196878-2.897171-5.394732-6.293854-6.593561-1.098927-0.199805-1.598439-0.599415-1.398634-1.19883 0.39961-0.39961 1.098927-0.599415 1.998049-0.599414 7.292878 1.198829 10.289951-1.098927 9.191024-6.893269v-4.195902h-13.187122v2.997073c0.199805 2.997073 0.299707 5.894244 0.299708 8.691512 0.199805 2.797268-0.699317 4.49561-2.597464 5.095025-1.298732 0.599415-2.997073 0.999024-4.895219 1.198829-2.497561 0.999024-3.496585-0.79922-3.196878-5.394732 0.199805-1.198829 0.299707-3.29678 0.299707-6.293853 0.199805-2.797268 0.299707-4.89522 0.299707-6.293854h-11.788488v7.192976c0.199805 3.396683 0.299707 5.894244 0.299708 7.492683 0.39961 2.997073-0.699317 4.795317-3.196878 5.394731-0.39961 0-0.999024 0.199805-1.698342 0.599415-1.698341 0.39961-3.096976 0.699317-3.996097 0.899122-2.697366 0.599415-3.69639-0.79922-3.196878-4.195903 0.599415-8.391805 0.899122-17.283122 0.899122-26.773853z m22.677853 0h-4.295805c-1.498537 0-3.096976 0.199805-4.595512 0.599414-0.39961 0.199805-0.79922 0.099902-1.198829-0.299707l-0.299707-0.299707c-0.39961-0.39961-0.79922-0.999024-1.19883-1.798244-0.199805-0.39961-0.199805-0.599415 0-0.599415 0-0.199805 0.199805-0.299707 0.599415-0.299707 2.697366 0.39961 5.294829 0.599415 7.692488 0.599415h7.192975c1.698341-3.596488 3.196878-8.192 4.295805-13.786537 0-0.199805 0.099902-0.499512 0.299708-0.899122v-0.299707h-19.780683c-0.39961 0.39961-0.599415 1.198829-0.599415 2.397658V505.506341h11.788488l0.099902-6.99317z m21.27922 0h-11.488781v6.893268h2.297756c2.297756-3.596488 3.896195-5.394732 4.89522-5.394732 1.498537 0.39961 3.496585 1.998049 5.994146 4.795317v-23.37717h-10.589658c0.79922 0.199805 1.998049 0.699317 3.69639 1.498536 1.498537 0.599415 2.697366 1.098927 3.396683 1.498537 1.198829 1.398634 0.79922 2.497561-1.198829 3.29678-1.298732 0.199805-2.197854 0.79922-2.597464 1.798244-0.599415 0.599415-1.598439 1.698341-3.096975 3.296781-1.298732 1.598439-2.397659 2.797268-3.196879 3.596488h1.698342c1.898146-3.396683 3.29678-4.995122 3.996098-4.795318 1.498537 0.199805 3.796293 1.798244 6.893268 4.795318 0.899122 1.198829 0.599415 1.898146-0.699317 2.097951z m-26.773854-7.492683c-0.39961-2.397659-1.298732-4.395707-2.897171-5.994147-0.39961-0.39961-0.599415-0.79922-0.599414-1.198829 0.199805-0.39961 0.599415-0.599415 1.098927-0.599414 6.293854 0 10.190049 1.598439 11.48878 4.795317 1.198829 3.796293-0.199805 6.293854-3.996098 7.492683-2.797268 0.599415-4.49561-0.899122-5.095024-4.49561z m128.274732-18.881561c-1.298732 0-2.597463 0.499512-3.69639 1.498536-4.795317 3.596488-10.190049 6.493659-16.384 8.691513v2.997073c0.199805 2.797268 1.698341 4.295805 4.595512 4.49561h4.595512c3.796293 0.199805 6.293854-3.29678 7.492683-10.489757 0.199805-1.398634 0.699317-2.097951 1.398634-2.097951 0.79922 0.199805 1.098927 0.899122 0.899122 2.097951-0.199805 4.595512 1.098927 7.692488 3.69639 9.290927 2.097951 1.598439 2.997073 3.196878 2.597464 4.795317 0 1.398634-0.899122 2.797268-2.597464 4.195903-1.898146 0.999024-4.49561 1.498537-7.692488 1.498536h-16.084292c-6.293854 0-9.490732-3.596488-9.490732-10.789463v-2.697366c-3.796293 0.999024-7.692488 1.698341-11.48878 2.097951v7.492683c0.199805 3.396683-0.699317 5.194927-2.597464 5.394732-2.297756 0.79922-4.195902 1.198829-5.694439 1.198829-2.297756 0.599415-3.196878-0.899122-2.897171-4.49561v-0.899121c0.39961-3.596488 0.599415-7.093073 0.599415-10.489757v-4.195902c-3.996098 3.396683-8.092098 5.994146-12.387902 7.79239-0.599415 0.199805-0.999024 0.199805-1.19883 0 0-0.39961 0.199805-0.899122 0.599415-1.498536 9.191024-10.389854 15.185171-20.779707 18.082341-30.969756 0.39961-1.398634 1.198829-1.698341 2.597464-0.899122 2.897171 1.198829 5.994146 2.797268 9.490731 4.795317 0.79922 0.39961 1.198829 0.999024 1.19883 1.798244-0.199805 0.79922-0.699317 1.198829-1.398634 1.198829-1.298732 0.199805-2.297756 0.79922-2.897171 1.798244-1.298732 1.998049-2.797268 4.096-4.295805 6.293853 0.199805 0 0.499512 0.099902 0.899122 0.299708 0.199805 0 0.39961 0.099902 0.599415 0.299707 1.498537 0.599415 1.698341 1.598439 0.599414 2.997073-0.79922 0.199805-1.198829 0.999024-1.198829 2.397659v6.893268c4.195902-1.798244 7.992195-3.596488 11.48878-5.394732v-10.789463c0-3.196878-0.199805-6.993171-0.599414-11.388878-0.199805-1.798244 0.699317-2.597463 2.597463-2.397659 0.79922 0.199805 1.798244 0.499512 3.096976 0.899122 2.897171 0.599415 4.995122 1.198829 6.293853 1.798244 1.698341 0.79922 1.798244 1.898146 0.299708 3.296781-0.599415 0.599415-0.999024 1.498537-1.198829 2.697366v8.691512c3.996098-2.997073 7.692488-6.493659 10.889365-10.489756 0.999024-1.198829 2.197854-1.198829 3.696391 0 1.198829 0.999024 3.396683 3.196878 6.593561 6.593561 1.198829 1.698341 0.79922 2.797268-1.098927 3.69639z m-17.482927 38.162732h-6.593561v1.798243c0 3.796293 0.099902 7.39278 0.299707 10.789464 0.39961 2.997073-0.699317 4.89522-3.196878 5.694439-1.898146 0.79922-3.896195 1.198829-5.994146 1.198829-2.897171 0.599415-4.096-0.899122-3.69639-4.49561 0.599415-5.194927 0.899122-10.190049 0.899122-14.985365h-16.384c-4.395707 0-7.992195 0.299707-10.889366 0.899121-0.39961 0.199805-0.899122 0-1.398634-0.599414-0.599415-0.999024-1.098927-1.998049-1.398635-2.997073-0.39961-0.599415-0.299707-0.79922 0.299708-0.599415 6.094049 0.599415 11.48878 0.899122 16.084292 0.899122h13.786537c0-2.797268-0.199805-5.594537-0.599415-8.391805-0.39961-2.397659 0.39961-3.29678 2.297757-2.697366 3.29678 0.599415 6.693463 1.498537 10.289951 2.697366 1.498537 0.79922 1.698341 1.998049 0.599414 3.596488-0.599415 0.39961-0.899122 1.198829-0.899122 2.397658v2.397659h12.288c3.496585-5.394732 5.694439-7.992195 6.593561-7.79239 2.497561 0.199805 5.794341 2.597463 9.990244 7.192975 0.999024 1.998049 0.599415 3.096976-1.198829 3.296781-4.695415-0.199805-11.788488-0.299707-21.179317-0.299707zM463.75961 480.530732c5.394732 1.798244 9.091122 3.196878 11.189073 4.195902 0.999024 0.599415 1.298732 1.298732 1.198829 2.097951-0.39961 0.79922-1.098927 1.198829-1.998049 1.19883-0.39961 0-0.899122 0.199805-1.398634 0.599414 8.391805 6.193951 18.282146 9.290927 29.571122 9.290927 1.298732-0.199805 1.898146 0.099902 1.698342 0.899122 0.39961 0.599415 0.099902 1.198829-0.899122 1.798244-2.497561 1.798244-4.395707 4.49561-5.694439 8.092098-0.599415 1.598439-1.798244 2.097951-3.696391 1.498536-1.198829-0.199805-2.197854-0.599415-3.196878-1.198829-0.39961 0.39961-0.79922 0.599415-1.198829 0.599414-0.79922 0.39961-1.198829 1.098927-1.198829 2.097952 0 1.598439 0.099902 4.295805 0.299707 8.092097v3.896195c0.39961 2.397659-0.499512 3.796293-2.597463 4.195903-1.498537 0.79922-3.596488 1.198829-6.293854 1.198829-2.097951 0.199805-3.096976-0.79922-2.897171-2.997073v-2.997073h-17.782634v2.397658c0.199805 1.798244-0.599415 2.997073-2.297756 3.596488-1.898146 0.599415-3.796293 0.899122-5.694439 0.899122-2.897171 0.199805-3.996098-0.899122-3.396683-3.29678 0.39961-2.797268 0.599415-7.692488 0.599415-14.685659 0-1.398634-0.099902-2.997073-0.299707-4.795317-3.596488 1.398634-7.992195 2.897171-13.187122 4.49561-0.79922 0.199805-1.198829 0.099902-1.398635-0.299708 0-0.39961 0.299707-0.79922 0.899122-1.198829 9.390829-5.594537 16.683707-12.088195 21.778732-19.480976 2.097951-2.997073 3.796293-5.994146 5.194927-8.991219 0.199805-1.398634 1.198829-1.798244 2.697366-1.198829z m-1.398634-16.883512c-0.599415-3.396683-1.498537-5.794341-2.897171-7.192976-0.599415-0.599415-0.79922-1.098927-0.599415-1.498537 0.199805-0.199805 0.699317-0.299707 1.398634-0.299707 7.692488-0.39961 12.088195 1.298732 13.187122 5.095024 0.999024 3.396683-0.099902 5.894244-3.196878 7.492683-0.199805 0-0.499512 0.099902-0.899122 0.299708h-0.299707 18.981463c2.097951-3.596488 3.69639-5.394732 4.89522-5.394732 3.796293 1.798244 7.093073 4.295805 9.790439 7.492683 0.999024 1.198829 1.198829 2.097951 0.899122 2.697366-0.39961 0.39961-1.198829 0.599415-2.297756 0.599414-4.195902-0.199805-8.491707 1.398634-12.887415 4.795317 0.599415 0.39961 1.398634 0.999024 2.597464 1.798244 0.39961 0.199805 0.699317 0.39961 0.899122 0.599415 3.096976 3.796293 3.29678 7.093073 0.899122 9.890341-3.096976 3.196878-6.193951 2.497561-9.490732-2.097951-3.096976-5.394732-7.39278-10.090146-12.887415-14.086244-0.79922-0.39961-1.098927-0.79922-0.899122-1.198829 0-0.199805 0.499512-0.299707 1.398634-0.299707 6.094049 0.999024 11.189073 2.397659 15.185171 4.195902l2.297756-6.593561h-40.760195c0.599415 2.997073 0.299707 5.794341-0.899122 8.391805-3.096976 4.195902-6.293854 4.89522-9.790439 2.097951-2.297756-2.997073-1.998049-5.894244 0.899122-8.691512 2.697366-1.398634 4.395707-3.896195 5.194927-7.492683 0.199805-0.999024 0.39961-1.498537 0.599415-1.498536 0.39961-0.199805 0.899122 0.099902 1.398634 0.899122 0.999024 1.998049 1.598439 3.29678 1.998048 3.896195h17.482927c-1.098927-0.599415-1.798244-1.898146-2.197853-3.896195z m14.286048 42.958048h-17.183219c-0.39961 0.599415-0.599415 1.198829-0.599415 1.798244v12.288h17.782634v-14.086244z m-22.078439-35.765073c3.096976 0.999024 6.693463 2.397659 10.889366 4.195903 1.098927 1.398634 0.999024 2.397659-0.599414 2.997073-1.498537 0-2.697366 0.39961-3.396683 1.198829-6.693463 6.793366-13.886439 11.588683-21.479025 14.385951-0.79922 0.199805-1.298732 0.199805-1.398634 0-0.199805-0.199805 0-0.599415 0.599415-1.198829 3.496585-3.196878 6.593561-7.192976 9.490731-11.988293 1.498537-2.197854 2.697366-4.995122 3.396683-8.391805 0.299707-1.198829 1.198829-1.598439 2.497561-1.198829z m5.794342 32.768c0.39961 0.199805 0.699317 0.499512 0.899122 0.899122h14.585756c0.39961-0.79922 0.999024-1.698341 1.698341-2.697366l0.899122-0.899122c-2.697366-2.797268-5.194927-6.393756-7.492683-10.789463-3.996098 4.795317-8.59161 8.891317-13.786536 12.288 1.198829 0.199805 2.197854 0.599415 3.196878 1.198829z m80.321561 11.788488v-11.189073c-4.195902 3.596488-10.689561 7.79239-19.480976 12.587707-0.599415 0.199805-1.098927 0.199805-1.398634 0-0.199805-0.599415-0.099902-1.098927 0.299707-1.498537 13.986341-11.588683 22.677854-25.275317 26.074537-40.860097h-10.289951c0.79922 3.596488 0.39961 6.693463-1.19883 9.290927-2.297756 3.396683-5.095024 3.996098-8.291902 1.798244-2.897171-2.597463-3.096976-5.095024-0.599415-7.492683 2.897171-1.798244 5.095024-4.995122 6.593561-9.590634 0.199805-0.599415 0.39961-0.899122 0.599415-0.899122 0.39961 0 0.79922 0.299707 1.198829 0.899122 0.599415 1.198829 1.098927 2.497561 1.398634 3.896195H546.678634c0.999024-7.39278 1.398634-12.487805 1.398634-15.285073 0-1.198829 0.599415-1.798244 1.698342-1.798244 0.999024 0.199805 2.597463 0.599415 4.895219 1.198829 4.195902 0.79922 6.893268 1.398634 7.992195 1.798244 1.198829 0.39961 1.698341 0.999024 1.698342 1.798244 0 0.999024-0.499512 1.698341-1.398634 2.097951-1.098927 0.39961-1.998049 1.198829-2.597464 2.397658-0.599415 2.797268-1.198829 5.394732-1.998048 7.792391h15.784585c1.698341-2.997073 3.096976-4.595512 3.996097-4.795317 3.096976 0.999024 6.193951 3.096976 9.490732 6.293853 0.999024 1.198829 1.198829 2.197854 0.599415 2.997073-0.199805 0.599415-1.098927 0.899122-2.597464 0.899122-3.096976 0.39961-6.593561 2.197854-10.589658 5.394732 4.195902 2.197854 6.893268 3.69639 7.992195 4.49561 0.999024 0.599415 1.298732 1.298732 1.198829 2.097951-0.199805 0.999024-0.899122 1.498537-1.998049 1.498537-0.999024 0-2.397659 0.499512-4.295804 1.498536-2.697366 1.798244-5.794341 3.596488-9.490732 5.394732 5.894244 7.992195 12.887415 13.187122 20.979512 15.58478 1.098927 0.39961 1.698341 0.899122 1.698342 1.498537 0 0.999024-0.499512 1.698341-1.398635 2.097951-3.096976 1.398634-5.994146 3.69639-8.891317 6.893269-0.79922 1.598439-1.898146 1.898146-3.396683 0.899122-12.288-8.192-19.281171-23.377171-21.179317-45.355708-1.298732 3.796293-2.897171 7.292878-4.595512 10.489756 0.599415 0 0.999024 0.199805 1.198829 0.599415 1.298732 0.999024 1.398634 1.898146 0.299708 2.697366-1.198829 0.39961-1.698341 1.198829-1.698342 2.397658v18.881561l10.289951-2.997073c1.498537-0.39961 2.397659-0.39961 2.597464 0 0.199805 0.599415-0.299707 1.398634-1.398634 2.397659-8.192 5.594537-13.986341 10.389854-17.18322 14.385951-0.999024 1.798244-1.898146 1.998049-2.897171 0.599415-2.097951-2.997073-3.496585-5.594537-4.295804-7.792391-0.79922-1.198829-0.599415-1.998049 0.599414-2.397658 0.899122-0.499512 1.498537-1.798244 1.498537-3.596488z m32.068683-33.067707l2.297756-7.792391h-17.18322c-0.199805 0.599415-0.299707 0.999024-0.299707 1.19883 2.497561 8.192 5.494634 14.785561 8.891317 19.880585 1.098927-2.397659 2.097951-4.795317 2.897171-7.192976 0.599415-1.798244 0.999024-3.396683 1.198829-4.795317 0.099902-1.498537 0.899122-1.898146 2.197854-1.298731z m59.441951 13.187122c-0.199805-3.196878-0.899122-6.094049-1.998049-8.691513v12.288c0 9.790439 0.199805 17.782634 0.599415 23.776781 0.199805 2.997073-0.79922 4.695415-2.897171 5.095024-2.097951 0.599415-4.295805 1.098927-6.593561 1.498537-3.096976 0.79922-4.195902-1.098927-3.396683-5.694439 0.199805-3.396683 0.39961-8.192 0.599415-14.385951 0.199805-4.995122 0.299707-8.092098 0.299707-9.290927-3.096976 4.395707-6.993171 8.491707-11.788488 12.288-0.599415 0.599415-0.999024 0.699317-1.198829 0.299707-0.199805-0.199805-0.099902-0.699317 0.299707-1.498537 5.394732-10.589659 8.891317-22.178341 10.589659-34.566243h-3.196878c-1.198829 0-2.497561 0.199805-3.996098 0.599414-0.599415 0-1.098927-0.199805-1.398634-0.599414-0.599415-0.599415-0.999024-1.298732-1.198829-2.097952-0.39961-0.599415-0.199805-0.79922 0.599415-0.599414 2.297756 0.39961 4.795317 0.599415 7.492682 0.599414h3.696391v-4.195902c0-2.597463-0.199805-6.893268-0.599415-12.887415-0.199805-1.798244 0.39961-2.597463 1.698342-2.397658 3.396683 0.199805 7.192976 0.699317 11.189073 1.498536 1.198829 0.199805 1.698341 0.599415 1.698341 1.19883 0.199805 0.79922-0.199805 1.598439-1.098927 2.397658-0.999024 0.599415-1.398634 1.598439-1.398634 2.997073v9.590634c1.498537-2.197854 2.697366-3.396683 3.396683-3.596487 2.097951 0.79922 4.49561 2.797268 7.192976 5.994146l0.299707 0.299707H654.573268v-5.095024c0-2.997073-0.299707-7.093073-0.899122-12.288-0.39961-1.198829-0.39961-1.898146 0-2.097951 0.199805-0.39961 0.899122-0.599415 1.998049-0.599415 3.596488 0 7.39278 0.499512 11.189073 1.498537 1.898146 0.79922 2.097951 1.998049 0.599415 3.596487-1.098927 0.79922-1.698341 1.998049-1.698342 3.596488v8.092098c1.698341-2.397659 2.997073-3.496585 3.696391-3.296781 2.297756 0.999024 4.995122 3.29678 7.992195 6.893269 0.79922 1.198829 0.599415 1.898146-0.599415 2.097951-3.396683 0-7.192976-0.099902-11.189073-0.299707v15.285073c0 4.795317 0.199805 13.586732 0.599415 26.474146 0.39961 4.395707-0.599415 6.993171-2.897171 7.79239-0.199805 0-0.499512 0.099902-0.899122 0.299708-2.297756 1.198829-4.49561 1.998049-6.593561 2.397658-2.097951 0.199805-3.396683-0.499512-3.996098-2.097951-0.599415-3.396683-2.797268-5.694439-6.593561-6.893268-2.297756-0.79922-3.196878-1.198829-2.597463-1.19883-0.199805-0.79922 0.699317-0.999024 2.597463-0.599414 6.893268 0.999024 9.990244-1.198829 9.191025-6.593561v-14.186147c-0.999024 1.598439-2.497561 2.697366-4.595512 3.296781-4.195902 0.79922-6.493659-1.198829-6.893269-5.994146 0-3.996098-0.599415-7.292878-1.698341-9.890342-0.39961-0.599415-0.39961-1.098927 0-1.498536 0.199805-0.39961 0.699317-0.499512 1.398634-0.299708 6.094049 1.198829 9.890341 3.496585 11.189073 6.893268 0.199805 0 0.299707 0.199805 0.299708 0.599415 0.199805 0.199805 0.299707 0.39961 0.299707 0.599415V477.533659h-11.189073c-1.398634 0-2.797268 0.199805-4.295805 0.599414-0.599415 0.39961-0.999024 0.299707-1.198829-0.299707-0.199805-0.199805-0.499512-0.599415-0.899122-1.198829h-6.893269v8.092097c5.394732 0.999024 8.791415 2.597463 10.289952 4.795317 2.097951 3.396683 1.798244 6.393756-0.899122 8.99122-3.996098 2.197854-6.393756 1.198829-7.192976-2.997073z m92.709463-32.468293c-0.39961-2.997073-1.298732-5.294829-2.89717-6.893268-0.39961-0.39961-0.599415-0.79922-0.599415-1.19883 0.199805-0.199805 0.599415-0.299707 1.098927-0.299707 6.693463-0.39961 10.689561 1.098927 12.088195 4.49561 0.999024 2.397659 0.499512 4.595512-1.398634 6.593561h15.484878c2.897171-4.795317 4.795317-7.292878 5.694439-7.492683 2.697366 0.79922 5.794341 3.29678 9.490732 7.492683 0.79922 1.598439 0.499512 2.497561-0.899122 2.697366-5.394732-0.39961-11.688585-0.599415-18.981464-0.599415h-3.69639c1.498537 0.79922 3.29678 1.598439 5.194927 2.397658 1.498537 1.398634 1.398634 2.497561-0.299708 3.296781-1.198829 0.199805-2.097951 0.699317-2.89717 1.498537-1.898146 2.197854-4.195902 4.295805-6.893269 6.293853h8.891318c1.498537-2.997073 2.797268-4.595512 3.69639-4.795317 2.697366 0.39961 5.694439 1.898146 9.191024 4.49561 1.498537 1.398634 1.698341 2.697366 0.599415 3.896195-0.999024 0.599415-1.398634 1.598439-1.398634 2.997073V506.205659c0.199805 5.594537 0.299707 9.490732 0.299707 11.688585 0.599415 4.395707-0.499512 7.192976-3.196878 8.391805-2.097951 0.999024-4.795317 2.097951-7.992195 3.29678-2.097951 0.599415-3.396683-0.099902-3.996098-2.097951-0.999024-3.596488-3.196878-5.694439-6.893268-6.293854-0.999024-0.199805-1.398634-0.599415-1.398634-1.198829 0-0.39961 0.699317-0.599415 1.998049-0.599415 7.692488 0.39961 11.089171-1.298732 10.289951-5.095024v-18.182244c-0.199805 0.999024-0.79922 1.698341-1.698342 2.097951-0.79922 0.599415-1.398634 0.899122-1.998048 0.899122 0.599415 0.79922 0.39961 1.498537-0.599415 2.097952-0.79922 0.599415-1.198829 1.198829-1.198829 1.798243 0 5.394732 0.099902 8.891317 0.299707 10.489757 0 1.598439-0.699317 2.697366-1.998049 3.29678-1.698341 0.599415-3.596488 0.899122-5.694439 0.899122-1.198829 0.199805-1.698341-0.599415-1.698341-2.397659v-2.097951h-6.593561v2.397659c0 1.398634-0.599415 2.197854-1.698342 2.397658-0.39961 0-1.198829 0.199805-2.597463 0.599415-1.298732 0.199805-2.297756 0.39961-2.897171 0.599415-1.898146 0.199805-2.697366-0.699317-2.297756-2.697366v-4.49561c0.199805-2.197854 0.299707-3.896195 0.299707-5.095024v-2.097952c0-2.197854-0.099902-4.096-0.299707-5.694439-0.39961 0.199805-1.098927 0.499512-2.297756 0.899122-0.999024 0.39961-1.698341 0.699317-2.297756 0.899122V513.798244c0.199805 4.595512 0.299707 7.892293 0.299707 9.890341 0.39961 1.998049-0.499512 3.29678-2.597463 3.896195-1.698341 0.599415-3.596488 1.098927-5.694439 1.498537-2.497561 0.39961-3.496585-0.999024-3.196878-4.195902 0.39961-7.192976 0.599415-14.485854 0.599414-21.978537v-14.985366c0-2.997073-0.199805-5.894244-0.599414-8.691512-0.199805-1.198829-0.099902-1.998049 0.299707-2.397659 0.39961-0.39961 1.098927-0.39961 1.998049 0 2.497561 0.199805 5.594537 1.098927 9.191024 2.697366 0.79922 0.39961 1.198829 0.999024 1.398634 1.798244h5.494634c-1.098927-0.79922-1.798244-2.197854-1.998048-4.195902 0-3.196878-0.999024-5.894244-3.096976-8.092098-0.199805-0.599415-0.299707-0.999024-0.299707-1.198829h-7.992195c-2.697366 0-4.995122 0.299707-6.893269 0.899122-0.39961 0.199805-0.899122-0.099902-1.398634-0.899122-0.199805-0.199805-0.39961-0.599415-0.599414-1.198829l-0.899122-0.899122c-0.199805-0.39961-0.199805-0.699317 0-0.899122h0.599414c2.297756 0.39961 6.393756 0.699317 12.387903 0.899122h19.181268c-0.699317-0.999024-1.198829-1.898146-1.498537-2.697366z m20.579903 20.779707h-34.965854v0.299708c-0.199805 0.599415-0.299707 1.098927-0.299707 1.498536v11.688585c3.796293-4.395707 6.393756-8.092098 7.79239-11.08917 0.599415-1.598439 1.398634-1.898146 2.597463-0.899122 3.396683 1.798244 5.894244 3.396683 7.492683 4.795317 1.298732 1.198829 1.098927 2.197854-0.899122 2.997073-0.999024 0-2.097951 0.39961-3.396682 1.198829-0.39961 0.199805-0.999024 0.499512-1.698342 0.899122-0.79922 0.599415-1.298732 0.999024-1.698341 1.19883 1.498537 0.199805 2.897171 0.599415 3.996097 1.198829 0.599415 0 0.999024 0.199805 1.198829 0.599414h4.89522c1.198829-2.197854 2.197854-3.29678 3.196878-3.29678 0.79922-0.199805 1.698341 0 2.897171 0.599415l-0.299708-0.299708c-1.898146-3.196878-4.595512-5.794341-7.992195-7.79239-0.599415-0.39961-0.899122-0.79922-0.899122-1.198829 0.199805-0.39961 0.699317-0.599415 1.398634-0.599415 7.492683-0.199805 12.587707 1.098927 15.484879 3.896195 0.599415 0.599415 1.098927 1.398634 1.398634 2.397659v-8.092098h-0.199805z m-20.380098-9.590634c0.79922 2.997073-0.099902 5.394732-2.597463 7.192976h9.191024v-0.299708c0.999024-3.796293 1.598439-7.992195 1.998049-12.587707v-0.599415H716.51278c4.995122 1.298732 7.892293 3.396683 8.59161 6.293854z m5.794342 26.374244h-6.593561v10.489756h6.593561v-10.489756z m57.843512 0.39961c0.199805-8.59161-1.098927-16.983415-3.69639-24.97561-0.199805-0.79922-0.199805-1.298732 0-1.498537s0.699317-0.099902 1.398634 0.299708c7.093073 5.594537 11.688585 12.487805 13.786536 20.48v-23.177366c0-5.394732-0.299707-9.490732-0.899122-12.288-0.599415-2.197854 0.199805-3.096976 2.297757-2.697366 4.795317 0.599415 8.291902 1.198829 10.589658 1.798244 2.097951 0.79922 2.497561 1.998049 1.098927 3.596488-1.298732 0.79922-1.998049 1.598439-1.998049 2.397658v55.945366h5.394732v-48.452683c0-4.395707-0.199805-8.491707-0.599415-12.288-0.39961-1.198829-0.39961-1.998049 0-2.397658 0.199805-0.39961 0.899122-0.499512 1.998049-0.299708 4.595512 0.39961 8.092098 0.999024 10.589659 1.798244 2.097951 0.79922 2.497561 1.998049 1.198829 3.596488-1.198829 0.79922-1.698341 1.598439-1.698342 2.397659v40.660292c2.897171-9.790439 4.795317-20.180293 5.694439-30.969756 0-1.398634 0.699317-1.898146 1.998049-1.498536 3.996098 1.198829 7.892293 2.997073 11.788488 5.394731 0.79922 0.39961 1.098927 1.098927 1.098927 2.097951-0.199805 0.79922-0.699317 1.198829-1.398634 1.19883-1.098927 0-1.998049 0.599415-2.597464 1.798244-4.195902 10.789463-9.790439 20.08039-16.583805 27.672975v9.290927h5.194927c3.396683-4.795317 5.594537-7.093073 6.593561-6.893268 2.297756 0.199805 5.594537 2.397659 9.990244 6.593561 0.999024 1.798244 0.599415 2.897171-1.198829 3.29678-9.191024-0.39961-16.284098-0.599415-21.179317-0.599414h-35.265561c-3.996098 0.199805-7.592585 0.599415-10.889366 1.198829-0.599415 0.199805-1.098927-0.099902-1.398634-0.899122-0.599415-0.79922-1.098927-1.698341-1.698342-2.697366-0.199805-0.39961-0.199805-0.699317 0-0.899122h0.599415c2.897171 0.39961 8.092098 0.699317 15.784585 0.899122h5.494634v-15.684683c-1.198829 2.597463-3.096976 4.096-5.694439 4.49561-3.896195 0.199805-5.794341-2.697366-5.794341-8.691512z m86.315707-46.354732c3.996098 0.599415 7.692488 1.498537 10.889366 2.697366 0.79922 0.199805 1.098927 0.599415 1.098927 1.198829-0.199805 0.79922-0.699317 1.398634-1.398634 1.798244-0.79922 0.39961-1.298732 1.198829-1.698342 2.397659-0.599415 2.197854-1.198829 4.49561-1.998048 6.893268h4.295804c2.097951-3.596488 3.796293-5.594537 5.194927-5.994146 1.098927 0.199805 3.196878 1.698341 5.994147 4.495609 0-3.396683-0.199805-6.193951-0.599415-8.391805-0.199805-1.998049 0.699317-2.797268 2.597463-2.397658 3.796293 1.198829 7.192976 2.397659 9.990244 3.596488h9.191025c2.097951-2.997073 3.496585-4.49561 3.996097-4.49561 2.697366 0.199805 5.594537 1.698341 8.59161 4.49561 1.498537 1.198829 1.598439 2.497561 0.299707 3.896195-0.599415 0.39961-0.999024 1.098927-1.098927 2.097951v9.590634c0 1.798244 0.199805 5.894244 0.599415 12.387903 0 1.798244-0.599415 2.997073-1.698341 3.596487 2.097951 1.398634 4.096 3.096976 5.994146 5.095025 0.599415 0.599415 0.699317 1.198829 0.299707 1.798244-0.199805 0.599415-0.699317 0.79922-1.398634 0.599414-0.39961 0-1.098927 0.199805-1.998049 0.599415-0.39961 0.199805-0.699317 0.299707-0.899122 0.299707-3.096976 1.798244-6.193951 3.29678-9.490731 4.49561 3.29678 4.195902 8.092098 7.79239 14.585756 10.789463 1.098927 0.79922 1.598439 1.298732 1.398634 1.498537 0.199805 0.39961-0.299707 0.899122-1.398634 1.498537-2.697366 1.398634-4.49561 3.796293-5.394732 7.192975-0.599415 1.198829-1.398634 1.398634-2.597463 0.599415-4.595512-3.796293-8.092098-7.79239-10.589659-12.088195-2.697366 2.597463-6.993171 6.193951-12.887415 10.789463l-0.599414 0.599415c-0.199805 0-0.39961 0.099902-0.599415 0.299707-0.79922 0.599415-1.298732 1.198829-1.698341 1.798244-1.098927 1.598439-2.297756 1.798244-3.396683 0.599415-1.698341-2.397659-3.29678-4.995122-4.595512-7.792391-0.79922-1.198829-0.299707-2.097951 1.398634-2.697365 1.298732-0.599415 1.998049-1.698341 1.998049-3.296781v-15.98439h-11.488781v13.886439c2.897171-0.999024 5.494634-2.097951 7.692488-3.296781 1.298732-0.599415 2.197854-0.599415 2.597463 0 0.79922 0.599415 0.499512 1.498537-0.899122 2.697366-5.194927 5.594537-8.99122 9.590634-11.48878 12.088195-1.098927 1.198829-1.998049 2.397659-2.597464 3.596488-1.098927 2.397659-2.397659 2.897171-3.69639 1.498537-0.39961-0.39961-0.999024-0.999024-1.698341-1.798244-1.898146-1.798244-3.29678-3.196878-3.996098-4.195903-1.698341-1.798244-1.598439-3.096976 0.299707-3.896195 2.497561-1.598439 3.596488-4.195902 3.496586-7.79239v-12.787512h-2.597464c-1.298732 0-2.797268 0.199805-4.295804 0.599414-0.39961 0.199805-0.79922 0.099902-1.19883-0.299707l-0.299707-0.299707-0.899122-0.899122c-0.199805-0.39961-0.39961-0.699317-0.599415-0.899122 0-0.599415 0.199805-0.899122 0.599415-0.899122 3.096976 0.39961 5.694439 0.599415 7.992195 0.599415h1.198829v-12.68761h-1.398634c-1.898146 2.797268-4.195902 5.394732-6.893268 7.79239-0.79922 0.999024-1.198829 1.398634-1.398634 1.198829s-0.099902-0.899122 0.299707-2.097951c3.996098-12.887415 6.193951-24.276293 6.593561-34.266536 0-1.998049 0.79922-2.797268 2.297756-2.397659z m5.994147 17.18322c-1.298732 3.596488-3.096976 6.993171-5.194927 10.190048h9.790439c2.297756-3.596488 3.796293-5.294829 4.595512-5.095024 1.498537 0 3.896195 1.598439 7.192976 4.795317v-9.890341h-16.384z m26.973658 15.285073h11.788488v-10.789464h-11.788488v10.789464z m0 27.373268c0.79922-0.199805 1.898146-0.499512 3.396683-0.899122 2.097951-0.599415 3.69639-0.999024 4.89522-1.198829-2.897171-5.994146-4.295805-13.586732-4.295805-22.877659h-3.996098v24.97561z m11.688585-51.150049h-9.990243c-1.198829 0-1.698341 0.499512-1.698342 1.498537v8.991219h11.788488l-0.099903-10.489756z m-22.577951 21.079415h-11.189073v12.288c1.698341-3.396683 3.196878-5.294829 4.295805-5.694439 1.898146 0.39961 4.295805 1.998049 7.192976 4.795317v-11.388878h-0.299708z m25.77483 9.990244c-2.297756 0.599415-3.396683 0-3.196879-1.798244v-2.997073h-4.895219c0.79922 3.796293 2.297756 7.992195 4.595512 12.587707 1.698341-2.397659 3.196878-5.095024 4.595512-8.092098l-1.098926 0.299708z m76.22556 20.679805v-28.871805H986.249366c-1.698341 0-3.496585 0.199805-5.394732 0.599414-0.39961 0.199805-0.79922 0.199805-1.098927 0 0.39961 0.199805 0.299707 0.099902-0.299707-0.299707-0.599415-0.79922-1.098927-1.498537-1.398634-2.097951-0.199805-0.39961-0.299707-0.699317-0.299707-0.899122h0.599414c2.297756 0.39961 5.294829 0.599415 8.891317 0.599415h23.776781c2.897171-3.996098 4.595512-5.994146 5.194927-5.994147 1.698341 0.599415 3.996098 2.597463 6.893268 5.994147 0.599415 0.79922 0.79922 1.398634 0.599414 1.798243-0.199805 0.599415-0.699317 0.79922-1.398634 0.599415-3.596488 0-6.793366-0.099902-9.490731-0.299707 0.39961 0.599415 0.099902 1.198829-0.899122 1.798244-0.999024 0.39961-1.398634 1.098927-1.398634 2.097951V505.506341c0 6.593561 0.199805 11.988293 0.599414 15.984391 0.199805 3.596488-0.79922 5.794341-2.897171 6.593561-0.199805 0-0.39961 0.099902-0.599414 0.299707-3.096976 0.999024-5.494634 1.598439-7.492683 1.798244-2.297756 0.599415-3.596488 0-3.996098-1.798244-0.199805-2.997073-1.898146-5.095024-5.194927-6.293854-1.698341-0.79922-2.397659-1.498537-1.998048-2.097951 0-0.199805 0.999024-0.299707 2.89717-0.299707 5.194927 0.39961 7.692488-1.098927 7.292878-4.595512z m-25.774829-44.756293c1.298732 0.599415 3.69639 1.898146 7.192976 3.896195 0.599415 0.39961 1.098927 0.699317 1.398634 0.899122 0.999024 0.599415 1.398634 1.198829 1.398634 1.798244-0.199805 0.599415-0.79922 1.098927-1.698341 1.498536-1.298732 0.199805-2.397659 0.899122-3.096976 2.097952-0.39961 0.39961-0.899122 0.999024-1.398634 1.798244-0.39961 0.599415-1.198829 1.698341-2.597464 3.29678h0.599415l0.299707 0.299707c1.698341 0.79922 1.998049 1.798244 0.899122 2.997074-1.098927 0.39961-1.598439 1.298732-1.398634 2.697365v20.180293c0 1.398634 0.099902 3.29678 0.299708 5.694439v5.694439c0.39961 2.797268-0.499512 4.595512-2.597464 5.394732-1.498537 0.599415-3.396683 0.999024-5.694439 1.198829-1.498537 0.39961-2.497561 0.39961-2.897171 0-0.599415-0.39961-0.79922-1.398634-0.599414-2.997073 0.39961-5.794341 0.599415-10.589659 0.599414-14.485854v-16.084292c-2.897171 2.397659-5.894244 4.49561-9.191024 6.293853-0.599415 0.39961-0.999024 0.39961-1.098927 0-0.199805-0.199805-0.099902-0.599415 0.299707-1.198829 7.492683-8.391805 13.187122-18.282146 17.18322-29.471219 0.199805-1.398634 0.899122-1.898146 2.097951-1.498537z m-0.899122-15.384976c3.29678 2.397659 5.794341 4.395707 7.692488 5.994147 0.79922 0.79922 1.098927 1.598439 0.899122 2.397658-0.199805 0.599415-0.79922 0.899122-1.698341 0.899122-1.098927 0-2.197854 0.39961-3.196878 1.198829-6.893268 5.794341-14.086244 10.789463-21.479025 15.085269-0.599415 0.199805-0.999024 0.199805-1.098927 0 0-0.39961 0.199805-0.899122 0.599415-1.498537 7.093073-7.192976 12.288-14.985366 15.784585-23.177366 0.499512-0.999024 1.398634-1.298732 2.497561-0.899122z m31.569171 11.788488h-12.887415c-2.097951 0-3.896195 0.199805-5.394731 0.599415-0.199805 0-0.599415-0.099902-1.098927-0.299708 0.39961 0.199805 0.299707 0.099902-0.299707-0.299707-0.599415-0.599415-0.999024-1.198829-1.098927-1.798244-0.199805-0.39961-0.199805-0.699317 0-0.899122 0-0.199805 0.199805-0.199805 0.599414 0 2.497561 0.39961 5.294829 0.599415 8.291903 0.599415h14.286049c2.297756-3.796293 3.896195-5.694439 4.895219-5.694439 1.698341 0.599415 4.096 2.497561 7.192976 5.694439 0.599415 0.79922 0.79922 1.398634 0.599414 1.798244-0.199805 0.39961-0.79922 0.599415-1.698341 0.599414h-4.595512c-3.496585-0.299707-6.293854-0.299707-8.791415-0.299707zM177.239415 566.746537v-23.876683h4.795317v9.390829h9.490731v-9.390829h4.89522v23.876683h-4.89522v-10.489757H182.034732v10.489757h-4.795317z m24.875707-23.876683h4.895219v12.987317c0 2.097951 0.099902 3.396683 0.199805 3.996097 0.199805 0.999024 0.699317 1.798244 1.498537 2.397659s1.798244 0.899122 3.196878 0.899122 2.397659-0.299707 3.096976-0.79922c0.699317-0.599415 1.098927-1.298732 1.298731-2.097951 0.099902-0.79922 0.199805-2.197854 0.199805-4.096v-13.287024h4.89522V555.457561c0 2.897171-0.099902 4.89522-0.39961 6.094049-0.299707 1.198829-0.699317 2.197854-1.498537 2.997073-0.699317 0.79922-1.598439 1.498537-2.797268 1.998049s-2.697366 0.699317-4.595512 0.699317c-2.297756 0-4.096-0.299707-5.194927-0.79922-1.198829-0.499512-2.097951-1.198829-2.797268-2.097951-0.699317-0.79922-1.098927-1.698341-1.398634-2.697366-0.299707-1.398634-0.499512-3.396683-0.499513-6.094049v-12.687609h-0.099902z m24.97561 23.876683v-23.876683h4.695414l9.990244 15.98439v-15.98439h4.49561v23.876683h-4.89522l-9.790439-15.684683v15.684683h-4.495609z m46.754341 0h-5.194927l-2.097951-5.394732H256.961561l-1.998049 5.394732h-4.995122l9.290927-23.876683h5.095024l9.490732 23.876683z m-8.791414-9.790439l-3.396683-8.791415-3.296781 8.791415h6.693464z m12.387902 9.790439v-23.876683h4.695415l9.990244 15.98439v-15.98439h4.495609v23.876683h-4.895219l-9.790439-15.684683v15.684683h-4.49561z m53.048195 0v-23.876683h4.89522v9.390829h9.490731v-9.390829h4.89522v23.876683H344.875707v-10.489757h-9.490731v10.489757h-4.89522z m24.875707-23.876683h4.89522v12.987317c0 2.097951 0.099902 3.396683 0.199805 3.996097 0.199805 0.999024 0.699317 1.798244 1.498536 2.397659s1.798244 0.899122 3.196878 0.899122 2.397659-0.299707 3.096976-0.79922c0.699317-0.599415 1.098927-1.298732 1.298732-2.097951 0.099902-0.79922 0.199805-2.197854 0.199805-4.096v-13.287024h4.895219V555.457561c0 2.897171-0.099902 4.89522-0.39961 6.094049-0.299707 1.198829-0.699317 2.197854-1.498536 2.997073-0.699317 0.79922-1.598439 1.498537-2.797268 1.998049s-2.697366 0.699317-4.595513 0.699317c-2.297756 0-3.996098-0.299707-5.194927-0.79922s-2.097951-1.198829-2.797268-2.097951-1.098927-1.698341-1.398634-2.697366c-0.299707-1.398634-0.499512-3.396683-0.499512-6.094049l-0.099903-12.687609z m46.25483 23.876683h-5.194927l-2.097951-5.394732H384.836683l-1.998049 5.394732h-5.095024l9.290927-23.876683h5.095024l9.490732 23.876683z m-8.291903-9.790439l-3.396683-8.791415-3.29678 8.791415h6.693463z m11.988293 9.790439v-23.876683h10.289951c2.597463 0 4.49561 0.199805 5.694439 0.599414s2.097951 1.198829 2.797268 2.297756c0.699317 1.098927 1.098927 2.397659 1.098927 3.796293 0 1.798244-0.499512 3.29678-1.598439 4.49561s-2.697366 1.898146-4.795317 2.197853c1.098927 0.599415 1.898146 1.298732 2.597464 1.998049 0.699317 0.699317 1.598439 1.998049 2.797268 3.896195l2.997073 4.695415h-5.894244l-3.496585-5.194927c-1.298732-1.898146-2.097951-2.997073-2.597464-3.496585s-0.999024-0.79922-1.498536-0.999025-1.298732-0.299707-2.497561-0.299707h-0.999025v9.990244l-4.895219-0.099902z m4.595512-13.986342h3.596488c2.297756 0 3.796293-0.099902 4.395707-0.299707 0.599415-0.199805 0.999024-0.499512 1.398634-0.999025 0.299707-0.499512 0.499512-1.098927 0.499513-1.798243 0-0.79922-0.199805-1.498537-0.699317-1.998049-0.39961-0.499512-0.999024-0.79922-1.798244-0.999025-0.39961-0.099902-1.598439-0.099902-3.596488-0.099902h-3.796293v6.193951z m19.281171 2.197854c0-2.497561 0.39961-4.49561 1.098927-6.193951 0.499512-1.198829 1.298732-2.297756 2.197853-3.296781 0.899122-0.999024 1.998049-1.698341 3.096976-2.197854 1.498537-0.599415 3.196878-0.999024 5.194927-0.999024 3.596488 0 6.393756 1.098927 8.491707 3.296781 2.097951 2.197854 3.196878 5.294829 3.196878 9.191024 0 3.896195-1.098927 6.893268-3.196878 9.091122s-4.995122 3.29678-8.491707 3.29678c-3.596488 0-6.393756-1.098927-8.59161-3.29678-1.998049-1.998049-2.997073-4.995122-2.997073-8.891317z m5.194927-0.099903c0 2.697366 0.599415 4.795317 1.898146 6.193952 1.298732 1.398634 2.897171 2.097951 4.89522 2.097951s3.596488-0.699317 4.795317-2.097951c1.298732-1.398634 1.898146-3.496585 1.898146-6.293854s-0.599415-4.795317-1.798244-6.193951c-1.198829-1.398634-2.897171-1.998049-4.895219-1.998049s-3.69639 0.699317-4.89522 2.097951c-1.298732 1.298732-1.898146 3.396683-1.898146 6.193951z m22.877658 11.888391v-23.876683h4.695415l9.990244 15.98439v-15.98439h4.49561v23.876683h-4.89522l-9.790439-15.684683v15.684683h-4.49561z m36.364488-8.691513v-4.096h10.389854v9.590635c-0.999024 0.999024-2.497561 1.898146-4.395708 2.597463-1.898146 0.79922-3.896195 1.098927-5.794341 1.098927-2.497561 0-4.695415-0.499512-6.493659-1.598439-1.898146-1.098927-3.29678-2.597463-4.195902-4.49561-0.899122-1.998049-1.398634-4.096-1.398634-6.393756 0-2.497561 0.499512-4.695415 1.598439-6.693464 0.999024-1.998049 2.597463-3.496585 4.595512-4.495609 1.498537-0.79922 3.396683-1.198829 5.694439-1.19883 2.997073 0 5.294829 0.599415 6.993171 1.898147s2.697366 2.997073 3.196878 5.194927l-4.795317 0.899122c-0.299707-1.198829-0.999024-2.097951-1.898147-2.797269-0.899122-0.699317-2.097951-0.999024-3.496585-0.999024-2.097951 0-3.796293 0.699317-4.995122 1.998049-1.198829 1.398634-1.898146 3.396683-1.898146 5.994146 0 2.897171 0.599415 4.995122 1.898146 6.393756s2.897171 2.097951 4.995122 2.097951c0.999024 0 1.998049-0.199805 2.997073-0.599414s1.898146-0.899122 2.597464-1.498537v-3.096975h-5.594537v0.199804z m33.767024 8.691513v-23.876683H537.687415c2.597463 0 4.49561 0.199805 5.694439 0.599414s2.097951 1.198829 2.797268 2.297756c0.699317 1.098927 1.098927 2.397659 1.098927 3.796293 0 1.798244-0.499512 3.29678-1.598439 4.49561s-2.697366 1.898146-4.795317 2.197853c1.098927 0.599415 1.898146 1.298732 2.597463 1.998049s1.598439 1.998049 2.797268 3.896195l2.997074 4.695415h-5.894244l-3.496586-5.194927c-1.298732-1.898146-2.097951-2.997073-2.597463-3.496585s-0.999024-0.79922-1.498537-0.999025-1.398634-0.299707-2.497561-0.299707h-0.999024v9.990244l-4.89522-0.099902z m5.194927-13.986342h3.596488c2.297756 0 3.796293-0.099902 4.395707-0.299707 0.599415-0.199805 0.999024-0.499512 1.398635-0.999025 0.299707-0.499512 0.499512-1.098927 0.499512-1.798243 0-0.79922-0.199805-1.498537-0.699317-1.998049-0.39961-0.499512-0.999024-0.79922-1.798244-0.999025-0.39961-0.099902-1.598439-0.099902-3.596488-0.099902h-3.796293v6.193951z m20.280195-9.890341h4.89522v12.987317c0 2.097951 0.099902 3.396683 0.199805 3.996097 0.199805 0.999024 0.699317 1.798244 1.498536 2.397659s1.798244 0.899122 3.196878 0.899122c1.398634 0 2.397659-0.299707 3.096976-0.79922 0.699317-0.599415 1.098927-1.298732 1.298732-2.097951 0.099902-0.79922 0.199805-2.197854 0.199805-4.096v-13.287024h4.895219V555.457561c0 2.897171-0.099902 4.89522-0.39961 6.094049s-0.699317 2.197854-1.498536 2.997073c-0.699317 0.79922-1.598439 1.498537-2.797269 1.998049-1.198829 0.499512-2.697366 0.699317-4.595512 0.699317-2.297756 0-4.096-0.299707-5.194927-0.79922-1.198829-0.499512-2.097951-1.198829-2.797268-2.097951-0.699317-0.79922-1.098927-1.698341-1.398634-2.697366-0.299707-1.398634-0.499512-3.396683-0.499512-6.094049v-12.687609h-0.099903z m24.875708 23.876683v-23.876683h10.289951c2.597463 0 4.49561 0.199805 5.694439 0.599414s2.097951 1.198829 2.797268 2.297756c0.699317 1.098927 1.098927 2.397659 1.098927 3.796293 0 1.798244-0.499512 3.29678-1.598439 4.49561s-2.697366 1.898146-4.795317 2.197853c1.098927 0.599415 1.898146 1.298732 2.597463 1.998049s1.598439 1.998049 2.797269 3.896195l2.997073 4.695415h-5.894244l-3.496585-5.194927c-1.298732-1.898146-2.097951-2.997073-2.597464-3.496585s-0.999024-0.79922-1.498536-0.999025-1.398634-0.299707-2.497561-0.299707h-0.999025v9.990244l-4.895219-0.099902z m4.695414-13.986342h3.596488c2.297756 0 3.796293-0.099902 4.395707-0.299707 0.599415-0.199805 0.999024-0.499512 1.398635-0.999025 0.299707-0.499512 0.499512-1.098927 0.499512-1.798243 0-0.79922-0.199805-1.498537-0.699317-1.998049-0.39961-0.499512-0.999024-0.79922-1.798244-0.999025-0.39961-0.099902-1.598439-0.099902-3.596488-0.099902h-3.796293v6.193951z m42.058927 13.986342h-5.194927l-2.097951-5.394732H607.619122l-1.998049 5.394732h-4.995122l9.290927-23.876683h5.095024l9.490732 23.876683z m-8.791414-9.790439l-3.396683-8.791415-3.296781 8.791415h6.693464z m11.988292 9.790439v-23.876683h4.89522v19.780683h12.188097v4.096h-17.083317z m55.046244-8.691513l4.695415 1.398635c-0.699317 2.697366-1.898146 4.595512-3.596488 5.894243-1.698341 1.298732-3.796293 1.898146-6.293854 1.898147-3.196878 0-5.794341-1.098927-7.79239-3.296781-1.998049-2.197854-3.096976-5.194927-3.096976-8.991219 0-3.996098 0.999024-7.093073 3.096976-9.390829 2.097951-2.197854 4.795317-3.29678 8.092098-3.296781 2.897171 0 5.294829 0.899122 7.093073 2.597463 1.098927 0.999024 1.898146 2.497561 2.397658 4.49561L682.545951 550.462439c-0.299707-1.198829-0.899122-2.197854-1.798244-2.997073-0.899122-0.699317-1.998049-1.098927-3.29678-1.098927-1.798244 0-3.196878 0.599415-4.295805 1.898146-1.098927 1.298732-1.698341 3.396683-1.698342 6.193952 0 2.997073 0.499512 5.194927 1.59844 6.493658s2.497561 1.898146 4.195902 1.898146c1.298732 0 2.397659-0.39961 3.29678-1.198829 1.098927-0.599415 1.798244-1.898146 2.197854-3.596488z m8.791415-3.096975c0-2.497561 0.39961-4.49561 1.098927-6.193951 0.499512-1.198829 1.298732-2.297756 2.197853-3.296781 0.999024-0.999024 1.998049-1.698341 3.096976-2.197854 1.498537-0.599415 3.196878-0.999024 5.194927-0.999024 3.596488 0 6.393756 1.098927 8.491707 3.296781 2.097951 2.197854 3.196878 5.294829 3.196878 9.191024 0 3.896195-1.098927 6.893268-3.196878 9.091122-2.097951 2.197854-4.995122 3.29678-8.491707 3.29678-3.596488 0-6.393756-1.098927-8.59161-3.29678-1.898146-1.998049-2.997073-4.995122-2.997073-8.891317z m4.695414-0.099903c0 2.697366 0.599415 4.795317 1.898147 6.193952 1.298732 1.398634 2.897171 2.097951 4.895219 2.097951s3.596488-0.699317 4.795317-2.097951c1.298732-1.398634 1.898146-3.496585 1.898147-6.293854s-0.599415-4.795317-1.798244-6.193951c-1.198829-1.398634-2.897171-1.998049-4.89522-1.998049s-3.69639 0.699317-4.895219 2.097951c-1.298732 1.298732-1.898146 3.396683-1.898147 6.193951z m22.877659 11.888391v-23.876683h7.39278l4.395708 16.284097 4.295805-16.284097h7.39278v23.876683h-4.49561v-18.781659l-4.795317 18.781659h-4.695414l-4.795317-18.781659v18.781659h-4.695415z m29.07161 0v-23.876683h7.39278l4.395707 16.284097 4.295805-16.284097h7.392781v23.876683h-4.49561v-18.781659l-4.795317 18.781659H757.47278l-4.795317-18.781659v18.781659h-4.495609z m28.572097 0v-23.876683H794.436683v3.996097h-12.887415v5.294829h11.988293v3.996098h-11.988293v6.493659h13.386927v3.996097l-18.182244 0.099903z m23.377171 0v-23.876683H810.421073c2.597463 0 4.49561 0.199805 5.694439 0.599414s2.097951 1.198829 2.797268 2.297756c0.699317 1.098927 1.098927 2.397659 1.098927 3.796293 0 1.798244-0.499512 3.29678-1.598439 4.49561s-2.697366 1.898146-4.795317 2.197853c1.098927 0.599415 1.898146 1.298732 2.597464 1.998049 0.699317 0.699317 1.598439 1.998049 2.797268 3.896195l2.997073 4.695415h-5.894244l-3.496585-5.194927c-1.298732-1.898146-2.097951-2.997073-2.597464-3.496585s-0.999024-0.79922-1.498536-0.999025-1.298732-0.299707-2.497561-0.299707h-0.999025v9.990244l-4.895219-0.099902z m4.695415-13.986342h3.596487c2.297756 0 3.796293-0.099902 4.395708-0.299707 0.599415-0.199805 0.999024-0.499512 1.398634-0.999025 0.299707-0.499512 0.499512-1.098927 0.499512-1.798243 0-0.79922-0.199805-1.498537-0.699317-1.998049-0.39961-0.499512-0.999024-0.79922-1.798244-0.999025-0.39961-0.099902-1.598439-0.099902-3.596488-0.099902h-3.796292v6.193951z m35.864975 5.294829l4.695415 1.398635c-0.699317 2.697366-1.898146 4.595512-3.596488 5.894243-1.698341 1.298732-3.796293 1.898146-6.293854 1.898147-3.196878 0-5.794341-1.098927-7.79239-3.296781-1.998049-2.197854-3.096976-5.194927-3.096975-8.991219 0-3.996098 0.999024-7.093073 3.096975-9.390829 2.097951-2.197854 4.695415-3.29678 8.092098-3.296781 2.897171 0 5.294829 0.899122 7.093073 2.597463 1.098927 0.999024 1.898146 2.497561 2.397658 4.49561l-4.795317 1.098927c-0.299707-1.198829-0.899122-2.197854-1.798244-2.997073-0.899122-0.699317-1.998049-1.098927-3.29678-1.098927-1.798244 0-3.196878 0.599415-4.295805 1.898146s-1.698341 3.396683-1.698341 6.193952c0 2.997073 0.499512 5.194927 1.598439 6.493658s2.497561 1.898146 4.195902 1.898146c1.298732 0 2.397659-0.39961 3.296781-1.198829 1.098927-0.599415 1.798244-1.898146 2.197853-3.596488z m9.290927 8.691513h4.695415v-23.876683h-4.695415v23.876683z m31.768976 0h-5.194927l-2.097951-5.394732h-9.590635l-1.998048 5.394732h-5.095025l9.290927-23.876683h5.095024l9.590635 23.876683z m-8.391805-9.790439l-3.396683-8.791415-3.296781 8.791415h6.693464z m11.988292 9.790439v-23.876683h4.89522v19.780683h12.188098v4.096H885.347902z m39.461464-23.876683h9.690536c1.898146 0 3.29678 0.099902 4.295805 0.199805 0.899122 0.199805 1.798244 0.499512 2.497561 0.999024s1.398634 1.198829 1.898147 1.998049 0.699317 1.798244 0.699317 2.797268c0 1.098927-0.299707 2.097951-0.899122 3.096976-0.599415 0.899122-1.398634 1.598439-2.497561 2.097951 1.498537 0.39961 2.597463 1.198829 3.396683 2.197853 0.79922 0.999024 1.198829 2.197854 1.198829 3.596488 0 1.098927-0.299707 2.097951-0.79922 3.196878-0.499512 0.999024-1.198829 1.898146-2.097951 2.497561-0.899122 0.599415-1.998049 0.999024-3.29678 1.098927-0.79922 0.099902-2.797268 0.099902-5.894244 0.199805h-8.192v-23.976585z m5.194927 3.69639v5.694439h3.196878c1.898146 0 3.096976 0 3.496585-0.099903 0.79922-0.099902 1.498537-0.39961 1.998049-0.899121s0.699317-1.098927 0.699317-1.898147-0.199805-1.398634-0.599415-1.898146c-0.39961-0.499512-0.999024-0.79922-1.798244-0.899122-0.499512-0.099902-1.898146-0.099902-4.096-0.099903h-2.89717v0.099903z m0 9.790439v6.193951h4.595512c1.798244 0 2.897171 0 3.396683-0.099902 0.699317-0.099902 1.298732-0.39961 1.798244-0.899122s0.699317-1.198829 0.699317-1.998049c0-0.699317-0.199805-1.298732-0.499512-1.798244-0.39961-0.499512-0.899122-0.79922-1.498537-1.098927-0.699317-0.199805-2.097951-0.299707-4.395707-0.299707h-4.096z m41.559414 10.389854h-5.194927l-2.097951-5.394732h-9.590634l-1.998049 5.394732h-5.095024l9.290927-23.876683h5.095024l9.590634 23.876683z m-8.791414-9.790439l-3.396683-8.791415-3.296781 8.791415h6.693464z m12.487805 9.790439v-23.876683h4.695414l9.990244 15.98439v-15.98439h4.49561v23.876683h-4.89522l-9.790439-15.684683v15.684683H975.260098z m24.875707 0v-23.876683h4.895219V553.459512l9.890342-10.589658h6.593561l-9.091122 9.290926 9.590634 14.585757h-6.293854l-6.693463-11.189074-3.896195 3.996098v7.192976h-4.995122z" fill="#1B1918"></path><path d="M40.572878 450.360195l-0.099902 17.18322-0.699317 0.499512-0.699318 0.499512-0.499512 0.39961-0.599414 0.39961-0.599415 0.499512-0.599415 0.499512-0.599414 0.499512-0.599415 0.499512-0.599415 0.499513-0.499512 0.499512-0.699317 0.599414-0.499512 0.499513-0.499512 0.499512-0.499512 0.499512-0.699317 0.499512-0.499513 0.499512-0.899122 0.699317-0.499512 0.499513-0.499512 0.599414-0.499512 0.499512-0.499512 0.699317-0.499513 0.599415-0.499512 0.599415-0.499512 0.599414-0.39961 0.599415-0.399609 0.699317-0.499513 0.599415-0.499512 0.599414-0.39961 0.699317-0.299707 0.699318-0.499512 0.699317-0.39961 0.599414-0.39961 0.699317-0.399609 0.699317-0.299708 0.699317-0.199805 0.699318-0.299707 0.699317-0.299707 0.699317-0.299708 0.799219-0.299707 0.699317-0.299707 0.699317-0.199805 0.699317-0.199805 0.79922-0.199805 0.799219-0.199805 0.79922-0.199805 0.799219-0.199804 0.79922-0.199805 0.799219-0.199805 0.79922-0.199805 0.799219-0.199805 0.79922-0.199805 0.79922-0.199805 0.799219-0.199805 0.79922-0.099902 0.799219-0.099902 0.79922-0.199805 0.799219-0.099903 0.79922-0.099902 0.799219-0.099903 0.79922-0.099902 0.799219V511.300683l0.099902 1.198829 0.099903 1.198829 0.099902 1.19883 0.199805 1.198829 0.199805 1.198829 0.199805 1.098927 0.199805 1.198829 0.199805 1.098927 0.199804 1.098927 0.299708 1.098927 0.199805 1.098927 0.299707 1.098927 0.39961 1.098926 0.399609 1.098927 0.39961 1.098927 0.39961 0.999024 0.499512 1.098927 0.499512 0.999025 0.499513 0.999024 0.499512 0.999024 0.499512 0.999025 0.499512 0.899122 0.499512 0.999024 0.499513 0.899122 0.599414 0.899122 0.599415 0.899122 0.299707 0.499512 0.299707 0.39961 0.39961 0.499512 0.299708 0.39961 0.299707 0.499512 0.299707 0.499512 0.299707 0.499512 0.39961 0.39961 0.39961 0.499512 0.299707 0.39961 0.39961 0.39961 0.39961 0.499512 0.39961 0.39961 0.399609 0.39961 0.39961 0.399609 0.499512 0.39961 0.39961 0.499512 0.39961 0.39961 0.39961 0.39961 0.399609 0.39961 0.499513 0.399609 0.399609 0.39961 0.499512 0.39961 0.39961 0.39961 0.499512 0.399609 0.39961 0.299708 0.499512 0.399609 0.499513 0.299708 0.399609 0.299707 0.499513 0.299707 0.499512 0.299708 0.499512 0.299707 0.899122 0.599415 0.899122 0.599414 0.899122 0.599415 0.899122 0.499512 0.999024 0.499512 0.999024 0.499513 0.999025 0.499512 0.999024 0.499512 0.999025 0.499512 0.999024 0.39961 1.098927 0.499512 1.098927 0.39961 1.098927 0.39961 1.098926 0.399609 1.19883 0.299708 1.098926 0.299707 1.098927 0.299707 1.19883 0.199805 1.198829 0.199805 1.198829 0.199805 1.198829 0.199805v-20.979512H46.866732l-0.299708-0.099903-0.799219-0.099902-0.199805-0.099903-0.199805-0.099902-0.199805-0.199805-0.299707-0.099902-0.199805-0.099903-0.199805-0.199805-0.299707-0.199805-0.199805-0.199805-0.199805-0.199804-0.199805-0.199805-0.39961 0.199805-0.199804-0.199805-0.199805-0.199805-0.199805-0.199805-0.199805-0.199805-0.199805-0.199805v-0.299707l-0.199805-0.199805-0.199805-0.299707-0.099902-0.199805-0.199805-0.299708 0.099902-0.299707-0.099902-0.199805-0.099902-0.199805-0.099903-0.399609v-16.583805l0.099903-0.199805-0.099903-0.39961 0.099903-0.299707 0.099902-0.299707 0.199805-0.199805 0.099902-0.199805 0.199805-0.199805 0.199805-0.199805 0.199805-0.199805 0.199805-0.199805 0.199805-0.199805 0.199805-0.199805 0.199804-0.199804 0.199805-0.199805 0.199805-0.199805 0.199805-0.199805 0.199805-0.199805 0.199805-0.199805 0.299707-0.199805 0.199805-0.199805 0.199805-0.199804 0.299707-0.099903 0.199805-0.099902 0.199805-0.099903 0.199805-0.099902 0.299707-0.099903H89.425171l0.299707 0.099903 0.299707 0.099902 0.299708 0.099903 0.199805 0.099902 0.199804 0.099903 0.199805 0.199804 0.199805 0.199805 0.199805 0.199805 0.199805 0.199805 0.199805 0.199805 0.199805 0.199805 0.199805 0.199805 0.199804 0.199805 0.199805 0.199804 0.199805 0.199805 0.199805 0.199805 0.199805 0.199805 0.199805 0.199805 0.199805 0.199805 0.199805 0.199805 0.199804 0.199805 0.099903 0.199805 0.099902 0.299707 0.099903 0.299707 0.099902 0.299707 0.099903 0.199805 0.099902 0.199805V534.478049l-0.099902 0.199805-0.299708 0.599414-0.099902 0.199805-0.099903 0.199805-0.099902 0.199805-0.099902 0.299707v0.299708l-0.199805 0.299707-0.199805 0.199805-0.199805 0.199805-0.099902 0.299707-0.199805 0.199805-0.199805 0.199805-0.199805 0.199805-0.199805 0.199804-0.099902 0.199805-0.199805 0.199805-0.199805 0.199805-0.199805 0.199805-0.199805 0.199805-0.199805 0.199805-0.199805 0.099902-0.199805 0.099903-0.199804 0.199804-0.299708 0.099903-0.299707 0.099902-0.299707 0.099903-0.299708 0.099902H75.139122v19.780683l1.098927-0.199805 1.098927-0.199805 1.098926-0.199804 1.098927-0.199805 1.098927-0.299708 1.198829-0.299707 0.999025-0.299707 0.999024-0.299708 1.098927-0.399609 0.999024-0.39961 0.999025-0.499512 0.999024-0.39961 0.999025-0.499512 0.999024-0.499512 0.999024-0.499513 0.899122-0.499512 0.899122-0.499512 0.899122-0.499512 0.899122-0.499512 0.899122-0.499513 0.79922-0.599414 0.799219-0.599415 0.79922-0.599415 0.799219-0.699317 0.79922-0.699317 0.399609-0.299707 0.499513-0.299707 0.399609-0.39961 0.39961-0.39961 0.39961-0.39961 0.39961-0.399609 0.399609-0.39961 0.39961-0.39961 0.39961-0.39961 0.39961-0.399609 0.399609-0.39961 0.39961-0.39961 0.39961-0.39961 0.39961-0.399609 0.399609-0.39961 0.39961-0.39961 0.299707-0.39961 0.39961-0.499512 0.299708-0.39961 0.399609-0.399609 0.599415-0.79922 0.599415-0.799219 0.699317-0.79922 0.499512-0.799219 0.499512-0.79922 0.599415-0.899122 0.499512-0.899122 0.499512-0.899122 0.499512-0.899122 0.499512-0.899122 0.499513-0.999024 0.499512-0.999024 0.499512-0.999025 0.39961-0.999024 0.39961-0.999025 0.399609-0.999024 0.39961-1.098927 0.299707-1.098927 0.299708-0.999024 0.199805-1.098927 0.199804-1.098927 0.199805-1.098927 0.199805-1.098926 0.199805-1.098927 0.199805-1.098927 0.199805-1.098927 0.199805-1.098927 0.099902-1.198829 0.099903-1.098927h15.18517v0.79922l-0.099902 0.799219-0.099903 0.79922-0.099902 0.799219-0.099902 0.79922-0.199805 0.799219-0.099903 0.79922-0.199805 0.799219-0.199804 0.79922-0.199805 0.799219-0.199805 0.79922-0.199805 0.799219-0.199805 0.79922-0.199805 0.799219-0.199805 0.79922-0.199805 0.799219-0.199805 0.79922-0.199804 0.799219-0.199805 0.699317-0.199805 0.79922-0.199805 0.79922-0.199805 0.799219-0.199805 0.699317-0.199805 0.79922-0.199805 0.699317-0.299707 0.799219-0.199805 0.79922-0.199805 0.799219-0.299707 0.699317-0.299707 0.79922-0.299708 0.699317-0.299707 0.699317-0.299707 0.699317-0.299708 0.79922-0.399609 0.699317-0.39961 0.699317-0.299707 0.699317-0.39961 0.699317-0.39961 0.699317-0.39961 0.599415-0.399609 0.699317-0.39961 0.699317-0.499512 0.599414-0.499513 0.599415-0.399609 0.699317-0.499512 0.599415-0.499513 0.699317-0.499512 0.599414-0.499512 0.599415-0.499512 0.599415h0.39961l-0.499513 0.599414-0.499512 0.599415-0.499512 0.599415-0.499512 0.499512-0.499512 0.599414-0.499513 0.599415-0.499512 0.499512-0.499512 0.499512-0.499512 0.499513-0.099903 0.599414-0.499512 0.499512-0.499512 0.499513-0.499512 0.499512-0.499512 0.499512-0.599415 0.499512-0.499512 0.499512-0.499512 0.499513-0.499513 0.499512-0.599414 0.499512-0.599415 0.499512-0.499512 0.499512-0.79922 0.599415-0.599414 0.499512-0.599415 0.499512-0.599415 0.499513-0.599414 0.499512-0.599415 0.499512-0.599414 0.499512-0.699318 0.499512-0.699317 0.499513-0.599414 0.399609-0.699317 0.39961-0.699317 0.499512-0.699317 0.39961-0.699318 0.39961-0.699317 0.39961-0.699317 0.399609-0.699317 0.39961-0.699317 0.299707-0.699317 0.39961-0.699317 0.39961-0.699317 0.299707-0.79922 0.299708-0.699317 0.299707-0.699317 0.299707-0.699317 0.299707-0.799219 0.299708-0.79922 0.199805-0.799219 0.199805-0.699317 0.299707-0.79922 0.199805-0.799219 0.199805-0.79922 0.199804-0.799219 0.199805-0.79922 0.199805-0.799219 0.199805-0.79922 0.199805-0.799219 0.199805-0.79922 0.199805-0.79922 0.199805-0.799219 0.199805-0.79922 0.199804-0.799219 0.199805-0.79922 0.199805-0.799219 0.199805-0.79922 0.199805-0.799219 0.099902-0.79922 0.099903-0.799219 0.099902-0.79922 0.099903-0.799219 0.099902-0.79922 0.099903-0.799219 0.099902H70.144l-0.79922 0.099902h-4.795317l-0.799219-0.099902-0.79922-0.099902-0.799219-0.099903-0.79922-0.099902-0.799219-0.099903-0.79922-0.099902-0.799219-0.099903-0.79922-0.199805-0.799219-0.199804-0.79922-0.099903-0.799219-0.199805-0.79922-0.199805-0.799219-0.199804-0.79922-0.199805-0.799219-0.199805-0.79922-0.199805-1.598439-0.199805-0.799219-0.199805-0.79922-0.199805-0.799219-0.199805-0.79922-0.199805-0.799219-0.199804-0.79922-0.299708-0.799219-0.299707-0.79922-0.199805-0.799219-0.299707-0.699317-0.39961-0.79922-0.299707-0.699317-0.299708-0.79922-0.299707-0.699317-0.39961-0.699317-0.299707-0.699317-0.39961-0.699317-0.299707-0.699317-0.39961-0.699317-0.39961-0.699317-0.399609-0.699317-0.39961-0.699317-0.499512-0.599415-0.499512-0.699317-0.39961-0.699317-0.39961-0.599415-0.499512-0.699317-0.499512-0.699317-0.39961-0.599414-0.499512-0.599415-0.499513-0.699317-0.499512-0.599415-0.499512-0.599414-0.499512-0.599415-0.499512-0.599415-0.499513-0.599414-0.499512-0.599415-0.499512-0.499512-0.499512-0.599415-0.499512-0.499512-0.499512-0.499512-0.499513-0.499512-0.499512-0.499513-0.499512-0.599414-0.599415-0.499512-0.499512-0.499513-0.499512-0.499512-0.599415-0.499512-0.499512-0.499512-0.599415-0.499512-0.599414-0.499513-0.499512-0.499512-0.699317-0.499512-0.499513-0.499512-0.599414-0.499512-0.699317-0.499513-0.599415-0.499512-0.599415-0.499512-0.599414-0.499512-0.599415-0.499512-0.699317-0.499513-0.699317 0.099903-0.999024-0.499512-0.699318-0.39961-0.899121-0.39961-0.699318-0.499512-0.699317-0.39961-0.699317-0.399609-0.699317-0.39961-0.699317-0.39961-0.699317-0.299707-0.699317-0.299708-0.699317-0.399609-0.699317-0.299708-0.79922-0.299707-0.699317-0.299707-0.799219-0.299708-0.79922-0.299707-0.699317-0.299707-0.799219-0.199805-0.699317-0.199805-0.79922-0.299707-0.799219-0.199805-0.79922-0.199805-0.799219-0.199805-0.79922-0.199805-0.799219-0.199805-0.79922-0.199805-0.799219-0.299707-0.599415-0.199805-0.79922-0.199805-0.799219-0.199805-0.79922-0.199804-0.799219-0.199805-0.79922-0.199805-0.799219-0.199805-0.79922-0.199805-0.799219-0.199805-0.79922 0.299707-0.699317-0.099902-0.799219-0.099902-0.79922-0.099903-0.799219-0.099902-0.79922 0.099902-0.899122v-4.995122l0.099903-1.198829 0.099902-1.198829 0.099902-1.298732 0.199805-1.198829 0.199805-1.19883 0.199805-1.198829 0.199805-1.198829 0.199805-1.198829 0.199805-1.19883 0.099902-1.098926 0.299707-1.19883 0.299708-1.198829 0.299707-1.198829 0.299707-1.098927 0.299708-1.198829 0.39961-1.098927 0.399609-1.098927 0.499512-1.098927 0.39961-1.198829 0.499512-0.79922 0.499513-1.098926 0.499512-0.999025 0.499512-1.098927 0.499512-0.999024 0.499512-0.999024 0.499513-0.999025 0.599414-1.098927 0.599415-0.899122 0.599414-0.999024 0.599415-0.999024 0.699317-0.899122 0.699317-0.899122 0.699317-0.899122 0.699317-0.899122 0.699317-0.899122 0.699318-0.79922 0.799219-0.899122 0.79922-0.799219 0.799219-0.79922 0.79922-0.799219 0.799219-0.79922 0.39961-0.499512 0.499512-0.39961 0.79922-0.799219 0.799219-0.79922 0.79922-0.799219 0.799219-0.79922 0.79922-0.699317 0.799219-0.799219 0.899122-0.699317 0.899122-0.79922 0.899122-0.599414 0.899122-0.699318 0.899122-0.699317 0.999024-0.599414 0.899122-0.599415 0.999025-0.499512 0.999024-0.599415 0.999024-0.499512 1.098927-0.499512 1.098927-0.499512 0.999024-0.499512 1.498537-0.999025z m23.876683 83.318634h6.193951v-14.685658h-6.193951v14.685658z m54.247024-26.274341l-0.099902-1.198829-0.199805-1.098927-0.199805-1.19883-0.199805-1.098926-0.199805-1.19883-0.199804-1.198829-0.199805-1.098927-0.199805-1.098927-0.199805-1.098926-0.199805-1.098927-0.299707-0.999025-0.299708-1.098926-0.399609-1.098927-0.39961-0.999025-0.39961-0.999024-0.499512-0.999024-0.499512-0.999025-0.499512-0.899122-0.499513-0.999024-0.499512-0.999025-0.499512-0.899122-0.499512-0.899121-0.499512-0.899122-0.499513-0.899122-0.599414-0.79922-0.599415-0.799219-0.599415-0.79922-0.699317-0.799219-0.299707-0.499513-0.299707-0.399609-0.39961-0.39961-0.39961-0.499512-0.299707-0.39961-0.39961-0.39961-0.39961-0.39961-0.399609-0.499512-0.299708-0.39961-0.399609-0.399609-0.39961-0.39961-0.39961-0.499512-0.39961-0.299708-0.399609-0.399609-0.39961-0.299708-0.499512-0.399609-0.39961-0.39961-0.499512-0.39961-0.39961-0.299707-0.499512-0.39961-0.39961-0.299707-0.39961-0.299708-0.799219-0.599414-0.79922-0.599415-0.799219-0.599415-0.79922-0.399609-0.799219-0.79922-0.899122-0.499512-0.899122-0.599415-0.899122-0.499512-0.899122-0.499512-0.999025-0.499512-0.999024-0.499512-0.999024-0.499513-0.999025-0.499512-0.999024-0.39961-0.999025-0.399609-1.098926-0.39961-1.098927-0.39961-1.098927-0.299707-1.098927-0.199805-1.198829-0.39961-1.098927-0.299707-0.899122-0.099903-1.098927-0.199804-1.198829-0.199805-1.098927-0.199805v20.48H89.525073l0.299707 0.099902 0.299708 0.099903 0.299707 0.099902 0.199805 0.099903 0.199805 0.099902 0.199805 0.199805 0.199805 0.199805 0.199805 0.199805 0.199804 0.199805 0.499513-0.099903 0.199804 0.199805 0.199805 0.199805 0.199805 0.199805 0.199805 0.199805 0.199805 0.199804 0.199805 0.199805 0.199805 0.199805 0.199805 0.199805 0.199804 0.299707 0.199805 0.199805 0.199805 0.199805 0.099903 0.199805 0.099902 0.299707 0.099903 0.299708 0.099902 0.299707 0.099902 0.199805 0.099903 0.299707V502.109659l-0.499512 0.399609-0.099903 0.299708-0.099902 0.299707-0.099903 0.199805v0.199805l-0.099902 0.299707-0.199805 0.199805-0.199805 0.299707-0.199805 0.199805-0.199805 0.199805-0.199804 0.199805 0.099902 0.299707-0.199805 0.299707-0.199805 0.199805-0.199805 0.199805-0.199805 0.199805-0.199804 0.099903-0.199805 0.199804-0.299708 0.099903-0.199804 0.199805-0.199805 0.199805-0.199805 0.199804-0.199805 0.099903-0.199805 0.099902-0.299707 0.099903-0.299708 0.099902-0.299707 0.099903-0.39961-0.099903H46.567024l-0.299707-0.099902-0.299707-0.099903-0.199805-0.099902-0.199805-0.099903-0.199805-0.099902-0.299707-0.099902-0.199805-0.199805-0.39961-0.199805h-0.499512l-0.199805-0.199805-0.199805-0.199805-0.199805-0.199805-0.199805-0.199805-0.199804-0.199805h-0.099903l-0.199805-0.199804-0.199805-0.199805-0.199804-0.199805-0.199805-0.199805-0.199805-0.199805-0.199805-0.299707-0.099903-0.199805v-0.499512l-0.099902-0.199805-0.099902-0.199805-0.099903-0.299707V485.425951l0.099903-0.199805 0.099902-0.299707 0.099902-0.299707 0.099903-0.299708 0.199805-0.199804 0.099902-0.199805 0.199805-0.199805 0.199805-0.299708 0.199805-0.199804 0.199805-0.199805 0.199805-0.199805 0.199804-0.199805 0.199805-0.199805 0.199805-0.199805 0.199805-0.199805 0.199805-0.199805 0.199805-0.199804 0.199805-0.199805 0.299707-0.199805 0.199805-0.199805 0.199805-0.199805 0.299707-0.099902 0.199805-0.099903 0.199805-0.099902 0.39961-0.099903 0.299707-0.099902H60.153756V444.765659l0.999024-0.199805 0.999025-0.099903 0.899122-0.099902 0.999024-0.099903 1.098927-0.099902 0.999024-0.099903H71.342829l0.79922 0.299708h0.799219l0.79922 0.099902 0.899122 0.099903 0.799219 0.099902 0.79922 0.099903h0.899122l0.799219 0.199804 0.79922 0.199805 0.799219 0.199805 0.79922 0.199805h0.799219l0.79922 0.199805 0.799219 0.199805 0.79922 0.199805 0.799219 0.199805 0.79922 0.199804 0.799219 0.199805 0.79922 0.199805 0.799219 0.199805 0.79922 0.199805 0.499512 0.199805 0.79922 0.199805 0.699317 0.199805 0.799219 0.199804 0.699317 0.199805 0.79922 0.299708 0.699317 0.299707 0.799219 0.199805 0.699317 0.299707 0.699318 0.39961 0.699317 0.299707 0.699317 0.39961 0.699317 0.299707 0.499512 0.599415 0.699317 0.39" fill="#E30016"></path></svg>