<svg viewBox="0 0 1024 1024" version="1.1" xmlns="http://www.w3.org/2000/svg"><path d="M227.11284 0h573.758755c123.119066 0 223.128405 100.009339 223.128405 223.128405v573.758755c0 123.119066-100.009339 223.128405-223.128405 223.128404H227.11284c-123.119066 0-223.128405-100.009339-223.128404-223.128404V223.128405C3.984436 100.009339 103.993774 0 227.11284 0z" fill="#FFFFFF"></path><path d="M374.536965 203.206226l-0.398444 88.852918-3.585992 2.390661-3.585992 2.390662-2.789105 1.992218-3.187549 1.992218-3.187548 2.789105-3.187549 2.390661-3.187549 2.390662-3.187548 2.390661-3.187549 2.390662-2.789105 2.390661-3.585992 3.187549-2.789105 2.789105-2.789105 2.789105-2.789105 2.789105-3.585993 2.789105-2.789105 2.789105-2.789105 3.187549-2.390661 2.789105-2.390662 3.187548-2.789105 2.789105-2.789105 3.187549-2.390661 3.187549-2.390662 3.187548-2.789105 3.187549-1.992218 3.187549-2.390661 3.187548-2.390662 3.187549-2.390661 3.187549-1.992218 3.585992-1.992218 3.585992-2.390661 3.585992-1.992218 3.187549-1.992218 3.585992-1.992218 3.585992-1.992218 3.585993-0.796887 3.585992-1.593774 3.585992-1.593775 3.585992-1.593774 3.984436-1.593774 3.585992-1.195331 3.585992-1.195331 3.984436-1.195331 3.984436-1.19533 3.984436-1.195331 3.984436-1.195331 3.984435-1.195331 3.984436-0.796887 3.984436-0.796887 3.984436-1.195331 3.984436-0.796887 3.984435-0.796887 3.984436-0.796887 3.984436-0.796887 3.984436-0.398444 4.382879-0.398443 3.984436-0.796888 4.382879-0.398443 3.984436-0.398444 4.38288-0.398443 3.984435-0.398444 3.984436v18.726848l0.398444 5.976654 0.398443 5.976654 0.398444 5.976653 0.796887 5.976654 0.796887 5.976654 0.796887 5.57821 1.195331 5.976654 1.195331 5.57821 1.19533 5.57821 1.593775 5.57821 1.195331 5.57821 1.593774 5.57821 1.992218 5.57821 1.992218 5.57821 1.992218 5.578211 1.992217 5.179766 2.390662 5.57821 2.390661 5.179767 2.390662 5.179766 2.789105 5.179767 2.789105 5.179766 2.789105 4.781323 2.789105 5.179767 2.789105 4.781323 3.187549 4.781323 3.187548 4.781323 1.593775 2.390661 1.593774 1.992218 1.992218 2.390662 1.593774 1.992218 1.593775 2.390661 1.593774 2.390661 1.593774 2.390662 1.992218 1.992218 1.992218 2.390661 1.593774 1.992218 1.992218 1.992218 1.992218 2.390662 1.992218 1.992218 1.992218 1.992217 1.992218 1.992218 2.390661 1.992218 1.992218 2.390662 1.992218 1.992218 1.992218 1.992217 1.992218 1.992218 2.390661 1.992218 1.992218 1.992218 2.390662 1.992218 1.992218 1.992218 2.390661 1.992218 1.992218 1.593774 2.390662 1.992218 2.390661 1.593774 1.992218 1.593775 2.390661 1.593774 2.390662 1.593774 2.390661 1.593775 4.781323 3.187548 4.781323 3.187549 4.781323 3.187549 4.781323 2.390661 5.179767 2.789105 5.179766 2.789105 5.179767 2.390662 5.179766 2.390661 5.179767 2.390662 5.179766 1.992218 5.578211 2.390661 5.57821 1.992218 5.57821 1.992218 5.57821 1.992218 5.976654 1.593774 5.57821 1.593774 5.57821 1.593775 5.976654 1.19533 5.976653 0.796888 5.976654 1.19533 5.976654 0.796887v-102.4h-73.313619l-1.593774-0.398443-1.593775-0.398444-1.19533-0.398443-1.195331-0.398444-1.195331-0.796887-1.593774-0.398444-1.195331-0.398443-1.195331-0.796887-1.593774-0.796887-1.195331-0.796888-1.195331-0.796887-1.19533-0.796887-0.796887-0.796887-1.195331-1.195331-0.796887-1.195331-0.796887-0.796887-0.796888-1.195331-0.796887-1.19533-0.796887-1.195331-0.796887-1.195331-0.796887-1.593774-0.398444-1.195331-0.796887-1.593774-0.398444-1.195331-0.398443-1.195331-0.398444-1.19533-0.398443-1.992218v-86.860701l0.398443-1.19533-2.390661-0.398444 0.398443-1.593774 0.398444-1.593775 0.796887-1.19533 0.398444-1.195331 0.796887-1.195331 0.796887-1.195331 0.796887-1.19533 0.796887-1.195331 0.796887-1.195331 0.796888-0.796887 0.796887-0.796887 1.195331-1.195331 0.796887-0.796887 1.19533-1.195331 1.195331-0.796887 1.195331-0.796887 1.593774-0.796887 1.195331-0.796887 1.195331-0.796887 1.593774-0.398444 1.195331-0.398444 1.195331-0.398443 1.19533-0.398444 1.593775-0.398443h224.323735l1.593774 0.398443 1.593775 0.398444 1.593774 0.398443 1.195331 0.398444 1.19533 0.398444 1.195331 0.796887 1.195331 0.796887 1.195331 0.796887 1.19533 0.796887 1.195331 0.796887 1.195331 1.195331 1.195331 0.796887 0.796887 1.195331 0.796887 0.796887 1.195331 0.796887 0.796887 1.195331 0.796887 1.195331 0.796887 1.19533 0.796887 1.195331 0.796887 1.195331 0.796888 1.195331 0.398443 1.19533 0.398444 1.593775 0.398443 1.593774 0.398444 1.593774 0.398443 1.195331 0.398444 1.195331v84.470039l-0.398444 1.195331-0.398443 1.992217-0.398444 1.195331-0.398443 1.195331-0.398444 1.195331-0.398443 1.593774-0.796888 1.195331-0.796887 1.593774-0.796887 1.195331-0.796887 1.19533-0.796887 1.195331-0.796887 1.195331-1.195331 0.796887-0.796887 1.195331-0.796887 1.195331-1.195331 0.796887-1.195331 0.796887-1.195331 0.796887-1.19533 0.796887-1.195331 0.796887-1.195331 0.796888-1.195331 0.398443-1.19533 0.398444-1.195331 0.796887-1.593774 0.398443-1.593775 0.398444-1.593774 0.398444-1.593774 0.398443h-72.516732v102.4l5.57821-0.796887 5.57821-1.195331 5.57821-0.796887 5.578211-1.195331 5.57821-1.593774 5.976653-1.593774 5.179767-1.593775 5.179766-1.593774 5.578211-1.992218 5.179766-1.992218 5.179767-2.390661 5.179766-1.992218 5.179767-2.390662 5.179766-2.390661 5.179767-2.390661 4.781323-2.390662 4.781323-2.789105 4.781323-2.390661 4.781323-2.789106 4.781323-2.789105 4.382879-3.187548 4.382879-3.187549 4.38288-3.187549 4.382879-3.585992 4.38288-3.585992 1.992217-1.593774 2.390662-1.593775 1.992218-1.992217 1.992218-1.992218 1.992218-1.992218 1.992217-1.992218 1.992218-1.992218 1.992218-1.992218 1.992218-1.992218 1.992218-1.992218 1.992218-1.992218 1.992218-1.992218 1.992218-1.992217 1.992218-1.992218 1.992218-1.992218 1.992217-1.992218 1.593775-1.992218 1.992218-2.390662 1.593774-1.992217 1.992218-1.992218 3.187549-4.38288 3.187548-4.382879 3.585992-4.382879 2.789105-4.38288 2.789106-4.382879 3.187548-4.781323 2.789105-4.781323 2.789105-4.781323 2.390662-4.781323 2.789105-4.781323 2.390661-5.179767 2.390662-5.179766 2.390661-5.179767 1.992218-5.179766 1.992218-5.179767 1.992218-5.179766 1.992218-5.57821 1.593774-5.57821 1.593774-5.179767 1.195331-5.57821 1.195331-5.57821 1.195331-5.57821 1.19533-5.57821 0.796888-5.578211 1.19533-5.57821 0.796887-5.57821 0.796888-5.57821 0.398443-5.976654 0.398444-5.57821h78.493385v3.984436l-0.398444 3.984436-0.398443 4.382879-0.398444 3.984436-0.398443 3.984436-0.796887 3.984436-0.398444 3.984435-0.796887 4.38288-0.796887 3.984436-0.796888 4.382879-0.796887 3.984436-0.796887 3.984436-0.796887 3.984435-0.796887 3.984436-0.796887 3.984436-0.796887 3.984436-0.796888 3.984436-0.796887 3.984435-1.195331 3.585993-0.796887 3.984435-1.19533 3.984436-1.195331 3.984436-1.195331 3.585992-1.195331 3.984436-1.19533 3.585992-1.593775 3.984436-1.19533 3.984436-1.195331 3.984436-1.593775 3.585992-1.593774 3.984436-1.593774 3.585992-1.593774 3.585992-1.593775 3.585992-1.593774 3.984436-1.992218 3.585992-1.992218 3.585992-1.593774 3.585993-1.992218 3.585992-1.992218 3.585992-1.992218 3.187549-1.992218 3.585992-1.992218 3.585992-2.390661 3.187549-2.390662 3.187548-1.992218 3.585993-2.390661 3.187548-2.390662 3.585993-2.390661 3.187548-2.390661 3.187549-2.390662 3.187548-2.390661 3.187549-2.390662 3.187549-2.390661 3.187548-2.789105 3.187549-2.789106 2.789105-2.390661 3.187549-2.789105 3.187548-2.789105 2.789105-2.789105 2.789105-2.789105 2.789106 0.398443 3.187548-2.789105 2.789105-2.789105 2.789105-2.789105 2.789105-2.789105 2.789105-3.187549 2.390662-2.789105 2.390661-2.789105 2.789105-2.789105 2.390662-3.187548 2.390661-3.187549 2.789105-2.789105 2.390662-3.984436 3.187549-3.187548 2.390661-3.187549 2.390662-3.187549 2.390661-3.187548 2.390661-3.187549 2.390662-3.187549 2.390661-3.585992 2.390662-3.585992 2.390661-3.187549 1.992218-3.585992 1.992218-3.585992 2.390662-3.585992 1.992218-3.585993 1.992217-3.585992 1.992218-3.585992 1.992218-3.585992 1.992218-3.585992 1.593774-3.585993 1.992218-3.585992 1.992218-3.585992 1.593775-3.984436 1.593774-3.585992 1.593774-3.585992 1.593775-3.585993 1.593774-3.984435 1.593774-3.984436 1.195331-3.984436 1.195331-3.585992 1.593774-3.984436 1.195331-3.984436 1.19533-3.984436 1.195331-3.984435 1.195331-3.984436 0.796887-3.984436 1.195331-3.984436 0.796887-3.984436 1.195331-3.984435 0.796887-3.984436 0.796887-4.38288 0.796887-3.984435 0.796887-3.984436 0.796888-3.984436 0.796887-4.382879 0.796887-3.984436 0.796887-4.382879 0.398444-3.984436 0.398443-4.38288 0.398444-4.382879 0.398443-4.382879 0.398444-3.984436 0.398443-4.38288 0.398444h-3.984435l-4.38288 0.398444h-26.297276l-4.382879-0.398444-4.38288-0.398444-3.984436-0.398443-4.382879-0.398444-4.382879-0.398443-4.38288-0.398444-4.382879-0.398443-4.382879-0.796888-4.38288-0.796887-3.984436-0.398443-4.382879-0.796887-4.382879-0.796888-3.984436-0.796887-4.38288-1.195331-3.984435-1.19533-3.984436-0.796887-4.38288-0.796888-3.984435-1.19533-3.984436-0.796887-3.984436-1.195331-3.984436-1.195331-3.984436-1.195331-3.984435-1.593774-3.984436-1.593774-3.984436-1.195331-3.984436-1.593774-3.585992-1.992218-3.984436-1.593775-3.585992-1.593774-3.984436-1.593774-3.585992-1.992218-3.585992-1.593774-3.585992-1.992218-3.585993-1.593775-3.585992-1.992218-3.585992-1.992217-3.585992-1.992218-3.585993-1.992218-3.585992-2.390662-3.187548-2.390661-3.585993-1.992218-3.585992-1.992218-3.187548-2.390662-3.585993-2.390661-3.585992-1.992218-3.187549-2.390661-3.187548-2.390662-3.585992-2.390661-3.187549-2.390662-3.187549-2.390661-3.187548-2.390662-3.187549-2.390661-3.187549-2.789105-3.187548-2.789105-2.789105-2.390662-3.187549-2.789105-2.789105-2.390661-2.789105-2.789105-2.789105-2.789106-2.789105-2.789105-3.187549-3.187548-2.789105-2.789105-2.789105-2.789105-2.789105-3.187549-2.789105-2.789105-2.789105-3.187549-2.789105-3.187548-2.789105-2.789105-2.789105-3.585993-2.390662-2.789105-2.390661-3.187548-2.390662-3.585992-2.789105-3.187549-2.390661-3.187549-2.390662-3.187548-2.390661-3.187549-2.390662-3.585992-2.390661-3.585992 0.398443-5.179767-2.390661-3.585992-1.992218-3.585992-1.992218-3.585993-2.390661-3.585992-1.992218-3.585992-1.992218-3.585992-1.992218-3.585993-1.992218-3.585992-1.593774-3.585992-1.593775-3.984436-1.593774-3.585992-1.593774-3.984436-1.593774-3.585992-1.593775-3.984436-1.593774-3.984436-1.593774-3.984435-1.593775-3.984436-1.19533-3.984436-1.195331-3.984436-1.195331-3.984436-1.195331-3.984435-1.19533-3.984436-1.195331-3.984436-1.195331-3.984436-1.195331-3.984436-0.796887-3.984435-0.796887-3.984436-0.796887-3.984436-0.796887-3.984436-0.796887-3.984436-0.796888-4.382879-0.796887-3.984436-1.593774-3.984436-0.796887-3.984435-0.796887-4.38288-0.796888-3.984436-0.398443-4.382879-0.398444-4.382879-0.398443-3.984436-0.398444-4.382879-0.398443-3.984436-0.398444-4.38288V499.249805l0.398444-6.375097 0.398443-6.375097 0.398444-5.976654 0.796887-5.976653 0.796887-6.375098 0.796887-6.375097 0.796887-5.976654 1.195331-5.976653 1.195331-5.976654 1.195331-6.375097 1.19533-5.976654 1.593775-5.976654 1.593774-5.976654 1.593774-5.57821 1.593775-5.976653 1.992217-5.57821 1.992218-5.578211 2.390662-5.57821 1.992218-5.976653 2.390661-5.57821 2.390662-5.578211 2.390661-5.57821 2.789105-5.57821 2.789105-5.57821 2.789105-5.179766 2.789105-5.179767 3.187549-5.57821 3.187549-4.781323 3.187548-5.179767 3.187549-5.179766 3.585992-4.781323 3.585992-4.781323 3.585993-4.781323 3.585992-4.781323 3.585992-4.781323 3.585992-4.382879 3.984436-4.781323 3.984436-4.38288 3.984436-4.382879 4.382879-4.382879 3.984436-3.984436 1.992218-2.390662 2.390661-1.992218 4.38288-3.984435 4.382879-4.38288 4.382879-3.984436 4.38288-3.984435 4.382879-3.585993 4.382879-3.984435 4.781323-3.585993 4.781323-3.984435 4.781323-3.187549 4.781323-3.585992 4.781323-3.585992 5.179767-3.187549 4.781323-3.187549 5.179766-2.789105 5.179767-3.187548 5.179766-2.789106 5.57821-2.789105 5.578211-2.789105 5.179766-2.390661L374.536965 203.206226z m123.51751 430.319066h31.875486v-75.70428h-31.875486v75.70428z m280.105836-135.869261l-0.398443-5.976654-0.796887-5.57821-0.796888-5.976653-0.796887-5.57821-0.796887-5.976654-0.796887-5.976654-1.195331-5.57821-1.195331-5.57821-1.19533-5.57821-1.195331-5.57821-1.593774-5.179767-1.593775-5.57821-1.992218-5.57821-1.992217-5.179767-1.992218-5.179766-2.390662-5.179767-2.390661-5.179766-2.390662-4.781323-2.390661-5.179767-2.789105-5.179766-2.789105-4.781323-2.789105-4.781323-2.789106-4.781323-2.789105-4.781323-3.187548-4.38288-3.187549-4.382879-3.187549-4.382879-3.585992-4.38288-1.593774-2.390661-1.593774-1.992218-1.992218-1.992218-1.992218-2.390661-1.593774-1.992218-1.992218-1.992218-1.992218-1.992218-1.992218-2.390662-1.593774-1.992217-1.992218-1.992218-1.992218-1.992218-1.992218-2.390662-1.992218-1.593774-1.992218-1.992218-1.992218-1.593774-2.390661-1.992218-1.992218-1.992218-2.390662-1.992218-1.992218-1.593774-2.390661-1.992218-1.992218-1.593775-1.992218-1.593774-4.382879-3.187548-4.38288-3.187549-4.382879-3.187549-4.781323-3.187548L657.431907 290.863813l-4.781323-2.789105-4.781323-3.187548-4.781323-2.789106-4.781323-2.789105-5.179767-2.789105-5.179766-2.390661-5.179767-2.390662-5.179766-2.390661-5.179767-1.992218-5.179766-1.992218-5.578211-1.992218-5.57821-1.992218-5.57821-1.593774-5.57821-1.195331-5.57821-1.593774-5.976654-1.195331-5.57821-1.195331-5.57821-1.19533-5.976654-0.796887-5.57821-0.796888v105.985993H627.150195l1.593774 0.398443 1.593774 0.398444 1.593775 0.398443 1.19533 0.398444 1.195331 0.398444 1.195331 0.796887 1.19533 0.796887 1.195331 0.796887 1.195331 0.796887 1.195331 0.796887 1.19533 0.796887 1.195331 1.195331 0.796887 1.195331 0.796887 0.796887 1.195331 1.195331 0.796887 1.195331 0.796888 1.19533 0.796887 1.195331 0.796887 1.593774 0.796887 1.195331 0.796887 1.195331 0.398444 1.195331 0.398443 1.593774 0.398444 1.593774 0.398443 1.593775 0.398444 1.19533 0.398444 1.593775V470.163424l-0.398444 1.593774-0.398444 1.593775-0.398443 1.593774-0.398444 1.195331-0.398443 1.195331-0.398444 1.593774-0.796887 1.195331v1.992218l-0.796887 1.19533-0.796887 0.796887-0.796887 1.195331-0.796888 1.195331-1.19533 1.195331-0.796888 1.19533-0.796887 1.195331-1.19533 0.796887-1.195331 0.796887-1.195331 0.796888-1.195331 0.796887-1.19533 0.796887-1.195331 0.796887-1.195331 0.796887-1.195331 0.398444-1.19533 0.398443-1.593775 0.398444-1.593774 0.398444-1.593774 0.398443-1.593775 0.398444H405.615564l-1.593774-0.398444-1.593774-0.398443-1.195331-0.398444-1.195331-0.398444-1.195331-0.398443-1.593774-0.398444-1.195331-0.796887-1.19533-0.796887-1.593775-0.796887-1.195331-0.796887-1.19533-0.796888-1.195331-0.796887-0.796887-0.796887-1.195331-1.195331-0.796887-1.19533-0.796887-1.195331-0.796887-1.195331-0.796888-1.195331-0.796887-0.796887-0.796887-1.19533-0.796887-1.593775-0.398444-1.195331-0.796887-1.593774-0.398443-1.195331-0.398444-1.19533-0.398443-1.593775-0.398444-1.593774V384.099611l0.398444-1.195331 0.398443-1.593774 0.398444-1.593774 0.398443-1.593775 0.796887-1.195331 0.398444-1.19533 0.796887-1.195331 0.796887-1.593774 0.796887-1.195331 0.796888-1.195331 0.796887-1.195331 0.796887-1.19533 0.796887-0.796887 1.195331-1.195331 0.796887-1.195331 1.195331-0.796887 1.19533-0.796887 1.195331-0.796887 1.593775-0.796888 1.19533-0.796887 1.195331-0.796887 1.593774-0.398443 1.195331-0.398444 1.195331-0.398444 1.195331-0.398443 1.593774-0.398444h70.922957V174.518288l5.179767-0.796887 5.179766-0.398444 5.179767-0.398443 5.179766-0.398444 5.57821-0.398444 4.781323-0.796887h27.492607l4.38288 0.398444 4.382879 0.398443 4.382879 0.398444 4.38288 0.398444 4.382879 0.398443 3.984436 0.398444 4.382879 0.398443 3.984436 0.796888 4.38288 0.796887 3.984435 0.796887 4.38288 0.796887 3.984436 0.796887 3.984435 0.796887 3.984436 0.796887 3.984436 1.195331 3.984436 1.195331 3.984436 0.796887 3.984435 0.796887 3.984436 1.195331 3.984436 1.195331 3.984436 1.19533 3.984435 1.195331 3.984436 1.195331 3.585993 1.195331 3.984435 1.19533 3.585993 1.195331 3.984435 1.593775 3.585993 1.593774 3.984435 1.195331 3.585993 1.593774 3.585992 1.992218 3.585992 1.593774 3.585992 1.992218 3.585992 1.593774 3.585993 1.992218 3.585992 1.992218 3.585992 1.992218 3.585992 1.593774 3.585993 1.992218 3.585992 1.992218 3.585992 2.390662 3.585992 1.593774 3.187549 2.390661 3.585992 2.390662 3.585992 1.992218 3.187549 2.390661 3.187549 2.390662 3.187548 2.390661 3.187549 1.992218 3.187548 2.390662 1.195331 2.789105 3.187549 2.390661 3.187548 2.390662 3.187549 2.789105 2.789105 2.390661 2.789105 2.390662 3.187549 2.789105 2.789105 2.789105 2.789105 2.789105 2.789105 2.789105 2.789105 2.789105 2.789105 2.789105 2.789105 2.789105 2.789105 2.789105 2.789105 3.187549 2.789105 2.789105 2.390662 2.789105 2.789105 3.187548 2.789105 2.789106 2.390661 3.187548 2.390662 3.187549 2.789105 2.789105 2.390661 3.585992 2.390662 3.187549 2.390661 3.187548 2.390662 3.187549 1.992218 3.187549 2.390661 3.187548 2.390662 3.187549 2.390661 3.585992 1.992218 3.187549 2.390662 3.585992 1.992218 3.187549 1.992217 3.187548 1.992218 3.585992 1.992218 3.585993 1.992218 3.585992 1.593774 3.585992 1.992218 3.585992 1.992218 3.585993 1.593775 3.585992 1.593774 3.585992 1.593774 3.984436 1.593774 3.585992 1.593775 3.984436 1.593774 3.585992 1.195331 3.984436 1.593774 3.585992 1.195331 3.984436 1.593774 3.585992 1.195331 3.984436 1.593774 3.984436 0.796887 3.984435 1.195331 3.984436 1.195331 3.984436 1.195331 3.585992 1.19533 3.984436 0.796888 3.984436 0.796887 4.382879 0.796887 3.984436 0.796887 4.382879 0.796887 3.984436 0.796887 4.38288 0.796888 3.984435 0.796887 4.38288 0.398443 3.984436 0.796887 3.984435 0.398444 3.984436 0.398444 4.38288 0.398443 4.382879 0.398444 4.382879 0.398443 4.38288 0.398444 3.984435v4.38288l-78.094942-1.195331zM498.054475 466.178988h31.875486V390.474708h-31.875486v75.70428z" fill="#E30016"></path></svg>