<svg viewBox="0 0 1024 1024" version="1.1" xmlns="http://www.w3.org/2000/svg"><path d="M98.6 414c33.6 0 63.8 17.4 81.2 44.2h-22l36 31.4c2.3 7 3.5 15.1 2.3 22.1 0 54.7-44.1 98.8-98.6 98.8-33.6 0-63.8-17.4-81.2-43H43L2.3 536.1C1.2 528 0 521 0 512.8 0 458.2 44.1 414 98.6 414z m0 26.7c-39.4 0-71.9 32.6-71.9 72.1s32.5 72.1 71.9 72.1 70.8-32.6 71.9-72.1c0-39.5-32.4-72.1-71.9-72.1z m31.4 33.2c4.6 0 8 3.4 8.1 7.9v62.9c0 4.6-3.4 8-7.9 8.1h-63c-4.6 0-8-3.4-8.1-7.9V482c0-4.6 3.4-8 7.9-8.1h63z m-40.7 16.2h-14v46.4h14V518h16.3v18.5h15.1v-46.4h-15.1v16.2H89.3v-16.2z" fill="#E60012"></path><path d="M624 440c1.2-2.3 4.7-1.2 7-1.2 4.7 1.2 8.1 2.3 9.3 4.7s2.3 4.7 1.2 7c2.3 0 4.7-1.2 7-1.2 5.8 0 11.6-1.2 16.3-2.3 4.7-1.2 8.1 0 11.6 1.2 2.3 1.2 3.5 2.3 4.7 4.7 0 1.2 0 2.3-1.2 3.5s-2.3 2.3-5.8 2.3c-2.3 0-5.8 1.2-9.3 1.2h-3.5c-2.3 1.2-4.7 1.2-7 1.2h-4.7c1.2 1.2 1.2 2.3 1.2 3.5 0 1.2-1.2 2.3-2.3 2.3s-2.3 1.2-4.7 3.5c5.8-1.2 8.1-2.3 8.1-2.3 2.3-1.2 5.8-1.2 8.1 0s4.7 2.3 5.8 3.5c2.3 2.3 2.3 4.7 1.2 8.2 0 1.2-1.2 3.5-1.2 9.3 1.2 5.8 1.2 10.5 1.2 16.3v14c0 5.8-1.2 10.5-4.7 14-1.2 1.2-3.5 3.5-5.8 3.5h-1.2c-1.2 0-2.3-1.2-3.5-3.5-1.2-2.3-3.5-4.7-5.8-7-2.3-1.2-4.7-3.5-3.5-5.8s3.5-1.2 5.8-1.2c2.2 0.7 3.5 1 4.1 1.1 0-0.1 0.5-0.6 0.5-2.1v-23.8c0-5-0.1-8.1-1.2-10.2 0-2.3-1.2-3.5-1.2-3.5H640c4.7 1.2 7 3.5 8.1 4.7s2.3 3.5 1.2 7c0 1-0.9 2.1-2 3.1l-0.4 0.4h1.2c2.3 1.2 2.3 2.3 2.3 3.5v0.2c0 0.6 0 1.2 0.2 1.3l-0.1 0.1c-0.4 0.5-0.6 1.4-1.2 2.7l-0.1 0.3c1.2 1.2 2.3 3.5 1.2 4.7-1.2 1.2-1.2 2.3-3.5 2.3l-9.3 1.2c-2.3 0-4.7 1.2-7 1.2-1.2 2.3-1.2 3.5-3.5 3.5-1.2 0-2.3-1.2-3.5-3.5-1.2-1.2-2.3-4.7-2.3-8.2-1.2-3.5-2.3-5.8-2.3-5.8-1-1-1.2-1.2-1.2-2v-0.1 6.8c0 7.9-1.1 13.7-2.2 18.3l-0.1 0.4c0 1.2-1.2 5.8-4.7 5.8-1.2 0-3.5 0-4.7-3.5-1.2-3.5-2.3-7-1.2-10.5 1.2-2.3 1.2-4.7 2.3-7 0-1.2 0-4.7 1.2-15.2 0-10.5-1.2-12.8-1.2-14-1.2-1.2-2.3-3.5-1.2-5.8 0 0 1.2-1.2 3.5-1.2 1.2 0 3.5 0 4.7 1.2 0 0 1.2 1.2 5.8 0h3.5c-1.2-1.2-1.2-2.3-2.3-3.5-1.2-2.3-2.3-3.5-2.3-5.8l-14 1.2c-2.3 1.2-5.8 0-9.3-2.3-1.2 0-4.7-2.3-3.5-4.7 1.2-2.3 4.7-2.3 5.8-2.3 4.7 0 8.1-1.2 12.8-1.2 3.5-1.2 9.3-1.2 17.4-2.3h3.5c0-1.2-1.2-1.2-1.2-1.2-2.3-2.3-4.7-3.5-5.8-5.8-1.7-2.5-0.6-3.7-0.6-4.9z m-112.8 1.2c2.3-2.3 5.8-1.2 8.1-1.2 5.8 0 9.3 2.3 10.5 5.8s1.2 5.8 0 8.2c0 1.2-1.2 2.3-1.2 2.3h1.2c7-1.2 12.8-2.3 18.6-3.5 4.7-1.2 9.3-1.2 12.8 1.2 2.3 2.3 4.7 3.5 4.7 4.7 0 1.2 0 1.2-1.2 2.3-2.3 1.2-5.8 1.2-11.6 1.2h-9c-5.6 0-12.2 0.1-17.7 1.2v7c5.8-1.2 9.3-2.3 10.5-2.3 2.3-1.2 5.8-1.2 8.1 0 1.2 1.2 2.3 1.2 3.5 2.3l1.2 1.2c1.2 1.2 2.3 2.3 2.3 3.5 1.2 1.2 0 2.3-1.2 4.7-1.1 2.2-1.2 4.4-1.2 8.5v0.9c0 5.8-1.2 10.5-3.5 15.2-1.2 2.3-3.5 4.7-5.8 4.7-1.2 0-2.3 0-3.5-2.3s-3.5-4.7-5.8-7c-2.3-3.5-4.7-4.7-3.5-7l1.2-1.2h2.5c1.2 0 3.4 0 5.7 1.2h1.2v-9.3c0-3.5-1.2-5.8-1.2-5.8h-2.6c-1.4 0-4.6 0.1-7.9 1.2 0 18.7-1.2 31.5-1.2 39.7-1.2 12.8-2.3 17.5-5.8 17.5-4.4 0-4.6-5.3-4.7-12.9v-41.9c-1.2 0-3.5 1.2-5.8 1.2l-3.5 1.2v10.5c-1.2 4.7-1.2 8.2-2.3 11.7 0 1.2-1.2 4.7-3.5 4.7s-4.7-2.3-4.7-3.5c-1.2-3.5-2.3-7-1.2-9.3 0-2.3 1.2-4.7 1.2-8.2 0-2.3 0-5.8-1.2-8.2 0-1.2-2.3-3.5 0-5.8s4.7-1.2 5.8-1.2c3.2 1.1 5.5 1.2 6.7 1.2h0.7c2.2 0 4.5-0.1 8.9-1.2v-7c-9.3 1.2-16.3 2.3-19.8 2.3-3.2 1.1-5.5 1.2-6.7 1.2h-2.6c-2.3 0-4.7-1.2-8.1-3.5-1.2 0-3.5-2.3-2.3-4.7 1.2-3.5 4.7-2.3 5.8-2.3 2.3 0 9.3 0 19.8-1.2 8.1-1.2 15.1-1.2 22.1-2.3-1.2 0-2.3 0-3.5-1.2-3.5-2.3-5.8-5.8-8.1-8.2s-2.3-5.1-1.2-6.3zM431 440c1.2 0 3.5 1.2 7 2.3 5.8 2.3 5.8 7 2.3 8.2 0 0-1.2 2.3-1.2 9.3v23.3c0 9.3 1.2 18.7 1.2 25.7s0 12.8-1.2 17.5c-1.2 4.7-1.2 5.8-3.5 7h-1.2l-1.2-1.2c-1.2 0-2.3-2.3-3.5-7-1.2-3.5-1.2-7 0-10.5 0-1.2 1.2-5.8 1.2-22.2V461c0-9.3-1.2-12.8-2.3-14-1.2-1.2-2.3-3.5-1.2-5.8l1.2-1.2h2.4z m404.6 3.5c1.2 0 2.3-1.2 4.7 0 2.3 0 3.5 1.2 5.8 2.3 1.2 1.2 2.3 2.3 2.3 3.5 0 0 0 2.3-1.2 3.5-1.2 1.2-3.5 4.7-5.8 10.5 1.2-1.2 3.5-1.2 4.7-2.3 5.8-2.3 8.1 0 10.5 1.2 1 0 1.2 0.9 1.2 1.1v-1.2c-1.1 0-2.3-2.2-1.3-4.5l0.1-0.2c1.2-1.2 2.3-2.3 3.5-2.3h4.7c-1.2 0 1.2-1.2 5.8-2.3 4.7-1.2 7-2.3 7-3.5 3.5-3.5 8.1-2.3 10.5-1.2s4.7 2.3 5.8 4.7c0 0 0 2.3-1.2 3.5 0 1.2-1.2 3.5-2.3 7 0 3.5-1.2 7-2.3 11.7 0 1.2-1.2 2.3-1.2 3.5 1.2 0 2.3 1.2 3.5 1.2 2.3 1.2 4.7 2.3 5.8 4.7v2.3c0 1.2-1.2 2.3-2.3 3.5-1.2 0-3.5 2.3-9.3 8.2 3.5 3.5 7 5.8 10.5 8.2 3.5 1.2 8.1 2.3 11.6 3.5 2.3 0 5.8 1.2 5.8 2.3 0 3.5-3.5 4.7-4.7 4.7-8.1 2.3-16.3 2.3-19.8-1.2-1.2 0-1.2-1.2-2.3-2.3-1.2 0-2.3-2.3-3.5-3.5 1.2 2.3 0 3.5-1.2 4.7-1.2 0-2.3 1.2-3.5 2.3-2.3 1.2-3.5 2.3-5.8 4.7-3.5 2.3-5.8 5.8-7 8.2l-0.1 0.3c-1.1 2.1-2.2 3.2-3.3 3.2-1.2 0-3.5-1.2-4.7-3.5-2.3-3.5-2.3-7 0-10.5 1.2-1.2 2.3-3.5 2.3-10.5v-1.2l-3.5 3.5-2.3 2.3c-2.3 2.3-4.7 3.5-7 5.8-3.5 2.3-5.8 4.7-7 7-1.2 2.3-2.3 2.3-3.5 2.3-3.5 0-4.7-3.5-4.7-4.7-2.3-5.8 0-8.2 2.3-10.5 0.1-0.2 2.3-2.6 2.3-11.7-2.3 1.2-4.7 1.2-5.8 1.2h-0.4c-3.2 0-4.4 0-6.6-1.2-2.3-1.2-2.3-2.3-2.3-3.5 0-2.3 3.5-3.5 4.7-3.5h1.2c2.3 0 4.7-1.2 9.3-2.3v-5.8c-2.3 0-3.5 0-5.8-1.2h-1.2c-2.3 3.5-4.7 5.8-7 7-1.2 1.2-3.5 2.3-4.7 2.3-1 0-1.2 0-2-0.9l-0.3-0.3c-2.2-2.2-0.3-4.4 1.9-6.6l0.4-0.4c3.5-3.5 5.8-9.3 9.3-16.3 3.5-8.2 5.8-12.8 7-16.3 1.1-4.3 1.2-6.6 1.2-7v-0.2c0.1-1.1 0.1-3.3 1.2-3.3z m-453.4 7.8c1.2-1.2 3.5 0 6.9 1.2 2.3 0 3.5 2.3 4.6 3.5v8c0 1.7-0.6 4.7-1 9.3 0.3-1.1 0.9-2 2.4-2.5h1.2c2.3 0 3.5 1.2 5.8 4.7 1.2 2.3 2.3 5.8 1.2 8.2-1.2 2.3-2.3 4.7-3.5 5.8-1.2 1.2-1.2 1.2-2.3 1.2h-1.2c-1.2-1.2-2.3-2.3-2.3-3.5s-1.2-4.7-1.2-8.2c0-1.1-0.1-2.2-0.2-3.2 0 1-0.1 2.1-0.1 3.2 0 9.2 0 16.2-1.2 20.8-1.2 5.8-2.3 10.4-3.5 13.9-1.2 3.5-3.5 6.9-6.9 10.4-2.3 2.3-5.8 4.6-9.3 6.9-1.2 0-2.3 1.2-3.5 1.2s-1.2 0-2.3-1.2c-1.2-2.3 1.2-5.8 3.5-8.1 3.5-4.6 5.8-8.1 8.1-11.6 1.2-3.5 2.3-8.1 3.5-13.9v-2.3c0-4.6 1.2-9.2 1.2-13.9v-13.7c-1.2-4.6-1.2-6.9-2.3-8.1-1.2-2.3-2.3-4.6-1.2-5.8 1.3-1.1 2.5-2.3 3.6-2.3z m572.4 12c2.1 0 3.3 0.1 5.5 1.2 2.3 1.2 5.8 2.3 5.8 4.7 0 1.2 0 2.3-1.2 3.5l-3.5 4.7-1.2 1.2h1.2c1.2 0 5.8-1.2 8.1-1.2 4.7 0 11.6-1.2 20.9-3.5 10.5-1.2 16.3-3.5 18.6-3.5 3.5-2.3 7-1.2 10.5 1.2 2.3 1.2 3.5 2.3 4.7 1.2 0 1.2-1.2 2.3-2.3 3.5-3.5 1.2-5.8 1.2-8.1 1.2h-1.2c-2.3 1.2-4.7 1.2-8.1 1.2-2.3 1.2-4.7 1.2-7 1.2v10.5c0 4.7 1.2 8.2 1.2 12.8v12c0 2.3-0.1 5.6-1.2 7.8-1.2 2.3-2.3 4.7-4.7 7-1.2 0-2.3 2.3-4.7 2.3h-1.2s-2.3-1.2-2.3-3.5c0-1.2-1.2-3.5-2.3-4.7l-4.7-4.7c-2.3-1.2-1.2-2.3-1.2-3.5 1.2-2.3 3.5-2.3 7-1.2 2.2 1.1 2.3 1.2 3.3 1.2h0.2c1.1 0 1.2-2 1.2-4.2v-23.8c-1.1-2.1-1.2-3.3-1.2-4.4v-0.3c-7 2.3-12.8 2.3-15.1 3.5-4.7 2.3-7 0-9.3-1.2-1.2-1.2-2.3-2.3-2.3-4.7-1.2 1.2-2.3 2.3-3.5 4.7l-1.2 1.2c2.3 2.3 3.5 5.8 3.5 9.3-1.1 2.2-1.2 6.5-1.2 12.9v1.1c0 5.8-1.2 12.8-2.3 16.3-1.2 1.2-2.3 4.7-4.7 4.7-3.5 0-4.7-3.5-4.7-4.7-1.2-4.7-1.2-8.2 0-10.5 0-1.2 1.2-3.5 1.2-7 1.1-3.2 1.2-6.4 1.2-10.5v-4.6 0.2c-0.1 0.9-1.1 1-2.1 2l-0.2 0.2c-2.1 1.1-5.2 3.1-8.4 5.2l-0.9 0.6c-2.3 2.3-5.8 3.5-7 1.2l-1.2-2.3 2.3-2.3c0-1.2 1.2-3.5 5.8-7 3.5-3.5 5.8-5.8 9.3-10.5 3.5-3.5 5.8-7 7-10.5 1.1-3.3 1.2-4.5 1.2-4.7-1.2-1.2 0-1.2 0-2.3l0.5-0.2z m-666.4-21.6c0-1.2 2.3-2.3 4.7-1.2 2.3 0 3.5 1.2 5.8 2.3 1.2 1.2 2.3 2.3 2.3 3.5 0 1.2 0 2.3-1.2 4.7 0 0-1.2 3.5-3.5 15.1h2.3c2.3 0 4.7 0 7 1.2-1.1-1.1-1.2-2.1-1.2-2.3-1.2-1.2-2.3-3.5-1.2-5.8 1.2-1.2 2.3-2.3 3.5-2.3 0-1.2 2.3-1.2 4.7 0 0 0 1.2 0 5.8-1.2 3.5-1.2 4.7-2.3 5.8-2.3 1.2-2.3 4.7-1.2 5.8-1.2 2.3 1.2 4.7 2.3 9.3-1.2 4.7 3.5 3.5 7 2.3 8.2 0 0-1.2 1.2-1.2 5.8-1.1 3.3-1.2 7.6-1.2 14v1.2c0 5.8 1.2 11.7 1.2 17.5v14c0 3.5 0 7-1.2 9.3-1.2 3.5-2.3 5.8-3.5 7-1.2 1.2-2.3 1.2-3.5 1.2h-1.2c-2.3 0-3.5-3.5-3.5-4.7-1.2-2.3-3.5-4.7-5.8-7-1.2-1.2-3.5-3.5-2.3-5.8 1.2-2.3 4.7-1.2 5.8-1.2 1.2 1.2 2.3 1.2 3.5 1.2v-21c-1.2 1.2-3.5 2.3-5.8 2.3H317c-2.3 9.3-4.7 16.3-8.1 21-3.5 4.7-7 8.2-11.6 10.5-1.2 1.2-4.7 2.3-5.8 0-2.3-2.3 0-4.7 2.3-7s5.8-7 8.1-12.8c2.3-5.8 4.7-14 4.7-25.6v-9.3c-1.2 0-4.7 1.2-10.5 3.5 0 2.3 0 4.7-1.2 7 1.2-1.2 2.3-1.2 4.7 0 2.3 1.2 3.5 2.3 4.7 3.5 1.2 1.2 1.2 2.3 1.2 3.5 0 2.2-2 4.4-2.3 4.6-1.2 0-2.3 2.3-4.7 7 1.2 1.2 1.2 3.5 1.2 4.7-1.2 1.2-1.2 3.5-4.7 3.5-2.3 0-5.8 1.2-12.8 2.3 0 3.5-1.2 4.7-2.3 5.8l-1.2 1.2h-2.3c-2.3 0-3.5-1.2-3.5-4.7-1.2-2.3-1.2-5.8-2.3-10.5 0-3.5-1.2-5.8-1.2-7v0.5c-0.1 3-1.1 5.2-2.1 8.3l-0.2 0.5c-1.2 4.7-2.3 8.2-2.3 12.8 0 3.5-1.2 5.8-3.5 7H260c-1.1 0-2.2-0.1-3.3-1.2-2.3-1.2-3.5-3.5-4.7-7-1.2-2.3-2.3-5.8 1.2-8.2 1.2 0 2.3-1.2 4.7-4.7 1.2-3.5 3.5-7 5.8-11.7 2.3-3.5 3.5-7 5.8-5.8 1.2 0 2.3 1.2 2.3 2.3h1.3c1.1 0 2.3 0 4.5 1.2h5.8c0-2.3 1.2-4.7 1.2-8.2h-2.7c-3.2 0-4.4 0-6.6-1.2-2.3-2.3-2.3-3.5-2.3-4.7 0-2.3 2.3-3.5 3.5-3.5l3.5-1.2c2.3 0 3.5-1.2 5.8-1.2 1.2-3.5 2.3-8.2 2.3-11.7v-2.3c1.2-5.8 0-7 0-8.2-1-1.9-1-3.1 0.1-4.3z m466 3c3.5 1.2 5.8 2.3 8.1 3.5 2.3 1.2 3.5 2.3 3.5 4.7 0 1.2 0 2.3-1.2 3.5 0 0-1.2 4.7-1.2 11.7-1.2 7-1.2 14-1.2 21 3.5-4.7 5.8-8.2 7-10.5 1.1-3.2 1.2-5.5 1.2-6.7v-0.3c-1.2-1.2 0-2.3 1.2-3.5 2.3-1.2 4.7-1.2 8.1 2.3 3.5 2.3 4.7 4.7 4.7 7 0 1.2-1.2 2.3-2.3 3.5L774 489c-4.7 4.7-9.3 8.2-14 12.8v8.2c3.5-1.2 5.8-1.2 8.1-1.2 3.5 0 7-1.2 9.3-1.2 5.8 0 10.5 1.2 15.1 1.2 4.7 4.7 3.5 7 2.3 8.2-1.2 1.2-3.5 2.3-9.3 1.2-4.7-1.2-9.3-1.2-15.1-1.2-5.8 0-15.1 1.2-29.1 2.3-12.8 2.3-20.9 2.3-23.3 3.5h-2.6c-2.2 0-4.5-0.1-6.7-2.3-2.3-2.3-5.8-3.5-4.7-7v-1.2h16.3c3.5 0 7-1.2 10.5-1.2h3.5v-29.7c0-11.4-1.2-19.3-2.3-21.6-1.2-1.2-3.5-4.7-1.2-7 1.2 0 2.3-1.2 4.7-1.2 3.5 1.2 5.8 2.3 8.1 3.5 4.7 3.5 4.7 7 3.5 8.2 0 1.2-1.2 2.3-1.2 4.7-1.1 3.3-1.2 20.6-1.2 38.1v3.9c2.3-1.2 4.7-1.2 7-1.2 1.2-12.8 1.2-25.7 1.2-37.3 0-12.8-1.2-18.7-2.3-19.8-1.2-1.2-2.3-3.5-1.2-5.8 1.4-1.2 2.5-1.2 4.8-1.2z m-351.1 8.2c2.3-2.3 4.7-1.2 8.1 0 2.3 0 3.5 2.3 4.7 3.5s1.2 2.3 0 5.8c0 0-1.2 2.3-1.2 8.2v22c0 9-0.1 13.3-1.2 16.5-1.2 3.5-1.2 5.8-3.5 7h-3.5c-2.3 0-2.3-2.3-3.5-4.7-1.2-3.5-1.2-7 0-10.5 0-3.5 1.2-8.2 1.2-14V468c0-4.7-1.2-8.2-1.2-9.3 0.1-1.2-1.1-3.5 0.1-5.8z m466.3 41.9v18.7l7-3.5c1.2 0 3.5-1.2 5.8-1.2l-2.3-2.3-3.5-3.5c-2.4-2.3-4.7-5.8-7-8.2z m-9.3-25.6c-1.2 2.3-4.7 3.5-7 4.7-4.7 1.1-10.5 1.1-15.1 1.1-1.2 1.2-2.3 3.5-3.5 4.7 2.3 0 4.7-1.2 5.8-1.2h1.2c1.2-1.2 3.5-2.3 5.8-2.3s4.7 0 7 1.2 2.3 2.3 2.3 3.5v0.1c0 1.1-0.1 2.3-2.3 3.4-1.2 0-2.3 1.2-7 2.3v3.5c2.3-1.2 3.5-1.2 4.7-1.2 2.3-1.2 4.7 0 5.8 1.2s1.2 2.3 1.2 3.5c-1.2 2.3-2.3 3.5-4.7 4.7-3.1 1-5.3 2.1-7.4 3.1l-0.7 0.4v9.3c1.2-1.2 3.5-2.3 7-3.5 2.3-1.2 4.7-2.3 5.8 0l2.3 2.3v-25.7c-0.1-7-1.2-11.6-1.2-15.1zM636.8 503c-2.3 0-5.8 0-8.1 1.2v3.5c2.3 0 5.8-1.2 8.1-1.2V503z m75.8-26.3c2.2-1.1 4.3-0.1 6.5 0.9l0.5 0.2c4.4 3.3 6.7 5.5 8.9 7.7l0.5 0.5c2.3 2.3 3.5 5.8 2.3 10.5 0 2.3-1.2 4.7-3.5 5.8h-1.3c-1.1 0-2.2-0.1-3.3-1.2-1.2-1.2-2.3-3.5-5.8-8.2-2.3-4.7-3.5-8.2-5.8-10.5-0.2-1-1.3-4.5 1-5.7z m-423.2 17.5c-1.2 0-3.5 1.2-8.1 2.3v5.8c2.3 0 4.7-1.2 7-1.2-0.1-2.3-0.1-4.6 1.1-6.9z m362.5 6.5c-0.5 0.5-0.7 0.6-0.9 0.4 0.3-0.3 0.5-0.4 0.9-0.4z m-275.3-29.8l1.2 1.2c1.2 1.2 2.3 2.3 2.3 8.2 0 4.7 0 9.3-2.3 12.8-1.2 2.3-3.5 4.7-5.8 4.7-1.2 0-3.5-1.2-3.5-3.5-1.2-2.3-2.3-5.8 0-10.5 2.3-3.5 3.5-5.8 3.5-7 0-2.3 1.2-5.8 3.5-5.8h1.1z m256.7 9.9h-5.8c1.2 1.2 3.5 2.3 3.5 4.7 0 1.2 0 2.3-2.3 3.5l-4.7 4.7c0 1.2-1.2 1.2-2.3 2.3h5.8c1.2 0 3.5-1.2 4.7-1.2h1.2c1.2 0 2.3-1.2 3.5-1.2h4.7l-2.3-2.3c-2.3-2.3-3.5-4.7-4.7-7-0.1-2.3-0.1-3.5-1.3-3.5z m245.4 5.9l-4.7 3.5c2.3 1.2 3.5 3.5 5.8 4.7 2.3-3.5 3.5-5.8 3.5-7h-2.5c-1-0.1-1-0.1-2.1-1.2zM619.4 482h-3.5v11.7c1.2-1.2 1.2-3.5 2.3-4.7 1.1-2.1 1.2-4.3 1.2-5.5V482z m-295.1-4.1c-1.2 0-1.2 1.2-2.3 1.2-2.3 1.2-4.7 1.2-7 1.2v7h4.7c1.2 0 2.3 0 3.5 1.2 0 0 1.2 0 1.2 1.2v-11.8z m93.2-8.4c2.3-2.4 4.6 0 7 1.2 3.5 2.4 7 5.9 4.6 9.5 0 3.6-1.2 5.9-2.3 7.1 0 1.2-1.2 1.2-2.3 1.2h-1.2c-1.2-1.2-2.3-3.6-3.5-4.7-1.2-2.4-2.3-4.7-3.5-8.3 0-1.2-1.1-4.8 1.2-6zM253.8 471c2.3 0 4.6 0 6.9 1.2 3.5 1.2 4.6 2.3 5.8 4.6s1.2 4.6 0 6.9c-1.2 2.3-2.3 3.5-4.6 3.5s-4.6-1.2-5.8-1.2c-2.3-2.3-3.5-4.6-5.8-6.9-1.2-1.2-2.3-3.5-1.2-5.8 1.2-1.2 2.4-2.3 4.7-2.3z m623.7 0.5v0.2c-0.1 1-1.2 1-1.2 1-2.3 1.2-4.7 2.3-8.1 1.2v5.8c3.5-1.2 5.8-1.2 8.1-2.3 1.2-2.4 1.2-4.7 1.2-5.9z m-553.2-8.8c-1.2 0-3.5 0-8.1 1.2v7h3.7c1.1 0 2.2 0.1 3.3 1.2 0 0 1.2 1.2 2.3 1.2v-5.8c-0.1-3.6-1.2-4.8-1.2-4.8z m629.9-21.5c2.3-1.2 4.7 1.2 7 2.3 2.3 2.3 4.7 3.5 4.7 5.8 0 1.2 0 2.3-1.2 3.5l-2.3 2.3-2.3 2.3-3.5 3.5-2.3 2.3-0.6 0.5c-3.3 3.2-6.6 5.4-9.9 7.6-1.2 0-2.3 1.2-3.5 1.2-1.2 0-1.2 0-2.3-1.2-1.2-2.3 0-4.7 3.5-8.2 3.5-3.5 7-7 9.3-11.7 2.2-4.3 2.3-5.7 2.3-6.8v-0.2c-1.1-1.9 0.9-3.1 1.1-3.2zM636.8 461c-3.5 0-5.8 1.2-8.1 2.3l0.2 0.2c2.1 2.3 2.1 5.7 2.1 7.9v1.2h1.2c1-3.1 2.1-5.3 3.1-7.4l0.4-0.7c1.1-2.2 1.2-2.3 1.2-3.3l-0.1-0.2z m-376.5-9.9c1.2-2.3 3.5-1.2 5.8-1.2 3.5 1.2 7 2.3 8.1 4.7s2.3 5.8 1.2 9.3c-1.2 2.3-2.3 3.5-4.7 3.5h-0.2c-2.2-0.2-4.4-2.4-5.6-3.5-1.2-2.3-4.7-7-5.8-9.3 0-2.4 1.2-3.5 1.2-3.5z m734.8 1.1c2.3-1.2 5.8 0 8.1 1.2 1.2 1.2 2.3 3.5 2.3 4.7 0 3.5-2.3 4.7-3.5 4.7-3.5 1.2-5.8 1.2-9.3 2.3l-4.7 1.2h-5c-1.2 0-3.4-0.1-5.5-1.2-2.3-1.2-3.5-2.3-5.8-4.7 1.2-2.3 3.5-3.5 4.7-3.5 2.3-1.2 4.7-1.2 7-2.3l5.8-1.2c2.4 0 4.8-1.2 5.9-1.2z m-116.4 6.5c-2.3 1.2-5.8 2.3-10.5 3.5v3.5h2.3c3.5-1.2 5.8-1.2 8.1 0v-7z m-250.1 4.5c-1-1-1 0.1 0.1 0.1l-0.1-0.1z"></path><path d="M248.7 593.7v-29.1h6V576h11.7v-11.4h6v29.1h-6V581h-11.7v12.7h-6z m32.3-29.1h6v15.7c0 2.5 0.2 4.3 0.2 5 0.2 1.1 0.9 2 1.8 3 0.9 0.7 2.3 0.9 3.9 0.9 1.8 0 3-0.2 3.9-0.9s1.4-1.6 1.6-2.5c0.2-1.1 0.2-2.7 0.2-5v-16.1h6v15.2c0 3.6-0.2 6.1-0.5 7.5-0.5 1.4-0.9 2.7-1.8 3.6-0.9 1.1-2.1 1.8-3.4 2.5-1.4 0.5-3.4 0.9-5.7 0.9-2.7 0-5-0.5-6.4-1.1-1.4-0.5-2.5-1.4-3.4-2.5-0.9-0.9-1.4-2-1.6-3.2-0.5-1.6-0.7-4.1-0.7-7.5v-15.5z m30 29.1v-5.2l15.3-19.1h-13.7v-4.8h21.8v4.5l-16.3 19.8h16.7v4.8H311z m30.3 0v-29.1h6V576H359v-11.4h6v29.1h-6V581h-11.7v12.7h-6z m45.5-24.6c-2.5 0-4.4 0.7-6 2.5-1.4 1.6-2.3 4.1-2.3 7.5 0 3.2 0.9 5.9 2.3 7.5 1.6 1.8 3.7 2.5 6 2.5v5.2c-4.4 0-7.8-1.4-10.3-4.1-2.7-2.7-3.9-6.4-3.9-10.9 0-3 0.5-5.5 1.1-7.5 0.7-1.6 1.6-3 2.7-4.1 1.4-1.1 2.5-2 3.9-2.7 1.8-0.7 3.9-1.1 6.4-1.1v5.2z m21.6-4.5h6v15.7c0 2.5 0.2 4.3 0.2 5 0.2 1.1 0.9 2 1.8 3 0.9 0.7 2.3 0.9 3.9 0.9 1.8 0 3-0.2 3.9-0.9s1.4-1.6 1.6-2.5c0.2-1.1 0.2-2.7 0.2-5v-16.1h6v15.2c0 3.6-0.2 6.1-0.5 7.5-0.5 1.4-0.9 2.7-1.8 3.6-0.9 1.1-2.1 1.8-3.4 2.5-1.4 0.5-3.4 0.9-5.7 0.9-2.7 0-5-0.5-6.4-1.1-1.4-0.5-2.5-1.4-3.4-2.5-0.9-0.9-1.4-2-1.6-3.2-0.5-1.6-0.7-4.1-0.7-7.5v-15.5z m68.7 19.8c-0.9 3.2-2.3 5.7-4.4 7.3-2.1 1.4-4.8 2.3-7.8 2.3-3.9 0-7.3-1.4-9.9-4.1-2.5-2.5-3.7-6.1-3.7-10.9 0-4.8 1.1-8.6 3.7-11.4 2.7-2.7 6-3.9 10.1-3.9 3.7 0 6.6 0.9 8.9 3.2 1.4 1.1 2.3 3 3 5.2l-6 1.4c-0.2-1.4-1.1-2.7-2.1-3.4-1.1-0.9-2.5-1.4-4.1-1.4-2.3 0-3.9 0.7-5.3 2.3-1.4 1.6-2.1 4.1-2.1 7.5 0 3.9 0.7 6.4 2.1 8 1.1 1.6 3 2.5 5 2.5 1.6 0 3-0.7 4.1-1.6 1.1-0.9 2.1-2.5 2.5-4.8l6 1.8z m7.6 9.1h6v-29.3h-6v29.3z m20.8 0v-24.3h-8.7v-5h23.6v5h-8.7v24.3h-6.2z m29.1 0V581l-10.8-16.8h6.9l6.9 11.6 6.9-11.6h6.9l-10.8 17.1v12.3h-6z m55.7-8.7c-0.9 3.2-2.3 5.7-4.4 7.1-2.1 1.6-4.8 2.5-7.8 2.5-3.9 0-7.3-1.4-9.9-4.1-2.5-2.7-3.7-6.4-3.7-10.9 0-4.8 1.1-8.6 3.9-11.4 2.5-2.7 5.7-4.1 9.9-4.1 3.7 0 6.6 1.1 8.9 3.2 1.4 1.4 2.3 3.2 3 5.5l-6 1.4c-0.2-1.4-1.1-2.7-2.1-3.6-1.1-0.9-2.5-1.1-4.1-1.1-2.3 0-3.9 0.7-5.3 2.3-1.4 1.6-2.1 4.1-2.1 7.5 0 3.6 0.7 6.4 2.1 8 1.1 1.6 3 2.3 5 2.3 1.6 0 3-0.5 4.1-1.4 1.1-1.1 2.1-2.7 2.5-4.8l6 1.6z m-203.5 4.4c2.5 0 4.4-0.7 6-2.5 1.4-1.6 2.3-4.3 2.3-7.5 0-3.4-0.9-5.9-2.3-7.7-1.4-1.6-3.4-2.3-6-2.3V564c4.4 0 7.8 1.4 10.5 4.1 2.5 2.7 3.9 6.4 3.9 11.1s-1.4 8.4-3.9 11.1c-2.7 2.7-6.2 4.1-10.5 4.1v-5.2z m224.3-20.1c-2.5 0-4.4 0.7-6 2.5-1.4 1.6-2.1 4.1-2.1 7.5 0 3.2 0.7 5.9 2.3 7.5 1.4 1.8 3.4 2.5 5.7 2.5v5.2c-4.4 0-7.8-1.4-10.3-4.1-2.7-2.7-3.9-6.4-3.9-10.9 0-3 0.5-5.5 1.4-7.5 0.7-1.6 1.6-3 2.7-4.1 1.1-1.1 2.3-2 3.7-2.7 1.8-0.7 4.1-1.1 6.4-1.1v5.2z m21.5 24.6v-29.1h8.9l5.5 19.8 5.3-19.8h8.9v29.1h-5.5v-23l-6 23H644l-6-23v23h-5.4z m37.2 0v-29.1h8.9l5.3 19.8 5.3-19.8h8.9v29.1h-5.5v-23l-6 23H681l-5.7-23v23h-5.5z m36.8 0v-29.1h22v4.8h-15.8v6.6h14.7v5h-14.7v8h16.5v4.8h-22.7z m-95.5-4.5c2.5 0 4.4-0.7 6-2.5 1.6-1.6 2.3-4.3 2.3-7.5 0-3.4-0.7-5.9-2.3-7.7-1.4-1.6-3.4-2.3-6-2.3V564c4.4 0 7.8 1.4 10.5 4.1 2.5 2.7 3.9 6.4 3.9 11.1s-1.4 8.4-3.9 11.1c-2.7 2.7-6.2 4.1-10.5 4.1v-5.2z m137.7-24.6v4.8h-6v7.5h6v6.4-0.3c-0.5-0.5-1.1-0.9-1.6-1.1-0.7-0.2-1.8-0.2-3.2-0.2h-1.1v12.1h-6v-29.1h11.9z m45.1 20.2c-0.9 3.2-2.3 5.7-4.4 7.1-2.1 1.6-4.6 2.5-7.8 2.5-3.9 0-7.1-1.4-9.6-4.1-2.5-2.7-3.9-6.4-3.9-10.9 0-4.8 1.4-8.6 3.9-11.4 2.5-2.7 5.7-4.1 9.9-4.1 3.7 0 6.6 1.1 8.9 3.2 1.4 1.4 2.3 3.2 3 5.5l-6 1.4c-0.2-1.4-1.1-2.7-2.1-3.6-1.1-0.9-2.5-1.1-4.1-1.1-2.3 0-3.9 0.7-5.3 2.3-1.4 1.6-2.1 4.1-2.1 7.5 0 3.6 0.7 6.4 2.1 8 1.1 1.6 3 2.3 5 2.3 1.6 0 3-0.5 4.1-1.4 1.1-1.1 2.1-2.7 2.5-4.8l5.9 1.6z m7.6 8.9h6v-29.1h-6v29.1z m-52.7-16.8c2.1 0 3.2-0.2 3.9-0.5 0.7-0.2 1.1-0.5 1.6-1.1 0.5-0.7 0.7-1.4 0.7-2.3 0-0.9-0.2-1.6-0.9-2.3-0.5-0.7-1.1-1.1-2.3-1.1-0.2 0-1.4-0.2-3-0.2v-4.8h0.7c3.2 0 5.5 0.2 6.9 0.7s2.5 1.4 3.4 2.7c0.9 1.4 1.4 3 1.4 4.8 0 2-0.7 3.9-2.1 5.5-1.4 1.4-3.2 2.3-5.7 2.7 1.1 0.7 2.3 1.4 3.2 2.3 0.7 0.9 1.8 2.5 3.2 4.8l3.7 5.7h-7.1l-4.4-6.4c-1.6-2.3-2.5-3.6-3.2-4.1v-6.4z m78.6-12.3v6.8l-3.9 10.7h3.9v5h-5.7l-2.5 6.6h-6.4l11.7-29.1h2.9z m21 29.1v-28.9h6v24.1h14.9v4.8h-20.9z m-21-6.6v-5h4.1l-4.1-10.7v-6.8h3.2l11.9 29.1h-6.4l-2.7-6.6h-6z m68.5-22.5v4.8h-6.4v6.8h6.4v4.8h-6.4v8h6.4v4.8H883.5v-29.1h12.4z m0 29.1v-4.8c1.6 0 2.3 0 3.2-0.2 0.9-0.2 1.6-0.5 2.3-1.1 0.7-0.7 0.7-1.6 0.7-2.5 0-0.9-0.2-1.6-0.7-2.3-0.2-0.7-0.9-1.1-1.8-1.4-0.7-0.2-1.8-0.2-3.7-0.5v-4.8h1.9c1.2 0 1.9-0.6 2.5-1.1s0.9-1.4 0.9-2.3c0-0.9-0.3-1.7-0.9-2.3-0.6-0.6-1.1-1.1-2.3-1.1h-2.1v-4.8c2.1 0 3.7 0 4.8 0.2 1.1 0.2 2.1 0.5 3 1.1s1.6 1.4 2.3 2.5c0.7 0.9 0.9 2 0.9 3.4s-0.5 2.7-1.1 3.9-1.8 1.8-3 2.5c1.8 0.5 3.2 1.4 4.1 2.7 0.9 1.1 1.4 2.7 1.4 4.3 0 1.4-0.2 2.7-0.9 3.9-0.7 1.4-1.4 2.3-2.5 3-1.1 0.9-2.5 1.4-4.1 1.6h-4.9z m32-29.6v6.8l-3.9 10.9h3.9v4.8h-5.7l-2.5 6.8h-6.4l11.7-29.3h2.9z m20.9 29.4v-29.3h6l11.9 19.6v-19.6h5.5v29.3h-6l-11.9-19.1v19.1h-5.5z m-20.9-6.8v-4.8h4.1l-4.1-10.9v-6.8h3.2l11.9 29.3h-6.6l-2.5-6.8h-6z m53.4 6.8v-29.3h6v13l11.9-13h8l-11 11.4 11.7 18h-7.8l-8-13.9-4.8 5v8.9h-6z" fill="#E60012"></path></svg>