<svg viewBox="0 0 1024 1024" version="1.1" xmlns="http://www.w3.org/2000/svg"><path d="M224 0h576c123.6 0 224 100.4 224 224v576c0 123.6-100.4 224-224 224H224c-123.6 0-224-100.4-224-224V224C0 100.4 100.4 0 224 0z" fill="#FFFFFF"></path><path d="M508 344c6.8-0.4 14-0.4 20.8-0.4h21.6c2 0 3.6 0 5.6 0.4 2 0 3.6 0 5.6 0.4 2 0 3.6 0.4 5.6 0.4 2 0 3.6 0.4 5.6 0.4 2 0 3.6 0.4 5.6 0.4 2 0 3.6 0.4 5.6 0.4 2 0.4 3.6 0.4 5.6 0.8 2 0.4 3.6 0.4 5.6 0.8 2 0.4 3.6 0.4 5.6 0.8 2 0.4 3.6 0.4 5.6 0.8 2 0.4 3.6 0.8 5.6 0.8 2 0.4 3.6 0.8 5.6 1.2 2 0.4 3.6 0.8 5.6 1.2 2 0.4 3.6 0.8 5.6 1.2 2 0.4 3.6 0.8 5.6 1.2 2 0.4 3.6 0.8 5.6 1.2 2 0.4 3.6 0.8 5.2 1.6 1.6 0.4 3.6 1.2 5.2 1.6 1.6 0.4 3.6 1.2 5.2 1.6 1.6 0.4 3.6 1.2 5.2 1.6 1.6 0.4 3.6 1.2 5.2 1.6 1.6 0.8 3.2 1.2 5.2 2 3.2 1.2 6.8 2.4 10 4 3.2 1.2 6.4 2.8 9.6 4.4 3.2 1.6 6 2.8 9.2 4.4 2.8 1.6 6 3.2 8.8 4.8 2.8 1.6 5.6 3.2 8 4.8 2.8 1.6 5.2 3.6 7.6 5.2 2.4 1.6 4.8 3.6 7.2 5.2 1.2 0.8 2.4 2 3.2 2.8 1.2 0.8 2 2 3.2 2.8 1.2 0.8 2 2 3.2 2.8l2.8 2.8 2.8 2.8c0.8 0.8 1.6 2 2.8 2.8 0.8 0.8 1.6 2 2.4 2.8 0.8 0.8 1.6 2 2.4 2.8 0.8 0.8 1.6 2 2 2.8 0.8 0.8 1.2 2 2 2.8 0.8 0.8 1.2 2 2 3.2 0.4 0.8 1.2 2 1.6 3.2 0.4 1.2 1.2 2 1.6 3.2 0.4 1.2 0.8 2 1.6 3.2 0.4 1.2 0.8 2 1.2 3.2 0.4 1.2 0.8 2 1.2 3.2 0.4 0.8 0.8 2 1.2 3.2 0.4 0.8 0.4 2 0.8 2.8 0.4 0.8 0.4 2 0.8 2.8 0.4 0.8 0.4 2 0.4 2.8 0 0.8 0.4 2 0.4 2.8 0 0.8 0.4 2 0.4 2.8 0 0.8 0 2 0.4 2.8v7.2c0 1.6-0.4 3.2-0.4 4.4-0.4 1.6-0.4 3.2-0.8 4.4-0.4 1.6-0.8 3.2-1.2 4.4-0.8 3.2-2 6-3.2 9.2-1.2 3.2-2.8 6-4.4 8.8-1.6 2.8-3.6 6-5.6 8.8-2 2.8-4.4 5.6-6.8 8.4-1.2 1.2-2.4 2.8-4 4l-4 4c-1.6 1.2-2.8 2.8-4.4 4-1.6 1.2-3.2 2.4-4.8 4 34 30.8 68 62 102 92.8 1.6-0.8 2.8-2 4-2.8 1.2-0.8 2.8-2 4-2.8 2.8-2 5.2-4 7.6-6l7.2-6c2.4-2 4.8-4.4 6.8-6.4 2.4-2 4.4-4.4 6.4-6.4 2-2.4 4-4.4 6-6.8 3.6-4.4 7.2-9.2 10-14 3.2-4.8 5.6-9.6 8-14.4 1.2-2.4 2-4.8 3.2-7.6 0.8-2.4 1.6-5.2 2.4-7.6 0.8-2.4 1.6-5.2 2-7.6 0.4-2.4 1.2-5.2 1.6-7.6 0.4-2.4 0.8-5.2 0.8-7.6 0-2.4 0.4-5.2 0.4-7.6 0-2 0-4-0.4-5.6 0-2-0.4-4-0.4-5.6-0.4-2-0.4-4-0.8-5.6-0.4-2-0.8-4-1.2-5.6-0.4-2-0.8-4-1.2-5.6-0.4-2-1.2-4-1.6-5.6-0.4-2-1.2-3.6-2-5.6-0.8-2-1.2-3.6-2-5.6-0.8-2-1.6-3.6-2.4-5.6-0.8-2-1.6-3.6-2.8-5.6-0.8-2-2-3.6-2.8-5.6-1.2-2-2-3.6-3.2-5.6-1.2-2-2.4-3.6-3.2-5.6-1.2-2-2.4-3.6-3.6-5.2-1.2-1.6-2.4-3.6-4-5.2-1.2-1.6-2.8-3.6-4-5.2-2.8-3.6-5.6-6.8-8.8-10.4-3.2-3.2-6.4-6.8-9.6-10-3.2-3.2-6.8-6.4-10.4-9.6-3.6-3.2-7.2-6.4-11.2-9.2-7.6-6-16-11.6-24.8-17.2-4.4-2.8-8.8-5.2-13.2-8-4.4-2.4-9.2-5.2-14-7.6l-14.4-7.2c-4.8-2.4-10-4.4-14.8-6.4-5.2-2-10-4-15.2-6-2.4-0.8-5.2-2-8-2.8-2.8-0.8-5.2-2-8-2.8-2.8-0.8-5.2-1.6-8-2.8-2.8-0.8-5.2-1.6-8-2.4-2.8-0.8-5.6-1.6-8-2.4l-8.4-2.4c-2.8-0.8-5.6-1.6-8.4-2-2.8-0.8-5.6-1.2-8.4-2-2.8-0.8-5.6-1.2-8.4-2-2.8-0.8-5.6-1.2-8.4-1.6-2.8-0.4-5.6-1.2-8.4-1.6-2.8-0.4-5.6-1.2-8.8-1.6-2.8-0.4-5.6-0.8-8.8-1.6-2.8-0.4-5.6-0.8-8.8-1.2-2.8-0.4-6-0.8-8.8-1.2-2.8-0.4-6-0.8-8.8-1.2-2.8-0.4-6-0.8-8.8-0.8-2.8-0.4-6-0.4-8.8-0.8-2.8-0.4-6-0.4-8.8-0.8-2.8-0.4-6-0.4-8.8-0.4-2.8 0-6-0.4-8.8-0.4-2.8 0-6-0.4-8.8-0.4-2.8 0-6 0-8.8-0.4H510.4c-13.6 0-26.8 0.4-40.4 1.2 11.2 13.2 24.4 26.4 38 39.2m172 355.6c-3.2 0.8-6.4 1.6-10 2.4-3.2 0.8-6.8 1.6-10 2.4-3.2 0.8-6.8 1.6-10.4 2-3.6 0.8-6.8 1.2-10.4 2-3.6 0.8-6.8 1.2-10.4 2-3.6 0.4-7.2 1.2-10.4 1.6-7.2 1.2-14.4 2-21.6 2.8l-21.6 2.4c-3.6 0.4-7.2 0.8-10.8 0.8-3.6 0.4-7.2 0.4-10.8 0.8-3.6 0.4-7.2 0.4-10.8 0.4-3.6 0-7.2 0.4-10.8 0.4-3.6 0-7.2 0-10.8 0.4H484c-1.6 0-2.8 0-4.4-0.4-1.6 0-2.8 0-4.4-0.4-1.6 0-2.8 0-4.4-0.4-1.6 0-2.8 0-4.4-0.4-1.6 0-2.8-0.4-4.4-0.4-1.6 0-2.8-0.4-4.4-0.4-1.6 0-2.8-0.4-4.4-0.4-1.6 0-2.8-0.4-4.4-0.4-1.6 0-2.8-0.4-4.4-0.4-1.6 0-2.8-0.4-4.4-0.4-1.6 0-2.8-0.4-4.4-0.4-1.6 0-2.8-0.4-4.4-0.4-1.6 0-2.8-0.4-4.4-0.4-1.6 0-3.2-0.4-4.4-0.4-1.6-0.4-3.2-0.4-4.4-0.8-1.6-0.4-3.2-0.4-4.4-0.8-1.6-0.4-3.2-0.4-4.4-0.8-1.6-0.4-3.2-0.4-4.4-0.8-1.6-0.4-3.2-0.4-4.4-0.8-1.6-0.4-3.2-0.4-4.4-0.8-1.6-0.4-3.2-0.4-4.4-0.8-1.6-0.4-3.2-0.4-4.4-0.8-1.6-0.4-3.2-0.4-4.4-0.8-1.6-0.4-2.8-0.4-4.4-0.8-2.8-0.8-6-1.2-8.8-2-2.8-0.8-6-1.2-8.8-2-2.8-0.8-6-1.6-8.8-2-2.8-0.8-6-1.6-8.8-2.4-2.8-0.8-6-1.6-8.8-2.4-2.8-0.8-6-1.6-8.8-2.4-2.8-0.8-5.6-1.6-8.8-2.8-2.8-0.8-5.6-2-8.4-2.8-2.8-0.8-5.6-2-8.4-2.8-2.8-0.8-5.6-2-8.4-3.2-2.8-1.2-5.6-2-8-3.2-2.8-1.2-5.2-2-8-3.2-2.8-1.2-5.2-2.4-8-3.2-5.2-2.4-10.4-4.8-15.2-7.2-5.2-2.4-10-4.8-14.8-7.6-4.8-2.4-9.6-5.2-14-7.6-4.4-2.8-8.8-5.2-13.2-8-2-1.2-4.4-2.8-6.4-4-2-1.6-4-2.8-6-4.4-2-1.6-4-2.8-6-4.4-2-1.6-4-2.8-5.6-4.4-2-1.6-3.6-2.8-5.6-4.4-1.6-1.6-3.6-2.8-5.2-4.4-1.6-1.6-3.2-3.2-5.2-4.4l-4.8-4.8c-1.6-1.6-3.2-3.2-4.4-4.8-1.6-1.6-2.8-3.2-4.4-4.8-1.2-1.6-2.8-3.2-4-4.8-1.2-1.6-2.4-3.2-4-4.8l-3.6-4.8c-1.2-1.6-2.4-3.2-3.2-4.8-1.2-1.6-2-3.2-3.2-4.8-1.2-1.6-2-3.2-2.8-4.8-0.8-1.6-2-3.2-2.8-4.8l-2.4-4.8-2.4-4.8c-0.8-1.6-1.2-3.2-2-4.8-0.8-1.6-1.2-3.2-1.6-4.8-0.4-1.6-1.2-3.2-1.6-4.8l-1.2-4.8-1.2-4.8c-0.4-1.6-0.8-3.2-0.8-4.8-0.4-1.6-0.4-3.2-0.8-4.8 0-1.6-0.4-3.2-0.4-4.4 0-1.6-0.4-3.2-0.4-4.4v-6c0-2 0.4-4 0.4-6 0.4-2 0.4-4 0.8-6l1.2-6c0.4-2 0.8-4 1.6-6 0.4-2 1.2-4 2-6s1.2-4 2-6l2.4-6c0.8-2 2-4 2.8-6 1.2-2 2-4 3.2-6l3.6-6c1.2-2 2.4-4 4-6 2.8-4 5.6-7.6 8.8-11.6 3.2-4 6.4-7.6 10-11.2 3.6-3.6 7.2-7.2 11.2-10.8 4-3.6 8-7.2 12.4-10.4 2-1.6 4.4-3.6 6.8-5.2 2.4-1.6 4.4-3.2 6.8-4.8l7.2-4.8c2.4-1.6 4.8-3.2 7.6-4.8 2.4-1.6 5.2-3.2 7.6-4.4 2.8-1.6 5.2-2.8 8-4.4 2.8-1.6 5.2-2.8 8-4.4 2.8-1.6 5.6-2.8 8.4-4 1.6-0.8 2.8-1.2 4.4-2 1.6-0.8 2.8-1.2 4.4-2 1.6-0.8 2.8-1.2 4.4-2 1.6-0.8 2.8-1.2 4.4-2 1.6-0.8 2.8-1.2 4.4-2 1.6-0.8 2.8-1.2 4.4-2 1.6-0.8 2.8-1.2 4.4-1.6 1.6-0.4 2.8-1.2 4.4-1.6l56.4 48c-1.6 1.6-3.2 2.8-4.8 4.4-1.6 1.6-3.2 3.2-4.8 4.4-1.6 1.6-2.8 3.2-4.4 4.8-1.6 1.6-2.8 3.2-4 4.8-1.2 1.6-2.8 3.2-4 4.8l-3.6 4.8c-2.4 3.2-4.4 6.8-6 10-2 3.2-3.6 6.8-4.8 10-0.8 1.6-1.2 3.6-2 5.2-0.4 1.6-1.2 3.6-1.6 5.2-0.4 1.6-0.8 3.6-1.2 5.2-0.4 1.6-0.8 3.2-0.8 5.2-0.4 1.6-0.4 3.2-0.4 5.2v10.8c0 0.8 0 2 0.4 2.8 0 0.8 0.4 2 0.4 2.8 0 0.8 0.4 2 0.4 2.8 0 0.8 0.4 2 0.8 2.8 0.4 0.8 0.4 2 0.8 2.8 0.4 0.8 0.4 2 0.8 2.8 0.4 0.8 0.8 2 1.2 2.8 0.4 0.8 0.8 2 1.2 2.8 0.4 0.8 0.8 2 1.2 2.8 0.4 0.8 0.8 2 1.6 2.8 0.4 0.8 1.2 2 1.6 2.8 0.4 0.8 1.2 2 1.6 2.8 0.8 0.8 1.2 2 2 2.8 0.8 0.8 1.2 2 2 2.8 0.8 0.8 1.6 2 2.4 2.8 0.8 0.8 1.6 2 2.4 2.8 0.8 0.8 1.6 2 2.4 2.8 0.8 0.8 1.6 2 2.8 2.8l2.8 2.8 2.8 2.8c2 2 4 3.6 6.4 5.2 2.4 1.6 4.4 3.6 6.8 5.2 2.4 1.6 4.8 3.2 7.6 5.2 2.4 1.6 5.2 3.2 8 4.8l8.4 4.8c2.8 1.6 6 2.8 8.8 4.4 3.2 1.6 6 2.8 9.2 4 3.2 1.2 6.4 2.8 9.6 4 3.2 1.2 6.8 2.4 10 3.6 1.6 0.4 3.6 1.2 5.2 1.6 1.6 0.4 3.6 1.2 5.2 1.6 1.6 0.4 3.6 1.2 5.2 1.6 1.6 0.4 3.6 1.2 5.2 1.6 1.6 0.4 3.6 0.8 5.6 1.6 2 0.4 3.6 0.8 5.6 1.2 2 0.4 3.6 0.8 5.6 1.2 2 0.4 3.6 0.8 5.6 1.2 2 0.4 3.6 0.8 5.6 1.2 2 0.4 3.6 0.8 5.6 1.2 2 0.4 3.6 0.8 5.6 0.8 2 0.4 3.6 0.8 5.6 0.8 2 0.4 3.6 0.4 5.6 0.8 2 0.4 3.6 0.4 5.6 0.8 2 0.4 3.6 0.4 5.6 0.8 2 0.4 3.6 0.4 5.6 0.8 2 0 3.6 0.4 5.6 0.4 2 0 3.6 0.4 5.6 0.4 2 0 3.6 0.4 5.6 0.4 2 0 3.6 0.4 5.6 0.4 2 0 3.6 0 5.6 0.4h16c5.2-0.4 10.8-0.8 16.4-1.2 5.6-0.4 11.2-1.2 17.2-1.6 36 36.4 74.8 72.4 113.6 108.4m-257.6-246.8c25.2 21.2 50 42.8 75.2 64 2.8 2 6 3.2 10 3.2 2.8 0 5.6-0.4 8.8-1.6 35.2-11.6 70.8-23.2 106-34.4 3.6-0.8 5.6-4.4 5.6-7.6 0-2 0-5.6-2.8-8.4-22.8-20-45.6-40-68.8-60-2.8-2.4-6.8-3.6-11.2-3.6-3.6 0-7.6 0.8-12.4 2.4l-104.4 30c-6 2.4-8.4 8-8.4 11.2 0 1.6 0.8 3.6 2.4 4.8" fill="#E30016"></path></svg>