<svg viewBox="0 0 1024 1024" version="1.1" xmlns="http://www.w3.org/2000/svg"><path d="M434.5 491.4h6.3v-13.1h-6.3v13.1z m0-24.7h6.3v-13.1h-6.3v13.1z m-0.4-24.7h17.5v78.5c0 4.5-2.1 6.8-6.4 6.8h-9.3V516h3.4c1 0 1.4-0.6 1.4-1.8V503H434.4v13c0 7.5-3.7 11.3-11.1 11.3h-3.7v-12h1.4c1.5 0 2.3-1.1 2.3-3.4V442h10.8z m-30.4 73.4h2.9c1.5 0 2.2-0.9 2.2-2.7v-25.4h-6.7v28.1h1.6z m16.6-64v11.2h-9.2v13.8h8.2v40.4c0 6.5-3.1 9.8-9.3 9.8h-18.2v-50.2h8.2v-13.8h-9.3v-11.2h9.3v-10.1h11.1v10.1h9.2zM375.4 500h13l-4.4 20c-1.2 4.7-4.1 7-8.6 7h-7.4v-11h2.9c0.8 0 1.4-0.9 1.9-2.7L375.4 500z m-7.4-28.4h12.9l1.1 8.5c0.4 2 1.4 3.1 2.9 3.1h3.7v11.2h-10c-3.8 0-6.2-2.1-7.2-6.4l-3.4-16.4z m0-26.6h12.9l1.5 7.5c0.4 2 1.4 3.1 2.9 3.1h3.3v11.2h-9.6c-3.9 0-6.4-2.1-7.4-6.4l-3.6-15.4z m175.7 65.9H556.4l1.4 4.1c0.4 1.7 1.5 2.6 3 2.6h4.5v9.7H554.4c-3.7 0-6-1.9-7-5.6l-3.7-10.8z m-20.1-13.1h22.3v-6.7h-22.3v6.7z m3.7-55.9h14.6v5.3h23.8V462h-12.7v-4.1h-32.8v4.1h-12.7v-14.9h19.7v-5.2z m-11.1 69h12.7l-4.3 12.1c-1.1 2.9-3.8 4.3-8.1 4.3h-9.7v-9.7h5.6c0.6 0 1.2-0.4 1.6-1.1l2.2-5.6z m34.9-47.7H563.4v5.4c0 4.7-2.3 7.1-7.1 7.1h-32.8v4.6h41v10.9h-6.4v6.7h8.6V509h-60.6v-11.2h4.4v-32h38.4c1.5 0 2.2-0.2 2.2-0.5v-2.1z m-68.5 8.6h12.7l1.5 7.8c0.4 2.2 1.4 3.3 3 3.3h5.2v11.9h-11.5c-3.7 0-6.1-2.3-7.1-6.8l-3.8-16.2z m-0.3-26.9h13.3l1.9 7.4c0.4 2.3 1.4 3.4 3 3.4h5.2v11.9h-11.5c-4.1 0-6.8-2.3-7.9-6.8l-4-15.9z m8.5 55.1h13.8l-4.9 20.2c-1.3 4.7-4.4 7.1-9.3 7.1h-8.5v-11.2h4.1c0.8 0 1.5-0.9 2-2.7l2.8-13.4z m151.3-24.3l5.9 12h9.8c1.6 0 2.7-0.8 3.4-2.3l3.6-7.7h13.9l-7.6 15.7c-1.6 3.5-4.3 5.3-8.1 5.3H653.4l6.4 13c1 2 2 3.1 3.2 3.1h16.8v11.6h-25.1c-1.7 0-3.2-1.3-4.4-3.9l-21.4-46.6h13.2z m38.6-25.7v19.8h-12.7v-8.2h-35.7L620.4 487.9l-1.3 2.3v24.1c0 1.2 0.7 1.8 2.2 1.8h11.3v11.3h-18.7c-5.2 0-7.8-2.3-7.8-6.8v-27.7h-10V481h10c1.8 0 3.6-2.1 5.5-6.3l6.3-13.1H609.4v8.2h-12.6V450h26.7l3.5-7.5h14.1l-3.3 7.5h42.9z m81.6 62.4c1.5 0 2.2-1.1 2.2-3.3v-2.6h-23.8v5.9h21.6zM724.4 457.6h13.4l2.8 8.6h26.4l3.5-8.6h13.7l-3.4 8.6h12.4v50c0 3.4-1 6.1-3.1 8.3-1.6 1.9-4.1 2.9-7.2 2.9h-10.1V522c-1.3 0.7-2.9 1-4.8 1h-39v-27h47.5v18c0 1.1-0.1 2.1-0.3 3h2.2c1.5 0 2.2-1.6 2.2-4.9V477h-12.3v4.1c0 1.3 0.8 1.9 2.3 1.9h7.8v10h-14.9c-4.4 0-6.7-2-6.7-5.9V477h-8.2v9.4c0 4-2.2 5.9-6.7 5.9h-14.2v-10h7.8c1 0 1.5-0.6 1.5-1.9V477h-11.9v50.4h-12.6v-61.2h14.6l-2.7-8.6z m20.4-17.6h15.2v4.5h34.6v11.2h-83.5v-11.2h33.7V440zM900.4 491.4h10v6c0 5.7-3.2 8.6-9.7 8.6H894.4l2.2 7.6c0.8 2.9 2 4.3 3.7 4.3h9v10h-13.5c-5.4 0-8.9-2.9-10.5-8.8l-7.5-27.8h12.3l1.6 5.6h6.6c1.3 0 1.9-0.5 1.9-1.5v-4z m-4.5-20.8h-20.6v7.1h18.3c1.5 0 2.3-0.8 2.3-2.3v-4.8z m-20.6-10.5h20.6v-6.3h-20.6v6.3z m0 28.4v27.2c0 1.3 0.7 1.9 2.2 1.9h6V528h-12.3c-5.5 0-8.2-2.9-8.2-8.6V443h45.6v37.6c0 5.2-2.7 7.8-8.2 7.8h-25.1z m-43-46.6h12l-1.5 5.9h16.8v10.9h-19.4l-0.1 0.4c-1.1 3.9-3.9 5.9-8.1 5.9h-7.5v-10.4h3.4c0.8 0 1.4-0.7 1.9-2.1l2.5-10.6z m26.9 26v10.9h-14.2v10.4h14.9v11.2h-14.9v14.9c0 1.3 0.7 1.9 2.2 1.9h10.4v10.4h-17.9c-4.7 0-7.1-2-7.1-5.9v-21.3h-9v-11.2h9v-10.4h-7.5v-10.9h34.1zM971.8 454v-10.8h51.9V454h-51.9z m52.5 10v11.3h-5.5v40.6c0 7.3-4.5 10.9-13.5 10.9h-25v-11.6h21.7c1.7 0 2.6-0.8 2.6-2.3v-37.6h-34.3V464h54z m-72.7-22.7h14.9l-8.1 19.2c-0.3 0.9-0.7 1.7-1.1 2.4h10.8l-9 20.9-0.4 0.9v42h-13.5v-35.8h-6.3V479h4.9c2 0 3.5-1.2 4.5-3.7l3.2-8.4c-0.6 0.1-1.2 0.2-1.8 0.2h-10v-12h4.5c1.7 0 2.8-1.1 3.5-3.2l3.9-10.6zM367.4 583.7v-34.8h3.7v14.3h14.7v-14.3h3.7v34.8h-3.7v-16.4h-14.7v16.4H367.4z m46.9-34.8h3.7V569c0 3.5-0.3 6.3-1 8.3-0.6 2.1-1.8 3.7-3.5 5-1.7 1.3-3.9 1.9-6.6 1.9-2.6 0-4.8-0.6-6.5-1.7-1.7-1.1-2.9-2.8-3.6-4.9-0.7-2.1-1.1-5-1.1-8.7v-20.1h3.7V569c0 3 0.2 5.3 0.7 6.7 0.5 1.4 1.2 2.5 2.3 3.3 1.1 0.8 2.5 1.2 4.1 1.2 2.7 0 4.7-0.8 5.9-2.3 1.2-1.5 1.7-4.5 1.7-8.9v-20.1z m13.7 30.7h6.9c1.2 0 2-0.1 2.5-0.2 0.8-0.2 1.5-0.5 2.1-0.9 0.6-0.4 1-1.1 1.4-1.9 0.4-0.8 0.5-1.8 0.5-2.9 0-1.3-0.3-2.4-0.8-3.4s-1.3-1.6-2.2-2c-0.9-0.4-2.3-0.6-4-0.6h-6.4v11.9z m0-16.1h6c1.6 0 2.8-0.1 3.5-0.4 0.9-0.3 1.6-0.9 2.1-1.7 0.5-0.8 0.7-1.8 0.7-3s-0.2-2.2-0.7-3.1c-0.4-0.9-1.1-1.5-1.9-1.8-0.8-0.3-2.2-0.5-4.2-0.5h-5.5v10.5z m-3.6 20.2v-34.8h10.4c2.1 0 3.8 0.4 5.1 1.1 1.3 0.7 2.3 1.8 3 3.3 0.7 1.5 1.1 3 1.1 4.6 0 1.5-0.3 2.9-1 4.2-0.6 1.3-1.6 2.4-2.9 3.2 1.7 0.6 3 1.7 3.9 3.2 0.9 1.5 1.3 3.2 1.3 5.3 0 1.6-0.3 3.1-0.8 4.5s-1.2 2.5-2 3.2c-0.8 0.8-1.8 1.3-3 1.7-1.2 0.4-2.7 0.6-4.5 0.6H424.4z m26.5 0v-34.8h3.8v34.8h-3.8z m10.2 0v-34.8h3.8l14.8 27.3v-27.3h3.6v34.8H479.4l-14.8-27.4v27.4h-3.5z m42.9-19.5h8c1.7 0 3-0.2 4-0.7 1-0.4 1.7-1.1 2.2-2.1 0.5-1 0.7-2 0.7-3.1 0-1.6-0.5-3-1.4-4.1-1-1.1-2.5-1.6-4.6-1.6h-8.9v11.6z m-3.7 19.5v-34.8h12.4c2.5 0 4.4 0.3 5.7 0.9 1.3 0.6 2.3 1.7 3.1 3.3 0.8 1.6 1.2 3.3 1.2 5.2 0 2.5-0.6 4.5-1.9 6.2-1.3 1.7-3.3 2.8-6 3.2 1 0.6 1.7 1.2 2.2 1.7 1.1 1.2 2.1 2.8 3.1 4.6l4.9 9.5h-4.7l-3.7-7.2c-1.1-2.1-2-3.7-2.7-4.8-0.7-1.1-1.3-1.9-1.9-2.3-0.6-0.4-1.1-0.8-1.7-0.9-0.4-0.1-1.1-0.2-2.1-0.2h-4.3v15.5h-3.6z m46.9-34.8h3.7V569c0 3.5-0.3 6.3-1 8.3-0.6 2.1-1.8 3.7-3.5 5-1.7 1.3-3.9 1.9-6.6 1.9-2.6 0-4.8-0.6-6.5-1.7-1.7-1.1-2.9-2.8-3.6-4.9-0.7-2.1-1.1-5-1.1-8.7v-20.1h3.7V569c0 3 0.2 5.3 0.7 6.7 0.5 1.4 1.2 2.5 2.3 3.3 1.1 0.8 2.5 1.2 4.1 1.2 2.7 0 4.7-0.8 5.9-2.3 1.2-1.5 1.7-4.5 1.7-8.9v-20.1z m13.8 15.3h8c1.7 0 3-0.2 4-0.7 1-0.4 1.7-1.1 2.2-2.1 0.5-1 0.7-2 0.7-3.1 0-1.6-0.5-3-1.4-4.1-1-1.1-2.5-1.6-4.6-1.6h-8.9v11.6z m-3.7 19.5v-34.8h12.4c2.5 0 4.4 0.3 5.7 0.9 1.3 0.6 2.3 1.7 3.1 3.3 0.8 1.6 1.2 3.3 1.2 5.2 0 2.5-0.6 4.5-1.9 6.2-1.3 1.7-3.3 2.8-6 3.2 1 0.6 1.7 1.2 2.2 1.7 1.1 1.2 2.1 2.8 3.1 4.6l4.9 9.5h-4.7l-3.7-7.2c-1.1-2.1-2-3.7-2.7-4.8-0.7-1.1-1.3-1.9-1.9-2.3-0.6-0.4-1.1-0.8-1.7-0.9-0.4-0.1-1.1-0.2-2.1-0.2h-4.3v15.5h-3.6z m33.3-14.3h9.4l-2.9-9.6c-0.9-2.9-1.5-5.3-2-7.2-0.4 2.2-0.9 4.4-1.5 6.6l-3 10.2z m-8 14.3l10.6-34.8h4l11.3 34.8h-4.2l-3.2-10.5h-11.6l-3 10.5h-3.9z m28.5 0v-34.8h3.8v30.7h14v4.1h-17.8z m52-12.2l3.7 1.2c-0.8 3.8-2.2 6.7-4.2 8.7-2 2-4.5 3-7.4 3-3 0-5.5-0.8-7.3-2.3-1.9-1.5-3.3-3.7-4.3-6.7-1-2.9-1.5-6-1.5-9.4 0-3.6 0.6-6.8 1.7-9.5s2.7-4.8 4.7-6.2c2-1.4 4.3-2.1 6.8-2.1 2.8 0 5.1 0.9 7 2.7 1.9 1.8 3.2 4.3 4 7.5l-3.6 1.1c-0.6-2.5-1.6-4.4-2.8-5.5-1.2-1.2-2.8-1.7-4.6-1.7-2.1 0-3.9 0.6-5.4 1.9s-2.5 3-3 5.2c-0.6 2.2-0.9 4.4-0.9 6.7 0 3 0.3 5.6 1 7.8s1.8 3.9 3.2 5c1.5 1.1 3 1.6 4.7 1.6 2.1 0 3.8-0.7 5.3-2.2 1.4-1.7 2.3-3.9 2.9-6.8z m10.6-4.7c0 4.2 0.9 7.5 2.7 9.9 1.8 2.4 4.1 3.6 6.8 3.6 2.8 0 5-1.2 6.8-3.7 1.8-2.4 2.7-5.9 2.7-10.4 0-2.8-0.4-5.3-1.1-7.4-0.8-2.1-1.9-3.8-3.4-4.9-1.5-1.2-3.1-1.7-5-1.7-2.6 0-4.8 1.1-6.7 3.4-1.9 2.2-2.8 5.9-2.8 11.2z m-3.8-0.1c0-5.8 1.2-10.3 3.7-13.6 2.5-3.3 5.7-4.9 9.6-4.9 2.6 0 4.9 0.8 6.9 2.3 2.1 1.5 3.6 3.7 4.7 6.4 1.1 2.8 1.6 5.9 1.6 9.4s-0.6 6.7-1.7 9.5-2.7 4.9-4.8 6.3c-2.1 1.4-4.3 2.2-6.8 2.2-2.6 0-5-0.8-7-2.4-2.1-1.6-3.6-3.8-4.7-6.5-1-2.7-1.5-5.6-1.5-8.7z m31.7 17v-34.8h5.5l6.6 24.6c0.6 2.3 1.1 4 1.3 5.2 0.3-1.3 0.8-3.1 1.5-5.6l6.7-24.2h5v34.8h-3.6v-29.1l-8.1 29.1h-3.3l-8.1-29.6v29.6h-3.5z m32.9 0v-34.8h5.5l6.6 24.6c0.6 2.3 1.1 4 1.3 5.2 0.3-1.3 0.8-3.1 1.5-5.6l6.7-24.2h5v34.8h-3.6v-29.1l-8.1 29.1h-3.3l-8.1-29.6v29.6h-3.5z m32.2 0v-34.8h20.2v4.1H770.4v10.7h15.5v4.1H770.4v11.8h17.2v4.1h-20.9z m30.3-19.5h8c1.7 0 3-0.2 4-0.7 1-0.4 1.7-1.1 2.2-2.1 0.5-1 0.7-2 0.7-3.1 0-1.6-0.5-3-1.4-4.1-1-1.1-2.5-1.6-4.6-1.6h-8.9v11.6z m-3.7 19.5v-34.8h12.4c2.5 0 4.4 0.3 5.7 0.9 1.3 0.6 2.3 1.7 3.1 3.3 0.8 1.6 1.2 3.3 1.2 5.2 0 2.5-0.6 4.5-1.9 6.2-1.3 1.7-3.3 2.8-6 3.2 1 0.6 1.7 1.2 2.2 1.7 1.1 1.2 2.1 2.8 3.1 4.6l4.9 9.5h-4.7l-3.7-7.2c-1.1-2.1-2-3.7-2.7-4.8-0.7-1.1-1.3-1.9-1.9-2.3-0.6-0.4-1.1-0.8-1.7-0.9-0.4-0.1-1.1-0.2-2.1-0.2h-4.3v15.5h-3.6z m48.2-12.2l3.7 1.2c-0.8 3.8-2.2 6.7-4.2 8.7-2 2-4.5 3-7.4 3-3 0-5.5-0.8-7.3-2.3-1.9-1.5-3.3-3.7-4.3-6.7-1-2.9-1.5-6-1.5-9.4 0-3.6 0.6-6.8 1.7-9.5s2.7-4.8 4.7-6.2c2-1.4 4.3-2.1 6.8-2.1 2.8 0 5.1 0.9 7 2.7 1.9 1.8 3.2 4.3 4 7.5l-3.6 1.1c-0.6-2.5-1.6-4.4-2.8-5.5-1.2-1.2-2.8-1.7-4.6-1.7-2.1 0-3.9 0.6-5.4 1.9s-2.5 3-3 5.2c-0.6 2.2-0.9 4.4-0.9 6.7 0 3 0.3 5.6 1 7.8s1.8 3.9 3.2 5c1.5 1.1 3 1.6 4.7 1.6 2.1 0 3.8-0.7 5.3-2.2 1.4-1.7 2.4-3.9 2.9-6.8z m8.8 12.2v-34.8h3.8v34.8h-3.8z m15.6-14.3h9.4l-2.9-9.6c-0.9-2.9-1.5-5.3-2-7.2-0.4 2.2-0.9 4.4-1.5 6.6l-3 10.2z m-8 14.3l10.6-34.8h4l11.3 34.8h-4.2l-3.2-10.5h-11.6l-3 10.5h-3.9z m28.5 0v-34.8h3.8v30.7h14v4.1H886.4z m35.3-4.1h6.9c1.2 0 2-0.1 2.5-0.2 0.8-0.2 1.5-0.5 2.1-0.9 0.6-0.4 1-1.1 1.4-1.9 0.4-0.8 0.5-1.8 0.5-2.9 0-1.3-0.3-2.4-0.8-3.4s-1.3-1.6-2.2-2c-0.9-0.4-2.3-0.6-4-0.6h-6.4v11.9z m0-16.1h6c1.6 0 2.8-0.1 3.5-0.4 0.9-0.3 1.6-0.9 2.1-1.7 0.5-0.8 0.7-1.8 0.7-3s-0.2-2.2-0.7-3.1c-0.4-0.9-1.1-1.5-1.9-1.8-0.8-0.3-2.2-0.5-4.2-0.5h-5.5v10.5z m-3.7 20.2v-34.8H928.4c2.1 0 3.8 0.4 5.1 1.1 1.3 0.7 2.3 1.8 3 3.3 0.7 1.5 1.1 3 1.1 4.6 0 1.5-0.3 2.9-1 4.2-0.6 1.3-1.6 2.4-2.9 3.2 1.7 0.6 3 1.7 3.9 3.2 0.9 1.5 1.4 3.2 1.4 5.3 0 1.6-0.3 3.1-0.8 4.5s-1.2 2.5-2 3.2c-0.8 0.8-1.8 1.3-3 1.7-1.2 0.4-2.7 0.6-4.5 0.6h-10.7z m30.8-14.3h9.4l-2.9-9.6c-0.9-2.9-1.5-5.3-2-7.2-0.4 2.2-0.9 4.4-1.5 6.6l-3 10.2z m-8 14.3l10.6-34.8h4l11.3 34.8h-4.2l-3.2-10.5h-11.6l-3 10.5h-3.9z m29.1 0v-34.8h3.8l14.8 27.3v-27.3h3.6v34.8h-3.8l-14.8-27.4v27.4h-3.6z m28.5 0v-34.8h3.7v17.3l14.1-17.3h5.1L1009.4 563l12.4 20.7h-4.9l-10.1-17.7-4.6 5.6v12.1H998.4z"></path><path d="M153.8 446.5c2.7-0.1 5.4-0.2 8.1-0.2H168.2c0.7 0 1.4 0 2.1 0.1 0.7 0 1.4 0.1 2.1 0.1 0.7 0 1.4 0.1 2.1 0.1 0.7 0 1.4 0.1 2.2 0.1 0.7 0.1 1.4 0.1 2.2 0.2 0.7 0.1 1.4 0.1 2.2 0.2 0.7 0.1 1.5 0.1 2.2 0.2 0.7 0.1 1.5 0.2 2.2 0.3 0.7 0.1 1.5 0.2 2.2 0.3 0.7 0.1 1.5 0.2 2.2 0.3 0.7 0.1 1.5 0.2 2.2 0.4 0.7 0.1 1.4 0.2 2.2 0.4 0.7 0.1 1.4 0.3 2.2 0.4 0.7 0.1 1.4 0.3 2.2 0.4 0.7 0.2 1.4 0.3 2.1 0.5 0.7 0.2 1.4 0.3 2.1 0.5 0.7 0.2 1.4 0.4 2.1 0.5l2.1 0.6 2.1 0.6c0.7 0.2 1.4 0.4 2 0.6 0.7 0.2 1.4 0.4 2 0.7 0.7 0.2 1.3 0.5 2 0.7 0.7 0.2 1.3 0.5 2 0.7 1.3 0.5 2.6 1 3.8 1.5 1.3 0.5 2.5 1.1 3.7 1.6 1.2 0.6 2.4 1.1 3.5 1.7 1.1 0.6 2.3 1.2 3.3 1.8 1.1 0.6 2.1 1.3 3.2 1.9 1 0.7 2 1.3 3 2s1.9 1.4 2.7 2.1c0.4 0.4 0.9 0.7 1.3 1.1 0.4 0.4 0.8 0.7 1.2 1.1 0.4 0.4 0.8 0.7 1.2 1.1 0.4 0.4 0.8 0.7 1.1 1.1l1.1 1.1c0.3 0.4 0.7 0.8 1 1.1 0.3 0.4 0.6 0.8 1 1.1 0.3 0.4 0.6 0.8 0.9 1.1 0.3 0.4 0.6 0.8 0.8 1.2 0.3 0.4 0.5 0.8 0.8 1.2 0.3 0.4 0.5 0.8 0.7 1.2 0.2 0.4 0.5 0.8 0.7 1.2l0.6 1.2 0.6 1.2c0.2 0.4 0.3 0.8 0.5 1.2 0.2 0.4 0.3 0.8 0.4 1.2 0.1 0.4 0.3 0.8 0.4 1.2l0.3 1.2 0.3 1.2c0.1 0.4 0.2 0.8 0.2 1.2 0.1 0.4 0.1 0.8 0.2 1.1 0.1 0.4 0.1 0.8 0.1 1.1 0 0.4 0.1 0.8 0.1 1.1v1.1c0 0.6 0 1.2-0.1 1.8 0 0.6-0.1 1.2-0.2 1.8l-0.3 1.8c-0.1 0.6-0.3 1.2-0.4 1.8-0.3 1.2-0.7 2.3-1.2 3.5-0.5 1.2-1.1 2.3-1.7 3.5-0.7 1.1-1.4 2.3-2.2 3.4-0.8 1.1-1.7 2.2-2.7 3.3-0.5 0.5-1 1.1-1.5 1.6l-1.6 1.6c-0.5 0.5-1.1 1-1.7 1.5l-1.8 1.5 39.6 36c0.5-0.4 1.1-0.7 1.6-1.1 0.5-0.4 1.1-0.7 1.6-1.1 1-0.8 2-1.5 3-2.3 1-0.8 1.9-1.6 2.8-2.4 0.9-0.8 1.8-1.6 2.7-2.5 0.9-0.8 1.7-1.7 2.5-2.5 0.8-0.9 1.5-1.7 2.3-2.6 1.4-1.8 2.7-3.6 3.9-5.4 1.2-1.9 2.2-3.7 3.1-5.7 0.4-1 0.8-1.9 1.2-2.9 0.4-1 0.7-1.9 1-2.9 0.3-1 0.5-2 0.8-3 0.2-1 0.4-2 0.5-3 0.1-1 0.3-2 0.3-3 0.1-1 0.1-2 0.1-3 0-0.7-0.1-1.5-0.1-2.2-0.1-0.7-0.1-1.5-0.2-2.2-0.1-0.7-0.2-1.5-0.3-2.2-0.1-0.7-0.3-1.5-0.4-2.2-0.2-0.7-0.3-1.5-0.5-2.2-0.2-0.7-0.4-1.5-0.6-2.2-0.2-0.7-0.5-1.5-0.7-2.2-0.3-0.7-0.5-1.5-0.8-2.2-0.3-0.7-0.6-1.5-0.9-2.2-0.3-0.7-0.7-1.4-1-2.2-0.4-0.7-0.7-1.4-1.1-2.1l-1.2-2.1c-0.4-0.7-0.9-1.4-1.3-2.1-0.5-0.7-0.9-1.4-1.4-2.1l-1.5-2.1c-0.5-0.7-1-1.4-1.6-2-1.1-1.3-2.2-2.7-3.4-4-1.2-1.3-2.4-2.6-3.8-3.9-1.3-1.3-2.7-2.5-4.1-3.7-1.4-1.2-2.9-2.4-4.4-3.6-3-2.3-6.2-4.6-9.6-6.7-1.7-1.1-3.4-2.1-5.2-3.1-1.8-1-3.6-2-5.4-2.9-1.8-0.9-3.7-1.9-5.6-2.7-1.9-0.9-3.8-1.7-5.8-2.6-2-0.8-3.9-1.6-6-2.4-1-0.4-2-0.7-3-1.1-1-0.4-2-0.7-3.1-1.1-1-0.3-2.1-0.7-3.1-1-1-0.3-2.1-0.7-3.1-1-1.1-0.3-2.1-0.6-3.2-0.9-1.1-0.3-2.1-0.6-3.2-0.9-1.1-0.3-2.1-0.6-3.2-0.8-1.1-0.3-2.2-0.5-3.3-0.8-1.1-0.3-2.2-0.5-3.3-0.7-1.1-0.2-2.2-0.5-3.3-0.7l-3.3-0.6-3.3-0.6c-1.1-0.2-2.2-0.4-3.4-0.5-1.1-0.2-2.2-0.3-3.4-0.5-1.1-0.2-2.3-0.3-3.4-0.4-1.1-0.1-2.3-0.3-3.4-0.4-1.1-0.1-2.3-0.2-3.4-0.4-1.1-0.1-2.3-0.2-3.4-0.3-1.1-0.1-2.3-0.2-3.4-0.3-1.1-0.1-2.3-0.2-3.4-0.2-1.1-0.1-2.3-0.1-3.4-0.2s-2.3-0.1-3.5-0.1c-1.2 0-2.3-0.1-3.5-0.1h-10.5c-5.2 0-10.4 0.1-15.6 0.4 5 4.7 10.2 9.7 15.3 14.7M220 585c-1.3 0.3-2.6 0.6-3.9 1l-3.9 0.9c-1.3 0.3-2.6 0.6-4 0.8-1.3 0.3-2.7 0.5-4 0.8-1.4 0.3-2.7 0.5-4.1 0.7-1.4 0.2-2.7 0.5-4.1 0.7-2.8 0.4-5.5 0.8-8.3 1.1-2.8 0.3-5.6 0.6-8.5 0.9-1.4 0.1-2.8 0.2-4.3 0.3-1.4 0.1-2.8 0.2-4.3 0.3-1.4 0.1-2.8 0.2-4.3 0.2-1.4 0.1-2.8 0.1-4.3 0.2-1.4 0-2.8 0.1-4.3 0.1h-9.4c-0.6 0-1.1 0-1.7-0.1-0.6 0-1.1 0-1.7-0.1-0.6 0-1.1 0-1.7-0.1-0.6 0-1.1-0.1-1.7-0.1-0.6 0-1.1-0.1-1.7-0.1-0.6 0-1.1-0.1-1.7-0.1-0.6 0-1.1-0.1-1.7-0.1-0.6 0-1.1-0.1-1.7-0.1-0.6 0-1.2-0.1-1.7-0.1-0.6 0-1.2-0.1-1.7-0.1-0.6-0.1-1.2-0.1-1.7-0.2-0.6-0.1-1.2-0.1-1.7-0.2-0.6-0.1-1.2-0.1-1.7-0.2-0.6-0.1-1.2-0.1-1.7-0.2-0.6-0.1-1.2-0.1-1.7-0.2-0.6-0.1-1.2-0.1-1.8-0.2-0.6-0.1-1.2-0.2-1.8-0.2-0.6-0.1-1.2-0.2-1.8-0.2l-1.8-0.3-1.8-0.3-1.8-0.3-1.8-0.3-1.8-0.3-1.8-0.3-1.8-0.3-1.8-0.3c-0.6-0.1-1.2-0.2-1.7-0.4-1.2-0.2-2.3-0.5-3.5-0.7-1.2-0.3-2.3-0.5-3.5-0.8-1.2-0.3-2.3-0.6-3.5-0.8-1.2-0.3-2.3-0.6-3.4-0.9-1.1-0.3-2.3-0.6-3.4-0.9-1.1-0.3-2.3-0.6-3.4-1-1.1-0.3-2.2-0.7-3.4-1-1.1-0.4-2.2-0.7-3.3-1.1-1.1-0.4-2.2-0.7-3.3-1.1-1.1-0.4-2.2-0.8-3.2-1.2-1.1-0.4-2.1-0.8-3.2-1.2-1.1-0.4-2.1-0.8-3.1-1.3-1-0.4-2.1-0.9-3.1-1.3l-6-2.7c-2-0.9-3.9-1.9-5.7-2.9-1.9-1-3.7-2-5.5-3-1.8-1-3.5-2.1-5.2-3.2-0.8-0.5-1.7-1.1-2.5-1.6s-1.6-1.1-2.4-1.7c-0.8-0.6-1.5-1.1-2.3-1.7-0.8-0.6-1.5-1.1-2.2-1.7-0.7-0.6-1.4-1.2-2.1-1.7-0.7-0.6-1.4-1.2-2-1.8-0.7-0.6-1.3-1.2-2-1.8-0.6-0.6-1.3-1.2-1.9-1.8l-1.8-1.8c-0.6-0.6-1.1-1.2-1.7-1.8-0.5-0.6-1.1-1.2-1.6-1.8l-1.5-1.8c-0.5-0.6-1-1.2-1.4-1.9-0.5-0.6-0.9-1.2-1.3-1.9-0.4-0.6-0.8-1.2-1.2-1.9-0.4-0.6-0.8-1.2-1.1-1.9-0.4-0.6-0.7-1.2-1-1.9-0.3-0.6-0.6-1.2-0.9-1.9-0.3-0.6-0.6-1.2-0.9-1.9-0.3-0.6-0.5-1.2-0.8-1.9-0.2-0.6-0.5-1.2-0.7-1.9l-0.6-1.8c-0.2-0.6-0.4-1.2-0.5-1.8-0.2-0.6-0.3-1.2-0.4-1.8l-0.3-1.8-0.3-1.8c-0.1-0.6-0.1-1.2-0.2-1.8 0.5-0.6 0.4-1.2 0.4-1.7 0-0.8 0-1.5 0.1-2.3 0-0.8 0.1-1.5 0.2-2.3 0.1-0.8 0.2-1.6 0.3-2.3 0.1-0.8 0.3-1.6 0.4-2.3 0.2-0.8 0.4-1.6 0.6-2.3 0.2-0.8 0.5-1.6 0.7-2.3 0.3-0.8 0.5-1.6 0.8-2.3 0.3-0.8 0.6-1.6 1-2.3 0.3-0.8 0.7-1.6 1.1-2.3 0.4-0.8 0.8-1.6 1.2-2.3 0.4-0.8 0.9-1.5 1.4-2.3 0.5-0.8 1-1.5 1.5-2.3 1.1-1.5 2.2-3 3.4-4.5 1.2-1.5 2.5-3 3.9-4.4 1.4-1.4 2.9-2.9 4.4-4.3 1.6-1.4 3.2-2.8 4.9-4.1 0.9-0.7 1.7-1.3 2.6-2 0.9-0.7 1.8-1.3 2.7-1.9 0.9-0.6 1.9-1.3 2.8-1.9 1-0.6 1.9-1.2 2.9-1.8l3-1.8c1-0.6 2-1.2 3.1-1.7 1-0.6 2.1-1.1 3.2-1.7 1.1-0.6 2.1-1.1 3.2-1.6 0.5-0.3 1.1-0.5 1.6-0.8 0.6-0.3 1.1-0.5 1.7-0.8 0.6-0.3 1.1-0.5 1.7-0.8 0.6-0.3 1.1-0.5 1.7-0.7 0.6-0.2 1.1-0.5 1.7-0.7 0.6-0.2 1.1-0.5 1.7-0.7 0.6-0.2 1.2-0.5 1.7-0.7 0.6-0.2 1.2-0.5 1.8-0.7 7.3 6.3 14.6 12.5 21.9 18.8-0.7 0.6-1.3 1.1-1.9 1.7l-1.8 1.8c-0.6 0.6-1.2 1.2-1.7 1.8-0.6 0.6-1.1 1.2-1.6 1.9-0.5 0.6-1 1.3-1.5 1.9-0.5 0.6-0.9 1.3-1.4 1.9-0.9 1.3-1.7 2.6-2.4 3.9-0.7 1.3-1.3 2.6-1.9 4-0.3 0.7-0.5 1.3-0.7 2-0.2 0.7-0.4 1.3-0.6 2-0.2 0.7-0.3 1.3-0.5 2-0.1 0.7-0.2 1.3-0.3 2-0.1 0.7-0.2 1.3-0.2 2s-0.1 1.3-0.1 2v2.2c0 0.4 0.1 0.7 0.1 1.1 0 0.4 0.1 0.7 0.1 1.1 0.1 0.4 0.1 0.7 0.2 1.1 0.1 0.4 0.2 0.7 0.2 1.1 0.1 0.4 0.2 0.7 0.3 1.1 0.1 0.4 0.2 0.7 0.3 1.1 0.1 0.4 0.3 0.7 0.4 1.1 0.1 0.4 0.3 0.7 0.5 1.1 0.2 0.4 0.3 0.7 0.5 1.1 0.2 0.4 0.4 0.7 0.6 1.1 0.2 0.4 0.4 0.7 0.6 1.1 0.2 0.4 0.4 0.7 0.7 1.1 0.2 0.4 0.5 0.7 0.7 1.1 0.3 0.4 0.5 0.7 0.8 1.1 0.3 0.4 0.6 0.7 0.9 1.1 0.3 0.4 0.6 0.7 0.9 1.1 0.3 0.4 0.6 0.7 1 1.1 0.3 0.4 0.7 0.7 1 1.1l1.1 1.1c0.4 0.4 0.8 0.7 1.1 1.1 0.8 0.7 1.6 1.4 2.5 2.1 0.9 0.7 1.8 1.4 2.7 2 0.9 0.7 1.9 1.3 2.9 2 1 0.6 2 1.3 3.1 1.9l3.3 1.8c1.1 0.6 2.3 1.2 3.5 1.7 1.2 0.6 2.4 1.1 3.6 1.6 1.2 0.5 2.5 1 3.8 1.5 1.3 0.5 2.6 1 3.9 1.4 0.7 0.2 1.3 0.5 2 0.7 0.7 0.2 1.4 0.4 2 0.6l2.1 0.6 2.1 0.6 2.1 0.6c0.7 0.2 1.4 0.4 2.1 0.5 0.7 0.2 1.4 0.3 2.1 0.5 0.7 0.2 1.4 0.3 2.1 0.5 0.7 0.2 1.4 0.3 2.2 0.4 0.7 0.1 1.4 0.3 2.2 0.4 0.7 0.1 1.4 0.3 2.2 0.4 0.7 0.1 1.5 0.2 2.2 0.4 0.7 0.1 1.5 0.2 2.2 0.3 0.7 0.1 1.5 0.2 2.2 0.3 0.7 0.1 1.5 0.2 2.2 0.3 0.7 0.1 1.4 0.2 2.2 0.2 0.7 0.1 1.4 0.1 2.2 0.2 0.7 0.1 1.4 0.1 2.2 0.2 0.7 0.1 1.4 0.1 2.2 0.2 0.7 0 1.4 0.1 2.1 0.1 0.7 0 1.4 0.1 2.1 0.1 0.7 0 1.4 0.1 2.1 0.1 0.7 0 1.4 0 2.1 0.1h2.1c2.1-0.2 4.2-0.3 6.4-0.5s4.4-0.4 6.7-0.6c15.4 13.2 30.5 27.2 45.6 41.2m-99.1-95.9c9.7 8.5 19.3 17 29 25.5 1.1 0.8 2.3 1.2 3.8 1.2 1.1 0 2.2-0.2 3.5-0.6 13.7-4.6 27.3-9.2 41-13.7 1.4-0.4 2.2-1.8 2.2-3 0-0.7 0-2.3-1.1-3.4-8.8-8-17.7-16-26.5-23.9-1.1-1-2.6-1.5-4.4-1.5-1.4 0-3 0.3-4.8 1-13.5 4-26.9 7.9-40.4 11.9-2.3 0.9-3.2 3.2-3.2 4.4 0 0.7 0.4 1.6 0.9 2.1" fill="#E30016"></path></svg>