<svg viewBox="0 0 1024 1024" version="1.1" xmlns="http://www.w3.org/2000/svg"><path d="M224 0h576c123.6 0 224 100.4 224 224v576c0 123.6-100.4 224-224 224H224c-123.6 0-224-100.4-224-224V224C0 100.4 100.4 0 224 0z" fill="#FFFFFF"></path><path d="M520.4 168c157.6 0 291.2 106.8 331.6 252h-55.6c-38.8-115.6-148-198.8-276.4-198.8-160 0-290.8 130.4-290.8 290.8s130.8 290.8 291.2 290.8c128.4 0 237.6-83.6 276.4-198.8H852c-40.4 145.2-174 252-331.6 252-189.6 0-344.4-154.4-344.4-344s154.8-344 344.4-344z m-42.8 212.4L459.2 256h133.6l-18.4 124.4 69.2-0.8L676 728h-94l-25.2-94h-61.2l-25.2 94H376l32.4-348.4 69.2 0.8z" fill="#E30016"></path></svg>