<svg viewBox="0 0 1024 1024" version="1.1" xmlns="http://www.w3.org/2000/svg"><path d="M245.1 453.8c2 0.8 5.1 1.1 9.3 0.8 5 0 8.3 0.1 9.7 0.4 1.7 0.8 2.1 2.3 1.3 4.2-0.6 0.3-1.4 1-2.5 2.1-1.1 0.8-1.8 1.4-2.1 1.7-0.8 0.6-1.3 1.1-1.3 1.7 0 0.3 0.6 0.4 1.7 0.4 7.8-0.3 15 0.4 21.5 2.1 1.7 1.7 1.7 3 0 3.8-1.4 0.6-4.2 0.8-8.4 0.8-4.2-0.3-7.3-0.7-9.3-1.3-1.7-0.3-4.3-0.4-8-0.4-1.1 0.6-1.7 1.5-1.7 3 0 0.8 0.7 1.3 2.1 1.3 7-0.3 13.8 0.3 20.2 1.7 2.5 1.4 3.5 2.8 2.9 4.2-0.6 0.6-2.1 1.1-4.6 1.7-2.5 0.6-4.2 0.7-5 0.4-3.6-0.3-8.3-0.3-13.9 0-1.1 0.3-1.7 1-1.7 2.1 0.3 0.8 1.1 1.3 2.5 1.3 5.6-0.3 11.9 0 18.9 0.8 3.1 1.4 3.6 3.1 1.7 5.1-4.5 2.5-9.4 3.2-14.7 2.1h-8c-1.4 2-1.3 3.4 0.4 4.2 4.5 0 9 0.6 13.5 1.7 2.2 0.6 4.6 0.4 7.1-0.4 2-0.6 3.1 0 3.4 1.7-0.6 3.4-1.1 5.1-1.7 5.1-5.3 2.3-11.5 2.4-18.5 0.4-12.1-2-25.7-0.7-40.8 3.8-1.7 0.6-2.8 0.7-3.4 0.4-0.3-0.6-0.3-1.8 0-3.8 0.6-9.9 1.5-19.3 2.9-28.3-1.4-4.5-3.5-6.1-6.3-4.7l-0.4 0.4c-2.8 2-5.8 3-8.8 3-7.9 1.1-11.1-3-9.7-12.3 0-1.1 0.3-1.7 0.8-1.7 0.6 0 1.1 0.6 1.7 1.7 0 2.5 5.3 2.5 16 0 7.6-2.5 13.9-5.6 18.9-9.3 3.9-3.5 8.7-4.2 14.3-1.9z m-8 5.9c-0.8 1.4-3.2 2.8-7.1 4.2-3.4 2-5.3 5.4-5.9 10.1 0 3.1 1.4 4.2 4.2 3.4 5.9-1.7 11.5-2.7 16.8-3 1.1 0.3 1.8 0 2.1-0.8 0.3-1.4 0-2.3-0.8-2.5-3.1-0.3-7 0.4-11.8 2.1-3.4 1.1-5.3 0.3-5.9-2.5-0.8-2.3-0.4-3.2 1.3-3 1.7 0 3.2-0.6 4.6-1.7 2.2-0.6 5.1-0.8 8.4-0.8 5-0.3 8.8-1.4 11.4-3.4 0.6-0.6 0.8-1 0.8-1.3-0.3-0.6-0.7-1-1.3-1.3-9.2-1.9-14.8-1.8-16.8 0.5z m-12.2 25.7c-1.4 0.8-2 1.7-1.7 2.5 0.3 0.8 1.1 1.1 2.5 0.8 7-1.4 13.3-2.4 18.9-3 1.7-0.8 2.1-2.1 1.3-3.8-2.5 0-4.2 0.1-5 0.4-0.6 0.3-1.7 0.6-3.4 0.8H235c-3.9 0.5-7.3 1.2-10.1 2.3z m-1.3 12.7c-1.7 1.1-1.8 2.4-0.4 3.8 5.6-0.8 12.6-2.1 21-3.8 1.4-0.8 1.4-2.1 0-3.8-6.7-0.3-13.5 1-20.6 3.8z m-16.4 11.4c0.8-2.5 2.5-2.4 5 0.4 0.8 6.5-0.1 11-2.9 13.5-3.9 1.7-7.4 2-10.5 0.8-0.6 0-1.3-0.4-2.1-1.3-1.1-0.8-1.8-1.4-2.1-1.7-1.1-0.8-1.1-2 0-3.4 6.2-1.8 10.4-4.6 12.6-8.3z m43-1.2c2-0.6 4.1 1.4 6.3 5.9 0.8 3.4-0.6 6.1-4.2 8-2.8 0.3-4.5-1.3-5.1-4.6-0.6-5.1 0.4-8.2 3-9.3z m-22.4 2.5c1.4-2 3.1-2.3 5.1-0.8 2 2.3 2.9 4.8 2.9 7.6-0.3 2.5-1.7 4.1-4.2 4.6-4.8 0.6-7-0.6-6.7-3.4-0.3-2 0.3-3.5 1.7-4.6 0.8-1.2 1.2-2.3 1.2-3.4z m43.4-0.9c1.4 1.1 3.2 1.7 5.5 1.7 2.8 0.8 4.9 1.5 6.3 2.1 0.6 0.8 1.8 1.3 3.8 1.3 1.1 0.3 1.8 0.8 2.1 1.7 0.3 0.8 0 1.6-0.8 2.1-2.5 2.3-5 4.4-7.6 6.3-3.1 1.7-6.2 1.1-9.3-1.7-2.2-3.1-3.4-6.9-3.4-11.4 0.3-2.2 1.4-2.9 3.4-2.1z m92.2-57.8c1.1-2 2.8-2 5.1 0 2 2.3 2.2 4.1 0.8 5.5-1.1 5.1 0 7.5 3.4 7.2 5.3-0.6 12.6-0.6 21.9 0 6.2 0.8 11.2 0.8 15.1 0 0.8-0.6 1.5-0.7 2.1-0.4 0.3 0.3 0.1 0.7-0.4 1.3-1.1 1.7-3.8 4.7-8 8.9-0.3 0.6-0.6 0.8-0.8 0.8-3.1 2.3-6.9 2.5-11.4 0.8-11.5-2.3-19.6-2.4-24.4-0.4-2.5 3.9-2.7 6.9-0.4 8.9 3.1 0.6 6.2 0.6 9.3 0 7-0.6 15.2-0.3 24.4 0.8 2 0.3 2.5 1.4 1.7 3.4-2.2 4.5-5.7 6.2-10.5 5.1-4.2-0.6-11.5-0.1-21.9 1.3-2.5 0.8-3.9 2.4-4.2 4.7-1.1 4.2-1 6.5 0.4 6.8 0.3 0.3 1.7 0.4 4.2 0.4s4.5-0.1 5.9-0.4c5.9-0.6 11.9-0.4 18.1 0.4 4.8 0.8 8.3 1.3 10.5 1.3 1.7 0.3 2.1 1.8 1.3 4.6-1.4 4.8-5.9 6.3-13.5 4.6-5.9-0.8-13.3-1-22.3-0.4-3.9 1.7-6.2 3.4-6.7 5.1-0.3 2-1.1 3.5-2.5 4.6-0.6 0.6-1.1 0.7-1.7 0.4-0.3-0.3-0.4-0.7-0.4-1.3-0.6-2-0.8-5.1-0.8-9.3 0-4.8 0.3-8.9 0.8-12.2 0.8-4.2 1-10.1 0.4-17.8v-0.8c-1.7-1.7-4.2-1.8-7.6-0.4-3.4 1.4-7.2-0.8-11.4-6.8-0.8-0.8-1.1-1.4-0.8-1.7 0.3-0.3 1-0.4 2.1-0.4 6.7 0.3 13.9-6.1 21.5-19-1.8-1.3-1.6-3.1 0.7-5.6z m-17.3 4.2c-1.4 5.1-3.2 8.5-5.5 10.1-3.4 2.8-4.9 6.2-4.6 10.1 0 1.1-0.1 4.4-0.4 9.7v7.6c-0.8 2-1.1 4.7-0.8 8v11.8c0 3.4-0.1 6.3-0.4 8.9-1.1 2.3-2.5 2.5-4.2 0.8-2.8-2.5-3.5-7.9-2.1-16 0.6-6.2 1.1-13.7 1.7-22.4 0.3-6.2-2.9-9.6-9.7-10.1-2.8-0.3-4.2-2-4.2-5.1-0.3-1.1-1-3.5-2.1-7.2-0.6-1.1-0.6-2.1 0-3 0.6-0.6 1.5-0.7 2.9-0.4 1.7 1.4 3.5 1.4 5.5 0 8.7-2.3 13.8-3.4 15.2-3.4 1.4 0 2.9-0.7 4.6-2.1 0.8-0.8 1.8-1 2.9-0.4 0.8 0.7 1.2 1.7 1.2 3.1z m137.7-5.9c4.8 1.4 7.6 3.5 8.4 6.3 0.8 2.8 3.2 3.9 7.2 3.4 5.6 0.3 11.9 1.4 18.9 3.4 1.4 0.8 2.8 0.8 4.2 0 2.5-0.8 4.2-1.1 5-0.8 1.1 0.6 2.7 0.4 4.6-0.4 0.8-0.3 1.5 0 2.1 0.8 0.3 1.4 0.1 2.4-0.4 3-1.7 0.8-2.4 2.1-2.1 3.8-0.8 2.3-2.8 4.4-5.9 6.3-3.4 1.7-7.1 1.3-11.4-1.3-8.2-5.4-17.8-7.9-29.1-7.6-6.4-0.3-18.1 2.7-34.9 8.9-9 3.4-13.2 1.3-12.6-6.3 0-3.7 1.7-5.2 5-4.6 1.4 1.1 2.9 1 4.6-0.4 2.5-1.4 7.3-2.3 14.3-2.5 8.7 0 13.9-2.5 15.6-7.6 1-4.1 3.1-5.6 6.5-4.4z m4.6 22.4c0.3 1.7 1.4 2.5 3.4 2.5 2.8 0.6 5.2 0.8 7.1 0.8 2-0.3 4.1 0 6.3 0.8 0.8 0.6 2 0.6 3.4 0 3.4-0.3 4.6 2.3 3.8 7.6-2.5 6.5-3.4 11.4-2.5 14.8 1.1 9 1.7 14.8 1.7 17.3 0.3 2.8 0.1 4.8-0.4 5.9-3.1 2.8-5 3-5.9 0.4 0-3.4-0.1-5.8-0.4-7.2-0.6-1.1-0.7-3.8-0.4-8 0.3-2.5 0-8-0.8-16.5 0.8-2.8-2.1-4.2-8.8-4.2-4.2-0.3-6.2 2.4-5.9 8-0.3 11-0.1 19 0.4 24.1-0.3 3.4-1 5.6-2.1 6.8-1.4 0.6-2.4 1.5-2.9 3-0.6 1.4-2 2-4.2 1.7-1.4-0.3-2.1-1.1-2.1-2.5 0-5.1 0.4-13.4 1.3-24.9 0.3-3.7 0.6-7.5 0.8-11.4-0.3-2.8-1.7-3.8-4.2-3-2 1.1-3.9 1.8-5.9 2.1H469c-1.4 0.6-2.1 2-2.1 4.2 0 2-0.3 3.4-0.8 4.2-1.1 1.4-1.8 4.1-2.1 8 0.6 3.7-2.7 9.2-9.7 16.5-2.2 1.7-4.3 2.4-6.3 2.1h-1.3c-1.4-0.8-2.5-1.3-3.4-1.3-1.7 0-2.1-0.7-1.3-2.1 2.2-3.1 4.9-5.9 8-8.4 7-6.2 9.3-14.9 6.7-26.2-0.6-5.9 1.3-9 5.5-9.3 5.6 0.8 11.4-0.4 17.3-3.8 1.1-2.8 2.5-4.5 4.2-5.1 2.1-0.2 3.6 0.8 4.7 3.1z m127.2-16.9c0.8 1.7 2.8 2.5 5.9 2.5 5.6-0.6 11.9 0 18.9 1.7 1.1 0.3 3.2 0.4 6.3 0.4h5.1c0.8 0.6 2.2 0.1 4.2-1.3 0.3-0.3 0.6-0.3 0.8 0 0.3 0.6 0.3 1 0 1.3-0.6 0.3-1.1 1.1-1.7 2.5-2.5 5.4-5 8-7.6 8-4.2 0.6-8.7-0.4-13.5-3-2.2-0.8-4.9-1.7-8-2.5-3.1 0.3-4.4 2.1-3.8 5.5 2.5 2 7.8 3 16 3 3.6-0.3 5.1 1.4 4.2 5.1-1.7 2-2.2 4.9-1.7 8.9 0.3 3.9 0.3 7.3 0 10.1v6.4c0.8 7.9 1.1 12.1 0.8 12.7-0.6 1.1-0.7 2.3-0.4 3.4 0 0.3 0.1 0.4 0.4 0.4 0.3 2.5-0.6 4.4-2.5 5.5-3.4 0.8-5 0.7-5-0.4 0.3-0.3 0.4-2.1 0.4-5.5-0.3-0.6-0.4-1.7-0.4-3.4 0.3-0.8 0.4-1.5 0.4-2.1v-9.3c0.3-5.1 0.4-8.9 0.4-11.4-0.3-0.8-0.6-1.4-0.8-1.7-0.6-0.3-1.1-0.1-1.7 0.4l-0.4 0.4c-2.2 1.7-4.5 2.5-6.7 2.5-2 0.3-2.5 1.4-1.7 3.4V504.8c-0.3 0.3-0.3 0.8 0 1.7 0.3 1.1 0.4 1.7 0.4 1.7 0.3 2 0 3.9-0.8 5.9-2.2 0.6-5.2 0.6-8.9 0-1.7-0.3-4.1-0.3-7.1 0h-3.4c-1.4-0.3-2.2-0.4-2.5-0.4-3.1 0.3-6.3 1.3-9.7 3-2 0.3-2.5-1.3-1.7-4.6 2-6.8 2.9-11.4 2.9-13.9-0.8-2-2.5-3.1-5-3.4-2.2 0.3-3.4 0.1-3.4-0.4-1.1-0.3-1.7-0.1-1.7 0.4-0.6 0.8-0.7 3.9-0.4 9.3-0.6 6.8-2.5 12.5-5.9 17.3-3.6 3.1-7.4 4.1-11.4 3-1.1-0.8-2.2-1.4-3.4-1.7-0.8 0-1.3-0.3-1.3-0.8 0-0.3 0.4-0.6 1.3-0.8 4.5-2.8 8.4-7.9 11.8-15.2 2.8-7.6 3.9-14.8 3.4-21.5-0.6-1.4-0.6-2.8 0-4.2 0.3-0.8 0-2.3-0.8-4.2-0.8-0.6-0.8-1.3 0-2.1 0.8-0.3 2-0.3 3.4 0 6.4 1.4 11.1 0.4 13.9-3 0-1.1-0.8-2.5-2.5-4.2-2.8-0.3-4.8-0.1-5.9 0.4-3.4 2-7.4 3.2-12.2 3.8-2.5 0.6-4.6 1.1-6.3 1.7-3.1 1.1-4.5-1.8-4.2-8.9 0.6-1.4 1.5-1.8 2.9-1.3 0.6 0.6 2 0.4 4.2-0.4 2-0.3 5.2-0.6 9.7-0.8 0.3 0.3 1 0.3 2.1 0s2-0.4 2.5-0.4c2-0.3 4.2-0.6 6.7-0.8 2.2 0 4.1-0.1 5.5-0.4 4.5-1.1 7-3.2 7.6-6.3 0.3-2.5 2.1-3.2 5.5-2.1 3.9 1.6 6.2 3.3 6.8 4.7z m-13.9 8.4c-1.7 3.1-1.3 5.4 1.3 6.8 4.5 0 7.8-0.4 10.1-1.3 2.5-2.5 3.5-4.2 2.9-5.1-3.7-0.5-8.5-0.7-14.3-0.4z m5.4 14.4c-2.2 0.8-3.6 2.7-4.2 5.5-0.3 0.8-0.7 2-1.3 3.4-0.3 0.8-0.4 1.3-0.4 1.3-0.3 0.6-0.4 1-0.4 1.3 0.3 0.3 0.7 0.3 1.3 0 6.4-0.6 11.1-0.7 13.9-0.4 0.3 0 0.1-0.6-0.4-1.7-2-1.1-2.7-3.8-2.1-8v-0.8c-0.3-0.3-0.6-0.4-0.8-0.4h-5.6z m11.4 0.4c-1.4 0.6-1.5 1.5-0.4 3 0.6 0.3 1.4 0.7 2.5 1.3 2.5 1.1 4.1 1.5 4.6 1.3 2 0.6 3.9 1.4 5.9 2.5 2.2 1.7 3.5 1.7 3.8 0 0.6-2.3 0.4-4.2-0.4-5.9-6.5-1.2-11.8-1.9-16-2.2zM597 482c0.3-0.8-0.1-1.5-1.3-2.1-2.2 0.8-3.9 1.3-5 1.3-1.4 0.3-3.2 0.8-5.5 1.7h-0.8c-2 1.4-2.4 3.7-1.3 6.8 1.1 1.7 2.7 1.8 4.6 0.4 4.8-3.4 7.9-6.1 9.3-8.1z m8.4 14.8c-3.4 0.6-5.3 1.4-5.9 2.5-1.1 3.4-0.8 5.8 0.8 7.2 4.5-0.6 10-0.7 16.4-0.4 0.3 0.3 0.6-0.4 0.8-2.1 0 0-0.1-0.3-0.4-0.8 0-1.4 0.1-2.4 0.4-3-0.3-1.4-1-2.4-2.1-3-4.3 0.3-7.7 0.2-10-0.4zM744.8 455c3.6 0.6 4.3 3.9 2.1 10.1-3.4 7.6-5 13-5 16.1 0 3.9-0.6 8.7-1.7 14.3-0.6 1.1-0.8 2.4-0.8 3.8s0.1 3.1 0.4 5.1c-0.3 2 0.3 2.7 1.7 2.1 2.2 0.6 5.5 1.6 9.7 3 3.6 1.7 7.7 2.3 12.2 1.7 2.5-0.3 5.3-0.3 8.4 0 1.7 0.6 3.4 0.3 5-0.8 0.6-0.6 1.3-0.6 2.1 0 0.3 0.3 0.3 1 0 2.1-3.9 7.3-9 11.8-15.2 13.5-2 0.3-5.9-0.6-11.8-2.5-5.9-3.4-13.2-4.9-21.9-4.6-3.4 0-6.5-0.3-9.3-0.8-1.7 0-3.5 0.3-5.5 0.8-12.1 3.1-19.4 4.6-21.9 4.6-2.2 0.6-4.3 1-6.3 1.3-2.8 0.8-4.3 0.1-4.6-2.1-0.6-3.1-0.7-6-0.4-8.9 0.6-3.4 2.8-4.5 6.7-3.4 0.8 0.6 3.5 0.7 8 0.4 5-0.6 10.1-1.4 15.2-2.5 2-0.3 3.5-2.3 4.6-5.9 0.6-3.9 0.7-7.5 0.4-10.5-0.6-2-0.6-3.7 0-5.1-0.3-4.8-1.3-9.4-2.9-13.9-2-4.2-2.4-8.7-1.3-13.5 3.1-3.1 6.2-3.4 9.3-0.8 1.4 4.8 2 9.9 1.7 15.2-0.6 1.7-0.8 3-0.8 3.8 0 1.1 0.1 1.8 0.4 2.1 0.8 3.4 1 6.6 0.4 9.7-0.6 2.5-0.7 4.6-0.4 6.3 0.3 2.5 0.3 4.2 0 5.1v3.2c1.7 2.5 4.1 3 7.1 1.3 2-4.8 3.6-12.4 5-22.8 0-3.9 0.4-7.2 1.3-9.7 1.4-4.5 0.8-7.6-1.7-9.3-1.4-0.8-1.5-1.7-0.4-2.5 3.7-3.4 7.1-5.4 10.2-6z m18.5 10.6c3.4-0.6 4.5 1.4 3.4 5.9-0.8 2.8-2.8 6.2-5.9 10.1-0.3 0-2.2 3.8-5.9 11.4-2.2 4.8-6.3 6.6-12.2 5.5-0.8 0-1.3-0.4-1.3-1.3 0-0.6 0.4-1 1.3-1.3 3.6-1.1 6-3.2 7.1-6.3 0.3-0.6 0.7-1.7 1.3-3.4 0.8-1.7 1.5-3 2.1-3.8 0.6-1.1 0.8-2.4 0.8-3.8 0.3-3.4 1-6.2 2.1-8.5 2-2.4 4.4-4 7.2-4.5z m-61.5 5.1c0 3.4 1 5.5 3 6.3 3.6 4.2 4.9 12.3 3.8 24.1-0.3 1.4-0.7 2.1-1.3 2.1-0.3 0.3-0.7 0-1.3-0.8-3.1-3.9-5-7.5-5.9-10.5-0.8-2.3-2.8-4.9-5.9-8-3.1-6.8-2.1-12.2 2.9-16.5 2.6-1.3 4.2-0.1 4.7 3.3z m115.3-19.2c1.7-1.7 3.4-0.8 5 2.5-0.6 2.2-0.1 3.5 1.3 3.8 2.8 0.3 4.9 0.1 6.3-0.4 2.8-0.3 5.5-0.3 8 0 0 0 0.4 0.1 1.3 0.4h3.8c0.8 0.8 0.8 1.5 0 2.1-0.6 0.6-1.1 1.4-1.7 2.5-0.3 0.6-0.4 1-0.4 1.3-0.8 1.7-3.2 2.7-7.2 3-2.5 0-6.2 0.4-10.9 1.3h-3.4c-1.1 0.6-3.2 2.4-6.3 5.5 0.6 0.8 2 0.8 4.2 0 7.6-2.5 15.3-2.8 23.2-0.8 1.1 1.1 0.7 3.1-1.3 5.9-2.5 2.2-6.9 3.5-13.1 3.8-1.4 3.1-1.1 4.5 0.8 4.2 5.3-1.1 9.4-1.4 12.2-0.8 1.1 0.6 1.4 1.5 0.8 3-2.8 4.2-5.6 6.3-8.4 6.3-0.3 0.3-2 0.7-5 1.3-0.8 0.3-1.8 2.2-3 5.9-0.6 3.1-0.1 4.6 1.3 4.6 1.7-1.7 3.9-3.4 6.7-5.1 2.8-0.8 4.8-2 5.9-3.4 0.6-0.3 1.1-0.1 1.7 0.4 0.3 0.3 0.3 0.8 0 1.7-0.3 0.3-0.7 0.8-1.3 1.7-0.6 1.4-1 2.4-1.3 3-0.6 0.8-1.8 2.2-3.8 4.2-6.4 4.5-10.7 8-12.6 10.5-2.2 2.5-4.9 4.5-8 5.9-1.7 0.6-2.9 0.6-3.8 0-0.6-0.8-0.3-2.2 0.8-4.2 4.5-7 7.3-14.1 8.4-21.1 0-0.8-0.3-1.3-0.8-1.3-0.3-0.3-0.8-0.3-1.7 0-6.7 1.7-10.3 0.7-10.5-3 0-3.1 1.4-5.1 4.2-5.9 2 0.3 3.4 0 4.2-0.8 2.8-1.4 4.5-2.1 5-2.1 0.8-0.3 1.1-1.1 0.8-2.5-0.3-1.1-0.8-1.5-1.7-1.3-5 1.7-7.7 0.8-8-2.5v-5.9c-5.1 0-8-1.7-8.9-5.1 2-1.4 3.8-3.4 5.5-5.9 1.7-2 3.2-3.4 4.6-4.2 3.5-3.1 5.7-6 7.1-8.5z m67.8 3.8c1.4-0.6 2.9-0.3 4.6 0.8 1.1 1.1 1.3 2.4 0.4 3.8 0 0.3-0.1 0.6-0.4 0.8-0.6 1.1-1 2.2-1.3 3.4-0.6 1.7-1.5 3.7-2.9 5.9-1.4 2.5-3.1 9.8-5 21.9-0.6 2-1.4 3.2-2.5 3.8-1.4 0.6-1.3 1.8 0.4 3.8 3.6 5.6 7.6 10 11.8 13.1 0 0.3 0.3 0.6 0.8 0.8 1.4 1.1 3 2.4 4.6 3.8 2 1.7 4.1 2.2 6.3 1.7 0.6 0.3 1 0.7 1.3 1.3 0 0.6-0.3 1-0.8 1.3-2.8 1.4-5 2.8-6.7 4.2-2.2 1.4-4.9 2-8 1.7-4.2-1.1-6.6-2.7-7.2-4.6-1.4-2.2-2.7-5.3-3.8-9.3-0.6-1.1-1.3-1.3-2.1-0.4-2 3.1-5 4.6-9.3 4.6-8.1 0.3-14.2 1.5-18.1 3.8-2.2 1.1-4.8 1.7-7.6 1.7-2.5 0-5.2 0.7-8 2.1h-0.4c-2 0.3-2.8-0.3-2.5-1.7 0.6-3.7 2.1-5.8 4.6-6.3 5.6-1.7 9.3-4.8 10.9-9.3 0.6-2.5 1-5.8 1.3-9.7-0.3-3.4-0.1-5.6 0.4-6.8 1.1-4.2 1.4-7.7 0.8-10.5-0.6-1.7-0.6-3.9 0-6.8 0.3-2.2 0.3-4.6 0-7.2-0.8-2.2-1-5.9-0.4-11 1.1-1.1 2.9-1.3 5.5-0.4 1.7 0.8 3.5 1 5.5 0.4 7-1.1 14.2-1.4 21.5-0.8 2.8 1 4.9 1 6.3 0.1z m-30.3 11.4c-2 0.8-2.4 2.2-1.3 4.2 0.6 1.4 1.5 2 2.9 1.7 5.9-1.4 12.3-1.8 19.4-1.3 2.2-0.6 2.9-2.2 2.1-5.1-4.5-1-12.2-0.9-23.1 0.5z m-0.4 16.5c-2 3.4-1.8 5.5 0.4 6.3 5-1.7 11.8-2.4 20.2-2.1 1.1-1.7 1.4-3.5 0.8-5.5-7.3-0.9-14.4-0.4-21.4 1.3z m7.1 13c-0.8 0.3-1.8 0.6-2.9 0.8-1.4 0.3-2.5 0.4-3.4 0.4-2 1.1-2.9 2.7-2.9 4.6 0 1.4-0.3 3.7-0.8 6.7v0.8c0 1.4 1.4 1.5 4.2 0.4 2.2-0.8 4.8-4.9 7.6-12.2 0.2-0.6-0.4-1.2-1.8-1.5z m7.6 6.8c-0.8 1.4-2 3.2-3.4 5.5-0.3 0.8 0.3 1.3 1.7 1.3 0.6 0 1.7-0.1 3.4-0.4 1.4 0 2.5-0.1 3.4-0.4-0.8-1.1-1.7-3.1-2.5-5.9-1.5-1-2.3-1-2.6-0.1z m83.4-46c1.4 3.1 0.4 6.2-2.9 9.3-0.8 0.8-1.8 1.5-2.9 2.1-1.7 1.4-3.1 2.5-4.2 3.4-6.7 4.8-11.6 4.5-14.7-0.8-1.4-1.7-1.8-3.5-1.3-5.5 0-1.4 1.1-1.7 3.4-0.8 3.6 0.8 9.1-1 16.4-5.5 1.8-2.6 3.9-3.3 6.2-2.2z m23.1 1.3c0.3 0.3 0.7 0.4 1.3 0.4 3.9 0.6 7.6 0.7 10.9 0.4 7-0.3 13.1-0.3 18.1 0 2.2 0.8 3.8 1 4.6 0.4 1.4 0.6 2.2 1.8 2.5 3.8-0.3 2.5-2.8 3.9-7.6 4.2-1.4 0-3.1 0.1-5.1 0.4-1.4 0.3-3.1 0.4-5 0.4-1.7-0.3-2.9-0.4-3.8-0.4-4.8 0-7.9 0.1-9.3 0.4h-5.5c-9 1.4-13.1-0.1-12.2-4.6 1-4.7 4.7-6.6 11.1-5.4zM948.9 473c0.8-1.7 2.4-1.8 4.6-0.4 1.7 2.8 1.4 5.6-0.8 8.4-0.8 0.8-1.3 1.4-1.3 1.7l-0.4 0.8c0 1.1-0.4 2.3-1.3 3.4-1.1 1.1-1.4 2.3-0.8 3.4 0.6 3.9 0.7 7.3 0.4 10.1-0.3 2.8-0.3 6.3 0 10.5 0 1.7 0.1 3 0.4 3.8 0.3 4.8-0.8 7.7-3.4 8.9-1.1 0.3-2.1 0.6-2.9 0.8-3.9 0.8-7.3 0.6-10.1-0.8-1.1-1.4-1.1-2.7 0-3.8 1.4 0.6 2.7 0.3 3.8-0.8 0.6-0.8 1.4-2.4 2.5-4.6 0.6-0.8 1-2.4 1.3-4.6-0.3-2-0.4-3.8-0.4-5.5 0-1.4 0.1-3.7 0.4-6.7v-5.9c-0.3-0.8-0.7-1.3-1.3-1.3-0.6 0-1.3 0.4-2.1 1.3-3.6 3.1-8 5.8-13 8-2 0.8-2.7-1.7-2.1-7.6 1.1-4.2 2.7-6.3 4.6-6.3 1.7 1.1 4.6 0.4 8.8-2.1 1.4-1.4 4.5-3.5 9.3-6.3 2-1.6 3.2-3 3.8-4.4z m74.9 4.3c-0.3 2.2-1 4.9-2.1 8-1.4 3.9-2.8 5.9-4.2 5.9-0.8 0.3-1.8 0.6-2.9 0.8-2 0.8-4.3 0.7-7.2-0.4-3.9-1.1-6.2-0.6-6.7 1.7-0.8 5.1-1.3 8.6-1.3 10.5 0 2 0.1 5.8 0.4 11.4 0.3 7-1.1 11.4-4.2 13.1h-1.3c-0.3 0-0.6 0.1-0.8 0.4-1.4-0.3-2.7-1.5-3.8-3.8 0-0.3-0.1-1-0.4-2.1 0-3.1 0.1-5.6 0.4-7.6 0.6-5.3 0.6-12.9 0-22.8 0-1.7-1.4-2.8-4.2-3.4-5-0.3-11.8 0.6-20.2 2.5-3.9 1.1-6.4 1.1-7.6 0-0.8-0.6-0.7-2.8 0.4-6.7 1.1-3.4 2.5-5.2 4.2-5.5 2-0.3 4.3-0.3 7.2 0 0.6 0.6 1.8 0.8 3.8 0.8 2 0 4.2-0.3 6.7-0.8 9.3-0.8 20.8-0.8 34.5 0 3.4-0.6 5.9-1.4 7.6-2.5 0.3-0.6 0.6-0.8 0.8-0.8 0.4 0 0.7 0.4 0.9 1.3z m-793.5 95.1c0.2 5-2.7 7.5-8.5 7.4-4.3-0.1-6.5-1.8-6.8-5 0-2.4 1-3.6 3.1-3.7 1.9 0.2 3 1.1 3.1 2.9-0.2 1.7-1 2.6-2.5 2.6-0.5 0.1-1.1 0-1.7-0.4 0.5 1.4 1.8 2.2 3.8 2.2 2.4 0 3.7-1.1 3.8-3.4v-15c0.2-1.6-1-2.3-3.5-2.3v-1.3h12.3v1.3c-2.3-0.1-3.3 0.7-3.1 2.3v12.4z m22.2 7.3h-12.2v-1.3c2.3 0.2 3.4-0.6 3.3-2.3V560c0.1-1.6-1-2.3-3.3-2.3v-1.3h12.2v1.3c-2.4-0.1-3.4 0.7-3.3 2.3v16.1c-0.2 1.7 0.9 2.4 3.3 2.3v1.3z m15.9 0h-9.2v-1.3c1.8-0.2 3.2-1.6 4.2-4.4l7.5-18h1.7l8.6 20.1c0.4 1.5 1.5 2.3 3.1 2.3v1.3h-12v-1.3h1.3c1.4 0.1 2-0.3 2-1.2 0-0.2-0.1-0.5-0.3-0.9v-0.4l-1.7-3.8h-7.3l-1 2.6c-0.3 0.4-0.5 1.1-0.5 2.1 0 1.1 0.7 1.6 2 1.6h1.7v1.3z m4.5-9.5l-3-7.1-2.9 7.1h5.9z m29.9-14.2c7 0.8 10.8 4.8 11.6 12-0.8 7.2-4.7 11.2-11.6 11.8-7.1-0.6-11.1-4.5-11.8-11.8 0.7-7.2 4.6-11.2 11.8-12z m0 22.5c3.6 0.1 5.4-3.4 5.4-10.5 0-7-1.8-10.4-5.4-10.4-3.7 0-5.6 3.5-5.5 10.4-0.1 7.1 1.7 10.6 5.5 10.5z m37.5-7.8l-0.1 9h-17.9V578l12-20H332c-4.8 0.2-7.3 2.3-7.6 6.5H323l0.3-8.1h16.9v2.4l-11.6 19.3c6.3 0.4 9.7-2.1 10.3-7.4h1.4z m7.5-14.3h11.8v1.3c-2.4-0.1-3.6 0.7-3.4 2.3v13.9c0.1 2.8 1.7 4.4 4.7 4.6 3.7 0 5.7-1.9 5.8-5.8v-12.3c0.2-1.5-1-2.4-3.7-2.6v-1.3h8.5v1.3c-2.3 0.4-3.3 1.2-3.1 2.6v12c0 4.9-2.9 7.4-8.8 7.4-5.7-0.1-8.5-2.2-8.6-6.5V560c0.1-1.6-1-2.3-3.1-2.3v-1.3z m42.6-0.4c7 0.8 10.8 4.8 11.6 12-0.8 7.2-4.7 11.2-11.6 11.8-7.1-0.6-11.1-4.5-11.8-11.8 0.8-7.2 4.7-11.2 11.8-12z m0 22.5c3.6 0.1 5.4-3.4 5.4-10.5 0-7-1.8-10.4-5.4-10.4-3.7 0-5.6 3.5-5.5 10.4 0 7.1 1.8 10.6 5.5 10.5z m64-22v8.3H453c-1.8-5-4.4-7.5-7.6-7.3-3.9 0.1-5.9 3.6-5.9 10.4-0.1 7 2.2 10.5 6.8 10.5 4.4 0 6.8-2.6 7.2-7.9h1.6c-0.2 6.1-3.4 9.2-9.5 9.3-7.7-0.3-11.7-4.2-12.2-11.8 0.7-7.2 4.6-11.2 11.8-12 1.9 0 4.1 0.7 6.5 2l1.3-1.5h1.4z m21.2 23.2h-12.2v-1.3c2.3 0.2 3.4-0.6 3.3-2.3V560c0.1-1.6-1-2.3-3.3-2.3v-1.3h12.2v1.3c-2.4-0.1-3.4 0.7-3.3 2.3v16.1c-0.2 1.7 0.9 2.4 3.3 2.3v1.3z m7.5-23.3h21.6l0.1 8.2h-1.6c-1-4.4-3.2-6.6-6.5-6.6v18.1c-0.3 1.7 1 2.4 3.7 2.3v1.3h-13.1v-1.3c2.7 0.2 4-0.6 3.8-2.3V558c-3.4 0-5.6 2.2-6.5 6.6H483l0.1-8.2z m27.9 0h11.1v1.3c-1.8 0-2.7 0.4-2.6 1.1 0 0.3 0.1 0.8 0.4 1.5 0.1 0.2 0.2 0.3 0.3 0.4l3.5 6.7 3.1-6.4c0.3-0.8 0.5-1.4 0.5-1.9-0.1-0.9-1-1.4-2.9-1.5v-1.3h8.5v1.3c-2.1 0.3-3.3 1.1-3.7 2.4l-4.8 9.9v6.1c-0.3 1.7 1 2.4 3.7 2.3v1.3h-12.8v-1.3c2.7 0.2 4-0.6 3.8-2.3v-6.2l-4.3-8.5c-1.1-2.6-2.4-3.9-3.8-3.7v-1.2z m72.1 0.1v8.3h-1.3c-1.8-5-4.4-7.5-7.6-7.3-3.9 0.1-5.9 3.6-5.9 10.4-0.1 7 2.2 10.5 6.8 10.5 4.4 0 6.8-2.6 7.2-7.9h1.6c-0.2 6.1-3.4 9.2-9.5 9.3-7.7-0.3-11.7-4.2-12.2-11.8 0.7-7.2 4.6-11.2 11.8-12 1.9 0 4.1 0.7 6.5 2l1.3-1.5h1.3z m21.1-0.5c7 0.8 10.8 4.8 11.6 12-0.8 7.2-4.7 11.2-11.6 11.8-7.1-0.6-11.1-4.5-11.8-11.8 0.7-7.2 4.7-11.2 11.8-12z m0 22.5c3.6 0.1 5.4-3.4 5.4-10.5 0-7-1.8-10.4-5.4-10.4-3.7 0-5.6 3.5-5.5 10.4-0.1 7.1 1.8 10.6 5.5 10.5z m27.8 1.2h-8.6v-1.3c2.1 0 3.2-1.1 3.3-3.2v-15.5c0.1-1.4-0.9-2.1-3-2v-1.3h9.7l4.7 15.7h0.1l4.7-15.7h9.8v1.3c-2.4-0.1-3.4 0.7-3.3 2.3v16.1c-0.2 1.7 0.9 2.4 3.3 2.3v1.3h-11.6v-1.3c2.1 0.2 3.1-0.6 3-2.3v-17.2l-6.4 20.8h-2.9l-6.1-20.8v16.3c0 2.1 1.1 3.2 3.4 3.2v1.3z m36.1 0h-8.6v-1.3c2.1 0 3.2-1.1 3.3-3.2v-15.5c0.1-1.4-0.9-2.1-3-2v-1.3h9.7l4.7 15.7h0.1l4.7-15.7h9.8v1.3c-2.4-0.1-3.4 0.7-3.3 2.3v16.1c-0.2 1.7 0.9 2.4 3.3 2.3v1.3h-11.6v-1.3c2.1 0.2 3.1-0.6 3-2.3v-17.2l-6.4 20.8h-2.9l-6.1-20.8v16.3c0 2.1 1.1 3.2 3.4 3.2v1.3z m48.2-23.3l0.3 8.3h-1.4c-1.2-4.4-3.8-6.7-7.8-6.8-2-0.1-2.9 0.6-2.7 2.1v6.6c2.9 0.3 4.6-1.1 5.2-4h1.3v9.4h-1.3c-0.6-2.8-2.3-4.1-5.2-4v7.8c-0.2 1.6 0.7 2.3 2.7 2.1 4.3-0.1 7.1-2.5 8.4-7.3h1.4l-0.3 8.9h-21.2v-1.3c2.3 0.2 3.4-0.6 3.3-2.3V560c0.1-1.6-1-2.3-3.3-2.3v-1.3h20.6z m31.5 18.1c0 3.5-1.6 5.3-4.8 5.3-3.3 0.1-5-1.8-5-5.6-0.2-2.4-0.5-3.8-0.9-4.4-0.4-0.7-1.5-1.2-3.1-1.3v7c-0.3 2 0.8 3 3.3 2.8v1.3h-11.9v-1.3c2.3 0.2 3.4-0.6 3.3-2.3v-16c0.1-1.6-1-2.3-3.3-2.3v-1.3h11.8c5.6 0.1 8.4 2.2 8.5 6.2-0.1 3.7-2.8 5.6-8.1 5.6v0.1c3.1 0.4 5 2 5.9 5 0.8 3 1.4 4.2 2 3.7 0.6 0.1 1-0.8 1.2-2.5h1.1z m-13.9-7.3c4.1 0.2 6.1-1.4 5.9-4.6-0.2-2.9-1.4-4.5-3.7-4.6-1.6 0-2.3 0.7-2.2 2v7.2z m42.5-10.7v8.3h-1.3c-1.8-5-4.4-7.5-7.6-7.3-3.9 0.1-5.9 3.6-5.9 10.4-0.1 7 2.2 10.5 6.8 10.5 4.4 0 6.8-2.6 7.2-7.9h1.6c-0.2 6.1-3.4 9.2-9.5 9.3-7.7-0.3-11.7-4.2-12.2-11.8 0.7-7.2 4.6-11.2 11.8-12 1.9 0 4.1 0.7 6.5 2l1.3-1.5h1.3z m21.3 23.2h-12.2v-1.3c2.3 0.2 3.4-0.6 3.3-2.3V560c0.1-1.6-1-2.3-3.3-2.3v-1.3h12.2v1.3c-2.4-0.1-3.4 0.7-3.3 2.3v16.1c-0.2 1.7 0.9 2.4 3.3 2.3v1.3z m15.9 0h-9.2v-1.3c1.8-0.2 3.2-1.6 4.2-4.4l7.5-18h1.7l8.6 20.1c0.4 1.5 1.5 2.3 3.1 2.3v1.3h-12v-1.3h1.3c1.4 0.1 2-0.3 2-1.2 0-0.2-0.1-0.5-0.3-0.9v-0.4l-1.7-3.8h-7.3l-1 2.6c-0.3 0.4-0.5 1.1-0.5 2.1 0 1.1 0.7 1.6 2 1.6h1.7v1.3z m4.5-9.5l-3-7.1-2.9 7.1h5.9z m36.7 9.5h-19.2v-1.3c2.3 0.2 3.4-0.6 3.3-2.3V560c0.1-1.6-1-2.3-3.3-2.3v-1.3h12.2v1.3c-2.4-0.1-3.4 0.7-3.3 2.3v16c-0.2 1.6 0.6 2.3 2.2 2.1 3.3-0.2 5.6-2.6 6.9-7.4h1.4l-0.2 9z m38.8-13h1c3.3 0 5-1.4 5-4.2-0.1-2.9-1.4-4.4-3.8-4.5-1.5 0.1-2.2 0.8-2.2 2.3v6.4z m-5.4-6.7c0.1-1.6-1-2.3-3.1-2.3v-1.3H897c5.3 0.2 8.1 2.1 8.4 5.8-0.1 2.9-1.8 4.6-5.2 5 4.3 0.8 6.4 2.7 6.5 5.8-0.4 4.3-3.2 6.5-8.5 6.6h-13.1v-1.3c2.2 0.2 3.2-0.6 3.1-2.3v-16z m5.4 8.2v7.4c-0.1 1.8 0.7 2.6 2.4 2.5 3.2 0 4.9-1.5 5-4.5-0.1-3.5-1.7-5.3-5-5.4h-2.4z m29.4 11.5h-9.2v-1.3c1.8-0.2 3.2-1.6 4.2-4.4l7.5-18h1.7l8.6 20.1c0.4 1.5 1.5 2.3 3.1 2.3v1.3h-12v-1.3h1.3c1.4 0.1 2-0.3 2-1.2 0-0.2-0.1-0.5-0.3-0.9v-0.4l-1.7-3.8h-7.3l-1 2.6c-0.3 0.4-0.5 1.1-0.5 2.1 0 1.1 0.7 1.6 2 1.6h1.7v1.3z m4.4-9.5l-3-7.1-2.9 7.1h5.9z m17.4-13.8h8.1l11.2 15.9h0.1v-11.9c0.2-1.5-1-2.4-3.5-2.6v-1.3h8.4v1.3c-2.2 0.3-3.2 1.1-3 2.6v19.3H963l-12.8-18h-0.2v14.4c-0.3 1.7 1.1 2.4 3.9 2.3v1.3h-9v-1.3c2.3 0.2 3.4-0.6 3.3-2.3V560c0.1-1.6-1-2.3-3.4-2.3v-1.3z m31.4 0h11.6v1.3c-2 0-2.9 0.7-2.8 2.3v7.3l6.9-7c0.5-0.4 0.8-0.8 0.8-1.5s-0.6-1.1-1.7-1.1h-1.2v-1.3h9.9v1.3c-2.1 0.3-3.6 0.9-4.4 1.9l-5.2 5 7.5 12.3c0.4 1 1.5 1.5 3.3 1.5v1.3h-11.5v-1.3c1.1-0.1 1.7-0.4 1.8-0.8 0.6 0.8-1-2.2-5-9.1l-1.2 1.1v6.6c-0.1 1.6 0.7 2.3 2.4 2.3v1.3h-11.2v-1.3c2.3 0.2 3.4-0.6 3.3-2.3V560c0.1-1.6-1-2.3-3.3-2.3v-1.3z" fill="#1B1918"></path><path d="M84.6 427c38.7 0 71.5 26.3 81.5 62h-13.6c-9.5-28.4-36.3-49-67.8-49-39.5 0.1-71.7 32.2-71.7 71.7 0 39.4 32.1 71.6 71.5 71.6 31.5 0 58.3-20.6 67.8-49H166c-9.9 35.7-42.7 62-81.5 62-46.5 0-84.5-38-84.5-84.6S38 427 84.6 427z m-10.5 52.5l-4.5-30.7h32.8l-4.5 30.7 17-0.2 7.9 86.1H99.7l-6.2-23.2h-15l-6.2 23.2H49.2l7.9-86.1 17 0.2z" fill="#E30016"></path></svg>