<svg viewBox="0 0 1024 1024" version="1.1" xmlns="http://www.w3.org/2000/svg"><path d="M224 0h576c123.6 0 224 100.4 224 224v576c0 123.6-100.4 224-224 224H224c-123.6 0-224-100.4-224-224V224C0 100.4 100.4 0 224 0z" fill="#FFFFFF"></path><path d="M118 460H136v92h-18v-40.4h-35.6V552H64v-92h18v36.4h35.6V460z m72.4 63.2c-2.4 0.8-6 1.6-10.8 2.8-5.2 1.2-8.4 2-10 3.2-2.4 1.6-3.6 3.6-3.6 6s0.8 4.4 2.8 6.4c2 1.6 4.4 2.8 7.2 2.8 3.2 0 6.4-1.2 9.2-3.2 2-1.6 3.6-3.6 4.4-5.6 0.4-1.6 0.8-4.4 0.8-8.4v-4z m-24-14h-16.4c0.8-6.8 4.8-13.6 9.6-16.8 4.4-3.2 11.2-4.4 20-4.4 8 0 14 0.8 18 2.8 4 2 6.8 4 8.4 6.8 1.6 2.8 2.4 8 2.4 15.6v20c0 5.6 0.4 10 0.8 12.8 0.4 2.8 1.6 5.6 3.2 8.8h-18c-0.4-1.2-1.2-2.8-1.6-5.2-0.4-1.2-0.4-1.6-0.8-2-3.2 2.8-6.4 5.2-10 6.4-3.6 1.6-7.2 2-11.2 2-7.2 0-12.4-2-16.4-5.6-4-3.6-6-8.4-6-13.6 0-3.6 0.8-6.8 2.8-10 2-2.8 4.4-5.2 7.6-6.8 3.2-1.6 8-2.8 14.4-4 8.4-1.6 14.4-2.8 17.6-4.4v-1.6c0-3.2-0.8-5.6-2.4-7.2-1.6-1.6-4.8-2-9.6-2-3.2 0-5.6 0.8-7.6 2-2.4 1.2-4 3.6-4.8 6.4zM284 552h-17.6v-34c0-7.2-0.4-12-1.2-14-0.8-2-2-3.6-3.6-4.8-1.6-1.2-3.6-1.6-6-1.6-3.2 0-5.6 0.8-8 2.4-2.4 1.6-4 4-4.8 6.8-0.8 2.8-1.2 8-1.2 15.2v30H224v-66.4h16v9.6c5.6-7.6 12.8-11.2 21.6-11.2 4 0 7.2 0.8 10.4 2 3.2 1.6 5.6 3.2 7.2 5.2 1.6 2 2.8 4.8 3.6 7.2 0.8 2.8 0.8 6.8 0.8 12V552z m29.6-35.6c0 6.8 0.8 12 2.8 15.2 2.8 4.4 6.8 6.8 11.6 6.8 4 0 7.2-1.6 10-5.2 2.8-3.2 4-8.4 4-15.2 0-7.6-1.2-12.8-4-16.4-2.8-3.2-6-4.8-10.4-4.8-4 0-7.6 1.6-10.4 4.8-2 3.2-3.6 8.4-3.6 14.8z m46.4 34h-16v-9.6c-2.8 3.6-6 6.4-9.6 8.4-3.6 2-7.2 2.8-11.2 2.8-7.6 0-14-3.2-19.2-9.2-5.2-6-8-14.4-8-25.6 0-11.2 2.8-19.6 8-25.2 5.2-5.6 12-8.8 20-8.8 7.2 0 13.6 3.2 19.2 9.2V460H360v90.4z m58-36.4c0-5.2-1.6-9.2-4-12-2.4-2.8-5.6-4-9.6-4s-7.2 1.6-10 4.4c-2.4 2.8-4 6.8-4 12h27.6z m-1.2 18.4h18.4c-1.6 8-6.4 14.8-11.2 18.4-5.2 3.6-11.2 5.2-18.8 5.2-12 0-20.8-4-26.4-11.6-4.4-6.4-6.8-14-6.8-23.6 0-11.6 2.8-20.4 8.8-26.8s13.6-9.6 22.4-9.6c10 0 18.4 3.2 24 10 6 6.8 8.8 17.2 8.4 31.2H390.4c0 5.6 1.6 9.6 4.4 12.8 2.8 3.2 6.4 4.4 10.4 4.4 2.8 0 5.2-0.8 7.2-2.4 2-2 3.6-4.4 4.4-8z m27.2 19.6v-92h20v92h-20z m28-20h17.6c0.8 3.6 2.4 6.4 4.8 8 2.4 2 5.6 2.8 10 2.8 4.8 0 8.4-0.8 10.8-2.4 1.6-1.2 2.4-2.8 2.4-4.8 0-1.2-0.4-2.4-1.2-3.6-0.8-0.8-2.8-1.6-6-2.4-14.8-3.2-24.4-6.4-28-8.8-5.6-3.6-8.4-8.8-8.4-15.6 0-6 2.4-10.8 7.2-15.2 4.8-4 12-6 22-6 9.6 0 16.4 1.6 21.2 4.8 4.8 3.2 8.4 9.6 9.6 16.8h-17.2c-0.8-2.8-2-4.8-4.4-6-2-1.6-5.2-2-8.8-2-4.8 0-8.4 0.8-10.4 2-1.2 0.8-2 2-2 3.6 0 1.2 0.8 2.4 2 3.2 1.6 1.2 7.2 2.8 17.2 5.2s16.8 4.8 20.4 8c4 3.2 5.6 7.6 5.6 13.6 0 6.4-2.8 11.6-8 16.4-5.2 4.4-13.2 6.8-23.6 6.8-9.6 0-17.2-1.6-22.4-5.6-6.4-4.8-10-13.6-10.4-18.8z m89.2-7.6c0 6.8 1.2 12 3.2 15.2 3.2 4.8 6.8 6.8 12 6.8 4 0 7.2-1.6 9.6-4.8 2.8-3.2 4-8.4 4-15.6 0-7.6-1.2-12.8-4-16.4-2.8-3.2-6-4.8-10.4-4.8-4 0-7.6 1.6-10.4 4.8-2.8 3.2-4 8-4 14.8z m-17.2 34V468h17.2v32.8c5.2-6 11.6-9.2 19.2-9.2 8 0 14.4 2.8 20 8.8 5.2 5.6 8 14 8 24.8 0 11.2-2.8 20-8 26s-11.6 9.2-19.6 9.2c-3.6 0-7.6-0.8-11.2-2.8-3.6-2-6.8-4.8-9.6-8.4v9.6h-16z m114.4-35.2c-2.4 0.8-6 1.6-10.8 2.8-5.2 1.2-8.4 2-10 3.2-2.4 1.6-3.6 3.6-3.6 6s0.8 4.4 2.8 6.4c2 1.6 4.4 2.8 7.2 2.8 3.2 0 6.4-1.2 9.2-3.2 2-1.6 3.6-3.6 4.4-5.6 0.4-1.6 0.8-4.4 0.8-8.4v-4z m-24-14h-16.4c0.8-7.6 5.2-13.6 9.6-16.8 4.4-3.2 11.2-4.4 20-4.4 8 0 14 0.8 18 2.8 4 2 6.8 4 8.4 6.8 1.6 2.8 2.4 8 2.4 15.6v20c0 5.6 0.4 10 0.8 12.8 0.4 2.8 1.6 5.6 3.2 8.8h-20v-7.2c-3.2 2.8-6.4 5.2-10 6.4-3.6 1.6-7.2 2-11.2 2-7.2 0-12.4-2-16.4-5.6-4-3.6-6-8.4-6-13.6 0-3.6 0.8-6.8 2.8-10 2-2.8 4.4-5.2 7.6-6.8 3.2-1.6 8-2.8 14.4-4 8.4-1.6 14.4-2.8 17.6-4.4v-1.6c0-3.2-0.8-5.6-2.4-7.2-1.6-1.6-4.8-2-9.6-2-3.2 0-5.6 0.8-7.6 2-2.8 1.2-4.4 3.6-5.2 6.4zM752 556h-18.4v-34c0-7.2-0.4-12-1.2-14-0.8-2-2-3.6-4-4.8-1.6-1.2-4-1.6-6.4-1.6-3.2 0-6 0.8-8.8 2.4-2.4 1.6-4.4 4-5.2 6.8-0.8 2.8-1.6 8-1.6 15.2v30H688v-66.4h17.2v9.6c6-7.6 14-11.2 23.2-11.2 4 0 8 0.8 11.2 2s6 3.2 7.6 5.2c1.6 2 2.8 4.8 3.6 7.2 0.8 2.8 1.2 6.8 1.2 12V556z m12 4v-92h18.4v48.8l21.6-23.6h22.4l-23.6 24.4L828 560h-19.6l-17.2-30-8.4 8.4v21.2H764z m110-46c0-5.2-1.6-9.2-4-12-2.4-2.8-5.6-4-9.6-4s-7.2 1.6-10 4.4c-2.4 2.8-4 6.8-4 12h27.6z m-1.2 18.4h18c-2 7.6-6 14.8-10.8 18.4-5.2 3.6-11.2 5.2-18.8 5.2-12 0-20.8-4-26.4-11.6-4.4-6.4-6.8-14-6.8-23.6 0-11.6 2.8-20.4 8.8-26.8 6-6.4 13.6-9.6 22.4-9.6 10 0 18.4 3.2 24 10 6 6.8 8.8 17.2 8.4 31.2h-45.6c0 5.6 1.6 9.6 4.4 12.8 2.8 3.2 6.4 4.4 10.4 4.4 2.8 0 5.2-0.8 7.2-2.4 2.4-2 4-4.4 4.8-8zM964 552h-18.4v-34c0-7.2-0.4-12-1.2-14-0.8-2-2-3.6-4-4.8-1.6-1.2-4-1.6-6.4-1.6-3.2 0-6 0.8-8.8 2.4-2.4 1.6-4.4 4-5.2 6.8-0.8 2.8-1.6 8-1.6 15.2v30H900v-66.4h17.2v9.6c6-7.6 14-11.2 23.2-11.2 4 0 8 0.8 11.2 2 3.2 1.2 6 3.2 7.6 5.2 1.6 2 2.8 4.8 3.6 7.2 0.8 2.8 1.2 6.8 1.2 12V552z" fill="#0A3D83"></path></svg>