<svg viewBox="0 0 1024 1024" version="1.1" xmlns="http://www.w3.org/2000/svg"><path d="M956 636c-121.6-84.4-403.2-78-556.8-62.8-110 11.2-214.8 27.2-327.2 50 120.8-10.8 240.4-16 360.4-18.8 180.8-4.4 344 9.2 523.6 31.6" fill="#F30031"></path><path d="M752 466.8c0 40 31.2 69.2 74.4 69.2 48.4 0 77.6-27.6 77.6-76.4S858.4 396 826.8 396c-42.8 0-74.8 24.4-74.8 70.8z m76-50.8c22 0 40 21.6 40 48s-18 48-40 48-40-21.6-40-48 18-48 40-48z m-574.8-2L202.4 536h-9.6l-50.4-116.4-10 84.4c-2 16.8-2.4 28-10 32H104l18-133.2c0.8-2.8-3.2-12.4-8.4-18.8h56.8l31.6 82.8L234.8 384H284l8 152h-36.4c0-38.4-2.4-83.6-2.4-122zM644 396v76.4h50.4V536h37.6V396h-50.4c8.4 4.8 12.4 11.2 12.4 25.6v38H644V396z m-264 32l18.8-12.8 46 0.8L380 536h120v-12.8l-70.4-0.4L500 396H380v32z m264 44.4V396h-50.4c9.2 5.2 12.8 11.2 12.8 25.6v95.2h-31.6c-14.4 0-18.8-4.4-18.8-19.2V396h-52c7.6 4 12.4 10.4 13.6 19.2V504c0 35.2 27.6 31.6 63.2 31.6H644v-63.2z m-323.2-50.8V536H360V396H308c7.6 6 12.8 11.2 12.8 25.6z" fill="#271975"></path></svg>