<svg viewBox="0 0 1024 1024" version="1.1" xmlns="http://www.w3.org/2000/svg"><path d="M798 547.8c-78.7-53.9-261-49.8-360.3-40.1-71.1 7-139.1 17.3-211.7 32 78.2-6.8 155.5-10.2 233.1-12.1 117.1-2.9 222.7 5.9 338.9 20.2" fill="#F30031"></path><path d="M667 438.6c0 25.8 20.1 44.4 47.9 44.4 31.3 0 50.1-17.7 50.1-49.1 0-31.5-29.3-40.9-49.6-40.9-27.8 0-48.4 15.7-48.4 45.6z m48-32.6c14.4 0 26 13.9 26 31s-11.6 31-26 31-26-13.9-26-31 11.6-31 26-31z m-371.2-1.7l-33.1 78.6-6.2 0.1-32.7-75.1-6.3 54.6c-1.4 10.8-1.7 18-6.5 20.5h-12l11.7-86c0.4-1.7-2.2-8-5.4-12h37l20.4 53.3L332 385h32l5 97.9-23.7 0.1c0-24.9-1.5-53.8-1.5-78.7zM597 393v49.1h32.6V483H654v-90h-32.6c5.4 3.1 8.1 7.2 8.1 16.4v24.5H597V393z m-172 20.5l12.3-8.2 29.7 0.6-42 77.1h78v-8.2l-45.7-0.3L503 393h-78v20.5z m172 28.6V393h-32.9c6 3.4 8.2 7.2 8.2 16.4v61.3h-20.5c-9.5 0-12.3-2.8-12.3-12.3V393H506c4.8 2.7 8 6.6 8.8 12.3v57.2c0 22.6 18 20.4 41.1 20.4H597V442.1z m-208.8-32.7V483H413v-90h-33c4.9 3.8 8.2 7.2 8.2 16.4z" fill="#271975"></path><path d="M671.6 593.5c0.2 0.3 0.4 0.6 0.4 0.7s-0.3 0.2-0.8 0.2H649c-1.6 0-2.9 0.2-3.8 0.6l-2.2-2.4c1.5 0.2 3.1 0.3 4.8 0.3H664l3.5-3.9 4.1 4.5zM659.5 609h-14.4c-1.7 0-2.9 0.2-3.9 0.6l-2.2-2.5c1.5 0.2 3.1 0.3 4.8 0.3h23.7l3.8-4.4 4.3 5.1c0.3 0.3 0.4 0.5 0.4 0.7 0 0.2-0.3 0.2-0.8 0.2h-11.1v23c0 2-0.2 3.4-0.6 4.2-0.4 0.8-1.3 1.7-2.8 2.5-1.5 0.8-2.4 1.2-2.7 1.2-0.4 0-0.6-0.3-0.8-0.9-0.3-1.3-1-2.2-2.1-2.9-1.1-0.6-3.3-1.3-6.6-1.9l0.2-1.2c3.6 0.4 6.1 0.6 7.5 0.6 1.4 0 2.3-0.1 2.7-0.3s0.6-0.6 0.6-1.1V609z m-17.8-19.1c0.2 0.3 0.3 0.5 0.3 0.7 0 0.2-0.3 0.4-1 0.5-0.7 0.1-1.6 0.7-2.7 1.6-4.7 4-9.9 7.4-15.6 10.3l-0.7-0.8c7.6-5.6 13.1-11 16.5-16.2l3.2 3.9z m-10.2 22.5c-2.6 2.6-5.9 5.5-9.8 8.7l-0.7-1c7.4-7.7 13-15.4 16.8-23.1l3.6 3.1c0.4 0.4 0.6 0.7 0.6 1.1 0 0.4-0.2 0.6-0.7 0.6-0.4 0-1.2 0.7-2.3 2.2-1.1 1.5-2.5 3.1-4.2 4.9l1.7 0.5c0.5 0.2 0.7 0.4 0.7 0.6 0 0.2-0.2 0.5-0.6 0.8l-0.9 0.7v14.6c0 4 0 6.8 0.1 8.4 0.1 1.6 0.1 2.5 0.1 2.9s-0.1 0.6-0.4 0.9c-0.3 0.3-0.8 0.6-1.7 1.1-0.9 0.4-1.6 0.6-2 0.6s-0.6-0.4-0.6-1.3l0.3-6c0.1-2.6 0.2-5.2 0.2-7.8v-12.5zM592 611h14v-8h-14v8z m0-10h14v-9h-14v9z m0.7-11.2h12.6l2.1-2.8 3.6 2.8c0.4 0.4 0.6 0.6 0.6 0.9 0 0.2-0.2 0.5-0.6 0.6l-1.1 0.7v12.3c0 2 0.1 3.7 0.2 5.1 0.2 1.4 0.2 2.1 0.2 2.2 0 0.6-0.6 1.1-1.8 1.7-1.2 0.5-1.9 0.8-2.2 0.8s-0.5-0.3-0.5-0.9v-0.9h-8.4c1 4 2.4 7.5 4.3 10.4 3.9-3.3 7.1-6.4 9.7-9.4l3.2 3.8c0.3 0.3 0.4 0.5 0.4 0.7s-0.1 0.3-0.3 0.4c-0.2 0.1-0.4 0.1-0.6 0.1h-0.5c-0.6 0-1.6 0.4-3.1 1.2-1.5 0.8-4.1 2.4-7.8 4.7 3.2 4.2 8.3 7.3 15.1 9.3v0.9c-1.5 0.3-2.6 0.6-3.2 1-0.6 0.4-1.1 1.1-1.5 2-0.2 0.4-0.4 0.6-0.7 0.6-0.4 0-2.3-1.5-5.6-4.4-3.3-2.9-5.8-5.8-7.3-8.8-1.5-3-2.8-7.1-3.8-12.4h-3.8v20.9l9.4-3.5 0.4 0.9-7.1 4.9c-1 0.7-1.7 1.2-2.2 1.6-0.5 0.4-1.2 1.2-2.1 2.2-0.3 0.4-0.6 0.6-0.8 0.6-0.2 0-0.5-0.1-0.7-0.4l-3-3c1-0.7 1.6-1.4 1.9-2 0.3-0.6 0.4-1.4 0.4-2.5v-35.3c0-3.8-0.1-7.1-0.2-9.9l4.8 2.9z m-19.6 8.3c-1.3 3-2.7 5.6-4 7.9H580l3.1-3.5 3.5 4.2c0.2 0.2 0.4 0.4 0.4 0.6 0 0.2-0.2 0.3-0.7 0.3h-9.5v8.7h4.3l2.9-3.4 3.6 4.2c0.3 0.3 0.4 0.5 0.4 0.7 0 0.1-0.2 0.2-0.7 0.2h-10.5v13.1l9.9-7.2 0.6 0.8-8.3 8.9c-1.5 1.6-2.7 3.2-3.6 4.9-0.2 0.4-0.4 0.6-0.7 0.6s-0.6-0.1-0.9-0.3l-3.4-2.3c1.6-1.5 2.4-3.1 2.4-4.6V618h-3c-1.7 0-3.1 0.2-4.1 0.6l-2.1-2.6c1.4 0.2 3.1 0.3 5 0.3h4.2v-8.7h-4.6c-1.2 2-2.6 4-4.3 6l-0.8-0.5c4.3-8 7.7-17.3 10.2-28.1l4.8 2.5c0.6 0.3 0.9 0.6 0.9 0.8 0 0.3-0.3 0.5-0.9 0.8-0.6 0.3-1.3 1.1-1.9 2.6l-2.1 4.6h7.7l2.9-3.2 3.3 3.8c0.2 0.3 0.3 0.6 0.3 0.8 0 0.3-0.3 0.4-0.8 0.4h-14.4z m-61.2 2.9c2.8 4 4.9 7.7 6.2 11 1.3 3.4 1.9 6.7 1.9 10.1 0 1-0.3 1.9-0.9 2.6-0.6 0.8-1.2 1.2-1.9 1.2s-1.2-0.2-1.5-0.6c-0.3-0.4-0.5-0.9-0.5-1.5l0.1-2.3c0-6.5-1.4-13.1-4.3-20l0.9-0.5z m12.7 33.9v-37c0-3.8-0.1-6.9-0.2-9.3l6 2.3c0.5 0.2 0.7 0.3 0.7 0.6 0 0.2-0.2 0.4-0.7 0.7l-1.6 0.9V635h7.2v-37.6c0-3.6-0.1-6.7-0.2-9.3l5.8 2.8c0.5 0.2 0.7 0.5 0.7 0.7 0 0.2-0.2 0.4-0.6 0.6l-1.5 0.9v33c5.4-9.4 8.7-18.2 9.9-26.2l5.2 3.1c0.5 0.3 0.8 0.6 0.8 0.8s-0.3 0.5-0.9 0.8-1.1 0.8-1.4 1.2c-0.3 0.5-1 1.8-2.1 4s-2.8 5.2-5.1 9.1-4.4 7-6.4 9.4v6.6h10.2l3.9-4.5 4.5 5.1c0.2 0.3 0.4 0.6 0.4 0.8 0 0.2-0.3 0.3-0.8 0.3h-47.2c-1.5 0-2.8 0.2-3.9 0.5l-2.2-2.4c1.4 0.2 3 0.3 4.7 0.3h14.8zM469.2 586c2.2 0.6 3.9 1.3 5.1 2.1 1.2 0.8 1.7 1.6 1.7 2.6s-0.2 1.8-0.7 2.4-1 0.9-1.8 0.9-1.2-0.5-1.4-1.4c-0.6-2.5-1.7-4.4-3.1-5.9l0.2-0.7z m-6.9 15c2.9 0.5 5 1.3 6.5 2.2 1.5 1 2.2 1.9 2.2 2.9s-0.2 1.9-0.7 2.7c-0.5 0.8-1 1.2-1.4 1.2-0.5 0-0.9-0.5-1.4-1.4-0.9-2.3-2.8-4.6-5.5-6.9l0.3-0.7z m-4.9 8c6.4 1.4 9.6 3.3 9.6 5.5 0 0.9-0.3 1.6-0.8 2.4-0.6 0.7-1.1 1.1-1.7 1.1s-1-0.4-1.4-1.3c-1-2.8-3-5.1-6.1-7.1l0.4-0.6z m0.4-12.5c0.1 2.5-0.3 4.8-1.1 6.7-0.9 1.9-2 2.9-3.5 2.9-0.7 0-1.2-0.2-1.6-0.7-0.4-0.4-0.6-1-0.6-1.6s0.4-1.4 1.3-2.4c2.6-2.9 3.8-6 3.7-9.2h1c0.3 1.2 0.5 2.2 0.6 2.8H491l2.6-3 4.8 4.5c0.5 0.4 0.7 0.8 0.7 1.1 0 0.3-0.5 0.5-1.4 0.5-0.9 0-2.4 0.6-4.5 1.9-2.1 1.3-4 2.8-5.6 4.6l-0.8-0.6 4.5-7.4h-33.5z m19.5 25.9c-0.4 1.2-0.9 2.3-1.3 3.3 6.4 1.9 11.2 3.7 14.4 5.4 3.2 1.7 4.8 3.3 4.8 4.8 0 2.4-0.6 3.6-1.8 3.6-0.5 0-1.3-0.6-2.5-1.7-3-3.5-8.2-7.2-15.3-11.2-4.2 7.5-12.9 12-26.3 13.5l-0.2-0.9c13.3-3.1 21.5-8.6 24.5-16.7h-19.9c-1.5 0-2.7 0.2-3.8 0.5l-2-2.4c1.3 0.2 2.8 0.3 4.5 0.3H474c0.7-2.8 1.2-6.4 1.6-10.7 0.4-4.3 0.6-8 0.5-11.1l5.1 2.3c0.5 0.3 0.8 0.5 0.8 0.7 0 0.2-0.2 0.4-0.7 0.7-0.5 0.3-0.8 0.7-1 1.3-0.2 0.6-0.4 1.6-0.5 3.1-0.5 6.1-1.2 10.6-2 13.6H490l4-4.8 4.6 5.3c0.3 0.3 0.4 0.6 0.4 0.8s-0.3 0.3-0.8 0.3h-20.9z m-44.7 1.6c6.3 3.4 9.4 6.3 9.4 8.8 0 0.9-0.2 1.6-0.6 2.3-0.4 0.6-0.8 1-1.2 1-0.9 0-1.6-0.8-2.1-2.3-0.5-1.5-1.2-3-2.2-4.4-0.9-1.4-2.2-3-3.9-4.8l0.6-0.6z m-5.6-12h7v-5h-7v5z m0-7h7v-5h-7v5z m-4.4 17c1.8 1.2 3.1 2.2 4 3.1 0.9 0.9 1.4 1.8 1.4 2.6s-0.2 1.6-0.7 2.3-0.9 1-1.3 1c-0.8 0-1.3-0.8-1.6-2.5-0.3-2.2-1.1-4.2-2.5-6l0.7-0.5z m-6.6-10h7v-5h-7v5z m0-7h7v-5h-7v5z m17.1 22.9c-0.1 1-0.1 1.8-0.1 2.6 0 2.4 0.4 3.8 1.3 4.3 0.5 0.3 0.7 0.6 0.7 1s-0.6 1-1.8 1.9c-1.2 0.9-4.8 1.3-11 1.3-2.9 0-4.8-0.3-5.7-0.8-0.9-0.6-1.3-1.7-1.3-3.3v-4c0-1.8-0.1-3.7-0.2-5.9l4.9 1.9c0.3 0.2 0.5 0.3 0.5 0.4 0 0.1-0.1 0.3-0.4 0.5l-0.9 0.8v5.2c0 0.8 0.3 1.3 0.8 1.6 0.5 0.2 1.8 0.4 4 0.4s3.8-0.2 4.9-0.6c1.1-0.4 1.9-1.1 2.3-2.2 0.4-1.1 0.9-2.8 1.2-5.3l0.8 0.2z m-6.4-34.9h9.1l3.2-3.7 3.6 4.3c0.3 0.4 0.5 0.7 0.5 0.8 0 0.1-0.3 0.2-0.9 0.2h-15.4v4.2h6.5l1.9-2.2 3.8 2.9c0.3 0.2 0.4 0.4 0.4 0.6 0 0.2-0.2 0.3-0.5 0.6l-1.2 0.8v4c0 1.5 0 2.8 0.1 3.8l0.2 2.9c0 0.8-0.5 1.4-1.6 1.8-1.1 0.4-1.7 0.6-1.9 0.6-0.2 0-0.4-0.1-0.5-0.3-0.1-0.2-0.1-0.6-0.1-1.3h-7v5.8l9.5-0.1c-0.7-0.9-1.8-2-3.4-3.2l0.6-0.8c2.3 0.9 4.2 1.8 5.8 2.8 1.6 1 2.4 2.1 2.4 3.4 0 0.6-0.2 1.3-0.5 2-0.4 0.7-0.7 1-1.1 1s-0.8-0.1-1.1-0.4c-0.4-0.3-0.6-0.7-0.8-1.2-0.2-0.5-0.5-1.3-1-2.2l-18.2 1.2c-3.4 0.3-5.9 0.7-7.6 1.3-0.3 0.1-0.6 0.2-0.9 0.2-0.3 0-0.5-0.2-0.7-0.7l-1.4-3.1 14.7-0.1V613h-7v0.9c0 0.7-0.1 1.2-0.4 1.4-0.2 0.3-0.7 0.5-1.4 0.8-0.7 0.3-1.2 0.4-1.6 0.4-0.4 0-0.6-0.4-0.6-1.3 0-0.3 0-1 0.1-2.3 0.1-1.2 0.1-3.3 0.1-6.2v-5.4c0-1.6-0.1-3.4-0.2-5.4l4.1 2.9h6.8v-4.2h-8.8c-1.6 0-2.9 0.2-4 0.6l-2.2-2.6c1.5 0.2 3.1 0.3 4.9 0.3h10.2c-0.1-3.9-0.2-6.5-0.3-8l5.4 2.3c0.5 0.2 0.7 0.4 0.7 0.5 0 0.2-0.2 0.3-0.5 0.5l-1.6 1.1v3.7z m-14.9 32c0.1 1.4 0.2 2.6 0.2 3.5 0 2.9-0.5 5-1.4 6.4-0.9 1.4-2.1 2.1-3.7 2.1-0.6 0-1.1-0.2-1.4-0.5-0.3-0.3-0.5-0.8-0.5-1.3s0.4-1.1 1.2-1.8c1.4-1.3 2.5-2.5 3.2-3.8 0.7-1.2 1.2-2.8 1.6-4.7h0.8zM398 612c-3 6.7-6.4 12.1-10.1 16.3l-0.9-0.7c4.7-7.4 8.1-15.4 10.2-23.9h-3.9c-1.7 0-3 0.2-4.1 0.6l-2.1-2.5c1.5 0.2 3.2 0.3 4.9 0.3h6v-9.3c-2.3 0.4-5.6 0.8-9.7 1.2l-0.1-1.1c6.8-1.5 12.6-3.5 17.6-6l2.5 3.2c0.2 0.4 0.4 0.7 0.4 0.9 0 0.2-0.2 0.3-0.6 0.3l-1.1-0.1c-1 0-2.7 0.3-5.2 0.8v10.1h1.8l2.7-3.5 3 3.7c0.4 0.4 0.5 0.8 0.5 1s-0.3 0.4-1 0.4h-7.2v5.5c2.5 1.1 4.2 2.1 5 2.9 0.9 0.8 1.3 1.7 1.3 2.5 0 0.9-0.2 1.6-0.7 2.3-0.5 0.7-0.9 1-1.3 1s-0.8-0.2-1.1-0.6c-0.3-0.4-0.5-0.8-0.6-1.2-0.1-1.4-0.3-2.5-0.6-3.3-0.3-0.7-0.9-1.6-1.9-2.5v18c0 3.6 0.1 6.7 0.2 9.3 0 0.6-0.5 1.1-1.5 1.6s-1.7 0.7-2.1 0.7c-0.4 0-0.6-0.4-0.6-1.3l0.2-3.5c0-1.5 0.1-3.8 0.1-7V612z m-24.1-11.6v-5.8c0-1.1-0.1-2.9-0.3-5.5l4.6 2c0.6 0.3 0.9 0.5 0.9 0.8 0 0.2-0.3 0.6-0.8 1l-0.6 0.5v3.7c0 1.5 0 2.7 0.1 3.4 0.1 0.8 0.1 1.2 0.1 1.3 0 0.7-0.5 1.2-1.5 1.6-1 0.4-1.7 0.6-2 0.6-0.3 0-0.4-0.4-0.4-1.3v-0.7h-16.7l-1.2 1.6c-0.2 0.3-0.4 0.5-0.6 0.5-0.2 0-0.5-0.2-0.8-0.5l-2.5-2.4c0.6-0.3 1-0.6 1.2-0.9 0.2-0.3 0.3-0.8 0.3-1.5v-4.6c0-1.7-0.1-3.5-0.2-5.4l4.2 2.3c0.6 0.4 0.9 0.7 0.9 0.9 0 0.2-0.2 0.5-0.7 0.8l-0.6 0.5v7.2h6.6v-9.2c0-1.4-0.1-3.2-0.2-5.2l4.7 2c0.6 0.3 0.9 0.5 0.9 0.8 0 0.3-0.2 0.5-0.6 0.9l-1.1 1v9.7h6.3zM356 616.9v19.5c0 0.7-0.1 1.3-0.3 1.6-0.2 0.3-0.7 0.7-1.6 1.1-0.9 0.4-1.5 0.6-1.8 0.6-0.3 0-0.5-0.2-0.5-0.6 0-0.4 0.1-1.1 0.3-2.2 0.2-1.1 0.3-3.3 0.3-6.6v-11.6c0-2.6-0.1-4.9-0.2-6.8l5 3.2h4.2c0.7-2.3 1.2-4.5 1.3-6.8H356c-1.6 0-2.9 0.2-3.9 0.6l-2.1-2.5c1.5 0.2 3.1 0.3 4.9 0.3h22l3.2-3.8 3.4 4.2c0.3 0.3 0.5 0.6 0.5 0.8s-0.3 0.4-0.8 0.4h-16.3c-0.9 2.7-2 5-3.3 6.8h12.2l1.8-2.6 3.1 2.7c0.5 0.4 0.7 0.6 0.7 0.9 0 0.2-0.3 0.5-0.8 0.8l-0.5 0.2v16.6c0 1.3-0.1 2.3-0.4 2.9-0.3 0.6-1 1.3-2.1 2.1s-1.9 1.2-2.2 1.2-0.5-0.4-0.6-1.2c-0.1-1.7-1.5-2.9-4.3-3.5l0.1-0.7c1.1 0.1 2.2 0.1 3.2 0.1s1.7-0.1 2-0.4 0.5-0.9 0.5-1.7v-15.7h-4.9v8.1c0 1.4 0 2.7 0.1 3.9l0.1 3.1c0 0.5-0.1 0.9-0.2 1.2-0.1 0.3-0.6 0.7-1.3 1.1-0.8 0.4-1.3 0.6-1.7 0.6-0.5 0-0.7-0.3-0.7-0.8s0-1 0.1-1.3c0.3-2.6 0.4-5.6 0.4-9v-6.8h-4.5v9c0 2 0 3.7 0.1 5l0.1 3.2c0 0.5-0.1 0.9-0.2 1.2-0.1 0.3-0.6 0.6-1.4 1-0.8 0.4-1.4 0.6-1.8 0.6-0.4 0-0.6-0.2-0.6-0.7 0-0.5 0-0.9 0.1-1.4 0.3-2.6 0.4-6 0.4-10.2V617H356z m-17.3-22h-3.2c-1.7 0-3 0.2-4 0.6l-2.1-2.6c1.5 0.2 3.2 0.3 4.9 0.3h11.3l2.9-3.3 3.1 3.7c0.3 0.3 0.4 0.6 0.4 0.8 0 0.3-0.3 0.4-0.8 0.4h-8.6v13.5h1.7l2.6-3 2.9 3.4c0.3 0.3 0.5 0.6 0.5 0.8 0 0.2-0.3 0.3-0.8 0.3h-6.8v14.7l7.7-1.9 0.2 0.7-11.4 4.8c-2.8 1.2-5 2.3-6.7 3.4-0.4 0.2-0.7 0.3-0.8 0.3-0.2 0-0.3-0.1-0.5-0.3l-2.3-3.7 9.7-2.4V610h-2.7c-1.7 0-3 0.2-4 0.6l-2.1-2.5c1.5 0.2 3.2 0.3 5 0.3h3.9v-13.5z" fill="#868789"></path></svg>