<svg viewBox="0 0 1024 1024" version="1.1" xmlns="http://www.w3.org/2000/svg"><path d="M245.22489 567.2h25.6v0.2c0 0.1 0.1 0.3 0.1 0.5v2.5c0 0.3-0.1 0.6-0.1 0.9-0.1 0.6-0.2 1.1-0.4 1.6s-0.5 1-0.9 1.4l-19 19.6H271.02489v3.5h-25.8v-0.6-0.8c0-0.5 0-1 0.1-1.5s0.2-1.1 0.5-1.6c0.1-0.3 0.3-0.6 0.5-0.9 0.2-0.3 0.4-0.6 0.7-0.9l19.6-20.4h-21.4v-3.5z m31.6 30v-30h4.5v30h-4.5z m28.6-30v22.1c0 2.1-0.4 3.6-1.3 4.5-0.9 1-2.1 1.8-3.7 2.5-1.1 0.5-2.3 0.8-3.5 1-1.3 0.2-2.5 0.2-3.9 0.2h-1.2c-0.4 0-0.8 0-1.3-0.1-0.4 0-0.8 0-1.3-0.1-0.4 0-0.8-0.1-1.2-0.1-0.4 0-0.8 0-1.2-0.1v-0.1-1.5-0.5-0.7c0-0.2-0.1-0.4-0.1-0.6H288.02489c0.5 0 1 0 1.6 0.1h3.3c2-0.1 3.9-0.4 5.6-1.1s2.6-1.9 2.6-3.7v-22h4.3z m5.7 30v-30h4.5v30h-4.5z m15.2-30.1l16.7 23.8v-23.7h4.4v30h-5l-16.7-23.7v23.7h-4.3l-0.1-30.1h5z m65.5 1c1.4 0.4 2.4 1.1 3 2.3 0.6 1.2 1 2.5 1.2 3.9 0.1 0.2 0.1 0.5 0.1 0.8v0.8c0 1.4-0.3 2.6-0.9 3.7-0.6 1.1-1.5 2-2.7 2.8-0.1 0.1-0.3 0.2-0.5 0.2-0.2 0.1-0.3 0.1-0.5 0.2-0.4 0.1-0.8 0.2-1.1 0.3-0.3 0.1-0.5 0.1-0.5 0.1 1.2 0.7 2.4 1.7 3.4 2.9s1.6 2.6 1.8 4.2c0.1 0.4 0.1 0.7 0.1 1.1 0 0.4 0.1 0.8 0.1 1.2v0.6c0.1 0.7 0.1 1.4 0.3 2 0.1 0.7 0.3 1.3 0.5 1.9h-4.8c-0.3-0.6-0.4-1.3-0.5-2-0.1-0.7-0.2-1.4-0.2-2.1v-0.5c-0.1-1.1-0.3-2.2-0.5-3.2s-0.8-2-1.6-2.8c-1.1-1.1-2.6-1.8-4.3-2.1-1.7-0.2-3.5-0.4-5.3-0.4H375.02489v12.9h-4.9v-30.1h9.9c2.1 0 4.2 0.1 6.2 0.2 2.2 0.4 4 0.7 5.6 1.1z m-4.9 2.5c-0.6 0-1.4-0.1-2.1-0.1H375.22489v10.1h9.6c1 0 1.9-0.1 2.7-0.2 0.9-0.1 1.6-0.5 2.1-1.1 0.5-0.5 0.8-1.1 1-1.7 0.2-0.6 0.3-1.2 0.3-1.8v-0.7c0-0.2-0.1-0.5-0.2-0.7-0.1-0.3-0.1-0.5-0.2-0.7-0.1-0.2-0.2-0.5-0.4-0.7-0.4-0.7-0.8-1.2-1.4-1.6-0.3-0.5-1-0.7-1.8-0.8z m19.3-3.4V588c0 1.6 0.6 2.8 1.8 3.8 1.2 1 2.6 1.6 4 2 0.5 0.1 0.9 0.2 1.4 0.3 0.4 0.1 0.9 0.1 1.3 0.1h0.6c0.4 0 0.7 0 1.1-0.1 0.4-0.1 0.8-0.1 1.2-0.2 1.2-0.3 2.4-1 3.4-2s1.6-2.5 1.6-4.3v-20.4h4.5l-0.1 20.4c0 1.4-0.3 2.8-0.8 4.1-0.6 1.3-1.5 2.4-2.7 3.3-1.2 0.9-2.5 1.5-4 1.9-1.5 0.4-2.9 0.6-4.5 0.6h-0.6c-1.5-0.1-3.1-0.3-4.6-0.7-1.5-0.4-2.8-1-4.1-1.7-1.3-0.8-2.3-1.8-3-3.1-0.7-1.3-1.1-2.6-1.1-4.1l-0.1-20.5 4.7-0.2z m48.2 0.9c1.4 0.4 2.4 1.1 3 2.3 0.6 1.2 1 2.5 1.2 3.9 0.1 0.2 0.1 0.5 0.1 0.8v0.8c0 1.4-0.3 2.6-0.9 3.7-0.6 1.1-1.5 2-2.7 2.8-0.1 0.1-0.3 0.2-0.5 0.2-0.2 0.1-0.3 0.1-0.5 0.2-0.4 0.1-0.8 0.2-1.1 0.3-0.3 0.1-0.5 0.1-0.5 0.1 1.2 0.7 2.4 1.7 3.4 2.9s1.6 2.6 1.8 4.2c0.1 0.4 0.1 0.7 0.1 1.1 0 0.4 0.1 0.8 0.1 1.2v0.6c0.1 0.7 0.1 1.4 0.3 2 0.1 0.7 0.3 1.3 0.5 1.9h-4.8c-0.3-0.6-0.4-1.3-0.5-2-0.1-0.7-0.2-1.4-0.2-2.1v-0.5c-0.1-1.1-0.3-2.2-0.5-3.2s-0.8-2-1.6-2.8c-1.1-1.1-2.6-1.8-4.3-2.1-1.7-0.2-3.5-0.4-5.3-0.4H437.62489v12.9h-4.9v-30.1h9.9c2.1 0 4.2 0.1 6.2 0.2 2.2 0.4 4.1 0.7 5.6 1.1z m-4.9 2.5c-0.6 0-1.4-0.1-2.1-0.1H437.82489v10.1h9.6c1 0 1.9-0.1 2.8-0.2 0.9-0.1 1.5-0.5 2.1-1.1 0.5-0.5 0.8-1.1 1-1.7 0.2-0.6 0.3-1.2 0.3-1.8v-0.7c0-0.2-0.1-0.5-0.2-0.7-0.1-0.3-0.1-0.5-0.2-0.7-0.1-0.2-0.2-0.5-0.4-0.7-0.4-0.7-0.8-1.2-1.4-1.6-0.4-0.5-1.1-0.7-1.9-0.8z m27.3-3.4h6.1l3.3 7.5c1.1 2.5 2.1 5 3.2 7.6 0.1 0.1 0.1 0.2 0.1 0.4 0 0.1 0.1 0.2 0.1 0.4l3 7.2c1 2.4 2.1 4.8 3.1 7.1H491.02489s-0.2-0.5-0.7-1.4c-0.4-0.9-0.9-2-1.5-3.1-0.1-0.1-0.2-0.3-0.3-0.5-0.1-0.2-0.2-0.3-0.3-0.5-0.3-0.5-0.5-0.9-0.7-1.3-0.2-0.4-0.5-0.8-0.7-1.1H472.02489l-3.1 7.9h-4.7l12.6-30.2z m3 3.9c-0.3 0.7-0.6 1.5-0.9 2.2-0.3 0.7-0.6 1.5-0.9 2.2l-2.1 5.1c-0.7 1.7-1.3 3.4-1.8 5.1H480.82489c0.8 0 1.6 0 2.4-0.1 0.8 0 1.6-0.1 2.4-0.1l-0.6-1.5-0.6-1.5c-0.7-1.9-1.5-3.9-2.3-5.8-0.7-1.8-1.5-3.7-2.3-5.6z m21.4-3.8c0.3-0.1 0.5-0.1 0.8-0.1h2.8c0.2 0 0.4 0 0.6 0.1s0.2 0 0.2 0l-0.1 20.6c0 1.2 0.4 2.3 1.3 3.2 0.8 0.9 1.8 1.5 2.8 1.9 0.8 0.2 1.5 0.4 2.3 0.5 0.7 0.1 1.5 0.2 2.2 0.2 0.7 0.1 1.3 0.1 2 0.1h4.7v3.6c-0.8 0-1.7 0-2.5 0.1H516.02489c-4.9 0-8.6-0.6-11.1-1.8-2.5-1.2-3.7-3.7-3.7-7.8V567.3z m46.1 2.6c1.2-1 2.6-1.7 4.3-2.1 1.6-0.4 3.3-0.6 5-0.7h5.5c0.6 0 1.1 0 1.6 0.1h3.2c0.1 0.2 0.1 0.3 0.1 0.5s0.1 0.4 0 0.6v2.2h-3.1c-0.5 0-1-0.1-1.5-0.1h-1.1c-0.4 0-0.7 0-1.1-0.1h-1.6c-2 0-3.9 0.3-5.6 0.9-1.7 0.6-3 1.9-3.8 4-0.4 1-0.7 2.2-0.9 3.4-0.2 1.2-0.3 2.5-0.3 3.7 0 1.7 0.3 3.4 0.8 5s1.3 3.1 2.4 4.3c1.1 1 2.5 1.6 4 1.9 1.5 0.3 3.1 0.4 4.7 0.4h1.3c0.4 0 0.9 0 1.3-0.1h3.8c0.4 0 0.8 0 1.2 0.1l-0.1 3.4h-4.1c-0.6 0-1.2 0-1.8 0.1h-4c-2.5-0.1-5-0.6-7.3-1.5s-4.1-2.6-5.2-5.1c-0.6-1.4-1-2.9-1.3-4.4s-0.5-3.1-0.4-4.6c0-2.2 0.3-4.3 1-6.3 0.5-2.2 1.6-4 3-5.6z m54.5 12.5c0 4.3-1.4 7.9-4.2 10.6s-6.1 4.1-9.8 4.1c-4.6 0-8.2-1.4-10.9-4.3-2.7-2.8-4.2-6.4-4.4-10.7v-0.6c0-3.8 1.5-7.1 4.4-10.1 3-3 6.4-4.5 10.2-4.4 4.2 0 7.6 1.5 10.4 4.5 2.8 3 4.2 6.6 4.3 10.9z m-14.5-12.1c-3 0-5.5 1.2-7.4 3.5-1.9 2.3-2.8 4.9-3 7.7V582.3c0.1 3.4 1.1 6.2 3.1 8.4s4.5 3.3 7.5 3.3h0.4c2.5 0 4.7-1.2 6.7-3.5 1.9-2.3 2.9-5 2.9-8v-0.4-0.4c-0.2-2.8-1.2-5.4-3.1-7.8-2-2.4-4.3-3.6-7.1-3.6z m47.1-3.1h6.9v30l-4.5-0.1v-24.9l-9.9 25-4.5 0.1-10.3-25.3v25.3h-4.6v-30h7.7c1.5 4.1 3.1 8.2 4.7 12.2 1.6 4.1 3.2 8.1 4.9 12.1l9.6-24.4z m40.1 0h6.9v30l-4.5-0.1v-24.9l-9.9 25-4.5 0.1-10.3-25.3v25.3h-4.6v-30h7.7c1.5 4.1 3.1 8.2 4.7 12.2 1.6 4.1 3.2 8.1 4.9 12.1l9.6-24.4z m17 2.9c1.3-1.3 3-2.2 5-2.5 2-0.3 4-0.5 6.1-0.5h8c0 0.2 0.1 0.5 0.1 0.7 0 0.3 0.1 0.5 0.1 0.8v0.4c0 0.3 0 0.5-0.1 0.8-0.1 0.2-0.2 0.5-0.3 0.7H703.72489c-0.4 0-0.7 0-1.1 0.1-1.9 0.1-3.8 0.5-5.5 1.1-1.7 0.6-3 1.8-3.9 3.5-0.3 0.6-0.5 1.3-0.6 2-0.1 0.7-0.2 1.5-0.1 2.2v0.8h18.2v3.5h-18.3V585.8c0 0.2 0 0.3 0.1 0.5 0 0.2 0.1 0.4 0.2 0.7 0.3 1.4 0.8 2.6 1.4 3.6 0.6 1 1.5 1.8 2.7 2.3 1.1 0.5 2.3 0.8 3.6 0.9 1.3 0.2 2.6 0.2 3.9 0.2h1.5c0.5 0 1 0 1.5-0.1H710.92489v3.5h-3.6c-3.4 0.1-6.6-0.1-9.8-0.5-3.1-0.4-5.6-1.9-7.4-4.6-0.9-1.4-1.6-3-2-4.6-0.4-1.6-0.6-3.5-0.7-5.6v-0.8c0-2.2 0.3-4.2 0.8-6.1 0.6-1.8 1.7-3.6 3.3-5.1z m46.5-2c1.4 0.4 2.4 1.1 3 2.3 0.6 1.2 1 2.5 1.2 3.9 0.1 0.2 0.1 0.5 0.1 0.8v0.8c0 1.4-0.3 2.6-0.9 3.7-0.6 1.1-1.5 2-2.7 2.8-0.1 0.1-0.3 0.2-0.5 0.2-0.2 0.1-0.3 0.1-0.5 0.2-0.4 0.1-0.8 0.2-1.1 0.3-0.3 0.1-0.5 0.1-0.5 0.1 1.2 0.7 2.4 1.7 3.4 2.9s1.6 2.6 1.8 4.2c0.1 0.4 0.1 0.7 0.1 1.1 0 0.4 0.1 0.8 0.1 1.2v0.6c0.1 0.7 0.1 1.4 0.3 2 0.1 0.7 0.3 1.3 0.5 1.9h-4.8c-0.3-0.6-0.4-1.3-0.5-2-0.1-0.7-0.1-1.4-0.2-2.1v-0.5c-0.1-1.1-0.3-2.2-0.5-3.2s-0.8-2-1.6-2.8c-1.1-1.1-2.6-1.8-4.3-2.1-1.7-0.2-3.5-0.4-5.3-0.4H721.22489v12.9h-4.9v-30.1h9.9c2.1 0 4.2 0.1 6.2 0.2 2.2 0.4 4 0.7 5.6 1.1z m-5 2.5c-0.6 0-1.4-0.1-2.1-0.1H721.32489v10.1h9.6c1 0 1.9-0.1 2.8-0.2 0.9-0.1 1.5-0.5 2.1-1.1 0.5-0.5 0.8-1.1 1-1.7 0.2-0.6 0.3-1.2 0.3-1.8v-0.7c0-0.2-0.1-0.5-0.2-0.7-0.1-0.3-0.1-0.5-0.2-0.7-0.1-0.2-0.2-0.5-0.4-0.7-0.4-0.7-0.8-1.2-1.4-1.6-0.4-0.5-1.1-0.7-1.9-0.8z m19.2-0.7c1.2-1 2.6-1.7 4.3-2.1 1.6-0.4 3.3-0.6 5-0.7h5.5c0.6 0 1.1 0 1.6 0.1h3.2c0.1 0.2 0.1 0.3 0.1 0.5v2.8h-3.1c-0.5 0-1-0.1-1.5-0.1h-1.1c-0.4 0-0.7 0-1.1-0.1h-1.6c-2 0-3.9 0.3-5.6 0.9s-3 1.9-3.8 4c-0.4 1-0.7 2.2-0.9 3.4s-0.3 2.5-0.3 3.8c0 1.7 0.3 3.4 0.8 5.1 0.5 1.6 1.3 3.1 2.3 4.3 1.1 1 2.5 1.6 4 1.9s3.1 0.4 4.7 0.4h1.3c0.4 0 0.9 0 1.3-0.1h3.8c0.4 0 0.8 0 1.2 0.1l-0.1 3.4h-4c-0.6 0-1.2 0-1.8 0.1h-3.9c-2.5-0.1-5-0.6-7.3-1.5s-4.1-2.6-5.2-5.1c-0.6-1.4-1-2.9-1.3-4.4-0.3-1.6-0.5-3.1-0.4-4.7 0-2.2 0.3-4.3 1-6.3 0.4-2.3 1.5-4.1 2.9-5.7z m25.6 27.5v-30.2h4.5v30.2h-4.5z m22.8-30.3h6.1l3.3 7.5c1.1 2.5 2.1 5.1 3.2 7.6 0.1 0.1 0.1 0.2 0.1 0.4 0 0.1 0.1 0.3 0.1 0.4l3 7.2c1 2.4 2.1 4.8 3.1 7.2h-4.7s-0.2-0.5-0.7-1.4c-0.4-0.9-0.9-2-1.5-3.1-0.1-0.1-0.2-0.3-0.3-0.5-0.1-0.2-0.2-0.3-0.3-0.5-0.3-0.5-0.5-0.9-0.7-1.4-0.2-0.4-0.5-0.8-0.7-1.1h-14.8l-3.1 8H788.02489l12.6-30.3z m3 4c-0.3 0.7-0.6 1.5-0.9 2.2-0.3 0.7-0.6 1.5-0.9 2.2l-2.1 5.1c-0.7 1.7-1.3 3.4-1.8 5.1h6.8c0.8 0 1.6 0 2.4-0.1 0.8 0 1.6-0.1 2.4-0.1l-0.6-1.5-0.6-1.5c-0.7-1.9-1.5-3.9-2.3-5.8-0.8-1.8-1.6-3.7-2.4-5.6z m21.4-3.8c0.3-0.1 0.5-0.1 0.8-0.1h2.8c0.2 0 0.4 0 0.6 0.1h0.2l-0.1 20.8c0 1.2 0.4 2.3 1.3 3.2 0.8 0.9 1.8 1.6 2.8 1.9 0.8 0.2 1.5 0.4 2.3 0.5 0.7 0.1 1.5 0.2 2.2 0.2 0.7 0.1 1.3 0.1 2 0.1h4.7v3.6c-0.8 0-1.7 0-2.5 0.1h-2.3c-4.9 0-8.6-0.6-11.1-1.8-2.5-1.2-3.7-3.8-3.7-7.8V567.3z m42.1-0.3h5.8c2.1 0 4.3 0 6.4 0.1 2.2 0.1 4.3 0.1 6.5 0.3 1.3 0.1 2.3 0.4 3.3 1.1 0.9 0.7 1.6 1.5 2.1 2.6 0.3 0.7 0.5 1.4 0.7 2 0.2 0.7 0.2 1.3 0.2 2 0 0.8-0.1 1.5-0.4 2.3-0.2 0.7-0.6 1.4-1.1 2.1-0.3 0.4-0.6 0.8-1 1.1-0.3 0.3-0.7 0.6-1.1 0.8-0.1 0-0.2 0.1-0.3 0.1-0.1 0.1-0.2 0.1-0.2 0.2-0.1 0.1-0.2 0.1-0.3 0.2-0.1 0.1-0.2 0.1-0.3 0.2 0.9 0.3 1.7 0.8 2.5 1.4 0.8 0.6 1.4 1.4 1.9 2.4l0.3 0.6 0.3 0.6 0.3 1.2c0.1 0.4 0.1 0.8 0.1 1.2 0 0.8-0.1 1.6-0.4 2.4-0.3 0.8-0.7 1.6-1.3 2.3-1 1.4-2.3 2.2-3.9 2.6-1.6 0.4-3.1 0.6-4.8 0.7h-15.3V567z m4.7 16.9v10H880.72489c1.1 0 2.1-0.1 3-0.2 1-0.1 1.9-0.5 2.7-1.1 0.4-0.6 0.8-1.2 1-1.8 0.2-0.6 0.3-1.3 0.3-2v-0.7c0-0.2 0-0.4-0.1-0.7v-0.2c0-0.1 0-0.1-0.1-0.2-0.2-0.8-0.5-1.5-1-2.1-0.5-0.7-1.2-1-2-1h-9.1c-1 0-1.9-0.1-2.6-0.1-0.7 0.1-1 0.1-1 0.1z m0.1-13.1v9.3H882.32489c1.1 0 2.1-0.2 2.9-0.5 0.9-0.4 1.5-1.2 1.8-2.4 0.1-0.3 0.2-0.6 0.2-0.9 0.1-0.4 0.1-0.7 0.1-1v-0.8c0-0.8-0.1-1.6-0.4-2.2-0.3-0.7-0.8-1.1-1.6-1.2-0.9-0.1-2.1-0.2-3.6-0.3h-9.8z m38.7-3.7h6.1l3.3 7.5c1.1 2.5 2.1 5.1 3.2 7.6 0.1 0.1 0.1 0.2 0.1 0.4 0 0.1 0.1 0.3 0.1 0.4l3 7.2c1 2.4 2.1 4.8 3.1 7.2h-4.7s-0.2-0.5-0.7-1.4c-0.4-0.9-0.9-2-1.5-3.1-0.1-0.1-0.2-0.3-0.3-0.5-0.1-0.2-0.2-0.3-0.3-0.5-0.3-0.5-0.5-0.9-0.7-1.4-0.2-0.4-0.5-0.8-0.7-1.1h-14.8l-3.1 8H898.02489l12.6-30.3z m3 4c-0.3 0.7-0.6 1.5-0.9 2.2-0.3 0.7-0.6 1.5-0.9 2.2l-2.1 5.1c-0.7 1.7-1.3 3.4-1.8 5.1H914.62489c0.8 0 1.6 0 2.4-0.1 0.8 0 1.6-0.1 2.4-0.1l-0.6-1.5-0.6-1.5c-0.7-1.9-1.5-3.9-2.3-5.8-0.6-1.8-1.4-3.7-2.3-5.6z m26.8-4l16.7 23.9v-23.9h4.4v30.2h-5l-16.7-23.9v23.9h-4.3l-0.1-30.3h5z m31.7 0v13.8l14.7-13.8h5.9l-14.8 14.4 15.9 15.9H987.02489l-15-14.9v14.8h-4.6v-30.2h4.7z"></path><path d="M958.22489 439.2h58.4c0.1 0 0.2-0.1 0.5-0.2 0.3-0.3 0.5-0.7 0.5-1.3 0-0.6-4.4-4.2-13.3-10.8-0.8-0.5-1.5-0.8-2-0.8-0.7 0-3.9 3.4-9.4 10.2h-34.7c-1 0-1.6 0.5-1.6 1.4 0.1 1 0.6 1.5 1.6 1.5zM385.72489 524.6c1.8 2 4.1 2.9 7 2.8 2.5 0 5-0.9 7.4-2.8 1.8-1.5 2.8-3.7 3.3-6.5 0.3-2.7-0.2-5.2-1.6-7.4-1.6-2.9-4.6-5.5-9.3-7.8-4.7-2.4-9.6-3.9-14.7-4.5-0.8-0.1-1.3 0.1-1.5 0.5-0.1 0.4 0 0.8 0.4 1.1 3.6 3.5 5.8 9.3 6.4 17.3 0.2 3.2 1.1 5.5 2.6 7.3zM335.92489 520.1c-3.6-3.3-11.8-6-24.6-8.1-3.2-0.7-6.2-1-8.9-1.1-0.6-0.1-0.9 0.1-1.1 0.5-0.2 0.5 0 0.9 0.7 1.2 8.5 3 16.3 9.5 23.4 19.4 2.7 2 5.3 2.9 7.6 2.7 2.2-0.3 4-1.3 5.4-3.1 1.3-1.6 1.7-3.6 1.3-6-0.2-2.1-1.5-4-3.8-5.5zM481.12489 455.6c-23.8-3.7-40.5-9.4-50.1-17.3 3.9-0.9 4.7-2.2 2.6-4.1-0.5-0.3-1-0.5-1.6-0.6l-22.6-6c-0.2 0-0.6 0.1-0.9 0.4-0.3 0.3-0.6 0.7-0.8 1.3-3.2 7.8-8.7 15.7-16.4 23.6-8.5 8.9-17.1 15.3-25.8 19.1-0.8 0.3-1.1 0.7-0.8 1.2 0 0.4 0.5 0.6 1.6 0.4 12.1-1.6 24.2-5.9 36.2-12.9 9.9-5.5 18.4-12.4 25.4-20.6 7.7 17.4 20.8 28.3 39.2 32.8 1.3 0.4 2.2 0.5 2.9 0.1 0.5-0.3 1-1.5 1.7-3.6 2.6-6.6 5.9-10.6 9.7-11.9 0.7-0.3 1.1-0.7 1.1-1.1 0.1-0.4-0.4-0.7-1.4-0.8z" fill="#1B1918"></path><path d="M342.12489 440.6l-16-9.4c-1.2-0.7-2.5-0.4-3.8 0.9-2.7 3.1-6.9 6.5-12.8 10.1-0.6 0.3-1.1 0.6-1.7 1v-7.9c0.1-1 0.5-1.6 1.3-2.1 2.2-0.4 2.7-1.6 1.6-3.6-0.6-0.5-1.7-0.8-3.4-1l-16.3-0.9c-0.8-0.1-1.4 0.1-1.7 0.4-0.3 0.3-0.5 0.8-0.6 1.6v13.9c-3.9-4.6-6.2-6.9-6.9-7-0.3 0-0.7 0.3-1.2 0.9-1.3 2.3-2.6 4.5-4 6.8v-7.6c-0.1-1 0.7-1.9 2.4-2.7 1.5-0.7 2.2-1.6 2.2-2.5 0.1-0.7-0.3-1.4-1.1-1.9-0.5-0.6-2.1-0.9-4.6-0.9l-14.7-0.6c-1.2-0.1-2 0.1-2.3 0.5-0.2 0.3-0.3 0.8-0.2 1.5v6.9c-0.6-0.9-2.2-1.3-5-1.4l-13.8-0.5c-1-0.1-1.8 0.1-2.2 0.5-0.2 0.3-0.3 0.8-0.2 1.4v27.8c-6.7 0.2-10.1 0.4-10.1 0.6-0.1 0.2 2.1 5.2 6.6 15 1.5 3.1 2.5 4.7 3 4.9 0.6 0.1 1.1 0 1.6-0.3s0.8-0.9 1-1.9c0-0.3 4.4-2 13.3-5 8-2.9 12.9-4.6 14.7-5.1-4.3 3.7-8.7 6.9-12.9 9.6-0.2-0.1-0.4-0.1-0.6-0.1-1.5 0-2.2 0.5-1.9 1.5-0.1 0.1-0.1 0.2 0 0.3 1 2.2 2.3 5.4 4.1 9.6 0.5 1.5 1 2.4 1.6 2.6 0.5 0.1 0.9 0 1.3-0.1 0.3-0.3 0.7-0.9 1.2-1.9 0.3-0.9 1-1.4 2.2-1.5 4.4-1.1 8.9-2.2 13.5-3.3-9.2 4.6-15.7 7.4-19.7 8.4-2.2-0.1-4-0.1-5.5-0.1-2-0.1-2.8 0.6-2.3 2 0.8 2.6 2.3 6.6 4.6 12 0.6 1.8 1.3 2.8 2.1 3.1 0.6 0.2 1.1 0.2 1.6 0 0.5-0.3 1-1.1 1.6-2.3 0.2-1.1 2.5-1.9 6.6-2.5-6.5 7-17.1 13.5-31.7 19.4-0.6 0.2-0.8 0.5-0.8 0.9 0.1 0.3 0.5 0.4 1.2 0.3C247.72489 529 262.02489 525 276.02489 519c0.5-0.9 1.8-1.2 3.9-1.1 1.5 0.1 2.5-0.2 2.9-1 0.3-0.9-0.2-1.6-1.7-2.3l-11.6-5.4c4.4-0.9 8.9-1.9 13.4-2.8V521c0 0.7-0.2 1.2-0.7 1.3-1.1 0.7-5.6 0.8-13.6 0.3-0.6-0.1-1 0.2-1.2 0.8-0.1 0.5 0.2 0.9 0.8 1.2 4.3 0.3 7.4 3.1 9.1 8.5 0.3 1.4 1.2 1.9 2.8 1.6 9.2-0.3 15.3-1.6 18.4-4 1.1-1.2 1.6-3.1 1.6-5.8v-19.3c-0.1-1 0.2-1.6 0.8-2.1 0.6-0.5 1-1 1.3-1.4 3-0.7 6-1.5 8.9-2.2 1.1 1.7 2.2 3.9 3.4 6.5 0.8 2.3 2.1 3.9 3.7 5 1.9 1.2 4 1.5 6.3 0.9 2-0.5 3.7-1.8 5.2-3.7 1-1.5 1.3-3.4 1-5.7-0.3-2.3-1.4-4.1-3.1-5.5-3.6-4.8-10.2-7.8-19.8-8.9 0.8-0.4 1.8-0.6 3-0.4 2 0.2 3.2-0.1 3.6-1.1 0.3-1-0.3-1.9-1.9-3l-15.7-8c-1.1-0.5-2.2-0.2-3.4 1-1.8 2-4.2 4-7.3 6h-13.8c-2.5-0.1-4.8-0.1-6.9-0.1 7.8-2 13-3.5 15.7-4.6 1-0.7 2-1 3.1-0.9 1.5 0.1 2.4-0.3 2.7-1.1 0.3-0.9-0.2-1.6-1.7-2.2l-9.8-4.3c4.2-1.7 8.6-3.5 13.3-5.4v0.1c0 3.1 0.5 5.2 1.3 6.5 0.7 1.2 2 2.1 3.7 2.7 2.2 0.7 6 0.9 11.5 0.5H325.02489c5.4 0.3 9.8-0.5 13.2-2.5 2.6-1.7 4.3-3.9 4.9-6.3 0.6-3.6-0.3-6.4-2.5-8.4-1.2-1.1-1.3-3.8-0.2-8 0.1-0.7-0.1-1.2-0.6-1.4-0.6-0.2-1.1 0-1.5 0.8-3.1 6-5.7 9.5-7.6 10.5-2.2 1-5.6 1.5-10 1.5h-7c-2 0-3.5-0.2-4.5-0.5-0.8-0.3-1.2-1-1.3-2.2v-9.1c10.9 0 20.1-1.1 27.8-3.3 1.5-0.7 3-0.8 4.5-0.6 2 0.3 3.3-0.1 3.8-1.1 0.4-1-0.2-2-1.9-3z m-83.6 23.9c-1.4 0.1-2.6 0.1-3.7 0.2v-20.8c-0.1-0.9 0.6-1.7 2-2.5 0.7-0.5 1.3-1 1.7-1.4v24.5z m43.8 26.6c2.4 1.4 4.8 3.6 7.2 6.5-8.2 0.4-17.6 0.7-28 0.8-1.5 0-2.9 0-4.2 0.1 11.3-2.9 19.6-5.4 25-7.4z m-13.5-29c-3.5 0.2-7.6 0.5-12.4 1v-14H288.82489v13zM477.32489 528.2c-3.4-2.6-8-6.1-13.7-10.6-0.8-0.6-1.6-1-2.3-1-0.8 0-4.5 3.9-11.2 11.9h-10c9.5-6.8 16-11.6 19.6-14.6 1-1.2 2.3-1.8 3.8-2.1 2.3 0.1 3.5-0.3 3.7-1.1 0.2-1.1-0.3-2-1.7-2.7l-18.4-10.1c-0.6-0.3-1-0.4-1.4-0.2-0.3 0.2-0.6 0.7-1 1.4-1.7 12.4-4.5 22.2-8.3 29.4h-6v-32.7H473.02489c0.1 0 0.3-0.1 0.6-0.2 0.3-0.3 0.5-0.7 0.5-1.3 0-0.5-0.4-1.1-1.1-1.7-3.2-2.5-7.6-5.8-13.1-10-0.8-0.5-1.5-0.8-2.2-0.9-0.8 0-4.3 3.7-10.4 11.1h-17v-19.7h19.9c0.1 0 0.3-0.1 0.6-0.2 0.3-0.3 0.5-0.7 0.5-1.3 0-0.5-0.3-1.1-1.1-1.7-3.2-2.5-7.6-5.8-13.1-10-0.8-0.5-1.5-0.8-2.2-0.9-0.8 0-4.2 3.7-10.3 11.1h-37.7c-1 0-1.6 0.5-1.6 1.4 0 1.1 0.5 1.6 1.6 1.6h24v19.6h-38.4c-1 0-1.6 0.5-1.6 1.4 0 1.1 0.5 1.6 1.6 1.6h38.4v32.7h-43.2c-1 0-1.6 0.5-1.6 1.4 0 1.1 0.5 1.6 1.6 1.6h109.4c0.2 0 0.5-0.1 0.6-0.2 0.3-0.3 0.5-0.7 0.6-1.3 0.2-0.4-0.2-1-1-1.7zM819.72489 494.3c-0.3-0.5-1-0.5-2.1 0.1-6.2 3.1-12.5 5.9-19.1 8.5v-13.5h20c0.2 0 0.5-0.2 0.6-0.5 0.2-1.1-1.5-4.1-5.1-9.1-0.7-0.9-1.5-1.9-2.2-2.9-0.3-0.5-0.8-0.8-1.3-0.8-0.7 0-3.4 3.4-7.9 10.3h-4v-17.5h19c0.3 0 0.5-0.2 0.6-0.6 0.3-1.1-1.5-4.1-5.1-9.1-0.7-0.9-1.5-1.9-2.2-2.9-0.3-0.5-0.8-0.8-1.3-0.8-0.7 0-3.4 3.5-7.9 10.3h-23c7.1-9.4 11.5-15.5 13.1-18.3h25.9c0.1 0 0.2-0.1 0.4-0.2 0.2-0.3 0.4-0.7 0.4-1.3 0-0.4-3.1-4.1-9.4-11-0.6-0.5-1-0.8-1.5-0.9-0.6 0-1.1 0.4-1.5 1.1-2 3-4 6.1-5.9 9.2h-6.9c1.1-2.3 2-4.3 2.9-6.3 0.3-1.1 1.2-1.8 2.5-2.3 1.5-0.3 2.2-0.9 2.3-1.7 0.1-1.3-0.9-2.2-3-2.6l-18.5-3.9c-0.5-0.1-1 0-1.5 0.3s-0.8 5.2-1 14.8c-0.1 0.3-0.1 0.6-0.1 1.1-0.5 12.2-2.7 21.3-6.8 27.4-0.8 0.9-0.9 1.6-0.3 1.8 0.3 0.3 0.9 0.1 1.7-0.7 1.5-1.4 3.1-2.7 4.6-4.1 0.2 0.3 0.7 0.5 1.5 0.6h1.3v17.4h-7.7c-1.1 0-1.6 0.5-1.7 1.4 0 1.1 0.6 1.6 1.7 1.6h7.7v18.1c0 2.6-0.3 4.3-1 4.9-1.5 0.4-2 1.2-1.5 2.3 2.5 4.6 4.9 9.4 7.3 14.2 0.8 1.6 1.5 2.2 2.1 1.6 16-14.4 27.1-25.8 33.3-34.4 0.7-0.6 0.8-1.2 0.6-1.6z" fill="#1B1918"></path><path d="M886.42489 510.3c-6.9-1.5-13.8-4.7-20.9-9.6 5.4-1.2 10.9-2.5 16.4-4 1.1-0.5 2.3-0.6 3.8-0.5 1.5 0.2 2.5 0 2.9-0.8 0.3-0.7-0.4-1.6-2.2-2.7l-14.3-7.8c-0.6-0.3-1.1-0.4-1.6-0.4-0.3 0.1-0.6 0.4-1 0.9-2 3.7-4.8 7.5-8.3 11.4-3.6-4.1-6.9-10.6-9.8-19.3h10.4v1.8c0 1.4 0.7 2.4 2.1 2.9 1 0.3 3.5 0.4 7.6 0.2 4.9-0.2 7.8-0.7 8.6-1.5 0.7-0.5 1.1-1.5 1.1-2.9v-32.5c-0.1-1.3 0.4-2.2 1.6-2.7 3.9-2 4.2-3.9 1-5.8l-11.6-7c-0.8-0.5-1.4-0.8-1.8-0.8-0.5 0-1 0.2-1.6 0.8l-7.3 6.5h-21.2l-17.8-7.1c-0.3-0.1-0.7 0-1.2 0.1-0.3 0.3-0.5 0.6-0.5 0.9v83.5c0 2.8-1.2 4.3-3.5 4.6-1.8 0.5-2.1 1.5-0.9 2.8 2.5 2.7 4.9 5.4 7.3 8.1 1.3 1.4 2.4 1.9 3.4 1.5 8.3-3.8 18.7-9.8 31.2-18 3.7 7.9 9.8 14.2 18.4 18.8 1.5 0.5 2.5 0.7 3 0.6 0.5-0.1 0.8-1 1-2.7 0.3-4.4 1.4-8.1 3.1-11.3 1.3-2.7 2.7-4.3 4.1-4.9 0.8-0.4 1.2-0.9 1.1-1.5 0-0.6-0.9-1.1-2.6-1.6z m-46-70.3h21.4v16.5h-21.4V440z m0 19h21.4v15.7h-21.4V459z m0 53.6v-34.7h8.6c1.4 11.8 3.6 21.5 6.6 29 0.1 0.5 0.2 1.1 0.5 1.6l-15.7 4.1zM953.82489 459.6c1.2-0.3 1.9-1 2.1-2.1 0.1-1-1.3-1.8-4-2.5l-16.9-3.7c3.6-3.3 7.1-7.2 10.5-11.8 1-1.4 2.3-2.4 3.9-3 1.2-0.3 1.9-0.9 2.1-2 0.1-1-1.2-1.8-3.8-2.5l-16.2-4c-1-0.3-1.7-0.3-2-0.1-0.2 0.2-0.5 0.8-0.7 1.8-0.7 4.4-2.6 9.7-5.6 15.9-3.2 7.1-7.7 13.5-13.4 19.2-0.6 0.5-0.8 1-0.7 1.4 0.3 0.3 0.8 0.2 1.8-0.1 8.3-3.3 15.2-7 20.6-11.3 0.1-0.2 0.3-0.4 0.6-0.5-1 4.9-3 10.8-6.2 17.6-3.7 8.4-8.9 16-15.6 22.7-0.6 0.7-0.8 1.2-0.7 1.5 0.3 0.3 0.8 0.2 1.8-0.2 3.2-1.6 6.4-3.2 9.4-4.8v36.7c0 3.7 0.6 5.9 1.7 6.4 1.5 0.7 4.2 1 7.9 0.7 4.1-0.3 7-1 8.7-2.1 1.2-0.7 1.8-2.4 1.9-5v-52.9c3-3.6 6-7.6 9-12.2 0.8-1.5 2.1-2.6 3.8-3.1z" fill="#1B1918"></path><path d="M1010.02489 454.1c-0.8-0.5-1.5-0.8-2-0.9-0.7 0-3.9 3.4-9.4 10.3h-46.9c-1.1 0-1.6 0.5-1.6 1.4 0 1.1 0.5 1.6 1.6 1.6h34.1v43c0 1-0.4 1.7-1.1 2.3-1.2 0.9-7.2 1.3-17.9 1.1-1-0.1-1.6 0.2-1.8 0.8-0.1 0.5 0.4 1 1.4 1.4 10.2 4.2 15 9.9 14.5 16.9 0 1.2 0.6 1.8 1.9 2 9-0.2 15-1.4 18-3.6 2.9-2.2 4.3-5.3 4.3-9.4v-54.4h17.2c0.1 0 0.2-0.1 0.5-0.2 0.3-0.3 0.5-0.7 0.5-1.3 0.1-0.7-4.3-4.4-13.3-11zM612.52489 448.7l-12-8.4c-0.7-0.5-1.3-0.8-1.8-0.8s-1 0.2-1.5 0.7l-6.7 7.1h-28.1c1.3-2.9 2.6-6.1 4-9.5 0.5-1.1 1.5-1.8 3.2-2.2 1.9-0.3 2.9-1.1 3-2.5 0-1.2-1-1.9-3-2.3l-21.1-3.1c-0.6-0.1-1.1 0-1.4 0.2-0.3 0.3-0.6 0.8-0.8 1.5-1.8 6.4-3.7 12.4-5.8 17.8H522.02489c-1.1-2.3-2.4-4.1-4-5.5-0.6-0.5-1.1-0.7-1.5-0.4-0.5 0.3-0.6 0.8-0.3 1.4 1 4.1-1.6 7.9-7.8 11.3-2.9 0.4-5 2.3-6.4 5.7-1 2.6-0.9 5 0.5 7.2 1.3 2.3 3.4 3.8 6.3 4.7 2.7 0.7 5.3 0.5 7.7-0.6 3.4-1.6 5.9-4.3 7.3-8.1 1.2-3.9 1-8.2-0.6-12.7h16c-6.4 18.6-16.6 34.6-30.7 48-3 2.6-6.2 5.1-9.7 7.6-0.6 0.3-0.7 0.7-0.5 1.1 0.2 0.3 0.7 0.3 1.4 0.1 7.7-3.1 16.7-8.3 27.1-15.6V517.3c0 1.8-1 2.8-3.1 2.9-1.9 0.3-2.4 1.2-1.3 2.7 2.2 2.9 4.3 5.9 6.3 8.8 1.1 1.6 2.1 2.3 3 2 12.1-4 27.4-10.4 45.8-19.3 4.3 6.8 11.3 13 20.7 18.6 1.3 0.7 2.2 1 2.9 0.9 0.5-0.1 0.9-0.9 1.3-2.6 0.8-4.2 2.2-7.9 4.3-11.1 1.5-2.5 3.1-4 4.7-4.5 0.8-0.3 1.2-0.8 1.3-1.4-0.1-0.5-0.9-1.1-2.5-1.8-12.5-5-23.1-12.6-31.7-22.8 9.2-2.6 18.5-5.8 27.8-9.4 1.2-0.4 2.5-0.6 3.9-0.4 1.7 0.1 2.7-0.2 3.1-0.9 0.5-0.9-0.3-1.9-2.3-2.9l-15-8.1c-0.7-0.3-1.3-0.4-1.7-0.4-0.3 0.1-0.7 0.4-1 1-4.3 6-10 12-17 18.2-5.8-9-9.7-21.2-11.6-36.4h25.6c-2 5.9-3.7 9.8-5.1 11.6-0.6 0.7-0.5 1.2 0.1 1.4 0.3 0.2 0.9 0 1.8-0.7 3.7-2.7 6.7-4.3 8.9-4.8s6.1 0 11.8 1.4c2.5 0.3 4.3 0.2 5.3-0.3 1.8-1 2.7-2.5 2.9-4.7 0.2-2.1-1-3.9-3.5-5.6z m-43.8 44.2c1.8 6.4 4.1 12.2 7.1 17.4l-29.7 5.6v-41.3c5.7-6.6 10.8-14.9 15.4-24.6h1.5c0.5 17.3 2.4 31.6 5.7 42.9zM737.62489 435.3c-0.8-0.5-1.5-0.8-2.2-0.9-0.6 0-3.9 3.6-9.9 10.7h-27.7c3.1-2.9 4.3-6.4 3.4-10.6-0.8-2.2-2.5-3.9-5.1-5.2-5.3-2.5-11.6-3.1-18.9-1.9-1 0-1.4 0.3-1.3 0.8 0 0.4 0.3 0.8 0.8 1.2 3.4 2 5.3 5.7 5.9 11 0.3 1.8 1.3 3.4 2.8 4.7h-47.2c-1 0-1.6 0.5-1.6 1.4 0 1.1 0.5 1.6 1.6 1.6h25.5c2.4 2.2 4.1 5.9 5.2 11.3 0.3 2.2 1.2 3.9 2.5 5.2h-5.9l-19.4-7.2c-0.6-0.3-1-0.3-1.3-0.1-0.3 0.2-0.5 0.7-0.5 1.3V528c0 2.7 0.6 4.4 1.7 5.2 1 0.6 3.6 0.9 7.8 0.8 4.6-0.2 7.5-0.7 8.4-1.4 1-0.7 1.4-2.2 1.4-4.6v-33.2c2.7-1.4 5.2-2.7 7.6-3.9v31.4c0 2.6 0.5 4.2 1.6 4.9 0.9 0.7 3.4 0.9 7.5 0.8 4.4-0.2 7.1-0.7 7.9-1.4 0.8-0.5 1.2-1.9 1.3-4.2v-3.7h7v4.1c0.1 1.4 0.5 2.4 1.3 3.2 1 0.7 3.8 0.9 8.4 0.8 3.9-0.1 6.5-0.5 7.6-1.4 0.8-0.5 1.2-1.3 1.2-2.3V522c3.1 2 4.8 5.1 5.1 9.5 0.1 1.7 1 2.5 2.9 2.3 7.5-0.2 12.8-1.3 15.8-3.2 2.2-1.8 3.5-4.6 3.6-8.4v-49c0-1.2 0.7-2 2.2-2.4 1.9-0.5 2.9-1.5 2.9-3 0-0.9-0.7-1.8-2-2.7l-12.5-7.2c-1-0.7-1.9-1-2.5-1-0.5 0-0.9 0.3-1.4 0.9l-6.5 6.9h-10.2c4.9-3.5 9.3-6.7 13.1-9.6 0.6-0.3 1.8-0.6 3.6-0.9 1.3-0.2 2.2-0.7 2.7-1.5 0.3-0.7 0.1-1.5-0.7-2.3-0.8-0.5-5.3-1.3-13.4-2.3h32.6c0.1 0 0.3-0.1 0.6-0.2 0.3-0.3 0.5-0.7 0.5-1.3 0-0.4-4.6-4.2-13.8-11.3z m-29.1 13c-0.1 0.1-0.1 0.2 0 0.4-0.2 3.8-1.6 9.1-4.1 16.1h-20.8c0.2-0.3 0.5-0.5 0.8-0.8 1.3-1.4 2-3.3 2.1-5.7 0-2.2-0.7-4.2-2.2-6-1.3-1.6-3.4-2.9-6.3-4h30.5zM664.02489 488.7v-21.5h12.4c-0.1 0.1-0.1 0.2-0.1 0.4-3.7 8.1-7.8 15.1-12.3 21.1z m33 27.2h-6.6v-19h6.6v19z m26.3-48.7v10.1c-1.8-1.6-4.6-3.1-8.4-4.6-5.7-2-11.5-3-17.6-2.7-1 0-1.5 0.3-1.7 0.8-0.1 0.5 0.2 0.9 0.8 1.2 2.5 0.9 5.1 3.1 7.8 6.5 2.5 3.1 4.4 6.3 5.8 9.6 1.1 2.3 2.7 3.7 4.9 4.3 2.7 0.7 5.4 0 8.4-2.1V515c0 0.5-0.3 1-1 1.5-0.2 0.1-2.6 0.4-7 1v-14.6c0-1.5 0.6-2.6 1.7-3.2 1.7-0.6 2.5-1.6 2.5-2.7 0-0.7-0.8-1.5-2.4-2.4l-11.6-6.1c-0.8-0.5-1.5-0.8-2.2-0.8-0.6 0-1.1 0.3-1.6 0.8l-5.7 5h-7.3l-14.1-5.1c0.3-0.3 0.8-0.6 1.5-1 3.5-2.2 7-4.8 10.7-8 0.8-0.7 2.1-1 3.9-0.7 1.8 0.3 2.9 0 3.3-0.9 0.3-1 0.3-1.7-0.1-2.3-0.5-0.5-1.6-1.3-3.3-2.4l-9.8-5.9h42.5z" fill="#1B1918"></path><path d="M9.52489 477.5C-12.07511 448.2 93.22489 406 93.22489 406v45.2c-4.6 33.6-39 51.2-39 51.2-22 12.4-44.7-24.9-44.7-24.9z m125.9 43.1c3.1-1.7 6.2-2.5 9.3-2.5 18.6 0 35.4 27.5 35.4 27.5 21.6 29.2-83.7 71.5-83.7 71.5v-45.2c4.6-33.6 39-51.3 39-51.3z" fill="#F1C502"></path><path d="M98.12489 454.6V406c32.2 8 71.9 45.3 71.9 45.3C198.02489 480 186.32489 552 186.32489 552c-9.8-22-44.3-45.3-44.3-45.3-46.6-21.3-43.9-52.1-43.9-52.1zM18.72489 571c-28-28.7-16.3-100.7-16.3-100.7 9.8 22 44.3 45.3 44.3 45.3 46.7 21.2 43.9 52 43.9 52v48.6C58.52489 608.3 18.72489 571 18.72489 571z" fill="#AE3C8D"></path></svg>