<svg viewBox="0 0 1024 1024" version="1.1" xmlns="http://www.w3.org/2000/svg"><path d="M224 0h576c123.6 0 224 100.4 224 224v576c0 123.6-100.4 224-224 224H224c-123.6 0-224-100.4-224-224V224C0 100.4 100.4 0 224 0z" fill="#FFFFFF"></path><path d="M222 393.6C147.2 293.2 512 148 512 148v155.2c-16 115.6-135.2 176-135.2 176-76 42.4-154.8-85.6-154.8-85.6z m433.2 150.8c10.8-6 21.6-8.4 32.4-8.4 64.8 0 122.4 94.4 122.4 94.4C884.8 730.8 520 876 520 876v-155.2c16-115.6 135.2-176.4 135.2-176.4z" fill="#F1C502"></path><path d="M528 316V148c110.8 27.6 247.6 156.4 247.6 156.4 96.4 99.2 56 347.6 56 347.6-33.6-76-152.4-156.4-152.4-156.4C518.8 422.4 528 316 528 316z m-275.6 399.6C156 616.4 196.4 368 196.4 368c33.6 76 152.4 156.4 152.4 156.4C509.2 597.6 500 704 500 704v168c-110.8-27.6-247.6-156.4-247.6-156.4z" fill="#AE3C8D"></path></svg>