<svg viewBox="0 0 1024 1024" version="1.1" xmlns="http://www.w3.org/2000/svg"><path d="M224 0h576c123.6 0 224 100.4 224 224v576c0 123.6-100.4 224-224 224H224c-123.6 0-224-100.4-224-224V224C0 100.4 100.4 0 224 0z" fill="#FFFFFF"></path><path d="M166 620l122.8-208.8 3.2 208.8H166zM56 408h79.6L56 547.2V408z" fill="#003E85"></path><path d="M178.8 408h56.8l-122.8 212H56l122.8-212z m81.6 0h28.4v3.2L166 620h-28.4l122.8-212z m62.8 117.2v66.4H380c34.4 0 40.8-25.2 37.6-34.8 0-6.4-9.6-31.6-40.8-31.6H323.2zM288.8 620v-212h97.6c34.4 0 66 22 66 56.8-3.2 22-22 38-37.6 47.6 22 3.2 44 22 44 47.6-3.2 38-25.2 60-69.2 60H288.8z m34.4-183.6v63.2h53.6c31.6 0 37.6-22 34.4-34.8 0-16-12.4-28.4-34.4-28.4H323.2z m182.4 104.4h72.4l-34.4-101.2h-3.2l-34.8 101.2z m85.2 28.4h-94.4l-18.8 50.8h-31.6l78.8-212H572l75.6 212h-40.8l-16-50.8z m204.4-6V408h28.4v212h-34.4l-106.8-164.4V620h-28.4v-212h44l97.2 155.2z m132-155.2H968l-100.8 107.6L968 620h-37.6l-106.8-104.4 103.6-107.6z" fill="#E3671D"></path></svg>