<svg viewBox="0 0 1024 1024" version="1.1" xmlns="http://www.w3.org/2000/svg"><path d="M410.375 557.53v-90.178H1024v90.177H410.375z m546.203-67.448c-1.161 1.95-1.161 4.206 0 6.77 1.347-1.355 2.692-1.355 4.036-1.355h16.147l5.383 1.356v-6.771H960.614c-1.529-1.95-2.874-1.95-4.036 0z m-2.694 14.891v5.415H968.688v18.955c0 1.355 0 1.355-1.345 2.704h-1.35s-1.34 0-2.688-1.35c1.347 2.706 1.347 5.414 1.347 8.121 0.894 0 4.033-0.452 9.415-1.355V510.388h9.424v-5.415h-29.607z m-18.833-8.12c0 1.352 1.341 2.704 1.341 2.704l2.692 4.066c1.347-1.355 4.035-2.71 5.385-4.066l4.036-2.704 5.38-4.063c-1.342-1.353-2.692-2.708-2.692-2.708l-2.688-2.708c-1.348 2.708-10.765 9.479-13.454 9.479z m6.724 36.55v5.415h6.73v-28.43l6.726-8.12c-1.347 0-4.038-2.71-6.726-4.063-1.348 4.063-2.692 6.768-5.386 9.476-4.035 4.063-6.727 5.418-9.415 6.77 1.347 1.35 2.688 5.416 4.036 6.768l4.035-4.063v16.247z m-59.208-24.367h4.042v4.063h-8.074v6.768h8.074v8.12l-1.348 1.356-1.344 1.355c1.344 2.705 2.692 4.057 2.692 6.765 4.035-1.352 9.417-5.416 12.109-8.12V522.575c-1.344 1.352-5.386 4.057-6.727 4.057v-6.765h8.07v-6.768h-8.07v-4.063h6.727v-5.413H885.26c0-1.355 1.348-4.066 1.348-5.418h13.453v-5.415h-10.766c1.348-1.353 1.348-2.708 1.348-4.06-1.347 0-4.035-1.356-5.383-1.356-1.344 2.708-2.694 6.77-4.038 9.479-1.341 2.704-2.688 4.06-4.035 5.415 0 1.803 0.449 4.51 1.347 8.12 1.347-1.352 2.688-1.352 4.032-2.707v1.355z m24.224-0.003v-4.06h12.11v4.06h-12.11z m0-9.476v-5.412h12.11v5.412h-12.11z m-5.382-10.828v41.969c0 0.265-1.347 1.35-1.347 1.35 1.347 2.707 1.347 4.063 2.694 6.77 2.686-2.707 5.38-5.415 10.762-8.12v-6.771c-2.691 1.353-4.035 2.705-6.727 4.06v-13.536h4.036c0.896 5.416 1.793 8.575 2.691 9.476 0.716 1.436 2.89 4.892 5.383 8.12 2.202 2.852 4.749 5.501 5.38 6.771l4.038-6.77c-1.345 0-6.724-4.06-8.071-6.768 4.484-3.609 7.175-5.865 8.07-6.768-1.344 0-2.688-1.356-4.038-4.06-1.344 1.349-2.685 4.06-6.726 5.415-0.759-1.355-1.345-4.066-1.345-5.416h8.071V488.73H901.41z m-74.008 46.026h43.057v-6.768h-14.8v-6.768c1.347 1.356 2.69 2.708 4.038 4.06 1.347-2.704 9.418-24.366 9.418-27.074-1.344 0-4.036 0-6.73-1.352 0 4.06-5.38 18.948-6.726 21.659v-29.783h-6.727v39.258h-4.036V488.73h-8.073l1.344 6.768v23.015c-0.896-0.904-3.587-8.124-8.071-21.66-1.347 0-4.041 1.353-6.73 2.705 0.897 1.808 3.587 9.48 8.071 23.018 1.347-1.356 4.039-2.708 6.73-2.708v8.12H822.02v6.768h5.38z m-22.874-18.954c0-1.35-5.38-5.413-8.074-5.413h8.074v5.413z m-18.84 12.186v-4.06h9.422v4.06h-9.421z m-4.035-9.475c4.036-2.711 5.383-4.06 6.724-6.768 0 0-1.341 0-2.688-1.356h9.42c-1.346 0-2.69 1.356-4.038 2.711 4.039 2.702 6.727 4.057 8.077 5.413h-17.495z m-5.382-8.124h6.727c-1.345 1.356-4.039 4.063-6.727 5.413v-5.413z m20.183-10.83c0 1.355-1.344 2.71-2.691 4.065 1.347 0 1.347 0 1.347 1.35h-10.765c0-1.35 1.344-1.35 1.344-1.35 0-1.355-1.344-2.71-1.344-4.066h12.109z m-17.495 0c-1.344 0-1.344 0-1.344 1.355 0 0 1.344 1.355 2.694 4.06h-10.765v32.49h6.727v-21.662c0 1.355 1.344 2.71 2.688 5.418 0-1.352 1.35-1.352 1.35-2.707v14.89h20.18v-13.535l1.344 1.352c1.35-1.352 1.35-2.707 2.695-4.063v14.892h-4.039c1.344 2.707 1.344 4.063 1.344 6.77h1.35c4.036 0 5.38-1.355 8.071-2.707V504.973h-10.765c0-1.35 1.344-2.705 2.694-4.06l-1.35-1.356h12.113v-5.412h-20.183s0-1.355 1.347-1.355c-1.347-1.353-2.692-4.06-4.039-6.768-1.347 1.352-4.035 2.707-5.382 4.06 0 1.355 1.347 2.708 2.688 4.063H766.85v5.412h12.11z m-60.549 31.14v6.765h6.727v-23.012c1.35 2.705 1.35 5.416 2.691 8.124 2.691-2.708 4.039-4.063 5.38-4.063l-5.38-10.831c-1.341 1.355-2.691 2.707-2.691 2.707v-5.415h5.382v-6.768h-5.382v-10.83h-6.727v10.83h-8.076v6.768h8.076c-2.691 8.126-5.382 13.539-9.42 16.246 1.344 1.356 1.344 4.06 2.694 6.768 2.69-2.707 4.035-5.412 6.726-8.12v10.83z m18.84-6.77c3.587-1.806 5.83-2.709 6.726-2.709-0.896-0.901-2.242-4.962-4.039-12.183-2.688 0-4.035 1.352-6.73 1.352 1.35 5.413 4.042 9.479 4.042 13.54z m-5.383-25.723v6.768l13.453-1.35v27.075h-5.383c0 2.705 1.348 4.057 1.348 6.765h6.726c1.35 0 4.036-1.352 4.036-2.708v-31.132l6.73 1.35v-6.768h-6.73v-10.83h-6.727v10.83h-13.453z m-57.861 1.352c-2.691 9.479-9.42 17.6-20.186 23.018 2.694 2.705 4.041 4.057 4.041 5.412 4.033-2.707 8.071-5.412 10.765-8.12v8.12c0 1.356 0 2.71-1.35 4.06 1.35 2.708 2.695 4.064 4.039 6.771 0-1.355 12.112-10.83 13.453-12.186-1.341-1.352-1.341-2.705-2.688-5.413-1.344 1.356-4.039 4.06-8.074 6.768v-16.243c2.691-2.708 4.035-5.416 5.382-8.12 1.795 9.927 3.588 16.244 5.38 18.95 4.562 6.769 9.42 10.829 16.15 13.537 0-2.708 1.348-5.413 2.692-6.768-5.386-1.356-9.421-4.063-13.46-9.476 2.695-2.71 6.73-5.416 9.421-6.768-2.69-2.71-4.035-4.063-5.382-5.418l-6.73 6.77c-1.344-4.063-1.344-8.123-2.69-10.828-1.342 0-4.033-1.355-5.38-1.355 0-1.355 1.347-2.71 1.347-2.71h13.453v6.77h6.73V492.79h-18.84c0-2.708 0-4.06 1.348-5.416h-8.077v5.416h-18.836v13.538h6.727v-6.77h10.765z m-68.626 9.479h-8.07v6.765h24.218v10.831c0 4.066-4.038 4.066-6.727 4.066h-2.694c0 1.35 2.694 5.413 2.694 6.765h4.036c2.69 0 4.032-0.653 6.726-2.708s2.694-8.123 2.694-12.18V515.8h18.84v-6.765h-20.189l-1.345-1.355c2.694-1.353 5.383-4.058 6.73-5.413 2.691-2.71 5.382-5.415 6.727-8.123l-2.692-4.063H605.38v6.77l6.727-1.355h17.492c-1.342 1.356-5.38 5.416-6.724 6.771-0.898 0-2.244-1.354-4.038-4.063l-5.383 4.063 1.347 1.355c1.344 1.35 4.036 4.058 4.036 5.413h-13.457z m-55.169 20.307c0 1.355-1.344 1.355-1.344 1.355h-4.039c0 2.705 1.345 5.413 1.345 6.765h1.347c2.691 0 8.074-1.352 8.074-2.708v-18.954l6.73-1.35c0-0.901-0.45-3.158-1.348-6.77-2.692 1.805-4.486 2.707-5.382 2.707v-6.765h6.73v-6.77c-2.692 1.352-4.04 1.352-6.73 1.352v-10.83h-6.727l1.344 5.415v5.415h-5.383l-4.035-1.352v6.77h9.418v8.24c-4.038 1.91-6.727 2.588-9.418 2.588 1.347 2.705 1.347 5.416 2.691 6.768 0 0 5.383-1.352 6.727-2.707v10.83z m25.566-32.49l-2.689 2.704c-5.382 4.514-8.97 6.771-10.765 6.771l1.344 5.416h2.694c0 1.355-0.654 4.564-2 7.275-1.348 2.71-6.076 6.26-8.767 7.613 2.69 1.355 4.038 4.066 5.382 5.415 1.347-1.35 6.724-6.765 8.07-9.472 1.348-2.708 2.695-6.774 4.042-9.476l-4.041-1.355h6.73c0 1.355-0.848 3.639-1.345 5.412-1.344 5.419-10.765 16.247-13.456 16.247 2.691 1.352 4.038 2.708 5.385 5.415 1.342-1.355 6.721-8.123 9.416-10.83 2.694-2.708 4.038-6.769 5.382-14.889-1.344 0-2.688-1.355-4.033-1.355h6.724v14.888c0 2.71-0.897 4.066-2.691 4.066h-5.382c1.35 2.705 1.35 5.413 2.694 6.765h4.035c2.694 0 6.727-1.875 6.727-6.765v-24.37H574.43c2.694-2.705 10.768-10.83 12.11-13.538l-2.692-2.708h-21.527v6.77h13.454z m-80.735 1.352l2.694-5.415c-1.347-1.353-4.036-2.708-6.73-5.416-1.347 2.708-2.694 4.063-4.035 5.416 2.688 1.355 5.38 4.063 8.07 5.415z m-5.383 39.258c2.691-5.416 5.383-12.183 8.077-18.951-1.347 0-4.036-1.356-5.386-2.711-2.69 6.774-4.038 13.542-6.726 17.602 1.347 0 2.688 2.708 4.035 4.06z m4.041-24.364c1.342-2.71 2.689-4.063 2.689-5.418 0 0-2.689-2.708-8.077-5.413 0 1.355-1.341 2.705-2.688 4.06 2.688 2.708 5.382 4.06 8.076 6.771z m29.598-12.186v-6.768h5.386v6.768h-5.386z m0 12.186v-6.77h5.386v6.77h-5.386z m-5.38-24.37c0 21.66 0 33.846-1.343 37.903-2.028 5.415-4.042 5.415-5.386 6.77 1.344 1.353 2.691 2.709 4.036 5.416 4.038-4.063 8.073-9.475 8.073-20.306h5.386v12.186s-1.347 1.35-2.694 1.35h-2.692c1.35 2.707 1.35 5.415 2.692 5.415 2.694 0 8.073 0 8.073-5.416V488.73h-16.144z m-14.803 36.548V515.8h5.383v9.476h-5.383z m-6.726-21.654h6.726v8.12l-5.38-1.355v20.31h16.145v-20.31l-5.382 1.356v-8.12h8.077v-5.419h-8.077l1.347-10.83h-6.73v10.83h-6.726v5.418z m-65.935-6.77h12.11v4.06h6.73v-4.06h9.417v4.06h5.383v-4.06h13.453v-5.416h-13.453v-4.063h-5.383v4.063h-9.418v-4.063h-6.73v4.063h-12.109v5.416z m0 21.659h17.495c-1.35 4.063-6.583 12.74-17.495 13.535 1.347 1.356 2.692 4.064 2.692 6.771 9.418-4.063 20.183-11.49 20.183-20.306h2.694v14.89c0 6.29 6.726 5.416 14.8 5.416 3.788-0.903 6.48-4.062 8.074-9.475-2.694 0-4.035-1.356-5.385-2.711-1.345 1.355-2.689 5.415-4.036 5.415h-6.727v-13.535h14.798v-5.413h-22.871l1.347-5.418h17.489v-5.413h-40.366v5.413h16.147c0 1.355 0 2.707-1.344 5.418h-17.495v5.413zM46.827 557.53l52.508-88.594v88.593H46.827zM0 467.351h34.834L0 526.584v-59.232z" fill="#003E85"></path><path d="M99.335 467.352h41.779c14.734 0 27.696 9.63 27.696 24.377-1.339 9.384-9.378 16.087-16.075 20.11 9.374 1.343 18.757 9.384 18.757 20.108-1.344 16.089-10.926 25.582-29.684 25.582H99.335v-88.593L46.827 557.53h-12.03l52.286-90.177h12.252z m-47.089 0h24.12L24.134 557.53H0l52.246-90.177z m61.632 49.848v28.154h24.117c14.74 0 17.416-10.726 16.075-14.744 0-2.684-4.018-13.41-17.416-13.41h-22.776z m0-37.536v26.812h22.776c13.398 0 16.08-9.383 14.74-14.747 0-6.702-5.36-12.065-14.74-12.065h-22.776z m77.708 44.24h30.815l-14.74-42.901h-1.335l-14.74 42.901z m36.174 12.066h-40.192l-8.04 21.452h-13.397l33.494-90.07h20.096l32.156 90.07h-17.42l-6.697-21.452z m87.087-2.681v-65.936h12.06v90.07h-14.74l-45.551-69.717v69.717h-12.06v-90.07h18.757l41.534 65.936z m56.27-65.937h17.418l-42.874 45.83 42.874 44.24h-16.078l-45.551-44.24 44.21-45.83z" fill="#E3671D"></path></svg>