<svg viewBox="0 0 1024 1024" version="1.1" xmlns="http://www.w3.org/2000/svg"><path d="M224 0h576c123.6 0 224 100.4 224 224v576c0 123.6-100.4 224-224 224H224c-123.6 0-224-100.4-224-224V224C0 100.4 100.4 0 224 0z" fill="#FFFFFF"></path><path d="M504 390c0 8.8-6 15.2-16 18-42 9.2-75.6 40.4-87.2 81.2-3.2 9.6-12.8 11.2-18 11.2H241.2c-13.6 0-25.6-5.2-34.4-14-8.8-8.8-14.4-20.8-14.4-34 0-13.6 5.6-25.2 14.4-34.4 8.8-8.8 20.8-14 34.8-14.4h95.6l-56.8-56-10.8-10.8c-20.8-20.4-8.8-8.8-56-55.6-9.6-9.6-14.4-21.6-14.4-34 0-12.4 4.8-24.8 14.4-34 9.6-9.6 22-14 34.8-14 12.8 0 24.8 4.8 34.8 14 63.2 62.4 67.2 66.4 67.2 66.4L407.2 336l-1.2-80v-0.8-14.8c0-13.6 5.6-25.2 14.4-34s21.2-14 34.8-14.4c13.6 0 25.6 5.2 34.4 14 8.8 8.8 14.4 20.8 14.4 34v150z m16 0V240.4c0-13.6 5.6-25.2 14.4-34s20.8-14 34.4-14c13.6 0 25.6 5.2 34.8 14.4 8.8 8.8 14.4 20.8 14.4 34V256l-0.4 79.6 56.8-56.4s4-4 67.2-66.4c9.6-9.6 22-14 34.8-14 12.8 0 24.8 4.8 34.8 14 9.6 9.6 14.4 21.6 14.4 34 0 12.4-4.8 24.8-14.4 34-47.2 46.8-35.2 34.8-56 55.6l-10.8 10.8-56.4 55.6h95.6c13.6 0 25.6 5.2 34.8 14.4 8.8 8.8 14.4 20.8 14.4 34.4 0 13.6-5.6 25.2-14.4 34s-20.8 14-34.4 14h-141.6c-5.2 0-15.2-1.6-18.4-11.2-12-40.4-45.2-71.6-87.2-81.2-10.8-2-16.8-8.4-16.8-17.2z m-16 240v149.6c0 13.6-5.6 25.2-14.4 34s-20.8 14-34.4 14c-13.6 0-25.6-5.2-34.8-14-8.8-8.8-14.4-20.8-14.4-34V764l0.4-79.6-56.8 56.4s-4 4-67.2 66.4c-9.6 9.6-22 14-34.8 14-12.8 0-24.8-4.8-34.8-14-9.6-9.6-14.4-21.6-14.4-34 0-12.4 4.8-24.8 14.4-34 47.2-46.8 35.2-34.8 56-55.6l10.8-10.8L336 617.2H257.2h-16c-13.6 0-25.6-5.2-34.8-14.4-8.8-8.8-14.4-20.8-14.4-34.4 0-13.6 5.6-25.2 14.4-34s20.8-14 34.4-14h141.6c5.2 0 15.2 1.6 18 11.2 12 40.4 45.2 71.6 87.2 81.2 10.4 2 16.4 8.4 16.4 17.2z m16 4c0-8.8 5.6-15.2 16-18 41.6-9.2 74.4-40.4 86.4-81.2 3.2-9.6 12.8-11.2 18-11.2H780c13.6 0 25.2 5.6 34 14 8.8 8.8 14 20.8 14.4 34 0 13.6-5.2 25.2-14.4 34.4-8.8 8.8-20.8 14-34 14.4H685.6l55.6 55.6 10.8 10.8 55.6 55.6c9.6 9.6 14 21.6 14 34 0 12.4-4.8 24.8-14 34-9.6 9.6-21.6 14-34 14-12.4 0-24.8-4.8-34.4-14L672.8 744 616 688.4l0.4 79.6V783.6c0 13.6-5.2 25.2-14 34s-20.8 14-34.4 14c-13.6 0-25.2-5.2-34-14s-14-20.8-14-34v-149.6z" fill="#04358E"></path></svg>