<svg viewBox="0 0 1024 1024" version="1.1" xmlns="http://www.w3.org/2000/svg"><path d="M441.606 412.37v83.248h28.296c25.162 0 37.739-14.27 37.739-42.816 0-9.86-1.862-17.938-5.579-24.24-3.716-6.303-8.036-10.58-12.967-12.825-4.93-2.237-12.187-3.367-21.761-3.367h-25.728z m-64.335-47.571h91.998c17.869 0 31.557 0.822 41.058 2.494 9.508 1.651 19.134 6.12 28.848 13.404 9.714 7.278 17.331 17.234 22.836 29.839 5.497 12.611 8.257 26.77 8.257 42.479 0 36.903-13.688 62.86-41.072 77.856l53.855 129.124h-69.67L474.318 543.19h-32.712v116.806h-64.335V364.8z m296.742 244.647h31.2c29.308 0 43.955-12.876 43.955-38.657 0-14.32-3.653-24.416-10.936-30.278-7.29-5.862-18.299-8.79-33.019-8.79h-31.2v77.725z m0-125.302h20.529c20.448 0 33.32-3.764 38.622-11.299 5.288-7.542 7.936-16.17 7.936-25.883 0-9.002-2.648-17.006-7.936-24.042-5.303-7.029-16.62-10.55-33.972-10.55h-25.18v71.774zM612.448 364.799h99.366c23.316 0 40.896 1.886 52.778 5.627 11.867 3.757 21.812 11.974 29.843 24.666 8.039 12.7 12.05 28.495 12.05 47.394 0 33.037-13.854 54.247-41.57 63.616 33.085 11.812 49.638 35.964 49.638 72.405 0 19.164-4.48 35.348-13.443 48.525-8.963 13.176-20.03 21.966-33.188 26.375-13.165 4.38-31.839 6.588-56.02 6.588H612.448V364.8z m397.076 2.645l-0.78 51.231c-27.37-6.309-57.87-11.831-81.337-8.677-8.822 1.184-15.104 5.398-20.3 10.825-5.21 5.434-7.807 11.743-7.807 18.971 0 8.398 3.094 15.09 9.281 20.06 6.18 5.008 19.118 11.538 38.819 19.627 17.906 7.074 32.018 14.089 42.262 21.023 10.267 6.927 18.549 16.34 24.868 28.26 6.319 11.927 9.478 25.751 9.478 41.487 0 27.59-8.968 50.232-26.874 67.924-17.92 17.692-41.941 25.597-72.047 26.531-46.16 1.434-74.317-5.655-86.036-9.596l0.774-52.798c16.424 5.515 50.048 11.023 86.94 9.604 10.66-0.42 19.314-2.927 25.954-8.78 6.633-5.853 9.953-13.56 9.953-23.097 0-7.236-2.328-13.707-6.961-19.42-4.648-5.707-15.294-11.73-31.952-18.097-21.43-8.082-37.41-15.435-47.918-22.002-10.507-6.574-19.183-15.95-26.005-28.149-6.837-12.214-10.245-26.104-10.245-41.708 0-26.56 8.063-48.342 24.181-65.299 16.119-16.979 37.44-25.464 63.963-25.464 48.421 0 65.371 3.603 81.789 7.544zM151.894 451.8c0 4.3-2.86 7.522-7.793 8.792-20.471 4.559-36.78 19.795-42.544 39.634-1.482 4.663-6.243 5.435-8.848 5.435-21.204 0-47.477-0.015-68.854-0.015-6.632 0-12.5-2.628-16.841-6.912C2.665 494.389 0.023 488.583 0.008 482.012c0.015-6.594 2.657-12.415 7.006-16.736 4.341-4.322 10.217-6.935 16.856-6.95 5.614 0.015 7.784 0.015 7.784 0.015h38.848l-27.5-27.242s-1.909-1.901-5.292-5.265c-10.142-10.053-4.364-4.299-27.358-27.145-4.723-4.663-6.968-10.626-6.998-16.729 0.03-6.11 2.275-12.058 6.976-16.721 4.693-4.648 10.71-6.92 16.856-6.92 6.16 0 12.163 2.272 16.886 6.92h-0.015l32.687 32.44 27.74 27.517-0.293-38.907v-0.379c0-0.846-0.015-3.059-0.015-7.254 0.015-6.579 2.65-12.385 6.984-16.706 4.371-4.314 10.247-6.935 16.886-6.95 6.632 0.015 12.463 2.621 16.841 6.935 4.334 4.321 6.991 10.142 6.991 16.721 0 22.876 0.015 51.396 0.015 73.143z m9.798 0c0-21.747 0.015-50.267 0.015-73.143 0-6.579 2.657-12.4 6.991-16.721 4.379-4.314 10.21-6.92 16.841-6.935 6.64 0.015 12.515 2.636 16.886 6.95 4.342 4.321 6.969 10.127 6.976 16.706 0 4.195-0.007 6.408-0.007 7.254v0.379l-0.292 38.907 27.74-27.517 32.679-32.44h-0.008c4.723-4.648 10.719-6.92 16.886-6.92 6.146 0 12.164 2.272 16.857 6.92 4.7 4.663 6.946 10.61 6.976 16.721-0.03 6.103-2.276 12.066-6.999 16.729-23.001 22.846-17.215 17.092-27.357 27.145a9751.43 9751.43 0 0 0-5.292 5.265l-27.5 27.242h38.847s2.17 0 7.784-0.015c6.64 0.015 12.515 2.628 16.856 6.95 4.35 4.321 6.991 10.142 7.006 16.736-0.015 6.57-2.657 12.377-7.006 16.72-4.34 4.285-10.21 6.913-16.84 6.913-21.378 0-47.65 0.015-68.848 0.015-2.612 0-7.372-0.772-8.862-5.435-5.756-19.84-22.073-35.075-42.537-39.634-4.933-1.27-7.792-4.492-7.792-8.792z m-9.799 118.753c0 21.748-0.015 50.268-0.015 73.137 0 6.585-2.657 12.407-6.99 16.728-4.38 4.321-10.21 6.913-16.842 6.927-6.64-0.014-12.515-2.62-16.886-6.942-4.334-4.321-6.969-10.128-6.984-16.713 0-4.18 0.015-6.4 0.015-7.247v-0.379l0.292-38.9-27.739 27.51s-1.991 1.983-32.687 32.44h0.015c-4.723 4.655-10.726 6.913-16.886 6.913-6.145 0-12.163-2.258-16.856-6.913-4.7-4.663-6.946-10.61-6.976-16.721 0.03-6.096 2.275-12.066 6.998-16.721 22.994-22.854 17.216-17.107 27.358-27.146 3.383-3.37 5.292-5.264 5.292-5.264l27.5-27.25H31.654s-2.17 0-7.784 0.015c-6.64-0.015-12.515-2.636-16.856-6.95C2.665 552.755 0.023 546.941 0.008 540.34c0.015-6.563 2.657-12.377 7.006-16.72 4.341-4.278 10.21-6.92 16.841-6.92 21.377 0 47.65-0.016 68.854-0.016 2.605 0 7.366 0.787 8.848 5.443 5.763 19.847 22.073 35.068 42.544 39.642 4.933 1.262 7.792 4.484 7.792 8.783z m8.574 1.225c0-4.299 2.837-7.521 7.73-8.783 20.298-4.574 36.484-19.795 42.193-39.642 1.478-4.656 6.2-5.443 8.791-5.443 21.027 0 47.087 0.015 68.292 0.015 6.578 0 12.399 2.643 16.705 6.92 4.314 4.344 6.935 10.157 6.95 16.721-0.015 6.6-2.636 12.415-6.95 16.736-4.306 4.314-10.134 6.935-16.72 6.95-5.569-0.015-7.722-0.015-7.722-0.015h-38.533l27.278 27.25s1.893 1.893 5.249 5.264c10.06 10.038 4.321 4.292 27.137 27.146 4.685 4.655 6.912 10.625 6.942 16.72-0.03 6.111-2.257 12.059-6.92 16.722-4.655 4.655-10.625 6.912-16.72 6.912-6.118 0-12.065-2.257-16.75-6.912h0.007c-30.44-30.458-32.416-32.44-32.416-32.44l-27.515-27.51 0.29 38.9v0.379c0 0.846 0.007 3.066 0.007 7.246-0.008 6.586-2.614 12.393-6.92 16.714-4.336 4.321-10.164 6.928-16.75 6.942-6.578-0.014-12.362-2.606-16.705-6.927-4.3-4.321-6.935-10.143-6.935-16.729 0-22.869-0.015-51.388-0.015-73.136z" fill="#04358E"></path></svg>