<svg viewBox="0 0 1024 1024" version="1.1" xmlns="http://www.w3.org/2000/svg"><path d="M224 0h576c123.6 0 224 100.4 224 224v576c0 123.6-100.4 224-224 224H224c-123.6 0-224-100.4-224-224V224C0 100.4 100.4 0 224 0z" fill="#FFFFFF"></path><path d="M528 200l292.4 198.8c10.8 7.6 14 22.4 6.4 33.2-1.6 2.4-4 4.8-6.4 6.4l-295.6 200.8c-8 5.6-18.8 5.6-26.8 0l-295.2-200.8c-10.8-7.6-14-22.4-6.4-33.2 1.6-2.4 4-4.8 6.4-6.4L501.2 200c8-5.2 18.4-5.2 26.8 0z m-118.4 120.8L310 388h68l31.6-67.2z m73.6 0L437.6 388h45.6V320.8z m133.2 0l36.8 67.2h68l-104.8-67.2z m-68.4 0V388h45.6L548 320.8zM409.6 516l-31.6-67.2h-68l99.6 67.2z m73.6 0v-67.2h-45.6l45.6 67.2z m133.2 0l104.8-67.2h-68l-36.8 67.2z m-68.4 0l45.6-67.2H548V516z m-352.8-7.6c0-4 1.2-8 3.6-11.2 6-9.2 18.8-11.6 27.6-5.2l286.8 193.6L800 492c3.2-2.4 7.2-3.6 11.2-3.6 11.2 0 20 8.8 20 20v291.2c0 15.6-12.4 28-28 28h-580c-15.6 0-28-12.4-28-28v-291.2z m69.2 106v132.8c0 6.8 5.2 12 12 12h474c6.8 0 12-5.2 12-12V620c0-6.8-5.2-12-12-12-2.4 0-4.4 0.8-6.4 1.6l-205.2 126.8c-15.6 9.6-35.6 9.6-51.2-0.4l-205.2-132c-5.6-3.6-12.8-2-16.4 3.6-1.2 2.4-1.6 4.8-1.6 6.8z" fill="#164AA2"></path></svg>