<svg viewBox="0 0 1024 1024" version="1.1" xmlns="http://www.w3.org/2000/svg"><path d="M100.297 418.75l91.642 61.84a4.389 4.389 0 0 1 0.001 7.275l-92.573 62.508a4.389 4.389 0 0 1-4.912 0L1.933 487.9a4.389 4.389 0 0 1 0.033-7.296l93.453-61.875a4.389 4.389 0 0 1 4.878 0.022z m-33.57 36.607l-29.553 19.835h20.168l9.385-19.835z m21.888 0L75.06 475.192h13.556v-19.835z m39.56 0l10.961 19.835h20.168l-31.13-19.835z m-20.312 0v19.835h13.556l-13.556-19.835z m-41.136 57.558l-9.385-19.835H37.174l29.553 19.835z m21.888 0V493.08H75.06l13.556 19.835z m39.56 0l31.13-19.835h-20.169l-10.961 19.835z m-20.312 0l13.556-19.835h-13.556v19.835zM2.948 505.764a3.657 3.657 0 0 1 5.704-3.03l89.043 60.144 88.988-60.142a3.657 3.657 0 0 1 5.705 3.03v94.362a5.12 5.12 0 0 1-5.12 5.12H8.068a5.12 5.12 0 0 1-5.12-5.12v-94.364z m20.523 33.398v43.508c0 1.212 0.982 2.195 2.194 2.195h144.006a2.194 2.194 0 0 0 2.195-2.195v-41.728a2.194 2.194 0 0 0-3.349-1.866l-66.128 40.899a8.777 8.777 0 0 1-9.366-0.084l-66.17-42.574a2.194 2.194 0 0 0-3.382 1.845z m256.814 60.966l-34.025-87.977-3.52 87.977h-18.191l6.265-119.223h22.817l32.358 85.885 31.279-85.885h23.895l6.266 119.223h-17.87l-5.358-87.977-32.214 87.977h-11.702z m107.275 0.682c-9.923-4.011-19.734-15.264-22.301-22.613-2.568-7.35-3.202-11.551-3.202-18.482 0-6.982 0.978-13.22 2.935-18.712 1.957-5.494 4.714-10.152 8.271-13.977 3.557-3.825 7.811-6.738 12.762-8.74 4.95-2.002 10.42-3.004 16.409-3.004 5.87 0 11.146 0.912 15.83 2.734 4.684 1.823 8.656 4.39 11.917 7.7 3.261 3.312 5.766 7.29 7.515 11.937 1.75 4.646 2.624 9.792 2.624 15.44v8.701l-59.364 0.085c0.296 9.909 2.068 14.58 6.604 19.252 4.535 4.672 9.567 8.334 18.52 8.334 8.123 0 15.82-1.905 23.09-5.716l4.201 14.282c-2.709 1.456-7.345 2.854-13.907 4.193-9.844 2.008-21.981 2.598-31.904-1.414z m15.76-71.63c-6.553 0-11.74 1.745-15.563 5.237-3.823 3.492-6.05 8.573-6.683 15.243h42.423c0-3.044-0.388-5.831-1.164-8.36-0.776-2.53-1.983-4.69-3.621-6.48-1.639-1.79-3.722-3.178-6.252-4.163-2.529-0.985-5.576-1.477-9.14-1.477z m97.48 59.807v14.663c-0.666 0.305-8.342 0-19.413 0-11.072 0-19.641-9.426-19.641-26.374V530.21h-11.917v-15.265h11.917v-15.996l17.219-2.684v18.68h22.795v15.265h-22.795v47.066c0 7.41 4.393 11.72 13.122 11.71h8.713z m60.346-76.63c0.987 0 2.647 0.063 4.98 0.19l-1.494 17.202c-1.95-0.178-3.367-0.266-4.252-0.266-3.218 0-6.155 0.647-8.811 1.942-2.656 1.294-4.636 2.265-6.857 5.56-2.222 3.294-6.015 11.848-6.015 15.96v50.109h-18.651v-88.646h17.732v10.376h0.613c1.277-2.184 3.707-5.944 8.316-8.78 4.608-2.836 11.578-3.647 14.439-3.647z m96.408 45.561c0 6.986-0.982 13.194-2.947 18.624-1.965 5.43-4.78 9.994-8.447 13.691-3.666 3.697-8.11 6.514-13.33 8.452-5.22 1.937-11.086 2.906-17.597 2.906-6.042 0-11.614-0.969-16.717-2.906-5.103-1.938-9.517-4.755-13.242-8.452-3.725-3.697-6.628-8.26-8.71-13.69-2.083-5.431-3.124-11.64-3.124-18.625 0-6.935 0.982-13.092 2.948-18.471 1.965-5.38 4.765-9.918 8.402-13.614 3.637-3.697 8.08-6.502 13.33-8.414s11.13-2.868 17.641-2.868c6.042 0 11.614 0.956 16.717 2.868 5.104 1.912 9.517 4.717 13.242 8.414 3.725 3.696 6.628 8.234 8.71 13.614 2.083 5.38 3.124 11.536 3.124 18.471z m-66.56 0.011c0 9.875 1.958 17.304 5.874 22.288 3.917 4.985 10.277 7.477 19.08 7.477 8.805 0 15.136-2.492 18.995-7.477 3.859-4.984 5.788-12.413 5.788-22.288 0-9.874-1.958-17.256-5.874-22.146-3.916-4.89-10.276-7.335-19.08-7.335-8.804 0-15.135 2.445-18.994 7.335-3.86 4.89-5.789 12.272-5.789 22.146z m128.349-42.751c5.114 0 9.765 0.918 13.954 2.756 4.189 1.838 7.766 4.582 10.73 8.232 2.966 3.65 5.264 8.181 6.896 13.593 1.632 5.411 2.448 11.69 2.448 18.838 0 7.198-0.816 13.516-2.448 18.953-1.632 5.437-3.93 9.993-6.895 13.669-2.965 3.675-6.542 6.445-10.73 8.308-4.19 1.864-8.841 2.795-13.955 2.795-3.21 0-6.12-0.331-8.732-0.995-2.61-0.664-4.964-1.544-7.058-2.642-2.095-1.098-11.344-6.905-12.595-8.538h-0.98v10.644h-17.795V481.637h17.796v46.265c1.25-1.787 11.398-8.002 13.492-9.125 2.095-1.123 4.447-2.004 7.059-2.642 2.611-0.638 5.549-0.957 8.813-0.957z m-4.863 16.196c-4.31 0-7.907 0.573-10.79 1.718-2.882 1.145-5.199 2.885-6.95 5.22-1.75 2.336-2.99 5.256-3.717 8.759-0.728 3.503-1.092 7.612-1.092 12.328 0 4.536 0.364 8.567 1.092 12.093 0.727 3.525 1.966 6.49 3.717 8.892 1.751 2.403 4.082 4.222 6.991 5.457 2.91 1.235 6.547 1.853 10.911 1.853 7.274 0 12.622-2.448 16.043-7.343 3.421-4.896 5.132-11.924 5.132-21.087 0-9.341-1.71-16.325-5.132-20.951-3.421-4.626-8.823-6.94-16.205-6.94z m107.626 70.15v-8.493h-0.662c-1.823 2.295-9.278 5.816-11.432 6.887-2.154 1.07-4.556 1.861-7.207 2.371-2.65 0.51-5.715 0.765-9.194 0.765-3.81 0-7.318-0.497-10.52-1.492-3.204-0.994-5.979-2.524-8.326-4.589-2.347-2.065-4.183-4.665-5.508-7.801-1.326-3.136-1.988-6.846-1.988-11.129 0-8.362 3.189-16.892 9.567-21.379 6.21-4.369 15.576-6.804 28.095-7.306l16.264-0.572v-5.277c0-7.869-3.161-10.605-4.68-12.007-1.519-1.402-3.396-2.41-5.633-3.021-2.237-0.612-4.79-0.918-7.662-0.918-4.584 0-8.85 0.612-12.799 1.836a85.188 85.188 0 0 0-11.39 4.436l-5.301-10.479c4.086-2.04 8.642-3.773 13.668-5.2 5.025-1.428 10.3-2.142 15.822-2.142 5.633 0 10.506 0.523 14.62 1.568 4.114 1.045 7.51 2.702 10.19 4.971 2.678 2.27 4.68 5.163 6.005 8.681 1.325 3.519 1.988 7.776 1.988 12.773v57.517h-13.917z m-25.285-10.173c3.298 0 10.595-1.313 16.09-6.278 5.494-4.964 7.752-12.977 7.752-16.958v-7.484l-11.596 0.53c-4.866 0.2-8.948 0.705-12.246 1.511-3.297 0.806-5.933 1.928-7.906 3.364-1.973 1.436-3.393 3.175-4.258 5.216-0.865 2.041-1.297 4.347-1.297 6.917 0 4.637 1.311 8.039 3.933 10.206s5.258 2.976 9.528 2.976z m116.19 11.703v-53.99c0-6.618-1.519-11.581-4.557-14.89-3.037-3.31-7.797-4.964-14.277-4.964-4.687 0-5.483 0.662-8.665 1.985-3.183 1.324-5.743 3.284-7.681 5.88-1.939 2.597-3.327 5.779-4.166 9.546-0.84 3.767-1.259 8.094-1.259 12.982v43.45H855.04v-86.975h15.102v11.302h0.868a24.731 24.731 0 0 1 5.164-5.689 30.28 30.28 0 0 1 6.553-4.009 33.732 33.732 0 0 1 7.551-2.367 43.332 43.332 0 0 1 8.159-0.764c10.589 0 18.56 2.43 23.912 7.293 5.352 4.862 8.028 15.766 8.028 26.457v54.753h-17.366z m51.912-46.962l31.3-36.363h19.06l-29.945 36.363L1024 603.785h-18.88l-29.566-37.456-10.631 11.141v26.315h-16.26V483.1h16.26v72.992z" fill="#164AA2"></path></svg>