<svg viewBox="0 0 1024 1024" version="1.1" xmlns="http://www.w3.org/2000/svg"><path d="M56.4 485.4c-7.4 0-13.4 6-13.4 13.4s6 13.4 13.4 13.4 13.4-6 13.4-13.4-6-13.4-13.4-13.4z m85.1-19.3s-40.1-38.5-95.3-4.8c-12.9 7.9-20.3 19.6-24.2 30.4-12.9 35.4 16.5 77.7 55.9 81.8 0 0 36.4 7.5 62.1-11.8l13.9 12.3s-53 38.5-114 3.7C-21.2 543-9.4 458.6 57 436.2c0 0 55.7-20.3 101.2 19.2l-7.5 4.8-9.2 5.9z" fill="#F4811F"></path><path d="M287.1 473.1h16.1l-0.5 24.5 3.2-0.5 18.8-22.9h15.8l-24.9 29.9 27.9 33.6h-18.2l-20.4-25.1h-1.3V538H287l0.1-64.9zM222.5 538l-0.3-65.1s18.8-4 23.6 12.5l13.4 26.1 2.1-0.3 0.3-38.4 15.5 0.3V538h-13.9l-24.7-36.3 0.5 36.3h-16.5zM178 512.4l8.3-24.8 8.6 24.8H178z m-24.1 25l17.4 0.3 3.7-13.3 23.1 0.3L203 538l14.7-0.5-19.6-56.3c-6.7-12-16.9-8.5-20.9-4.5-4 3.9-23.3 60.7-23.3 60.7z m-71.8-6.7l0.7-40.4s5.5-20.4 30.7-20c25.3 0.3 31.1 16.3 32.1 23.1 1 6.8-3.1 17.7-11.6 20.4 0 0 21.5 10.9 10.6 31.2-10.9 20.4-54.3 28.5-75.1 14.3-20.8-14.3-18.8-12.9-10.2-21.4 0 0 2.4-2 6.1 1.7 3.7 3.7 26.3 22.4 53.9 7.8 0 0 16-4.1 11.3-18.7 0 0-4.1-7.5-15.7-7.8v-11s19.1-4.4 12.3-18.3c0 0-5.5-11.2-20.8-5.4 0 0-6.8 3.4-7.2 7.1l-0.4 37.7s-7.5 9.9-14 2.7l-1.6-1.2-1.1-1.8z m0.7-1v-39.5 39.5z" fill="#00ADEE"></path><path d="M568.4 534.7v-17.8c2-0.4 3.6-2.2 5-5.4l9.8-21.5h25.7v6.3h9.7v-15.8H587l1.2-2.7h-11.5l-1.2 2.7h-23v15.8h9.7V490h9.8l-7.4 16.4c-0.4 1.4-1.4 2-2.9 1.8h-10v8.9h6.8v21.2c0 3 0.4 4.9 1.2 5.7 0.8 1 2.5 1.5 5 1.5h16v-8.7h-10.3c-1.4 0.2-2-0.5-2-2.1zM539.5 483.8H528v51.5c0.2 1.4-0.4 2-1.8 1.8h-14.8v-58.7h-11.8v58.7h-16.9v-53.3h-12.1v62.9h59.8c6.5 0.4 9.5-2.7 9.1-9.3v-53.6z" fill="#231F20"></path><path d="M614.8 518.5l5.1-14.7H610l-3.3 9.3c-0.2 1.4-1 2-2.4 1.8h-7.5l-3.9-15h-10.5l11.4 41.4c0.6 4 2.8 5.8 6.6 5.4h19.1v-9h-14.3c-1.6 0.2-2.6-0.7-3-2.7l-3-11.4h8.7c3.8 0.4 6.1-1.3 6.9-5.1zM667.9 484h-11.8v-6.8h-10.9v6.8h-12.7v9h12.7v51.8h10.9V493h11.8z" fill="#231F20"></path><path d="M635.3 531.2c0.2 1.2-0.2 1.7-1.2 1.5h-0.9v8.9h3.1c5.5 0 8.3-2.6 8.3-7.8v-39h-9.2v36.4zM667.8 531.2v-36.3h-9.3v40.2c-0.5 4.6 2.2 6.8 8 6.6h3.3v-8.3h-1c-0.9 0.1-1.2-0.6-1-2.2zM982.3 479.7h41.7v8.2h-41.7z" fill="#231F20"></path><path d="M455.8 502.2v-9.6h-28.4V489h30.2v-8.4h-5.4l1.2-2.7h-11.5l-1.5 2.7h-34.2l-1.2-2.7h-11.8l1.2 2.7H389v8.4h28.7v3.6h-27.5v6.6h27.5v3H389v6.9h28.7v3h-27.8v7.2h27.8v28h9.7v-28h22.4c4.2 0 6.2-1.9 6-5.7v-4.5h2.1v-6.9h-2.1z m-9.9 8.2c0 1-0.5 1.5-1.4 1.5h-16.3v-2.5h17.7v1z m0-7.9h-17.7V500h17.7v2.5z" fill="#231F20"></path><path d="M406.2 535.3c-0.2 1.6-0.8 2.4-1.8 2.4h-0.9v7.8h6.2c2.9 0.2 4.5-1.4 4.7-4.8l1.8-18.6h-8.8l-1.2 13.2zM402.2 521.4h-9.6v16.4c0 1-0.4 1.5-1.2 1.5h-1.8v8h7.5c3.6 0.4 5.3-1.7 5.1-6.2v-19.7zM440.3 536l-1.5-13.9h-9.3l2.5 18.5c0.2 3.6 2.1 5.2 5.6 4.8h5.9v-7h-0.9c-1.4 0.2-2.1-0.6-2.3-2.4zM446.5 521.4h9.5v25.9h-9.5zM833.6 477.8H822l-4.2 11.3c-0.4 1.8-1.3 2.6-2.7 2.4h-1.8v8.9h4.8v45h11.3V538h33.9v-9.2h-33.9v-13.4h33.9v-9.2h-33.9v-13.8h33.9v-9.2h-31.2l1.5-5.4zM672.8 521.8h-1.1v9.7h3.5c3.6 0 6.1-0.5 7.5-1.5 1.2-1.2 1.7-3.3 1.7-6.5v-26.1h-10.1v22.1c0.2 1.6-0.3 2.3-1.5 2.3z" fill="#231F20"></path><path d="M935.5 521.2c0.2 1-0.3 1.5-1.5 1.5h-2.4l-0.9-5.1h-9.1l4.2 23.4c0.8 4 2.7 5.9 5.8 5.7h10.9v-6.9H938c-2 0-3.1-0.7-3.3-2.1l-1.8-8.7h4.8c3.6-0.2 5.5-2.3 5.5-6.3v-4.8h-7.6v3.3zM975.7 490.7l5.9-12.9h-13.1l-2.1 5.4c-0.8 2-2.1 3-3.9 3H957v8.7h9.2c4.9 0 8.1-1.4 9.5-4.2zM876.3 506.3h6.7v8h-7v8.3h7v15.1c0 4.7 1.6 7.1 4.9 7.1H902v-7.7h-5.8c-2.2 0.2-3.3-0.7-3-2.7v-11.8h11v-8.3h-11v-8h11.3V498h-28.2v8.3zM888.7 491.2h15.1v-9.3h-12.7l1.2-4h-10.6l-2.4 8.1c-0.2 1.2-1 1.9-2.4 1.9h-1.5v8.4h7.9c2.6 0 4.4-1.6 5.4-5.1z" fill="#231F20"></path><path d="M916.1 537.6v-21.9h20.2c4.3 0 6.3-1.8 6.1-5.3v-30.1h-36.7v61.3c0 2.9 1.9 4.4 5.8 4.4h10.1v-6.8h-4c-1 0.1-1.5-0.5-1.5-1.6z m1-51.6h16.4v6.3h-16.4V486z m0 14.6h16.4v4.5c0.2 1.4-0.3 2-1.6 1.8h-14.8v-6.3zM962.1 501.5c-0.2 0.2-0.2 0.3 0 0.3-0.4 0.8-1.1 1.2-2.1 1.2h-3.6v10.1h5.2v32.4h11.8v-37.2l5.8-12.8h-13.7l-3.4 6zM981 505.7h27.5v28.6c0 2.2-0.7 3.2-2.1 3h-17.6v9.5h20.9c7 0 10.5-2.8 10.5-8.3v-32.8h3.9v-8.9h-43v8.9zM805.9 477.2l-5.5 12.2c-0.6 1.6-1.7 2.3-3.3 2.1h-2.7v8.7h5.2v45.3h10.9v-51l6.7-17.3h-11.3zM779.8 516.4H714v29.1h56.7c6.3 0.2 9.3-2.7 9.1-8.6v-20.5z m-13.7 20.2h-40.6v-12h43v9.7c0.1 1.6-0.7 2.3-2.4 2.3zM699.1 477.8h-10.7v6.3h-17.3v8.7h17.3v42.5c0.2 1.4-0.4 2-1.8 1.8h-13.4v8.4h17c3.8 0 6.2-0.5 7.2-1.5 1.2-1 1.8-3.1 1.8-6.3v-44.9h3v-8.7h-3v-6.3zM713.4 503.1h67v8.2h-67zM775.8 487.2l-5.1-10h-42.9l-7.1 10.6c-1 1.4-2 2-3 1.8h-3v8.4h7.7c2.6 0.2 4.7-1 6.3-3.5l5.7-8.8h28.9l4.5 8.8c1.2 2.5 3.7 3.7 7.4 3.5h6.5v-8.5h-2.4c-1.5 0-2.7-0.8-3.5-2.3z" fill="#231F20"></path></svg>