<svg viewBox="0 0 1024 1024" version="1.1" xmlns="http://www.w3.org/2000/svg"><path d="M224 0h576c123.6 0 224 100.4 224 224v576c0 123.6-100.4 224-224 224H224c-123.6 0-224-100.4-224-224V224C0 100.4 100.4 0 224 0z" fill="#FFFFFF"></path><path d="M234.4 448c-18 0-32.8 14.4-32.8 32.4s14.8 32.4 32.8 32.4c18 0 32.8-14.4 32.8-32.4 0-17.6-14.8-32.4-32.8-32.4z m208.8-46.8s-98.4-93.6-234-11.6c-31.6 19.2-50 47.6-59.6 74-31.2 86 40.8 188.8 137.2 198.8 0 0 89.2 18 152.4-28.4l34 30s-130 93.6-279.6 9.2C44 588.4 72.8 383.2 235.6 328.8c0 0 136.4-49.2 248.4 46.8l-18.4 11.6-22.4 14z" fill="#F4811F"></path><path d="M795.6 419.2h39.2l-1.2 59.2 8-1.2 45.6-55.2h38.4l-60.4 72 66.8 80.8h-44.4l-49.2-60.4h-3.2v61.2h-40.4l0.8-156.4z m-156.8 156.4l-0.8-157.2s45.6-9.6 57.2 30.4l32.4 63.2 5.2-0.8 0.8-92.8 37.6 0.8v156.4h-34L678 488l1.2 87.6h-40.4z m-108-62l20-60 20.8 60h-40.8z m-58.4 60.8l42.4 0.8 9.2-32 56 0.8 11.6 32 35.6-1.2-47.6-136c-16.4-28.8-40.8-20.4-50.8-10.8-9.6 9.2-56.4 146.4-56.4 146.4z m-174-16.4l1.6-97.6s13.2-49.2 74.4-48.4c61.2 0.8 75.2 39.2 77.6 55.6 2.4 16.4-7.6 42.4-28 49.2 0 0 52 26.4 25.6 75.2-26.4 49.2-131.6 68.8-182 34.4-50.4-34.4-45.6-31.2-24.8-51.6 0 0 5.6-4.8 14.8 4 9.2 9.2 63.6 54 130.8 18.8 0 0 38.8-10 27.2-45.2 0 0-10-18-38-18.8V508s46.4-10.8 30-44.4c0 0-13.2-27.2-50.4-13.2 0 0-16.4 8.4-17.6 17.2l-0.8 90.8s-18.4 23.6-34 6.4l-4-2.8-2.4-4z m1.6-2.4v-95.2 95.2z" fill="#00ADEE"></path></svg>