<svg viewBox="0 0 1024 1024" version="1.1" xmlns="http://www.w3.org/2000/svg"><path d="M228.1 577.5c0.4-3.4 0-8.7-0.5-10.6 0.1-0.3 0.1-0.3 0-0.6 0.4-0.3 0.4-0.8 0.5-1.4-0.5-0.4-0.1-1.2-0.6-1.6 0.1-0.3 0.4-0.4 0.4-0.7-0.6-0.9 0.2-2.1-0.1-2.9 1.4-2.2 0-3.1 0.9-4.1 0-0.7 0-1.7 0.5-2.2 0-0.3 0-0.2-0.1-0.5 0.6-3.2 1-5.2 1.4-6.9l0.3-0.5c0-0.5 0.1-0.7 0.3-0.9 0.2-1.4 0.5-1 0.3-1.7 0.3-3 1.3-4.9 1.1-6.7 0.5-0.7-0.1-1.5 0.2-2.2-0.6-0.2-0.6-1.2-0.8-1.9 0.1-0.2 0.4-0.2 0.4-0.4-0.6-0.8-0.4-2-1-2.6 0.1-0.2 0.1-0.4 0.1-0.6-0.5-0.3-0.5-0.7-0.4-1.4l-0.3-0.4c-0.1-2.2-1.2-3.7-1.5-5.8-3.5-9.7-8.5-27.7-1.6-37.4 0.2 0 0.3-0.1 0.5-0.1 0.2-0.7 1.4-0.7 1.2-1.6-1.2 0.2-1.6 1.1-2.7 1.7-0.1 0.4-0.7 0.3-0.9 0.6-1 0.1-1.6 0.8-2.6 1-2 0.8-3.7 1.9-4.7 2.2-10.7 21.6 8.3 38.2 7.8 76.7 0.6 5.5 0.5 10.6 1.9 13.5zM42 489.5c-1.6 0.1-1-0.5-1.6-0.3-10-14.5-28.5 8.7-24.6 18.1 9.6 12 23-8 27.9 19.3 0.4-0.1 0.6-0.5 0.7-1 0-4.5-0.4-10.1 0.6-14 1.1-6-4.8-13.1-1.2-18.7 0.6-0.4 2.6-1.9 2.3-2.8-2.6-0.2-3.4-0.2-4.1-0.6z m-0.7 13.9c-8.3-1.7-26.9 1.4-16.4-11.5 5.4-1.1 6.6 6.8 13.6 5.2 1-0.2 1.2-1.4 2.1-1.4 0.4 1.7 0.9 7 0.7 7.7zM70.4 533.9l0.3-0.6c-0.7-7.9-7.7-22.2-7.5-33.9 0.3-4.1 0.2-7.6 1.4-9.8-0.2-1.1 0.8-1.9 0.9-2.8l0.5-0.3c0.5-1.7 1.6-2.8 2.7-3.9l-0.2-0.1c-3.9 2.6-6.7 3.7-9 4.9-0.1 0.3-0.5 0.3-0.7 0.6-0.4-0.2-0.7 0.3-1.1 0.4-0.1 0.2-0.2 0.5-0.2 0.8-9 21.5 4.9 37.7 5.6 57.4 1.5 9.3-0.2 24.4 4.5 31-0.2-0.5 0.3-1.5-0.2-2l0.1-0.7c-0.5-0.9-0.5-1.8-0.7-3.2l-0.3-0.3c-0.3-3.5 0-6.8-0.5-9.1 0.4-3.6 0.8-5.4 0.4-7 0.2-0.4 0.5-1 0.4-1.5l0.3-0.1c0.1-1.6 0.4-2.3 0.8-2.7-0.2-0.4-0.1-0.7-0.2-1.2 0.6-0.5 0.4-1.3 0.6-2.2 0.3-0.1 0.4-0.4 0.5-0.6-0.2-0.5-0.3-1.5 0.2-1.9-0.5-0.2 0.1-0.8-0.1-1.2 0.4-0.5 0.4-1.4 0.9-1.9-0.1-1.8 1.4-3.1 0.7-5.3l0.5-0.3c-0.2-0.9-0.4-1.7-0.6-2.5zM77.7 487.2c-7.3 7.9-2.1 30.7 8.4 39.3 0.3-0.2 0.2-0.5-0.1-0.7 0.7-1.1-0.3-2.2-0.5-3.2-0.8-0.4-0.8-1.6-1.3-2.3 0.2-1-0.4-2 0.2-2.9h0.3c0.3-1.2 0.8-2.2 0.2-3.3 0.3-0.8 0-1.7 0.6-2.4-0.3-0.6 0.1-1.1 0.6-1.2-1.5-8.7-6.9-22.3 2.9-28.4-1.5 0.6-1.5 0.7-2.2 0.7-3.8 1.3-6.8 3.2-9.1 4.4zM206.1 526.6c-0.3-4.1-1.2-7.2-1.1-10 0.8-2.7 0.2-4.4 0.9-5.2-0.1-0.5-0.3-0.9 0-1.3-0.2-0.1-0.5-0.1-0.5-0.5 0.4-0.2 0.2-0.7 0.5-1-0.4-0.8-0.7-1.9-1.3-2.5-2.5-6.9-3.4-15.9 0.9-20.6 1.5-3.1 2.2-2 2.8-3.3l-0.2-0.1c-4.1 2.4-7.3 3-9.7 5-0.4 0.1-0.6 0.4-1.1 0.4-6.5 10.1-4.2 22.5 3.7 32.2 3 3.4 3.7 4.9 5.1 6.9zM170.1 501.1c3.1-2.6-2-12.4 1.2-13.6 0.5-1.1 1.4-1.8 2.1-2.8-0.7 0.2-2.1 0.9-2.6 1.3-1.4 0.4-6.6 4.6-7.6 5.2-0.3 0.4-0.7 0.7-1.1 1-1.2 6 1.2 7.6 1.2 12.9-3 3.2-5.7 4.9-7.8 7.1 0.4 0.2 0.8 0 0.9-0.5 0.2-0.1 0.6-0.1 0.9-0.2 0.3-0.6 1.1-0.6 1.6-0.8 0.2-0.4 0.6-0.7 1.1-0.8 0.1-0.3 2.3-1.3 2.4-1.5 12.5-5.9 18.7 9.2 19.4 17.6l0.1 0.9c0.4-0.1 0.4-0.5 0.6-0.7 0.4-4.6 0.9-8.7 0.9-10 0.9-0.9 0.6-2.1 0.9-2.4 1-0.5 0.7-2.3 1.9-2.7 0.6-1.1 0.6-1.4 0.4-1.9 0.4-0.3 0.4-0.9 0.7-1.2-1.2-2.3-1-5.4-1.9-6.5-1.3-5.1-1.9-10.3-1.3-13.9-0.1-0.5 0.1-1 0.1-1.5 1.5-2.9 2.6-2.9 3.2-3.9l0.2-0.2c-4 2.5-7.7 5-10.6 6.8-2.3 3.9-0.9 9.4-1.1 11.7-2.1-0.4-4 1.1-5.8 0.6zM173.5 476.7c-0.1-0.3-0.5-0.4-1-0.4 0.1 0.5 0.8 0.5 1 0.4zM81.5 477.8h0.3c0-0.3-0.3-0.3-0.3 0zM94.4 471.9c0.5-0.1 0.7-0.4 0.9-0.8h0.4l0.1-0.3c3.2-4.1 8.7-2 11.8-1.6 0.6 0.6 2.1 0.4 2.8 0.9 7.1 1.8 14.5 6.4 17.4 11.1 1.6 1.8 1.9-0.8 1.6-1.5-0.9-0.8-1.3-2.2-2.3-2.9-0.9-6.3-0.1-5.7 0.2-7.9 1.1-0.6 0.9-2.6 2.2-3.1l0.1-0.4 0.5-0.1c0.5-0.9 1.7-1 2.4-1.7 0.4 0.1 0.7-0.2 1-0.4 1.3 0.1 2.2 0.1 3.6 0.3 0.1 0.2 0.4 0.3 0.8 0.3 0.6 0.6 1.9 0.5 2.5 1.2 0.5 0 0.7 0.3 1.1 0.5l0.4-0.1c2.8 1.4 3.9 1.6 4.4 1.8 9.2 4.3 18.2 7.3 25.8 8.9-2.3-1.1-3-1.4-4.7-1.8v-0.3c-1-0.2-1.5-0.8-2.2-1.1l-0.4 0.1c-0.4-0.8-1.5-1-2.2-1.6l-0.1-0.4c-0.6-0.2-1-0.5-1.4-0.9-0.6 0.4-1-0.5-1.6-0.5-0.5-1.1-1.2-1.7-1.7-2.8 0.1-0.3 0.1-0.3 0.1-0.7-0.2-0.2-0.5-0.3-0.4-0.9-0.2-0.1-0.4 0.1-0.5-0.1 0.2-1-0.9-1.1-1-2-0.6-0.1-1-0.5-1.4-0.6-0.1-0.2 0.2-0.3 0-0.5-0.2 0.1-0.4 0.1-0.7 0.1l0.6-1c-3.1-1.3-6.5-2.6-8.7-2.9-4.4-1.7-9.5 1.1-11.7 2.7-0.2 0-0.2 0.1-0.4 0.1-0.4 0.4-0.8 0.5-1.3 0.6-3.1 2.2-2.9 2.3-4.1 3.2l-0.1 0.4c-2.8 2.5-2.3 6.3-3.1 8.3-0.4 0-0.5-0.1-0.7-0.2 0-0.3 0-0.5-0.1-0.8-0.4-0.2-0.7-0.5-0.6-1.1-0.8-1.4-1.5-2.6-1.5-3.5-0.6-0.4-1.3-0.7-1.2-1.8-0.5-0.2-0.7-0.6-1.1-0.9-0.1-2.3-2.2-1.9-2.7-2.6l-0.4 0.2c-7-3.6-15.7-1.5-19.5 3.5-0.2 0-0.3 0.2-0.5 0.2-1.9 2.1-2.9 3.5-3.9 4.3 0 0.3-0.2 0.3-0.2 0.6-1 0.5-1.5 1.6-2.1 2.5 0.5 0 0.8-0.1 1.3-0.1 0.8-0.6 1.9-1.1 2.5-1.9z" fill="#231916"></path><path d="M30.8 475.2c3 1.4 8.6 8.2 10.4 9.1 0.2-0.9 0-1.8-0.7-2.1-0.1-0.2-0.1-0.3-0.1-0.5-0.8-0.6-0.7-2.1-1.4-2.7-0.1-0.4-0.3-0.7-0.2-1.3-4.5-27.8 28.6-1 42.8-0.1-0.1-0.2-0.2-0.4 0-0.6-4.3-0.8-12.6-5-15.8-11.1l-0.3-0.1c-0.1-0.3-0.2-0.5-0.2-0.8-0.8-0.5-1.1-1.5-1.8-2.1v-0.3c-0.3-0.1-0.6-0.2-0.6-0.5-0.2 0-0.3 0.1-0.5 0.1-0.2-0.3-0.3-0.4-0.4-0.7-0.3 0-0.4-0.3-0.7-0.1l-0.1-0.4c-0.9 0-0.9-1-2-0.9-0.4-0.4-1.4-0.7-2-0.5-1.1-0.7-1.8-0.1-2-0.8-1.5 0.4-2.5-0.7-4-0.2-0.8-0.7-1.6 0.4-2.4 0.3-0.3 0.2-0.5 0.3-1 0.3-7.3 4.1-13.3 8.9-11.2 16.6-8.2-12-14.6-20-28.5-7.1-1.3 1.2-4.6 4.6-5.1 6.1 1 0.4 1.6-0.4 2.5-0.2 6.1-8.3 19-3.5 25.3 0.6zM307 486.1c-0.4 0.6-1.1 0.7-1.8 1-2.8 4.1-2.6 6.6-3.2 10.2l-0.2 0.4c0.2 1.9 0.1 3.6 0.5 5.6 0.5 0.5 0.2 1.6 0.6 2.1 1.2 8.5 5.6 14 9.5 19.6l0.5 0.3c0.2 0.7 0.5 1.2 0.8 1.7 0.4 0 0.4-0.4 0.8-0.4 0.2-2.1-1.2-3.2-1.4-5.2-0.5-0.3-0.7-0.8-1-1.2 0.3-0.2 0.2-0.7 0.1-1 0.8-2.1 0.7-2.6 1.3-3.6 0.2-1.7 0.9-2.5 0.6-3.4-0.1-0.1-0.4 0-0.3-0.2h0.9c0.2-0.5 0.3-1.1 0.3-1.6-0.3-0.3-0.6-0.5-0.5-1.1-2.1-5.2-4.4-14.3-3.1-18.7-0.1-0.4 0-0.5 0-0.9 0.5-0.6 0.3-1.8 0.9-2.2-0.2-0.8 0.4-1 0.4-1.6 0.5-0.2 1-0.4 0.9-1.2 0.2-0.2 0.4-0.4 0.7-0.5 0.2-1.1 1.5-1.1 1.7-2.1l-0.1-0.1c-3.4 1.6-6.8 3.2-8.9 4.1z m5.5 27c0-0.1 0.1-0.1 0.1-0.2 0 0.1-0.1 0.2-0.1 0.2l0.4-0.2v0.1c-0.1 0-0.1 0.1-0.1 0.1-0.1 0.1-0.2 0.2-0.4 0.2 0-0.1 0.1-0.1 0.1-0.2zM354.6 490.7c-0.7-3.8-0.4-5.3 0.6-7.2-3.7 2.4-5.7 6.2-8.6 4.3-4.2-0.6-4.5-3.2-7-4.1-0.1-0.5-0.9-0.3-1.2-0.7-0.8-0.2-1.4 0.1-2.1 0.2l-0.2 0.3c-2.8 0.9-3.9 3-5.4 3.6 0 0.3-0.2 0.4-0.5 0.5-3 3.1-4.7 5.5-6.3 6.9-0.7 0.8-0.5 0.7-0.7 1.2-4.9 3.2-2.6 12.4 1.3 14.7l0.1 0.3c5.8 4.5 11.6 6.3 16.3 9.4 0.3 0 0.3-0.1 0.5-0.1 4 2.4 8.1 2.7 10.4 4.2 0.3 0 0.2-0.4 0.5-0.5 0.4 0.1 0.7 0.3 1 0.1-0.2-0.7-1.2-0.7-1.6-1.3-1.3-0.2-1.8-1.2-3.1-1.2-1.8-1.8-2.6-1.4-3.3-1.7-0.1-0.2-0.6-0.1-0.5-0.5-1.1-0.2-1.4-1.1-2.7-1l-0.3-0.5c-0.9-0.2-1.3-1.1-2.4-0.9-0.6-0.8-1.8-1-2.5-1.7h-0.5c-0.5-0.8-1.9-0.6-2.2-1.5-0.3 0-0.5-0.1-0.8-0.1 0-0.5-0.4-0.6-0.6-0.8-1.2-2.1-2.5-2.7-2.5-4.4-0.5-1.2-0.7-2.3-0.7-3.5-0.8 0.1-0.3-0.3-0.4-0.6-0.5-0.3 0-1.2-0.4-1.6 0.4-0.3 0.2-0.9 0.4-1.4l-0.3-0.3c0-0.2 0.2-0.2 0.2-0.4-0.3-0.3-0.4-0.8-0.8-0.9-0.7-3.4-0.9-3.7-1.1-5.4l0.3-0.2c-0.1-1.3 0.7-1.6 1.2-2.3 1.2-0.1 2-2.5 3.2-1 2.1 1 2.6 2.2 3.7 2.6 1 1.4 3.2 1.5 4.8 2.2 0.3-0.2 1.2 0 1.6 0 0.1 0.3 0.1 0.5 0.2 0.7-0.1 0.3-0.3 0.4-0.3 0.7-2.8 1.9-5.5 4-8.1 6.1-1.3 2.4 1.5 4.8 1.8 5.7 3.6 3.2 6.8 3.6 8.7 4.9 0.2 0 0.3 0.1 0.5 0.1 0.2 0.3 0.6 0.5 1 0.7 0.7-0.6 1.2-1.2 1.9-1.7 3.3-1.6 6.1-4.2 6.8-6.4 0.6-0.2 0.7-1 1.3-1.2 1.8-5 0.2-7.1 0.1-10.1-0.9-1.1-0.7-2.8-1.3-4.2z m-5.9 14.5c-1-0.7-1.1-0.5-1.4-0.7-0.1-0.3 0.1-0.3 0.1-0.5-0.8-0.8-1.1-0.5-1.5-0.6l-0.6-0.6c-0.1 0-0.1-0.1-0.1-0.2-0.9-0.4-0.5-0.3-1-0.4-0.3-0.3-0.4-0.7-0.7-0.9 0-0.1-0.1-0.2-0.2-0.2-0.9-1.4-0.8-1.3-1.2-1.5-1.3-1.6 0.3-1.7 0.3-2l3.8-1.9h0.5c0.6 2.8 0.8 4.3 1.3 5.8 0.8 2.4 1.1 2.8 0.7 3.7zM397.7 536c-2.3 1.5-1.3 8-1.8 10.2-0.5 0.6-0.1 1.9-0.6 2.4-0.8-0.6-2.1-0.7-2.7-1.5-0.3 0-0.4-0.1-0.7-0.1-0.2-0.3-0.4-0.7-0.9-0.7 0-0.3-0.3-0.3-0.3-0.6-0.9-0.3-1.5-1.3-2.3-1.6-0.1-0.7-0.8-0.7-0.8-1.5-0.1 0-0.5 0-0.3-0.3-0.9 0-1.2-1.1-1.9-1.5l0.1-0.5c-0.4-0.3-0.9-0.5-1-1.1-0.6 0.1-0.5-0.5-1.1-0.5-0.4-0.9-1.4-1.3-1.9-2.1v-0.4c-0.7-0.8-1.2-1.9-1.9-2.7 0.1-0.6-0.5-0.9-0.4-1.6-1.1-1.1-0.2-2.5-0.2-2.9-0.4-1-0.5-2.4 0-3.4 0.4-4.2-0.5-6.3-1.4-9.1-0.2-0.2-0.5-0.4-0.7-0.7-3.4-8.7-3.7-18.2-2.6-25.4 1.1-2.8 1.8-5.3 2.9-6.5 0.4 0 0.5-0.3 0.9-0.4 0.3-0.9 1.3-1.1 1.9-1.8-2.5 0.9-3.3 1.3-3.6 1.5h-0.5c-3.3 1.7-5.4 2.6-7.3 3.7-1.2 1.4-1.4 2.6-2 3.5-5.3 17.3 1.7 36.4 13.6 47.5 5.1 5.3 10.2 9.5 15.6 12.4 1.1-1.4 0.4-3.9 1.3-5.6-0.4-1.4 0.6-3.2 0.4-4.8 0.1-0.2 0.3-0.3 0.3-0.5-0.6-1 0.2-2.2-0.1-3.4z" fill="#231916"></path><path d="M314.2 512.9h0.5c0.1-0.4-0.5-0.4-0.5 0zM398.3 525.3c-0.3-0.4-0.5-0.8-1-1 0-0.5-0.4-0.4-0.6-0.7l0.1-0.5c-0.6-0.1-0.6-0.6-0.6-1.1-0.8-0.2-0.8-1.1-0.8-1.8-0.5-0.4-0.4-1-0.8-1.5 0.6-2.5 0.3-3.5 1.2-4.1 0.3-1.8 0.7-2.9 0.9-3.8-0.3-0.2-0.3-0.5-0.3-0.9-4.8-8.6-4.5-18.7-0.8-25.9 1.1-1.4 2.4-2 2.6-2.2-2.1 0.9-4.8 2.3-5.9 2.3-2.8 1.4-4.2 1.8-5.4 2.3-1.4 2.5-1.8 2.9-1.7 4.1-1.2 3.4-1.1 7.2-1.9 9.3 0.1 12.6 7.5 20.1 14.7 27.2l0.3-0.2c-0.1-0.5-0.2-1.1 0-1.5zM154.5 573.2c-0.2-0.3-0.4-0.6-0.4-1.1-1.3-0.5-1.4-2.4-2.6-2.5-0.2-0.6-0.4-1-0.9-1.3 0-1.1-1.1-1-1.2-2-1-0.8-1.6-2-2.6-2.7 0-0.4-0.5-0.7-0.9-0.9-0.1-1.2-0.7-2-1.2-2.9l-0.4-0.1v-0.5c-1.8-2.5-2-5.2-2.8-6.9-0.3-0.3-0.3-0.7-0.6-0.9-0.1-0.4 0-0.7-0.3-0.9 0.5-1-0.5-1.6-0.6-2.4-1.5-3.1-0.6-2.6-1.5-3.8l0.1-0.3c-0.3-0.5-0.7-0.9-0.7-1.7-1.5-0.4-0.9-2.9-2.1-3.5-1.6-3.3-0.9-2.4-1.6-3.9-0.8-0.5-1.1-1.3-2.2-1.5-0.9-0.9-0.7-0.6-0.8-1.3-0.4-0.1-0.7-0.3-0.8-0.7-0.3 0.1-0.3-0.1-0.5-0.1-0.1-0.2-0.3-0.3-0.4-0.5-1.2-0.4-2-1.2-3-1.8l-0.4 0.1-0.3-0.4c-1.1-0.7-1-0.5-1.6-0.7l-0.1-0.2c-7.5-3.9-16.7-3.5-22.9-2.4 0.1-0.2-0.1-0.3-0.1-0.4 4.2-3.8 3.4-5.2 10.1-8.9 3.4 1.9 3.3 2.2 4.9 1.9 0.3 0 0.7 0.3 1 0.1 3.6 0.9 8-1.4 8.6-3.3 1.3-0.3 2.3-0.9 2.8-1.9 0.9-0.4 1.5-1 2.3-1.3 0-0.2 0.1-0.3 0.1-0.5 0.8-0.5 1.5-1 1.8-1.9-3.4 2.6-10.3 3.7-13 0.5-4.5-0.6-8.4 4.9-10.9 5.5l-0.4-0.2c0.2-0.5 0-9.9 4.2-6.9l0.3-0.3c1.7 0.5 3-1.1 4.6-1.4 1-1.4 2.9-1.8 4.1-3 0.5 0 0.6-0.2 1.1-0.2 0.9-1 2.4-1.5 3.3-2.6 0.5 0 0.6-0.3 0.8-0.5 0.8-0.1 1.3-0.5 1.8-1 1.2-0.2 1.4-1.6 2.3-2.2 0-0.5 0.3-0.7 0.6-1 0.8-4.6-4.7-7 0-9.8 0-0.5 0.4-0.5 0.6-0.7l0.1-0.4c0.1-0.1 0.5 0 0.3-0.3-9.2 5-16.1 3.6-9.4 15.3-2 2.2-9.4 0.6-10.4-4.9 4.3-4.5 0.3-8.6 3.6-11.3-1.6 0.5-2.7 1.5-4 2.3-7.2-3.6-3.4-4.8-9.8 0.6-4.8 5.2-14.9 10.8-7.9 16.5 2 1.8 0.6 3.6 0.8 4.4 0.6-0.5 2.3-3.2 3.2-3.6 3.7-3.3 4.8-7.2 1.1-11.2 0.2-0.1 0.4-0.3 0.3-0.7 0.6-0.3 1.1-1.3 1.9-0.7-0.1 0.4 0.2 0.5 0.2 0.7 11.3 4.7-3.5 11.3 5.7 15.1-11.8 4.5-3.9 13.6-9.2 18-0.5 1.2-1.6 1.8-2.2 2.8-2.1 1.6-3.4 2.3-4.3 2.7 0 0.4 0.4 0.2 0.4 0.7 40.5-7 40.1 24.1 61.6 42.3 0.3 0 0.3 0.2 0.5 0.3l0.1 0.3c1 0.7 1.4 1.9 2.5 2.5-0.9-2.6-1.6-2.4-2-3.4-0.3 0-0.4-0.2-0.7-0.2z" fill="#231916"></path><path d="M171.7 535.3c-0.3-0.1-0.3 0.1-0.6 0.1-0.1 0.2-0.1 0.4-0.3 0.5-1.5 5.6 2.8 19.6-6.3 11.2-0.5 0.1-1.4-0.6-1.9-1.4-7.8-3.8-10.5-13.3-9.6-21.1 0.4 0.1 0.3-0.5 0.5-0.8-0.2-0.3-0.4-0.4-0.3-0.9l-0.3-0.3c-0.1-0.6-0.2-1.2-0.6-1.6-4.9-9-5.7-27.4-2.1-34.9 2.6-2.5 2.9-2.8 3.8-3.8h-0.6c-4.8 2.4-8.1 4-11.3 5.7-8.7 19.6-0.8 43.7 17.4 57.6 16.5 13.4 10.4-1.4 12.2-10.3zM291.4 493.6c-0.8-0.9 0-2.4 0-3.3 0.6-0.7 1.4-1.3 2.2-1.9 0-0.2-0.1-0.4-0.3-0.5-3.2 2.1-5.8 3.1-7.6 4.7-0.4-0.3-0.9 0.3-1.3 0.4l-0.1 0.4c-1.2 1.1-1.5 1.4-1.5 2.2-2.4 8.2 4.6 11.1 3.3 18.8-4.6 5-24-0.7-11.3-16.9-0.2-0.5 0.2-0.7 0-1.2 1.7-3.5-1.8-7.3-0.4-9.6 0.5-0.2 0.7-0.8 1.1-1.2 0.7-0.1 1.4-0.7 1.3-1.4-2.5 1.6-3.7 2.9-5.4 3.3-4.8-5.8-8.5-1.8-12.6 3.4-0.6 0.8-9.6 9.7-6 12.3 3.1 3.2 4.8 6.2 4.1 9.1 0.8-0.3 0.8-1.4 1.4-2-0.1-1.2 0.7-1.5 1-2.4 0.8-3.3 1.2-6.6 2-7.5 0-0.2-0.1-0.3-0.1-0.5 0.3-0.2 0.5-0.6 0.7-1-0.2-0.1-0.4-0.4-0.3-0.8-3.2-3-3.8-6.2-0.6-5.5 16.7 9.8-4.9 17.4 3.7 27.3 0.2 0.1 0.4 0.2 0.5 0.4 0.6-0.2 0.9 0.6 1.4 0.5 0 0.2 0.2 0.4 0.5 0.3l0.1 0.4c6.5 3.4 14 2.2 17.3-1.8 0-0.5 0.5-0.5 0.6-0.9 1.1-0.2 1.7-0.9 2.5-1.3 0-0.2 0.1-0.3 0.1-0.6 0.3-0.1 0.5-0.2 0.7-0.4v-0.5c1.4-1.8 1.6-2.4 2.6-2.5 2.3-2.8 3.8-5.9 3.6-8.4l-0.3-0.4c-0.6-5.3-3.4-6.8-2.9-11z" fill="#231916"></path><path d="M268.7 542.9c-0.8 0.8-2.3 0.9-2.9 1.8h-0.5c-0.4 0.5-1 0.8-1.7 1-0.2 0.4-0.6 0.6-1.1 0.8 0.1-0.1 0.2-0.3 0.4-0.3 1.1-5.3 2.4-9 2.2-12 0.1-1.3-0.7-1.1-0.6-1-1.2 3.1-1.2 8-1.9 10.5-0.2 0.1-0.2 0.4-0.3 0.7-0.4 0.2-0.4 0.7-0.8 0.8-0.3-0.1-0.2-0.3-0.3-0.5-1.1-0.4-2.1-0.9-2.7-1.9-0.3 0-0.4-0.3-0.8-0.2-0.4-0.7-1-1.3-1.8-1.7-0.1-1.2-1.1-1.9-1.7-2.8-1.5-0.5-1.8-1.9-2.3-3.3-0.6-0.3-1.1-0.9-1.1-1.6-0.3-0.1-0.4-0.5-0.5-0.9-0.2 0-0.3-0.1-0.5-0.1-0.8-0.8-1.2-2-1.8-3l0.2-0.5c-0.2-0.5-0.4-1-0.8-1.3 0-1.9-0.3-3.9 0.1-5.5-0.4-0.3-0.1-1-0.3-1.4 1-1.4 0.2-2.9 0.1-4.3l0.5-0.1c0-0.7-0.4-1.6-1.1-1.6 0.1-0.7-0.2-1.3-0.2-2.4l-0.4-0.1c-1.6-4.7-2.1-10.3-2.4-14 0.2-4.1 0.7-10 2.4-13.4l0.5-0.4c0.3-1 1.4-1.3 1.9-2.2l-0.1-0.2c-0.5 0.4-1 0.8-1.5 1.5h-0.5c-23 7.4-8 44.5 5.2 55.8 0.4 0 0.4 0.3 0.7 0.3 0.8 1.1 1.6 2 2.8 2.7 0.3 0.6 0.9 0.8 1.2 1.4 2.7 1.6 4 2.9 5.9 3.2-0.3 0.1-0.5 0.3-0.7 0.5 0.5 0.7 1.6 0.8 2 1.7 0.2 0 0.3 0.1 0.6 0.1 0.5 0.7 1.6 1.1 1.8 2.3 8.4 12.3-2.9 27.7-12 33.1-5.9 3.8-10.9 5.7-12.1 5.3-0.2 0.2-0.6 0.3-0.8 0.5-2.1 0-5.7-0.2-6.2 0-0.3-0.2-0.3-0.3-0.6-0.1-5.2-1.2-7.4-2-10.9-2.6-2.5-1.2-3.5-1.1-4.5-1.8-5.1-1.9-6.9-2.7-9.9-4.5-0.2 0-0.4-0.1-0.6-0.1l-0.4-0.5c-1.1-0.3-1.9-1.1-3-1.5-0.2-0.4-0.6-0.6-1.2-0.7-6.4-3.2-27-22.9-34.5-17.8-0.8 0-1.1 0.5-2 0.4-1.4 0.7-3 1.1-4.2 1.9 2 1.8 4.5 0.3 5.7 2.3 0.3 0 0.3 0.1 0.6 0.1 0.2 0.3 0.4 0.4 0.6 0.7 2.3 1.3 3.7 2.5 4.9 3.3h0.5c0.2 0.3 0.6 0.4 1 0.5 0.4 0.7 1.2 1 1.7 1.5h0.5c0.1 0.2 0.2 0.5 0.3 0.7 1.1 0.7 2.6 1 3.3 2 2.6 1.3 5.1 3.5 6.4 4.4 0.4 0 0.7 0.2 0.8 0.5 1.9 0.7 3 2.2 4.9 2.9l0.3 0.5c3.6 1.7 6 3.8 8.2 4.3 3 1.7 2.8 1.5 4.3 1.9 0.4 0.3 0.8 0.5 1.2 0.9 0.2-0.1 0.5 0 0.6-0.1 1.7 1.3 4 1.7 5.1 1.7 0.5 0.4 1.3 0.8 2 0.5 5.1 2.2 9.3 1.9 12.8 2.4 0.4-0.4 1.3-0.3 2.2-0.2 2.2-0.6 1.6 0.2 2.7-0.4 0.7 0.3 1.5 0.2 2-0.2 2.2 0.8 1.8-0.4 2.4 0.1 0.3-0.4 1-0.3 1.2-0.7 0.7 0.1 1.4-0.6 2.2-0.4 1-0.6 2.3-0.6 3.2-1.3 1.1 0.2 2.2-0.2 2.6-0.9 0.6-0.2 1-0.5 1.3-0.9h0.5c0.6-0.9 0.8-0.5 1.2-0.5 0.4-0.4 1.1-0.5 1.3-1.1 3.4-1.2 3.8-2 4-2.6l0.3 0.1c0.4-0.6 1.3-0.6 1.8-1 1.1-0.8 2-1.8 2.3-1.8 0.1-0.2 0-0.6 0.2-0.8l0.7-0.1c0.1-0.1 0-0.3 0-0.5 1.7-0.3 2.2-1.8 3.3-2.8 0.4 0 0.7-0.5 1.1-0.6 1.2-2.4 2.4-1.8 2.8-2.7 0.7-0.1 1.6-0.3 1.7-1.3 0.5-0.1 0.7-0.5 0.8-1.1 0.9 0 0.8-1 1.3-1.4v-0.3c0.7-0.5 0.9-1.4 1.4-2.1l-0.1-0.4c0.9-0.3 0.8-1.6 1.5-2.1v-0.5l0.5-0.3c0.2-1.3 1.1-1.6 1-3.1l0.4-0.1c0-0.5 0.6-0.7 0.1-1.4l0.3-0.4c-0.2-0.2 0-0.4 0.1-0.6 3-8.2-2.9-19.2-8.3-16.6zM276.6 483.8v0.3h0.2c-0.1-0.1-0.1-0.2-0.2-0.3zM276.8 484.1z" fill="#231916"></path><path d="M634.2 577h1c2.3 0 3.9-0.6 4.8-1.7 1-1.2 1.5-3.1 1.5-5.8 0-2.2-0.5-3.9-1.4-4.9s-2.4-1.5-4.5-1.5c-0.3 0-0.8 0-1.4 0.1h-0.2l0.2 13.8z m-0.1-28.3v12.8h0.4c2 0 3.4-0.6 4.4-1.6 1-1.1 1.4-2.8 1.4-5 0-2.3-0.4-3.9-1.1-4.8-0.8-0.9-2-1.4-3.9-1.4H634.1z m-13.9 30v-1.3l3-0.4c0.1-1.5 0.2-3.7 0.2-6.4s0.1-5.8 0.1-9.2c0-2.9 0-5.3-0.1-7.2 0-1.9-0.1-3.6-0.2-5.1l-3-0.4v-1.3h5c3 0 6.5 0 10.3-0.1 3.8 0 6.2-0.1 7-0.1 2.7 0 4.7 0.6 6.1 1.7 1.4 1.1 2.1 2.8 2.1 4.9 0 2.4-0.7 4.2-2.2 5.5-1.4 1.3-3.7 2.1-6.7 2.5v0.5c3.6 0.1 6.3 0.8 8.1 2.1 1.8 1.3 2.7 3.2 2.7 5.7 0 1.5-0.4 2.9-1.1 4.1-0.7 1.2-1.7 2.3-3 3.1-0.9 0.6-2 1-3.4 1.2-1.3 0.2-3.4 0.4-6.1 0.4H620.2v-0.2z m48.2-28.7s-5 12.9-5.3 13.7h9.3c-0.6-2.4-1.3-4.7-1.9-7-0.6-2.3-1.3-4.5-1.9-6.7h-0.2z m-5.1-2.8H678c1.7 5.9 3.3 11.4 4.9 16.5 1.6 5.1 2.8 8.8 3.7 11.1 0.2 0.4 0.3 0.8 0.5 1.1 0.2 0.3 0.3 0.5 0.5 0.7 0.1 0.1 0.4 0.2 0.9 0.4 0.5 0.1 1.2 0.2 2.1 0.3v1.4c-2.5 0-4.4-0.1-5.7-0.1H678c-1.2 0-3 0-5.5 0.1v-1.4l3-0.4c-0.5-2.2-0.9-4.2-1.4-6.1-0.5-1.9-0.9-3.7-1.4-5.4-1.5 0-2.6-0.1-3.3-0.1h-2c-1.1 0-4.9 0.1-4.9 0.1-0.7 1.8-3.4 9.5-4 11.6l3.2 0.4v1.4h-0.2c-2.3-0.1-4-0.1-5.1-0.1h-1.9c-0.7 0-1.7 0-3 0.1v-1.4c0.4-0.1 0.8-0.1 1.4-0.2 1.1-0.1 1.7-0.3 1.9-0.8 3.3-7.2 6.1-13.4 8.3-18.6s3.3-8 3.3-8.4c0-0.1 0-0.2-0.1-0.3-0.1-0.1-0.2-0.1-0.3-0.1l-2.9-0.5v-1.3h0.2z m28.2 31.5v-1.3l2.8-0.4c0.2 0 0.4-0.1 0.6-0.2 0.2-0.1 0.3-0.2 0.3-0.3 0.2-0.4 0.3-1.9 0.4-4.3 0.1-2.4 0.2-5.4 0.2-8.7v-3.7-6.7c0-1.4-0.1-2.7-0.2-3.9l-2.7-0.5v-1.3H705c2.8 3.8 5.6 7.4 8.3 10.9 2.7 3.4 5 6.2 7.5 9.1 0-4.6-0.1-16.8-0.3-17.5-0.1-0.2-0.2-0.4-0.3-0.5-0.1-0.1-0.4-0.2-0.7-0.2l-2.3-0.4v-1.3h9.5v1.3l-2.1 0.4c-0.3 0.1-0.5 0.1-0.6 0.2s-0.3 0.2-0.3 0.3c-0.2 0.4-0.3 1.8-0.4 4.2-0.1 2.4-0.1 5.4-0.1 9.2 0 1.9 0 5.6 0.1 11.2v4.7h-6.4c-1.9-2.8-4.4-6.3-7.7-10.4-3.3-4.2-6.8-8.4-11.1-13.3 0.1 5.8 0.4 20.4 0.6 21.3 0.1 0.2 0.1 0.4 0.3 0.5 0.1 0.1 0.4 0.2 0.7 0.2l2.8 0.3v1.3c-1.2 0-2.2 0-3-0.1h-2.1c-1.1 0-2.9 0-5.3 0.1h-0.6v-0.2z m36.8-31.5c2.1 0 3.7 0 4.9 0.1h3.3c1.8 0 4.6 0 8.4-0.1h0.3v1.3l-2.9 0.4c0 2.5-0.1 4.8-0.1 6.9v6l0.2 0.2c2.2-1.9 4.4-3.9 6.4-6s3.9-4.4 5.7-6.9l-0.2-0.2-2.5-0.4v-1.3H762.9v1.3l-2.7 0.4c-1.1 0.4-2.2 1.1-3.5 2.1s-3 2.6-4.9 4.6c1.8 3.6 3.6 7.2 5.6 10.8 2 3.5 4 7 6.2 10.4l2.9 0.4v1.4h-17.6v-1.4l2.2-0.6c-0.8-2-1.8-4.2-3-6.6-1.2-2.3-2.6-4.8-4.1-7.3l-1.9 1.4v2.6c0 1.9 0 3.6 0.1 5.3 0 1.7 0.1 3.3 0.2 4.7l2.8 0.5v1.4c-1 0-2.1 0-3.3-0.1h-10.4c-1.2 0-2.2 0-3.2 0.1v-1.4l2.9-0.4c0.1-1.4 0.1-3 0.2-4.8v-9.2c0-3 0-5.6-0.1-7.9 0-2.3-0.1-4.3-0.2-6l-2.8-0.4v-1.3z m66 14.5c0 6 0.4 10.2 1.3 12.5 0.9 2.3 2.4 3.5 4.5 3.5s3.6-1.1 4.6-3.3c0.9-2.2 1.4-5.9 1.4-11.1 0-5.7-0.4-9.7-1.3-11.9-0.9-2.3-2.3-3.4-4.4-3.4-2.2 0-3.8 1-4.7 3-1 2.2-1.4 5.7-1.4 10.7z m-11.1 1.4c0-5.2 1.6-9.2 4.7-12.1 3.1-2.9 7.5-4.3 13-4.3 5.1 0 9.1 1.3 12 4s4.3 6.4 4.3 11.2c0 5.6-1.4 10-4.3 12.9-2.9 3-7 4.5-12.4 4.5-5.6 0-9.9-1.4-12.8-4.2-3-2.8-4.5-6.8-4.5-12z m38.3-15.9h26.9v8.4h-1.6v-1.1c-0.1-2-0.8-3.4-2.1-4.3-1.3-0.8-3.6-1.2-6.8-1.2h-2.3c-0.1 1.9-0.1 3.9-0.1 5.9s-0.1 4.1-0.1 6.2c0.3 0 0.5 0.1 0.8 0.1h1.1c1.8 0 3.1-0.2 3.8-0.6s1.2-1.1 1.3-2l0.1-1.4h1.4c0 0.7-0.1 1.4-0.1 2.1v7.8h-1.4l-0.2-1.1c-0.2-1.2-0.9-2-1.9-2.5s-2.6-0.8-4.7-0.8h-0.3v3.3c0 2.3 0 4.3 0.1 6 0 1.7 0.1 3.4 0.2 4.9l3 0.4v1.4h-17.1v-1.2l2.9-0.5c0.1-1.4 0.1-3 0.2-4.8V563c0-3 0-5.6-0.1-7.9 0-2.3-0.1-4.3-0.2-6l-2.8-0.4v-1.5z m45.3-0.5c1.4 0.2 3 0.4 4.6 0.5 1.6 0.1 3.4 0.1 5.5 0.1h10.7c1.5 0 2.6 0.1 3.2 0.1 1.4 0 2.6-0.1 3.6-0.1 0.9-0.1 1.8-0.3 2.5-0.5l0.5 9.6h-1.5c-0.2-2.5-1-4.4-2.4-5.5-1.3-1.1-3.4-1.7-6.1-1.7h-0.2c0 1.6-0.1 3.8-0.1 6.6-0.1 4.4-0.1 7.2-0.1 8.4 0 2.4 0 4.7 0.1 6.8 0 2.1 0.1 4.1 0.2 6l3.1 0.4v1.3h-16.9v-1.3l3-0.4c0.1-1.9 0.2-4 0.3-6.3s0.1-4.9 0.1-7.7c0-2.2 0-4.4-0.1-6.7 0-2.3-0.1-4.6-0.2-7-3.5 0.3-5.8 0.9-7.1 1.9s-2.1 2.7-2.3 5.2l-1.4-0.1 1-9.6z m34 0.5c2.1 0 3.7 0 4.9 0.1h3.3c1.8 0 4.6 0 8.4-0.1h0.3v1.3l-2.8 0.5c0 0.7-0.1 1.6-0.1 2.8-0.1 4.1-0.2 7-0.2 8.5 0 3.6 0 6.8 0.1 9.7s0.1 5.1 0.2 6.7l2.8 0.5v1.4c-1 0-2.1 0-3.2-0.1h-10.4c-1.2 0-2.2 0-3.2 0.1v-1.4l2.9-0.4c0.1-1.4 0.1-3 0.2-4.8 0-1.8 0.1-4.9 0.1-9.2 0-3 0-5.6-0.1-7.9-0.1-2.3-0.1-4.3-0.2-6l-2.8-0.4v-1.3h-0.2z m36.1 29.8h0.8c2.3 0 3.9-0.6 4.8-1.7 1-1.2 1.5-3.1 1.5-5.8 0-2.2-0.5-3.9-1.4-4.9s-2.4-1.5-4.5-1.5c-0.3 0-0.8 0-1.4 0.1h-0.1v2.4c0 1.7 0 3.5 0.1 5.4 0 1.8 0.1 3.8 0.2 6z m0-28.3c-0.1 1.9-0.1 3.9-0.2 6s-0.1 4.4-0.1 6.8h0.4c2 0 3.4-0.6 4.4-1.6 1-1.1 1.4-2.8 1.4-5 0-2.3-0.4-3.9-1.1-4.8-0.8-0.9-2-1.4-3.9-1.4h-0.9z m-14.3 30v-1.3l3-0.4c0.1-1.5 0.2-3.7 0.2-6.4 0.1-2.7 0.1-5.8 0.1-9.2 0-2.9 0-5.3-0.1-7.2 0-1.9-0.1-3.6-0.2-5.1l-3-0.4v-1.3h5c3 0 6.5 0 10.3-0.1 3.8 0 6.2-0.1 7-0.1 2.7 0 4.7 0.6 6.1 1.7 1.4 1.1 2.1 2.8 2.1 4.9 0 2.4-0.7 4.2-2.2 5.5-1.4 1.3-3.7 2.1-6.7 2.5v0.5c3.6 0.1 6.3 0.8 8.1 2.1 1.8 1.3 2.7 3.2 2.7 5.7 0 1.5-0.3 2.9-1.1 4.1-0.7 1.2-1.7 2.3-3 3.1-0.9 0.6-2 1-3.4 1.2-1.3 0.2-3.4 0.4-6.1 0.4h-18.8v-0.2z m37-31.5h26.8v8.4h-1.6v-0.1c0-2.4-0.6-4.1-1.9-5-1.3-0.9-3.7-1.4-7.1-1.4h-2.2c-0.1 2.1-0.2 4.2-0.2 6.2-0.1 2-0.1 3.9-0.1 5.8 0.2 0 0.5 0.1 0.7 0.1h1.1c1.8 0 3.1-0.2 3.9-0.6 0.8-0.4 1.2-1.1 1.3-2l0.1-1.4h1.5c0 0.7 0 1.4-0.1 2.1v7.8h-1.4l-0.3-1.1c-0.2-1.1-0.8-2-1.8-2.5s-2.5-0.8-4.4-0.8h-0.6c0 1.8 0 3.9 0.1 6.1 0 2.3 0.1 4.9 0.2 7.8h0.3c1.1 0 1.9 0.1 2.4 0.1 3.2 0 5.6-0.5 7.2-1.5 1.6-1 2.7-2.6 3.3-4.9l0.7-2.8h1.6c-0.2 2.4-0.5 5.8-0.9 10.1l-0.1 1.1h-28.4v-1.4l2.9-0.4c0.1-1.5 0.1-3.1 0.2-5v-9.2-7.2c0-2.3-0.1-4.4-0.2-6.5l-2.9-0.4-0.1-1.4z m31.8-0.5c1.5 0.2 3 0.4 4.6 0.5 1.6 0.1 3.4 0.1 5.5 0.1h10.7c1.5 0 2.6 0.1 3.3 0.1 1.4 0 2.6-0.1 3.6-0.1 0.9-0.1 1.8-0.3 2.5-0.5l0.5 9.6h-1.5c-0.2-2.5-1-4.4-2.4-5.5-1.3-1.1-3.4-1.7-6.1-1.7h-0.2c0 1.6 0 3.8-0.1 6.6-0.1 4.4-0.1 7.2-0.1 8.4 0 2.4 0 4.7 0.1 6.8 0.1 2.1 0.1 4.1 0.2 6l3.1 0.4v1.3H998v-1.3l3-0.4c0.1-1.9 0.2-4 0.3-6.3s0.1-4.9 0.1-7.7c0-2.2 0-4.4-0.1-6.7 0-2.3-0.1-4.6-0.2-7-3.5 0.3-5.8 0.9-7.1 1.9s-2.1 2.7-2.3 5.2l-1.4-0.1 1.1-9.6zM688.3 475.4h-10.1v16.2c0 1.2 0.6 2 3.3 1.8 1.8 0 5-2.7 5-2.7l1.8 2.3v-17.6z m-28.7-2.8h6.1v-18h-6.1v18z m-20.4 33.6c5.5-9 8.1-18.9 7.9-30.8h-7.9v30.8z m35.1-2.6c-6 0-8.8-2.6-8.6-8.4v-19.8h-6.1c0.5 16.8-6.4 27.8-20.5 34.1v8.2h49.2v-15.2c-2.2 0.7-5.8 1.1-8.6 1.1h-5.4z m-47.6 24.2l-0.1-60 15.4 4.7h5v-17.9h-26.2v-2.8h67.8l6.5-8.9 12.2 9.1c0.7 0.5 1 1.1 0.7 1.8-0.5 0.5-1.3 0.7-2.5 0.7h-27.3v17.9h8.3l3.6-6.6 12.6 4.8c1 0.5 1.4 1.1 1.4 1.8 0 1.5-1.2 3.2-3.6 5.1v40c0 1.9 0.6 3.7 0.6 5.1 0 2.1-0.8 2.8-2 3.1-2.4 0.5-5.6 1-9.7 1.5h-1.1v-7.1h-49.2v5.1s-0.1 0.8-1.9 1.6c-1.7 1-10.5 1-10.5 1z m151.7-19l5 3.7c1.4-1.7 2.9-3.7 4.3-5.9-2.6-7.6-4.3-17.1-5-28.5 0 0.7-1 1.2-2.9 1.5h-3.9v8.4l1.8-2.6 4.7 2.9c0.7 0.2 1.1 0.6 1.1 1.1 0 0.7-0.5 1.5-1.4 2.2v9.9c0 0.9-0.5 2.3-2.2 2.6-1.7 0.2-3.9 0.4-3.9 0.4v8.5l2.4-4.2z m-12.6 4.1h2.5v-11.1h-2.5v11.1z m0-13.9h8.6v-7.2h-8.6v7.2z m0-10h2.5v-9.5h-2.5v9.5z m40.5 38c-4.5-0.2-8.6-2.8-12.2-7.7-1.2-1.2-2.1-2.7-2.9-4.4-5.7 4.9-12.9 9-21.5 12.4l-0.7-1.1c4.1-3.7 7.9-7.2 11.5-10.6h-14l-3.5 3.6s-4.9-3-7.6-5c-1-0.7-1.2-1.4-0.5-1.9 1-0.5 1.4-1.6 1.4-3.3v-34.6l10.4 2.6h5.4l3.2-4.8 6.1 4.4c0.7 0.2 1.1 0.6 1.1 1.1v-4l-0.4-3.4h-27.6v8.9c0 14.6-1.3 25.1-3.9 31.4-2.6 6.3-8 12.1-16.1 17.2l-1.1-0.7c6-8.8 9.3-19.3 10-31.5h-3.2c0 12-4.8 20.7-14.4 26.3l-1.1-1.1c3.1-7.1 4.8-15.5 5-25.2h-5v-2.8h18.7c0.2-2.9 0.4-5.4 0.4-8.5h-5.4l-2.9 3.7c-3.1-1.2-6.2-2.8-9.3-4.8-0.7-0.7-0.7-1.3 0-1.8 1.2-1 1.8-2.1 1.8-3.3v-13.2l10.8 1.1c1.9 0.4-1.1 1.5-1.1 4v11.1h6.1v-16.6l13.3 2.9h25.1c0-0.7-0.1-2.3-0.4-4-0.5-0.3-5-0.1-7.9-0.1v-8.7h-11.3v6.2c0 1-0.7 1.7-2.2 2.2-4.1 0.7-8.2 1.1-11.3 1.1l0.4-9.5h-24v-2.8h24v-8.5s14.9 0.3 15.3 0.7c1.2 1.2-2.1 1.8-2.1 4.8v3H774V443l14.4 1.1c1.5 0.5-1.8 2.6-1.8 4.8v3.1h9.7l5-6.7 9.7 6.2c1.2 1 1.7 1.7 1.4 2.2-0.5 0.7-1.6 1.1-3.2 1.1h-22.6v4.6l7.5 1.3c-0.2-1.5-0.9-2.9-2.1-4.4l0.4-0.7c7.6 0.2 11.5 2 11.5 5.1-0.2 2.9-2.2 4.6-5.7 5.1-1.4 0-2.4-0.9-2.9-2.6-0.5 0.2-1.1 0.6-1.8 1.1v3.3h6.8l3.6-5.5 6.8 4.8c1 0.7 1.3 1.3 1.1 1.8-0.2 0.7-1.1 1.7-2.5 1.7h-15.8c0 7.8 0.6 14.5 1.8 21.3 0.2-0.7 0.6-1.7 1.1-2.9 0.2-1.2 0.5-2.1 0.7-2.6 0.2-0.7 0.5-1.8 0.7-3.3 0.7-3.4 1.2-6.2 1.4-8.4l12.9 5.1c0.7 0.2 1 0.6 0.5 1.2-0.7 0.8-2-0.5-3.4 3.2-2.4 8.5-5.6 15.7-9.7 21.6 1 2.4 2.2 4.8 3.6 7 0.5 0.5 0.8 0.7 1.1 0.7 0.5 0 0.8-0.4 1.1-1.1l4.5-10.4h1.4l-0.9 11.5c-0.3 2.2 0 3.9 0.7 5.1 0.7 1.5 1.1 2.9 1.1 4.4-0.3 2.5-2.2 4-5.8 4.2z m89.8-40.2v-2.6h-9c2.9 6.1 6 11.1 9.3 15 3.4-4.9 5.6-9.1 6.8-12.8-2.5 0.3-4.9 0.4-7.1 0.4z m-6.1 22c-2.1-5.1-3.9-13.3-5.4-24.5h-4.3V511l9.7-2.2z m-9.6-27.3h15.8v-12.3h-15.8v12.3z m0-15.5h15.8v-11.9h-15.8V466z m-21.9 19.4l9 6.9V462h-21.6c-1.4 3.7-3.6 7.2-6.5 11.8h13.3l5.3-5.6 7.6 5.8c1 0.7 1.2 1.3 0.7 1.8-0.2 0.5-1.1 0.7-2.5 0.7h-11.5v16.1h1.1l5.1-7.2z m-28 1.4l-1.4-0.7c2.9-9.5 5.1-19.7 6.8-30.7 0.5-3.7 0.7-7.6 0.7-11.7l15.4 2.6c1 0.2 1.2 0.4 1.2 1.1-0.2 1.5-2.4 0.1-3.7 3.3-0.2 0.5-0.5 1.3-0.7 2.6-0.5 2-1.2 3.5-2.2 6h6.5l5.6-6.7 8.7 7.3v-5.5c-0.2-3.2-0.4-5.6-0.4-7.3l16.9 4h10.4l3.6-6.6 13.3 5.1c0.7 0.2 1.1 0.9 1.1 1.8 0 1-1.2 2.4-3.6 4.4v11c0 6.3 0.1 11.8 0.4 16.5 0 1.5-0.7 2.4-2.1 2.9l8.6 5.1c0.7 0.5 1.3 0.9 1.1 1.5-0.5 1.1-1.1-0.8-4.6 2.1-4 3.3-8.4 5.6-12.9 7.3 5.3 4.6 11.6 7.9 19 9.9l-0.4 1.5c-4.8 1.5-8.7 6-11.8 13.5-6.9-5.1-11.7-10.4-14.3-15.7-6 5.1-15.7 11.8-17.6 12.8-1.9 1-3.2 4.4-4.7 1.5l-5.4-11.3c2.4-1.5 3.6-3.4 3.6-5.9v-13.4c-0.2 0.2-0.6 0.4-1.1 0.4h-14v15.1l13.6-4.4 0.7 1.1c-4.1 4.6-10.5 10.1-19.4 16.5-1.8 1.3-2.7 4.4-3.9 2.6l-6.1-10.6c2.4-1.5 3.5-3.2 3.2-5.1v-15.2h-11.5v-2.8h11.5v-16.1H838c-2.1 3.1-4.7 6.6-7.5 10.2z m175.8-43l10.8 7.7c1 0.7 1.1 1.2 0.7 1.8-0.5 1-1.4 1.7-2.9 1.7h-43.8v-2.8h27.7l7.5-8.4z m2.6 21.6l11.8 8.4c1 0.7 1.5 1.3 1.1 2.2s-1.8 1.7-3.2 1.7h-12.2v11.5c0 8.5 0.1 20.5 0.1 26.6 0 6.2-5.6 10.8-19.1 11.8 0-6-3-10.5-12.1-13.5v-1.5l12.5 0.7c3.6 0.2 5.3-1.2 5-4.4v-31.2h-24v-2.8h32.3l7.8-9.5z m-74 9.2l-0.4-1.5c9.6-12.2 15.5-22.2 17.9-30l14.7 5.9c1 0.5 1.9 0.9 1.4 1.8-0.5 1.1-2.6-0.9-5 2.6-7.3 8.5-16.8 15.6-28.6 21.2z m0 24.5l-0.7-1.1c9.3-12.7 16.2-24.5 20.5-35.5l14.7 6.2c1.2 0.5 1.8 1.1 1.8 1.8-0.2 1.5-3-1-5.4 2.2-3 4-6.3 7.4-9.7 10.6 0 0 3.5-0.2 4.4 0.8 0.9 1.1-1.2 1.2-1.2 4.3v34.4c0 2.2-1.1 3.4-3.2 3.7-4.3 0.5-10.6 0.5-10.6 0.5s0.2-17.2 0.2-28.7v-6.6c-3.1 2.7-6.7 5.2-10.8 7.4z" fill="#231916"></path><path d="M414.924 512.3c0 7.9 0.6 15.8 2.5 23.1 5.3 2.6 11.5 2.7 17.3 1.2 13.5-7.5 33.7-28.2 33.7-28.2l39.4-39.4 39.4 39.4s20.1 20.8 33.6 28.2c5.8 1.5 12.5 1.1 17-1.5 1.4-5.5 2.4-11.3 2.7-17.2v-12c-3-48.5-43.4-86.9-92.7-86.9-51.3 0-92.8 41.5-92.9 92.8v0.5z" fill="#009CD7"></path><path d="M507.524 548.1l-36.1-36s-18.4 19.8-36.9 24.5c-5.8 1.5-11.7 1.5-17-1.1 9.9 38.1 43.4 66.7 84.1 69.3h12c40.4-2.6 74-30.8 84.1-68.5l0.3-1c-5.2 2.5-11.5 2.8-17.3 1.4-18.5-4.7-36.9-24.5-36.9-24.5l-36.3 35.9z" fill="#5FA829"></path></svg>