<svg viewBox="0 0 1024 1024" version="1.1" xmlns="http://www.w3.org/2000/svg"><path d="M224 0h576c123.6 0 224 100.4 224 224v576c0 123.6-100.4 224-224 224H224c-123.6 0-224-100.4-224-224V224C0 100.4 100.4 0 224 0z" fill="#FFFFFF"></path><path d="M172 513.2c0 28.8 2.4 58 9.2 84.4 19.2 9.6 42 10 63.2 4.4 49.2-27.6 123.2-103.2 123.2-103.2l144-144 144 144s73.6 76 122.8 103.2c21.2 5.2 45.6 4 62-5.6 5.2-20.4 8.8-41.2 10-62.8v-44C839.6 312.4 692 172 511.6 172 324.4 172 172.4 324 172 511.2v2z" fill="#009CD7"></path><path d="M510.4 644l-132-131.6s-67.2 72.4-135.2 89.6c-21.2 5.2-42.8 5.2-62-4 36 139.2 158.8 244 307.2 253.2H532c147.6-9.2 270.8-112.8 307.6-250.4l0.8-3.6c-19.2 9.2-42.4 10.4-63.2 5.2-68-17.2-135.2-89.6-135.2-89.6L510.4 644z" fill="#5FA829"></path></svg>