<svg viewBox="0 0 1024 1024" version="1.1" xmlns="http://www.w3.org/2000/svg"><path d="M155.362 538.383l-40.704 40.138-67.84-66.382 67.84-67.412 42.27 42.71h69.92C215.389 436.83 169.58 399 114.806 399 51.4 399 0 449.687 0 512.211c0 62.525 51.4 113.213 114.806 113.213 54.27 0 99.738-37.135 111.716-87.04h-71.16z" fill="#3C52A2"></path><path d="M141.403 482.569l-26.57 26.257-26.569-26.257 26.57-26.256 26.569 26.256z m0 58.744l-26.57 26.257-26.569-26.257 26.57-26.257 26.569 26.257z m-29.8-29.102l-26.57 26.256-26.568-26.256 26.569-26.257 26.57 26.257z m59.521-0.27l-26.57 26.257-26.568-26.256 26.569-26.258 26.57 26.258z" fill="#D12A27"></path><path d="M345.771 434.124l2.6-18.237h17.164l-1.039 6.252h52.013v15.632h-26.007v40.122h26.527v16.152h-26.527v40.123h-18.725v-40.123H339.53v-16.152h32.247V437.77h-9.362l-1.56 8.337c-1.041 4.168-3.815 6.079-8.322 5.731H339.01v-14.068h2.08c2.774 0.348 4.335-0.867 4.681-3.647z m-43.17 0v-17.196h30.167v17.196H302.6zM300 473.203v-16.674h26.527v61.486c-0.348 2.083 0.692 2.951 3.12 2.605h7.802v14.068h-19.766c-5.894 0-8.841-3.474-8.841-10.42v-51.065H300z m295.876-21.587H523.45v6.732h70.864c0.347 0 0.867-0.69 1.563-2.072v-4.66zM523.45 436.6h72.948v-6.214h-72.948v6.214z m-4.169 76.64v6.213h77.117c0.695 0 1.39-0.69 2.084-2.071v-4.143h-79.2z m0-13.982h79.722v-6.732H519.28v6.732z m-17.194-83.37h114.112v44.015c-1.043 7.595-4.69 11.738-10.943 12.427h-103.17v-56.442z m-2.605 62.139h118.801v40.908c0 9.32-4.343 13.981-13.027 13.981H499.48v-54.89z m291.241 45.883l-7.295-40.509h15.633l1.562 8.83h4.168c1.737 0 2.606-0.865 2.606-2.598v-5.711h13.027v8.309c-0.348 7.27-3.475 10.906-9.38 10.906h-8.337l3.127 15.06c0 2.425 1.91 3.636 5.732 3.636h7.815v11.945h-18.758c-5.559 0.346-8.858-2.944-9.9-9.868z m-17.195-58.166h24.49c1.735 0.346 2.605-0.692 2.605-3.117v-7.789h-27.095v10.906z m0-23.89h27.095v-10.387h-27.095v10.387z m-17.716-24.408h62.528v52.972c0 6.233-3.475 9.348-10.422 9.348h-34.39v38.431c-0.348 2.425 0.52 3.463 2.606 3.117h6.773v11.945h-17.195c-6.6-0.347-9.9-2.944-9.9-7.79V417.444z m-53.149 48.817v-14.541H750.6v14.541h-19.28v14.023h18.76v14.541h-18.76V515.6c-0.346 3.809 1.39 5.367 5.212 4.674h9.899v13.503h-23.968c-5.905 0-8.684-4.155-8.337-12.464v-26.487H702.14v-14.541h11.985v-14.023h-11.464z m-1.041-19.734v-14.023h2.604c2.432 0 3.822-1.038 4.17-3.116l4.168-13.502H730.8l-2.084 6.75H750.6v15.582h-26.053c-1.737 5.886-4.864 8.655-9.38 8.309h-13.546z m246.813-13.889v-15.044h72.723v15.044h-72.723z m-1.56 14.008h74.802v15.563h-6.753v57.066c0 9.337-6.06 14.18-18.18 14.526H960.38V517.2h30.649c2.422 0.346 3.635-1.384 3.635-5.189V462.21H946.875v-15.563z m-3.634-0.52l-9.87 22.308v64.848h-20.26v-56.548h-8.83v-17.638h6.234c1.384 0 2.423-0.691 3.116-2.075 0 0.346 0.173 0.173 0.52-0.52l5.713-10.375h23.377z m-39.479-16.6h9.869c3.117 0.346 5.368-1.383 6.754-5.188l3.635-9.339h22.856l-10.39 22.308c-2.77 5.189-8.31 7.61-16.622 7.263h-16.102v-15.045zM319.237 586.808v15.456c0 1.702 0.23 2.76 0.69 3.175 0.462 0.413 1.73 0.62 3.804 0.62h4.632c5.853 0 10.105-0.759 12.755-2.277 2.65-1.518 3.976-4.048 3.976-7.59 0-3.45-1.348-5.876-4.044-7.279-2.697-1.403-6.926-2.105-12.687-2.105h-9.126z m0-20.424v17.25h8.573c5.346 0 9.252-0.666 11.718-2 2.466-1.334 3.7-3.726 3.7-7.176 0-3.036-1.05-5.14-3.146-6.314-2.097-1.173-5.612-1.76-10.544-1.76h-10.3zM307 562.66h22.33c7.744 0 13.17 0.874 16.282 2.622 3.111 1.748 4.667 4.738 4.667 8.97 0 2.622-0.842 4.853-2.524 6.693-1.681 1.84-4.159 3.174-7.431 4.002 7.927 1.38 11.892 5.244 11.892 11.591 0 8.74-7.214 13.11-21.64 13.11H307v-2.83h1.521c1.613 0 2.742-0.298 3.388-0.895 0.645-0.598 0.968-1.61 0.968-3.037V570.25c0-2.3-0.288-3.67-0.864-4.106-0.577-0.437-1.74-0.656-3.492-0.656H307v-2.828z m60.955 26.186H382.6l-7.357-22.744-7.288 22.744z m5.97-28.846h5.552l14.714 41.882c0.602 1.665 1.272 2.901 2.013 3.71 0.74 0.809 1.781 1.213 3.123 1.213h0.764v2.843h-16.866v-2.843c1.897 0 3.146-0.138 3.748-0.415 0.6-0.278 0.902-0.786 0.902-1.526 0-0.694-0.3-1.896-0.902-3.606l-3.123-9.084h-17.144l-3.609 10.194c-0.37 1.017-0.555 1.803-0.555 2.357 0 0.786 0.312 1.33 0.936 1.63 0.625 0.3 1.886 0.45 3.783 0.45v2.843h-14.159v-2.843c1.758 0 3.007-0.323 3.748-0.97 0.74-0.647 1.504-2.08 2.29-4.3L373.924 560z m28.826 2.66h14.555l21.588 35.258v-26.84c0-2.163-0.372-3.634-1.114-4.416-0.743-0.782-1.95-1.174-3.62-1.174h-1.185v-2.828h15.878v2.828h-0.905c-1.904 0-3.204 0.403-3.9 1.208-0.697 0.805-1.045 2.266-1.045 4.382v38.57h-4.109l-26.046-42.365v33.602c0 2.3 0.302 3.865 0.906 4.692 0.603 0.829 2.298 1.242 5.084 1.242v2.83H402.75v-2.83h0.835c2.228 0 3.644-0.39 4.248-1.173 0.603-0.781 0.906-2.369 0.906-4.76v-29.808c0-1.749-0.082-2.978-0.244-3.692-0.163-0.713-0.569-1.207-1.22-1.483-0.65-0.277-1.74-0.415-3.272-0.415h-1.253v-2.828z m49.648 0h18.445v2.828h-1.332c-1.777 0-3.016 0.311-3.718 0.932-0.702 0.62-1.052 1.99-1.052 4.105v17.733l17.954-18.699c1.169-1.196 1.753-2.116 1.753-2.76 0-0.874-1.005-1.31-3.015-1.31h-1.122v-2.83h17.111v2.83c-1.823 0-3.448 0.31-4.874 0.93-1.426 0.622-2.864 1.669-4.313 3.14l-12.833 12.903 14.587 19.044c1.262 1.656 2.338 2.852 3.226 3.588 0.889 0.737 1.753 1.208 2.595 1.415 0.84 0.207 2.034 0.31 3.577 0.31v2.83H479.12v-2.83h1.192c1.355 0 2.29-0.092 2.805-0.276 0.514-0.183 0.771-0.505 0.771-0.966 0-0.827-0.748-2.253-2.244-4.278l-10.8-14.421-6.102 6.21v9.039c0 2.208 0.445 3.543 1.333 4.003 0.888 0.46 2.478 0.69 4.769 0.69v2.828h-18.445v-2.829h1.473c1.73 0 2.922-0.24 3.577-0.724 0.654-0.483 0.982-2.013 0.982-4.589v-30.98c0-1.564-0.164-2.702-0.492-3.416-0.327-0.713-0.818-1.162-1.472-1.346-0.655-0.183-1.66-0.276-3.016-0.276H452.4v-2.828z m122.074 23.252c0-6.363-1.415-11.365-4.245-15.008-2.83-3.644-6.84-5.465-12.033-5.465-5.52 0-9.846 1.845-12.98 5.534-3.134 3.689-4.7 8.876-4.7 15.562 0 6.363 1.566 11.39 4.7 15.078 3.134 3.689 7.25 5.533 12.35 5.533 5.05 0 9.131-1.959 12.242-5.879 3.11-3.919 4.666-9.038 4.666-15.355z m-41.395 0.276c0-6.961 2.385-12.771 7.156-17.429 4.77-4.657 10.758-6.986 17.961-6.986 6.735 0 12.36 2.317 16.874 6.951 4.514 4.635 6.77 10.364 6.77 17.188 0 7.194-2.28 13.096-6.84 17.707-4.56 4.611-10.395 6.916-17.505 6.916-7.064 0-12.899-2.317-17.506-6.951-4.607-4.634-6.91-10.432-6.91-17.396z m54.968-23.528h36.384l4.399 12.35-2.933 1.104c-1.862-4.093-3.772-6.739-5.726-7.935-1.956-1.196-5.169-1.793-9.638-1.793h-10.265v18.077h4.61c3.21 0 5.446-0.54 6.704-1.621 1.256-1.082 1.885-2.978 1.885-5.693v-1.242h3.351v20.631h-3.351v-1.863c0-2.713-0.582-4.542-1.747-5.485-1.164-0.943-3.258-1.414-6.284-1.414h-5.168v14.628c0 1.701 0.279 2.863 0.838 3.484 0.559 0.621 1.816 0.931 3.771 0.931h1.327v2.83h-18.157v-2.83h1.187c1.862 0 3.096-0.287 3.701-0.862s0.908-1.874 0.908-3.899v-32.016c0-1.886-0.28-3.115-0.838-3.69-0.558-0.576-1.676-0.864-3.351-0.864h-1.607v-2.828z m75.73 0h17.978v2.828h-1.383c-1.199 0-2.005 0.081-2.42 0.242-0.415 0.161-0.622 0.426-0.622 0.793 0 0.507 0.46 1.403 1.383 2.692l8.782 12.005 9.611-12.005c0.922-1.15 1.383-2.001 1.383-2.553 0-0.782-0.922-1.174-2.766-1.174h-1.729v-2.828h15.283v2.828c-1.845 0-3.17 0.208-3.977 0.622-0.807 0.413-1.902 1.449-3.284 3.105l-12.24 14.696 14.452 18.975c1.245 1.61 2.294 2.668 3.147 3.174 0.852 0.506 2.155 0.76 3.907 0.76v2.828h-18.048v-2.829h1.452c2.12 0 3.18-0.344 3.18-1.035 0-0.551-0.53-1.517-1.59-2.898l-10.718-14.351-11.824 14.834c-0.6 0.737-0.899 1.38-0.899 1.932 0 1.012 0.898 1.518 2.697 1.518h1.383v2.83h-15.282v-2.83c1.798 0 3.135-0.218 4.01-0.655 0.877-0.437 2.052-1.53 3.528-3.278l14.175-17.043-12.585-16.628c-1.43-1.886-2.547-2.979-3.354-3.278-0.806-0.3-2.017-0.449-3.63-0.449v-2.828z m48.391 0h18.216v2.832h-1.178c-1.985 0-3.266 0.333-3.844 1.002-0.577 0.668-0.865 1.946-0.865 3.834v21.208c0 4.054 0.554 7.013 1.662 8.878 1.109 1.866 2.713 3.328 4.814 4.387 2.1 1.06 4.26 1.59 6.476 1.59 2.401 0 4.71-0.6 6.926-1.797 2.217-1.197 3.88-2.694 4.987-4.49 1.109-1.797 1.663-4.837 1.663-9.12v-20.31c0-1.843-0.3-3.167-0.9-3.973-0.601-0.806-1.825-1.21-3.671-1.21h-1.317v-2.831h15.793v2.832h-1.109c-1.8 0-3.025 0.333-3.671 1.002-0.646 0.668-0.97 1.946-0.97 3.834v21.693c0 5.895-1.743 10.455-5.229 13.678-3.487 3.224-7.953 4.836-13.402 4.836-4.664 0-8.89-1.416-12.676-4.248-3.787-2.833-5.68-7.127-5.68-12.885v-23.074c0-1.935-0.276-3.224-0.83-3.869-0.554-0.644-1.709-0.967-3.463-0.967h-1.732v-2.832z m91.195-0.057h2.424l4.293 15.7-3.116 0.9c-1.846-4.657-4.062-8.126-6.647-10.41-2.585-2.282-5.84-3.423-9.763-3.423-4.848 0-8.887 1.914-12.118 5.74-3.232 3.828-4.847 8.67-4.847 14.526 0 6.086 1.72 11.067 5.159 14.94 3.438 3.873 7.65 5.81 12.637 5.81 3 0 6.058-0.853 9.174-2.56 3.116-1.705 5.851-4.104 8.206-7.193l2.7 1.798c-2.678 3.966-5.874 6.975-9.59 9.026-3.716 2.052-7.744 3.078-12.083 3.078-6.647 0-12.233-2.328-16.757-6.985-4.524-4.657-6.786-10.398-6.786-17.223 0-4.38 1.062-8.472 3.185-12.277 2.123-3.804 5.032-6.8 8.725-8.991 3.693-2.19 7.64-3.286 11.84-3.286 4.432 0 8.518 1.314 12.257 3.942l1.107-3.112z m12.535 0.057h18.19v2.828h-1.244c-1.983 0-3.264 0.288-3.839 0.863-0.577 0.576-0.865 1.944-0.865 4.106v13.11h24.416V570.8c0-2.207-0.22-3.645-0.657-4.312-0.438-0.667-1.556-1-3.354-1h-1.868v-2.83h17.983v2.83h-1.59c-1.569 0-2.652 0.252-3.251 0.758-0.6 0.506-0.9 1.818-0.9 3.933v32.017c0 1.517 0.104 2.576 0.311 3.173 0.207 0.598 0.692 0.99 1.453 1.173 0.76 0.184 2.086 0.276 3.977 0.276v2.83h-17.983v-2.83h1.314c1.522 0 2.582-0.103 3.181-0.31 0.6-0.207 0.98-0.621 1.142-1.242 0.161-0.62 0.242-1.783 0.242-3.484v-14.56H828.14v14.974c0 2.483 0.323 3.875 0.969 4.174 0.645 0.299 2.305 0.448 4.98 0.448v2.83h-18.191v-2.83h1.176c1.89 0 3.147-0.218 3.769-0.655 0.622-0.437 0.934-1.644 0.934-3.623v-32.36c0-1.932-0.265-3.198-0.795-3.795-0.53-0.598-1.58-0.898-3.147-0.898h-1.937v-2.828z m65.388 26.186h14.645l-7.357-22.744-7.288 22.744z m5.97-28.846h5.552l14.714 41.882c0.601 1.665 1.272 2.901 2.013 3.71 0.74 0.809 1.78 1.213 3.123 1.213h0.764v2.843h-16.866v-2.843c1.897 0 3.146-0.138 3.747-0.415 0.602-0.278 0.903-0.786 0.903-1.526 0-0.694-0.3-1.896-0.902-3.606l-3.123-9.084h-17.144l-3.61 10.194c-0.37 1.017-0.555 1.803-0.555 2.357 0 0.786 0.313 1.33 0.937 1.63 0.625 0.3 1.886 0.45 3.783 0.45v2.843h-14.159v-2.843c1.758 0 3.007-0.323 3.748-0.97 0.74-0.647 1.504-2.08 2.29-4.3L887.254 560z m27.052 2.66h14.556l21.588 35.258v-26.84c0-2.163-0.372-3.634-1.114-4.416-0.743-0.782-1.95-1.174-3.621-1.174h-1.185v-2.828h15.879v2.828h-0.906c-1.903 0-3.203 0.403-3.9 1.208-0.696 0.805-1.044 2.266-1.044 4.382v38.57h-4.11l-26.045-42.365v33.602c0 2.3 0.301 3.865 0.905 4.692 0.604 0.829 2.299 1.242 5.084 1.242v2.83h-16.087v-2.83h0.836c2.228 0 3.644-0.39 4.248-1.173 0.603-0.781 0.906-2.369 0.906-4.76v-29.808c0-1.749-0.082-2.978-0.244-3.692-0.163-0.713-0.57-1.207-1.22-1.483-0.65-0.277-1.74-0.415-3.273-0.415h-1.253v-2.828z m87.529-0.057h2.503l3.895 14.525-3.06 1.037c-1.901-4.334-4.15-7.55-6.746-9.648s-5.702-3.147-9.317-3.147c-4.683 0-8.68 1.971-11.995 5.914-3.315 3.942-4.972 8.726-4.972 14.352 0 3.92 0.834 7.562 2.503 10.927 1.669 3.367 3.894 5.903 6.676 7.609 2.781 1.706 5.748 2.559 8.9 2.559 1.761 0 3.454-0.276 5.077-0.83 1.622-0.553 3.036-1.314 4.241-2.283 1.206-0.968 1.994-1.925 2.364-2.87 0.37-0.945 0.556-2.317 0.556-4.115v-2.283c0-2.49-0.417-4.069-1.252-4.738-0.834-0.668-2.804-1.003-5.91-1.003v-2.835h19.192v2.835h-1.53c-1.808 0-2.955 0.312-3.442 0.934-0.486 0.623-0.73 1.902-0.73 3.84v16.322h-3.337l-1.808-4.15c-4.868 3.32-9.944 4.98-15.229 4.98-6.722 0-12.331-2.271-16.827-6.813-4.497-4.541-6.746-10.386-6.746-17.534 0-6.823 2.296-12.599 6.885-17.325 4.59-4.726 10.105-7.09 16.549-7.09 4.775 0 8.901 1.314 12.378 3.942l1.182-3.112z" fill="#231F20"></path></svg>