<svg viewBox="0 0 1024 1024" version="1.1" xmlns="http://www.w3.org/2000/svg"><path d="M224 0h576c123.6 0 224 100.4 224 224v576c0 123.6-100.4 224-224 224H224c-123.6 0-224-100.4-224-224V224C0 100.4 100.4 0 224 0z" fill="#FFFFFF"></path><path d="M637.6 590.4l-122 120.4-203.2-199.2 203.2-202.4 126.8 128.4H852c-34.4-152-171.6-265.6-336-265.6-190 0-344 152.4-344 340s154 340 344 340c162.8 0 298.8-111.6 334.8-261.6h-213.2z" fill="#3C52A2"></path><path d="M594.8 422.4l-79.6 78.4-79.6-78.4L515.2 344l79.6 78.4z m0 175.2L515.2 676l-79.6-78.4 79.6-78.4 79.6 78.4z m-91.6-87.6l-79.6 78.4L344 510l79.6-78.4 79.6 78.4z m180.8 0l-79.6 78.4-79.6-78.4 79.6-78.4 79.6 78.4z" fill="#D12A27"></path></svg>