<svg viewBox="0 0 1024 1024" version="1.1" xmlns="http://www.w3.org/2000/svg"><path d="M738.7 496.3c5.5-7.2 9.5-13.3 11.7-18.3 1-2.5 2-4.5 3-6 3-5.2 5.9-11.3 8.7-18.3 0.7-2.2 1.3-3.3 1.5-3.3 4.3 1 6.9 2.5 7.9 4.5 0 0.3-0.2 0.5-0.7 0.7-2.8 1.7-4.9 5.5-6.4 11.2 0 0.3-0.8 1.5-2.3 3.7-3.3 5-5 8.2-5.3 9.7 0 0.3 0.6 1 1.9 2.2 1.8 1.5 2.6 2.6 2.6 3.4 0 0.5-0.1 1.5-0.4 3 0.2-1 0.1-0.7-0.4 0.8-2.5 9.2-3.3 17-2.3 23.5v0.7c0.3 1.5-1.3 2.4-4.5 2.6-0.8-0.2-1.3-0.7-1.5-1.5 1.3-4.7 1.6-10.8 1.1-18.3 0-6-1-8.2-3-6.7-0.3 0-1.3 0.9-3 2.6-2.5 2.7-4.3 4.5-5.3 5.2-1.3 0.7-2.5 0.9-3.8 0.4-0.4-0.2-0.2-0.8 0.5-1.8z m25.4-8.2c5.8-5.2 11.5-14.3 17-27.2 4.3-9.4 7.1-14.1 8.3-14.1 4.8 2 7.3 4 7.6 6 0 0.5-0.8 1.4-2.3 2.6-1.3 0.7-2 1.4-2.3 1.9-6.8 8.4-10.1 13.9-9.8 16.4 1.8 0 4.2-0.4 7.2-1.1 1-0.2 1.9-0.5 2.7-0.7 5.8-1.2 10.3-2.7 13.6-4.5 0.8-0.5 1.3-0.7 1.5-0.7 2.8 1.5 4.8 4.2 6.1 8.2-0.3 1-1.1 1.4-2.7 1.1-5-0.7-10.5-0.1-16.3 1.9-2 0.7-3.2 2.2-3.4 4.5 0 1.7 0.5 2.6 1.5 2.6 0 0 0.6-0.1 1.9-0.4 4.8-1 8.2-1.6 10.2-1.9 1.5 0 2.3 1.2 2.3 3.7-0.5 2.2-1.7 3.6-3.4 4.1-6 1.2-9.8 2.5-11.3 3.7-1.3 1.2-2.1 2.6-2.7 4.1 0 1.5 0.5 2.2 1.5 2.2 8.3 0 14.4-1 18.2-3 0.5-0.3 0.8-0.4 0.8-0.4 2.3 1.5 4 4.8 5.3 10.1 0.3 0.7-0.6 1.1-2.6 1.1h-0.8c-4.5-1.2-11.6-1.4-21.2-0.4-1.5-0.2-2.4 1.1-2.7 4.1-0.8 4.2-0.5 8.7 0.8 13.4 0.2 1.7 0.2 2.6 0 2.6-1.3 0.8-2.9 0.9-4.9 0.4-0.8 0-1.3-0.6-1.5-1.9 0.3-4.2 0.4-10.4 0.4-18.6 0-8.2 0.1-14.5 0.4-19 0-4.2-1.3-6.7-3.8-7.5-0.3-0.2-1.5 1-3.8 3.7-2 2.5-3.8 4.5-5.3 6-1.3 1-3.1 1-5.7 0-1.8-1-2.1-2-0.8-3z m-98 29.5c1 0 2.4-0.1 4.1-0.4 4-0.2 6.8-0.5 8.3-0.7 1.8-0.5 2.9-2.7 3.4-6.7 0.3-2.2-0.8-3.5-3-3.7-5.3-0.2-10.3 0.5-15.1 2.2-1 0.2-1.5 1.4-1.5 3.4 0.7 4.1 2 6.1 3.8 5.9z m-14-12.3c-0.2-0.8 0.9-1.1 3.4-1.1 6.3-2.2 14.9-3.7 25.7-4.5h2.6c5.8 1.7 9.8 4.1 12.1 7.1-0.3 0.5-1 1-2.3 1.5-1.5 1-2.5 1.9-3 2.6-0.3 0.7-0.7 1.7-1.5 3-1.5 2.2-2.3 4.1-2.3 5.6-0.3 3.5-1.4 5-3.4 4.5-7.1-1.2-13.9-1-20.4 0.7-1 0.3-1.8 0.4-2.3 0.4-1.5 0.3-3-1.1-4.5-4.1-0.8-1.2-1.3-2-1.5-2.2-1.8-2.7-2.6-6-2.6-9.7v-3.8z m6-17.9h0.8c2.5-0.2 5.7-1 9.5-2.2 1-0.3 3.1-0.5 6.4-0.7 4.3 0 7.3-0.3 9.1-0.7 1.8-0.5 3 1 3.8 4.5 0.3 1.2 0.4 2.6 0.4 4.1 0 0.5-0.8 0.7-2.3 0.7-2.3 0-4.2 0.1-5.7 0.4-1 0.3-2.8 0.4-5.3 0.4-4-0.3-7.6-0.1-10.6 0.4-0.5 0-1.4 0.4-2.6 1.1-1.3 0.5-2 0.6-2.3 0.4-0.3-1-0.6-2.2-1.1-3.7-0.9-2-0.9-3.5-0.1-4.7z m-24.6 10.4c0.5-0.3 1.3-0.9 2.3-1.9 5-3.2 8.3-5.8 9.8-7.8 6.8-8.2 11.7-14.4 14.7-18.6 3.8-5 6.9-8.9 9.5-11.9 0.5-0.5 1.1-1.5 1.9-3 1-1.7 1.8-2.9 2.3-3.4 1-1 1.8-1.1 2.3-0.4 0.8 1 2.1 2 4.2 3 0.5 0.3 0.9 0.5 1.1 0.7 1.3 0.7 1.6 1.5 1.1 2.2-0.3 0.3-0.8 0.7-1.5 1.5-1.8 1.2-2.8 2.5-3 3.7 0.2 1.2 3.8 5.2 10.6 11.9 5.6 5.2 12.2 10.2 20 14.9 5 3.2 8.4 5.8 10.2 7.8 1.5 1.5 1.4 2.4-0.4 2.6h-0.4c-4.3 0.2-9.3-0.7-15.1-3-1.5-0.5-2.6-0.9-3.4-1.1 0-5-4.3-9.9-12.9-14.9-0.8-0.5-2-1.6-3.8-3.4-4-4.2-7.2-6.5-9.5-6.7-1.3-0.2-2.6 0.4-4.1 1.9-2 1.7-4.9 4.2-8.7 7.5-8.1 6.2-13.4 11.8-15.9 16.8-1.3 0-3.1 0.5-5.7 1.5-1.3 0.2-2.1 0.5-2.7 0.7-3.4 0.7-4.4 0.4-2.9-0.6z m-45-20.8c0-2.5 0.3-6.6 0.8-12.3-0.5 3.7-0.5 3.1 0-1.9 0.5-8.9 0.9-13.2 1.1-12.7 0.8-0.7 2.6-0.5 5.7 0.7 2.5 1 3.8 2.1 3.8 3.4 0 0.3-0.1 0.5-0.4 0.7-2 3-3 9.9-3 20.9 1-0.2 2.4-0.6 4.2-1.1 2-0.5 3.3-0.6 3.8-0.4 1.3 0.3 2.4 1.7 3.4 4.5 1 2.7 1 4.4 0 4.9-0.5 0.2-1.6 0.2-3.4 0-2.8-0.5-5.4-0.6-7.9-0.4 0.3 10.9 0 20.1-0.8 27.6v2.2c0 2.2 0.6 5.5 1.9 9.7 0.5 2 0.8 3.1 0.8 3.4-0.2 2-0.9 2.8-1.9 2.6-10.8-3.5-18.8-6.6-23.8-9.3-2-1.5-3-2.5-3-3 0.5-0.5 1.9-0.4 4.2 0.4 4.5 1.5 8.8 2.4 12.9 2.6 2.3 0.3 3.3-1.4 3-4.8 0-17.9-0.2-28.1-0.8-30.6-2.3 0-6.2 0.4-11.7 1.1-1 0-2.1 0.4-3.4 1.1 6.5 4 10 6.8 10.2 8.6-0.3 3.7-2.3 6.5-6.1 8.2-0.5 0.2-1.8-2-3.8-6.7-1.5-3.7-2.8-6.6-3.8-8.6-1.3-0.5-2.6-1.6-4.2-3.4l-1.1-1.1c-1.3 0.7-2.5 1.8-3.8 3 0.3 0.3 0.8 0.9 1.5 1.9 2.5 2.5 3.8 4.2 3.8 5.2 0 2.2-0.8 3.4-2.3 3.4-1.5-0.2-3-1.1-4.5-2.6-0.5 3.7-0.8 12.8-0.8 27.2-0.3 1.2-0.9 2-1.9 2.2-2.5 0-4.3-0.9-5.3-2.6 0-0.5 0.4-0.9 1.1-1.1 0.5-0.2 0.8-0.5 0.8-0.7 0.5-4.7 0.8-10.4 0.8-17.1 0-1.2-0.3-2-0.8-2.2-0.3-0.3-0.9-0.1-1.9 0.4-0.8 0.7-1.8 1.6-3 2.6-1.5 1.2-2.6 2.2-3.4 3-3 3-5.4 4.5-7.2 4.5-2.3-0.3-3.8-1.2-4.5-3 0.2-0.5 1.3-1.1 3-1.9 0.8-0.2 1.3-0.5 1.5-0.8 3.3-2 7.3-6 12.1-11.9 0.2-0.2 0.4-0.5 0.4-0.7 0.8-1.3 1.3-2.4 1.5-3.4-3.8 0.7-6.9 1.6-9.5 2.6-0.8 0.5-1.4 0.7-1.9 0.7-1.8-2-2.9-5.3-3.4-10.1 0.8-0.5 1.9-0.9 3.4-1.1 4-0.5 8.8-1.5 14.4-3 0.3-2 0.5-5 0.8-8.9 0.5-4.5 0.9-7.7 1.1-9.7 0.8-4.2 1.6-6.2 2.7-6 3.3 1 4.9 2.5 4.9 4.5 0 0.3-0.2 0.9-0.7 1.9-0.5 1.3-0.9 2.4-1.1 3.4v0.7c-0.8 6-1.1 10.3-1.1 13.1 1.5-0.5 1.8-0.6 0.8-0.4 1-0.2 2-0.4 3-0.4 0.8 0 1.4 0.9 1.9 2.6 0.3 0.7 0.5 1.2 0.8 1.5 9.7-1.2 16.5-2.1 20.1-3.1z m-111.3 29.4c-2.5-1.3-4.1-2.6-4.9-4.1-1.5-1.8-3.3-2.7-5.3-3-0.3 0-0.5-0.1-0.8-0.4-1 0-1.6-0.3-1.9-0.7-0.8-0.7-1.4-1-1.9-0.7-0.2 0.3-0.5 0.9-0.7 1.9-0.8 7.5-2 13.5-3.8 18.3-0.5 1.5-0.5 2.6 0 3.4 0.8 0.5 2 0.5 3.8 0 3.8-0.5 9.2-4.6 16.3-12.3 0.5-0.7 0.8-1.2 0.8-1.5-0.3-0.4-0.8-0.7-1.6-0.9zM443.6 480c2.5-3 5.4-5.7 8.7-8.2 1.3-0.7 2.1-1 2.6-0.7 0.5 0.3 0.6 0.9 0.4 1.9-1 3-1.5 6.6-1.5 10.8 0 1.7-0.2 2.7-0.8 3-0.5 0.5-1.4 0.4-2.6-0.4-1.3-0.7-2.9-1.4-4.9-1.9h-0.8c-2.8-0.8-3.2-2.3-1.1-4.5z m15.8-8.3c1-0.7 2.6-1.7 4.9-3 0.5-0.2 0.9-0.5 1.1-0.7 1-0.7 1.6-2.9 1.9-6.3 0-3.7 0.4-8.2 1.1-13.4 0-2.5 2-3 6.1-1.5 1.5 0.5 2.3 0.9 2.3 1.1 0.3 0.3-0.1 1.1-1.1 2.6-1.3 1.5-1.9 6.2-1.9 14.2 6.6-1.5 11.1-1.8 13.6-0.8 2.8 0.8 6.3 3.4 10.6 7.8 1 1 1.4 1.7 1.1 2.2 0 0.5-0.6 0.9-1.9 1.1-1.5 0.5-3.8 1.9-6.8 4.1-2.5 2-7.2 3-14 3-1.5 0-2.3-0.1-2.3-0.4-0.3-0.5 0.3-1 1.5-1.5 6.8-3.5 10.3-6.3 10.6-8.6-0.5-3-1.9-4.5-4.2-4.5-3.5 0.2-6.2 1-7.9 2.2-1.5 3.5-3.7 7.7-6.4 12.7-1.3 2.5-2.2 4.2-2.7 5.2 4.3 5.7 7.8 7.9 10.6 6.7 5.5-1.5 11.7-5.6 18.5-12.3 1-1 2.4-0.3 4.2 2.2 0.8 1 1 1.6 0.8 1.9 0 0.5-0.6 1-1.9 1.5-3.5 1.5-6.3 3-8.3 4.5-2 2-5.3 3.5-9.8 4.5-1.5 0-1.7 0.9-0.4 2.6 4.3 5.5 10.8 9.4 19.7 11.9 9.1 2.5 15.1 4.6 18.2 6.3 1.3 0.5 1.9 1.1 1.9 1.9 0 0.5-0.8 1-2.3 1.5-3.5 1-6.6 1.5-9.1 1.5s-6.4-0.2-11.7-0.7c-2.8 0-4.1-1.2-4.1-3.7-0.3-2.2-0.9-3.8-1.9-4.8-0.7-1-2.9-2.2-6.4-3.7-1.3-0.5-2.1-0.1-2.6 1.1-4.8 8.9-10.1 15-15.9 18.2-1.5 0.7-2.8 1.8-3.8 3s-2 1.1-3-0.4c-2.3-2.2-3.3-4.2-3-6 0-8.9 0.3-15 0.8-18.2 0.8-1.7 1-3.7 0.8-6 0-1.5-0.1-2.2-0.4-2.2-0.3-0.2-0.9 0-1.9 0.7-4.5 3.7-7.2 7-7.9 9.7 0 1.7-1.4 3.4-4.2 4.8-4 1.5-8.3 2.6-12.9 3.4-1.3 0.3-2 0.1-2.3-0.4 0-0.3 0.4-0.7 1.1-1.5 1.3-1.2 3.5-3.1 6.8-5.6 1.5-1.3 2.6-2.1 3.4-2.6 0.8-0.5 2.9-2.4 6.4-5.6 2.8-2.7 4.9-4.8 6.4-6.3 5.3-5.5 9.8-12.7 13.6-21.6-0.3 0.3-0.9 0.5-1.9 0.7-0.7 0.3-1.4 0.5-1.9 0.7-0.5 0.2-0.9-0.1-1.1-1.1-0.6-1.1-0.6-1.8-0.1-2.1z m-97.2 33.2c2.5 0 4.1-1 4.9-3 0.8-2 1.1-4 1.1-6 0-1.5-0.1-2.3-0.4-2.6-2-1-4.4-0.1-7.2 2.6-2.3 2.7-3.4 4.9-3.4 6.3 0.6 1.6 2.2 2.5 5 2.7z m-12.9-27.6h3.8c1.3 0 1.9 0.9 1.9 2.6v2.2c0 1-1.3 2-3.8 3-3.3 1-4.8 2.3-4.5 4.1v2.6c0 0.7 0.2 1.1 0.8 1.1 0.2 0 0.7-0.1 1.5-0.4 2.8-0.7 4.3-0.9 4.5-0.4-1.3 1.7-5.8 5.7-13.6 11.9-0.5 0.3-1.1 0.7-1.9 1.5-1.8 1.2-3.2 2.3-4.2 3.4l-0.4 0.4c-0.8 1.5-1.6 2.4-2.6 2.6-3.3-2.7-4.9-5-4.9-6.7 0-0.2 0.6-0.6 1.9-1.1 2.3-0.7 4.2-1.6 5.7-2.6 2.5-1.7 4.2-3 4.9-3.7 0.5-0.7 0.9-1.9 1.1-3.4v-4.8c0-1-0.6-1.4-1.9-1.1-0.5 0-1.5 0.6-3 1.9-1.5 1-2.4 1.4-2.6 1.1 0 0-0.1-0.7-0.4-2.2-0.5-1.7-0.9-3-1.1-3.7-0.5-2.7-0.6-4.5-0.4-5.2 0.2-0.5 2.1-0.7 5.7-0.7 2.8-0.3 4.3-0.5 4.5-0.7 0.5-0.5 0.8-3.8 0.8-10.1 0.3-4.7 0.5-7.2 0.8-7.4 1.3-0.3 3.2 0 5.7 0.7 2.3 0.5 3.3 1.3 3 2.6 0 0.5-0.4 1.2-1.1 2.2-0.5 0.7-0.8 1.4-0.8 1.9 0 1.3-0.1 3.7-0.4 7.5 0.1 0.3 0.5 0.7 1 0.9z m40.5-10c-2-0.3-3.2-2.1-3.4-5.6 0.5-4 1.9-5.8 4.2-5.6 0 0 0.3 0.2 0.8 0.7 0.5 1 1 1.7 1.5 2.2 4.8 3.7 7.4 6.1 7.9 7.1-0.6 0.6-4.2 0.9-11 1.2z m-32.2 11.5c0.3-1.5 0.5-2.5 0.8-3 0.3-0.2 1-0.2 2.3 0h1.1c6.3-1.5 10.3-2.6 12.1-3.4 1-0.5 1.4-1.4 1.1-2.6-1-7-2.3-13.1-3.8-18.3-0.3-1-0.4-1.5-0.4-1.5 0.2-1 1.4-1.5 3.4-1.5 2.5 0 4 0.4 4.5 1.1 0 0-0.1 0.3-0.4 0.7-1.3 1.7-1.8 3.3-1.5 4.8 0.8 2 1.6 6 2.6 11.9 0 0.2 0.1 0.5 0.4 0.7 0.3 1.5 0.6 2.2 1.1 2.2 1.5 0 2.9-0.4 4.2-1.1 0.5-0.3 0.9-0.4 1.1-0.4 0.7 0 1.9 1.4 3.4 4.1 0.7 0.7 1.1 1.9 1.1 3.4 0 1-0.4 1.5-1.1 1.5-4 0.3-6.3 0.5-6.8 0.7 0.8 7.2 2 12.3 3.8 15.3 1.3-1.8 2.3-3.5 3-5.2 0.7-2 1.3-4 1.5-6 1 0.2 1.9 0.6 2.6 1.1 2 1.5 3.2 2.9 3.4 4.1 0 0-0.1 0.2-0.4 0.7-1.3 1.7-2.8 4-4.5 6.7-0.5 0.7-1 1.6-1.5 2.6-1 1.5-1.5 2.6-1.5 3.3 3.8 7.7 8.3 12.8 13.6 15.3 1.5 0.3 2.5-0.2 3-1.5 1.5-3.2 2.6-8.5 3.4-15.7 0.3-1.7 0.4-2.6 0.4-2.6 1.3 2 2 6 2.3 11.9 0 0.5-0.1 1.9-0.4 4.1-0.3 2.5-0.4 4.2-0.4 5.2 0 4.2-0.1 6.8-0.4 7.8-0.3 1-0.9 1.5-1.9 1.5-2.3-0.3-6-2.1-11.3-5.6-2.5-2-6-6.3-10.6-13.1-1.3-1.7-1.9-2.6-1.9-2.6s-0.2 0.3-0.8 0.7c-2.3 1.7-4 2.7-5.3 3-4.5 0.2-6.9 0.2-7.2 0 0-0.3 0.8-0.9 2.3-1.9 1.8-1.2 3-2.1 3.8-2.6 2.3-1.7 3.8-3.4 4.5-4.8 0-0.3-0.1-0.7-0.4-1.5-1-2.5-1.9-5.1-2.7-7.8-0.3-0.7-0.5-2-0.8-3.7-1.3-5-2-7.4-2.3-7.4-3.3-1-6.7-0.3-10.2 2.2-1.8 1.7-2.6 4-2.6 6.7 0 0 0.8-0.1 2.3-0.4 2.8-0.7 5-1.1 6.8-1.1 2.8 0.7 4.4 2 4.9 3.7 0 0.2-0.4 1.4-1.1 3.4 0.8-1.7 0.5-1.1-0.8 1.9-0.8 1.5-1.6 4-2.6 7.5-0.8 1.7-1.3 3-1.5 3.7-1.5 4.2-2.7 6.5-3.4 6.7-0.5 0.2-2.3-0.8-5.3-3-0.7-0.5-1.3-0.9-1.5-1.1-0.8-0.5-1-0.6-0.8-0.4-2.3-2-3.8-3.1-4.5-3.4-0.3-0.3-0.8 0.4-1.5 1.9-1 1.7-1.9 2.8-2.6 3.4-1.8 1-3.8 1.6-6.1 1.9-3 0.5-4.8 0.4-5.3-0.4 0-0.2 1-1 3-2.2 3.3-2.5 5.6-4.4 6.8-5.6 1.8-1.5 3.4-4.2 4.9-8.2 2.6-5 3.4-11.1 2.6-17.8z m-99.1 36.9c7.1-3 10.5-5.7 10.2-8.2 0-1 0.4-2.5 1.1-4.5 0.5-1.7 0.8-3 0.8-3.7 0.5-3.2-0.9-4.5-4.2-3.7-1.3 0.3-2.3 0.4-3 0.4h-1.5c-2.8-0.5-4.5 0.7-5.3 3.7 0.2 3.2 3.3 2.8 9.1-1.1 1.3 0.3 1.9 1.7 1.9 4.5-0.2 1.2-1.1 2.1-2.6 2.6-2.5 0.7-4.8 1.9-6.8 3.4-0.2 0.2-0.7 0.4-1.5 0.4-1.8-0.2-2.6 1.4-2.6 4.9-0.1 2.1 1.4 2.6 4.4 1.3z m5.7-25.7c2 0 3.7-0.6 4.9-1.9 0.8-1.2 1.1-3.1 1.1-5.6-0.2 0-0.7 0.1-1.5 0.4-1.8 0.5-2.9 0.9-3.4 1.1-1 0.8-1.4 2.8-1.1 6z m12.1-1.9c4-0.7 6.1-2.5 6.1-5.2-0.2-2.2-2.1-3.2-5.7-3-0.8 1.5-1.4 3.5-1.9 6v0.7c-0.3 1.3 0.2 1.8 1.5 1.5z m-17-8.5c0.2-1 0.1-2.7-0.4-5.2-0.5-1.5-1-2.2-1.5-2.2-3 0.5-4.4 3.6-4.2 9.3 2.3-0.6 4.3-1.2 6.1-1.9z m5.6-3c-0.2 1.5 0.9 1.9 3.4 1.1 2.3-0.3 3.3-1 3-2.2 0.2-3-0.4-4.3-1.9-4.1-1.5-0.2-2.7 0.3-3.4 1.5-0.7 1-1.1 2.2-1.1 3.7z m-11.3-9.3c4.3 0.2 12.4-1 24.2-3.7 4.8-1.2 8.1-2 9.8-2.2 1.3-0.3 2.5 0.9 3.8 3.4 1.5 3.2 1.6 5.1 0.4 5.6-1.8-0.2-3.4-0.4-4.9-0.4h-5.7c-1.3 0-2.4 1-3.4 3-1 2.2-1 3.5 0 3.7 2.3 0 4.2-0.1 5.7-0.4 1-0.2 3.1 0.4 6.4 1.9 1 0.2 1.8 0.5 2.3 0.7 1.3 0.7 1.5 1.6 0.8 2.6-0.5 0.3-0.8 0.5-0.8 0.8-2.5 4.7-4.8 7.7-6.8 8.9-0.3 0.2-0.6 0.6-1.1 1.1-0.5 1.2-1.8 1.6-3.8 1.1-3-0.7-4.4 0.8-4.2 4.5 0 0.2-0.1 0.6-0.4 1.1-0.5 1.2 0 2 1.5 2.2 2-0.2 4.3-0.7 6.8-1.5 0.7-0.3 1.5-0.9 2.3-1.9 0.8-0.7 1.3-1.1 1.5-1.1 1.5 1.2 2.4 3.4 2.6 6.3 0 1-1.3 1.9-3.8 2.6-2.3 0.7-4.3 1.5-6 2.2-3 1.2-4.8 2.2-5.3 3-0.8 0.5-1.4 2.1-1.9 4.9 0 4.5 4.5 6.8 13.6 7.1 9.1 0 13.4-5.6 12.9-16.8 0-2.2 0.3-3.5 0.8-3.7 0.8 0 1.6 1 2.7 3 2 4.7 3.3 10.2 3.8 16.4 0.3 2.7 0.3 4.3 0 4.8-0.2 0.5-1.3 0.9-3 1.1-8.3 1-16.3 1.1-23.8 0.4-7.6-1.7-11.5-6.8-11.7-15.3-1.3 3.5-5.7 7.1-13.2 10.8-0.8 0.2-1.3 0.5-1.5 0.7-2.5 1.5-4 1.1-4.5-1.1-0.2-0.7-0.4-1.1-0.4-1.1-1-3.5-0.5-8.7 1.5-15.6 1-3.7 1.4-6.1 1.1-7.1-1.5-4.7-0.6-6.9 2.6-6.7 1-0.2 1.8-0.4 2.3-0.4 2.3-0.5 3.3-1.6 3-3.4 0.3-2.2-1.3-3.1-4.5-2.6-2.8-0.3-4.7 1.7-5.7 6l-3 6c-3 4.5-4.4 7.5-4.2 8.9-1.3 5.2-6.2 9.1-14.7 11.6-2.3 0.7-3.5 0.9-3.8 0.4-0.2-0.5 0.4-1.6 1.9-3.3 1-1.3 2.8-3 5.3-5.2 7.1-5.7 11.7-12.5 14-20.5 2-6 3-11.9 3-17.9-0.3-4.2 1-5.8 3.8-4.8h1.7z m18.1-4.9c-3-1.5-5.9-3.3-8.7-5.6-0.5-0.5-0.3-1.6 0.8-3.4 1.3-2 2.2-3.6 2.7-4.8 0.5-1.7 1.1-2.5 1.9-2.2 0.8 0 1.9 0.9 3.4 2.6 3.3 3.2 4.7 6.4 4.2 9.7-0.6 3-2 4.2-4.3 3.7z m666.9 39c0.8-1.3 2.3-3.2 4.5-5.7 1.3-1.3 2.1-2.2 2.6-2.7 4.5-5.9 8.7-11.6 12.5-17.2 3-4.3 4.8-6.8 5.3-7.3 3.3 1 5 2.6 5.3 4.6 0 0.2-0.8 1.1-2.3 2.7-1 1-1.5 1.6-1.5 1.9-0.2 1.3-0.5 3.3-0.8 6.1-1.5 13.3-1.8 23.2-0.7 29.9 0 0.5-0.9 0.9-2.7 1.1-1.5 0-2.6-0.1-3.4-0.4-0.3-0.5-0.4-1-0.4-1.5 0-1.5 0.3-4.3 0.8-8.4 0.5-5.1 0.6-8.8 0.4-11.1 0-5.1-0.5-7.5-1.5-7.3-2.8 1.8-4.4 4.8-4.9 9.2 0 1.8-1 3.2-3 4.2-1.8 1-3.6 1.8-5.7 2.3-2.3 0.2-3.8 0.1-4.5-0.4z m31.3-26.8c0-0.8 0.3-0.9 0.8-0.4s2 0.5 4.5 0c3.3-0.5 8.4-1.7 15.5-3.4 11.3-3.1 19-4.3 23-3.8 1.3 0 2.5 2 3.8 6.1v0.4c1.3 2 1.3 3.4 0 4.2h-0.4c-4.3-1.3-8.3-1.3-12.1 0-2 0.8-3 2.4-3 5 0 9.4 0.1 16.7 0.4 21.8 0.5 5.9 1.1 11.2 1.9 16.1 0.2 0.5 0 0.6-0.8 0.4-12.1-1.3-22.1-5.9-30.2-13.8-0.3-0.5-0.4-0.9-0.4-1.2 0.3-0.2 0.6-0.2 1.1 0 1 0.3 2.6 0.9 4.9 1.9 5.5 2 9.9 3.1 13.2 3.1 2.3 0 3.4-1 3.4-3.1 0-8.2-0.4-16.2-1.2-24.1-0.2-3.6-1.7-5.4-4.5-5.4-1 0.2-2.5 0.5-4.5 0.8-6 0.8-10.2 2-12.5 3.8-0.2 0.3-0.9-0.6-1.9-2.7-0.1-0.7-0.5-2.7-1-5.7z m10.2-18c3.3-0.5 6.7-1.4 10.2-2.7 2.5-1 5-2 7.5-3.1 1.5-0.2 2.8-0.4 3.8-0.4 0.8 0 1.5 1 2.3 3.1 1 2.3 1.3 3.6 0.8 3.8-4.3 2.5-8.8 4.7-13.6 6.5-1.5 0.5-4.1 1-7.9 1.5h-1.5c-0.8 0.3-1.1 0.3-1.1 0-0.2 0-0.4-0.4-0.4-1.1-0.3-2-0.8-4-1.5-5.8-0.5-1-0.1-1.6 1.1-1.9h0.3z m-28.7 14.9c0.5-1.3 2-4.5 4.5-9.6 0.5-1 1.1-2.3 1.9-3.8 1-1.5 2.5-4.2 4.5-8.1 1-1.8 3.2-1 6.4 2.3 2.5 2.5 3 4.2 1.5 5-1 0.5-2.1 1.6-3.4 3.4-0.7 0.8-1.4 1.4-1.9 1.9-1.3 1.3-3.9 3.6-7.9 6.9-1.5 1.5-2.6 2.6-3.4 3.1-0.7 0.3-1.4-0.1-2.2-1.1zM877 511.3c3.8-0.5 7.9-3.4 12.5-8.8 1-1.3 1.4-2.1 1.1-2.7 0-0.2-0.6-0.5-1.9-0.8-3.8-0.5-6.7-1.3-8.7-2.3-1.8-1-3-0.5-3.8 1.5-2.8 8.3-2.5 12.6 0.8 13.1z m3.7-29.4c5.5-2 8.3-4.1 8.3-6.1 0.3-2.5 0.5-5.4 0.8-8.4 0.3-1.5 0.4-2.8 0.4-3.8-0.5-2.3-2.5-2.8-6-1.5-3.3 1.3-4.8 2.9-4.5 5 0 1 0.1 1.7 0.4 1.9 0.3 0.3 0.9 0.1 1.9-0.4 2.3-1.3 3.5-0.6 3.8 1.9 1 2.5 0.1 4.2-2.7 5-2.5 0.8-4 2.3-4.5 4.6-0.2 1.3-0.2 2 0 2.3 0.1 0.1 0.9 0 2.1-0.5z m-7.9-16.5c-0.5-2.3 0.1-3.4 1.9-3.4 0.5-0.3 1.4-0.8 2.6-1.5 4-2.8 9.2-4.2 15.5-4.2 4 0 6.8 0.5 8.3 1.5 1.5 0.5 1.6 1.5 0.4 3.1-3.8 8.7-5.8 14.9-6 18.8 0.5 1.8-0.1 2.8-1.9 3.1-1.3 0.2-3.8 1.3-7.6 3.1-1.7 0.8-3.3 1.4-4.5 1.9-1 0.5-1.5 1-1.5 1.5 0 0.3 0.6 0.6 1.9 1.1 1.3 0.5 2.9 0.4 4.9-0.4 7.3-2.3 12.8-5.6 16.6-10 1.3-1 2.9-0.5 4.9 1.5 1.3 1 0.9 1.9-1.1 2.7-1.8 0.8-3.4 1.7-4.9 2.7-2.5 2-6.2 4.1-10.9 6.1-1 0.3-1.5 0.5-1.5 0.8 0 0.3 0.4 0.6 1.1 1.2 4.3 2.3 7.9 4.5 10.9 6.5 1 0.8 3.3 1.7 6.8 2.7 5 1 8.9 2.3 11.7 3.8 1.5 0.5 2.2 1.1 2.2 1.9 0 0.5-0.6 1.1-1.9 1.9-1.8 1-3.9 1.6-6.4 1.9-2 0.3-5.4 0.3-10.2 0-2.5 0.3-4-0.6-4.5-2.7-1.3-3.8-2.6-6.4-4.2-7.7-2.3-2.3-3.5-2.4-3.8-0.4-1.3 2.3-2.4 4.1-3.4 5.4-1.5 1.8-2.4 3.2-2.6 4.2-0.3 1.8-3.3 4.3-9.1 7.7-1.8 0.8-3 0.4-3.8-1.2-2-3.3-2.4-11.1-1.1-23.3 0.5-6.6 0.9-12.6 1.1-18 0.4-5.7 0.4-9.8 0.1-12.3z m-40 19.9c1.3-2.3 4.3-5.4 9.1-9.2 2.8-2.3 5.5-5.7 8.3-10.3 4.3-6.1 8.1-11.3 11.3-15.7 0.7-1.3 2.6-0.9 5.7 1.2 1.5 1.3 1.4 2.3-0.4 3.1-1.5 0.5-3.5 2.4-6 5.8-0.5 0.5-0.6 0.9-0.4 1.1 0 0.3 0.4 0.5 1.1 0.8 2.3 0.5 4.5 0.8 6.8 0.8 2 0.8 1.6 3.1-1.1 6.9-1.5 1-3 0.9-4.5-0.4-3.8-2.5-6.4-3.2-7.9-1.9-1 1-2.5 2.9-4.6 5.7-1 1-1.7 1.9-2.3 2.7-0.5 0.5-0.6 1-0.4 1.5 0.3 0.5 0.6 0.6 1.1 0.4 5.8-1.8 10.2-2.8 13.2-3.1 2.3-0.8 3.4 0.1 3.4 2.7 0.5 2.3-0.1 3.4-1.9 3.4-3.8 1-6 2.9-6.8 5.7-0.3 1.5 0.5 2 2.3 1.5 0.8-0.3 2.4-1 4.9-2.3 0.8-0.5 1.8 0 3 1.5 1.3 1.3 1.3 2.4 0 3.4-4.8 3.3-8.4 5.7-11 7.3-1 0.5-1.5 3.3-1.5 8.4 0.2 1.8 1.4 2.2 3.4 1.1 2.5-1 4.9-4.2 7.2-9.6 0.5-1.3 0.9-1.9 1.1-1.9 0.2 0 0.4 0.8 0.4 2.3-0.2 8.2-3.4 14.7-9.4 19.5-1.5 1.5-2.8 1.4-3.8-0.4-1-1-1.6-2.5-1.9-4.6-0.3-1.8-0.4-5.4-0.4-10.7 0.3-1.5-0.2-2.2-1.5-1.9-1.5 0.2-3 0.9-4.5 1.9-1 1-1.9 0.5-2.6-1.5-2.5-4.9-2.6-7.3-0.4-7.3 2.5 0 5-0.4 7.6-1.1 1.3 0 1.8-0.8 1.5-2.3 0-1.8-0.4-2.4-1.1-1.9-1.8 0.5-2.8-1.2-3-5 0-1.3-0.2-1.9-0.7-1.9-0.3-0.3-0.8 0.1-1.5 1.1-1.8 2.3-5.3 4-10.6 5-1 0.3-1.5 0.3-1.5 0-0.3-0.1-0.2-0.8 0.3-1.8z m167.2 96.4V553h3.8v14.3l14.4-14.3h5.2l-12.2 11.6 12.7 17.1h-5.1l-10.3-14.6-4.8 4.6v10h-3.7z m-29.5 0V553h4l15.5 22.6V553h3.7v28.8h-4l-15.4-22.6v22.6h-3.8z m-21.6-11.9h9.6l-3-7.8c-0.9-2.4-1.6-4.3-2-5.8-0.4 1.8-0.9 3.6-1.5 5.4l-3.1 8.2z m-8 11.9l11.2-28.8h4.1l11.9 28.8h-4.4l-3.4-8.7h-12.1l-3.2 8.7h-4.1z m-20.7-4h7.4c1.3 0 2.2-0.1 2.7-0.1 0.9-0.2 1.7-0.4 2.3-0.8 0.6-0.3 1.1-0.9 1.5-1.5 0.4-0.7 0.6-1.5 0.6-2.4 0-1-0.3-1.9-0.8-2.7-0.6-0.8-1.3-1.3-2.4-1.6-1-0.3-2.4-0.5-4.3-0.5h-6.8v9.6z m0-12.7h6.2c1.7 0 2.9-0.1 3.6-0.3 1-0.3 1.7-0.8 2.2-1.4 0.5-0.7 0.7-1.5 0.7-2.5s-0.2-1.8-0.7-2.5c-0.5-0.7-1.1-1.2-2-1.5-0.8-0.3-2.3-0.4-4.4-0.4H920v8.6z m-3.2 16.7V553h10.7c2.2 0 3.9 0.3 5.2 0.9 1.3 0.6 2.4 1.5 3.1 2.7 0.7 1.2 1.1 2.5 1.1 3.8 0 1.2-0.3 2.4-1 3.5s-1.7 2-3 2.6c1.7 0.5 3 1.4 4 2.6 0.9 1.2 1.4 2.7 1.4 4.4 0 1.3-0.3 2.6-0.8 3.8-0.6 1.2-1.3 2-2.1 2.7-0.8 0.6-1.9 1.1-3.1 1.4-1.3 0.3-2.8 0.5-4.6 0.5H917z m-47.2 0V553h20.9v3.4h-17.1v8.8h16v3.4h-16v9.8h17.7v3.4h-21.5z m-19.1 0L839.5 553h4.1l7.5 20.9c0.6 1.7 1.1 3.2 1.5 4.7 0.4-1.6 1-3.1 1.6-4.7L862 553h3.9l-11.3 28.8h-3.9z m-19.1 0V553h3.8v28.8h-3.8z m-17.6 0v-25.4h-9.6V553h23.2v3.4h-9.7v25.4H814z m-26.4-11.9h9.6l-3-7.8c-0.9-2.4-1.6-4.3-2-5.8-0.4 1.8-0.9 3.6-1.5 5.4l-3.1 8.2z m-8.8 11.9l11.1-28.8h4.1l11.9 28.8h-4.4l-3.4-8.7H786l-3.2 8.7h-4z m-21.6-15.9h8.1c1.7 0 3.1-0.2 4.1-0.5 1-0.4 1.7-0.9 2.2-1.7 0.5-0.8 0.8-1.7 0.8-2.6 0-1.4-0.5-2.5-1.5-3.4-1-0.9-2.5-1.3-4.7-1.3h-9v9.5z m-4 15.9V553h12.9c2.6 0 4.5 0.3 5.9 0.8 1.3 0.5 2.4 1.4 3.2 2.7 0.8 1.3 1.2 2.8 1.2 4.3 0 2-0.7 3.8-2 5.2-1.3 1.4-3.4 2.3-6.2 2.7 1 0.5 1.8 1 2.3 1.4 1.1 1 2.2 2.3 3.2 3.8l5 7.8H774l-3.8-6c-1.1-1.7-2-3-2.8-4-0.7-0.9-1.4-1.6-2-1.9-0.6-0.4-1.2-0.6-1.7-0.8-0.4-0.1-1.1-0.1-2.1-0.1h-4.5v12.8h-3.9z m-27.1 0V553H747v3.4h-17.1v8.8h16v3.4h-16v9.8h17.7v3.4h-21.5z m-23.2-15.1h7.5c2.5 0 4.3-0.5 5.3-1.4 1-0.9 1.6-2.2 1.6-3.9 0-1.2-0.3-2.3-0.9-3.1-0.6-0.9-1.4-1.4-2.4-1.7-0.7-0.2-1.9-0.3-3.6-0.3H703v10.4z m-4 15.1V553h11c2 0 3.4 0.1 4.5 0.3 1.4 0.2 2.6 0.7 3.6 1.3 1 0.7 1.8 1.6 2.4 2.8 0.6 1.2 0.9 2.5 0.9 3.9 0 2.4-0.8 4.5-2.4 6.2-1.6 1.7-4.5 2.5-8.6 2.5h-7.5v11.7h-3.9z m-28.7-14.3c0 3.5 0.9 6.2 2.8 8.2 1.9 2 4.3 3 7.1 3 2.9 0 5.3-1 7.2-3 1.9-2 2.8-4.9 2.8-8.6 0-2.3-0.4-4.4-1.2-6.1-0.8-1.7-2-3.1-3.5-4.1-1.6-1-3.3-1.4-5.2-1.4-2.7 0-5.1 0.9-7.1 2.8-2 1.8-2.9 4.9-2.9 9.2z m-4-0.1c0-4.7 1.3-8.5 3.9-11.1 2.6-2.7 6-4 10.1-4 2.7 0 5.1 0.6 7.3 1.9 2.2 1.3 3.8 3 5 5.3 1.1 2.2 1.7 4.8 1.7 7.7 0 2.9-0.6 5.5-1.8 7.8-1.2 2.3-2.9 4-5.1 5.2-2.2 1.2-4.6 1.8-7.1 1.8-2.8 0-5.2-0.6-7.4-1.9-2.2-1.3-3.8-3.1-4.9-5.3-1.2-2.5-1.7-4.9-1.7-7.4z m-28 0.1c0 3.5 0.9 6.2 2.8 8.2 1.9 2 4.3 3 7.1 3 2.9 0 5.3-1 7.2-3 1.9-2 2.8-4.9 2.8-8.6 0-2.3-0.4-4.4-1.2-6.1-0.8-1.7-2-3.1-3.5-4.1-1.6-1-3.3-1.4-5.2-1.4-2.7 0-5.1 0.9-7.1 2.8-1.9 1.8-2.9 4.9-2.9 9.2z m-4-0.1c0-4.7 1.3-8.5 3.9-11.1 2.6-2.7 6-4 10.1-4 2.7 0 5.1 0.6 7.3 1.9 2.2 1.3 3.8 3 5 5.3 1.1 2.2 1.7 4.8 1.7 7.7 0 2.9-0.6 5.5-1.8 7.8-1.2 2.3-2.9 4-5.1 5.2-2.2 1.2-4.6 1.8-7.1 1.8-2.8 0-5.2-0.6-7.4-1.9-2.2-1.3-3.8-3.1-4.9-5.3-1.1-2.5-1.7-4.9-1.7-7.4z m-7 3.9l3.8 1c-0.8 3.1-2.2 5.5-4.3 7.1-2.1 1.6-4.6 2.4-7.7 2.4-3.1 0-5.6-0.6-7.6-1.9-1.9-1.3-3.4-3.1-4.5-5.4-1-2.4-1.5-4.9-1.5-7.7 0-3 0.6-5.6 1.7-7.8s2.8-3.9 4.9-5.1c2.1-1.1 4.5-1.7 7-1.7 2.9 0 5.3 0.7 7.3 2.2 2 1.5 3.3 3.5 4.1 6.1l-3.8 0.9c-0.7-2.1-1.6-3.6-2.9-4.5-1.3-1-2.9-1.4-4.8-1.4-2.2 0-4.1 0.5-5.6 1.6s-2.5 2.5-3.1 4.2c-0.6 1.8-0.9 3.6-0.9 5.5 0 2.4 0.4 4.5 1.1 6.4 0.7 1.8 1.8 3.2 3.3 4.1 1.5 0.9 3.2 1.3 4.9 1.3 2.1 0 3.9-0.6 5.4-1.8 1.7-1.3 2.7-3.1 3.2-5.5z m-62.5 10.5V553h3.9v25.4h14.5v3.4h-18.4z m-21.5-11.9h9.6l-3-7.8c-0.9-2.4-1.6-4.3-2-5.8-0.4 1.8-0.9 3.6-1.5 5.4l-3.1 8.2z m-8 11.9l11.1-28.8h4.1l11.9 28.8H558l-3.4-8.7h-12.1l-3.2 8.7h-4.1z m-22.4-15.9h8.1c1.7 0 3.1-0.2 4.1-0.5 1-0.4 1.7-0.9 2.2-1.7 0.5-0.8 0.8-1.7 0.8-2.6 0-1.4-0.5-2.5-1.5-3.4-1-0.9-2.5-1.3-4.7-1.3h-9.1v9.5z m-4 15.9V553h12.9c2.6 0 4.6 0.3 5.9 0.8 1.3 0.5 2.4 1.4 3.2 2.7 0.8 1.3 1.2 2.8 1.2 4.3 0 2-0.7 3.8-2 5.2-1.3 1.4-3.4 2.3-6.2 2.7 1 0.5 1.8 1 2.3 1.4 1.1 1 2.2 2.3 3.2 3.8l5 7.8h-4.8l-3.8-6c-1.1-1.7-2-3-2.8-4-0.7-0.9-1.4-1.6-1.9-1.9-0.6-0.4-1.2-0.6-1.7-0.8-0.4-0.1-1.1-0.1-2.1-0.1h-4.5v12.8h-3.9zM498.5 553h3.9v16.3c0 2.8-0.3 5.1-1 6.8-0.7 1.7-1.9 3-3.6 4.1-1.7 1.1-4 1.6-6.9 1.6-2.8 0-5-0.5-6.8-1.4-1.7-0.9-3-2.2-3.8-4-0.8-1.7-1.1-4.1-1.1-7.1V553h3.9v16.3c0 2.5 0.2 4.3 0.7 5.4 0.5 1.2 1.3 2.1 2.5 2.7 1.2 0.6 2.6 0.9 4.2 0.9 2.9 0 4.9-0.6 6.1-1.9 1.2-1.2 1.8-3.6 1.8-7.2V553z m-44 12.8h8.1c1.7 0 3.1-0.2 4.1-0.5 1-0.4 1.7-0.9 2.2-1.7 0.5-0.8 0.8-1.7 0.8-2.6 0-1.4-0.5-2.5-1.5-3.4-1-0.9-2.5-1.3-4.7-1.3h-9v9.5z m-4 15.9V553h12.9c2.6 0 4.6 0.3 5.9 0.8 1.3 0.5 2.4 1.4 3.2 2.7 0.8 1.3 1.2 2.8 1.2 4.3 0 2-0.7 3.8-2 5.2-1.3 1.4-3.4 2.3-6.2 2.7 1 0.5 1.8 1 2.3 1.4 1.1 1 2.2 2.3 3.2 3.8l5 7.8h-4.8l-3.8-6c-1.1-1.7-2-3-2.8-4-0.7-0.9-1.4-1.6-2-1.9-0.6-0.4-1.2-0.6-1.8-0.8-0.4-0.1-1.1-0.1-2.1-0.1h-4.5v12.8h-3.7zM409.3 570v-3.3h12.4v10.6c-1.9 1.5-3.9 2.6-5.9 3.3-2 0.7-4.1 1.1-6.2 1.1-2.9 0-5.5-0.6-7.9-1.8-2.4-1.2-4.1-2.9-5.3-5.2-1.2-2.3-1.8-4.8-1.8-7.6s0.6-5.4 1.8-7.8c1.2-2.4 2.9-4.2 5.1-5.4 2.2-1.2 4.8-1.7 7.8-1.7 2.1 0 4 0.3 5.7 1 1.7 0.7 3.1 1.6 4 2.8 1 1.2 1.7 2.8 2.2 4.7l-3.5 0.9c-0.4-1.5-1-2.6-1.6-3.4-0.7-0.8-1.6-1.5-2.8-2-1.2-0.5-2.6-0.8-4-0.8-1.8 0-3.3 0.3-4.6 0.8-1.3 0.5-2.3 1.2-3.1 2.1-0.8 0.9-1.4 1.8-1.9 2.8-0.7 1.8-1.1 3.7-1.1 5.8 0 2.5 0.4 4.7 1.3 6.4 0.9 1.7 2.2 3 3.9 3.8 1.7 0.8 3.5 1.2 5.5 1.2 1.7 0 3.3-0.3 4.9-1 1.6-0.6 2.8-1.3 3.6-2V570h-8.5z m-42.7 11.7V553h4l15.4 22.6V553h3.7v28.8h-4l-15.4-22.6v22.6h-3.7z m-23.9 0V553h20.9v3.4h-17.1v8.8h16v3.4h-16v9.8h17.7v3.4h-21.5z m-29.6 0V553h3.8v11.8h14.8V553h3.8v28.8h-3.8v-13.6h-14.8v13.6h-3.8z m-8.6-10.5l3.8 1c-0.8 3.1-2.2 5.5-4.3 7.1-2.1 1.6-4.6 2.4-7.6 2.4-3.1 0-5.6-0.6-7.6-1.9-2-1.3-3.4-3.1-4.5-5.4-1-2.4-1.5-4.9-1.5-7.7 0-3 0.6-5.6 1.7-7.8 1.2-2.2 2.8-3.9 4.9-5.1 2.1-1.1 4.5-1.7 7-1.7 2.9 0 5.3 0.7 7.3 2.2 2 1.5 3.3 3.5 4.1 6.1l-3.8 0.9c-0.7-2.1-1.6-3.6-2.9-4.5-1.3-1-2.9-1.4-4.8-1.4-2.2 0-4.1 0.5-5.6 1.6s-2.5 2.5-3.1 4.2c-0.6 1.8-0.9 3.6-0.9 5.5 0 2.4 0.4 4.5 1.1 6.4 0.7 1.8 1.8 3.2 3.4 4.1 1.5 0.9 3.1 1.3 4.9 1.3 2.1 0 4-0.6 5.4-1.8 1.5-1.3 2.5-3.1 3-5.5zM273.3 553h3.9v16.3c0 2.8-0.3 5.1-1 6.8s-1.9 3-3.6 4.1c-1.8 1.1-4 1.6-6.9 1.6-2.7 0-5-0.5-6.8-1.4-1.7-0.9-3-2.2-3.8-4-0.8-1.7-1.1-4.1-1.1-7.1V553h3.9v16.3c0 2.5 0.2 4.3 0.7 5.4 0.5 1.2 1.3 2.1 2.4 2.7 1.2 0.6 2.6 0.9 4.3 0.9 2.9 0 4.9-0.6 6.1-1.9 1.2-1.2 1.8-3.6 1.8-7.2V553z m-41.7 28.7V553h3.9v25.4H250v3.4h-18.4z" fill="#050000"></path><path d="M101.9 410c56.7 0 102.6 45.8 102.6 102.1 0 7.5-1 14.9-2.4 21.7-32.4-0.9-112-5.2-105.6-13.2 5.2-6.6 26.9-5.7 44.4-17.7 5.4-3.5-8.5-11.6-27.9-14.1-30.5-3.8-95.5-14.2-42.3-21.5 70.9-9.9-4.5-21.9-45.1-23.3 18.6-20.8 45.8-34 76.3-34" fill="#0A6BAF"></path><path d="M190.1 564.3c-17.9 29.9-50.4 50.2-87.9 50.2C45.7 614.5 0 568.8 0 512.5c0-25 9-48.1 24-65.7 58.7 6.1 58.2 10.1 23.3 16.5-46.6 9.2-20.3 17.4 9.9 24.3 15.3 3.3 31.1 5.4 40.5 12.2 8.7 6.1-42.2 7.5-47.8 21.2-4.4 10.1 53.3 32 140.2 43.3" fill="#17A252"></path></svg>