<svg viewBox="0 0 1024 1024" version="1.1" xmlns="http://www.w3.org/2000/svg"><path d="M0 0m224 0l576 0q224 0 224 224l0 576q0 224-224 224l-576 0q-224 0-224-224l0-576q0-224 224-224Z" fill="#FFFFFF"></path><path d="M610.448 184c-0.092 0-0.16 0.016-0.252 0.016-1.6 0.144-1.16 1.26 0 2.02 14.344 9.132 28.012 20.108 40.84 32.672 12.116 11.86 23.464 25.1 35.332 38.304 1.516 1.664 0.608 3.38 2.068 5.08 1.104 1.256 4.58 2.512 5.68 3.856 11.6 14.196 22.864 34.588 34.34 56.04 3.72 6.9 1.92 9.592-3.032 2.176-7.252-10.78-11.528-14.04-15.108-18.196-12.296-13.824-7.66-2.62-5.36 1.344 36.468 62.376 56.336 146.924 38.768 228.04-29.024 133.936-158.008 200.892-290.236 168.36-117.648-28.92-164.548-161.632-130.14-249.192 35.904-91.312 130.924-114.108 197.26-94.304v179.192h-142.24c24.784 106.92 141.796 129.488 212.088 90.532 49.516-27.452 68.58-79.452 55.628-119.452-20.476-63.364-52.404-64.728-10.032-129.172 43.904-66.728 33.728-191.456-150.44-191.456-151.308 0-297.252 111.12-312.504 296.98C157.64 675.464 306.012 844 500.904 844c217.36 0 357.28-150.66 350.884-358.328-1.3-43.292-11.632-86.816-29.4-127.348-4.772-10.92-9.44-21.136-14.396-30.832-1.92-3.72-5.576-5.68-7.588-9.24-1.604-2.832-1.444-7.36-3.1-10.124a262.684 262.684 0 0 0-31.7-42.676c-4.844-5.36-20.328-24.46-25.532-29.452-7.68-7.416-1.228 4.868 5.272 17.152 5.92 11.168 11.92 22.32 7.448 18.672-4.736-3.856-40.536-54.62-45.488-58.212-2.264-1.628-4.524-0.94-6.804-0.248-2.192 0.672-4.42 1.328-6.664-0.108-5.008-3.24-10.14-15.168-15.308-18.088a283.48 283.48 0 0 0-20.42-10.424c-13.488-5.648 25.98 27.736 12.616 29.788-2.28 0.336-15.396-7.468-28.952-15.256-13.168-7.596-26.748-15.188-31.148-15.276h-0.176z" fill="#C6000C"></path></svg>