<svg viewBox="0 0 1024 1024" version="1.1" xmlns="http://www.w3.org/2000/svg"><path d="M715.52392 418c0.6-0.5 1.5-0.7 2.3-0.4 0.8 0.3 1.5 1.2 2.4 2.1 0.9 0.9 1.9 3.1 3.9 4.6l2.5 1.7c1.3 0.8 2.4 1.5 2.9 2.2 1.7 2.2 4 1.8 5.1 1.9 1.6 0.2 3.5 0.1 4.9 0.7 1.4 0.6 2.7 1.4 4.6 1.4 2.2 0 5-1.2 5.5-1.6 0.4-0.4 0.7-0.8 1.6-1.4 1.7-1.3 1.9-1.9 2.4-2.8 0 0 0.2-0.4 0.7-0.9 0.5-0.6 1.7-1.2 3.5-1.4 1.8-0.2 6.3 1.4 8.5 1.4 1.3 0 5.6-0.1 14.6 0.5l13-0.2s3.9-0.2 5.6-0.3c1.7-0.1 7.7-0.6 7.7-0.6 4.1-0.1 4.6 1.3 7.7 1.8 1.8 0.3 5.1 1.2 8.3 1.2h0.4c2 0 4.3 3.2 5.6 5.2 0.7 1.1 1.1 2 1.1 2.8 0 0.7-0.3 1.4-0.8 2.4-1 1.9-2.8 3.5-5.2 5.5l-0.4 0.3c-2.8 2.4-3.8 4.6-3.8 8.7l0.1 5.8-0.1 2s-0.1 1.9-0.3 3.4c-0.3 1.5-0.7 3.2-0.7 5.1l0.2 4.6v0.6l0.4 3.6s0.3 2.2 0.2 3.2c-0.1 1.3-0.5 2-0.8 3.1-0.4 1.5-1.1 2-2.2 2.5-1.1 0.4-3.1 0.6-3.1 0.6l-3.3 0.7c-2.4 0.7-4.1 2.9-4.4 5.5v0.9c0 2.1 0.9 3.8 2.4 4.8 1.5 0.9 4 4 5 5.3l1.1 1.4c3 3.6 5.4 6.4 8.5 9 1.2 1 4.1 3.3 5.3 4.2 1.5 1 3.2 2.2 5.4 2.7 1.8 0.5 4.1 0.8 5.8 0.6 1.6-0.2 2.1-0.6 2.5 0.7 1 2.9-0.9 6.1-1.9 7.7-0.9 1.4-2.2 2.8-3.6 4.4-1.4 1.5-4.2 5-7.5 6.6-2.5 1.3-4 1.9-8.5-0.5-4.2-2.2-5.9-3.6-8.1-7.2-2.8-4.7-6.7-7.1-10.9-6.7-2 0.2-3.4 1.3-4.4 2.1-1 0.8-1.8 1.4-3.3 1.6-1.6 0.2-5.4 0.1-8.6 0.1-7.5-0.1-10.8-0.1-12.4 0.7-1.3 0.6-2.6 2-4.1 3.4-1.5 1.6-3.3 3.3-4.8 4.1-2.1 1-3.4 2.2-4.4 3.1l-2 1.2c-2.3 0.8-7.8 0.6-9-0.4l-1-0.9c-2.1-1.7-4.4-4-5.1-9.1-0.2-2.1 0.1-4.5 0.2-8.6 0.1-2.3-0.6-4.3-3.5-4.8-3.5-0.7-8.9 2.3-11.8 4.3-0.7 0.5-1.7 1-1.7 1-3.9 2.3-11.4 8.3-14.8 11.5l-0.9 0.9c-3 3-4.5 4.3-6.1 3.8-2.3-0.7-5.6-2.9-5.6-5.6v-0.4c0-1 0.3-2.7 0.5-3.5 0.2-0.8 0-2.4 0-3.1 0-0.7 0-1-0.1-1.6-0.1-0.6-0.2-2.4-0.5-3.1-0.3-0.6-0.3-1.2-0.2-2.2 0.1-1 0.7-1.5 1-1.9 0.4-0.4 1.4-1 1.4-1 2-1.3 3.7-2.5 4.6-3.9 0.7-1.3 1.2-4.1 1.2-6.7 0-1.6-0.2-3.8-1.2-5-1.2-1.5-3.1-1.3-6-1.1-2.5 0.2-5.8 0.4-7.4-0.5-3.1-1.8-4.7-5.3-4.7-10.2v-1.1c0.2-4.5 1-4.7 2.3-4.9l3.4 0.1c4.2 0.3 7.1 0.4 8.9-0.6 2.2-1.3 3.5-3 3.3-4.9-0.1-1.1-0.7-2.7-3-3.7-1.7-0.7-3.4-0.7-5-0.7-1.1 0-2.2 0.1-2.7-0.3 0 0-0.6-0.3-1-0.7-0.4-0.4-0.6-0.8-0.8-1.1-1-1.7 0.8-3.6-1.7-5.5-0.7-0.6-2-1.2-3.8-0.8l-2.5 0.8c-1.8 0.7-3.3 1.3-5 0.7-1.9-0.7-5-3.1-5-11.7 0-7.4 7.4-13.2 11.8-15.5h-0.1c0.2-0.1 0.9-0.4 3.4-1.5 3.4-1.6 9-4.6 10.9-6.3 2-1.7 1.5-1.1 3.6-2.8 3.7-2.8 7-5.2 8.4-8.8 1.8-3.3 2.1-3.5 3.2-4.3z m-364.9 29.8c1 0.7 1.5 2.5 1.6 5.3 0.1 2.8 0.2 3.6 0.1 4.7-0.1 1-0.4 1.8-0.5 2.9-0.1 1.1 0 2.3-0.2 3.6-0.2 1.3-0.5 1.8-0.7 2.5-0.2 0.7-0.1 1.2 0.2 1.7 0 0 1.5 1.8 2.4 3.1 1 1.3 1.6 4.3 1.6 5.6 0.1 3.3 0 6.1-0.3 8.8-0.6 7.2-3.2 10.3-3.9 11.2-1.2 1.6-3.2 4.4-3.7 5.1-0.5 0.6-0.6 1.2-0.6 2.3-0.1 1 0.2 1.9 0.8 2.5 0.4 0.5 4.1 2.1 6 2.3 1.9 0.3 5 0 12.6 0.5 11.9 0.8 26.9 3.1 29.5 3.5 2.6 0.4 25.1 4.2 38.4 3.3 5.8-0.4 7.2-0.4 9-0.8 2.1-0.4 4.3-1.2 6.1-2 1.7-0.7 3.6-1.3 6.3-2.2 4.6-1.4 12.8-2.2 13.1-1.1 0.3 1 0.4 2.3 0.1 3.9-0.2 1.4-0.7 2.7-1.2 4.1l-4.2 7.6-2.4 4.5c-3 5.5-11.3 13.3-22 11.9-10.7-1.4-27.4-10.6-37.1-13.4-9.7-2.8-31.9-6.7-40.8-7.4-8.9-0.7-19.3-2.1-28.2-0.8-1.2 0.2-4.9 1.1-5.9 1.3-1 0.1-1.8 0.1-2.8 0.2-1 0.1-2.2 0.6-2.2 0.6-3.1 1.6-5.8 2.1-7.6 1.4-1.7-0.7-2.9-1.4-3.4-1.9-0.5-0.6-0.2-3.4 1.1-8.6 0.3-1.3 0.6-2.2 0.9-2.6 0.3-0.4 0.7-0.8 1.4-1.3l12.9-7.3s5.2-2.9 6.6-3.6c1.4-0.7 3.3-2 3.3-2 1.5-0.7 1.9-1.3 2.6-1.9 1.7-1.5 3.2-3.6 3.8-5.1 0.7-1.9 1.2-4 0.2-6.4-0.7-1.6-2.5-1-6.1 1-2.7 1.5-3.7 1.9-4.9 2.4l-2.3 0.8-7.7 2.6c-0.3 0.1-0.6 0.1-0.7 0.1-1 0.1-1.9-0.2-2.5-0.8 0 0-1-0.9-1.4-1.4-0.4-0.5-1.3-1.1-1.5-1.8-0.3-0.7-0.6-1-0.6-1.9-0.1-0.9 0-1.9 0.1-2.9 0.1-1.4 1.2-2.6 3.2-3.8l3.1-1.6c0.2-0.1 1-0.5 1.7-0.8 0.7-0.3 1.4-0.6 3.1-1.1 1.8-0.5 4.8-1.2 5.9-1.5 0.9-0.2 2.3-0.5 3.2-1.5 1.8-1.9 2.3-2.8 2.3-3.6 0.1-0.8 0.1-0.8-0.1-1.7-0.2-0.9-0.9-1.6-1.9-2.2-1-0.6-4.4-0.6-7.3 0.2-2.5 0.7-4.5 0.9-6 0.6-2.3-0.4-4.3-1.4-6.1-3.1-1.7-1.7-2.7-2.8-2.8-3.3-0.2-0.5-0.3-1.1-0.5-2-0.1-0.9-0.2-1.8-0.2-2.6 0-0.9 1-2.1 2.9-3.7 0.7-0.6 1.8-0.6 3.3-0.7 5.6-0.4 8.6-0.9 10.7-1.4 2.6-0.6 8.6-1.1 13.2-1.2 3.8-0.3 6.1 0.2 7 0.9z m195.2-28.1s2.6 0.7 4.4 0.9c1.8 0.2 6 0.4 6.7 0.7 0.7 0.3 1.4 0.7 2.2 1.3 0.8 0.7 1.9 1.4 2.6 2.1 0.7 0.7 1.6 1.5 2.7 3 0.8 1.1 1 1.6 1.2 2.6 0.2 0.9 0.3 2 0.2 3.4 0 1.3-0.1 2.2-0.1 2.6 0 0-0.2 0.8-0.8 2-0.6 1.2-2 2.2-2.1 2.7 0 0-0.8 1.1-1.4 1.7-0.6 0.6-1.5 1.3-2 2-2.1 2.3-3.5 3.9-4.4 4.9-0.8 1-1.4 1.6-1.8 1.9 0 0-1.3 1.2-2.2 2-0.9 0.8-2.2 1.8-2.5 3.3-0.3 1.5-0.1 2.8 0.3 4 0.4 1.1 1.5 2.2 2.4 3 0.8 0.8 2.3 1.9 4 3.3 1.7 1.3 2.9 2.4 3.7 3.2 0.8 0.8 1.8 2 2.9 3.7 1.1 1.7 1.7 3.1 1.8 4.4 0.1 1.3 0.2 4.2-0.1 4.9-0.3 0.7-0.4 1.5-0.4 1.5s-1.1 3.9-3.1 6.3c-5.3 6.4-16.3 9.7-20.2 11.8-17 8.9-20.4 11.1-20.9 17.4-0.1 1.6 0 3.6 0 3.6 0 0.9 0.1 4.8-0.2 7-0.3 2.2-0.2 2.1-0.5 4.8-0.3 2.6-1.2 3.8-2.2 4.9-0.5 0.5-1.4 0.8-2.7 1.4-1.3 0.6-2.5 0.7-3.5 0.1-1.1-0.5-2.5-2-3.1-2.8-0.7-0.7-0.9-1.1-1.4-2-0.5-0.9-1.4-6.5-1.7-9.6-0.3-3.1-0.1-4.2-0.2-5.5l-0.5-4c-0.1-0.2 0-1.6 0.3-4 0.2-2.4 0.2-14.4 0.3-16.1 0.1-1.8 0.4-3.3 0.4-3.3 0.8-3.1 0.3-9.8 0.3-9.8-0.2-1 0-2.9 0.6-5.6 0.6-2.7 0.3-12.2 0.3-12.7 0 0 0.1-2.4-0.1-4.7s-0.6-3.5-0.6-3.5-1.5-5.9-2.8-7.9c-1.3-2-3.9-3.8-4.8-5.1-0.9-1.3-1.3-1.9-1.9-3.7-0.6-1.8-1.1-3.6-1.4-5.3-0.3-1.8-0.2-3.1 0.4-4 0 0 2.2-5.8 4.3-7.1 2.1-1.3 3.5-1.3 5.3-1.9 1.8-0.6 3.3-0.9 5-1.2 14-2.7 32-3.6 37.3-2.6z m338 41.5c3.3-0.7 5.9-0.1 8.4 0.5l3 0.6c3.6 0.6 8.7 0.3 12.7 0.1l1.8-0.1c2.7-0.2 4.8-0.3 7.4 2.1 3.9 3.6 7.2 5.2 9.8 4.5 2.3-0.6 4-1.4 5.4-3.1 0.5-0.6 2.7-1 4.2-1.1l16.6-1.8c2.7-0.2 6.5-0.4 11.4-0.4 12.4 0 22.4 0.5 30.1 1.5 7.7 0.9 13.2 1.1 16.5 0.6 3.2-0.5 5.5-0.8 6.8-0.9 1.3 0 2.2 0.4 2.8 1.2 0.5 0.8-0.1 2.6-1.8 5.3-4.9 7.6-8 10.9-10.1 12.6-2.2 1.7-4.6 2.8-6.4 2.9-1.6 0.2-4.5-0.6-6.4-1l-11-2.6c-1.6-0.3-2.6-0.2-3 0.2-0.3 0.3-0.5 1-0.6 2.1l-0.7 14.3-0.2 3c-0.1 1-0.1 4.6-0.1 5.5 0 1.8 0.2 4.5 0.7 8.1 0.4 3.6 0.7 6.3 0.7 8 0 1.5-0.1 3.9 0.5 7.1 0.6 3.3-2.1 6.2-4.6 8.7-2.5 2.5-8 3.3-13.8 2.5-14.4-2-22.2-4.4-23.5-7.3-1.3-2.8-1.9-4.5-1.7-5.1 0.4-1.7 3.4-2.2 8.9-1.6 5.5 0.6 9.9 0.2 13.4-1.2 3.4-1.4 5.5-2.9 6.1-4.4 0.6-1.5 0.7-3.8 0.5-7-0.1-0.8-0.2-6.4-0.3-11.6-0.1-5.2-0.3-9.7-0.6-13.4-0.3-3.7-0.9-6.1-1.9-7.3-1-1.2-3.8-1.4-8.3-0.7-1.8 0.3-3.4 0.6-5 0.9h-0.4c-2.1 0.5-9.1 3.5-16.8 2.8-2.8-0.3-3.8-1-7.4-0.4l-1.3 0.2c-2.7 0.4-5.1 0.8-6 3.8-0.5 1.6-0.3 2.1-0.4 5.1 0 1.1 0.1 2.2 0.1 3.4 0 3.1-1.1 11.3-2.9 16.5-1.7 5.2-3.4 7.6-4.2 8.7-0.5 0.7-0.8 1.5-1.2 2.1-4.4 5.6-16.8 13.7-22.3 14.1l-1.9 0.2c-3.1 0.3-8.3 0.8-10.2-0.7-2.2-1.9-4.8-4.4-4.8-8l-0.4-3.5c-0.2-2.1 0.4-3.5 0.7-5 1.1-7.1 3.4-6.4 6.2-7.9 2-1 5.4-2 8-2.5l1.3-0.3 1.8-0.3c2.5-0.4 5.2-0.8 7.7-2.9 2.3-1.9 5.6-4.8 7.3-7.7 1.4-2.4 3.1-5.1 3.6-8.6l0.1-0.6c0.4-2.1 0.8-4.7-0.7-6.6-0.9-1.1-2.2-1.7-3.9-1.8-4.8-0.3-8.7 1.3-13.2 3.6-4.4 2.2-11 3.8-15.2 2.7-2-0.5-4.1-2.3-4.1-4.5 0-3.2-0.8-6.9-2.2-9.5-1.4-2.7-1.9-4.9-1.2-6.8 0.6-1.7 2.2-3 4.9-4 6.4-2.4 7.3-2.5 8.8-2.8l2.5-0.5z m-262.5-37.7c3.1 0 8.3 0.3 9.8 0.5l6.2 0.8c1.1 0.2 2.2 0.2 3.3 0.2 1 0 2.5-0.2 4.3-0.7 1.9-0.4 2.3-0.5 4.6-0.1s3 1.1 3.7 1.8c0.7 0.7 1.2 1.5 1.5 2.4 0.2 0.8 0.1 1.1 0.1 2.3 0 1.2-0.3 1.5-1.2 3.3-1 1.8-1.6 2.9-1.7 3.5l-0.4 2.2s-1.6 6.1-2.7 8.9c-1.1 2.7-2.1 4.6-2.6 7.8s-0.9 5.1-1.5 8.2c-1.1 4.8-1.3 9.6-0.8 14.2s0.8 7.3 0.8 8.2c-0.1 0.9-0.5 3.9-1.3 8.8s-0.9 8.7-0.4 11.4c0.2 1.6 1 3.6 1.5 5.7 0.6 2.1 0.8 3.8 0.8 5.8 0.1 1.9 0.6 3.9 0.8 5.9 0.2 2 0.2 3.9-0.2 5.6-0.5 1.8-0.5 2.2-1.5 4.2-1 1.9-1.7 3.2-2.3 3.8-0.5 0.6-1.3 1-2.3 1.2-2.5 0.6-4.6 0.6-6.3-0.1-1.7-0.7-2.6-1.5-4.9-2.6-2.2-1.1-5.1-2.6-9.8-3.2-4.7-0.5-23 0.9-27 2s-9.6 3.4-12.2 3.5c-2.6 0-8.6-0.5-10.1-2s-1.3-3.9-1.2-4.9c0.1-1.1 0.3-2 0.7-2.7 0.4-0.7 0.8-1.5 1.4-2.6 0.6-1 1.4-2.6 2.3-4.6 0.9-2 1.6-3.7 2-5 0.4-1.3 0.7-2.5 0.8-3.6 0.1-1.1 0.3-3.6 0.4-7.6 0.1-4 0.5-4.4 0.9-6.8 0.4-2.4 0.3-4.4 0.3-4.7l0.1-1.6c0.1-4.1 0.1-7.2 0.1-9.2l-0.3-10.4s-0.3-6.9-0.2-9.3c0.1-2.4 0.3-5.6 0.4-8 0.1-2.4-0.1-3-1-6.3 0 0-0.7-2.2-1.1-3.6-0.4-1.4-1.9-3.6-2.3-4.9-0.4-1.3-0.6-3.2-0.7-5.8 0-2.6 0.3-4.4 0.9-5.4 0.6-0.8 1.7-1.7 3.6-2.5 1.8-0.9 3.3-1.4 4.5-1.5 0 0 2.8-0.2 6.4-0.2 3.6 0 8.1-0.5 8.1-0.5s3.4-0.2 8.2-0.7c5.2-0.9 11.9-1.1 17.5-1.1z m176.6 78.8c-1.8-1.2-3.7-1.4-5.1-0.5-1.5 1-2.3 1.4-2.1 4.3 0.2 3.1-0.4 3.7-0.4 5.9 0.1 1.5 0.8 2.6 2.4 3.3 2.9 1.3 7.7 0.5 9.8-2 0.6-0.8 0.8-0.8 0.8-2.1 0.1-1.3-1-2.4-1.6-3.1 0 0-0.4-0.2-0.7-0.8-0.3-0.5-0.7-1-1-2.2-0.6-1.9-0.9-1.9-2.1-2.8z m-23.6-10.8h-0.2c-1.7 0-4.8 0.8-5.6 4.2-0.6 2.4 0 4 0.1 5.4 0.1 1.6-0.1 2.6-0.4 4.1-0.3 1.3-0.9 2.5-0.8 4.6 0.1 2.1 1 3.2 1.7 3.8 1.7 1.4 4 1 5.5 0.7 1.4-0.4 2.5-1.2 3.3-2.5 1.1-1.9 0.9-3.3 0.9-4.9 0-0.9 0.1-2.3 0.1-2.3l0.5-1.8c0.8-3.6 0.4-5.8 0-7.6-0.7-3.6-3.8-3.7-5.1-3.7z m-39.4-42.4c-4.4-0.9-8-0.7-11.8 0.6-3.4 1.2-5.6 3.8-5.1 6.1 0.3 1.3 1.5 2.8 4.2 2.6l0.5-0.1c2.6-0.2 7.3-0.7 10.6-0.2 1.8 0.2 2.7 0.8 4.1 1.6l4 1.9c1.4 0.5 2 0.6 2.7 1.1 0.7 0.5 1.7 0.7 2 1.9 0.4 1.6 0.4 4.1-0.2 5.4-0.5 1.4-0.8 3.3-1.9 3.4-1.1 0.1-2.6-0.5-2.6-0.5l-2.8-1c-0.9-0.3-11.8-1.9-14 2l-0.5 0.9-1.2 3.2c-0.1 0.5-0.1 0.9-0.1 1.3 0 1.1 0.3 2.1 1 2.8 1.1 1.3 2.8 1.9 5.7 1.9 3.3 0 6.9 0.3 12.1 0.8 3.4 0.3 4.7 1.8 4.7 5.2 0 3-2.5 3.8-3.5 4.1-2.1 0.6-1.3 1.8-2.7 2.5-0.8 0.5-1.4 1.2-2.7 1.2-1.3 0.1-4.4-0.1-5.9-0.2l-1.8-0.1c-2.3-0.2-4.1 0.3-5.4 1.5-1.2 1.1-1.8 2.8-1.8 5 0 4.6 3.2 4.8 4.6 4.9l-0.1-0.1c0.2 0.1 0.4 0.1 0.8 0.1 3.9 0.4 6.3-0.9 7.2-1.7 0.8-0.7 2.2-1.2 2.5-1.2 1.9-0.2 2 0.9 2.2 1.7 0.2 0.7 0.2 1.9 0.8 2.8 0.6 0.9 0.7 1.3 3.9 2.1 3.6 1 5.3-0.4 6.9-1.7l1.7-1.3c3-2 3.5-6.5 3.8-9.8l0.3-2.4c0.4-1.4 0.7-4.9 0.7-8.4 0-3.2-0.2-6.3-0.7-8-0.4-1.3-0.8-6.8-0.8-18.4v-0.1c0-1.4-0.2-11-6-12l-3.5-1.1c-2-0.7-4-1.4-5.7-0.8-0.9 0.7-3 1.2-6.2 0.5z m-114.3 36.2s-8.6 0.7-11.9 0.9c-3.3 0.3-8 0.9-10.2 1.6-2.2 0.7-2.9 1.2-4.1 2.8-1.2 1.6-1.2 3.1-1.6 5.3-0.4 2.2-0.9 5.6-0.9 5.7 0 0-0.5 2.2-0.5 3.8v0.5c0 1.8 0.2 5 3.3 5.5 3.4 0.6 7.7 1 9.9 1 6.9 0.1 10.9 0 12-0.2 1-0.2 2.4-0.2 4-0.1 2.1 0.2 3.5-0.1 4.2-1 0 0 1.5-1 2.5-3.4s2-6.3 2.2-9.9c0.2-3.5-0.2-6.7-1-9.1-0.8-2.4-0.9-3.2-2.8-3.6s-2.5-0.3-5.1 0.2z m-197.2-66.5c2.6 0.2 9.9 0.4 11.5 0.5 0.8 0.1 2.9 0.5 6.2 1.1 3.3 0.6 5.7 1.4 7.3 2.2 1.5 0.8 2.5 0.7 2.9 0.7l3.6-0.3c0.4-0.1 1.5 0 3.3 0.3 1.8 0.3 3.1 0.7 4 1.4 0.9 0.7 1.1 2.2 0.7 4.6-0.2 0.8-0.4 1.4-0.8 1.9-0.3 0.4-5.8 5.3-7.8 6.4-2 1.1-5.1 2-7.1 2.9-1.9 1-7.2 5.1-9.5 6.5-2.3 1.4-8.1 4-8.8 5.6-0.7 1.6-0.7 2.4-0.6 4.6 0.1 2.5 0.7 5.7 2 9.5s1.9 6.1 2 7.1c0.1 1 0.1 2.7 0 5-0.2 5.5-0.6 9.7-1.1 12.5-0.6 2.8-2.1 5.1-4.6 7.1-2.5 1.9-4.2 3.2-5.1 3.7-0.9 0.6-2.3 1.1-4.2 1.7-1.9 0.6-3.6 1.1-5.1 1.7-1.4 0.5-3.6 0.8-6.5 0.7-5.6 0-10.3-0.4-14-1.1-3.7-0.7-7.4-2.3-11-4.7-5.2-3.4-5.2-3.9-1-6.8 2.9-1.9 6.9-2.7 12.2-2.2 5.3 0.5 8.4 0.7 9.4 0.5 1.2-0.1 2.7-0.4 4.6-1 1.9-0.6 3.2-0.9 3.8-1 0.6 0 1.2-0.6 1.5-0.8 0.2-0.2 0.9-0.9 2.1-2.9 1.2-2.1 1.7-4.4 1.4-6.9-0.1-0.1-0.3-1-0.7-2.8s-1.5-4.7-3.3-8.6c-1.8-3.9-3-6.3-3.8-7.1-0.7-0.8-2.6-1.7-6.7-4.4-4-2.7-8.6-6.7-11.1-9.5-2.3-2.5-3.5-3.7-4.8-5.1-1.3-1.4-2.7-1.7-6.3-0.9l-4.5 1.3c-1.8 0.4-3.4 0.1-4.8-0.7-1.5-0.8-2.4-1.9-2.9-3.3s-0.7-2.3-0.8-2.7c-0.4-1.7-0.3-3.6 0.1-5.9 0.4-2.2 1.7-3.6 3.9-4.1l3.1-0.3c0.2 0 0.7-0.1 1.4-0.5 0.8-0.3 1.4-0.5 2-0.6 0.6-0.1 1.5-0.1 2.6-0.1h1.9l2.7-0.7 3.6-0.3 1.9-0.8c0.5-0.2 1.4-0.4 2.6-0.8 1.3-0.3 2.5-0.6 3.8-0.8 5.5-1 13-2.1 20.1-2.1 3.7 0.2 6.6 0.2 8.7 0.3z m104 53.4c-2 0.2-3 0.8-3.9 1-0.9 0.2-2.1 1.4-3.6 3.4s-1.3 2.6-1.7 3.9c0 0-0.3 1.7-0.3 3.2 0 1.5 0.1 1.8 0.2 3.5s0.7 4.4 1.4 5.2c0.7 0.8 1.9 1.3 3.3 1.3s5.2-0.8 7.2-1.8c2.3-1.1 5-2.7 6.9-4.2 2.1-1.7 3-2.6 4.1-4 1-1.3 1.6-2.4 1.9-3.5 0.3-1.1 0.2-2.1-0.3-3.1s-1.5-2-3.1-3.1-1.2-0.9-2.6-1.5c-1.4-0.5-3.9-0.4-3.9-0.4s-3.6-0.1-5.6 0.1z m276.8-2.7c-0.9-1.4-2.9-1.2-6-1.1l-3 0.1-3.2 0.1c-1.5 0.1-3 0.3-4.4-0.1-1.8-0.4-3.7 0-5.5 0.5l-3.1 0.6c-2.5 0.3-4.8 1.5-6 3.2-0.5 0.7-0.8 1.6-0.8 2.4 0 0.4 0 0.8 0.2 1.2 1 3.5 6.3 3 9.8 2.5h0.7c2.3-0.3 6.6 0 8.8 0.3 2.8 0.3 5-0.7 6.8-3 0.4-0.5 1.5-1.1 2.4-1.6 1.6-0.9 2.9-1.6 3.5-2.9l0.2-1-0.4-1.2z m-189.3-24.9c-3.7 0-7.5 0.6-12.4 1.9-3.3 0.9-4.4 0.9-5.5 1.5-1 0.6-0.9 0.7-1.7 1.6s-0.6 0.4-1.2 1.6c-0.6 1.2-0.8 2.4-1.4 5.1-0.6 2.7-0.1 8.8 1.7 11.2 1.8 2.5 4.3 3.2 7.4 2.3l1.5-0.5c0.8-0.2 1.9-0.4 3.4-0.6l5.3-0.3c3.8-0.2 6.8-0.4 9-0.4s4.3-0.2 6.2-0.5c1.9-0.3 3.1-1.1 3.6-2.2 0.4-1.2 0.7-3.2 0.9-6.1l1.3-7.7c0-1.5-0.2-2.8-0.6-3.7-0.8-1.2-2.9-2.1-6.4-2.7-3.6-0.6-7.4-0.5-11.1-0.5z m-83.5-6.8c-4.2 0.3-11.6 2.7-13.2 4.5-1.7 1.8-1.8 4.9-1.4 6.2 0.8 2.1 4.4 6.9 4.8 7l2 1c2.3 0.7 4.1 0.7 5 0.4 0.9-0.3 2.7-1 4.3-2.2 1.9-1.4 2.2-1.4 5.3-4.9 3.2-3.5 5.8-6.5 4.6-8.8-1.3-2.1-7.1-3.5-11.4-3.2z m257.7 3.8c-2.2-0.3-7.4-0.1-11 1.2-3.8 1.3-6.2 3.4-6.8 6.1-0.3 1.1 0 2.2 0.8 3 2.1 2.2 7.2 1.2 8.2 1 1-0.3 2.8-0.1 4.4 0l5.3 0.1c3.2-0.2 9.2 0.3 10.9 0.5 2.4 0.5 5.4-0.4 7.2-1.9 1-0.9 1.4-2.3 1-3.6-0.6-2.5-3.8-5.1-7-5.7l-5.5-0.2c-2.2-0.2-4.8-0.1-7.5-0.5z m-388.5-5c-2.7 0.5-3.6 0.7-4.1 1.9-0.4 1.1-0.5 1.9-0.3 2.4 0 0.1 0.4 0.5 1.1 1.1 0.7 0.6 1.2 1 1.4 1.1l1.3 1.1c0.3 0.4 2.3 1.6 3.7 2.2 1.4 0.7 3.8 2.2 5.7 3.5 3.1 2.2 5.2 3 6.3 2.4l3.1-3.3c3.1-2.2 5.3-4 6.6-5.7 1.3-1.6 1.9-3.5 1.7-5.5-0.2-2.1-1.1-2.2-5.2-2.4-4.4-0.5-18.6 0.6-21.3 1.2zM868.92392 423c3.6-3.5 11.2-3.6 17.2-2.4l7.1 1.9c2.7 0.8 5.2 1.6 7.5 1.8l2.4 0.1c2.4 0.1 3.2 0.2 3.9 0.8 1 0.9 2.8 1.6 4.7 2.4l4.4 2.1c1.7 1.1 1.9 1.6 2.5 3.2l0.3 1c0.7 1.8 1.3 2.5 2 3.3l1.3 1.6c1.3 1.8 3.7 2.4 5.3 1.6 0.7-0.4 1.1-1.2 0.9-2.7-0.2-1.1 0.5-2.2 2.5-4.5 1.8-2.1 5.9-4.4 8.6-4.9l3.7-1.2c2.9-1.1 6.5-1.4 11.9-1.4 5.9 0 24.2 0.2 25 0.3l5.3-0.5c1.8-0.2 2-0.2 7.4 1s6.4 2 7.9 3.3l3.5 2.5c2.7 1.6 2.9 2.1 3.5 3.9l0.8 2.2c1.1 2.7 1.1 2.7 0.3 4.9l-0.6 1.6c-1.1 3.1-1.9 2.9-3.8 2.7l-2.3-0.5c-1.1-0.3-2.3-0.7-3.8-0.5-1.7 0.3-9 0.4-12.6 0.1l-7.2 0.3c-0.2 0-6.4 0.2-6.4 0.2l-4.3-0.1-4.9-0.2-8.9 0.1c-6.9 0-11.4 1.8-12.8 2.6-1.3 0.7-2.5 1.3-4.6 1.6-2.8 0.3-3.5-0.7-4.5-1.9l-1.1-1.4c-1.2-1-2.6-1-3.7-1s-1.5 0-1.8-0.3l-0.5-0.6c-1.1-1.1-1.4-0.5-2.9-0.7h-0.6c-2.3-0.3-8.4-0.5-9.6-0.3l-2.2 0.3c-2.7-0.3-5.4 1.2-8.4 2.7l-0.8 0.4c-2.5 1.3-8.8 1.7-11.4 1l-2.2-0.6c-1.8-0.4-3.8-0.8-8.6-2.9-6.3-2.7-8.5-5.9-9.9-8l-0.5-0.6c-1.1-1.6-1.6-7.4-1.6-9.3-0.1-1.3-0.3-2 2.6-5z m-548.8-2.6s4.3 0.5 6.6 0.6c2.3 0.1 9.1 0.1 10 0.4l0.9 0.3 3.4 0.7 1.1 0.2 2.8 0.5 3.1 1.2c3.8 1.5 5.9 2.6 6.3 3.3 0.3 0.8 0.5 1.5 0.4 2-0.3 1.2-1.4 2.2-2.1 2.4-0.7 0.2-1.3 0.6-2.2 1.1-0.9 0.5-2.8 1.1-4.1 1.5-3.6 0.9-9.1 0.9-9.1 0.9-3 0.4-4.6 1-5.1 1.2-1.3 0.5-3.4 0.2-4.4 0.2H324.02392c-1.3 0-2.7-0.1-4.1-0.4-2.2-0.4-3.5-0.9-3.9-1.6-0.4-0.7-0.9-2-1.5-4s-0.6-4.2-0.2-6.6c0.1-0.7 0.4-1.6 1-2.6 0.4-1 2-1.4 4.8-1.3z" fill="#231916"></path><path d="M166.62392 386c-0.7 0.1-0.5 0.5-0.1 0.8 5.5 3.5 10.6 7.7 15.5 12.5 4.6 4.5 8.9 9.6 13.4 14.6 0.6 0.6 2.5 2.9 2.9 3.4 4.4 5.4 8.7 13.2 13.1 21.4 1.4 2.6 0.7 3.7-1.2 0.8-2.8-4.1-4.4-5.4-5.7-6.9-4.7-5.3-2.9-1-2 0.5 13.9 23.8 21.4 56 14.7 86.9-11 51.1-60.1 76.6-110.3 64.2-44.7-11-62.5-61.6-49.5-95 13.6-34.8 49.8-43.5 75-35.9v68.3h-54c9.4 40.8 53.9 49.4 80.6 34.5 18.8-10.5 26.1-30.3 21.1-45.5-7.8-24.2-19.9-24.7-3.8-49.2 16.7-25.4 12.8-73-57.2-73-57.4-0.2-112.9 42.2-118.7 113-5.9 71.9 50.5 136.2 124.6 136.2 82.6 0 135.8-57.4 133.4-136.6-0.5-16.5-4.4-33.1-11.2-48.5-1.8-4.2-3.6-8.1-5.5-11.8-0.7-1.4-3.4-6.3-4.1-7.4-3.3-5.6-7.2-10.9-12-16.3-1.8-2-7.7-9.3-9.7-11.2-2.9-2.8-0.5 1.9 2 6.5 2.2 4.3 4.5 8.5 2.8 7.1-1.8-1.5-15.4-20.8-17.3-22.2-0.9-0.6-1.7-0.4-2.6-0.1-0.8 0.3-1.7 0.5-2.5 0-1.9-1.2-3.9-5.8-5.8-6.9-2.5-1.4-5.1-2.8-7.8-4-5.1-2.2 9.9 10.6 4.8 11.4-0.9 0.1-5.9-2.8-11-5.8-5-2.9-10.1-5.8-11.9-5.8z" fill="#C6000C"></path><path d="M997.72392 565.1c2.2 0 4.7 0.3 7.6 0.9 2.8 0.6 4.6 0.9 5.4 0.9 2 0 3.3-0.5 4.1-1.6h2.3l0.5 13.8h-1.7c-1-2-2.1-3.7-3.3-5.3-1.2-1.6-2.5-2.8-3.8-3.8-1.3-1-2.7-1.8-4.1-2.2-1.4-0.5-3-0.7-4.5-0.7-2.9 0-5.6 0.9-7.8 2.7-2.3 1.8-4.1 4.2-5.3 7.4-1.2 3.1-1.9 6.8-1.9 10.9 0 4 0.7 7.7 2.1 10.8 1.4 3.1 3.3 5.6 5.6 7.4 2.4 1.8 4.9 2.6 7.7 2.6 1.6 0 3.2-0.3 4.6-1 1.4-0.6 2.5-1.4 3.2-2.4 0.6-0.8 0.9-1.6 1.1-2.5 0.2-0.9 0.2-2 0.2-3.3 0-2.1-0.1-3.6-0.3-4.4-0.2-0.8-0.7-1.4-1.6-1.8-0.8-0.3-2.3-0.6-4.4-0.8v-1.8h19.7v1.8c-2.1 0.1-2.6 0.4-3.4 0.7-0.8 0.3-1.4 0.9-1.6 1.8-0.3 0.9-0.4 2.3-0.4 4.3v7c-1.8 0.9-3.7 1.7-5.7 2.4s-4.1 1.2-6.2 1.5c-2 0.4-4.1 0.6-6.1 0.6-3.7 0-7.1-0.6-10-1.8-3-1.2-5.5-2.8-7.5-5-2-2.1-3.6-4.5-4.6-7.3-1-2.8-1.6-5.7-1.6-8.7 0-3 0.5-5.9 1.6-8.7 1-2.9 2.5-5.3 4.4-7.5 1.9-2.2 4.3-3.9 7-5.2 2.5-1.1 5.5-1.7 8.7-1.7z m-65.6 0l28.6 33.5-0.4-22.4c0-1.7-0.2-3.2-0.5-4.4-0.4-1.2-0.9-2.2-1.8-2.9-0.6-0.6-1.5-1.1-2.6-1.5-1.1-0.4-2.2-0.6-3.2-0.6v-1.7h17v1.7c-1.4 0-2.7 0.4-3.7 1-1.1 0.6-1.9 1.5-2.5 2.6-0.6 1.1-0.9 2.5-0.9 4.1l0.6 36.6h-2L928.22392 573l0.5 25.6c0.1 1.6 0.2 2.9 0.4 4s0.6 2.1 1.1 2.9c0.6 0.8 1.4 1.4 2.4 1.9s2.4 0.8 4 0.9v1.8h-16.9v-1.8c2.2-0.2 3.9-0.8 4.9-1.8 1.1-1 1.7-2.3 2-3.8 0.3-1.5 0.4-3.4 0.3-5.7l-0.4-26.1c-1.2-1.3-2.4-2.3-3.5-3-1.1-0.7-2.3-1-3.6-1h-0.4v-1.7h13.1z m-514.3 0l28.7 33.5-0.5-22.4c0-1.7-0.2-3.2-0.5-4.4-0.3-1.2-0.9-2.2-1.8-2.9-0.6-0.6-1.4-1.1-2.6-1.5-1.1-0.4-2.2-0.6-3.2-0.6v-1.7h17v1.7c-1.4 0-2.7 0.4-3.7 1-1.1 0.6-1.9 1.5-2.5 2.6-0.6 1.1-0.9 2.5-0.9 4.1l0.6 36.6h-2L413.92392 573l0.5 25.6c0 1.6 0.2 2.9 0.4 4s0.6 2 1.1 2.9c0.5 0.8 1.3 1.4 2.4 1.9 1 0.5 2.3 0.8 4 0.9v1.8h-16.9v-1.8c2.2-0.2 3.9-0.8 4.9-1.8 1.1-1 1.7-2.3 2-3.8 0.3-1.5 0.3-3.4 0.3-5.7l-0.5-26.1c-1.2-1.3-2.4-2.3-3.5-3-1.1-0.7-2.3-1-3.6-1h-0.4v-1.7h13.2z m374.3 0c3.6 0 6.9 0.6 9.9 1.8 3 1.2 5.5 2.8 7.6 4.9s3.7 4.5 4.8 7.3c1.1 2.7 1.7 5.6 1.7 8.7 0 3.3-0.6 6.3-1.9 9.2-1.2 2.8-3 5.3-5.2 7.4-2.3 2.1-4.9 3.7-8 4.9-3 1.2-6.3 1.8-9.8 1.8-3.3 0-6.4-0.6-9.3-1.7-2.9-1.1-5.3-2.7-7.4-4.8-2.1-2-3.7-4.5-4.8-7.4-1.1-2.9-1.7-6-1.7-9.3 0-1.9 0.2-3.7 0.6-5.4 0.4-1.7 0.9-3.3 1.6-4.8 0.7-1.5 1.6-3 2.7-4.3 1.1-1.3 2.3-2.5 3.6-3.5 1.4-1.1 2.9-2 4.5-2.7 1.6-0.7 3.4-1.2 5.2-1.6 1.8-0.4 3.8-0.5 5.9-0.5z m-1.4 1.7c-2 0-3.8 0.4-5.6 1.2-1.7 0.8-3.2 2.1-4.4 3.6-1.2 1.6-2.2 3.4-2.8 5.6-0.7 2.2-1 4.6-1 7.3 0 3.6 0.4 7 1.2 10 0.8 3.1 1.9 5.7 3.3 7.9s3.2 3.9 5.1 5c2 1.2 4.1 1.8 6.4 1.8 1.9 0 3.8-0.4 5.5-1.2 1.7-0.8 3.2-2 4.5-3.6 1.4-1.6 2.3-3.6 3.1-6 0.7-2.4 1.1-5.1 1.1-8.3 0-3.4-0.4-6.6-1.2-9.5-0.8-2.9-2-5.4-3.4-7.4s-3.2-3.6-5.2-4.7c-2.2-1.1-4.3-1.7-6.6-1.7z m-456.2-1.7c2.1 0 4.1 0.3 5.8 0.8 1.8 0.6 3.3 1.4 4.5 2.3 1.2 1 2.2 2.2 2.9 3.5 0.7 1.4 1 2.8 1 4.4 0 1.7-0.4 3.2-1.3 4.7-0.8 1.4-2.2 2.6-3.9 3.6-1.8 1-3.9 1.6-6.4 2 4.1 0.6 7.3 1.9 9.5 3.9s3.3 4.6 3.3 7.6c0 1.6-0.3 3-1 4.4-0.7 1.3-1.6 2.5-2.9 3.4-1.3 1-2.8 1.7-4.6 2.3-1.8 0.5-3.8 0.8-5.9 0.8h-25v-1.7h0.7c1.9 0 3.2-0.3 4.1-0.8 0.8-0.5 1.3-1.2 1.5-2.1 0.2-0.9 0.2-2.2 0.2-4.1v-27.5c0-1.6-0.1-2.8-0.4-3.6-0.3-0.8-0.8-1.4-1.7-1.7-0.9-0.4-2.4-0.5-4.4-0.5v-1.7h24z m561.2 0l14.7 36.3c0.8 2.1 1.7 3.4 2.5 4.2 0.8 0.7 2.1 1.3 3.9 1.6v1.7h-18.9v-1.7c1.6-0.2 2.9-0.4 3.7-0.7 0.8-0.3 1.2-1 1.2-1.9 0-0.8-0.3-1.9-0.9-3.2l-3.5-8.8h-15l-2.1 5.2c-0.5 1.3-0.8 2.7-0.8 4.1 0 1.4 0.5 2.6 1.4 3.6 0.9 1.1 2.1 1.6 3.8 1.7v1.7H871.02392v-1.7c3.3-0.5 5.9-3.2 7.9-8.2l11-27.2c-0.6-1-1.2-1.6-1.8-2-0.6-0.3-1.5-0.5-2.8-0.7v-1.5l7.6-2.5h2.8z m-414.5 0v1.7h-0.5c-2.5 0-4.2 0.4-5 1.1-0.8 0.8-1.2 2.1-1.2 3.9v15.5l13-11.3c1.5-1.2 2.6-2.4 3.3-3.3 0.8-1 1.1-1.9 1.1-2.7 0-0.9-0.3-1.7-1-2.3-0.7-0.6-1.6-0.9-2.9-0.9h-1v-1.7h19.2v1.7c-1.4 0.2-2.9 0.6-4.4 1.2-1.5 0.6-2.9 1.5-4.4 2.5-1.5 1-3.1 2.2-5 3.8l-7.7 6.6 17 20.6c1.3 1.5 2.3 2.6 3 3.3 0.8 0.7 1.5 1.2 2.3 1.6 0.8 0.3 1.7 0.6 2.7 0.7v1.7h-21.6v-1.7c3.4 0 5.1-0.7 5.1-2.2 0-0.5-0.2-1-0.5-1.6-0.3-0.5-0.8-1.1-1.4-1.8l-12.7-15.4-4 3.5v11.9c0 1.7 0.3 3 0.8 3.9 0.5 0.9 1.5 1.4 2.8 1.6 0.7 0 1.3 0.1 1.8 0.1 0.5 0.1 0.9 0.1 1.2 0.1v1.7h-21.9v-1.7h1c1.9 0 3.3-0.2 4.2-0.6 0.9-0.4 1.5-1.1 1.7-1.9 0.3-0.8 0.4-1.9 0.4-3.2v-29.2c0-1.4-0.2-2.4-0.5-3.2-0.3-0.7-1-1.3-2-1.7-1-0.4-2.6-0.6-4.8-0.6v-1.7h21.9z m72.4-2.2c3.6 0 6.9 0.6 9.9 1.8 3 1.2 5.5 2.8 7.6 4.9 2.1 2.1 3.7 4.5 4.8 7.3 1.1 2.8 1.7 5.7 1.7 8.7 0 3.3-0.6 6.3-1.8 9.2-1.2 2.8-3 5.3-5.2 7.4-2.3 2.1-4.9 3.7-8 4.9-3.1 1.1-6.3 1.8-9.9 1.8-3.3 0-6.4-0.6-9.3-1.7-2.9-1.1-5.4-2.8-7.4-4.8-2.1-2-3.7-4.5-4.8-7.4-1.1-2.9-1.7-5.9-1.7-9.3 0-1.9 0.2-3.7 0.5-5.4 0.4-1.7 0.9-3.3 1.6-4.8 0.7-1.5 1.6-3 2.6-4.3 1.1-1.3 2.3-2.5 3.6-3.5 1.4-1.1 2.9-2 4.5-2.7 1.6-0.7 3.3-1.2 5.2-1.6 1.9-0.4 3.9-0.5 6.1-0.5z m66.1 2.2l3.8 10h-2.3c-1.2-1.4-2.6-2.7-4.1-3.9-1.5-1.1-3-2.1-4.5-2.8-1.5-0.7-2.8-1.2-4.2-1.4-1.2-0.2-2.4-0.3-3.6-0.3-2.1 0-3.5 0.2-4.4 0.6-0.9 0.4-1.4 1.1-1.6 2.1-0.2 1-0.3 2.8-0.3 5.2v10.7h5.6c2.8 0 4.9-0.7 6.4-1.9 1.4-1.3 2.2-3.2 2.3-5.8h2.2v16.6h-2.2c-0.2-2.1-0.6-3.6-1.1-4.6-0.5-1-1.4-1.7-2.6-2-1.2-0.3-2.9-0.5-5.1-0.5h-5.3v15.2c0 1.8 0.5 3 1.5 3.8 1 0.7 2.7 1.1 5.2 1.1h0.8v1.7h-21.7v-1.7c2-0.1 3.4-0.3 4.3-0.6 0.9-0.4 1.5-1 1.8-1.8 0.3-0.8 0.4-2.1 0.4-3.8v-28.6c0-2-0.4-3.4-1.1-4.3-0.7-0.9-2.3-1.3-4.9-1.3h-0.4c-0.1 0-0.3 0-0.4 0.1v-1.7h35.5z m95.7 0v1.7c-2.3 0-4 0.3-5.3 0.8-1.2 0.5-1.9 1.4-2 2.8-0.1 0.9-0.1 1.6-0.1 2.1-0.1 0.5-0.1 0.7-0.1 0.7v28.6c0 1.2 0.2 2.2 0.5 2.9 0.3 0.7 0.7 1.3 1.3 1.6 0.6 0.3 1.2 0.5 1.9 0.6 0.7 0.1 2 0.2 3.9 0.4v1.7h-24.1v-1.7c2.1 0 3.8-0.2 4.9-0.6 1.1-0.4 1.8-0.9 2.1-1.8 0.3-0.8 0.5-2 0.5-3.8v-27.7c0-1.7-0.1-2.9-0.3-3.7-0.2-0.8-0.5-1.4-1-1.7-0.5-0.4-1.2-0.6-2-0.7-0.9-0.1-2.2-0.3-4.1-0.4v-1.7h23.9z m-336.2 0l14.7 36.3c0.9 2.1 1.7 3.4 2.5 4.2 0.8 0.7 2.1 1.3 3.9 1.6v1.7h-18.9v-1.7c1.6-0.1 2.9-0.4 3.7-0.7 0.8-0.3 1.2-1 1.2-1.9 0-0.8-0.3-1.9-0.9-3.2l-3.6-8.8h-15l-2.1 5.2c-0.5 1.3-0.8 2.7-0.8 4.1 0 1.4 0.4 2.6 1.4 3.6 0.9 1.1 2.2 1.6 3.7 1.6v1.7h-14.7v-1.7c3.3-0.5 5.9-3.2 7.9-8.2l11-27.2c-0.6-1-1.2-1.6-1.8-2-0.6-0.3-1.6-0.5-2.8-0.7v-1.5l7.6-2.5h3z m464.5 0v1.7c-1.9 0-3.4 0.2-4.5 0.4-1 0.3-1.6 1-1.6 2.1 0 0.9 0.8 2.5 2.3 5l9.2 14.9 6.2-10.1c1.1-1.8 2-3.4 2.5-4.7 0.5-1.3 0.8-2.5 0.8-3.7 0-1-0.4-2-1.1-2.8-0.8-0.8-1.7-1.2-2.9-1.2h-0.3V565h14.3v1.7c-0.9 0.1-1.9 0.5-2.9 1.2s-2 1.6-3 2.9c-1.1 1.3-2.1 2.8-3.2 4.7l-9.4 15.7v11.2c0 2 0.5 3.2 1.5 3.7s2.8 0.8 5.3 1v1.7h-21.5v-1.7h0.6c1.8 0 3.2-0.2 4.1-0.7 0.9-0.5 1.5-1 1.7-1.8 0.2-0.7 0.3-1.7 0.3-2.9v-9l-13.6-22.2c-0.8-1.3-1.5-2.3-2.3-2.9-0.7-0.7-1.9-0.9-3.6-0.9V565h21.1z m-101.2 0l14.7 36.3c0.8 2.1 1.7 3.4 2.5 4.2 0.8 0.7 2.1 1.3 3.9 1.6v1.7h-18.8v-1.7c1.6-0.2 2.8-0.4 3.6-0.7 0.8-0.3 1.2-1 1.2-1.9 0-0.8-0.3-1.9-0.9-3.2l-3.6-8.8h-15l-2.1 5.2c-0.6 1.3-0.8 2.7-0.8 4.1 0 1.4 0.4 2.6 1.4 3.6 0.9 1.1 2.1 1.6 3.8 1.7v1.7h-14.7v-1.7c3.3-0.5 5.9-3.2 7.9-8.2l11-27.2c-0.6-1-1.2-1.6-1.8-2-0.6-0.3-1.6-0.5-2.8-0.7v-1.5l7.6-2.5h2.9z m-75.9 0v1.7h-1c-1.6 0-2.8 0.1-3.7 0.4-0.8 0.3-1.4 0.8-1.8 1.6-0.3 0.8-0.5 1.9-0.5 3.3v30.2c0 1.2 0.2 2.1 0.6 2.7 0.4 0.7 1.1 1.1 2.1 1.4 1.1 0.3 2.5 0.5 4.4 0.5 1.6 0 3.1-0.1 4.5-0.4 1.3-0.3 2.7-0.8 4-1.4 1.3-0.7 2.7-1.7 4.1-2.9 1.4-1.2 2.8-2.8 4.2-4.7h2.8l-4.1 11.1h-37V607h0.4c1.8 0 3.2-0.2 4.1-0.5 0.9-0.3 1.5-0.9 1.8-1.6 0.3-0.7 0.5-1.7 0.5-3.1v-29.2c0-1.5-0.1-2.7-0.4-3.5-0.3-0.8-0.9-1.3-1.9-1.7-1-0.4-2.5-0.6-4.4-0.6v-1.7h21.3z m-334.9 22.1h-7v15.1c0 1 0.1 1.9 0.4 2.5 0.2 0.6 0.7 1.1 1.2 1.5 0.6 0.4 1.3 0.6 2.2 0.7 0.9 0.1 2 0.2 3.5 0.2 2.1 0 3.8-0.4 5.2-1.1 1.4-0.8 2.4-1.8 3.1-3.3 0.7-1.5 1-3.2 1-5.3 0-2.1-0.4-3.9-1.2-5.4-0.8-1.5-1.9-2.7-3.3-3.5-1.4-1-3.1-1.4-5.1-1.4z m220.4-22.6c-2 0-3.8 0.4-5.5 1.3-1.7 0.8-3.2 2-4.4 3.6-1.2 1.5-2.2 3.4-2.8 5.6-0.7 2.2-1 4.6-1 7.3 0 3.6 0.4 7 1.2 10 0.8 3.1 1.9 5.7 3.3 7.9s3.1 3.9 5.1 5c2 1.2 4.1 1.8 6.4 1.8 1.9 0 3.8-0.4 5.5-1.2 1.7-0.8 3.2-2 4.5-3.6 1.3-1.6 2.3-3.6 3.1-6 0.7-2.4 1.1-5.1 1.1-8.3 0-3.4-0.4-6.6-1.2-9.5-0.8-2.9-2-5.4-3.4-7.4-1.5-2-3.2-3.6-5.2-4.7-2.3-1.2-4.4-1.8-6.7-1.8z m338.7 9.4l-6.7 16.6h13.5l-6.8-16.6z m-153.2 0l-6.7 16.6h13.5l-6.8-16.6z m-363.3 0l-6.7 16.6H381.02392l-6.7-16.6z m-43.6-7.2c-2.3 0-3.9 0.4-4.7 1.1-0.8 0.7-1.2 2-1.2 3.8v13.8h5.7c2.7 0 4.8-0.3 6.1-1 1.1-0.6 2.1-1.7 2.8-3.2 0.7-1.5 1.1-3.1 1.1-5 0-1.5-0.2-2.9-0.7-4.2-0.4-1.3-1.1-2.3-1.9-3.2-0.9-0.9-1.8-1.5-2.9-1.8-1.1-0.2-2.5-0.3-4.3-0.3z" fill="#231916"></path></svg>