<svg viewBox="0 0 1024 1024" version="1.1" xmlns="http://www.w3.org/2000/svg"><path d="M0 0m224 0l576 0q224 0 224 224l0 576q0 224-224 224l-576 0q-224 0-224-224l0-576q0-224 224-224Z" fill="#FFFFFF"></path><path d="M179.4 549.708c31.7-100.64 154.572-184.8 246.712-221.24a128.796 128.796 0 0 1 17.652-5.564c0.264-0.132 9.104-2.4 8.816-0.784-0.108 0.392-0.892 0.392-1.808 0.784-0.784 0.26-1.44 1.02-2.456 1.516-1.176 0.624-2.748 2.168-3.4 2.664-0.888 0.784 0 0.26-0.104 1.148-0.264 1.908 1.148 1.384 3.372 1.152 5.728-0.524 16.74-5.096 18.832-5.36 1.44-0.256 2.98-0.756 3.764-0.884 3.768-0.368 2.88 0.52 0.788 2.168-2.096 1.408-5.6 4.076-9.236 6.084-79.348 44.408-191.472 119.48-186.4 216.02 4.136 78.492 116.52 78.44 171.208 79.848 6.64 0.108 14.04 0.368 19.22 1.752 4.292 1.176 7.532 0.26 7.532 2.56 0 0-1.8 1.02-2.588 1.252-2.88 0.784-7.664 2.928-8.448 4.336-0.26 0.496-1.828 2.404-1.308 3.136 0.392 0.652 1.7 0.916 2.88 1.308 0.912 0.26 1.828 0.756 1.828 0.888 0.628 1.512 9.468 0.104 8.944 2.532-0.26 1.516-4.16 2.796-4.548 4.308-0.132 0.888 0.52 1.776 0.652 2.536 0.264 1.28 0 2.428-0.652 3.448-2.46 3.92-11.692 2.64-11.04 5.432 0.264 1.28 9.104 3.32 9.86 4.076 0.656 0.496 2.616 0.628 4.708 1.384 1.544 0.52 4 1.644 5.832 2.04 2.328 0.388 4.292 2.036 5.964 2.92 2.484 0.996 4.42 1.256 4.42 1.648 0 0.888-1.828 1.256-3.636 2.04-3.504 1.384-8.708 2.792-11.952 4.176 0.264 0.264 1.18 0.628 1.44 0.888 1.044 1.152 1.412 2.168 3.14 2.796 2.952 1.02 6.588 0.628 8.42 3.92 0.132 0.26-0.26 0.652-0.26 0.912 0.784 1.776 1.176 3.656 0.392 6.088-1.44 4.44-12.084 6.84-9.232 10.656 1.304 1.776 4.024 3.292 7.008 4.44 2.352 0.784 4.812 1.384 6.88 2.14 4.024 1.672 4.704 5.748 7.66 7.628 3.14 2.168 8.448 2.168 5.86 2.432-0.132 0.52-2.616 1.384-3.664 1.748-2.952 1.308-8.42 1.908 0.524 3.32 12.112 1.904 27.828 3.392 25.108 3.288-0.4 0.596-0.936 1.08-1.568 1.412-1.44 0.888-3.792 1.644-5.076 2.14-61.72 22.596-146.772 13.06-208.888-0.992-91.04-20.452-163.148-86.956-133.124-182.14h-0.028z m311.152-165.396l53.28-13.684c10.248-2.3 16.632-4.964 22.096 5.328l2.04 25.492c0.132 16.248-8.16 21.212-21.812 25.652l-55.6 14.208V384.312z" fill="#6FB92C"></path><path d="M851.792 381.28c-5.204 112.716-229.944 247.732-360.872 259.8v-144.448c130.82-19.016 239.152-87.164 241.608-140.608 3.532-77.944-181.848-50.02-235.384-34.532l0.132-10.656c32.876-12.536 100.432-31.868 167.828-34.14 95.488-3.32 190.716 22.2 186.688 104.588z" fill="#00398F"></path></svg>