<svg viewBox="0 0 1024 1024" version="1.1" xmlns="http://www.w3.org/2000/svg"><path d="M12.74 533.387c17.217-54.436 83.954-99.956 134-119.665a70.169 70.169 0 0 1 9.588-3.009c0.142-0.07 4.943-1.3 4.787-0.424-0.057 0.212-0.483 0.212-0.98 0.424-0.426 0.141-0.781 0.551-1.335 0.82-0.64 0.339-1.492 1.172-1.847 1.44-0.483 0.424 0 0.142-0.057 0.622-0.142 1.032 0.625 0.749 1.833 0.622 3.11-0.283 9.091-2.755 10.228-2.896 0.78-0.142 1.619-0.41 2.045-0.48 2.046-0.199 1.563 0.282 0.426 1.172-1.136 0.763-3.04 2.204-5.014 3.292-43.1 24.017-103.998 64.621-101.242 116.839 2.244 42.454 63.285 42.426 92.988 43.189 3.609 0.056 7.629 0.198 10.441 0.946 2.33 0.636 4.092 0.142 4.092 1.385 0 0-0.98 0.551-1.407 0.678-1.562 0.424-4.162 1.582-4.588 2.345-0.142 0.269-0.995 1.3-0.71 1.696 0.213 0.353 0.923 0.494 1.562 0.706 0.497 0.141 0.995 0.41 0.995 0.48 0.34 0.82 5.142 0.057 4.858 1.37-0.142 0.82-2.259 1.513-2.472 2.332-0.07 0.48 0.284 0.96 0.355 1.37a2.43 2.43 0 0 1-0.355 1.865c-1.335 2.12-6.35 1.427-5.995 2.939 0.142 0.692 4.944 1.794 5.356 2.204 0.355 0.268 1.42 0.339 2.557 0.749 0.838 0.282 2.173 0.89 3.168 1.102 1.264 0.212 2.33 1.102 3.238 1.582 1.35 0.537 2.401 0.678 2.401 0.89 0 0.48-0.994 0.678-1.974 1.102-1.904 0.749-4.73 1.512-6.492 2.26 0.142 0.142 0.639 0.34 0.781 0.481 0.568 0.622 0.767 1.173 1.705 1.512 1.605 0.55 3.58 0.339 4.574 2.119 0.07 0.141-0.142 0.353-0.142 0.494 0.426 0.961 0.639 1.978 0.213 3.292-0.781 2.402-6.563 3.702-5.015 5.764 0.71 0.961 2.188 1.78 3.807 2.402 1.279 0.424 2.614 0.749 3.736 1.159 2.188 0.904 2.557 3.108 4.163 4.125 1.704 1.173 4.588 1.173 3.182 1.314-0.071 0.283-1.42 0.749-1.99 0.947-1.604 0.706-4.573 1.03 0.285 1.794 6.577 1.031 15.115 1.836 13.637 1.78a2.325 2.325 0 0 1-0.852 0.763c-0.781 0.48-2.06 0.89-2.756 1.158-33.525 12.221-79.72 7.064-113.459-0.537C35.61 620.84-3.554 584.87 12.754 533.387h-0.014z m169.001-89.459l28.937-7.403c5.568-1.243 9.034-2.684 12.003 2.882l1.108 13.79c0.071 8.787-4.432 11.471-11.847 13.873l-30.2 7.685v-30.827z" fill="#6FB92C"></path><path d="M377.573 441.884c-2.823 61.138-124.725 134.377-195.742 140.923v-78.353c70.96-10.315 129.72-47.282 131.053-76.271 1.915-42.28-98.637-27.133-127.676-18.731l0.07-5.78c17.833-6.802 54.476-17.287 91.034-18.52 51.794-1.799 103.446 12.044 101.261 56.732z" fill="#00398F"></path><path d="M483.565 411.935c1.104 0 1.998 0.895 1.998 1.998v7.817c0 5.42-4.394 9.815-9.815 9.815h-3.16v29.537c0 1.103 0.894 1.998 1.997 1.998h8.98c1.104 0 1.998 0.894 1.998 1.998v7.737a7.992 7.992 0 0 1-7.992 7.992h-4.984v54.868a7.992 7.992 0 0 1-7.992 7.992h-4.733v-62.86h-22.739v28.401c0 14.286-5.77 31.034-15.718 31.034-9.949 0-17.314-11.602-17.314-11.602l0.02-0.012c0.578-0.328 13.047-7.49 17.294-16.272 2.898-5.995 4.201-16.51 3.909-31.549H412.87a3.996 3.996 0 0 1-3.996-3.996v-11.733c0-1.104 0.895-1.998 1.998-1.998h12.442a1.998 1.998 0 0 0 1.999-1.998v-29.537H412.87a3.996 3.996 0 0 1-3.996-3.996v-13.636c0-1.103 0.895-1.998 1.998-1.998h72.692z m54.36 0c12.772 0 11.674 4.938 11.674 11.497 0 6.56-16.027 39.678-16.027 42.335 3.437 4.889 15.035 36.026 16.027 40.533 0.37 1.675 0.532 3.935 0.49 6.778a7.992 7.992 0 0 1-7.74 7.87l-0.251 0.003h-35.651v12.745c0 5.424-4.323 9.839-9.711 9.987l-0.28 0.004h-1.639V413.933c0-1.053 0.815-1.916 1.85-1.992l0.148-0.006h41.11z m-8.405 19.206h-23.073v70.314h3.993c12.835-0.002 20.91-0.002 24.228 0h0.812c0-4.29-14.48-32.788-14.48-38.345 0-3.505 3.451-13.23 10.353-29.177a1.998 1.998 0 0 0-1.833-2.792z m-68.961 0h-23.977v29.971c0 1.053 0.816 1.916 1.85 1.993l0.148 0.005h19.981a1.998 1.998 0 0 0 1.993-1.849l0.005-0.149v-29.97zM679.345 477.91a7.992 7.992 0 0 1 7.993 7.991v46.955a7.992 7.992 0 0 1-7.993 7.992h-99.902a7.992 7.992 0 0 1-7.992-7.992V485.9a7.992 7.992 0 0 1 7.992-7.992h99.902z m-6.993 18.98h-85.916a1.998 1.998 0 0 0-1.992 1.85l-0.006 0.149v19.98c0 1.054 0.815 1.917 1.849 1.993l0.15 0.005h85.915a1.998 1.998 0 0 0 1.993-1.849l0.005-0.149v-19.98a1.998 1.998 0 0 0-1.998-1.998z m-60.033-91.646l15.84 17.035a0.999 0.999 0 0 1-0.282 1.573l-31.173 15.669a2.997 2.997 0 0 0-1.65 2.678v0.661c0 1.104 0.894 1.998 1.997 1.998h63.725c0.609 0 1.184-0.277 1.563-0.753l0.4-0.501c0.588-0.74 0.607-1.784 0.044-2.544l-15.995-21.594-0.018-0.025a0.999 0.999 0 0 1 0.251-1.39l8.818-6.116c11.641 10.981 20.547 18.927 26.718 23.836 5.917 4.708 12.613 9.245 20.09 13.613a0.999 0.999 0 0 1 0.297 1.458l-9.74 13.12a2.997 2.997 0 0 1-4.09 0.692c-4.406-2.995-7.313-4.493-8.723-4.493H573.032a3.996 3.996 0 0 1-3.996-3.996v-15.452c0-1.453 0.788-2.79 2.059-3.495 9.125-5.058 15.51-8.98 19.154-11.769 14.788-11.31 22.07-20.205 22.07-20.205zM844.147 412.905c5.424 0 9.838 4.323 9.986 9.71l0.004 0.28v56.208c0 5.424-4.323 9.838-9.71 9.986l-0.28 0.004h-29.431c5.575 12.815 11.679 19.751 18.31 20.808 3.599 0 8.722-5.542 15.37-16.627 5.543 3.58 8.593 6.288 9.15 8.124-1.122 1.483-10.22 12.207-15.216 17.401 2.898 2.251 9.562 5.512 19.992 9.781-7.823 10.032-12.465 15.048-13.925 15.048-2.191 0-9.384-3.857-25.507-19.075-10.554-9.96-17.486-21.536-20.797-34.726l-0.18-0.734H798.5v40.076h16.216v5.647a7.992 7.992 0 0 1-7.743 7.988l-0.25 0.004h-11.882a7.992 7.992 0 0 1-7.988-7.744l-0.004-0.248V413.904a1 1 0 0 1 0.883-0.992l0.116-0.007h56.299z m-67.177 40.299c0.552 0 1 0.447 1 0.999v8.258a7.992 7.992 0 0 1-7.993 7.992h-21.135a0.999 0.999 0 0 0-1 1v14.72c0 0.553 0.448 1 1 1h28.128c0.552 0 1 0.447 1 0.999v8.208a7.992 7.992 0 0 1-7.993 7.992h-22.134v23.05h30.126v5.622c0 5.518-4.472 9.99-9.99 9.99h-23.085c-5.517 0-9.99-4.472-9.99-9.99v-28.672h-11.91a5.994 5.994 0 0 1-5.995-5.994v-10.206c0-0.552 0.447-1 0.999-1h15.907a0.999 0.999 0 0 0 0.999-0.998v-14.722a0.999 0.999 0 0 0-1-0.999h-10.91a5.994 5.994 0 0 1-5.995-5.994v-10.256c0-0.552 0.447-1 0.999-1h58.972z m61.803 5.724H799.81a1.998 1.998 0 0 0-1.993 1.849l-0.005 0.149v10.99c0 1.052 0.815 1.915 1.849 1.992l0.149 0.005h38.962a1.998 1.998 0 0 0 1.992-1.849l0.006-0.149v-10.99a1.998 1.998 0 0 0-1.998-1.997z m0-31.705H799.81a1.998 1.998 0 0 0-1.993 1.848l-0.005 0.15v10.989c0 1.053 0.815 1.916 1.849 1.992l0.149 0.006h38.962a1.998 1.998 0 0 0 1.992-1.849l0.006-0.15v-10.988a1.998 1.998 0 0 0-1.998-1.998z m-103.41-17.987a0.994 0.994 0 0 1 0.01 0.01c3.116 3.088 5.617 5.381 7.503 6.878-0.362 2.105-0.704 4.573-1.027 7.405a0.999 0.999 0 0 0 1.002 1.111l33.869-0.291a0.999 0.999 0 0 1 1.007 0.99v7.216a8.214 8.214 0 0 1-8.214 8.214h-46.758a5.994 5.994 0 0 1-5.994-5.994v-6.522c0-0.777 0.302-1.524 0.842-2.083l16.348-16.91a0.999 0.999 0 0 1 1.413-0.024zM928.102 456.93c1.104 0 1.998 0.894 1.998 1.998v11.988a7.992 7.992 0 0 1-7.992 7.992h-10.862v28.225c0 13.978-2.444 34.299-14.026 34.299-7.721 0-13.745-3.207-18.07-9.621 12.713-7.828 19.07-16.054 19.07-24.678v-28.225h-17.072a1.998 1.998 0 0 1-1.998-1.998v-17.982c0-1.104 0.895-1.998 1.998-1.998h46.954z m15.985 21.978a5.994 5.994 0 0 1-5.994-5.994v-13.986c0-1.104 0.894-1.998 1.998-1.998h72.929c1.103 0 1.998 0.894 1.998 1.998v11.988a7.992 7.992 0 0 1-7.993 7.992h-7.052v54.531a7.992 7.992 0 0 1-7.992 7.993h-29.85c-6.621 0-11.989-5.368-11.989-11.989v-5.638h30.759a5.994 5.994 0 0 0 5.994-5.994v-38.903h-42.808z m-15.985-65.935c1.104 0 1.998 0.894 1.998 1.998v11.988a7.992 7.992 0 0 1-7.992 7.992h-40.96a1.998 1.998 0 0 1-1.998-1.998v-17.982c0-1.104 0.895-1.998 1.998-1.998h46.954z m84.918 0c1.103 0 1.998 0.894 1.998 1.998v11.988a7.992 7.992 0 0 1-7.993 7.992h-62.938a5.994 5.994 0 0 1-5.994-5.994v-13.986c0-1.104 0.894-1.998 1.998-1.998h72.929z" fill="#000000"></path><path d="M422.661 623.767c2.229 0 4.424-0.237 6.585-0.711 2.162-0.474 4.079-1.253 5.75-2.337 1.671-1.084 3.02-2.517 4.045-4.3 1.025-1.784 1.538-3.986 1.538-6.605 0-3.25-0.959-5.847-2.875-7.789-1.917-1.941-4.368-3.115-7.354-3.522v-0.135c2.45-0.768 4.434-2.032 5.95-3.793 1.515-1.761 2.273-3.996 2.273-6.705 0-2.168-0.424-4.019-1.27-5.554-0.847-1.535-1.95-2.788-3.31-3.76-1.36-0.97-2.908-1.67-4.646-2.099a21.965 21.965 0 0 0-5.282-0.643h-18.452v47.953h17.048z m-0.629-27.973h-7.428v-12.987h6.699c3.183 0 5.527 0.47 7.03 1.411 1.504 0.942 2.255 2.541 2.255 4.8 0 2.165-0.73 3.835-2.188 5.012-1.46 1.176-3.582 1.764-6.368 1.764z m0.07 20.98h-7.498v-13.987h7.83c3.406 0 5.95 0.498 7.63 1.494 1.682 0.996 2.522 2.761 2.522 5.296 0 1.584-0.342 2.851-1.028 3.802a6.735 6.735 0 0 1-2.588 2.173c-1.04 0.497-2.179 0.826-3.417 0.984a27.315 27.315 0 0 1-3.45 0.238z m34.64 6.993l4.162-10.973h19.965l4.292 10.973h9.365l-19.835-47.953h-7.089l-20.03 47.953h9.17z m21.8-17.983h-14.986l7.56-19.98 7.425 19.98z m32.045 17.983v-37.049h0.128l21.518 37.049h10.246v-47.953h-8.069v35.897h-0.128l-21.07-35.897h-10.694v47.953h8.07z m50.043 0v-24.044h0.194l20.143 24.044h11.463l-22.862-25.805 21.437-22.148h-11.01l-19.17 20.725h-0.195v-20.725h-8.16v47.953h8.16z m77.16 0.999c3.559 0 6.84-0.628 9.841-1.883 3.002-1.256 5.597-3.014 7.784-5.273 2.187-2.26 3.891-4.954 5.114-8.081 1.222-3.128 1.833-6.586 1.833-10.375 0-3.88-0.611-7.385-1.833-10.512-1.223-3.127-2.927-5.787-5.114-7.978-2.187-2.192-4.782-3.88-7.784-5.068-3.002-1.187-6.282-1.78-9.842-1.78-3.516 0-6.765 0.593-9.745 1.78-2.98 1.187-5.554 2.876-7.72 5.068-2.165 2.191-3.859 4.85-5.08 7.978-1.223 3.127-1.834 6.631-1.834 10.512 0 3.79 0.61 7.247 1.833 10.375 1.222 3.127 2.916 5.82 5.082 8.08 2.165 2.26 4.739 4.018 7.719 5.274 2.98 1.255 6.229 1.883 9.745 1.883z m-0.436-7.992c-2.364 0-4.519-0.437-6.466-1.312a15.084 15.084 0 0 1-5.055-3.664c-1.422-1.57-2.516-3.418-3.282-5.548-0.766-2.129-1.149-4.471-1.149-7.027 0-2.465 0.383-4.751 1.149-6.858 0.766-2.107 1.849-3.945 3.25-5.514a15.136 15.136 0 0 1 5.02-3.698c1.948-0.897 4.126-1.345 6.533-1.345 2.406 0 4.595 0.448 6.564 1.345 1.97 0.896 3.654 2.129 5.055 3.698 1.4 1.569 2.483 3.407 3.249 5.514s1.149 4.393 1.149 6.858c0 2.556-0.383 4.898-1.149 7.027-0.766 2.13-1.86 3.979-3.282 5.548a14.997 14.997 0 0 1-5.088 3.664c-1.969 0.875-4.135 1.312-6.498 1.312z m40.264 6.993v-20.184h20.462v-7.18h-20.462v-13.139h21.708v-7.45h-29.97v47.953h8.262z m57.494 0l10.716-18.83 11.168 18.83h10.264l-16.397-25.4 13.944-22.553h-9.36l-9.296 16.39-9.425-16.39h-9.812l14.202 22.35-15.816 25.603h9.812z m49.13 0v-47.953h-7.991v47.953h7.992z m21.057 0v-37.049h0.128l21.518 37.049h10.246v-47.953h-8.069v35.897h-0.128l-21.07-35.897H797.23v47.953h8.07z m66.711 0.999c3.593 0 6.769-0.331 9.528-0.993 2.759-0.662 5.293-1.587 7.602-2.774v-25.132h-17.386v7.122h9.56v12.326c-2.567 1.142-5.582 1.712-9.047 1.712-2.523 0-4.78-0.445-6.769-1.335-1.988-0.89-3.678-2.134-5.068-3.732-1.39-1.598-2.46-3.481-3.208-5.65-0.748-2.168-1.123-4.554-1.123-7.156 0-2.511 0.375-4.84 1.123-6.985 0.749-2.146 1.807-4.018 3.176-5.616a14.666 14.666 0 0 1 4.972-3.766c1.946-0.913 4.117-1.37 6.512-1.37 2.438 0 4.694 0.48 6.769 1.438 2.074 0.959 3.689 2.123 4.844 3.493l5.581-6.438c-1.839-1.826-4.266-3.298-7.282-4.417-3.015-1.118-6.34-1.677-9.976-1.677-3.507 0-6.758 0.593-9.752 1.78-2.994 1.187-5.592 2.876-7.795 5.068-2.203 2.191-3.935 4.85-5.197 7.978-1.262 3.127-1.893 6.631-1.893 10.512 0 3.79 0.61 7.247 1.829 10.375 1.219 3.127 2.92 5.82 5.1 8.08 2.182 2.26 4.79 4.018 7.828 5.274 3.036 1.255 6.394 1.883 10.072 1.883z m50.76-1v-40.502h14.324v-7.45H900.13v7.45h14.323v40.503h8.317z m24.492 0l4.163-10.972h19.965l4.292 10.973h9.365l-19.835-47.953h-7.089l-20.03 47.953h9.17z m20.801-17.982h-14.985l7.56-19.98 7.425 19.98z m35.965 17.983v-47.953h-7.992v47.953h7.992z" fill="#000000"></path></svg>