<svg viewBox="0 0 1024 1024" version="1.1" xmlns="http://www.w3.org/2000/svg"><path d="M224 0h576c123.6 0 224 100.4 224 224v576c0 123.6-100.4 224-224 224H224c-123.6 0-224-100.4-224-224V224C0 100.4 100.4 0 224 0z" fill="#FFFFFF"></path><path d="M64 511.2c0 55.2 29.2 106 76.8 133.2s106.4 27.6 154 0S372 566.4 372 511.2s-29.2-105.6-76.8-133.2-106.4-27.6-154 0S64 456.4 64 511.2z" fill="#E59628"></path><path d="M407.6 488c17.6 6 32.4 18 32.4 32.8 0 14.8-12 26.8-32.4 32.8V488z m-162.4-35.6c-17.6-44.8 32.4-59.6 35.6-35.6 2.8-24 56-8.8 35.6 35.6l-35.6 62.4-35.6-62.4z m0 134c-17.6 44.8 32.4 59.6 35.6 35.6 2.8 24 56 8.8 35.6-35.6l-36-62.4-35.2 62.4z m124-104.4c6 0 12 0 20.8 2.8v74.4c-6 0-12 2.8-20.8 2.8v-80z m-14.8 77.6c-6 0-12-2.8-17.6-2.8v-71.6c6-2.8 12-2.8 17.6-2.8v77.2z m-29.6-8.8v-59.6c-14.8 6-23.6 18-23.6 29.6 0 12 8.8 24 23.6 30zM236 494c-8.8 0-17.6 6-23.6 18-20.4-6-53.2-41.6-53.2-41.6h-2.8c-2.8 0 12 14.8 29.6 29.6 8.8 6 20.8 14.8 26.4 18v8.8c-6 2.8-14.8 8.8-26.4 18-17.6 14.8-32.4 29.6-29.6 29.6h2.8s32.4-35.6 53.2-41.6c2.8 8.8 12 14.8 20.8 14.8 12 0 23.6-12 23.6-26.8 2.8-14.8-6-26.8-20.8-26.8z" fill="#FFFFFF"></path><path d="M558 588.4c-12 0-15.6-4.4-16.8-10.4-1.2-6 1.2-12.8 5.6-16s10.4-4 17.2-4 17.6-2 17.6-8v17.6c0 14.8-5.6 20.8-23.6 20.8z m6-127.6c-41.6 2.8-65.2 14.8-68 38.4 0 12 6 20.8 17.6 20.8 6 0 12-2.8 20.8-8.8 8.8-8.8 17.6-12 26.8-12 14.8 0 20.8 6 20.8 14.8s-8.8 14.8-29.6 14.8c-47.6 2.8-71.2 20.8-71.2 47.6 0 29.6 17.6 44.4 53.2 44.4 23.6 0 41.6-6 50.4-20.8 2.8 14.8 12 20.8 26.8 20.8 17.6 0 26.8-6 26.8-17.6v-98c-0.4-29.6-26.8-44.4-74.4-44.4z m207.6 160c17.6 0 26.8-8.8 26.8-26.8V520c0-38.4-17.6-59.2-50.4-59.2-20.8 0-35.6 8.8-44.4 29.6-2.8-20.8-8.8-29.6-23.6-29.6-17.6 0-23.6 8.8-23.6 29.6v104c0 17.6 8.8 26.8 26.8 26.8 17.6 0 26.8-8.8 26.8-26.8v-53.6c0-20.8 6-29.6 17.6-29.6s20.8 8.8 20.8 26.8v56.4c-0.8 17.6 5.2 26.4 23.2 26.4z m109.6-186.8c0-20.8-8.8-32.8-23.6-32.8-17.6 0-26.8 12-26.8 32.8v160c0 17.6 8.8 26.8 26.8 26.8s23.6-8.8 23.6-26.8v-14.8l12-12 14.8 29.6c6 12 12 17.6 14.8 20.8 2.8 2.8 8.8 2.8 14.8 2.8 17.6 0 26.8-8.8 26.8-23.6 0-6-2.8-14.8-8.8-26.8l-26.8-41.6 17.6-20.8c6-6 8.8-12 8.8-20.8 0-14.8-8.8-23.6-23.6-26.8-8.8 0-14.8 2.8-20.8 12l-29.6 44.4v-82.4zM472 573.6c0-29.6-12-50.4-32.4-56.4 17.6-6 32.4-32.8 32.4-56.4 0-56.4-53.2-53.2-59.2-53.2H324v213.6h88.8c3.2-0.4 59.2 8.4 59.2-47.6z m-68-89.2c17.6 6 32.4 17.6 32.4 32.8 0 14.8-12 26.8-32.4 32.8v-65.6z m-17.6-2.8v74c-5.2 2-12 2.8-20.8 2.8v-80c6 0 11.6 0 20.8 3.2z m-35.6 74c-6 0-12.4-1.6-17.6-2.8v-71.2c6-2.8 12-2.8 17.6-2.8v76.8z" fill="#009844"></path></svg>