<svg viewBox="0 0 1024 1024" version="1.1" xmlns="http://www.w3.org/2000/svg"><path d="M0 504.397a60.556 60.556 0 0 0 121.109 0 60.556 60.556 0 0 0-121.109 0z" fill="#E59628"></path><path d="M134.494 493.484c6.995 2.337 12.825 7.01 12.825 12.853s-4.664 10.517-12.825 12.854v-25.707zM70.373 479.46c-6.995-17.527 12.824-23.37 13.99-14.022 1.166-9.348 22.151-3.505 13.99 14.022l-13.99 24.54-13.99-24.54z m0 52.584c-6.995 17.527 12.824 23.37 13.99 14.022 1.166 9.348 22.151 3.505 13.99-14.022l-13.99-24.54-13.99 24.54z m48.965-40.898c2.332 0 4.664 0 8.161 1.168v29.213c-2.331 0-4.663 1.168-8.16 1.168v-31.55z m-5.829 30.381c-2.332 0-4.663-1.169-6.995-1.169v-28.044c2.332-1.168 4.663-1.168 6.995-1.168v30.381z m-11.658-3.506v-23.37c-5.83 2.337-9.327 7.011-9.327 11.685s3.497 9.348 9.327 11.685z m-34.976-22.201c-3.497 0-6.995 2.337-9.327 7.01-8.16-2.336-20.985-16.359-20.985-16.359h-1.166c-1.166 0 4.664 5.843 11.659 11.686 3.497 2.337 8.16 5.842 10.492 7.01v3.506c-2.331 1.169-5.829 3.506-10.492 7.011-6.995 5.843-12.825 11.686-11.659 11.686h1.166s12.824-14.023 20.985-16.36c1.166 3.506 4.664 5.843 8.161 5.843 4.664 0 9.327-4.674 9.327-10.517 1.166-5.842-2.332-10.516-8.16-10.516z" fill="#FFFFFF"></path><path d="M194.927 533.941c-4.653 0-6.1-1.764-6.626-4.054-0.525-2.29 0.533-5.065 2.164-6.222 1.63-1.158 4.015-1.615 6.788-1.615 2.774 0 6.98-0.842 6.98-3.157v6.946c0 5.787-2.327 8.102-9.306 8.102z m2.326-49.774c-16.285 1.158-25.59 5.788-26.754 15.048 0 4.63 2.327 8.103 6.98 8.103 2.326 0 4.652-1.157 8.142-3.473 3.49-3.472 6.98-4.63 10.47-4.63 5.815 0 8.142 2.315 8.142 5.788 0 3.473-3.49 5.788-11.633 5.788-18.611 1.157-27.917 8.102-27.917 18.52 0 11.576 6.98 17.363 20.938 17.363 9.306 0 16.285-2.315 19.775-8.102 1.163 5.787 4.653 8.102 10.469 8.102 6.98 0 10.469-2.315 10.469-6.945V501.53c0-11.575-10.47-17.363-29.08-17.363z m81.426 62.507c6.979 0 10.469-3.472 10.469-10.418v-28.938c0-15.048-6.98-23.15-19.775-23.15-8.143 0-13.959 3.472-17.448 11.575-1.164-8.103-3.49-11.576-9.306-11.576-6.98 0-9.306 3.473-9.306 11.576v40.513c0 6.946 3.49 10.418 10.469 10.418 6.98 0 10.469-3.472 10.469-10.418v-20.835c0-8.103 2.326-11.576 6.98-11.576 4.652 0 8.142 3.473 8.142 10.418v21.993c0 6.946 2.326 10.418 9.306 10.418z m43.039-72.924c0-8.103-3.49-12.733-9.306-12.733-6.98 0-10.47 4.63-10.47 12.733v62.506c0 6.946 3.49 10.418 10.47 10.418s9.306-3.472 9.306-10.418v-5.787l4.653-4.63 5.816 11.575c2.326 4.63 4.652 6.945 5.816 8.103 1.163 1.157 3.49 1.157 5.816 1.157 6.98 0 10.469-3.472 10.469-9.26 0-2.315-1.163-5.788-3.49-10.418l-10.469-16.205 6.98-8.103c2.326-2.315 3.49-4.63 3.49-8.103 0-5.787-3.49-9.26-9.307-10.418-3.49 0-5.816 1.158-8.142 4.63l-11.632 17.364V473.75z m-160.524 54.404c0-11.576-4.653-19.678-12.796-21.993 6.98-2.316 12.796-12.733 12.796-21.994 0-21.993-20.938-20.835-23.265-20.835h-34.896v83.342h34.896c1.163 0 23.265 3.473 23.265-18.52z m-26.754-34.726c6.979 2.315 12.795 6.945 12.795 12.733 0 5.787-4.653 10.417-12.795 12.732v-25.465z m-6.98-1.158v28.938c-2.08 0.842-4.653 1.158-8.142 1.158v-31.253c2.326 0 4.653 0 8.142 1.157z m-13.958 28.938c-2.327 0-4.867-0.607-6.98-1.157v-27.78c2.327-1.158 4.653-1.158 6.98-1.158v30.095z" fill="#009844"></path><path d="M449.473 439.696l-29.025 32.68-3.483-16.34 2.322-3.502 3.483-3.501 3.483-3.502 1.161-4.668 2.322 2.334 2.322 2.334 2.322 2.335 3.483 1.167 4.644-3.502 4.644-4.668 4.644-2.335 5.805 2.335c2.322 0 3.483 1.167 4.644 3.501l1.16 4.669c0 3.501-1.16 4.668-1.16 5.835l-3.483 4.669-4.644 1.167 4.644 3.501 1.16 4.669-1.16 4.668-4.644 3.502-8.127 9.337c1.16-1.167 3.483-3.502 5.805-3.502l6.966-1.167 5.805 2.334 4.643 5.836 3.483-2.334 1.161-3.502 1.161-3.5-1.16-4.67-2.323-2.334 1.161-2.334 2.322-3.501 1.161-3.502c4.644 3.502 8.127 8.17 10.45 15.173 5.804-4.669 11.609-10.504 17.414-17.507l4.644 2.334 4.644 4.669 2.322 4.668c0 1.167 0 3.502-1.161 5.836l-10.449 24.51c2.322 1.167 5.805 2.334 8.127 5.835 2.322 3.502 4.644 7.003 5.805 11.671l2.322 10.505c-1.161 4.668-2.322 8.17-3.483 10.504l-2.322 5.835-23.22-8.17-4.644 4.669-1.16 8.17v15.173c0 3.5-1.162 8.17-2.323 11.67-1.16 4.67-2.322 8.17-3.483 10.505l-2.322-1.167-1.16-1.167v-4.669l-2.323-51.353-1.16-2.335-2.323-2.334-2.322-1.167c-2.321 4.668-4.643 8.17-8.126 11.671l-10.45 8.17-11.61 5.836-11.609 5.835c-2.322 1.168-4.644 1.168-5.805 0-2.322-2.334-3.483-3.501-3.483-4.668l1.161-4.669c1.161-1.167 2.322-2.334 5.805-3.501l10.449-3.501h-3.483l-4.644-1.167-3.483-1.168-1.16-3.501c0-2.334 1.16-3.501 2.321-4.669l4.644-3.5 4.644-3.502 2.322-4.669h-3.483l-2.322 2.334-3.483 2.335-4.644 1.167c-3.483 0-4.644-1.167-5.805-3.502l4.644-4.668 5.805-3.501 5.805-2.335 5.805-3.501c2.322-4.669 1.16-7.003-2.322-9.337-6.966 9.337-16.254 17.507-26.703 24.51l-3.483-4.669-1.16-5.836 1.16-4.668c2.322-1.167 3.483-2.334 4.644-2.334 11.61-9.337 20.898-19.841 29.025-29.178-9.288 5.835-17.415 11.67-24.38 18.674-6.967-1.168-10.45-4.669-10.45-10.505l10.45-3.5 9.287-4.67 9.288-5.835 6.966-8.17c5.805-5.836 9.288-12.838 12.77-21.008h-3.482v-1.167z m-3.508 62.103l4.71-2.363 4.71-3.543 3.531-3.544c0-1.182 1.178-2.363 1.178-5.907l-9.42 5.907c-3.531 2.362-4.709 4.725-4.709 9.45z m3.473 35.185l-3.473 3.514 9.262-3.514c3.473-2.343 5.788-4.685 6.946-7.028l4.63-9.372 2.316-10.542 1.157 4.685 1.158 4.686 1.158 3.514 2.315 3.515 1.158-32.8-1.158-2.343-2.315-1.171-1.158 2.343c-2.315 5.857-8.104 10.542-15.05 12.885 1.158 0 1.158 1.172 2.316 3.514l-1.158 3.515-3.473 3.514-3.473 2.343 2.315 3.514 2.316 3.514 1.157 3.514-2.315 3.515-4.63 4.685z m32.653-6.314c9.36 0 16.38-1.17 22.23-4.68l-1.17-5.85-4.68-3.51-5.85-1.17-7.02-1.17c-1.17-3.51-1.17-5.85-1.17-8.191 0-4.68 2.34-9.36 7.02-12.87 2.34-3.51 4.68-7.02 5.85-11.701-3.51 1.17-7.02 3.51-8.19 3.51-1.17 1.17-3.51 2.34-7.02 4.68v8.19c0 8.191-1.17 16.381-2.34 24.572v8.19h2.34z m109.491-49.695c0 1.167 1.162 3.501 3.487 7.003-1.163 2.334-2.325 4.668-2.325 8.17v9.337l-1.162 9.337c0 2.334-1.162 5.835-3.486 8.17-1.162 3.501-2.325 5.835-2.325 8.17 0 2.334 1.163 4.668 2.325 8.17 2.324-3.502 4.648-7.003 4.648-10.505l1.162-11.671 1.163-11.671c0-4.669 0-8.17 1.162-10.504l1.162-8.17 1.162-8.17-1.162-8.17-3.487-7.003-2.324-1.167 3.487-2.334 2.324 1.167 5.81 4.668 4.65 5.836 2.323 7.003c-1.162 3.501-2.324 5.835-3.486 7.003l-1.162 3.5v5.837l1.162 2.334c3.486 0 5.81-1.167 8.135-2.334 2.324-2.335 4.649-4.669 5.81-8.17l3.487-9.337 2.324-10.504-1.162-3.502 1.162-3.501s1.163-1.167 3.487-1.167 3.486 1.167 3.486 1.167l5.811 4.668c1.162 1.167 1.162 3.502 1.162 7.003l-1.162 8.17-2.324 7.003h4.648l4.649 1.167 3.486-1.167 2.325-3.502 3.486-11.671 1.162 9.337-1.162 9.337-1.162 9.337v10.504l-2.324 1.167-3.487-1.167-3.486-4.668-2.324-3.502-1.163-2.334-1.162-2.334-1.162-2.334-1.162 1.167c-1.162 17.507-2.324 28.01-3.487 31.512v18.674c1.163 2.334 1.163 4.669-1.162 5.836l-5.81-5.836-4.649-9.337c-1.162-2.334-1.162-5.836-1.162-10.504 1.162-4.669 2.324-7.003 3.486-9.337l1.162-12.838 2.325-12.839 1.162-12.838c0-5.836 0-9.337-1.162-11.671l-1.162 10.504-3.487 10.504-2.324 11.671 1.162 11.671-2.324 2.335-3.487-1.168-3.486-2.334-1.162-3.501c-2.325-2.334-4.649-4.669-9.297-4.669v26.844l-3.487 12.839c-1.162 3.501-3.486 7.002-8.135 10.504-2.324-1.167-4.648-2.334-6.973-5.836l-2.324-8.17 1.162-8.17 2.324-8.17 1.163-2.334 1.162-2.334-2.325-2.334c-1.162 0-3.486-1.167-5.81-2.335l-4.649-5.835-2.324-7.003-2.325-7.003v-4.668l2.325 3.501 4.648 2.334h4.649c2.324-1.167 3.486-2.334 3.486-3.5l4.649-12.84v3.502h1.162z m68.63-39.835l-1.16-2.325-1.161-3.49 1.16-2.325h4.641l6.962 2.326c2.32 2.326 4.641 3.489 5.802 5.814l2.32 5.815c0 2.326-1.16 4.652-3.48 8.14l-4.642 16.28-2.32 16.282v34.887l2.32 15.118 2.32 16.28 1.161 16.28c-1.16 6.978-2.32 11.63-3.48 15.119l-5.802-3.489-4.642-5.815-1.16-6.977c0-1.163 0-3.489 1.16-6.977l-1.16-16.281 1.16-16.28v-15.119l-1.16-15.117 2.32-41.865 1.161-3.489 1.16-4.651v-4.652c-1.16-2.326-2.32-3.489-3.48-3.489z m155.654 133.758c-2.33-1.164-4.66-2.328-6.99-5.82-2.33-3.491-3.495-5.819-4.66-10.474l-1.165-9.312v-10.475l5.825-58.194c-3.495 0-5.825-2.328-5.825-5.82-4.66 2.328-9.32 4.656-12.815 9.311l2.33 2.328 3.495 3.492 1.165 3.491-2.33 4.656-2.33 1.164-4.66 3.492-2.33 3.491 1.165 3.492c5.825 0 9.32 2.328 10.485 8.147l-4.66 2.328-4.66 1.164-3.495 2.328-2.33 4.655-2.33 13.967 5.825-2.328 5.825-4.655 4.66-5.82 3.495-5.82-1.165 8.148-3.495 8.147-4.66 8.147-4.66 8.148-5.825 11.639c-3.495-1.164-5.825-2.328-6.99-4.656s-2.33-4.655-2.33-6.983l1.165-9.311 1.165-8.148 2.33-8.147c-6.99 4.656-13.98 8.147-20.97 8.147l-1.165-4.655 1.165-4.656 2.33-3.492 4.66-2.327c5.825-3.492 9.32-8.148 12.815-12.803l-3.495-2.328-4.66-2.328-3.495-2.327-1.165-4.656c9.32-2.328 17.475-8.147 22.135-16.295l-3.495-2.327-3.495-1.164h-3.495l-2.33 2.328-5.825 8.147-4.66 6.983-5.825 6.984-6.99 6.983-2.33 1.164-2.33 2.328-2.33 1.163-1.166-2.327v-4.656c1.165-1.164 1.165-3.492 1.165-3.492l5.825-6.983 6.99-5.82 5.826-6.983 5.825-8.147 5.825-9.311c2.33-2.328 3.495-5.82 4.66-10.475l2.33-10.475-2.33-4.656c2.33 0 4.66 1.164 6.99 2.328l5.825 4.656c1.165 1.163 1.165 3.491 2.33 5.819 0 2.328 0 4.656-2.33 6.983l-8.155 6.984 6.99-2.328 5.825-3.492L798.39 462c2.33 1.164 3.495 2.328 5.825 4.656l1.165 2.328 1.165 2.327 3.495-1.163 6.99-5.82 8.155-5.82 8.155-4.655c3.495-1.164 5.825-1.164 9.32-1.164l5.825 4.656c2.33 2.328 4.66 3.491 5.825 5.82 1.165 1.163 2.33 3.49 2.33 6.983 0 1.163-1.165 2.327-1.165 3.491 0 1.164-1.165 2.328-2.33 3.492l-10.485 25.606 3.495 2.327-1.165 2.328-2.33 2.328-3.495-1.164c-5.825 1.164-11.65 2.328-15.145 5.82-3.495 3.491-6.99 6.983-9.32 11.638-2.33 4.656-3.495 10.476-3.495 16.295 0 5.82 1.165 11.639 3.495 16.295l22.135-18.623-4.66-1.164h-4.66l-4.66-1.164-4.66-3.491c1.165-3.492 2.33-4.656 3.495-5.82l5.825-3.491 5.825-2.328 5.825-4.656 2.33-3.491 2.33-4.656 2.33-2.328 4.66 2.328 2.33 1.164 2.33 2.328 1.165 3.491-2.33 2.328c-4.66 4.656-10.485 9.311-17.475 11.64l10.485 2.327 11.65 3.492 9.32 6.983c2.33 2.328 4.66 6.983 5.825 11.639l-2.33 2.328h-4.66l-2.33-1.164-1.165-2.328c-6.99-6.983-16.31-11.639-26.795-13.967l-6.99 11.64-3.495 6.983-3.495 5.819-3.495 5.82-3.495 4.655z m21.01-97.758l1.152-3.51 1.151-3.51 1.152-3.51-2.303-3.51-4.607 4.68-5.76 2.34-5.758 2.34-5.759 2.34c0 4.68-1.152 9.36-3.455 12.87l12.67-8.19c4.606-3.51 8.062-3.51 11.517-2.34z m-16.654 17.533c-3.492 0-5.82 2.335-4.656 7.003l-3.492 9.337c10.475-2.334 18.623-9.337 22.114-19.841l-1.164-3.501c-3.491 4.668-8.147 8.17-13.966 10.504 1.164-2.334 1.164-3.502 1.164-3.502z m86.386 31.36c1.163-6.974 3.49-11.623 6.979-16.272v6.973a115.974 115.974 0 0 0 26.754-34.869l1.163-4.65-2.327-1.161-3.49-1.163-3.489 2.325-5.816 2.325-1.163-5.812v-5.812l2.326-4.649 5.816-2.324c5.816-3.487 8.143-8.137 9.306-15.11 1.163 0 2.327-1.163 4.653-1.163l4.653 3.487 3.49 4.65 3.489 4.649 1.163 3.487-1.163 3.487h-1.163l-3.49 2.324-3.49 1.162-3.49 2.325-2.325 2.325 1.163 2.324c2.326 3.487 3.49 6.974 3.49 10.461 0 4.65-2.327 9.299-6.98 12.785-4.653 10.461-8.142 20.922-8.142 32.545 0 4.65 0 9.299 1.163 11.623 1.163-8.136 3.49-17.434 6.98-26.733l-5.817 47.655c-2.326-1.163-4.653-3.487-6.98-5.812l-2.326-8.136 1.164-9.298 1.163-9.299 1.163-18.597-18.611 17.435-2.327 2.324h-2.326l-2.326-1.162v-4.65h1.163z m56.701-57.756l4.669-1.164 3.501-1.164 4.669-1.165 3.501 2.329c3.502 1.164 3.502 4.657 2.334 8.15l-4.668 5.82-4.669 6.985-5.835 4.657-7.003 2.329-4.668 3.492-1.168 4.657 1.168 4.657 3.5 4.657 7.004-3.493 7.002-3.492 7.003-2.329h9.337l1.167 33.762-1.167 3.493v4.656l-1.167 3.493-3.501 2.328h-7.003l-7.003-2.328-7.003-3.493-7.002-3.492c5.835 8.15 11.67 13.97 16.34 18.627 4.668 4.657 10.504 9.314 16.34 12.806l9.336-12.806 1.167-37.254v-11.642l-1.167-5.821v-5.822c3.502-2.328 8.17-3.492 12.839-3.492 4.668 0 7.002 0 9.337 1.164l3.501-4.657-1.167-4.657-3.502-4.656c-1.167-1.165-2.334-1.165-4.668-2.329l-39.682 9.314c10.504-8.15 19.84-18.627 26.844-29.105 0-4.657-3.502-8.15-8.17-10.478-10.504 2.328-21.009 8.15-30.346 17.463z" fill="#231815"></path></svg>