<svg viewBox="0 0 1024 1024" version="1.1" xmlns="http://www.w3.org/2000/svg"><path d="M136.388 375c-64.015 0-112.05 54.046-107.532 113.94 3.229 42.237 25.196 62.23 59.562 84.07 22.048 14.034 41.352 27.254 48.414 31.422h0.532s30.564-20.911 54.181-35.943c31.532-19.308 51.289-44.156 52.398-79.781C247.035 427.703 200.423 375 136.388 375z" fill="#0A7DB7"></path><path d="M244.14 482.086c0 29.12-11.66 53.212-30.589 70.184v-70.695l-38.801 28.403v17.81l-6.379 4.67v-17.78l-26.874 19.75v16.07l-4.693 3.418-4.69-3.418v-16.07l-26.868-19.75v17.78l-6.358-4.67v-17.81l-38.782-28.403v70.695c-18.907-16.972-30.58-41.063-30.58-70.184 0-50.851 35.566-93.356 83.22-104.28C48.666 389.186 0 445.007 0 512.215 0 587.63 61.257 648.76 136.804 648.76c75.58 0 136.817-61.13 136.817-136.543 0-67.208-48.663-123.029-112.69-134.41 47.622 10.924 83.208 53.429 83.208 104.28z m-59.01 66.468v-12.83l5.352-3.876v37.053l-53.678 35.531-53.623-35.54v-37.044l5.366 3.876v12.83l26.103 19.165v-15.19l5.358 3.911v15.253l16.796 12.302v0.021l0.034 0.018v-0.04l16.78-12.3V556.44l5.397-3.912v15.191l26.114-19.165z" fill="#FFC82F"></path><path d="M367.841 582.969v-9.944h26.6v33.992a115.818 115.818 0 0 1-11.036 2.35c-3.711 0.601-7.137 0.904-10.28 0.904-11.007 0-19.684-2.59-26.033-7.776-6.73-5.483-10.092-13.407-10.092-23.776 0-10.725 3.19-19.03 9.574-24.904 6.38-5.878 15.231-8.815 26.55-8.815 3.963 0 7.357 0.197 10.188 0.587 2.828 0.393 5.877 1.072 9.148 2.035l-0.848 10.667c-2.455-1.084-5.173-1.913-8.159-2.485a46.792 46.792 0 0 0-8.82-0.86c-7.484 0-13.395 2.202-17.732 6.599-4.09 4.16-6.132 9.584-6.132 16.274 0 6.629 1.998 12.038 5.992 16.226 3.99 4.19 9.445 6.282 16.363 6.282 3.27 0 6.161-0.3 8.677-0.903V582.97h-13.96z m102.307 13.56l12.546-50.444h12.828l-17.167 63.1h-16.979l-11.884-50.443-11.884 50.444h-17.072l-17.45-63.101h13.864l12.263 50.444 11.412-50.444h17.922l11.601 50.444z m94.857 1.085c3.02-1.447 4.53-3.826 4.53-7.142 0-3.676-1.417-6.267-4.246-7.776-2.2-1.143-5.315-1.715-9.339-1.715h-9.08v18.26h9.08c3.774 0 6.792-0.543 9.055-1.627z m-18.136-41.586v15.55h8.233c3.52 0 6.288-0.452 8.3-1.355 2.767-1.267 4.15-3.376 4.15-6.328 0-3.256-1.353-5.485-4.055-6.692-1.824-0.782-4.716-1.175-8.677-1.175h-7.95z m20.779 20.342c4.528 0.482 8.171 2.05 10.94 4.7 2.766 2.653 4.152 5.937 4.152 9.854 0 6.992-2.831 12.023-8.49 15.098-3.9 2.11-8.805 3.163-14.714 3.163h-25.871v-63.1h25.871c5.658 0 10.247 0.965 13.77 2.892 4.967 2.713 7.451 7.142 7.451 13.289 0 3.679-1.195 6.78-3.584 9.312-2.39 2.531-5.566 4.129-9.525 4.792z m43.04 8.407h19.243l-9.527-26.036-9.716 26.036z m2.452-38.693h14.904l25.844 63.1h-14.62l-5.66-14.463h-26.692l-5.755 14.464h-13.676l25.655-63.101z m91.366 47.253l0.189-47.251h12.637v63.098h-16.13l-25.182-47.19-0.188 47.19h-12.64v-63.098l16.207 0.006 25.107 47.245z m80.769-47.252l-27.071 29.743 28.2 33.358h-17.258l-23.675-29.29-0.188 29.29h-13.207v-63.101h13.207v27.12l23.768-27.12h16.224z m22.89-102.76c-0.951 1.073-1.928 2.14-2.922 3.187l-9.788-7.605c8.002-7.465 16.196-24.091 19.465-33.32l12.923 1.327c-0.193 0.337-1.48 4.945-3.618 10.543h21.087v11.593h-26.45c-0.17 0.292-0.34 0.58-0.513 0.864-1.548 2.547-3.649 5.492-6.083 8.54h30.448v11.625h-13.418v13.591h16.015v11.607h-16.015v18.351c0 1.091 0.908 1.503 1.687 1.142l9.605-4.773v13.225c-3.522 1.877-9.068 4.787-11.556 5.823-4.067 1.694-12.272-0.24-12.272-7.956v-25.812h-13.14V463.67h13.14v-13.59h-8.596v-6.755z m-184.16 1.232c-9.992 4.079-16.988 6.527-16.988 6.527l-4.823-11.749a454.719 454.719 0 0 0 21.811-9.086v-23.342h13.176v17.239c16.247-7.796 27.06-13.977 27.06-13.977l7.14 10.727c-10.32 6.732-22.904 12.986-34.2 18.035v8.968c0 3.409 2.348 5.098 5.672 5.098l11.942-0.002c4.19 0 6.401-1.866 7.444-5.765 0.575-2.895 1.277-7.297 1.277-7.297l12.282 3.636s-0.702 4.332-2.194 9.704c-2.09 7.533-6.993 11.093-15.677 11.093h-17.751c-9.124 0-16.17-5.343-16.17-15.347v-4.462z m324.413 9.705v55.688h-12.886v-37.511c-4.989 6.034-8.699 9.594-8.699 9.594l-6.7-11.867c10.072-9.197 25.59-36.34 25.59-36.34l10.6 4.423c-2.211 5.69-4.97 11.083-7.905 16.013z m13.56-30.554v-13.852h57.672v13.852H961.98z m-3.345 29.694V439.55h65.314v13.852h-14.453v42.62c0 6.57-3.6 13.928-14.815 13.928h-14.268l-3.107-13.757h13.278c2.999 0 5.012-1.377 5.012-4.822V453.4h-36.961z m-18.966-46.464l11.753 3.405c-6.396 21.996-27.123 46.909-27.123 46.909l-6.966-12.122c14.043-18.16 22.336-38.192 22.336-38.192zM733.76 437.502h13.035v-14.556H733.76v14.556z m25.766 33.76c0 3.055 1.684 4.29 4.885 4.29l11.816-0.002v-23.975a1.818 1.818 0 0 0-1.822-1.815h-14.879v21.502z m-53.772 10.006c9.039-7.932 15.4-19.07 15.279-31.508h-15.098a1.817 1.817 0 0 0-1.818 1.815v45.614c0 1.002 0.816 1.815 1.818 1.815h68.47a1.818 1.818 0 0 0 1.822-1.815v-9.383h-15.51c-7.69 0-13.922-6.218-13.922-13.886v-24.16h-13.027c0.124 15.516-6.863 31.226-18.462 40.898l-9.552-9.39z m-14.37-58.322v-11.808h97.574v11.808h-29.432v14.559h19.34c5.574 0 10.092 4.506 10.092 10.067v52.29c0 5.559-4.518 10.065-10.092 10.065h-77.388c-5.574 0-10.094-4.506-10.094-10.065v-52.29c0-5.561 4.52-10.067 10.094-10.067h19.546v-14.56h-29.64z m-117.552 26.686l-5.989-12.882c20.39-15.313 30.488-31.75 30.488-31.75l12.15 6.682c-3.8 5.538-6.977 9.668-11.071 14.635v40.71h-13.176v-27.552c-3.625 3.494-7.788 6.909-12.402 10.157z m55.352 14.886v11.524h48.147v12.256h-48.147v21.629h-13.177v-21.63H571.66v-12.255h44.348v-11.524h13.177z m-123.856-10.143h-8.213c0 9.176-0.42 22.89-1.298 29.328h5.208c3.592 0 5.606-1.437 5.606-5.3v-22.638c0.014-0.322-0.132-0.668-0.394-0.972a1.273 1.273 0 0 0-0.909-0.418z m56.2 43.313c-2.836 3.734-8.93 9.752-15.084 11.399-0.596 0.223-5.285 1.322-9.141-1.739-4.974-3.321-7.41-9.99-7.572-10.375-4.62 4.73-9.982 9.722-16.058 15.028-0.594-0.59-7.121-7.675-8.322-8.83 8.452-5.935 15.27-12.55 20.491-19.905-2.028-9.454-3.63-27.562-4.788-49.092h-22.621c-0.347 0-0.664 0.177-0.903 0.393-0.285 0.306-0.415 0.622-0.415 0.962v8.26h15.964c1.034 0 2.037 0.393 2.816 1.2 0.777 0.777 1.153 1.87 1.153 2.955v33.53c0 9.146-4.703 13.89-12.546 14.153h-6.934l-2.19-11.02c-0.872 9.112-3.37 17.114-9.155 26.83l-10.897-5.602c4.642-7.064 6.702-12.547 7.89-19.025 1.41-5.913 2.16-15.76 2.16-29.629v-25.874c0-9.877 9.492-8.618 10.509-8.618h24.737s-0.17-10.08-0.424-15.408h12.17v15.408h13.897c-0.847-1.176-8.81-9.403-10.22-10.867l7.213-5.922c2.886 2.345 6.81 6.045 11.724 11.06l-7.389 5.73h9.569v11.484h-23.947c0.287 11.254 1.049 24.49 2.221 34.48 3.731-7.064 8.594-19.087 11.485-27.687l10.02 4.476c-5.215 14.43-13.853 32.438-17.863 38.207 0.817 8.845 4.141 12.115 5.289 12.192 4.335 0.153 11.762-7.924 11.762-7.924l5.4 9.77z m-78.721-53.774h-9.618v35.735l8.618-2.534 0.083 12.343-28.268 9.284-1.764-12.812 10-2.944v-39.072h-8.713v-11.95h8.713v-22.075h11.331v22.074h9.618v11.95z m410.399-21.11a2.39 2.39 0 0 0-0.75-1.757 2.593 2.593 0 0 0-1.783-0.734H862.15v11.27h31.056v-8.778z m-31.056 20.053v10.303h29.066c0.508 0 1.023-0.198 1.379-0.556 0.39-0.34 0.61-0.822 0.61-1.325v-8.422H862.15z m30.598 43.037c3.29 3.721 12.955 11.225 20.442 14.502l-8.807 9.554c-18.292-7.907-31.785-24.565-36.989-45.409h-5.244v29.086c0 0.857 0.892 1.424 1.67 1.063l12.494-6.266v13.112s-10.908 5.932-14.692 7.507c-4.069 1.696-12.212-0.238-12.212-7.955V408.92h46.826c3.803 0 6.457 1.356 7.887 4.022 1.118 2.097 1.118 4.388 1.118 5.14v38.577c0 7.792-8.034 7.881-8.381 7.881h-17.365c1.71 5.04 3.742 9.373 6.06 12.89 6.69-3.775 16.076-10.93 16.076-10.93l7.11 8.64s-7.844 6.17-15.993 10.753z m-511.646-41.49l-6.828-11.444s31.194-12.731 52.291-24.223l7.213 11.475c-23.768 12.899-52.676 24.193-52.676 24.193z m18.177 17.363c6.98 16.792 22.134 28.498 45.483 35.205l-8.664 12.812c-25.467-9.165-42.28-25.165-50.431-48.017h-18.21l-0.063 32.573c0 0.858 0.891 1.424 1.67 1.061l24.667-11.245v13.113s-24.09 11.167-28.106 12.957c-4.029 1.793-12.29-0.24-12.29-7.956v-40.503H337v-12.765h16.334v-41.72h14.123v41.72h75.915v12.765H399.28z" fill="#231916"></path></svg>