<svg viewBox="0 0 1024 1024" version="1.1" xmlns="http://www.w3.org/2000/svg"><path d="M224 0h576c123.6 0 224 100.4 224 224v576c0 123.6-100.4 224-224 224H224c-123.6 0-224-100.4-224-224V224C0 100.4 100.4 0 224 0z" fill="#FFFFFF"></path><path d="M510.4 172c-158.8 0-278 134-266.8 282.8 8 104.8 62.4 154.4 148 208.8 54.8 34.8 102.8 67.6 120 78h1.2s76-52 134.4-89.2c78.4-48 127.2-109.6 130-198 8-151.6-107.6-282.4-266.8-282.4z" fill="#0A7DB7"></path><path d="M778 438c0 72.4-28.8 132-76 174.4v-176l-96.4 70.4v44.4l-16 11.6v-44l-66.4 48.8v40l-11.6 8.4-11.6-8.4v-40l-66.8-48.8v44l-15.6-11.6v-44l-96.4-70.8V612c-46.8-42-76-102-76-174.4 0-126 88.4-231.6 206.8-258.8-159.2 28.4-280 166.8-280 334 0 187.2 152 338.8 339.6 338.8 187.6 0 339.6-151.6 339.6-338.8 0-166.8-120.8-305.6-279.6-333.6 118 26.8 206.4 132.4 206.4 258.8z m-146.4 164.8v-32l13.2-9.6v92l-133.2 88.4-133.2-88.4v-92l13.2 9.6v32l64.8 47.6v-37.6l13.2 9.6v38l41.6 30.4 41.6-30.4v-38l13.2-9.6v37.6l65.6-47.6z" fill="#FFC82F"></path></svg>