<svg viewBox="0 0 1024 1024" version="1.1" xmlns="http://www.w3.org/2000/svg"><path d="M946.57561 421.788098l0.299707-0.199805c15.285073 21.878634 27.373268 11.388878 8.092098 39.76117v0.699317l0.099902 0.099903v0.099902c18.382049 4.995122 6.593561 13.786537 1.198829 25.275317-2.997073 12.787512-7.592585 34.166634-8.891317 47.153952-0.79922 14.985366-17.982439 5.894244-15.784585-7.592586 1.598439-5.594537 5.494634-11.288976 5.694439-17.582829-5.794341 2.897171-9.490732 10.389854-15.884488 12.487805h0.199805c-1.198829 0.099902-2.797268-0.499512-4.195902-1.498537l0.199804-0.999024c-5.494634-10.090146 4.695415-18.781659 12.587708-26.074537 4.795317-4.795317 9.490732-11.588683 13.087219-18.282146-11.089171 5.994146-23.477073 16.983415-23.576975-4.795317 6.593561-10.489756 6.193951-19.480976 16.284097-30.270439 7.093073-7.592585 3.69639-10.989268 10.589659-18.282146z m-499.811903 3.996097H448.062439v0.099903c0 1.398634 0.199805 2.897171 0.599415 4.695414 0.099902 0 0.099902 0.099902 0.299707 0.39961v0.099902c1.198829 1.598439 2.897171 1.098927 5.095024 1.498537 2.297756-0.499512 4.89522-3.29678 7.992195-3.196878 4.995122 1.998049 14.685659 3.596488 14.785561 10.489756-4.695415 6.593561-16.184195 5.294829-22.677853 10.090146v2.897171c2.597463 2.997073 8.192 1.498537 11.089171 5.194927-0.39961 5.294829 3.69639 6.693463 6.693463 9.091122v0.099902l0.199805 0.199805c0.099902 0.499512 0.099902 1.198829 0.099902 1.998049l-0.199805 0.099902v0.099903l-0.299707 0.299707c-10.389854 6.593561-25.874732 8.691512-35.465366 16.683707-8.192 16.883512-25.774829 68.632976-49.851317 56.145171-0.199805-3.29678 0.099902-2.497561 2.897171-4.795317 18.681756-13.287024 25.674927-30.070634 33.667122-46.954146v0h-0.199805c-2.997073-0.199805-6.193951 0.999024-9.690537 0.699317l-0.999024-0.999025c-1.098927-7.492683 3.596488-4.195902 6.693463-10.090146-8.092098 1.998049-17.782634 8.791415-18.481951-4.695414 1.598439-3.796293 7.692488-5.594537 11.688586-7.492683 6.693463-4.49561 16.983415-13.686634 23.077463-18.481952-8.791415-0.599415-19.68078 3.096976-28.372293 0.199805l0.099903-0.099902c9.191024-9.790439 29.07161-4.195902 32.768-20.579903 1.198829-2.097951 3.996098-3.69639 7.192975-3.69639z m-2.697366 32.967805l0.099903 0.099902v0.099903l1.298732-0.099903v-4.096H444.066341l-0.699317 3.296781s0.299707 0.099902 0.499513 0.39961v0.099902l0.199804 0.199805z m-10.989268 0.299707c-2.797268 0.499512-12.587707 6.993171-13.486829 9.39083 4.995122-0.79922 11.788488-3.596488 13.486829-9.39083z m-108.394146-31.169561c9.690537-0.299707 17.482927 14.885463 13.986341 24.476098l-0.099902 0.099902v0.199805c-0.199805 0.299707-1.398634 0.599415-2.097951 0.899122-13.187122-4.49561-25.475122 6.493659-35.265561 14.385951-1.498537 0.199805-5.594537 11.288976-6.193952 12.487805 6.993171-1.598439 15.384976-4.995122 21.578927-9.091122v-0.099902l0.099903-0.099903v-0.399609c0.099902-0.099902-1.198829-3.69639-1.398634-4.295805 9.290927 2.697366 26.274341-5.095024 26.274341 6.693463l-1.298732 1.298732-0.099902 1.098927c-4.89522 3.69639-12.68761 2.397659-18.881561 3.69639-8.691512 3.096976-18.681756 7.692488-26.074537 12.987317v0.099903l-0.099902 0.099902c-3.69639 10.489756-5.394732 24.576-6.593561 35.565268 4.49561-0.79922 10.689561-5.994146 13.486829-8.791414 31.369366-30.769951 6.193951-14.186146 7.292878-33.267513 3.29678 0.099902 7.292878 0.999024 9.990244 4.195903 2.297756-1.598439 6.094049-1.198829 8.291903 1.598439 23.976585 35.265561 60.041366 25.37522 55.645658 44.156878h-0.099902v0.099902h-0.099903c-50.750439-10.389854-41.559415-17.18322-57.144195-27.772878h-0.099902c-0.099902 0-0.899122 0.199805-1.598439 0.299708-8.59161 13.786537-22.877659 29.571122-35.665171 39.76117h-0.099903l-0.099902 0.099903c-4.195902 0.699317-6.193951-4.795317-7.79239-7.79239-6.993171-10.989268 1.898146-30.370341 4.295805-39.161757-7.592585-0.499512-14.885463 5.794341-22.977561 5.29483-4.695415-1.398634-3.796293-13.386927 0.399609-17.083317h0.099903c1.898146-1.298732 4.89522-0.899122 7.79239-0.999025v2.197854c4.89522-1.698341 11.189073-3.196878 15.784585-6.094049 4.795317-10.689561 5.294829-23.77678 1.498537-35.165658 1.798244-4.295805 8.891317-4.995122 11.88839-0.39961 0.499512 0.099902 1.198829 10.389854 1.398634 10.989268 8.291902-7.192976 18.681756-15.58478 24.775805-25.275317l-0.799219-6.993171z m364.743805 0c7.093073 0.099902 20.48 1.898146 20.280195 11.888391l-0.39961 0.399609h-0.199805l-0.199805 0.199805h-0.099902l-0.099903 0.099903c-7.892293 0.299707-17.982439-2.397659-22.478048-9.890342v-0.099902l-0.099903-0.099903v-0.799219-0.39961-0.199805l0.099903-0.099902v-0.099903l0.399609-0.399609h0.199805l0.099903-0.099903c0.699317 0 0.999024-0.199805 2.497561-0.39961z m158.145561 4.096c2.997073 0.39961 8.391805-0.999024 11.08917 1.298732v0.299707c3.596488 6.393756-2.597463 45.355707-2.697365 47.553561l-0.099903 0.099903v0.099902c-4.096 3.796293-11.089171 5.095024-14.585756 10.289951l-0.099902 0.099903c-3.096976 10.190049-3.896195 22.178341-3.896196 32.967805 7.192976-5.594537 17.083317-12.387902 18.282147-19.480976-0.599415-2.997073-4.695415-3.596488-6.893268-5.894244v-0.599414-0.299708-0.999024h0.199804c7.892293-5.894244 23.576976-20.380098 30.969756-26.773854 1.098927-0.499512 2.897171-0.899122 3.996098 0.299708 11.288976 11.288976-22.078439 19.880585-24.875707 28.072585 3.596488 0.699317 7.492683-2.197854 10.989268-4.096-0.099902 1.998049-1.198829 4.795317-0.899122 7.39278v0.099903c6.893268 6.593561 29.970732 13.586732 24.875707 23.676878v0.099902c-9.390829-2.297756-17.982439-12.68761-28.472195-13.486829h-0.099902c-5.294829 5.694439-21.179317 23.77678-25.37522 29.571122h-0.099902l-0.099903 0.099902c-19.081366 4.595512 1.398634-76.425366-1.998048-82.519414 0.499512-1.798244 2.497561-4.195902 1.598439-6.293854l-1.698342-0.999024c-0.39961-1.698341-1.498537-3.596488-1.298731-5.794342l0.599414-0.599414h0.099903l0.099902-0.099903h1.898146c4.395707 1.198829 5.194927 12.987317 11.488781 9.39083l0.099902-0.099903c1.198829-5.095024 1.798244-11.688585-0.299707-17.183219-1.098927-1.598439-3.29678-2.697366-3.396683-5.394732l0.599415-0.79922z m-3.396683 40.560391l1.098927 2.197853c3.396683-2.397659 4.89522-6.993171 4.295804-11.688585l-1.498536 0.899122-3.896195 8.59161z m0-7.192976h0.999024v-2.097951h-0.999024v2.097951z m-30.769951-28.172488c2.997073-0.199805 11.88839 5.194927 6.393756 9.690537-6.393756 2.397659-6.094049 7.992195-12.987317 7.992195 0.699317-4.795317 6.993171-9.690537 4.895219-15.285073v-1.19883-0.499512h1.698342v-0.699317z m180.024195 2.097951c7.892293 2.497561 21.379122 4.89522 9.091122 14.885464-2.897171 0.999024-7.292878 2.297756-10.789464 5.594536-5.794341 5.394732-10.889366 14.385951-18.182244 19.480976l0.699317 1.498537c36.364488-14.086244 31.269463-23.277268 47.653464-12.987317 5.794341 10.789463-20.579902 7.192976-25.37522 14.78556v2.097952l0.199805 0.199805v0.199804l0.199805 0.199805v0.099903c14.985366 3.496585 7.692488 60.540878-5.594537 57.643707-3.196878 0.099902-6.094049-2.697366-5.694439-6.593561 7.39278-3.196878 4.695415-47.753366 1.498537-48.452683h-0.099902l-0.099903-0.099902h-0.299707c-9.490732 0.39961-26.074537 18.481951-23.377171-4.395708 8.691512-8.59161 17.18322-20.08039 21.578927-31.669073v-0.099902-0.499512h-0.099903v-0.099903c-2.097951-1.398634-4.995122-1.998049-8.192-2.197853 1.198829-5.294829 10.789463-8.891317 16.883513-9.590635z m-441.868488 0c8.891317-1.898146 8.691512 5.594537 18.082341 4.295805 34.366439-11.189073 36.06478 9.790439 8.59161 18.382049-6.993171 2.597463-13.886439-0.39961-20.979512 2.997073-1.598439 1.998049-4.395707 5.694439-4.49561 8.391805 1.498537 4.096-0.39961 17.482927-0.39961 20.779707 13.287024-7.192976 31.469268-17.582829 42.058927-28.27239h1.798244c2.097951 1.798244 2.097951 4.995122 2.097951 8.092098-4.995122 5.394732-8.092098 11.788488-15.784585 14.186146v1.398634c0.299707 0.099902 0.999024 0.499512 1.498537 1.098927v0.099902l0.099902 0.099903c0.39961 3.29678-2.597463 5.994146-1.998049 9.790439 12.68761 8.092098 35.864976 9.590634 37.163708 28.672-4.49561 5.294829-14.685659-6.493659-18.581854-9.290927-6.293854-3.196878-17.482927-9.490732-24.276293-10.989268h-0.099902c-8.691512 11.288976-14.186146 28.871805-24.775805 35.864975-4.096 2.697366-8.291902 1.298732-11.88839-4.395707-7.492683-12.188098-0.79922-29.371317 1.598439-42.358634-6.593561 4.695415-7.692488 17.782634-16.883513 18.581854-5.394732-1.198829-4.49561-15.784585-2.097951-20.280195 8.99122-9.290927 18.182244-23.477073 23.876683-35.165659l-1.198829 0.299707v-0.599414c-16.483902 9.390829-12.088195 15.884488-19.880585 17.083317-5.294829-2.197854-8.791415-16.284098-7.093074-22.278244-0.099902 0 0.099902-0.199805 0.099903-0.499512l0.299707-0.299708v-0.099902l0.499512-0.499512h0.099903l0.099902-0.099903c0.699317 0 1.098927-0.599415 2.397659-0.599414 0.599415-4.295805 1.198829-9.590634 3.69639-13.586732v-0.099903h0.199805c0.699317 0 1.598439-0.199805 2.497561 0.599415h0.099902c3.69639 3.29678 2.597463 10.589659 5.894244 14.685659h0.099903l0.099902 0.099902H534.877659c0.39961-0.099902 14.985366-5.994146 15.384975-6.593561v-0.299707c0.599415-2.497561-2.797268-3.796293-2.797268-6.493659v-1.098927l0.199805-0.199804h0.099902c0.699317-0.899122 2.297756-1.098927 3.796293-1.398635z m23.077463 9.39083c-3.496585 0.099902-7.39278 0.599415-10.190049 3.496585v0.39961H564.748488c0.499512-0.099902 0.79922 0.199805 1.598439-0.099903l0.599414 1.098927c2.397659-0.999024 6.193951-1.698341 7.692488-4.895219z m5.194927 42.658341c-1.898146 0.899122-5.394732 2.997073-6.993171 4.595512v1.998049h0.099903l0.39961 0.39961h2.297756l0.099902-0.099903c2.297756-0.899122 3.396683-3.496585 4.295805-6.393756l-0.199805-0.499512z m-35.365463 33.767025l0.699317 5.794341c8.491707-2.697366 25.974634-21.079415 25.375219-26.174439v-0.199805c-1.498537-1.298732-3.896195-2.997073-6.593561-3.29678-4.995122 1.098927-10.289951 3.896195-14.585756 7.692487 0.099902 0.199805-4.89522 15.884488-4.895219 16.184196z m253.55239-84.717269h1.098927c2.297756 1.998049 3.596488 5.294829 3.29678 9.091122-14.685659 14.985366-13.187122 46.254829-37.663219 47.953171-0.599415-5.694439-2.397659-12.088195 2.297756-17.283122h0.199805l0.099902-0.099902c0.999024 0.099902 1.198829-0.199805 2.497561 0.199804 17.782634-17.18322 18.981463-27.273366 26.773854-39.361561v-0.099902l0.099902-0.099902c0.499512 0 0.499512 0.099902 1.298732-0.299708z m-79.322537 11.688586c11.788488-0.099902 29.47122-2.697366 33.96683 11.688585v-0.199805 0.79922l-0.099903 0.099902v0.099902c-3.496585 4.995122-16.084293-2.197854-21.179317-2.197853-9.790439 2.097951-19.68078-4.595512-29.571122-5.095025 3.596488-3.996098 11.688585-3.896195 16.883512-5.194926z m-34.666146 7.992195h0.199805v0.499512h-0.099903-0.099902-0.199805-0.099902-0.099903v-0.499512h0.39961z m-12.887415 2.397658l6.493659-1.298731c-0.099902 0.299707-0.39961 0.79922-0.79922 1.398634-6.393756 3.69639-8.192 10.289951-18.282146 10.090146 0.299707 0.599415 0.39961 1.898146 0.299707 2.897171-9.091122 10.489756-50.051122 27.073561-31.669073-0.699317 14.286049-2.597463 28.472195-12.887415 36.164683-13.986342l-2.197854 2.897171c2.297756-0.499512 7.592585-1.598439 9.990244-1.298732z m133.869269 0.79922c0.39961 0.099902 1.198829-0.199805 1.898146 0.099902l-0.199805 0.199805c2.797268 2.497561 1.098927 14.685659 2.697366 18.082342 0.39961 1.998049 2.397659 4.395707 2.497561 7.093073 0.39961 0.099902-2.597463 6.893268-2.697366 7.093073 6.094049-5.394732 14.685659-12.987317 20.380098-18.881561-0.299707 18.781659-33.16761 52.248976-40.560391 51.649561-3.496585-4.195902-3.69639-12.088195-0.199804-17.083317 4.096-4.89522 8.59161-7.093073 6.793365-15.185171v0.199805c0.099902-0.299707-0.099902-0.599415 0.099903-1.298732 0.199805 0.299707 1.998049 1.398634 2.997073 1.098927h0.39961v-0.099902l0.099902-0.099903v-0.099902l0.099903-0.099903v-2.697366c-4.195902 0.999024-14.485854-2.097951-4.295805-8.291902 3.996098-1.598439 7.892293-1.598439 6.193951-8.691512v-0.099903l-0.199805-0.199804v-0.099903l-0.199805-0.199805v-0.099902c-2.697366-2.697366-6.893268-0.299707-10.389853-1.998049 1.698341-3.69639 8.891317-9.690537 14.485853-10.090146l0.099903-0.199805z m-99.50283 0.999024c3.796293-0.599415 7.093073 2.897171 9.39083 6.493659-0.39961 0.79922-1.098927 2.397659-2.197854 3.29678-1.698341 0.299707-3.496585-0.79922-5.194927 0.599415l-6.593561 7.592585c7.39278-0.699317 17.682732-2.497561 22.078439 5.894244 5.194927 17.682732 8.192 44.556488 2.797269 49.95122-6.493659 4.49561-26.274341 8.491707-22.777757-6.993171-1.898146-0.79922-4.995122-0.699317-6.094048-2.897171v0.299707c-1.998049-3.096976 0.499512-7.692488-2.197854-11.189073v10.090147c-0.099902-0.099902-1.598439-0.79922-2.197854-1.098927-0.499512-0.999024-1.398634-1.798244-1.998048-3.396683l-0.699318-0.39961c-2.397659-4.89522-2.797268-11.788488 1.598439-16.284097-1.998049-0.39961-2.897171-2.597463-2.997073-4.995122v-0.099903H685.830244c-6.094049 4.995122-5.694439 25.575024-5.894244 30.869854-0.099902 4.395707 3.996098 10.989268-1.898146 13.686634-1.198829 0-1.998049 0.099902-3.296781-0.699317-9.890341-12.68761 0-57.74361 10.889366-64.636878-1.598439 0.199805-3.996098 0.499512-6.094049 0.39961l-0.099902-0.099903h-0.299708l-0.099902-0.099902-0.199805-0.199805v-0.199805c-1.898146-3.29678 1.798244-10.289951 5.394732-13.287024 6.693463-1.598439 14.186146 1.298732 21.279219-2.597464z m1.898147 67.633951c4.295805-0.39961 10.989268-0.999024 13.486829-5.794341 2.797268-10.889366 0.499512-28.672-4.195902-36.46439l0.099902-0.099903c-2.797268-3.796293-10.190049-1.698341-14.286049-0.799219 0 0.199805 0.499512 3.796293 0.499512 4.195902v0.099903h0.099903v0.099902h0.099902c2.997073 1.498537 7.292878 3.496585 6.293854 8.291902-1.498537 2.297756-5.294829 2.797268-6.293854 6.094049 2.697366-0.099902 6.293854 0.999024 8.192 3.496586 0.499512 1.598439-0.999024 4.695415-1.898146 6.293853 2.097951 6.293854 1.198829 9.590634-5.694439 13.08722 0 0 0-0.099902 0.199805 0.39961 0.999024 0.299707 1.998049 1.798244 3.396683 1.098926z m-13.786537-31.269463l-1.398634 5.194927c4.995122-1.798244 7.992195-8.891317 4.795317-13.986342v-0.199805l-0.199805-0.199804-0.099902-0.099903h-2.397659l-0.099902 0.099903h-0.099903c-0.299707 0.299707-0.599415 0.499512-0.999024 1.098926-0.599415 1.998049-0.39961 4.795317-0.39961 7.492683l0.899122 0.599415zM442.467902 487.523902c11.988293-3.096976 27.273366 0.899122 34.865952 3.396683 10.889366 4.195902 26.074537 4.595512 27.672975 16.284098-8.99122 10.689561-49.751415-22.677854-62.339122-18.681756v-0.999025h-0.199805z m13.386927 11.089171c8.491707 0.499512 10.889366 8.691512 11.089171 17.582829 1.598439 10.289951 3.29678 17.882537-3.996098 27.373269-5.095024 6.693463-23.576976 4.195902-22.577951-12.887415l-2.897171 2.897171h-1.498536-0.099903-0.099902v0.199805c-0.499512 3.396683 1.598439 7.79239-0.899122 11.288975h-0.099902l-0.099903 0.099903h-0.099902l-0.299708 0.299707c-21.578927-0.599415-5.394732-33.767024-1.998048-44.756293 4.295805 0.79922 3.196878 6.094049 1.498536 9.091122 6.993171-5.095024 13.08722-10.090146 22.178342-12.288l-0.099903 1.098927z m-20.679805 27.073561v1.098927c4.89522-0.199805 11.189073-5.794341 15.884488-0.499512v0.099902c1.198829 2.797268-1.198829 6.094049-0.899122 9.490732v0.299707l0.099903 0.099903v0.099902l0.099902 0.099903h0.099903l0.099902 0.099902h0.099902l0.099903 0.099902h0.199805l0.099902 0.099903c11.189073 0 6.893268-22.278244 4.695415-28.771903-9.091122 1.198829-21.479024 5.594537-20.579903 17.682732z" fill="#1B1918"></path><path d="M82.71922 645.070049l-0.599415-0.199805-0.599415-0.199805-1.198829-0.499512-1.298732-0.599415-2.89717-1.498536-3.196879-1.798244-3.396682-2.097952-5.194927-3.596487-5.29483-3.796293-9.590634-7.692488-2.697366-2.397658-2.297756-2.197854-1.798244-1.898146-0.799219-0.899122-0.699317-0.899122-0.699317-0.999025-0.599415-0.999024-1.098927-1.998049-1.298731-2.697366-2.497561-5.594536-0.999025-2.097951-0.599414-0.999025-0.599415-0.999024-16.583805-21.878634-2.297756-3.596488-1.998049-3.596488-2.397658-4.795317-4.595512-9.990244-0.79922-1.598439-1.698341-3.196878-0.599415-1.198829-0.299707-0.599415-0.199805-0.599415-0.199805-0.599414-0.199805-0.699317-0.099902-0.699317-0.099903-0.699317-0.199805-0.699318v-0.699317l0.099903-3.996097 0.399609-4.395707 0.599415-4.695415 0.899122-4.695415 1.098927-4.795317 1.298732-4.695414 1.498536-4.395708 0.79922-2.097951 0.799219-1.898146 0.899122-1.798244 0.899122-1.698342 0.79922-1.198829 0.799219-1.098927 1.598439-2.197853 4.595512-5.794342 2.197854-2.897171 1.498537-2.297756 0.699317-1.198829 0.699317-1.198829 0.599414-1.298732 0.499512-1.298732 1.798244-4.995122 1.498537-5.095024 1.298732-5.095024 4.395707-20.679805 1.298732-5.095025 1.598439-5.095024 0.199805-0.599415 0.699317-1.598439 0.999024-1.998049 2.597463-4.995121 8.291903-14.385952 9.390829-15.18517 5.494634-8.192 2.197854-3.096976 1.198829-1.498537 0.499512-0.599414 0.199805-0.199805v-0.199805l0.199805-0.199805 0.499512-0.39961 0.499513-0.399609 0.499512-0.299708 0.599414-0.299707 0.599415-0.299707 0.599415-0.299708 0.699317-0.299707 0.699317-0.299707 1.398634-0.499512 1.398634-0.39961 1.298732-0.199805 0.699317-0.099903 0.599415-0.099902h1.198829l8.192-0.39961 15.98439-1.398634 5.794342-0.39961 5.794341-0.099902 2.797268 0.099902 2.797269 0.199805 2.797268 0.299708 2.697366 0.399609 2.697366 0.599415 2.697365 0.699317 1.998049 0.699317 1.998049 0.79922 1.898146 0.799219 1.898147 0.999024 1.298731 0.699318 1.298732 0.799219 1.198829 0.79922 1.19883 0.899122 1.198829 0.899121 1.198829 0.999025 2.397659 2.197854 2.297756 2.497561 2.297756 2.797268 2.797268 6.793366 1.198829 1.698341 1.298732 1.598439 5.194927 6.393756 1.898146 2.497561 0.899122 1.398634 0.79922 1.398635 1.298732 2.297756 1.298731 1.998048 4.795317 6.593561 0.999025 1.498537 0.499512 0.799219 0.39961 0.79922 0.399609 0.799219 0.39961 0.899122 0.299707 0.699318 0.299708 0.699317 0.199805 0.699317 0.199805 0.799219 0.199804 0.999025 0.199805 1.098926 0.099903 1.19883 0.299707 1.098926 0.099902 1.298732v1.398634l-0.299707 9.790439-0.39961 5.095025-0.499512 4.995122-0.799219 4.895219-0.999025 4.695415-3.996097 14.286049-0.899122 3.69639-0.79922 3.69639-0.299707 2.497561-0.199805 2.397659v2.397658l0.099903 1.798244 0.199804 1.698342 0.299708 1.698341 0.399609 1.698341 0.499513 1.598439 0.599414 1.59844 0.599415 1.598439 0.699317 1.598439 1.598439 3.096975 1.698342 3.096976 4.795317 7.992195 2.297756 3.996097 7.79239 15.085269 3.996097 6.593561 2.097952 3.796292 0.599414 1.19883 0.499513 1.098927 0.399609 0.999024 0.199805 0.499512 0.099903 0.499512 0.099902 0.39961 0.199805 0.999024 0.199805 1.098927 0.199805 2.497561 0.099902 2.697366v4.395707l-0.299707 4.695415-0.599415 4.695415-0.39961 2.297756-0.499512 2.197853-0.799219 2.797269-0.499512 1.298731-0.499513 1.298732-0.499512 1.198829-0.599415 1.098927-0.599414 0.999025-0.299707 0.499512-0.299708 0.499512-0.299707 0.39961-0.299707 0.39961-0.999025 1.098926-1.098927 1.098927-1.198829 1.098927-1.298732 1.098927-2.797268 2.097951-5.894244 3.996098-11.48878 7.292878-10.589659 7.292878-2.797268 1.698341-2.797268 1.598439-2.897171 1.498537-1.498537 0.699317-1.498536 0.599415-1.798244 0.799219-1.498537 0.499512-5.394732 1.498537-5.494634 1.198829-22.278244 3.996098-20.380097 4.495609-4.295805 0.79922-1.598439 0.199805-0.899122 0.099902h-0.799219v-0.099902z m43.157853-161.941854v1.798244l0.099903 1.698341 0.399609 4.395708 0.099903 2.097951V495.516098l-0.099903 0.799219-0.099902 0.79922-0.099903 0.799219-0.099902 0.599415-0.199805 0.599414-0.199805 0.599415-0.199805 0.599415-0.299707 0.799219-0.39961 0.79922-0.399609 0.599414-0.499513 0.79922-0.599414 0.799219-0.699317 0.79922-0.099903 0.099902-0.099902 0.099903-0.099903 0.099902-0.099902 0.099903-0.099903 0.099902-0.199804 0.199805-0.299708 0.199805-0.699317 0.39961-0.799219 0.499512-3.296781 1.698341-9.191024 4.195903-34.166634 13.986341-7.792391 2.897171-2.197853 0.799219-12.088195 1.898147H40.060878v-0.79922l0.099902-0.799219 0.099903-0.79922 0.199805-0.799219 0.199805-0.79922 0.199805-0.799219 0.299707-0.79922 0.299707-0.799219 0.39961-0.79922 0.39961-0.799219 0.399609-0.79922 0.499513-0.699317 0.299707-0.499512 0.39961-0.39961 0.399609-0.39961 0.39961-0.399609 0.39961-0.39961 0.39961-0.299708 0.299707-0.199804 0.299707-0.199805 0.39961-0.199805 0.39961-0.199805 3.796293-0.599415v0.299708l0.099902 0.299707v0.199805l0.099902 0.199805 0.099903 0.199805 0.099902 0.199804 0.099903 0.099903 0.099902 0.099902 0.099903 0.099903 0.099902 0.099902 0.099903 0.099903 0.099902 0.099902 0.099902 0.099903 0.099903 0.099902 0.099902 0.099902 0.099903 0.099903 0.099902 0.099902 0.099903 0.099903h0.199804l0.199805 0.099902H54.346927l0.39961-0.099902 0.399609-0.099903 0.39961-0.099902 0.79922-0.199805 0.499512-0.199805 0.499512-0.199805 1.098927-0.499512 1.098927-0.599415 1.598439-0.899122 1.498536-0.999024 1.398634-0.999024 1.19883-0.899122 0.699317-0.599415 0.599414-0.499512 0.199805-0.199805 0.199805-0.199805 0.199805-0.199805 0.199805-0.199805 0.199805-0.199805 0.099902-0.199804 0.199805-0.299708 0.199805-0.299707 0.199805-0.299707 0.099902-0.39961 0.299708-0.79922 0.199804-0.799219 0.199805-0.79922 0.199805-0.799219 0.599415-3.296781 0.299707-1.598439 0.199805-0.799219 0.299707-0.699317 0.099903-0.299708 0.199805-0.299707 0.099902-0.199805 0.099903-0.199805 0.099902-0.199805 0.099902-0.199804 0.199805-0.299708 0.099903-0.099902 0.099902-0.099903 0.099903-0.099902 0.099902-0.099902 0.099903-0.099903 0.099902-0.099902 4.195902-3.096976 4.49561-2.997073 6.293854-3.69639 12.68761-6.593561 8.991219-4.795317 19.281171-7.192976 10.889366-4.595512 3.29678-1.598439 2.997073-1.598439 2.597464-1.598439 1.198829-0.79922 0.999024-0.799219 0.899122-0.79922 0.299708-0.299707 0.299707-0.299707 0.199805-0.299708 0.299707-0.299707 0.299708-0.39961 0.299707-0.499512 0.299707-0.499512 0.299707-0.499512 0.599415-1.098927 0.39961-0.899122 0.39961-0.899122 0.699317-1.898147 0.599414-1.898146 0.499513-1.898146 0.199804-1.198829 0.199805-1.098927V443.466927l0.499512-0.899122-0.199804-0.999025-0.299708-0.999024-0.499512-1.698341-0.699317-1.798244-0.699317-1.798244-0.899122-1.698342-0.899122-1.598439-0.499512-0.799219-0.499512-0.699317-0.699317-0.899122-0.39961-0.39961-0.39961-0.39961-0.39961-0.399609-0.399609-0.299708-0.299708-0.199805-0.299707-0.199805-0.299707-0.199804-0.299708-0.199805-0.199805-0.099903-0.199804-0.099902-0.199805-0.099903-0.199805-0.099902h-3.396683l-0.499512 0.099902-0.39961 0.099903-0.39961 0.099902-0.39961 0.099903-0.399609 0.199805-0.39961 0.099902-0.39961 0.199805-0.39961 0.199805-0.399609 0.199805-0.699317 0.499512-0.599415 0.499512-0.599415 0.499512-0.599414 0.499512-0.599415 0.499513-1.098927 1.098926-2.897171 3.196879-1.498536 1.498536-1.198829 1.098927-0.599415 0.499512-0.599415 0.499512-0.399609 0.299708-0.39961 0.299707-0.79922 0.499512-0.899122 0.39961-1.798244 0.799219-3.69639 1.498537-0.899122 0.39961-0.899122 0.499512-0.799219 0.499512-0.599415 0.39961-0.599415 0.499512-18.382048 15.185171-35.465366 32.268488-17.982439 13.786536-14.385951 17.18322-0.599415 1.198829-0.299707 0.599415-0.199805 0.599414-0.199805 0.599415-0.199805 0.599415-0.199805 0.599414-0.099902 0.599415-0.099903 0.599414-0.099902 0.599415-0.099903 0.599415v2.197853l0.099903 0.79922 0.099902 0.799219 0.099903 0.499513 0.099902 0.499512 0.099903 0.499512 0.299707 0.499512 0.199805 0.499512 0.199805 0.499513 0.499512 0.999024 0.499512 0.899122 0.599415 0.899122 0.699317 0.899122 0.699317 0.899122 0.799219 0.799219 0.79922 0.79922 1.198829 1.098927 1.198829 0.999024 1.298732 0.999024 1.298732 0.899122 1.398634 0.899122 1.398634 0.79922 5.894244 2.097951 0.199805 0.199805 0.199805 0.199805 0.199805 0.199805 0.099902 0.099902 0.099903 0.099903 0.099902 0.099902 0.099902 0.099902 0.099903 0.199805 0.099902 0.199805 0.099903 0.199805 0.099902 0.199805 0.099903 0.199805 0.099902 0.299707v1.798244l0.199805 3.796293 0.199805 1.998048 0.299707 2.097952 0.39961 2.097951 0.499512 2.097951 0.499512 1.598439 0.499512 1.498537 0.599415 1.498536 0.699317 1.398634 0.499512 0.899122 0.499513 0.899122 0.599414 0.79922 0.599415 0.799219 0.699317 0.79922 0.699317 0.699317 0.499512 0.499512 0.599415 0.499512 0.599414 0.39961 0.599415 0.39961 0.39961 0.199805 0.39961 0.199805 0.399609 0.199805 0.39961 0.199804 0.299707 0.099903 0.299708 0.099902 0.199805 0.099903 0.199804 0.099902h2.197854l2.497561-0.299707 0.699317-0.099903h0.79922l12.787512 0.79922h2.097951l2.197854-0.099903 4.595512-0.499512 4.695415-0.699317 4.695414-0.899122 8.691512-2.097951 16.583805-4.395707 6.793366-2.097951H133.869268l0.199805 0.099902h0.099903l0.099902 0.099902h0.099902l0.099903 0.099903 0.099902 0.099902 0.099903 0.099903 0.099902 0.099902 0.099903 0.099903 0.099902 0.099902 0.099903 0.099902 0.099902 0.099903 0.099902 0.099902V573.44l-0.099902 0.199805-0.099902 0.499512-0.099903 0.39961-0.199805 0.39961-0.39961 0.799219-0.399609 0.79922-0.699317 1.098926-0.699317 0.999025-1.298732 1.598439-3.296781 3.796293-3.096975 3.196878-2.897171 2.797268-2.097951 1.798244-2.097951 1.598439-0.999025 0.699317-0.999024 0.699317-1.098927 0.599415-0.999024 0.599414-1.098927 0.499512-1.098927 0.499513-1.098927 0.399609-1.098927 0.39961-1.498536 0.39961-1.598439 0.39961-1.598439 0.299707-1.698342 0.299707-2.397658 0.299708-2.497561 0.199804-3.596488 0.199805-8.092098 0.099903 0.099903 0.199805 0.099902 0.199805 0.199805 0.199804 0.199805 0.099903 0.199805 0.199805 0.199805 0.199805 0.199805 0.199804 0.299707 0.199805 0.299707 0.099903 0.299708 0.199805 0.599414 0.299707 0.599415 0.199805 0.599414 0.199805 3.696391 1.098927 4.895219 1.798243 1.298732 0.39961 1.298732 0.39961 1.298731 0.299707 0.699317 0.099903 0.699317 0.099902 0.699318 0.099903H106.89561l1.398634-0.099903 2.897171-0.299707 2.89717-0.499512 2.197854-0.499513 2.197854-0.499512 4.395707-1.298731 4.195902-1.498537 3.896196-1.598439 0.899122-0.39961 1.098926-0.599414 2.597464-1.498537 3.096975-1.898146 6.993171-4.695415 7.392781-5.394732 3.496585-2.797268 3.196878-2.797268 1.998049-1.798244 1.698341-1.798244 1.498537-1.698342 0.699317-0.799219 0.599415-0.79922 0.499512-0.799219 0.199805-0.39961 0.199804-0.39961 0.099903-0.299707 0.099902-0.39961 0.099903-0.299707 0.099902-0.299707 0.099903-0.199805v-8.092098l-0.099903-0.699317-0.099902-0.699317-0.099903-0.699317-0.199805-0.699317-0.199804-0.699317-0.199805-0.699317-0.299708-0.899122-0.399609-0.899122-0.39961-0.899122-0.499512-0.79922-0.699317-1.098926-0.699317-1.098927-0.79922-0.999025-0.899122-0.999024-0.899122-0.999024-0.999024-0.899122-1.598439-1.398634-1.698342-1.298732-1.498536-0.39961-1.898147-1.098927-1.898146-0.999024-1.998049-0.899122-1.998049-0.79922-2.097951-0.699317-2.097951-0.599414-2.097951-0.499513-2.097951-0.399609-2.097952-0.299708-1.998048-0.199804-1.998049-0.099903h-1.998049l-1.898146 0.099903-0.899122 0.099902-0.899122 0.099902-0.899122 0.199805-0.79922 0.199805-1.598439 0.499512-1.598439 0.599415-1.598439 0.599415-1.598439 0.699317-3.096975 1.598439-4.195903 2.297756-8.092097 4.995122-2.997074 1.798244-2.997073 1.598439-4.895219 2.297756-3.396683 1.398634-3.69639 1.398634-2.497561 0.79922-2.497561 0.699317-1.19883 0.299707-1.198829 0.199805-1.498537 0.199805H73.728l-0.299707-0.099903h-0.299708l-0.299707-0.099902-0.199805-0.099903-0.199805-0.099902-0.199805-0.099902-0.199804-0.099903-0.199805-0.099902h-0.099903l-0.099902-0.099903-0.099903-0.099902-0.099902-0.099903-0.099903-0.099902-0.099902-0.099903-0.099902-0.099902-0.099903-0.099902-0.099902-0.199805-0.099903-0.199805-0.099902-0.199805-0.099903-0.199805-0.099902-0.299707-0.099902-0.299708-0.099903-0.399609-0.099902-0.39961-0.199805-0.79922-0.199805-0.899122-0.099903-0.999024-0.099902-0.999024v-1.998049l0.099902-0.999024 0.099903-0.999025 0.199805-0.999024 0.199805-0.599415 0.199805-0.599415 0.199804-0.599414 0.199805-0.599415 0.299708-0.499512 0.099902-0.199805 0.099902-0.199805 0.199805-0.299707 0.299708-0.299707 0.099902-0.099903 0.099903-0.099902 0.099902-0.099903 0.099902-0.099902 0.39961-0.299707 0.39961-0.299708 0.799219-0.499512 0.499513-0.299707 0.599414-0.299708 1.19883-0.599414 1.198829-0.499512 1.898146-0.79922 1.998049-0.699317 5.194927-1.698341 2.397658-0.79922 21.578927-8.092098 5.494634-2.397658 5.29483-2.597463 3.396682-1.898147 3.196879-2.097951 1.498536-1.098927 1.498537-1.198829 2.097951-1.798244 0.999024-0.899122 0.999025-0.999024 5.594536-8.891317 1.098927-1.498537 0.499512-0.699317 0.199805-0.39961 0.199805-0.39961 0.099902-0.199805 0.099903-0.199804 0.099902-0.199805 0.099903-0.199805v-1.998049l-0.099903-0.299707v-0.199805l-0.099902-0.199805-0.099903-0.499512-0.199804-0.499512-0.099903-0.39961-0.199805-0.39961-0.399609-0.799219-0.299708-0.499513-0.299707-0.499512-0.699317-0.999024-0.79922-0.999025-1.398634-1.598439-1.498536-1.498536-1.598439-1.498537-1.698342-1.398634-1.698341-1.298732-1.598439-1.098926-1.498537-0.999025-1.398634-0.799219-0.599415-0.299708-0.699317-0.499512z m-10.889366-53.148097l-1.498536-9.890342-0.099903-2.097951-0.099902-0.999025-0.099903-0.999024-0.199804-0.999024-0.199805-0.999025-0.199805-0.699317-0.199805-0.699317-0.299707-0.699317-0.299708-0.699317-0.299707-0.499512-0.299707-0.499512-0.299708-0.499513-0.299707-0.499512-0.39961-0.499512-0.39961-0.499512-0.399609-0.499512-0.39961-0.499513-0.299707-0.299707-0.39961-0.299707-0.39961-0.299707-0.39961-0.199805-0.399609-0.199805-0.39961-0.199805-0.39961-0.199805-0.39961-0.199805-0.599414-0.199805-0.599415-0.199805-0.599415-0.099902-0.599414-0.099903-0.899122-0.099902h-2.697366l-0.999024 0.099902-0.999025 0.099903-1.498536 0.299707-1.498537 0.39961-1.598439 0.499512-1.898146 0.79922-1.498537 0.599414-1.498536 0.699317-1.498537 0.79922-1.498537 0.699317-1.398634 0.899122-1.398634 0.899122-1.298732 0.899122-1.198829 0.899122-1.498536 1.198829-1.298732 1.198829-0.599415 0.599415-0.499512 0.599415-0.39961 0.499512-0.39961 0.499512-0.299707 0.39961-0.299707 0.39961-0.699317 1.298731-0.699317 1.498537-0.79922 1.798244-1.798244 4.195902-3.796292 10.589659-5.794342 18.581853-4.895219 17.782634-2.197854 9.191025-0.599415 3.29678h0.39961l0.299707-0.099902 0.299708-0.099903 0.299707-0.199804 0.699317-0.39961 0.899122-0.499512 1.098927-0.79922 1.098927-0.799219 3.896195-2.997074 10.789463-9.990243 1.598439-7.592586 0.499512-2.597463 0.899122-5.694439 0.899122-5.894244 0.599415-2.897171 0.699317-2.797268 0.39961-1.398634 0.39961-1.298732 0.399609-1.298732 0.499513-1.198829 1.398634-3.196878 0.799219-1.698342 0.699317-1.298731 0.699317-1.198829 0.499513-0.79922 0.499512-0.699317 0.299707-0.299707 0.299707-0.299708 0.39961-0.399609 0.199805-0.199805 0.199805-0.199805 0.39961-0.299708 0.399609-0.299707 0.79922-0.599414 2.197854-1.398635 0.499512-0.299707 0.499512-0.39961 0.599415-0.499512 0.599414-0.499512 0.599415-0.599415 0.299707-0.299707 0.299707-0.299707 2.597464-2.997074 1.598439-1.698341 0.899122-0.79922 0.899122-0.699317 0.499512-0.299707 0.499512-0.299707 0.599415-0.39961 0.299707-0.199805 0.299707-0.099902 0.299708-0.099903 0.299707-0.099902 0.199805-0.099903 0.199805-0.099902 0.199805-0.099902H104.797659l0.199804 0.099902 0.199805 0.099902 0.199805 0.099903 0.199805 0.099902 0.199805 0.099903 0.099902 0.099902 0.099903 0.099903 0.099902 0.099902 0.099903 0.099902 0.199805 0.199805 0.199804 0.199805 0.099903 0.199805 0.099902 0.199805 0.199805 0.39961 0.099903 0.299707 0.099902 0.299707 0.299707 0.599415 0.299708 0.599415 0.399609 0.999024 0.299708 0.999024 0.899122 2.797269 0.499512 1.398634 0.39961 0.999024 0.399609 0.999025 0.199805 0.499512 0.199805 0.39961 0.199805 0.299707 0.199805 0.299707 0.199805 0.299708 0.199805 0.199804 0.199805 0.199805 0.199804 0.199805 0.199805 0.199805 0.199805 0.099902 0.199805 0.099903 0.199805 0.099902 0.299707 0.199805 0.299708 0.199805 0.199804 0.099903 0.099903 0.099902 0.199805 0.099902 0.799219-0.199804z" fill="#E30016"></path><path d="M271.434927 600.513561c-1.498537 0-2.897171-0.299707-4.195903-0.79922-1.298732-0.599415-2.497561-1.398634-3.596487-2.397658-0.999024-1.098927-1.798244-2.297756-2.397659-3.896195-0.599415-1.498537-0.899122-3.196878-0.899122-5.095025s0.299707-3.596488 0.899122-5.194926c0.599415-1.598439 1.398634-2.897171 2.497561-3.996098 0.999024-1.098927 2.297756-1.998049 3.69639-2.597463 1.398634-0.599415 2.897171-0.899122 4.595512-0.899122 1.198829 0 2.297756 0.099902 3.296781 0.399609 0.999024 0.299707 1.898146 0.699317 2.797268 1.19883l0.699317-1.098927h1.398634l0.199805 8.491707h-1.398634c-0.199805-0.79922-0.499512-1.698341-0.799219-2.697366-0.39961-0.999024-0.79922-1.798244-1.298732-2.497561-0.599415-0.79922-1.198829-1.398634-1.998049-1.798244-0.79922-0.39961-1.598439-0.699317-2.597463-0.699317-1.098927 0-2.097951 0.199805-3.096976 0.699317s-1.798244 1.198829-2.497561 2.097952c-0.699317 0.899122-1.198829 2.097951-1.598439 3.496585-0.39961 1.398634-0.599415 2.997073-0.599414 4.695415 0 1.498537 0.199805 2.897171 0.599414 4.195902s0.999024 2.397659 1.698342 3.396683 1.598439 1.698341 2.597463 2.197854 2.097951 0.79922 3.396683 0.799219c0.899122 0 1.798244-0.099902 2.597463-0.39961 0.79922-0.299707 1.498537-0.699317 1.998049-1.098926 0.599415-0.499512 1.098927-1.098927 1.498537-1.698342 0.39961-0.599415 0.79922-1.298732 1.098927-2.097951l1.298731 0.599415c-0.999024 2.397659-2.297756 4.096-3.896195 5.095024-1.798244 1.098927-3.796293 1.598439-5.994146 1.598439z m38.862049-1.098927h-9.990244v-1.198829c0.299707 0 0.699317-0.099902 1.198829-0.099903s0.899122-0.099902 1.098927-0.199804c0.299707-0.099902 0.599415-0.299707 0.699317-0.599415 0.199805-0.299707 0.199805-0.599415 0.199805-1.098927v-8.491707h-11.388878v8.291902c0 0.39961 0.099902 0.699317 0.199805 0.999025 0.099902 0.299707 0.39961 0.499512 0.799219 0.699317 0.199805 0.099902 0.499512 0.199805 0.999024 0.299707 0.499512 0.099902 0.899122 0.199805 1.19883 0.199805v1.198829h-9.990244v-1.198829c0.299707 0 0.699317-0.099902 1.198829-0.099903s0.899122-0.099902 1.098927-0.199804c0.299707-0.099902 0.599415-0.299707 0.699317-0.599415 0.199805-0.299707 0.199805-0.599415 0.199805-1.098927v-17.283122c0-0.39961-0.099902-0.699317-0.199805-0.999024-0.199805-0.299707-0.39961-0.499512-0.799219-0.699317-0.299707-0.099902-0.699317-0.299707-1.098927-0.39961-0.39961-0.099902-0.79922-0.199805-1.098927-0.199805V575.438049h9.990244v1.198829c-0.299707 0-0.699317 0.099902-1.19883 0.099902-0.499512 0.099902-0.79922 0.199805-0.999024 0.299708-0.39961 0.099902-0.599415 0.39961-0.799219 0.699317-0.099902 0.299707-0.199805 0.699317-0.199805 0.999024v7.392781h11.388878v-7.292878c0-0.39961-0.099902-0.699317-0.199805-0.999025-0.199805-0.299707-0.39961-0.499512-0.79922-0.699317-0.299707-0.099902-0.699317-0.299707-1.098926-0.39961-0.39961-0.099902-0.79922-0.199805-1.098927-0.199804v-1.19883h9.990244v1.19883c-0.299707 0-0.699317 0.099902-1.19883 0.099902-0.499512 0.099902-0.79922 0.199805-0.999024 0.299707-0.39961 0.099902-0.599415 0.39961-0.79922 0.699317-0.099902 0.299707-0.199805 0.699317-0.199804 0.999025v17.283122c0 0.39961 0.099902 0.699317 0.199804 0.999024s0.39961 0.499512 0.79922 0.699317c0.199805 0.099902 0.499512 0.199805 0.999024 0.299708s0.899122 0.199805 1.19883 0.199804v1.298732z m27.073561 0h-10.090147v-1.198829c0.899122-0.099902 1.598439-0.199805 2.197854-0.299707 0.599415-0.199805 0.899122-0.39961 0.899122-0.599415v-0.39961c0-0.099902-0.099902-0.299707-0.099903-0.39961l-1.998048-5.294829h-8.491708c-0.299707 0.79922-0.599415 1.398634-0.799219 1.998049-0.199805 0.599415-0.39961 1.098927-0.499512 1.598439s-0.299707 0.899122-0.299708 1.198829c-0.099902 0.299707-0.099902 0.499512-0.099902 0.699317 0 0.39961 0.39961 0.79922 1.098927 0.999025s1.498537 0.39961 2.397658 0.399609v1.19883h-9.091122v-1.19883c0.299707 0 0.699317-0.099902 1.098927-0.199804s0.79922-0.199805 1.098927-0.39961c0.499512-0.299707 0.79922-0.599415 1.098927-0.899122 0.299707-0.299707 0.499512-0.79922 0.699317-1.398634 1.198829-2.997073 2.597463-6.293854 3.996097-9.990244 1.498537-3.69639 2.797268-6.993171 3.896196-9.890342h1.398634l8.092097 20.380098c0.199805 0.39961 0.39961 0.79922 0.599415 1.098927s0.499512 0.499512 0.899122 0.799219c0.299707 0.199805 0.599415 0.299707 0.999024 0.39961 0.39961 0.099902 0.79922 0.199805 1.098927 0.199805v1.198829h-0.099902z m-9.39083-9.290927l-3.69639-9.390829-3.596488 9.390829h7.292878z m37.463415-12.387902c-0.299707 0-0.79922 0.099902-1.498537 0.299707-0.699317 0.199805-1.098927 0.299707-1.398634 0.499512-0.39961 0.299707-0.699317 0.79922-0.799219 1.598439-0.099902 0.79922-0.199805 1.798244-0.199805 2.997074v17.383024h-1.498537l-14.585756-19.381073v12.188097c0 1.398634 0.099902 2.397659 0.299707 3.196878 0.199805 0.699317 0.39961 1.298732 0.79922 1.598439 0.299707 0.199805 0.79922 0.499512 1.598439 0.699318 0.79922 0.199805 1.398634 0.299707 1.598439 0.299707v1.198829h-9.890341v-1.198829c0.299707 0 0.79922-0.099902 1.498536-0.299707 0.699317-0.199805 1.198829-0.39961 1.398634-0.499513 0.39961-0.299707 0.699317-0.79922 0.79922-1.398634 0.199805-0.599415 0.199805-1.698341 0.199805-3.29678v-11.688586c0-0.499512-0.099902-0.999024-0.299708-1.498536-0.199805-0.499512-0.39961-0.899122-0.699317-1.19883-0.39961-0.39961-0.999024-0.699317-1.698341-0.899121-0.699317-0.299707-1.298732-0.39961-1.698342-0.39961v-1.19883h6.893269l13.586731 18.082342v-11.288976c0-1.398634-0.099902-2.397659-0.299707-3.196878-0.199805-0.699317-0.39961-1.198829-0.799219-1.498536-0.299707-0.199805-0.79922-0.39961-1.598439-0.599415-0.699317-0.199805-1.298732-0.299707-1.59844-0.299707v-1.19883h9.79044v0.999025h0.099902z m27.073561 12.68761c-0.299707 0-0.599415 0.099902-1.098927 0.199805-0.499512 0.099902-0.79922 0.199805-1.098927 0.299707-0.299707 0.199805-0.599415 0.39961-0.699317 0.699317s-0.199805 0.699317-0.199805 1.098927v4.595512c0 0.499512 0 0.899122 0.099903 1.198829-1.498537 0.699317-2.997073 1.198829-4.595512 1.598439-1.498537 0.39961-2.997073 0.499512-4.49561 0.499512-1.598439 0-3.096976-0.299707-4.49561-0.899122-1.498537-0.599415-2.697366-1.398634-3.796293-2.397658-1.098927-1.098927-1.998049-2.397659-2.597463-3.896195s-0.999024-3.196878-0.999024-5.095025c0-1.798244 0.299707-3.496585 0.899122-5.095024 0.599415-1.598439 1.498537-2.897171 2.597463-4.096 1.098927-1.098927 2.397659-1.998049 3.896195-2.597463 1.498537-0.599415 3.096976-0.899122 4.795317-0.899122 1.398634 0 2.597463 0.199805 3.596488 0.499512s1.898146 0.699317 2.697366 1.198829l0.699317-1.098927h1.398634l0.199805 8.391805h-1.398634c-0.199805-0.899122-0.499512-1.798244-0.899122-2.697366-0.39961-0.899122-0.79922-1.698341-1.398634-2.397658-0.599415-0.699317-1.298732-1.298732-2.097952-1.698342-0.79922-0.39961-1.798244-0.599415-2.89717-0.599414-1.198829 0-2.297756 0.199805-3.296781 0.699317s-1.798244 1.198829-2.497561 2.197853c-0.699317 0.899122-1.198829 2.097951-1.598439 3.496586-0.39961 1.398634-0.599415 2.997073-0.599414 4.695414 0 1.498537 0.199805 2.897171 0.599414 4.295805 0.39961 1.298732 0.899122 2.497561 1.598439 3.496586s1.598439 1.798244 2.697366 2.397658 2.297756 0.899122 3.596488 0.899122c0.999024 0 1.898146-0.099902 2.797268-0.499512 0.79922-0.299707 1.398634-0.599415 1.798244-0.999024 0.099902-0.599415 0.099902-1.198829 0.099903-1.798244v-2.797269c0-0.499512-0.099902-0.899122-0.199805-1.298731s-0.39961-0.599415-0.79922-0.79922c-0.39961-0.199805-0.899122-0.299707-1.498536-0.39961-0.699317-0.099902-1.198829-0.099902-1.498537-0.199804V589.42439h10.689561v0.999025z m14.186146 10.090146c-1.498537 0-2.897171-0.299707-4.195902-0.79922-1.298732-0.599415-2.497561-1.398634-3.596488-2.397658-0.999024-1.098927-1.798244-2.297756-2.397659-3.896195-0.599415-1.498537-0.899122-3.196878-0.899121-5.095025s0.299707-3.596488 0.899121-5.194926c0.599415-1.598439 1.398634-2.897171 2.497561-3.996098 0.999024-1.098927 2.297756-1.998049 3.696391-2.597463 1.398634-0.599415 2.897171-0.899122 4.595512-0.899122 1.198829 0 2.297756 0.099902 3.29678 0.399609 0.999024 0.299707 1.898146 0.699317 2.797269 1.19883l0.699317-1.098927h1.398634l0.199805 8.491707H414.09561c-0.199805-0.79922-0.499512-1.698341-0.79922-2.697366-0.39961-0.999024-0.79922-1.798244-1.298731-2.497561-0.599415-0.79922-1.198829-1.398634-1.998049-1.798244-0.79922-0.39961-1.598439-0.699317-2.597464-0.699317-1.098927 0-2.097951 0.199805-3.096975 0.699317s-1.798244 1.198829-2.497561 2.097952c-0.699317 0.899122-1.198829 2.097951-1.598439 3.496585-0.39961 1.398634-0.599415 2.997073-0.599415 4.695415 0 1.498537 0.199805 2.897171 0.599415 4.195902s0.999024 2.397659 1.698341 3.396683 1.598439 1.698341 2.597464 2.197854 2.097951 0.79922 3.396683 0.799219c0.899122 0 1.798244-0.099902 2.597463-0.39961 0.79922-0.299707 1.498537-0.699317 1.998049-1.098926 0.599415-0.499512 1.098927-1.098927 1.498536-1.698342 0.39961-0.599415 0.79922-1.298732 1.098927-2.097951l1.298732 0.599415c-0.999024 2.397659-2.297756 4.096-3.896195 5.095024-1.598439 1.098927-3.496585 1.598439-5.794342 1.598439z m37.863025-1.098927h-9.990244v-1.198829c0.299707 0 0.699317-0.099902 1.198829-0.099903s0.899122-0.099902 1.098927-0.199804c0.299707-0.099902 0.599415-0.299707 0.699317-0.599415 0.199805-0.299707 0.199805-0.599415 0.199805-1.098927v-8.491707h-11.388878v8.291902c0 0.39961 0.099902 0.699317 0.199805 0.999025 0.099902 0.299707 0.39961 0.499512 0.799219 0.699317 0.199805 0.099902 0.499512 0.199805 0.999025 0.299707 0.499512 0.099902 0.899122 0.199805 1.198829 0.199805v1.198829h-9.990244v-1.198829c0.299707 0 0.699317-0.099902 1.198829-0.099903s0.899122-0.099902 1.098927-0.199804c0.299707-0.099902 0.599415-0.299707 0.699317-0.599415 0.199805-0.299707 0.199805-0.599415 0.199805-1.098927v-17.283122c0-0.39961-0.099902-0.699317-0.199805-0.999024-0.199805-0.299707-0.39961-0.499512-0.799219-0.699317-0.299707-0.099902-0.699317-0.299707-1.098927-0.39961-0.39961-0.099902-0.79922-0.199805-1.098927-0.199805V575.438049h9.990244v1.198829c-0.299707 0-0.699317 0.099902-1.198829 0.099902-0.499512 0.099902-0.79922 0.199805-0.999025 0.299708-0.39961 0.099902-0.599415 0.39961-0.799219 0.699317-0.099902 0.299707-0.199805 0.699317-0.199805 0.999024v7.392781h11.388878v-7.292878c0-0.39961-0.099902-0.699317-0.199805-0.999025-0.199805-0.299707-0.39961-0.499512-0.79922-0.699317-0.299707-0.099902-0.699317-0.299707-1.098926-0.39961-0.39961-0.099902-0.79922-0.199805-1.098927-0.199804v-1.19883h9.990244v1.19883c-0.299707 0-0.699317 0.099902-1.19883 0.099902-0.499512 0.099902-0.79922 0.199805-0.999024 0.299707-0.39961 0.099902-0.599415 0.39961-0.79922 0.699317-0.099902 0.299707-0.199805 0.699317-0.199804 0.999025v17.283122c0 0.39961 0.099902 0.699317 0.199804 0.999024s0.39961 0.499512 0.79922 0.699317c0.199805 0.099902 0.499512 0.199805 0.999024 0.299708s0.899122 0.199805 1.19883 0.199804v1.298732z m30.170536-21.678829c-0.299707 0-0.79922 0.099902-1.398634 0.199805s-1.098927 0.299707-1.498536 0.499512c-0.39961 0.299707-0.699317 0.79922-0.79922 1.598439-0.099902 0.79922-0.199805 1.798244-0.199805 2.897171v10.190048c0 1.298732-0.299707 2.397659-0.799219 3.396683-0.599415 0.999024-1.298732 1.698341-2.197854 2.397659-0.899122 0.599415-1.898146 0.999024-2.897171 1.298732s-1.998049 0.39961-2.897171 0.399609c-1.498537 0-2.797268-0.199805-3.896195-0.599414s-2.097951-0.899122-2.89717-1.498537-1.298732-1.298732-1.698342-2.097951c-0.39961-0.79922-0.599415-1.598439-0.599414-2.497561v-13.786537c0-0.39961-0.099902-0.699317-0.199805-0.999024-0.099902-0.299707-0.39961-0.499512-0.79922-0.699317-0.299707-0.199805-0.699317-0.299707-1.098927-0.39961s-0.79922-0.199805-1.098927-0.199805v-1.198829h10.090147v1.198829c-0.299707 0-0.699317 0.099902-1.198829 0.099903-0.499512 0.099902-0.79922 0.199805-1.098927 0.199805-0.39961 0.099902-0.599415 0.39961-0.79922 0.699317-0.099902 0.299707-0.199805 0.599415-0.199805 0.999024v12.887415c0 0.599415 0.099902 1.298732 0.199805 1.998049s0.39961 1.298732 0.79922 1.898146c0.39961 0.599415 1.098927 1.098927 1.798244 1.498536 0.79922 0.39961 1.798244 0.599415 3.196878 0.599415 1.298732 0 2.297756-0.199805 3.196878-0.599415 0.899122-0.39961 1.498537-0.899122 1.998049-1.498536s0.79922-1.198829 0.999024-1.898146c0.199805-0.599415 0.299707-1.298732 0.299707-1.998049v-9.590634c0-1.198829-0.099902-2.197854-0.299707-2.997074-0.199805-0.79922-0.499512-1.298732-0.79922-1.498536-0.39961-0.299707-0.899122-0.499512-1.598439-0.599415-0.699317-0.199805-1.198829-0.199805-1.598439-0.299707v-1.198829h9.890342v1.198829h0.099902z m28.072586 0c-0.299707 0-0.79922 0.099902-1.498537 0.299707-0.699317 0.199805-1.098927 0.299707-1.398634 0.499512-0.39961 0.299707-0.699317 0.79922-0.79922 1.598439-0.099902 0.79922-0.199805 1.798244-0.199805 2.997074v17.383024h-1.498536l-14.585756-19.381073v12.188097c0 1.398634 0.099902 2.397659 0.299707 3.196878 0.199805 0.699317 0.39961 1.298732 0.79922 1.598439 0.299707 0.199805 0.79922 0.499512 1.598439 0.699318 0.79922 0.199805 1.398634 0.299707 1.598439 0.299707v1.198829h-9.890342v-1.198829c0.299707 0 0.79922-0.099902 1.498537-0.299707 0.699317-0.199805 1.198829-0.39961 1.398634-0.499513 0.39961-0.299707 0.699317-0.79922 0.799219-1.398634 0.199805-0.599415 0.199805-1.698341 0.199805-3.29678v-11.688586c0-0.499512-0.099902-0.999024-0.299707-1.498536-0.199805-0.499512-0.39961-0.899122-0.699317-1.19883-0.39961-0.39961-0.999024-0.699317-1.698342-0.899121-0.699317-0.299707-1.298732-0.39961-1.698341-0.39961v-1.19883h6.893268l13.586732 18.082342v-11.288976c0-1.398634-0.099902-2.397659-0.299707-3.196878-0.199805-0.699317-0.39961-1.198829-0.79922-1.498536-0.299707-0.199805-0.79922-0.39961-1.598439-0.599415-0.699317-0.199805-1.298732-0.299707-1.598439-0.299707v-1.19883h9.790439v0.999025h0.099903z m37.463414 21.678829h-6.593561c-1.498537-2.197854-2.797268-4.195902-3.996097-5.794341-1.198829-1.598439-2.497561-3.29678-3.896195-4.995122h-2.497561v7.592585c0 0.39961 0.099902 0.699317 0.199804 0.999024 0.099902 0.299707 0.39961 0.499512 0.79922 0.699318 0.199805 0.099902 0.599415 0.199805 1.098927 0.199804 0.499512 0.099902 0.999024 0.099902 1.298732 0.099903v1.198829h-10.389854v-1.198829c0.299707 0 0.699317-0.099902 1.198829-0.099903 0.499512-0.099902 0.899122-0.099902 1.098927-0.199804 0.299707-0.099902 0.599415-0.39961 0.799219-0.599415 0.199805-0.299707 0.199805-0.599415 0.199805-1.098927v-17.283122c0-0.39961-0.099902-0.699317-0.199805-0.999024-0.099902-0.299707-0.39961-0.499512-0.799219-0.699317-0.299707-0.099902-0.699317-0.199805-1.098927-0.299708-0.499512-0.099902-0.899122-0.099902-1.198829-0.199805v-1.198829h11.388878c0.999024 0 1.998049 0.099902 2.897171 0.299708 0.899122 0.199805 1.698341 0.499512 2.497561 0.999024 0.699317 0.39961 1.298732 0.999024 1.698341 1.798244 0.39961 0.699317 0.599415 1.598439 0.599415 2.597463 0 0.899122-0.099902 1.698341-0.39961 2.397659-0.299707 0.699317-0.699317 1.298732-1.298732 1.798244-0.499512 0.499512-1.098927 0.899122-1.898146 1.298731-0.699317 0.39961-1.498537 0.699317-2.397659 0.899122 1.198829 1.598439 2.197854 2.897171 2.997074 3.996098 0.79922 1.098927 1.798244 2.397659 2.997073 3.896195 0.499512 0.699317 0.999024 1.198829 1.398634 1.498537 0.39961 0.299707 0.79922 0.599415 1.198829 0.799219 0.299707 0.099902 0.699317 0.299707 1.098927 0.299707 0.39961 0.099902 0.79922 0.099902 1.098927 0.099903v1.198829h0.099902z m-9.390829-17.083317c0-1.498537-0.39961-2.597463-1.198829-3.496585-0.79922-0.899122-1.898146-1.298732-3.396683-1.298732h-2.697366v10.389854h2.097951c1.498537 0 2.697366-0.499512 3.69639-1.498537s1.498537-2.297756 1.498537-4.096z m36.46439-4.595512c-0.299707 0-0.79922 0.099902-1.398634 0.199805-0.599415 0.099902-1.098927 0.299707-1.498537 0.499512-0.39961 0.299707-0.699317 0.79922-0.799219 1.598439-0.099902 0.79922-0.199805 1.798244-0.199805 2.897171v10.190048c0 1.298732-0.299707 2.397659-0.799219 3.396683-0.599415 0.999024-1.298732 1.698341-2.197854 2.397659-0.899122 0.599415-1.898146 0.999024-2.897171 1.298732s-1.998049 0.39961-2.897171 0.399609c-1.498537 0-2.797268-0.199805-3.896195-0.599414-1.098927-0.39961-2.097951-0.899122-2.89717-1.498537-0.79922-0.599415-1.298732-1.298732-1.698342-2.097951-0.39961-0.79922-0.599415-1.598439-0.599414-2.497561v-13.786537c0-0.39961-0.099902-0.699317-0.199805-0.999024-0.099902-0.299707-0.39961-0.499512-0.79922-0.699317-0.299707-0.199805-0.699317-0.299707-1.098927-0.39961-0.39961-0.099902-0.79922-0.199805-1.098927-0.199805v-1.198829h10.090147v1.198829c-0.299707 0-0.699317 0.099902-1.198829 0.099903-0.499512 0.099902-0.79922 0.199805-1.098927 0.199805-0.39961 0.099902-0.599415 0.39961-0.79922 0.699317-0.099902 0.299707-0.199805 0.599415-0.199805 0.999024v12.887415c0 0.599415 0.099902 1.298732 0.199805 1.998049s0.39961 1.298732 0.79922 1.898146c0.39961 0.599415 1.098927 1.098927 1.798244 1.498536 0.79922 0.39961 1.798244 0.599415 3.196878 0.599415 1.298732 0 2.297756-0.199805 3.196878-0.599415 0.899122-0.39961 1.498537-0.899122 1.998048-1.498536s0.79922-1.198829 0.999025-1.898146c0.199805-0.599415 0.299707-1.298732 0.299707-1.998049v-9.590634c0-1.198829-0.099902-2.197854-0.299707-2.997074-0.199805-0.79922-0.499512-1.298732-0.79922-1.498536-0.39961-0.299707-0.899122-0.499512-1.598439-0.599415-0.699317-0.199805-1.198829-0.199805-1.598439-0.299707v-1.198829h9.890342l0.099902 1.198829z m27.073561 21.678829h-6.593561c-1.498537-2.197854-2.797268-4.195902-3.996097-5.794341-1.198829-1.598439-2.497561-3.29678-3.896195-4.995122h-2.497561v7.592585c0 0.39961 0.099902 0.699317 0.199804 0.999024 0.099902 0.299707 0.39961 0.499512 0.79922 0.699318 0.199805 0.099902 0.599415 0.199805 1.098927 0.199804 0.499512 0.099902 0.999024 0.099902 1.298731 0.099903v1.198829h-10.389853v-1.198829c0.299707 0 0.699317-0.099902 1.198829-0.099903 0.499512-0.099902 0.899122-0.099902 1.098927-0.199804 0.299707-0.099902 0.599415-0.39961 0.799219-0.599415 0.199805-0.299707 0.199805-0.599415 0.199805-1.098927v-17.283122c0-0.39961-0.099902-0.699317-0.199805-0.999024-0.099902-0.299707-0.39961-0.499512-0.799219-0.699317-0.299707-0.099902-0.699317-0.199805-1.098927-0.299708-0.499512-0.099902-0.899122-0.099902-1.198829-0.199805v-1.198829h11.388878c0.999024 0 1.998049 0.099902 2.897171 0.299708 0.899122 0.199805 1.698341 0.499512 2.497561 0.999024 0.699317 0.39961 1.298732 0.999024 1.698341 1.798244 0.39961 0.699317 0.599415 1.598439 0.599415 2.597463 0 0.899122-0.099902 1.698341-0.39961 2.397659-0.299707 0.699317-0.699317 1.298732-1.298732 1.798244-0.499512 0.499512-1.098927 0.899122-1.898146 1.298731-0.699317 0.39961-1.498537 0.699317-2.397659 0.899122 1.198829 1.598439 2.197854 2.897171 2.997074 3.996098 0.79922 1.098927 1.798244 2.397659 2.997073 3.896195 0.499512 0.699317 0.999024 1.198829 1.398634 1.498537 0.39961 0.299707 0.79922 0.599415 1.198829 0.799219 0.299707 0.099902 0.699317 0.299707 1.098927 0.299707 0.39961 0.099902 0.79922 0.099902 1.098927 0.099903v1.198829h0.099902z m-9.390829-17.083317c0-1.498537-0.39961-2.597463-1.198829-3.496585-0.79922-0.899122-1.898146-1.298732-3.396683-1.298732h-2.697366v10.389854h2.097951c1.498537 0 2.697366-0.499512 3.69639-1.498537s1.498537-2.297756 1.498537-4.096z m34.366439 17.083317h-10.090146v-1.198829c0.899122-0.099902 1.598439-0.199805 2.197853-0.299707 0.599415-0.199805 0.899122-0.39961 0.899122-0.599415v-0.39961c0-0.099902-0.099902-0.299707-0.099902-0.39961l-1.998049-5.294829h-8.491707c-0.299707 0.79922-0.599415 1.398634-0.79922 1.998049-0.199805 0.599415-0.39961 1.098927-0.499512 1.598439s-0.299707 0.899122-0.299707 1.198829c-0.099902 0.299707-0.099902 0.499512-0.099903 0.699317 0 0.39961 0.39961 0.79922 1.098927 0.999025 0.699317 0.199805 1.498537 0.39961 2.397659 0.399609v1.19883h-9.091122v-1.19883c0.299707 0 0.699317-0.099902 1.098926-0.199804 0.39961-0.099902 0.79922-0.199805 1.098927-0.39961 0.499512-0.299707 0.79922-0.599415 1.098927-0.899122s0.499512-0.79922 0.699317-1.398634c1.198829-2.997073 2.597463-6.293854 3.996098-9.990244 1.498537-3.69639 2.797268-6.993171 3.896195-9.890342h1.398634l8.092098 20.380098c0.199805 0.39961 0.39961 0.79922 0.599414 1.098927 0.199805 0.299707 0.499512 0.499512 0.899122 0.799219 0.299707 0.199805 0.599415 0.299707 0.999025 0.39961 0.39961 0.099902 0.79922 0.199805 1.098926 0.199805v1.198829h-0.099902z m-9.390829-9.290927l-3.696391-9.390829-3.596487 9.390829h7.292878z m32.268487 2.197854l-0.499512 7.093073h-19.28117v-1.198829c0.299707 0 0.699317-0.099902 1.198829-0.099903 0.499512-0.099902 0.899122-0.099902 1.098927-0.199804 0.299707-0.099902 0.599415-0.39961 0.799219-0.599415 0.199805-0.299707 0.199805-0.599415 0.199805-1.098927v-17.183219c0-0.39961-0.099902-0.699317-0.199805-0.999025-0.099902-0.299707-0.39961-0.499512-0.799219-0.699317-0.299707-0.099902-0.599415-0.299707-1.098927-0.39961s-0.899122-0.199805-1.198829-0.199805v-1.198829H632.881951v1.198829c-0.299707 0-0.699317 0.099902-1.298731 0.199805-0.499512 0.099902-0.899122 0.199805-1.098927 0.299708-0.39961 0.099902-0.699317 0.39961-0.79922 0.699317s-0.199805 0.699317-0.199805 0.999024v16.084293c0 0.699317 0 1.298732 0.099903 1.698341 0.099902 0.39961 0.199805 0.699317 0.499512 0.999025 0.299707 0.199805 0.699317 0.299707 1.198829 0.399609 0.499512 0.099902 1.298732 0.099902 2.197854 0.099903h1.298732c0.499512 0 0.899122-0.099902 1.298731-0.099903 0.39961-0.099902 0.79922-0.199805 1.098927-0.299707 0.299707-0.099902 0.599415-0.299707 0.79922-0.39961 0.499512-0.499512 0.999024-1.298732 1.698341-2.397658 0.599415-1.098927 1.098927-1.898146 1.298732-2.597464l1.298731-0.099902z m23.576976 8.192c-1.498537 0-2.897171-0.299707-4.195902-0.79922-1.298732-0.599415-2.497561-1.398634-3.596488-2.397658-0.999024-1.098927-1.798244-2.297756-2.397659-3.896195-0.599415-1.498537-0.899122-3.196878-0.899122-5.095025s0.299707-3.596488 0.899122-5.194926c0.599415-1.598439 1.398634-2.897171 2.497561-3.996098 0.999024-1.098927 2.297756-1.998049 3.696391-2.597463 1.398634-0.599415 2.897171-0.899122 4.595512-0.899122 1.198829 0 2.297756 0.099902 3.29678 0.399609 0.999024 0.299707 1.898146 0.699317 2.797269 1.19883l0.699317-1.098927h1.398634l0.199805 8.491707h-1.398635c-0.199805-0.79922-0.499512-1.698341-0.799219-2.697366-0.39961-0.999024-0.79922-1.798244-1.298732-2.497561-0.599415-0.79922-1.198829-1.398634-1.998049-1.798244-0.79922-0.39961-1.598439-0.699317-2.597463-0.699317-1.098927 0-2.097951 0.199805-3.096976 0.699317s-1.798244 1.198829-2.497561 2.097952c-0.699317 0.899122-1.198829 2.097951-1.598439 3.496585-0.39961 1.398634-0.599415 2.997073-0.599414 4.695415 0 1.498537 0.199805 2.897171 0.599414 4.195902 0.39961 1.298732 0.999024 2.397659 1.698342 3.396683s1.598439 1.698341 2.597463 2.197854 2.097951 0.79922 3.396683 0.799219c0.899122 0 1.798244-0.099902 2.597464-0.39961s1.498537-0.699317 1.998048-1.098926c0.599415-0.499512 1.098927-1.098927 1.498537-1.698342 0.39961-0.599415 0.79922-1.298732 1.098927-2.097951l1.298732 0.599415c-0.999024 2.397659-2.297756 4.096-3.896196 5.095024-1.798244 1.098927-3.796293 1.598439-5.994146 1.598439z m32.36839-21.578927c0.999024 1.098927 1.898146 2.397659 2.497561 3.996098 0.599415 1.498537 0.899122 3.29678 0.899122 5.194927 0 1.898146-0.299707 3.596488-0.899122 5.194926-0.599415 1.498537-1.398634 2.897171-2.497561 3.996098-0.999024 1.098927-2.297756 1.898146-3.596487 2.497561-1.398634 0.599415-2.797268 0.899122-4.395708 0.899122-1.698341 0-3.196878-0.299707-4.595512-0.899122-1.398634-0.599415-2.597463-1.498537-3.596488-2.597464s-1.798244-2.397659-2.397658-3.996097c-0.599415-1.498537-0.899122-3.196878-0.899122-4.995122 0-1.898146 0.299707-3.69639 0.899122-5.194927 0.599415-1.498537 1.398634-2.797268 2.497561-3.896195s2.297756-1.898146 3.69639-2.497561c1.398634-0.599415 2.897171-0.899122 4.395707-0.899122 1.598439 0 3.096976 0.299707 4.49561 0.899122 1.298732 0.39961 2.497561 1.198829 3.496585 2.297756z m-2.597463 16.284098c0.599415-0.999024 1.098927-2.197854 1.398634-3.396683 0.299707-1.298732 0.39961-2.697366 0.39961-4.295805 0-1.598439-0.199805-3.096976-0.499512-4.49561s-0.79922-2.497561-1.398635-3.496585c-0.599415-0.899122-1.398634-1.698341-2.297756-2.197854-0.899122-0.499512-1.998049-0.79922-3.196878-0.799219-1.298732 0-2.397659 0.299707-3.396683 0.899122-0.899122 0.599415-1.698341 1.398634-2.297756 2.497561-0.499512 0.999024-0.999024 2.097951-1.198829 3.396682-0.299707 1.298732-0.39961 2.697366-0.39961 4.096 0 1.598439 0.099902 3.096976 0.39961 4.295805 0.299707 1.298732 0.699317 2.397659 1.398634 3.396683 0.599415 0.999024 1.298732 1.698341 2.297756 2.297756 0.899122 0.599415 1.998049 0.79922 3.196878 0.79922s2.297756-0.299707 3.196878-0.79922c1.098927-0.39961 1.798244-1.198829 2.397659-2.197853z m40.260683 4.195902h-10.789464v-1.198829c0.39961 0 0.899122-0.099902 1.498537-0.099903 0.599415-0.099902 0.999024-0.199805 1.298732-0.299707 0.39961-0.199805 0.599415-0.499512 0.799219-0.699317 0.199805-0.299707 0.299707-0.599415 0.299708-0.999024v-17.383025h-0.299708l-8.291902 20.380098h-0.899122l-7.892293-20.779707h-0.199805v14.286048c0 1.398634 0.099902 2.397659 0.299708 3.196878 0.199805 0.699317 0.499512 1.198829 0.799219 1.598439 0.299707 0.199805 0.79922 0.499512 1.598439 0.699317s1.298732 0.299707 1.498537 0.299708v1.198829H705.810732V598.41561c0.499512 0 1.098927-0.099902 1.598439-0.299708 0.599415-0.099902 0.999024-0.299707 1.298731-0.599414 0.39961-0.299707 0.699317-0.79922 0.79922-1.498537 0.199805-0.699317 0.199805-1.698341 0.199805-3.29678V580.433171c0-0.699317-0.099902-1.298732-0.299707-1.698342-0.199805-0.39961-0.39961-0.79922-0.699318-1.098927-0.39961-0.299707-0.79922-0.499512-1.298731-0.699317l-1.498537-0.299707V575.438049h8.291903l6.99317 17.982439 5.994147-14.985366c0.199805-0.599415 0.39961-1.098927 0.599414-1.698342 0.199805-0.599415 0.199805-0.999024 0.299708-1.198829h7.992195v1.198829c-0.299707 0-0.699317 0.099902-1.19883 0.099903-0.499512 0.099902-0.899122 0.199805-1.098926 0.299707-0.39961 0.099902-0.699317 0.39961-0.79922 0.699317-0.099902 0.299707-0.199805 0.699317-0.199805 0.999025v17.283122c0 0.39961 0.099902 0.699317 0.199805 0.999024 0.099902 0.299707 0.39961 0.499512 0.79922 0.699317 0.199805 0.099902 0.599415 0.199805 1.098926 0.299707s0.899122 0.099902 1.298732 0.199805v1.098927h-0.299707z m33.367414 0h-10.789463v-1.198829c0.39961 0 0.899122-0.099902 1.498537-0.099903 0.599415-0.099902 0.999024-0.199805 1.298731-0.299707 0.39961-0.199805 0.599415-0.499512 0.79922-0.699317 0.199805-0.299707 0.299707-0.599415 0.299707-0.999024v-17.383025h-0.299707l-8.291903 20.380098h-0.899122l-7.892292-20.779707h-0.199805v14.286048c0 1.398634 0.099902 2.397659 0.299707 3.196878 0.199805 0.699317 0.499512 1.198829 0.79922 1.598439 0.299707 0.199805 0.79922 0.499512 1.598439 0.699317s1.298732 0.299707 1.498536 0.299708v1.198829h-9.790439V598.41561c0.499512 0 1.098927-0.099902 1.598439-0.299708 0.599415-0.099902 0.999024-0.299707 1.298732-0.599414 0.39961-0.299707 0.699317-0.79922 0.79922-1.498537 0.199805-0.699317 0.199805-1.698341 0.199804-3.29678V580.433171c0-0.699317-0.099902-1.298732-0.299707-1.698342-0.199805-0.39961-0.39961-0.79922-0.699317-1.098927-0.39961-0.299707-0.79922-0.499512-1.298732-0.699317l-1.498536-0.299707V575.438049h8.291902l6.993171 17.982439 5.994146-14.985366c0.199805-0.599415 0.39961-1.098927 0.599415-1.698342 0.199805-0.599415 0.199805-0.999024 0.299707-1.198829h7.992195v1.198829c-0.299707 0-0.699317 0.099902-1.198829 0.099903-0.499512 0.099902-0.899122 0.199805-1.098927 0.299707-0.39961 0.099902-0.699317 0.39961-0.799219 0.699317-0.099902 0.299707-0.199805 0.699317-0.199805 0.999025v17.283122c0 0.39961 0.099902 0.699317 0.199805 0.999024 0.099902 0.299707 0.39961 0.499512 0.799219 0.699317 0.199805 0.099902 0.599415 0.199805 1.098927 0.299707s0.899122 0.099902 1.298732 0.199805v1.098927h-0.299708z m24.97561-6.993171l-0.499512 6.993171h-20.380098v-1.198829c0.299707 0 0.79922-0.099902 1.398635-0.099903 0.599415-0.099902 0.999024-0.099902 1.098926-0.199804 0.39961-0.199805 0.599415-0.39961 0.79922-0.699318 0.099902-0.299707 0.199805-0.599415 0.199805-0.999024v-17.183219c0-0.39961-0.099902-0.699317-0.199805-0.999025-0.099902-0.299707-0.39961-0.499512-0.79922-0.699317-0.299707-0.099902-0.699317-0.299707-1.298731-0.39961-0.499512-0.099902-0.899122-0.199805-1.298732-0.199805v-1.198829h18.981463v5.794342h-1.298731c-0.199805-0.899122-0.699317-1.798244-1.498537-2.697366-0.79922-0.999024-1.498537-1.498537-2.197853-1.598439-0.39961 0-0.79922-0.099902-1.298732-0.099903h-5.594537v9.490732h2.797269c0.899122 0 1.498537-0.099902 1.898146-0.199805 0.39961-0.199805 0.79922-0.39961 1.098927-0.799219 0.299707-0.299707 0.499512-0.79922 0.599414-1.298732 0.199805-0.499512 0.299707-1.098927 0.39961-1.498537h1.298732v9.39083h-1.298732c0-0.499512-0.199805-1.098927-0.39961-1.698342-0.199805-0.599415-0.39961-0.999024-0.599414-1.298732-0.39961-0.39961-0.79922-0.699317-1.19883-0.899121-0.499512-0.099902-1.098927-0.199805-1.798243-0.199805h-2.797269v7.192975c0 0.699317 0.099902 1.298732 0.199805 1.698342 0.099902 0.39961 0.299707 0.699317 0.599415 0.899122s0.699317 0.39961 1.198829 0.399609c0.499512 0.099902 1.298732 0.099902 2.197854 0.099903h1.498536c0.599415 0 1.098927 0 1.598439-0.099903 0.39961 0 0.899122-0.099902 1.398634-0.199804s0.79922-0.299707 0.999025-0.499513c0.499512-0.499512 1.098927-1.398634 1.698341-2.497561 0.599415-1.098927 0.999024-1.898146 1.098927-2.397658l1.398634-0.099903z m28.072586 6.993171H815.703415c-1.498537-2.197854-2.797268-4.195902-3.996098-5.794341-1.198829-1.598439-2.497561-3.29678-3.896195-4.995122h-2.497561v7.592585c0 0.39961 0.099902 0.699317 0.199805 0.999024 0.099902 0.299707 0.39961 0.499512 0.799219 0.699318 0.199805 0.099902 0.599415 0.199805 1.098927 0.199804 0.499512 0.099902 0.999024 0.099902 1.298732 0.099903v1.198829h-10.389854v-1.198829c0.299707 0 0.699317-0.099902 1.19883-0.099903 0.499512-0.099902 0.899122-0.099902 1.098926-0.199804 0.299707-0.099902 0.599415-0.39961 0.79922-0.599415 0.199805-0.299707 0.199805-0.599415 0.199805-1.098927v-17.283122c0-0.39961-0.099902-0.699317-0.199805-0.999024-0.099902-0.299707-0.39961-0.499512-0.79922-0.699317-0.299707-0.099902-0.699317-0.199805-1.098926-0.299708-0.499512-0.099902-0.899122-0.099902-1.19883-0.199805v-1.198829H809.709268c0.999024 0 1.998049 0.099902 2.897171 0.299708 0.899122 0.199805 1.698341 0.499512 2.497561 0.999024 0.699317 0.39961 1.298732 0.999024 1.698341 1.798244 0.39961 0.699317 0.599415 1.598439 0.599415 2.597463 0 0.899122-0.099902 1.698341-0.39961 2.397659-0.299707 0.699317-0.699317 1.298732-1.298731 1.798244-0.499512 0.499512-1.098927 0.899122-1.898147 1.298731-0.699317 0.39961-1.498537 0.699317-2.397658 0.899122 1.198829 1.598439 2.197854 2.897171 2.997073 3.996098 0.79922 1.098927 1.798244 2.397659 2.997073 3.896195 0.499512 0.699317 0.999024 1.198829 1.398634 1.498537 0.39961 0.299707 0.79922 0.599415 1.19883 0.799219 0.299707 0.099902 0.699317 0.299707 1.098926 0.299707 0.39961 0.099902 0.79922 0.099902 1.098927 0.099903v1.198829h0.099903z m-9.39083-17.083317c0-1.498537-0.39961-2.597463-1.198829-3.496585-0.79922-0.899122-1.898146-1.298732-3.396683-1.298732h-2.697366v10.389854h2.097952c1.498537 0 2.697366-0.499512 3.69639-1.498537s1.498537-2.297756 1.498536-4.096z m22.577952 18.182244c-1.498537 0-2.897171-0.299707-4.195903-0.79922-1.298732-0.599415-2.497561-1.398634-3.596488-2.397658-0.999024-1.098927-1.798244-2.297756-2.397658-3.896195-0.599415-1.498537-0.899122-3.196878-0.899122-5.095025s0.299707-3.596488 0.899122-5.194926c0.599415-1.598439 1.398634-2.897171 2.497561-3.996098 0.999024-1.098927 2.297756-1.998049 3.69639-2.597463 1.398634-0.599415 2.897171-0.899122 4.595512-0.899122 1.198829 0 2.297756 0.099902 3.296781 0.399609 0.999024 0.299707 1.898146 0.699317 2.797268 1.19883l0.699317-1.098927h1.398634l0.199805 8.491707h-1.398634c-0.199805-0.79922-0.499512-1.698341-0.79922-2.697366-0.39961-0.999024-0.79922-1.798244-1.298731-2.497561-0.599415-0.79922-1.198829-1.398634-1.998049-1.798244-0.79922-0.39961-1.598439-0.699317-2.597463-0.699317-1.098927 0-2.097951 0.199805-3.096976 0.699317s-1.798244 1.198829-2.497561 2.097952c-0.699317 0.899122-1.198829 2.097951-1.598439 3.496585-0.39961 1.398634-0.599415 2.997073-0.599415 4.695415 0 1.498537 0.199805 2.897171 0.599415 4.195902 0.39961 1.298732 0.999024 2.397659 1.698341 3.396683s1.598439 1.698341 2.597464 2.197854 2.097951 0.79922 3.396683 0.799219c0.899122 0 1.798244-0.099902 2.597463-0.39961s1.498537-0.699317 1.998049-1.098926c0.599415-0.499512 1.098927-1.098927 1.498536-1.698342 0.39961-0.599415 0.79922-1.298732 1.098927-2.097951l1.298732 0.599415c-0.999024 2.397659-2.297756 4.096-3.896195 5.095024-1.798244 1.098927-3.796293 1.598439-5.994146 1.598439z m23.277268-1.098927h-10.389854v-1.198829c0.299707 0 0.699317-0.099902 1.298732-0.099903s0.899122-0.099902 1.198829-0.199804c0.39961-0.099902 0.599415-0.299707 0.79922-0.599415 0.199805-0.299707 0.199805-0.599415 0.199805-1.098927v-17.383024c0-0.39961-0.099902-0.699317-0.199805-0.999025-0.099902-0.299707-0.39961-0.499512-0.79922-0.699317-0.299707-0.099902-0.699317-0.299707-1.198829-0.39961-0.499512-0.099902-0.899122-0.199805-1.198829-0.199804v-1.19883h10.389853v1.19883c-0.299707 0-0.699317 0.099902-1.198829 0.099902-0.499512 0.099902-0.899122 0.199805-1.198829 0.299707-0.39961 0.099902-0.699317 0.39961-0.79922 0.699317s-0.199805 0.599415-0.199805 0.999025v17.283122c0 0.39961 0.099902 0.699317 0.199805 0.999024 0.199805 0.299707 0.39961 0.499512 0.79922 0.699317 0.199805 0.099902 0.599415 0.199805 1.098927 0.299708 0.499512 0.099902 0.999024 0.199805 1.298731 0.199804l-0.099902 1.298732z m28.072585 0h-10.090146v-1.198829c0.899122-0.099902 1.598439-0.199805 2.197854-0.299707 0.599415-0.199805 0.899122-0.39961 0.899121-0.599415v-0.39961c0-0.099902-0.099902-0.299707-0.099902-0.39961l-1.998049-5.294829h-8.491707c-0.299707 0.79922-0.599415 1.398634-0.79922 1.998049-0.199805 0.599415-0.39961 1.098927-0.499512 1.598439s-0.299707 0.899122-0.299707 1.198829c-0.099902 0.299707-0.099902 0.499512-0.099903 0.699317 0 0.39961 0.39961 0.79922 1.098927 0.999025 0.699317 0.199805 1.498537 0.39961 2.397659 0.399609v1.19883h-9.091122v-1.19883c0.299707 0 0.699317-0.099902 1.098927-0.199804 0.39961-0.099902 0.79922-0.199805 1.098927-0.39961 0.499512-0.299707 0.79922-0.599415 1.098926-0.899122s0" fill="#1B1918"></path></svg>