<svg viewBox="0 0 1024 1024" version="1.1" xmlns="http://www.w3.org/2000/svg"><path d="M225.120623 0h573.758754c123.119066 0 223.128405 100.009339 223.128405 223.128405v573.758755c0 123.119066-100.009339 223.128405-223.128405 223.128404H225.120623c-123.119066 0-223.128405-100.009339-223.128405-223.128404V223.128405C1.992218 100.009339 102.001556 0 225.120623 0z" fill="#FFFFFF"></path><path d="M466.178988 856.653696l-1.593774-0.398443-1.593774-0.398444-3.187549-1.19533-3.585992-1.593775-7.570428-3.984436-8.367315-4.781322-8.765759-5.578211-13.547082-9.164202-13.547082-9.961089-24.703501-20.320623-6.773541-5.976654-5.976654-5.57821-4.781323-4.781323-1.992218-2.390661-1.992218-2.390662-1.593774-2.390661-1.593774-2.390662-2.789105-5.179766-3.585993-7.171985-6.375097-14.343969-2.789105-5.179766-1.593774-2.390662-1.593775-2.390661-43.031906-56.977432-5.976654-9.164202-5.179767-9.164203-6.375097-12.351751-11.953307-25.898832-1.992218-4.38288-4.382879-8.367315-1.593775-3.187548-0.796887-1.593775-0.796887-1.593774-0.398444-1.593774-0.398443-1.593775-0.398444-1.593774-0.398443-1.593774v-3.187549l0.398443-10.359533 1.195331-11.554864 1.593774-11.953307 2.390662-12.750195 2.789105-12.351751 3.187548-12.351751 3.984436-11.554864 1.992218-5.57821 2.390662-5.179766 2.390661-4.781323 2.390662-4.38288 1.992217-3.187548 1.992218-2.789105 4.38288-5.976654 11.953307-15.140856 5.57821-7.570428 3.984436-5.976654 1.992218-3.187548 1.593774-3.187549 1.593775-3.187549 1.19533-3.187548 4.781323-13.148638 3.984436-13.148639 3.187549-13.547081 11.554863-53.789884 3.585993-13.148638 3.984435-13.148638 0.398444-1.593774 1.593774-3.984436 2.390662-5.179766 6.773541-12.750195 21.515953-37.453696 24.305058-39.445915 14.343969-21.515953 5.57821-7.968872 3.187549-3.984436 1.195331-1.593774 0.796887-0.796887 0.398444-0.398444 0.398443-0.398443 1.195331-1.195331 1.195331-0.796887 1.19533-0.796887 1.593775-0.796887 1.593774-0.796888 1.593774-0.796887 1.593775-0.796887 1.593774-0.796887 3.585992-1.195331 3.585992-0.796887 3.585993-0.796887 1.593774-0.398444 1.593774-0.398443h3.187549l21.11751-0.796887 41.438132-3.585993 15.140856-0.796887 15.140856-0.398443h7.171984l7.171985 0.398443 7.171984 0.796887 7.171985 1.195331 7.171984 1.593774 6.773541 1.992218 5.179766 1.593775 5.179767 1.992218 5.179767 2.390661 4.781323 2.390661 3.585992-0.398443 3.187548 1.992218 3.187549 1.992218 3.187549 2.390661 3.187548 2.390662 3.187549 2.390661 5.976654 5.976654 5.976653 6.375097 5.976654 7.171985 7.171984 17.531517 3.187549 4.382879 3.187549 4.38288 13.547081 16.73463 4.781323 6.773541 2.390662 3.585992 1.992218 3.585992 3.585992 5.976654 3.187549 5.179767 12.351751 17.133074 2.789105 3.984435 1.19533 1.992218 1.195331 1.992218 1.195331 1.992218 1.195331 2.390662 0.796887 1.593774 0.796887 1.593774 0.398444 1.992218 0.398443 1.992218 0.796887 2.789105 0.398444 2.789105 0.398443 3.187549 0.398444 3.187548v7.171985l-0.796887 25.500389-0.796887 13.148638-1.195331 13.148638-1.992218 12.750195-2.390661 12.351751-10.359534 37.055253-2.390661 9.562646-1.992218 9.562645-0.796887 6.375098-0.796887 6.375097v11.15642l0.398443 4.38288 0.796888 4.382879 1.19533 4.382879 1.195331 4.38288 1.593774 4.382879 1.593775 3.984436 1.593774 3.984436 3.984436 7.968871 4.382879 7.968872 12.351751 20.719066 5.976654 10.359533 20.320622 39.445915 10.359533 17.133073 5.578211 9.96109 1.593774 3.187549 1.195331 2.789105 1.19533 2.789105 0.398444 1.19533 0.398444 1.195331 0.398443 1.195331 0.398444 2.789105 0.398443 2.789105 0.796887 6.375097 0.398444 7.171985v11.554864l-0.796887 12.351751-1.593774 12.351751-1.195331 5.976653-1.195331 5.976654-1.992218 7.171984-1.195331 3.585993-1.19533 3.187548-1.195331 3.187549-1.593774 2.789105-1.593775 2.789105-0.796887 1.195331-0.796887 1.19533-0.796887 1.195331-0.796887 1.195331-2.789105 2.789105-2.789105 2.789105-3.187549 2.789105-3.187549 2.789105-7.171984 5.57821-15.5393 10.359533-29.883268 18.726849-27.492607 19.125291-7.171985 4.38288-7.171984 4.382879-7.570428 3.984436-3.585992 1.593774-3.984436 1.593775-3.984436 1.19533-3.984436 1.195331-13.945525 3.585992-14.343969 3.187549-57.774319 10.359533-52.992996 11.554864-11.15642 1.992218-4.38288 0.398443h-3.585992l-1.195331 0.796887z m111.962646-422.748638v4.781323l0.398444 4.38288 1.195331 11.554864 0.398443 5.57821v7.968871l-0.398443 1.992218-0.398444 1.992218-0.398444 1.593774-0.398443 1.593775-0.398444 1.593774-0.398443 1.593774-0.796887 1.992218-1.195331 1.992218-1.195331 1.992218-1.195331 1.992218-1.593774 1.992218-1.593774 1.992218-0.398444 0.398443-0.398444 0.398444-0.398443 0.398443-0.796887 0.398444-0.796887 0.398444-1.992218 1.19533-1.992218 1.195331-8.367315 4.382879-23.906615 11.156421-88.454475 36.656809-20.320622 7.570428-5.976654 1.992218-31.078599 4.781323h-29.086382v-3.984436l0.398444-2.390661 0.398443-1.992218 0.398444-2.390662 0.796887-2.390661 0.796887-2.390662 0.796888-1.992218 0.796887-1.992218 1.19533-1.992217 1.195331-1.992218 1.195331-1.992218 0.796887-1.195331 0.796887-1.195331 1.195331-1.19533 1.195331-1.195331 1.19533-1.195331 1.195331-0.796887 0.796887-0.796887 0.796888-0.796887 0.796887-0.398444 0.796887-0.398444 9.562646-1.593774v2.789105l0.398443 0.398444 0.398444 0.398443v0.796888l0.398443 0.398443 0.398444 0.398444 0.398444 0.398443 0.398443 0.398444 0.398444 0.398443h9.562646l0.796887-0.398443 1.992218-0.398444 1.195331-0.398443 1.19533-0.398444 2.789105-1.195331 2.789105-1.593774 4.38288-2.390661 3.984436-2.390662 3.585992-2.789105 3.187548-2.390661 1.593775-1.593775 1.593774-1.195331 0.796887-0.796887 0.398444-0.398443 0.398443-0.398444 0.398444-0.796887 0.398444-0.398444 0.398443-0.796887 0.398444-0.796887 0.398443-0.796887 0.398444-0.796887 0.398443-0.796887 0.796888-1.992218 0.398443-1.992218 0.398444-1.992218 0.398443-1.992218 1.593775-8.367315 0.796887-3.984436 0.398443-1.992218 0.796888-1.992218 0.398443-0.796887 0.398444-0.796887 0.398443-0.796887 0.398444-0.796887 0.398443-0.796888 0.398444-0.398443 0.796887-0.796887 0.398444-0.398444 0.398443-0.398443 0.398444-0.398444 0.398443-0.398444 0.398444-0.398443 0.398444-0.398444 10.757976-7.968871 11.554864-7.570428 16.336187-9.562646 33.070817-17.133074 23.508171-12.351751 49.805448-18.726848 27.89105-11.953308 8.367315-3.984436 7.570428-3.984435 6.773541-3.984436 3.187549-1.992218 2.789105-1.992218 2.390661-1.992218 0.796888-0.796887 0.796887-0.796887 0.796887-0.796887 0.796887-0.796888 0.796887-1.19533 0.796887-1.195331 0.796888-1.195331 0.796887-1.195331 1.593774-2.789105 1.195331-2.390661 1.195331-2.390662 1.992217-4.781322 1.593775-4.781323 1.195331-4.781323 0.398443-3.187549 0.398444-2.789105v-7.968872l-0.398444-2.390661-0.796887-2.789105-1.195331-4.38288-1.593774-4.781323-1.992218-4.781323-2.390662-4.382879-2.390661-4.382879-1.992218-1.992218-1.195331-1.992218-1.992218-2.390662-0.796887-1.19533-1.19533-1.195331-0.796888-0.796887-1.19533-0.796887-0.796887-0.796888-0.796888-0.398443-0.796887-0.398444-0.796887-0.398443-0.398444-0.398444-0.398443-0.398443h-0.398444l-0.398443-0.398444h-9.562646l-1.195331 0.398444-1.195331 0.398443-1.19533 0.398444-1.195331 0.398443-1.195331 0.398444-1.195331 0.398443-1.19533 0.398444-0.796888 0.398444-1.992217 1.19533-1.593775 1.195331-1.593774 1.195331-1.593774 1.195331-1.593775 1.19533-2.789105 2.789105-7.570428 8.367316-3.984436 3.984435-3.187548 2.789105-1.593775 1.195331-1.593774 1.195331-1.195331 0.796887-1.19533 0.796887-1.992218 1.195331-2.390662 1.195331-4.781323 1.992218-9.562646 3.984435-2.390661 1.195331-2.390662 1.195331-1.992217 1.195331-1.593775 1.19533-1.593774 1.195331-47.016342 40.641245-91.642024 83.673152-46.617899 35.859922-37.453696 44.625681-1.593774 3.187549-0.796888 1.593774-0.796887 1.593774-0.398443 1.593775-0.398444 1.593774-0.398444 1.593774-0.398443 1.593775-0.398444 1.593774v10.757977l0.398444 1.992218 0.398443 1.19533 0.398444 1.195331 0.398444 1.195331 0.398443 1.19533 0.398444 1.195331 0.398443 1.195331 1.195331 2.390661 1.195331 2.390662 1.593774 2.390661 1.593774 2.390662 1.992218 2.390661 1.992218 2.390662 1.992218 1.992218 3.187549 2.789105 3.187548 2.789105 3.187549 2.390661 3.187549 2.390662 3.585992 2.390661 3.585992 1.992218 15.5393 5.57821 0.398443 0.398444 0.398444 0.398443 0.398444 0.398444 0.398443 0.398444V611.212451l0.398444 0.796888 0.398443 0.398443 0.398444 0.398444V619.579767l0.398443 9.961089 0.796888 5.179767 0.796887 5.57821 1.19533 5.57821 1.195331 5.57821 1.195331 3.984436 1.195331 3.984436 1.593774 3.984435 1.593774 3.585993 1.195331 2.390661 1.195331 2.390661 1.593774 1.992218 1.593774 1.992218 1.593775 1.992218 1.992218 1.992218 1.19533 1.195331 1.593775 1.195331 1.593774 1.19533 1.593774 1.195331 1.195331 0.796887 1.195331 0.398444 1.195331 0.398443 0.796887 0.398444 0.796887 0.398444 0.796887 0.398443h7.570428l6.375097-0.796887h3.984436l33.070817 1.992218h5.57821l5.578211-0.398444 11.953307-1.19533 12.351751-1.992218 11.953307-2.390662 22.711284-5.57821 43.031907-11.15642 17.531517-5.57821H599.657588l0.398443 0.398443h0.398444l0.398443 0.398444 0.398444 0.398443 0.398443 0.398444 0.398444 0.398444v0.398443l0.398444 0.398444V670.978988l-0.398444 1.195331-0.398444 0.796887-0.398443 1.195331-0.796887 1.992218-1.195331 1.992218-1.593774 2.789105-1.992218 2.390661-3.187549 3.984436-8.367315 9.562646-7.968872 8.367315-7.570428 7.171985-5.57821 4.781323-5.57821 3.984435-2.789105 1.992218-2.789105 1.593775-2.789105 1.593774-2.789105 1.593774-2.789105 1.195331-2.789105 1.195331-2.789105 1.19533-2.789105 1.195331-3.984436 1.195331-3.984436 1.195331-4.382879 0.796887-4.38288 0.796887-5.976653 0.796887-6.375098 0.398444-9.164202 0.398443-21.11751 0.398444 0.398444 0.398443 0.398443 0.398444 0.398444 0.398444 0.398444 0.398443 0.398443 0.398444 0.796887 0.398443 0.796887 0.398444 0.796888 0.398444 0.796887 0.398443 0.796887 0.398444 1.593774 0.796887 1.593775 0.796887 1.593774 0.796887 9.562646 2.789105 12.750194 4.781323 3.187549 1.195331 3.187549 0.796887 3.187548 0.796887 1.593775 0.398444h11.953307l7.570428-0.796887 7.570428-1.195331 5.976654-1.195331 5.976653-1.195331 11.554864-3.187548 10.757977-3.585992 9.961089-3.984436 2.390662-1.195331 2.789105-1.593774 6.773541-3.984436 7.968871-4.781323 18.328405-11.953307 19.125292-13.945526 9.164202-7.171984 8.367315-7.171985 5.179767-4.781323 4.382879-4.781322 3.984436-4.38288 1.593774-1.992218 1.593775-1.992218 1.19533-1.992218 0.398444-0.796887 0.398444-1.19533 0.398443-0.796888 0.398444-0.796887 0.398443-0.796887 0.398444-0.796887v-24.305058l-0.398444-1.992218-0.398443-1.992218-0.398444-1.992218-0.398443-1.593774-0.398444-1.992218-0.796887-2.390662-1.195331-2.390661-1.195331-2.390662-1.19533-2.390661-1.593775-2.789105-1.992218-2.789105-1.992217-2.789105-2.390662-2.390662-2.390661-2.390661-2.390662-1.593775-3.984436-3.585992-4.382879-3.187549-4.781323-3.187548-4.781323-2.789105-5.179767-2.390662-5.179766-2.390661-5.179767-1.992218-5.179766-1.992218-5.57821-1.593774-5.57821-1.195331-5.179767-1.195331-5.179766-0.796887-5.179767-0.398444-5.179767-0.398443H591.688716l-4.781323 0.398443-2.390661 0.398444-2.390662 0.398444-2.390661 0.398443-1.992218 0.398444-3.984436 1.19533-4.38288 1.593775-3.984435 1.593774-3.984436 1.992218-7.968872 3.984436-10.757976 5.976653-21.11751 12.750195-7.968872 4.781323-7.570428 3.984436-12.750194 5.976653-8.765759 3.585993-9.562646 3.585992-6.375097 1.992218-6.375097 1.593774-3.187549 0.796887-3.187549 0.398444-3.984436 0.398443H441.077043l-0.796887-0.398443h-0.796888l-0.398443-0.398444-0.398444-0.398443-0.398443-0.398444h-0.796887l-0.398444-0.398443-0.398444-0.398444-0.398443-0.398444-0.398444-0.398443-0.398443-0.398444-0.398444-0.398443-0.398443-0.398444-0.398444-0.398443-0.398444-0.796888-0.398443-0.796887-0.398444-0.796887-0.398443-0.796887-0.398444-0.796887-0.398444-1.992218-0.398443-2.390662-0.398444-2.390661V613.204669l0.398444-2.390661 0.398443-2.390662 0.398444-2.390661 0.398444-1.593774 0.398443-1.593775 0.398444-1.593774 0.796887-1.593774 0.796887-1.195331 0.398444-0.796887 0.398443-0.796888 0.796887-0.796887 0.796888-0.796887 0.398443-0.398443 0.398444-0.398444 0.398443-0.398444 0.398444-0.398443 0.796887-0.796887 0.796887-0.796887 1.992218-1.195331 1.195331-0.796887 1.593774-0.796888 3.187549-1.593774 3.187548-1.195331 4.781323-1.992217 5.179767-1.593775 13.547082-4.382879 5.976653-1.992218 55.782102-21.11751 13.945525-5.976654 13.547082-6.77354 8.765758-4.781323 8.367315-5.179767 3.984436-2.789105 3.984436-3.187549 5.179767-4.781323 2.390661-2.390661 2.390662-2.390661 14.742412-23.109728 2.789105-3.984436 1.195331-1.992218 0.398443-1.195331 0.398444-1.19533 0.398444-0.398444v-0.398443l0.398443-0.796888V476.538521l-0.398443-1.19533-0.398444-1.195331-0.398444-0.796887-0.398443-0.796887-1.195331-1.992218-0.796887-1.195331-0.796887-1.195331-1.992218-2.789105-1.992218-2.789105-3.585992-3.984436-3.984436-3.984435-4.382879-3.984436-4.38288-3.585993-4.382879-3.585992-3.984436-2.789105-3.984436-2.789105-3.585992-1.992218-1.593774-0.796887 0.398443-1.195331zM551.844358 297.637354l-3.984436-25.898833V263.371206l-0.398443-2.789105-0.398444-2.789105-0.398444-2.390661-0.398443-1.992218-0.796887-1.992218-0.796887-1.593774-0.796888-1.593775-0.796887-1.195331-0.796887-1.19533-0.796887-1.195331-0.796887-1.195331-0.796887-1.195331-1.195331-1.19533-1.195331-1.195331-1.195331-1.195331-0.796887-0.796887-0.796887-0.796887-0.796887-0.796887-1.195331-0.796887-1.195331-0.796888-1.19533-0.398443-1.195331-0.398444-1.195331-0.398443-1.593774-0.398444-1.593774-0.398443-1.593775-0.398444-1.593774-0.398444-2.390662-0.398443H512l-2.390661 0.398443-2.390662 0.398444-3.984436 0.796887-3.984436 1.195331-3.984435 1.195331-3.984436 1.593774-3.984436 1.593774-3.984436 1.593775-3.984436 1.992217-3.984435 1.992218-3.585993 2.390662-3.585992 2.390661-3.187548 2.390662-3.187549 2.390661-3.984436 3.187549-3.585992 3.187549-1.593774 1.593774-1.195331 1.593774-1.195331 1.195331-0.796887 1.195331-0.796887 1.19533-0.796887 1.195331-1.992218 3.187549-1.992218 3.984436-1.992218 4.781323-4.382879 11.15642-9.96109 27.492607-15.140856 48.211673-12.750194 46.617899-5.578211 23.906615-1.593774 8.765758h1.593774l0.796888-0.398443 0.796887-0.398444 0.796887-0.398443 1.992218-0.796888 1.992218-1.19533 2.789105-1.992218 2.789105-1.992218 10.359533-7.968872 27.89105-25.898832 3.984436-19.922179 1.195331-6.773541 2.390661-14.742413 2.390662-15.539299 1.593774-7.570428 1.593775-7.171985 0.796887-3.585992 1.19533-3.187549 1.195331-3.187548 1.195331-3.187549 3.585992-8.367315 1.992218-4.382879 1.593774-3.187549 1.992218-3.187549 1.195331-1.992218 1.195331-1.992217 0.796887-0.796888 0.796887-0.796887 1.195331-1.195331 0.398443-0.398443 0.398444-0.398444 1.195331-0.796887 1.19533-0.796887 1.992218-1.593774 5.57821-3.585993 1.195331-0.796887 1.195331-0.796887 1.593774-1.195331 1.593775-1.19533 1.593774-1.593775 0.796887-0.796887 0.796887-0.796887 6.773541-7.968872 4.382879-4.382879 2.390662-1.992218 2.390661-1.992218 1.195331-0.796887 1.195331-0.796887 1.593774-1.195331 0.796887-0.398443 0.796888-0.398444 0.796887-0.398444 0.796887-0.398443 0.398443-0.398444h6.375098l0.398443 0.398444 0.398444 0.398443 0.398443 0.398444 0.398444 0.398444 0.398444 0.398443 0.398443 0.398444 0.398444 0.398443 0.398443 0.398444 0.398444 0.398443 0.398444 0.796888 0.398443 0.398443 0.398444 0.398444 0.796887 0.796887 0.398443 0.796887 0.398444 0.796887 0.796887 1.593775 0.796887 1.593774 0.796887 2.390661 0.796888 2.789105 2.390661 7.570428 1.195331 3.585993 1.195331 2.789105 1.19533 2.390661 0.796887 1.195331 0.796888 1.195331 1.19533-2.390662 0.398444 0.796887 0.398444 0.796888 0.398443 0.796887 0.398444 0.796887 0.398443 0.796887 0.398444 0.398444 0.398443 0.398443 0.398444 0.398444 0.398444 0.398443 0.796887 0.398444 0.796887 0.398444H550.250584l1.593774 0.398443z" fill="#E30016"></path></svg>