<svg viewBox="0 0 1024 1024" version="1.1" xmlns="http://www.w3.org/2000/svg"><path d="M280.27205 359c4.44-0.01 8.256 1.176 11.914 3.418 9.386 4.715 12.694 11.936 12.642 22.791-0.442 85.886-0.262 171.77-0.271 257.65-0.732 3.515-0.243 7.31-2.332 10.527-3.325 5.072-7.91 8.413-13.706 10.107-69.628 0.036-139.26 0.076-208.888 0.102-17.211 0.01-34.446-0.412-51.64 0.197-8.119 0.293-14.491-1.766-19.761-7.795-1.506-1.717-3.19-3.284-4.79-4.926C0.59005 647.63 0.00405 643.688 0.00905 639.273c0.097-84.964 0.068-169.917 0.076-254.87 0-13.345 11.804-25.316 25.086-25.327 85.037-0.03 170.065 0.022 255.101-0.076zM59.55205 528.205c-7.439-0.01-8.73 1.12-8.519 8.687 0.377 13.552-0.292 26.856-4.816 39.886-4.788 13.786-8.837 27.844-13.088 41.822-1.647 5.406-0.525 7.074 4.535 7.094 14.739 0.046 29.479-0.087 44.217 0.037 4.466 0.03 6.438-1.836 7.246-6.267 1.468-8.086 3.503-16.065 5.304-24.084 2.028-9.414 3.981-18.847 6.151-28.241 0.468-2.026 1.135-3.52 3.334-4.735 1.503-0.772 3.157-0.702 4.499-0.702 30.28 0.011 60.568 0.018 90.854 0.038 3.31 0 6.033 0.97 6.837 4.72 2.07 3.563 2.562 7.585 3.324 11.542 2.584 13.402 5.147 26.811 7.85 40.191 1.038 5.105 3.178 8.377 9.583 8.216 15.597-0.385 31.222-0.811 46.82 0.206 0.804 0 1.206-0.345 1.206-1.036 0.434-9.121-3.9-17.16-6.196-25.59-5.042-18.518-11.46-36.649-16.644-55.118-2.249-8.015-5.702-14.104-13.909-16.63-59.532-0.01-119.06-0.018-178.588-0.036z m15.514-130.813h-0.366c-11.293 0.147-22.59 0.037-33.885 0.066-6.328 0.017-7.153 1.407-4.747 7.168 4.257 10.19 8.374 20.437 12.55 30.666 2.176 1.773 3.213 22.762 3.316 30.77 0.107 8.315-1.643 10.286-9.806 10.398-4.361 0.054-6.33 1.968-6.252 6.274 0.101 5.532 0.137 11.067 0.117 16.61-0.042 12.675-0.064 12.975 11.707 12.981h1.126c67.514-0.044 135.031-0.044 202.542-0.044 1.532 0 3.075 0.017 4.592 0.195 5.773 0.673 8.06-1.27 8.104-7.12 0.055-7.45 0.004-14.897 0.052-22.344 0.03-4.76-2.12-6.756-7.039-6.74-49.673 0.207-99.346 0.346-149.018 0.346-5.142 0-7.713-2.899-7.713-8.698v-27.418c-0.268-8.617-1.427-14.908-3.477-18.872-4.208-6.355-8.453-12.686-12.623-19.06-2.27-3.471-5.245-5.233-9.546-5.178z m160.147 0.027c-7.169-0.362-11.36 2.814-14.654 8.678-2.994 5.339-6.543 10.357-9.717 15.601-2.817 4.652-6.916 6.014-12.125 5.97-25.21-0.216-50.42-0.25-75.632-0.3-5.192-0.01-7.761 2.51-7.71 7.56l-0.078 17.85c0 5.488 2.624 8.228 7.873 8.22 18.526-0.031 37.054-0.008 55.578-0.008v-0.096c18.528 0 37.055 0.086 55.583-0.047 6.24-0.048 13.036-0.914 15.837-7.212 7.239-16.317 13.788-32.944 20.315-49.562 1.982-5.055 0.471-6.654-4.904-6.639-10.13 0.039-20.266 0.493-30.366-0.015z" fill="#E62119"></path><path d="M569.00205 547.507c1.844 4.3 1.224 8.462-1.677 11.799-3.366 3.85-6.773 7.762-11.044 10.694a59804.12 59804.12 0 0 0-40.145 36.544c-1.112 1.013-2.426 2.12-1.862 3.872 0.685 2.118 2.678 2.035 4.31 1.905 14.572-1.182 29.173-0.16 43.756-0.59 6.631-0.2 9.33 1.864 9.2 7.1-0.12 5.204-2.875 6.91-9.46 6.866-22.18-0.142-44.36-0.067-66.54-0.059-3.75 0-8.031 0.917-9.95-3.525-2.13-4.938-0.59-9.503 3.124-13.101 7.809-7.556 15.776-14.942 23.682-22.395 7.075-6.655 14.155-13.298 21.234-19.954 2.01-1.873 5.752-3.344 4.817-6.353-1.067-3.384-4.966-1.669-7.58-1.706-12.106-0.18-24.237-0.039-36.354-0.096-6.022-0.015-8.6-2.286-8.643-7.346-0.035-4.8 2.966-7.555 8.625-7.575 21.966-0.056 43.93-0.006 65.89-0.028 3.5-0.01 6.91-0.028 8.617 3.948z m-100.273-2.213c3.55 0.388 5.47 2.616 5.084 6.27-0.398 3.73-2.754 5.107-6.372 4.905-5.33-0.296-10.668-0.179-16.003-0.407-5.905 0-11.878-0.554-17.71 0.12-10.936 1.267-20.112 6.724-19.224 21.389 0.322 5.282-0.06 10.599 0.126 15.9 0.41 11.647 6.458 18.335 18.241 19.352 10.64 0.917 21.338 0.658 31.986-0.36 3.929-0.38 8.16-1.13 8.956 4.21 0.73 4.911-2.902 6.789-6.974 7.235-15.166 1.647-30.41 3.273-45.484-0.474-18.257-4.54-26.111-14.818-25.875-33.486 0.092-7.354-0.862-14.739 1.038-22.047 3.111-11.924 11.367-18.78 22.736-21.628 16.32-4.088 32.943-2.821 49.475-0.979z m429.7-2.149c4.082 0.878 5.367 3.618 5.318 7.589-0.101 10.719-0.032 21.43-0.026 32.14 0 11.289-0.063 22.571-0.015 33.862 0.041 9.696-10.287 8.692-17.164 8.692-4.816 0-8.688-1.486-11.456-5.101-7.167-9.369-31.938-40.732-35.868-48.024-0.683-1.26-1.98-1.83-3.429-1.41-1.556 0.44-1.872 1.778-1.857 3.179 0.169 13.187-0.251 26.374 0.497 39.552 0.644 11.349-5.673 11.721-12.809 11.721-7.135 0-8.213-1.89-8.245-7.04-0.17-22.765-0.141-45.524-0.021-68.291 0.03-4.804 4.174-7.064 14.01-7.064 9.837 0 13.876 2.447 17.89 9.308 3.428 4.597 24.615 32.56 31.626 42.046 1.166 1.58 2.342 3.3 4.594 2.43 2.052-0.784 1.575-2.833 1.575-4.485 0-11.688-0.457-35.159-0.49-36.113-0.402-11.934 3.992-15.55 15.87-12.99z m-150.523 1.83c11.839-1.335 18.284 3.223 22.052 14.098 1.48 4.258 21.501 41.258 28.975 55.714 1.303 2.528 3.47 4.827 1.821 7.82-1.539 2.805-5.574 2.214-8.122 2.366-2.548 0.152-12.814-2.848-15.99-11.37-1.52-4.087-2.08-7.671-6.565-11.784-4.485-4.114-25.46-2.424-36.382-1.12h-0.018c-4.928 1.804-8.463 13.07-9.034 14.257-4.036 8.244-10.622 11.394-19.293 8.494-4.658-1.558-2.548-5.033-0.83-7.754 4.811-7.654 25.4-49.925 31.694-62.997 2.49-5.158 5.722-7.05 11.692-7.724z m263.002 1.98c0.085 1.821-1.349 2.602-2.614 3.41-8.744 5.638-17.5 11.272-26.268 16.894-3.184 2.043-6.373 4.08-9.595 6.05-4.545 2.768-5.062 5.899-1.223 9.543 11.815 11.224 23.725 22.366 35.581 33.553 0.96 0.902 2.097 1.74 2.723 2.854 1.773 3.113 1.1 5.037-2.825 5.213-9.848 0.439-18.196-1.7-24.956-10.083-6.64-8.233-14.76-15.247-22.112-22.907-2.352-2.461-4.86-4.931-8.284-3.214-3.486 1.749-7.057 4.06-7.269 8.717-0.167 3.611-0.04 7.23-0.04 10.844h0.094c0 1.338-0.01 2.668 0 3.997 0.092 12.107-0.303 12.332-12.34 12.2-5.17-0.056-6.714-2.918-6.592-7.22 0.647-21.868 0.719-43.732 0.018-65.598-0.14-4.356 1.985-6.148 6.16-6.309 12.255-0.462 12.903 0.095 12.716 12.278-0.055 3.996-0.19 7.99-0.274 11.976-0.047 2.01 0.342 3.848 2.446 4.703 1.844 0.752 3.24-0.205 4.626-1.302 10.984-8.707 22.689-16.4 34.156-24.438 7.408-5.187 15.77-2.314 23.657-3.354 1.035-0.138 2.152 0.864 2.215 2.193zM609.86905 551.46c-0.038-4.266 1.438-7.027 5.664-6.683 14.483 1.2 28.979 0.102 43.461 0.538 7.166 0.224 13.94 1.636 20.538 4.361 12.371 5.122 15.387 18.62 6.197 28.148-3.557 3.7-3.398 6.66 0.513 9.466 9.338 6.69 10.835 11.071 7.547 22.153-1.79 3.546-4.815 5.863-8.044 7.973-13.426 5.123-27.42 5.995-41.614 5.729-9.152-0.176-18.316-0.048-27.47 0.185-4.961 0.12-7.166-2.373-7.007-6.889 0.777-21.66 0.384-43.32 0.215-64.98z m57.475 40.605c-10.57-3.437-21.563-2.971-32.271-2.52-7.958 0.338-4.544 8.099-5.04 12.868-0.381 3.728-0.804 7.958 4.664 8.775 0.934 0.132 1.906-0.018 2.856-0.018 2.108-0.006 4.215-0.008 6.185-0.009h3.5c7.229-0.242 13.943 0.307 20.38-1.97 3.956-1.395 7.537-3.42 7.295-8.283-0.23-4.675-3.041-7.373-7.569-8.843z m87.136-23.906c-1.567-3.223-3.678-3.158-5.438-0.345-1.674 2.705-2.857 5.716-4.284 8.58-5.108 10.283-5.074 10.353 6.934 10.297 10.57-0.075 10.57-1.406 8.006-7.29-1.652-3.787-3.423-7.527-5.218-11.242zM635.37905 557.41c-3.069-0.176-4.896 1.794-5.495 4.779-2.229 11.09 0.635 14.504 11.877 14.204 0.58-0.017 1.15 0 1.719 0a74.045 74.045 0 0 0 19.855-2.026c4.496-1.077 8.5-3.244 8.519-7.874 0.018-5.132-4.576-6.778-9.108-7.836-9.049-2.119-18.25-0.723-27.367-1.247z" fill="#060101"></path><path d="M927.81805 429.304c1.93 0.243 3.78 0.834 4.368 3.043 0.52 1.94-0.48 3.27-1.937 4.403-1.203 0.94-2.372 1.901-3.542 2.886-4.972 4.195-7.113 9.206-6.91 16.036 0.479 16.09 0.187 32.202 0.148 48.302-0.03 8.467-2.52 10.943-10.861 10.997-14.115 0.085-14.177 0.018-14.168-14.406 0-9.778 0.053-19.557-0.028-29.325-0.05-5.698-0.863-6.192-6.442-4.479-3.61 2.012-5.52 0.486-6.623-3.119-2.078-6.81 0.394-11.276 8.645-15.352 5.458-3.1 10.518-6.753 14.77-11.446 3.414-5.508 9.451-7.399 13.59-7.838 4.137-0.44 6.336-0.03 8.99 0.298z m-125.579 33.31c5.203 0.225 11.239-1.375 14.41 5.091 3.966 6.862 5.692 7.107 10.367 1.449 3.439-4.17 15.41-7.539 20.451-5.629 3.424 1.28 2.817 3.702 1.07 5.894-3.412 4.3-6.845 8.603-11.058 12.16-2.519 2.129-3.831 4.36-0.522 6.949 4.294 3.056 9.437 4.516 13.656 7.783 3.881 3.001 5.798 13.074 2.962 17.036-1.333 1.873-3.136 1.997-4.985 1.074-9.848-4.953-19.995-9.377-28.473-16.765-7.91-6.656-14.493-14.523-20.3-23.107-1.11-1.337-1.865-2.9-2.51-4.49-1.877-4.639-0.043-7.67 4.932-7.444z m-22.729-61.139c17.285-1.486 34.621-0.402 51.942-0.635 3.788-0.049 7.587-0.316 11.375 0.56 6.604 1.55 8.89 4.022 8.444 10.74-0.754 11.046-0.063 22.086 0.084 33.113 0.105 8.395-3.017 11.254-11.681 11.889-12.563 0.922-25.074-0.197-37.614-0.206-10.309 0-12.35 2.922-11.508 13.391 0.643 7.965 0.11 16.027 0.323 24.037 0.078 2.811-0.826 6.499 3.727 7.1 3.929 1.294 7.94 0.201 11.908 0.34 2.877 0.107 4.955 1.17 5.269 4.102 0.323 2.96-0.291 6.724-3.5 6.967-10.753 0.821-34.505 3.35-36.497-3.418-1.99-6.768-0.587-41.183-1.115-61.775-0.313-11.831-0.094-23.68-0.213-35.514-0.078-6.77 2.25-10.111 9.056-10.69z m-359.104 2.833c-0.032 10.664-0.06 21.324-0.096 31.99-0.034 7.598 1.466 9.082 8.858 9.053 25.22-0.095 50.437-0.121 75.645-0.197 3.49-0.01 7.376-0.466 7.19 4.747-0.167 4.643-2.664 7.542-7.515 7.523-11.552-0.037-23.11-0.222-34.672-0.353-1.136-0.01-2.272-0.086-3.409-0.15-2.174-0.132-4.257 0.075-5.442 2.227-1.308 2.389-0.3 2.785 1.31 6.21 8.32 11.883 17.71 17.727 26.85 22.996 4.378 2.524 9.027 4.76 13.935 6.376 6.912 2.284 9.75 9.658 6.708 16.308-1.041 2.255-2.663 3.141-5.047 2.397-28.41-8.777-52.918-22.742-67-50.658-2.82-5.595-7.262-7.534-13.094-5.847-5.293 1.528-5.078 5.865-5.043 10.192 0.075 8.588-0.021 17.165 0 25.751 0.03 7.86 1.949 9.483 9.8 9.791 6.94 0.28 14.014-1.537 20.82 1.148 1.954 6.279-0.948 10.264-8.092 9.919-9.853-0.484-19.678-0.045-29.517 0.057-12.565 0.129-16.39-3.742-16.27-16.196 0.099-10.274 0.015-20.549 0.17-30.816 0.114-8.055-2.104-10.239-10.095-9.444-7.892 0.784-10.57-2.788-7.99-10.647 1.005-2.822 7.228-1.558 10.905-1.753 5.272-0.27 6.65-1.484 6.678-6.835 0.055-9.92-0.02-19.833 0.03-29.742 0.033-6.23 3.269-8.057 8.515-8.663 5.246-0.606 12.023-1.903 15.868 4.616z m595.967 30.98c3.235 0.036 7.405-0.704 7.63 4.556 0.168 3.977-3.734 8.63-7.712 8.416-8.065-0.433-9.575 1.552-9.251 10.22 0.524 13.58 0.213 27.18 0.3 40.778 0.063 9.471-3.627 13.919-13.21 14.33-9.691 0.42-19.42 0.066-29.133 0-5.142-0.038-6.38-3.53-6.248-7.769 0.13-4.165 3.025-4.682 6.444-4.52 3.996 0.188 7.999 0.046 12.006 0.131 4.497 0.093 6.77-2.115 6.787-6.572 0.06-13.774 0.15-27.565 0.013-41.339-0.051-4.55-3.363-5.364-7.22-5.326-11.813 0.122-23.628 0.233-35.441 0.111-5.759-0.064-8.196-4.828-5.588-9.986 1.677-3.349 4.722-2.873 7.46-2.891 12.193-0.094 24.389-0.199 36.575-0.199 12.206 0 24.399-0.082 36.588 0.06z m-418.521 23.794c11.75-0.122 23.51-0.03 35.274-0.03 11.751 0 23.505 0.441 35.265 0.526 7.461 0.056 10.316 3.07 10.316 10.531-0.013 10.75 0.009 21.507-0.028 32.25-0.02 7.809-2.642 11.112-10.454 11.205-23.699 0.281-47.419 0.29-71.118 0.085-7.487-0.066-10.137-3.274-10.084-10.895 0.085-11.318 0.29-22.644 0.585-33.97 0.206-7.593 2.31-9.62 10.244-9.702z m-25.853 7.08c6.513-0.025 8.275 2.301 5.264 8.286-4.762 9.458-10.436 18.414-18.273 25.721-4.148 3.85-8.656 7.333-13.07 10.907-1.317 1.072-2.894 2.078-4.685 1.172-1.773-0.895-1.863-2.697-1.837-4.443 0.038-3.203 0.177-6.418 0.086-9.613-0.103-3.86 1.305-6.77 4.249-9.4 4.45-3.982 8.338-7.196 11.798-11.234 3.46-4.038 4.6-8.245 6.822-11.311 3.22-0.025 6.43-0.073 9.646-0.084z m139.994-29.189c1.265-1.745 3.376-2.598 5.641-1.172 7 2.364 14.181-0.15 21.297 0.763 4.825 0.612 9.824 0.353 14.76-0.422 3.295-0.519 6.949-0.076 7.152 4.33 0.179 3.891-2.133 6.627-6.216 6.572-5.13-0.074-6.884 3.022-6.922 7.11-0.041 4.447 1.393 8.112 7.181 8.16 2.972 0.017 6.478 0.84 6.058 5.099-0.36 3.659-2.666 5.857-6.49 5.746-4.856-0.147-6.299 2.605-6.32 6.78-0.029 4.724 0.084 9.451-0.029 14.174-0.12 5.135 1.932 7.962 7.432 7.454 3.23-0.305 6.573-0.962 7.691 3.463 1.119 4.425-3.138 7.799-8.223 7.55-5.126-0.24-10.226-0.195-15.361-0.148-8.712 0.082-12.387-4.305-12.068-13.266 0.212-6.043 0.212-12.104 0.18-18.145-0.021-2.65-0.131-5.403-3.185-6.697-3.054-1.294-5.056-0.794-7.6-0.804-4.074 0-7.467-0.972-7.3-5.783 0.16-4.529 3.304-5.894 7.479-5.84 8.814 0.13 10.88-1.32 10.991-7.379 0.095-4.916-2.225-7.274-7.253-7.29-0.948 0-1.903 0.075-2.846 0.155-2.935 0.28-5.858 0.27-7.57-2.621-1.75-2.929 0.257-6.043 1.521-7.789z m-79.323 36.672h-14.187c-5.56 0.007-7.065 1.529-6.285 7.234 0.555 4.018 0.611 7.882-0.017 11.938-0.706 4.514 1.373 7.272 6.384 7.226 9.454-0.105 18.909-0.15 28.362 0.028 5.108 0.085 6.746-2.564 6.302-7.153-0.444-4.59-0.5-9.177 0-13.744 0.462-4.149-1.559-5.53-5.248-5.5-5.105 0.026-10.213 0-15.311 0v-0.03z m-84.275-42.268c6.014 1.993 11.957 4.176 18.159 5.492 6.405 1.363 9.17 5.056 8.451 10.318 0.112 6.967-1.734 8.163-7.649 6.254-5.826-1.884-11.7-3.62-17.595-5.292-6.608-1.864-9.108-4.754-9.173-10.93-0.065-6.618 1.386-7.981 7.807-5.842z m66.455-32.942c3.329 0.488 6.809-0.099 10.213-0.025 4.785 0.088 5.793 1.868 3.259 5.973-3.072 4.973-6.365 9.81-9.569 14.706-2.59 3.656-5.3 7.23-7.743 10.976-2.266 3.49-1.258 5.986 3.034 6.004 12.093 0.065 24.187 0.009 36.273-0.38 4.117-0.126 5.634-2.786 3.617-6.683-1.99-3.84-4.072-7.622-6.19-11.39-2.214-3.94-1.425-5.397 3.155-5.58 0.184 0 0.378 0.02 0.565 0.028 16.524 0.748 14.674-3.886 22.123 15.11 2.126 5.406 4.747 10.636 7.32 15.857 2.729 5.525 1.478 7.653-4.58 7.653-5.293 0-10.514-0.344-15.51-2.277v0.01c-5.2-1.427-10.492-0.507-15.73-0.47-12.24 0.084-24.51-0.692-36.742 0.397-4.738 0.045-9.475 0.035-14.203 0.148-8.782 0.185-13.41-6.887-8.995-14.356 6.032-10.212 12.437-20.221 18.801-30.24 2.472-3.887 5.765-6.216 10.902-5.461z m209.368 37.322c-8.922-0.122-17.858-0.116-26.789-0.04-3.48 0.03-5.195 2.167-5.186 5.52 0.02 3.427 2.34 4.53 5.345 4.557 4.37 0.058 8.743 0.02 13.113 0.02v-0.188c4.561 0 9.12 0.112 13.671-0.035 3.042-0.095 5.915-0.936 5.693-4.831-0.197-3.51-2.681-4.968-5.847-5.003z m100.686-35.381c1.376 3.471-2.709 5.784-4.794 8.325-8.705 10.609-19.607 18.52-31.39 25.33-4.184 2.423-6.006 1.065-6.346-3.808-0.425-6.047 1.459-10.398 6.935-13.526 4.569-2.608 8.637-6.223 11.47-10.685 2.643-4.157 5.646-7.13 9.9-7.629 1.278-0.15 9.567-0.405 14.225 1.993z m-421.432 9.438c0 5.747-1.916 8.629-7.069 10.408-18.284 6.305-37.286 9.512-56.07 13.64-2.64 0.576-4.193-0.48-4.988-3.286-2.227-7.924 0.628-12.01 8.62-13.75 17.859-3.893 35.965-6.91 52.964-14.2 4.73-2.02 6.487-0.149 6.543 7.188z m222.739-6.834c1.815-3.601 4.245-4.977 8.002-4.637 0.745 0.066 1.5 0.03 2.246 0.03 10.132-0.02 10.164-0.011 7.062 9.725-0.734 2.298-0.056 3.556 2.19 4.213 2.608 0.757 5.213 0.398 7.8 0.053 2.922-0.388 5.591-0.1 7.7 2.245 1.434 2.792 1.024 5.321-1.09 7.611-4.584 3.64-12.942 1.387-18.817 1.82-3.498 0.269-5.933-0.894-10.513 0.49-4.58 1.383-8.748 3.99-11.367 5.552-2.619 1.561-6.863 1.31-8.173-2.238-1.58-4.284 2.863-11.018 6.383-13.782 3.52-2.765 6.15-6.25 8.577-11.082z m-178.138-1.803c6.06 1.914 8.645 3.474 18.306 5.326 9.662 1.852 12.243 9.758 7.866 18.844-4.15 1.486-29.465-8.65-33.045-15.598-0.744-2.242-0.94-4.477 0.139-6.684l-0.018 0.056c1.632-2.718 3.873-2.848 6.752-1.944z m275.492 11.634c-8.539-0.084-17.064-0.027-25.603-0.009-3.52 0.01-6.082 1.54-6.073 5.277 0.013 3.789 2.625 5.155 6.148 5.126 4.172-0.028 8.342-0.01 12.514-0.01v-0.018c4.365 0 8.734 0.122 13.077-0.038 3.325-0.13 6.854-0.597 6.742-5.117-0.11-4.249-3.348-5.172-6.805-5.21z m155.066-10.935l11.342 0.003c7.564 0.001 15.128 0.002 22.692-0.011 3.71-0.006 7.545-0.222 7.764 4.862 0.188 4.192-3.052 7.003-8.26 7.038-5.104 0.034-10.213-0.161-15.317-0.17-17.974-0.018-35.95-0.044-53.924 0.063-4.314 0.018-6.993-1.356-7.03-5.834-0.05-4.548 2.666-5.798 7.004-5.736 11.903 0.153 23.817-0.223 35.726-0.223 0-0.041 0.002-0.016 0.003 0.008z" fill="#060202"></path></svg>