<svg viewBox="0 0 1024 1024" version="1.1" xmlns="http://www.w3.org/2000/svg"><path d="M0 0m224 0l576 0q224 0 224 224l0 576q0 224-224 224l-576 0q-224 0-224-224l0-576q0-224 224-224Z" fill="#FFFFFF"></path><path d="M797.22 172c9.904-0.02 18.42 2.624 26.58 7.624 20.936 10.52 28.32 26.628 28.2 50.844-0.984 191.6-0.584 383.188-0.604 574.776-1.632 7.84-0.544 16.304-5.2 23.48-7.42 11.32-17.648 18.772-30.576 22.552-155.332 0.08-310.668 0.168-466 0.224-38.392 0.024-76.84-0.92-115.2 0.44-18.108 0.656-32.324-3.94-44.08-17.388-3.36-3.832-7.116-7.328-10.684-10.988-6.36-7.68-7.668-16.472-7.656-26.32 0.216-189.54 0.152-379.06 0.168-568.576 0-29.768 26.332-56.476 55.964-56.5 189.704-0.064 379.388 0.048 569.088-0.168zM304.832 549.468c-16.596-0.02-19.48 2.496-19.004 19.38 0.84 30.232-0.656 59.912-10.744 88.98-10.68 30.752-19.716 62.116-29.2 93.296-3.672 12.06-1.172 15.78 10.12 15.824 32.88 0.104 65.76-0.192 98.64 0.084 9.96 0.068 14.36-4.096 16.16-13.98 3.28-18.04 7.82-35.84 11.836-53.728 4.524-21 8.88-42.044 13.72-63 1.048-4.52 3.864-8.556 9.14-9.58 2.38-2.192 5.34-2.548 8.336-2.548 67.548 0.024 135.12 0.04 202.68 0.08 7.384 0 13.46 2.168 15.252 10.536 4.616 7.948 5.716 16.92 7.416 25.744 5.764 29.896 11.48 59.812 17.512 89.66 2.316 11.388 7.088 18.688 21.38 18.328 34.792-0.856 69.648-1.808 104.444 0.46 0.896-0.776 1.792-1.532 2.692-2.312 0.968-20.348-8.7-38.28-13.824-57.088-11.248-41.308-25.564-81.756-37.128-122.956-5.016-17.88-12.72-31.464-31.028-37.1-132.808-0.02-265.604-0.04-398.4-0.08z m33.792-291.82c-25.196 0.328-50.396 0.08-75.592 0.144-14.12 0.04-15.96 3.14-10.588 15.992 9.492 22.732 18.68 45.592 27.992 68.412 4.856 3.956 7.168 50.776 7.4 68.64 0.24 18.552-3.664 22.948-21.876 23.2-9.728 0.12-14.12 4.388-13.948 13.992 0.228 12.344 0.308 24.688 0.26 37.056-0.088 27.616-0.136 28.9 24.32 28.96h4.312c150.612-0.1 301.232-0.1 451.84-0.1 3.412 0 6.856 0.04 10.24 0.436 12.88 1.5 17.98-2.832 18.08-15.884 0.12-16.62 0.008-33.232 0.116-49.844 0.064-10.62-4.732-15.072-15.704-15.036-110.812 0.46-221.624 0.772-332.432 0.772-11.472 0-17.208-6.468-17.208-19.404V353.816c-0.6-19.224-3.184-33.256-7.76-42.1-9.384-14.176-18.856-28.3-28.16-42.52-5.06-7.744-11.7-11.672-21.292-11.548z m358.08 0.056c-15.996-0.804-25.344 6.28-32.692 19.36-6.68 11.912-14.6 23.104-21.68 34.804-6.284 10.38-15.428 13.42-27.048 13.32-56.24-0.48-112.48-0.56-168.72-0.668-11.584-0.024-17.32 5.6-17.2 16.864l-0.176 39.82c0 12.24 5.856 18.356 17.56 18.336 41.332-0.068 82.668-0.016 123.988-0.016v-0.216c41.336 0 82.664 0.192 124-0.104 13.92-0.108 29.08-2.04 35.328-16.088 16.148-36.4 30.76-73.496 45.32-110.564 4.42-11.28 1.052-14.848-10.94-14.812-22.6 0.088-45.212 1.1-67.744-0.036z" fill="#E62119"></path></svg>