<svg viewBox="0 0 1024 1024" version="1.1" xmlns="http://www.w3.org/2000/svg"><path d="M305.6 524.8v-71.1c0-3.9-0.9-7-2.9-9.2-2.1-2.2-5.2-3.5-9.8-3.5h-26.7c-2.8 0-5.7 1.3-7.8 3.4-1.8 1.9-3.1 4.4-3.1 7.3v72.7c0 3.8 1.4 6.7 3.4 8.5 2.1 2 5 3 7.8 3h27.3c3.3 0 6.5-1.2 8.6-3.3 2-1.9 3.2-4.6 3.2-7.8z m-54.3-74.3c1-2.5 0.6-4.9-0.8-6.7s-3.5-2.9-6.1-2.9h-19.3c-3.2 0-6 1.1-8 3-1.8 1.8-2.9 4.2-2.9 7.2v84.8h10V452c0-1.8 1.8-3.4 3.5-3.4h12.1c1 0 1.4 0.8 1.1 1.7-2.3 7-6.3 15.7-10.3 24.1 6.1 8.8 11.3 19.2 10.5 29.5-0.1 2.2-2 4.2-4.4 4.2h-12.5v7.8h14.6c4.3 0 7.8-1.8 9.9-4.8 2.1-3 3-7.1 2.6-12-0.7-7-4-16-10.2-24.7 3.5-7.3 7.5-16.6 10.2-23.9z m44.2 33h-29.9v-30.4c0-2.2 2.1-4.4 4.2-4.4h21.5c2.1 0 4.2 2 4.2 3.9v30.9z m0 40.6c0 1.9-1.8 4-3.5 4h-22.6c-1.7 0-3.8-1.8-3.8-4v-32.5h29.9v32.5z m132.4 7.1c-8.5-6.1-17.1-12.4-25-19.7 7.5-7 14.5-14.9 20.1-23.1h-12.8c-3.9 6-8.6 12-13.9 17-4.3-4.1-9.2-9.1-12.9-14.2v-7.4l27.1-0.1c3.7 0 6.1-1.4 7.7-3.4 1.4-1.8 2.1-4.2 2.1-6.5v-18.2c0-2.9-1-5.2-2.8-6.9-1.7-1.6-4.2-2.5-7.3-2.5H382c1-1.7 2.4-4.7 3.1-6.8H373c-0.7 2-1.9 4.9-2.8 6.8h-24.1c-2.7 0-4.9 0.9-6.4 2.2-2.1 1.9-3.1 4.7-3.1 7.5v17.6c0 3.2 1 5.7 2.7 7.3 1.9 1.9 4.7 2.9 7.8 2.9h26.3v42.1c0 1.6-1.1 2.8-2.6 2.8h-16v7.5h19.9c2.7 0 5.1-1.2 6.8-3.3 1.3-1.7 2.1-3.9 2.1-6.2v-21.4c6.5 7.5 18.3 18.5 28.1 25.9h16.2zM369 495.6c-1.2-1.8-3.4-2.9-6.1-2.9h-31.1v7.2h26.1c0.7 0 0.9 0.5 0.5 1l-0.1 0.1c-6.9 9.5-17.7 20.5-29.1 30.2h13.9c9.3-8.4 19.5-19.7 25.5-28.3 1.9-2.6 1.7-5.3 0.4-7.3z m41-34.7h-63.2v-4.7c0-1.3 1.2-2.8 2.6-2.8h57.9c1.6 0 2.8 1.1 2.8 2.5v5z m0 12.7c0 1.4-1 2.5-2.7 2.5h-57.7c-1.6 0-2.9-1.3-2.9-2.7V468H410v5.6z m138.1-13.5v-7.9h-42.7c-1.8-2.8-4.5-8.9-5.7-12.9h-11c1 3.7 3.5 9.9 5 12.9h-42v7.9h42.8v12.6h-28.1c-2.3 0-4.7 1-6.4 2.4-2 1.8-3.3 4.1-3.3 6.7v44.6h10.2V483c0-1.4 1.3-2.4 2.6-2.4h25.1v55.8h10.3v-55.8h25.3c1.2 0 2.3 1.1 2.3 2.2v32c0 1.9-1.3 3.2-2.9 3.2h-15.9v8.3h20.6c2.4 0 4.7-0.9 6.2-2.5 1.6-1.6 2.4-3.7 2.4-6.1v-34.1c0-2.8-0.9-5.3-2.3-7.2-1.8-2.2-4.4-3.7-7.7-3.7h-28.2v-12.6h43.4z m96.6 32.6c-4.3-4.7-7.4-12-10.1-18.1h-10.3c1.4 4.8 5 13.2 7.7 18.1h12.7z m18.8-37.3V448h-40.1c-1.3-2-3.3-6.1-4.3-8.4h-11.4c0.9 2.1 2.9 6.3 4 8.4h-42v7.4h20l2.1 3.7c1.6 2.7 3.4 5.8 4.8 7.8h-12.2c-2.8 0-5.4 0.8-7.4 2.2-2.1 1.6-3.4 3.8-3.4 7v60.1h10.1v-59c0-1.8 1.6-2.7 3.2-2.7H647c1.7 0 2.8 1.1 2.8 2.8v49.2c0 1.4-0.9 2.1-2.1 2.1h-12.8v7.5h14.7c4.2 0 6.8-1.2 8.3-3.1 1.3-1.8 1.9-4.1 1.9-6.8v-48.3c0-3.4-0.9-6.1-2.8-8-1.9-2-5-3-9.2-3H637l0.9-1.5c1.9-3.2 4.3-7.3 5.7-10h19.9z m-53.9 19.1h-10.3c-3.1 6.3-5.8 13.7-10.5 18.5h13.3c2.5-4 6.9-13.7 7.5-18.5z m29.8 44.4v-17.3c0-2.3-0.8-4.2-2.1-5.7-1.3-1.4-3.2-2.3-5.5-2.3h-29.9c-2.4 0-4.3 0.7-5.7 1.8-1.8 1.4-2.6 3.7-2.6 6.2v17.3c0 2 0.8 3.8 2 5.2 1.4 1.6 3.4 2.5 5.9 2.5H631c3.1 0 5.5-1 7-2.9 0.8-1.2 1.4-2.8 1.4-4.8z m-7.3-63.5c-1.9 4-4.4 8.2-6.9 11.5h-17c-2.4-2.7-5.9-8.4-7.4-11.5h31.3z m-2.2 61.7c0 1.2-0.9 2.1-2.1 2.1h-22.1c-1.4 0-2.4-1-2.4-2.3v-13.4c0-1.2 1-2.3 2.1-2.3h22.3c1.1 0 2.2 1.1 2.2 2.3v13.6z m151.4-61.2h-9.5c-2 18.6-5 37.1-11.1 54.3h9.9c5.6-17.2 8.6-35.7 10.7-54.3z m3.6 80.4v-7.6h-30.4v-89.3h-10v89.2H729v-89.2h-10.3v89.2h-30.3v7.8l96.5-0.1z m-71.5-26.1c-5.7-17.4-9.2-35.6-11.6-54.3h-9.4l0.6 3.9c2.5 17 5.5 35.2 10.9 50.4h9.5z m188.1-32.9v-26c0-2.8-0.9-5.2-2.4-7.1-1.9-2.2-4.7-3.7-8.1-3.7h-31.3c-3.3 0-5.9 1.2-7.7 3.1-2 2.1-2.9 5.1-2.9 8.5v73.6c0 2.8 1.2 5.5 3.1 7.4 1.8 1.7 4.1 2.8 6.7 2.8h18.6v-7.3h-15.3c-1.6 0-3.3-1.6-3.3-3.3v-37.2h31.8c3.9 0 6.7-1.2 8.5-3.4 1.5-1.8 2.3-4.3 2.3-7.4z m-55-18v-7.4h-21.7c1.3-4.1 2.7-8.6 3.3-12.6H819c-2.8 10.6-6.3 21-12.1 30.5h10.2c1.9-3.1 3.7-7 5.1-10.4h24.3zM907 536c-8.2-8.3-10.8-10.1-14.4-16.2 9.3-11.3 14.7-18.9 16.2-22.7H898c-2.3 4.9-7.1 9.9-11.2 14.1-3.8-5-7-14.2-8.6-18.5h-10.7c5.7 15.7 12.4 30.7 25 43.3H907z m-60.3-32.2v-7.3h-14.9v-16h12.6V473h-33.2v7.5h10.9v16h-13.9v7.3h13.9V526c0 3.2 0.9 5.7 2.3 7.3 1.7 1.9 4.2 2.8 7.2 2.8h13.8v-7.4h-10.5c-1.4 0-3.1-1.4-3.1-3.2v-21.7h14.9z m44.8-42.9h-32.6v-9.2c0-1.8 1.7-3.5 3.7-3.5h25.6c1.8 0 3.3 1.8 3.3 3.3v9.4z m0 16.2c0 2.1-1.7 3.8-3.5 3.8h-29.1v-12.8h32.6v9z m128-27V442h-59.4v8.1h59.4zM957 439.6h-12.1c-4.8 8.8-10.9 18.1-18.7 25.6h14.1c6.9-8 11.9-16.7 16.7-25.6z m66.6 37.1v-8H957v8h40.9v48.2c0 1.9-1.4 3.2-2.8 3.2h-14v8.2h18.4c2.2 0 4.3-0.9 5.9-2.3 1.8-1.6 2.9-3.9 2.9-6.3v-51h15.3z m-68.3-10.5c-3.7 9.2-7.7 18.5-13.2 27h5.4v43.1h-10.3v-37.8H926c8.4-9.8 13.5-21 18.1-32.3h11.2zM230.1 573.1V586H224v-13.1l-10.5-16.8h7.1l6.5 11.7 6.9-11.7h7.2l-11.1 17z m35.3 12.8l-2.8-6.9h-11.2l-2.8 6.9h-7.3l12.1-29.9h7.2l12.1 29.9h-7.3z m-8.2-22.4l-3.7 11.2h7.4l-3.7-11.2z m37.3 22.4l-12-21.9v21.9h-6V556h8.1l11.8 22.3V556h6v29.9h-7.9z m23.4 0c-2.2 0-4-0.4-5.6-1.1-1.5-0.8-2.8-1.8-3.7-3.1-1-1.3-1.6-2.9-2.1-4.7-0.4-1.8-0.6-3.8-0.6-5.8 0-1.1 0.1-2.2 0.2-3.4s0.4-2.3 0.7-3.4 0.8-2.1 1.4-3.1c0.6-1 1.3-1.8 2.2-2.5 1.3-1 2.7-1.7 4.3-2.1 1.6-0.3 3.2-0.5 4.7-0.5h12.4v5.3h-11.7c-1.5 0-2.7 0.2-3.7 0.6s-1.7 1-2.3 1.8-0.9 1.7-1.2 2.9c-0.2 1.1-0.3 2.4-0.3 3.9 0 0.5 0 1.1 0.1 1.7 0 0.7 0.1 1.3 0.2 2s0.2 1.3 0.4 1.9c0.2 0.6 0.4 1.1 0.6 1.6 0.3 0.6 0.8 1.1 1.2 1.5 0.5 0.4 1 0.6 1.6 0.9 0.6 0.2 1.1 0.3 1.7 0.4 0.6 0.1 1.2 0.1 1.9 0.1h5.5v-7.1h-7.9v-5.3h13.9v17.7h-13.9z m32.8 0c-1.8 0-3.6-0.2-5.4-0.5-1.8-0.4-3.5-1.1-4.9-2.2-0.9-0.7-1.7-1.5-2.3-2.4s-1.1-1.9-1.5-3c-0.4-1.1-0.6-2.1-0.8-3.3-0.2-1.1-0.2-2.2-0.2-3.3 0-5 1.2-8.8 3.6-11.3 2.4-2.6 6.1-3.8 11.3-3.8 1.2 0 2.4 0.1 3.7 0.3 1.2 0.2 2.4 0.5 3.6 1 1.1 0.4 2.2 1 3.1 1.8s1.7 1.7 2.4 2.8c0.7 1.2 1.2 2.7 1.6 4.3 0.4 1.6 0.5 3.2 0.5 4.6 0 1.8-0.3 3.6-0.8 5.2s-1.4 3.2-2.6 4.6h5.1v5.3h-16.4z m7-16c0-1.3-0.1-2.6-0.4-3.8-0.2-1.2-0.6-2.3-1.2-3.2-0.6-0.9-1.3-1.7-2.3-2.2-1-0.6-2.1-0.8-3.5-0.8-1.5 0-2.8 0.3-3.7 0.8-1 0.5-1.7 1.3-2.3 2.2-0.5 0.9-0.9 2-1.1 3.2-0.2 1.2-0.3 2.6-0.3 3.9 0 1.4 0.1 2.7 0.3 4 0.2 1.3 0.6 2.4 1.2 3.3 0.6 0.9 1.3 1.7 2.3 2.3 1 0.6 2.2 0.8 3.7 0.8s2.8-0.3 3.7-0.9c1-0.6 1.7-1.4 2.2-2.3 0.5-1 0.9-2.1 1.1-3.3 0.2-1.3 0.3-2.7 0.3-4z m40.7 3.6c0 0.6 0 1.2-0.1 1.8s-0.1 1.3-0.2 1.9-0.2 1.3-0.4 1.9c-0.2 0.6-0.4 1.2-0.7 1.7-0.5 1-1.2 1.8-2.1 2.5-0.9 0.7-1.8 1.2-2.9 1.6-1.1 0.4-2.1 0.7-3.3 0.8s-2.2 0.2-3.3 0.2-2.1-0.1-3.1-0.2c-1.1-0.1-2.1-0.3-3-0.6-1-0.3-1.9-0.7-2.7-1.3-0.8-0.6-1.6-1.3-2.2-2.2-0.4-0.6-0.7-1.2-1-1.8-0.2-0.6-0.4-1.3-0.5-1.9-0.1-0.6-0.2-1.3-0.2-2V556h6.3v17.8c0 0.7 0 1.4 0.1 2.1s0.3 1.4 0.6 2c0.3 0.5 0.6 1 1.1 1.4 0.5 0.4 1 0.7 1.5 0.9 0.5 0.3 1.1 0.4 1.7 0.5 0.6 0.1 1.2 0.2 1.7 0.2 0.7 0 1.6-0.1 2.5-0.3 0.9-0.2 1.7-0.6 2.3-1 0.4-0.4 0.8-0.8 1-1.2 0.2-0.4 0.4-0.9 0.5-1.4 0.1-0.5 0.2-1 0.2-1.6V556h6.3v17.5z m25.9 12.4l-2.8-6.9h-11.2l-2.8 6.9h-7.3l12.1-29.9h7.2l12.1 29.9h-7.3z m-8.5-22.4l-3.7 11.2h7.4l-3.7-11.2z m37.6 22.4l-12-21.9v21.9h-6V556h8.1l11.8 22.3V556h6v29.9h-7.9z m38.2 0c-1.1 0-2.2 0-3.2-0.1s-2-0.3-3.1-0.7c-1.5-0.5-2.7-1.3-3.6-2.3-0.9-1-1.7-2.1-2.3-3.4-0.6-1.3-1-2.6-1.2-4.1-0.2-1.4-0.3-2.9-0.3-4.3 0-1 0.1-2.1 0.2-3.2s0.4-2.2 0.7-3.2c0.3-1 0.7-2 1.2-3 0.5-0.9 1.1-1.8 1.9-2.6 0.6-0.7 1.4-1.2 2.2-1.6 0.8-0.4 1.6-0.7 2.5-0.9s1.8-0.4 2.7-0.5c0.9-0.1 1.8-0.1 2.7-0.1h10v5.3h-9.3c-1.6 0-2.8 0.2-3.9 0.6s-1.8 1-2.4 1.8c-0.6 0.8-1 1.7-1.2 2.9-0.2 1.1-0.4 2.4-0.4 3.8 0 0.5 0 1.1 0.1 1.8 0 0.7 0.1 1.3 0.2 2s0.2 1.3 0.4 1.9c0.2 0.6 0.4 1.1 0.7 1.6 0.4 0.6 0.8 1.1 1.3 1.5 0.5 0.4 1 0.7 1.6 0.9s1.2 0.3 1.8 0.4 1.3 0.1 1.9 0.1h9.1v5.3h-10.3z m15.8 0V556h5.5v29.9h-5.5z m27.1-24.5v24.5h-6.3v-24.5h-9.6v-5.3h25.9v5.3h-10z m28.4 11.7V586h-6.1v-13.1l-10.5-16.8h7.1l6.5 11.7 6.9-11.7h7.2l-11.1 17z m39.6 12.8c-1.1 0-2.2 0-3.2-0.1s-2-0.3-3.1-0.7c-1.5-0.5-2.7-1.3-3.6-2.3-0.9-1-1.7-2.1-2.3-3.4-0.6-1.3-1-2.6-1.2-4.1-0.2-1.4-0.3-2.9-0.3-4.3 0-1 0.1-2.1 0.2-3.2s0.4-2.2 0.7-3.2c0.3-1 0.7-2 1.2-3s1.1-1.8 1.9-2.6c0.6-0.7 1.4-1.2 2.2-1.6s1.6-0.7 2.5-0.9 1.8-0.4 2.7-0.5c0.9-0.1 1.8-0.1 2.7-0.1h10v5.3h-9.3c-1.6 0-2.8 0.2-3.9 0.6-1 0.4-1.8 1-2.4 1.8-0.6 0.8-1 1.7-1.2 2.9-0.2 1.1-0.4 2.4-0.4 3.8 0 0.5 0 1.1 0.1 1.8 0 0.7 0.1 1.3 0.2 2s0.2 1.3 0.4 1.9 0.4 1.1 0.7 1.6c0.4 0.6 0.8 1.1 1.3 1.5s1 0.7 1.6 0.9 1.2 0.3 1.8 0.4c0.6 0.1 1.3 0.1 1.9 0.1h9.1v5.3h-10.3z m43.6-14.5c0 4.7-1.2 8.3-3.5 10.8-2.4 2.5-6 3.8-10.8 3.8-0.9 0-1.8-0.1-2.7-0.2-0.9-0.1-1.9-0.3-2.8-0.5-0.9-0.2-1.8-0.5-2.7-0.9s-1.6-0.8-2.3-1.3c-0.9-0.7-1.7-1.5-2.3-2.4-0.6-0.9-1.1-1.9-1.5-2.9s-0.6-2.1-0.8-3.2-0.2-2.2-0.2-3.3c0-4.9 1.2-8.7 3.6-11.2s6.1-3.9 11.2-3.9c5.2 0 8.9 1.3 11.3 3.9 2.3 2.5 3.5 6.3 3.5 11.3z m-7.4-1.5c0-1.4-0.1-2.7-0.3-3.9-0.2-1.2-0.6-2.3-1.1-3.2-0.6-0.9-1.3-1.7-2.3-2.2-1-0.5-2.2-0.8-3.7-0.8s-2.8 0.3-3.8 0.8-1.7 1.3-2.3 2.2c-0.5 0.9-0.9 2-1.1 3.3s-0.3 2.6-0.3 4 0.1 2.7 0.3 4 0.6 2.3 1.1 3.3c0.6 0.9 1.3 1.7 2.3 2.3s2.2 0.8 3.8 0.8c1.5 0 2.8-0.3 3.7-0.8s1.7-1.3 2.2-2.3 0.9-2.1 1.1-3.3c0.3-1.5 0.4-2.8 0.4-4.2z m40.2 16v-22.4l-7.7 22.4h-6.4l-7.3-22.4v22.4h-5.9V556h9.2l7.3 23.3 7.7-23.3h9.2v29.9h-6.1z m38.8 0v-22.4l-7.7 22.4h-6.4l-7.3-22.4v22.4h-5.9V556h9.2l7.3 23.3 7.7-23.3h9.2v29.9h-6.1z m27.3 0c-1.3 0-2.8-0.1-4.2-0.2-1.5-0.1-2.8-0.4-4.1-0.9-1.4-0.5-2.6-1.3-3.5-2.3-0.9-1-1.7-2.2-2.3-3.5-0.6-1.3-1-2.7-1.2-4.1s-0.4-2.8-0.4-4.2c0-1.3 0.1-2.5 0.4-3.8s0.6-2.5 1.1-3.7c0.5-1.2 1.2-2.3 2-3.2 0.8-1 1.8-1.8 2.9-2.5 1-0.6 2.2-1 3.3-1.2 1.2-0.2 2.3-0.2 3.5-0.2h10.8v5.3H743c-0.7 0-1.3 0.1-2 0.2s-1.2 0.4-1.8 0.6-1.1 0.7-1.5 1.3c-0.5 0.7-0.9 1.5-1 2.3-0.1 0.9-0.3 1.7-0.3 2.5h16.8v5.3h-16.8c0.1 1.4 0.4 2.6 0.8 3.5 0.4 0.9 1 1.6 1.8 2.1 0.7 0.5 1.6 0.8 2.7 1s2.2 0.3 3.5 0.3h8v5.3H745z m33 0c-0.2-0.7-0.4-1.4-0.4-2.1-0.1-0.7-0.1-1.4-0.2-2.2-0.2-1.4-0.4-2.5-0.7-3.4s-0.8-1.6-1.4-2.2c-0.6-0.5-1.3-0.9-2.2-1.1-0.9-0.2-2-0.3-3.3-0.3H765v11.3h-6V556h13.8c1 0 2.1 0 3.2 0.1s2.1 0.3 3.1 0.6c1.7 0.5 3 1.5 3.9 2.8 0.9 1.4 1.4 3 1.4 4.8 0 2-0.4 3.8-1.3 5.4-0.8 1.6-2.2 2.7-4.1 3.3 0.6 0.2 1.1 0.5 1.5 0.7s0.8 0.5 1.2 0.8c0.3 0.3 0.6 0.7 0.9 1.1s0.5 1 0.8 1.6c0.3 0.7 0.4 1.4 0.5 2.1 0.1 0.7 0.2 1.4 0.2 2.2 0.1 0.7 0.1 1.5 0.2 2.2 0.1 0.7 0.2 1.4 0.4 2.1H778z m-0.7-20.7c0-1.4-0.4-2.4-1.2-2.9s-1.9-0.7-3.2-0.7h-8.5v7.5h8.5c1.4 0 2.5-0.3 3.3-0.8 0.7-0.6 1.1-1.6 1.1-3.1z m24.8 20.7c-1.1 0-2.2 0-3.2-0.1s-2-0.3-3.1-0.7c-1.5-0.5-2.7-1.3-3.6-2.3-0.9-1-1.7-2.1-2.3-3.4-0.6-1.3-1-2.6-1.2-4.1-0.2-1.4-0.3-2.9-0.3-4.3 0-1 0.1-2.1 0.2-3.2s0.4-2.2 0.7-3.2c0.3-1 0.7-2 1.2-3 0.5-0.9 1.1-1.8 1.9-2.6 0.6-0.7 1.4-1.2 2.2-1.6s1.6-0.7 2.5-0.9 1.8-0.4 2.7-0.5c0.9-0.1 1.8-0.1 2.7-0.1h10v5.3h-9.3c-1.6 0-2.8 0.2-3.9 0.6-1 0.4-1.8 1-2.4 1.8-0.6 0.8-1 1.7-1.2 2.9-0.2 1.1-0.4 2.4-0.4 3.8 0 0.5 0 1.1 0.1 1.8 0 0.7 0.1 1.3 0.2 2s0.2 1.3 0.4 1.9 0.4 1.1 0.7 1.6c0.4 0.6 0.8 1.1 1.3 1.5 0.5 0.4 1 0.7 1.6 0.9 0.6 0.2 1.2 0.3 1.8 0.4 0.6 0.1 1.3 0.1 1.9 0.1h9.1v5.3h-10.3z m15.9 0V556h5.5v29.9H818z m35.2 0l-2.8-6.9h-11.2l-2.8 6.9h-7.3l12.1-29.9h7.2l12.1 29.9h-7.3z m-8.5-22.4l-3.7 11.2h7.4l-3.7-11.2z m30.9 22.4c-1.8 0-3.4-0.2-5.1-0.7-1.6-0.4-3-1.4-4.2-2.8-0.9-1.2-1.5-2.5-1.8-4.1-0.3-1.5-0.4-3-0.4-4.5v-17.9h6.3v17.7c0 0.3 0 0.6 0.1 0.9 0 0.9 0.1 1.7 0.2 2.5s0.5 1.5 1.2 2.2c0.4 0.4 0.9 0.6 1.4 0.8 0.5 0.2 1.1 0.3 1.7 0.4 0.6 0.1 1.2 0.1 1.8 0.1h7.7v5.3h-8.9z m51.4-22c0 0.7-0.1 1.4-0.3 2.2s-0.5 1.4-0.8 2.1c-0.4 0.6-0.8 1.2-1.3 1.7s-1.1 0.9-1.8 1.2c1.5 0.7 2.5 1.6 3.2 2.8 0.7 1.2 1 2.6 1 4.2 0 1.1-0.2 2.1-0.5 3.2s-0.9 2-1.7 2.7c-1 0.9-2.1 1.4-3.3 1.7-1.3 0.2-2.5 0.3-3.8 0.3h-16.6v-29.9h18.2c0.6 0 1.2 0.1 1.8 0.2 0.9 0.2 1.7 0.5 2.5 0.9 0.7 0.4 1.4 1 1.9 1.7s0.9 1.4 1.2 2.3 0.3 1.8 0.3 2.7z m-7.4 1.3c0-0.7-0.1-1.3-0.4-1.8-0.2-0.5-0.6-0.8-1-1.1-0.4-0.3-0.9-0.4-1.4-0.5-0.5-0.1-1.1-0.1-1.6-0.1h-8.6v7.5h9c1.1 0 2-0.3 2.8-1 0.9-0.7 1.2-1.7 1.2-3z m0 11.2c0-0.7-0.1-1.3-0.4-1.8-0.2-0.5-0.6-0.8-1-1.1-0.4-0.3-0.9-0.4-1.4-0.5-0.5-0.1-1.1-0.1-1.6-0.1h-8.6v7.5h9c1.1 0 2-0.3 2.8-1 0.9-0.7 1.2-1.7 1.2-3z m33.4 9.5l-2.8-6.9H939l-2.8 6.9h-7.3L941 556h7.2l12.1 29.9H953z m-8.6-22.4l-3.7 11.2h7.4l-3.7-11.2z m39.5 22.4l-12-21.9v21.9h-6V556h8.1l11.8 22.3V556h6v29.9h-7.9z m28.1-15.1l11.1 15.1h-7.8l-10.1-15.1 10.7-14.8h7.8l-11.7 14.8z m-12.9 15.1V556h5.5v29.9h-5.5z" fill="#433F3F"></path><path d="M77.8 598.7v-34.4c0-21.4-6-38.3-33.4-51.7-18.4-9-32.8-19.3-43.4-31.2v58c0 23.3 10 42.2 38.4 49.9 18.9 5.2 31.7 8.3 38.4 9.4z" fill="#AA894C"></path><path d="M77.8 425v34.4c0 21.4-6 38.3-33.4 51.7C26 520 11.6 530.4 1 542.2v-58c0-23.2 10-42.1 38.4-49.8 18.9-5.2 31.7-8.3 38.4-9.4z" fill="#B8985C"></path><path d="M85.7 425v34.4c0 21.4 6 38.3 33.4 51.7 18.3 8.9 32.7 19.3 43.3 31.2v-58c0-23.3-10-42.2-38.4-49.9-18.8-5.2-31.6-8.3-38.3-9.4z" fill="#2D538A"></path><path d="M85.7 598.7v-34.4c0-21.4 6-38.3 33.4-51.7 18.3-8.9 32.7-19.3 43.3-31.2v58c0 23.3-10 42.2-38.4 49.9-18.8 5.2-31.6 8.3-38.3 9.4z" fill="#1E4277"></path></svg>