<svg viewBox="0 0 1024 1024" version="1.1" xmlns="http://www.w3.org/2000/svg"><path d="M0 0m224 0l576 0q224 0 224 224l0 576q0 224-224 224l-576 0q-224 0-224-224l0-576q0-224 224-224Z" fill="#FFFFFF"></path><path d="M495.028 875.272v-144.68c0-90.184-25.28-161.428-140.74-217.84C277.32 475.136 216.56 431.404 172 381.548v244.264c0 98.06 42.02 177.572 161.516 210.08 79.664 21.672 133.5 34.8 161.512 39.376z" fill="#AA894C"></path><path d="M495.028 144v144.68c0 90.184-25.28 161.428-140.74 217.84C277.32 544.136 216.56 587.868 172 637.72V393.456c0-98.06 42.02-177.572 161.516-210.08 79.664-21.672 133.5-34.8 161.512-39.376z" fill="#B8985C"></path><path d="M528.536 144v144.68c0 90.184 25.28 161.428 140.74 217.84 76.972 37.612 137.736 81.344 182.292 131.2V393.456c0-98.06-42.02-177.572-161.52-210.08-79.66-21.672-133.5-34.8-161.512-39.376z" fill="#2D538A"></path><path d="M528.536 875.272v-144.68c0-90.184 25.28-161.428 140.74-217.84 76.972-37.612 137.736-81.344 182.292-131.2v244.264c0 98.06-42.02 177.572-161.52 210.08-79.66 21.672-133.5 34.8-161.512 39.376z" fill="#1E4277"></path></svg>