<svg viewBox="0 0 1024 1024" version="1.1" xmlns="http://www.w3.org/2000/svg"><path d="M387.315 504.691c1.68 0 3.253-1.255 3.253-3.191v-5.91h-20.349v9.101h17.096z m-26.053-14.436h38.287v11.92c0 3.653-2.807 8.005-8.037 8.005h-30.25v-19.925z m0.39-3.63v-4.852h36.335v4.853h-36.335z m0-8.594v-4.853h36.335v4.853h-36.335z m23.692-13.698h14.205v5.216h-38.287v-5.216h13.943v-2.207h10.14v2.207z m-34.683-1.817h9.429l-6.536 14.884h2.347v32.78h-9.886v-28.633h-5.46v-5.507h1.491c1.824 0 2.93-0.916 3.612-2.08 0.012-0.048 5.003-11.444 5.003-11.444z m-163.04 0v2.171h17.755v5.256h-41.431v32.217c0 3.66-2.781 8.02-7.96 8.02h-7.65v-5.499h1.352c1.664 0 3.222-1.257 3.222-3.197v-36.797h23.67v-2.17h11.042z m123.748 0l-1.21 2.16h23.364v12.202h-9.156v-6.964h-17.166l-4.596 8.174h8.907l4.648 10.494h0.255c1.82 0 3.404-1.05 4.128-2.735l2.188-4.983h9.736l-3.564 8.097c-1.203 2.747-3.67 5.007-7.667 5.007h-2.668l2.686 6.116c1.388 3.387 3.445 4.586 5.989 4.586h6.28v5.51h-12.767c-4.068 0-6.588-2.912-7.768-5.795L301.9 479.328l-4.703 8.34c-0.551 0.973-1.986 2.812-4.334 4.111v9.693c0 1.94 1.577 3.198 3.261 3.198h10.472v5.493H291.6c-5.236 0-8.023-4.366-8.023-8.015v-8.892h-5.532v-5.873h4.085c2.058 0 4.934-1.204 6.31-3.636l7.803-13.833h-9.007v6.697h-9.18v-11.936h21.134l1.215-2.159h10.964z m-95.484 41.012l3.931-10.929h9.783l-4.396 12.312c-1.568 3.762-4.756 5.27-7.426 5.27h-5.369v-5.482h1.68c0.725 0 1.485-0.474 1.797-1.171z m15.748-41.012l-0.664 2.171h36.527v5.256h-38.128s-3.178 10.304-3.421 11.129c-0.338 1.192 0.468 2.574 1.909 2.574h9.298v-6.88h10.145v6.88h20.197v5.57h-20.197v12.944c0 3.66-2.798 8.02-8.028 8.02h-9.352v-5.499h3.962c1.69 0 3.273-1.257 3.273-3.197v-12.267h-17.16c-3.588 0-5.966-3.56-5.017-6.633l3.913-12.64h-6.872v-5.257h8.473l0.653-2.17h10.49z m32.773 41.012c0.311 0.697 1.065 1.17 1.795 1.17h1.295v5.482h-4.98c-2.667 0-5.84-1.507-7.41-5.269l-4.41-12.312h9.783l3.927 10.929z m-62.348 53.206c10.567 0 15.859-5.246 15.859-13.585 0-8.808-6.26-13.135-15.86-13.135h-1.195v26.72h1.196z m0.322-32.489c14.394 0 25.265 6.559 25.265 18.904 0 11.336-8.955 19.384-23.976 19.384h-11.967v-38.288h10.678z m48.971 16.996c3.786 0 6.527-2.35 6.527-5.81 0-3.204-2.782-5.786-6.527-5.786h-8.613v11.596h8.613z m10.503 4.023c1.033 0.802 1.7 1.9 2.74 4.053l5.246 13.216h-9.57s-4.471-11.696-4.483-11.732c-0.933-2.421-3.68-3.673-5.8-3.673h-7.249v15.405h-9.232v-38.288h18.258c5.128 0 9.233 0.801 11.986 2.427 2.74 1.626 4.111 4.048 4.111 7.549 0 6.492-6.007 8.883-9.097 9.417 1.37 0.552 2.387 1.092 3.09 1.626z m-113.128-2.112c0-12.343 11.716-18.907 25.259-18.907h10.684v5.774h-10.368c-9.572 0-15.863 4.32-15.863 13.133 0 8.331 5.325 13.583 15.863 13.583h1.19V546.28h-6.503v-5.762h15.681v22.016h-11.967c-15.014 0-23.976-8.047-23.976-19.381z m149.173-13.132c-9.644 0-15.953 4.327-15.953 13.129 0 8.345 5.349 13.591 15.953 13.591h8.666v5.793h-10.28c-15.111 0-24.1-8.042-24.1-19.384 0-12.34 10.91-18.904 25.396-18.904h8.984v5.775h-8.666zM424.5 562.533h2.315V462.516H424.5z" fill="#C7521C"></path><path d="M457.762 490.619v-24.977h26.958v20.913c0 2.461-0.99 5.176-2.932 7.2 1.941 2.034 2.932 4.744 2.932 7.205v9.015c0 4.704-3.615 10.342-10.382 10.342h-5.916v6.663h-10.66V490.62z m16.303 14.774v-4.168c0-2.507-2.056-4.133-4.229-4.133h-1.414v16.751h1.414c2.173 0 4.23-1.62 4.23-4.121v-4.33z m-5.643-32.88v17.91h1.414c2.173 0 4.23-1.62 4.23-4.11v-13.8h-5.644z m45.57-6.871v5.388h15.657v6.26h-15.658v10.275h15.658v6.27h-15.658v26.696h0.197c2.162 0 4.21-1.648 4.21-4.126V500.36h11.251v16.287c0 4.714-3.614 10.333-10.361 10.333h-32.224v-26.62h11.252v20.171h4.417v-26.695h-15.669v-6.27h15.67v-10.277h-15.67v-6.259h15.67v-5.388h11.257z m510.272 21.887h-14.645v32.246h14.645v7.205H982.46v-7.205h14.286v-32.246H982.46v-6.664h14.286v-15.223h12.873v15.223h14.645v6.664z m-35.163 23.08h-6.292c-3.123 0-6.838-1.77-8.68-6.179l-2.44-6.796v29.346h-10.84v-21.512c-0.896 0.219-1.883 0.357-2.991 0.357l-7.435-0.04v-6.86h3.186c1.769 0 2.624-0.928 4.335-2.813l11.362-20.936h-18.883v-6.733h10.426v-2.801h10.84v2.801h10.46v6.79l-8.48 14.792h6.04l4.616 12.797c0.35 0.824 1.234 1.383 2.084 1.383h2.692v6.404z m-178.545 16.762v-25.786h49.227v15.406c0 4.735-3.592 10.38-10.337 10.38h-38.89z m11.524-18.89v11.792h21.982c2.173 0 4.197-1.627 4.197-4.14v-7.653h-26.18z m-10.743-11.975v-6.25h47.664v6.25h-47.664z m0-10.548v-6.251h47.664v6.25h-47.664z m30.2-20.316v2.782h18.246v6.594h-49.227v-6.594h17.935v-2.782h13.046z m-44.619 0h12.075l-8.373 19.182h3.007v42.156h-12.643v-36.823h-6.995v-7.105h1.9c2.335 0 3.764-1.172 4.62-2.667 0.016-0.07 6.41-14.743 6.41-14.743z m130.955 0H939.484v51.01c0 4.709-3.582 10.328-10.291 10.328h-6.887v-7.06h1.383c2.158 0 4.184-1.637 4.184-4.12v-7.775h-14.946v18.955h-12.242v-18.955H885.5v8.627c0 4.709-3.587 10.328-10.28 10.328h-6.841v-7.06h1.337c2.141 0 4.184-1.637 4.184-4.12v-50.158H927.873z m-14.951 18.131h14.95v-11.354h-14.95v11.354z m-27.423 0h15.186v-11.354H885.5v11.354z m0 17.52h15.186v-10.777H885.5v10.777z m27.428 0h14.952v-10.777h-14.952v10.777z m-247.984-35.651l-1.55 2.783h29.956v15.7h-11.753v-8.94H659.63l-5.916 10.513h11.408l5.985 13.497h0.316c2.335 0 4.355-1.337 5.29-3.532l2.795-6.392H692l-4.568 10.42c-1.56 3.521-4.723 6.426-9.841 6.426h-3.42l3.46 7.879c1.773 4.34 4.413 5.913 7.66 5.913h8.058v7.071h-16.384c-5.182 0-8.43-3.752-9.945-7.458l-14.197-32.24-6.025 10.738c-0.706 1.25-2.56 3.613-5.584 5.302v12.454c0 2.49 2.049 4.133 4.19 4.133h13.416v7.06h-19.212c-6.691 0-10.272-5.62-10.272-10.322v-11.44h-7.093v-7.556h5.228c2.645 0 6.34-1.539 8.097-4.686l9.985-17.78H634.03v8.6h-11.776v-15.36h27.086l1.555-2.783h14.048z m106.166 0v2.784h4.285v6.761h-4.285v41.47c0 4.703-3.598 10.323-10.34 10.323H739.45v-7.061h15.109c2.168 0 4.22-1.643 4.22-4.133v-10.001h-3.995c-3.483 0-7.59-1.96-9.63-6.797l-5.704-15.903h12.675l5.098 14.105c0.288 0.657 0.894 1.159 1.557 1.39v-23.393h-19.33v-6.761h19.33v-2.784h12.329z m-39.197 0v2.783h4.803v6.76h-4.803v7.896h4.803v7.055h-4.803v36.844h-11.62v-36.844h-1.298c-2.168 0-4.21 1.636-4.21 4.132v32.712h-10.887v-33.577c0-4.697 3.599-10.322 10.346-10.322h6.049v-7.895h-16.395v-6.76h16.395v-2.784h11.62z m-149.666 0v2.772h29.058v6.772h-29.058v14.984h26.877v6.766h-26.877v14.996h29.058v6.76h-29.058v8.288h-13.008v-8.287h-29.04v-6.76h29.04v-14.997h-26.871v-6.766h26.871v-14.984h-29.04v-6.772h29.04v-2.772h13.008z m333.834 86.667c0.505 0.37 0.836 0.902 1.342 1.926l2.527 6.345h-4.636s-2.156-5.593-2.173-5.622c-0.448-1.162-1.772-1.77-2.806-1.77h-3.498v7.392h-4.468v-18.363h8.825c2.476 0 4.486 0.393 5.793 1.168 1.325 0.781 2.004 1.938 2.004 3.627 0 3.094-2.91 4.245-4.404 4.51 0.657 0.26 1.162 0.527 1.494 0.787z m-5.078-1.937c1.818 0 3.16-1.134 3.16-2.77 0-1.568-1.348-2.794-3.16-2.794h-4.166v5.564h4.166z m-36.546-8.155s6.424-0.029 6.424 5.369c0 5.392-6.424 5.606-6.424 5.606H868.6v7.388h-4.52v-18.363h10.376z m-1.284 8.152c1.846 0 2.825-1.129 2.825-2.783 0-1.55-0.996-2.777-2.825-2.777H868.6v5.56h4.572z m-73.556 0.92c0-5.925 5.327-9.072 12.41-9.072h4.39v2.777h-4.238c-4.7 0-7.79 2.077-7.79 6.294 0 3.992 2.604 6.526 7.79 6.526h4.238v2.766h-5.022c-7.387 0-11.778-3.86-11.778-9.292z m133.962-9.072h0.71l7.15 18.363h-4.52l-1.662-4.27h-7.155l-1.673 4.27h-4.525l7.155-18.363h4.52z m-4.415 11.328h5.02l-2.49-6.445-2.53 6.445z m48.287 2.505l5.659-13.833h4.43l-7.533 18.363h-5.665l-7.509-18.363h4.953l5.665 13.833z m-118.646-11.31c0.845 0.786 1.457 1.786 1.894 2.935 0.42 1.16 0.648 2.47 0.648 3.93 0 1.425-0.228 2.724-0.648 3.884-0.437 1.166-1.06 2.155-1.912 2.953-0.833 0.828-1.883 1.454-3.13 1.885-1.248 0.436-2.647 0.643-4.267 0.643-1.656 0-3.06-0.207-4.302-0.643-1.242-0.431-2.274-1.057-3.125-1.885a7.67 7.67 0 0 1-1.895-2.953c-0.425-1.16-0.647-2.459-0.647-3.884 0-1.46 0.222-2.77 0.647-3.93 0.42-1.149 1.067-2.149 1.895-2.936 0.84-0.827 1.871-1.436 3.101-1.867 1.248-0.437 2.67-0.655 4.326-0.655 1.632 0 3.06 0.218 4.308 0.655 1.241 0.431 2.29 1.04 3.107 1.867z m-2.524 9.324c0.21-0.804 0.314-1.62 0.314-2.459 0-0.896-0.104-1.723-0.314-2.528-0.181-0.798-0.484-1.5-0.904-2.091a4.734 4.734 0 0 0-1.638-1.442c-0.641-0.345-1.434-0.529-2.35-0.529-0.926 0-1.725 0.184-2.378 0.529a4.576 4.576 0 0 0-1.62 1.442c-0.426 0.592-0.735 1.293-0.921 2.091-0.181 0.805-0.298 1.632-0.298 2.528 0 0.839 0.117 1.655 0.298 2.46 0.186 0.798 0.495 1.499 0.92 2.125 0.426 0.592 0.957 1.097 1.621 1.442 0.653 0.368 1.452 0.546 2.379 0.546 0.915 0 1.708-0.178 2.349-0.546 0.665-0.345 1.2-0.85 1.638-1.442a6.24 6.24 0 0 0 0.904-2.126z m-19.751-9.325c0.845 0.787 1.48 1.787 1.906 2.936 0.408 1.16 0.641 2.47 0.641 3.93 0 1.425-0.233 2.724-0.641 3.884-0.426 1.166-1.067 2.155-1.912 2.953-0.84 0.828-1.883 1.454-3.13 1.885-1.248 0.436-2.659 0.643-4.268 0.643-1.65 0-3.078-0.207-4.302-0.643-1.247-0.431-2.28-1.057-3.107-1.885-0.851-0.798-1.492-1.787-1.924-2.953-0.425-1.16-0.641-2.459-0.641-3.884 0-1.46 0.216-2.77 0.641-3.93 0.432-1.149 1.073-2.149 1.9-2.936 0.834-0.827 1.86-1.436 3.108-1.867 1.241-0.437 2.675-0.655 4.325-0.655 1.62 0 3.06 0.218 4.302 0.655 1.242 0.431 2.28 1.04 3.102 1.867z m-2.513 9.325c0.204-0.804 0.303-1.62 0.303-2.459 0-0.896-0.099-1.723-0.303-2.528-0.192-0.798-0.501-1.5-0.92-2.091a4.527 4.527 0 0 0-1.621-1.442c-0.648-0.345-1.435-0.529-2.35-0.529-0.938 0-1.725 0.184-2.39 0.529a4.711 4.711 0 0 0-1.615 1.442 5.798 5.798 0 0 0-0.909 2.091 10.437 10.437 0 0 0 0 4.987c0.18 0.799 0.49 1.5 0.91 2.126 0.43 0.592 0.961 1.097 1.614 1.442 0.665 0.368 1.452 0.546 2.39 0.546 0.915 0 1.702-0.178 2.35-0.546 0.67-0.345 1.195-0.85 1.62-1.442 0.42-0.626 0.729-1.327 0.921-2.126z m107.03-9.07v-2.777h15.237v2.777h-5.435v15.586h-4.377v-15.586h-5.425z m51.907-2.777h11.776v2.777h-9.632v5.027H1004v2.777h-8.902v5.016h9.632v2.766h-14.065v-18.363h2.289z m-105.883 0h11.782v2.777h-9.632v5.027h8.89v2.777h-8.89v5.016h9.632v2.766h-14.065v-18.363h2.283z m130.573 7.684c2.58 0.523 6.479 1.551 6.617 5.412 0.144 3.856-3.899 5.568-7.648 5.654-4.596 0.075-8.01-1.27-8.01-1.27l-0.104-2.637s3.11 1.098 6.26 1.098c2.315 0 5.303-0.236 5.246-2.167-0.075-1.924-2.949-2.183-5.529-2.711-2.591-0.53-6.49-1.552-6.617-5.413-0.144-3.867 3.87-5.562 7.642-5.642 4.993-0.12 8.011 1.212 8.011 1.212l0.092 2.672s-3.138-1.109-6.254-1.109c-2.32 0-5.315 0.264-5.24 2.19 0.063 1.912 2.96 2.177 5.534 2.711z m-57.95 10.679v-18.363h4.512v18.363h-4.513z m-364.376-8.27c0.494 0.37 0.83 0.901 1.33 1.925l2.545 6.345h-4.636s-2.167-5.593-2.167-5.622c-0.454-1.162-1.784-1.77-2.818-1.77h-3.498v7.392h-4.462v-18.363h8.82c2.48 0 4.473 0.376 5.81 1.168 1.313 0.781 1.98 1.938 1.98 3.627 0 3.094-2.904 4.245-4.397 4.51 0.656 0.26 1.168 0.527 1.493 0.787z m-5.072-1.938c1.83 0 3.149-1.134 3.149-2.788 0-1.55-1.342-2.776-3.15-2.776h-4.17v5.564h4.17z m46.483 1.937c0.505 0.37 0.842 0.902 1.33 1.926l2.547 6.345h-4.643l-2.165-5.622c-0.441-1.162-1.776-1.77-2.798-1.77h-3.5v7.392h-4.475v-18.363h8.817c2.502 0 4.504 0.376 5.81 1.168 1.318 0.781 1.98 1.938 1.98 3.627 0 3.094-2.903 4.245-4.383 4.51 0.656 0.26 1.155 0.527 1.48 0.787z m-5.073-1.937c1.829 0 3.158-1.134 3.158-2.788 0-1.55-1.347-2.776-3.158-2.776H627.5v5.564h4.156z m22.185-8.155h0.715l7.148 18.363h-4.53l-1.661-4.27h-7.159l-1.667 4.27h-4.518l7.147-18.363h4.525z m-4.401 11.328h5l-2.5-6.434-2.5 6.434z m-35.225-1.893v-9.044h4.903v9.044c0 1.428-0.176 2.72-0.573 3.868-0.375 1.16-0.95 2.142-1.716 2.948-0.756 0.805-1.71 1.428-2.824 1.845-1.125 0.44-2.426 0.657-3.864 0.657-1.483 0-2.761-0.217-3.886-0.657-1.114-0.417-2.057-1.04-2.807-1.845-0.762-0.806-1.335-1.788-1.71-2.948-0.393-1.149-0.591-2.44-0.591-3.868v-9.044h4.931v9.044c0 0.754 0.074 1.462 0.228 2.165 0.147 0.697 0.397 1.303 0.733 1.851 0.312 0.526 0.721 0.954 1.25 1.269 0.517 0.314 1.125 0.485 1.852 0.485 0.727 0 1.34-0.171 1.84-0.485a3.922 3.922 0 0 0 1.274-1.269 5.9 5.9 0 0 0 0.699-1.85c0.17-0.704 0.26-1.412 0.26-2.166z m55.13-9.435v15.615h7.986v2.748H664.828v-18.363h4.515z m81.583 0c7.042 0 12.355 3.165 12.355 9.071 0 5.439-4.375 9.292-11.732 9.292H745.7v-18.363h5.226z m-0.164 15.591c5.168 0 7.777-2.51 7.777-6.52 0-4.211-3.064-6.294-7.777-6.294h-0.588v12.814h0.588z m-30.427-5.499c0.51 0.37 0.836 0.902 1.33 1.926l2.547 6.345h-4.626s-2.159-5.593-2.182-5.622c-0.447-1.162-1.765-1.77-2.804-1.77h-3.505v7.392h-4.464v-18.363h8.828c2.49 0 4.481 0.376 5.805 1.168 1.306 0.781 1.99 1.938 1.99 3.627 0 3.094-2.92 4.245-4.417 4.51 0.668 0.26 1.167 0.527 1.498 0.787z m-5.073-1.937c1.828 0 3.158-1.134 3.158-2.788 0-1.55-1.341-2.776-3.158-2.776h-4.167v5.564h4.167z m-28.947 0.916c0-5.924 5.337-9.07 12.411-9.07h4.389v2.776h-4.242c-4.7 0-7.789 2.077-7.789 6.294 0 3.998 2.616 6.526 7.789 6.526h4.242v2.766H698.1c-7.408 0-11.785-3.86-11.785-9.292z m88.296-6.294v-2.777h15.237v2.777h-5.435v15.586h-4.384v-15.586h-5.418z m-44.2-2.777h11.773v2.777h-9.638v5.01h8.918v2.794h-8.918v5.016h9.638v2.766H728.12v-18.363h2.29z m35.498 18.363v-18.363h4.512v18.363h-4.512z m-251.537-18.363h11.76v2.777h-9.628v5.027h8.892v2.777h-8.892v5.016h9.628v2.766h-14.065v-18.363h2.305z m-5.04 2.777h-9.621v5.033h8.897v2.76h-8.897v7.793h-4.444v-18.363H509.333v2.777z m41.804 6.294c0-5.924 5.71-9.07 12.344-9.07h5.237v2.776h-5.074c-4.683 0-7.765 2.077-7.765 6.294 0 3.992 2.598 6.526 7.765 6.526h0.577v-5.021h-3.175v-2.777h7.672v10.564h-5.854c-7.346 0-11.727-3.86-11.727-9.292z m-7.178-9.07h4.443v18.362h-4.443l-9.487-12.497v12.497h-4.432v-18.363h4.432l9.487 12.49v-12.49z m-81.69 0V557.8h7.995v2.779H457.763v-18.363h4.505z m24.05 9.434v-9.044h5.043v9.044c0 1.434-0.215 2.72-0.604 3.868a7.776 7.776 0 0 1-1.752 2.948c-0.777 0.823-1.729 1.428-2.878 1.862-1.154 0.423-2.465 0.64-3.945 0.64-1.526 0-2.837-0.217-3.968-0.64-1.126-0.434-2.106-1.04-2.878-1.862-0.766-0.806-1.352-1.788-1.746-2.948-0.395-1.149-0.592-2.434-0.592-3.868v-9.044h5.042v9.044c0 0.754 0.064 1.462 0.22 2.165 0.163 0.697 0.4 1.303 0.749 1.851 0.319 0.526 0.737 0.954 1.27 1.269 0.517 0.314 1.155 0.485 1.903 0.485 0.731 0 1.358-0.171 1.868-0.485 0.54-0.315 0.952-0.743 1.3-1.269a6.29 6.29 0 0 0 0.731-1.85 9.834 9.834 0 0 0 0.238-2.166z" fill="#D15317"></path><path d="M88.066 459.054h22.726c3.127 0 5.964 1.288 8.027 3.384l2.24 2.27c0.104 0.107 2.82 3.498-0.308 6.651l-24.129 24.4s0.53-0.734 0.53-1.488a2.34 2.34 0 0 0-0.72-1.667L85.05 481.09a5.13 5.13 0 0 0-3.46-1.319H65.82l19.113-19.348a4.26 4.26 0 0 1 3.071-1.368h0.062z m-30.668 0h0.055a4.298 4.298 0 0 1 3.082 1.368l10.09 10.284-21.554 21.898a2.262 2.262 0 0 0-0.704 1.667c0 0.754 0.527 1.487 0.527 1.487L24.871 471.36c-3.107-3.153-0.41-6.544-0.3-6.65l2.23-2.27c2.046-2.097 4.864-3.385 7.983-3.385h22.614z" fill="#BA512C"></path><path d="M120.542 471.334l-47.75 48.277-47.762-48.277c-3.079-3.11-0.48-6.45-0.302-6.63-8.971 9.07-21.34 21.561-21.34 21.561a10.148 10.148 0 0 0-3.01 7.233c0 2.831 1.16 5.37 3.01 7.227l58.694 59.297c2.777 2.725 6.55 4.445 10.71 4.47 4.147-0.025 7.914-1.745 10.68-4.47l58.712-59.297c1.849-1.857 3.01-4.396 3.01-7.227a10.15 10.15 0 0 0-3.01-7.233s-12.37-12.497-21.335-21.568c0.105 0.106 2.815 3.49-0.307 6.637" fill="#CC7824"></path></svg>