<svg viewBox="0 0 1024 1024" version="1.1" xmlns="http://www.w3.org/2000/svg"><path d="M224 0h576c123.6 0 224 100.4 224 224v576c0 123.6-100.4 224-224 224H224c-123.6 0-224-100.4-224-224V224C0 100.4 100.4 0 224 0z" fill="#FFFFFF"></path><path d="M584 264.06h106.4c14.8 0 28 6 37.6 16l10.4 10.8c0.4 0.4 13.2 16.4-1.6 31.2l-112.8 114s2.4-3.6 2.4-6.8c0-3.2-1.2-5.6-3.2-7.6l-53.2-54.4c-4.4-4-10-6-16-6H480l89.2-90.8c3.6-3.6 8.8-6 14.8-6.4z m-143.6 0c6 0 11.2 2.4 14.8 6.4l47.2 48-100.8 102.8c-2 2-3.2 4.8-3.2 7.6 0 3.6 2.4 6.8 2.4 6.8l-112.4-114c-14.4-14.8-2-30.8-1.6-31.2l10.4-10.4c9.6-10 22.8-16 37.2-16h106z" fill="#BA512C"></path><path d="M736 321.66l-223.6 226-223.2-226c-14.4-14.4-2.4-30-1.6-31.2-42 42.8-99.6 101.2-99.6 101.2-8.8 8.4-14.4 20.4-14.4 33.6 0 13.2 5.6 25.2 14 34l274.8 277.6c12.8 12.8 30.8 20.8 50 20.8 19.6 0 37.2-8 50-20.8l274.8-277.6c8.8-8.8 14-20.4 14-34 0-13.2-5.6-25.2-14-34 0 0-58-58.4-100-100.8 0.8 0.8 13.2 16.4-1.2 31.2" fill="#CC7824"></path></svg>