<svg viewBox="0 0 1024 1024" version="1.1" xmlns="http://www.w3.org/2000/svg"><path d="M0 435.9S36 418 40.4 459c-6.2 4.2-35.8 13.1-26.4 81.2-22.3-32.1-4.4-94.8-14-104.3z m105.7 20.6c-51.4 16.4-66.3 58.1-68.7 65.6-9.1 45.5 21.4 62.6 37.6 67.8-43.8 0.5-68-39.4-53.8-84.8 14.2-45.4 59.3-77.7 109-72.6 49.7 5.1 54.8 40.1 54.8 40.1-6.7-8.2-38.1-30.4-78.9-16.1z m-37.3 62.3c-1.8 3.2-22.8 58.6 35.6 59.7 21.7 1.6 43.6-10.5 55.4-21.2-18.5 28-50.8 35.9-68.1 33.3-17.4-2.6-40.8-13.1-47-41.9s15.6-67 57.4-81.5c41.6-14.5 66.3 5.8 66.3 5.8-27-6.5-76.2 3.5-99.6 45.8z m31.7-2.3l32.4-8.7 8 29.9-32.4 8.7-8-29.9z" fill="#009035"></path><path d="M312.2 454.3h10c-0.3-0.8-0.6-2.2-0.8-4.2-0.6-3.9-1.1-7-1.7-9.2 5.3-1.4 9.4-2.4 12.5-2.9 1.7 6.1 2.9 10.8 3.7 14.2-0.3 0.3-2.6 1-7.1 2.1h19.6v10.4h-16.6v8.3h13.7v10.4h-13.7v8.8h13.7V503h-13.7v10H348v10.4h-38.3v7.9H298v-56.6l-1.7 2.1c-0.6-0.6-1.4-1.8-2.5-3.8v8.3h-6.7V521c0 3.9-1.1 6.5-3.3 7.9-2.2 1.4-7.4 2.2-15.4 2.5-0.6-4.4-1.4-8.2-2.5-11.3 7.2 0.3 10.4-1 9.6-3.8v-23.7c-3.9 8.6-9.3 17-16.2 25-1.1-1.1-2.6-2.8-4.6-5-2-1.9-3.2-3.2-3.7-3.8 9.7-10 15.5-19.2 17.5-27.5h-13.7l-1.3-10.8c3.3-0.6 5-1.7 5-3.3 0.6-4.2 1-8.2 1.2-12.1l12.5 2.9c-1.1 3.3-2.2 7.5-3.3 12.5h6.7v-19.2h-21.7v-10.8H296v10.8h-8.7v19.2h4.6l-1.7-2.9c7.2-8.1 12.1-19 14.6-33 1.7 0.3 4.2 0.8 7.5 1.7 3.9 0.8 6.4 1.4 7.5 1.7-3.1 5.8-5.6 11.3-7.6 16.3z m-2.5 18.7h9.6v-8.3h-9.6v8.3z m0 19.2h9.6V483h-9.6v9.2z m0 20.9h9.6v-10.4h-9.6v10.4z m60.5-66.8h36.2c-0.3-3.1-1.1-6.8-2.5-11.3 3.6 0 8.9-0.3 15.8-0.8-4.7 0.6-4.3 0.6 1.2 0 0.3 2.5 0.6 6.5 0.8 12.1H456v22.9h-14.6V458h-57.5v10.8h-13.7v-22.5z m-3.8 30.5h30.4c2.5-4.2 4.7-9.7 6.7-16.7 0.6 0.3 1.4 0.4 2.5 0.4 9.7 2.5 14.4 4 14.2 4.6-0.3 0.6-0.7 1.3-1.2 2.1l-1.2 1.2c-2.2 3.3-3.7 6.1-4.6 8.3h47.5v11.7h-20c-2.8 8.6-6 14.9-9.6 18.8 9.2 3.9 18.2 8.2 27.1 12.9-0.3 0.6-2.2 2.8-5.8 6.7-2.5 3.3-4.2 5.4-5 6.3-6.4-5.8-15.3-11.1-26.7-15.9-11.1 8.1-25.4 13.2-42.9 15.4-2-4.4-4.6-8.8-7.9-12.9 15.3-1.1 26.9-4 35-8.8-5.5-2.2-13.3-5-23.3-8.3 0-0.3 0.6-1 1.7-2.1 3.9-5.3 6.5-9.3 7.9-12.1h-24.6v-11.6z m57.5 11.7h-17.1l-5 7.9c5.3 2 10.3 3.9 15 5.8 3.4-3.9 5.7-8.4 7.1-13.7z m100.9-38h47.9v12.1h-39.6v11.3h28.3v39.2c0.3 6.7-6.9 9.9-21.7 9.6 0.3-2.8-0.8-7.2-3.3-13.3 4.4 0.3 7.4 0.3 8.7 0 1.4-0.6 2.1-1.5 2.1-2.9v-21.4H533V531h-14.2v-45.9H505V521h-14.1v-47.1h27.9v-11.3h-40v-12.1h40.4c-0.3-3.1-1.8-7.4-4.6-12.9 2.2-0.3 5.3-0.8 9.2-1.7 3.3-0.6 5.8-1 7.5-1.3 0.6 2 1.4 4.7 2.5 8.3 0.6 2.2 1 3.9 1.2 5-3.2 0.9-6.6 1.8-10.2 2.6z m122.9-7.9h37.1V453h-25.4c3.6 1.7 5.4 2.6 5.4 2.9 0 0.3-0.3 0.7-0.8 1.2-1.7 1.7-3.3 4-5 7.1h18.7V523c0.3 6.4-6.4 9.4-20 9.2 0-3.9-1.2-7.8-3.7-11.7 7.8 0.3 11.1-1 10-3.8v-27.4c-1.1 1.1-2.5 2.9-4.2 5.4-0.6-0.6-1.8-1.7-3.7-3.3v26.3h-12.9v-2.5h-12.5v3.8h-11.2v-26.8l-2.5 1.7c-1.4-2.8-2.9-5-4.6-6.7v43.4l-13.4-0.4v-66.3h20c-0.3-0.6-0.8-1.4-1.7-2.5-1.4-2.5-1.9-3.8-1.7-3.8 2.2-0.8 6.7-1.9 13.3-3.3 0.6 0.3 2 3.5 4.2 9.6h11.7c2.5-3.9 4.2-7.5 5-10.8h-58.3v-10.5H631c-0.3-2-0.7-3.9-1.2-5.8-0.3-0.8-0.4-1.3-0.4-1.3 0.8-0.3 3.9-0.6 9.2-0.8 4.7-0.3 7.4-0.3 7.9 0 0.5 1.6 0.9 4.3 1.2 7.9z m-21.2 31.7h-14.2v11.3c5.6-2.6 10.3-6.3 14.2-11.3z m20.8 0H629l7.1 7.1s-0.6 0.4-1.7 1.3c-2.2 1.7-4.7 3.5-7.5 5.4h25c-3.3-2.2-6.4-4.2-9.2-5.8-1.1-0.6-1.7-0.8-1.7-0.8 1.4-1.5 3.5-3.9 6.3-7.2z m16.7 0h-15c4.2 2.2 9.2 5.4 15 9.6v-9.6zM630.6 506h12.5v-8.8h-12.5v8.8z m101.7-8.8v-59.6h7.9c5 0 7.2 0.6 6.7 1.7-0.8 2.8-1.2 5.7-1.2 8.8v68.4h8.3v-78.9h8.8c5 0 7.2 0.6 6.7 1.7-0.8 3.3-1 3.8-0.4 1.3-0.6 2.5-1 5.1-1.2 7.9v48.4c5-10 8.7-21.8 11.2-35.5 0.3-2.5 0.6-4 0.8-4.6 3.3 0.6 8 2.1 14.1 4.6 1.4 0.6 2.4 1 2.9 1.3-0.8 1.4-2.1 4.6-3.7 9.6-5.6 13.6-10.6 24.7-15 33.4 0.6 0.3-2.8-1-10-3.8V516h29.2v11.7h-94.5V516h29.6v-14.2c-7.5 2.8-11.8 4.2-12.9 4.2 0-0.6-0.1-1.5-0.4-2.9-4.2-18.6-8.6-32.2-13.3-40.9 7.5-2.2 12.5-3.8 15-4.6 3.4 10 7.3 23.2 11.4 39.6zM839 446.3h16.7v10.8h-21.2c-1.7 4.4-2.8 7.4-3.3 8.8h24.2v10.9h-12.5v8.8h13.3v10.8h-13.3v12.1c1.1-0.8 3.1-2.2 5.8-4.2 3-2.2 4.7-3.3 5-3.3 0.8 3.1 1.5 6.4 2.1 10-7.5 5.6-14.2 11.1-20 16.7-1.9 1.9-3.2 2.9-3.7 2.9-1.4-1.4-3.6-5.4-6.7-12.1 0-0.3 0.6-1.1 1.7-2.5 2.2-2.5 3.3-4.3 3.3-5.4v-14.2h-14.6v-10.9h14.6v-8.8h-4.2c-0.3 0.6-0.7 1.4-1.2 2.5-0.6 1.4-1 2.4-1.3 2.9-1.4-1.4-4.4-3.6-9.2-6.7 0.3 0.3 0 0.1-0.8-0.4 5.5-9.2 10-21.1 13.3-35.9 0.6-2.8 1-4.3 1.2-4.6 2.8 0 7.4 1 13.8 2.9 0.3 0.3 0.1 1.1-0.4 2.5-1.2 2.1-2 4.2-2.6 6.4z m20 63.9v-71.4h45.8v47.5h-4.2c3.1 2.5 5.4 5 7.1 7.5 2.5 2.2 2.5 3.6 0 4.2-0.8 0.3-1.4 0.6-1.7 0.8-3.3 2.2-6.4 4.6-9.2 7.1 4.4 4.7 9.7 8.3 15.8 10.9-3.3 2.8-6.8 6.8-10.4 12.1l-1.2-1.2c-9.2-6.7-15.1-12.8-17.9-18.3 0.3 1.1 0.4 2.5 0.4 4.2 0 1.9 0.1 3.5 0.4 4.6-7.5 3.6-14 7.4-19.6 11.3-1.7 1.4-2.8 2.1-3.3 2.1-1.1-0.8-3.2-5.4-6.3-13.8 0-0.6 0.4-1.2 1.2-2.1 2.2-1.8 3.1-3.6 3.1-5.5z m12.5-52.6h19.6v-7.5h-19.6v7.5z m0 17.9h19.6V468h-19.6v7.5z m3.8 10.9h-3.7v25c5-2.2 8.3-3.9 10-5-3.7-7.5-5.8-14.2-6.3-20z m23.3 0h-11.7c0 0.3 0.1 0.7 0.4 1.2 0.8 3.9 2 6.8 3.3 8.8 3.4-3.1 6.1-6.4 8-10z m28.8-25.9c10-7.5 18.5-16.7 25.4-27.5 0.8 0.6 2.6 1.4 5.4 2.5 5.8 3.1 8.6 4.7 8.3 5 0 0.3-0.4 0.8-1.2 1.7-1.4 0.8-2.8 2-4.2 3.3-8.6 9.4-16.7 17.2-24.2 23.3-1.9-2.2-5.1-4.9-9.5-8.3z m45.4-9.2v-10.8h45v10.8h-45z m-17.5 27.6v51.3H942v-38.8c-1.9 2.2-4.3 4.7-7.1 7.5l-9.2-8.3c11.1-8.9 20.7-19.9 28.8-33 8.3 4.2 12.5 6.7 12.5 7.5 0 0.3-0.3 0.7-0.8 1.3-3.1 2.7-6.7 6.9-10.9 12.5z m11.2-11.7h57.9v11.7h-15.8v43.4c0.8 6.1-5.8 9.2-20 9.2-0.6-5.3-2.1-9.7-4.6-13.3 7.8 0.6 11.4-0.4 10.8-2.9v-36.4h-28.3v-11.7z m-715.1 80.1c-0.5-0.8-0.6-1.2-0.1-1.2h8.6c0.7-0.3 1.2 0.2 1.6 1.4 1.8 3.1 3.6 6.2 5.5 9.2 0.4 0.6 0.8 0.7 1.1 0.2 1.8-3.2 3.7-6.5 5.6-9.7 0.5-0.8 1-1.1 1.4-1.1h8.7c0.5 0 0.6 0.2 0.3 0.7l-11.7 18.4c-0.2 0.3-0.3 0.6-0.3 1v12.9c0 0.5-0.2 0.8-0.7 0.8h-7.8c-0.5 0-0.8-0.2-0.8-0.7v-13c0-0.3-0.2-0.8-0.5-1.2l-10.9-17.7z m47.3 8.1c1.2-0.2 2.4-0.4 3.7-0.5h3.1c3.6 0.1 6.4 1.1 8.3 3.1 1.2 1.9 1.7 3.9 1.7 6v11.2c0.1 1.3 0.5 2.6 1.2 4.1 0.2 0.5 0 0.7-0.5 0.7h-6.7c-0.7 0.3-1.2-0.2-1.5-1.4-0.3-0.6-0.7-0.7-1.2-0.2-1.3 1.1-3.3 1.8-5.8 2.1h-2.6c-3.6-0.2-6-2.1-7.1-5.7-1-4.8 1.3-7.8 6.9-9 2.5-0.5 5.1-1.1 7.8-1.8 1 0 1.3-0.5 0.8-1.5-0.8-1.5-2.3-2-4.6-1.4-1 0.1-1.8 0.8-2.4 2.1-0.2 0.5-0.6 0.6-1.1 0.6-2.2-0.3-4.3-0.6-6.4-0.9-0.5-0.1-0.6-0.4-0.5-0.9 1.5-3.9 3.7-6.1 6.9-6.6z m8.3 14.2c0-0.5-0.2-0.7-0.7-0.6-2.4 0.6-4.3 1.1-5.6 1.7-1.3 1-1.3 2.1 0 3.5 0.8 0.6 1.7 0.8 2.9 0.5 2.5-0.6 3.6-2.3 3.4-5.1z m24.9-14.2c1.2-0.2 2.4-0.4 3.7-0.5h3.1c3.6 0.1 6.4 1.1 8.3 3.1 1.2 1.9 1.7 3.9 1.7 6v11.2c0.1 1.3 0.5 2.6 1.2 4.1 0.2 0.5 0 0.7-0.5 0.7h-6.7c-0.7 0.3-1.2-0.2-1.5-1.4-0.3-0.6-0.7-0.7-1.2-0.2-1.3 1.1-3.3 1.8-5.8 2.1h-2.6c-3.6-0.2-6-2.1-7.1-5.7-1-4.8 1.3-7.8 6.9-9 2.5-0.5 5.1-1.1 7.8-1.8 1 0 1.3-0.5 0.8-1.5-0.8-1.5-2.3-2-4.6-1.4-1 0.1-1.8 0.8-2.4 2.1-0.2 0.5-0.6 0.6-1.1 0.6-2.2-0.3-4.3-0.6-6.4-0.9-0.5-0.1-0.6-0.4-0.5-0.9 1.4-3.9 3.7-6.1 6.9-6.6z m8.3 14.2c0-0.5-0.2-0.7-0.7-0.6-2.4 0.6-4.3 1.1-5.6 1.7-1.3 1-1.3 2.1 0 3.5 0.8 0.6 1.7 0.8 2.9 0.5 2.4-0.6 3.6-2.3 3.4-5.1z m25.7-11.6c3.4-3.1 7.3-3.8 11.5-2.2 1.1 0.5 2 1.3 2.8 2.5 0.8 1.5 1.3 3.3 1.5 5.6v15.3c0 0.5-0.2 0.8-0.7 0.8h-7.1c-0.5 0-0.8-0.2-0.8-0.7v-14.1c0.1-1.9-0.8-3.1-2.5-3.6-3 0-4.6 1.7-4.6 5.1v12.5c0 0.5-0.2 0.8-0.7 0.8h-7.1c-0.5 0-0.7-0.2-0.7-0.7v-23c0-0.5 0.2-0.8 0.7-0.8h6.4c0.5 0 0.8 0.2 0.8 0.7v1.7c0 0.4 0.1 0.4 0.5 0.1z m48.1-7.4c3.3-3.2 6.8-4.9 10.6-5h3c6.1 0.2 10.5 3.4 13 9.7 0.2 0.6 0 1-0.4 1.1l-7.7 1.8c-0.5-1.2-0.9-2.1-1.4-2.8-2.8-2.8-5.8-3.1-8.9-1.1-1.8 1.9-2.8 4.3-2.9 7.3v2.9c0.2 2.3 0.7 4.1 1.5 5.6 1.4 2 3.2 2.9 5.5 2.7 3-0.1 5-2 6.1-5.9 0.2-0.5 0.5-0.6 1-0.5 2.3 0.6 4.6 1.3 7 2.1 0.5 0.2 0.6 0.5 0.5 1.1-2 6.8-6.2 10.4-12.6 10.8h-3.7c-4.6-0.1-8.4-2-11.2-5.6-2.1-3-3.3-6.4-3.5-10.1v-3.4c0.1-4 1.5-7.6 4.1-10.7z m36.2-3.7c0-0.5 0.2-0.7 0.7-0.7h6.4c0.5 0 0.8 0.2 0.8 0.7v5.1c0 0.5-0.2 0.8-0.7 0.8h-6.5c-0.5 0-0.7-0.3-0.7-0.7v-5.2z m0.7 33c-0.5 0-0.7-0.2-0.7-0.7v-23.1c0-0.5 0.3-0.7 0.7-0.7h6.3c0.5 0 0.8 0.2 0.8 0.7v23c0 0.5-0.2 0.8-0.7 0.8h-6.4z m19.4-29.3c2.4-1.3 4.9-2.6 7.5-4.1 0.1 0 0.2 0.3 0.2 0.7v7.5c0 0.4 0.2 0.6 0.5 0.6h3.3c0.5 0 0.8 0.2 0.8 0.7v5c0 0.5-0.2 0.8-0.7 0.8h-3.2c-0.4 0-0.6 0.2-0.6 0.6v10c-0.1 0.6 0.2 1 0.9 1.3 0.7 0.1 1.6 0 2.5-0.3 0.6-0.3 0.9-0.1 0.9 0.3l0.7 5.7c-1 0.4-2.6 0.8-4.7 1.1h-2.5c-2.1 0-3.9-1-5.2-3-0.6-1.2-0.9-2.8-1-4.7v-10.3c0-0.4-0.2-0.6-0.5-0.6h-1.7c-0.5 0-0.8-0.2-0.8-0.7v-5c0-0.5 0.2-0.8 0.7-0.8h1.7c0.4 0 0.6-0.2 0.6-0.5v-3.1c-0.1-0.6 0.1-1 0.6-1.2z m18.6 5.5c-0.2-0.5-0.1-0.8 0.4-0.8h7.5c0.5 0 0.8 0.3 1 0.7l4.6 14.1c0.1 0.3 0.1 0.5 0.2 0.6 1.3-4.8 2.7-9.5 4.3-14.3 0.3-0.8 0.7-1.2 1.1-1.2h6.9c0.9-0.2 0.9 0.3 0.2 1.4-2.7 7.6-5.4 15.1-8.1 22.7-0.8 2.4-1.6 4.3-2.5 5.7-1.5 2.7-3.8 4.2-6.8 4.5h-2.5l-3.7-0.4c-0.5-0.1-0.8-0.4-0.8-0.9l-0.6-4.9c0-0.5 0.2-0.7 0.8-0.5 1.1 0.2 2.1 0.3 3 0.4 1.7 0 3-0.9 3.9-2.9 0.2-0.4 0.1-0.9-0.1-1.5l-8.8-22.7z m56.3-5.5c3.3-3.2 6.8-4.9 10.6-5h3c6.1 0.2 10.5 3.4 13 9.7 0.2 0.6 0 1-0.4 1.1l-7.7 1.8c-0.5-1.2-0.9-2.1-1.4-2.8-2.8-2.8-5.8-3.1-8.9-1.1-1.8 1.9-2.8 4.3-2.9 7.3v2.9c0.2 2.3 0.7 4.1 1.5 5.6 1.4 2 3.2 2.9 5.5 2.7 3-0.1 5-2 6.1-5.9 0.2-0.5 0.5-0.6 1-0.5 2.3 0.6 4.6 1.3 7 2.1 0.5 0.2 0.6 0.5 0.5 1.1-2 6.8-6.2 10.4-12.6 10.8h-3.7c-4.6-0.1-8.4-2-11.2-5.6-2.1-3-3.3-6.4-3.5-10.1v-3.4c0.2-4 1.5-7.6 4.1-10.7z m37.5 10.7c2.5-4 6-6.2 10.4-6.4h2.5c2.1 0.2 4 0.7 5.7 1.5 1.8 0.8 3.5 2.4 4.9 4.6 0.9 1.6 1.4 3.4 1.7 5.5v1.9c-0.7 7-4.7 11-12 12H593c-4.7-0.3-8.3-2.7-10.7-7.1-1.6-4.2-1.5-8.2 0.4-12z m12.9 0.2c-3.4-0.4-5.3 1.3-5.9 5v2.4c0.2 2.4 1.4 4 3.6 4.8 3.3 0.6 5.2-1 5.9-5v-2.3c-0.1-2.1-1.3-3.8-3.6-4.9z m28.4-4.1c2.5-2.1 5.2-2.8 8.1-2.4 2.1 0.2 3.9 1.1 5.4 2.8 0.4 0.4 0.8 0.3 1.4-0.3 1.7-1.5 3.7-2.4 6-2.6h1.9c5 0.8 7.4 3.5 7.4 8v16.2c0 0.5-0.2 0.8-0.7 0.8h-7.3c-0.5 0-0.7-0.2-0.7-0.7v-14.4c-0.4-2.5-1.6-3.5-3.5-3.1-2 0.7-3 2.4-3 5.2v12.3c0 0.5-0.2 0.8-0.7 0.8h-7.2c-0.5 0-0.8-0.2-0.8-0.7V565c0.1-2.1-0.8-3.2-2.9-3.4-2.2 0.3-3.5 1.7-3.6 4.4v13.1c0 0.5-0.2 0.8-0.7 0.8H616c-0.5 0-0.8-0.2-0.8-0.7v-23c0-0.5 0.2-0.8 0.7-0.8h6.6c0.8-0.2 1.1 0.4 0.8 1.9 0.1 0.5 0.3 0.5 0.7 0.1z m48.6 0c2.5-2.1 5.2-2.8 8.1-2.4 2.1 0.2 3.9 1.1 5.4 2.8 0.4 0.4 0.8 0.3 1.4-0.3 1.7-1.5 3.7-2.4 6-2.6h1.9c5 0.8 7.4 3.5 7.4 8v16.2c0 0.5-0.2 0.8-0.7 0.8h-7.3c-0.5 0-0.7-0.2-0.7-0.7v-14.4c-0.4-2.5-1.6-3.5-3.5-3.1-2 0.7-3 2.4-3 5.2v12.3c0 0.5-0.2 0.8-0.7 0.8h-7.2c-0.5 0-0.8-0.2-0.8-0.7V565c0.1-2.1-0.8-3.2-2.9-3.4-2.2 0.3-3.5 1.7-3.6 4.4v13.1c0 0.5-0.2 0.8-0.7 0.8h-7.1c-0.5 0-0.8-0.2-0.8-0.7v-23c0-0.5 0.2-0.8 0.7-0.8h6.6c0.8-0.2 1.1 0.4 0.8 1.9 0 0.5 0.2 0.5 0.7 0.1z m44.6-1.1c3.8-1.9 8.2-2 13.2 0 4.4 2.6 6.5 7 6.3 13.1 0 0.5-0.2 0.7-0.7 0.7h-15.6c-0.7-0.2-0.8 0.3-0.3 1.4 1.2 2.5 3 3.5 5.6 2.7 0.6-0.2 1.2-0.8 1.9-1.9 0.3-0.4 0.7-0.6 1.2-0.5l6.4 0.7c0.8 0.1 1.1 0.5 0.8 1.1-0.6 1.3-1.2 2.3-1.7 2.9-2.2 2.4-5 3.6-8.3 3.8h-3.5c-3.6-0.1-6.6-1.7-9-4.7-1.5-2.1-2.3-4.4-2.5-6.8v-2.4c0.2-1.8 0.7-3.7 1.7-5.6 0.9-1.7 2.4-3.2 4.5-4.5z m5.7 4.6c-1.8 0.6-2.8 2-3.1 4 0 0.1 0.2 0.1 0.6 0.1h7.2c0.7 0.1 0.8-0.4 0.3-1.4-0.9-2.3-2.5-3.2-5-2.7z m30.7-3.5c2.6-2.8 5.4-3.4 8.5-1.6 0.6 0.3 0.8 0.6 0.6 1.1l-2.4 6c-2.6-1.8-4.5-1.3-5.8 1.4-0.3 1.5-0.5 2.9-0.6 4.4v10.4c0 0.5-0.2 0.8-0.7 0.8h-6.9c-0.5 0-0.8-0.2-0.8-0.7v-23c0-0.5 0.2-0.8 0.7-0.8h6.5c0.8-0.2 1 0.2 0.8 1.3 0 0.5 0.1 0.7 0.1 0.7z m21.7-1.5c1.5-0.6 3.2-0.9 5.1-1.1h2.2c5.2 0 8.9 2.7 10.9 8 0.3 0.7 0 1.1-0.7 1.2l-6.4 0.9c-0.5 0-0.8-0.2-1-0.6-0.7-1.7-1.7-2.7-3-2.8-3.3-0.4-5.1 1.2-5.5 4.7v2.7c0.1 2.4 1.2 4 3.3 4.8 2.9 0.5 4.8-0.8 5.7-4l8 1.1c-1.3 5.8-4.9 9-10.9 9.5h-3.1c-2.2-0.2-4.1-0.7-5.7-1.5-2.4-1.4-4-3.1-4.8-5.3-0.6-1.5-1-3.1-1.2-4.8v-2.5c0.2-2 0.7-3.9 1.7-5.7 1.4-2.2 3.2-3.8 5.4-4.6z m27.6-9c0-0.5 0.2-0.7 0.7-0.7h6.4c0.5 0 0.8 0.2 0.8 0.7v5.1c0 0.5-0.2 0.8-0.7 0.8h-6.5c-0.5 0-0.7-0.3-0.7-0.7v-5.2z m0.7 33c-0.5 0-0.7-0.2-0.7-0.7v-23.1c0-0.5 0.3-0.7 0.7-0.7h6.3c0.5 0 0.8 0.2 0.8 0.7v23c0 0.5-0.2 0.8-0.7 0.8h-6.4z m25.3-24.5c1.2-0.2 2.4-0.4 3.7-0.5h3.1c3.6 0.1 6.4 1.1 8.3 3.1 1.2 1.9 1.7 3.9 1.7 6v11.2c0.1 1.3 0.5 2.6 1.2 4.1 0.1 0.5 0 0.7-0.5 0.7h-6.7c-0.7 0.3-1.2-0.2-1.5-1.4-0.3-0.6-0.7-0.7-1.2-0.2-1.3 1.1-3.3 1.8-5.8 2.1h-2.6c-3.6-0.2-6-2.1-7.1-5.7-1-4.8 1.3-7.8 6.9-9 2.5-0.5 5.1-1.1 7.8-1.8 1 0 1.3-0.5 0.8-1.5-0.8-1.5-2.3-2-4.6-1.4-1 0.1-1.8 0.8-2.4 2.1-0.2 0.5-0.6 0.6-1.1 0.6-2.2-0.3-4.3-0.6-6.4-0.9-0.5-0.1-0.6-0.4-0.5-0.9 1.5-3.9 3.7-6.1 6.9-6.6z m8.3 14.2c0-0.5-0.2-0.7-0.7-0.6-2.4 0.6-4.3 1.1-5.6 1.7-1.3 1-1.3 2.1 0 3.5 0.8 0.6 1.7 0.8 2.9 0.5 2.5-0.6 3.7-2.3 3.4-5.1z m17.6-22.7c0-0.5 0.2-0.7 0.7-0.7h6.4c0.5 0 0.8 0.2 0.8 0.7v32.3c0 0.5-0.2 0.8-0.7 0.8h-6.5c-0.5 0-0.7-0.2-0.7-0.7v-32.4z m38 0c0-0.5 0.2-0.7 0.7-0.7h18.6c1.3 0.2 2.7 0.6 4.3 1.1 4.2 2.7 5.5 6.2 4 10.5-1.1 2-2.4 3.2-4 3.6-0.4 0.2-0.4 0.4 0 0.6 4.1 1 6.2 3.5 6.2 7.7 0.3 3.5-1.3 6.4-4.9 8.8-1.8 0.9-4.4 1.4-7.9 1.5h-16.3c-0.5 0-0.7-0.2-0.7-0.7v-32.4z m9.8 6.2c-0.4 0-0.6 0.2-0.6 0.5v4.9c0 0.4 0.2 0.6 0.5 0.6h5.4c2.7 0 4-1.1 3.9-3.4 0.1-1.1-0.7-2-2.4-2.5l-1.6-0.1h-5.2z m0 12.7c-0.4 0-0.6 0.1-0.6 0.5v5.8c0 0.4 0.2 0.6 0.5 0.6h6.8c2.4 0.1 3.7-1.2 3.8-3.9-0.5-2-2-3-4.4-3h-6.1z m36.5-10.4c1.2-0.2 2.4-0.4 3.7-0.5h3.1c3.6 0.1 6.4 1.1 8.3 3.1 1.2 1.9 1.7 3.9 1.7 6v11.2c0.1 1.3 0.5 2.6 1.2 4.1 0.1 0.5 0 0.7-0.5 0.7h-6.7c-0.7 0.3-1.2-0.2-1.5-1.4-0.3-0.6-0.7-0.7-1.2-0.2-1.3 1.1-3.3 1.8-5.8 2.1h-2.6c-3.6-0.2-6-2.1-7.1-5.7-1-4.8 1.3-7.8 6.9-9 2.5-0.5 5.1-1.1 7.8-1.8 1 0 1.3-0.5 0.8-1.5-0.8-1.5-2.3-2-4.6-1.4-1 0.1-1.8 0.8-2.4 2.1-0.2 0.5-0.6 0.6-1.1 0.6-2.2-0.3-4.3-0.6-6.4-0.9-0.5-0.1-0.6-0.4-0.5-0.9 1.5-3.9 3.7-6.1 6.9-6.6z m8.3 14.2c0-0.5-0.2-0.7-0.7-0.6-2.4 0.6-4.3 1.1-5.6 1.7-1.3 1-1.3 2.1 0 3.5 0.8 0.6 1.7 0.8 2.9 0.5 2.5-0.6 3.7-2.3 3.4-5.1z m25.7-11.6c3.4-3.1 7.3-3.8 11.5-2.2 1 0.5 2 1.3 2.8 2.5 0.8 1.5 1.3 3.3 1.5 5.6v15.3c0 0.5-0.2 0.8-0.7 0.8h-7.1c-0.5 0-0.8-0.2-0.8-0.7v-14.1c0.1-1.9-0.8-3.1-2.5-3.6-3 0-4.6 1.7-4.6 5.1v12.5c0 0.5-0.2 0.8-0.7 0.8h-7.1c-0.5 0-0.7-0.2-0.7-0.7v-23c0-0.5 0.2-0.8 0.7-0.8h6.4c0.5 0 0.8 0.2 0.8 0.7v1.7c0 0.4 0.2 0.4 0.5 0.1z m26-11.1c0-0.5 0.2-0.7 0.7-0.7h6.9c0.5 0 0.8 0.2 0.8 0.7v15c0 0.4 0.2 0.4 0.6 0 1.5-1.9 3.2-3.8 4.9-5.7 0.6-0.7 1.2-1.1 1.7-1.1h8.8c0.5 0 0.4 0.4-0.3 1.1-2.2 2.3-4.5 4.7-6.8 7.3-0.5 0.5-0.6 0.9-0.3 1.4 2.6 4.7 5.4 9.4 8.1 14.2 0.3 0.6 0.3 0.9-0.2 0.9h-8c-0.5 0-0.8-0.2-1.1-0.7-1.4-2.9-3-5.7-4.6-8.5-0.2-0.3-0.5-0.3-1 0.1l-1.4 1.3c-0.3 0.4-0.5 0.7-0.5 1.1v6c0 0.5-0.2 0.8-0.7 0.8h-6.9c-0.5 0-0.7-0.2-0.7-0.7v-32.5z" fill="#1B1918"></path></svg>