<svg viewBox="0 0 1024 1024" version="1.1" xmlns="http://www.w3.org/2000/svg"><path d="M224 0h576c123.6 0 224 100.4 224 224v576c0 123.6-100.4 224-224 224H224c-123.6 0-224-100.4-224-224V224C0 100.4 100.4 0 224 0z" fill="#FFFFFF"></path><path d="M180 238s132-64.8 148 84c-22.8 15.2-131.2 47.2-96.8 294-81.6-116-16-343.6-51.2-378z m382 74.8c-186 59.6-240 210.4-248.8 237.6-32.8 164.8 77.2 226.8 136.4 245.6-158.8 2-246-142.8-194.8-307.2 51.6-164.4 214.8-281.6 394.8-262.8 180 18.8 198.8 145.2 198.8 145.2-24.8-30-138.4-110-286.4-58.4zM427.2 540c-6.8 11.2-82.4 210.4 128.8 214.4 78.4 6 158-38 200.8-76-66.8 100.4-184 129.2-246.8 119.6-62.8-9.6-147.6-47.2-170.4-150.4s56.4-240.8 207.6-292.8c151.2-52.4 240.4 20.4 240.4 20.4-97.2-23.2-275.2 12.8-360.4 164.8z m112.8-12.4l118.8-31.6 29.2 108.4-118.8 31.6-29.2-108.4z" fill="#009035"></path></svg>