<svg viewBox="0 0 1024 1024" version="1.1" xmlns="http://www.w3.org/2000/svg"><path d="M548.2 564.651c9.69-3.235 16.044-7.916 18.308-9.833-8.283-15.885-9.999-33.179-10.346-38.742H548.2v48.575z m-0.806-81.563h27.49v-16.67h-27.49v16.67z m0 24.807l27.49 0.018v-16.677h-27.49v16.659z m30.955-49.562s8.004-0.026 8.701 8.709v49.046l-24.477-0.012c1.582 8.758 4.364 16.046 7.653 21.99 5.334-6.261 9.787-13.43 11.871-19.367h13.236c-3.352 6.396-14.362 18.418-22.343 23.951 9.204 13.775 20.411 18.9 20.411 18.9l-0.04 19.45c-11.842-5.088-19.916-13.98-25.454-23.608l0.201 1.502c-14.388 20.021-40.775 20.84-40.775 20.84l0.079-11.888c2.74 0.048 5.322-0.116 7.858-0.374 0-6.314-0.041-95.416-0.041-104.528 0-3.322-2.23-4.61-2.23-4.61h45.35zM530 532.485h-20.98v29.777c12.78-4.309 18.989-9.251 18.989-9.251l0.626 6.03c-21.995 18.385-39.525 19.292-39.525 19.292l0.042-11.909s2.452 0 5.56-0.382v-33.557h-23.735v-8.201h23.735v-19.255H478.03c-1.99 2.377-4.05 4.66-6.224 6.824h-7.14s18.865-30.328 20.481-53.307c0.128-1.969-0.566-3.34-2.587-4.21h20.237s2.703-0.147 1.957 2.211c-0.893 2.835-3.026 8.681-6.427 15.896h28.917v8.16h-33.015c-2.816 5.275-6.101 10.844-9.926 16.289h42.941v8.137h-18.223v19.255H530v8.2z m-242.245 9.421c10.255-15.94 9.258-29.266 9.258-31.623v-4.314H269.87c1.248 15.61 8.881 27.361 17.885 35.937z m18.702-44.277s8.014-0.3 8.713 8.707c-1.77 18.385-9.012 32.452-18.027 43.145 12.436 8.633 24.443 12.148 24.443 12.148V581c-15.94-4.633-27.707-11.777-36.438-19.817-16.794 13.584-34.342 18.247-34.342 18.247h-12.503c18.53-7.872 31.201-16.864 39.895-25.713-15.087-18.486-17.272-39.484-17.503-47.748h-8.085c-9.546 49.21-45.221 73.46-45.221 73.46H198c43.152-40.064 39.866-97.498 39.866-97.498v-3.006H207.65v-8.276h30.216v-11.574c0-3.553-1.464-4.73-1.464-4.73h16.72s1.84-0.248 1.84 1.57v14.734h69.705v8.276h-69.705v2.52c0 5.689-0.481 11-1.116 16.184h52.611z m131.226-35.895c0-3.538-1.498-4.727-1.498-4.727h13.958s1.843-0.199 1.843 1.585v108.693S452.862 579 440.993 579h-11.66v-6.048h5.014s3.336 0 3.336-3.767v-107.45z m-25.505 93.933v-92.633c0-3.537-1.511-4.691-1.511-4.691h14.185s1.815-0.228 1.815 1.539v95.766l-14.49 0.019z m-33.492-58.278c8.19 16.946 17.213 22.725 25.361 27.678v17.121c-11.178-7.838-20.326-16.983-25.825-29.792V579h-14.329v-50.587c-8.537 11.065-23.793 21.775-23.793 21.775H332c13.405-13.966 27.127-30.841 31.403-52.8h-25.211v-8.257h25.701v-18.885c-8.616 0.741-17.52 1.4-25.746 1.834l0.052-5.787c16.745-1.999 50.756-11.96 50.756-11.96L406 466.103s-12.054 1.403-27.778 2.87v20.158h25.788v8.258h-25.324z m273.22-10.387s2.715-0.15 1.962 2.223c-0.799 2.549-3.47 6.739-7.406 11.74V579h-15.628v-60.704c-5.85 5.805-12.412 11.767-19.247 17.271h-8.92s31.8-33.52 31.644-44.352c-0.019-1.93-0.552-3.338-2.548-4.213h20.142zM611.59 503h-8.923s31.803-33.594 31.646-44.44c-0.018-1.975-0.556-3.345-2.552-4.225h20.146s2.712-0.147 1.962 2.22c-2.391 7.618-20.854 29.257-42.279 46.445zM740 488.333v9.557h-23.33l0.046 69.4s0.892 11.71-10.94 11.71h-26.957v-6.042h17.6s3.302 0 3.302-3.77v-71.297h-40.388v-9.558H740z m-74-18V461h66.667v9.333H666z m164.928-13.947l15.072-0.053-23.692 62.48-14.723 0.044-5.44-35.113-18.76 35.207-14.718 0.049 0.03-62.389 15.076-0.052-0.083 35.729 17.605-35.793 12.107-0.042 4.252 35.715 13.274-35.782z m30.484 50.217c2.172 0 8.794-0.03 12.378-18.968 3.581-18.938-3.037-18.927-5.213-18.916-2.176 0.008-8.793 0.027-12.374 18.976-3.57 18.95 3.03 18.927 5.209 18.908z m9.632-50.936c11.503-0.045 24.168 5.463 19.167 31.907-5.011 26.445-19.767 32.043-31.27 32.093-11.495 0.033-24.152-5.47-19.152-31.911 4.993-26.437 19.756-32.059 31.255-32.09z m45.038 50.943c2.18-0.007 8.797-0.037 12.381-18.975 3.577-18.938-3.04-18.927-5.216-18.916-2.172 0.008-8.793 0.03-12.37 18.976-3.58 18.95 3.03 18.927 5.205 18.915z m9.635-50.943c11.502-0.045 24.158 5.463 19.162 31.907-5.008 26.445-19.765 32.05-31.267 32.093-11.49 0.033-24.154-5.47-19.158-31.911 5.011-26.433 19.765-32.059 31.263-32.09z m43.426 12.812l-3.42 17.908s13.627 1.443 15.26-9.828c1.64-11.262-7.857-8.08-11.84-8.08z m13.69 26.008c3.42 1.736 4.137 4.906 4.505 7.172 0.368 2.272 1.666 17.341 1.666 17.341H974.38s-0.838-10.981-1.4-16.534c-0.327-3.46-2.733-4.504-4.479-4.816h-5.68l-4.271 21.087H944l13.018-61.694h19.505s18.81-1.567 18.81 14.25c0 10.687-4.97 18.949-12.5 23.194z m12.5 24.513l11.753-61.277 16.247-0.056-11.749 61.291-16.25 0.042z m-70.666 19.333l-19.932 18.891L917.853 579H904.57l-9.65-16.865L891.588 579h-10.92l8.054-40.667h10.923l-2.944 14.865 15.46-14.865h12.507zM794.92 549.734c0.513-2.67 0.253-3.6-4.348-3.578h-6.066l-1.371 7.266H790.648c2.897-0.193 3.774-1.064 4.273-3.688z m-1.402 16.778c0.33-1.734 0.944-4.937-5.947-4.907h-5.928l-1.788 9.546h5.47v0.03l0.461-0.011c0.38 0 0.744-0.008 1.105-0.02h0.23v-0.018c4.63-0.277 5.89-1.935 6.397-4.62z m11.569-17.906c-0.65 3.484-2.295 6.255-4.875 8.255 2.949 1.961 4.094 5.498 3.216 10.147-1.569 8.334-7.184 12.587-16.682 12.617l-18.747 0.042 7.891-41.955 18.758-0.045c7.832-0.02 11.737 4.066 10.439 10.939z m15.397 14.658l7.69 0.018-1.487-12.202-6.203 12.184z m3.643-25.597h9.613L840 579h-10.269l-0.9-7.79-12.746-0.09-4.355 7.88h-11.063l23.461-41.333z m49.717 0h9.488L875.37 579h-9.74l-8.603-25.268-4.715 25.02-9.645 0.248 7.963-41.333h10.395l8.56 23.626 4.26-23.626z" fill="#0062AC"></path><path d="M162.305 549.215c-20.487-5.52-47.585-8.881-77.305-8.881-29.435 0-56.296 3.297-76.712 8.724 13.727 28.746 43.065 48.609 77.045 48.609 33.918 0 63.213-19.79 76.972-48.452" fill="#1273B8"></path><path d="M85 540.333c29.72 0 56.818 3.361 77.305 8.882 5.358-11.163 8.362-23.672 8.362-36.882 0-47.128-38.206-85.333-85.334-85.333S0 465.205 0 512.333c0 13.149 2.977 25.601 8.288 36.724 20.416-5.426 47.277-8.724 76.712-8.724" fill="#009CDB"></path><path d="M85.306 541c29.72 0 56.818 3.36 77.305 8.881a84.638 84.638 0 0 0 2.42-5.558c-13.847-21.238-44.335-35.99-79.725-35.99-35.039 0-65.27 14.461-79.306 35.36a84.966 84.966 0 0 0 2.594 6.031C29.01 544.297 55.87 541 85.306 541" fill="#F9FDFE"></path></svg>