<svg viewBox="0 0 1024 1024" version="1.1" xmlns="http://www.w3.org/2000/svg"><path d="M0.0045 202.739218h45.397601v101.388109c22.309804-19.929825 38.72666-37.360672 49.249567-52.29654 10.523908-14.934869 19.907825-34.1197 28.151753-57.553495 11.679897 5.932948 20.50382 9.968912 26.472767 12.106894 5.968948 2.137981 11.726897 3.325971 17.275848 3.562969-5.953948 19.913825-13.285883 35.575687-21.996807 46.986587-8.710923 11.4099-25.345777 28.039754-49.902561 49.889561l83.279268 118.032963H122.803421l-77.40132-112.60901v112.60901H0.0045V202.739218z m332.25208 0.615995c-1.671985 5.616951-2.929974 10.691906-3.773967 15.223866-0.843993 4.53196-1.784984 11.274901-2.823975 20.227822h-80.544292v54.045525h68.024402v36.743677h-68.024402v59.501477h87.142234v35.759686H201.534729V203.354213h130.721851z m34.496697 0h100.494116c17.369847 0 54.287523 13.544881 54.287523 49.719563s-22.285804 41.175638-22.285804 48.996569c0 7.819931 32.722712 12.033894 32.722712 54.413522s-37.925667 68.371399-68.084401 68.371399h-97.134146V203.355213z m41.656633 33.186708v58.703484h40.952641c17.05485 0 26.354768-15.569863 26.354768-32.96471 0-17.394847-18.935834-25.738774-33.191708-25.738774h-34.115701z m0 89.663212v65.187427h40.952641c21.382812 0 35.845685-16.231857 35.845684-34.907693 0-18.674836-16.995851-30.279734-43.14462-30.279734H408.41091z" fill="#014A8F"></path><path d="M813.341351 220.866059l-19.635827 30.504732c-9.206919 2.792975-20.805817 7.268936-34.796694 13.426882-13.989877 6.158946-35.119691 16.089859-63.386443 29.793738 11.555898-13.386882 27.927755-27.071762 49.114568-41.055639 21.186814-13.983877 44.088613-24.873781 68.704396-32.669713z m32.516715-55.879509l-23.044798 32.839711c-16.745853 6.671941-35.877685 15.91586-57.393495 27.732757-21.516811 11.816896-53.169533 30.462732-94.955166 55.939508-5.003956-0.603995-6.161946-2.23998-3.473969-4.906957 24.98578-24.803782 61.39946-51.269549 79.407302-63.042446 24.664783-16.123858 57.818492-32.311716 99.459126-48.562573z m30.599731-55.425513l-23.90679 34.798694c-26.13977 11.649898-55.614511 25.995772-88.424223 43.039622-32.809712 17.04385-70.349382 43.523617-112.61901 79.439302l-8.130929-5.465952c39.387654-40.508644 76.406328-71.293373 111.055024-92.356188 34.649695-21.061815 75.324338-40.879641 122.025928-59.455478z m33.639704-55.666511L884.520726 90.728203c-62.62345 26.667766-108.333048 49.264567-137.128795 67.789404-28.794747 18.523837-66.513415 49.596564-113.156005 93.21918l-12.476891-9.629915c44.153612-47.996578 88.807219-86.45924 133.960823-115.386986 45.153603-28.928746 96.612151-53.203532 154.377643-72.82436zM941.673224 0.009l-23.875791 35.132691c-29.919737 9.14492-75.959332 31.154726-138.119786 66.02942-62.160454 34.873693-115.869982 76.069331-161.129583 123.584914-6.113946 0-6.113946-5.186954 0-15.560864 11.221901-19.041833 44.469609-63.249444 147.965699-127.110882C795.894505 63.954438 854.280992 36.596678 941.673224 0.009z" fill="#1B9DD6"></path><path d="M1022.287515 405.989432l-58.665484 21.57681c-167.465528-71.464372-267.249651-119.047954-299.354369-142.751745-32.103718-23.703792-48.96957-42.10463-50.594556-55.202515 8.029929 12.50989 27.992754 26.786765 59.889474 42.829623 31.89672 16.042859 148.138698 60.558468 348.724935 133.548827zM625.117006 264.797673c7.272936 7.183937 20.44382 17.752844 39.512653 31.707721 19.068832 13.954877 111.416021 60.733466 277.043565 140.335767l-47.515583 16.845852c-91.802193-51.526547-156.691623-90.589204-194.668289-117.188971-37.975666-26.599766-62.766448-50.499556-74.372346-71.699369z m245.344843 192.23131l-45.656598 5.326953C714.686219 385.038616 651.601773 329.756102 635.550914 296.506394c-9.364918-19.39883-5.212954 1.08299 49.654564 40.744642 26.11777 18.879834 87.870228 58.806483 185.256371 119.778947z m-221.78805-132.254837c8.556925 12.649889 24.586784 29.63374 48.088577 50.953552s58.02549 50.195559 103.57309 86.629238l-39.369654-2.22498c-36.529679-35.433689-62.652449-62.62945-78.365311-81.586283-15.712862-18.957833-27.022762-36.880676-33.927702-53.771527z m12.208892 33.277707c12.215893 18.943834 22.444803 33.466706 30.686731 43.568617 8.241928 10.101911 21.106814 24.616784 38.592661 43.544617-21.039815-13.63988-36.166682-26.107771-45.383602-37.403671-9.215919-11.295901-17.181849-27.865755-23.89579-49.709563z" fill="#CE1648"></path></svg>