<svg viewBox="0 0 1024 1024" version="1.1" xmlns="http://www.w3.org/2000/svg"><path d="M224 0h576c123.6 0 224 100.4 224 224v576c0 123.6-100.4 224-224 224H224c-123.6 0-224-100.4-224-224V224C0 100.4 100.4 0 224 0z" fill="#FFFFFF"></path><path d="M506 493.2l-32.8 51.2c-15.2 4.8-34.8 12-58 22.4s-58.8 26.8-106 50c19.2-22.4 46.8-45.2 82-68.8s73.6-41.6 114.8-54.8z m54.4-93.2l-38.4 54.8c-28 11.2-60 26.8-96 46.4-36 19.6-88.8 50.8-158.8 93.6-8.4-1.2-10.4-3.6-6-8.4 41.6-41.2 102.8-85.6 132.8-105.2 41.2-27.2 96.8-54 166.4-81.2z m51.2-92.8l-40 58c-43.6 19.6-93.2 43.6-148 72s-117.6 72.8-188.4 132.8l-13.6-9.2c66-67.6 127.6-119.2 185.6-154.4s126-68 204.4-99.2z m56-93.2l-42.8 61.6c-104.4 44.8-181.2 82.4-229.2 113.6S284.4 472 206.4 544.8l-20.8-16c74-80.4 148.4-144.4 224-192.8s161.6-89.2 258-122zM720.4 124l-40 58.8c-50 15.2-127.2 52-230.8 110.4S256 420.4 180 500c-10.4 0-10.4-8.8 0-26 18.8-32 74.4-105.6 247.6-212.4 49.2-30.8 146.8-76.4 292.8-137.6z" fill="#1B9DD6"></path><path d="M855.2 802.8l-98 36c-280-119.6-446.8-199.2-500.8-238.8S174.8 530 172 508c13.6 20.8 46.8 44.8 100 71.6 53.6 26.8 248 101.2 583.2 223.2z m-664-236c12 12 34 29.6 66 53.2 32 23.2 186.4 101.6 463.2 234.8l-79.6 28c-153.6-86-262-151.6-325.6-196-63.2-44.4-104.8-84.4-124-120z m410.4 321.6l-76.4 8.8C340.8 768 235.6 675.6 208.4 620c-15.6-32.4-8.8 2 83.2 68 43.6 31.6 146.8 98.4 310 200.4z m-371.2-221.2c14.4 21.2 41.2 49.6 80.4 85.2s97.2 84 173.2 144.8l-66-3.6c-61.2-59.2-104.8-104.8-131.2-136.4s-44.8-62-56.4-90z m20.4 55.6c20.4 31.6 37.6 56 51.2 72.8s35.2 41.2 64.4 72.8c-35.2-22.8-60.4-43.6-76-62.4-14.8-18.8-28.4-46.8-39.6-83.2z" fill="#CE1648"></path></svg>