<svg viewBox="0 0 1024 1024" version="1.1" xmlns="http://www.w3.org/2000/svg"><path d="M224 0h576c123.6 0 224 100.4 224 224v576c0 123.6-100.4 224-224 224H224c-123.6 0-224-100.4-224-224V224C0 100.4 100.4 0 224 0z" fill="#FFFFFF"></path><path d="M818.8 658.8c-81.6-22-189.6-35.2-308-35.2-117.2 0-224.4 13.2-305.6 34.8C259.6 772.8 376.8 852 512 852c135.2 0 252-78.8 306.8-193.2" fill="#1273B8"></path><path d="M510.8 623.6c118.4 0 226.4 13.2 308 35.2 21.2-44.4 33.2-94 33.2-146.8 0-187.6-152.4-340-340-340s-340 152.4-340 340c0 52.4 12 102 33.2 146.4 81.2-21.6 188-34.8 305.6-34.8" fill="#009CDB"></path><path d="M512 626.4c118.4 0 226.4 13.2 308 35.2 3.6-7.2 6.8-14.8 9.6-22-55.2-84.8-176.8-143.6-317.6-143.6-139.6 0-260 57.6-316 140.8 3.2 8 6.4 16 10.4 24 81.2-21.6 188.4-34.4 305.6-34.4" fill="#F9FDFE"></path></svg>