<svg viewBox="0 0 1024 1024" version="1.1" xmlns="http://www.w3.org/2000/svg"><path d="M234.873 857.254h21.82v-13.877h-21.82v13.877z m0-17.04h21.82V826.64h-21.82v13.574z m0.597-16.728h20.625l3.894-5.054s0.295-0.311 0.59-0.311c0.302 0 1.194 0.63 2.086 1.573l0.303-0.312c-5.678-5.996-9.556-13.263-11.659-21.151h-0.302v9.158l0.302 10.732c0 0.942-1.194 2.203-3.575 3.154-2.39 0.95-4.492 1.58-6.578 1.58-1.202 0-1.8-0.319-1.8-0.95l0.598-13.565v-6.947h-0.295c-2.692 6.308-6.283 11.993-10.759 17.039l6.57 5.054z m32.586 7.89v23.994l0.295 10.723c0 0.958-1.202 2.22-3.281 3.162-2.102 1.261-4.189 1.9-5.988 1.9-1.497 0-2.39-0.639-2.39-1.589v-8.83h-21.819l0.302 6.946c0 0.942-0.9 2.204-2.986 3.146-2.094 0.958-4.18 1.58-5.988 1.58-2.087 0-3.281-0.941-3.281-2.522l0.597-10.412v-23.052l-0.597-12.624c-2.692 2.842-9.27 6.947-19.128 12.312L202 833.268c11.953-11.043 20.92-23.036 26.606-36.61h-12.559c-4.785 0-8.074 0.311-9.571 1.261l-3.281-5.054h36.759v-11.682c-11.054 0.95-20.013 1.27-27.195 1.27l-0.295-2.834c24.503-5.694 41.84-11.37 52-17.367l8.968 11.673c0.294 0.64 0.597 0.95 0.597 1.581 0 0.63-0.303 1.262-0.892 1.573-0.597 0.63-1.202 0.63-1.49 0.32-0.612 0-1.21-0.32-2.101-0.32-1.49 0-4.19 0.63-8.665 1.581-4.483 1.27-7.78 1.9-9.874 1.9v12.305h17.05l6.267-9.462c0.597-0.639 0.9-0.95 1.497-0.95 0.597 0 1.194 0.311 1.489 0.63l7.772 10.42c0.605 0.623 0.9 1.254 0.9 1.885 0 0.958-0.59 1.27-1.792 1.27h-27.792c9.564 10.731 20.322 18.3 32.57 22.093l-0.59 3.154h-1.496c-2.087 0-3.592 0.631-5.08 2.212-1.195 1.262-2.692 4.416-4.19 8.831-1.489-0.63-3.886-2.515-7.47-5.046 0 0.311-0.596 0.63-1.194 1.27-0.597 0.63-0.892 1.261-0.892 2.203z m68.605-36.894l1.51-1.81c6.974 2.414 11.52 4.53 13.336 6.945 1.824 2.116 2.728 4.53 2.728 6.945 0 2.728-0.605 5.135-1.824 7.259-1.195 2.406-2.72 3.324-4.23 3.324-0.913 0-1.825-0.306-2.438-1.215-0.905-1.208-1.809-4.233-3.326-9.972-1.51-5.432-3.625-9.36-5.756-11.476z m5.756-22.05l1.517-1.811c11.819 3.63 17.874 8.458 17.874 13.585 0 2.124-0.606 4.233-2.116 6.357-1.219 2.109-2.728 3.018-4.545 3.018-2.123 0-3.931-2.117-4.86-6.953-1.202-4.531-2.413-7.847-4.23-9.658l-3.64-4.538z m38.781 66.756h10.915v-12.08h-10.915v12.08z m0-15.404h10.01l4.538-3.018c-1.22-2.422-2.123-5.44-2.729-8.764h-9.38c-3.044 6.044-4.86 9.368-5.16 9.971l2.721 1.811z m-18.785-10.872l-1.21-1.513c-3.327 11.178-5.151 20.538-6.355 28.69 8.178-9.062 13.329-18.421 15.743-28.087h-3.326c-2.123 0-3.94 0.298-4.852 0.91z m21.82-4.226h6.063v-16.014h-6.062v16.014z m-22.425 0h10.914v-16.014h-1.51c-2.13 0-3.947 0.603-6.377 1.512l-3.027-4.53h10.914v-11.477l-0.307-10.276 12.125 4.233c1.809 0.603 2.729 1.207 2.729 1.81 0 0.604-0.613 1.208-1.526 2.11-0.912 0.916-1.51 1.818-1.51 2.421v11.179h6.063v-11.477l-0.306-9.36 12.416 3.92c1.517 0.604 2.43 0.91 2.43 1.811 0 0.306-0.606 1.207-1.51 2.117-1.219 0.901-1.526 1.81-1.526 2.414v10.575h1.526l4.537-6.954c0.605-0.603 0.912-0.901 1.525-0.901 0.291 0 0.905 0.298 1.502 0.901l6.055 6.954c0.307 0.603 0.307 0.909 0.307 1.505 0 1.207-0.598 1.513-1.809 1.513H401.8v16.014h3.641l4.852-7.556c0.29-0.604 0.597-0.91 1.21-0.91 0.307 0 0.913 0.306 1.51 0.91l7.58 7.854c0.3 0.604 0.3 0.902 0.3 1.207 0.298 1.208-0.3 1.811-1.51 1.811h-21.215c5.158 9.062 13.642 14.8 25.461 17.52l-0.621 2.415c-4.537 0.917-7.565 4.225-9.389 10.276-4.23-1.818-7.274-3.935-9.986-6.655v6.35c0 1.207-1.227 2.712-3.342 3.927-2.422 1.505-4.545 2.406-6.362 2.406-1.517 0-2.115-0.595-2.115-1.802l0.299-3.928h-10.915v9.062c0 2.117 0.606 3.622 1.825 4.225 0.904 0.902 3.931 1.215 8.791 1.215 3.932 0 6.959-0.313 9.082-0.917 2.115-0.298 3.64-1.2 4.246-2.406 0.905-1.216 1.51-3.324 1.809-6.35 0.314-3.026 0.613-4.829 0.613-6.036l2.115 0.604c0 3.018 0.614 5.738 1.211 8.458 0.92 2.414 3.036 4.53 6.362 6.647-1.211 6.036-3.932 9.963-7.573 11.469-3.632 1.512-9.687 2.116-18.18 2.116-3.632 0-7.265 0-10.906-0.298-3.625-0.603-6.361-2.116-8.178-4.829-1.824-2.72-2.728-5.142-2.728-7.556v-23.258c-3.94 5.134-9.09 9.061-15.153 11.782 0.314 1.505 0.613 3.927 0.912 6.945 0.606 3.316 0.912 6.64 0.912 10.269 0 6.044-1.51 8.756-4.851 8.756-1.817 0-3.932-1.207-6.055-4.225-1.817-2.713-3.035-5.433-3.035-8.16 0.306-1.208 0.613-3.622 1.218-7.55 0.913-3.927 1.203-6.639 1.203-8.458 0-1.803-0.29-3.621-1.203-4.828-1.218-1.513-3.334-2.72-6.974-3.928l0.298-3.026c1.211 0.306 2.43 0.306 3.641 0.306 2.123 0 3.633-0.306 5.143-1.207 1.832-0.901 4.246-4.829 7.588-12.088a446.988 446.988 0 0 0 9.695-24.16l1.809 1.208-3.027 12.393z m157.373-15.045l1.25-3.144c13.462 4.39 21.905 8.153 25.973 11.607 4.067 2.834 6.251 7.224 6.251 12.559 0 2.826-0.933 5.335-2.184 8.16-1.258 2.51-2.817 3.764-5.01 3.764-1.25 0-2.508-1.255-3.758-4.08-5.001-10.988-12.203-20.713-22.522-28.866z m4.076 13.806l13.445 9.733c0.625 0.619 0.942 1.563 0.942 2.5 0 0.945-0.317 1.572-1.259 1.572-0.934 0.318-1.875 0.627-2.817 1.254-0.934 0.945-1.559 1.572-1.867 2.2-3.134 7.525-5.635 12.868-8.135 16.313 8.135 6.907 19.704 11.614 34.724 14.44l-0.317 3.145c-6.877 1.563-11.57 5.644-13.761 12.55-12.82-5.342-22.838-11.614-29.407-19.457 0 0-0.933 0.936-3.125 2.826-5.01 4.708-10.953 8.47-17.52 11.289-5.944 2.516-13.137 4.707-21.272 6.597l-0.625-3.144c12.203-4.7 23.764-14.115 35.033-28.246-4.385-7.843-7.819-16.314-10.003-25.42-5.01 5.653-12.202 11.615-21.588 16.95l-1.883-2.5c11.577-12.87 20.337-26.373 26.272-40.806l13.461 9.733c0.625 0.62 0.934 1.572 0.934 2.191 0 1.254-0.617 1.564-1.567 1.564-1.559 0-2.81 0.635-3.743 1.58-0.95 1.254-2.509 2.508-4.067 4.39-1.567 1.572-2.501 2.818-2.818 3.136 2.51 7.533 6.568 14.123 12.511 19.775 2.818-6.59 5.627-14.432 8.452-24.165z m15.012-22.602l5.634-9.098c0.625-0.627 1.242-0.944 1.867-0.944 0.317 0 0.942 0.317 1.884 1.262l8.127 8.78c0.317 0.627 0.633 1.262 0.633 1.881 0 0.953-0.316 1.572-1.258 1.572h-71.632c-1.559 0-4.384 0.318-8.143 1.572l-4.06-5.025h39.734c-1.259-9.725-4.385-16.314-9.378-19.458l1.234-3.135c8.769 1.572 14.403 3.445 16.896 5.652 2.5 2.19 3.759 5.017 3.759 8.161 0 2.5-0.942 5.327-3.134 8.78h17.837z m96.877 15.708h25.786v-12.24h-25.786v12.24z m0-15.693h25.786v-10.987h-25.786v10.987z m2.757 35.45h-1.538c-8.59 9.098-18.407 16.322-29.164 22.283l-1.22-2.508c10.12-10.042 17.492-20.084 22.408-29.498-1.53 0.627-2.765 0.936-3.387 0.936-0.605 0-1.227-0.309-1.53-1.246-0.302-0.944-0.613-1.889-0.613-2.826l0.31-9.414v-22.918c0-4.072-0.31-8.47-0.613-12.55l13.81 7.851h22.112l5.84-7.216c0.295-0.635 0.917-0.952 1.833-0.952 0.622 0 1.235 0 1.538 0.635l7.674 7.533c0.613 0.31 0.916 0.945 0.916 1.572 0 0.945-0.303 1.564-0.916 2.19-1.84 0.937-2.454 3.144-2.454 5.962v22.91c0 0.309 0 0.627 0.31 1.254 0 1.262-0.31 2.199-0.613 2.826 0 0.627-1.53 1.563-3.992 2.826-2.463 1.254-4.606 1.881-5.833 1.881-1.546 0-2.463-0.937-2.463-2.818l0.311-5.342h-22.112v0.627l7.37 4.715c0.303 0.31 0.303 0.627 0.303 0.937 0 0.944-0.302 1.254-1.219 1.563l-3.075 0.628c-1.538 1.889-2.455 3.143-3.38 4.08h32.241l5.522-6.898c0.319-0.636 0.614-0.945 1.235-0.945 0.606 0 1.227 0.31 1.849 1.262l6.75 6.58c0.916 0.954 1.226 1.89 1.226 2.517s-0.613 1.564-2.151 3.136c-1.538 1.254-2.462 2.508-2.462 3.453-0.303 7.525-0.917 15.694-1.841 24.155-0.908 8.478-2.144 13.82-4.287 15.702-1.849 2.199-3.379 3.763-4.909 4.7-1.553 0.944-4.916 1.58-10.143 2.516 0.302-5.343-0.614-9.097-2.447-11.614-1.538-2.199-3.69-4.39-6.757-5.644l0.916-2.516c7.371 1.881 11.666 3.144 13.204 3.144 1.227 0 2.454-2.517 3.37-7.843 0.925-5.025 1.539-14.448 1.539-28.562h-4.598c-2.16 12.241-6.455 22.592-12.901 31.388-6.446 8.78-19.036 15.368-37.157 19.757l-1.227-2.817c23.65-11.923 36.854-27.935 39.308-48.328h-4.295c-4.613 11.304-9.53 19.147-14.75 24.164-5.218 4.707-13.195 9.097-23.633 13.177l-0.917-2.508c13.801-10.67 22.71-21.965 26.702-33.896z m118.554 3.001h6.836v-20.555h-6.215c-0.306 11.66-0.306 18.405-0.62 20.555z m40.385 46.956l0.306-17.8V807.05h-5.28c0 14.112-0.934 23.637-2.482 28.535-1.862 5.224-4.974 10.743-9.94 17.186-4.658 6.45-11.486 11.97-20.812 16.573l-1.242-2.453c6.215-4.914 11.18-11.66 15.526-19.942 4.038-8.593 5.9-17.497 5.9-27.316v-42.345c-0.314 0-1.548 0.303-3.095 0.303-1.556 0-4.039 0.31-7.15 1.53l-11.495 3.99v16.27h5.594l5.288-6.754c0.306-0.613 0.927-0.924 1.233-0.924 0.621 0 1.242 0.31 1.863 0.924l6.214 6.14c0.621 0.916 0.927 1.537 0.927 2.143 0 0.931-0.306 1.847-1.547 3.066-0.927 1.234-1.242 2.46-1.242 3.687v10.44l0.315 9.199c0 1.53-0.315 2.46-0.935 3.074-0.323 0.613-1.87 1.53-4.353 2.445-2.475 0.932-4.353 1.545-5.594 1.545-1.234 0-1.548-0.613-1.548-1.545v-5.822h-7.142c-0.314 4.604-1.87 11.046-5.28 19.329-3.103 7.98-8.077 15.649-14.292 23.016l-1.547-1.53 4.03-10.75c1.241-3.059 2.49-6.436 3.112-10.115 0.935-3.377 1.555-7.064 2.168-10.751 0.314-3.68 0.62-7.367 0.62-11.046v-40.194c0-3.982-0.306-8.904-0.926-14.12l12.115 6.753c5.586-4.292 10.874-9.517 16.146-15.338l7.762 11.97 11.81 6.753c4.659-3.385 10.56-8.912 17.71-17.202l9.31 12.901c0.306 0.613 0.62 1.227 0.62 1.53 0 1.226-0.935 1.839-2.168 1.528-1.25-0.302-2.177-0.613-3.104-0.613-1.24 0-2.184 0.31-2.805 0.613-9.624 3.688-16.146 5.838-19.563 6.754v17.186h13.663l5.9-7.98c0.307-0.916 0.935-1.226 1.564-1.226 0.613 0 1.241 0.31 1.548 0.924l6.835 8.895c0.621 0.31 0.621 0.924 0.621 1.537 0 0.924-0.314 1.227-1.241 1.227h-11.495v43.578l0.314 12.886v1.227c0 2.763-1.564 4.603-4.353 5.837-3.103 1.219-5.28 1.832-6.835 1.832-0.927 0-1.548-0.613-1.548-2.142z" fill="#CA2729"></path><path d="M571.67 724.978l22.255-5.132c0.922-15.67 1.844-31.646 2.149-47.613 0-14.481-0.305-29.251-0.923-44.022l-21.933-5.124v-1.213c30.891 0.916 62.103 0.61 93.314 0l-0.304 26.24h-0.93l-7.419-21.71-42.021 1.502a949.63 949.63 0 0 0-1.86 41.604l33.993 0.603 6.175-20.497h1.243l-0.625 45.21h-1.227l-5.566-20.191-33.994 0.594c-0.305 14.778 0 29.549 0.32 44.32l47.58 1.212 7.105-25.934h0.923l-0.305 31.355c-32.76-0.305-65.51-0.602-97.95 0a845.022 845.022 0 0 0-55.257 0v-1.204l12.11-4.522-40.666-48.223 41.286-45.524-13.037-3.622v-1.213c14.89 0.61 29.49 0.61 44.389 0v1.213l-15.833 4.522-40.046 39.187 51.842 53.66 15.213 4.522z m-129.743 1.146c-0.733 0.018-1.465 0.038-2.197 0.058v-0.113a1162.752 1162.752 0 0 0-60.443 0.113v-1.204l22.222-5.132c0.93-15.365 1.85-30.441 1.85-45.517l-64.518 1.503c-0.297 14.778 0 29.25 0.312 44.014l22.23 5.132v1.204c-21.597-0.602-43.21-0.602-64.823 0v-1.204l22.222-5.132c0.937-15.67 1.858-31.646 2.17-47.613 0-14.481-0.312-29.251-0.929-44.022l-21.925-5.124v-1.213c21.621 0.61 43.226 0.61 64.823 0v1.213l-22.214 5.124a902.462 902.462 0 0 0-1.866 40.994l64.519 2.113c0.304-14.168 0-28.634-0.617-43.107l-22.214-5.124v-1.213c20.52 0.572 40.765 0.608 60.756 0.109v-0.109c0.683 0.02 1.366 0.038 2.049 0.056l2.01-0.056v0.107c20.38 0.501 40.775 0.465 61.44-0.107l-0.314 1.213-22.344 5.124c-0.926 15.076-1.24 30.143-1.547 45.219 0 15.678-0.322 30.745 0.306 46.416l22.36 5.132v1.204c-20.28-0.562-40.826-0.6-61.134-0.113v0.113c-0.728-0.02-1.456-0.04-2.184-0.058z m1.379-102.567l-20.192 4.654c-0.617 15.373-1.225 30.746-1.538 45.821 0 15.373 0 30.449 0.313 45.814l20.038 4.627 20.162-4.627c0.927-15.67 1.853-31.646 2.168-47.613 0.306-14.481-0.315-29.251-0.935-44.022l-20.016-4.654z" fill="#050607"></path><path d="M745.962 726.182v-0.932l-9.23-2.79a1097.852 1097.852 0 0 1-23.535-29.113l19.065-22.595 11.319-3.416v-0.619c-9.533 0.619-19.065 0.305-28.304 0v0.619l9.239 3.416-14.597 18.568a392.383 392.383 0 0 1-14.303-18.568l9.54-3.416v-0.619c-11.024 0.619-21.755 0.305-32.478 0v0.619l10.421 4.34c6.572 8.047 13.414 16.1 19.962 24.155l-22.644 26.324-9.518 3.095v0.932c9.224-0.619 18.47-0.619 27.702 0v-0.932l-9.232-3.4 16.677-21.992c5.659 7.427 11.326 14.862 16.684 22.603l-8.644 2.789v0.932a540.3 540.3 0 0 1 31.876 0" fill="#878B8E"></path><path d="M676.205 513.864c-33.466 28.013-126.796-28.325-208.46-125.923-81.983-97.59-120.979-199.495-87.824-227.516l-42.669 40.645c-31.011 30.786 16.884 128.991 106.844 218.895 89.959 90.2 187.583 138.228 218.603 107.442l13.506-13.543z" fill="#C3C8CB"></path><path d="M638.206 167.72c-33.15-28.311-125.63 28.319-206.545 125.855-80.622 97.56-119.551 199.415-86.393 227.415l46.848 35.387c-35.298-25.229-5.479-129.856 66.617-234.18 72.396-104.316 159.397-168.629 194.995-143.704l-15.522-10.773z" fill="#C3C8CB"></path><path d="M509.186 152c112.305 0 203.544 91.517 203.544 204.85 0 113.323-91.239 205.143-203.544 205.143-112.606 0-203.853-91.82-203.853-205.144C305.333 243.517 396.58 152 509.186 152" fill="#0066A1"></path><path d="M447.108 379.462l0.309-0.605-11.905-3.026c3.064-9.391 6.412-18.476 10.069-27.562 3.348-9.085 6.712-17.863 10.67-26.948l14.033-3.034 0.308-0.605a777.808 777.808 0 0 1-37.818 0l-0.309 0.605 11.596 3.034c-2.747 8.778-5.794 17.565-8.85 26.351-3.656 9.384-7.622 18.768-11.595 28.16l-14.018 3.025-0.308 0.605a777.808 777.808 0 0 1 37.818 0m38.737 0v-0.605l-7.622-2.727-18.609-31.798 31.708-23.318 10.369-2.727 0.316-0.605c-8.849 0.307-17.397 0.307-25.93 0l-0.3 0.605 6.712 2.122-33.56 27.263 13.123 28.458-8.232 2.727-0.3 0.605a568.29 568.29 0 0 1 32.325 0" fill="#FEFEFE"></path><path d="M631.158 344.57c39.638-76.844 50.93-143.237 23.788-162.606l-15.558-10.753c23.788 19.975 10.683 77.77-28.354 144.777-7.011-9.533-14.64-19.065-22.561-28.59-81.113-97.13-173.803-153.384-207.048-125.409l-42.376 40.572c30.482-31.047 127.755 16.904 217.097 106.966 12.511 12.603 24.089 25.207 34.764 38.114A666.462 666.462 0 0 1 552.8 398.36c-79.285 95.287-169.846 151.533-204.602 127.562l44.52 33.504c35.675 24.897 122.88-39.04 195.447-143.237 9.156-13.53 17.687-26.74 25.624-39.966 49.997 67.32 71.347 128.8 48.478 152.156l13.413-13.521c26.526-22.743 6.71-92.838-44.521-170.288" fill="#CA2729"></path><path d="M385.49 317.682l-0.301 0.605 11.905 3.026c-2.748 7.883-5.497 16.056-8.547 23.93H351c3.05-7.874 6.417-16.047 9.767-23.93l14.037-3.026 0.309-0.605c-12.825 0.307-25.34 0.307-37.84 0l-0.31 0.605 11.606 3.026a460.243 460.243 0 0 1-9.158 26.351c-3.358 9.392-7.327 18.776-11.303 28.16l-14.346 3.033v0.605a779.379 779.379 0 0 1 37.856 0l0.301-0.605-11.906-3.034c2.75-8.778 5.799-17.557 9.158-26.037H387.01c-3.343 8.48-7.01 17.259-10.67 26.037l-14.053 3.034-0.293 0.605a779.028 779.028 0 0 1 37.848 0l0.301-0.605-11.906-3.034c3.36-9.077 6.417-18.17 9.767-27.247A518.736 518.736 0 0 1 409 321.313l14.037-3.026 0.3-0.605a779.025 779.025 0 0 1-37.847 0M533.662 317.989h-0.933c-8.9 0-17.817 0-26.734-0.307l-0.295 0.605 11.668 3.026c-2.767 8.786-5.838 17.573-8.908 26.351-3.693 9.392-7.68 18.776-11.676 28.16l-14.133 3.033-0.31 0.605c19.052-0.307 38.409-0.307 57.462 0l7.066-18.469h-0.606l-8.916 13.926h-28.273c2.767-8.48 5.838-16.96 8.908-25.133h20.282l-0.917 11.207h0.606l10.152-26.956h-0.622l-7.369 11.207h-20.281c3.062-7.576 6.149-15.451 9.22-23.02h25.808l-0.614 10.901h0.614l6.149-15.443c-9.22 0-18.44 0.307-27.348 0.307" fill="#FEFEFE"></path></svg>