<svg viewBox="0 0 1024 1024" version="1.1" xmlns="http://www.w3.org/2000/svg"><path d="M224 0h576c123.6 0 224 100.4 224 224v576c0 123.6-100.4 224-224 224H224c-123.6 0-224-100.4-224-224V224C0 100.4 100.4 0 224 0z" fill="#FFFFFF"></path><path d="M382.8 556.8C325.6 668 308.4 764 347.6 792l-66.8-50.4c-37.2-31.6-10.4-128.8 59.2-237.2-72.8-96.8-104-185.2-70.4-218.4L330 228c-35.2 30-13.2 118.8 49.6 220 7.6-10 16-20.4 24-30.4 115.2-138.8 246.8-219.6 294-179.2l22 15.2c-50.8-35.6-174.4 56-277.6 204.8-9.6 14-18.8 28-27.6 42 12.4 17.2 26 34.4 40.4 51.6 116.4 139.2 249.2 219.2 296.8 179.2l-19.2 19.2c-44 44-183.2-24.4-311.2-153.2-13.2-13.2-26-26.8-38.4-40.4z" fill="#C3C8CB"></path><path d="M514.4 216c160 0 289.6 130.4 289.6 291.6 0 161.6-130 292.4-289.6 292.4-160.4 0-290.4-130.8-290.4-292.4C224 346.4 354 216 514.4 216" fill="#0066A1"></path><path d="M479.2 540h-3.2c-13.6-0.4-27.2-0.4-41.2 0l0.4-0.8 11.6-4-18.8-40.4 48.4-38.8-9.6-3.2 0.4-0.8c12 0.4 24.4 0.4 36.8 0l-0.4 0.8-14.8 4-45.2 33.2 26.4 45.2 9.2 3.2 17.2-3.6c5.6-13.2 11.2-26.8 16.8-40 4.4-12.4 8.8-25.2 12.8-37.6l-16.8-4.4 0.4-0.8c12.8 0.4 25.2 0.4 38 0.4h1.2c12.8 0 26-0.4 38.8-0.4l-8.8 22h-0.8l0.8-15.6h-36.8c-4.4 10.8-8.8 22-13.2 32.8h28.8l10.4-16h0.8l-14.4 38.4h-0.8l1.2-16h-28.8c-4.4 11.6-8.8 23.6-12.8 36h40.4l12.8-20h1.6l-10 26.4c-25.6-0.4-51.2-0.4-76.8 0h-2z m-53.2 0c-18-0.4-35.6-0.4-54 0l0.4-0.8 20-4.4c5.6-13.2 11.2-26.8 16.4-40 4.4-12.4 8.8-25.2 12.4-37.6l-16.4-4.4 0.4-0.8c18 0.4 35.6 0.4 54 0l-0.4 0.8-20 4.4c-5.6 12.8-10.4 25.6-15.2 38.4-5.2 12.8-10 26-14.4 39.2l16.8 4.4v0.8z m-88-88c18 0.4 35.6 0.4 54 0l-0.4 0.8-20 4.4c-5.6 12.8-10.8 26-15.6 38.8-4.8 12.8-9.2 26-14 38.8l16.8 4.4-0.4 0.8c-18-0.4-35.6-0.4-54 0l0.4-0.8 20-4.4c5.2-12.4 10.4-25.2 15.2-37.2H286.4c-4.8 12-9.2 24.4-13.2 37.2l16.8 4.4v0.8c-18-0.4-36-0.4-54 0v-0.8l20.4-4.4c5.6-13.2 11.2-26.8 16-40 4.8-12.4 9.2-25.2 13.2-37.6l-16.4-4.4 0.4-0.8c17.6 0.4 35.6 0.4 54 0l-0.4 0.8-20 4.4c-4.8 11.2-9.6 22.8-14 34h53.6c4.4-11.2 8.4-22.8 12-34l-16.8-4.4v-0.8z" fill="#FEFEFE"></path><path d="M688 490.4c56.4-109.6 72.4-204 34-231.6l-22-15.2c34 28.4 15.2 110.8-40.4 206.4-10-13.6-20.8-27.2-32-40.8-116-138.8-248-218.8-295.2-178.8L272 288c43.2-44.4 182 24 309.2 152.4 18 18 34.4 36 49.6 54.4-16 23.6-34.4 48-54.4 72.4-112.8 135.6-242 216-291.2 181.6l63.2 47.6c50.8 35.6 174.8-55.6 278.4-204 13.2-19.2 25.2-38 36.4-56.8 71.2 96 101.6 183.6 69.2 216.8l19.2-19.2c37.6-32.8 9.2-132.4-63.6-242.8" fill="#CA2729"></path></svg>