<svg viewBox="0 0 1024 1024" version="1.1" xmlns="http://www.w3.org/2000/svg"><path d="M224 0h576c123.6 0 224 100.4 224 224v576c0 123.6-100.4 224-224 224H224c-123.6 0-224-100.4-224-224V224C0 100.4 100.4 0 224 0z" fill="#FFFFFF"></path><path d="M399.2 749.2c91.2 0 172-44.8 222-114l-2-2c-32 30.8-75.2 49.6-123.2 49.6-98.4 0-178-79.6-178.4-178-0.8-8.4-1.2-16.8-1.2-25.2 0-140 110.8-252.8 250.8-252.8 47.6 0 95.6 17.6 133.6 40.4C644.8 221.2 572 188 494 188 316.4 188 172 332.4 172 510.8c0 64 18.8 123.6 50.8 174 47.6 40 109.2 64.4 176.4 64.4z" fill="#2F9226"></path><path d="M554.4 568.4l66.8 67.2c-49.6 69.2-130.4 114-222 114-67.6 0-129.2-24.4-177.2-65.2 56.8 91.2 158 152 273.2 152 106.4 0 200.4-51.6 259.2-131.6 0 0 91.6-118.8 97.6-136l-148.8-149.2-148.8 148.8z" fill="#F38A00"></path><path d="M315.6 475.6c0 8 0.4 15.6 1.2 23.2 3.2-96 82-172.8 178.8-172.8 72.8 0 135.6 43.6 163.6 106.4l41.2-41.2 111.2 111.2c0.8-8.8 1.6-17.6 1.6-26.8 0-137.2-111.2-248.8-248.8-248.8-137.2 0-248.8 111.6-248.8 248.8" fill="#F38A00"></path></svg>