<svg viewBox="0 0 1024 1024" version="1.1" xmlns="http://www.w3.org/2000/svg"><path d="M1016.07 478.45c0.395 0.563 0.592 0.97 0.592 1.22s-0.462 0.374-1.383 0.374h-37.262c-2.701 0-4.841 0.344-6.422 1.031l-3.657-4.03c2.502 0.312 5.204 0.467 8.104 0.467h27.278l5.928-6.653 6.821 7.592z m-20.41 27.21h-24.467c-2.806 0-5.012 0.37-6.618 1.105l-3.71-4.317c2.541 0.335 5.28 0.502 8.223 0.502h40.208l6.416-7.729 7.321 8.833c0.467 0.536 0.702 0.937 0.702 1.205s-0.47 0.401-1.405 0.401h-18.85v40.152c0 3.413-0.335 5.854-1.003 7.328-0.669 1.47-2.24 2.926-4.712 4.365-2.474 1.44-4.01 2.158-4.612 2.158-0.603 0-1.037-0.5-1.305-1.506-0.466-2.208-1.653-3.863-3.558-4.967-1.905-1.104-5.667-2.226-11.282-3.363l0.302-2.108c6.149 0.735 10.412 1.105 12.785 1.105 2.371 0 3.894-0.203 4.56-0.604 0.67-0.4 1.005-1.037 1.005-1.906V505.66z m-29.891-32.71c0.397 0.473 0.597 0.898 0.597 1.269 0 0.372-0.58 0.659-1.74 0.863-1.16 0.202-2.7 1.151-4.619 2.843-8.083 6.976-17.058 13.002-26.927 18.082l-1.293-1.322c13.182-9.818 22.688-19.332 28.517-28.541l5.465 6.805z m-16.694 39.757c-4.338 4.34-9.711 9.279-16.122 14.819l-1.166-1.702c12.173-13.081 21.37-26.164 27.586-39.248l5.925 5.208c0.71 0.6 1.068 1.235 1.068 1.902 0 0.667-0.39 1-1.167 1-0.647 0-1.893 1.253-3.738 3.756-1.846 2.501-4.13 5.29-6.848 8.358l2.719 0.902c0.777 0.334 1.166 0.701 1.166 1.102 0 0.4-0.357 0.834-1.068 1.3l-1.555 1.203v24.829c0 6.808 0.048 11.546 0.147 14.216 0.097 2.669 0.145 4.289 0.145 4.856 0 0.566-0.211 1.083-0.632 1.552-0.421 0.466-1.376 1.066-2.866 1.802-1.49 0.733-2.59 1.101-3.3 1.101-0.715 0-1.07-0.735-1.07-2.202l0.485-10.214c0.196-4.47 0.291-8.909 0.291-13.314v-21.226z m-66.012-3.34h23.576v-14.932h-23.576v14.932z m0-18.075h23.576V476.36h-23.576v14.932z m0.437-17.19h21.688l3.68-4.716 6.167 4.716c0.73 0.602 1.094 1.103 1.094 1.504 0 0.4-0.331 0.77-0.993 1.102l-1.89 1.204v20.964c0 3.479 0.13 6.388 0.398 8.728 0.264 2.342 0.398 3.611 0.398 3.81 0 1.005-1.013 1.958-3.036 2.86-2.023 0.903-3.3 1.355-3.829 1.355-0.532 0-0.795-0.503-0.795-1.505v-1.606h-14.427c1.725 6.822 4.212 12.707 7.463 17.655 6.63-5.617 12.168-10.967 16.612-16.049l5.471 6.519c0.464 0.469 0.698 0.87 0.698 1.205 0 0.335-0.167 0.551-0.497 0.65-0.335 0.102-0.682 0.135-1.045 0.102a9.964 9.964 0 0 0-0.846-0.05c-0.994 0-2.785 0.668-5.372 2.006-2.586 1.339-7.03 4.012-13.331 8.024 5.572 7.09 14.225 12.371 25.964 15.849v1.504c-2.586 0.467-4.41 1.035-5.471 1.704s-1.924 1.806-2.587 3.412c-0.265 0.734-0.663 1.103-1.192 1.103-0.731 0-3.964-2.475-9.7-7.422-5.738-4.95-9.898-9.946-12.486-14.996-2.586-5.049-4.742-12.12-6.465-21.216h-6.565v35.71l16.115-5.918 0.697 1.503-12.238 8.327c-1.724 1.136-3 2.072-3.828 2.807-0.83 0.737-2.006 1.973-3.533 3.712-0.532 0.668-0.995 1.004-1.393 1.004s-0.796-0.2-1.192-0.602l-5.173-5.115c1.723-1.27 2.835-2.392 3.332-3.36 0.496-0.972 0.746-2.393 0.746-4.264V486.14c0-6.421-0.135-12.037-0.398-16.852l7.759 4.815z m-33.974 13.934c-2.249 5.218-4.464 9.768-6.645 13.647h18.148l5.157-6.022 5.85 7.325c0.399 0.337 0.597 0.67 0.597 1.004 0 0.335-0.396 0.5-1.19 0.5h-15.768v15.152h7.139l4.86-5.92 5.95 7.226c0.462 0.537 0.695 0.92 0.695 1.154 0 0.234-0.365 0.351-1.09 0.351h-17.554v22.677l16.562-12.542 0.991 1.403-13.884 15.354c-2.515 2.742-4.528 5.55-6.049 8.428-0.332 0.735-0.712 1.104-1.14 1.104-0.433 0-0.944-0.202-1.538-0.603l-5.654-3.912c2.71-2.676 4.066-5.318 4.066-7.927v-23.982h-4.957c-2.844 0-5.125 0.368-6.844 1.104l-3.569-4.515c2.313 0.401 5.09 0.6 8.33 0.6h7.04v-15.151h-7.734c-1.983 3.48-4.363 6.96-7.14 10.437l-1.388-0.905c7.205-13.777 12.892-30 17.056-48.665l7.933 4.415c0.993 0.536 1.488 1.021 1.488 1.456 0 0.436-0.513 0.87-1.536 1.304-1.026 0.435-2.1 1.957-3.224 4.566l-3.57 7.927h12.794l4.76-5.62 5.454 6.523c0.33 0.537 0.496 1.02 0.496 1.455 0 0.435-0.432 0.652-1.29 0.652h-23.602z m-103.972 4.827c4.906 6.805 8.487 13.053 10.744 18.744 2.253 5.692 3.382 11.435 3.382 17.226 0 1.685-0.515 3.184-1.542 4.496-1.03 1.315-2.124 1.972-3.283 1.972-1.162 0-2.024-0.337-2.586-1.01-0.565-0.674-0.847-1.55-0.847-2.628l0.1-3.94c0-10.98-2.52-22.296-7.56-33.949l1.592-0.91z m21.223 56.893v-64.058c0-6.57-0.132-11.931-0.395-16.09l10.118 3.923c0.793 0.268 1.19 0.588 1.19 0.955 0 0.369-0.397 0.754-1.19 1.156l-2.678 1.509v72.605h12.1v-65.063c0-6.168-0.098-11.565-0.296-16.192l9.721 4.929c0.792 0.402 1.19 0.805 1.19 1.207s-0.331 0.77-0.991 1.106l-2.58 1.508v57.119c9.191-16.357 14.746-31.51 16.666-45.454l8.729 5.43c0.924 0.604 1.389 1.092 1.389 1.459 0 0.369-0.514 0.855-1.54 1.458-1.024 0.603-1.801 1.307-2.329 2.112-0.53 0.804-1.704 3.116-3.522 6.938-1.82 3.822-4.662 9.086-8.532 15.787-3.867 6.706-7.49 12.136-10.86 16.291v11.365h17.26l6.545-7.844 7.54 8.749c0.398 0.535 0.596 0.97 0.596 1.307 0 0.334-0.431 0.502-1.29 0.502h-79.655c-2.514 0-4.696 0.301-6.548 0.906l-3.669-4.224c2.445 0.403 5.09 0.604 7.936 0.604h25.095zM685.6 504.652c6.16 1.62 10.745 3.413 13.762 5.373 3.014 1.963 4.522 3.737 4.522 5.325 0 1.59-0.177 2.822-0.53 3.7-0.353 0.88-0.754 1.32-1.201 1.32-1.413 0-2.568-0.812-3.465-2.435-0.385-0.676-2.134-2.4-5.246-5.171-3.112-2.772-5.917-4.97-8.42-6.591l0.578-1.521z m-11.562-39.294c4.83 1.064 7.998 2.112 9.507 3.143 1.509 1.033 2.263 2.428 2.263 4.192 0 1.763-0.37 3.078-1.106 3.941-0.74 0.865-1.628 1.298-2.666 1.298-1.04 0-1.913-0.333-2.615-1-0.704-0.664-1.258-1.56-1.66-2.693-1.207-3.659-2.716-6.287-4.527-7.883l0.804-0.998z m-2.375 71.515h18.075V521.94h-18.075v14.932z m-9.718-55.012c3.924 1.072 6.918 2.392 8.982 3.964 2.06 1.572 3.093 3.145 3.093 4.715 0 1.571-0.367 2.875-1.098 3.91-0.733 1.04-1.746 1.557-3.043 1.557-1.298 0-2.147-1.037-2.545-3.111-0.667-3.075-2.63-6.452-5.888-10.13l0.5-0.905z m11.433 38.03h16.238l2.49-3.121 5.478 3.924c0.531 0.272 0.798 0.572 0.798 0.908 0 0.337-0.267 0.67-0.798 1.005l-1.792 1.31v6.14c0 2.618 0.065 4.9 0.2 6.846l0.297 4.528c0 1.277-0.764 2.367-2.29 3.273-1.529 0.905-2.54 1.359-3.038 1.359-0.498 0-0.747-0.505-0.747-1.51v-3.725h-18.031v2.014c0 1.409-0.184 2.349-0.548 2.818-0.367 0.469-1.147 0.957-2.341 1.46-1.197 0.503-2.094 0.755-2.691 0.755-0.73 0-1.096-0.403-1.096-1.21 0-0.805 0.066-1.577 0.2-2.313 0.53-4.43 0.798-8.624 0.798-12.583v-4.127c0-2.752-0.068-6.007-0.2-9.765-3.654 2.685-6.774 4.832-9.365 6.443l-0.995-1.61c6.84-6.578 12.384-13.12 16.636-19.63l5.578 4.025c0.798 0.605 1.196 1.144 1.196 1.612 0 0.47-0.632 0.856-1.892 1.158-1.264 0.302-2.559 0.99-3.887 2.062-2.258 2.082-4.15 3.66-5.678 4.73l5.48 3.224z m-18.128-19.963v34.196c0 6.552 0.065 11.297 0.199 14.24 0.13 2.94 0.199 4.578 0.199 4.914 0 1.67-0.914 2.89-2.736 3.66-1.826 0.768-2.97 1.153-3.434 1.153-0.929 0-1.392-0.77-1.392-2.306l0.498-10.531c0.264-4.612 0.398-9.057 0.398-13.336v-23.566c0-5.215-0.168-10.73-0.498-16.547l9.352 5.214h29.55c2.32-4.345 4.477-9.66 6.467-15.944l7.66 3.007c0.928 0.401 1.394 0.82 1.394 1.255 0 0.435-0.448 0.82-1.344 1.153-0.895 0.335-2.007 1.137-3.333 2.406-1.328 1.271-3.815 3.979-7.462 8.123h16.019l3.58-4.612 6.965 5.013c0.464 0.337 0.697 0.702 0.697 1.103 0 0.402-0.398 0.87-1.194 1.405l-1.99 1.202v43.624c0 2.405-0.298 4.21-0.895 5.414-0.597 1.204-2.04 2.709-4.33 4.514-2.286 1.805-3.796 2.707-4.526 2.707s-1.093-0.57-1.093-1.706c0-2.072-0.565-3.609-1.693-4.611-1.127-1.003-3.548-2.175-7.261-3.512l0.1-1.603c3.58 0.602 6.217 0.903 7.907 0.903 1.693 0 2.935-0.219 3.733-0.652 0.796-0.436 1.194-1.454 1.194-3.06v-43.22h-52.731z m-19.738-22.802c2.506 0.404 5.246 0.606 8.216 0.606h67.905l6.336-7.66 7.324 9.07c0.397 0.336 0.595 0.689 0.595 1.058 0 0.37-0.43 0.553-1.287 0.553h-78.695c-2.707 0-4.95 0.37-6.731 1.108l-3.663-4.735z m-54.196 27.526c8.886 5.607 13.33 10.596 13.33 14.964 0 1.825-0.493 3.457-1.475 4.888-0.985 1.436-1.969 2.152-2.951 2.152-0.985 0-1.85-0.342-2.596-1.027-0.747-0.683-1.154-1.48-1.22-2.395-0.273-3.586-0.782-6.552-1.526-8.9-0.748-2.348-2.207-5.346-4.377-8.998l0.815-0.684z m29.437-9.19v47.769c0 4.055-0.366 6.798-1.094 8.229-0.73 1.428-2.286 2.892-4.672 4.388-2.386 1.495-3.878 2.243-4.474 2.243-0.598 0-0.946-0.665-1.044-1.994-0.1-1.331-0.416-2.428-0.944-3.291-0.532-0.864-1.591-1.68-3.183-2.443-1.59-0.766-4.174-1.712-7.753-2.843l0.298-1.397c5.102 0.465 8.747 0.698 10.934 0.698 2.188 0 3.58-0.248 4.176-0.747 0.598-0.498 0.896-1.412 0.896-2.742v-47.87h-15.807c-2.653 0-4.807 0.368-6.463 1.099l-3.48-4.188c2.452 0.333 5.136 0.498 8.053 0.498h17.697v-10.77c0-5.319-0.134-10.637-0.398-15.957l9.544 3.79c0.86 0.466 1.291 0.931 1.291 1.395 0 0.467-0.43 0.932-1.29 1.398l-2.287 1.396v18.748h4.87l5.469-6.582 5.864 7.28c0.464 0.4 0.697 0.815 0.697 1.245 0 0.435-0.432 0.649-1.292 0.649h-15.608z m-49.717-2.49v11.204c5.642 2.403 9.362 4.389 11.153 5.955 1.794 1.567 2.69 3.218 2.69 4.952 0 1.735-0.333 3.1-0.995 4.103-0.666 1-1.529 1.499-2.59 1.499-1.793 0-2.888-0.932-3.287-2.8-1.13-5.136-3.454-9.138-6.971-12.006v27.914c0 5.47 0.031 9.47 0.1 12.006l0.198 6.104c0 1.065-0.946 2.234-2.838 3.501-1.894 1.266-3.222 1.901-3.984 1.901-0.765 0-1.145-0.8-1.145-2.402l0.398-9.905c0.264-4.335 0.398-8.805 0.398-13.406V507.58c-3.918 10.604-10.425 20.109-19.522 28.514l-1.293-0.6c5.51-7.337 9.511-13.807 12.001-19.41 2.489-5.603 5.161-13.307 8.018-23.112h-8.167c-2.724 0-4.915 0.368-6.574 1.1l-3.386-4.203c2.39 0.402 5.078 0.602 8.068 0.602h10.855v-9.106c0-1.266-0.134-6.604-0.398-16.007l10.06 4.302c0.728 0.335 1.095 0.667 1.095 0.999 0 0.335-0.367 0.736-1.096 1.202l-2.788 1.6v17.01h5.378l4.48-5.603 5.081 6.002c0.397 0.468 0.596 0.935 0.596 1.402 0 0.467-0.397 0.7-1.194 0.7h-14.341z m-79.758-2.18c-3.047 8.383-6.653 15.968-10.824 22.754v33.331l21.447-9.68 0.697 1.597-17.677 12.175c-1.522 0.997-3.16 2.395-4.915 4.19-1.754 1.796-2.863 3.126-3.325 3.991-0.465 0.865-0.978 1.299-1.54 1.299-0.563 0-1.142-0.499-1.737-1.497l-4.369-7.285c1.72-0.933 2.994-1.996 3.823-3.195 0.826-1.196 1.241-2.959 1.241-5.287v-20.658c-6.752 8.382-15.856 15.867-27.308 22.454l-0.892-1.299c11.65-8.782 21.05-18.96 28.2-30.535l-0.498-9.782 4.568 2.595c2.582-5.055 4.833-10.51 6.752-16.365H454.17c0.263 1.595 0.397 3.027 0.397 4.291 0 3.526-0.912 6.237-2.73 8.134-1.823 1.896-3.726 2.842-5.71 2.842-1.127 0-2.02-0.348-2.681-1.046-0.664-0.699-0.995-1.548-0.995-2.545 0-0.998 0.86-2.395 2.583-4.193 3.905-3.924 5.859-9.213 5.859-15.866h1.886c0.462 1.863 0.793 3.66 0.992 5.39h22.045a139.911 139.911 0 0 0 4.567-20.458l8.839 2.794c0.66 0.2 0.992 0.582 0.992 1.147 0 0.566-0.282 0.983-0.845 1.248-0.563 0.266-1.258 1.13-2.084 2.594-0.829 1.464-2.333 5.689-4.518 12.674h25.52l5.262-6.187 8.143 7.984c0.794 0.798 1.191 1.431 1.191 1.896 0 0.465-0.596 0.698-1.787 0.698-2.979 0-5.827 0.765-8.541 2.296-2.714 1.53-5.627 3.958-8.737 7.284l-1.191-0.997 5.957-9.98h-25.519c2.05 11.91 5.096 21.655 9.135 29.24 7.28-5.59 13.007-11.543 17.179-17.863l5.56 6.784c0.596 0.8 0.893 1.399 0.893 1.797 0 0.399-0.613 0.65-1.837 0.748-1.225 0.101-3.194 0.85-5.907 2.245-2.716 1.398-7.515 4.36-14.398 8.883 6.95 11.51 18.335 19.395 34.157 23.652v1.595c-2.185 0.067-4.005 0.45-5.462 1.149-1.456 0.697-2.614 2.144-3.475 4.34-0.331 0.8-0.728 1.199-1.19 1.199-0.862 0-4.667-2.595-11.42-7.786-6.752-5.189-12.312-12.024-16.681-20.506-4.37-8.484-7.15-19.91-8.341-34.28z m-87.817 3.643h21.22v-18.86h-21.22v18.86z m21.22 23.577v-20.433h-20.92c0 8.24-0.363 15.05-1.085 20.433h22.004z m-18.89-44.808h18.173l3.177-4.703 7.548 6.004c0.661 0.535 0.994 0.984 0.994 1.351s-0.333 0.684-0.994 0.95l-2.88 1.4v67.848c0 3.402-0.315 5.669-0.943 6.804-0.63 1.135-1.986 2.367-4.073 3.703-2.084 1.333-3.475 2.001-4.17 2.001-0.694 0-1.143-0.75-1.34-2.253-0.198-1.5-1.16-2.818-2.881-3.95-1.721-1.136-4.204-2.137-7.447-3.003l0.297-1.801c4.172 0.4 7.183 0.599 9.038 0.599 1.852 0 3.06-0.217 3.625-0.65 0.561-0.434 0.843-1.25 0.843-2.45v-24.017h-22.444c-1.388 9.94-4.253 17.829-8.59 23.666-4.336 5.836-11.337 10.823-21.001 14.96l-0.697-1.4c8.607-5.605 14.88-11.795 18.82-18.565 3.938-6.77 5.909-17.926 5.909-33.473v-27.117c0-3.467-0.134-7.004-0.397-10.607l9.432 4.703z m-42.41 50.309h17.29V503.08h-17.29v20.433z m0-23.577h17.29v-18.86h-17.29v18.86z m0.477-21.612h13.46l4.585-5.108 6.73 6.01c0.454 0.335 0.683 0.685 0.683 1.053 0 0.367-0.23 0.65-0.683 0.851l-3.414 2.104v34.359c0 2.339 0.064 4.44 0.195 6.31l0.291 4.709c0 1.135-0.876 2.237-2.632 3.306-1.755 1.07-2.927 1.601-3.511 1.601-0.585 0-0.878-0.466-0.878-1.401v-6.511h-16.191v8.715c0 1.469-0.96 2.654-2.878 3.556-1.92 0.901-3.139 1.352-3.659 1.352s-0.876-0.233-1.073-0.701c-0.195-0.467-0.195-1.368 0-2.705 0.52-5.476 0.782-10.72 0.782-15.727v-34.259c0-4.407-0.099-8.481-0.293-12.22l8.486 4.706zM275.71 463c4.275 0.679 7.547 1.796 9.82 3.352 2.272 1.56 3.41 3.32 3.41 5.282 0 1.085-0.443 2.407-1.323 3.963-0.884 1.559-2.035 2.335-3.461 2.335-2.375 0-3.732-1.118-4.07-3.352-0.476-4.063-2.238-7.516-5.292-10.36l0.916-1.22z m-0.916 76.23h18.075v-11.788h-18.075v11.788z m-6.287-36.15h30.649v-10.217h-30.65v10.217z m6.306 22.304h16.511l2.816-4.229 7.188 5.538c0.646 0.47 0.972 0.856 0.972 1.158 0 0.302-0.326 0.588-0.972 0.854l-2.428 0.806v4.43c0 1.277 0.097 2.753 0.291 4.43l0.29 4.128c0 1.141-0.97 2.182-2.912 3.123-1.943 0.94-3.158 1.41-3.642 1.41-0.486 0-0.729-0.403-0.729-1.21v-3.12h-17.385v1.309c0 1.14-0.18 2.014-0.535 2.618-0.357 0.603-1.231 1.223-2.623 1.863-1.393 0.637-2.396 0.955-3.01 0.955-0.617 0-0.924-0.437-0.924-1.308 0-0.872 0.05-2.3 0.147-4.28 0.097-1.98 0.146-4.815 0.146-8.507v-4.432c0-2.683-0.098-5.771-0.293-9.262l7.092 3.726z m-5.911-36.566h28.248l2.586-4.5 8.056 5.102c0.53 0.333 0.795 0.65 0.795 0.95 0 0.299-0.266 0.649-0.795 1.049l-2.387 1.5v4.302c0 1.135 0.1 2.568 0.299 4.301l0.297 4.2c0 1.136-0.896 2.186-2.684 3.152-1.79 0.967-3.034 1.45-3.73 1.45-0.698 0-1.045-0.4-1.045-1.2v-3.702H267.71c0 1.601-0.134 2.702-0.398 3.3-0.267 0.602-1.094 1.252-2.487 1.952-1.394 0.7-2.436 1.05-3.133 1.05-0.696 0-1.044-0.666-1.044-2l0.198-4.702c0.066-1.865 0.1-4.266 0.1-7.2v-4.301c0-2.668-0.1-5.767-0.298-9.302l8.254 4.6z m-12.24 27.892v23.32c0 2.58 0.064 4.928 0.198 7.045l0.197 5.36c0 1.586-1.071 2.843-3.21 3.77-2.14 0.926-3.506 1.389-4.098 1.389-0.593 0-0.89-0.397-0.89-1.19 0-0.794 0.032-1.654 0.1-2.58 0.46-5.16 0.69-10.519 0.69-16.076v-12.007c0-5.293-0.132-10.75-0.394-16.374l8.097 4.565h53.037l3.06-4.267 8.297 6.052c0.657 0.464 0.986 0.828 0.986 1.091 0 0.266-0.428 0.63-1.284 1.092l-2.862 1.688v26.595c0 2.447-0.281 4.233-0.84 5.359-0.56 1.123-2.108 2.496-4.643 4.118-2.535 1.62-4.048 2.431-4.543 2.431-0.492 0-0.838-0.53-1.036-1.589-0.395-2.579-1.367-4.414-2.913-5.507-1.549-1.09-3.672-1.87-6.37-2.331l0.099-1.687c4.014 0.462 6.944 0.695 8.79 0.695 1.842 0 3.06-0.25 3.654-0.745 0.592-0.496 0.888-1.407 0.888-2.729V516.71h-55.01z m70.774-37.448c0.53 0.495 0.798 0.88 0.798 1.16 0 0.28-0.534 0.417-1.597 0.417h-75.068c-2.66 0-4.92 0.342-6.78 1.022L241 477.683c2.524 0.37 5.284 0.557 8.273 0.557h65.102l5.982-6.595 7.078 7.617z" fill="#1B1918"></path><path d="M99.953 611.269c46.067 0 84.854-31.242 96.425-73.723h-48.34c-9.68 16.16-27.338 26.98-47.516 26.98-30.512 0-55.267-24.732-55.38-55.273a79.644 79.644 0 0 1-0.381-7.796c0-43.437 34.433-78.42 77.792-78.42 14.775 0 29.703 5.482 41.507 12.594C146.76 421.268 124.173 411 99.953 411 44.76 411 0 455.841 0 511.134S44.76 611.27 99.953 611.27z" fill="#2F9226"></path><path d="M118.628 529.015l20.718 20.798C123.92 571.227 98.83 585.166 70.5 585.166c-20.961 0-40.147-7.633-54.96-20.274 17.671 28.298 49.012 47.122 84.729 47.122 32.974 0 62.218-16.045 80.418-40.777l0.003 0.001s28.413-36.892 30.29-42.223l-46.176-46.353-46.176 46.353z" fill="#F38A00"></path><path d="M44.618 500.24c0 2.44 0.119 4.851 0.34 7.234 0.993-29.789 25.448-53.643 55.464-53.643 22.626 0 42.091 13.555 50.732 32.988l12.825-12.831 34.527 34.543c0.291-2.724 0.445-5.49 0.445-8.292 0-42.63-34.556-77.201-77.166-77.201s-77.167 34.571-77.167 77.201" fill="#F38A00"></path></svg>