<svg viewBox="0 0 1024 1024" version="1.1" xmlns="http://www.w3.org/2000/svg"><path d="M49.66 421.846l67.091-18.968 0.448 58.712-67.071 17.765-0.467-57.51z m4.298 101.506l60.642-15.578v76.123l52.683-15.23V386.788c66.435-13.815 127.976 55.03 51.174 116.166 76.475 0 61.873 89.9-13.229 110.849L95.236 639.262 0 613.802l53.958-14.763v-75.687zM350.878 586.914h3.412c5.583 0 9.55-0.595 11.884-1.785 2.383-1.203 3.575-3.172 3.575-5.933 0-2.436-1.078-4.249-3.232-5.424-2.139-1.176-5.436-1.756-9.86-1.756h-5.78v14.898z m0 18.87h7.677c4.527 0 7.855-0.575 9.985-1.713 2.145-1.139 3.195-2.901 3.195-5.289 0-2.595-1.094-4.541-3.328-5.888-2.249-1.334-5.503-2.007-9.852-2.007h-7.677v14.898z m4.987-43.7c8.384 0 14.767 1.218 19.131 3.628 4.348 2.41 6.521 5.914 6.521 10.526 0 2.133-0.707 4.017-2.139 5.651-1.414 1.62-3.467 2.978-6.193 4.044 3.83 0.734 6.866 2.189 9.091 4.35 2.243 2.146 3.364 4.722 3.364 7.7 0 2.41-0.673 4.667-2.035 6.786-1.398 2.12-3.278 3.878-5.693 5.263-2.38 1.344-5.072 2.272-8.074 2.84-3.019 0.581-7.262 0.858-12.73 0.858h-18.149v-51.647h16.906z m75.463 28.803l-9.356-16.885-9.515 16.885h18.87z m-21.712 7.802l-9.349 15.041h-12.64l31.414-51.647h9.355l30.742 51.647h-14.831l-8.284-15.04h-26.407z m69.162 15.041H466.09v-51.647h11.075l35.977 34.122v-34.122h12.54v51.647h-12.23l-34.674-33.528v33.528z m71.735-29.476l27.856-22.17h18.686l-31.642 24.866 36.747 26.78h-19.252l-32.395-21.464v-8.012z m-13.905 29.476h13.905v-51.647h-13.905v51.647z m124.151-24.61c0 2.682 0.483 5.24 1.462 7.631a17.625 17.625 0 0 0 4.248 6.207 20.882 20.882 0 0 0 6.7 4.286 20.546 20.546 0 0 0 7.765 1.52c5.834 0 10.726-1.894 14.652-5.681 3.938-3.788 5.895-8.488 5.895-14.101 0-2.378-0.47-4.673-1.412-6.815-0.941-2.17-2.328-4.161-4.136-5.972-2.143-2.102-4.434-3.65-6.886-4.66-2.44-0.994-5.153-1.506-8.113-1.506-2.662 0-5.214 0.47-7.604 1.383a19.198 19.198 0 0 0-6.403 3.995 19.63 19.63 0 0 0-4.533 6.345c-1.09 2.405-1.635 4.866-1.635 7.368z m-14.898-1.536c0-3.744 0.937-7.302 2.794-10.659 1.858-3.357 4.575-6.384 8.183-9.081a37.616 37.616 0 0 1 11.315-5.782c4.145-1.305 8.628-1.965 13.387-1.965 4.898 0 9.457 0.66 13.633 1.965a37.78 37.78 0 0 1 11.484 5.868c3.561 2.668 6.233 5.652 8.029 8.966 1.78 3.3 2.686 6.872 2.686 10.688 0 3.787-0.767 7.288-2.318 10.487-1.52 3.185-3.838 6.068-6.908 8.608a38.036 38.036 0 0 1-12.144 6.757c-4.483 1.52-9.334 2.28-14.539 2.28-5.28 0-10.117-0.774-14.554-2.309-4.452-1.55-8.428-3.83-11.944-6.872-2.993-2.525-5.266-5.394-6.785-8.622-1.536-3.213-2.319-6.656-2.319-10.329z m82.437 26.146v-51.647h42.708v9.052h-30.027v12.16h26.144v8.908H740.98v21.527h-12.681z m106.048 0H821.66v-51.647h12.686v20.824h30.33v-20.824h14.59v51.647h-14.59v-23.21h-30.33v23.21z m105.506 0h-44.695v-51.647h44.695v9.052h-31.903v12.16h28.016v6.995H907.95v16.043h31.903v7.397z m22.843-28.803h3.068c4.98 0 8.53-0.555 10.633-1.665 2.132-1.124 3.184-2.96 3.184-5.538 0-2.274-0.964-3.966-2.877-5.063-1.928-1.097-4.864-1.639-8.837-1.639h-5.17v13.905z m0 21.85h6.96c4.082 0 7.093-0.536 9.02-1.599 1.941-1.062 2.891-2.708 2.891-4.936 0-2.422-0.99-4.238-3.01-5.495-2.022-1.246-4.98-1.874-8.901-1.874h-6.96v13.905z m3.714-44.694c8.756 0 15.39 1.22 19.956 3.63 4.53 2.409 6.796 5.913 6.796 10.525 0 2.133-0.755 4.017-2.23 5.651-1.492 1.62-3.63 2.978-6.472 4.044 3.992 0.734 7.174 2.189 9.493 4.35 2.32 2.146 3.506 4.722 3.506 7.7 0 2.41-0.72 4.667-2.14 6.786-1.438 2.12-3.398 3.878-5.932 5.263-2.481 1.344-5.286 2.272-8.414 2.84-3.129 0.581-7.551 0.858-13.268 0.858H948.79v-51.647h17.62z m38.994 51.647h13.905v-51.647h-13.905v51.647z" fill="#E30016"></path><path d="M454.649 500.949h-34.757V489.36h34.757v11.589z m-6.24-87.072h23.452a5.96 5.96 0 0 1 5.96 5.96v31.345c0 3.249-1.223 6.065-3.666 8.45-2.444 2.386-5.33 3.58-8.657 3.58H450.56v-13.913h4.991c1.04 0 1.898-0.355 2.574-1.066 0.676-0.71 1.014-1.523 1.014-2.436v-16.485h-24.489v36.079h38.203a4.966 4.966 0 0 1 4.966 4.966v41.434c0 3.452-1.248 6.37-3.743 8.756-2.496 2.385-5.46 3.578-8.891 3.578h-27.329v-16.453h19.218c0.936 0 1.767-0.33 2.495-0.99 0.728-0.66 1.092-1.497 1.092-2.512v-23.344h-37.68a6.952 6.952 0 0 1-6.952-6.953V420.83a6.952 6.952 0 0 1 6.953-6.953h6.805l-0.156-5.397h17.73l1.047 5.397z m4 34.526H437.27v-15.052h17.125v13.066c0 1.097-0.89 1.986-1.987 1.986z m-114.603 68.629v-55.564H333v-13.679c6.815-1.517 12.129-3.518 15.943-6 3.814-2.484 7.58-6.395 11.299-11.735h-11.3v9.673H333v-20.793a4.966 4.966 0 0 1 4.966-4.966h28.008v-5.724h19.503v5.724h17.633c2.992 0 5.546 1.058 7.661 3.172 2.116 2.115 3.173 4.668 3.173 7.659v14.928h-18.028v-6.114c0-1.032-0.335-1.883-1.006-2.553-0.67-0.67-1.522-1.006-2.554-1.006h-11.528l-9.691 11.364-6.87 8.056h8.594v-7.346h17.874l0.154 7.346h23.21v12.762h-22.436v6.04H414.1v12.607h-22.436v7.97H414.1v12.762h-22.436v7.971H414.1v14.539l-69.355-0.14a6.952 6.952 0 0 1-6.938-6.953z m33.813-14.152H356.17v5.794h15.448v-5.794z m0-21.245H356.17v5.794h15.448v-5.794z m-15.448-19.313v5.794h15.448v-5.794H356.17z m277.6-48.713h27.488v15.88h-69.514v-15.88h23.971l-1.93-5.365h18.054l1.93 5.365z m22.067 23.92h5.42v15.044h-25.556v5.32h25.557v15.044h-25.557v6.767h-19.986v-6.767h-23.97v-15.043h23.97v-5.321h-23.97v-15.044h6.937v-8.04h17.75l1.297 8.04h17.073l1.505-8.04h19.53v8.04z m-59.924 71.533h65.345v15.063H512.577v-15.063h66.003v-7.138h-62.931v-15.217h62.93v-7.003h17.335v7.003h64.818v15.217h-64.818v7.138z m-82.84-23.938V468.69l5.649-5.242v-47.501a7.946 7.946 0 0 1 7.946-7.946h55.2a7.946 7.946 0 0 1 7.945 7.946v21.235a7.946 7.946 0 0 1-7.945 7.945h-43.913v17.1c-0.795 5.44-3.595 10.286-8.4 14.54-4.804 4.252-10.298 7.038-16.482 8.358z m30.509-38.497h38.397a3.973 3.973 0 0 1 3.972 3.973v22.956a3.973 3.973 0 0 1-3.972 3.973h-38.397a3.973 3.973 0 0 1-3.973-3.973V450.6a3.973 3.973 0 0 1 3.973-3.973z m-5.904-17.138h32.826v-5.795h-30.84c-1.097 0-1.986 0.89-1.986 1.987v3.808z m226.086-21.245h72.05a6.952 6.952 0 0 1 6.952 6.952v40.762c0 2.132-0.35 4.07-1.05 5.813l-0.321 0.735c-0.813 2.03-2.032 3.857-3.657 5.481-1.32 1.32-3.097 2.538-5.332 3.655-2.234 0.812-4.367 1.218-6.398 1.218h-48.807v29.587c0 1.218 0.458 2.335 1.372 3.35 1.117 0.914 2.234 1.37 3.351 1.37h15.44v16.958h-22.65c-2.335 0-4.519-0.406-6.55-1.218-2.031-0.812-3.86-2.03-5.485-3.655-1.32-1.32-2.539-3.045-3.656-5.177-0.812-2.131-1.218-6.245-1.218-8.478v-91.394a5.96 5.96 0 0 1 5.959-5.96z m-51.371 78.527h-16.378v-15.21h16.378v-13.19h-16.378v-15.363h54.066v15.363h-16.018v13.19h16.018v15.21h-16.018v15.516c0 1.434 0.471 2.56 1.414 3.38 1.047 0.922 2.198 1.383 3.454 1.383h11.15v15.143h-19.63c-2.407 0-4.71-0.41-6.909-1.229-1.151-0.41-2.172-0.921-3.062-1.536a31.44 31.44 0 0 1-2.748-2.15c-1.436-1.318-2.564-2.785-3.384-4.403l-0.385-0.821c-1.047-2.049-1.57-4.25-1.57-6.606V486.77z m130.269 9.046h-19.198c3.08 4.844 5.776 8.016 8.086 9.513 2.311 1.498 6.235 2.392 11.773 2.684v16.192h-10.143c-8.896-1.86-16.609-7.258-23.139-16.192-6.53-8.935-13.96-20.653-22.29-35.154h20.935l3.362 5.538h30.614v17.419z m-92.581-64.397h-30.203c-2.272 3.318-4.948 6.044-8.029 8.179-3.08 2.135-8.352 4.364-15.813 6.688v-18.333c3.904-2.595 6.644-5.177 8.22-7.748 1.576-2.571 2.796-6.448 3.66-11.63h18.656V415.564h23.509v15.855z m73.375-7.726h-46.342v7.726h46.342v-7.726z m0 25.108h-46.342v7.725h46.342v-7.725z m54.412 27.274V458.88c6.814-2.13 11.6-4.27 14.357-6.419 2.758-2.148 5.825-6.126 9.2-11.934-4.738 2.606-8.467 4.281-11.186 5.025-2.72 0.743-6.843 1.215-12.37 1.416V429.96c6.829-2.258 11.614-4.576 14.356-6.954 2.742-2.378 6.178-7.191 10.307-14.439h19.683c-1.152 5.252-2.996 10.065-5.532 14.439-2.535 4.374-5.975 8.931-10.318 13.671h17.045c-2 5.019-3.78 8.998-5.338 11.939-1.559 2.94-4.027 6.973-7.404 12.098v61.48h-18.443v-48.229c-2.354 1.147-4.418 1.85-6.193 2.111-1.774 0.261-4.496 0.261-8.164 0z m53.72-33.068h92.685v15.083h-14.583v47.511c0 2.313-0.46 4.475-1.38 6.486-0.41 1.106-0.921 2.061-1.535 2.866-0.614 0.804-1.33 1.659-2.148 2.564-1.431 1.407-3.272 2.614-5.522 3.62-1.841 0.704-4.04 1.055-6.597 1.055h-38.605V508.69l32.342-0.07c1.33 0 2.455-0.503 3.375-1.508 1.023-0.805 1.534-1.911 1.534-3.319v-45.701H931.59v-15.083z m92.685-32.833v15.45H931.59v-15.45h92.684z m-469.788 49.472v3.973h15.891v-3.973h-15.891z" fill="#E30016"></path></svg>