<svg viewBox="0 0 1325 1024" version="1.1" xmlns="http://www.w3.org/2000/svg" p-id="1091" width="200" height="200"><path d="M635.482353 349.364706c-9.035294 0-16.564706-6.023529-18.070588-15.058824-3.011765-28.611765 0-58.729412 0-88.847058V120.470588c0-4.517647-1.505882-30.117647 1.505882-30.117647h91.858824c3.011765 0 1.505882 54.211765 1.505882 60.235294v156.611765c0 6.023529 3.011765 18.070588 0 22.588235 0 3.011765-1.505882 7.529412-3.011765 10.541177-4.517647 9.035294-19.576471 7.529412-27.105882 7.529412-16.564706 1.505882-30.117647 1.505882-46.682353 1.505882z m134.023529-249.976471C944.188235 144.564706 1076.705882 301.176471 1084.235294 486.4c13.552941 218.352941-149.082353 414.117647-364.423529 444.235294-237.929412 31.623529-462.305882-149.082353-477.364706-391.529412-13.552941-201.788235 121.976471-390.023529 317.741176-438.211764v231.905882c0 25.6-1.505882 39.152941 27.105883 39.152941 15.058824 0 30.117647-1.505882 45.17647 0 25.6 1.505882 21.082353 24.094118 21.082353 45.176471v96.37647c-9.035294-18.070588-42.164706-10.541176-57.223529-10.541176H542.117647c-12.047059-1.505882-16.564706-7.529412-18.070588-18.070588v-60.235294V210.823529C406.588235 263.529412 329.788235 384 329.788235 513.505882c0 164.141176 124.988235 310.211765 289.129412 332.8V670.117647c0-7.529412 3.011765-16.564706-6.023529-16.564706h-45.176471c-13.552941 0-40.658824 4.517647-43.670588-15.058823-1.505882-10.541176 0-22.588235 0-33.129412v-99.388235c0 7.529412 3.011765 15.058824 12.047059 16.564705 21.082353 4.517647 48.188235 0 69.270588 0 15.058824 0 46.682353-7.529412 51.2 13.552942 3.011765 13.552941 0 27.105882 0 40.658823v66.258824c0 6.023529 0 6.023529 4.517647 9.035294 3.011765 1.505882 10.541176 0 15.058823 0v-85.835294c0-15.058824-6.023529-45.176471 18.070589-45.176471 22.588235-3.011765 48.188235 0 70.77647 0 15.058824 0 43.670588 6.023529 42.164706-18.070588v88.847059c0 10.541176-4.517647 33.129412 0 42.164706 13.552941 30.117647-79.811765 15.058824-88.847059 18.070588-6.023529 1.505882-3.011765-1.505882-4.517647 6.023529-1.505882 3.011765 0 9.035294 0 12.047059V844.8C873.411765 822.211765 999.905882 677.647059 999.905882 512c0-129.505882-76.8-249.976471-192.752941-304.188235v240.941176c0 4.517647-3.011765 30.117647 0 33.129412 0 9.035294-4.517647 18.070588-15.058823 18.070588-22.588235 4.517647-51.2 0-73.788236 0-15.058824 0-36.141176-6.023529-43.670588 10.541177v-85.835294c0-15.058824-7.529412-49.694118 12.047059-54.211765 18.070588-6.023529 79.811765 12.047059 82.823529-15.058824 4.517647-39.152941 0-84.329412 0-124.988235V99.388235z" fill="#009C96" p-id="1092"></path></svg>