<svg t="1660877357348" class="icon" viewBox="0 0 1325 1024" version="1.1" xmlns="http://www.w3.org/2000/svg" p-id="3193" width="200" height="200"><path d="M1067.670588 627.952941l3.011765-16.564706 3.011765-13.552941 3.011764-13.552941 3.011765-13.552941 1.505882-9.035294v-13.552942l1.505883-7.529411v-21.082353l1.505882-9.035294-1.505882-10.541177v-21.082353l-1.505883-10.541176v-9.035294l-1.505882-10.541177-3.011765-10.541176-1.505882-10.541177-1.505882-10.541176-3.011765-10.541177-1.505882-10.541176-4.517647-7.529412-1.505883-10.541176-3.011765-9.035295-3.011764-10.541176-6.02353-7.529412-3.011764-10.541176-3.011765-9.035294-6.023529-9.035294-4.517648-10.541177-4.517647-7.529412-6.023529-9.035294-4.517647-9.035294-6.023529-7.529412-6.02353-9.035294-6.023529-7.529412-6.02353-7.529411-7.529411-9.035294-6.02353-9.035295-7.529412-6.023529-7.529411-9.035294-7.529412-7.529412-7.529412-7.529412-9.035294-7.529411-6.023529-7.529412-9.035295-6.02353-7.529411-7.529411-9.035294-6.02353-7.529412-6.023529-7.529412-6.02353-9.035294-6.023529-9.035294-4.517647-10.541177-6.023529-7.529411-4.517648-9.035295-4.517647-9.035294-4.517647-10.541176-4.517647-7.529412-3.011764-10.541176-4.517647-9.035295-3.011765-10.541176-3.011765-7.529412-4.517647-10.541176-3.011765-10.541177-1.505882-9.035294-3.011765-10.541176-1.505882-10.541177-3.011765-9.035294-1.505882h-10.541176l-10.541177-1.505882-10.541176-1.505883h-63.247059l-12.047059 1.505883-10.541176 1.505882h-10.541177l-10.541176 1.505882-9.035294 3.011765-9.035295 1.505882-10.541176 3.011765-10.541177 1.505882-10.541176 3.011765-7.529412 4.517647-10.541176 3.011765-9.035294 3.011765-10.541177 4.517647-7.529412 3.011764-9.035294 4.517647-10.541176 4.517647-9.035294 4.517647-7.529412 4.517648-9.035294 6.023529-9.035294 4.517647-9.035294 6.023529-7.529412 6.02353-9.035294 6.023529-7.529412 6.02353-7.529412 7.529411-9.035294 6.02353-9.035294 7.529412-6.023529 7.529411-9.035295 7.529412-6.023529 7.529412-7.529412 9.035294-9.035294 6.023529-6.023529 9.035295-6.02353 9.035294-6.023529 7.529411-7.529412 7.529412-4.517647 9.035294-7.529412 7.529412-4.517647 9.035294-6.023529 9.035294-3.011765 7.529412-4.517647 10.541177-6.023529 9.035294-3.011765 9.035294-4.517647 10.541176-4.517647 7.529412-3.011765 10.541176-3.011765 9.035295-4.517647 10.541176-1.505882 7.529412-3.011765 10.541176-1.505882 10.541177-1.505882 10.541176-1.505883 10.541177-3.011764 10.541176-1.505883 10.541177-1.505882 9.035294v21.082353l-1.505883 10.541176v22.588235l1.505883 10.541177V552.658824l1.505882 10.541176 1.505883 10.541176 3.011764 10.541177 1.505883 10.541176 1.505882 10.541177 1.505882 10.541176 3.011765 9.035294 1.505882 9.035295 4.517647 10.541176 3.011765 9.035294 3.011765 10.541177 4.517647 7.529411 4.517647 10.541177 3.011765 9.035294 6.023529 9.035294 4.517647 9.035294 3.011765 9.035294 6.023529 9.035294 4.517647 9.035295 7.529412 7.529411 4.517647 9.035294 7.529412 9.035295 6.023529 7.529411 6.02353 7.529412 6.023529 9.035294 9.035294 7.529412 7.529412 9.035294 6.023529 7.529412 9.035295 6.023529 6.023529 9.035294 9.035294 7.529412 9.035294 6.02353 7.529412 7.529411 7.529412 4.517647 9.035294 7.529412 7.529412 4.517647 9.035294 7.529412 9.035294 4.517647 9.035294 6.023529 7.529412 4.517648 9.035294 4.517647 10.541176 4.517647 9.035294 4.517647 7.529412 3.011764 10.541177 4.517647 9.035294 3.011765 10.541176 3.011765 7.529412 4.517647 10.541176 1.505882 10.541177 3.011765 10.541176 1.505882 9.035295 1.505883 9.035294 1.505882 10.541176 3.011765 10.541177 1.505882 10.541176 1.505882h12.047059l10.541176 1.505883H677.647059l15.058823-1.505883h13.552942l15.058823-1.505882 13.552941-1.505882 15.058824-4.517647 15.058823-3.011765 13.552941-3.011765 12.047059-4.517647 13.552941-4.517647 13.552942-3.011765 12.047058-6.023529 13.552942-6.023529 12.047058-6.02353 12.047059-6.023529 12.047059-7.529412 9.035294-4.517647 7.529412-6.023529 7.529412-4.517647 7.529412-6.02353 6.023529-4.517647 7.529412-7.529412 6.023529-4.517647 7.529412-4.517647 4.517647-6.023529 6.023529-4.517647 4.517647-7.529412 6.02353-4.517647 4.517647-6.02353 3.011765-6.023529 4.517647-6.023529 4.517647-4.517647 3.011764-7.529412 3.011765-4.517647 3.011765-7.529412 3.011765-4.517647 1.505882-7.529412 1.505882-6.023529 3.011765-6.02353 1.505882-6.023529v-6.023529l1.505883-6.02353v-25.6l-1.505883-7.529412v-7.529411l-1.505882-4.517647-3.011765-7.529412-1.505882-4.517647-1.505882-4.517647-1.505883-6.02353-1.505882-4.517647-1.505883-4.517647-4.517647-4.517647-1.505882-4.517647-3.011765-6.023529-3.011764-3.011765-4.517647-6.02353-3.011765-3.011764-3.011765-4.517647-6.023529-4.517647-3.011765-3.011765-3.011765-4.517647-6.023529-4.517647-4.517647-3.011765-4.517647-3.011765-6.02353-3.011764-4.517647-4.517647-6.023529-3.011765-6.023529-3.011765-6.02353-1.505882-6.023529-4.517647-6.02353-1.505883-6.023529-3.011764-7.529412-1.505883-6.023529-4.517647-9.035294-1.505882-7.529412-3.011765-18.070588-7.529411 4.517647-3.011765 7.529411-3.011765 4.517647-3.011765 6.02353-6.023529 4.517647-3.011765 6.023529-6.023529 3.011765-3.011765 3.011765-4.517647 3.011764-6.023529 4.517648-4.517647 3.011764-6.02353 1.505883-4.517647 3.011764-7.529412 3.011765-4.517647v-4.517647l1.505882-7.529411 1.505883-7.529412v-13.552941l-1.505883-6.02353-1.505882-7.529412-3.011765-6.023529-1.505882-7.529412-1.505882-4.517647-3.011765-7.529412-3.011765-7.529411-6.023529-6.02353-3.011765-6.023529-6.023529-6.02353-6.02353-6.023529-6.023529-6.023529-6.02353-6.02353-7.529411-6.023529-6.02353-6.02353-9.035294-4.517647-7.529412-4.517647-7.529411-6.023529-7.529412-4.517647-7.529412-4.517647-9.035294-4.517647-10.541177-3.011765-9.035294-4.517647-10.541176-3.011765-7.529412-1.505882-10.541176-3.011765-10.541177-1.505882-10.541176-4.517647-12.047059-1.505883-12.047059-1.505882-12.047059-1.505882h-12.047059l-13.552941-1.505883-12.047059-1.505882h-40.658823l-13.552941-3.011765-13.552941 3.011765h-45.176471l-15.058824 1.505882h-16.564705l-15.058824 1.505883v132.517647l13.552941-1.505883h12.047059l12.047059-1.505882 12.047059-3.011765H561.694118l12.047058-1.505882H599.341176l12.047059 1.505882h13.552941l12.047059 3.011765h15.058824l12.047059 1.505882 13.552941 1.505883 12.047059 1.505882 12.047058 1.505882 7.529412 1.505883 10.541177 1.505882 9.035294 4.517647 6.023529 1.505883 9.035294 3.011764 7.529412 3.011765 4.517647 4.517647 3.011765 1.505882 4.517647 1.505883 1.505882 1.505882 1.505883 1.505882 3.011764 1.505883 1.505883 3.011764 3.011764 3.011765 1.505883 1.505883 1.505882 1.505882 1.505882 1.505882v4.517647l1.505883 1.505883v3.011764l1.505882 1.505883v3.011764l1.505883 3.011765V499.952941l-1.505883 1.505883v3.011764l-1.505882 6.02353-3.011765 6.023529-1.505882 3.011765-1.505883 3.011764-3.011764 1.505883-3.011765 1.505882-3.011765 1.505883-3.011764 1.505882-4.517647 3.011765h-3.011765l-3.011765 1.505882h-4.517647l-4.517647 1.505882h-10.541176l-4.517648-1.505882h-6.023529l-4.517647-1.505882-15.058824-3.011765h-16.564705l-15.058824-1.505882-15.058823-1.505883h-13.552942l-16.564706-1.505882H569.223529l-13.552941 1.505882H542.117647l-15.058823 1.505883-13.552942 1.505882h-13.552941l-13.552941 3.011765v135.529411l19.576471-1.505882 18.070588-1.505882 18.070588-3.011765 18.070588-1.505882h18.070589l16.564705-1.505883H644.517647l15.058824 1.505883h16.564705l15.058824 1.505882 13.552941 3.011765 15.058824 1.505882 13.552941 3.011765 13.552941 1.505882 12.047059 1.505882 10.541176 4.517647 9.035294 1.505883 10.541177 3.011765 6.023529 3.011764 9.035294 4.517647 3.011765 1.505883 4.517647 1.505882 3.011765 1.505882 3.011765 1.505883 1.505882 1.505882 4.517647 4.517647 3.011765 1.505882 1.505882 1.505883 1.505882 3.011765 1.505883 1.505882 1.505882 1.505882 3.011765 4.517647 1.505882 1.505883 1.505883 3.011764 1.505882 1.505883v4.517647l1.505882 1.505882v3.011765l1.505883 3.011765V748.423529l-1.505883 1.505883v1.505882l-1.505882 3.011765v1.505882l-1.505882 4.517647-1.505883 1.505883-1.505882 3.011764-4.517647 4.517647-3.011765 6.02353-1.505882 1.505882-3.011765 3.011765-4.517647 4.517647-3.011765 1.505882-3.011764 3.011765-3.011765 1.505882-4.517647 3.011765-3.011765 3.011765-4.517647 1.505882-4.517647 1.505882-4.517647 3.011765-3.011765 1.505882-6.023529 1.505883-4.517647 3.011765-4.517647 1.505882-6.02353 1.505882-3.011764 1.505883h-7.529412l-4.517647 1.505882-6.02353 1.505882-12.047058 1.505883-12.047059 3.011764-13.552941 1.505883H692.705882l-13.552941 1.505882h-24.094117l-7.529412-1.505882h-16.564706l-7.529412-1.505883h-7.529412l-7.529411-3.011764-9.035295-1.505883h-6.023529l-7.529412-1.505882-6.023529-3.011765-9.035294-1.505882-7.529412-1.505882-6.023529-3.011765-7.529412-3.011765-6.02353-1.505882-7.529411-3.011765-6.02353-4.517647-7.529412-3.011765-7.529411-3.011764-6.02353-3.011765-4.517647-4.517647-7.529412-3.011765-7.529411-4.517647-4.517647-4.517647-7.529412-4.517647-6.02353-6.023529-6.023529-4.517648-6.023529-4.517647-6.02353-6.023529-4.517647-4.517647-7.529412-6.023529-4.517647-4.517648-4.517647-7.529411-6.023529-4.517647-4.517647-7.529412-6.02353-4.517647-4.517647-7.529412-3.011764-4.517647-6.02353-7.529412-3.011764-6.023529-4.517648-6.02353-4.517647-6.023529-3.011764-7.529412-3.011765-6.023529-4.517647-7.529412-3.011765-4.517647-3.011764-9.035294-1.505883-6.02353-4.517647-7.529411-1.505882-7.529412-1.505883-6.023529-3.011764-7.529412-1.505883-7.529412-1.505882-7.529412-3.011765-7.529412v-6.023529l-1.505882-9.035294-1.505882-7.529412v-15.058823l-1.505883-9.035294v-30.117648l1.505883-9.035294v-15.058823l1.505882-7.529412 1.505882-9.035294v-6.023529l3.011765-7.529412 1.505882-7.529412 1.505883-7.529412 3.011764-7.529412 1.505883-6.023529 1.505882-9.035294 4.517647-6.023529 1.505883-7.529412 3.011764-7.529412 3.011765-6.023529 4.517647-6.02353 3.011765-6.023529 3.011764-7.529412 4.517647-6.023529 4.517648-7.529412 3.011764-4.517647 6.02353-7.529412 3.011764-6.023529 4.517647-6.02353 6.02353-6.023529 4.517647-6.02353 6.023529-6.023529 4.517647-6.023529 4.517647-4.517648 7.529412-7.529411 4.517647-4.517647 7.529412-6.02353 4.517647-4.517647 7.529412-3.011765 4.517647-6.023529 7.529412-4.517647 4.517647-4.517647 7.529411-4.517647 7.529412-3.011765 6.02353-4.517647 4.517647-4.517647 7.529411-3.011765 7.529412-4.517647 6.02353-1.505882 7.529411-3.011765 6.02353-3.011764 7.529412-1.505883 6.023529-4.517647 7.529412-1.505882 9.035294-1.505883 6.023529-1.505882 7.529412-1.505882 9.035294-1.505883 6.02353-3.011764 7.529411-1.505883h7.529412l7.529412-1.505882h63.247059l9.035294 1.505882h6.023529l9.035294 1.505883 7.529412 3.011764 6.02353 1.505883 9.035294 1.505882 6.023529 1.505882 7.529412 1.505883 7.529412 1.505882 6.023529 4.517647 7.529412 1.505883 6.023529 3.011764 7.529412 3.011765 6.023529 1.505882 7.529412 4.517647 7.529412 3.011765 6.023529 4.517647 7.529412 4.517647 4.517647 3.011765 7.529412 4.517647 4.517647 4.517647 7.529412 4.517647 6.023529 6.023529 6.02353 3.011765 6.023529 4.517647 6.023529 6.02353 4.517647 4.517647 7.529412 7.529411 4.517647 4.517648 4.517647 6.023529 6.02353 6.023529 4.517647 6.02353 6.023529 6.023529 3.011765 6.02353 4.517647 6.023529 6.023529 6.023529 3.011765 6.02353 3.011765 7.529412 6.023529 6.023529 3.011765 7.529412 3.011765 4.517647 4.517647 7.529412 3.011764 6.023529 1.505883 7.529412 3.011764 7.529412 1.505883 6.023529 4.517647 9.035294 1.505882 6.023529 1.505883 7.529412 1.505882 7.529412 1.505882 6.023529 1.505883 9.035295 3.011764 6.023529 1.505883 9.035294v7.529412l1.505882 7.529412v7.529411l1.505882 9.035294v15.058824l-1.505882 34.635294 6.023529 3.011765 7.529412 3.011765 4.517647 6.023529 7.529412 3.011765 7.529412 6.023529 4.517647 4.517647 7.529412 3.011765 4.517647 6.023529 7.529411 4.517647 4.517647 6.02353 4.517648 6.023529 7.529411 6.02353 4.517647 4.517647 6.02353 4.517647 4.517647 7.529411z" fill="#E3131B" p-id="3194"></path></svg>