<svg t="1660875035114" class="icon" viewBox="0 0 1325 1024" version="1.1" xmlns="http://www.w3.org/2000/svg" p-id="3054" width="200" height="200"><path d="M662.588235 90.352941C442.729412 90.352941 256 266.541176 242.447059 484.894118c-15.058824 219.858824 149.082353 417.129412 367.435294 445.741176 218.352941 27.105882 426.164706-123.482353 466.823529-340.329412 19.576471-105.411765 0-219.858824-57.223529-310.211764-57.223529-87.341176-146.070588-150.588235-246.964706-176.188236-36.141176-9.035294-73.788235-13.552941-109.929412-13.552941M335.811765 512c0-158.117647 117.458824-299.670588 274.070588-325.270588v112.941176c0 10.541176 4.517647 28.611765-1.505882 36.141177-4.517647 7.529412-37.647059 3.011765-46.682353 3.011764-45.176471 0-88.847059 27.105882-99.388236 73.788236-4.517647 19.576471-1.505882 43.670588-1.505882 64.752941 0 36.141176-1.505882 75.294118 0 112.941176 0 33.129412 18.070588 63.247059 46.682353 79.811765 19.576471 10.541176 42.164706 12.047059 64.752941 12.047059 10.541176 0 34.635294-6.023529 37.647059 7.529412 3.011765 10.541176 0 27.105882 0 36.141176V834.258824C454.776471 808.658824 335.811765 670.117647 335.811765 512m231.905882 78.305882c-15.058824 0-10.541176-34.635294-10.541176-45.17647v-55.717647-30.117647c0-7.529412-3.011765-19.576471 1.505882-25.6 7.529412-10.541176 42.164706-4.517647 54.211765-4.517647h106.917647c10.541176 0 48.188235-7.529412 51.2 7.529411 4.517647 16.564706 0 37.647059 0 55.717647v73.788236c0 12.047059 1.505882 24.094118-13.552941 24.094117H567.717647m146.070588 243.952942v-112.941177c0-13.552941-7.529412-37.647059 10.541177-39.152941 22.588235-1.505882 46.682353 3.011765 69.270588-3.011765 48.188235-12.047059 69.270588-55.717647 69.270588-100.894117v-54.211765-55.717647c0-28.611765 3.011765-55.717647-12.047059-81.317647-24.094118-39.152941-64.752941-46.682353-106.917647-46.682353-6.023529 0-22.588235 3.011765-27.105882-1.505883-6.023529-4.517647-1.505882-16.564706-1.505882-22.588235v-129.505882C871.905882 212.329412 989.364706 353.882353 989.364706 512c-1.505882 158.117647-118.964706 296.658824-275.576471 322.258824" fill="#AF2434" p-id="3055"></path></svg>