<svg viewBox="0 0 1024 1024" version="1.1" xmlns="http://www.w3.org/2000/svg" p-id="1900" width="200" height="200"><path d="M719.63728 446.2267h154.760705c0-7.738035-2.579345-10.31738-2.579345-18.055415h-157.340051l5.158691 18.055415z" fill="#E50012" p-id="1901"></path><path d="M804.755668 665.471033l-77.380353 108.332493h-433.329975l-77.380353-113.491183 193.450882-474.599497 103.173804 252.775819 108.332493-252.775819 87.697733 221.823678h162.498741c-46.428212-152.18136-185.712846-263.093199-350.790932-263.093199-206.347607 2.579345-371.425693 165.078086-371.425693 368.846348s165.078086 366.267003 366.267003 366.267002c157.34005 0 294.04534-103.173804 345.632241-242.458438h-64.483627l7.738036 28.372796z" fill="#E50012" p-id="1902"></path><path d="M479.758186 657.732997l-105.753148-250.196473-100.594459 252.775819 407.536524 5.15869-103.173803-257.934509zM729.95466 482.337531h147.02267c0-7.738035 0-10.31738-2.579345-18.055415h-152.18136l7.738035 18.055415zM758.327456 551.979849h118.649874v-18.055416h-126.387909l7.738035 18.055416zM876.97733 500.392947h-141.86398l7.738035 18.055416h134.125945v-2.579345-15.476071zM786.700252 619.042821h77.380353c0-7.738035 2.579345-10.31738 2.579345-18.055415h-87.697733l7.738035 18.055415zM771.224181 582.93199h98.015114c0-7.738035 2.579345-10.31738 2.579345-18.055416h-108.332494l7.738035 18.055416z" fill="#E50012" p-id="1903"></path></svg>