<svg viewBox="0 0 1024 1024" version="1.1" xmlns="http://www.w3.org/2000/svg" p-id="2041" width="200" height="200"><path d="M634.518892 386.901763c-38.690176 0-74.801008 5.15869-108.332494 18.055416 49.007557 7.738035 90.277078 51.586902 90.277078 105.753148 0 95.435768-113.491184 175.395466-252.775819 175.395466-43.848866 0-85.118388-7.738035-118.649874-20.63476 72.221662 87.697733 162.498741 159.919395 265.672544 211.506297 157.34005-74.801008 286.307305-203.768262 366.267003-366.267003-2.579345-2.579345-2.579345-7.738035-5.15869-12.896725-41.269521-64.483627-131.546599-110.911839-237.299748-110.911839z" fill="#D4AB44" p-id="2042"></path><path d="M386.901763 629.360202c38.690176 0 72.221662-5.15869 105.753149-15.476071-46.428212-7.738035-85.118388-49.007557-85.118388-100.594458v-2.579346c0-95.435768 113.491184-175.395466 252.775819-175.395466 43.848866 0 85.118388 7.738035 118.649874 20.634761a817.652393 817.652393 0 0 0-265.672544-211.506297c-159.919395 74.801008-288.88665 203.768262-366.267003 363.687657 30.952141 72.221662 128.967254 121.229219 239.879093 121.22922z" fill="#005BAC" p-id="2043"></path></svg>