<svg viewBox="0 0 1024 1024" version="1.1" xmlns="http://www.w3.org/2000/svg" p-id="2181" width="200" height="200"><path d="M621.622166 853.763224l46.428212-203.768262h105.753148l12.896726-69.642317h-149.602015l-46.428212 206.347607h-273.410579l7.738035-36.110831h239.879093l46.428212-206.347607h183.133501l12.896726-64.483628h-226.982368l-43.848867 203.768262h-198.609571l7.738035-30.952141h157.34005l36.110831-172.816121h-157.34005l7.738035-36.110831h239.879094l28.372795-105.753148h180.554157l12.896725-64.483628h-224.403023l-30.952141 103.173804h-190.871536l10.31738-38.690176h154.760705l30.952142-100.594459h257.934508l12.896726-69.642317h-306.942066l-25.793451 103.173803h-157.34005l-46.428212 206.347607h-157.34005l-36.110831 170.236776h165.078085l-41.269521 206.347607h355.949622z m-420.433249-275.989924l7.738035-33.531486h118.649874l-10.31738 36.110831h-116.070529v-2.579345z m165.078086 0l7.738035-36.110831h118.649874l-7.738035 36.110831h-118.649874z" fill="#108C3E" p-id="2182"></path></svg>