<svg viewBox="0 0 1633 1024" version="1.1" xmlns="http://www.w3.org/2000/svg"  width="200" height="200"><path d="M159.92491916 395.10249041h17.59620802c2.98507101 0 8.64099502 0.628436 10.36919404-2.82796202 0.628436-0.94265401 1.25687199-2.82796201 1.256872-3.92772499 0.78554501-2.042417 0-6.441469 0-8.64099504v-12.097393-47.60402711c0-2.51374401 0.47132701-22.78080506-0.62843603-22.78080505h-34.24976204c-0.94265401 0-0.628436 9.74075802-0.628436 11.31184802v47.60402711c0 10.99763002-0.94265401 22.46658704 0 33.46421707 0.47132701 3.14217999 3.14217999 5.18459701 6.28436001 5.49881501z" fill="#009882" ></path><path d="M210.35690827 300.36576321c0 16.65355405-0.15710901 33.14999907-0.15710903 49.6464441 0 15.23957303 1.885308 32.05023607-0.15710898 47.13270009-1.25687199 9.74075802-24.35189504 3.45639799-30.95047308 5.49881501-6.91279601 2.19952601-4.08483399 15.39668203-4.084834 20.58127905v32.05023607c2.82796201-5.81303301 11.15473903-3.92772502 16.33933602-3.92772502 8.79810401 0 19.32440705 1.57108999 27.96540206-0.15710901 3.61350702-0.78554501 5.18459701-3.770616 5.18459701-7.227014-1.09976302-0.94265401 0-10.99763002 0-12.72582902v-19.79573405-71.01326814c44.30473808 20.58127904 73.21279417 66.29999813 73.21279416 115.00378822 0 62.05805513-47.28980909 116.88909623-109.03364622 125.21587327v-38.02037808-18.69597104-9.11232203c0-1.25687199-0.31421799-3.29928901 0-4.556161 0.78554501-2.82796201-0.47132701-1.41398101 1.88530801-2.19952602 3.92772502-1.41398101 38.49170507 4.24194301 34.09265308-7.069905-1.885308-2.98507101 0-12.09739302 0-15.71090003v-33.30710806c0.47132701 8.79810401-10.21208501 6.75568702-15.86800905 6.75568701-8.64099502 0-18.22464404-1.25687199-26.86563905 0-8.95521301 0-6.75568702 11.46895703-6.755687 17.12488104v31.89312704c-1.41398101 0-4.24194301 0.31421799-5.65592403-0.15710898-1.885308-0.94265401-1.57108999-0.47132701-1.57108999-3.29928901v-8.64099502-16.49644503c0-4.71327001 0.94265401-10.52630302-0.15710902-15.23957305-1.41398101-7.69834101-13.66848304-5.18459701-18.85308004-5.18459699-8.16966803 0-18.22464404 1.72819901-26.23720305-0.15710901-2.98507101-0.78554501-4.39905201-3.14217999-4.241943-6.28436001v37.39194207c0 4.08483399-0.78554501 8.79810401 0.15710899 12.72582902 1.25687199 7.22701402 11.15473903 5.34170603 16.33933604 5.34170601h16.65355403c3.45639799 0 2.19952601 3.14217999 2.19952601 6.28436003v66.29999813c-61.74383713-8.326777-109.03364622-63.00070912-109.03364622-125.21587326 0-48.8608991 29.22227406-94.57961819 73.52701215-115.0037882v103.69194019c0.47132701 4.24194301 2.35663501 6.441469 6.75568701 7.06990501h20.89549704c5.97014202 0 18.69597103-2.98507101 21.99526006 3.92772501v-36.29217906c0-7.85545002 1.72819901-16.02511803-8.01255902-16.65355404-5.49881501-0.31421799-11.15473903 0-16.81066303 0-10.84052103 0-10.36919402-4.87037901-10.36919402-14.92535503v-87.03838619c-73.99833914 18.53886205-125.68720026 89.39502117-120.34549425 165.59288635 6.28436002 90.80900218 90.49478418 159.30852633 180.67535035 147.05402428 81.38246215-10.99763002 142.18364529-85.31018717 137.47037527-167.16397633-4.24194301-68.18530612-53.5741691-128.04383525-120.18838521-145.01160729z" fill="#009882" ></path><path d="M560.86708795 352.3688423l-7.69834103-4.71326999c-3.29928901-2.042417-5.49881501-2.98507101-6.91279602-2.82796202-1.41398101 0.15710901-2.98507101 1.57108999-5.02748799 4.24194302-1.885308 2.670853-4.24194301 5.65592402-6.91279602 9.11232202H502.10832183l-0.15710901-26.86563905 4.08483403-2.82796201c1.41398101-1.09976302 2.35663501-2.19952601 2.670853-3.29928899 0.47132701-1.09976302 0.15710901-2.35663501-0.62843603-3.77061603-0.78554501-1.41398101-5.65592402-2.98507101-14.61113701-5.02748801s-13.98270102-2.98507101-15.23957303-3.14217999c-2.51374401-0.15710901-3.92772502 0.15710901-4.71327 0.78554499s-1.09976302 2.19952601-0.94265402 4.55616101l1.41398101 20.89549705v18.53886201h-28.90805606l-24.19478604-12.56872002c-2.98507101-1.57108999-5.02748801-2.19952601-5.81303302-1.88530799-0.94265401 0.31421799-1.57108999 0.78554501-2.042417 1.41398102l0.94265401 14.92535502v46.66137308l-1.09976301 19.32440703c0 1.72819901 0.31421799 3.14217999 0.942654 4.24194301 0.78554501 1.09976302 4.24194301 1.57108999 10.52630302 1.25687199s10.68341202-1.57108999 13.04004702-3.77061599c2.35663501-2.19952601 3.61350702-4.39905201 3.61350702-6.28436v-9.42654003h32.99289006l0.15710898 33.62132607-1.72819897 29.53649205c0.31421799 1.72819901 0.78554501 3.14217999 1.72819897 4.24194302 0.94265401 1.25687199 3.29928901 1.885308 7.22701403 2.19952601 4.24194301 0.47132701 8.16966803 0 11.62606604-1.09976301 3.61350702-1.09976302 5.97014202-2.35663501 7.227014-3.77061602 1.25687199-1.41398101 2.19952601-2.82796201 2.82796202-4.556161l-1.256872-25.29454904v-34.72108908h35.19241605v8.64099503c0 3.770616 0.31421799 6.127251 1.099763 7.38412301s2.670853 2.042417 5.81303304 2.356635c2.19952601 0.31421799 5.49881501 0 9.89786699-0.94265401s7.38412301-2.042417 8.64099503-3.14218 2.35663501-2.51374401 2.98507101-4.08483399l-1.09976301-17.91042605v-32.36445407l4.556161-4.39905199c2.19952601-2.042417 3.29928901-3.61350702 3.29928901-4.87037902 0.15710901-2.19952601-3.61350702-5.65592402-11.31184801-10.36919404z m-87.03838619 54.98815013h-32.83578105V363.05225434l32.83578105-0.157109v44.46184709z m63.00070914 0H501.79410384v-44.46184709h35.03530706v44.46184709zM679.32727419 433.27997748l-0.15710902-41.94810309h-12.882938l-10.68341203 0.471327-5.02748801-6.28436 12.88293801 1.09976299 15.55379104 0.15710901v-30.16492807h-14.61113703l-10.68341204 0.94265401-5.02748798-6.44146902 13.82559202 0.94265401h48.7037901c3.14217999-4.87037901 5.49881501-8.16966803 7.06990501-9.89786702 1.41398101-1.885308 2.670853-2.82796201 3.613507-2.98507101 0.94265401-0.15710901 2.35663501 0.47132701 4.24194302 1.72819899 5.65592402 4.08483399 9.58364903 7.38412301 11.78317502 9.74075805s2.98507101 3.92772502 2.67085301 4.71326998c-0.47132701 0.94265401-1.57108999 1.25687199-3.45639804 1.25687201l-32.36445404-0.157109c-0.94265401 1.72819901-2.042417 2.98507101-3.299289 4.08483401l-0.15710902 26.08009405h9.26943104c5.18459701-6.441469 8.48388603-9.89786702 9.897867-10.21208502 1.41398101-0.31421799 3.45639799 0.47132701 5.81303303 2.19952601 6.441469 5.02748801 10.05497602 8.01255901 10.84052099 9.11232201s1.09976302 1.885308 0.78554503 2.670853-1.09976302 1.09976302-2.35663501 1.09976301l-34.09265306 0.157109v41.47677609h14.13981001c1.57108999-1.885308 3.29928901-3.92772502 5.02748803-6.44146902 1.885308-2.35663501 3.14217999-3.92772502 3.92772498-4.87037901 0.78554501-0.78554501 1.57108999-1.25687199 2.19952602-1.413981 0.78554501-0.15710901 1.885308 0.47132701 3.613507 1.57109001 2.98507101 2.35663501 5.81303301 4.87037901 8.48388602 7.541232s3.92772502 4.556161 3.927725 5.34170603c0 1.09976302-0.47132701 1.72819901-1.099763 2.19952599-0.78554501 0.47132701-2.19952601 0.628436-4.399052 0.628436h-74.62677514l-10.52630302 0.47132701-5.02748802-6.28436001 12.88293804 1.099763 19.32440704 0.314218z" fill="#231815" ></path><path d="M706.03580423 393.53140038c-2.19952601-0.15710901-3.45639799 0.31421799-3.456398 1.25687203-0.15710901 0.94265401 0.31421799 1.885308 1.09976301 2.67085299l3.14218 2.67085301c1.885308 1.885308 3.14217999 4.556161 3.77061601 7.85545003s1.09976302 5.65592402 1.41398099 6.75568699 1.25687199 2.35663501 2.82796199 3.456398c1.57108999 1.25687199 4.24194301 1.72819901 8.01255904 1.72819902 3.61350702-0.15710901 6.59857803-1.885308 8.64099501-5.34170601 0.94265401-1.72819901 1.41398101-3.92772502 1.09976301-6.598578s-1.885308-5.49881501-5.02748802-8.48388603c-2.98507101-2.98507101-9.11232202-5.02748801-18.22464402-5.65592401l-3.29928902-0.31421802z" fill="#231815" ></path><path d="M775.94930938 332.10178127c0-1.09976302-1.885308-3.14217999-5.65592401-6.12725101-3.770616-2.98507101-8.48388603-5.97014202-14.29691904-8.483886-2.042417-0.94265401-3.61350702-1.25687199-4.71327001-0.94265402-1.09976302 0.31421799-2.35663501 1.25687199-3.92772501 3.299289-1.57108999 1.885308-3.45639799 4.556161-5.97014203 7.69834103h-92.69431015l-20.73838806-10.21208502c-2.98507101-1.41398101-4.87037901-2.042417-5.498815-1.72819902-0.628436 0.31421799-1.09976302 0.78554501-1.57109001 1.41398102l1.099763 25.60876704 0.15710901 103.37772222-1.09976301 26.70853004c0.47132701 1.25687199 0.94265401 2.19952601 1.728199 2.82796201 0.628436 0.628436 2.19952601 0.94265401 4.399052 1.09976299 8.326777 0.78554501 13.66848304 0.15710901 16.02511805-1.885308 2.19952601-1.885308 3.45639799-3.770616 3.45639799-5.341706v-10.05497603h97.0933622l-0.15710898 9.74075802c0 2.82796201 0.47132701 4.87037901 1.57108998 6.12725103 1.09976302 1.25687199 3.45639799 1.885308 7.06990501 2.35663499 3.61350702 0.31421799 7.06990501 0 10.68341203-1.256872 3.45639799-1.09976302 5.65592402-2.35663501 6.598578-3.45639801 0.94265401-1.09976302 1.57108999-2.98507101 2.04241703-5.341706l-0.94265402-22.46658706 0.15710901-106.36279319c3.45639799-3.14217999 5.18459701-5.34170603 5.18459702-6.59857803z m-32.05023607 122.70212925l-97.25047121-0.15710898 0.15710901-122.23080228h97.0933622v122.38791126zM914.36233863 351.89751532c0.31421799 2.35663501 1.09976302 5.81303301 2.19952602 10.52630302s2.670853 9.74075802 4.39905199 15.39668201c1.72819901 5.65592402 5.34170603 13.19715602 10.52630304 22.78080506 7.69834101-9.26943102 12.72582902-16.02511803 15.08246403-20.58127905l2.042417-3.770616c1.72819901-3.29928901 3.14217999-5.02748801 4.08483401-5.18459701s2.19952601 0 3.61350701 0.628436c0.94265401 0.47132701 2.51374401 1.72819901 4.71327 3.61350702 2.042417 1.885308 4.71327001 3.92772502 8.01255902 5.97014202 3.29928901 2.042417 5.65592402 4.08483399 7.38412301 6.127251 1.72819901 2.042417 2.19952601 3.45639799 1.72819902 4.399052-0.78554501 1.25687199-4.08483399 1.885308-10.05497602 1.72819899-12.72582902 5.02748801-23.40924106 9.11232202-32.36445406 12.25450205 2.042417 3.14217999 4.556161 6.75568702 7.698341 10.84052102 3.14217999 4.08483399 8.326777 8.79810401 15.71090002 14.29691901 7.38412301 5.34170603 14.29691903 9.26943102 20.73838803 11.62606603l5.02748804 1.885308 5.655924 1.09976301c0.94265401 0.628436 1.41398101 1.41398101 1.57109 2.356635s-0.15710901 1.72819901-0.94265399 2.042417c-0.78554501 0.47132701-2.19952601 1.09976302-4.71327002 1.72819902l-3.92772499 1.256872c-2.042417 0.78554501-3.45639799 1.41398101-4.39905201 1.885308-1.09976302 0.628436-2.35663501 1.57108999-4.08483402 3.14218s-3.14217999 2.82796201-3.92772502 4.084834c-0.94265401 1.09976302-1.72819901 2.98507101-2.67085298 5.34170603-0.94265401 2.35663501-1.72819901 3.770616-2.35663501 3.927725-0.78554501 0.15710901-2.042417-0.47132701-4.08483402-1.885308l-4.71327-3.14218001c-2.042417-1.41398101-4.71327001-3.61350702-8.16966802-6.59857803-3.29928901-2.98507101-6.28436002-5.81303301-8.79810401-8.798104-2.51374401-2.98507101-5.97014202-7.69834101-9.89786703-14.13981002s-7.54123201-14.29691903-10.68341201-23.40924107c-2.98507101-8.95521301-5.18459701-17.43909904-6.44146902-25.45165805-1.25687199-8.01255901-2.042417-14.29691903-2.35663501-18.85308002-0.31421799-4.556161-0.628436-8.64099502-0.94265399-12.09739302-0.78554501 2.35663501-1.72819901 4.87037901-2.98507101 7.85545001-1.25687199 2.98507101-5.18459701 10.21208501-11.94028405 21.52393304 3.61350702 1.885308 5.65592402 3.45639799 5.65592402 5.02748801 0.15710901 1.57108999-2.042417 3.29928901-6.28436 5.65592401v47.7611361c4.24194301-2.19952601 12.09739302-5.97014202 23.56635006-11.62606602l2.985071-1.57109001c2.19952601-1.09976302 3.770616-1.25687199 4.870379-0.471327 1.09976302 0.78554501 1.41398101 1.72819901 1.09976302 2.827962-0.31421799 1.09976302-0.78554501 2.042417-1.57109002 2.670853l-1.728199 1.57109002-33.14999907 32.20734508-8.798104 8.640995c-1.885308 1.41398101-3.29928901 1.885308-4.24194302 1.57108999-0.78554501-0.15710901-1.72819901-1.25687199-2.98507101-3.45639799l-4.71327001-7.85545002c-1.25687199-2.19952601-2.35663501-4.556161-3.45639802-7.22701403-1.09976302-2.670853-1.57108999-4.39905201-1.41398098-5.027488 0.15710901-1.09976302 0.94265401-2.19952601 2.35663499-3.14218 1.41398101-0.94265401 2.19952601-1.57108999 2.19952602-2.04241701v-34.72108906c-9.42654002 7.38412301-17.91042605 13.51137403-25.60876706 18.22464402s-12.56872002 7.69834101-14.76824603 8.79810402l-3.456398 1.88530802c-1.09976302 0.628436-2.19952601 0.94265401-3.456398 0.785545-1.25687199 0-2.35663501-0.47132701-3.45639804-1.41398101-1.09976302-0.94265401 0.31421799-2.82796201 3.92772503-5.81303302l2.82796201-2.199526c2.51374401-1.885308 4.87037901-3.770616 6.912796-5.498815 2.19952601-1.72819901 6.75568702-6.75568702 13.98270105-14.92535504 7.22701402-8.16966803 12.56872002-14.76824603 16.02511802-19.63862503 3.45639799-4.87037901 7.22701402-11.15473903 11.31184802-18.85308004 4.08483399-7.69834101 6.75568702-13.35426503 7.85545001-16.81066304l3.61350701-9.89786702-26.08009404-0.15710899c0.47132701 2.98507101 0.78554501 5.97014202 1.09976299 8.95521301 0.15710901 3.14217999-0.628436 6.59857803-2.67085301 10.36919401-2.042417 3.770616-5.65592402 6.441469-11.154739 8.01255903-5.34170603 1.57108999-9.58364903 0.628436-12.56872003-2.67085301-2.98507101-3.14217999-4.39905201-6.441469-4.39905201-9.74075802 0-3.45639799 1.57108999-6.59857803 4.39905201-9.42654001l7.541232-6.441469c1.41398101-1.72819901 2.670853-3.92772502 3.61350702-6.91279604l0.785545-2.35663499 0.31421799-5.34170602c0.31421799-0.94265401 0.78554501-1.57108999 1.72819901-2.042417 0.94265401-0.47132701 2.042417-0.15710901 3.299289 0.94265402 0.31421799 0.31421799 0.94265401 1.09976302 1.728199 2.35663498l2.35663502 3.77061601 1.885308 4.24194301 0.78554498 1.57109001h29.06516507c0.628436-2.042417 1.25687199-4.39905201 1.88530803-6.91279602 0.628436-2.51374401 1.57108999-7.54123201 2.51374398-14.92535503l0.78554501-6.28436c0.31421799-3.14217999 0.78554501-5.02748801 1.25687201-5.34170602 0.47132701-0.31421799 2.35663501-0.15710901 5.65592399 0.628436 0.628436 0.31421799 4.08483399 0.94265401 10.36919404 2.042417 6.28436002 1.09976302 10.99763002 2.51374401 13.98270101 4.08483401 3.14217999 1.41398101 4.556161 2.98507101 4.39905201 4.39905201-0.15710901 1.09976302-2.19952601 3.14217999-6.12725101 6.12725102-2.82796201 6.59857803-5.18459701 11.94028402-7.22701401 16.33933603h30.63625506c3.770616-4.71327001 6.441469-7.69834101 7.69834101-8.79810402 1.25687199-1.09976302 2.51374401-1.885308 3.77061602-2.042417 1.09976302-0.15710901 2.98507101 0.628436 5.65592402 2.35663499 8.79810401 6.28436002 14.29691903 10.52630302 16.33933602 12.56872003 2.042417 2.042417 2.98507101 4.08483399 2.985071 5.81303302-0.15710901 3.45639799-2.51374401 5.49881501-7.06990502 5.81303301l-8.012559-0.314218c-6.59857803 0-12.72582902 2.19952601-18.22464404 6.91279601l-4.71327 3.927725c-2.51374401 2.19952601-4.24194301 2.82796201-5.18459701 2.04241702s-0.94265401-2.19952601-0.15710902-4.08483402l2.19952602-5.18459702c0.94265401-2.35663501 2.82796201-7.06990501 5.49881501-14.13981001H914.36233863zM1024.18152986 467.84395755l12.88293801 1.099763h42.41943009v-125.84430924l-1.41398099-24.82322207c0.31421799-0.47132701 0.628436-0.94265401 0.942654-1.25687199 0.47132701-0.31421799 1.72819901-0.15710901 3.92772502 0.47132701l8.326777 1.57108999 8.64099502 2.19952601c6.75568702 1.57108999 10.21208501 3.45639799 10.68341202 5.655924 0.31421799 1.885308-1.72819901 4.556161-6.12725102 7.69834104l0.15710902 134.48530424h10.99763V342.62808429l-1.413981-24.50900403c0.628436-1.09976302 2.19952601-1.72819901 4.71327-1.41398101 5.02748801 0.628436 10.99763002 1.885308 17.91042604 3.770616s10.52630302 3.92772502 10.99763004 5.97014202c0.31421799 2.35663501-2.042417 4.87037901-7.22701401 7.69834101l0.15710899 99.92132421c2.35663501-5.81303301 4.71327001-12.41161103 7.22701402-19.95284306 2.51374401-7.38412301 4.39905201-13.51137403 5.813033-18.53886203s2.82796201-10.52630302 4.241943-16.49644504c1.41398101-6.127251 2.51374401-10.84052103 3.14218002-13.98270103l1.256872-6.598578 0.78554502-5.02748802c1.09976302-1.41398101 3.45639799-1.09976302 7.069905 0.94265402l9.26943103 4.241943 10.36919401 5.81303301c6.127251 3.45639799 8.64099502 6.441469 7.69834101 8.95521302-0.47132701 1.25687199-2.82796201 2.82796201-6.912796 4.39905199-2.82796201 5.18459701-5.97014202 10.36919402-8.95521303 15.71090003-3.14217999 5.18459701-7.22701402 11.46895703-12.56872003 18.85308006-5.18459701 7.38412301-14.61113702 20.10995203-28.27962003 38.17748707v18.53886203h16.33933601c4.71327001-5.65592402 8.48388603-10.36919402 11.15473903-13.98270103 2.670853-3.61350702 4.87037901-5.65592402 6.598578-5.81303301 1.72819901-0.15710901 4.08483399 0.78554501 7.22701402 2.827962 2.19952601 1.72819901 4.71327001 3.61350702 7.38412302 5.97014203l6.44146901 5.97014201c2.35663501 2.19952601 3.61350702 4.39905201 3.77061599 6.59857801 0.15710901 2.19952601-2.042417 3.29928901-6.59857798 3.299289h-151.92440332l-11.46895702 0.47132701-5.65592401-6.59857801z" fill="#231815" ></path><path d="M1038.63555788 365.72310734c0.47132701 0.94265401 1.41398101 3.29928901 2.67085301 7.06990503 1.41398101 3.770616 2.35663501 6.59857803 2.82796202 8.32677701 0.47132701 1.72819901 1.09976302 4.556161 1.72819899 8.48388602 0.94265401 5.65592402 1.41398101 10.36919402 1.25687199 14.29691901 0 3.92772502-0.47132701 8.64099502-1.41398099 14.29691902s-1.09976302 10.21208501-0.62843599 13.35426504c0.47132701 3.29928901 2.042417 6.28436002 4.87037901 8.79810403s6.441469 3.770616 10.84052102 3.29928899c4.24194301-0.31421799 8.01255901-2.51374401 11.15473901-6.44146902s4.87037901-8.48388603 5.34170602-13.98270101c0.628436-8.79810401-1.41398101-17.28199003-5.97014201-25.76587606s-8.48388603-14.92535503-11.78317505-19.16729802c-3.29928901-4.39905201-7.54123201-9.58364903-13.04004702-15.71090004l-3.61350699-3.92772501c-1.41398101-1.41398101-2.51374401-2.35663501-3.299289-2.82796199s-1.72819901-0.47132701-2.82796202-0.15710901c-1.09976302 0.47132701-1.57108999 1.25687199-1.41398098 2.35663498 0 1.25687199 0.31421799 2.35663501 0.94265399 3.14218003l2.35663499 4.556161zM1409.25568963 457.47476353c-0.15710901-1.25687199-0.94265401-2.19952601-2.51374401-2.82796199l-5.02748802-2.04241703c-9.74075802-3.92772502-16.65355405-8.16966803-20.73838803-12.41161103-4.08483399-4.24194301-7.38412301-8.16966803-10.21208503-11.62606601 8.326777-3.45639799 13.98270102-6.28436002 16.65355405-8.16966802 2.670853-2.042417 5.18459701-3.770616 7.227014-5.49881501 6.127251-0.94265401 9.26943102-2.19952601 9.42654002-3.92772499 0.15710901-0.94265401-0.628436-2.042417-2.04241702-3.45639803-1.57108999-1.25687199-3.92772502-2.670853-7.06990501-4.084834-3.14217999-1.41398101-6.127251-2.670853-8.64099501-3.770616-2.51374401-1.25687199-4.556161-1.72819901-5.81303301-1.57109001-0.94265401 0.15710901-1.57108999 0.31421799-1.885308 0.785545l-0.785545 2.356635-1.099763 3.14218001c-0.47132701 1.09976302-1.57108999 3.14217999-3.14218002 5.97014201-1.57108999 2.98507101-2.98507101 5.02748801-4.08483401 6.28436002s-2.19952601 2.51374401-3.45639799 3.770616l-4.71327002-9.74075801c-0.78554501-1.41398101-2.51374401-7.69834101-5.027488-19.01018905v-0.157109h10.99763002v1.72819899c0 2.19952601 2.042417 3.61350702 5.81303301 4.08483403 1.885308 0.31421799 4.24194301 0.31421799 7.38412301 0 3.14217999-0.15710901 5.49881501-0.78554501 7.06990501-1.72819901 1.57108999-0.94265401 2.82796201-2.35663501 3.770616-4.399052l-0.78554499-18.69597103v-33.93554409c3.770616-3.29928901 5.49881501-5.65592402 5.34170602-6.912796-0.15710901-0.78554501-1.09976302-1.885308-2.82796202-3.29928901-1.72819901-1.41398101-5.81303301-4.08483399-12.25450201-8.01255901-2.98507101-1.72819901-5.02748801-2.51374401-6.44146903-2.35663502-1.41398101 0.15710901-2.82796201 1.41398101-4.556161 3.77061602-1.72819901 2.19952601-3.29928901 4.39905201-4.87037902 6.441469h-29.22227405l-15.86800902-7.85545c-4.556161-2.19952601-7.22701402-3.14217999-7.85545001-2.827962-0.628436 0.31421799-1.25687199 0.78554501-1.57109 1.256872l0.78554498 19.01018902v63.31492715c-1.41398101-2.19952601-3.92772502-4.87037901-7.22701402-7.85545005-3.29928901-3.14217999-5.65592402-4.556161-6.75568702-4.39905198-1.25687199 0.15710901-2.19952601 0.78554501-3.14217997 1.72819899-0.94265401 0.94265401-2.042417 2.19952601-3.29928902 3.77061601s-3.14217999 3.45639799-5.34170601 5.970142h-2.827962v-18.69597103c1.25687199-0.94265401 2.51374401-2.042417 3.45639801-3.45639801h17.28199002c1.885308 0 2.98507101-0.47132701 3.29928901-1.41398099 0.47132701-0.94265401 0.15710901-2.19952601-0.78554501-3.613507-0.94265401-1.41398101-2.98507101-3.61350702-5.970142-6.44146903-2.98507101-2.82796201-5.02748801-4.24194301-6.12725103-4.39905201-1.41398101 0-2.51374401 0.47132701-3.770616 1.57109001s-2.51374401 2.35663501-3.770616 4.08483401c-1.41398101 1.57108999-2.82796201 3.45639799-4.55616101 5.341706h-22.46658704l-8.01255901-0.31421801c5.02748801-6.127251 10.05497602-12.88293803 15.23957302-20.26706102h38.33459609c1.885308 0 3.14217999-0.31421799 3.61350698-1.099763 0.47132701-0.628436 0.31421799-1.72819901-0.31421799-3.29928902-0.78554501-1.41398101-3.61350702-4.556161-8.48388601-9.26943101-2.19952601-2.042417-3.770616-2.98507101-4.870379-2.827962-1.09976302 0.15710901-2.35663501 1.25687199-4.08483401 2.985071-1.57108999 1.885308-4.08483399 4.71327001-7.38412302 8.79810401h-13.35426503c2.19952601-3.29928901 5.49881501-9.11232202 10.05497602-17.43909904 4.39905201-1.41398101 6.75568702-2.98507101 6.75568701-4.39905199 0-2.35663501-5.18459701-5.02748801-15.39668204-8.32677702l-7.38412301-2.35663501c-3.92772502-1.41398101-6.127251-1.25687199-6.91279601 0.31421801l-0.471327 3.77061601-0.94265401 5.027488c-0.628436 2.670853-1.885308 7.38412301-3.770616 14.13981004s-4.08483399 13.66848304-6.441469 20.58127903c-2.35663501 6.91279601-5.02748801 13.35426503-8.01255905 19.16729804l-2.51374399 4.71327002c-0.15710901 0.78554501-0.15710901 1.57108999 0.15710901 2.51374399 0.47132701 0.94265401 1.09976302 1.41398101 2.042417 1.09976301s1.72819901-0.78554501 2.19952602-1.256872l3.14218-3.29928902 6.12725099-6.28436001c0.31421799-0.31421799 0.78554501-0.628436 1.25687202-1.256872l3.14218 4.08483401 8.01255902-0.78554499v22.15236903H1247.43341931l-11.31184804-0.628436 3.29928902 5.81303301 10.36919402-0.47132699h11.15473902l-0.157109 39.74857708c-0.15710901 2.51374401-0.78554501 4.556161-2.042417 5.81303301-1.25687199 1.41398101-1.885308 2.042417-1.88530799 2.042417-0.47132701 0.94265401-0.47132701 2.19952601 0 3.77061601s1.72819901 4.39905201 4.08483399 8.640995c2.19952601 4.08483399 4.08483399 7.22701402 5.49881501 9.11232202 1.41398101 1.885308 2.51374401 2.98507101 3.61350701 3.14218002 0.78554501 0.31421799 1.41398101 0.31421799 1.885308 0s1.09976302-1.25687199 2.19952602-2.67085301l2.985071-4.24194301c4.08483399-5.97014202 7.54123201-10.52630302 10.21208501-13.98270102s8.64099502-10.21208501 18.22464404-20.42417005l3.92772499-4.08483401c0.78554501-0.78554501 1.09976302-1.72819901 1.09976302-2.67085301 0-1.09976302-0.628436-1.57108999-1.57109-1.72819899-0.94265401-0.15710901-1.72819901-0.15710901-2.199526 0.157109l-6.12725101 3.14218-10.21208503 5.027488c-1.72819901 0.94265401-4.39905201 2.35663501-7.69834102 4.08483404v-35.0353071h23.09502304c2.042417 0 3.770616-0.31421799 5.18459703-1.099763l-0.15710902 41.63388509c-0.15710901 2.51374401-0.31421799 4.08483399-0.78554499 4.87037901-0.31421799 0.78554501-0.94265401 1.72819901-1.88530801 2.670853-0.78554501 0.94265401-1.25687199 1.72819901-1.41398099 2.19952601-0.47132701 1.57108999 1.09976302 5.18459701 4.39905199 10.99763003l6.59857801 10.52630302c1.25687199 2.042417 2.35663501 2.98507101 3.29928902 3.14217998 0.628436 0.15710901 1.25687199 0.15710901 1.57108999-0.15710899 0.47132701-0.31421799 1.09976302-1.09976302 2.19952601-2.19952599l3.45639801-3.92772502 6.44146902-6.91279601 8.01255902-8.79810401 7.541232-7.85545001c1.25687199-1.41398101 2.98507101-3.45639799 5.49881501-6.28436001 0.15710901 0.47132701 0.628436 1.72819901 1.41398102 3.45639798 0.628436 1.72819901 2.98507101 5.49881501 6.91279601 11.46895704 3.770616 5.81303301 8.326777 10.68341202 13.19715601 14.45402802l3.14218001 2.35663502c1.09976302 0.78554501 1.885308 1.25687199 2.51374401 1.57108999 1.25687199 0.628436 2.35663501 0.78554501 2.98507102 0.47132701 0.628436-0.31421799 1.885308-2.19952601 3.45639799-5.49881501 1.72819901-3.29928901 3.770616-5.81303301 6.28436003-7.54123203 2.670853-1.72819901 4.556161-2.82796201 5.813033-3.14218l5.02748801-1.256872c1.885308-0.47132701 2.82796201-1.25687199 2.67085301-2.356635z m-76.04075615-124.74454626h34.09265306v23.88056805h-34.09265306v-23.88056805z m0.15710899 112.49004423l-0.15710899-53.57416911h12.72582904l0.78554497 6.59857803c0.628436 7.85545002 1.09976302 13.35426503 1.57109001 16.33933602 0.31421799 2.98507101 1.09976302 6.75568702 2.19952602 11.15473901 0.94265401 4.39905201 2.19952601 8.79810401 3.299289 13.19715604-5.49881501 1.72819901-12.25450203 3.770616-20.42417005 6.28436001z m-0.15710899-58.28743911V361.48116434h34.09265306v25.45165805h-34.09265306zM1506.19194283 374.99253837l10.36919399 0.94265399h63.00070915c2.042417-2.98507101 4.71327001-6.441469 8.01255901-10.68341201 3.29928901-4.24194301 5.97014202-6.28436002 8.01255902-6.12725102 1.885308 0.15710901 5.65592402 3.14217999 11.31184801 8.640995 5.65592402 5.65592402 8.16966803 9.26943102 7.54123202 10.68341204-0.628436 1.57108999-1.72819901 2.19952601-3.29928901 2.199526l-24.50900404-0.157109c-1.885308 2.19952601-3.14217999 3.61350702-3.61350701 4.08483401v76.98341016c0 3.61350702-0.78554501 6.59857803-2.19952601 9.26943101-1.41398101 2.51374401-5.97014202 4.71327001-13.82559202 6.12725101-7.69834101 1.57108999-12.88293803 2.19952601-15.55379103 1.72819901-1.41398101-0.15710901-2.35663501-0.47132701-2.98507101-1.09976301-0.47132701-0.47132701-0.78554501-1.57108999-0.942654-3.299289l-0.314218-5.34170601c-0.31421799-1.885308-1.09976302-3.61350702-2.35663501-5.02748803-1.09976302-1.41398101-2.51374401-2.35663501-4.084834-2.67085299l-5.02748802-1.099763c-2.82796201-0.47132701-4.556161-1.09976302-5.49881501-1.57109001-0.94265401-0.47132701-1.25687199-1.25687199-1.256872-2.513744s0.628436-2.042417 1.885308-2.513744c1.25687199-0.31421799 3.14217999-0.47132701 5.65592402-0.314218l3.29928899 0.314218c0.78554501 0.15710901 3.61350702 0.31421799 8.64099503 0.94265399 5.02748801 0.47132701 7.85545002-0.15710901 8.64099502-1.728199 0.78554501-1.72819901 1.09976302-3.61350702 1.25687199-5.81303302l0.157109-66.45710712h-39.27725006l-10.52630303 0.471327-4.87037901-5.970142c-0.94265401 0.78554501-1.57108999 1.25687199-1.88530799 1.57108999l-8.64099504 8.48388603-0.78554499 0.78554499c1.41398101 0.78554501 2.98507101 1.72819901 4.556161 2.670853 1.72819901 0.94265401 2.51374401 2.042417 2.670853 2.98507101 0.15710901 1.09976302-1.25687199 2.98507101-4.08483398 5.65592401v57.81611212l0.94265398 16.81066304c-0.47132701 1.885308-1.57108999 3.45639799-3.14217999 5.027488-1.72819901 1.57108999-5.02748801 2.51374401-10.36919402 2.82796199-5.18459701 0.31421799-8.326777 0.15710901-9.42654003-0.62843598-1.09976302-0.628436-1.885308-1.57108999-2.35663502-2.67085301l0.94265402-20.10995203v-51.84597011c-3.45639799 2.670853-9.26943102 6.59857803-17.12488104 11.78317503l-5.34170602 3.45639799c-2.82796201 1.72819901-4.556161 2.35663501-5.184597 1.57109001-0.78554501-0.78554501-1.09976302-1.57108999-1.099763-2.356635s0.47132701-1.72819901 1.413981-2.670853l3.456398-3.77061601c4.87037901-5.18459701 10.05497602-11.78317502 15.39668205-19.63862506 5.34170603-7.85545002 8.95521301-13.51137403 10.84052101-17.124881 1.885308-3.45639799 3.770616-6.91279601 5.49881501-10.36919403l3.29928901-6.44146902 1.41398101-2.98507099c0.47132701-0.94265401 0.94265401-1.57108999 1.72819899-2.04241703 0.628436-0.47132701 2.19952601-0.15710901 4.39905201 0.94265401 1.09976302 0.628436 5.02748801 2.98507101 11.78317502 7.22701402 6.91279601 4.24194301 9.89786702 7.54123201 9.26943103 9.583649-0.47132701 1.57108999-2.51374401 2.35663501-5.813033 2.67085303v0.785545zM1503.52108981 339.01457729c4.39905201 0.31421799 7.06990501-0.31421799 7.69834102-1.57108999 0.47132701-0.78554501 0.15710901-2.042417-0.62843601-3.77061601-0.78554501-1.72819901-3.770616-5.02748801-8.95521303-9.58364903l-6.75568701-5.81303302c-2.82796201-2.51374401-4.71327001-3.61350702-5.655924-3.29928901-0.94265401 0.31421799-1.885308 1.25687199-2.827962 2.67085303l-1.413981 2.51374399-3.29928901 5.184597-5.18459701 8.48388603c-2.35663501 3.61350702-5.49881501 8.01255901-9.26943102 13.35426503-3.770616 5.18459701-7.54123201 9.58364903-11.15473903 13.19715603l-3.927725 3.770616c-2.19952601 2.19952601-3.29928901 3.61350702-3.61350701 4.241943-0.31421799 0.78554501-0.15710901 1.41398101 0.314218 2.04241703 0.47132701 0.628436 1.41398101 0.78554501 2.51374401 0.62843598s2.98507101-0.94265401 5.65592399-2.356635l3.92772502-2.19952601c0.31421799-0.15710901 2.670853-1.72819901 7.06990503-4.39905202l11.783175-6.912796 15.08246403-10.36919403c1.72819901-1.41398101 4.71327001-3.29928901 8.64099503-5.813033zM1565.89336293 334.6155253c4.08483399-5.81303301 7.38412301-10.05497602 9.58364902-12.41161104 2.19952601-2.35663501 3.92772502-3.61350702 5.34170601-3.77061601 1.41398101 0 3.14217999 0.94265401 5.34170601 2.82796201l7.38412302 6.755687c5.81303301 5.02748801 8.16966803 8.326777 7.38412302 9.42654004-0.94265401 1.25687199-2.042417 1.72819901-3.29928901 1.72819899h-69.12796015l-10.52630303 0.47132699-5.02748799-6.28436001 12.88293802 1.09976302 40.06279508 0.15710901z" fill="#231815" ></path><path d="M425.91045666 593.8453758h-17.75331702v-2.51374401c3.61350702-0.47132701 6.28436002-3.29928901 8.16966802-8.32677702l14.45402801-34.56398007h3.29928901L450.89078773 587.08968877c0.94265401 2.82796201 2.98507101 4.39905201 6.12725101 4.39905202v2.513744H433.6087977v-2.513744h2.513744c2.670853 0.15710901 3.92772502-0.628436 3.770616-2.356635 0-0.31421799-0.15710901-0.94265401-0.314218-2.04241702 0.15710901 0.628436 0.15710901 0.47132701-0.314218-0.47132699l-3.29928903-7.384123h-14.296919l-2.042417 5.02748799c-0.47132701 0.78554501-0.78554501 2.19952601-0.94265401 4.08483401 0.15710901 2.042417 1.41398101 2.98507101 3.77061601 2.98507101h3.29928901l0.15710898 2.51374401z m8.64099504-18.38175304l-5.81303301-13.82559204-5.65592401 13.82559204h11.46895702zM484.04078678 575.30651376v-2.98507101h25.13744006v2.98507101c-5.02748801-0.31421799-7.22701402 1.25687199-6.59857803 4.87037901v13.82559202h-2.51374399l-2.82796199-2.985071c-3.770616 2.19952601-8.01255901 3.29928901-13.04004704 3.29928902-12.88293803-1.41398101-20.10995203-8.48388603-21.36682406-21.36682406 1.25687199-14.92535503 8.79810401-23.09502305 22.93791405-24.50900405 2.670853 0 5.81303301 0.78554501 9.11232203 2.51374402 1.25687199 0.47132701 1.885308 0.78554501 2.35663502 0.78554498 0.31421799 0 0.78554501-0.47132701 1.57108999-1.256872l0.78554499-0.78554499h2.51374402v15.55379103H499.59457781c-2.670853-9.26943102-7.06990501-13.98270102-13.19715601-13.82559203-7.69834101 0-11.46895703 6.75568702-11.46895702 20.10995204 0.15710901 12.72582902 3.45639799 19.48151604 9.89786702 20.10995204 5.02748801 0.15710901 7.54123201-2.82796201 7.38412302-9.11232202 0.47132701-5.34170603-2.19952601-7.69834101-8.16966804-7.22701401zM556.93936295 583.94750878h2.51374399c0 6.75568702-3.14217999 10.21208501-9.42654002 10.212085-6.441469 0.15710901-9.74075802-3.45639799-9.74075801-10.683412 0.47132701-7.69834101-2.19952601-11.31184801-7.85545003-10.99763004v13.51137404c-0.47132701 3.92772502 1.57108999 5.65592402 6.44146901 5.34170601v2.51374401H515.61969585v-2.51374401c4.556161 0.15710901 6.75568702-1.25687199 6.44146901-4.39905201v-31.10758206c0.31421799-2.98507101-1.72819901-4.556161-6.44146901-4.39905201v-2.51374401h22.93791405c10.84052103 0.15710901 16.33933604 4.08483399 16.49644501 11.94028403-0.15710901 6.91279601-5.49881501 10.52630302-15.86800902 10.68341202v0.314218c6.127251 0.47132701 9.89786702 3.770616 11.46895703 9.74075802 1.57108999 5.65592402 2.82796201 8.01255901 3.770616 7.06990501 1.57108999 0.31421799 2.35663501-1.25687199 2.51374403-4.71327zM532.58746788 555.98210671v13.98270102c8.01255901 0.15710901 11.78317502-2.82796201 11.46895703-8.955213-0.15710901-5.65592402-2.51374401-8.64099502-7.06990502-8.95521301-2.98507101 0-4.39905201 1.25687199-4.39905201 3.92772499zM590.24647101 593.8453758H566.52301196v-2.51374401c4.556161 0.15710901 6.75568702-1.25687199 6.44146901-4.39905201v-31.10758206c0.31421799-2.98507101-1.72819901-4.556161-6.44146901-4.39905201v-2.51374401h23.72345905v2.51374401c-4.556161-0.15710901-6.75568702 1.25687199-6.44146903 4.39905201v31.10758206c-0.31421799 2.98507101 1.72819901 4.556161 6.44146903 4.39905201v2.51374401zM639.7358061 549.2264197v16.02511804h-2.51374401c-3.45639799-9.74075802-8.326777-14.29691903-14.76824602-13.98270103-7.69834101 0-11.46895703 6.75568702-11.46895703 20.10995203 0 13.19715602 4.39905201 19.95284304 13.19715603 20.10995205 8.64099502-0.15710901 13.35426503-5.18459701 13.98270103-15.23957302h2.985071c-0.31421799 11.78317502-6.59857803 17.59620803-18.53886205 17.75331702-14.76824603-0.47132701-22.62369604-8.01255901-23.72345902-22.62369605 1.57108999-14.13981003 9.11232202-21.83815103 22.93791404-23.25213204 3.770616 0 8.01255901 1.25687199 12.72582903 3.770616l2.513744-2.827962h2.670853v0.157109zM648.69101913 549.0693107h22.93791403v2.51374401c-4.71327001-0.15710901-6.91279601 1.25687199-6.59857803 4.399052v26.70853006c0.31421799 5.49881501 3.45639799 8.326777 9.11232203 8.95521302 7.54123201 0 11.15473903-3.770616 11.15473902-11.15473902v-23.72345906c0.47132701-2.82796201-1.885308-4.556161-7.06990499-5.02748801v-2.513744h16.49644501v2.513744c-4.39905201 0.47132701-6.441469 2.19952601-6.12725101 5.02748801V579.86267476c0 9.58364903-5.65592402 14.29691903-17.12488101 14.29691902-10.99763002-0.15710901-16.65355405-4.39905201-16.81066306-12.41161101v-25.76587606c0.31421799-2.98507101-1.72819901-4.556161-6.12725101-4.399052l0.15710902-2.51374401zM737.61471329 593.8453758h-37.39194206v-2.51374401c4.556161 0.15710901 6.75568702-1.25687199 6.44146902-4.39905201v-31.10758206c0.31421799-2.98507101-1.72819901-4.556161-6.44146902-4.39905201v-2.51374401h23.72345903v2.51374401c-4.556161-0.15710901-6.75568702 1.25687199-6.441469 4.39905201v30.79336406c-0.15710901 2.98507101 1.25687199 4.39905201 4.399052 4.08483401 6.441469-0.47132701 10.99763002-5.18459701 13.51137403-14.29691902h2.827962l-0.628436 17.43909903zM745.1559453 549.0693107H787.10404838l0.31421801 15.86800904h-2.98507101c-2.042417-8.48388603-6.28436002-12.72582902-12.72582902-12.72582903v34.87819806c-0.31421799 2.98507101 2.042417 4.556161 7.06990502 4.39905202v2.513744h-25.45165805v-2.513744c5.49881501 0.15710901 7.85545002-1.25687199 7.38412301-4.39905202v-34.87819806c-6.441469 0-10.68341202 4.24194301-12.72582903 12.72582903h-2.985071l0.15710899-15.86800904zM792.9170814 549.0693107h22.93791403v2.51374401c-4.71327001-0.15710901-6.91279601 1.25687199-6.598578 4.399052v26.70853006c0.31421799 5.49881501 3.45639799 8.326777 9.11232202 8.95521302 7.54123201 0 11.15473903-3.770616 11.15473902-11.15473902v-23.72345906c0.47132701-2.82796201-1.885308-4.556161-7.06990501-5.02748801v-2.513744H838.95001849v2.513744c-4.39905201 0.47132701-6.441469 2.19952601-6.127251 5.02748801V579.86267476c0 9.58364903-5.65592402 14.29691903-17.12488103 14.29691902-10.99763002-0.15710901-16.65355405-4.39905201-16.81066305-12.41161101v-25.76587606c0.31421799-2.98507101-1.72819901-4.556161-6.12725099-4.399052l0.15710898-2.51374401zM885.45428258 583.94750878h2.513744c0 6.75568702-3.14217999 10.21208501-9.42654002 10.212085-6.441469 0.15710901-9.74075802-3.45639799-9.74075801-10.683412 0.47132701-7.69834101-2.19952601-11.31184801-7.85545-10.99763004v13.51137404c-0.47132701 3.92772502 1.57108999 5.65592402 6.44146899 5.34170601v2.51374401h-23.25213204v-2.51374401c4.556161 0.15710901 6.75568702-1.25687199 6.44146902-4.39905201v-31.10758206c0.31421799-2.98507101-1.72819901-4.556161-6.44146902-4.39905201v-2.51374401h22.93791405c10.84052103 0.15710901 16.33933604 4.08483399 16.49644504 11.94028403-0.15710901 6.91279601-5.49881501 10.52630302-15.86800904 10.68341202v0.314218c6.127251 0.47132701 9.89786702 3.770616 11.46895702 9.74075802 1.57108999 5.65592402 2.82796201 8.01255901 3.77061602 7.06990501 1.57108999 0.31421799 2.35663501-1.25687199 2.51374399-4.71327zM860.94527855 555.98210671v13.98270102c8.01255901 0.15710901 11.78317502-2.82796201 11.468957-8.955213-0.15710901-5.65592402-2.51374401-8.64099502-7.06990502-8.95521301-2.98507101 0-4.39905201 1.25687199-4.39905198 3.92772499zM910.74883164 593.8453758h-17.75331704v-2.51374401c3.61350702-0.47132701 6.28436002-3.29928901 8.16966801-8.32677702l14.45402804-34.56398007h3.29928901l16.81066304 38.64881407c0.94265401 2.82796201 2.98507101 4.39905201 6.127251 4.39905202v2.513744h-23.40924105v-2.513744h2.51374399c2.670853 0.15710901 3.92772502-0.628436 3.77061602-2.356635 0-0.31421799-0.15710901-0.94265401-0.314218-2.04241702 0.15710901 0.628436 0.15710901 0.47132701-0.31421801-0.47132699l-3.29928898-7.384123H906.50688862l-2.04241699 5.02748799c-0.47132701 0.78554501-0.78554501 2.19952601-0.94265403 4.08483401 0.15710901 2.042417 1.41398101 2.98507101 3.77061604 2.98507101h3.29928898v2.51374401h0.15710902z m8.64099502-18.38175304l-5.81303302-13.82559204-5.65592401 13.82559204h11.46895703zM983.64740779 593.8453758h-37.39194207v-2.51374401c4.556161 0.15710901 6.75568702-1.25687199 6.441469-4.39905201v-31.10758206c0.31421799-2.98507101-1.72819901-4.556161-6.441469-4.39905201v-2.51374401h23.56635003v2.51374401c-4.556161-0.15710901-6.75568702 1.25687199-6.44146903 4.39905201v30.79336406c-0.15710901 2.98507101 1.25687199 4.39905201 4.39905203 4.08483401 6.441469-0.47132701 10.99763002-5.18459701 13.51137402-14.29691902h2.827962l-0.47132698 17.43909903zM1019.46825984 586.93257978v-31.10758206c0.31421799-2.98507101-1.72819901-4.556161-6.127251-4.39905201v-2.51374401h23.25213205c10.52630302 0.15710901 16.02511803 3.92772502 16.33933604 11.15473903 0 5.49881501-3.45639799 8.64099502-10.21208504 9.74075802 8.48388603 1.41398101 12.72582902 5.02748801 12.72582903 11.15473902-0.47132701 8.326777-5.97014202 12.56872002-16.49644504 12.72582902H1013.34100884v-2.51374402c4.39905201 0.31421799 6.441469-1.09976302 6.127251-4.24194299z m10.36919403-15.23957304v14.29691904c-0.15710901 3.45639799 1.41398101 5.02748801 4.55616101 4.87037901 6.441469-0.15710901 9.74075802-2.98507101 9.74075803-8.64099503-0.15710901-6.91279601-3.45639799-10.36919402-9.74075803-10.36919401h-4.55616101v-0.15710901z m0-15.23957301v12.41161103h2.04241701c6.59857803 0 9.89786702-2.670853 9.74075801-8.16966802-0.15710901-5.65592402-2.670853-8.48388603-7.38412301-8.64099502-2.82796201 0-4.39905201 1.41398101-4.39905201 4.39905201zM1079.95522498 593.8453758H1062.04479893v-2.51374401c3.61350702-0.47132701 6.28436002-3.29928901 8.16966804-8.32677702l14.454028-34.56398007h3.29928901l16.81066303 38.64881407c0.94265401 2.82796201 2.98507101 4.39905201 6.12725103 4.39905202v2.513744h-23.40924105v-2.513744h2.51374401c2.670853 0.15710901 3.92772502-0.628436 3.77061599-2.356635 0-0.31421799-0.15710901-0.94265401-0.314218-2.04241702 0.15710901 0.628436 0.15710901 0.47132701-0.314218-0.47132699l-3.29928901-7.384123h-14.29691902l-2.04241699 5.02748799c-0.47132701 0.78554501-0.78554501 2.19952601-0.94265402 4.08483401 0.15710901 2.042417 1.41398101 2.98507101 3.77061601 2.98507101h3.29928902v2.51374401h0.314218z m8.64099501-18.38175304l-5.81303301-13.82559204-5.65592401 13.82559204h11.46895702zM1115.14764105 551.58305471v-2.51374401h15.86800902l21.83815104 30.63625508h0.31421799v-22.93791407c0.31421799-2.82796201-1.885308-4.556161-6.912796-5.02748801v-2.513744H1162.59455915v2.513744c-4.24194301 0.47132701-6.127251 2.19952601-5.81303304 5.02748801V594.00248479h-6.127251l-24.98033105-34.56398004h-0.31421799v27.80829303c-0.47132701 2.98507101 2.042417 4.556161 7.698341 4.39905201v2.51374399H1115.46185905v-2.51374399c4.556161 0.15710901 6.75568702-1.25687199 6.44146899-4.39905201v-31.10758206c0.15710901-3.29928901-2.042417-4.71327001-6.75568699-4.55616101zM1169.03602816 551.58305471v-2.51374401h22.62369603v2.51374401c-3.770616-0.15710901-5.49881501 1.25687199-5.34170601 4.399052v13.98270102l13.51137401-13.511374c0.94265401-0.78554501 1.57108999-1.72819901 1.57109003-2.82796202 0-1.41398101-1.09976302-2.042417-3.29928901-2.042417h-2.35663501v-2.51374401h19.32440704v2.51374401c-4.08483399 0.31421799-6.91279601 1.57108999-8.64099502 3.61350702l-10.21208503 9.74075801 14.45402804 23.72345904c0.94265401 1.885308 3.14217999 2.82796201 6.44146901 2.82796201v2.513744h-22.46658705v-2.513744c2.35663501-0.31421799 3.61350702-0.78554501 3.61350701-1.57109002 1.25687199 1.41398101-2.042417-4.556161-9.74075802-17.59620802l-2.35663499 2.042417v12.72582902c-0.15710901 2.98507101 1.41398101 4.556161 4.55616101 4.39905202v2.513744H1168.87891914v-2.513744c4.556161 0.15710901 6.75568702-1.25687199 6.44146903-4.39905202v-31.10758206c0.31421799-3.14217999-1.72819901-4.556161-6.28436001-4.399052zM1245.86232929 571.37878874c1.57108999-14.13981003 9.11232202-21.83815103 22.93791404-23.25213204 13.51137403 1.57108999 21.20971504 9.26943102 22.62369605 23.25213204-1.41398101 13.98270102-8.95521301 21.52393302-22.62369605 22.62369605-13.98270102-1.09976302-21.68104205-8.64099502-22.93791404-22.62369605z m12.25450204 0c0 13.35426503 3.61350702 20.10995203 10.683412 20.10995205 6.91279601 0.15710901 10.36919402-6.59857803 10.36919402-20.10995205 0-13.51137403-3.45639799-20.26706103-10.36919402-20.10995203-7.22701402 0-10.68341202 6.75568702-10.683412 20.10995203zM1323.15995745 593.8453758h-24.50900405v-2.51374401c4.556161 0.15710901 6.75568702-1.25687199 6.44146901-4.39905201v-31.10758206c0.31421799-2.98507101-1.72819901-4.556161-6.44146901-4.39905201v-2.51374401h40.21990409l0.471327 16.02511804h-2.827962c-2.35663501-8.64099502-7.54123201-13.04004703-15.23957305-13.04004704-3.92772502-0.31421799-5.65592402 0.94265401-5.34170599 4.08483401v12.72582902c5.65592402 0.47132701 8.95521301-2.042417 10.21208502-7.698341h2.51374399v18.06753503h-2.51374399c-1.25687199-5.65592402-4.556161-8.16966803-10.21208502-7.69834102v15.23957304c-0.31421799 2.98507101 2.042417 4.556161 7.06990501 4.39905201v2.82796201h0.15710899zM1411.14099762 549.2264197v16.02511804h-2.51374399c-3.45639799-9.74075802-8.326777-14.29691903-14.76824602-13.98270103-7.69834101 0-11.46895703 6.75568702-11.46895704 20.10995203 0 13.19715602 4.39905201 19.95284304 13.19715601 20.10995205 8.64099502-0.15710901 13.35426503-5.18459701 13.98270106-15.23957302h2.98507097c-0.31421799 11.78317502-6.59857803 17.59620803-18.53886201 17.75331702-14.76824603-0.47132701-22.62369604-8.01255901-23.72345904-22.62369605 1.57108999-14.13981003 9.11232202-21.83815103 22.93791403-23.25213204 3.770616 0 8.01255901 1.25687199 12.72582902 3.770616l2.51374402-2.827962h2.67085299v0.157109zM1437.69241868 568.86504476h14.45402803v-13.04004704c0.15710901-2.98507101-1.72819901-4.556161-5.65592402-4.39905201v-2.51374401h22.93791405v2.51374401c-4.556161-0.15710901-6.75568702 1.25687199-6.44146902 4.39905201v31.10758206c-0.31421799 2.98507101 1.72819901 4.556161 6.44146902 4.39905201v2.51374401h-22.93791405v-2.51374401c3.92772502 0.15710901 5.81303301-1.25687199 5.65592402-4.39905201v-15.23957304h-14.45402803v15.23957304c-0.15710901 2.98507101 1.72819901 4.556161 5.65592402 4.39905201v2.51374401h-22.62369605v-2.51374401c4.39905201 0.15710901 6.441469-1.25687199 6.12725101-4.39905201v-31.10758206c0.31421799-2.98507101-1.72819901-4.556161-6.12725101-4.39905201v-2.51374401h22.62369605v2.51374401c-3.92772502-0.15710901-5.81303301 1.25687199-5.65592402 4.39905201v13.04004704zM1499.90758281 593.8453758h-23.72345908v-2.51374401c4.556161 0.15710901 6.75568702-1.25687199 6.44146904-4.39905201v-31.10758206c0.31421799-2.98507101-1.72819901-4.556161-6.44146904-4.39905201v-2.51374401h23.72345908v2.51374401c-4.556161-0.15710901-6.75568702 1.25687199-6.44146901 4.39905201v31.10758206c-0.31421799 2.98507101 1.72819901 4.556161 6.44146901 4.39905201v2.51374401zM1506.97748782 551.58305471v-2.51374401h15.86800901l21.83815107 30.63625508h0.314218v-22.93791407c0.31421799-2.82796201-1.885308-4.556161-6.91279601-5.02748801v-2.513744h16.33933602v2.513744c-4.24194301 0.47132701-6.127251 2.19952601-5.81303301 5.02748801V594.00248479h-6.12725101l-24.98033104-34.56398004h-0.31421801v27.80829303c-0.47132701 2.98507101 2.042417 4.556161 7.69834102 4.39905201v2.51374399h-17.59620805v-2.51374399c4.556161 0.15710901 6.75568702-1.25687199 6.44146902-4.39905201v-31.10758206c0.15710901-3.29928901-2.042417-4.71327001-6.75568701-4.55616101zM1577.04810194 593.8453758h-17.75331701v-2.51374401c3.61350702-0.47132701 6.28436002-3.29928901 8.169668-8.32677702l14.45402803-34.56398007h3.299289l16.81066304 38.64881407c0.94265401 2.82796201 2.98507101 4.39905201 6.127251 4.39905202v2.513744h-23.40924101v-2.513744h2.51374398c2.670853 0.15710901 3.92772502-0.628436 3.77061602-2.356635 0-0.31421799-0.15710901-0.94265401-0.31421803-2.04241702 0.15710901 0.628436 0.15710901 0.47132701-0.31421798-0.47132699l-3.29928901-7.384123h-14.29691903l-2.04241699 5.02748799c-0.47132701 0.78554501-0.78554501 2.19952601-0.94265399 4.08483401 0.15710901 2.042417 1.41398101 2.98507101 3.770616 2.98507101h3.299289l0.15710898 2.51374401z m8.64099503-18.38175304l-5.813033-13.82559204-5.65592403 13.82559204h11.46895703z" fill="#231815" ></path></svg>