<svg t="1660877299529" class="icon" viewBox="0 0 2560 1024" version="1.1" xmlns="http://www.w3.org/2000/svg" p-id="2598" width="200" height="200"><path d="M983.04 655.36c-5.12-2.56-10.24-5.12-17.92-7.68 7.68-2.56 20.48-5.12 20.48-20.48 0-15.36-12.8-23.04-38.4-23.04h-43.52v2.56c7.68 0 12.8 0 12.8 10.24v66.56c0 7.68-5.12 7.68-12.8 10.24v2.56h46.08c30.72 0 40.96-12.8 40.96-25.6 2.56-5.12 0-12.8-7.68-15.36z m-40.96-38.4c0-2.56 0-5.12 7.68-5.12 10.24 0 15.36 5.12 15.36 17.92 0 12.8-2.56 17.92-20.48 17.92-2.56-5.12-2.56-30.72-2.56-30.72z m0 33.28h5.12c10.24 0 20.48 2.56 20.48 20.48 0 12.8-5.12 20.48-17.92 20.48-5.12 0-7.68-2.56-7.68-7.68v-33.28zM1093.12 693.76c-7.68 0-7.68-5.12-15.36-17.92l-33.28-71.68h-5.12l-30.72 74.24c-5.12 10.24-5.12 15.36-12.8 15.36v2.56H1024v-2.56c-5.12 0-10.24 0-10.24-5.12 0-2.56 2.56-7.68 5.12-17.92H1049.6c2.56 2.56 7.68 12.8 7.68 17.92 0 5.12-2.56 5.12-10.24 5.12v2.56h46.08v-2.56z m-58.88-61.44l12.8 30.72h-25.6l12.8-30.72zM1200.64 604.16h-30.72v2.56c10.24 0 12.8 5.12 12.8 12.8v40.96l-48.64-56.32h-30.72v2.56c2.56 0 2.56 0 12.8 10.24v64c0 7.68-2.56 10.24-12.8 10.24v2.56h33.28V691.2c-10.24 0-12.8-2.56-12.8-12.8v-53.76l64 71.68h5.12v-79.36c0-5.12 0-10.24 10.24-10.24l-2.56-2.56zM1315.84 693.76c-2.56 0-5.12 0-7.68-2.56 0 0-40.96-46.08-43.52-51.2 23.04-23.04 30.72-30.72 46.08-30.72v-2.56h-40.96v2.56c10.24 0 12.8 2.56 12.8 5.12s0 2.56-5.12 7.68c0 0-25.6 23.04-30.72 28.16v-28.16c0-10.24 5.12-10.24 12.8-12.8v-2.56h-48.64v2.56c7.68 0 12.8 0 12.8 10.24v66.56c0 7.68-5.12 7.68-12.8 10.24v2.56h48.64v-2.56c-7.68 0-12.8-2.56-12.8-10.24v-25.6l2.56-2.56 25.6 30.72c2.56 2.56 2.56 5.12 2.56 5.12 0 2.56-2.56 2.56-10.24 2.56v2.56h48.64v-5.12zM1413.12 601.6c-30.72 0-51.2 20.48-51.2 48.64 0 12.8 5.12 25.6 15.36 35.84 10.24 7.68 23.04 12.8 35.84 12.8 15.36 0 28.16-5.12 35.84-12.8 10.24-7.68 15.36-20.48 15.36-35.84 0-28.16-20.48-48.64-51.2-48.64z m0 7.68c23.04 0 25.6 30.72 25.6 43.52 0 28.16-7.68 43.52-25.6 43.52-15.36 0-25.6-15.36-25.6-43.52 2.56-15.36 5.12-43.52 25.6-43.52zM1553.92 604.16h-81.92v2.56c7.68 0 12.8 0 12.8 10.24v66.56c0 7.68-5.12 7.68-12.8 10.24v2.56h51.2v-2.56c-10.24 0-15.36 0-15.36-10.24v-30.72c17.92 0 20.48 10.24 20.48 20.48h2.56v-46.08h-2.56c-2.56 10.24-2.56 20.48-20.48 20.48v-30.72c0-5.12 2.56-5.12 10.24-5.12 25.6 0 28.16 7.68 30.72 23.04h2.56l2.56-30.72zM1679.36 655.36c-5.12-2.56-10.24-5.12-17.92-7.68 7.68-2.56 20.48-5.12 20.48-20.48 0-15.36-12.8-23.04-38.4-23.04h-43.52v2.56c7.68 0 12.8 0 12.8 10.24v66.56c0 7.68-5.12 7.68-12.8 10.24v2.56h46.08c30.72 0 40.96-12.8 40.96-25.6 2.56-5.12 0-12.8-7.68-15.36z m-40.96-10.24V614.4c0-2.56 0-5.12 7.68-5.12 10.24 0 15.36 5.12 15.36 17.92-2.56 12.8-5.12 17.92-23.04 17.92z m0 5.12h2.56c10.24 0 20.48 2.56 20.48 20.48 0 12.8-5.12 20.48-17.92 20.48-2.56 0-5.12 0-5.12-7.68v-33.28zM1781.76 668.16c-10.24 20.48-25.6 23.04-38.4 23.04-10.24 0-12.8-2.56-12.8-7.68v-33.28c12.8 0 20.48 2.56 23.04 20.48h2.56v-46.08h-2.56c-2.56 15.36-10.24 20.48-23.04 20.48V614.4c0-5.12 2.56-5.12 10.24-5.12 20.48 0 28.16 2.56 33.28 23.04h2.56v-28.16h-81.92v2.56c7.68 0 12.8 0 12.8 10.24v66.56c0 7.68-5.12 7.68-12.8 10.24v2.56h84.48l5.12-28.16h-2.56zM1794.56 604.16v5.12c7.68 0 12.8 0 12.8 10.24v66.56c0 7.68-5.12 7.68-12.8 10.24v2.56h51.2v-2.56c-7.68 0-12.8 0-12.8-10.24v-66.56c0-7.68 5.12-7.68 12.8-10.24v-2.56h-51.2zM1868.8 604.16v5.12c7.68 0 12.8 0 12.8 10.24v74.24c0 5.12 0 10.24-7.68 10.24-2.56 0-5.12-2.56-5.12-2.56 0-2.56 0-2.56 2.56-2.56 0 0 2.56-2.56 2.56-5.12 0-7.68-7.68-10.24-10.24-10.24-5.12 0-10.24 2.56-10.24 10.24 0 0 0 17.92 25.6 17.92 10.24 0 15.36-2.56 20.48-5.12 7.68-5.12 10.24-12.8 10.24-25.6v-58.88c0-10.24 5.12-10.24 12.8-12.8v-2.56H1868.8zM1927.68 604.16v5.12c7.68 0 12.8 0 12.8 10.24v66.56c0 7.68-5.12 7.68-12.8 10.24v2.56h51.2v-2.56c-7.68 0-12.8 0-12.8-10.24v-66.56c0-7.68 5.12-7.68 12.8-10.24v-2.56h-51.2zM2053.12 604.16v5.12c10.24 0 12.8 5.12 12.8 12.8v40.96l-48.64-56.32h-30.72v2.56c2.56 0 2.56 0 12.8 10.24v64c0 7.68-2.56 10.24-12.8 10.24v2.56h33.28v-2.56c-10.24 0-12.8-2.56-12.8-12.8v-53.76l64 71.68h2.56v-79.36c0-5.12 0-10.24 10.24-10.24v-2.56h-30.72zM2196.48 657.92h-48.64v2.56c10.24 0 12.8 0 12.8 10.24v15.36c0 5.12-2.56 10.24-15.36 10.24-23.04 0-28.16-25.6-28.16-43.52 0-28.16 7.68-43.52 25.6-43.52s28.16 17.92 33.28 28.16h2.56v-30.72h-5.12c-2.56 2.56-2.56 5.12-5.12 5.12 0 0-2.56 0-5.12-2.56-5.12-2.56-12.8-5.12-20.48-5.12-30.72 0-51.2 20.48-51.2 48.64 0 23.04 15.36 48.64 53.76 48.64 12.8 0 30.72-2.56 38.4-7.68v-17.92c0-10.24 2.56-10.24 12.8-12.8v-5.12zM1131.52 545.28c10.24 0 20.48 0 35.84-2.56 15.36-2.56 23.04-15.36 25.6-23.04v-5.12l2.56-20.48v-2.56c0-7.68 0-15.36-2.56-20.48-2.56-2.56-2.56-12.8-5.12-17.92-2.56-2.56-5.12 5.12-5.12 5.12v2.56c0 2.56-2.56 5.12-2.56 5.12-2.56 5.12-2.56 5.12-7.68 7.68-5.12 2.56-7.68 5.12-15.36 10.24-5.12 5.12-10.24 5.12-17.92 5.12-5.12 0-7.68 2.56-12.8 2.56h-10.24-2.56l-10.24-2.56c-12.8-2.56-15.36-15.36-17.92-20.48-2.56-5.12 0-12.8 0-17.92v-10.24-5.12c0-2.56 0-7.68 2.56-12.8 2.56-2.56 2.56-5.12 2.56-7.68 2.56-2.56 2.56-5.12 7.68-5.12 2.56 0 7.68 2.56 15.36 2.56 5.12 0 7.68-2.56 10.24-2.56h33.28c7.68-2.56 12.8-12.8 15.36-20.48v-2.56c0-7.68-2.56-15.36-7.68-17.92-2.56-2.56-10.24-2.56-15.36-2.56-5.12 0-10.24-2.56-17.92-2.56h-20.48c-15.36 2.56-20.48-5.12-25.6-10.24l-5.12-5.12c-5.12-10.24-5.12-15.36-5.12-20.48 0-5.12-2.56-10.24-5.12-10.24s-2.56 0-5.12 2.56-5.12 5.12-5.12 10.24v12.8c0 30.72 2.56 81.92 2.56 87.04v5.12c0 7.68-2.56 30.72-5.12 35.84-2.56 5.12-7.68 5.12-10.24 5.12h-7.68c-2.56 0-2.56 2.56-10.24 2.56-5.12 0-5.12-2.56-7.68-2.56-2.56-2.56-2.56-5.12-2.56-10.24v-7.68V450.56v-12.8V404.48c0-7.68-2.56-38.4-5.12-46.08 0-7.68-2.56-12.8-10.24-17.92-7.68-5.12-7.68-5.12-12.8 0-2.56 2.56-5.12 7.68-5.12 12.8v5.12c0 7.68-5.12 7.68-10.24 10.24H972.8c-5.12 2.56-12.8 2.56-17.92 0h-12.8c-5.12 0-15.36 0-23.04 2.56-5.12 2.56-5.12 5.12-5.12 10.24v12.8c0 5.12 0 7.68-2.56 15.36v2.56c0 5.12 2.56 5.12 5.12 10.24s5.12 7.68 10.24 10.24c2.56 2.56 17.92 10.24 23.04 12.8h7.68c2.56 0 7.68-2.56 12.8 0 7.68 5.12 10.24 15.36 7.68 23.04-2.56 7.68-7.68 12.8-20.48 15.36h-23.04c-7.68 0-7.68 2.56-10.24 5.12-2.56 2.56-7.68 2.56-10.24 2.56h-5.12c-5.12 2.56-10.24 5.12-12.8 20.48v2.56c0 12.8 2.56 17.92 12.8 25.6 5.12 5.12 15.36 7.68 43.52 5.12 17.92-2.56 28.16-5.12 33.28-10.24 5.12-5.12 12.8-7.68 17.92-10.24 5.12-2.56 5.12-2.56 7.68-2.56 12.8-7.68 20.48-10.24 28.16-10.24 7.68 0 7.68 10.24 7.68 12.8v5.12c0 5.12 7.68 10.24 10.24 12.8 2.56 2.56 5.12 2.56 7.68 5.12 2.56 2.56 5.12 2.56 5.12 2.56 2.56 0 5.12 2.56 7.68 2.56h5.12s10.24-2.56 17.92-2.56c15.36-5.12 30.72-5.12 30.72-5.12zM1515.52 376.32c2.56 0 2.56-2.56 2.56-5.12l2.56-7.68c0-2.56 2.56-2.56 2.56-5.12 0-5.12-2.56-7.68-5.12-7.68l-10.24-5.12-2.56-2.56c-2.56-2.56-5.12-2.56-10.24-2.56-2.56 0-5.12 0-7.68 2.56-2.56 0-5.12 2.56-7.68 2.56l-12.8-2.56H1459.2c-10.24 0-23.04 2.56-23.04 2.56-2.56 0-15.36 2.56-20.48-2.56-2.56-2.56-2.56-5.12-10.24-7.68-5.12-2.56-7.68-10.24-10.24-12.8-5.12-5.12-12.8-5.12-20.48-5.12-5.12 0-7.68 0-10.24 2.56-5.12 2.56-7.68 5.12-7.68 7.68 0 2.56-2.56 2.56-5.12 5.12s-5.12 5.12-5.12 7.68c-2.56 2.56-2.56 7.68-7.68 7.68h-5.12-30.72-38.4c-7.68 0-12.8 0-20.48 7.68-7.68 7.68-5.12 15.36-2.56 23.04 0 0 0 5.12 2.56 7.68 2.56 2.56 2.56 5.12 15.36 5.12 17.92 0 23.04 5.12 25.6 10.24l2.56 2.56c5.12 5.12 5.12 15.36 5.12 23.04v17.92c0 7.68-2.56 12.8-5.12 15.36-7.68-2.56-7.68 0-7.68 2.56V471.04c0 5.12 0 10.24-2.56 15.36v5.12c-2.56 10.24-5.12 10.24-10.24 12.8h-2.56-2.56c-2.56 0-5.12 2.56-5.12 2.56v2.56c0 2.56 0 5.12 2.56 10.24 7.68 17.92 20.48 17.92 35.84 17.92 12.8 0 35.84-7.68 40.96-12.8 5.12-2.56 5.12-5.12 5.12-10.24 0-2.56 0-5.12 2.56-5.12v-2.56c0-2.56-5.12-2.56-7.68-2.56-2.56 0-5.12-2.56-7.68-2.56l-5.12-2.56c-5.12-2.56-10.24 0-12.8 0-2.56 2.56-7.68 2.56-10.24 0-2.56 0-5.12-2.56-5.12-7.68 0-2.56 0-5.12 2.56-5.12 2.56-5.12 10.24-5.12 17.92-5.12 10.24 0 10.24 0 15.36-2.56 7.68-2.56 10.24-2.56 20.48-2.56 12.8 0 15.36 5.12 15.36 12.8 0 5.12 0 7.68-2.56 15.36v5.12c-2.56 10.24-5.12 20.48-2.56 28.16 2.56 12.8 10.24 23.04 12.8 23.04 5.12 0 10.24-7.68 15.36-15.36 2.56-5.12 2.56-17.92 0-25.6-2.56-5.12-2.56-20.48-2.56-30.72 2.56-12.8 23.04-12.8 33.28-10.24 5.12 0 7.68 2.56 7.68 2.56 2.56 0 5.12 2.56 7.68 2.56 7.68 2.56 12.8 2.56 20.48 2.56l5.12 2.56c2.56 0 7.68 0 10.24-2.56 2.56-2.56 0-2.56-2.56-7.68l-2.56-2.56c-2.56-5.12-7.68-10.24-7.68-25.6 0-12.8 10.24-23.04 12.8-25.6 2.56-2.56 5.12-5.12 5.12-10.24s-5.12-15.36-5.12-15.36c0-5.12 2.56-7.68 5.12-10.24 2.56-2.56 2.56 0 7.68 0 5.12 2.56 7.68 2.56 10.24 2.56 2.56 0 5.12-2.56 7.68-5.12 7.68-7.68 10.24-7.68 12.8-10.24z m-79.36 64c-2.56 2.56-5.12 5.12-10.24 5.12H1390.08h-48.64-10.24c-5.12 0-10.24-2.56-12.8-5.12 0-2.56-2.56-5.12 0-7.68 2.56-7.68 10.24-10.24 15.36-10.24h5.12c2.56 0 10.24-2.56 15.36 0H1415.68c15.36-2.56 17.92 5.12 20.48 7.68v5.12c2.56 2.56 0 2.56 0 5.12z m23.04-48.64c-2.56 2.56-7.68 2.56-10.24 0-2.56 0-7.68-2.56-15.36-5.12s-17.92-2.56-25.6-2.56h-48.64H1313.28c-5.12-2.56-5.12-2.56-5.12-7.68 0 0 0-2.56 0 0 0-2.56 0-5.12 2.56-7.68 2.56-2.56 7.68-2.56 10.24-2.56 5.12 0 17.92 2.56 25.6 0h5.12c2.56 0 7.68-2.56 12.8-2.56 7.68 0 17.92 0 23.04 2.56h33.28c5.12 0 10.24 0 15.36 2.56 15.36 7.68 15.36 7.68 17.92 10.24 5.12 5.12 5.12 7.68 5.12 10.24v2.56z" fill="#E50012" p-id="2599"></path><path d="M1500.16 504.32c-2.56-5.12-7.68-7.68-17.92-7.68-2.56 0-5.12 0-7.68-2.56H1459.2l-5.12 2.56c-2.56 2.56-7.68 0-10.24 0h-20.48c-2.56 0-7.68-2.56-10.24-2.56-5.12 0-7.68 5.12-7.68 15.36 0 5.12 2.56 7.68 7.68 12.8l5.12 7.68c5.12 7.68 10.24 10.24 20.48 12.8 7.68 0 10.24 0 15.36 2.56l7.68 2.56c2.56 2.56 5.12 2.56 10.24 2.56s5.12 0 12.8-2.56 10.24-10.24 12.8-12.8v-2.56-5.12-7.68c7.68-2.56 7.68-7.68 2.56-15.36zM1789.44 522.24c2.56-2.56 5.12-2.56 7.68-5.12 7.68 0 15.36 2.56 20.48 12.8 5.12 7.68 7.68 10.24 15.36 12.8 7.68 5.12 10.24 2.56 15.36 0 5.12-2.56 10.24-10.24 15.36-12.8l5.12-5.12c2.56-2.56 7.68-10.24 5.12-15.36 0-2.56-2.56-2.56-5.12-2.56h-10.24c-5.12 0-7.68-2.56-10.24-5.12l-5.12-5.12c-7.68-2.56-15.36-12.8-20.48-17.92l-2.56-2.56-10.24-10.24c-2.56-2.56-5.12-5.12-5.12-7.68v-2.56c0-5.12 2.56-7.68 7.68-10.24h10.24c2.56 0 2.56-2.56 5.12-5.12 0-2.56 2.56-2.56 2.56-5.12v-12.8-7.68c0-2.56 0-7.68 2.56-10.24V386.56c0-7.68 2.56-12.8 7.68-15.36 5.12-2.56 7.68-7.68 10.24-10.24 0-2.56 2.56-2.56 2.56-5.12s0-2.56-2.56-5.12-5.12-5.12-7.68-5.12c-5.12 0-10.24 0-12.8-2.56-2.56-2.56-2.56-2.56-7.68-2.56-2.56 0-5.12 0-5.12-2.56h-10.24-20.48-25.6c-15.36-2.56-23.04 0-25.6 0-5.12 0-15.36-2.56-17.92-2.56-2.56 0-5.12 2.56-7.68 2.56l-2.56 2.56c0 2.56-2.56 2.56-5.12 5.12-2.56 0-2.56 2.56-2.56 2.56s-5.12 5.12-10.24 5.12c-2.56 0-7.68-2.56-10.24-2.56h-5.12c-2.56 0-7.68 2.56-10.24-2.56l-5.12-5.12-5.12-2.56c-2.56-2.56-5.12-7.68-7.68-7.68-2.56-2.56-2.56-2.56-5.12-2.56h-5.12c-2.56 2.56-2.56 2.56-5.12 7.68-2.56 7.68-7.68 10.24-15.36 15.36-5.12 2.56-2.56 2.56-7.68 5.12-2.56 2.56-15.36 7.68-20.48 12.8l-5.12 2.56c-7.68 5.12-23.04 15.36-23.04 28.16 0 15.36 5.12 20.48 10.24 20.48h10.24l5.12-2.56c2.56 0 5.12 0 7.68 2.56 5.12 2.56 0 7.68 2.56 10.24l2.56 2.56H1615.36c5.12 2.56 5.12 5.12 5.12 7.68 0 2.56-2.56 7.68-5.12 7.68-2.56 2.56-7.68 2.56-17.92 0h-5.12c-2.56 0-5.12 0-5.12 10.24v2.56c0 10.24 2.56 15.36 7.68 17.92 2.56 2.56 10.24 0 12.8 0 5.12 0 10.24 0 10.24 2.56 2.56 2.56 2.56 5.12 2.56 10.24s0 10.24-2.56 12.8l-7.68 7.68s-2.56 0-2.56 2.56l-2.56 2.56v25.6c0 5.12 5.12 7.68 10.24 10.24 2.56 0 5.12-2.56 10.24-7.68l2.56-2.56c7.68-5.12 20.48-17.92 28.16-20.48 0 0 2.56 0 2.56-2.56 5.12-2.56 15.36-10.24 23.04-7.68 5.12 0 7.68 5.12 7.68 7.68v15.36c0 10.24 5.12 12.8 10.24 17.92l2.56 2.56c2.56 2.56 12.8 2.56 17.92 0l2.56-2.56c2.56-2.56 5.12-5.12 7.68-5.12 2.56-2.56 5.12-5.12 10.24-7.68 2.56-2.56 5.12-5.12 7.68-5.12 2.56-2.56 10.24-2.56 23.04-2.56h15.36c-2.56-10.24 0-10.24 2.56-12.8z m-76.8-56.32v5.12c0 5.12-2.56 15.36-7.68 17.92l-2.56 2.56c-2.56 2.56-5.12 5.12-12.8 2.56-5.12-2.56-5.12-2.56-7.68-5.12 0-2.56 0-5.12-2.56-5.12 0-2.56 0-2.56-5.12-2.56 0 0-2.56 0-5.12 2.56 0 0-5.12 2.56-10.24 2.56h-2.56c-2.56 0-7.68 0-7.68-10.24 0-5.12 0-7.68 2.56-10.24 2.56-2.56 5.12-2.56 10.24-2.56h12.8c2.56 0 2.56 0 5.12-2.56s0-2.56 5.12-5.12c2.56 0 7.68-2.56 7.68-7.68 0-5.12-2.56-7.68-7.68-10.24-10.24 0-17.92-2.56-23.04-2.56-5.12 0-7.68 0-10.24-2.56 0-2.56-2.56-2.56-2.56-5.12v-2.56l2.56-5.12v-2.56c5.12-7.68 25.6-5.12 25.6-2.56l5.12 2.56h5.12c2.56 0 2.56-2.56 2.56-5.12v-10.24c0-2.56-2.56-2.56-2.56-2.56-2.56 0-2.56 0-5.12-2.56l-7.68-2.56c-2.56-2.56-5.12-2.56-7.68-2.56h-20.48c-5.12 0-7.68-2.56-7.68-5.12 0-5.12 2.56-10.24 10.24-10.24 7.68-2.56 12.8-2.56 23.04 0h12.8c2.56 0 7.68 0 10.24 2.56l7.68 2.56c10.24 2.56 10.24 20.48 10.24 23.04 0 20.48 0 30.72 2.56 33.28 0 2.56 2.56 7.68 2.56 15.36-2.56 2.56-5.12 10.24-5.12 12.8z m25.6-89.6c0-5.12 5.12-7.68 12.8-10.24 7.68-2.56 17.92-2.56 20.48-2.56h25.6c5.12 0 12.8 5.12 12.8 10.24 0 2.56 0 5.12-2.56 7.68-2.56 2.56-7.68 2.56-12.8 2.56-2.56 0-15.36-2.56-20.48 0h-17.92c-2.56 0-12.8 2.56-15.36-2.56-2.56-2.56-2.56-5.12-2.56-5.12z m15.36 97.28V481.28c0 2.56 0 5.12-2.56 10.24l-5.12 5.12h-10.24c-2.56 0-2.56-2.56-2.56-7.68 0-2.56 0-5.12 2.56-7.68v-7.68c0-2.56-2.56-5.12 0-10.24s7.68-7.68 10.24-7.68c2.56 0 7.68 0 10.24 7.68 0 0 0 5.12-2.56 10.24z m7.68-43.52c-7.68 0-17.92 2.56-20.48-5.12v-2.56c0-2.56 0-2.56 2.56-5.12s7.68-5.12 10.24-5.12h5.12c2.56 0 7.68-2.56 10.24 0h17.92c5.12 0 10.24 0 10.24 2.56v5.12c0 2.56-2.56 2.56-7.68 5.12-2.56 0-2.56 2.56-5.12 2.56-2.56 5.12-7.68 5.12-12.8 5.12 2.56-2.56-5.12-2.56-10.24-2.56z m12.8 61.44v-10.24c0-5.12 0-5.12 5.12-7.68 2.56-2.56 5.12-2.56 10.24 0l5.12 5.12c0 2.56 2.56 2.56 2.56 5.12v2.56s2.56 2.56 2.56 5.12 0 2.56-2.56 2.56c-5.12 5.12-12.8 5.12-17.92 2.56-2.56 0-5.12-2.56-5.12-5.12zM2176 371.2v-2.56c2.56-5.12 2.56-5.12 0-10.24l-2.56-5.12c0-2.56-2.56-5.12-7.68-7.68l-7.68-5.12c-2.56-2.56-5.12-5.12-15.36-5.12-10.24-2.56-10.24-2.56-12.8-2.56h-35.84-2.56c-2.56 0-5.12-2.56-17.92-2.56-10.24 0-17.92 2.56-23.04 5.12l-7.68 2.56c-5.12 0-12.8 5.12-15.36 10.24-2.56 5.12-5.12 5.12-5.12 7.68 0 2.56 0 5.12-2.56 5.12-2.56 2.56-7.68 0-10.24-5.12l-2.56-2.56c-2.56-2.56-2.56-2.56-2.56-5.12v-2.56c0-2.56-2.56-5.12-5.12-5.12 0 0-7.68-2.56-7.68-5.12-2.56-2.56-7.68-2.56-7.68-5.12-2.56 0-2.56-2.56-7.68-2.56H1971.2c-5.12 0-10.24-2.56-15.36-2.56l-10.24-2.56c-10.24-2.56-25.6-2.56-33.28 5.12-5.12 5.12-5.12 7.68-5.12 10.24 0 2.56 0 15.36 2.56 17.92 2.56 5.12 7.68 10.24 17.92 15.36 10.24 5.12 12.8 5.12 15.36 5.12h5.12c5.12 2.56 17.92 0 20.48-2.56h2.56c5.12-2.56 10.24-5.12 15.36-5.12h12.8c2.56 2.56 2.56 2.56 5.12 0 2.56 0 2.56-2.56 7.68 0 2.56 0 2.56 0 5.12 2.56h2.56c2.56 0 5.12 0 7.68 2.56l2.56 2.56c2.56 2.56 2.56 5.12 7.68 2.56 5.12 0 5.12-2.56 7.68-2.56 2.56-2.56 5.12-2.56 10.24-2.56l5.12-2.56c2.56 0 7.68-2.56 10.24-2.56 5.12 2.56 7.68 2.56 10.24 0H2165.76c5.12 7.68 7.68 7.68 10.24 2.56zM2196.48 430.08c0-5.12 2.56-12.8 2.56-15.36 0-2.56-2.56-2.56-5.12-2.56-7.68-2.56-15.36 0-20.48 0h-12.8L2150.4 409.6c-5.12 0-10.24 0-20.48-2.56-5.12-2.56-17.92-2.56-20.48-2.56-2.56 0-17.92 2.56-25.6 0H2063.36l-12.8 2.56h-5.12-5.12c-2.56 0-7.68 0-7.68 2.56-2.56 2.56-5.12 5.12-10.24 5.12-5.12 2.56-10.24-2.56-17.92-7.68-5.12-5.12-7.68-5.12-12.8-2.56h-25.6-5.12c-5.12 0-10.24-2.56-15.36 0h-5.12c-2.56 0-5.12 0-15.36 5.12-5.12 2.56-7.68 5.12-10.24 7.68 0 2.56 0 7.68 2.56 12.8s5.12 10.24 5.12 17.92c0 5.12 5.12 7.68 7.68 7.68 2.56 0 7.68 0 12.8-2.56 2.56-2.56 5.12-2.56 7.68 0h2.56c5.12 0 7.68 0 10.24-2.56 5.12-2.56 12.8-5.12 20.48-5.12 2.56 0 5.12 2.56 7.68 2.56 2.56 2.56 2.56 7.68 0 12.8 0 5.12-5.12 10.24-7.68 15.36-2.56 5.12-10.24 10.24-12.8 15.36-5.12 2.56-10.24 5.12-15.36 5.12h-5.12c-5.12 0-10.24 2.56-15.36 5.12-5.12 2.56-10.24 2.56-12.8 15.36 0 2.56-2.56 5.12-2.56 10.24v7.68c0 7.68 5.12 10.24 10.24 15.36 2.56 2.56 12.8 2.56 20.48 2.56h2.56c2.56 0 5.12-2.56 7.68-2.56 2.56-2.56 2.56-2.56 12.8-7.68 15.36-7.68 17.92-10.24 20.48-15.36 0 0 2.56-2.56 2.56-5.12s2.56-2.56 2.56-5.12 2.56-5.12 2.56-10.24c2.56-2.56 2.56-5.12 2.56-7.68l2.56-7.68c0-2.56 2.56-7.68 2.56-12.8v-5.12-10.24c2.56-5.12 5.12-5.12 10.24-7.68h15.36c2.56 2.56 12.8 0 17.92 0 5.12-2.56 10.24-2.56 23.04-2.56 10.24 0 15.36 5.12 15.36 10.24v2.56c5.12 5.12 5.12 20.48 5.12 20.48v12.8c0 5.12 2.56 12.8 2.56 15.36 2.56 5.12 2.56 12.8 0 17.92 0 5.12 0 10.24 2.56 12.8 2.56 2.56 2.56 7.68 2.56 10.24 0 2.56 0 5.12 2.56 10.24l2.56 5.12s2.56 5.12 5.12 5.12 2.56-2.56 5.12-2.56v-2.56-2.56c0-2.56 2.56-5.12 2.56-7.68 0 0 2.56-10.24 2.56-7.68V537.6v-2.56c0-2.56 0-5.12-2.56-10.24 0-2.56-2.56-5.12-2.56-7.68v-10.24-10.24-15.36-5.12-10.24c0-2.56-2.56-10.24-2.56-12.8v-5.12-2.56c2.56-5.12 5.12-7.68 10.24-7.68 2.56 0 7.68 2.56 12.8 7.68l2.56 2.56c5.12 2.56 17.92 2.56 23.04 2.56 5.12 0 7.68-2.56 10.24-5.12l2.56-2.56c12.8-5.12 15.36-10.24 17.92-12.8zM576 296.96c-120.32 0-215.04 97.28-215.04 215.04 0 120.32 97.28 215.04 215.04 215.04 56.32 0 94.72-20.48 112.64-30.72 40.96-25.6 64-61.44 58.88-97.28-5.12-30.72-33.28-53.76-69.12-64-2.56 0-7.68-2.56-10.24-2.56 17.92-10.24 28.16-23.04 30.72-40.96 5.12-38.4-38.4-76.8-97.28-84.48-53.76-7.68-97.28-2.56-112.64-2.56v69.12c30.72-5.12 71.68-5.12 104.96 0 28.16 5.12 46.08 15.36 48.64 28.16 0 2.56 0 7.68-2.56 10.24-7.68 10.24-20.48 10.24-30.72 7.68-35.84-5.12-76.8-5.12-117.76 0V588.8c38.4-5.12 102.4-5.12 133.12 0 28.16 5.12 46.08 17.92 48.64 33.28 0 7.68-2.56 12.8-7.68 20.48-10.24 12.8-40.96 25.6-84.48 25.6-87.04 0-158.72-71.68-158.72-158.72 0-87.04 71.68-158.72 158.72-158.72 87.04 0 158.72 71.68 158.72 158.72v17.92c10.24 5.12 28.16 17.92 48.64 40.96 5.12-17.92 7.68-38.4 7.68-58.88-2.56-117.76-99.84-212.48-220.16-212.48z" fill="#E50012" p-id="2600"></path></svg>