<svg t="1660875655046" class="icon" viewBox="0 0 2560 1024" version="1.1" xmlns="http://www.w3.org/2000/svg" p-id="2029" width="200" height="200"><path d="M581.12 404.48c-33.28 0-66.56 5.12-94.72 15.36 43.52 7.68 79.36 46.08 79.36 92.16 0 84.48-99.84 153.6-220.16 153.6-38.4 0-74.24-7.68-104.96-17.92 64 76.8 143.36 140.8 232.96 184.32 138.24-66.56 250.88-179.2 320-320-2.56-2.56-2.56-7.68-5.12-10.24-35.84-56.32-115.2-97.28-207.36-97.28z" fill="#D4AB44" p-id="2030"></path><path d="M363.52 616.96c33.28 0 64-5.12 92.16-12.8-40.96-7.68-74.24-43.52-74.24-87.04v-2.56c0-84.48 99.84-153.6 220.16-153.6 38.4 0 74.24 7.68 104.96 17.92-64-76.8-143.36-140.8-232.96-184.32C332.8 261.12 220.16 373.76 153.6 512c28.16 61.44 112.64 104.96 209.92 104.96z" fill="#005BAC" p-id="2031"></path><path d="M2209.28 355.84v2.56c-2.56 5.12-7.68 2.56-10.24 12.8 2.56 2.56 7.68 5.12 10.24 7.68 10.24 5.12 20.48 10.24 20.48 25.6 0 5.12-2.56 7.68-2.56 12.8 0 0 2.56 0 2.56 2.56 2.56 0 2.56-2.56 5.12-2.56v-12.8c2.56-2.56 2.56-2.56 5.12-2.56l2.56 2.56 2.56 2.56c0 2.56 0 5.12-2.56 7.68-2.56 12.8-10.24 23.04-15.36 33.28-7.68 15.36-7.68 33.28-12.8 48.64l-7.68 7.68c-2.56 2.56-2.56 2.56-2.56 5.12s0 7.68 2.56 10.24c0 5.12-5.12 12.8-7.68 17.92-5.12 10.24-7.68 33.28-23.04 35.84-2.56-5.12-10.24-7.68-10.24-10.24-12.8-25.6 10.24-46.08 5.12-71.68v-2.56c-15.36 2.56-33.28 28.16-40.96 30.72H2124.8c-12.8-10.24-10.24-20.48-10.24-35.84 15.36-7.68 25.6-23.04 35.84-35.84 5.12-7.68 12.8-7.68 15.36-17.92 5.12-7.68 10.24-7.68 10.24-20.48l-2.56-2.56c-7.68 0-17.92 5.12-28.16 5.12-10.24-5.12-23.04-17.92-15.36-33.28 2.56-7.68 10.24-12.8 15.36-17.92 10.24-12.8 17.92-23.04 25.6-35.84 2.56-5.12 12.8-10.24 15.36-15.36 2.56-5.12 2.56-12.8 5.12-17.92h2.56c5.12 0 10.24 2.56 15.36 5.12 10.24 5.12 17.92 15.36 23.04 23.04-2.56 23.04-12.8 23.04-23.04 35.84 0-5.12 0-2.56 0 0z m89.6-58.88c2.56 2.56 2.56 2.56 2.56 5.12 2.56 2.56 5.12 2.56 5.12 5.12 12.8 23.04-12.8 46.08-15.36 61.44h2.56c10.24-5.12 23.04-25.6 28.16-35.84 7.68 0 12.8 5.12 20.48 2.56 7.68-5.12 7.68-17.92 2.56-25.6-10.24-12.8-25.6-28.16-48.64-25.6 0 0-2.56 0-2.56 2.56s-2.56 5.12-2.56 10.24c2.56-2.56 5.12-2.56 7.68 0z m-48.64 276.48c10.24-2.56 15.36-2.56 25.6-5.12 12.8-5.12 28.16-2.56 35.84-15.36 7.68-10.24 7.68-74.24 5.12-92.16 0-5.12-5.12-5.12-7.68-10.24v-2.56c15.36 0 20.48 10.24 25.6 20.48 0 0-2.56 17.92-2.56 23.04 7.68 25.6 7.68 76.8 0 102.4-5.12 2.56-12.8 5.12-20.48 5.12-2.56-5.12-58.88-15.36-61.44-25.6 0 2.56 0 2.56 0 0z m0-128c2.56 5.12 5.12 10.24 12.8 15.36l10.24-10.24c25.6-12.8 51.2-20.48 76.8-33.28h7.68c2.56-2.56 5.12-2.56 10.24-5.12 2.56 0 17.92-2.56 17.92-2.56 5.12 0 10.24 5.12 17.92 5.12 2.56-7.68 0-15.36 0-23.04-10.24-5.12-25.6-10.24-35.84-12.8-7.68 5.12-15.36 12.8-25.6 17.92-15.36 5.12-30.72 10.24-46.08 17.92-15.36 7.68-28.16 20.48-46.08 23.04-2.56 2.56-2.56 2.56-2.56 7.68 2.56-2.56 2.56 0 2.56 0z m0-66.56c2.56 2.56 2.56 5.12 0 7.68v-5.12-2.56z m10.24-10.24c2.56-7.68 5.12-7.68 5.12-15.36h-2.56c-2.56 2.56-5.12 10.24-2.56 15.36z m-17.92 25.6c2.56 0 2.56 0 0 0h2.56c2.56-2.56 5.12-7.68 0-7.68 0 0 0 2.56-2.56 2.56v5.12z m-33.28 46.08c-7.68 7.68-17.92 20.48-20.48 25.6 0 2.56 2.56 7.68 5.12 10.24h2.56c5.12-2.56 7.68-7.68 10.24-15.36 2.56-5.12 5.12-10.24 5.12-15.36 7.68-2.56 12.8-7.68 15.36-12.8v-2.56h-5.12v2.56c-2.56-2.56-7.68 2.56-12.8 7.68zM1751.04 550.4c-5.12 2.56-7.68 2.56-12.8 5.12 0 0-2.56 0-2.56-2.56-2.56-7.68-7.68-25.6-5.12-33.28 2.56-5.12 10.24-7.68 12.8-12.8 2.56-5.12 5.12-7.68 7.68-12.8 2.56-5.12 5.12-7.68 7.68-12.8 0-5.12-5.12-7.68-2.56-15.36l2.56 2.56c0 2.56 2.56 5.12 2.56 7.68h2.56c2.56-5.12 7.68-7.68 7.68-15.36v-2.56c-5.12 0-10.24 0-15.36 2.56l-2.56-2.56c-2.56-2.56-7.68-5.12-7.68-10.24 2.56-2.56 5.12-5.12 7.68-5.12l5.12-5.12c5.12-2.56 15.36-2.56 17.92-7.68 2.56-5.12 0-17.92 0-23.04h-28.16v-2.56c2.56-2.56 5.12-2.56 5.12-5.12 7.68-7.68 15.36-12.8 25.6-17.92 5.12 0 10.24 0 15.36 2.56 0 12.8 0 25.6 2.56 35.84 2.56 10.24 5.12 17.92 10.24 28.16 0 7.68-7.68 10.24-7.68 20.48l25.6-25.6h2.56v2.56c7.68-5.12 15.36-23.04 25.6-28.16v2.56c-10.24 40.96-46.08 84.48-74.24 107.52-10.24 5.12-17.92 17.92-28.16 23.04z m143.36-110.08c5.12-2.56 7.68-7.68 12.8-10.24 5.12 2.56 10.24 0 15.36-2.56 5.12-7.68 5.12-15.36 5.12-25.6v-15.36c5.12-25.6 10.24-61.44 5.12-89.6-2.56 0-5.12-2.56-7.68-2.56-7.68-2.56-15.36-2.56-23.04-2.56h-2.56c2.56 7.68 10.24 10.24 12.8 17.92 5.12 17.92-2.56 33.28-2.56 48.64h-2.56s-5.12 0-12.8-2.56h-2.56c-7.68-5.12 0-17.92-20.48-23.04 0 0-2.56 0-2.56 2.56 2.56 7.68 7.68 15.36 7.68 28.16-2.56 2.56-5.12 2.56-7.68 7.68 7.68 12.8 0 30.72-2.56 48.64-7.68 30.72-5.12 58.88-10.24 92.16 0 7.68-2.56 15.36-2.56 23.04V563.2c0 5.12 2.56 7.68 2.56 12.8 2.56 5.12 10.24 15.36 15.36 17.92h7.68c7.68-5.12 10.24-17.92 17.92-23.04l2.56-2.56c12.8-10.24 23.04-20.48 30.72-30.72 7.68-7.68 12.8-17.92 20.48-28.16 20.48 10.24 40.96 17.92 61.44 28.16 5.12 2.56 12.8 12.8 20.48 10.24 2.56-2.56 2.56-10.24 5.12-12.8-15.36-20.48-48.64-40.96-74.24-48.64 0-5.12 2.56-12.8 5.12-17.92h-2.56c-2.56 2.56-5.12 7.68-7.68 10.24l-2.56 2.56c0-2.56 2.56-5.12 2.56-5.12-2.56 0-5.12 2.56-7.68 5.12-5.12 0-7.68-2.56-12.8-2.56-2.56 0 0 0-2.56-2.56 17.92-20.48 76.8-33.28 79.36-61.44-2.56-2.56-7.68-7.68-12.8-10.24-10.24 2.56-53.76 40.96-71.68 58.88-2.56 2.56-5.12 2.56-5.12 5.12l-7.68 7.68c-2.56 2.56-12.8-2.56-12.8 2.56 0 2.56 2.56 5.12 2.56 7.68h2.56c5.12 5.12 12.8 10.24 17.92 12.8v5.12c-7.68 10.24-20.48 20.48-30.72 30.72-7.68 7.68-15.36 12.8-23.04 17.92h-2.56c-2.56-12.8 7.68-92.16 12.8-97.28 2.56 0 5.12 0 5.12-2.56 2.56-7.68 2.56-10.24 5.12-12.8z m0-64s2.56 0 0 0h2.56c0 2.56-2.56 5.12-2.56 10.24v2.56h-2.56c0-5.12 2.56-10.24 2.56-12.8z m0 20.48c2.56-7.68 7.68-15.36 12.8-23.04 10.24 10.24-5.12 30.72-12.8 40.96l-5.12 5.12c2.56-10.24 2.56-17.92 5.12-23.04z m33.28 64c2.56-2.56 5.12-2.56 5.12-5.12v2.56l-7.68 7.68c-2.56 0-2.56 2.56-5.12 5.12h-2.56c2.56-5.12 5.12-7.68 10.24-10.24z m-176.64-133.12c-12.8 23.04-23.04 46.08-35.84 66.56l-30.72 30.72c-2.56 0-2.56 0-5.12-2.56-5.12 5.12-7.68 15.36-10.24 25.6v5.12c0 7.68 2.56 12.8 10.24 15.36 33.28-23.04 48.64-40.96 66.56-81.92 2.56-2.56 2.56-7.68 5.12-12.8 5.12-15.36 10.24-30.72 20.48-33.28 5.12-10.24 0-25.6-10.24-28.16-5.12 5.12-7.68 10.24-10.24 15.36z m58.88 12.8c5.12-5.12 12.8-2.56 15.36-10.24 5.12-12.8-12.8-20.48-23.04-20.48l-2.56 2.56v2.56l5.12 5.12c-2.56 15.36-10.24 25.6-17.92 38.4h10.24c5.12-7.68 10.24-12.8 12.8-17.92zM1169.92 483.84h-38.4l-2.56-2.56c10.24-25.6 97.28-84.48 20.48-99.84-5.12 2.56-10.24 0-17.92 2.56-20.48 5.12-51.2 7.68-81.92 7.68l-2.56 2.56c2.56 2.56 7.68 2.56 12.8 2.56v2.56c-7.68 0-12.8 2.56-20.48 5.12 2.56 7.68 12.8 2.56 23.04 5.12 17.92 2.56 35.84 10.24 53.76 5.12v17.92c-7.68 10.24-51.2 40.96-43.52 56.32 5.12 12.8-5.12 28.16 20.48 38.4 33.28 7.68 58.88-2.56 89.6-5.12 10.24-12.8 7.68-33.28-12.8-38.4zM947.2 519.68c-7.68-25.6 12.8-71.68-15.36-84.48l-2.56-2.56c-7.68 12.8 2.56 25.6 0 46.08-2.56 17.92-7.68 33.28-7.68 51.2v2.56c0 7.68 0 17.92 2.56 25.6 5.12 23.04 10.24 33.28 33.28 43.52 12.8 0 35.84-87.04 40.96-148.48-12.8 15.36-25.6 66.56-51.2 66.56z m25.6-222.72c-7.68 5.12-10.24 5.12-15.36 15.36 15.36 12.8 23.04 30.72 10.24 48.64-2.56 2.56-5.12 2.56-7.68 7.68 33.28-15.36 61.44-23.04 61.44-51.2-2.56-20.48-28.16-23.04-48.64-20.48zM1315.84 506.88c-5.12 10.24-15.36 20.48-17.92 33.28-2.56 10.24 0 17.92-2.56 28.16l2.56 2.56h10.24c2.56-5.12 5.12-10.24 12.8-10.24 5.12-7.68 7.68-12.8 12.8-20.48 2.56-2.56 5.12-7.68 5.12-10.24 2.56-2.56 2.56-10.24 5.12-12.8-5.12-10.24-15.36-17.92-28.16-10.24z m33.28-138.24c2.56 0 7.68-2.56 15.36-5.12 17.92-5.12 33.28-5.12 20.48 2.56-10.24 5.12-23.04 12.8-33.28 25.6h-2.56s0 2.56-2.56 2.56c-2.56 2.56-2.56 7.68-7.68 10.24h-2.56c-5.12-5.12-7.68-12.8-12.8-17.92-2.56-7.68 2.56-17.92 2.56-25.6v-23.04c0-7.68 2.56-15.36 5.12-23.04h2.56c10.24 15.36 12.8 35.84 15.36 53.76z m207.36 168.96c-10.24-5.12-17.92-10.24-23.04-20.48 2.56-2.56 5.12-2.56 5.12-5.12 5.12 0 12.8 2.56 17.92 5.12 7.68 2.56 12.8 5.12 17.92 5.12 20.48 7.68 46.08 12.8 46.08 35.84v12.8c-5.12 0-5.12 2.56-7.68 5.12-20.48 0-20.48-12.8-33.28-20.48-7.68-7.68-15.36-12.8-23.04-17.92z m-48.64-256c-7.68 7.68-15.36 12.8-23.04 20.48-7.68 10.24-17.92 20.48-25.6 30.72h-10.24c0 2.56 0 5.12 2.56 7.68-7.68 10.24-15.36 25.6-25.6 35.84l-2.56 2.56V358.4c2.56-23.04 0-48.64-2.56-69.12 0-7.68 2.56-10.24 0-17.92-2.56-10.24-12.8-15.36-23.04-17.92-5.12-2.56-5.12-5.12-15.36-5.12 2.56 17.92 10.24 33.28 10.24 53.76 2.56 35.84-5.12 74.24 2.56 102.4-12.8 25.6-38.4 38.4-25.6 76.8 5.12 2.56 12.8 2.56 20.48 2.56l2.56 2.56c-10.24 23.04-46.08 76.8-40.96 99.84 0 2.56 2.56 7.68 5.12 7.68 0 5.12-2.56 5.12 0 10.24 0 0 0 2.56 2.56 2.56h2.56l15.36-23.04h2.56c2.56 7.68 7.68 5.12 7.68 12.8 7.68 2.56 15.36 0 20.48 0 7.68 0 12.8 0 20.48-2.56 5.12 0 12.8-2.56 17.92-5.12 23.04-12.8 40.96-56.32 48.64-87.04 2.56-15.36 5.12-35.84 2.56-53.76-2.56-20.48-20.48-25.6-43.52-25.6v-2.56l7.68-7.68c-2.56-5.12-5.12-10.24-10.24-12.8-10.24 2.56-15.36 7.68-23.04 10.24-7.68 5.12-12.8 15.36-23.04 23.04h-2.56s0-2.56-2.56-2.56c2.56-12.8 17.92-23.04 25.6-30.72l2.56-2.56c12.8-17.92 28.16-35.84 40.96-53.76 7.68-5.12 30.72-5.12 40.96-7.68 5.12-2.56 10.24-2.56 15.36-5.12 7.68 0 15.36 0 23.04 2.56 2.56 0 5.12 2.56 7.68 2.56 7.68 2.56 12.8 5.12 20.48 2.56l2.56-2.56c-2.56-17.92-12.8-12.8-23.04-20.48-2.56-2.56-2.56-5.12-5.12-7.68-7.68-10.24-15.36-17.92-25.6-25.6-5.12-5.12-12.8-2.56-17.92 0z m-81.92 271.36c-2.56 2.56-7.68 5.12-10.24 7.68-7.68-5.12-15.36-10.24-25.6-12.8-2.56-12.8 20.48-46.08 35.84-71.68 5.12-7.68 7.68-15.36 10.24-20.48 2.56 0 7.68-2.56 10.24-2.56h5.12c23.04 28.16 0 79.36-25.6 99.84z m81.92-230.4c-10.24 2.56-20.48 2.56-23.04 5.12h-2.56c2.56-5.12 15.36-15.36 25.6-23.04 5.12-2.56 7.68-5.12 10.24-7.68h2.56c5.12 5.12 7.68 12.8 12.8 20.48-2.56 0-15.36 2.56-25.6 5.12zM993.28 696.32c7.68 2.56 12.8 2.56 15.36 5.12 5.12 5.12 7.68 7.68 7.68 15.36 0 5.12-2.56 7.68-5.12 12.8s-7.68 7.68-12.8 7.68c-5.12 2.56-15.36 2.56-25.6 2.56h-51.2v-2.56h5.12c5.12 0 7.68 0 10.24-2.56 0-2.56 2.56-5.12 2.56-10.24v-56.32c0-5.12 0-10.24-2.56-10.24-2.56-2.56-5.12-2.56-10.24-2.56H921.6v-2.56h46.08c7.68 0 15.36 0 20.48 2.56 7.68 2.56 12.8 5.12 17.92 7.68 5.12 5.12 5.12 7.68 5.12 12.8s-2.56 7.68-5.12 12.8c-2.56 2.56-5.12 5.12-12.8 7.68z m-40.96-2.56h15.36c7.68 0 12.8 0 17.92-2.56 2.56-2.56 7.68-2.56 7.68-5.12 2.56-2.56 2.56-5.12 2.56-10.24s-2.56-10.24-7.68-12.8c-5.12-2.56-12.8-5.12-23.04-5.12-5.12 0-10.24 0-12.8 2.56v33.28z m0 40.96c5.12 0 12.8 2.56 17.92 2.56 10.24 0 17.92-2.56 20.48-5.12 5.12-2.56 7.68-7.68 7.68-12.8 0-2.56 0-7.68-2.56-10.24-2.56-2.56-5.12-5.12-10.24-7.68-5.12-2.56-10.24-2.56-17.92-2.56h-12.8v35.84zM1098.24 711.68h-40.96l-7.68 12.8v10.24c0 2.56 0 2.56 2.56 2.56s5.12 2.56 10.24 2.56v2.56h-33.28v-2.56c5.12 0 7.68-2.56 7.68-2.56 2.56-2.56 5.12-7.68 7.68-12.8l38.4-71.68h2.56l35.84 74.24c2.56 5.12 5.12 10.24 7.68 12.8 2.56 2.56 5.12 2.56 10.24 2.56h-40.96v-2.56c5.12 0 7.68 0 7.68-2.56 2.56 0 2.56-2.56 2.56-2.56 0-2.56 0-5.12-2.56-10.24l-7.68-12.8z m-2.56-5.12l-17.92-35.84-17.92 35.84h35.84zM1139.2 652.8h28.16l64 66.56v-51.2c0-5.12 0-7.68-2.56-10.24-2.56-2.56-5.12-2.56-10.24-2.56h-2.56v-2.56H1254.4v2.56h-2.56c-5.12 0-7.68 0-10.24 2.56 0 2.56-2.56 5.12-2.56 10.24V742.4h-2.56l-69.12-71.68v53.76c0 5.12 0 7.68 2.56 10.24 2.56 2.56 5.12 2.56 10.24 2.56h2.56v5.12h-38.4v-2.56h2.56c5.12 0 7.68 0 10.24-2.56 0-2.56 2.56-5.12 2.56-10.24V665.6c-2.56-2.56-5.12-5.12-7.68-5.12-2.56 0-5.12-2.56-7.68-2.56 0-2.56-2.56-2.56-5.12-5.12zM1303.04 691.2l38.4 33.28c5.12 5.12 12.8 10.24 15.36 10.24 5.12 2.56 7.68 2.56 12.8 2.56v5.12h-51.2v-2.56h7.68c2.56 0 2.56-2.56 2.56-2.56v-2.56l-5.12-5.12-35.84-30.72V734.72l2.56 2.56c2.56 0 5.12 2.56 7.68 2.56h2.56v2.56H1254.4v-2.56h2.56c5.12 0 7.68 0 10.24-2.56 0-2.56 2.56-5.12 2.56-10.24v-56.32-10.24l-2.56-2.56c-2.56 0-5.12-2.56-7.68-2.56h-2.56v-2.56h46.08v2.56h-2.56c-2.56 0-5.12 0-7.68 2.56-2.56 0-2.56 2.56-2.56 2.56V696.32s5.12-2.56 10.24-7.68c15.36-12.8 25.6-20.48 28.16-23.04 2.56-2.56 2.56-2.56 2.56-5.12 0 0 0-2.56-2.56-2.56H1320.96v-2.56h38.4v2.56h-5.12c-2.56 0-5.12 2.56-7.68 2.56-2.56 2.56-5.12 2.56-10.24 7.68 0 0-5.12 5.12-15.36 12.8l-17.92 10.24zM1512.96 650.24c12.8 0 25.6 5.12 35.84 12.8 10.24 7.68 15.36 20.48 15.36 33.28s-5.12 25.6-15.36 33.28c-12.8 10.24-23.04 12.8-38.4 12.8s-25.6-5.12-35.84-12.8c-10.24-7.68-15.36-20.48-15.36-33.28 0-15.36 5.12-25.6 17.92-33.28 7.68-7.68 20.48-12.8 35.84-12.8z m-2.56 5.12c-10.24 0-17.92 2.56-23.04 7.68-7.68 7.68-10.24 17.92-10.24 33.28 0 15.36 2.56 25.6 10.24 33.28 5.12 5.12 12.8 7.68 23.04 7.68s17.92-2.56 25.6-10.24c7.68-7.68 10.24-17.92 10.24-30.72 0-15.36-2.56-25.6-10.24-33.28-7.68-5.12-15.36-7.68-25.6-7.68zM1600 657.92V691.2h17.92c5.12 0 7.68 0 10.24-2.56 2.56-2.56 2.56-5.12 5.12-10.24h2.56v30.72h-2.56c0-2.56 0-5.12-2.56-7.68 0-2.56-2.56-2.56-5.12-2.56h-25.6V734.72l2.56 2.56c2.56 0 5.12 2.56 7.68 2.56h2.56v2.56h-46.08v-2.56h2.56c5.12 0 7.68 0 10.24-2.56 0-2.56 2.56-5.12 2.56-10.24v-56.32-7.68l-2.56-2.56c-2.56 0-5.12-2.56-7.68-2.56h-2.56v-2.56h79.36v20.48h-2.56c-2.56-5.12-2.56-7.68-5.12-10.24-2.56-2.56-5.12-2.56-7.68-5.12-2.56 0-7.68-2.56-12.8-2.56h-20.48zM1856 739.84l-46.08 2.56v-2.56h2.56c5.12 0 7.68 0 10.24-2.56 0-2.56 2.56-5.12 2.56-10.24v-56.32-7.68l-2.56-2.56c-2.56 0-5.12-2.56-7.68-2.56h-2.56v-2.56h46.08v2.56h-2.56c-5.12 0-7.68 0-10.24 2.56-2.56 2.56-2.56 5.12-2.56 10.24v64l2.56 2.56c2.56 0 5.12 2.56 7.68 2.56h2.56zM1932.8 711.68h-40.96l-7.68 12.8c-2.56 2.56-2.56 5.12-2.56 7.68 0 2.56 0 2.56 2.56 2.56s5.12 2.56 10.24 2.56v5.12h-33.28v-2.56c5.12 0 7.68-2.56 7.68-2.56 2.56-2.56 5.12-7.68 7.68-12.8l38.4-71.68h5.12l35.84 74.24c2.56 5.12 5.12 10.24 7.68 12.8 2.56 2.56 5.12 2.56 10.24 2.56h-40.96v-2.56c5.12 0 7.68 0 7.68-2.56 2.56 0 2.56-2.56 2.56-2.56 0-2.56 0-5.12-2.56-10.24l-7.68-12.8z m-2.56-5.12l-17.92-35.84-17.92 35.84h35.84zM1971.2 652.8h28.16l64 66.56v-51.2c0-5.12 0-7.68-2.56-10.24-2.56-2.56-5.12-2.56-10.24-2.56H2048v-2.56h38.4v2.56h-2.56c-5.12 0-7.68 0-10.24 2.56 0 2.56-2.56 5.12-2.56 10.24V742.4h-2.56l-69.12-71.68v53.76c0 5.12 0 7.68 2.56 10.24 2.56 2.56 5.12 2.56 10.24 2.56h2.56v5.12h-38.4v-2.56h2.56c5.12 0 7.68 0 10.24-2.56 0-2.56 2.56-5.12 2.56-10.24V665.6c-2.56-2.56-5.12-5.12-7.68-5.12-2.56 0-5.12-2.56-7.68-2.56 2.56-2.56 0-2.56-5.12-5.12zM2186.24 650.24l2.56 28.16h-2.56c-2.56-7.68-5.12-12.8-10.24-15.36-5.12-5.12-15.36-7.68-23.04-7.68-12.8 0-23.04 5.12-30.72 12.8-5.12 7.68-7.68 15.36-7.68 28.16 0 7.68 2.56 15.36 5.12 23.04 5.12 7.68 7.68 12.8 15.36 15.36 5.12 2.56 12.8 5.12 20.48 5.12h10.24c2.56 0 7.68-2.56 10.24-2.56v-25.6-10.24c0-2.56-2.56-2.56-2.56-2.56h-7.68v-2.56H2201.6v2.56h-2.56c-5.12 0-7.68 0-7.68 2.56s-2.56 5.12-2.56 10.24v28.16c-5.12 2.56-12.8 5.12-17.92 5.12-5.12 0-12.8 2.56-20.48 2.56-20.48 0-35.84-5.12-46.08-15.36-7.68-7.68-12.8-17.92-12.8-28.16 0-7.68 2.56-15.36 7.68-23.04 5.12-7.68 12.8-15.36 20.48-20.48 7.68-2.56 17.92-5.12 28.16-5.12h10.24c2.56 0 7.68 2.56 12.8 2.56 2.56 0 5.12 2.56 5.12 2.56h2.56s0-2.56 2.56-5.12h5.12zM2278.4 650.24v30.72h-2.56c0-5.12-2.56-10.24-5.12-12.8-2.56-2.56-5.12-5.12-10.24-7.68-5.12-2.56-10.24-2.56-12.8-2.56-5.12 0-10.24 2.56-12.8 5.12-7.68 0-7.68 2.56-7.68 7.68 0 2.56 0 5.12 2.56 7.68 2.56 2.56 10.24 7.68 23.04 12.8 10.24 5.12 17.92 7.68 20.48 10.24l7.68 7.68c2.56 2.56 2.56 7.68 2.56 10.24 0 7.68-2.56 12.8-10.24 17.92-5.12 5.12-15.36 7.68-23.04 7.68h-7.68c-2.56 0-5.12 0-10.24-2.56s-7.68-2.56-10.24-2.56h-2.56s-2.56 2.56-2.56 5.12h-2.56v-30.72h2.56c2.56 5.12 2.56 10.24 5.12 15.36 2.56 2.56 5.12 5.12 10.24 7.68 5.12 2.56 10.24 2.56 15.36 2.56 7.68 0 12.8-2.56 15.36-5.12 2.56-2.56 5.12-5.12 5.12-10.24 0-2.56 0-5.12-2.56-7.68-2.56-2.56-2.56-5.12-7.68-5.12-2.56-2.56-7.68-5.12-17.92-7.68l-20.48-10.24c-2.56-2.56-7.68-5.12-7.68-7.68-2.56-2.56-2.56-7.68-2.56-10.24 0-5.12 2.56-12.8 7.68-15.36 5.12-5.12 12.8-7.68 23.04-7.68 5.12 0 12.8 0 17.92 2.56 2.56 0 5.12 2.56 5.12 2.56h2.56s2.56-2.56 2.56-5.12h10.24zM2368 655.36l38.4-2.56v2.56h-5.12c-5.12 0-7.68 2.56-10.24 5.12 0 2.56-2.56 5.12-2.56 10.24v35.84c0 7.68 0 15.36-2.56 20.48-2.56 5.12-5.12 10.24-12.8 12.8-5.12 2.56-15.36 5.12-25.6 5.12-12.8 0-20.48-2.56-25.6-5.12-5.12-2.56-10.24-7.68-12.8-12.8-2.56-5.12-2.56-10.24-2.56-23.04v-35.84c0-5.12 0-10.24-2.56-10.24-2.56-2.56-5.12-2.56-7.68-2.56h-5.12v-2.56h46.08v2.56h-5.12c-5.12 0-7.68 0-10.24 2.56-2.56 2.56-2.56 5.12-2.56 10.24v51.2c0 5.12 2.56 7.68 5.12 10.24 2.56 2.56 5.12 5.12 7.68 5.12 2.56 2.56 7.68 2.56 12.8 2.56 7.68 0 12.8 0 17.92-2.56 5.12-2.56 10.24-5.12 10.24-10.24 2.56-5.12 2.56-10.24 2.56-20.48v-35.84c0-5.12 0-10.24-2.56-10.24-2.56-2.56-5.12-2.56-10.24-2.56h5.12z" fill="#231815" p-id="2032"></path><path d="M1781.76 739.84c0 5.12 0 10.24-2.56 15.36-2.56 5.12-5.12 7.68-7.68 10.24-5.12 2.56-10.24 5.12-17.92 7.68l-2.56-5.12c5.12-2.56 7.68-2.56 10.24-5.12l5.12-5.12v-87.04-7.68c0-2.56 0-2.56-2.56-2.56 0 0-7.68-2.56-10.24-2.56v-2.56h40.96v2.56c-2.56 0-7.68 0-7.68 2.56 0 0-2.56 0-2.56 2.56 0 0 0 2.56-2.56 2.56v74.24z" fill="#231815" p-id="2033"></path></svg>